<?xml version="1.0" encoding="UTF-8" standalone="no"?>
<!DOCTYPE svg PUBLIC "-//W3C//DTD SVG 1.1//EN" "http://www.w3.org/Graphics/SVG/1.1/DTD/svg11.dtd">
<!-- Generated by Microsoft Visio, SVG Export zigbee_signal_handler_03_first_start.svg Page-1 -->
<svg xmlns="http://www.w3.org/2000/svg" xmlns:xlink="http://www.w3.org/1999/xlink" xmlns:ev="http://www.w3.org/2001/xml-events"
		width="7.86186in" height="4.83175in" viewBox="0 0 566.054 347.886" xml:space="preserve" color-interpolation-filters="sRGB"
		class="st10">
	<style type="text/css">
	<![CDATA[
		.st1 {fill:#00a9ce;stroke:none;stroke-width:1}
		.st2 {fill:#feffff;font-family:Calibri;font-size:0.833336em}
		.st3 {marker-end:url(#mrkr13-12);stroke:#333f48;stroke-linecap:butt;stroke-width:1}
		.st4 {fill:#333f48;fill-opacity:1;stroke:#333f48;stroke-opacity:1;stroke-width:0.28409090909091}
		.st5 {fill:#333f48;stroke:#feffff;stroke-width:1}
		.st6 {fill:#0077c8;stroke:none;stroke-width:1}
		.st7 {fill:#0033a0;stroke:none;stroke-width:1}
		.st8 {fill:none;stroke:none;stroke-width:1}
		.st9 {fill:#333f48;font-family:Calibri;font-size:1.00001em}
		.st10 {fill:none;fill-rule:evenodd;font-size:12px;overflow:visible;stroke-linecap:square;stroke-miterlimit:3}
	]]>
	</style>

	<defs id="Markers">
		<g id="lend13">
			<path d="M 3 1 L 0 0 L 3 -1 L 3 1 " style="stroke:none"/>
		</g>
		<marker id="mrkr13-12" class="st4" refX="-10.56" orient="auto" markerUnits="strokeWidth" overflow="visible">
			<use xlink:href="#lend13" transform="scale(-3.52,-3.52) "/>
		</marker>
	</defs>
	<g>
		<title>Page-1</title>
		<g id="shape1340-1" transform="translate(189.938,-312.445)">
			<title>Nordic Blue</title>
			<desc>ZB_BDB_SIGNAL_DEVICE_FIRST_START</desc>
			<rect x="0" y="313.445" width="176.298" height="34.4409" class="st1"/>
			<text x="8.68" y="334.27" class="st2">ZB_BDB_SIGNAL_DEVICE_FIRST_START</text>		</g>
		<g id="shape1342-4" transform="translate(1,-130.422)">
			<title>Nordic Blue.1342</title>
			<desc>bdb_start_top_level_commissioning(ZB_BDB_NETWORK_FORMATION)</desc>
			<rect x="0" y="313.445" width="298.913" height="34.4409" class="st1"/>
			<text x="4.38" y="334.27" class="st2">bdb_start_top_level_commissioning(ZB_BDB_NETWORK_FORMATION)</text>		</g>
		<g id="shape1343-7" transform="translate(150.457,-130.422)">
			<title>Dynamic connector.1343</title>
			<path d="M0 347.89 L0 383.26 L104.89 383.26" class="st3"/>
		</g>
		<g id="shape1344-13" transform="translate(271,-1)">
			<title>Circle.1344</title>
			<path d="M0 340.8 A7.08661 7.08661 0 0 1 14.17 340.8 A7.08661 7.08661 0 1 1 0 340.8 Z" class="st5"/>
		</g>
		<g id="shape1345-15" transform="translate(271,-312.445)">
			<title>Dynamic connector.1345</title>
			<path d="M7.09 347.89 L7.09 363.56" class="st3"/>
		</g>
		<g id="shape1346-20" transform="translate(221.394,-251.771)">
			<title>Hexagon</title>
			<desc>status == RET_OK</desc>
			<path d="M89.42 313.44 L23.96 313.44 L-8.77 330.67 L23.96 347.89 L89.42 347.89 L122.16 330.67 L89.42 313.44 Z"
					class="st6"/>
			<text x="21.18" y="333.67" class="st2">status == RET_OK</text>		</g>
		<g id="shape1347-23" transform="translate(221.394,-191.096)">
			<title>Hexagon.1347</title>
			<desc>role == coordinator</desc>
			<path d="M89.42 313.44 L23.96 313.44 L-8.77 330.67 L23.96 347.89 L89.42 347.89 L122.16 330.67 L89.42 313.44 Z"
					class="st6"/>
			<text x="17.45" y="333.67" class="st2">role == coordinator</text>		</g>
		<g id="shape1348-26" transform="translate(265.904,-85.9144)">
			<title>Diamond</title>
			<path d="M12.18 347.89 L24.37 338.75 L12.18 329.61 L0 338.75 L12.18 347.89 Z" class="st7"/>
		</g>
		<g id="shape1349-28" transform="translate(265.904,-41.4065)">
			<title>Diamond.1349</title>
			<path d="M12.18 347.89 L24.37 338.75 L12.18 329.61 L0 338.75 L12.18 347.89 Z" class="st7"/>
		</g>
		<g id="shape1350-30" transform="translate(343.55,-130.422)">
			<title>Nordic Blue.1350</title>
			<desc>start_network_rejoin()</desc>
			<rect x="0" y="313.445" width="113.386" height="34.4409" class="st1"/>
			<text x="10.38" y="334.27" class="st2">start_network_rejoin()</text>		</g>
		<g id="shape1351-33" transform="translate(271,-251.771)">
			<title>Dynamic connector.1351</title>
			<path d="M7.09 347.89 L7.09 363.56" class="st3"/>
		</g>
		<g id="shape1352-38" transform="translate(271,-85.9144)">
			<title>Dynamic connector.1352</title>
			<path d="M7.09 347.89 L7.09 363.56" class="st3"/>
		</g>
		<g id="shape1353-43" transform="translate(271,-41.4065)">
			<title>Dynamic connector.1353</title>
			<path d="M7.09 347.89 L7.09 363.56" class="st3"/>
		</g>
		<g id="shape1354-48" transform="translate(343.55,-268.991)">
			<title>Dynamic connector.1354</title>
			<path d="M0 347.89 L142.94 347.89 L142.94 566.33 L-42.72 566.33" class="st3"/>
		</g>
		<g id="shape1355-53" transform="translate(343.55,-208.317)">
			<title>Dynamic connector.1355</title>
			<path d="M0 347.89 L56.69 347.89 L56.69 380.78" class="st3"/>
		</g>
		<g id="shape1356-58" transform="translate(400.243,-130.422)">
			<title>Dynamic connector.1356</title>
			<path d="M0 347.89 L0 383.26 L-99.41 383.26" class="st3"/>
		</g>
		<g id="shape1357-63" transform="translate(212.623,-208.317)">
			<title>Dynamic connector.1357</title>
			<path d="M0 347.89 L-62.17 347.89 L-62.17 380.78" class="st3"/>
		</g>
		<g id="shape1358-68" transform="translate(343.55,-271.185)">
			<title>Sheet.1358</title>
			<desc>no</desc>
			<rect x="0" y="327.886" width="31.9785" height="20" class="st8"/>
			<text x="4" y="341.49" class="st9">no</text>		</g>
		<g id="shape1360-71" transform="translate(343.55,-208.317)">
			<title>Sheet.1360</title>
			<desc>no</desc>
			<rect x="0" y="327.886" width="31.9785" height="20" class="st8"/>
			<text x="4" y="341.49" class="st9">no</text>		</g>
		<g id="shape1361-74" transform="translate(180.645,-208.317)">
			<title>Sheet.1361</title>
			<desc>yes</desc>
			<rect x="0" y="327.886" width="31.9785" height="20" class="st8"/>
			<text x="4" y="341.49" class="st9">yes</text>		</g>
		<g id="shape1362-77" transform="translate(247.383,-228.907)">
			<title>Sheet.1362</title>
			<desc>yes</desc>
			<rect x="0" y="327.886" width="31.9785" height="20" class="st8"/>
			<text x="4" y="341.49" class="st9">yes</text>		</g>
	</g>
</svg>
