<?xml version="1.0" encoding="UTF-8" standalone="no"?>
<!DOCTYPE svg PUBLIC "-//W3C//DTD SVG 1.1//EN" "http://www.w3.org/Graphics/SVG/1.1/DTD/svg11.dtd">
<!-- Generated by Microsoft Visio, SVG Export zigbee_signal_handler_04_reboot.svg Page-1 -->
<svg xmlns="http://www.w3.org/2000/svg" xmlns:xlink="http://www.w3.org/1999/xlink" xmlns:ev="http://www.w3.org/2001/xml-events"
		width="5.45295in" height="4.55115in" viewBox="0 0 392.612 327.683" xml:space="preserve" color-interpolation-filters="sRGB"
		class="st10">
	<style type="text/css">
	<![CDATA[
		.st1 {fill:#00a9ce;stroke:none;stroke-width:1}
		.st2 {fill:#feffff;font-family:Calibri;font-size:0.833336em}
		.st3 {marker-end:url(#mrkr13-12);stroke:#333f48;stroke-linecap:butt;stroke-width:1}
		.st4 {fill:#333f48;fill-opacity:1;stroke:#333f48;stroke-opacity:1;stroke-width:0.28409090909091}
		.st5 {fill:#333f48;stroke:none;stroke-width:1}
		.st6 {fill:#0077c8;stroke:none;stroke-width:1}
		.st7 {fill:#0033a0;stroke:none;stroke-width:1}
		.st8 {fill:none;stroke:none;stroke-width:1}
		.st9 {fill:#333f48;font-family:Calibri;font-size:1.00001em}
		.st10 {fill:none;fill-rule:evenodd;font-size:12px;overflow:visible;stroke-linecap:square;stroke-miterlimit:3}
	]]>
	</style>

	<defs id="Markers">
		<g id="lend13">
			<path d="M 3 1 L 0 0 L 3 -1 L 3 1 " style="stroke:none"/>
		</g>
		<marker id="mrkr13-12" class="st4" refX="-10.56" orient="auto" markerUnits="strokeWidth" overflow="visible">
			<use xlink:href="#lend13" transform="scale(-3.52,-3.52) "/>
		</marker>
	</defs>
	<g>
		<title>Page-1</title>
		<g id="shape1340-1" transform="translate(112.584,-292.242)">
			<title>Nordic Blue</title>
			<desc>ZB_BDB_SIGNAL_DEVICE_REBOOT</desc>
			<rect x="0" y="293.242" width="159.469" height="34.4409" class="st1"/>
			<text x="9.61" y="314.06" class="st2">ZB_BDB_SIGNAL_DEVICE_REBOOT</text>		</g>
		<g id="shape1342-4" transform="translate(1,-179.101)">
			<title>Nordic Blue.1342</title>
			<desc>stop_network_rejoin(ZB_FALSE)</desc>
			<rect x="0" y="293.242" width="147.827" height="34.4409" class="st1"/>
			<text x="8.57" y="314.06" class="st2">stop_network_rejoin(ZB_FALSE)</text>		</g>
		<g id="shape1343-7" transform="translate(74.9134,-179.101)">
			<title>Dynamic connector.1343</title>
			<path d="M0 327.68 L0 456.24 L94.66 456.24" class="st3"/>
		</g>
		<g id="shape1344-13" transform="translate(185.232,-1)">
			<title>Circle.1344</title>
			<path d="M0 320.6 A7.08661 7.08661 0 0 1 14.17 320.6 A7.08661 7.08661 0 1 1 0 320.6 Z" class="st5"/>
		</g>
		<g id="shape1345-15" transform="translate(185.232,-292.242)">
			<title>Dynamic connector.1345</title>
			<path d="M7.09 327.68 L7.09 343.36" class="st3"/>
		</g>
		<g id="shape1346-20" transform="translate(135.625,-231.567)">
			<title>Hexagon</title>
			<desc>status == RET_OK</desc>
			<path d="M89.42 293.24 L23.96 293.24 L-8.77 310.46 L23.96 327.68 L89.42 327.68 L122.16 310.46 L89.42 293.24 Z"
					class="st6"/>
			<text x="21.18" y="313.46" class="st2">status == RET_OK</text>		</g>
		<g id="shape1347-23" transform="translate(256.353,-179.101)">
			<title>Hexagon.1347</title>
			<desc>role == coordinator</desc>
			<path d="M89.42 293.24 L23.96 293.24 L-8.77 310.46 L23.96 327.68 L89.42 327.68 L122.16 310.46 L89.42 293.24 Z"
					class="st6"/>
			<text x="17.45" y="313.46" class="st2">role == coordinator</text>		</g>
		<g id="shape1349-26" transform="translate(180.135,-41.4065)">
			<title>Diamond.1349</title>
			<path d="M12.18 327.68 L24.37 318.55 L12.18 309.41 L0 318.55 L12.18 327.68 Z" class="st7"/>
		</g>
		<g id="shape1350-28" transform="translate(256.353,-118.891)">
			<title>Nordic Blue.1350</title>
			<desc>start_network_rejoin()</desc>
			<rect x="0" y="293.242" width="113.386" height="34.4409" class="st1"/>
			<text x="10.38" y="314.06" class="st2">start_network_rejoin()</text>		</g>
		<g id="shape1353-31" transform="translate(185.232,-41.4065)">
			<title>Dynamic connector.1353</title>
			<path d="M7.09 327.68 L7.09 343.36" class="st3"/>
		</g>
		<g id="shape1354-36" transform="translate(257.782,-248.788)">
			<title>Dynamic connector.1354</title>
			<path d="M0 327.68 L55.26 327.68 L55.26 352.37" class="st3"/>
		</g>
		<g id="shape1355-41" transform="translate(305.959,-179.101)">
			<title>Dynamic connector.1355</title>
			<path d="M7.09 327.68 L7.09 342.89" class="st3"/>
		</g>
		<g id="shape1357-46" transform="translate(126.855,-248.788)">
			<title>Dynamic connector.1357</title>
			<path d="M0 327.68 L-51.94 327.68 L-51.94 352.37" class="st3"/>
		</g>
		<g id="shape1358-51" transform="translate(260.313,-249.045)">
			<title>Sheet.1358</title>
			<desc>no</desc>
			<rect x="0" y="307.683" width="31.9785" height="20" class="st8"/>
			<text x="4" y="321.28" class="st9">no</text>		</g>
		<g id="shape1360-54" transform="translate(318.448,-156.57)">
			<title>Sheet.1360</title>
			<desc>no</desc>
			<rect x="0" y="307.683" width="31.9785" height="20" class="st8"/>
			<text x="4" y="321.28" class="st9">no</text>		</g>
		<g id="shape1361-57" transform="translate(223.216,-196.579)">
			<title>Sheet.1361</title>
			<desc>yes</desc>
			<rect x="0" y="307.683" width="24.3661" height="20" class="st8"/>
			<text x="4" y="321.28" class="st9">yes</text>		</g>
		<g id="shape1362-60" transform="translate(94.8765,-249.045)">
			<title>Sheet.1362</title>
			<desc>yes</desc>
			<rect x="0" y="307.683" width="31.9785" height="20" class="st8"/>
			<text x="4" y="321.28" class="st9">yes</text>		</g>
		<g id="shape1363-63" transform="translate(247.582,-196.321)">
			<title>Dynamic connector.1363</title>
			<path d="M0 327.68 L-13.16 327.68 L-13.16 440.02 L42.72 440.02" class="st3"/>
		</g>
		<g id="shape1364-68" transform="translate(300.862,-74.8484)">
			<title>Diamond.1364</title>
			<path d="M12.18 327.68 L24.37 318.55 L12.18 309.41 L0 318.55 L12.18 327.68 Z" class="st7"/>
		</g>
		<g id="shape1365-70" transform="translate(305.959,-118.891)">
			<title>Dynamic connector.1365</title>
			<path d="M7.09 327.68 L7.09 342.89" class="st3"/>
		</g>
		<g id="shape1366-75" transform="translate(313.045,-74.8484)">
			<title>Dynamic connector.1366</title>
			<path d="M0 327.68 L0 351.99 L-97.98 351.99" class="st3"/>
		</g>
	</g>
</svg>
