<?xml version="1.0" encoding="UTF-8" standalone="no"?>
<!DOCTYPE svg PUBLIC "-//W3C//DTD SVG 1.1//EN" "http://www.w3.org/Graphics/SVG/1.1/DTD/svg11.dtd">
<!-- Generated by Microsoft Visio, SVG Export zigbee_signal_handler_10_rejoin.svg Drawing -->
<svg xmlns="http://www.w3.org/2000/svg" xmlns:xlink="http://www.w3.org/1999/xlink" xmlns:ev="http://www.w3.org/2001/xml-events"
		width="4.65621in" height="7.84849in" viewBox="0 0 335.247 565.091" xml:space="preserve" color-interpolation-filters="sRGB"
		class="st12">
	<style type="text/css">
	<![CDATA[
		.st1 {fill:#00a9ce;stroke:none;stroke-width:1}
		.st2 {fill:#feffff;font-family:Calibri;font-size:0.833336em}
		.st3 {marker-end:url(#mrkr13-9);stroke:#333f48;stroke-linecap:butt;stroke-width:1}
		.st4 {fill:#333f48;fill-opacity:1;stroke:#333f48;stroke-opacity:1;stroke-width:0.28409090909091}
		.st5 {font-size:1em}
		.st6 {fill:#0077c8;stroke:none;stroke-width:1}
		.st7 {fill:#333f48;font-family:Calibri;font-size:1.00001em}
		.st8 {fill:#ffffff;font-family:Calibri;font-size:0.75em}
		.st9 {fill:#0033a0;stroke:none;stroke-width:1}
		.st10 {fill:#333f48;stroke:none;stroke-width:1}
		.st11 {fill:#feffff;font-family:Calibri;font-size:0.75em}
		.st12 {fill:none;fill-rule:evenodd;font-size:12px;overflow:visible;stroke-linecap:square;stroke-miterlimit:3}
	]]>
	</style>

	<defs id="Markers">
		<g id="lend13">
			<path d="M 3 1 L 0 0 L 3 -1 L 3 1 " style="stroke:none"/>
		</g>
		<marker id="mrkr13-9" class="st4" refX="-10.56" orient="auto" markerUnits="strokeWidth" overflow="visible">
			<use xlink:href="#lend13" transform="scale(-3.52,-3.52) "/>
		</marker>
	</defs>
	<g>
		<title>Drawing</title>
		<g id="shape1368-1" transform="translate(135.49,-511.65)">
			<title>Nordic Blue.1368</title>
			<desc>start_network_rejoin()</desc>
			<rect x="0" y="530.65" width="113.386" height="34.4409" class="st1"/>
			<text x="10.38" y="551.47" class="st2">start_network_rejoin()</text>		</g>
		<g id="shape1421-4" transform="translate(185.097,-511.65)">
			<title>Dynamic connector.1421</title>
			<path d="M7.09 565.09 L7.09 575.79" class="st3"/>
		</g>
		<g id="shape1422-10" transform="translate(19,-169.721)">
			<title>Nordic Blue.1422</title>
			<desc>Schedule stop_network_rejoin(ZB_TRUE) after ZB_DEV_REJOIN_TIM...</desc>
			<rect x="0" y="505.641" width="147.827" height="59.45" class="st1"/>
			<text x="55.5" y="519.17" class="st2">Schedule <tspan x="9.8" dy="1.2em" class="st5">stop_network_rejoin(ZB_TRUE) </tspan><tspan
						x="64.09" dy="1.2em" class="st5">after </tspan><tspan x="10.05" dy="1.38em" class="st5">ZB_DEV_REJOIN_TIMEOUT_MS</tspan></text>		</g>
		<g id="shape1423-16" transform="translate(135.547,-258.052)">
			<title>Hexagon.1423</title>
			<desc>role == end device</desc>
			<path d="M89.42 530.65 L23.96 530.65 L-8.77 547.87 L23.96 565.09 L89.42 565.09 L122.16 547.87 L89.42 530.65 Z"
					class="st6"/>
			<text x="19.44" y="550.87" class="st2">role == end device</text>		</g>
		<g id="shape1424-19" transform="translate(126.777,-275.273)">
			<title>Dynamic connector.1424</title>
			<desc>yes</desc>
			<path d="M0 565.09 L-33.86 565.09 L-33.86 600.63" class="st3"/>
			<text x="-23.01" y="557.49" class="st7">yes</text>		</g>
		<g id="shape1425-25" transform="translate(135.605,-386.146)">
			<title>Nordic Blue.1425</title>
			<desc>Schedule network steering after 2^n sec</desc>
			<rect x="0" y="530.65" width="113.386" height="34.4409" class="st1"/>
			<text x="7.94" y="543.37" class="st8">Schedule network steering <tspan x="33.03" dy="1.5em" class="st5">after 2^n sec</tspan></text>		</g>
		<g id="shape1426-29" transform="translate(185.211,-386.146)">
			<title>Dynamic connector.1426</title>
			<path d="M7.09 565.09 L7.09 584.86" class="st3"/>
		</g>
		<g id="shape1428-34" transform="translate(180.057,-119.474)">
			<title>Diamond.1428</title>
			<path d="M12.18 565.09 L24.37 555.95 L12.18 546.82 L0 555.95 L12.18 565.09 Z" class="st9"/>
		</g>
		<g id="shape1430-36" transform="translate(185.154,-19)">
			<title>Circle.1430</title>
			<path d="M0 558 A7.08661 7.08661 0 0 1 14.17 558 A7.08661 7.08661 0 1 1 0 558 Z" class="st10"/>
		</g>
		<g id="shape1431-38" transform="translate(185.154,-119.474)">
			<title>Dynamic connector.1431</title>
			<path d="M7.09 565.09 L7.09 587.91" class="st3"/>
		</g>
		<g id="shape1432-43" transform="translate(257.704,-275.273)">
			<title>Dynamic connector.1432</title>
			<desc>no</desc>
			<path d="M0 565.09 L32.75 565.09 L32.75 711.75 L-42.72 711.75" class="st3"/>
			<text x="-1.06" y="557.49" class="st7">no</text>		</g>
		<g id="shape1505-49" transform="translate(135.605,-321.374)">
			<title>Nordic Blue.1505</title>
			<desc>n++</desc>
			<rect x="0" y="530.65" width="113.386" height="34.4409" class="st1"/>
			<text x="49.85" y="551.47" class="st8">n++</text>		</g>
		<g id="shape1506-52" transform="translate(199.355,-321.374)">
			<title>Dynamic connector.1506</title>
			<path d="M-7.06 565.09 L-7.06 574.6 L-7.12 574.6 L-7.12 583.41" class="st3"/>
		</g>
		<g id="shape1509-57" transform="translate(92.9134,-169.721)">
			<title>Dynamic connector</title>
			<path d="M0 565.09 L0 606.2 L76.58 606.2" class="st3"/>
		</g>
		<g id="shape1510-62" transform="translate(135.49,-455.949)">
			<title>Hexagon.1474</title>
			<desc>wait_for_user_input</desc>
			<path d="M89.42 530.65 L23.96 530.65 L-8.77 547.87 L23.96 565.09 L89.42 565.09 L122.16 547.87 L89.42 530.65 Z"
					class="st6"/>
			<text x="19.18" y="550.57" class="st11">wait_for_user_input</text>		</g>
		<g id="shape1511-65" transform="translate(185.154,-455.949)">
			<title>Dynamic connector.1511</title>
			<desc>false</desc>
			<path d="M7.03 565.09 L7.03 584.1 L7.14 584.1 L7.14 589.89" class="st3"/>
			<text x="-22.42" y="579.89" class="st7">false</text>		</g>
		<g id="shape1513-71" transform="translate(180.057,-67.8174)">
			<title>Diamond.1513</title>
			<path d="M12.18 565.09 L24.37 555.95 L12.18 546.82 L0 555.95 L12.18 565.09 Z" class="st9"/>
		</g>
		<g id="shape1514-73" transform="translate(257.646,-473.17)">
			<title>Dynamic connector.1514</title>
			<desc>true</desc>
			<path d="M0 565.09 L48.47 565.09 L48.47 961.31 L-42.66 961.31" class="st3"/>
			<text x="3.76" y="555.43" class="st7">true</text>		</g>
		<g id="shape1518-79" transform="translate(185.154,-67.8174)">
			<title>Dynamic connector.1518</title>
			<path d="M7.09 565.09 L7.09 589.18" class="st3"/>
		</g>
	</g>
</svg>
