<?xml version="1.0" encoding="UTF-8" standalone="no"?>
<!DOCTYPE svg PUBLIC "-//W3C//DTD SVG 1.1//EN" "http://www.w3.org/Graphics/SVG/1.1/DTD/svg11.dtd">
<!-- Generated by Microsoft Visio, SVG Export zigbee_signal_handler_07_idle.svg Page-1 -->
<svg xmlns="http://www.w3.org/2000/svg" xmlns:xlink="http://www.w3.org/1999/xlink" xmlns:ev="http://www.w3.org/2001/xml-events"
		width="6.06227in" height="4.94823in" viewBox="0 0 436.483 356.272" xml:space="preserve" color-interpolation-filters="sRGB"
		class="st10">
	<style type="text/css">
	<![CDATA[
		.st1 {fill:#00a9ce;stroke:none;stroke-width:1}
		.st2 {fill:#feffff;font-family:Calibri;font-size:0.833336em}
		.st3 {fill:#333f48;stroke:none;stroke-width:1}
		.st4 {fill:#0077c8;stroke:none;stroke-width:1}
		.st5 {fill:#0033a0;stroke:none;stroke-width:1}
		.st6 {marker-end:url(#mrkr13-16);stroke:#333f48;stroke-linecap:butt;stroke-width:1}
		.st7 {fill:#333f48;fill-opacity:1;stroke:#333f48;stroke-opacity:1;stroke-width:0.28409090909091}
		.st8 {fill:none;stroke:none;stroke-width:1}
		.st9 {fill:#333f48;font-family:Calibri;font-size:1.00001em}
		.st10 {fill:none;fill-rule:evenodd;font-size:12px;overflow:visible;stroke-linecap:square;stroke-miterlimit:3}
	]]>
	</style>

	<defs id="Markers">
		<g id="lend13">
			<path d="M 3 1 L 0 0 L 3 -1 L 3 1 " style="stroke:none"/>
		</g>
		<marker id="mrkr13-16" class="st7" refX="-10.56" orient="auto" markerUnits="strokeWidth" overflow="visible">
			<use xlink:href="#lend13" transform="scale(-3.52,-3.52) "/>
		</marker>
	</defs>
	<g>
		<title>Page-1</title>
		<g id="shape1340-1" transform="translate(95.9763,-320.831)">
			<title>Nordic Blue</title>
			<desc>zboss_main_loop_iteration()</desc>
			<rect x="0" y="321.831" width="127.622" height="34.4409" class="st1"/>
			<text x="5.41" y="342.65" class="st2">zboss_main_loop_iteration()</text>		</g>
		<g id="shape1344-4" transform="translate(152.701,-16.904)">
			<title>Circle.1344</title>
			<path d="M0 349.19 A7.08661 7.08661 0 0 1 14.17 349.19 A7.08661 7.08661 0 1 1 0 349.19 Z" class="st3"/>
		</g>
		<g id="shape1346-6" transform="translate(95.9763,-261.41)">
			<title>Hexagon</title>
			<desc>scheduler_queue_empty?</desc>
			<path d="M100.65 321.83 L26.97 321.83 L-9.87 339.05 L26.97 356.27 L100.65 356.27 L137.49 339.05 L100.65 321.83 Z"
					class="st4"/>
			<text x="10.79" y="342.05" class="st2">scheduler_queue_empty?</text>		</g>
		<g id="shape1349-9" transform="translate(147.604,-99.3126)">
			<title>Diamond.1349</title>
			<path d="M12.18 356.27 L24.37 347.14 L12.18 338 L0 347.14 L12.18 356.27 Z" class="st5"/>
		</g>
		<g id="shape1353-11" transform="translate(152.701,-99.3126)">
			<title>Dynamic connector.1353</title>
			<path d="M7.09 356.27 L7.09 370.69" class="st6"/>
		</g>
		<g id="shape1355-17" transform="translate(233.47,-278.631)">
			<title>Dynamic connector.1355</title>
			<path d="M0 356.27 L123.45 356.27 L123.45 569.71 L-50.94 569.71" class="st6"/>
		</g>
		<g id="shape1358-22" transform="translate(255.276,-220.044)">
			<title>Sheet.1358</title>
			<desc>no</desc>
			<rect x="0" y="336.272" width="24.3661" height="20" class="st8"/>
			<text x="4" y="349.87" class="st9">no</text>		</g>
		<g id="shape1362-25" transform="translate(128.841,-179.486)">
			<title>Sheet.1362</title>
			<desc>yes</desc>
			<rect x="0" y="336.272" width="24.3661" height="20" class="st8"/>
			<text x="4" y="349.87" class="st9">yes</text>		</g>
		<g id="shape1368-28" transform="translate(75.833,-201.989)">
			<title>Hexagon.1368</title>
			<desc>inactivity_time &#62; sleep_threshold</desc>
			<path d="M132.43 321.83 L35.48 321.83 L-12.99 339.05 L35.48 356.27 L132.43 356.27 L180.9 339.05 L132.43 321.83 Z"
					class="st4"/>
			<text x="16.24" y="342.05" class="st2">inactivity_time &#62; sleep_threshold</text>		</g>
		<g id="shape1370-31" transform="translate(152.701,-56.0576)">
			<title>Dynamic connector.1370</title>
			<path d="M7.09 356.27 L7.09 370.69" class="st6"/>
		</g>
		<g id="shape1373-36" transform="translate(147.604,-56.0576)">
			<title>Diamond.1373</title>
			<path d="M12.18 356.27 L24.37 347.14 L12.18 338 L0 347.14 L12.18 356.27 Z" class="st5"/>
		</g>
		<g id="shape1374-38" transform="translate(152.701,-201.989)">
			<title>Dynamic connector.1374</title>
			<path d="M7.09 356.27 L7.09 370.69" class="st6"/>
		</g>
		<g id="shape1376-43" transform="translate(255.276,-278.888)">
			<title>Sheet.1376</title>
			<desc>no</desc>
			<rect x="0" y="336.272" width="31.9785" height="20" class="st8"/>
			<text x="4" y="349.87" class="st9">no</text>		</g>
		<g id="shape1380-46" transform="translate(128.841,-239.032)">
			<title>Sheet.1380</title>
			<desc>yes</desc>
			<rect x="0" y="336.272" width="24.3661" height="20" class="st8"/>
			<text x="4" y="349.87" class="st9">yes</text>		</g>
		<g id="shape1381-49" transform="translate(256.729,-219.209)">
			<title>Dynamic connector.1381</title>
			<path d="M0 356.27 L81.96 356.27 L81.96 467.03 L-74.2 467.03" class="st6"/>
		</g>
		<g id="shape1406-54" transform="translate(152.701,-142.568)">
			<title>Dynamic connector.1406</title>
			<path d="M7.09 356.27 L7.09 370.69" class="st6"/>
		</g>
		<g id="shape1407-59" transform="translate(152.701,-320.831)">
			<title>Dynamic connector.1407</title>
			<path d="M7.09 356.27 L7.09 370.69" class="st6"/>
		</g>
		<g id="shape1408-64" transform="translate(152.701,-261.41)">
			<title>Dynamic connector.1408</title>
			<path d="M7.09 356.27 L7.09 370.69" class="st6"/>
		</g>
		<g id="shape1377-69" transform="translate(1,-142.568)">
			<title>Nordic Blue.1377</title>
			<desc>zb_schedule(ZB_COMMON_SIGNAL_CAN_SLEEP)</desc>
			<rect x="0" y="321.831" width="317.574" height="34.4409" class="st1"/>
			<text x="58.92" y="342.65" class="st2">zb_schedule(ZB_COMMON_SIGNAL_CAN_SLEEP)</text>		</g>
	</g>
</svg>
