<?xml version="1.0" encoding="UTF-8" standalone="no"?>
<!DOCTYPE svg PUBLIC "-//W3C//DTD SVG 1.1//EN" "http://www.w3.org/Graphics/SVG/1.1/DTD/svg11.dtd">
<!-- Generated by Microsoft Visio, SVG Export nfc_negotiated_connection_handover.svg Page-1 -->
<svg xmlns="http://www.w3.org/2000/svg" xmlns:xlink="http://www.w3.org/1999/xlink" xmlns:ev="http://www.w3.org/2001/xml-events"
		width="7.34851in" height="3.4486in" viewBox="0 0 529.093 248.299" xml:space="preserve" color-interpolation-filters="sRGB"
		class="st17">
	<style type="text/css">
	<![CDATA[
		.st1 {fill:none;stroke:none;stroke-linecap:butt;stroke-width:0.799994}
		.st2 {fill:#0077c8;stroke:none;stroke-linecap:butt;stroke-width:0.799994}
		.st3 {fill:none;stroke:#3465a4;stroke-linecap:butt;stroke-width:0.799994}
		.st4 {fill:none;stroke:none;stroke-linecap:butt;stroke-width:0.75}
		.st5 {fill:#000000;font-family:Calibri;font-size:1.5em}
		.st6 {fill:none}
		.st7 {stroke:#000000;stroke-linecap:butt;stroke-width:0.799994}
		.st8 {fill:#000000;stroke:none;stroke-linecap:butt;stroke-width:0.799994}
		.st9 {fill:#00a9ce;stroke:none;stroke-linecap:butt;stroke-width:0.799994}
		.st10 {fill:#768692;stroke:none;stroke-linecap:butt;stroke-width:0.799994}
		.st11 {fill:#ffffff;font-family:Calibri;font-size:1.33228em}
		.st12 {font-size:1em}
		.st13 {stroke:#111111;stroke-linecap:butt;stroke-width:0.799994}
		.st14 {fill:#111111;stroke:none;stroke-linecap:butt;stroke-width:0.799994}
		.st15 {fill:#000000;font-family:Calibri;font-size:0.833862em}
		.st16 {fill:#ffffff;font-family:Calibri;font-size:1.5em}
		.st17 {fill:none;fill-rule:evenodd;font-size:12px;overflow:visible;stroke-linecap:square;stroke-miterlimit:3}
	]]>
	</style>

	<g>
		<title>Page-1</title>
		<g id="group134-1" transform="translate(0.799994,-0.799994)">
			<title>Sheet.134</title>
			<g id="group3-2" transform="translate(382.677,-107.717)">
				<title>id3</title>
				<g id="shape4-3">
					<title>Sheet.4</title>
					<rect x="0" y="112.151" width="141.817" height="136.148" class="st1"/>
				</g>
				<g id="shape5-5" transform="translate(0.0283465,-0.0566929)">
					<title>Sheet.5</title>
					<path d="M70.87 248.3 L0 248.3 L0 112.24 L141.73 112.24 L141.73 248.3 L70.87 248.3 Z" class="st2"/>
				</g>
				<g id="shape6-7" transform="translate(0.0283465,-0.0566929)">
					<title>Sheet.6</title>
					<path d="M70.87 248.3 L0 248.3 L0 112.24 L141.73 112.24 L141.73 248.3 L70.87 248.3 Z" class="st3"/>
				</g>
			</g>
			<g id="group7-9">
				<title>id4</title>
				<g id="shape8-10">
					<title>Sheet.8</title>
					<rect x="0" y="1.59999" width="172.998" height="246.699" class="st1"/>
				</g>
				<g id="shape9-12" transform="translate(0.0283465,-0.0566929)">
					<title>Sheet.9</title>
					<path d="M86.46 248.3 L0 248.3 L0 1.69 L172.91 1.69 L172.91 248.3 L86.46 248.3 Z" class="st2"/>
				</g>
				<g id="shape10-14" transform="translate(0.0283465,-0.0566929)">
					<title>Sheet.10</title>
					<path d="M86.46 248.3 L0 248.3 L0 1.69 L172.91 1.69 L172.91 248.3 L86.46 248.3 Z" class="st3"/>
				</g>
			</g>
			<g id="group11-16" transform="translate(396.501,-216.978)">
				<title>id5</title>
				<g id="shape12-17">
					<title>Sheet.12</title>
					<rect x="0" y="230.71" width="57.8032" height="17.589" class="st1"/>
				</g>
				<g id="shape13-19" transform="translate(3.78491,-8.22185)">
					<title>Sheet.13</title>
					<desc>NFC Forum Tag</desc>
					<rect x="0" y="240.293" width="115.364" height="8.00646" class="st4"/>
					<text x="-0" y="249.7" class="st5">NFC Forum Tag</text>				</g>
			</g>
			<g id="group14-22" transform="translate(172.942,-120.501)">
				<title>id6</title>
				<g id="shape15-23">
					<title>Sheet.15</title>
					<rect x="0" y="239.767" width="209.82" height="8.53228" class="st1"/>
				</g>
				<g id="shape16-25" transform="translate(12.189,-4.28031)">
					<title>Sheet.16</title>
					<path d="M197.57 248.3 L0 248.3 L197.57 248.3 Z" class="st6"/>
					<path d="M197.57 248.3 L0 248.3" class="st7"/>
				</g>
				<g id="shape17-28" transform="translate(-2.29816E-14,-0.0283465)">
					<title>Sheet.17</title>
					<path d="M0 244.05 L12.76 248.3 L12.76 239.8 L0 244.05 Z" class="st8"/>
				</g>
			</g>
			<g id="group18-30" transform="translate(8.50394,-178.583)">
				<title>id7</title>
				<g id="shape19-31">
					<title>Sheet.19</title>
					<rect x="0" y="185.852" width="155.991" height="62.4472" class="st1"/>
				</g>
				<g id="shape20-33" transform="translate(0.0283465,-0.0566929)">
					<title>Sheet.20</title>
					<path d="M77.95 248.3 L0 248.3 L0 185.94 L155.91 185.94 L155.91 248.3 L77.95 248.3 Z" class="st9"/>
				</g>
				<g id="shape21-35" transform="translate(0.0283465,-0.0566929)">
					<title>Sheet.21</title>
					<path d="M77.95 248.3 L0 248.3 L0 185.94 L155.91 185.94 L155.91 248.3 L77.95 248.3 Z" class="st3"/>
				</g>
			</g>
			<g id="group22-37" transform="translate(18.1134,-203.262)">
				<title>id8</title>
				<g id="shape23-38">
					<title>Sheet.23</title>
					<rect x="0" y="235.21" width="47.3117" height="13.089" class="st1"/>
				</g>
				<g id="shape24-40" transform="translate(3.28462,-6.11836)">
					<title>Sheet.24</title>
					<desc>NFC Poller Device</desc>
					<rect x="0" y="242.341" width="133.487" height="5.95807" class="st4"/>
					<text x="0" y="250.72" class="st5">NFC Poller Device</text>				</g>
			</g>
			<g id="group25-43" transform="translate(8.50394,-31.1811)">
				<title>id9</title>
				<g id="shape26-44">
					<title>Sheet.26</title>
					<rect x="0" y="174.513" width="44.6828" height="73.7858" class="st1"/>
				</g>
				<g id="shape27-46" transform="translate(0.00811971,-0.0566929)">
					<title>Sheet.27</title>
					<path d="M77.91 248.3 L0 248.3 L0 174.6 L155.82 174.6 L155.82 248.3 L77.91 248.3 Z" class="st10"/>
				</g>
				<g id="shape28-48" transform="translate(0.00811971,-0.0566929)">
					<title>Sheet.28</title>
					<path d="M77.79 248.3 L0 248.3 L0 174.6 L155.58 174.6 L155.58 248.3 L77.79 248.3 Z" class="st3"/>
				</g>
				<g id="shape29-50" transform="translate(6.59028,-23.3058)">
					<title>Sheet.29</title>
					<desc>Alternative Carrier (Bluetooth LE)</desc>
					<rect x="0" y="221.097" width="142.658" height="27.2027" class="st4"/>
					<text x="11.23" y="229.9" class="st11">Alternative Carrier <tspan x="25.06" dy="1.2em" class="st12">(Bluetooth LE)</tspan></text>				</g>
			</g>
			<g id="group30-54" transform="translate(382.677,-31.1811)">
				<title>id10</title>
				<g id="shape31-55">
					<title>Sheet.31</title>
					<rect x="0" y="174.513" width="38.235" height="73.7858" class="st1"/>
				</g>
				<g id="shape32-57" transform="translate(0.00749266,-0.0566929)">
					<title>Sheet.32</title>
					<path d="M71.55 248.3 L0 248.3 L0 174.6 L143.09 174.6 L143.09 248.3 L71.55 248.3 Z" class="st10"/>
				</g>
				<g id="shape33-59" transform="translate(0.00749266,-0.0566929)">
					<title>Sheet.33</title>
					<path d="M71.69 248.3 L0 248.3 L0 174.6 L143.37 174.6 L143.37 248.3 L71.69 248.3 Z" class="st3"/>
				</g>
				<g id="shape34-61" transform="translate(-1.75978,-19.221)">
					<title>Sheet.34</title>
					<desc>Alternative Carrier (Bluetooth LE)</desc>
					<rect x="0" y="212.927" width="146.625" height="35.3721" class="st4"/>
					<text x="13.21" y="225.82" class="st11">Alternative Carrier <tspan x="27.05" dy="1.2em" class="st12">(Bluetooth LE)</tspan></text>				</g>
			</g>
			<g id="group35-65" transform="translate(172.942,-63.8079)">
				<title>id11</title>
				<g id="shape36-66">
					<title>Sheet.36</title>
					<rect x="0" y="239.767" width="209.792" height="8.53228" class="st1"/>
				</g>
				<g id="shape37-68" transform="translate(12.189,-4.28031)">
					<title>Sheet.37</title>
					<path d="M0 248.3 L1.5 248.3 L0 248.3 Z" class="st6"/>
					<path d="M0 248.3 L1.5 248.3" class="st13"/>
				</g>
				<g id="shape38-71" transform="translate(15.1937,-4.28031)">
					<title>Sheet.38</title>
					<path d="M0 248.3 L1.5 248.3 L0 248.3 Z" class="st6"/>
					<path d="M0 248.3 L1.5 248.3" class="st13"/>
				</g>
				<g id="shape39-74" transform="translate(18.1984,-4.28031)">
					<title>Sheet.39</title>
					<path d="M0 248.3 L1.5 248.3 L0 248.3 Z" class="st6"/>
					<path d="M0 248.3 L1.5 248.3" class="st13"/>
				</g>
				<g id="shape40-77" transform="translate(21.2315,-4.28031)">
					<title>Sheet.40</title>
					<path d="M0 248.3 L1.5 248.3 L0 248.3 Z" class="st6"/>
					<path d="M0 248.3 L1.5 248.3" class="st13"/>
				</g>
				<g id="shape41-80" transform="translate(24.2362,-4.28031)">
					<title>Sheet.41</title>
					<path d="M0 248.3 L1.5 248.3 L0 248.3 Z" class="st6"/>
					<path d="M0 248.3 L1.5 248.3" class="st13"/>
				</g>
				<g id="shape42-83" transform="translate(27.2409,-4.28031)">
					<title>Sheet.42</title>
					<path d="M0 248.3 L1.5 248.3 L0 248.3 Z" class="st6"/>
					<path d="M0 248.3 L1.5 248.3" class="st13"/>
				</g>
				<g id="shape43-86" transform="translate(30.2457,-4.28031)">
					<title>Sheet.43</title>
					<path d="M0 248.3 L1.5 248.3 L0 248.3 Z" class="st6"/>
					<path d="M0 248.3 L1.5 248.3" class="st13"/>
				</g>
				<g id="shape44-89" transform="translate(33.2504,-4.28031)">
					<title>Sheet.44</title>
					<path d="M0 248.3 L1.5 248.3 L0 248.3 Z" class="st6"/>
					<path d="M0 248.3 L1.5 248.3" class="st13"/>
				</g>
				<g id="shape45-92" transform="translate(36.2551,-4.28031)">
					<title>Sheet.45</title>
					<path d="M0 248.3 L1.53 248.3 L0 248.3 Z" class="st6"/>
					<path d="M0 248.3 L1.53 248.3" class="st13"/>
				</g>
				<g id="shape46-95" transform="translate(39.2882,-4.28031)">
					<title>Sheet.46</title>
					<path d="M0 248.3 L1.5 248.3 L0 248.3 Z" class="st6"/>
					<path d="M0 248.3 L1.5 248.3" class="st13"/>
				</g>
				<g id="shape47-98" transform="translate(42.2929,-4.28031)">
					<title>Sheet.47</title>
					<path d="M0 248.3 L1.5 248.3 L0 248.3 Z" class="st6"/>
					<path d="M0 248.3 L1.5 248.3" class="st13"/>
				</g>
				<g id="shape48-101" transform="translate(45.2976,-4.28031)">
					<title>Sheet.48</title>
					<path d="M0 248.3 L1.5 248.3 L0 248.3 Z" class="st6"/>
					<path d="M0 248.3 L1.5 248.3" class="st13"/>
				</g>
				<g id="shape49-104" transform="translate(48.3024,-4.28031)">
					<title>Sheet.49</title>
					<path d="M0 248.3 L1.5 248.3 L0 248.3 Z" class="st6"/>
					<path d="M0 248.3 L1.5 248.3" class="st13"/>
				</g>
				<g id="shape50-107" transform="translate(51.3071,-4.28031)">
					<title>Sheet.50</title>
					<path d="M0 248.3 L1.5 248.3 L0 248.3 Z" class="st6"/>
					<path d="M0 248.3 L1.5 248.3" class="st13"/>
				</g>
				<g id="shape51-110" transform="translate(54.3402,-4.28031)">
					<title>Sheet.51</title>
					<path d="M0 248.3 L1.5 248.3 L0 248.3 Z" class="st6"/>
					<path d="M0 248.3 L1.5 248.3" class="st13"/>
				</g>
				<g id="shape52-113" transform="translate(57.3449,-4.28031)">
					<title>Sheet.52</title>
					<path d="M0 248.3 L1.5 248.3 L0 248.3 Z" class="st6"/>
					<path d="M0 248.3 L1.5 248.3" class="st13"/>
				</g>
				<g id="shape53-116" transform="translate(60.3496,-4.28031)">
					<title>Sheet.53</title>
					<path d="M0 248.3 L1.5 248.3 L0 248.3 Z" class="st6"/>
					<path d="M0 248.3 L1.5 248.3" class="st13"/>
				</g>
				<g id="shape54-119" transform="translate(63.3543,-4.28031)">
					<title>Sheet.54</title>
					<path d="M0 248.3 L1.5 248.3 L0 248.3 Z" class="st6"/>
					<path d="M0 248.3 L1.5 248.3" class="st13"/>
				</g>
				<g id="shape55-122" transform="translate(66.3591,-4.28031)">
					<title>Sheet.55</title>
					<path d="M0 248.3 L1.5 248.3 L0 248.3 Z" class="st6"/>
					<path d="M0 248.3 L1.5 248.3" class="st13"/>
				</g>
				<g id="shape56-125" transform="translate(69.3638,-4.28031)">
					<title>Sheet.56</title>
					<path d="M0 248.3 L1.53 248.3 L0 248.3 Z" class="st6"/>
					<path d="M0 248.3 L1.53 248.3" class="st13"/>
				</g>
				<g id="shape57-128" transform="translate(72.3969,-4.28031)">
					<title>Sheet.57</title>
					<path d="M0 248.3 L1.5 248.3 L0 248.3 Z" class="st6"/>
					<path d="M0 248.3 L1.5 248.3" class="st13"/>
				</g>
				<g id="shape58-131" transform="translate(75.4016,-4.28031)">
					<title>Sheet.58</title>
					<path d="M0 248.3 L1.5 248.3 L0 248.3 Z" class="st6"/>
					<path d="M0 248.3 L1.5 248.3" class="st13"/>
				</g>
				<g id="shape59-134" transform="translate(78.4063,-4.28031)">
					<title>Sheet.59</title>
					<path d="M0 248.3 L1.5 248.3 L0 248.3 Z" class="st6"/>
					<path d="M0 248.3 L1.5 248.3" class="st13"/>
				</g>
				<g id="shape60-137" transform="translate(81.411,-4.28031)">
					<title>Sheet.60</title>
					<path d="M0 248.3 L1.5 248.3 L0 248.3 Z" class="st6"/>
					<path d="M0 248.3 L1.5 248.3" class="st13"/>
				</g>
				<g id="shape61-140" transform="translate(84.4157,-4.28031)">
					<title>Sheet.61</title>
					<path d="M0 248.3 L1.5 248.3 L0 248.3 Z" class="st6"/>
					<path d="M0 248.3 L1.5 248.3" class="st13"/>
				</g>
				<g id="shape62-143" transform="translate(87.4488,-4.28031)">
					<title>Sheet.62</title>
					<path d="M0 248.3 L1.5 248.3 L0 248.3 Z" class="st6"/>
					<path d="M0 248.3 L1.5 248.3" class="st13"/>
				</g>
				<g id="shape63-146" transform="translate(90.4535,-4.28031)">
					<title>Sheet.63</title>
					<path d="M0 248.3 L1.5 248.3 L0 248.3 Z" class="st6"/>
					<path d="M0 248.3 L1.5 248.3" class="st13"/>
				</g>
				<g id="shape64-149" transform="translate(93.4583,-4.28031)">
					<title>Sheet.64</title>
					<path d="M0 248.3 L1.5 248.3 L0 248.3 Z" class="st6"/>
					<path d="M0 248.3 L1.5 248.3" class="st13"/>
				</g>
				<g id="shape65-152" transform="translate(96.463,-4.28031)">
					<title>Sheet.65</title>
					<path d="M0 248.3 L1.5 248.3 L0 248.3 Z" class="st6"/>
					<path d="M0 248.3 L1.5 248.3" class="st13"/>
				</g>
				<g id="shape66-155" transform="translate(99.4677,-4.28031)">
					<title>Sheet.66</title>
					<path d="M0 248.3 L1.5 248.3 L0 248.3 Z" class="st6"/>
					<path d="M0 248.3 L1.5 248.3" class="st13"/>
				</g>
				<g id="shape67-158" transform="translate(102.472,-4.28031)">
					<title>Sheet.67</title>
					<path d="M0 248.3 L1.53 248.3 L0 248.3 Z" class="st6"/>
					<path d="M0 248.3 L1.53 248.3" class="st13"/>
				</g>
				<g id="shape68-161" transform="translate(105.506,-4.28031)">
					<title>Sheet.68</title>
					<path d="M0 248.3 L1.5 248.3 L0 248.3 Z" class="st6"/>
					<path d="M0 248.3 L1.5 248.3" class="st13"/>
				</g>
				<g id="shape69-164" transform="translate(108.51,-4.28031)">
					<title>Sheet.69</title>
					<path d="M0 248.3 L1.5 248.3 L0 248.3 Z" class="st6"/>
					<path d="M0 248.3 L1.5 248.3" class="st13"/>
				</g>
				<g id="shape70-167" transform="translate(111.515,-4.28031)">
					<title>Sheet.70</title>
					<path d="M0 248.3 L1.5 248.3 L0 248.3 Z" class="st6"/>
					<path d="M0 248.3 L1.5 248.3" class="st13"/>
				</g>
				<g id="shape71-170" transform="translate(114.52,-4.28031)">
					<title>Sheet.71</title>
					<path d="M0 248.3 L1.5 248.3 L0 248.3 Z" class="st6"/>
					<path d="M0 248.3 L1.5 248.3" class="st13"/>
				</g>
				<g id="shape72-173" transform="translate(117.524,-4.28031)">
					<title>Sheet.72</title>
					<path d="M0 248.3 L1.5 248.3 L0 248.3 Z" class="st6"/>
					<path d="M0 248.3 L1.5 248.3" class="st13"/>
				</g>
				<g id="shape73-176" transform="translate(120.557,-4.28031)">
					<title>Sheet.73</title>
					<path d="M0 248.3 L1.5 248.3 L0 248.3 Z" class="st6"/>
					<path d="M0 248.3 L1.5 248.3" class="st13"/>
				</g>
				<g id="shape74-179" transform="translate(123.562,-4.28031)">
					<title>Sheet.74</title>
					<path d="M0 248.3 L1.5 248.3 L0 248.3 Z" class="st6"/>
					<path d="M0 248.3 L1.5 248.3" class="st13"/>
				</g>
				<g id="shape75-182" transform="translate(126.567,-4.28031)">
					<title>Sheet.75</title>
					<path d="M0 248.3 L1.5 248.3 L0 248.3 Z" class="st6"/>
					<path d="M0 248.3 L1.5 248.3" class="st13"/>
				</g>
				<g id="shape76-185" transform="translate(129.572,-4.28031)">
					<title>Sheet.76</title>
					<path d="M0 248.3 L1.5 248.3 L0 248.3 Z" class="st6"/>
					<path d="M0 248.3 L1.5 248.3" class="st13"/>
				</g>
				<g id="shape77-188" transform="translate(132.576,-4.28031)">
					<title>Sheet.77</title>
					<path d="M0 248.3 L1.5 248.3 L0 248.3 Z" class="st6"/>
					<path d="M0 248.3 L1.5 248.3" class="st13"/>
				</g>
				<g id="shape78-191" transform="translate(135.609,-4.28031)">
					<title>Sheet.78</title>
					<path d="M0 248.3 L1.5 248.3 L0 248.3 Z" class="st6"/>
					<path d="M0 248.3 L1.5 248.3" class="st13"/>
				</g>
				<g id="shape79-194" transform="translate(138.614,-4.28031)">
					<title>Sheet.79</title>
					<path d="M0 248.3 L1.5 248.3 L0 248.3 Z" class="st6"/>
					<path d="M0 248.3 L1.5 248.3" class="st13"/>
				</g>
				<g id="shape80-197" transform="translate(141.619,-4.28031)">
					<title>Sheet.80</title>
					<path d="M0 248.3 L1.5 248.3 L0 248.3 Z" class="st6"/>
					<path d="M0 248.3 L1.5 248.3" class="st13"/>
				</g>
				<g id="shape81-200" transform="translate(144.624,-4.28031)">
					<title>Sheet.81</title>
					<path d="M0 248.3 L1.5 248.3 L0 248.3 Z" class="st6"/>
					<path d="M0 248.3 L1.5 248.3" class="st13"/>
				</g>
				<g id="shape82-203" transform="translate(147.628,-4.28031)">
					<title>Sheet.82</title>
					<path d="M0 248.3 L1.5 248.3 L0 248.3 Z" class="st6"/>
					<path d="M0 248.3 L1.5 248.3" class="st13"/>
				</g>
				<g id="shape83-206" transform="translate(150.633,-4.28031)">
					<title>Sheet.83</title>
					<path d="M0 248.3 L1.53 248.3 L0 248.3 Z" class="st6"/>
					<path d="M0 248.3 L1.53 248.3" class="st13"/>
				</g>
				<g id="shape84-209" transform="translate(153.666,-4.28031)">
					<title>Sheet.84</title>
					<path d="M0 248.3 L1.5 248.3 L0 248.3 Z" class="st6"/>
					<path d="M0 248.3 L1.5 248.3" class="st13"/>
				</g>
				<g id="shape85-212" transform="translate(156.671,-4.28031)">
					<title>Sheet.85</title>
					<path d="M0 248.3 L1.5 248.3 L0 248.3 Z" class="st6"/>
					<path d="M0 248.3 L1.5 248.3" class="st13"/>
				</g>
				<g id="shape86-215" transform="translate(159.676,-4.28031)">
					<title>Sheet.86</title>
					<path d="M0 248.3 L1.5 248.3 L0 248.3 Z" class="st6"/>
					<path d="M0 248.3 L1.5 248.3" class="st13"/>
				</g>
				<g id="shape87-218" transform="translate(162.68,-4.28031)">
					<title>Sheet.87</title>
					<path d="M0 248.3 L1.5 248.3 L0 248.3 Z" class="st6"/>
					<path d="M0 248.3 L1.5 248.3" class="st13"/>
				</g>
				<g id="shape88-221" transform="translate(165.685,-4.28031)">
					<title>Sheet.88</title>
					<path d="M0 248.3 L1.5 248.3 L0 248.3 Z" class="st6"/>
					<path d="M0 248.3 L1.5 248.3" class="st13"/>
				</g>
				<g id="shape89-224" transform="translate(168.718,-4.28031)">
					<title>Sheet.89</title>
					<path d="M0 248.3 L1.5 248.3 L0 248.3 Z" class="st6"/>
					<path d="M0 248.3 L1.5 248.3" class="st13"/>
				</g>
				<g id="shape90-227" transform="translate(171.723,-4.28031)">
					<title>Sheet.90</title>
					<path d="M0 248.3 L1.5 248.3 L0 248.3 Z" class="st6"/>
					<path d="M0 248.3 L1.5 248.3" class="st13"/>
				</g>
				<g id="shape91-230" transform="translate(174.728,-4.28031)">
					<title>Sheet.91</title>
					<path d="M0 248.3 L1.5 248.3 L0 248.3 Z" class="st6"/>
					<path d="M0 248.3 L1.5 248.3" class="st13"/>
				</g>
				<g id="shape92-233" transform="translate(177.732,-4.28031)">
					<title>Sheet.92</title>
					<path d="M0 248.3 L1.5 248.3 L0 248.3 Z" class="st6"/>
					<path d="M0 248.3 L1.5 248.3" class="st13"/>
				</g>
				<g id="shape93-236" transform="translate(180.737,-4.28031)">
					<title>Sheet.93</title>
					<path d="M0 248.3 L1.5 248.3 L0 248.3 Z" class="st6"/>
					<path d="M0 248.3 L1.5 248.3" class="st13"/>
				</g>
				<g id="shape94-239" transform="translate(183.742,-4.28031)">
					<title>Sheet.94</title>
					<path d="M0 248.3 L1.53 248.3 L0 248.3 Z" class="st6"/>
					<path d="M0 248.3 L1.53 248.3" class="st13"/>
				</g>
				<g id="shape95-242" transform="translate(186.775,-4.28031)">
					<title>Sheet.95</title>
					<path d="M0 248.3 L1.5 248.3 L0 248.3 Z" class="st6"/>
					<path d="M0 248.3 L1.5 248.3" class="st13"/>
				</g>
				<g id="shape96-245" transform="translate(189.78,-4.28031)">
					<title>Sheet.96</title>
					<path d="M0 248.3 L1.5 248.3 L0 248.3 Z" class="st6"/>
					<path d="M0 248.3 L1.5 248.3" class="st13"/>
				</g>
				<g id="shape97-248" transform="translate(192.784,-4.28031)">
					<title>Sheet.97</title>
					<path d="M0 248.3 L1.5 248.3 L0 248.3 Z" class="st6"/>
					<path d="M0 248.3 L1.5 248.3" class="st13"/>
				</g>
				<g id="shape98-251" transform="translate(195.789,-4.28031)">
					<title>Sheet.98</title>
					<path d="M0 248.3 L1.5 248.3 L0 248.3 Z" class="st6"/>
					<path d="M0 248.3 L1.5 248.3" class="st13"/>
				</g>
				<g id="shape99-254" transform="translate(-2.34812E-13,-0.0283465)">
					<title>Sheet.99</title>
					<path d="M0 244.05 L12.76 248.3 L12.76 239.8 L0 244.05 Z" class="st14"/>
				</g>
				<g id="shape100-256" transform="translate(197.008,-0.0283465)">
					<title>Sheet.100</title>
					<path d="M12.76 244.05 L0 239.8 L0 248.3 L12.76 244.05 Z" class="st14"/>
				</g>
			</g>
			<g id="group101-258" transform="translate(190.332,-126.312)">
				<title>id12</title>
				<g id="shape102-259">
					<title>Sheet.102</title>
					<rect x="0" y="229.987" width="87.605" height="18.3118" class="st1"/>
				</g>
				<g id="shape103-261" transform="translate(3.04522,-2.75244)">
					<title>Sheet.103</title>
					<desc>Handover Select (Bluetooth LE, OOB data)</desc>
					<rect x="0" y="236.292" width="171.994" height="12.0076" class="st4"/>
					<text x="-0" y="245.3" class="st15">Handover Select (Bluetooth LE, OOB data)</text>				</g>
			</g>
			<g id="group104-264" transform="translate(206.405,-41.2724)">
				<title>id13</title>
				<g id="shape105-265">
					<title>Sheet.105</title>
					<rect x="0" y="229.987" width="75.73" height="18.3118" class="st1"/>
				</g>
				<g id="shape106-267" transform="translate(4.7702,-2.75244)">
					<title>Sheet.106</title>
					<desc>Data exchange over Bluetooth LE</desc>
					<rect x="0" y="236.292" width="138.096" height="12.0076" class="st4"/>
					<text x="0" y="245.3" class="st15">Data exchange over Bluetooth LE</text>				</g>
			</g>
			<g id="group107-270" transform="translate(8.50394,-116.22)">
				<title>id14</title>
				<g id="shape108-271">
					<title>Sheet.108</title>
					<rect x="0" y="194.356" width="155.991" height="53.9433" class="st1"/>
				</g>
				<g id="shape109-273" transform="translate(0.0283465,-0.0566929)">
					<title>Sheet.109</title>
					<path d="M77.95 248.3 L0 248.3 L0 194.44 L155.91 194.44 L155.91 248.3 L77.95 248.3 Z" class="st10"/>
				</g>
				<g id="shape110-275" transform="translate(0.0283465,-0.0566929)">
					<title>Sheet.110</title>
					<path d="M77.95 248.3 L0 248.3 L0 194.44 L155.91 194.44 L155.91 248.3 L77.95 248.3 Z" class="st3"/>
				</g>
			</g>
			<g id="group111-277" transform="translate(58.3654,-129.543)">
				<title>id15</title>
				<g id="shape112-278">
					<title>Sheet.112</title>
					<rect x="0" y="221.002" width="50.9392" height="27.2976" class="st1"/>
				</g>
				<g id="shape113-280" transform="translate(10.0751,-2.02677)">
					<title>Sheet.113</title>
					<desc>TNEP</desc>
					<rect x="0" y="226.699" width="46.1926" height="21.6" class="st4"/>
					<text x="0" y="242.9" class="st16">TNEP</text>				</g>
			</g>
			<g id="group114-283" transform="translate(391.181,-119.055)">
				<title>id16</title>
				<g id="shape115-284">
					<title>Sheet.115</title>
					<rect x="0" y="194.356" width="124.809" height="53.9433" class="st1"/>
				</g>
				<g id="shape116-286" transform="translate(0.0283465,-0.0566929)">
					<title>Sheet.116</title>
					<path d="M62.36 248.3 L0 248.3 L0 194.44 L124.72 194.44 L124.72 248.3 L62.36 248.3 Z" class="st10"/>
				</g>
				<g id="shape117-288" transform="translate(0.0283465,-0.0566929)">
					<title>Sheet.117</title>
					<path d="M62.36 248.3 L0 248.3 L0 194.44 L124.72 194.44 L124.72 248.3 L62.36 248.3 Z" class="st3"/>
				</g>
			</g>
			<g id="group118-290" transform="translate(425.378,-132.378)">
				<title>id17</title>
				<g id="shape119-291">
					<title>Sheet.119</title>
					<rect x="0" y="221.002" width="51.0739" height="27.2976" class="st1"/>
				</g>
				<g id="shape120-293" transform="translate(10.1017,-2.02677)">
					<title>Sheet.120</title>
					<desc>TNEP</desc>
					<rect x="0" y="226.699" width="46.3148" height="21.6" class="st4"/>
					<text x="0" y="242.9" class="st16">TNEP</text>				</g>
			</g>
			<g id="group121-296" transform="translate(172.913,-154.517)">
				<title>id18</title>
				<g id="shape122-297">
					<title>Sheet.122</title>
					<rect x="0" y="239.767" width="206.986" height="8.53228" class="st1"/>
				</g>
				<g id="shape123-299" transform="translate(0.0283465,-4.28031)">
					<title>Sheet.123</title>
					<path d="M0 248.3 L194.74 248.3 L0 248.3 Z" class="st6"/>
					<path d="M0 248.3 L194.74 248.3" class="st7"/>
				</g>
				<g id="shape124-302" transform="translate(194.202,-0.0283465)">
					<title>Sheet.124</title>
					<path d="M12.76 244.05 L0 239.8 L0 248.3 L12.76 244.05 Z" class="st8"/>
				</g>
			</g>
			<g id="group125-304" transform="translate(183.802,-161.603)">
				<title>id19</title>
				<g id="shape126-305">
					<title>Sheet.126</title>
					<rect x="0" y="229.987" width="94.6737" height="18.3118" class="st1"/>
				</g>
				<g id="shape127-307" transform="translate(3.14489,-2.75244)">
					<title>Sheet.127</title>
					<desc>Handover Request (Bluetooth LE, OOB data)</desc>
					<rect x="0" y="236.292" width="182.064" height="12.0076" class="st4"/>
					<text x="0" y="245.3" class="st15">Handover Request (Bluetooth LE, OOB data)</text>				</g>
			</g>
		</g>
	</g>
</svg>
