<?xml version="1.0" encoding="UTF-8" standalone="no"?>
<!DOCTYPE svg PUBLIC "-//W3C//DTD SVG 1.1//EN" "http://www.w3.org/Graphics/SVG/1.1/DTD/svg11.dtd">
<!-- Generated by Microsoft Visio, SVG Export zigbee_platform_design_multi.svg Page-1 -->
<svg xmlns="http://www.w3.org/2000/svg" xmlns:xlink="http://www.w3.org/1999/xlink" xmlns:ev="http://www.w3.org/2001/xml-events"
		width="6.47069in" height="5.20096in" viewBox="0 0 465.89 374.469" xml:space="preserve" color-interpolation-filters="sRGB"
		class="st18">
	<style type="text/css">
	<![CDATA[
		.st1 {fill:#6ad1e3;stroke:#feffff;stroke-width:1}
		.st2 {stroke:none;stroke-linecap:round;stroke-linejoin:round;stroke-width:0.75}
		.st3 {fill:#333f48;font-family:Calibri;font-size:1.99999em}
		.st4 {fill:#0033a0;stroke:none;stroke-width:1}
		.st5 {fill:#feffff;font-family:Calibri;font-size:1.5em}
		.st6 {fill:#00a9ce;stroke:none;stroke-width:1}
		.st7 {fill:#ffffff;font-family:Calibri;font-size:1.16666em}
		.st8 {fill:#ffffff;font-family:Calibri;font-size:1.00001em}
		.st9 {marker-end:url(#mrkr13-29);marker-start:url(#mrkr13-27);stroke:#feffff;stroke-linecap:butt;stroke-width:1}
		.st10 {fill:#feffff;fill-opacity:1;stroke:#feffff;stroke-opacity:1;stroke-width:0.28409090909091}
		.st11 {fill:#768692;stroke:none;stroke-width:1}
		.st12 {fill:#0077c8;stroke:none;stroke-width:1}
		.st13 {fill:#ffffff;font-family:Calibri;font-size:0.833336em}
		.st14 {font-size:0.83333em}
		.st15 {fill:none;stroke:none;stroke-width:1}
		.st16 {fill:#feffff;font-family:Calibri;font-size:1.00001em}
		.st17 {fill:#333f48;fill-opacity:0.55;stroke:none;stroke-linecap:round;stroke-linejoin:round;stroke-width:0.75}
		.st18 {fill:none;fill-rule:evenodd;font-size:12px;overflow:visible;stroke-linecap:square;stroke-miterlimit:3}
	]]>
	</style>

	<defs id="Markers">
		<g id="lend13">
			<path d="M 3 1 L 0 0 L 3 -1 L 3 1 " style="stroke:none"/>
		</g>
		<marker id="mrkr13-27" class="st10" refX="10.2" orient="auto" markerUnits="strokeWidth" overflow="visible">
			<use xlink:href="#lend13" transform="scale(3.52) "/>
		</marker>
		<marker id="mrkr13-29" class="st10" refX="-10.56" orient="auto" markerUnits="strokeWidth" overflow="visible">
			<use xlink:href="#lend13" transform="scale(-3.52,-3.52) "/>
		</marker>
	</defs>
	<g>
		<title>Page-1</title>
		<g id="shape43-1" transform="translate(1,-1)">
			<title>Sheet.43</title>
			<path d="M463.89 2 L0 2 L0 374.47 L463.89 374.47 L463.89 2 Z" class="st1"/>
		</g>
		<g id="shape44-3" transform="translate(331.648,-10.7153)">
			<title>Sheet.44</title>
			<desc>nRF SoC</desc>
			<path d="M125.71 344.13 L0 344.13 L0 374.47 L125.71 374.47 L125.71 344.13" class="st2"/>
			<text x="23.57" y="366.5" class="st3">nRF SoC</text>		</g>
		<g id="shape45-7" transform="translate(8.14405,-309.575)">
			<title>Sheet.45</title>
			<desc>Application</desc>
			<path d="M0 319.96 L0 374.47 L449.22 374.47 L449.22 319.96 L0 319.96 L0 319.96 Z" class="st4"/>
			<text x="183.14" y="352.61" class="st5">Application</text>		</g>
		<g id="shape47-10" transform="translate(8.14405,-50.92)">
			<title>Sheet.47</title>
			<path d="M0 121.93 L0 374.47 L216.65 374.47 L216.65 121.93 L0 121.93 L0 121.93 Z" class="st6"/>
		</g>
		<g id="shape49-12" transform="translate(230.485,-129.315)">
			<title>Sheet.49</title>
			<path d="M0 200.33 L0 374.47 L226.88 374.47 L226.88 200.33 L0 200.33 L0 200.33 Z" class="st6"/>
		</g>
		<g id="shape50-14" transform="translate(245.22,-274.451)">
			<title>Sheet.50</title>
			<desc>Zigbee stack (ZBOSS)</desc>
			<path d="M197.41 352.16 L0 352.16 L0 374.47 L197.41 374.47 L197.41 352.16" class="st2"/>
			<text x="39.74" y="367.52" class="st7">Zigbee stack (ZBOSS)</text>		</g>
		<g id="shape53-18" transform="translate(134.241,-10.7153)">
			<title>Sheet.53</title>
			<desc>Multiprotocol Service Layer (MPSL)</desc>
			<rect x="0" y="344.135" width="197.407" height="30.3341" class="st6"/>
			<text x="13.15" y="362.9" class="st8">Multiprotocol Service Layer (MPSL)</text>		</g>
		<g id="shape92-21" transform="translate(108.554,-151.679)">
			<title>Dynamic connector</title>
			<path d="M7.09 384.67 L7.09 385.03 L7.09 423.14" class="st9"/>
		</g>
		<g id="group96-30" transform="translate(294.811,-50.92)">
			<title>Sheet.96</title>
			<g id="group67-31" transform="translate(0,-45.4099)">
				<title>Sheet.67</title>
				<desc>Secure boot</desc>
				<g id="shape68-32" transform="translate(1.64668E-12,-2.48578)">
					<title>Sheet.68</title>
					<rect x="0" y="352.118" width="162.551" height="22.3513" class="st11"/>
				</g>
				<g id="shape67-34">
					<text x="32.72" y="365.65" class="st8">Zephyr integration</text>				</g>
			</g>
			<g id="group95-36">
				<title>Sheet.95</title>
				<g id="shape69-37">
					<title>Sheet.69</title>
					<path d="M162.55 332.96 L0 332.96 L0 374.47 L162.55 374.47 L162.55 332.96 Z" class="st6"/>
				</g>
				<g id="shape70-39" transform="translate(-7.99361E-13,-24.0926)">
					<title>Sheet.70</title>
					<desc>nRF IEEE 802.15.4 radio driver</desc>
					<path d="M160.73 362.66 L0 362.66 L0 374.47 L160.73 374.47 L160.73 362.66" class="st2"/>
					<text x="7.13" y="372.16" class="st8">nRF IEEE 802.15.4 radio driver</text>				</g>
				<g id="shape71-43" transform="translate(6.37455,-4.88331)">
					<title>Sheet.71</title>
					<desc>IEEE 802.15.4 PHY</desc>
					<path d="M149.53 358.6 L0 358.6 L0 374.47 L149.53 374.47 L149.53 358.6 Z" class="st12"/>
					<text x="38.06" y="370.13" class="st13">IEEE 802.15.4 PHY</text>				</g>
			</g>
		</g>
		<g id="shape48-46" transform="translate(30.1096,-273.06)">
			<title>Sheet.48</title>
			<desc>Bluetooth速 LE stack</desc>
			<path d="M177.19 352.16 L0 352.16 L0 374.47 L177.19 374.47 L177.19 352.16" class="st2"/>
			<text x="32.62" y="367.52" class="st7">Bluetooth速 LE stack</text>		</g>
		<g id="shape54-50" transform="translate(25.8751,-60.2351)">
			<title>Sheet.54</title>
			<desc>nRF Bluetooth速 LE Controller</desc>
			<rect x="0" y="342.256" width="179.769" height="32.2126" class="st12"/>
			<text x="19.77" y="361.96" class="st8">nRF Bluetooth<tspan class="st14">速</tspan> LE Controller</text>		</g>
		<g id="shape66-54" transform="translate(117.095,-115.93)">
			<title>Sheet.66</title>
			<desc>HCI (RAM)</desc>
			<path d="M63 361.08 L0 361.08 L0 374.47 L63 374.47 L63 361.08" class="st2"/>
			<text x="6.2" y="371.38" class="st8">HCI (RAM)</text>		</g>
		<g id="group91-58" transform="translate(25.6372,-151.679)">
			<title>Sheet.91</title>
			<g id="shape51-59">
				<title>Sheet.51</title>
				<rect x="0" y="255.049" width="179.769" height="119.42" class="st11"/>
			</g>
			<g id="shape88-61" transform="translate(13.8846,-94.6743)">
				<title>Sheet.88</title>
				<desc>Zephyr host</desc>
				<rect x="0" y="354.469" width="152" height="20" class="st15"/>
				<text x="47.06" y="368.07" class="st16">Zephyr host</text>			</g>
			<g id="group90-64" transform="translate(9.37826,-7.34127)">
				<title>Sheet.90</title>
				<g id="shape55-65">
					<title>Sheet.55</title>
					<desc>L2CAP</desc>
					<path d="M74.84 348.88 L0 348.88 L0 374.47 L74.84 374.47 L74.84 348.88 Z" class="st17"/>
					<text x="22.08" y="365.27" class="st16">L2CAP</text>				</g>
				<g id="shape57-68" transform="translate(7.99361E-15,-57.4748)">
					<title>Sheet.57</title>
					<desc>GATT</desc>
					<path d="M74.84 348.92 L0 348.92 L0 374.47 L74.84 374.47 L74.84 348.92 Z" class="st17"/>
					<text x="24.31" y="365.3" class="st16">GATT</text>				</g>
				<g id="shape59-71" transform="translate(1.59872E-14,-28.4284)">
					<title>Sheet.59</title>
					<desc>ATT</desc>
					<path d="M74.84 348.92 L0 348.92 L0 374.47 L74.84 374.47 L74.84 348.92 Z" class="st17"/>
					<text x="28.1" y="365.3" class="st16">ATT</text>				</g>
				<g id="shape61-74" transform="translate(78.0673,-57.4748)">
					<title>Sheet.61</title>
					<desc>GAP</desc>
					<path d="M82.95 348.83 L0 348.83 L0 374.47 L82.95 374.47 L82.95 348.83 Z" class="st17"/>
					<text x="31.12" y="365.25" class="st16">GAP</text>				</g>
				<g id="shape63-77" transform="translate(78.0673,-2.54784E-06)">
					<title>Sheet.63</title>
					<desc>SM</desc>
					<path d="M82.95 320.19 L0 320.19 L0 374.47 L82.95 374.47 L82.95 320.19 Z" class="st17"/>
					<text x="33.59" y="350.93" class="st8">SM</text>				</g>
			</g>
		</g>
		<g id="group97-80" transform="translate(255.328,-185.046)">
			<title>Sheet.97</title>
			<g id="shape73-81">
				<title>Sheet.73</title>
				<desc>IEEE 802.15.4 MAC</desc>
				<path d="M177.19 348.45 L0 348.45 L0 374.47 L177.19 374.47 L177.19 348.45 Z" class="st12"/>
				<text x="42.51" y="365.06" class="st16">IEEE 802.15.4 MAC</text>			</g>
			<g id="shape75-84" transform="translate(0,-57.4748)">
				<title>Sheet.75</title>
				<desc>Zigbee app layer (ZCL)</desc>
				<path d="M177.19 348.45 L0 348.45 L0 374.47 L177.19 374.47 L177.19 348.45 Z" class="st12"/>
				<text x="35" y="365.06" class="st16">Zigbee app layer (ZCL)</text>			</g>
			<g id="shape86-87" transform="translate(0,-28.7374)">
				<title>Sheet.86</title>
				<desc>Zigbee PRO + Green Power</desc>
				<path d="M177.19 348.45 L0 348.45 L0 374.47 L177.19 374.47 L177.19 348.45 Z" class="st12"/>
				<text x="23.09" y="365.06" class="st16">Zigbee PRO + Green Power</text>			</g>
		</g>
	</g>
</svg>
