<?xml version="1.0" encoding="UTF-8" standalone="no"?>
<!DOCTYPE svg PUBLIC "-//W3C//DTD SVG 1.1//EN" "http://www.w3.org/Graphics/SVG/1.1/DTD/svg11.dtd">
<!-- Generated by Microsoft Visio, SVG Export zigbee_commissioning_formation.svg Page-1 -->
<svg xmlns="http://www.w3.org/2000/svg" xmlns:xlink="http://www.w3.org/1999/xlink" xmlns:ev="http://www.w3.org/2001/xml-events"
		width="4.57778in" height="8.04447in" viewBox="0 0 329.6 579.202" xml:space="preserve" color-interpolation-filters="sRGB"
		class="st9">
	<style type="text/css">
	<![CDATA[
		.st1 {fill:#6ad1e3;stroke:none;stroke-width:1}
		.st2 {fill:#ffffff;font-family:Arial;font-size:0.833336em}
		.st3 {font-size:1em}
		.st4 {fill:#feffff;font-family:Arial;font-size:0.916672em}
		.st5 {fill:none;stroke:none;stroke-width:1}
		.st6 {fill:#333f48;font-family:Arial;font-size:0.75em}
		.st7 {marker-end:url(#mrkr5-35);stroke:#008bab;stroke-linecap:butt;stroke-width:1}
		.st8 {fill:#008bab;fill-opacity:1;stroke:#008bab;stroke-opacity:1;stroke-width:0.28409090909091}
		.st9 {fill:none;fill-rule:evenodd;font-size:12px;overflow:visible;stroke-linecap:square;stroke-miterlimit:3}
	]]>
	</style>

	<defs id="Markers">
		<g id="lend5">
			<path d="M 2 1 L 0 0 L 1.98117 -0.993387 C 1.67173 -0.364515 1.67301 0.372641 1.98465 1.00043 " style="stroke:none"/>
		</g>
		<marker id="mrkr5-35" class="st8" refX="-6.16" orient="auto" markerUnits="strokeWidth" overflow="visible">
			<use xlink:href="#lend5" transform="scale(-3.52,-3.52) "/>
		</marker>
	</defs>
	<g>
		<title>Page-1</title>
		<g id="shape5-1" transform="translate(81.009,-129.264)">
			<title>Sheet.5</title>
			<desc>Centralized network</desc>
			<rect x="0" y="538.099" width="87.5096" height="41.1024" class="st1"/>
			<text x="18.46" y="555.65" class="st2">Centralized <tspan x="26.25" dy="1.2em" class="st3">network</tspan></text>		</g>
		<g id="shape6-5" transform="translate(226.811,-129.264)">
			<title>Sheet.6</title>
			<desc>Distributed network</desc>
			<rect x="0" y="538.099" width="87.5096" height="41.1024" class="st1"/>
			<text x="19.86" y="555.65" class="st2">Distributed <tspan x="26.25" dy="1.2em" class="st3">network</tspan></text>		</g>
		<g id="shape7-9" transform="translate(1,-505.849)">
			<title>Sheet.7</title>
			<desc>Network Formation (start)</desc>
			<rect x="0" y="538.099" width="106.583" height="41.1024" class="st1"/>
			<text x="6.83" y="555.35" class="st4">Network Formation <tspan x="38.93" dy="1.2em" class="st3">(start)</tspan></text>		</g>
		<g id="shape8-13" transform="translate(144.14,-371.964)">
			<title>Sheet.8</title>
			<desc>Request network formation</desc>
			<rect x="0" y="538.099" width="106.583" height="41.1024" class="st1"/>
			<text x="32.81" y="555.35" class="st4">Request <tspan x="9.58" dy="1.2em" class="st3">network formation</tspan></text>		</g>
		<g id="shape9-17" transform="translate(144.14,-438.595)">
			<title>Sheet.9</title>
			<desc>Scan 1ry channels</desc>
			<rect x="0" y="538.099" width="106.583" height="41.1024" class="st1"/>
			<text x="8.04" y="561.95" class="st4">Scan 1ry channels</text>		</g>
		<g id="shape10-20" transform="translate(-212.126,-139.257) rotate(-45)">
			<title>Sheet.10</title>
			<rect x="0" y="553.652" width="25.55" height="25.55" class="st1"/>
		</g>
		<g id="shape11-22" transform="translate(208.397,-330.861)">
			<title>Sheet.11</title>
			<desc>Forming network successful?</desc>
			<rect x="0" y="538.099" width="57.2779" height="41.1024" class="st5"/>
			<text x="4" y="550.55" class="st6">Forming <tspan x="4" dy="1.2em" class="st3">network </tspan><tspan x="4" dy="1.2em"
						class="st3">successful?</tspan></text>		</g>
		<g id="shape13-27" transform="translate(1,-334.422)">
			<title>Sheet.13</title>
			<desc>Scan 2ry channels</desc>
			<rect x="0" y="538.099" width="106.583" height="41.1024" class="st1"/>
			<text x="8.04" y="561.95" class="st4">Scan 2ry channels</text>		</g>
		<g id="shape14-30" transform="translate(190.345,-438.595)">
			<title>Dynamic connector.253</title>
			<path d="M7.09 579.2 L7.09 598.57" class="st7"/>
		</g>
		<g id="shape18-36" transform="translate(190.345,-371.964)">
			<title>Dynamic connector.257</title>
			<path d="M7.09 579.2 L7.09 599.97" class="st7"/>
		</g>
		<g id="shape19-41" transform="translate(190.345,-508.334)">
			<title>Dynamic connector.258</title>
			<path d="M7.09 579.2 L7.09 601.68" class="st7"/>
		</g>
		<g id="shape20-46" transform="translate(-212.126,-27.3976) rotate(-45)">
			<title>Sheet.20</title>
			<rect x="0" y="553.652" width="25.55" height="25.55" class="st1"/>
		</g>
		<g id="shape21-48" transform="translate(208.982,-212.624)">
			<title>Sheet.21</title>
			<desc>Is the forming node Router or Coordinator?</desc>
			<rect x="0" y="538.099" width="112.747" height="41.1024" class="st5"/>
			<text x="4" y="555.95" class="st6">Is the forming node <tspan x="4" dy="1.2em" class="st3">Router or Coordinator?</tspan></text>		</g>
		<g id="shape23-52" transform="translate(271.58,-175.485)">
			<title>Sheet.23</title>
			<desc>Router</desc>
			<rect x="0" y="561.195" width="42.7402" height="18.0063" class="st5"/>
			<text x="4" y="572.9" class="st6">Router</text>		</g>
		<g id="shape24-55" transform="translate(215.498,-215.108)">
			<title>Dynamic connector.264</title>
			<path d="M0 579.2 L55.07 579.2 L55.07 617.78" class="st7"/>
		</g>
		<g id="shape25-60" transform="translate(179.365,-215.108)">
			<title>Dynamic connector.265</title>
			<path d="M0 579.2 L-54.6 579.2 L-54.6 617.78" class="st7"/>
		</g>
		<g id="shape26-65" transform="translate(66.4713,-177.612)">
			<title>Sheet.26</title>
			<desc>Coordinator</desc>
			<rect x="0" y="561.195" width="57.2779" height="18.0063" class="st5"/>
			<text x="4" y="572.9" class="st6">Coordinator</text>		</g>
		<g id="shape27-68" transform="translate(81.009,-65.1319)">
			<title>Sheet.27</title>
			<desc>Initiate Trust Center functionality</desc>
			<rect x="0" y="538.099" width="87.5096" height="41.1024" class="st1"/>
			<text x="16.24" y="555.65" class="st2">Initiate Trust <tspan x="0.95" dy="1.2em" class="st3">Center functionality</tspan></text>		</g>
		<g id="shape28-72" transform="translate(144.141,-1)">
			<title>Sheet.28</title>
			<desc>Network Formation (end)</desc>
			<rect x="0" y="538.099" width="106.583" height="41.1024" class="st1"/>
			<text x="6.83" y="555.35" class="st4">Network Formation <tspan x="40.45" dy="1.2em" class="st3">(end)</tspan></text>		</g>
		<g id="shape29-76" transform="translate(117.677,-129.264)">
			<title>Dynamic connector.269</title>
			<path d="M7.09 579.2 L7.09 596.07" class="st7"/>
		</g>
		<g id="shape30-81" transform="translate(124.764,-65.1319)">
			<title>Dynamic connector.270</title>
			<path d="M0 579.2 L0 615.2 L13.22 615.2" class="st7"/>
		</g>
		<g id="shape31-86" transform="translate(270.566,-129.264)">
			<title>Dynamic connector.271</title>
			<path d="M0 579.2 L0 678.77 L-13.68 678.77" class="st7"/>
		</g>
		<g id="shape34-91" transform="translate(54.2913,-375.524)">
			<title>Dynamic connector.34</title>
			<path d="M0 579.2 L0 528.99 L143.14 528.99 L143.14 535.5" class="st7"/>
		</g>
		<g id="shape35-96" transform="translate(179.365,-326.968)">
			<title>Dynamic connector.35</title>
			<path d="M0 579.2 L-48.12 579.2 L-48.12 604.57" class="st7"/>
		</g>
		<g id="shape36-101" transform="translate(135.553,-285.866)">
			<title>Sheet.36</title>
			<desc>2ry channels scanned?</desc>
			<rect x="0" y="538.099" width="52.1692" height="41.1024" class="st5"/>
			<text x="4" y="550.55" class="st6">2ry <tspan x="4" dy="1.2em" class="st3">channels </tspan><tspan x="4" dy="1.2em"
						class="st3">scanned?</tspan></text>		</g>
		<g id="shape37-106" transform="translate(-278.308,-89.6597) rotate(-45)">
			<title>Sheet.37</title>
			<rect x="0" y="553.652" width="25.55" height="25.55" class="st1"/>
		</g>
		<g id="shape38-108" transform="translate(131.25,-259.304)">
			<title>Dynamic connector.38</title>
			<path d="M0 579.2 L0 591.87 L-76.96 591.87 L-76.96 790.24" class="st7"/>
		</g>
		<g id="shape39-113" transform="translate(113.183,-277.371)">
			<title>Dynamic connector.39</title>
			<path d="M0 579.2 L-58.89 579.2 L-58.89 528.31" class="st7"/>
		</g>
		<g id="shape40-118" transform="translate(88.5096,-277.431)">
			<title>Sheet.40</title>
			<desc>Fail</desc>
			<rect x="0" y="561.195" width="42.7402" height="18.0063" class="st5"/>
			<text x="4" y="572.9" class="st6">Fail</text>		</g>
		<g id="shape41-121" transform="translate(144.982,-259.304)">
			<title>Sheet.41</title>
			<desc>Yes</desc>
			<rect x="0" y="561.195" width="42.7402" height="18.0063" class="st5"/>
			<text x="4" y="572.9" class="st6">Yes</text>		</g>
		<g id="shape42-124" transform="translate(144.982,-327.028)">
			<title>Sheet.42</title>
			<desc>Fail</desc>
			<rect x="0" y="561.195" width="42.7402" height="18.0063" class="st5"/>
			<text x="4" y="572.9" class="st6">Fail</text>		</g>
		<g id="shape43-127" transform="translate(204.518,-308.902)">
			<title>Dynamic connector.43</title>
			<path d="M-7.09 579.2 L-7.09 648.77" class="st7"/>
		</g>
		<g id="shape44-132" transform="translate(1,-1)">
			<title>Sheet.44</title>
			<desc>Set status to formation failure</desc>
			<rect x="0" y="538.099" width="106.583" height="41.1024" class="st1"/>
			<text x="3.27" y="555.65" class="st2">Set status to formation <tspan x="39.67" dy="1.2em" class="st3">failure</tspan></text>		</g>
		<g id="shape45-136" transform="translate(197.533,-290.895)">
			<title>Sheet.45</title>
			<desc>Yes</desc>
			<rect x="0" y="561.195" width="42.7402" height="18.0063" class="st5"/>
			<text x="4" y="572.9" class="st6">Yes</text>		</g>
		<g id="shape46-139" transform="translate(107.583,-14.4646)">
			<title>Dynamic connector.46</title>
			<path d="M0 572.11 L30.4 572.11" class="st7"/>
		</g>
		<g id="shape56-144" transform="translate(144.141,-537.099)">
			<title>Sheet.56</title>
			<desc>Network missing and device is other than End Device</desc>
			<rect x="0" y="538.099" width="106.583" height="41.1024" class="st5"/>
			<text x="4" y="550.55" class="st6">Network missing and <tspan x="4" dy="1.2em" class="st3">device is other than End </tspan><tspan
						x="4" dy="1.2em" class="st3">Device</tspan></text>		</g>
		<g id="shape57-149" transform="translate(-212.126,-338.69) rotate(-45)">
			<title>Sheet.57</title>
			<rect x="0" y="553.652" width="25.55" height="25.55" class="st1"/>
		</g>
		<g id="shape58-151" transform="translate(107.583,-519.314)">
			<title>Dynamic connector.58</title>
			<path d="M0 572.11 L65.62 572.11" class="st7"/>
		</g>
		<g id="shape59-156" transform="translate(171.079,-490.328)">
			<title>Sheet.59</title>
			<desc>Yes</desc>
			<rect x="0" y="561.195" width="26.3531" height="18.0063" class="st5"/>
			<text x="4" y="572.9" class="st6">Yes</text>		</g>
		<g id="shape60-159" transform="translate(215.498,-526.4)">
			<title>Dynamic connector.60</title>
			<path d="M0 579.2 L106.23 579.2 L106.23 1084.05 L41.38 1084.05" class="st7"/>
		</g>
		<g id="shape61-164" transform="translate(215.498,-526.461)">
			<title>Sheet.61</title>
			<desc>No</desc>
			<rect x="0" y="561.195" width="26.3531" height="18.0063" class="st5"/>
			<text x="4" y="572.9" class="st6">No</text>		</g>
	</g>
</svg>
