<?xml version="1.0" encoding="UTF-8" standalone="no"?>
<!DOCTYPE svg PUBLIC "-//W3C//DTD SVG 1.1//EN" "http://www.w3.org/Graphics/SVG/1.1/DTD/svg11.dtd">
<!-- Generated by Microsoft Visio, SVG Export zigbee_topology_types.svg Drawing -->
<svg xmlns="http://www.w3.org/2000/svg" xmlns:xlink="http://www.w3.org/1999/xlink" xmlns:ev="http://www.w3.org/2001/xml-events"
		width="7.5742in" height="3.73282in" viewBox="0 0 545.342 268.763" xml:space="preserve" color-interpolation-filters="sRGB"
		class="st13">
	<style type="text/css">
	<![CDATA[
		.st1 {fill:#0033a0;stroke:none;stroke-width:1}
		.st2 {fill:#ffffff;font-family:Arial;font-size:1.00001em}
		.st3 {fill:#f58220;stroke:none;stroke-width:1}
		.st4 {fill:#00a9ce;stroke:none;stroke-width:1}
		.st5 {fill:#feffff;font-family:Calibri;font-size:1.00001em}
		.st6 {fill:none;stroke:none;stroke-width:1}
		.st7 {fill:#333f48;font-family:Calibri;font-size:1.00001em}
		.st8 {marker-end:url(#mrkr13-37);marker-start:url(#mrkr13-35);stroke:#333f48;stroke-linecap:butt;stroke-width:1}
		.st9 {fill:#333f48;fill-opacity:1;stroke:#333f48;stroke-opacity:1;stroke-width:0.28409090909091}
		.st10 {fill:#ffffff;stroke:#000000;stroke-width:1}
		.st11 {fill:#000000;font-family:Arial;font-size:0.666664em}
		.st12 {marker-end:url(#mrkr13-37);stroke:#333f48;stroke-linecap:butt;stroke-width:1}
		.st13 {fill:none;fill-rule:evenodd;font-size:12px;overflow:visible;stroke-linecap:square;stroke-miterlimit:3}
	]]>
	</style>

	<defs id="Markers">
		<g id="lend13">
			<path d="M 3 1 L 0 0 L 3 -1 L 3 1 " style="stroke:none"/>
		</g>
		<marker id="mrkr13-35" class="st9" refX="10.2" orient="auto" markerUnits="strokeWidth" overflow="visible">
			<use xlink:href="#lend13" transform="scale(3.52) "/>
		</marker>
		<marker id="mrkr13-37" class="st9" refX="-10.56" orient="auto" markerUnits="strokeWidth" overflow="visible">
			<use xlink:href="#lend13" transform="scale(-3.52,-3.52) "/>
		</marker>
	</defs>
	<g>
		<title>Drawing</title>
		<g id="group168-1" transform="translate(189.9,-20)">
			<title>Sheet.168</title>
			<g id="shape115-2" transform="translate(55.1261,-107.068)">
				<title>Sheet.115</title>
				<desc>C</desc>
				<ellipse cx="13.3898" cy="255.373" rx="13.3898" ry="13.3898" class="st1"/>
				<text x="9.06" y="258.97" class="st2">C</text>			</g>
			<g id="shape126-5" transform="translate(55.1261,-54.8655)">
				<title>Sheet.126</title>
				<desc>R</desc>
				<ellipse cx="13.3898" cy="255.373" rx="13.3898" ry="13.3898" class="st3"/>
				<text x="9.06" y="258.97" class="st2">R</text>			</g>
			<g id="shape127-8" transform="translate(55.1261,0)">
				<title>Sheet.127</title>
				<desc>R</desc>
				<ellipse cx="13.3898" cy="255.373" rx="13.3898" ry="13.3898" class="st3"/>
				<text x="9.06" y="258.97" class="st2">R</text>			</g>
			<g id="shape152-11" transform="translate(106.299,-54.8655)">
				<title>Sheet.152</title>
				<desc>ED</desc>
				<ellipse cx="13.3898" cy="255.373" rx="13.3898" ry="13.3898" class="st4"/>
				<text x="6.77" y="258.97" class="st5">ED</text>			</g>
			<g id="shape153-14" transform="translate(106.299,-107.068)">
				<title>Sheet.153</title>
				<desc>ED</desc>
				<ellipse cx="13.3898" cy="255.373" rx="13.3898" ry="13.3898" class="st4"/>
				<text x="6.77" y="258.97" class="st5">ED</text>			</g>
			<g id="shape154-17" transform="translate(106.299,0)">
				<title>Sheet.154</title>
				<desc>ED</desc>
				<ellipse cx="13.3898" cy="255.373" rx="13.3898" ry="13.3898" class="st4"/>
				<text x="6.77" y="258.97" class="st5">ED</text>			</g>
			<g id="shape155-20">
				<title>Sheet.155</title>
				<desc>ED</desc>
				<ellipse cx="13.3898" cy="255.373" rx="13.3898" ry="13.3898" class="st4"/>
				<text x="6.77" y="258.97" class="st5">ED</text>			</g>
			<g id="shape156-23" transform="translate(0,-107.068)">
				<title>Sheet.156</title>
				<desc>ED</desc>
				<ellipse cx="13.3898" cy="255.373" rx="13.3898" ry="13.3898" class="st4"/>
				<text x="6.77" y="258.97" class="st5">ED</text>			</g>
			<g id="shape160-26" transform="translate(13.3898,-145.425)">
				<title>Sheet.160</title>
				<desc>Tree</desc>
				<rect x="0" y="254.59" width="106.299" height="14.1732" class="st6"/>
				<text x="42.16" y="265.28" class="st7">Tree</text>			</g>
			<g id="shape161-29" transform="translate(55.1261,-113.372)">
				<title>Dynamic connector.161</title>
				<path d="M-10.2 261.68 L-10.56 261.68 L-17.79 261.68" class="st8"/>
			</g>
			<g id="shape162-38" transform="translate(81.9057,-113.372)">
				<title>Dynamic connector.162</title>
				<path d="M10.2 261.68 L10.56 261.68 L13.83 261.68" class="st8"/>
			</g>
			<g id="shape163-45" transform="translate(81.9057,-61.1687)">
				<title>Dynamic connector.163</title>
				<path d="M10.2 261.68 L10.56 261.68 L13.83 261.68" class="st8"/>
			</g>
			<g id="shape164-52" transform="translate(81.9057,-6.3032)">
				<title>Dynamic connector.164</title>
				<path d="M10.2 261.68 L10.56 261.68 L13.83 261.68" class="st8"/>
			</g>
			<g id="shape165-59" transform="translate(55.1261,-6.3032)">
				<title>Dynamic connector.165</title>
				<path d="M-10.2 261.68 L-10.56 261.68 L-17.79 261.68" class="st8"/>
			</g>
			<g id="shape166-66" transform="translate(61.4293,-107.068)">
				<title>Dynamic connector.166</title>
				<path d="M7.09 278.96 L7.09 279.32 L7.09 283.63" class="st8"/>
			</g>
			<g id="shape167-73" transform="translate(61.4293,-54.8655)">
				<title>Dynamic connector.167</title>
				<path d="M7.09 278.96 L7.09 279.32 L7.09 286.29" class="st8"/>
			</g>
		</g>
		<g id="group169-80" transform="translate(342.412,-19)">
			<title>Sheet.169</title>
			<g id="shape108-81" transform="translate(24.2343,-60.2291)">
				<title>Sheet.108</title>
				<desc>R</desc>
				<ellipse cx="13.3898" cy="255.373" rx="13.3898" ry="13.3898" class="st3"/>
				<text x="9.06" y="258.97" class="st2">R</text>			</g>
			<g id="shape109-84" transform="translate(129.61,-60.2291)">
				<title>Sheet.109</title>
				<desc>ED</desc>
				<ellipse cx="13.3898" cy="255.373" rx="13.3898" ry="13.3898" class="st4"/>
				<text x="6.77" y="258.97" class="st5">ED</text>			</g>
			<g id="shape110-87" transform="translate(72.0296,-108.269)">
				<title>Sheet.110</title>
				<desc>C</desc>
				<ellipse cx="13.3898" cy="255.373" rx="13.3898" ry="13.3898" class="st1"/>
				<text x="9.06" y="258.97" class="st2">C</text>			</g>
			<g id="shape111-90" transform="translate(76.4447,-111.721)">
				<title>Dynamic connector.111</title>
				<path d="M-7.65 275.51 L-7.92 275.75 L-23.01 289.06" class="st8"/>
			</g>
			<g id="shape122-97">
				<title>Sheet.122</title>
				<desc>ED</desc>
				<ellipse cx="13.3898" cy="255.373" rx="13.3898" ry="13.3898" class="st4"/>
				<text x="6.77" y="258.97" class="st5">ED</text>			</g>
			<g id="shape123-100" transform="translate(145.835,-108.269)">
				<title>Sheet.123</title>
				<desc>R</desc>
				<ellipse cx="13.3898" cy="255.373" rx="13.3898" ry="13.3898" class="st3"/>
				<text x="9.06" y="258.97" class="st2">R</text>			</g>
			<g id="shape124-103" transform="translate(87.874,-60.2291)">
				<title>Sheet.124</title>
				<desc>R</desc>
				<ellipse cx="13.3898" cy="255.373" rx="13.3898" ry="13.3898" class="st3"/>
				<text x="9.06" y="258.97" class="st2">R</text>			</g>
			<g id="shape125-106" transform="translate(1.56684,-107.068)">
				<title>Sheet.125</title>
				<desc>ED</desc>
				<ellipse cx="13.3898" cy="255.373" rx="13.3898" ry="13.3898" class="st4"/>
				<text x="6.77" y="258.97" class="st5">ED</text>			</g>
			<g id="shape138-109" transform="translate(98.8092,-114.572)">
				<title>Dynamic connector.138</title>
				<path d="M10.2 261.68 L10.56 261.68 L36.47 261.68" class="st8"/>
			</g>
			<g id="shape140-116" transform="translate(28.3465,-113.972)">
				<title>Dynamic connector.140</title>
				<path d="M10.2 262 L10.56 261.99 L33.13 261.37" class="st8"/>
			</g>
			<g id="shape142-123" transform="translate(151.541,0)">
				<title>Sheet.142</title>
				<desc>ED</desc>
				<ellipse cx="13.3898" cy="255.373" rx="13.3898" ry="13.3898" class="st4"/>
				<text x="6.77" y="258.97" class="st5">ED</text>			</g>
			<g id="shape143-126" transform="translate(45.3543,0)">
				<title>Sheet.143</title>
				<desc>ED</desc>
				<ellipse cx="13.3898" cy="255.373" rx="13.3898" ry="13.3898" class="st4"/>
				<text x="6.77" y="258.97" class="st5">ED</text>			</g>
			<g id="shape144-129" transform="translate(87.874,0)">
				<title>Sheet.144</title>
				<desc>ED</desc>
				<ellipse cx="13.3898" cy="255.373" rx="13.3898" ry="13.3898" class="st4"/>
				<text x="6.77" y="258.97" class="st5">ED</text>			</g>
			<g id="shape145-132" transform="translate(94.1772,-60.2291)">
				<title>Dynamic connector.145</title>
				<path d="M7.09 278.96 L7.09 279.32 L7.09 291.65" class="st8"/>
			</g>
			<g id="shape146-139" transform="translate(41.5189,-62.893)">
				<title>Dynamic connector.146</title>
				<path d="M5.69 278.84 L5.74 279.2 L8.43 296.52" class="st8"/>
			</g>
			<g id="shape147-146" transform="translate(32.6976,-62.166)">
				<title>Dynamic connector.147</title>
				<path d="M-4.68 278.61 L-4.77 278.96 L-9.4 296.02" class="st8"/>
			</g>
			<g id="shape148-153" transform="translate(51.0139,-66.5323)">
				<title>Dynamic connector.148</title>
				<path d="M10.2 261.68 L10.56 261.68 L26.3 261.68" class="st8"/>
			</g>
			<g id="shape149-160" transform="translate(85.0249,-108.558)">
				<title>Dynamic connector.149</title>
				<path d="M6.51 278.4 L6.63 278.74 L7.55 281.4" class="st8"/>
			</g>
			<g id="shape150-167" transform="translate(155.329,-109.561)">
				<title>Dynamic connector.150</title>
				<path d="M-6.14 278.01 L-6.3 278.34 L-7.88 281.74" class="st8"/>
			</g>
			<g id="shape151-174" transform="translate(157.844,-109.545)">
				<title>Dynamic connector.151</title>
				<path d="M7.09 278.96 L7.09 279.32 L7.09 340.97" class="st8"/>
			</g>
			<g id="shape159-181" transform="translate(12.7932,-145.425)">
				<title>Sheet.159</title>
				<desc>Mesh</desc>
				<rect x="0" y="254.59" width="147.036" height="14.1732" class="st6"/>
				<text x="59.9" y="265.28" class="st7">Mesh</text>			</g>
		</g>
		<g id="group170-184" transform="translate(19,-28.3465)">
			<title>Sheet.170</title>
			<g id="shape103-185" transform="translate(26.7796,0)">
				<title>Sheet.103</title>
				<desc>R</desc>
				<ellipse cx="13.3898" cy="255.373" rx="13.3898" ry="13.3898" class="st3"/>
				<text x="9.06" y="258.97" class="st2">R</text>			</g>
			<g id="shape104-188" transform="translate(104.882,0)">
				<title>Sheet.104</title>
				<desc>ED</desc>
				<ellipse cx="13.3898" cy="255.373" rx="13.3898" ry="13.3898" class="st4"/>
				<text x="6.77" y="258.97" class="st5">ED</text>			</g>
			<g id="shape105-191" transform="translate(65.3682,-47.8833)">
				<title>Sheet.105</title>
				<desc>C</desc>
				<ellipse cx="13.3898" cy="255.373" rx="13.3898" ry="13.3898" class="st1"/>
				<text x="9.06" y="258.97" class="st2">C</text>			</g>
			<g id="shape106-194" transform="translate(69.7833,-51.3362)">
				<title>Dynamic connector.106</title>
				<path d="M-6.38 276.72 L-6.6 277.01 L-15.12 287.65" class="st8"/>
			</g>
			<g id="shape107-201" transform="translate(88.9188,-52.5528)">
				<title>Dynamic connector.107</title>
				<path d="M6.02 277 L6.23 277.29 L14.76 288.94" class="st8"/>
			</g>
			<g id="shape118-208" transform="translate(0,-47.8833)">
				<title>Sheet.118</title>
				<desc>ED</desc>
				<ellipse cx="13.3898" cy="255.373" rx="13.3898" ry="13.3898" class="st4"/>
				<text x="6.77" y="258.97" class="st5">ED</text>			</g>
			<g id="shape119-211" transform="translate(130.736,-47.8833)">
				<title>Sheet.119</title>
				<desc>ED</desc>
				<ellipse cx="13.3898" cy="255.373" rx="13.3898" ry="13.3898" class="st4"/>
				<text x="6.77" y="258.97" class="st5">ED</text>			</g>
			<g id="shape120-214" transform="translate(104.882,-96.0789)">
				<title>Sheet.120</title>
				<desc>R</desc>
				<ellipse cx="13.3898" cy="255.373" rx="13.3898" ry="13.3898" class="st3"/>
				<text x="9.06" y="258.97" class="st2">R</text>			</g>
			<g id="shape121-217" transform="translate(26.7796,-96.0789)">
				<title>Sheet.121</title>
				<desc>ED</desc>
				<ellipse cx="13.3898" cy="255.373" rx="13.3898" ry="13.3898" class="st4"/>
				<text x="6.77" y="258.97" class="st5">ED</text>			</g>
			<g id="shape129-220" transform="translate(92.1478,-54.1865)">
				<title>Dynamic connector</title>
				<path d="M10.2 261.68 L10.56 261.68 L28.03 261.68" class="st8"/>
			</g>
			<g id="shape130-227" transform="translate(65.3682,-54.1865)">
				<title>Dynamic connector.130</title>
				<path d="M-10.2 261.68 L-10.56 261.68 L-28.03 261.68" class="st8"/>
			</g>
			<g id="shape132-234" transform="translate(69.3179,-70.769)">
				<title>Dynamic connector.132</title>
				<path d="M-6.05 260.55 L-6.27 260.26 L-14.54 249.04" class="st8"/>
			</g>
			<g id="shape133-241" transform="translate(86.2279,-72.3856)">
				<title>Dynamic connector.133</title>
				<path d="M6.19 260.66 L6.41 260.37 L15.36 248.66" class="st8"/>
			</g>
			<g id="shape157-248" transform="translate(40.1694,-136.272)">
				<title>Sheet.157</title>
				<desc>Star</desc>
				<rect x="0" y="254.59" width="76.5354" height="14.1732" class="st6"/>
				<text x="28.54" y="265.28" class="st7">Star</text>			</g>
		</g>
		<g id="group171-251" transform="translate(408.189,-194.771)">
			<title>Sheet.171</title>
			<g id="shape74-252">
				<title>Sheet.74</title>
				<rect x="0" y="214.123" width="106.299" height="54.6402" class="st10"/>
			</g>
			<g id="shape75-254" transform="translate(4.25197,-29.6702)">
				<title>Nordic Blue.75</title>
				<rect x="0" y="260.895" width="25.5118" height="7.86858" class="st3"/>
			</g>
			<g id="shape76-256" transform="translate(4.25197,-17.0079)">
				<title>Nordic Blue.76</title>
				<rect x="0" y="260.895" width="25.5118" height="7.86858" class="st4"/>
			</g>
			<g id="shape79-258" transform="translate(29.7638,-13.0052)">
				<title>Sheet.79</title>
				<desc>End device</desc>
				<rect x="0" y="252.889" width="76.5354" height="15.874" class="st6"/>
				<text x="4" y="263.23" class="st11">End device</text>			</g>
			<g id="shape82-261" transform="translate(24.5197,-0.850394)">
				<title>Dynamic connector.82</title>
				<path d="M0 261.68 L-4.75 261.68" class="st12"/>
			</g>
			<g id="shape83-266" transform="translate(29.7638,-26.0787)">
				<title>Sheet.83</title>
				<desc>Router</desc>
				<rect x="0" y="252.889" width="76.5354" height="15.874" class="st6"/>
				<text x="4" y="263.23" class="st11">Router</text>			</g>
			<g id="shape84-269" transform="translate(29.7638,-1.13687E-13)">
				<title>Sheet.84</title>
				<desc>Communication</desc>
				<rect x="0" y="252.889" width="76.5354" height="15.874" class="st6"/>
				<text x="4" y="263.23" class="st11">Communication</text>			</g>
			<g id="shape86-272" transform="translate(4.25195,-42.7096)">
				<title>Nordic Blue.86</title>
				<rect x="0" y="260.895" width="25.5118" height="7.86858" class="st1"/>
			</g>
			<g id="shape87-274" transform="translate(29.7638,-39.1181)">
				<title>Sheet.87</title>
				<desc>Coordinator</desc>
				<rect x="0" y="252.889" width="76.5354" height="15.874" class="st6"/>
				<text x="4" y="263.23" class="st11">Coordinator</text>			</g>
		</g>
	</g>
</svg>
