<?xml version="1.0" encoding="UTF-8" standalone="no"?>
<!DOCTYPE svg PUBLIC "-//W3C//DTD SVG 1.1//EN" "http://www.w3.org/Graphics/SVG/1.1/DTD/svg11.dtd">
<!-- Generated by Microsoft Visio, SVG Export zigbee_platform_design_nRF53.svg Page-1 -->
<svg xmlns="http://www.w3.org/2000/svg" xmlns:xlink="http://www.w3.org/1999/xlink" xmlns:ev="http://www.w3.org/2001/xml-events"
		width="7.21282in" height="3.39982in" viewBox="0 0 519.323 244.787" xml:space="preserve" color-interpolation-filters="sRGB"
		class="st16">
	<style type="text/css">
	<![CDATA[
		.st1 {fill:#6ad1e3;stroke:none;stroke-width:1}
		.st2 {stroke:none;stroke-linecap:round;stroke-linejoin:round;stroke-width:0.75}
		.st3 {fill:#333f48;font-family:Calibri;font-size:1.5em}
		.st4 {fill:#0033a0;stroke:none;stroke-width:1}
		.st5 {fill:#ffffff;font-family:Calibri;font-size:1.16666em}
		.st6 {fill:#00a9ce;stroke:none;stroke-width:1}
		.st7 {fill:#768692;stroke:none;stroke-width:1}
		.st8 {fill:#ffffff;font-family:Calibri;font-size:1.00001em}
		.st9 {fill:#0077c8;stroke:none;stroke-width:1}
		.st10 {fill:#ffffff;font-family:Calibri;font-size:0.833336em}
		.st11 {marker-end:url(#mrkr13-52);marker-start:url(#mrkr13-50);stroke:#333f48;stroke-linecap:butt;stroke-width:1}
		.st12 {fill:#333f48;fill-opacity:1;stroke:#333f48;stroke-opacity:1;stroke-width:0.35714285714286}
		.st13 {fill:#333f48;fill-opacity:1;stroke:#333f48;stroke-opacity:1;stroke-width:0.28409090909091}
		.st14 {fill:none;stroke:none;stroke-width:1}
		.st15 {fill:#333f48;font-family:Calibri;font-size:0.833336em}
		.st16 {fill:none;fill-rule:evenodd;font-size:12px;overflow:visible;stroke-linecap:square;stroke-miterlimit:3}
	]]>
	</style>

	<defs id="Markers">
		<g id="lend13">
			<path d="M 3 1 L 0 0 L 3 -1 L 3 1 " style="stroke:none"/>
		</g>
		<marker id="mrkr13-50" class="st12" refX="8.04" orient="auto" markerUnits="strokeWidth" overflow="visible">
			<use xlink:href="#lend13" transform="scale(2.8) "/>
		</marker>
		<marker id="mrkr13-52" class="st13" refX="-10.56" orient="auto" markerUnits="strokeWidth" overflow="visible">
			<use xlink:href="#lend13" transform="scale(-3.52,-3.52) "/>
		</marker>
	</defs>
	<g>
		<title>Page-1</title>
		<g id="group131-1" transform="translate(1,-1)">
			<title>Sheet.131</title>
			<g id="shape98-2" transform="translate(304.893,0)">
				<title>Sheet.98</title>
				<path d="M212.43 2 L0 2 L0 244.79 L212.43 244.79 L212.43 2 Z" class="st1"/>
			</g>
			<g id="shape99-4" transform="translate(304.893,0)">
				<title>Sheet.99</title>
				<desc>nRF53 application core</desc>
				<path d="M212.43 221.91 L0 221.91 L0 244.79 L212.43 244.79 L212.43 221.91" class="st2"/>
				<text x="22.53" y="238.75" class="st3">nRF53 application core</text>			</g>
			<g id="shape100-8" transform="translate(310.483,-214.851)">
				<title>Sheet.100</title>
				<desc>Application</desc>
				<path d="M0 221.91 L0 244.79 L201.25 244.79 L201.25 221.91 L0 221.91 L0 221.91 Z" class="st4"/>
				<text x="68.37" y="237.55" class="st5">Application</text>			</g>
			<g id="shape102-11" transform="translate(310.483,-111.938)">
				<title>Sheet.102</title>
				<path d="M0 148.98 L0 244.79 L201.25 244.79 L201.25 148.98 L0 148.98 L0 148.98 Z" class="st6"/>
			</g>
			<g id="shape107-13" transform="translate(336.646,-155.19)">
				<title>Sheet.107</title>
				<path d="M151.72 226.57 L0 226.57 L0 244.79 L151.72 244.79 L151.72 226.57" class="st2"/>
			</g>
			<g id="group110-16" transform="translate(310.483,-84.9184)">
				<title>Sheet.110</title>
				<desc>Secure boot</desc>
				<g id="shape111-17">
					<title>Sheet.111</title>
					<rect x="0" y="226.899" width="201.249" height="17.8888" class="st7"/>
				</g>
				<g id="shape110-19">
					<text x="51.29" y="239.44" class="st8">Zephyr integration</text>				</g>
			</g>
			<g id="shape112-21">
				<title>Sheet.112</title>
				<path d="M212.43 139.76 L0 139.76 L0 244.79 L212.43 244.79 L212.43 139.76 Z" class="st1"/>
			</g>
			<g id="group113-23" transform="translate(5.81388,-32.7053)">
				<title>Sheet.113</title>
				<desc>Secure boot</desc>
				<g id="shape114-24">
					<title>Sheet.114</title>
					<rect x="0" y="221.913" width="197.824" height="22.8749" class="st6"/>
				</g>
				<g id="shape113-26">
					<text x="15.07" y="236.95" class="st8">Multiprotocol Service Layer (MPSL)</text>				</g>
			</g>
			<g id="shape115-28">
				<title>Sheet.115</title>
				<desc>nRF53 network core</desc>
				<path d="M212.43 222.43 L0 222.43 L0 244.79 L212.43 244.79 L212.43 222.43" class="st2"/>
				<text x="32.47" y="239.01" class="st3">nRF53 network core</text>			</g>
			<g id="shape116-32" transform="translate(5.81388,-59.5386)">
				<title>Sheet.116</title>
				<path d="M198.45 206.77 L0 206.77 L0 244.79 L198.45 244.79 L198.45 206.77 Z" class="st6"/>
			</g>
			<g id="shape117-34" transform="translate(5.81388,-81.8996)">
				<title>Sheet.117</title>
				<desc>nRF IEEE 802.15.4 radio driver</desc>
				<path d="M198.45 234.37 L0 234.37 L0 244.79 L198.45 244.79 L198.45 234.37" class="st2"/>
				<text x="25.99" y="243.18" class="st8">nRF IEEE 802.15.4 radio driver</text>			</g>
			<g id="shape118-38" transform="translate(13.5315,-64.0108)">
				<title>Sheet.118</title>
				<desc>IEEE 802.15.4 PHY</desc>
				<path d="M181.03 229.17 L0 229.17 L0 244.79 L181.03 244.79 L181.03 229.17 Z" class="st9"/>
				<text x="53.81" y="240.58" class="st10">IEEE 802.15.4 PHY</text>			</g>
			<g id="shape120-41" transform="translate(310.483,-64.0108)">
				<title>Sheet.120</title>
				<desc>nRF IEEE 802.15.4 radio driver</desc>
				<path d="M201.25 226.9 L0 226.9 L0 244.79 L201.25 244.79 L201.25 226.9 Z" class="st6"/>
				<text x="27.39" y="239.44" class="st8">nRF IEEE 802.15.4 radio driver</text>			</g>
			<g id="shape121-44" transform="translate(310.483,-65.8686)">
				<title>Dynamic connector.121</title>
				<path d="M-8.04 237.7 L-8.4 237.7 L-95.65 237.7" class="st11"/>
			</g>
			<g id="shape103-53" transform="translate(320.079,-187.861)">
				<title>Sheet.103</title>
				<desc>Zigbee stack (ZBOSS)</desc>
				<path d="M182.06 229.17 L0 229.17 L0 244.79 L182.06 244.79 L182.06 229.17" class="st2"/>
				<text x="32.07" y="241.18" class="st5">Zigbee stack (ZBOSS)</text>			</g>
			<g id="shape129-57" transform="translate(215.434,-75.9108)">
				<title>Sheet.129</title>
				<desc>OpenAMP (Spinel)</desc>
				<rect x="0" y="232.824" width="86.8814" height="11.9632" class="st14"/>
				<text x="6.14" y="242.41" class="st15">OpenAMP (Spinel)</text>			</g>
			<g id="group130-60" transform="translate(327.663,-120.472)">
				<title>Sheet.130</title>
				<g id="shape104-61">
					<title>Sheet.104</title>
					<desc>IEEE 802.15.4 MAC</desc>
					<path d="M166.89 226.57 L0 226.57 L0 244.79 L166.89 244.79 L166.89 226.57 Z" class="st9"/>
					<text x="37.35" y="239.28" class="st8">IEEE 802.15.4 MAC</text>				</g>
				<g id="shape106-64" transform="translate(0,-40.2499)">
					<title>Sheet.106</title>
					<desc>Zigbee app layer (ZCL)</desc>
					<path d="M166.89 226.57 L0 226.57 L0 244.79 L166.89 244.79 L166.89 226.57 Z" class="st9"/>
					<text x="29.85" y="239.28" class="st8">Zigbee app layer (ZCL)</text>				</g>
				<g id="shape108-67" transform="translate(0,-20.1249)">
					<title>Sheet.108</title>
					<desc>Zigbee PRO + Green Power</desc>
					<path d="M166.89 226.57 L0 226.57 L0 244.79 L166.89 244.79 L166.89 226.57 Z" class="st9"/>
					<text x="17.94" y="239.28" class="st8">Zigbee PRO + Green Power</text>				</g>
			</g>
		</g>
	</g>
</svg>
