<?xml version="1.0" encoding="UTF-8" standalone="no"?>
<!DOCTYPE svg PUBLIC "-//W3C//DTD SVG 1.1//EN" "http://www.w3.org/Graphics/SVG/1.1/DTD/svg11.dtd">
<!-- Generated by Microsoft Visio, SVG Export lwm2m_carrier_msc_init.svg Page-1 -->
<svg xmlns="http://www.w3.org/2000/svg" xmlns:xlink="http://www.w3.org/1999/xlink" xmlns:ev="http://www.w3.org/2001/xml-events"
		width="7.69137in" height="5.36981in" viewBox="0 0 553.779 386.626" xml:space="preserve" color-interpolation-filters="sRGB"
		class="st12">
	<style type="text/css">
	<![CDATA[
		.st1 {fill:#00a9ce;stroke:none;stroke-width:1}
		.st2 {fill:#feffff;font-family:Arial;font-size:0.833336em}
		.st3 {font-size:1em}
		.st4 {marker-start:url(#mrkr4-10);stroke:#00a9ce;stroke-linecap:butt;stroke-width:1}
		.st5 {fill:#00a9ce;fill-opacity:1;stroke:#00a9ce;stroke-opacity:1;stroke-width:0.28409090909091}
		.st6 {stroke:#00a9ce;stroke-dasharray:8,4;stroke-linecap:butt;stroke-width:1}
		.st7 {stroke:#00a9ce;stroke-linecap:butt;stroke-width:1}
		.st8 {marker-end:url(#mrkr4-47);stroke:#00a9ce;stroke-linecap:butt;stroke-width:1}
		.st9 {fill:none;stroke:none;stroke-width:1}
		.st10 {fill:#00a9ce;font-family:Arial;font-size:0.666664em}
		.st11 {fill:#00a9ce;font-family:Arial;font-size:0.75em}
		.st12 {fill:none;fill-rule:evenodd;font-size:12px;overflow:visible;stroke-linecap:square;stroke-miterlimit:3}
	]]>
	</style>

	<defs id="Markers">
		<g id="lend4">
			<path d="M 2 1 L 0 0 L 2 -1 L 2 1 " style="stroke:none"/>
		</g>
		<marker id="mrkr4-10" class="st5" refX="6.68" orient="auto" markerUnits="strokeWidth" overflow="visible">
			<use xlink:href="#lend4" transform="scale(3.52) "/>
		</marker>
		<marker id="mrkr4-47" class="st5" refX="-7.04" orient="auto" markerUnits="strokeWidth" overflow="visible">
			<use xlink:href="#lend4" transform="scale(-3.52,-3.52) "/>
		</marker>
	</defs>
	<g>
		<title>Page-1</title>
		<g id="shape26-1" transform="translate(383.677,-15.1825)">
			<title>Rectangle.1016</title>
			<desc>LwM2M carrier library thread loop</desc>
			<rect x="0" y="351.193" width="119.394" height="35.4331" class="st1"/>
			<text x="11.64" y="365.91" class="st2">LwM2M carrier library <tspan x="34.68" dy="1.2em" class="st3">thread loop</tspan></text>		</g>
		<g id="shape27-5" transform="translate(495.984,-43.5819)">
			<title>Dynamic connector</title>
			<path d="M13.72 385.81 L14.07 385.77 C44.35 383.83 49.37 408.38 7.09 407.02" class="st4"/>
		</g>
		<g id="shape28-11" transform="translate(1,-350.193)">
			<title>Rectangle.28</title>
			<desc>LTE link controller</desc>
			<rect x="0" y="351.193" width="119.394" height="35.4331" class="st1"/>
			<text x="19.68" y="371.91" class="st2">LTE link controller</text>		</g>
		<g id="shape29-14" transform="translate(53.6102,-350.193)">
			<title>Dynamic connector.29</title>
			<path d="M7.09 386.63 L7.09 732.81" class="st6"/>
		</g>
		<g id="shape31-17" transform="translate(185.599,-350.193)">
			<title>Rectangle.31</title>
			<desc>Application</desc>
			<rect x="0" y="351.193" width="119.394" height="35.4331" class="st1"/>
			<text x="35.24" y="371.91" class="st2">Application</text>		</g>
		<g id="shape32-20" transform="translate(252.298,-350.193)">
			<title>Dynamic connector.32</title>
			<path d="M-7 386.63 L-7.17 732.81" class="st6"/>
		</g>
		<g id="shape21-23" transform="translate(185.599,-185.783)">
			<title>Rectangle</title>
			<desc>If not already done, supply CA certificates to the modem befo...</desc>
			<rect x="0" y="321.69" width="119.394" height="64.9358" class="st1"/>
			<text x="16.89" y="339.16" class="st2">If not already done, <tspan x="6.06" dy="1.2em" class="st3">supply CA certificates to </tspan><tspan
						x="19.12" dy="1.2em" class="st3">the modem before </tspan><tspan x="6.61" dy="1.2em" class="st3">attaching to the network</tspan></text>		</g>
		<g id="shape25-29" transform="translate(185.599,-127.934)">
			<title>Single Snip Corner Rectangle.1003</title>
			<desc>Application can now attach to the network</desc>
			<path d="M0 386.63 L119.39 386.63 L119.39 363.13 L107.45 351.19 L0 351.19 L0 386.63 Z" class="st1"/>
			<text x="15.22" y="365.91" class="st2">Application can now <tspan x="13.28" dy="1.2em" class="st3">attach to the network</tspan></text>		</g>
		<g id="shape33-33" transform="translate(383.677,-350.193)">
			<title>Rectangle.33</title>
			<desc>LwM2M carrier library</desc>
			<rect x="0" y="351.193" width="119.394" height="35.4331" class="st1"/>
			<text x="11.64" y="371.91" class="st2">LwM2M carrier library</text>		</g>
		<g id="shape34-36" transform="translate(450.376,-350.193)">
			<title>Dynamic connector.34</title>
			<path d="M-7 386.63 L-7.17 735.82" class="st6"/>
		</g>
		<g id="shape35-39" transform="translate(245.126,-323.922)">
			<title>Sheet.35</title>
			<path d="M0 386.63 L55.47 386.63" class="st7"/>
		</g>
		<g id="shape36-42" transform="translate(376.846,-323.922)">
			<title>Sheet.36</title>
			<path d="M0 386.63 L59.48 386.63" class="st8"/>
		</g>
		<g id="shape37-48" transform="translate(297.063,-312.583)">
			<title>Sheet.37</title>
			<desc>lwm2m_carrier_init()</desc>
			<rect x="0" y="363.949" width="83.3386" height="22.6772" class="st9"/>
			<text x="5.44" y="378.29" class="st10">lwm2m_carrier_init()</text>		</g>
		<g id="shape38-51" transform="translate(245.126,-281.524)">
			<title>Sheet.38</title>
			<path d="M6.68 386.63 L7.04 386.63 L40.79 386.63" class="st4"/>
		</g>
		<g id="shape39-56" transform="translate(256.738,-272.028)">
			<title>Sheet.39</title>
			<desc>LWM2M_CARRIER_EVENT_INIT</desc>
			<rect x="0" y="367.634" width="183.687" height="18.9921" class="st9"/>
			<text x="31.39" y="379.53" class="st10">LWM2M_CARRIER_EVENT_INIT</text>		</g>
		<g id="shape40-59" transform="translate(410.945,-281.098)">
			<title>Sheet.40</title>
			<path d="M0 386.63 L32.36 386.63" class="st7"/>
		</g>
		<g id="shape41-62" transform="translate(60.6968,-96.4415)">
			<title>Sheet.41</title>
			<path d="M6.68 386.63 L7.04 386.63 L35.91 386.63" class="st4"/>
		</g>
		<g id="shape42-67" transform="translate(93.8109,-90.0635)">
			<title>Sheet.42</title>
			<desc>lte_lc_init_and_connect()</desc>
			<rect x="0" y="373.87" width="109.858" height="12.7559" class="st9"/>
			<text x="4.9" y="383.55" class="st11">lte_lc_init_and_connect()</text>		</g>
		<g id="shape43-70" transform="translate(200.371,-96.1855)">
			<title>Sheet.43</title>
			<path d="M0 386.63 L44.76 386.63" class="st7"/>
		</g>
		<g id="shape44-73" transform="translate(290.54,-71.3346)">
			<title>Sheet.44</title>
			<desc>lwm2m_carrier_run()</desc>
			<rect x="0" y="363.949" width="84.9715" height="22.6772" class="st9"/>
			<text x="5.59" y="378.29" class="st10">lwm2m_carrier_run()</text>		</g>
		<g id="shape45-76" transform="translate(245.126,-82.1063)">
			<title>Sheet.45</title>
			<path d="M0 386.63 L49.37 386.63" class="st7"/>
		</g>
		<g id="shape46-79" transform="translate(371.715,-82.1063)">
			<title>Sheet.46</title>
			<path d="M0 386.63 L64.45 386.63" class="st8"/>
		</g>
	</g>
</svg>
