<?xml version="1.0" encoding="UTF-8" standalone="no"?>
<!DOCTYPE svg PUBLIC "-//W3C//DTD SVG 1.1//EN" "http://www.w3.org/Graphics/SVG/1.1/DTD/svg11.dtd">
<!-- Generated by Microsoft Visio, SVG Export lwm2m_carrier_msc_bootstrap.svg Page-1 -->
<svg xmlns="http://www.w3.org/2000/svg" xmlns:xlink="http://www.w3.org/1999/xlink" xmlns:ev="http://www.w3.org/2001/xml-events"
		width="7.05993in" height="8.05337in" viewBox="0 0 508.315 579.842" xml:space="preserve" color-interpolation-filters="sRGB"
		class="st15">
	<style type="text/css">
	<![CDATA[
		.st1 {marker-end:url(#mrkr4-6);stroke:#00a9ce;stroke-linecap:butt;stroke-width:1}
		.st2 {fill:#00a9ce;fill-opacity:1;stroke:#00a9ce;stroke-opacity:1;stroke-width:0.23584905660377}
		.st3 {fill:#ffffff;stroke:none;stroke-linecap:butt}
		.st4 {fill:#00a9ce;font-family:Arial;font-size:0.666664em}
		.st5 {marker-end:url(#mrkr4-14);stroke:#56adbc;stroke-linecap:butt;stroke-width:1}
		.st6 {fill:#56adbc;fill-opacity:1;stroke:#56adbc;stroke-opacity:1;stroke-width:0.23584905660377}
		.st7 {fill:#00a9ce;font-family:Arial;font-size:0.75em}
		.st8 {fill:#ffffff;stroke:none;stroke-linecap:butt;stroke-width:7.2}
		.st9 {fill:#00a9ce;stroke:#feffff;stroke-width:1}
		.st10 {fill:#feffff;font-family:Arial;font-size:0.833336em}
		.st11 {font-size:1em}
		.st12 {stroke:#00a9ce;stroke-dasharray:8,4;stroke-linecap:butt;stroke-width:1}
		.st13 {stroke:#0077c8;stroke-dasharray:2,1;stroke-linecap:butt;stroke-width:1}
		.st14 {fill:#0077c8;font-family:Arial;font-size:0.833336em}
		.st15 {fill:none;fill-rule:evenodd;font-size:12px;overflow:visible;stroke-linecap:square;stroke-miterlimit:3}
	]]>
	</style>

	<defs id="Markers">
		<g id="lend4">
			<path d="M 2 1 L 0 0 L 2 -1 L 2 1 " style="stroke:none"/>
		</g>
		<marker id="mrkr4-6" class="st2" refX="-8.48" orient="auto" markerUnits="strokeWidth" overflow="visible">
			<use xlink:href="#lend4" transform="scale(-4.24,-4.24) "/>
		</marker>
		<marker id="mrkr4-14" class="st6" refX="-8.48" orient="auto" markerUnits="strokeWidth" overflow="visible">
			<use xlink:href="#lend4" transform="scale(-4.24,-4.24) "/>
		</marker>
	</defs>
	<g>
		<title>Page-1</title>
		<g id="shape66-1" transform="translate(446.743,-453.387)">
			<title>Message.45</title>
			<desc>LWM2M_CARRIER_EVENT_LTE_LINK_DOWN</desc>
			<path d="M0 586.67 L-199.72 587.17" class="st1"/>
			<rect x="-190.341" y="582.129" width="172.483" height="9.59985" class="st3"/>
			<text x="-190.34" y="589.33" class="st4">LWM2M_CARRIER_EVENT_LTE_LINK_DOWN</text>		</g>
		<g id="shape67-9" transform="translate(238.543,-413.689)">
			<title>Message.46</title>
			<desc>lte_lc_offline()</desc>
			<path d="M0 572.79 L-169.54 572.72" class="st5"/>
			<rect x="-117.021" y="567.356" width="56.0259" height="10.7998" class="st3"/>
			<text x="-117.02" y="575.46" class="st7">lte_lc_offline()</text>		</g>
		<g id="shape69-17" transform="translate(446.743,-297.779)">
			<title>Message.58</title>
			<desc>LWM2M_CARRIER_EVENT_BOOTSTRAPPED</desc>
			<path d="M0 586.78 L-201.11 587.07" class="st1"/>
			<rect x="-190.591" y="582.129" width="171.588" height="9.59985" class="st3"/>
			<text x="-190.59" y="589.33" class="st4">LWM2M_CARRIER_EVENT_BOOTSTRAPPED</text>		</g>
		<g id="shape70-24" transform="translate(446.743,-269.29)">
			<title>Message.60</title>
			<desc>LWM2M_CARRIER_EVENT_LTE_LINK_UP</desc>
			<path d="M0 586.64 L-201.27 587.2" class="st1"/>
			<rect x="-184.01" y="582.129" width="158.268" height="9.59985" class="st3"/>
			<text x="-184.01" y="589.33" class="st4">LWM2M_CARRIER_EVENT_LTE_LINK_UP</text>		</g>
		<g id="shape71-31" transform="translate(239.11,-239.89)">
			<title>Message.61</title>
			<desc>lte_lc_connect()</desc>
			<path d="M0 586.72 L-170.67 587.12" class="st5"/>
			<rect x="-121.341" y="581.529" width="63.5317" height="10.7998" class="st8"/>
			<text x="-121.34" y="589.63" class="st7">lte_lc_connect()</text>		</g>
		<g id="shape73-38" transform="translate(387.961,-67.6142)">
			<title>Rectangle.64</title>
			<desc>Connecting to the management server(s)</desc>
			<rect x="0" y="533.593" width="119.354" height="46.2495" class="st9"/>
			<text x="20.48" y="553.72" class="st10">Connecting to the <tspan x="9.38" dy="1.2em" class="st11">management server(s)</tspan></text>		</g>
		<g id="shape74-42" transform="translate(446.743,-27.9063)">
			<title>Message.66</title>
			<desc>LWM2M_CARRIER_EVENT_REGISTERED</desc>
			<path d="M0 586.2 L-202.6 587.6" class="st1"/>
			<rect x="-184.445" y="582.129" width="157.807" height="9.59985" class="st8"/>
			<text x="-184.45" y="589.33" class="st4">LWM2M_CARRIER_EVENT_REGISTERED</text>		</g>
		<g id="shape75-49" transform="translate(239.11,-510.173)">
			<title>Message</title>
			<desc>lwm2m_carrier_run()</desc>
			<path d="M0 573.11 L199.15 572.43" class="st1"/>
			<rect x="62.3099" y="567.356" width="83.0127" height="10.7998" class="st3"/>
			<text x="62.31" y="575.46" class="st7">lwm2m_carrier_run()</text>		</g>
		<g id="shape78-56" transform="translate(1,-542.417)">
			<title>Rectangle.78</title>
			<desc>LTE link controller</desc>
			<rect x="0" y="544.409" width="119.354" height="35.4331" class="st9"/>
			<text x="19.66" y="565.13" class="st10">LTE link controller</text>		</g>
		<g id="shape79-59" transform="translate(66.2715,-542.417)">
			<title>Dynamic connector</title>
			<path d="M-5.59 579.84 L-8.58 1121.26" class="st12"/>
		</g>
		<g id="shape81-62" transform="translate(178.867,-543.409)">
			<title>Rectangle.81</title>
			<desc>Application</desc>
			<rect x="0" y="544.409" width="119.354" height="35.4331" class="st9"/>
			<text x="35.22" y="565.13" class="st10">Application</text>		</g>
		<g id="shape82-65" transform="translate(244.138,-543.409)">
			<title>Dynamic connector.82</title>
			<path d="M-5.59 579.84 L-8.58 1121.26" class="st12"/>
		</g>
		<g id="shape72-68" transform="translate(179.284,-48.3386)">
			<title>Single Snip Corner Rectangle</title>
			<desc>Application can now use the LTE link without further interrup...</desc>
			<path d="M0 579.84 L119.35 579.84 L119.35 516.4 L106.71 503.76 L0 503.76 L0 579.84 Z" class="st9"/>
			<text x="5.75" y="520.8" class="st10">Application can now use <tspan x="16.04" dy="1.2em" class="st11">the LTE link without </tspan><tspan
						x="4.93" dy="1.2em" class="st11">further interruptions from </tspan><tspan x="18.28" dy="1.2em"
						class="st11">the LwM2M carrier </tspan><tspan x="46.06" dy="1.2em" class="st11">library</tspan></text>		</g>
		<g id="shape77-75" transform="translate(11.2516,-161.724)">
			<title>Sheet.77</title>
			<desc>Device is bootstrapped</desc>
			<path d="M0 579.84 L496.06 579.84" class="st13"/>
			<rect x="197.169" y="573.843" width="101.725" height="12.0001" class="st8"/>
			<text x="197.17" y="582.84" class="st14">Device is bootstrapped</text>		</g>
		<g id="shape76-80" transform="translate(7.07424,-489.268)">
			<title>Sheet.76</title>
			<desc>Device is not bootstrapped</desc>
			<path d="M0 579.84 L499.49 579.84" class="st13"/>
			<rect x="190.545" y="573.843" width="118.405" height="12.0001" class="st8"/>
			<text x="190.54" y="582.84" class="st14">Device is not bootstrapped</text>		</g>
		<g id="shape83-85" transform="translate(387.066,-543.409)">
			<title>Rectangle.83</title>
			<desc>LwM2M carrier library</desc>
			<rect x="0" y="544.409" width="119.354" height="35.4331" class="st9"/>
			<text x="11.62" y="565.13" class="st10">LwM2M carrier library</text>		</g>
		<g id="shape84-88" transform="translate(440.013,-543.409)">
			<title>Dynamic connector.84</title>
			<path d="M6.73 579.84 L7.44 1121.4" class="st12"/>
		</g>
		<g id="shape68-91" transform="translate(387.215,-338.584)">
			<title>Rectangle</title>
			<desc>Write bootstrap server keys to modem</desc>
			<rect x="0" y="533.593" width="119.354" height="46.2495" class="st9"/>
			<text x="10.49" y="553.72" class="st10">Write bootstrap server <tspan x="25.78" dy="1.2em" class="st11">keys to modem</tspan></text>		</g>
	</g>
</svg>
