<?xml version="1.0" encoding="UTF-8" standalone="no"?>
<!DOCTYPE svg PUBLIC "-//W3C//DTD SVG 1.1//EN" "http://www.w3.org/Graphics/SVG/1.1/DTD/svg11.dtd">
<!-- Generated by Microsoft Visio, SVG Export lwm2m_carrier_msc_bootstrap.svg Page-1 -->
<svg xmlns="http://www.w3.org/2000/svg" xmlns:xlink="http://www.w3.org/1999/xlink" xmlns:ev="http://www.w3.org/2001/xml-events"
		width="7.05993in" height="8.05731in" viewBox="0 0 508.315 580.126" xml:space="preserve" color-interpolation-filters="sRGB"
		class="st15">
	<style type="text/css">
	<![CDATA[
		.st1 {stroke:#00a9ce;stroke-dasharray:8,4;stroke-linecap:butt;stroke-width:1}
		.st2 {fill:none;stroke:none;stroke-width:1}
		.st3 {fill:#00a9ce;font-family:Arial;font-size:0.666664em}
		.st4 {fill:#00a9ce;stroke:none;stroke-width:1}
		.st5 {fill:#feffff;font-family:Arial;font-size:0.833336em}
		.st6 {fill:#00a9ce;stroke:#feffff;stroke-width:1}
		.st7 {font-size:1em}
		.st8 {stroke:#00a9ce;stroke-linecap:butt;stroke-width:1}
		.st9 {marker-end:url(#mrkr4-49);stroke:#00a9ce;stroke-linecap:butt;stroke-width:1}
		.st10 {fill:#00a9ce;fill-opacity:1;stroke:#00a9ce;stroke-opacity:1;stroke-width:0.28409090909091}
		.st11 {fill:#0077c8;font-family:Arial;font-size:0.833336em}
		.st12 {stroke:#0077c8;stroke-dasharray:2,1;stroke-linecap:butt;stroke-width:1}
		.st13 {marker-start:url(#mrkr4-64);stroke:#00a9ce;stroke-linecap:butt;stroke-width:1}
		.st14 {fill:#00a9ce;font-family:Arial;font-size:0.75em}
		.st15 {fill:none;fill-rule:evenodd;font-size:12px;overflow:visible;stroke-linecap:square;stroke-miterlimit:3}
	]]>
	</style>

	<defs id="Markers">
		<g id="lend4">
			<path d="M 2 1 L 0 0 L 2 -1 L 2 1 " style="stroke:none"/>
		</g>
		<marker id="mrkr4-49" class="st10" refX="-7.04" orient="auto" markerUnits="strokeWidth" overflow="visible">
			<use xlink:href="#lend4" transform="scale(-3.52,-3.52) "/>
		</marker>
		<marker id="mrkr4-64" class="st10" refX="6.68" orient="auto" markerUnits="strokeWidth" overflow="visible">
			<use xlink:href="#lend4" transform="scale(3.52) "/>
		</marker>
	</defs>
	<g>
		<title>Page-1</title>
		<g id="shape82-1" transform="translate(230.697,-543.693)">
			<title>Dynamic connector.82</title>
			<path d="M7.09 580.13 L7.09 630.41" class="st1"/>
		</g>
		<g id="shape89-4" transform="translate(286.165,-504.433)">
			<title>Sheet.89</title>
			<desc>lwm2m_carrier_run()</desc>
			<rect x="0" y="557.449" width="83.3386" height="22.6772" class="st2"/>
			<text x="4.77" y="571.79" class="st3">lwm2m_carrier_run()</text>		</g>
		<g id="shape78-7" transform="translate(1,-542.701)">
			<title>Rectangle.78</title>
			<desc>LTE link controller</desc>
			<rect x="0" y="544.693" width="119.354" height="35.4331" class="st4"/>
			<text x="19.66" y="565.41" class="st5">LTE link controller</text>		</g>
		<g id="shape79-10" transform="translate(66.2715,-542.701)">
			<title>Dynamic connector</title>
			<path d="M-5.59 580.13 L-8.58 1121.54" class="st1"/>
		</g>
		<g id="shape81-13" transform="translate(178.867,-543.693)">
			<title>Rectangle.81</title>
			<desc>Application</desc>
			<rect x="0" y="544.693" width="119.354" height="35.4331" class="st6"/>
			<text x="35.22" y="565.41" class="st5">Application</text>		</g>
		<g id="shape83-16" transform="translate(387.066,-543.693)">
			<title>Rectangle.83</title>
			<desc>LwM2M carrier library</desc>
			<rect x="0" y="544.693" width="119.354" height="35.4331" class="st6"/>
			<text x="11.62" y="565.41" class="st5">LwM2M carrier library</text>		</g>
		<g id="shape84-19" transform="translate(440.013,-543.693)">
			<title>Dynamic connector.84</title>
			<path d="M6.73 580.13 L7.44 1121.69" class="st1"/>
		</g>
		<g id="shape68-22" transform="translate(387.215,-338.867)">
			<title>Rectangle</title>
			<desc>Write bootstrap server keys to modem</desc>
			<rect x="0" y="533.877" width="119.354" height="46.2495" class="st6"/>
			<text x="10.49" y="554" class="st5">Write bootstrap server <tspan x="25.78" dy="1.2em" class="st7">keys to modem</tspan></text>		</g>
		<g id="shape85-26" transform="translate(178.107,-543.693)">
			<title>Rectangle.85</title>
			<desc>Application</desc>
			<rect x="0" y="544.693" width="119.354" height="35.4331" class="st4"/>
			<text x="35.22" y="565.41" class="st5">Application</text>		</g>
		<g id="shape86-29" transform="translate(175.883,-49.6142)">
			<title>Single Snip Corner Rectangle.86</title>
			<desc>LTE link available without interruptions from the library</desc>
			<path d="M0 580.13 L119.35 580.13 L119.35 516.69 L106.71 504.05 L0 504.05 L0 580.13 Z" class="st4"/>
			<text x="20.49" y="533.09" class="st5">LTE link available <tspan x="14.93" dy="1.2em" class="st7">without interruptions </tspan><tspan
						x="26.33" dy="1.2em" class="st7">from the library</tspan></text>		</g>
		<g id="shape87-34" transform="translate(387.812,-543.693)">
			<title>Rectangle.87</title>
			<desc>LwM2M carrier library</desc>
			<rect x="0" y="544.693" width="119.354" height="35.4331" class="st4"/>
			<text x="11.62" y="565.41" class="st5">LwM2M carrier library</text>		</g>
		<g id="shape88-37" transform="translate(387.961,-338.867)">
			<title>Rectangle.88</title>
			<desc>Write bootstrap server keys to modem</desc>
			<rect x="0" y="533.877" width="119.354" height="46.2495" class="st4"/>
			<text x="10.49" y="554" class="st5">Write bootstrap server <tspan x="25.78" dy="1.2em" class="st7">keys to modem</tspan></text>		</g>
		<g id="shape95-41" transform="translate(237.784,-515.205)">
			<title>Sheet.95</title>
			<path d="M0 580.13 L52.54 580.13" class="st8"/>
		</g>
		<g id="shape96-44" transform="translate(365.002,-515.205)">
			<title>Sheet.96</title>
			<path d="M0 580.13 L74.74 580.13" class="st9"/>
		</g>
		<g id="shape93-50" transform="translate(205.094,-485.536)">
			<title>Sheet.93</title>
			<desc>Device is not bootstrapped</desc>
			<rect x="0" y="572.249" width="130.081" height="7.87714" class="st2"/>
			<text x="5.84" y="579.79" class="st11">Device is not bootstrapped</text>		</g>
		<g id="shape76-53" transform="translate(7.07424,-489.475)">
			<title>Sheet.76</title>
			<path d="M0 580.13 L203.59 580.13" class="st12"/>
		</g>
		<g id="shape97-56" transform="translate(329.819,-488.963)">
			<title>Sheet.97</title>
			<path d="M0 580.13 L153.07 580.13" class="st12"/>
		</g>
		<g id="shape98-59" transform="translate(237.353,-442.307)">
			<title>Sheet.98</title>
			<path d="M6.68 580.13 L7.04 580.13 L17.35 580.13" class="st13"/>
		</g>
		<g id="shape100-65" transform="translate(249.596,-432.811)">
			<title>Sheet.100</title>
			<desc>LWM2M_CARRIER_EVENT_LTE_LINK_DOWN</desc>
			<rect x="0" y="561.134" width="183.687" height="18.9921" class="st2"/>
			<text x="5.6" y="573.93" class="st3">LWM2M_CARRIER_EVENT_LTE_LINK_DOWN</text>		</g>
		<g id="shape102-68" transform="translate(428.687,-441.882)">
			<title>Sheet.102</title>
			<path d="M0 580.13 L18.19 580.13" class="st8"/>
		</g>
		<g id="shape103-71" transform="translate(59.9445,-422.228)">
			<title>Sheet.103</title>
			<path d="M6.68 580.13 L7.04 580.13 L51.94 580.13" class="st13"/>
		</g>
		<g id="shape104-76" transform="translate(107.299,-415.85)">
			<title>Sheet.104</title>
			<desc>lte_lc_offline()</desc>
			<rect x="0" y="567.37" width="65.1969" height="12.7559" class="st2"/>
			<text x="4.59" y="577.05" class="st14">lte_lc_offline()</text>		</g>
		<g id="shape106-79" transform="translate(171.079,-421.972)">
			<title>Sheet.106</title>
			<path d="M0 580.13 L66.11 580.13" class="st8"/>
		</g>
		<g id="shape110-82" transform="translate(236.103,-286.591)">
			<title>Sheet.110</title>
			<path d="M6.68 580.13 L7.04 580.13 L16.17 580.13" class="st13"/>
		</g>
		<g id="shape111-87" transform="translate(426.262,-286.165)">
			<title>Sheet.111</title>
			<path d="M0 580.13 L20.82 580.13" class="st8"/>
		</g>
		<g id="shape112-90" transform="translate(247.614,-277.094)">
			<title>Sheet.112</title>
			<desc>LWM2M_CARRIER_EVENT_BOOTSTRAPPED</desc>
			<rect x="0" y="561.134" width="183.687" height="18.9921" class="st2"/>
			<text x="6.05" y="573.93" class="st3">LWM2M_CARRIER_EVENT_BOOTSTRAPPED</text>		</g>
		<g id="shape113-93" transform="translate(235.858,-255.976)">
			<title>Sheet.113</title>
			<path d="M6.68 580.13 L7.04 580.13 L20.26 580.13" class="st13"/>
		</g>
		<g id="shape114-98" transform="translate(417.693,-255.551)">
			<title>Sheet.114</title>
			<path d="M0 580.13 L29.43 580.13" class="st8"/>
		</g>
		<g id="shape115-101" transform="translate(253.913,-246.48)">
			<title>Sheet.115</title>
			<desc>LWM2M_CARRIER_EVENT_LTE_LINK_UP</desc>
			<rect x="0" y="561.134" width="166.679" height="18.9921" class="st2"/>
			<text x="4.21" y="573.93" class="st3">LWM2M_CARRIER_EVENT_LTE_LINK_UP</text>		</g>
		<g id="shape117-104" transform="translate(57.6998,-203.252)">
			<title>Sheet.117</title>
			<path d="M6.68 580.13 L7.04 580.13 L51.94 580.13" class="st13"/>
		</g>
		<g id="shape118-109" transform="translate(105.575,-196.874)">
			<title>Sheet.118</title>
			<desc>lte_lc_connect()</desc>
			<rect x="0" y="567.37" width="72.59" height="12.7559" class="st2"/>
			<text x="4.53" y="577.05" class="st14">lte_lc_connect()</text>		</g>
		<g id="shape119-112" transform="translate(175.023,-202.996)">
			<title>Sheet.119</title>
			<path d="M0 580.13 L60.41 580.13" class="st8"/>
		</g>
		<g id="shape120-115" transform="translate(198.717,-156.283)">
			<title>Sheet.120</title>
			<desc>Device is bootstrapped</desc>
			<rect x="0" y="569.607" width="114.803" height="10.5186" class="st2"/>
			<text x="6.54" y="578.47" class="st11">Device is bootstrapped</text>		</g>
		<g id="shape121-118" transform="translate(11.6299,-161.542)">
			<title>Sheet.121</title>
			<path d="M0 580.13 L192.73 580.13" class="st12"/>
		</g>
		<g id="shape122-121" transform="translate(309.015,-161.036)">
			<title>Sheet.122</title>
			<path d="M0 580.13 L174.89 580.13" class="st12"/>
		</g>
		<g id="shape73-124" transform="translate(387.961,-67.8976)">
			<title>Rectangle.64</title>
			<desc>Connecting to one or more management servers</desc>
			<rect x="0" y="533.877" width="119.354" height="46.2495" class="st4"/>
			<text x="13.26" y="548" class="st5">Connecting to one or <tspan x="17.71" dy="1.2em" class="st7">more management </tspan><tspan
						x="43.29" dy="1.2em" class="st7">servers</tspan></text>		</g>
		<g id="shape123-129" transform="translate(233.604,-18.8583)">
			<title>Sheet.123</title>
			<path d="M6.68 580.13 L7.04 580.13 L21.12 580.13" class="st13"/>
		</g>
		<g id="shape124-134" transform="translate(416.295,-18.4331)">
			<title>Sheet.124</title>
			<path d="M0 580.13 L29.43 580.13" class="st8"/>
		</g>
		<g id="shape125-137" transform="translate(252.515,-9.36221)">
			<title>Sheet.125</title>
			<desc>LWM2M_CARRIER_EVENT_REGISTERED</desc>
			<rect x="0" y="561.134" width="166.679" height="18.9921" class="st2"/>
			<text x="4.44" y="573.93" class="st3">LWM2M_CARRIER_EVENT_REGISTERED</text>		</g>
		<g id="shape126-140" transform="translate(243.504,-484.591)">
			<title>Dynamic connector.126</title>
			<path d="M-5.81 580.13 L-8.36 897.92" class="st1"/>
		</g>
		<g id="shape127-143" transform="translate(241.236,-156.283)">
			<title>Dynamic connector.127</title>
			<path d="M-6.38 580.13 L-7.8 735.41" class="st1"/>
		</g>
	</g>
</svg>
