<?xml version="1.0" encoding="UTF-8" standalone="no"?>
<!DOCTYPE svg PUBLIC "-//W3C//DTD SVG 1.1//EN" "http://www.w3.org/Graphics/SVG/1.1/DTD/svg11.dtd">
<!-- Generated by Microsoft Visio, SVG Export lwm2m_carrier_overview.svg Page-1 -->
<svg xmlns="http://www.w3.org/2000/svg" xmlns:xlink="http://www.w3.org/1999/xlink" xmlns:ev="http://www.w3.org/2001/xml-events"
		width="6.17706in" height="4.94904in" viewBox="0 0 444.748 356.331" xml:space="preserve" color-interpolation-filters="sRGB"
		class="st19">
	<style type="text/css">
	<![CDATA[
		.st1 {fill:#0033a0;stroke:#feffff;stroke-width:1}
		.st2 {fill:#feffff;font-family:Arial;font-size:1.00001em}
		.st3 {font-size:0.916665em}
		.st4 {fill:#00a9ce;stroke:#feffff;stroke-width:1}
		.st5 {fill:#feffff;font-family:Arial;font-size:0.916672em}
		.st6 {font-size:1em}
		.st7 {fill:#0077c8;stroke:none;stroke-width:1}
		.st8 {fill:#ffffff;font-family:Arial;font-size:0.916672em}
		.st9 {fill:#00a9ce;stroke:none;stroke-width:1}
		.st10 {marker-end:url(#mrkr4-30);marker-start:url(#mrkr4-28);stroke:#00a9ce;stroke-dasharray:8,4;stroke-linecap:butt;stroke-width:1}
		.st11 {fill:#00a9ce;fill-opacity:1;stroke:#00a9ce;stroke-opacity:1;stroke-width:0.28409090909091}
		.st12 {marker-end:url(#mrkr4-30);marker-start:url(#mrkr4-28);stroke:#00a9ce;stroke-linecap:butt;stroke-width:1}
		.st13 {fill:#0077c8;stroke:#feffff;stroke-width:1}
		.st14 {fill:#0033a0;stroke:none;stroke-width:1}
		.st15 {font-size:1.09091em}
		.st16 {marker-end:url(#mrkr13-66);stroke:#00a9ce;stroke-linecap:butt;stroke-width:1.5}
		.st17 {fill:#00a9ce;fill-opacity:1;stroke:#00a9ce;stroke-opacity:1;stroke-width:0.37313432835821}
		.st18 {fill:#008bab;font-family:Arial;font-size:0.666664em}
		.st19 {fill:none;fill-rule:evenodd;font-size:12px;overflow:visible;stroke-linecap:square;stroke-miterlimit:3}
	]]>
	</style>

	<defs id="Markers">
		<g id="lend4">
			<path d="M 2 1 L 0 0 L 2 -1 L 2 1 " style="stroke:none"/>
		</g>
		<marker id="mrkr4-28" class="st11" refX="6.68" orient="auto" markerUnits="strokeWidth" overflow="visible">
			<use xlink:href="#lend4" transform="scale(3.52) "/>
		</marker>
		<marker id="mrkr4-30" class="st11" refX="-7.04" orient="auto" markerUnits="strokeWidth" overflow="visible">
			<use xlink:href="#lend4" transform="scale(-3.52,-3.52) "/>
		</marker>
		<g id="lend13">
			<path d="M 3 1 L 0 0 L 3 -1 L 3 1 " style="stroke:none"/>
		</g>
		<marker id="mrkr13-66" class="st17" refX="-8.04" orient="auto" markerUnits="strokeWidth" overflow="visible">
			<use xlink:href="#lend13" transform="scale(-2.68,-2.68) "/>
		</marker>
	</defs>
	<g>
		<title>Page-1</title>
		<g id="shape5-1" transform="translate(244.614,-288.204)">
			<title>Cloud.1006</title>
			<desc>Carrier A device management</desc>
			<path d="M36.33 298.44 A15.4792 17.2524 0 0 1 63.64 298.22 A11.3615 12.663 0 0 1 83.18 302.41 A11.4263 12.7352 0 0 1
						 96.67 308.83 A8.61941 9.60678 0 0 1 92.09 320.48 A9.73396 10.849 0 0 1 84.62 340.51 A17.5283 19.5362 0 0
						 1 60.22 350.58 A22.076 24.6048 0 0 1 29.58 348.14 A12.1488 13.5405 0 0 1 8.21 337.22 A8.77877 9.7844 0 0
						 1 8.25 317.69 A7.51133 8.37178 0 1 1 14.31 302.37 A11.7753 13.1242 0 0 1 36.33 298.44 Z" class="st1"/>
			<text x="24.89" y="313.17" class="st2">Carrier A <tspan x="33" dy="1.227em" class="st3">device </tspan><tspan x="16.79"
						dy="1.2em" class="st3">management</tspan></text>		</g>
		<g id="shape6-6" transform="translate(338.866,-248.519)">
			<title>Cloud.1007</title>
			<desc>Carrier B device management</desc>
			<path d="M38.96 298.44 A16.6009 17.2524 0 0 1 68.25 298.22 A12.1848 12.663 0 0 1 89.2 302.41 A12.2543 12.7352 0 0 1 103.67
						 308.83 A9.24401 9.60678 0 0 1 98.76 320.48 A10.4393 10.849 0 0 1 90.75 340.51 A18.7985 19.5362 0 0 1 64.58
						 350.58 A23.6757 24.6048 0 0 1 31.73 348.14 A13.0292 13.5405 0 0 1 8.81 337.22 A9.41491 9.7844 0 0 1 8.85
						 317.69 A8.05564 8.37178 0 1 1 15.35 302.37 A12.6286 13.1242 0 0 1 38.96 298.44 Z" class="st4"/>
			<text x="30.44" y="319.47" class="st5">Carrier B <tspan x="2.91" dy="1.2em" class="st6">device management</tspan></text>		</g>
		<g id="shape7-10" transform="translate(345.953,-179.397)">
			<title>Cloud.1008</title>
			<desc>Carrier C device management</desc>
			<path d="M36.33 300.78 A15.4792 16.5571 0 0 1 63.64 300.56 A11.3615 12.1526 0 0 1 83.18 304.58 A11.4263 12.222 0 0 1
						 96.67 310.74 A8.61941 9.21962 0 0 1 92.09 321.92 A9.73396 10.4118 0 0 1 84.62 341.14 A17.5283 18.7489 0
						 0 1 60.22 350.81 A22.076 23.6132 0 0 1 29.58 348.47 A12.1488 12.9948 0 0 1 8.21 337.99 A8.77877 9.39007
						 0 0 1 8.25 319.25 A7.51133 8.03438 0 1 1 14.31 304.55 A11.7753 12.5953 0 0 1 36.33 300.78 Z" class="st4"/>
			<text x="26.59" y="314.22" class="st5">Carrier C <tspan x="33" dy="1.2em" class="st6">device </tspan><tspan x="16.79"
						dy="1.2em" class="st6">management</tspan></text>		</g>
		<g id="shape8-15" transform="translate(4.02362,-82.0709)">
			<title>Nordic Blue.1009</title>
			<desc>Application</desc>
			<rect x="0" y="263.706" width="119.055" height="92.6245" class="st7"/>
			<text x="32.62" y="313.32" class="st8">Application </text>		</g>
		<g id="shape9-18" transform="translate(272.252,-73.6745)">
			<title>Nordic Blue.1010</title>
			<desc>LwM2M carrier library</desc>
			<rect x="0" y="255.31" width="79.3701" height="101.021" class="st9"/>
			<text x="20.43" y="302.52" class="st8">LwM2M <tspan x="7.6" dy="1.2em" class="st6">carrier library</tspan></text>		</g>
		<g id="shape10-22" transform="translate(331.307,-174.695)">
			<title>Dynamic connector.1011</title>
			<path d="M0 349.65 L0 349.29 L0 319.42 L8.68 319.42" class="st10"/>
		</g>
		<g id="shape11-31" transform="translate(313.354,-174.695)">
			<title>Dynamic connector.1012</title>
			<path d="M0 349.65 L0 349.29 L0 248.94 L19.62 248.94" class="st10"/>
		</g>
		<g id="shape12-38" transform="translate(300.598,-288.204)">
			<title>Dynamic connector.1013</title>
			<path d="M-7.09 363.01 L-7.09 363.37 L-7.09 463.29" class="st12"/>
		</g>
		<g id="shape13-45" transform="translate(1,-246.27)">
			<title>Cloud.1014</title>
			<desc>Other application dependent network users (for example, nRF C...</desc>
			<path d="M50.54 269.22 A21.5363 25.9638 0 0 1 88.54 268.88 A15.8073 19.0569 0 0 1 115.72 275.18 A15.8975 19.1657 0 0
						 1 134.5 284.84 A11.9922 14.4576 0 0 1 128.12 302.38 A13.5429 16.327 0 0 1 117.73 332.52 A24.3872 29.4007
						 0 0 1 83.78 347.68 A30.7144 37.0286 0 0 1 41.16 344 A16.9027 20.3776 0 0 1 11.43 327.57 A12.2139 14.7249
						 0 0 1 11.48 298.18 A10.4506 12.599 0 1 1 19.91 275.13 A16.3831 19.7511 0 0 1 50.54 269.22 Z" class="st13"/>
			<text x="26.45" y="295.92" class="st5">Other application <tspan x="6.27" dy="1.2em" class="st6">dependent network users </tspan><tspan
						x="6.29" dy="1.2em" class="st6">(for example, nRF Cloud)</tspan></text>		</g>
		<g id="shape14-50" transform="translate(56.7166,-174.695)">
			<title>Dynamic connector.1015</title>
			<path d="M6.88 349.65 L6.88 349.29 L7.29 291.78" class="st12"/>
		</g>
		<g id="shape15-57" transform="translate(4.02362,-1)">
			<title>Nordic Blue.1016</title>
			<desc>Modem (Operating in Carrier A network)</desc>
			<rect x="0" y="329.011" width="347.598" height="27.3201" class="st14"/>
			<text x="73.85" y="346.27" class="st8">Modem (Operating in <tspan class="st15">Carrier A </tspan>network)</text>		</g>
		<g id="shape16-61" transform="translate(272.252,-138.897)">
			<title>Dynamic connector.1027</title>
			<desc>Events (Action request and indications)</desc>
			<path d="M0 363 L-137.11 363.77" class="st16"/>
			<text x="-140.72" y="351.2" class="st18">Events  (Action request and indications)  </text>		</g>
		<g id="shape17-68" transform="translate(123.079,-107.583)">
			<title>Dynamic connector.1028</title>
			<desc>Reports (location, battery and other parameters)</desc>
			<path d="M0 349.53 L137.11 349.01" class="st16"/>
			<text x="33.02" y="358.45" class="st18">Reports (location, battery  <tspan x="38.13" dy="1.2em" class="st6">and other parameters)</tspan></text>		</g>
		<g id="shape18-75" transform="translate(318.953,-73.6745)">
			<title>Dynamic connector.1029</title>
			<path d="M-7.04 363.01 L-7.04 363.37 L-7.14 394.65" class="st12"/>
		</g>
		<g id="shape19-82" transform="translate(70.9213,-28.3201)">
			<title>Dynamic connector.1030</title>
			<path d="M-6.87 349.65 L-6.88 349.29 L-7.3 309.62" class="st12"/>
		</g>
	</g>
</svg>
