<?xml version="1.0" encoding="UTF-8" standalone="no"?>
<!DOCTYPE svg PUBLIC "-//W3C//DTD SVG 1.1//EN" "http://www.w3.org/Graphics/SVG/1.1/DTD/svg11.dtd">
<!-- Generated by Microsoft Visio, SVG Export lwm2m_carrier_msc_fota_success.svg Page-1 -->
<svg xmlns="http://www.w3.org/2000/svg" xmlns:xlink="http://www.w3.org/1999/xlink" xmlns:ev="http://www.w3.org/2001/xml-events"
		width="7.13615in" height="8.09864in" viewBox="0 0 513.803 583.102" xml:space="preserve" color-interpolation-filters="sRGB"
		class="st14">
	<style type="text/css">
	<![CDATA[
		.st1 {fill:#00a9ce;stroke:none;stroke-width:1}
		.st2 {fill:#feffff;font-family:Arial;font-size:0.833336em}
		.st3 {stroke:#00a9ce;stroke-dasharray:8,4;stroke-linecap:butt;stroke-width:1}
		.st4 {font-size:1em}
		.st5 {fill:none;stroke:none;stroke-width:1}
		.st6 {fill:#0077c8;font-family:Arial;font-size:0.833336em}
		.st7 {stroke:#0077c8;stroke-dasharray:2,1;stroke-linecap:butt;stroke-width:1}
		.st8 {marker-start:url(#mrkr4-44);stroke:#00a9ce;stroke-linecap:butt;stroke-width:1}
		.st9 {fill:#00a9ce;fill-opacity:1;stroke:#00a9ce;stroke-opacity:1;stroke-width:0.28409090909091}
		.st10 {fill:#00a9ce;font-family:Arial;font-size:0.666664em}
		.st11 {stroke:#00a9ce;stroke-linecap:butt;stroke-width:1}
		.st12 {marker-end:url(#mrkr4-70);stroke:#00a9ce;stroke-dasharray:8,4;stroke-linecap:butt;stroke-width:1}
		.st13 {fill:#00a9ce;font-family:Arial;font-size:0.75em}
		.st14 {fill:none;fill-rule:evenodd;font-size:12px;overflow:visible;stroke-linecap:square;stroke-miterlimit:3}
	]]>
	</style>

	<defs id="Markers">
		<g id="lend4">
			<path d="M 2 1 L 0 0 L 2 -1 L 2 1 " style="stroke:none"/>
		</g>
		<marker id="mrkr4-44" class="st9" refX="6.68" orient="auto" markerUnits="strokeWidth" overflow="visible">
			<use xlink:href="#lend4" transform="scale(3.52) "/>
		</marker>
		<marker id="mrkr4-70" class="st9" refX="-7.04" orient="auto" markerUnits="strokeWidth" overflow="visible">
			<use xlink:href="#lend4" transform="scale(-3.52,-3.52) "/>
		</marker>
	</defs>
	<g>
		<title>Page-1</title>
		<g id="shape80-1" transform="translate(1,-543.879)">
			<title>Rectangle.80</title>
			<desc>LTE link controller</desc>
			<rect x="0" y="547.669" width="116.519" height="35.4331" class="st1"/>
			<text x="18.24" y="568.39" class="st2">LTE link controller</text>		</g>
		<g id="shape81-4" transform="translate(52.1728,-543.879)">
			<title>Dynamic connector</title>
			<path d="M7.09 583.1 L7.09 1125.98" class="st3"/>
		</g>
		<g id="shape82-7" transform="translate(191.339,-543.879)">
			<title>Rectangle.82</title>
			<desc>Application</desc>
			<rect x="0" y="547.669" width="116.519" height="35.4331" class="st1"/>
			<text x="33.8" y="568.39" class="st2">Application</text>		</g>
		<g id="shape83-10" transform="translate(242.586,-543.879)">
			<title>Dynamic connector.83</title>
			<path d="M7.01 583.1 L7.16 616.87" class="st3"/>
		</g>
		<g id="shape77-13" transform="translate(189.504,-319.898)">
			<title>Rectangle.1003</title>
			<desc>Application gets ready to reboot</desc>
			<rect x="0" y="547.669" width="116.519" height="35.4331" class="st1"/>
			<text x="9.06" y="562.39" class="st2">Application gets ready <tspan x="38.52" dy="1.2em" class="st4">to reboot</tspan></text>		</g>
		<g id="shape84-17" transform="translate(396.284,-546.669)">
			<title>Rectangle.84</title>
			<desc>LwM2M carrier library</desc>
			<rect x="0" y="547.669" width="116.519" height="35.4331" class="st1"/>
			<text x="10.2" y="568.39" class="st2">LwM2M carrier library</text>		</g>
		<g id="shape85-20" transform="translate(447.457,-546.669)">
			<title>Dynamic connector.85</title>
			<path d="M7.09 583.1 L7.09 1125.98" class="st3"/>
		</g>
		<g id="shape69-23" transform="translate(396.284,-396.955)">
			<title>Rectangle</title>
			<desc>Modem firmware is downloaded to device</desc>
			<rect x="0" y="536.853" width="116.519" height="46.2495" class="st1"/>
			<text x="16.03" y="556.98" class="st2">Modem firmware is <tspan x="9.89" dy="1.2em" class="st4">downloaded to device</tspan></text>		</g>
		<g id="shape79-27" transform="translate(396.284,-170.557)">
			<title>Rectangle.1005</title>
			<desc>Device reboot</desc>
			<rect x="0" y="547.669" width="116.519" height="35.4331" class="st1"/>
			<text x="27.41" y="568.39" class="st2">Device reboot</text>		</g>
		<g id="shape86-30" transform="translate(157.585,-497.063)">
			<title>Sheet.86</title>
			<desc>Modem update initiated by carrier’s LwM2M server</desc>
			<rect x="0" y="570.052" width="238.699" height="13.0504" class="st5"/>
			<text x="7.36" y="580.18" class="st6">Modem update initiated by carrier’s LwM2M server</text>		</g>
		<g id="shape87-33" transform="translate(5.80613,-503.588)">
			<title>Sheet.87</title>
			<path d="M0 583.1 L156.92 583.1" class="st7"/>
		</g>
		<g id="shape88-36" transform="translate(392.153,-503.076)">
			<title>Sheet.88</title>
			<path d="M0 583.1 L120.65 583.1" class="st7"/>
		</g>
		<g id="shape89-39" transform="translate(249.011,-468.717)">
			<title>Sheet.89</title>
			<path d="M6.68 583.1 L7.04 583.1 L23.85 583.1" class="st8"/>
		</g>
		<g id="shape90-45" transform="translate(261.21,-459.22)">
			<title>Sheet.90</title>
			<desc>LWM2M_CARRIER_EVENT_FOTA_START</desc>
			<rect x="0" y="564.11" width="183.687" height="18.9921" class="st5"/>
			<text x="12.94" y="576.91" class="st10">LWM2M_CARRIER_EVENT_FOTA_START</text>		</g>
		<g id="shape91-48" transform="translate(432.015,-468.291)">
			<title>Sheet.91</title>
			<path d="M0 583.1 L22.53 583.1" class="st11"/>
		</g>
		<g id="shape92-51" transform="translate(247.997,-376.591)">
			<title>Sheet.92</title>
			<path d="M6.68 583.1 L7.04 583.1 L24.86 583.1" class="st8"/>
		</g>
		<g id="shape93-56" transform="translate(407.513,-375.964) rotate(-0.839578)">
			<title>Sheet.93</title>
			<path d="M0 583.1 L38.49 583.1" class="st11"/>
		</g>
		<g id="shape94-59" transform="translate(259.354,-366.53)">
			<title>Sheet.94</title>
			<desc>LWM2M_CARRIER_EVENT_REBOOT</desc>
			<rect x="0" y="564.11" width="170.864" height="18.9921" class="st5"/>
			<text x="15.64" y="576.01" class="st10">LWM2M_CARRIER_EVENT_REBOOT</text>		</g>
		<g id="shape95-62" transform="translate(247.054,-279.575)">
			<title>Sheet.95</title>
			<path d="M0 583.1 L82.8 583.1" class="st3"/>
		</g>
		<g id="shape96-65" transform="translate(362.567,-279.15)">
			<title>Sheet.96</title>
			<path d="M0 583.1 L84.94 583.1" class="st12"/>
		</g>
		<g id="shape97-71" transform="translate(325.716,-270.079)">
			<title>Sheet.97</title>
			<desc>Success</desc>
			<rect x="0" y="564.11" width="39.5749" height="18.9921" class="st5"/>
			<text x="4.67" y="576.91" class="st10">Success</text>		</g>
		<g id="shape99-74" transform="translate(246.359,-240.099)">
			<title>Sheet.99</title>
			<path d="M6.68 583.1 L7.04 583.1 L19.37 583.1" class="st8"/>
		</g>
		<g id="shape100-79" transform="translate(443.354,-240.099)">
			<title>Sheet.100</title>
			<path d="M0 583.1 L11.19 583.1" class="st11"/>
		</g>
		<g id="shape101-82" transform="translate(259.354,-230.039)">
			<title>Sheet.101</title>
			<desc>LWM2M_CARRIER_EVENT_LTE_POWER_OFF</desc>
			<rect x="0" y="564.11" width="190.52" height="18.9921" class="st5"/>
			<text x="7.47" y="576.01" class="st10">LWM2M_CARRIER_EVENT_LTE_POWER_OFF</text>		</g>
		<g id="shape102-85" transform="translate(59.2594,-204.031)">
			<title>Sheet.102</title>
			<path d="M6.68 583.1 L7.04 583.1 L55.58 583.1" class="st8"/>
		</g>
		<g id="shape103-90" transform="translate(110.494,-197.654)">
			<title>Sheet.103</title>
			<desc>lte_lc_power_off()</desc>
			<rect x="0" y="570.346" width="87.6629" height="12.7559" class="st5"/>
			<text x="8.06" y="580.02" class="st13">lte_lc_power_off()</text>		</g>
		<g id="shape104-93" transform="translate(193.095,-203.775)">
			<title>Sheet.104</title>
			<path d="M0 583.1 L52.62 583.1" class="st11"/>
		</g>
		<g id="shape105-96" transform="translate(155.965,-129.682)">
			<title>Sheet.105</title>
			<desc>New modem firmware is applied by Modem library</desc>
			<rect x="0" y="570.052" width="238.699" height="13.0504" class="st5"/>
			<text x="8.48" y="580.18" class="st6">New modem firmware is applied by Modem library</text>		</g>
		<g id="shape106-99" transform="translate(4.18633,-136.207)">
			<title>Sheet.106</title>
			<path d="M0 583.1 L156.92 583.1" class="st7"/>
		</g>
		<g id="shape107-102" transform="translate(390.533,-135.695)">
			<title>Sheet.107</title>
			<path d="M0 583.1 L120.65 583.1" class="st7"/>
		</g>
		<g id="shape108-105" transform="translate(244.623,-103.047)">
			<title>Sheet.108</title>
			<path d="M6.68 583.1 L7.04 583.1 L33.76 583.1" class="st8"/>
		</g>
		<g id="shape109-110" transform="translate(433.433,-103.047)">
			<title>Sheet.109</title>
			<path d="M0 583.1 L21.11 583.1" class="st11"/>
		</g>
		<g id="shape110-113" transform="translate(274.693,-93.5512)">
			<title>Sheet.110</title>
			<desc>LWM2M_CARRIER_EVENT_CERTS_INIT</desc>
			<rect x="0" y="564.11" width="162.992" height="18.9921" class="st5"/>
			<text x="5.26" y="576.01" class="st10">LWM2M_CARRIER_EVENT_CERTS_INIT</text>		</g>
		<g id="shape112-116" transform="translate(244.319,-76.5433)">
			<title>Sheet.112</title>
			<path d="M6.68 583.1 L7.04 583.1 L34.07 583.1" class="st8"/>
		</g>
		<g id="shape113-121" transform="translate(433.433,-76.5433)">
			<title>Sheet.113</title>
			<path d="M0 583.1 L21.11 583.1" class="st11"/>
		</g>
		<g id="shape114-124" transform="translate(274.693,-67.0472)">
			<title>Sheet.114</title>
			<desc>LWM2M_CARRIER_EVENT_LTE_READY</desc>
			<rect x="0" y="564.11" width="162.992" height="18.9921" class="st5"/>
			<text x="5.25" y="576.01" class="st10">LWM2M_CARRIER_EVENT_LTE_READY</text>		</g>
		<g id="shape116-127" transform="translate(243.994,-48.1968)">
			<title>Sheet.116</title>
			<path d="M6.68 583.1 L7.04 583.1 L34.39 583.1" class="st8"/>
		</g>
		<g id="shape117-132" transform="translate(438.239,-48.1968)">
			<title>Sheet.117</title>
			<path d="M0 583.1 L16.3 583.1" class="st11"/>
		</g>
		<g id="shape118-135" transform="translate(273.832,-38.331)">
			<title>Sheet.118</title>
			<desc>LWM2M_CARRIER_EVENT_REGISTERED</desc>
			<rect x="0" y="564.11" width="168.661" height="18.9921" class="st5"/>
			<text x="5.43" y="576.01" class="st10">LWM2M_CARRIER_EVENT_REGISTERED</text>		</g>
		<g id="shape119-138" transform="translate(255.63,-497.063)">
			<title>Dynamic connector.119</title>
			<path d="M-6.31 583.1 L-7.87 724.83" class="st3"/>
		</g>
		<g id="shape120-141" transform="translate(253.291,-319.898)">
			<title>Dynamic connector.120</title>
			<path d="M-5.53 583.1 L-8.65 760.27" class="st3"/>
		</g>
		<g id="shape121-144" transform="translate(251.307,-129.682)">
			<title>Dynamic connector.121</title>
			<path d="M-6.38 583.1 L-7.8 706.68" class="st3"/>
		</g>
	</g>
</svg>
