<?xml version="1.0" encoding="UTF-8" standalone="no"?>
<!DOCTYPE svg PUBLIC "-//W3C//DTD SVG 1.1//EN" "http://www.w3.org/Graphics/SVG/1.1/DTD/svg11.dtd">
<!-- Generated by Microsoft Visio, SVG Export lwm2m_carrier_msc_fota_success.svg Page-1 -->
<svg xmlns="http://www.w3.org/2000/svg" xmlns:xlink="http://www.w3.org/1999/xlink" xmlns:ev="http://www.w3.org/2001/xml-events"
		width="7.20142in" height="8.09864in" viewBox="0 0 518.502 583.102" xml:space="preserve" color-interpolation-filters="sRGB"
		class="st14">
	<style type="text/css">
	<![CDATA[
		.st1 {marker-end:url(#mrkr4-6);stroke:#00a9ce;stroke-linecap:butt;stroke-width:1}
		.st2 {fill:#00a9ce;fill-opacity:1;stroke:#00a9ce;stroke-opacity:1;stroke-width:0.23584905660377}
		.st3 {fill:#ffffff;stroke:none;stroke-linecap:butt}
		.st4 {fill:#00a9ce;font-family:Arial;font-size:0.666664em}
		.st5 {fill:#ffffff;stroke:none;stroke-linecap:butt;stroke-width:7.2}
		.st6 {fill:#00a9ce;font-family:Arial;font-size:0.75em}
		.st7 {marker-end:url(#mrkr3-56);stroke:#00a9ce;stroke-dasharray:8,4;stroke-linecap:butt;stroke-width:1}
		.st8 {fill:#00a9ce;stroke:#00a9ce;stroke-width:1}
		.st9 {fill:#feffff;font-family:Arial;font-size:0.833336em}
		.st10 {stroke:#00a9ce;stroke-dasharray:8,4;stroke-linecap:butt;stroke-width:1}
		.st11 {stroke:#0077c8;stroke-dasharray:1,2;stroke-linecap:butt;stroke-width:1}
		.st12 {fill:#0077c8;font-family:Arial;font-size:0.833336em}
		.st13 {font-size:1em}
		.st14 {fill:none;fill-rule:evenodd;font-size:12px;overflow:visible;stroke-linecap:square;stroke-miterlimit:3}
	]]>
	</style>

	<defs id="Markers">
		<g id="lend4">
			<path d="M 2 1 L 0 0 L 2 -1 L 2 1 " style="stroke:none"/>
		</g>
		<marker id="mrkr4-6" class="st2" refX="-8.48" orient="auto" markerUnits="strokeWidth" overflow="visible">
			<use xlink:href="#lend4" transform="scale(-4.24,-4.24) "/>
		</marker>
		<g id="lend3">
			<path d="M 2 1 L 0 0 L 2 -1 " style="stroke-linecap:round;stroke-linejoin:round;fill:none"/>
		</g>
		<marker id="mrkr3-56" class="st2" orient="auto" markerUnits="strokeWidth" overflow="visible">
			<use xlink:href="#lend3" transform="scale(-4.24,-4.24) "/>
		</marker>
	</defs>
	<g>
		<title>Page-1</title>
		<g id="shape67-1" transform="translate(459.243,-464.7)">
			<title>Message.45</title>
			<desc>LWM2M_CARRIER_EVENT_FOTA_START</desc>
			<path d="M0 576.11 L-196.46 575.93" class="st1"/>
			<rect x="-181.374" y="571.216" width="157.803" height="9.59985" class="st3"/>
			<text x="-181.37" y="578.42" class="st4">LWM2M_CARRIER_EVENT_FOTA_START</text>		</g>
		<g id="shape68-9" transform="translate(459.243,-374.7)">
			<title>Message.47</title>
			<desc>LWM2M_CARRIER_EVENT_REBOOT</desc>
			<path d="M0 576.11 L-196.46 575.93" class="st1"/>
			<rect x="-172.263" y="571.216" width="139.581" height="9.59985" class="st5"/>
			<text x="-172.26" y="578.42" class="st4">LWM2M_CARRIER_EVENT_REBOOT</text>		</g>
		<g id="shape70-16" transform="translate(459.243,-230.7)">
			<title>Message.55</title>
			<desc>LWM2M_CARRIER_EVENT_LTE_POWER_OFF</desc>
			<path d="M0 576.11 L-196.46 575.93" class="st1"/>
			<rect x="-190.267" y="571.216" width="175.588" height="9.59985" class="st3"/>
			<text x="-190.27" y="578.42" class="st4">LWM2M_CARRIER_EVENT_LTE_POWER_OFF</text>		</g>
		<g id="shape71-23" transform="translate(459.243,-104.7)">
			<title>Message.58</title>
			<desc>LWM2M_CARRIER_EVENT_CERTS_INIT</desc>
			<path d="M0 576.11 L-196.46 575.93" class="st1"/>
			<rect x="-178.708" y="571.216" width="152.472" height="9.59985" class="st5"/>
			<text x="-178.71" y="578.42" class="st4">LWM2M_CARRIER_EVENT_CERTS_INIT</text>		</g>
		<g id="shape72-30" transform="translate(459.243,-79.4995)">
			<title>Message.60</title>
			<desc>LWM2M_CARRIER_EVENT_LTE_READY</desc>
			<path d="M0 576.11 L-196.46 575.93" class="st1"/>
			<rect x="-178.714" y="571.216" width="152.483" height="9.59985" class="st5"/>
			<text x="-178.71" y="578.42" class="st4">LWM2M_CARRIER_EVENT_LTE_READY</text>		</g>
		<g id="shape73-37" transform="translate(254.298,-226.66)">
			<title>Message.61</title>
			<desc>lte_lc_power_off()</desc>
			<path d="M0 589.88 L-181.86 590.47" class="st1"/>
			<rect x="-130.937" y="584.789" width="71.5342" height="10.7998" class="st3"/>
			<text x="-130.94" y="592.89" class="st6">lte_lc_power_off()</text>		</g>
		<g id="shape74-44" transform="translate(459.243,-50.6995)">
			<title>Message.66</title>
			<desc>LWM2M_CARRIER_EVENT_REGISTERED</desc>
			<path d="M0 576.11 L-196.46 575.93" class="st1"/>
			<rect x="-181.376" y="571.216" width="157.807" height="9.59985" class="st5"/>
			<text x="-181.38" y="578.42" class="st4">LWM2M_CARRIER_EVENT_REGISTERED</text>		</g>
		<g id="shape76-51" transform="translate(254.298,-280.873)">
			<title>Return Message</title>
			<desc>Success</desc>
			<path d="M0 590.1 L204.94 590.28" class="st7"/>
			<rect x="85.4656" y="584.789" width="34.0137" height="10.7998" class="st5"/>
			<text x="85.47" y="592.89" class="st6">Success</text>		</g>
		<g id="shape80-59" transform="translate(5.69957,-543.879)">
			<title>Rectangle.80</title>
			<desc>LTE link controller</desc>
			<rect x="0" y="547.669" width="116.519" height="35.4331" class="st8"/>
			<text x="18.24" y="568.39" class="st9">LTE link controller</text>		</g>
		<g id="shape81-62" transform="translate(71.0456,-543.879)">
			<title>Dynamic connector</title>
			<path d="M-7.09 583.1 L-7.09 1125.98" class="st10"/>
		</g>
		<g id="shape82-65" transform="translate(196.039,-543.879)">
			<title>Rectangle.82</title>
			<desc>Application</desc>
			<rect x="0" y="547.669" width="116.519" height="35.4331" class="st8"/>
			<text x="33.8" y="568.39" class="st9">Application</text>		</g>
		<g id="shape83-68" transform="translate(247.211,-543.879)">
			<title>Dynamic connector.83</title>
			<path d="M7.09 583.1 L7.09 1125.98" class="st10"/>
		</g>
		<g id="shape75-71" transform="translate(1,-508.446)">
			<title>Sheet.75</title>
			<desc>Modem update initiated by carrier’s LwM2M server</desc>
			<path d="M0 583.1 L499.49 583.1" class="st11"/>
			<rect x="137.759" y="577.102" width="223.977" height="12.0001" class="st5"/>
			<text x="137.76" y="586.1" class="st12">Modem update initiated by carrier’s LwM2M server</text>		</g>
		<g id="shape77-76" transform="translate(196.039,-317.063)">
			<title>Rectangle.1003</title>
			<desc>Application gets ready to reboot</desc>
			<rect x="0" y="547.669" width="116.519" height="35.4331" class="st8"/>
			<text x="9.06" y="562.39" class="st9">Application gets ready <tspan x="38.52" dy="1.2em" class="st13">to reboot</tspan></text>		</g>
		<g id="shape78-80" transform="translate(1,-143.113)">
			<title>Sheet.78</title>
			<desc>New modem firmware is applied by modem library</desc>
			<path d="M0 583.1 L499.49 583.1" class="st11"/>
			<rect x="138.877" y="577.102" width="221.74" height="12.0001" class="st5"/>
			<text x="138.88" y="586.1" class="st12">New modem firmware is applied by modem library</text>		</g>
		<g id="shape84-85" transform="translate(400.983,-546.669)">
			<title>Rectangle.84</title>
			<desc>LwM2M carrier library</desc>
			<rect x="0" y="547.669" width="116.519" height="35.4331" class="st8"/>
			<text x="10.2" y="568.39" class="st9">LwM2M carrier library</text>		</g>
		<g id="shape85-88" transform="translate(452.156,-546.669)">
			<title>Dynamic connector.85</title>
			<path d="M7.09 583.1 L7.09 1125.98" class="st10"/>
		</g>
		<g id="shape69-91" transform="translate(400.983,-396.955)">
			<title>Rectangle</title>
			<desc>Modem firmware is downloaded to device</desc>
			<rect x="0" y="536.853" width="116.519" height="46.2495" class="st8"/>
			<text x="16.03" y="556.98" class="st9">Modem firmware is <tspan x="9.89" dy="1.2em" class="st13">downloaded to device</tspan></text>		</g>
		<g id="shape79-95" transform="translate(400.983,-170.557)">
			<title>Rectangle.1005</title>
			<desc>Device reboot</desc>
			<rect x="0" y="547.669" width="116.519" height="35.4331" class="st8"/>
			<text x="27.41" y="568.39" class="st9">Device reboot</text>		</g>
	</g>
</svg>
