<?xml version="1.0" encoding="UTF-8" standalone="no"?>
<!DOCTYPE svg PUBLIC "-//W3C//DTD SVG 1.1//EN" "http://www.w3.org/Graphics/SVG/1.1/DTD/svg11.dtd">
<!-- Generated by Microsoft Visio, SVG Export ConnEvtCbPeripheralLatency.svg Page-2 -->
<svg xmlns="http://www.w3.org/2000/svg" xmlns:xlink="http://www.w3.org/1999/xlink" xmlns:ev="http://www.w3.org/2001/xml-events"
		xmlns:v="http://schemas.microsoft.com/visio/2003/SVGExtensions/" width="7.47885in" height="1.98472in"
		viewBox="0 0 538.477 142.9" xml:space="preserve" color-interpolation-filters="sRGB" class="st9">
	<v:documentProperties v:langID="1033" v:metric="true" v:viewMarkup="false">
		<v:userDefs>
			<v:ud v:nameU="msvNoAutoConnect" v:val="VT0(1):26"/>
		</v:userDefs>
	</v:documentProperties>

	<style type="text/css">
	<![CDATA[
		.st1 {marker-end:url(#mrkr1-6);stroke:#000000;stroke-linecap:round;stroke-linejoin:round;stroke-width:0.75}
		.st2 {fill:#000000;fill-opacity:1;stroke:#000000;stroke-opacity:1;stroke-width:0.22935779816514}
		.st3 {fill:#ffffff;stroke:#000000;stroke-linecap:round;stroke-linejoin:round;stroke-width:0.75}
		.st4 {fill:#ffffff;stroke:#000000;stroke-dasharray:5.25,3.75;stroke-linecap:round;stroke-linejoin:round;stroke-width:0.75}
		.st5 {fill:#000000;font-family:Calibri;font-size:0.75em}
		.st6 {font-size:1em}
		.st7 {marker-end:url(#mrkr3-68);marker-start:url(#mrkr3-66);stroke:#000000;stroke-linecap:round;stroke-linejoin:round;stroke-width:0.75}
		.st8 {fill:#ffffff;stroke:none;stroke-linecap:butt;stroke-width:7.2}
		.st9 {fill:none;fill-rule:evenodd;font-size:12px;overflow:visible;stroke-linecap:square;stroke-miterlimit:3}
	]]>
	</style>

	<defs id="Markers">
		<g id="lend1">
			<path d="M 1 -1 L 0 0 L 1 1 " style="stroke-linecap:round;stroke-linejoin:round;fill:none"/>
		</g>
		<marker id="mrkr1-6" class="st2" v:arrowType="1" v:arrowSize="2" orient="auto" markerUnits="strokeWidth" overflow="visible">
			<use xlink:href="#lend1" transform="scale(-4.36,-4.36) "/>
		</marker>
		<g id="lend3">
			<path d="M 2 1 L 0 0 L 2 -1 " style="stroke-linecap:round;stroke-linejoin:round;fill:none"/>
		</g>
		<marker id="mrkr3-66" class="st2" v:arrowType="3" v:arrowSize="2" orient="auto" markerUnits="strokeWidth"
				overflow="visible">
			<use xlink:href="#lend3" transform="scale(4.36) "/>
		</marker>
		<marker id="mrkr3-68" class="st2" v:arrowType="3" v:arrowSize="2" orient="auto" markerUnits="strokeWidth"
				overflow="visible">
			<use xlink:href="#lend3" transform="scale(-4.36,-4.36) "/>
		</marker>
	</defs>
	<g v:mID="4" v:index="2" v:groupContext="foregroundPage">
		<title>Page-2</title>
		<v:pageProperties v:drawingScale="0.0393701" v:pageScale="0.0393701" v:drawingUnits="24" v:shadowOffsetX="8.50394"
				v:shadowOffsetY="-8.50394"/>
		<g id="shape1-1" v:mID="1" v:groupContext="shape" transform="translate(22.6245,-39.3277)">
			<title>Sheet.1</title>
			<path d="M0 142.9 L493.23 142.9" class="st1"/>
		</g>
		<g id="shape3-7" v:mID="3" v:groupContext="shape" transform="translate(62.4513,-39.4852)">
			<title>Sheet.3</title>
			<rect x="0" y="57.8602" width="31.6063" height="85.0394" class="st3"/>
		</g>
		<g id="shape12-9" v:mID="12" v:groupContext="shape" transform="translate(129.491,-39.4852)">
			<title>Sheet.12</title>
			<path d="M0 142.9 L31.61 142.9 L31.61 57.86 L0 57.86 L0 142.9 Z" class="st4"/>
		</g>
		<g id="shape13-11" v:mID="13" v:groupContext="shape" transform="translate(196.53,-39.4852)">
			<title>Sheet.13</title>
			<path d="M0 142.9 L31.61 142.9 L31.61 57.86 L0 57.86 L0 142.9 Z" class="st4"/>
		</g>
		<g id="shape14-13" v:mID="14" v:groupContext="shape" transform="translate(263.569,-39.4852)">
			<title>Sheet.14</title>
			<path d="M0 142.9 L31.61 142.9 L31.61 57.86 L0 57.86 L0 142.9 Z" class="st4"/>
		</g>
		<g id="shape16-15" v:mID="16" v:groupContext="shape" transform="translate(330.609,-39.4852)">
			<title>Sheet.16</title>
			<desc>Data provided in callback</desc>
			<v:textBlock v:margins="rect(4,4,4,4)" v:tabSpace="42.5197"/>
			<v:textRect cx="21.2598" cy="100.38" width="42.52" height="85.0394"/>
			<rect x="0" y="57.8602" width="42.5197" height="85.0394" class="st3"/>
			<text x="12.67" y="86.88" class="st5" v:langID="1044"><v:paragraph v:horizAlign="1"/><v:tabList/>Data <tspan x="4.92"
						dy="1.2em" class="st6">provided </tspan><tspan x="17.86" dy="1.2em" class="st6">in </tspan><tspan x="6.67"
						dy="1.2em" class="st6">callback</tspan></text>		</g>
		<g id="shape17-21" v:mID="17" v:groupContext="shape" transform="translate(397.648,-39.4852)">
			<title>Sheet.17</title>
			<path d="M0 142.9 L31.61 142.9 L31.61 57.86 L0 57.86 L0 142.9 Z" class="st4"/>
		</g>
		<g id="shape18-23" v:mID="18" v:groupContext="shape" transform="translate(464.687,-39.4852)">
			<title>Sheet.18</title>
			<path d="M0 142.9 L31.61 142.9 L31.61 57.86 L0 57.86 L0 142.9 Z" class="st4"/>
		</g>
		<g id="shape19-25" v:mID="19" v:groupContext="shape" transform="translate(-88.6688,103.572) rotate(-90)">
			<title>Sheet.19</title>
			<path d="M0 142.9 L39.02 142.9" class="st1"/>
		</g>
		<g id="shape20-30" v:mID="20" v:groupContext="shape" transform="translate(-21.6888,103.572) rotate(-90)">
			<title>Sheet.20</title>
			<path d="M0 142.9 L39.02 142.9" class="st1"/>
		</g>
		<g id="shape21-35" v:mID="21" v:groupContext="shape" transform="translate(45.9769,103.572) rotate(-90)">
			<title>Sheet.21</title>
			<path d="M0 142.9 L39.02 142.9" class="st1"/>
		</g>
		<g id="shape22-40" v:mID="22" v:groupContext="shape" transform="translate(112.728,103.572) rotate(-90)">
			<title>Sheet.22</title>
			<path d="M0 142.9 L39.02 142.9" class="st1"/>
		</g>
		<g id="shape23-45" v:mID="23" v:groupContext="shape" transform="translate(180.623,103.572) rotate(-90)">
			<title>Sheet.23</title>
			<path d="M0 142.9 L39.02 142.9" class="st1"/>
		</g>
		<g id="shape24-50" v:mID="24" v:groupContext="shape" transform="translate(244.402,103.572) rotate(-90)">
			<title>Sheet.24</title>
			<path d="M0 142.9 L39.02 142.9" class="st1"/>
		</g>
		<g id="shape25-55" v:mID="25" v:groupContext="shape" transform="translate(312.068,103.572) rotate(-90)">
			<title>Sheet.25</title>
			<path d="M0 142.9 L39.02 142.9" class="st1"/>
		</g>
		<g id="shape28-60" v:mID="28" v:groupContext="shape" transform="translate(61.3174,-25.3119)">
			<title>Sheet.28</title>
			<desc>interval</desc>
			<v:textBlock v:margins="rect(4,4,4,4)" v:tabSpace="42.5197"/>
			<v:textRect cx="33.6043" cy="142.9" width="67.21" height="0"/>
			<path d="M0 142.9 L67.21 142.9" class="st7"/>
			<rect v:rectContext="textBkgnd" x="19.6716" y="137.5" width="27.8657" height="10.7998" class="st8"/>
			<text x="19.67" y="145.6" class="st5" v:langID="1044"><v:paragraph v:horizAlign="1"/><v:tabList/>interval</text>		</g>
	</g>
</svg>
