<?xml version="1.0" encoding="UTF-8" standalone="no"?>
<!DOCTYPE svg PUBLIC "-//W3C//DTD SVG 1.1//EN" "http://www.w3.org/Graphics/SVG/1.1/DTD/svg11.dtd">
<!-- Generated by Microsoft Visio, SVG Export audio_module_states.svg Page-1 -->
<svg xmlns="http://www.w3.org/2000/svg" xmlns:xlink="http://www.w3.org/1999/xlink" xmlns:ev="http://www.w3.org/2001/xml-events"
		width="5.44681in" height="4.0672in" viewBox="0 0 392.17 292.839" xml:space="preserve" color-interpolation-filters="sRGB"
		class="st9">
	<style type="text/css">
	<![CDATA[
		.st1 {fill:#00a9ce;stroke:none;stroke-width:1}
		.st2 {fill:#feffff;font-family:Arial;font-size:0.75em}
		.st3 {marker-end:url(#mrkr4-18);stroke:#00a9ce;stroke-linecap:butt;stroke-width:1}
		.st4 {fill:#00a9ce;fill-opacity:1;stroke:#00a9ce;stroke-opacity:1;stroke-width:0.28409090909091}
		.st5 {marker-end:url(#mrkr4-24);stroke:#00a9ce;stroke-linecap:butt;stroke-width:1}
		.st6 {fill:none;stroke:none;stroke-width:1}
		.st7 {fill:#0077c8;font-family:Arial;font-size:0.75em}
		.st8 {font-size:1em}
		.st9 {fill:none;fill-rule:evenodd;font-size:12px;overflow:visible;stroke-linecap:square;stroke-miterlimit:3}
	]]>
	</style>

	<defs id="Markers">
		<g id="lend4">
			<path d="M 2 1 L 0 0 L 2 -1 L 2 1 " style="stroke:none"/>
		</g>
		<marker id="mrkr4-18" class="st4" refX="-7.04" orient="auto" markerUnits="strokeWidth" overflow="visible">
			<use xlink:href="#lend4" transform="scale(-3.52,-3.52) "/>
		</marker>
		<marker id="mrkr4-24" class="st4" refX="-6.68" orient="auto" markerUnits="strokeWidth" overflow="visible">
			<use xlink:href="#lend4" transform="scale(-3.52,-3.52) "/>
		</marker>
	</defs>
	<g>
		<title>Page-1</title>
		<g id="shape200-1" transform="translate(188.852,-227.489)">
			<title>Sheet.200</title>
			<desc>UNDEFINED</desc>
			<ellipse cx="35.4331" cy="271.579" rx="35.4331" ry="21.2598" class="st1"/>
			<text x="9.18" y="274.28" class="st2">UNDEFINED</text>		</g>
		<g id="shape201-4" transform="translate(188.852,-124.207)">
			<title>Sheet.201</title>
			<desc>CONFIGURED</desc>
			<ellipse cx="35.4331" cy="271.579" rx="35.4331" ry="21.2598" class="st1"/>
			<text x="5.18" y="274.28" class="st2">CONFIGURED</text>		</g>
		<g id="shape202-7" transform="translate(188.852,-20.9251)">
			<title>Sheet.202</title>
			<desc>STOPPED</desc>
			<ellipse cx="35.4331" cy="271.579" rx="35.4331" ry="21.2598" class="st1"/>
			<text x="13.93" y="274.28" class="st2">STOPPED</text>		</g>
		<g id="shape204-10" transform="translate(68.3794,-71.4439)">
			<title>Sheet.204</title>
			<desc>RUNNING</desc>
			<ellipse cx="35.4331" cy="271.579" rx="35.4331" ry="21.2598" class="st1"/>
			<text x="14.43" y="274.28" class="st2">RUNNING</text>		</g>
		<g id="shape206-13" transform="translate(217.198,-227.489)">
			<title>Dynamic connector.206</title>
			<path d="M7.09 292.84 C7.09 305.94 7.09 330.35 7.09 346.56" class="st3"/>
		</g>
		<g id="shape207-19" transform="translate(200.237,-271.149)">
			<title>Dynamic connector.207</title>
			<path d="M0 299.62 C-0 291.18 13.17 279.96 25.44 279.94 C34.75 279.94 43.55 286.38 47.27 293.44 L47.37 293.78"
					class="st5"/>
		</g>
		<g id="shape208-25" transform="translate(188.852,-145.467)">
			<title>Dynamic connector.208</title>
			<path d="M0 292.84 C-17.72 292.84 -46.69 292.84 -59.87 300.25 C-67.98 304.82 -70.11 312.19 -70.67 319.08 L-70.68 319.44"
					class="st5"/>
		</g>
		<g id="shape209-30" transform="translate(103.812,-71.4439)">
			<title>Dynamic connector.209</title>
			<path d="M0 292.84 C0 300.15 -0 309.9 12.58 315.32 C26.69 321.39 56.63 322.02 78 322.09 L78.36 322.09" class="st5"/>
		</g>
		<g id="shape210-35" transform="translate(249.083,-60.4921)">
			<title>Dynamic connector.210</title>
			<path d="M-6.78 292.84 C1.66 282.46 22.46 262.84 -2.75 231.68 L-2.99 231.41" class="st5"/>
		</g>
		<g id="shape211-40" transform="translate(215.381,-125.823)">
			<title>Dynamic connector.211</title>
			<path d="M-4.65 292.84 C-13.91 306.27 -32.6 323.7 -13.65 352.61 L-13.44 352.9" class="st5"/>
		</g>
		<g id="shape212-45" transform="translate(193.803,-53.0243)">
			<title>Dynamic connector.212</title>
			<path d="M0 292.84 C-15.42 292.84 -40.78 292.84 -52.24 286.78 C-58.64 283.4 -60.71 278.13 -61.38 272.99 L-61.39 272.63"
					class="st5"/>
		</g>
		<g id="shape213-50" transform="translate(252.631,-42.1849)">
			<title>Dynamic connector.213</title>
			<path d="M7.09 292.84 C73.7 294.76 90.16 254.16 92.27 196.19 C94.19 143.54 84.27 76.56 14.04 85.2 L13.69 85.26"
					class="st5"/>
		</g>
		<g id="shape214-55" transform="translate(265.499,-145.467)">
			<title>Dynamic connector.214</title>
			<path d="M-5.78 292.84 C6.89 292.84 6.89 269.07 6.89 245.3 C6.89 225.63 6.89 205.96 -1.67 199.65 L-2.01 199.54"
					class="st5"/>
		</g>
		<g id="shape215-60" transform="translate(193.527,-153.808)">
			<title>Dynamic connector.215</title>
			<path d="M0 290.62 C-17.35 290.62 -17.35 280.26 -9.96 274.49 C-2.57 268.71 12.24 267.54 17.93 274.23 L18.05 274.57"
					class="st5"/>
		</g>
		<g id="shape216-65" transform="translate(247.027,-32.6469)">
			<title>Dynamic connector.216</title>
			<path d="M0 299.6 C-0 308.69 -10.3 316.7 -21.36 316.69 C-29.38 316.68 -37.8 312.44 -41.78 306.88 L-41.9 306.54"
					class="st5"/>
		</g>
		<g id="shape218-70" transform="translate(224.285,-206.229)">
			<title>Sheet.218</title>
			<desc>OPEN</desc>
			<rect x="0" y="271.579" width="35.4331" height="21.2598" class="st6"/>
			<text x="4.96" y="284.91" class="st7">OPEN</text>		</g>
		<g id="shape221-73" transform="translate(280.978,-156.171)">
			<title>Sheet.221</title>
			<desc>CLOSE</desc>
			<rect x="0" y="282.283" width="39.4008" height="10.5552" class="st6"/>
			<text x="4.44" y="290.26" class="st7">CLOSE</text>		</g>
		<g id="shape222-76" transform="translate(117.985,-145.467)">
			<title>Sheet.222</title>
			<desc>START</desc>
			<rect x="0" y="271.579" width="49.6063" height="21.2598" class="st6"/>
			<text x="10.05" y="284.91" class="st7">START</text>		</g>
		<g id="shape223-79" transform="translate(139.246,-52.8148)">
			<title>Sheet.223</title>
			<desc>START</desc>
			<rect x="0" y="271.579" width="49.6063" height="21.2598" class="st6"/>
			<text x="10.05" y="284.91" class="st7">START</text>		</g>
		<g id="shape224-82" transform="translate(79.0093,-28.9242)">
			<title>Sheet.224</title>
			<desc>STOP</desc>
			<rect x="0" y="271.579" width="49.6063" height="21.2598" class="st6"/>
			<text x="12.55" y="284.91" class="st7">STOP</text>		</g>
		<g id="shape225-85" transform="translate(85.8714,-77.3972)">
			<title>Dynamic connector.225</title>
			<path d="M-6.65 292.84 C-6.65 311.46 -17.13 311.46 -22.94 302.1 C-30.16 290.44 -30.16 264.3 -23.11 252.74 C-18.32 244.9
						 -10.27 243.78 -8.09 255.73 L-8.06 256.09" class="st5"/>
		</g>
		<g id="shape226-90" transform="translate(156.249,-102.947)">
			<title>Sheet.226</title>
			<desc>STOP</desc>
			<rect x="0" y="271.579" width="49.6063" height="21.2598" class="st6"/>
			<text x="12.55" y="284.91" class="st7">STOP</text>		</g>
		<g id="shape227-93" transform="translate(245.545,-60.8327)">
			<title>Sheet.227</title>
			<desc>RECONFIGURE</desc>
			<rect x="0" y="271.579" width="85.0394" height="21.2598" class="st6"/>
			<text x="9.27" y="284.91" class="st7">RECONFIGURE</text>		</g>
		<g id="shape382-96" transform="translate(351.769,-155.849)">
			<title>Sheet.382</title>
			<desc>CLOSE</desc>
			<rect x="0" y="282.283" width="39.4008" height="10.5552" class="st6"/>
			<text x="4.44" y="290.26" class="st7">CLOSE</text>		</g>
		<g id="shape383-99" transform="translate(1,-79.2392)">
			<title>Sheet.383</title>
			<desc>PROCESS DATA</desc>
			<rect x="0" y="271.579" width="52.5541" height="21.2598" class="st6"/>
			<text x="4.27" y="279.51" class="st7">PROCESS <tspan x="14.28" dy="1.2em" class="st8">DATA</tspan></text>		</g>
	</g>
</svg>
