<?xml version="1.0" encoding="UTF-8" standalone="no"?>
<!DOCTYPE svg PUBLIC "-//W3C//DTD SVG 1.1//EN" "http://www.w3.org/Graphics/SVG/1.1/DTD/svg11.dtd">
<!-- Generated by Microsoft Visio, SVG Export audio_module_functions.svg Page-1 -->
<svg xmlns="http://www.w3.org/2000/svg" xmlns:xlink="http://www.w3.org/1999/xlink" xmlns:ev="http://www.w3.org/2001/xml-events"
		width="3.35333in" height="8.94388in" viewBox="0 0 241.44 643.959" xml:space="preserve" color-interpolation-filters="sRGB"
		class="st13">
	<style type="text/css">
	<![CDATA[
		.st1 {fill:#6ad1e3;stroke:none;stroke-width:0.25}
		.st2 {fill:#ffffff;font-family:Calibri;font-size:2.50001em}
		.st3 {fill:#0033a0;stroke:none;stroke-width:0.25}
		.st4 {fill:#ffffff;font-family:Calibri;font-size:0.833336em}
		.st5 {fill:#00a9ce;stroke:none;stroke-width:0.25}
		.st6 {fill:#feffff;font-family:Calibri;font-size:0.833336em}
		.st7 {fill:#768692;stroke:none;stroke-width:0.25}
		.st8 {fill:#00a9ce;stroke:#000000;stroke-width:0.25}
		.st9 {fill:#0033a0;stroke:#000000;stroke-width:0.25}
		.st10 {fill:none;stroke:none;stroke-width:0.25}
		.st11 {fill:#000000;font-family:Calibri;font-size:1.00001em}
		.st12 {fill:#768692;stroke:#000000;stroke-width:0.25}
		.st13 {fill:none;fill-rule:evenodd;font-size:12px;overflow:visible;stroke-linecap:square;stroke-miterlimit:3}
	]]>
	</style>

	<g>
		<title>Page-1</title>
		<g id="group379-1" transform="translate(0.25,-0.25)">
			<title>Sheet.379</title>
			<g id="shape232-2" transform="translate(6.39488E-14,-51.02)">
				<title>Round Corner Rectangle.210</title>
				<desc>Module</desc>
				<path d="M24.09 643.96 L216.85 643.96 A24.0941 24.0941 -180 0 0 240.94 619.87 L240.94 75.61 A24.0941 24.0941 -180
							 0 0 216.85 51.52 L24.09 51.52 A24.0941 24.0941 -180 0 0 -0 75.61 L0 619.87 A24.0941 24.0941 -180 0 0
							 24.09 643.96 Z" class="st1"/>
				<text x="18.17" y="82.52" class="st2">Audio module</text>			</g>
			<g id="shape233-5" transform="translate(14.1732,-467.548)">
				<title>Rectangle.213</title>
				<desc>Regonfigure</desc>
				<rect x="0" y="601.439" width="202.677" height="42.5196" class="st3"/>
				<text x="4" y="614.44" class="st4">Reconfigure</text>			</g>
			<g id="shape234-8" transform="translate(14.1732,-418.106)">
				<title>Sheet.234</title>
				<desc>Configuration get</desc>
				<rect x="0" y="601.439" width="202.677" height="42.5196" class="st3"/>
				<text x="4" y="614.44" class="st4">Configuration get</text>			</g>
			<g id="shape235-11" transform="translate(71.1595,-421.649)">
				<title>Sheet.235</title>
				<desc>configure_get2</desc>
				<rect x="0" y="622.699" width="88.7044" height="21.2598" class="st5"/>
				<text x="16.08" y="636.33" class="st6">configure_get</text>			</g>
			<g id="shape236-14" transform="translate(14.1732,-267.871)">
				<title>Rectangle.218</title>
				<desc>Start</desc>
				<rect x="0" y="601.439" width="202.677" height="42.5196" class="st3"/>
				<text x="4" y="614.44" class="st4">Start</text>			</g>
			<g id="shape237-17" transform="translate(71.1594,-272.122)">
				<title>Sheet.237</title>
				<desc>start1</desc>
				<rect x="0" y="622.699" width="88.7044" height="21.2598" class="st7"/>
				<text x="34.91" y="636.33" class="st6">start</text>			</g>
			<g id="shape238-20" transform="translate(14.1732,-565.508)">
				<title>Sheet.238</title>
				<desc>Open</desc>
				<rect x="0" y="601.439" width="202.677" height="42.5196" class="st3"/>
				<text x="4" y="614.44" class="st4">Open</text>			</g>
			<g id="shape239-23" transform="translate(21.2598,-569.76)">
				<title>Sheet.239</title>
				<desc>open1</desc>
				<rect x="0" y="622.699" width="88.7044" height="21.2598" class="st7"/>
				<text x="33.97" y="636.33" class="st6">open</text>			</g>
			<g id="shape240-26" transform="translate(71.1595,-471.256)">
				<title>Sheet.240</title>
				<desc>configure_set2</desc>
				<rect x="0" y="622.699" width="88.7044" height="21.2598" class="st5"/>
				<text x="16.48" y="636.33" class="st6">configure_set</text>			</g>
			<g id="shape241-29" transform="translate(118.64,-569.76)">
				<title>Sheet.241</title>
				<desc>configure_set2</desc>
				<rect x="0" y="622.699" width="88.7044" height="21.2598" class="st8"/>
				<text x="16.48" y="636.33" class="st6">configure_set</text>			</g>
			<g id="shape242-32" transform="translate(14.1732,-218.265)">
				<title>Rectangle.288</title>
				<desc>Stop</desc>
				<rect x="0" y="601.439" width="202.677" height="42.5196" class="st3"/>
				<text x="4" y="614.44" class="st4">Stop</text>			</g>
			<g id="shape243-35" transform="translate(71.1594,-222.516)">
				<title>Sheet.243</title>
				<desc>stop1</desc>
				<rect x="0" y="622.699" width="88.7044" height="21.2598" class="st7"/>
				<text x="35.46" y="636.33" class="st6">stop</text>			</g>
			<g id="shape244-38" transform="translate(14.1732,-368.5)">
				<title>Rectangle.293</title>
				<desc>Connect</desc>
				<rect x="0" y="601.439" width="202.677" height="42.5196" class="st3"/>
				<text x="4" y="614.44" class="st4">Connect</text>			</g>
			<g id="shape245-41" transform="translate(14.1732,-317.477)">
				<title>Rectangle.295</title>
				<desc>Disconnect</desc>
				<rect x="0" y="601.439" width="202.677" height="42.5196" class="st3"/>
				<text x="4" y="614.44" class="st4">Disconnect</text>			</g>
			<g id="shape246-44" transform="translate(14.1732,-168.658)">
				<title>Rectangle.296</title>
				<desc>Send Data</desc>
				<rect x="0" y="601.439" width="202.677" height="42.5196" class="st3"/>
				<text x="4" y="614.44" class="st4">Send Data</text>			</g>
			<g id="shape247-47" transform="translate(14.1732,-119.052)">
				<title>Rectangle.297</title>
				<desc>Retrieve Data</desc>
				<rect x="0" y="601.439" width="202.677" height="42.5196" class="st3"/>
				<text x="4" y="614.44" class="st4">Retrieve Data</text>			</g>
			<g id="shape248-50" transform="translate(14.1732,-69.4455)">
				<title>Rectangle.298</title>
				<desc>Send and Retrieve Data</desc>
				<rect x="0" y="601.439" width="202.677" height="42.5196" class="st3"/>
				<text x="4" y="614.44" class="st4">Send and Retrieve Data</text>			</g>
			<g id="shape249-53" transform="translate(71.1594,-172.91)">
				<title>Sheet.249</title>
				<desc>data_process2</desc>
				<rect x="0" y="622.699" width="88.7044" height="21.2598" class="st5"/>
				<text x="17.25" y="636.33" class="st6">data_process</text>			</g>
			<g id="shape250-56" transform="translate(71.1594,-122.595)">
				<title>Sheet.250</title>
				<desc>data_process2</desc>
				<rect x="0" y="622.699" width="88.7044" height="21.2598" class="st5"/>
				<text x="17.25" y="636.33" class="st6">data_process</text>			</g>
			<g id="shape251-59" transform="translate(71.1594,-73.6973)">
				<title>Sheet.251</title>
				<desc>data_process2</desc>
				<rect x="0" y="622.699" width="88.7044" height="21.2598" class="st5"/>
				<text x="17.25" y="636.33" class="st6">data_process</text>			</g>
			<g id="shape252-62" transform="translate(14.1732,-515.901)">
				<title>Sheet.252</title>
				<desc>Close</desc>
				<rect x="0" y="601.439" width="202.677" height="42.5196" class="st3"/>
				<text x="4" y="614.44" class="st4">Close</text>			</g>
			<g id="shape254-65" transform="translate(4.25195,-18.4216)">
				<title>Sheet.254</title>
				<rect x="0" y="634.429" width="17.3254" height="9.53007" class="st8"/>
			</g>
			<g id="shape255-67" transform="translate(4.25195,-34.4033)">
				<title>Rectangle.309</title>
				<rect x="0" y="634.429" width="17.3254" height="9.53007" class="st9"/>
			</g>
			<g id="shape256-69" transform="translate(21.2598,-31.1743)">
				<title>Sheet.256</title>
				<desc>Audio module function</desc>
				<rect x="0" y="629.786" width="198.425" height="14.1732" class="st10"/>
				<text x="4" y="640.47" class="st11">Audio module function</text>			</g>
			<g id="shape257-72" transform="translate(21.2598,-15.5906)">
				<title>Sheet.257</title>
				<desc>User supplied function</desc>
				<rect x="0" y="629.786" width="198.425" height="14.1732" class="st10"/>
				<text x="4" y="640.47" class="st11">User supplied function (mandatory)</text>			</g>
			<g id="shape375-75" transform="translate(4.25195,-2.43985)">
				<title>Sheet.375</title>
				<rect x="0" y="634.429" width="17.3254" height="9.53007" class="st12"/>
			</g>
			<g id="shape376-77" transform="translate(21.5773,0)">
				<title>Sheet.376</title>
				<desc>User supplied function</desc>
				<rect x="0" y="629.786" width="198.425" height="14.1732" class="st10"/>
				<text x="4" y="640.47" class="st11">User supplied function (optional)</text>			</g>
			<g id="shape378-80" transform="translate(71.1595,-520.158)">
				<title>Sheet.378</title>
				<desc>open1</desc>
				<rect x="0" y="622.699" width="88.7044" height="21.2598" class="st7"/>
				<text x="34.01" y="636.33" class="st6">close</text>			</g>
		</g>
	</g>
</svg>
