<?xml version="1.0" encoding="UTF-8" standalone="no"?>
<!DOCTYPE svg PUBLIC "-//W3C//DTD SVG 1.1//EN" "http://www.w3.org/Graphics/SVG/1.1/DTD/svg11.dtd">
<!-- Generated by Microsoft Visio, SVG Export audio_module_example.svg Page-1 -->
<svg xmlns="http://www.w3.org/2000/svg" xmlns:xlink="http://www.w3.org/1999/xlink" xmlns:ev="http://www.w3.org/2001/xml-events"
		width="3.53171in" height="1.93863in" viewBox="0 0 254.283 139.581" xml:space="preserve" color-interpolation-filters="sRGB"
		class="st16">
	<style type="text/css">
	<![CDATA[
		.st1 {fill:#4672c4;stroke:#c7c8c8;stroke-width:0.25}
		.st2 {fill:#feffff;font-family:Calibri;font-size:0.833336em}
		.st3 {fill:#00a9ce;stroke:none;stroke-width:1}
		.st4 {fill:#ffffff;font-family:Arial;font-size:0.791656em}
		.st5 {font-size:1em}
		.st6 {font-size:0.842113em}
		.st7 {fill:#ffffff;font-family:Arial;font-size:0.833336em}
		.st8 {font-size:0.799995em}
		.st9 {marker-end:url(#mrkr4-20);stroke:#00a9ce;stroke-linecap:butt;stroke-width:1}
		.st10 {fill:#00a9ce;fill-opacity:1;stroke:#00a9ce;stroke-opacity:1;stroke-width:0.28409090909091}
		.st11 {marker-start:url(#mrkr4-31);stroke:#00a9ce;stroke-linecap:butt;stroke-width:1}
		.st12 {fill:none;stroke:none;stroke-width:1}
		.st13 {fill:#00a9ce;font-family:Arial;font-size:0.916672em}
		.st14 {fill:none;stroke:#768692;stroke-dasharray:7,5;stroke-width:1}
		.st15 {fill:#768692;font-family:Arial;font-size:0.916672em}
		.st16 {fill:none;fill-rule:evenodd;font-size:12px;overflow:visible;stroke-linecap:square;stroke-miterlimit:3}
	]]>
	</style>

	<defs id="Markers">
		<g id="lend4">
			<path d="M 2 1 L 0 0 L 2 -1 L 2 1 " style="stroke:none"/>
		</g>
		<marker id="mrkr4-20" class="st10" refX="-7.04" orient="auto" markerUnits="strokeWidth" overflow="visible">
			<use xlink:href="#lend4" transform="scale(-3.52,-3.52) "/>
		</marker>
		<marker id="mrkr4-31" class="st10" refX="6.68" orient="auto" markerUnits="strokeWidth" overflow="visible">
			<use xlink:href="#lend4" transform="scale(3.52) "/>
		</marker>
	</defs>
	<g>
		<title>Page-1</title>
		<g id="shape348-1" transform="translate(1.57799,-110.985)">
			<title>Rectangle.348</title>
			<desc>Application</desc>
			<rect x="0" y="111.235" width="252.283" height="28.3464" class="st1"/>
			<text x="103.1" y="128.41" class="st2">Application</text>		</g>
		<g id="shape350-4" transform="translate(4.97956,-23.5547)">
			<title>Ellipse.350</title>
			<desc>Input-Output module (example: LC3 decoder)</desc>
			<path d="M0 113.02 A48.1888 26.5608 0 0 1 96.38 113.02 A48.1888 26.5608 0 1 1 -0 113.02 Z" class="st3"/>
			<text x="21.78" y="99.97" class="st4">Input-Output <tspan x="32.61" dy="1.2em" class="st5">module </tspan><tspan
						x="30.63" dy="1.256em" class="st6">(example: </tspan><tspan x="23.95" dy="1.312em" class="st6">LC3 decoder)</tspan></text>		</g>
		<g id="shape351-10" transform="translate(151.237,-23.5547)">
			<title>Ellipse.351</title>
			<desc>Output module (example: I2S out)</desc>
			<path d="M0 113.02 A48.1888 26.5608 0 0 1 96.38 113.02 A48.1888 26.5608 0 1 1 -0 113.02 Z" class="st3"/>
			<text x="33.18" y="105.22" class="st7">Output <tspan x="31.79" dy="1.2em" class="st5">module </tspan><tspan x="15.51"
						dy="1.275em" class="st8">(example: I2S out)</tspan></text>		</g>
		<g id="shape353-15" transform="translate(101.357,-43.0288)">
			<title>Dynamic connector.353</title>
			<path d="M0 132.49 L42.84 132.49" class="st9"/>
		</g>
		<g id="shape354-21" transform="translate(101.357,-50.1154)">
			<title>Dynamic connector.354</title>
			<path d="M0 139.58 L26.63 139.58 L26.63 85.75" class="st9"/>
		</g>
		<g id="shape355-26" transform="translate(46.0818,-76.6762)">
			<title>Dynamic connector.355</title>
			<path d="M7.09 132.9 L7.09 132.54 L7.09 105.27" class="st11"/>
		</g>
		<g id="shape356-32" transform="translate(9.50422,-85.4729)">
			<title>Sheet.356</title>
			<desc>Data in</desc>
			<rect x="0" y="114.069" width="48.1888" height="25.5118" class="st12"/>
			<text x="6.67" y="130.13" class="st13">Data in</text>		</g>
		<g id="shape358-35" transform="translate(127.992,-85.4729)">
			<title>Sheet.358</title>
			<desc>Data returned</desc>
			<rect x="0" y="114.069" width="79.937" height="25.5118" class="st12"/>
			<text x="6.34" y="130.13" class="st13">Data returned</text>		</g>
		<g id="shape359-38" transform="translate(1,-1)">
			<title>Sheet.359</title>
			<desc>Audio stream</desc>
			<path d="M0 139.58 L252.28 139.58 L252.28 50.86 L0 50.86 L0 139.58 Z" class="st14"/>
			<text x="4" y="132.28" class="st15">Audio stream</text>		</g>
	</g>
</svg>
