<?xml version="1.0" encoding="UTF-8" standalone="no"?>
<!DOCTYPE svg PUBLIC "-//W3C//DTD SVG 1.1//EN" "http://www.w3.org/Graphics/SVG/1.1/DTD/svg11.dtd">
<!-- Generated by Microsoft Visio, SVG Export ncm_register.svg Page-1 -->
<svg xmlns="http://www.w3.org/2000/svg" xmlns:xlink="http://www.w3.org/1999/xlink" xmlns:ev="http://www.w3.org/2001/xml-events"
		width="2.36923in" height="2.433in" viewBox="0 0 170.584 175.176" xml:space="preserve" color-interpolation-filters="sRGB"
		class="st10">
	<style type="text/css">
	<![CDATA[
		.st1 {fill:none}
		.st2 {stroke:#00a9ce;stroke-dasharray:7.99998,3.99999;stroke-linecap:butt;stroke-width:0.999997}
		.st3 {fill:none;stroke:none;stroke-width:1}
		.st4 {fill:#000000;font-family:Arial;font-size:0.916672em}
		.st5 {fill:#0033a0;stroke:none;stroke-width:0.499999}
		.st6 {fill:#feffff;font-family:Calibri;font-size:1.00001em}
		.st7 {fill:#0077c8;stroke:none;stroke-width:0.999997}
		.st8 {fill:#ffffff;font-family:Calibri;font-size:1.00001em}
		.st9 {fill:#00a9ce;stroke:none;stroke-width:0.999997}
		.st10 {fill:none;fill-rule:evenodd;font-size:12px;overflow:visible;stroke-linecap:square;stroke-miterlimit:3}
	]]>
	</style>

	<g>
		<title>Page-1</title>
		<g id="group158-1" transform="translate(1,-1)">
			<title>Sheet.158</title>
			<g id="group37-2" transform="translate(9.48066,-26.3491)">
				<title>Dynamic connector.37</title>
				<g id="shape38-3">
					<title>Sheet.38</title>
					<path d="M0 133.23 L0 175.18 L0 133.23 Z" class="st1"/>
					<path d="M0 133.23 L0 175.18" class="st2"/>
				</g>
			</g>
			<g id="group39-6" transform="translate(158.446,-38.369)">
				<title>Dynamic connector.39</title>
				<g id="shape40-7">
					<title>Sheet.40</title>
					<path d="M0 145.25 L0 175.18 L0 145.25 Z" class="st1"/>
					<path d="M0 145.25 L0 175.18" class="st2"/>
				</g>
			</g>
			<g id="group41-10" transform="translate(83.7437,-123.411)">
				<title>Dynamic connector.41</title>
				<g id="shape42-11">
					<title>Sheet.42</title>
					<path d="M0 133.34 L0.22 175.18 L0 133.34 Z" class="st1"/>
					<path d="M0 133.34 L0.22 175.18" class="st2"/>
				</g>
			</g>
			<g id="group43-14" transform="translate(9.47386,-117.056)">
				<title>Dynamic connector.43</title>
				<g id="shape44-15">
					<title>Sheet.44</title>
					<path d="M0 139.74 L0 175.18 L0 139.74 Z" class="st1"/>
					<path d="M0 139.74 L0 175.18" class="st2"/>
				</g>
			</g>
			<g id="group45-18" transform="translate(158.439,-117.056)">
				<title>Dynamic connector.45</title>
				<g id="shape46-19">
					<title>Sheet.46</title>
					<path d="M0 139.74 L0 175.18 L0 139.74 Z" class="st1"/>
					<path d="M0 139.74 L0 175.18" class="st2"/>
				</g>
			</g>
			<g id="shape145-22" transform="translate(0.206385,-153.088)">
				<title>Sheet.145</title>
				<desc>31</desc>
				<rect x="0" y="156.176" width="20.2911" height="19" class="st3"/>
				<text x="4.03" y="168.98" class="st4">31</text>			</g>
			<g id="shape148-25" transform="translate(-2.19824E-14,-65.3027)">
				<title>Sheet.148</title>
				<desc>31</desc>
				<rect x="0" y="156.176" width="20.2911" height="19" class="st3"/>
				<text x="4.03" y="168.98" class="st4">31</text>			</g>
			<g id="shape149-28" transform="translate(64.2699,-154.176)">
				<title>Sheet.149</title>
				<desc>16</desc>
				<rect x="0" y="156.176" width="20.2911" height="19" class="st3"/>
				<text x="4.03" y="168.98" class="st4">16</text>			</g>
			<g id="shape150-31" transform="translate(148.293,-152.496)">
				<title>Sheet.150</title>
				<desc>0</desc>
				<rect x="0" y="156.176" width="20.2911" height="19" class="st3"/>
				<text x="7.09" y="168.98" class="st4">0</text>			</g>
			<g id="shape151-34" transform="translate(148.014,-66.1952)">
				<title>Sheet.151</title>
				<desc>0</desc>
				<rect x="0" y="156.176" width="20.2911" height="19" class="st3"/>
				<text x="7.09" y="168.98" class="st4">0</text>			</g>
			<g id="shape152-37" transform="translate(9.47706,-21.6247)">
				<title>Sheet.152</title>
				<desc>RESETREAS</desc>
				<rect x="0" y="138.111" width="148.966" height="37.0654" class="st5"/>
				<text x="47.27" y="160.24" class="st6">RESETREAS</text>			</g>
			<g id="shape153-40" transform="translate(9.37116,-105.563)">
				<title>Sheet.153</title>
				<desc>FLAGS</desc>
				<rect x="0" y="138.111" width="74.4826" height="37.0654" class="st7"/>
				<text x="21.95" y="160.24" class="st8">FLAGS</text>			</g>
			<g id="shape154-43" transform="translate(83.8537,-105.563)">
				<title>Sheet.154</title>
				<desc>COUNTER</desc>
				<rect x="0" y="138.111" width="74.4826" height="37.0654" class="st9"/>
				<text x="13.24" y="160.24" class="st8">COUNTER</text>			</g>
			<g id="shape155-46" transform="translate(37.6477,-84.6743)">
				<title>Sheet.155</title>
				<desc>GPMEM[0]</desc>
				<rect x="0" y="156.176" width="93.0093" height="19" class="st3"/>
				<text x="19.61" y="168.98" class="st4">GPMEM[0]</text>			</g>
			<g id="shape157-49" transform="translate(37.4552,-5.68434E-14)">
				<title>Sheet.157</title>
				<desc>GPMEM[1]</desc>
				<rect x="0" y="156.176" width="93.0093" height="19" class="st3"/>
				<text x="19.61" y="168.98" class="st4">GPMEM[1]</text>			</g>
		</g>
	</g>
</svg>
