<?xml version="1.0" encoding="UTF-8" standalone="no"?>
<!DOCTYPE svg PUBLIC "-//W3C//DTD SVG 1.1//EN" "http://www.w3.org/Graphics/SVG/1.1/DTD/svg11.dtd">
<!-- Generated by Microsoft Visio, SVG Export qos.svg Page-1 -->
<svg xmlns="http://www.w3.org/2000/svg" xmlns:xlink="http://www.w3.org/1999/xlink" xmlns:ev="http://www.w3.org/2001/xml-events"
		width="7.80196in" height="8.21957in" viewBox="0 0 561.741 591.809" xml:space="preserve" color-interpolation-filters="sRGB"
		class="st19">
	<style type="text/css">
	<![CDATA[
		.st1 {stroke:#333f48;stroke-linecap:round;stroke-linejoin:round;stroke-width:1}
		.st2 {fill:#feffff;stroke:#333f48;stroke-width:1}
		.st3 {fill:none;stroke:#333f48;stroke-width:1}
		.st4 {fill:#333f48;font-family:Arial;font-size:0.916672em}
		.st5 {stroke:#333f48;stroke-dasharray:7,5;stroke-linecap:round;stroke-linejoin:round;stroke-width:1}
		.st6 {fill:none;stroke:none;stroke-width:1}
		.st7 {fill:#333f48;font-family:Arial;font-size:0.666664em}
		.st8 {fill:#333f48;font-family:Arial;font-size:0.499992em}
		.st9 {marker-end:url(#mrkr4-63);stroke:#333f48;stroke-linecap:round;stroke-linejoin:round;stroke-width:1}
		.st10 {fill:#333f48;fill-opacity:1;stroke:#333f48;stroke-opacity:1;stroke-width:0.28409090909091}
		.st11 {marker-start:url(#mrkr4-74);stroke:#333f48;stroke-dasharray:7,5;stroke-linecap:round;stroke-linejoin:round;stroke-width:1}
		.st12 {marker-start:url(#mrkr4-74);stroke:#333f48;stroke-linecap:round;stroke-linejoin:round;stroke-width:1}
		.st13 {fill:#333f48;font-family:Arial;font-size:0.583328em}
		.st14 {marker-end:url(#mrkr4-63);stroke:#333f48;stroke-dasharray:7,5;stroke-linecap:round;stroke-linejoin:round;stroke-width:1}
		.st15 {fill:#feffff;stroke:none;stroke-width:1}
		.st16 {marker-end:url(#mrkr4-63);stroke:#333f48;stroke-linecap:butt;stroke-width:1}
		.st17 {fill:none;stroke:#000000;stroke-width:1}
		.st18 {fill:#000000;font-family:Arial;font-size:0.499992em}
		.st19 {fill:none;fill-rule:evenodd;font-size:12px;overflow:visible;stroke-linecap:square;stroke-miterlimit:3}
	]]>
	</style>

	<defs id="Markers">
		<g id="lend4">
			<path d="M 2 1 L 0 0 L 2 -1 L 2 1 " style="stroke:none"/>
		</g>
		<marker id="mrkr4-63" class="st10" refX="-7.04" orient="auto" markerUnits="strokeWidth" overflow="visible">
			<use xlink:href="#lend4" transform="scale(-3.52,-3.52) "/>
		</marker>
		<marker id="mrkr4-74" class="st10" refX="6.68" orient="auto" markerUnits="strokeWidth" overflow="visible">
			<use xlink:href="#lend4" transform="scale(3.52) "/>
		</marker>
	</defs>
	<g>
		<title>Page-1</title>
		<g id="shape18-1" transform="translate(170.241,-573.801)">
			<title>Dynamic connector.18</title>
			<path d="M6.51 591.81 L7.67 1146.59" class="st1"/>
		</g>
		<g id="shape19-4" transform="translate(172.013,-31.0889)">
			<title>Nordic Blue.19</title>
			<rect x="0" y="60.9398" width="11.3935" height="530.869" class="st2"/>
		</g>
		<g id="shape5-6" transform="translate(1,-573.626)">
			<title>Nordic Blue</title>
			<desc>Transport library</desc>
			<rect x="0" y="574.801" width="90.7087" height="17.0079" class="st3"/>
			<text x="5.32" y="586.6" class="st4">Transport library</text>		</g>
		<g id="shape6-9" transform="translate(53.4409,-573.626)">
			<title>Dynamic connector</title>
			<path d="M-7.09 591.81 L-7.09 1146.41" class="st5"/>
		</g>
		<g id="shape7-12" transform="translate(1,-1)">
			<title>Nordic Blue.7</title>
			<desc>Transport library</desc>
			<rect x="0" y="573.789" width="90.7087" height="18.0202" class="st3"/>
			<text x="5.32" y="586.1" class="st4">Transport library</text>		</g>
		<g id="shape8-15" transform="translate(131.394,-573.801)">
			<title>Nordic Blue.8</title>
			<desc>Application</desc>
			<rect x="0" y="574.801" width="90.7087" height="17.0079" class="st3"/>
			<text x="18.45" y="586.6" class="st4">Application</text>		</g>
		<g id="shape9-18" transform="translate(257.526,-573.801)">
			<title>Nordic Blue.9</title>
			<desc>QoS</desc>
			<rect x="0" y="574.801" width="90.7087" height="17.0079" class="st3"/>
			<text x="34.35" y="586.6" class="st4">QoS</text>		</g>
		<g id="shape11-21" transform="translate(359.072,-573.801)">
			<title>Nordic Blue.11</title>
			<desc>List</desc>
			<rect x="0" y="574.801" width="90.7087" height="17.0079" class="st3"/>
			<text x="36.8" y="586.6" class="st4">List</text>		</g>
		<g id="shape12-24" transform="translate(135.646,-1)">
			<title>Nordic Blue.12</title>
			<desc>Application</desc>
			<rect x="0" y="573.789" width="90.7087" height="18.0202" class="st3"/>
			<text x="18.45" y="586.1" class="st4">Application</text>		</g>
		<g id="shape13-27" transform="translate(258.707,-1.50619)">
			<title>Nordic Blue.13</title>
			<desc>QoS</desc>
			<rect x="0" y="573.789" width="90.7087" height="18.0202" class="st3"/>
			<text x="34.35" y="586.1" class="st4">QoS</text>		</g>
		<g id="shape14-30" transform="translate(470.033,-1.50619)">
			<title>Nordic Blue.14</title>
			<desc>Kernel</desc>
			<rect x="0" y="573.789" width="90.7087" height="18.0202" class="st3"/>
			<text x="29.46" y="586.1" class="st4">Kernel</text>		</g>
		<g id="shape15-33" transform="translate(365.252,-1.50619)">
			<title>Nordic Blue.15</title>
			<desc>List</desc>
			<rect x="0" y="573.789" width="90.7087" height="18.0202" class="st3"/>
			<text x="36.8" y="586.1" class="st4">List</text>		</g>
		<g id="shape16-36" transform="translate(51.315,-407.693)">
			<title>Nordic Blue.16</title>
			<rect x="0" y="566.471" width="15.5906" height="25.3373" class="st6"/>
		</g>
		<g id="shape22-38" transform="translate(54.8034,-475.373)">
			<title>Sheet.22</title>
			<desc>transport_send(message)</desc>
			<rect x="0" y="579.9" width="110.551" height="11.9089" class="st6"/>
			<text x="9.7" y="589.15" class="st7">transport_send(message)</text>		</g>
		<g id="shape26-41" transform="translate(84.6221,-457.51)">
			<title>Sheet.26</title>
			<desc>Return value</desc>
			<rect x="0" y="579.9" width="55.2756" height="11.9089" class="st6"/>
			<text x="4.96" y="589.15" class="st7">Return value</text>		</g>
		<g id="shape17-44" transform="translate(40.6576,-457.51)">
			<title>Nordic Blue.17</title>
			<rect x="0" y="579.9" width="11.3935" height="11.9089" class="st2"/>
		</g>
		<g id="shape28-46" transform="translate(41.5434,-418.798)">
			<title>Sheet.28</title>
			<desc>TRANSPORT_MESSAGE_ACKNOWLEDGED</desc>
			<rect x="0" y="580.4" width="134.646" height="11.4086" class="st6"/>
			<text x="4.81" y="587.9" class="st8">TRANSPORT_MESSAGE_ACKNOWLEDGED</text>		</g>
		<g id="shape35-49" transform="translate(311.148,-573.801)">
			<title>Dynamic connector.35</title>
			<path d="M-7.09 591.81 L-7.09 1146.08" class="st5"/>
		</g>
		<g id="shape36-52" transform="translate(400.968,-573.801)">
			<title>Dynamic connector.36</title>
			<path d="M4.54 591.81 L9.64 1146.08" class="st5"/>
		</g>
		<g id="shape37-55" transform="translate(505.472,-572.789)">
			<title>Dynamic connector.37</title>
			<path d="M4.35 591.81 L9.83 1145.07" class="st5"/>
		</g>
		<g id="shape38-58" transform="translate(183.407,-564.873)">
			<title>Dynamic connector.38</title>
			<path d="M0 598.75 L107.92 599.02" class="st9"/>
		</g>
		<g id="shape39-64" transform="translate(198.008,-561.958)">
			<title>Sheet.39</title>
			<desc>qos_init(handler)</desc>
			<rect x="0" y="586.676" width="79.3701" height="5.13258" class="st6"/>
			<text x="9.89" y="591.64" class="st7">qos_init(handler)</text>		</g>
		<g id="shape40-67" transform="translate(298.364,-545.736)">
			<title>Nordic Blue.40</title>
			<rect x="0" y="579.9" width="11.3935" height="11.9089" class="st2"/>
		</g>
		<g id="shape41-69" transform="translate(183.407,-553.253)">
			<title>Dynamic connector.41</title>
			<path d="M6.68 598.52 L7.04 598.52 L114.96 599.33" class="st11"/>
		</g>
		<g id="shape42-75" transform="translate(205.902,-545.405)">
			<title>Sheet.42</title>
			<desc>Return value</desc>
			<rect x="0" y="579.9" width="55.2756" height="11.9089" class="st6"/>
			<text x="4.96" y="589.15" class="st7">Return value</text>		</g>
		<g id="shape44-78" transform="translate(298.364,-430.452)">
			<title>Nordic Blue.44</title>
			<rect x="0" y="492.842" width="11.3935" height="98.9673" class="st2"/>
		</g>
		<g id="shape45-80" transform="translate(188.142,-472.849)">
			<title>Dynamic connector.45</title>
			<path d="M6.68 584.72 L7.04 584.72 L110.22 584.72" class="st12"/>
		</g>
		<g id="shape46-85" transform="translate(185.473,-479.935)">
			<title>Sheet.46</title>
			<desc>QOS_EVENT_MESSAGE_NEW</desc>
			<rect x="0" y="580.4" width="110.551" height="11.4086" class="st6"/>
			<text x="4.51" y="588.2" class="st13">QOS_EVENT_MESSAGE_NEW</text>		</g>
		<g id="shape47-88" transform="translate(188.142,-452.641)">
			<title>Dynamic connector.47</title>
			<path d="M0 598.89 L103.18 598.9" class="st14"/>
		</g>
		<g id="shape48-93" transform="translate(183.407,-423.181)">
			<title>Dynamic connector.48</title>
			<path d="M6.68 584.88 L7.04 584.88 L114.96 584.54" class="st11"/>
		</g>
		<g id="shape49-98" transform="translate(204.666,-430.298)">
			<title>Sheet.49</title>
			<desc>Return value</desc>
			<rect x="0" y="579.9" width="55.2756" height="11.9089" class="st6"/>
			<text x="4.96" y="589.15" class="st7">Return value</text>		</g>
		<g id="shape50-101" transform="translate(298.364,-351.845)">
			<title>Nordic Blue.50</title>
			<rect x="0" y="534.706" width="11.3935" height="57.1024" class="st2"/>
		</g>
		<g id="shape51-103" transform="translate(189.103,-401.818)">
			<title>Dynamic connector.51</title>
			<path d="M0 584.77 L102.22 584.68" class="st9"/>
		</g>
		<g id="shape52-108" transform="translate(308.867,-408.947) scale(-1,1)">
			<title>Sheet.52</title>
			<desc>qos_message_remove(message.id)</desc>
			<rect x="0" y="577.636" width="123.394" height="14.1732" class="st6"/>
			<text x="-117.33" y="586.82" transform="scale(-1,1)" class="st13">qos_message_remove(message.id)</text>		</g>
		<g id="shape53-111" transform="translate(189.103,-344.715)">
			<title>Dynamic connector.53</title>
			<path d="M6.68 584.76 L7.04 584.76 L109.26 584.68" class="st11"/>
		</g>
		<g id="shape54-116" transform="translate(206.512,-351.845)">
			<title>Sheet.54</title>
			<desc>Return value</desc>
			<rect x="0" y="579.9" width="60.5443" height="11.9089" class="st6"/>
			<text x="7.59" y="589.15" class="st7">Return value</text>		</g>
		<g id="shape55-119" transform="translate(183.407,-522.255)">
			<title>Dynamic connector.55</title>
			<path d="M0 584.8 L107.92 584.65" class="st9"/>
		</g>
		<g id="shape20-124" transform="translate(176.748,-445.564)">
			<title>Nordic Blue.20</title>
			<rect x="0" y="557.438" width="11.3935" height="34.371" class="st2"/>
		</g>
		<g id="shape29-126" transform="translate(177.71,-339.85)">
			<title>Nordic Blue.29</title>
			<rect x="0" y="514.746" width="11.3935" height="77.0628" class="st2"/>
		</g>
		<g id="shape27-128" transform="translate(46.3543,-409.559)">
			<title>Dynamic connector.27</title>
			<path d="M0 584.89 L123.68 584.57" class="st9"/>
		</g>
		<g id="shape56-133" transform="translate(309.758,-517.409)">
			<title>Dynamic connector.56</title>
			<path d="M0 584.87 L83.46 584.6" class="st9"/>
		</g>
		<g id="shape57-138" transform="translate(305.901,-528.447)">
			<title>Sheet.57</title>
			<desc>list_append(message)</desc>
			<rect x="0" y="586.676" width="96.7677" height="5.13258" class="st6"/>
			<text x="9.03" y="591.64" class="st7">list_append(message)</text>		</g>
		<g id="shape58-141" transform="translate(309.758,-505.578)">
			<title>Dynamic connector.58</title>
			<path d="M6.68 584.78 L7.04 584.78 L90.5 584.65" class="st11"/>
		</g>
		<g id="shape59-146" transform="translate(319.925,-512.734)">
			<title>Sheet.59</title>
			<desc>Return value</desc>
			<rect x="0" y="579.9" width="55.2756" height="11.9089" class="st6"/>
			<text x="4.96" y="589.45" class="st7">Return value</text>		</g>
		<g id="shape60-149" transform="translate(400.253,-512.734)">
			<title>Nordic Blue.60</title>
			<rect x="0" y="579.9" width="11.3935" height="11.9089" class="st2"/>
		</g>
		<g id="shape61-151" transform="translate(506.015,-485.575)">
			<title>Nordic Blue.61</title>
			<rect x="0" y="579.9" width="11.3935" height="11.9089" class="st2"/>
		</g>
		<g id="shape63-153" transform="translate(309.758,-504.352)">
			<title>Dynamic connector.63</title>
			<path d="M0 598.9 L189.22 598.9" class="st9"/>
		</g>
		<g id="shape65-158" transform="translate(320.263,-498.364)">
			<title>Sheet.65</title>
			<desc>k_work_reschedule(delayed_work,backoff)</desc>
			<rect x="0" y="582.668" width="163.678" height="9.14055" class="st15"/>
			<text x="6.02" y="589.64" class="st7">k_work_reschedule(delayed_work,backoff)</text>		</g>
		<g id="shape67-161" transform="translate(361,-487.122)">
			<title>Sheet.67</title>
			<desc>Return value</desc>
			<rect x="0" y="584.734" width="79.3701" height="7.07456" class="st15"/>
			<text x="17.01" y="591.57" class="st7">Return value</text>		</g>
		<g id="shape66-164" transform="translate(309.758,-492.767)">
			<title>Dynamic connector.66</title>
			<path d="M6.68 598.8 L7.04 598.8 L196.26 599" class="st11"/>
		</g>
		<g id="shape25-169" transform="translate(52.0511,-463.923)">
			<title>Dynamic connector.25</title>
			<path d="M0 598.22 L117.91 599.49" class="st14"/>
		</g>
		<g id="shape43-174" transform="translate(179.979,-532.1)">
			<title>Sheet.43</title>
			<desc>qos_add_message(message)</desc>
			<rect x="0" y="579.9" width="115.428" height="11.9089" class="st6"/>
			<text x="5.02" y="589.15" class="st7">qos_add_message(message)</text>		</g>
		<g id="shape21-177" transform="translate(52.018,-475.707)">
			<title>Dynamic connector.21</title>
			<path d="M6.68 598.68 L7.04 598.68 L124.91 599.14" class="st12"/>
		</g>
		<g id="shape72-182" transform="translate(310.827,-407.85)">
			<title>Dynamic connector.72</title>
			<path d="M0 598.77 L84.24 599" class="st9"/>
		</g>
		<g id="shape73-187" transform="translate(402.102,-388.73)">
			<title>Nordic Blue.73</title>
			<rect x="0" y="579.9" width="11.3935" height="11.9089" class="st2"/>
		</g>
		<g id="shape74-189" transform="translate(309.758,-381.557)">
			<title>Dynamic connector.74</title>
			<path d="M6.68 584.8 L7.04 584.8 L92.34 584.64" class="st11"/>
		</g>
		<g id="shape75-194" transform="translate(314.228,-392.138)">
			<title>Sheet.75</title>
			<desc>Return value</desc>
			<rect x="0" y="584.734" width="70.8662" height="7.07456" class="st15"/>
			<text x="12.75" y="591.57" class="st7">Return value</text>		</g>
		<g id="shape76-197" transform="translate(307.667,-402.125)">
			<title>Sheet.76</title>
			<desc>list_remove(message.id)</desc>
			<rect x="0" y="579.9" width="99.186" height="11.9089" class="st6"/>
			<text x="6.02" y="589.15" class="st7">list_remove(message.id)</text>		</g>
		<g id="shape78-200" transform="translate(506.015,-361.202)">
			<title>Nordic Blue.78</title>
			<rect x="0" y="579.9" width="11.3935" height="11.9089" class="st2"/>
		</g>
		<g id="shape79-202" transform="translate(309.758,-365.74)">
			<title>Dynamic connector.79</title>
			<path d="M0 585.01 L189.22 584.46" class="st9"/>
		</g>
		<g id="shape81-207" transform="translate(309.758,-353.62)">
			<title>Dynamic connector.81</title>
			<path d="M6.68 585.19 L7.04 585.18 L207.65 584.23" class="st11"/>
		</g>
		<g id="shape82-212" transform="translate(368.087,-362.834)">
			<title>Sheet.82</title>
			<desc>Return value</desc>
			<rect x="0" y="582.752" width="79.3701" height="9.05663" class="st15"/>
			<text x="17.01" y="590.58" class="st7">Return value</text>		</g>
		<g id="shape398-215" transform="translate(464.465,-572.789)">
			<title>Nordic Blue.398</title>
			<desc>Kernel</desc>
			<rect x="0" y="573.789" width="90.7087" height="18.0202" class="st3"/>
			<text x="29.46" y="586.1" class="st4">Kernel</text>		</g>
		<g id="shape464-218" transform="translate(176.906,-229.11)">
			<title>Nordic Blue.281</title>
			<rect x="0" y="563.181" width="11.3935" height="28.6282" class="st2"/>
		</g>
		<g id="shape465-220" transform="translate(54.9613,-253.621)">
			<title>Sheet.465</title>
			<desc>transport_send(message)</desc>
			<rect x="0" y="579.9" width="110.551" height="11.9089" class="st6"/>
			<text x="9.7" y="589.15" class="st7">transport_send(message)</text>		</g>
		<g id="shape466-223" transform="translate(81.7874,-238.742)">
			<title>Sheet.466</title>
			<desc>Return value</desc>
			<rect x="0" y="579.9" width="55.2756" height="11.9089" class="st6"/>
			<text x="4.96" y="589.15" class="st7">Return value</text>		</g>
		<g id="shape467-226" transform="translate(40.6576,-237.05)">
			<title>Nordic Blue.284</title>
			<rect x="0" y="579.9" width="11.3935" height="11.9089" class="st2"/>
		</g>
		<g id="shape468-228" transform="translate(52.0511,-244.06)">
			<title>Dynamic connector.285</title>
			<path d="M0 598.82 L118.36 598.96" class="st14"/>
		</g>
		<g id="shape469-233" transform="translate(52.0511,-242.211)">
			<title>Dynamic connector.286</title>
			<path d="M6.68 585.02 L7.04 585.02 L124.33 584.38" class="st12"/>
		</g>
		<g id="shape470-238" transform="translate(180.474,-314.209)">
			<title>Sheet.470</title>
			<desc>qos_add_message(message)</desc>
			<rect x="0" y="581.665" width="114.438" height="10.1434" class="st6"/>
			<text x="4.52" y="589.14" class="st7">qos_add_message(message)</text>		</g>
		<g id="shape471-241" transform="translate(184.118,-305.058)">
			<title>Dynamic connector.68</title>
			<path d="M0 584.72 L107.21 584.72" class="st9"/>
		</g>
		<g id="shape472-246" transform="translate(298.364,-216.636)">
			<title>Nordic Blue.70</title>
			<rect x="0" y="496.3" width="11.3935" height="95.5086" class="st2"/>
		</g>
		<g id="shape473-248" transform="translate(188.299,-250.793)">
			<title>Dynamic connector.92</title>
			<path d="M6.68 584.85 L7.04 584.85 L110.06 584.58" class="st12"/>
		</g>
		<g id="shape474-253" transform="translate(189.907,-258.686)">
			<title>Sheet.474</title>
			<desc>QOS_EVT_MESSAGE_NEW</desc>
			<rect x="0" y="580.4" width="108.457" height="11.4086" class="st6"/>
			<text x="8.33" y="588.2" class="st13">QOS_EVT_MESSAGE_NEW</text>		</g>
		<g id="shape475-256" transform="translate(188.299,-236.054)">
			<title>Dynamic connector.94</title>
			<path d="M0 598.75 L103.02 599.02" class="st14"/>
		</g>
		<g id="shape476-261" transform="translate(183.407,-223.793)">
			<title>Dynamic connector.98</title>
			<path d="M6.68 598.83 L7.04 598.83 L114.96 598.97" class="st11"/>
		</g>
		<g id="shape477-266" transform="translate(210.764,-216.636)">
			<title>Sheet.477</title>
			<desc>Return value</desc>
			<rect x="0" y="579.9" width="60.5443" height="11.9089" class="st6"/>
			<text x="7.59" y="589.15" class="st7">Return value</text>		</g>
		<g id="shape479-269" transform="translate(186.806,-195.973)">
			<title>Sheet.479</title>
			<desc>QOS_EVT_MESSAGE_EXPIRED</desc>
			<rect x="0" y="581.665" width="115.947" height="10.1434" class="st6"/>
			<text x="4.87" y="588.84" class="st13">QOS_EVT_MESSAGE_EXPIRED</text>		</g>
		<g id="shape480-272" transform="translate(298.364,-150.747)">
			<title>Nordic Blue.106</title>
			<rect x="0" y="549.058" width="11.3935" height="42.7507" class="st2"/>
		</g>
		<g id="shape481-274" transform="translate(177.906,-160.231)">
			<title>Nordic Blue.130</title>
			<rect x="0" y="558.542" width="11.077" height="33.2668" class="st2"/>
		</g>
		<g id="shape482-276" transform="translate(188.983,-167.315)">
			<title>Dynamic connector.110</title>
			<path d="M0 598.89 L102.34 598.9" class="st14"/>
		</g>
		<g id="shape483-281" transform="translate(54.5528,-186.811)">
			<title>Sheet.483</title>
			<desc>transport_send(message)</desc>
			<rect x="0" y="579.9" width="110.551" height="11.9089" class="st6"/>
			<text x="9.7" y="589.15" class="st7">transport_send(message)</text>		</g>
		<g id="shape484-284" transform="translate(40.4071,-172.01)">
			<title>Nordic Blue.147</title>
			<rect x="0" y="579.9" width="11.3935" height="11.9089" class="st2"/>
		</g>
		<g id="shape485-286" transform="translate(51.8005,-178.808)">
			<title>Dynamic connector.115</title>
			<path d="M0 598.61 L118.75 599.15" class="st14"/>
		</g>
		<g id="shape486-291" transform="translate(51.7675,-191.305)">
			<title>Dynamic connector.116</title>
			<path d="M6.68 598.73 L7.04 598.73 L125.79 599.08" class="st12"/>
		</g>
		<g id="shape487-296" transform="translate(188.983,-186.411)">
			<title>Dynamic connector.132</title>
			<path d="M6.68 584.72 L7.04 584.72 L109.38 584.72" class="st12"/>
		</g>
		<g id="shape488-301" transform="translate(46.3543,-346.983)">
			<title>Dynamic connector.30</title>
			<path d="M6.68 598.85 L7.04 598.85 L131.36 598.94" class="st11"/>
		</g>
		<g id="shape489-306" transform="translate(83.2047,-172.01)">
			<title>Sheet.489</title>
			<desc>Return value</desc>
			<rect x="0" y="579.9" width="55.2756" height="11.9089" class="st6"/>
			<text x="4.96" y="589.15" class="st7">Return value</text>		</g>
		<g id="shape491-309" transform="translate(42.1024,-127.061)">
			<title>Sheet.491</title>
			<desc>TRANSPORT_MESSAGE_ACKNOWLEDGED</desc>
			<rect x="0" y="580.4" width="134.646" height="11.4086" class="st6"/>
			<text x="4.81" y="587.9" class="st8">TRANSPORT_MESSAGE_ACKNOWLEDGED</text>		</g>
		<g id="shape492-312" transform="translate(177.239,-49.9979)">
			<title>Nordic Blue.200</title>
			<rect x="0" y="514.746" width="11.3935" height="77.0628" class="st2"/>
		</g>
		<g id="shape493-314" transform="translate(46.3543,-119.974)">
			<title>Dynamic connector.201</title>
			<path d="M0 584.72 L123.85 584.72" class="st9"/>
		</g>
		<g id="shape494-319" transform="translate(46.3543,-42.4663)">
			<title>Dynamic connector.202</title>
			<path d="M6.68 585.12 L7.04 585.12 L130.89 584.28" class="st11"/>
		</g>
		<g id="shape495-324" transform="translate(298.364,-64.2782)">
			<title>Nordic Blue.195</title>
			<rect x="0" y="534.706" width="11.3935" height="57.1024" class="st2"/>
		</g>
		<g id="shape496-326" transform="translate(188.633,-128.614)">
			<title>Dynamic connector.196</title>
			<path d="M0 598.75 L102.69 599.02" class="st9"/>
		</g>
		<g id="shape497-331" transform="translate(176.748,-121.381)">
			<title>Sheet.497</title>
			<desc>qos_message_remove(message.id)</desc>
			<rect x="0" y="579.9" width="138.685" height="11.9089" class="st6"/>
			<text x="13.71" y="587.95" class="st13">qos_message_remove(message.id)</text>		</g>
		<g id="shape498-334" transform="translate(188.633,-71.575)">
			<title>Dynamic connector.198</title>
			<path d="M6.68 598.71 L7.04 598.71 L109.73 599.11" class="st11"/>
		</g>
		<g id="shape499-339" transform="translate(206.512,-64.2782)">
			<title>Sheet.499</title>
			<desc>Return value</desc>
			<rect x="0" y="579.9" width="60.5443" height="11.9089" class="st6"/>
			<text x="7.59" y="589.15" class="st7">Return value</text>		</g>
		<g id="shape500-342" transform="translate(309.758,-296.711)">
			<title>Dynamic connector.84</title>
			<path d="M0 584.86 L83.19 584.61" class="st9"/>
		</g>
		<g id="shape501-347" transform="translate(399.988,-292.028)">
			<title>Nordic Blue.85</title>
			<rect x="0" y="579.9" width="11.3935" height="11.9089" class="st2"/>
		</g>
		<g id="shape502-349" transform="translate(309.758,-299.119)">
			<title>Dynamic connector.86</title>
			<path d="M6.68 598.89 L7.04 598.89 L90.23 598.9" class="st11"/>
		</g>
		<g id="shape503-354" transform="translate(310.214,-294.588)">
			<title>Sheet.503</title>
			<desc>Return value</desc>
			<rect x="0" y="584.26" width="79.3701" height="7.54889" class="st15"/>
			<text x="17.01" y="591.33" class="st7">Return value</text>		</g>
		<g id="shape504-357" transform="translate(304.061,-306.19)">
			<title>Sheet.504</title>
			<desc>list_append(message)</desc>
			<rect x="0" y="579.9" width="99.186" height="11.9089" class="st6"/>
			<text x="10.24" y="589.15" class="st7">list_append(message)</text>		</g>
		<g id="shape505-360" transform="translate(506.015,-265.293)">
			<title>Nordic Blue.89</title>
			<rect x="0" y="579.9" width="11.3935" height="11.9089" class="st2"/>
		</g>
		<g id="shape506-362" transform="translate(323.885,-280.335)">
			<title>Sheet.506</title>
			<desc>k_work_reschedule(delayed_work, backoff)</desc>
			<rect x="0" y="586.282" width="170.581" height="5.52672" class="st15"/>
			<text x="8.36" y="591.45" class="st7">k_work_reschedule(delayed_work, backoff)</text>		</g>
		<g id="shape507-365" transform="translate(309.758,-258.114)">
			<title>Dynamic connector.90</title>
			<path d="M6.68 584.81 L7.04 584.81 L196.26 584.63" class="st11"/>
		</g>
		<g id="shape508-370" transform="translate(364.742,-270.256)">
			<title>Sheet.508</title>
			<desc>Return value</desc>
			<rect x="0" y="586.282" width="79.3701" height="5.52672" class="st15"/>
			<text x="17.01" y="592.35" class="st7">Return value</text>		</g>
		<g id="shape509-373" transform="translate(309.758,-270.021)">
			<title>Dynamic connector.509</title>
			<path d="M0 584.82 L189.22 584.63" class="st9"/>
		</g>
		<g id="shape510-378" transform="translate(320.478,-196.936)">
			<title>Sheet.510</title>
			<desc>timeout_handler_work_fn()</desc>
			<rect x="0" y="586.282" width="180.257" height="5.52672" class="st15"/>
			<text x="42.55" y="591.45" class="st7">timeout_handler_work_fn()</text>		</g>
		<g id="shape511-381" transform="translate(309.758,-186.641)">
			<title>Dynamic connector.223</title>
			<path d="M6.68 584.94 L7.04 584.94 L198.54 584.49" class="st12"/>
		</g>
		<g id="shape512-386" transform="translate(471.931,-229.259)">
			<title>Sheet.512</title>
			<desc>k_work_timer_expire</desc>
			<rect x="0" y="579.635" width="86.9274" height="12.1733" class="st15"/>
			<text x="6.56" y="589.02" class="st7">k_work_timer_expire</text>		</g>
		<g id="shape514-389" transform="translate(508.3,-31.0889)">
			<title>Nordic Blue.213</title>
			<rect x="0" y="414.766" width="11.3935" height="177.043" class="st2"/>
		</g>
		<g id="shape513-391" transform="translate(509.402,-222.93)">
			<title>Dynamic connector.513</title>
			<path d="M3.88 591.81 L28.76 591.81 L28.76 606.61 L17.33 606.61" class="st16"/>
		</g>
		<g id="shape515-396" transform="translate(309.758,-144.006)">
			<title>Dynamic connector.225</title>
			<path d="M0 585.07 L191.5 584.4" class="st14"/>
		</g>
		<g id="shape526-401" transform="translate(309.758,-108.462)">
			<title>Dynamic connector.203</title>
			<path d="M0 584.83 L88.22 584.63" class="st9"/>
		</g>
		<g id="shape527-406" transform="translate(405.02,-103.75)">
			<title>Nordic Blue.204</title>
			<rect x="0" y="579.9" width="11.3935" height="11.9089" class="st2"/>
		</g>
		<g id="shape528-408" transform="translate(309.758,-96.3093)">
			<title>Dynamic connector.205</title>
			<path d="M6.68 585.03 L7.04 585.02 L95.26 584.37" class="st11"/>
		</g>
		<g id="shape529-413" transform="translate(321.315,-105.285)">
			<title>Sheet.529</title>
			<desc>Return value</desc>
			<rect x="0" y="582.437" width="73.3345" height="9.37208" class="st15"/>
			<text x="13.99" y="590.42" class="st7">Return value</text>		</g>
		<g id="shape530-416" transform="translate(308.614,-118.021)">
			<title>Sheet.530</title>
			<desc>list_remove(message.id)</desc>
			<rect x="0" y="581.665" width="99.186" height="10.1434" class="st6"/>
			<text x="6.02" y="590.04" class="st7">list_remove(message.id)</text>		</g>
		<g id="shape533-419" transform="translate(345.409,-87.1046)">
			<title>Sheet.533</title>
			<desc>k_work_cancel_delayable(delayed_work)</desc>
			<rect x="0" y="580.4" width="154.443" height="11.4086" class="st15"/>
			<text x="4.07" y="588.5" class="st7">k_work_cancel_delayable(delayed_work)</text>		</g>
		<g id="shape534-422" transform="translate(309.758,-79.9502)">
			<title>Dynamic connector.211</title>
			<path d="M6.68 598.84 L7.04 598.84 L204.24 598.95" class="st11"/>
		</g>
		<g id="shape535-427" transform="translate(365.819,-75.0079)">
			<title>Sheet.535</title>
			<desc>Return value</desc>
			<rect x="0" y="584.26" width="79.3701" height="7.54889" class="st15"/>
			<text x="17.01" y="591.33" class="st7">Return value</text>		</g>
		<g id="shape531-430" transform="translate(513.997,-72.8081)">
			<title>Nordic Blue.208</title>
			<rect x="0" y="579.9" width="11.3935" height="11.9089" class="st2"/>
		</g>
		<g id="shape532-432" transform="translate(309.758,-91.8574)">
			<title>Dynamic connector.209</title>
			<path d="M0 598.84 L197.2 598.95" class="st9"/>
		</g>
		<g id="shape536-437" transform="translate(16.5906,-37.5467)">
			<title>Sheet.536</title>
			<rect x="0" y="305.51" width="544.151" height="286.299" class="st17"/>
		</g>
		<g id="shape80-439" transform="translate(330.578,-375.782)">
			<title>Sheet.80</title>
			<desc>k_work_cancel_delayable(delayed_work)</desc>
			<rect x="0" y="582.752" width="154.443" height="9.05663" class="st15"/>
			<text x="4.07" y="589.68" class="st7">k_work_cancel_delayable(delayed_work)</text>		</g>
		<g id="shape537-442" transform="translate(110.134,859.772) rotate(180)">
			<title>Custom 3</title>
			<desc>Single unAcked message</desc>
			<path d="M0 591.81 L93.54 591.81 L93.54 571.62 L17.01 571.62 L0 581.72 L0 591.81 Z" class="st2"/>
			<text x="-80.63" y="-579.32" transform="rotate(180)" class="st18">Single unAcked message</text>		</g>
	</g>
</svg>
