<?xml version="1.0" encoding="UTF-8" standalone="no"?>
<!DOCTYPE svg PUBLIC "-//W3C//DTD SVG 1.1//EN" "http://www.w3.org/Graphics/SVG/1.1/DTD/svg11.dtd">
<!-- Generated by Microsoft Visio, SVG Export supl_msc.svg Page-1 -->
<svg xmlns="http://www.w3.org/2000/svg" xmlns:xlink="http://www.w3.org/1999/xlink" xmlns:ev="http://www.w3.org/2001/xml-events"
		xmlns:v="http://schemas.microsoft.com/visio/2003/SVGExtensions/" width="7.31263in" height="4.48087in"
		viewBox="0 0 526.51 322.623" xml:space="preserve" color-interpolation-filters="sRGB" class="st23">
	<v:documentProperties v:langID="1035" v:metric="true" v:viewMarkup="false"/>

	<style type="text/css">
	<![CDATA[
		.st1 {fill:none;stroke:#333f48;stroke-width:0.999998}
		.st2 {fill:#333f48;font-family:Calibri;font-size:0.75em;font-weight:bold}
		.st3 {fill:#333f48;font-family:Calibri;font-size:0.666664em;font-weight:bold}
		.st4 {font-size:1em}
		.st5 {fill:none;stroke:none;stroke-width:0.999999}
		.st6 {fill:none}
		.st7 {stroke:#333f48;stroke-linecap:round;stroke-linejoin:round;stroke-width:0.75}
		.st8 {marker-start:url(#mrkr3-53);stroke:#333f48;stroke-dasharray:4,2;stroke-linecap:butt;stroke-width:0.5}
		.st9 {fill:#333f48;fill-opacity:1;stroke:#333f48;stroke-opacity:1;stroke-width:0.16556282994258}
		.st10 {marker-end:url(#mrkr3-59);stroke:#333f48;stroke-dasharray:4,2;stroke-linecap:butt;stroke-width:0.5}
		.st11 {marker-end:url(#mrkr3-59);stroke:#333f48;stroke-linecap:butt;stroke-width:0.5}
		.st12 {fill:none;stroke:none;stroke-width:0.999998}
		.st13 {fill:#333f48;font-family:Calibri;font-size:0.666664em}
		.st14 {marker-end:url(#mrkr3-59);marker-start:url(#mrkr3-53);stroke:#333f48;stroke-dasharray:4,2;stroke-linecap:butt;stroke-width:0.5}
		.st15 {marker-start:url(#mrkr3-53);stroke:#333f48;stroke-linecap:butt;stroke-width:0.5}
		.st16 {fill:#333f48;font-family:Calibri;font-size:0.75em}
		.st17 {font-family:Wingdings;font-size:1em}
		.st18 {fill:#333f48;font-family:Calibri;font-size:0.75em;font-style:italic}
		.st19 {font-size:1em;font-style:normal}
		.st20 {font-family:Wingdings;font-size:1em;font-style:normal}
		.st21 {fill:#d9e1e2;stroke:#333f48;stroke-width:0.999998}
		.st22 {fill:none;stroke:#333f48;stroke-dasharray:6.99999,4.99999;stroke-width:0.999998}
		.st23 {fill:none;fill-rule:evenodd;font-size:12px;overflow:visible;stroke-linecap:square;stroke-miterlimit:3}
	]]>
	</style>

	<defs id="Markers">
		<g id="lend3">
			<path d="M 2 1 L 0 0 L 2 -1 " style="stroke-linecap:round;stroke-linejoin:round;fill:none"/>
		</g>
		<marker id="mrkr3-53" class="st9" v:arrowType="3" v:arrowSize="2" orient="auto" markerUnits="strokeWidth"
				overflow="visible">
			<use xlink:href="#lend3" transform="scale(6.0400030631683) "/>
		</marker>
		<marker id="mrkr3-59" class="st9" v:arrowType="3" v:arrowSize="2" orient="auto" markerUnits="strokeWidth"
				overflow="visible">
			<use xlink:href="#lend3" transform="scale(-6.0400030631683,-6.0400030631683) "/>
		</marker>
	</defs>
	<g v:mID="0" v:index="1" v:groupContext="foregroundPage">
		<title>Page-1</title>
		<v:pageProperties v:drawingScale="0.0393701" v:pageScale="0.0393701" v:drawingUnits="24" v:shadowOffsetX="8.50392"
				v:shadowOffsetY="-8.50392"/>
		<g id="shape1-1" v:mID="1" v:groupContext="shape" transform="translate(353.209,-300.613)">
			<title>Sheet.1</title>
			<desc>GPS</desc>
			<v:userDefs/>
			<v:textBlock v:margins="rect(4,4,4,4)" v:tabSpace="42.5197"/>
			<v:textRect cx="27.8567" cy="312.121" width="55.72" height="21.0092"/>
			<path d="M0 316.95 A5.66942 5.66942 -180 0 0 5.67 322.62 L50.04 322.62 A5.66942 5.66942 -180 0 0 55.71 316.95 L55.71
						 307.28 A5.66942 5.66942 -180 0 0 50.04 301.61 L5.67 301.61 A5.66942 5.66942 -180 0 0 -0 307.28 L0 316.95
						 Z" class="st1"/>
			<text x="17.77" y="314.82" class="st2" v:langID="1035"><v:paragraph v:horizAlign="1"/><v:tabList/>GNSS</text>		</g>
		<g id="shape2-4" v:mID="2" v:groupContext="shape" transform="translate(410.949,-300.613)">
			<title>Sheet.2</title>
			<desc>Modem</desc>
			<v:userDefs/>
			<v:textBlock v:margins="rect(4,4,4,4)" v:tabSpace="42.5197"/>
			<v:textRect cx="27.8567" cy="312.121" width="55.72" height="21.0092"/>
			<path d="M0 316.95 A5.66942 5.66942 -180 0 0 5.67 322.62 L50.04 322.62 A5.66942 5.66942 -180 0 0 55.71 316.95 L55.71
						 307.28 A5.66942 5.66942 -180 0 0 50.04 301.61 L5.67 301.61 A5.66942 5.66942 -180 0 0 -0 307.28 L0 316.95
						 Z" class="st1"/>
			<text x="13.16" y="314.82" class="st2" v:langID="1035"><v:paragraph v:horizAlign="1"/><v:tabList/>Modem</text>		</g>
		<g id="shape3-7" v:mID="3" v:groupContext="shape" transform="translate(469.8,-300.613)">
			<title>Sheet.3</title>
			<desc>SUPL server</desc>
			<v:userDefs/>
			<v:textBlock v:margins="rect(4,4,4,4)" v:tabSpace="42.5197"/>
			<v:textRect cx="27.8567" cy="312.121" width="55.72" height="21.0092"/>
			<path d="M0 316.95 A5.66942 5.66942 -180 0 0 5.67 322.62 L50.04 322.62 A5.66942 5.66942 -180 0 0 55.71 316.95 L55.71
						 307.28 A5.66942 5.66942 -180 0 0 50.04 301.61 L5.67 301.61 A5.66942 5.66942 -180 0 0 -0 307.28 L0 316.95
						 Z" class="st1"/>
			<text x="5.82" y="314.82" class="st2" v:langID="1035"><v:paragraph v:horizAlign="1"/><v:tabList/>SUPL server</text>		</g>
		<g id="shape4-10" v:mID="4" v:groupContext="shape" transform="translate(29.1642,-300.344)">
			<title>Sheet.4</title>
			<desc>Application + SUPL client OS integration</desc>
			<v:userDefs/>
			<v:textBlock v:margins="rect(4,4,4,4)" v:tabSpace="42.5197"/>
			<v:textRect cx="39.6004" cy="312.121" width="79.21" height="21.0092"/>
			<path d="M0 316.95 A5.66942 5.66942 -180 0 0 5.67 322.62 L73.53 322.62 A5.66942 5.66942 -180 0 0 79.2 316.95 L79.2 307.28
						 A5.66942 5.66942 -180 0 0 73.53 301.61 L5.67 301.61 A5.66942 5.66942 -180 0 0 -0 307.28 L0 316.95 Z"
					class="st1"/>
			<text x="8.48" y="309.72" class="st3" v:langID="1035"><v:paragraph v:horizAlign="1"/><v:tabList/>Application + SUPL <tspan
						x="5.52" dy="1.2em" class="st4">client OS integration</tspan></text>		</g>
		<g id="shape5-14" v:mID="5" v:groupContext="shape" transform="translate(116.78,-300.344)">
			<title>Sheet.5</title>
			<desc>SUPL client</desc>
			<v:userDefs/>
			<v:textBlock v:margins="rect(4,4,4,4)" v:tabSpace="42.5197"/>
			<v:textRect cx="27.8567" cy="312.121" width="55.72" height="21.0092"/>
			<path d="M0 316.95 A5.66942 5.66942 -180 0 0 5.67 322.62 L50.04 322.62 A5.66942 5.66942 -180 0 0 55.71 316.95 L55.71
						 307.28 A5.66942 5.66942 -180 0 0 50.04 301.61 L5.67 301.61 A5.66942 5.66942 -180 0 0 -0 307.28 L0 316.95
						 Z" class="st1"/>
			<text x="18.49" y="309.42" class="st2" v:langID="1035"><v:paragraph v:horizAlign="1"/><v:tabList/>SUPL<v:newlineChar/><tspan
						x="17.52" dy="1.2em" class="st4">client</tspan></text>		</g>
		<g id="group6-18" transform="translate(393.626,22.2827) rotate(90)" v:mID="6" v:groupContext="group">
			<title>Sheet.6</title>
			<g id="shape7-19" v:mID="7" v:groupContext="shape">
				<title>Sheet.7</title>
				<path d="M0 322.62 L297.19 322.62 L0 322.62 Z" class="st5"/>
			</g>
			<g id="shape8-21" v:mID="8" v:groupContext="shape">
				<title>Sheet.8</title>
				<path d="M0 322.62 L297.19 322.62 L0 322.62 Z" class="st6"/>
				<path d="M0 322.62 L297.19 322.62" class="st7"/>
			</g>
		</g>
		<g id="group9-24" transform="translate(467.267,22.2827) rotate(90)" v:mID="9" v:groupContext="group">
			<title>Sheet.9</title>
			<g id="shape10-25" v:mID="10" v:groupContext="shape">
				<title>Sheet.10</title>
				<path d="M0 322.62 L299.34 322.62 L0 322.62 Z" class="st5"/>
			</g>
			<g id="shape11-27" v:mID="11" v:groupContext="shape">
				<title>Sheet.11</title>
				<path d="M0 322.62 L299.34 322.62 L0 322.62 Z" class="st6"/>
				<path d="M0 322.62 L299.34 322.62" class="st7"/>
			</g>
		</g>
		<g id="group12-30" transform="translate(705.782,22.0143) rotate(90)" v:mID="12" v:groupContext="group">
			<title>Sheet.12</title>
			<g id="shape13-31" v:mID="13" v:groupContext="shape">
				<title>Sheet.13</title>
				<path d="M0 322.62 L297.28 322.62 L0 322.62 Z" class="st5"/>
			</g>
			<g id="shape14-33" v:mID="14" v:groupContext="shape">
				<title>Sheet.14</title>
				<path d="M0 322.62 L297.28 322.62 L0 322.62 Z" class="st6"/>
				<path d="M0 322.62 L297.28 322.62" class="st7"/>
			</g>
		</g>
		<g id="group15-36" transform="translate(761.436,22.0143) rotate(90)" v:mID="15" v:groupContext="group">
			<title>Sheet.15</title>
			<g id="shape16-37" v:mID="16" v:groupContext="shape">
				<title>Sheet.16</title>
				<path d="M0 322.62 L297.28 322.62 L0 322.62 Z" class="st5"/>
			</g>
			<g id="shape17-39" v:mID="17" v:groupContext="shape">
				<title>Sheet.17</title>
				<path d="M0 322.62 L297.28 322.62 L0 322.62 Z" class="st6"/>
				<path d="M0 322.62 L297.28 322.62" class="st7"/>
			</g>
		</g>
		<g id="group18-42" transform="translate(820.287,22.0143) rotate(90)" v:mID="18" v:groupContext="group">
			<title>Sheet.18</title>
			<g id="shape19-43" v:mID="19" v:groupContext="shape">
				<title>Sheet.19</title>
				<path d="M0 322.62 L297.28 322.62 L0 322.62 Z" class="st5"/>
			</g>
			<g id="shape20-45" v:mID="20" v:groupContext="shape">
				<title>Sheet.20</title>
				<path d="M0 322.62 L297.28 322.62 L0 322.62 Z" class="st6"/>
				<path d="M0 322.62 L297.28 322.62" class="st7"/>
			</g>
		</g>
		<g id="shape21-48" v:mID="21" v:groupContext="shape" transform="translate(71.0029,-279.339) rotate(0.00118546)">
			<title>Sheet.21</title>
			<path d="M0 322.62 L312.16 322.62" class="st8"/>
		</g>
		<g id="shape22-54" v:mID="22" v:groupContext="shape" transform="translate(71.0056,-265.333) rotate(0.00166835)">
			<title>Sheet.22</title>
			<path d="M0 322.62 L367.81 322.62" class="st10"/>
		</g>
		<g id="shape23-60" v:mID="23" v:groupContext="shape" transform="translate(70.7101,-10.2996) rotate(-0.0507975)">
			<title>Sheet.23</title>
			<path d="M0 322.62 L368.37 322.62" class="st10"/>
		</g>
		<g id="shape24-65" v:mID="24" v:groupContext="shape" transform="translate(71.013,-223.648) rotate(0.00299288)">
			<title>Sheet.24</title>
			<path d="M0 322.62 L367.81 322.62" class="st8"/>
		</g>
		<g id="shape25-70" v:mID="25" v:groupContext="shape" transform="translate(71.0168,-209.641) rotate(0.00365514)">
			<title>Sheet.25</title>
			<path d="M0 322.62 L367.81 322.62" class="st8"/>
		</g>
		<g id="shape26-75" v:mID="26" v:groupContext="shape" transform="translate(71.3297,-193.501)">
			<title>Sheet.26</title>
			<path d="M0 322.62 L71.63 322.62" class="st11"/>
		</g>
		<g id="shape27-80" v:mID="27" v:groupContext="shape" transform="translate(68.1046,-193.493)">
			<title>Sheet.27</title>
			<desc>supl_client_session()</desc>
			<v:userDefs/>
			<v:textBlock v:margins="rect(4,4,4,4)" v:tabSpace="42.5197"/>
			<v:textRect cx="39.6004" cy="317.3" width="79.21" height="10.6458"/>
			<rect x="0" y="311.977" width="79.2009" height="10.6458" class="st12"/>
			<text x="4" y="319.7" class="st13" v:langID="1035"><v:paragraph/><v:tabList/>supl_client_session()</text>		</g>
		<g id="shape28-83" v:mID="28" v:groupContext="shape" transform="translate(71.0093,-251.327) rotate(0.00233061)">
			<title>Sheet.28</title>
			<path d="M0 322.62 L367.81 322.62" class="st10"/>
		</g>
		<g id="shape29-88" v:mID="29" v:groupContext="shape" transform="translate(70.9962,-24.3059)">
			<title>Sheet.29</title>
			<path d="M0 322.62 L368.37 322.62" class="st10"/>
		</g>
		<g id="shape30-93" v:mID="30" v:groupContext="shape" transform="translate(70.9962,-176.405)">
			<title>Sheet.30</title>
			<path d="M0 322.62 L71.96 322.62" class="st8"/>
		</g>
		<g id="shape31-98" v:mID="31" v:groupContext="shape" transform="translate(69.6589,-169.971) rotate(-0.237459)">
			<title>Sheet.31</title>
			<path d="M0 322.62 L426.66 322.62" class="st10"/>
		</g>
		<g id="shape32-103" v:mID="32" v:groupContext="shape" transform="translate(70.9962,-160.866)">
			<title>Sheet.32</title>
			<path d="M0 322.62 L71.96 322.62" class="st14"/>
		</g>
		<g id="shape33-110" v:mID="33" v:groupContext="shape" transform="translate(69.5043,-154.28) rotate(-0.264912)">
			<title>Sheet.33</title>
			<path d="M0 322.62 L426.67 322.62" class="st8"/>
		</g>
		<g id="shape34-115" v:mID="34" v:groupContext="shape" transform="translate(12.5614,-168.503)">
			<title>Sheet.34</title>
			<desc>SUPL_Write</desc>
			<v:userDefs/>
			<v:textBlock v:margins="rect(4,4,4,4)" v:tabSpace="42.5197"/>
			<v:textRect cx="27.8567" cy="317.33" width="55.72" height="10.5866"/>
			<rect x="0" y="312.036" width="55.7134" height="10.5866" class="st12"/>
			<text x="12.01" y="320.03" class="st2" v:langID="1035"><v:paragraph v:horizAlign="2"/><v:tabList/>supl_write</text>		</g>
		<g id="shape35-118" v:mID="35" v:groupContext="shape" transform="translate(12.0717,-153.391)">
			<title>Sheet.35</title>
			<desc>SUPL_Read</desc>
			<v:userDefs/>
			<v:textBlock v:margins="rect(4,4,4,4)" v:tabSpace="42.5197"/>
			<v:textRect cx="27.8567" cy="317.33" width="55.72" height="10.5866"/>
			<rect x="0" y="312.036" width="55.7134" height="10.5866" class="st12"/>
			<text x="14.77" y="320.03" class="st2" v:langID="1035"><v:paragraph v:horizAlign="2"/><v:tabList/>supl_read</text>		</g>
		<g id="shape36-121" v:mID="36" v:groupContext="shape" transform="translate(70.9962,-145.312)">
			<title>Sheet.36</title>
			<path d="M0 322.62 L71.96 322.62" class="st8"/>
		</g>
		<g id="shape37-126" v:mID="37" v:groupContext="shape" transform="translate(69.5554,-138.874) rotate(-0.255837)">
			<title>Sheet.37</title>
			<path d="M0 322.62 L426.67 322.62" class="st10"/>
		</g>
		<g id="shape38-131" v:mID="38" v:groupContext="shape" transform="translate(12.0717,-138.279)">
			<title>Sheet.38</title>
			<desc>SUPL_Write</desc>
			<v:userDefs/>
			<v:textBlock v:margins="rect(4,4,4,4)" v:tabSpace="42.5197"/>
			<v:textRect cx="27.8567" cy="317.33" width="55.72" height="10.5866"/>
			<rect x="0" y="312.036" width="55.7134" height="10.5866" class="st12"/>
			<text x="12.01" y="320.03" class="st2" v:langID="1035"><v:paragraph v:horizAlign="2"/><v:tabList/>supl_write</text>		</g>
		<g id="shape39-134" v:mID="39" v:groupContext="shape" transform="translate(70.9962,-130.473)">
			<title>Sheet.39</title>
			<path d="M0 322.62 L71.96 322.62" class="st14"/>
		</g>
		<g id="shape40-141" v:mID="40" v:groupContext="shape" transform="translate(69.4103,-123.886) rotate(-0.281615)">
			<title>Sheet.40</title>
			<path d="M0 322.62 L426.67 322.62" class="st8"/>
		</g>
		<g id="shape41-146" v:mID="41" v:groupContext="shape" transform="translate(12.0717,-123.167)">
			<title>Sheet.41</title>
			<desc>SUPL_Read</desc>
			<v:userDefs/>
			<v:textBlock v:margins="rect(4,4,4,4)" v:tabSpace="42.5197"/>
			<v:textRect cx="27.8567" cy="317.33" width="55.72" height="10.5866"/>
			<rect x="0" y="312.036" width="55.7134" height="10.5866" class="st12"/>
			<text x="14.77" y="320.03" class="st2" v:langID="1035"><v:paragraph v:horizAlign="2"/><v:tabList/>supl_read</text>		</g>
		<g id="shape42-149" v:mID="42" v:groupContext="shape" transform="translate(70.9962,-71.6472)">
			<title>Sheet.42</title>
			<path d="M0 322.62 L71.96 322.62" class="st14"/>
		</g>
		<g id="shape43-156" v:mID="43" v:groupContext="shape" transform="translate(70.9962,-65.0648)">
			<title>Sheet.43</title>
			<path d="M0 322.62 L426.66 322.62" class="st8"/>
		</g>
		<g id="shape44-161" v:mID="44" v:groupContext="shape" transform="translate(10.7238,-64.5995)">
			<title>Sheet.44</title>
			<desc>SUPL_Read</desc>
			<v:userDefs/>
			<v:textBlock v:margins="rect(4,4,4,4)" v:tabSpace="42.5197"/>
			<v:textRect cx="27.8567" cy="317.33" width="55.72" height="10.5866"/>
			<rect x="0" y="312.036" width="55.7134" height="10.5866" class="st12"/>
			<text x="14.77" y="320.03" class="st2" v:langID="1035"><v:paragraph v:horizAlign="2"/><v:tabList/>supl_read</text>		</g>
		<g id="shape45-164" v:mID="45" v:groupContext="shape" transform="translate(70.9962,-102.181)">
			<title>Sheet.45</title>
			<path d="M0 322.62 L75.32 322.62" class="st8"/>
		</g>
		<g id="shape46-169" v:mID="46" v:groupContext="shape" transform="translate(71.0567,-94.6161) rotate(0.0107524)">
			<title>Sheet.46</title>
			<path d="M0 322.62 L312.16 322.62" class="st10"/>
		</g>
		<g id="shape47-174" v:mID="47" v:groupContext="shape" transform="translate(3.51285,-91.5277)">
			<title>Sheet.47</title>
			<desc>AGPS_Handler</desc>
			<v:userDefs/>
			<v:textBlock v:margins="rect(4,4,4,4)" v:tabSpace="42.5197"/>
			<v:textRect cx="39.6004" cy="317.3" width="79.21" height="10.6458"/>
			<rect x="0" y="311.977" width="79.2009" height="10.6458" class="st12"/>
			<text x="14.36" y="320" class="st2" v:langID="1035"><v:paragraph v:horizAlign="1"/><v:tabList/>agps_handler</text>		</g>
		<g id="shape48-177" v:mID="48" v:groupContext="shape" transform="translate(71.2991,-41.4593) rotate(0.0537872)">
			<title>Sheet.48</title>
			<path d="M0 322.62 L71.06 322.62" class="st15"/>
		</g>
		<g id="shape49-182" v:mID="49" v:groupContext="shape" transform="translate(49.6135,-274.428)">
			<title>Sheet.49</title>
			<ellipse cx="4.90216" cy="317.72" rx="4.90216" ry="4.90216" class="st1"/>
		</g>
		<g id="shape50-184" v:mID="50" v:groupContext="shape" transform="translate(147.337,-280.529)">
			<title>Sheet.50</title>
			<desc>nrf_recv (gps_data-&#62;data_id = NRF_GNSS_AGPS_DATA_ID )</desc>
			<v:userDefs/>
			<v:textBlock v:margins="rect(4,4,4,4)" v:tabSpace="42.5197"/>
			<v:textRect cx="114.869" cy="317.3" width="229.75" height="10.6458"/>
			<rect x="0" y="311.977" width="229.736" height="10.6458" class="st12"/>
			<text x="43.63" y="320" class="st16" v:langID="1035"><v:paragraph v:horizAlign="1"/><v:tabList/>NRF_MODEM_GNSS_EVT_AG<tspan
						class="st4" v:langID="1033">NSS</tspan>_REQ</text>		</g>
		<g id="shape51-188" v:mID="51" v:groupContext="shape" transform="translate(155.255,-265.325)">
			<title>Sheet.51</title>
			<desc>«Activate LTE (true)»</desc>
			<v:userDefs/>
			<v:textBlock v:margins="rect(4,4,4,4)" v:tabSpace="42.5197"/>
			<v:textRect cx="93.8411" cy="317.3" width="187.69" height="10.6458"/>
			<rect x="0" y="311.977" width="187.683" height="10.6458" class="st12"/>
			<text x="66.95" y="320" class="st16" v:langID="1035"><v:paragraph v:horizAlign="1"/><v:tabList/>«Activate LTE»</text>		</g>
		<g id="shape52-191" v:mID="52" v:groupContext="shape" transform="translate(155.255,-251.319)">
			<title>Sheet.52</title>
			<desc>Open SUPL Socket (TCP, «supl.google.com» «7276»)</desc>
			<v:userDefs/>
			<v:textBlock v:margins="rect(4,4,4,4)" v:tabSpace="42.5197"/>
			<v:textRect cx="109.826" cy="317.3" width="219.66" height="10.6458"/>
			<rect x="0" y="311.977" width="219.652" height="10.6458" class="st12"/>
			<text x="15.61" y="320" class="st16" v:langID="1035"><v:paragraph v:horizAlign="1"/><v:tabList/>Open SUPL socket (TCP, «supl.server.com» «7276»)</text>		</g>
		<g id="shape53-194" v:mID="53" v:groupContext="shape" transform="translate(155.255,-224.248)">
			<title>Sheet.53</title>
			<desc>AT_IMSI à Device ID</desc>
			<v:userDefs/>
			<v:textBlock v:margins="rect(4,4,4,4)" v:tabSpace="42.5197"/>
			<v:textRect cx="93.8411" cy="317.3" width="187.69" height="10.6458"/>
			<rect x="0" y="311.977" width="187.683" height="10.6458" class="st12"/>
			<text x="43.73" y="320.11" class="st16" v:langID="1035"><v:paragraph v:horizAlign="1"/><v:tabList/>AT+CGDCONT <tspan
						class="st17">à</tspan>  Device ID</text>		</g>
		<g id="shape54-198" v:mID="54" v:groupContext="shape" transform="translate(155.255,-211.307)">
			<title>Sheet.54</title>
			<desc>AT_XMONITOR à LTE info</desc>
			<v:userDefs/>
			<v:textBlock v:margins="rect(4,4,4,4)" v:tabSpace="42.5197"/>
			<v:textRect cx="93.8411" cy="317.3" width="187.69" height="10.6458"/>
			<rect x="0" y="311.977" width="187.683" height="10.6458" class="st12"/>
			<text x="44.13" y="320.11" class="st16" v:langID="1035"><v:paragraph v:horizAlign="1"/><v:tabList/>AT%XMONITOR <tspan
						class="st17">à</tspan> LTE info</text>		</g>
		<g id="shape55-202" v:mID="55" v:groupContext="shape" transform="translate(155.255,-10.2921)">
			<title>Sheet.55</title>
			<desc>«Activate LTE (false)»</desc>
			<v:userDefs/>
			<v:textBlock v:margins="rect(4,4,4,4)" v:tabSpace="42.5197"/>
			<v:textRect cx="93.8411" cy="317.3" width="187.69" height="10.6458"/>
			<rect x="0" y="311.977" width="187.683" height="10.6458" class="st12"/>
			<text x="62.39" y="320" class="st16" v:langID="1035"><v:paragraph v:horizAlign="1"/><v:tabList/>«Deactivate LTE»</text>		</g>
		<g id="shape56-205" v:mID="56" v:groupContext="shape" transform="translate(155.255,-26.6787)">
			<title>Sheet.56</title>
			<desc>close_supl_socket ()</desc>
			<v:userDefs/>
			<v:textBlock v:margins="rect(4,4,4,4)" v:tabSpace="42.5197"/>
			<v:textRect cx="93.8411" cy="317.3" width="187.69" height="10.6458"/>
			<rect x="0" y="311.977" width="187.683" height="10.6458" class="st12"/>
			<text x="61" y="320" class="st16" v:langID="1035"><v:paragraph v:horizAlign="1"/><v:tabList/>Close SUPL socket</text>		</g>
		<g id="shape57-208" v:mID="57" v:groupContext="shape" transform="translate(144.567,-96.7016)">
			<title>Sheet.57</title>
			<desc>Loop 1..m times: nrf_sendto( &#60;AGPS data&#62; )</desc>
			<v:userDefs/>
			<v:textBlock v:margins="rect(4,4,4,4)" v:tabSpace="42.5197"/>
			<v:textRect cx="123.307" cy="317.3" width="246.63" height="10.6458"/>
			<rect x="0" y="311.977" width="246.614" height="10.6458" class="st12"/>
			<text x="4.66" y="320" class="st18" v:langID="1035"><v:paragraph v:horizAlign="1"/><v:tabList/>Loop 1..m times: <tspan
						class="st19"> </tspan><tspan class="st19">nrf_modem_gnss_ag</tspan><tspan class="st19" v:langID="1033">nss</tspan><tspan
						class="st19">_write(&#60;A</tspan><tspan class="st19">-</tspan><tspan class="st19">G</tspan><tspan
						class="st19" v:langID="1033">NSS</tspan><tspan class="st19"> </tspan><tspan class="st19">data&#62;)</tspan></text>		</g>
		<g id="shape58-220" v:mID="58" v:groupContext="shape" transform="translate(160.857,-171.074)">
			<title>Sheet.58</title>
			<desc>Socket send() à SUPL_START</desc>
			<v:userDefs/>
			<v:textBlock v:margins="rect(4,4,4,4)" v:tabSpace="42.5197"/>
			<v:textRect cx="93.8411" cy="317.3" width="187.69" height="10.6458"/>
			<rect x="0" y="311.977" width="187.683" height="10.6458" class="st12"/>
			<text x="35.38" y="320.11" class="st16" v:langID="1035"><v:paragraph v:horizAlign="1"/><v:tabList/>Socket send()  <tspan
						class="st17">à </tspan>SUPL_START</text>		</g>
		<g id="shape59-224" v:mID="59" v:groupContext="shape" transform="translate(160.857,-155.535)">
			<title>Sheet.59</title>
			<desc>Socket recv() à SUPL_RESPONSE</desc>
			<v:userDefs/>
			<v:textBlock v:margins="rect(4,4,4,4)" v:tabSpace="42.5197"/>
			<v:textRect cx="93.8411" cy="317.3" width="187.69" height="10.6458"/>
			<rect x="0" y="311.977" width="187.683" height="10.6458" class="st12"/>
			<text x="28.68" y="320.11" class="st16" v:langID="1035"><v:paragraph v:horizAlign="1"/><v:tabList/>Socket recv()  <tspan
						class="st17">à </tspan>SUPL_RESPONSE</text>		</g>
		<g id="shape60-228" v:mID="60" v:groupContext="shape" transform="translate(160.857,-139.459)">
			<title>Sheet.60</title>
			<desc>Socket send() à SUPL_POS_INIT</desc>
			<v:userDefs/>
			<v:textBlock v:margins="rect(4,4,4,4)" v:tabSpace="42.5197"/>
			<v:textRect cx="93.8411" cy="317.3" width="187.69" height="10.6458"/>
			<rect x="0" y="311.977" width="187.683" height="10.6458" class="st12"/>
			<text x="29.9" y="320.11" class="st16" v:langID="1035"><v:paragraph v:horizAlign="1"/><v:tabList/>Socket send()  <tspan
						class="st17">à </tspan>SUPL_POS_INIT</text>		</g>
		<g id="shape61-232" v:mID="61" v:groupContext="shape" transform="translate(160.857,-125.206)">
			<title>Sheet.61</title>
			<desc>Loop 1..n times: Socket recv() à SUPL_SUPL_POS</desc>
			<v:userDefs/>
			<v:textBlock v:margins="rect(4,4,4,4)" v:tabSpace="42.5197"/>
			<v:textRect cx="107.025" cy="317.3" width="214.05" height="10.6458"/>
			<rect x="0" y="311.977" width="214.049" height="10.6458" class="st12"/>
			<text x="12.31" y="320.11" class="st18" v:langID="1035"><v:paragraph v:horizAlign="1"/><v:tabList/>Loop 1..n times: <tspan
						class="st19">Socket recv()</tspan> <tspan class="st19"> </tspan><tspan class="st20">à </tspan><tspan
						class="st19">SUPL_SUPL_POS </tspan>   </text>		</g>
		<g id="shape62-239" v:mID="62" v:groupContext="shape" transform="translate(160.857,-66.3936)">
			<title>Sheet.62</title>
			<desc>Socket recv() à SUPL_END</desc>
			<v:userDefs/>
			<v:textBlock v:margins="rect(4,4,4,4)" v:tabSpace="42.5197"/>
			<v:textRect cx="93.8411" cy="317.3" width="187.69" height="10.6458"/>
			<rect x="0" y="311.977" width="187.683" height="10.6458" class="st12"/>
			<text x="39.99" y="320.11" class="st16" v:langID="1035"><v:paragraph v:horizAlign="1"/><v:tabList/>Socket recv()  <tspan
						class="st17">à </tspan>SUPL_END</text>		</g>
		<g id="shape63-243" v:mID="63" v:groupContext="shape" transform="translate(142.956,-40.8256)">
			<title>Sheet.63</title>
			<rect x="0" y="169.956" width="3.36148" height="152.667" class="st21"/>
		</g>
		<g id="shape64-245" v:mID="64" v:groupContext="shape" transform="translate(15.2293,-55.1111)">
			<title>Sheet.64</title>
			<path d="M-0 316.95 A5.66942 5.66942 -180 0 0 5.67 322.62 L504.08 322.62 A5.66942 5.66942 -180 0 0 509.75 316.95 L509.75
						 196.4 A5.66942 5.66942 -180 0 0 504.08 190.73 L5.67 190.73 A5.66942 5.66942 -180 0 0 -0 196.4 L0 316.95
						 Z" class="st22"/>
		</g>
		<g id="shape65-247" v:mID="65" v:groupContext="shape" transform="translate(48.6131,-274.433)">
			<title>Sheet.65</title>
			<desc>1</desc>
			<v:userDefs/>
			<v:textBlock v:margins="rect(4,4,4,4)" v:tabSpace="42.5197"/>
			<v:textRect cx="4.90216" cy="317.724" width="9.81" height="9.80429"/>
			<path d="M0 317.72 A4.90227 4.90227 -180 0 0 4.9 322.62 A4.90227 4.90227 -180 0 0 9.8 317.72 A4.90227 4.90227 -180 0
						 0 4.9 312.82 A4.90227 4.90227 -180 0 0 0 317.72 Z" class="st12"/>
			<text x="4" y="320.12" class="st3" v:langID="1035"><v:paragraph v:horizAlign="1"/><v:tabList/>1</text>		</g>
		<g id="shape66-250" v:mID="66" v:groupContext="shape" transform="translate(66.4372,-41.4519)">
			<title>Sheet.66</title>
			<desc>supl_client_session()</desc>
			<v:userDefs/>
			<v:textBlock v:margins="rect(4,4,4,4)" v:tabSpace="42.5197"/>
			<v:textRect cx="39.6004" cy="317.3" width="79.21" height="10.6458"/>
			<rect x="0" y="311.977" width="79.2009" height="10.6458" class="st12"/>
			<text x="4" y="319.7" class="st13" v:langID="1035"><v:paragraph/><v:tabList/>supl_client_session()</text>		</g>
		<g id="shape67-253" v:mID="67" v:groupContext="shape" transform="translate(10.3709,-274.258)">
			<title>Sheet.67</title>
			<rect x="0" y="305.331" width="8.78738" height="17.2913" class="st12"/>
		</g>
		<g id="shape68-255" v:mID="68" v:groupContext="shape" transform="translate(49.947,-260.422)">
			<title>Sheet.68</title>
			<ellipse cx="4.90216" cy="317.72" rx="4.90216" ry="4.90216" class="st1"/>
		</g>
		<g id="shape69-257" v:mID="69" v:groupContext="shape" transform="translate(48.9466,-260.427)">
			<title>Sheet.69</title>
			<desc>2</desc>
			<v:userDefs/>
			<v:textBlock v:margins="rect(4,4,4,4)" v:tabSpace="42.5197"/>
			<v:textRect cx="4.90216" cy="317.724" width="9.81" height="9.80429"/>
			<path d="M0 317.72 A4.90227 4.90227 -180 0 0 4.9 322.62 A4.90227 4.90227 -180 0 0 9.8 317.72 A4.90227 4.90227 -180 0
						 0 4.9 312.82 A4.90227 4.90227 -180 0 0 0 317.72 Z" class="st12"/>
			<text x="4" y="320.12" class="st3" v:langID="1035"><v:paragraph v:horizAlign="1"/><v:tabList/>2</text>		</g>
		<g id="shape70-260" v:mID="70" v:groupContext="shape" transform="translate(50.9475,-219.766)">
			<title>Sheet.70</title>
			<ellipse cx="4.90216" cy="317.72" rx="4.90216" ry="4.90216" class="st1"/>
		</g>
		<g id="shape71-262" v:mID="71" v:groupContext="shape" transform="translate(49.947,-219.771)">
			<title>Sheet.71</title>
			<desc>4</desc>
			<v:userDefs/>
			<v:textBlock v:margins="rect(4,4,4,4)" v:tabSpace="42.5197"/>
			<v:textRect cx="4.90216" cy="317.724" width="9.81" height="9.80429"/>
			<path d="M0 317.72 A4.90227 4.90227 -180 0 0 4.9 322.62 A4.90227 4.90227 -180 0 0 9.8 317.72 A4.90227 4.90227 -180 0
						 0 4.9 312.82 A4.90227 4.90227 -180 0 0 0 317.72 Z" class="st12"/>
			<text x="4" y="320.12" class="st3" v:langID="1035"><v:paragraph v:horizAlign="1"/><v:tabList/>4</text>		</g>
		<g id="shape72-265" v:mID="72" v:groupContext="shape" transform="translate(50.9475,-192.086)">
			<title>Sheet.72</title>
			<ellipse cx="4.90216" cy="317.72" rx="4.90216" ry="4.90216" class="st1"/>
		</g>
		<g id="shape73-267" v:mID="73" v:groupContext="shape" transform="translate(49.947,-192.091)">
			<title>Sheet.73</title>
			<desc>5</desc>
			<v:userDefs/>
			<v:textBlock v:margins="rect(4,4,4,4)" v:tabSpace="42.5197"/>
			<v:textRect cx="4.90216" cy="317.724" width="9.81" height="9.80429"/>
			<path d="M0 317.72 A4.90227 4.90227 -180 0 0 4.9 322.62 A4.90227 4.90227 -180 0 0 9.8 317.72 A4.90227 4.90227 -180 0
						 0 4.9 312.82 A4.90227 4.90227 -180 0 0 0 317.72 Z" class="st12"/>
			<text x="4" y="320.12" class="st3" v:langID="1035"><v:paragraph v:horizAlign="1"/><v:tabList/>5</text>		</g>
		<g id="shape74-270" v:mID="74" v:groupContext="shape" transform="translate(2.72569,-168.502)">
			<title>Sheet.74</title>
			<ellipse cx="4.90216" cy="317.72" rx="4.90216" ry="4.90216" class="st1"/>
		</g>
		<g id="shape75-272" v:mID="75" v:groupContext="shape" transform="translate(1.72522,-168.507)">
			<title>Sheet.75</title>
			<desc>6</desc>
			<v:userDefs/>
			<v:textBlock v:margins="rect(4,4,4,4)" v:tabSpace="42.5197"/>
			<v:textRect cx="4.90216" cy="317.724" width="9.81" height="9.80429"/>
			<path d="M0 317.72 A4.90227 4.90227 -180 0 0 4.9 322.62 A4.90227 4.90227 -180 0 0 9.8 317.72 A4.90227 4.90227 -180 0
						 0 4.9 312.82 A4.90227 4.90227 -180 0 0 0 317.72 Z" class="st12"/>
			<text x="4" y="320.12" class="st3" v:langID="1035"><v:paragraph v:horizAlign="1"/><v:tabList/>6</text>		</g>
		<g id="shape76-275" v:mID="76" v:groupContext="shape" transform="translate(2.66744,-94.4751)">
			<title>Sheet.76</title>
			<ellipse cx="4.90216" cy="317.72" rx="4.90216" ry="4.90216" class="st1"/>
		</g>
		<g id="shape77-277" v:mID="77" v:groupContext="shape" transform="translate(0.999998,-94.4791)">
			<title>Sheet.77</title>
			<desc>7</desc>
			<v:userDefs/>
			<v:textBlock v:margins="rect(4,4,4,4)" v:tabSpace="42.5197"/>
			<v:textRect cx="4.90216" cy="317.724" width="9.81" height="9.80429"/>
			<path d="M-0 317.72 A4.90227 4.90227 -180 0 0 4.9 322.62 A4.90227 4.90227 -180 0 0 9.8 317.72 A4.90227 4.90227 -180 0
						 0 4.9 312.82 A4.90227 4.90227 -180 0 0 0 317.72 Z" class="st12"/>
			<text x="4" y="320.12" class="st3" v:langID="1035"><v:paragraph v:horizAlign="1"/><v:tabList/>7</text>		</g>
		<g id="shape78-280" v:mID="78" v:groupContext="shape" transform="translate(51.0232,-37.1153)">
			<title>Sheet.78</title>
			<ellipse cx="4.90216" cy="317.72" rx="4.90216" ry="4.90216" class="st1"/>
		</g>
		<g id="shape79-282" v:mID="79" v:groupContext="shape" transform="translate(50.0227,-37.1193)">
			<title>Sheet.79</title>
			<desc>5</desc>
			<v:userDefs/>
			<v:textBlock v:margins="rect(4,4,4,4)" v:tabSpace="42.5197"/>
			<v:textRect cx="4.90216" cy="317.724" width="9.81" height="9.80429"/>
			<path d="M-0 317.72 A4.90227 4.90227 -180 0 0 4.9 322.62 A4.90227 4.90227 -180 0 0 9.8 317.72 A4.90227 4.90227 -180 0
						 0 4.9 312.82 A4.90227 4.90227 -180 0 0 0 317.72 Z" class="st12"/>
			<text x="4" y="320.12" class="st3" v:langID="1035"><v:paragraph v:horizAlign="1"/><v:tabList/>5</text>		</g>
		<g id="shape80-285" v:mID="80" v:groupContext="shape" transform="translate(51.281,-16.1056)">
			<title>Sheet.80</title>
			<ellipse cx="4.90216" cy="317.72" rx="4.90216" ry="4.90216" class="st1"/>
		</g>
		<g id="shape81-287" v:mID="81" v:groupContext="shape" transform="translate(50.2805,-16.1096)">
			<title>Sheet.81</title>
			<desc>8</desc>
			<v:userDefs/>
			<v:textBlock v:margins="rect(4,4,4,4)" v:tabSpace="42.5197"/>
			<v:textRect cx="4.90216" cy="317.724" width="9.81" height="9.80429"/>
			<path d="M-0 317.72 A4.90227 4.90227 -180 0 0 4.9 322.62 A4.90227 4.90227 -180 0 0 9.8 317.72 A4.90227 4.90227 -180 0
						 0 4.9 312.82 A4.90227 4.90227 -180 0 0 0 317.72 Z" class="st12"/>
			<text x="4" y="320.12" class="st3" v:langID="1035"><v:paragraph v:horizAlign="1"/><v:tabList/>8</text>		</g>
		<g id="shape82-290" v:mID="82" v:groupContext="shape" transform="translate(2.66744,-63.7943)">
			<title>Sheet.82</title>
			<ellipse cx="4.90216" cy="317.72" rx="4.90216" ry="4.90216" class="st1"/>
		</g>
		<g id="shape83-292" v:mID="83" v:groupContext="shape" transform="translate(1.66698,-63.7984)">
			<title>Sheet.83</title>
			<desc>6</desc>
			<v:userDefs/>
			<v:textBlock v:margins="rect(4,4,4,4)" v:tabSpace="42.5197"/>
			<v:textRect cx="4.90216" cy="317.724" width="9.81" height="9.80429"/>
			<path d="M-0 317.72 A4.90227 4.90227 -180 0 0 4.9 322.62 A4.90227 4.90227 -180 0 0 9.8 317.72 A4.90227 4.90227 -180 0
						 0 4.9 312.82 A4.90227 4.90227 -180 0 0 0 317.72 Z" class="st12"/>
			<text x="4" y="320.12" class="st3" v:langID="1035"><v:paragraph v:horizAlign="1"/><v:tabList/>6</text>		</g>
		<g id="shape84-295" v:mID="84" v:groupContext="shape" transform="translate(70.9962,-233.44)">
			<title>Sheet.84</title>
			<desc>supl_client_init()</desc>
			<v:userDefs/>
			<v:textBlock v:margins="rect(4,4,4,4)" v:tabSpace="42.5197"/>
			<v:textRect cx="39.6004" cy="317.3" width="79.21" height="10.6458"/>
			<rect x="0" y="311.977" width="79.2009" height="10.6458" class="st12"/>
			<text x="4" y="319.7" class="st13" v:langID="1035"><v:paragraph/><v:tabList/>supl_client_init()</text>		</g>
		<g id="shape85-298" v:mID="85" v:groupContext="shape" transform="translate(70.9962,-233.448)">
			<title>Sheet.85</title>
			<path d="M0 322.62 L73.41 322.62" class="st11"/>
		</g>
		<g id="shape86-303" v:mID="86" v:groupContext="shape" transform="translate(50.7563,-234.206)">
			<title>Sheet.86</title>
			<ellipse cx="4.90216" cy="317.72" rx="4.90216" ry="4.90216" class="st1"/>
		</g>
		<g id="shape87-305" v:mID="87" v:groupContext="shape" transform="translate(49.7558,-234.211)">
			<title>Sheet.87</title>
			<desc>3</desc>
			<v:userDefs/>
			<v:textBlock v:margins="rect(4,4,4,4)" v:tabSpace="42.5197"/>
			<v:textRect cx="4.90216" cy="317.724" width="9.81" height="9.80429"/>
			<path d="M0 317.72 A4.90227 4.90227 -180 0 0 4.9 322.62 A4.90227 4.90227 -180 0 0 9.8 317.72 A4.90227 4.90227 -180 0
						 0 4.9 312.82 A4.90227 4.90227 -180 0 0 -0 317.72 Z" class="st12"/>
			<text x="4" y="320.12" class="st3" v:langID="1035"><v:paragraph v:horizAlign="1"/><v:tabList/>3</text>		</g>
	</g>
</svg>
