<?xml version="1.0" encoding="UTF-8" standalone="no"?>
<!DOCTYPE svg PUBLIC "-//W3C//DTD SVG 1.1//EN" "http://www.w3.org/Graphics/SVG/1.1/DTD/svg11.dtd">
<!-- Generated by Microsoft Visio, SVG Export supl_msc.svg Page-1 -->
<svg xmlns="http://www.w3.org/2000/svg" xmlns:xlink="http://www.w3.org/1999/xlink" xmlns:ev="http://www.w3.org/2001/xml-events"
		xmlns:v="http://schemas.microsoft.com/visio/2003/SVGExtensions/" width="7.31269in" height="4.47214in"
		viewBox="0 0 526.514 321.994" xml:space="preserve" color-interpolation-filters="sRGB" class="st22">
	<v:documentProperties v:langID="1035"/>

	<style type="text/css">
	<![CDATA[
		.st1 {fill:none;stroke:#333f48;stroke-width:0.999999}
		.st2 {fill:#333f48;font-family:Calibri;font-size:0.75em;font-weight:bold}
		.st3 {fill:#333f48;font-family:Calibri;font-size:0.666664em;font-weight:bold}
		.st4 {font-size:1em}
		.st5 {fill:none}
		.st6 {stroke:#333f48;stroke-linecap:round;stroke-linejoin:round;stroke-width:0.75}
		.st7 {marker-start:url(#mrkr3-38);stroke:#333f48;stroke-dasharray:4,2;stroke-linecap:butt;stroke-width:0.5}
		.st8 {fill:#333f48;fill-opacity:1;stroke:#333f48;stroke-opacity:1;stroke-width:0.16556282994258}
		.st9 {marker-end:url(#mrkr3-44);stroke:#333f48;stroke-dasharray:4,2;stroke-linecap:butt;stroke-width:0.5}
		.st10 {marker-end:url(#mrkr3-44);stroke:#333f48;stroke-linecap:butt;stroke-width:0.5}
		.st11 {fill:none;stroke:none;stroke-width:0.999999}
		.st12 {fill:#333f48;font-family:Calibri;font-size:0.666664em}
		.st13 {marker-end:url(#mrkr3-44);marker-start:url(#mrkr3-38);stroke:#333f48;stroke-dasharray:4,2;stroke-linecap:butt;stroke-width:0.5}
		.st14 {marker-start:url(#mrkr3-38);stroke:#333f48;stroke-linecap:butt;stroke-width:0.5}
		.st15 {fill:#333f48;font-family:Calibri;font-size:0.75em}
		.st16 {font-family:Wingdings;font-size:1em}
		.st17 {fill:#333f48;font-family:Calibri;font-size:0.75em;font-style:italic}
		.st18 {font-size:1em;font-style:normal}
		.st19 {font-family:Wingdings;font-size:1em;font-style:normal}
		.st20 {fill:#d9e1e2;stroke:#333f48;stroke-width:0.999999}
		.st21 {fill:none;stroke:#333f48;stroke-dasharray:7,5;stroke-width:0.999999}
		.st22 {fill:none;fill-rule:evenodd;font-size:12px;overflow:visible;stroke-linecap:square;stroke-miterlimit:3}
	]]>
	</style>

	<defs id="Markers">
		<g id="lend3">
			<path d="M 2 1 L 0 0 L 2 -1 " style="stroke-linecap:round;stroke-linejoin:round;fill:none"/>
		</g>
		<marker id="mrkr3-38" class="st8" v:arrowType="3" v:arrowSize="2" orient="auto" markerUnits="strokeWidth"
				overflow="visible">
			<use xlink:href="#lend3" transform="scale(6.0400030631683) "/>
		</marker>
		<marker id="mrkr3-44" class="st8" v:arrowType="3" v:arrowSize="2" orient="auto" markerUnits="strokeWidth"
				overflow="visible">
			<use xlink:href="#lend3" transform="scale(-6.0400030631683,-6.0400030631683) "/>
		</marker>
	</defs>
	<g v:mID="0" v:index="1" v:groupContext="foregroundPage">
		<title>Page-1</title>
		<v:pageProperties v:drawingScale="0.0393701" v:pageScale="0.0393701" v:drawingUnits="24" v:shadowOffsetX="8.50393"
				v:shadowOffsetY="-8.50393"/>
		<g id="shape1-1" v:mID="1" v:groupContext="shape" transform="translate(353.209,-299.985)">
			<title>Sheet.1</title>
			<desc>GPS</desc>
			<v:userDefs/>
			<v:textBlock v:margins="rect(4,4,4,4)" v:tabSpace="42.5197"/>
			<v:textRect cx="27.8567" cy="311.489" width="55.72" height="21.0092"/>
			<path d="M-0 316.32 A5.66942 5.66942 -180 0 0 5.67 321.99 L50.04 321.99 A5.66942 5.66942 -180 0 0 55.71 316.32 L55.71
						 306.65 A5.66942 5.66942 -180 0 0 50.04 300.98 L5.67 300.98 A5.66942 5.66942 -180 0 0 0 306.65 L0 316.32
						 Z" class="st1"/>
			<text x="17.77" y="314.19" class="st2" v:langID="1033"><v:paragraph v:horizAlign="1"/><v:tabList/>GNSS</text>		</g>
		<g id="shape2-4" v:mID="2" v:groupContext="shape" transform="translate(410.949,-299.985)">
			<title>Sheet.2</title>
			<desc>Modem</desc>
			<v:userDefs/>
			<v:textBlock v:margins="rect(4,4,4,4)" v:tabSpace="42.5197"/>
			<v:textRect cx="27.8567" cy="311.489" width="55.72" height="21.0092"/>
			<path d="M-0 316.32 A5.66942 5.66942 -180 0 0 5.67 321.99 L50.04 321.99 A5.66942 5.66942 -180 0 0 55.71 316.32 L55.71
						 306.65 A5.66942 5.66942 -180 0 0 50.04 300.98 L5.67 300.98 A5.66942 5.66942 -180 0 0 0 306.65 L0 316.32
						 Z" class="st1"/>
			<text x="13.16" y="314.19" class="st2" v:langID="1035"><v:paragraph v:horizAlign="1"/><v:tabList/>Modem</text>		</g>
		<g id="shape3-7" v:mID="3" v:groupContext="shape" transform="translate(469.8,-299.985)">
			<title>Sheet.3</title>
			<desc>SUPL server</desc>
			<v:userDefs/>
			<v:textBlock v:margins="rect(4,4,4,4)" v:tabSpace="42.5197"/>
			<v:textRect cx="27.8567" cy="311.489" width="55.72" height="21.0092"/>
			<path d="M-0 316.32 A5.66942 5.66942 -180 0 0 5.67 321.99 L50.04 321.99 A5.66942 5.66942 -180 0 0 55.71 316.32 L55.71
						 306.65 A5.66942 5.66942 -180 0 0 50.04 300.98 L5.67 300.98 A5.66942 5.66942 -180 0 0 0 306.65 L0 316.32
						 Z" class="st1"/>
			<text x="5.82" y="314.19" class="st2" v:langID="1035"><v:paragraph v:horizAlign="1"/><v:tabList/>SUPL server</text>		</g>
		<g id="shape4-10" v:mID="4" v:groupContext="shape" transform="translate(29.1642,-299.716)">
			<title>Sheet.4</title>
			<desc>Application + SUPL client OS integration</desc>
			<v:userDefs/>
			<v:textBlock v:margins="rect(4,4,4,4)" v:tabSpace="42.5197"/>
			<v:textRect cx="39.6004" cy="311.489" width="79.21" height="21.0092"/>
			<path d="M0 316.32 A5.66942 5.66942 -180 0 0 5.67 321.99 L73.53 321.99 A5.66942 5.66942 -180 0 0 79.2 316.32 L79.2 306.65
						 A5.66942 5.66942 -180 0 0 73.53 300.98 L5.67 300.98 A5.66942 5.66942 -180 0 0 -0 306.65 L0 316.32 Z"
					class="st1"/>
			<text x="8.48" y="309.09" class="st3" v:langID="1035"><v:paragraph v:horizAlign="1"/><v:tabList/>Application + SUPL <tspan
						x="5.52" dy="1.2em" class="st4">client OS integration</tspan></text>		</g>
		<g id="shape5-14" v:mID="5" v:groupContext="shape" transform="translate(116.78,-299.716)">
			<title>Sheet.5</title>
			<desc>SUPL client</desc>
			<v:userDefs/>
			<v:textBlock v:margins="rect(4,4,4,4)" v:tabSpace="42.5197"/>
			<v:textRect cx="27.8567" cy="311.489" width="55.72" height="21.0092"/>
			<path d="M0 316.32 A5.66942 5.66942 -180 0 0 5.67 321.99 L50.04 321.99 A5.66942 5.66942 -180 0 0 55.71 316.32 L55.71
						 306.65 A5.66942 5.66942 -180 0 0 50.04 300.98 L5.67 300.98 A5.66942 5.66942 -180 0 0 0 306.65 L0 316.32
						 Z" class="st1"/>
			<text x="18.49" y="308.79" class="st2" v:langID="1035"><v:paragraph v:horizAlign="1"/><v:tabList/>SUPL<v:newlineChar/><tspan
						x="17.52" dy="1.2em" class="st4">client</tspan></text>		</g>
		<g id="shape6-18" v:mID="6" v:groupContext="shape" transform="translate(392.994,22.2777) rotate(90)">
			<title>Sheet.6</title>
			<path d="M0 321.99 L297.19 321.99 L0 321.99 Z" class="st5"/>
			<path d="M0 321.99 L297.19 321.99" class="st6"/>
		</g>
		<g id="shape7-21" v:mID="7" v:groupContext="shape" transform="translate(466.635,22.2777) rotate(90)">
			<title>Sheet.7</title>
			<path d="M0 321.99 L299.34 321.99 L0 321.99 Z" class="st5"/>
			<path d="M0 321.99 L299.34 321.99" class="st6"/>
		</g>
		<g id="shape8-24" v:mID="8" v:groupContext="shape" transform="translate(705.15,22.0093) rotate(90)">
			<title>Sheet.8</title>
			<path d="M0 321.99 L297.28 321.99 L0 321.99 Z" class="st5"/>
			<path d="M0 321.99 L297.28 321.99" class="st6"/>
		</g>
		<g id="shape9-27" v:mID="9" v:groupContext="shape" transform="translate(760.804,22.0093) rotate(90)">
			<title>Sheet.9</title>
			<path d="M0 321.99 L297.28 321.99 L0 321.99 Z" class="st5"/>
			<path d="M0 321.99 L297.28 321.99" class="st6"/>
		</g>
		<g id="shape10-30" v:mID="10" v:groupContext="shape" transform="translate(819.655,22.0093) rotate(90)">
			<title>Sheet.10</title>
			<path d="M0 321.99 L297.28 321.99 L0 321.99 Z" class="st5"/>
			<path d="M0 321.99 L297.28 321.99" class="st6"/>
		</g>
		<g id="shape11-33" v:mID="11" v:groupContext="shape" transform="translate(71.0029,-278.711) rotate(0.00118546)">
			<title>Sheet.11</title>
			<path d="M0 321.99 L312.16 321.99" class="st7"/>
		</g>
		<g id="shape12-39" v:mID="12" v:groupContext="shape" transform="translate(71.0056,-264.705) rotate(0.00166835)">
			<title>Sheet.12</title>
			<path d="M0 321.99 L367.81 321.99" class="st9"/>
		</g>
		<g id="shape13-45" v:mID="13" v:groupContext="shape" transform="translate(70.7107,-9.67188) rotate(-0.0507975)">
			<title>Sheet.13</title>
			<path d="M0 321.99 L368.37 321.99" class="st9"/>
		</g>
		<g id="shape14-50" v:mID="14" v:groupContext="shape" transform="translate(71.013,-223.02) rotate(0.00299288)">
			<title>Sheet.14</title>
			<path d="M0 321.99 L367.81 321.99" class="st7"/>
		</g>
		<g id="shape15-55" v:mID="15" v:groupContext="shape" transform="translate(71.0168,-209.013) rotate(0.00365514)">
			<title>Sheet.15</title>
			<path d="M0 321.99 L367.81 321.99" class="st7"/>
		</g>
		<g id="shape16-60" v:mID="16" v:groupContext="shape" transform="translate(71.3297,-192.873)">
			<title>Sheet.16</title>
			<path d="M0 321.99 L71.63 321.99" class="st10"/>
		</g>
		<g id="shape17-65" v:mID="17" v:groupContext="shape" transform="translate(68.1046,-192.869)">
			<title>Sheet.17</title>
			<desc>supl_client_session()</desc>
			<v:userDefs/>
			<v:textBlock v:margins="rect(4,4,4,4)" v:tabSpace="42.5197"/>
			<v:textRect cx="39.6004" cy="316.671" width="79.21" height="10.6458"/>
			<rect x="0" y="311.348" width="79.2009" height="10.6458" class="st11"/>
			<text x="4" y="319.07" class="st12" v:langID="1035"><v:paragraph/><v:tabList/>supl_client_session()</text>		</g>
		<g id="shape18-68" v:mID="18" v:groupContext="shape" transform="translate(71.0093,-250.699) rotate(0.00233061)">
			<title>Sheet.18</title>
			<path d="M0 321.99 L367.81 321.99" class="st9"/>
		</g>
		<g id="shape19-73" v:mID="19" v:groupContext="shape" transform="translate(70.9962,-23.6782)">
			<title>Sheet.19</title>
			<path d="M0 321.99 L368.37 321.99" class="st9"/>
		</g>
		<g id="shape20-78" v:mID="20" v:groupContext="shape" transform="translate(70.9962,-175.777)">
			<title>Sheet.20</title>
			<path d="M0 321.99 L71.96 321.99" class="st7"/>
		</g>
		<g id="shape21-83" v:mID="21" v:groupContext="shape" transform="translate(69.6616,-169.343) rotate(-0.237459)">
			<title>Sheet.21</title>
			<path d="M0 321.99 L426.66 321.99" class="st9"/>
		</g>
		<g id="shape22-88" v:mID="22" v:groupContext="shape" transform="translate(70.9962,-160.238)">
			<title>Sheet.22</title>
			<path d="M0 321.99 L71.96 321.99" class="st13"/>
		</g>
		<g id="shape23-95" v:mID="23" v:groupContext="shape" transform="translate(69.5073,-153.652) rotate(-0.264912)">
			<title>Sheet.23</title>
			<path d="M0 321.99 L426.67 321.99" class="st7"/>
		</g>
		<g id="shape24-100" v:mID="24" v:groupContext="shape" transform="translate(12.5614,-167.879)">
			<title>Sheet.24</title>
			<desc>SUPL_Write</desc>
			<v:userDefs/>
			<v:textBlock v:margins="rect(4,4,4,4)" v:tabSpace="42.5197"/>
			<v:textRect cx="27.8567" cy="316.701" width="55.72" height="10.5866"/>
			<rect x="0" y="311.407" width="55.7134" height="10.5866" class="st11"/>
			<text x="12.01" y="319.4" class="st2" v:langID="1033"><v:paragraph v:horizAlign="2"/><v:tabList/>supl<tspan class="st4"
						v:langID="1035">_</tspan>w<tspan class="st4" v:langID="1035">rite</tspan></text>		</g>
		<g id="shape25-105" v:mID="25" v:groupContext="shape" transform="translate(12.0717,-152.767)">
			<title>Sheet.25</title>
			<desc>SUPL_Read</desc>
			<v:userDefs/>
			<v:textBlock v:margins="rect(4,4,4,4)" v:tabSpace="42.5197"/>
			<v:textRect cx="27.8567" cy="316.701" width="55.72" height="10.5866"/>
			<rect x="0" y="311.407" width="55.7134" height="10.5866" class="st11"/>
			<text x="14.77" y="319.4" class="st2" v:langID="1033"><v:paragraph v:horizAlign="2"/><v:tabList/>supl_read</text>		</g>
		<g id="shape26-108" v:mID="26" v:groupContext="shape" transform="translate(70.9962,-144.684)">
			<title>Sheet.26</title>
			<path d="M0 321.99 L71.96 321.99" class="st7"/>
		</g>
		<g id="shape27-113" v:mID="27" v:groupContext="shape" transform="translate(69.5583,-138.246) rotate(-0.255837)">
			<title>Sheet.27</title>
			<path d="M0 321.99 L426.67 321.99" class="st9"/>
		</g>
		<g id="shape28-118" v:mID="28" v:groupContext="shape" transform="translate(12.0717,-137.655)">
			<title>Sheet.28</title>
			<desc>SUPL_Write</desc>
			<v:userDefs/>
			<v:textBlock v:margins="rect(4,4,4,4)" v:tabSpace="42.5197"/>
			<v:textRect cx="27.8567" cy="316.701" width="55.72" height="10.5866"/>
			<rect x="0" y="311.407" width="55.7134" height="10.5866" class="st11"/>
			<text x="12.01" y="319.4" class="st2" v:langID="1033"><v:paragraph v:horizAlign="2"/><v:tabList/>supl_write</text>		</g>
		<g id="shape29-121" v:mID="29" v:groupContext="shape" transform="translate(70.9962,-129.845)">
			<title>Sheet.29</title>
			<path d="M0 321.99 L71.96 321.99" class="st13"/>
		</g>
		<g id="shape30-128" v:mID="30" v:groupContext="shape" transform="translate(69.4135,-123.258) rotate(-0.281615)">
			<title>Sheet.30</title>
			<path d="M0 321.99 L426.67 321.99" class="st7"/>
		</g>
		<g id="shape31-133" v:mID="31" v:groupContext="shape" transform="translate(12.0717,-122.543)">
			<title>Sheet.31</title>
			<desc>SUPL_Read</desc>
			<v:userDefs/>
			<v:textBlock v:margins="rect(4,4,4,4)" v:tabSpace="42.5197"/>
			<v:textRect cx="27.8567" cy="316.701" width="55.72" height="10.5866"/>
			<rect x="0" y="311.407" width="55.7134" height="10.5866" class="st11"/>
			<text x="14.77" y="319.4" class="st2" v:langID="1033"><v:paragraph v:horizAlign="2"/><v:tabList/>supl_read</text>		</g>
		<g id="shape32-136" v:mID="32" v:groupContext="shape" transform="translate(70.9962,-71.0195)">
			<title>Sheet.32</title>
			<path d="M0 321.99 L71.96 321.99" class="st13"/>
		</g>
		<g id="shape33-143" v:mID="33" v:groupContext="shape" transform="translate(70.9962,-64.4371)">
			<title>Sheet.33</title>
			<path d="M0 321.99 L426.66 321.99" class="st7"/>
		</g>
		<g id="shape34-148" v:mID="34" v:groupContext="shape" transform="translate(10.7238,-63.9754)">
			<title>Sheet.34</title>
			<desc>SUPL_Read</desc>
			<v:userDefs/>
			<v:textBlock v:margins="rect(4,4,4,4)" v:tabSpace="42.5197"/>
			<v:textRect cx="27.8567" cy="316.701" width="55.72" height="10.5866"/>
			<rect x="0" y="311.407" width="55.7134" height="10.5866" class="st11"/>
			<text x="14.77" y="319.4" class="st2" v:langID="1033"><v:paragraph v:horizAlign="2"/><v:tabList/>supl<tspan class="st4"
						v:langID="1035">_</tspan>r<tspan class="st4" v:langID="1035">ead</tspan></text>		</g>
		<g id="shape35-153" v:mID="35" v:groupContext="shape" transform="translate(70.9962,-101.553)">
			<title>Sheet.35</title>
			<path d="M0 321.99 L75.32 321.99" class="st7"/>
		</g>
		<g id="shape36-158" v:mID="36" v:groupContext="shape" transform="translate(71.0566,-93.9885) rotate(0.0107524)">
			<title>Sheet.36</title>
			<path d="M0 321.99 L312.16 321.99" class="st9"/>
		</g>
		<g id="shape37-163" v:mID="37" v:groupContext="shape" transform="translate(3.51285,-90.9039)">
			<title>Sheet.37</title>
			<desc>AGPS_Handler</desc>
			<v:userDefs/>
			<v:textBlock v:margins="rect(4,4,4,4)" v:tabSpace="42.5197"/>
			<v:textRect cx="39.6004" cy="316.671" width="79.21" height="10.6458"/>
			<rect x="0" y="311.348" width="79.2009" height="10.6458" class="st11"/>
			<text x="14.36" y="319.37" class="st2" v:langID="1033"><v:paragraph v:horizAlign="1"/><v:tabList/>agps<tspan
						class="st4" v:langID="1035">_</tspan>h<tspan class="st4" v:langID="1035">andler</tspan></text>		</g>
		<g id="shape38-168" v:mID="38" v:groupContext="shape" transform="translate(71.2985,-40.8316) rotate(0.0537872)">
			<title>Sheet.38</title>
			<path d="M0 321.99 L71.06 321.99" class="st14"/>
		</g>
		<g id="shape39-173" v:mID="39" v:groupContext="shape" transform="translate(49.6135,-273.805)">
			<title>Sheet.39</title>
			<ellipse cx="4.90216" cy="317.092" rx="4.90216" ry="4.90216" class="st1"/>
		</g>
		<g id="shape40-175" v:mID="40" v:groupContext="shape" transform="translate(147.337,-279.905)">
			<title>Sheet.40</title>
			<desc>nrf_recv (gps_data-&#62;data_id = NRF_GNSS_AGPS_DATA_ID )</desc>
			<v:userDefs/>
			<v:textBlock v:margins="rect(4,4,4,4)" v:tabSpace="42.5197"/>
			<v:textRect cx="114.869" cy="316.671" width="229.75" height="10.6458"/>
			<rect x="0" y="311.348" width="229.736" height="10.6458" class="st11"/>
			<text x="46.28" y="319.37" class="st15" v:langID="1033"><v:paragraph v:horizAlign="1"/><v:tabList/>NRF_MODEM_GNSS_EVT_AGPS_REQ</text>		</g>
		<g id="shape41-178" v:mID="41" v:groupContext="shape" transform="translate(155.255,-264.701)">
			<title>Sheet.41</title>
			<desc>«Activate LTE (true)»</desc>
			<v:userDefs/>
			<v:textBlock v:margins="rect(4,4,4,4)" v:tabSpace="42.5197"/>
			<v:textRect cx="93.8412" cy="316.671" width="187.69" height="10.6458"/>
			<rect x="0" y="311.348" width="187.683" height="10.6458" class="st11"/>
			<text x="66.95" y="319.37" class="st15" v:langID="1035"><v:paragraph v:horizAlign="1"/><v:tabList/>«Activate LTE»</text>		</g>
		<g id="shape42-181" v:mID="42" v:groupContext="shape" transform="translate(155.255,-250.695)">
			<title>Sheet.42</title>
			<desc>Open SUPL Socket (TCP, «supl.google.com» «7276»)</desc>
			<v:userDefs/>
			<v:textBlock v:margins="rect(4,4,4,4)" v:tabSpace="42.5197"/>
			<v:textRect cx="109.826" cy="316.671" width="219.66" height="10.6458"/>
			<rect x="0" y="311.348" width="219.652" height="10.6458" class="st11"/>
			<text x="15.61" y="319.37" class="st15" v:langID="1035"><v:paragraph v:horizAlign="1"/><v:tabList/>Open SUPL <tspan
						class="st4" v:langID="1033">s</tspan>ocket (TCP, «supl.<tspan class="st4" v:langID="1033">server</tspan>.com» «7276»)</text>		</g>
		<g id="shape43-186" v:mID="43" v:groupContext="shape" transform="translate(155.255,-223.624)">
			<title>Sheet.43</title>
			<desc>AT_IMSI à Device ID</desc>
			<v:userDefs/>
			<v:textBlock v:margins="rect(4,4,4,4)" v:tabSpace="42.5197"/>
			<v:textRect cx="93.8412" cy="316.671" width="187.69" height="10.6458"/>
			<rect x="0" y="311.348" width="187.683" height="10.6458" class="st11"/>
			<text x="43.73" y="319.48" class="st15" v:langID="1035"><v:paragraph v:horizAlign="1"/><v:tabList/>AT<tspan class="st4"
						v:langID="1033">+CGDCONT</tspan> <tspan class="st16">à</tspan>  Device ID</text>		</g>
		<g id="shape44-191" v:mID="44" v:groupContext="shape" transform="translate(155.255,-210.683)">
			<title>Sheet.44</title>
			<desc>AT_XMONITOR à LTE info</desc>
			<v:userDefs/>
			<v:textBlock v:margins="rect(4,4,4,4)" v:tabSpace="42.5197"/>
			<v:textRect cx="93.8412" cy="316.671" width="187.69" height="10.6458"/>
			<rect x="0" y="311.348" width="187.683" height="10.6458" class="st11"/>
			<text x="44.13" y="319.48" class="st15" v:langID="1035"><v:paragraph v:horizAlign="1"/><v:tabList/>AT<tspan class="st4"
						v:langID="1033">%</tspan>XMONITOR <tspan class="st16">à</tspan> LTE info</text>		</g>
		<g id="shape45-196" v:mID="45" v:groupContext="shape" transform="translate(155.255,-9.66821)">
			<title>Sheet.45</title>
			<desc>«Activate LTE (false)»</desc>
			<v:userDefs/>
			<v:textBlock v:margins="rect(4,4,4,4)" v:tabSpace="42.5197"/>
			<v:textRect cx="93.8412" cy="316.671" width="187.69" height="10.6458"/>
			<rect x="0" y="311.348" width="187.683" height="10.6458" class="st11"/>
			<text x="62.39" y="319.37" class="st15" v:langID="1035"><v:paragraph v:horizAlign="1"/><v:tabList/>«<tspan class="st4"
						v:langID="1033">Dea</tspan>ctivate LTE»</text>		</g>
		<g id="shape46-200" v:mID="46" v:groupContext="shape" transform="translate(155.255,-26.0548)">
			<title>Sheet.46</title>
			<desc>close_supl_socket ()</desc>
			<v:userDefs/>
			<v:textBlock v:margins="rect(4,4,4,4)" v:tabSpace="42.5197"/>
			<v:textRect cx="93.8412" cy="316.671" width="187.69" height="10.6458"/>
			<rect x="0" y="311.348" width="187.683" height="10.6458" class="st11"/>
			<text x="61" y="319.37" class="st15" v:langID="1033"><v:paragraph v:horizAlign="1"/><v:tabList/>Close SUPL socket</text>		</g>
		<g id="shape47-203" v:mID="47" v:groupContext="shape" transform="translate(144.567,-96.0778)">
			<title>Sheet.47</title>
			<desc>Loop 1..m times: nrf_sendto( &#60;AGPS data&#62; )</desc>
			<v:userDefs/>
			<v:textBlock v:margins="rect(4,4,4,4)" v:tabSpace="42.5197"/>
			<v:textRect cx="119.055" cy="316.671" width="238.12" height="10.6458"/>
			<rect x="0" y="311.348" width="238.11" height="10.6458" class="st11"/>
			<text x="4.82" y="319.37" class="st17" v:langID="1035"><v:paragraph v:horizAlign="1"/><v:tabList/>Loop 1..m times: <tspan
						class="st18"> </tspan><tspan class="st18" v:langID="1033">nrf_modem_gnss_agps_write</tspan><tspan
						class="st18">(&#60;A</tspan><tspan class="st18" v:langID="1033">-</tspan><tspan class="st18">GPS data&#62;)</tspan></text>		</g>
		<g id="shape48-211" v:mID="48" v:groupContext="shape" transform="translate(160.857,-170.45)">
			<title>Sheet.48</title>
			<desc>Socket send() à SUPL_START</desc>
			<v:userDefs/>
			<v:textBlock v:margins="rect(4,4,4,4)" v:tabSpace="42.5197"/>
			<v:textRect cx="93.8412" cy="316.671" width="187.69" height="10.6458"/>
			<rect x="0" y="311.348" width="187.683" height="10.6458" class="st11"/>
			<text x="35.38" y="319.48" class="st15" v:langID="1035"><v:paragraph v:horizAlign="1"/><v:tabList/>Socket send()  <tspan
						class="st16">à </tspan>SUPL_START</text>		</g>
		<g id="shape49-215" v:mID="49" v:groupContext="shape" transform="translate(160.857,-154.911)">
			<title>Sheet.49</title>
			<desc>Socket recv() à SUPL_RESPONSE</desc>
			<v:userDefs/>
			<v:textBlock v:margins="rect(4,4,4,4)" v:tabSpace="42.5197"/>
			<v:textRect cx="93.8412" cy="316.671" width="187.69" height="10.6458"/>
			<rect x="0" y="311.348" width="187.683" height="10.6458" class="st11"/>
			<text x="28.68" y="319.48" class="st15" v:langID="1035"><v:paragraph v:horizAlign="1"/><v:tabList/>Socket recv()  <tspan
						class="st16">à </tspan>SUPL_RESPONSE</text>		</g>
		<g id="shape50-219" v:mID="50" v:groupContext="shape" transform="translate(160.857,-138.835)">
			<title>Sheet.50</title>
			<desc>Socket send() à SUPL_POS_INIT</desc>
			<v:userDefs/>
			<v:textBlock v:margins="rect(4,4,4,4)" v:tabSpace="42.5197"/>
			<v:textRect cx="93.8412" cy="316.671" width="187.69" height="10.6458"/>
			<rect x="0" y="311.348" width="187.683" height="10.6458" class="st11"/>
			<text x="29.9" y="319.48" class="st15" v:langID="1035"><v:paragraph v:horizAlign="1"/><v:tabList/>Socket send()  <tspan
						class="st16">à </tspan>SUPL_POS_INIT</text>		</g>
		<g id="shape51-223" v:mID="51" v:groupContext="shape" transform="translate(160.857,-124.582)">
			<title>Sheet.51</title>
			<desc>Loop 1..n times: Socket recv() à SUPL_SUPL_POS</desc>
			<v:userDefs/>
			<v:textBlock v:margins="rect(4,4,4,4)" v:tabSpace="42.5197"/>
			<v:textRect cx="107.025" cy="316.671" width="214.05" height="10.6458"/>
			<rect x="0" y="311.348" width="214.049" height="10.6458" class="st11"/>
			<text x="12.31" y="319.48" class="st17" v:langID="1035"><v:paragraph v:horizAlign="1"/><v:tabList/>Loop 1..n times: <tspan
						class="st18">Socket recv()</tspan> <tspan class="st18"> </tspan><tspan class="st19">à </tspan><tspan
						class="st18">SUPL_SUPL_POS </tspan>  </text>		</g>
		<g id="shape52-230" v:mID="52" v:groupContext="shape" transform="translate(160.857,-65.7697)">
			<title>Sheet.52</title>
			<desc>Socket recv() à SUPL_END</desc>
			<v:userDefs/>
			<v:textBlock v:margins="rect(4,4,4,4)" v:tabSpace="42.5197"/>
			<v:textRect cx="93.8412" cy="316.671" width="187.69" height="10.6458"/>
			<rect x="0" y="311.348" width="187.683" height="10.6458" class="st11"/>
			<text x="39.99" y="319.48" class="st15" v:langID="1035"><v:paragraph v:horizAlign="1"/><v:tabList/>Socket recv()  <tspan
						class="st16">à </tspan>SUPL_END</text>		</g>
		<g id="shape53-234" v:mID="53" v:groupContext="shape" transform="translate(142.956,-40.2019)">
			<title>Sheet.53</title>
			<rect x="0" y="169.327" width="3.36148" height="152.667" class="st20"/>
		</g>
		<g id="shape54-236" v:mID="54" v:groupContext="shape" transform="translate(15.2293,-54.4834)">
			<title>Sheet.54</title>
			<path d="M0 316.32 A5.66942 5.66942 -180 0 0 5.67 321.99 L504.08 321.99 A5.66942 5.66942 -180 0 0 509.75 316.32 L509.75
						 195.77 A5.66942 5.66942 -180 0 0 504.08 190.1 L5.67 190.1 A5.66942 5.66942 -180 0 0 0 195.77 L0 316.32 Z"
					class="st21"/>
		</g>
		<g id="shape55-238" v:mID="55" v:groupContext="shape" transform="translate(48.6131,-273.805)">
			<title>Sheet.55</title>
			<desc>1</desc>
			<v:userDefs/>
			<v:textBlock v:margins="rect(4,4,4,4)" v:tabSpace="42.5197"/>
			<v:textRect cx="4.90216" cy="317.092" width="9.81" height="9.8043"/>
			<path d="M0 317.09 A4.90227 4.90227 -180 0 0 4.9 321.99 A4.90227 4.90227 -180 0 0 9.8 317.09 A4.90227 4.90227 -180 0
						 0 4.9 312.19 A4.90227 4.90227 -180 0 0 0 317.09 Z" class="st11"/>
			<text x="4" y="319.49" class="st3" v:langID="1035"><v:paragraph v:horizAlign="1"/><v:tabList/>1</text>		</g>
		<g id="shape56-241" v:mID="56" v:groupContext="shape" transform="translate(66.4372,-40.828)">
			<title>Sheet.56</title>
			<desc>supl_client_session()</desc>
			<v:userDefs/>
			<v:textBlock v:margins="rect(4,4,4,4)" v:tabSpace="42.5197"/>
			<v:textRect cx="39.6004" cy="316.671" width="79.21" height="10.6458"/>
			<rect x="0" y="311.348" width="79.2009" height="10.6458" class="st11"/>
			<text x="4" y="319.07" class="st12" v:langID="1035"><v:paragraph/><v:tabList/>supl_client_session()</text>		</g>
		<g id="shape57-244" v:mID="57" v:groupContext="shape" transform="translate(10.3709,-273.635)">
			<title>Sheet.57</title>
			<rect x="0" y="304.703" width="8.78739" height="17.2913" class="st11"/>
		</g>
		<g id="shape58-246" v:mID="58" v:groupContext="shape" transform="translate(49.947,-259.799)">
			<title>Sheet.58</title>
			<ellipse cx="4.90216" cy="317.092" rx="4.90216" ry="4.90216" class="st1"/>
		</g>
		<g id="shape59-248" v:mID="59" v:groupContext="shape" transform="translate(48.9466,-259.799)">
			<title>Sheet.59</title>
			<desc>2</desc>
			<v:userDefs/>
			<v:textBlock v:margins="rect(4,4,4,4)" v:tabSpace="42.5197"/>
			<v:textRect cx="4.90216" cy="317.092" width="9.81" height="9.8043"/>
			<path d="M0 317.09 A4.90227 4.90227 -180 0 0 4.9 321.99 A4.90227 4.90227 -180 0 0 9.8 317.09 A4.90227 4.90227 -180 0
						 0 4.9 312.19 A4.90227 4.90227 -180 0 0 0 317.09 Z" class="st11"/>
			<text x="4" y="319.49" class="st3" v:langID="1035"><v:paragraph v:horizAlign="1"/><v:tabList/>2</text>		</g>
		<g id="shape60-251" v:mID="60" v:groupContext="shape" transform="translate(50.9475,-219.143)">
			<title>Sheet.60</title>
			<ellipse cx="4.90216" cy="317.092" rx="4.90216" ry="4.90216" class="st1"/>
		</g>
		<g id="shape61-253" v:mID="61" v:groupContext="shape" transform="translate(49.947,-219.143)">
			<title>Sheet.61</title>
			<desc>4</desc>
			<v:userDefs/>
			<v:textBlock v:margins="rect(4,4,4,4)" v:tabSpace="42.5197"/>
			<v:textRect cx="4.90216" cy="317.092" width="9.81" height="9.8043"/>
			<path d="M0 317.09 A4.90227 4.90227 -180 0 0 4.9 321.99 A4.90227 4.90227 -180 0 0 9.8 317.09 A4.90227 4.90227 -180 0
						 0 4.9 312.19 A4.90227 4.90227 -180 0 0 0 317.09 Z" class="st11"/>
			<text x="4" y="319.49" class="st3" v:langID="1035"><v:paragraph v:horizAlign="1"/><v:tabList/>4</text>		</g>
		<g id="shape62-256" v:mID="62" v:groupContext="shape" transform="translate(50.9475,-191.463)">
			<title>Sheet.62</title>
			<ellipse cx="4.90216" cy="317.092" rx="4.90216" ry="4.90216" class="st1"/>
		</g>
		<g id="shape63-258" v:mID="63" v:groupContext="shape" transform="translate(49.947,-191.463)">
			<title>Sheet.63</title>
			<desc>5</desc>
			<v:userDefs/>
			<v:textBlock v:margins="rect(4,4,4,4)" v:tabSpace="42.5197"/>
			<v:textRect cx="4.90216" cy="317.092" width="9.81" height="9.8043"/>
			<path d="M0 317.09 A4.90227 4.90227 -180 0 0 4.9 321.99 A4.90227 4.90227 -180 0 0 9.8 317.09 A4.90227 4.90227 -180 0
						 0 4.9 312.19 A4.90227 4.90227 -180 0 0 0 317.09 Z" class="st11"/>
			<text x="4" y="319.49" class="st3" v:langID="1035"><v:paragraph v:horizAlign="1"/><v:tabList/>5</text>		</g>
		<g id="shape64-261" v:mID="64" v:groupContext="shape" transform="translate(2.72569,-167.879)">
			<title>Sheet.64</title>
			<ellipse cx="4.90216" cy="317.092" rx="4.90216" ry="4.90216" class="st1"/>
		</g>
		<g id="shape65-263" v:mID="65" v:groupContext="shape" transform="translate(1.72522,-167.879)">
			<title>Sheet.65</title>
			<desc>6</desc>
			<v:userDefs/>
			<v:textBlock v:margins="rect(4,4,4,4)" v:tabSpace="42.5197"/>
			<v:textRect cx="4.90216" cy="317.092" width="9.81" height="9.8043"/>
			<path d="M0 317.09 A4.90227 4.90227 -180 0 0 4.9 321.99 A4.90227 4.90227 -180 0 0 9.8 317.09 A4.90227 4.90227 -180 0
						 0 4.9 312.19 A4.90227 4.90227 -180 0 0 0 317.09 Z" class="st11"/>
			<text x="4" y="319.49" class="st3" v:langID="1035"><v:paragraph v:horizAlign="1"/><v:tabList/>6</text>		</g>
		<g id="shape66-266" v:mID="66" v:groupContext="shape" transform="translate(2.66744,-93.8516)">
			<title>Sheet.66</title>
			<ellipse cx="4.90216" cy="317.092" rx="4.90216" ry="4.90216" class="st1"/>
		</g>
		<g id="shape67-268" v:mID="67" v:groupContext="shape" transform="translate(0.999999,-93.8515)">
			<title>Sheet.67</title>
			<desc>7</desc>
			<v:userDefs/>
			<v:textBlock v:margins="rect(4,4,4,4)" v:tabSpace="42.5197"/>
			<v:textRect cx="4.90216" cy="317.092" width="9.81" height="9.8043"/>
			<path d="M0 317.09 A4.90227 4.90227 -180 0 0 4.9 321.99 A4.90227 4.90227 -180 0 0 9.8 317.09 A4.90227 4.90227 -180 0
						 0 4.9 312.19 A4.90227 4.90227 -180 0 0 -0 317.09 Z" class="st11"/>
			<text x="4" y="319.49" class="st3" v:langID="1035"><v:paragraph v:horizAlign="1"/><v:tabList/>7</text>		</g>
		<g id="shape68-271" v:mID="68" v:groupContext="shape" transform="translate(51.0232,-36.4918)">
			<title>Sheet.68</title>
			<ellipse cx="4.90216" cy="317.092" rx="4.90216" ry="4.90216" class="st1"/>
		</g>
		<g id="shape69-273" v:mID="69" v:groupContext="shape" transform="translate(50.0227,-36.4916)">
			<title>Sheet.69</title>
			<desc>5</desc>
			<v:userDefs/>
			<v:textBlock v:margins="rect(4,4,4,4)" v:tabSpace="42.5197"/>
			<v:textRect cx="4.90216" cy="317.092" width="9.81" height="9.8043"/>
			<path d="M0 317.09 A4.90227 4.90227 -180 0 0 4.9 321.99 A4.90227 4.90227 -180 0 0 9.8 317.09 A4.90227 4.90227 -180 0
						 0 4.9 312.19 A4.90227 4.90227 -180 0 0 -0 317.09 Z" class="st11"/>
			<text x="4" y="319.49" class="st3" v:langID="1035"><v:paragraph v:horizAlign="1"/><v:tabList/>5</text>		</g>
		<g id="shape70-276" v:mID="70" v:groupContext="shape" transform="translate(51.281,-15.4821)">
			<title>Sheet.70</title>
			<ellipse cx="4.90216" cy="317.092" rx="4.90216" ry="4.90216" class="st1"/>
		</g>
		<g id="shape71-278" v:mID="71" v:groupContext="shape" transform="translate(50.2805,-15.4819)">
			<title>Sheet.71</title>
			<desc>8</desc>
			<v:userDefs/>
			<v:textBlock v:margins="rect(4,4,4,4)" v:tabSpace="42.5197"/>
			<v:textRect cx="4.90216" cy="317.092" width="9.81" height="9.8043"/>
			<path d="M0 317.09 A4.90227 4.90227 -180 0 0 4.9 321.99 A4.90227 4.90227 -180 0 0 9.8 317.09 A4.90227 4.90227 -180 0
						 0 4.9 312.19 A4.90227 4.90227 -180 0 0 -0 317.09 Z" class="st11"/>
			<text x="4" y="319.49" class="st3" v:langID="1035"><v:paragraph v:horizAlign="1"/><v:tabList/>8</text>		</g>
		<g id="shape72-281" v:mID="72" v:groupContext="shape" transform="translate(2.66744,-63.1708)">
			<title>Sheet.72</title>
			<ellipse cx="4.90216" cy="317.092" rx="4.90216" ry="4.90216" class="st1"/>
		</g>
		<g id="shape73-283" v:mID="73" v:groupContext="shape" transform="translate(1.66698,-63.1707)">
			<title>Sheet.73</title>
			<desc>6</desc>
			<v:userDefs/>
			<v:textBlock v:margins="rect(4,4,4,4)" v:tabSpace="42.5197"/>
			<v:textRect cx="4.90216" cy="317.092" width="9.81" height="9.8043"/>
			<path d="M0 317.09 A4.90227 4.90227 -180 0 0 4.9 321.99 A4.90227 4.90227 -180 0 0 9.8 317.09 A4.90227 4.90227 -180 0
						 0 4.9 312.19 A4.90227 4.90227 -180 0 0 -0 317.09 Z" class="st11"/>
			<text x="4" y="319.49" class="st3" v:langID="1035"><v:paragraph v:horizAlign="1"/><v:tabList/>6</text>		</g>
		<g id="shape74-286" v:mID="74" v:groupContext="shape" transform="translate(70.9962,-232.816)">
			<title>Sheet.74</title>
			<desc>supl_client_init()</desc>
			<v:userDefs/>
			<v:textBlock v:margins="rect(4,4,4,4)" v:tabSpace="42.5197"/>
			<v:textRect cx="39.6004" cy="316.671" width="79.21" height="10.6458"/>
			<rect x="0" y="311.348" width="79.2009" height="10.6458" class="st11"/>
			<text x="4" y="319.07" class="st12" v:langID="1035"><v:paragraph/><v:tabList/>supl_client_init()</text>		</g>
		<g id="shape75-289" v:mID="75" v:groupContext="shape" transform="translate(70.9962,-232.82)">
			<title>Sheet.75</title>
			<path d="M0 321.99 L73.41 321.99" class="st10"/>
		</g>
		<g id="shape76-294" v:mID="76" v:groupContext="shape" transform="translate(50.7563,-233.583)">
			<title>Sheet.76</title>
			<ellipse cx="4.90216" cy="317.092" rx="4.90216" ry="4.90216" class="st1"/>
		</g>
		<g id="shape77-296" v:mID="77" v:groupContext="shape" transform="translate(49.7558,-233.583)">
			<title>Sheet.77</title>
			<desc>3</desc>
			<v:userDefs/>
			<v:textBlock v:margins="rect(4,4,4,4)" v:tabSpace="42.5197"/>
			<v:textRect cx="4.90216" cy="317.092" width="9.81" height="9.8043"/>
			<path d="M0 317.09 A4.90227 4.90227 -180 0 0 4.9 321.99 A4.90227 4.90227 -180 0 0 9.8 317.09 A4.90227 4.90227 -180 0
						 0 4.9 312.19 A4.90227 4.90227 -180 0 0 0 317.09 Z" class="st11"/>
			<text x="4" y="319.49" class="st3" v:langID="1035"><v:paragraph v:horizAlign="1"/><v:tabList/>3</text>		</g>
	</g>
</svg>
