<?xml version="1.0" encoding="UTF-8" standalone="no"?>
<!DOCTYPE svg PUBLIC "-//W3C//DTD SVG 1.1//EN" "http://www.w3.org/Graphics/SVG/1.1/DTD/svg11.dtd">
<!-- Generated by Microsoft Visio, SVG Export psa_crypto_lib_selector.svg Page-1 -->
<svg xmlns="http://www.w3.org/2000/svg" xmlns:xlink="http://www.w3.org/1999/xlink" xmlns:ev="http://www.w3.org/2001/xml-events"
		width="5.30398in" height="4.82435in" viewBox="0 0 381.886 347.353" xml:space="preserve" color-interpolation-filters="sRGB"
		class="st14">
	<style type="text/css">
	<![CDATA[
		.st1 {fill:#ffffff;fill-opacity:0;stroke:none;stroke-linecap:round;stroke-linejoin:round;stroke-width:0.24}
		.st2 {fill:#00a9ce;stroke:none;stroke-width:1}
		.st3 {fill:#ffffff;font-family:Arial;font-size:0.916672em}
		.st4 {marker-start:url(#mrkr21-12);stroke:#00a9ce;stroke-linecap:butt;stroke-width:1}
		.st5 {fill:#00a9ce;fill-opacity:1;stroke:#00a9ce;stroke-opacity:1;stroke-width:0.28409090909091}
		.st6 {fill:none;stroke:none;stroke-width:1}
		.st7 {font-size:1em}
		.st8 {marker-end:url(#mrkr4-51);stroke:#00a9ce;stroke-linecap:round;stroke-linejoin:round;stroke-width:1}
		.st9 {marker-end:url(#mrkr4-57);stroke:#00a9ce;stroke-linecap:round;stroke-linejoin:round;stroke-width:1.75}
		.st10 {fill:#00a9ce;fill-opacity:1;stroke:#00a9ce;stroke-opacity:1;stroke-width:0.40983606557377}
		.st11 {fill:none;stroke:none;stroke-linecap:round;stroke-linejoin:round;stroke-width:0.75}
		.st12 {fill:#00a9ce;font-family:Arial;font-size:0.916672em}
		.st13 {fill:#000000;font-family:Arial;font-size:0.833336em}
		.st14 {fill:none;fill-rule:evenodd;font-size:12px;overflow:visible;stroke-linecap:square;stroke-miterlimit:3}
	]]>
	</style>

	<defs id="Markers">
		<g id="lend21">
			<path d="M 0.75 -0.75 L 0.75 0.75 L -0.75 0.75 L -0.75 -0.75 L 0.75 -0.75 "
					style="stroke-linecap:round;stroke-linejoin:round;fill:none"/>
		</g>
		<marker id="mrkr21-12" class="st5" refX="2.28" orient="auto" markerUnits="strokeWidth" overflow="visible">
			<use xlink:href="#lend21" transform="scale(3.52) "/>
		</marker>
		<g id="lend4">
			<path d="M 2 1 L 0 0 L 2 -1 L 2 1 " style="stroke:none"/>
		</g>
		<marker id="mrkr4-51" class="st5" refX="-7.04" orient="auto" markerUnits="strokeWidth" overflow="visible">
			<use xlink:href="#lend4" transform="scale(-3.52,-3.52) "/>
		</marker>
		<marker id="mrkr4-57" class="st10" refX="-4.88" orient="auto" markerUnits="strokeWidth" overflow="visible">
			<use xlink:href="#lend4" transform="scale(-2.44,-2.44) "/>
		</marker>
	</defs>
	<g>
		<title>Page-1</title>
		<g id="shape259-1" transform="translate(221.969,-76.9586)">
			<title>Square.259</title>
			<rect x="0" y="343.623" width="3.72979" height="3.72979" class="st1"/>
		</g>
		<g id="shape59-3" transform="translate(100.881,-297.958)">
			<title>Sheet.59</title>
			<desc>PSA Crypto API</desc>
			<path d="M0 298.96 L0 347.35 L160.38 347.35 L160.38 298.96 L0 298.96 L0 298.96 Z" class="st2"/>
			<text x="41.07" y="326.46" class="st3">PSA Crypto API</text>		</g>
		<g id="group222-6" transform="translate(124.976,-79.9412)">
			<title>Pin, up</title>
			<g id="shape223-7" transform="translate(7.44095,-22.8577)">
				<title>Dynamic connector</title>
				<path d="M7.09 349.63 L7.09 349.99 L7.09 370.21" class="st4"/>
			</g>
			<g id="shape224-13" transform="translate(-24.4488,-22.8577)">
				<title>Sheet.224</title>
				<rect x="0" y="324.676" width="77.9528" height="22.6772" class="st6"/>
			</g>
		</g>
		<g id="shape228-15" transform="translate(115.763,-173.189)">
			<title>Diamond</title>
			<desc>Cryptography library selector</desc>
			<path d="M65.91 347.35 L131.81 297.92 L65.91 248.49 L0 297.92 L65.91 347.35 Z" class="st2"/>
			<text x="32.89" y="288.02" class="st3">Cryptography <tspan x="50.93" dy="1.2em" class="st7">li</tspan>brary <tspan
						x="46.65" dy="1.2em" class="st7">selector</tspan></text>		</g>
		<g id="group229-20" transform="translate(167.141,-79.9412)">
			<title>Pin, up.229</title>
			<g id="shape230-21" transform="translate(7.44095,-22.8577)">
				<title>Dynamic connector</title>
				<path d="M7.09 349.63 L7.09 349.99 L7.09 370.21" class="st4"/>
			</g>
			<g id="shape231-26" transform="translate(-24.4488,-22.8577)">
				<title>Sheet.231</title>
				<rect x="0" y="324.676" width="77.9528" height="22.6772" class="st6"/>
			</g>
		</g>
		<g id="group235-28" transform="translate(196.196,521.517) rotate(180)">
			<title>Pin, up.235</title>
			<g id="shape236-29" transform="translate(7.44095,-22.8577)">
				<title>Dynamic connector</title>
				<path d="M7.09 349.63 L7.09 349.99 L7.09 370.21" class="st4"/>
			</g>
			<g id="shape237-34" transform="translate(-24.4488,-22.8577)">
				<title>Sheet.237</title>
				<rect x="0" y="324.676" width="77.9528" height="22.6772" class="st6"/>
			</g>
		</g>
		<g id="shape243-36" transform="translate(19.9629,-1)">
			<title>Sheet.243</title>
			<desc>cc3xx</desc>
			<path d="M0 298.96 L0 347.35 L102.55 347.35 L102.55 298.96 L0 298.96 L0 298.96 Z" class="st2"/>
			<text x="37.22" y="326.46" class="st3">cc3xx</text>		</g>
		<g id="shape244-39" transform="translate(137.639,-1)">
			<title>Sheet.244</title>
			<desc>CRACEN</desc>
			<path d="M0 298.96 L0 347.35 L102.55 347.35 L102.55 298.96 L0 298.96 L0 298.96 Z" class="st2"/>
			<text x="28.05" y="326.46" class="st3">CRACEN</text>		</g>
		<g id="shape245-42" transform="translate(255.314,-1)">
			<title>Sheet.245</title>
			<desc>nrf_oberon</desc>
			<path d="M0 298.96 L0 347.35 L102.55 347.35 L102.55 298.96 L0 298.96 L0 298.96 Z" class="st2"/>
			<text x="24.67" y="326.46" class="st3">nrf_oberon</text>		</g>
		<g id="group247-45" transform="translate(0,-119.478)">
			<title>Task</title>
		</g>
		<g id="shape255-46" transform="translate(181.669,-147.213)">
			<title>Dynamic connector</title>
			<path d="M0 347.35 L34.4 383.7" class="st8"/>
		</g>
		<g id="shape256-52" transform="translate(174.428,-297.958)">
			<title>Dynamic connector.256</title>
			<path d="M6.93 347.35 L7.14 364.72" class="st9"/>
		</g>
		<g id="shape257-58" transform="translate(223.834,-80.6884)">
			<title>Dynamic connector.257</title>
			<path d="M0 347.35 L82.76 347.35 L82.76 371.61" class="st8"/>
		</g>
		<g id="shape258-63" transform="translate(304.724,-45.665)">
			<title>Square</title>
			<rect x="0" y="343.623" width="3.72979" height="3.72979" class="st1"/>
		</g>
		<g id="group232-65" transform="translate(209.307,-79.9412)">
			<title>Pin, up.232</title>
			<g id="shape233-66" transform="translate(7.44094,-22.8577)">
				<title>Dynamic connector</title>
				<path d="M7.09 349.63 L7.09 349.99 L7.09 369.46" class="st4"/>
			</g>
			<g id="shape234-71" transform="translate(-24.4488,-22.8577)">
				<title>Sheet.234</title>
				<rect x="0" y="324.676" width="77.9528" height="22.6772" class="st6"/>
			</g>
		</g>
		<g id="shape260-73" transform="translate(137.639,-76.2114)">
			<title>Square.260</title>
			<rect x="0" y="343.623" width="3.72979" height="3.72979" class="st1"/>
		</g>
		<g id="shape261-75" transform="translate(69.3731,-45.665)">
			<title>Square.261</title>
			<rect x="0" y="343.623" width="3.72979" height="3.72979" class="st1"/>
		</g>
		<g id="shape262-77" transform="translate(139.503,-79.9412)">
			<title>Dynamic connector.262</title>
			<path d="M0 347.35 L-68.27 347.35 L-68.27 370.86" class="st8"/>
		</g>
		<g id="shape263-82" transform="translate(178.498,-149.429)">
			<title>Square.263</title>
			<rect x="0" y="343.623" width="3.72979" height="3.72979" class="st1"/>
		</g>
		<g id="shape265-84" transform="translate(219.041,-102.023)">
			<title>Square.265</title>
			<rect x="0" y="343.623" width="3.72979" height="3.72979" class="st1"/>
		</g>
		<g id="shape266-86" transform="translate(179.804,-147.213)">
			<title>Square.266</title>
			<rect x="0" y="343.623" width="3.72979" height="3.72979" class="st1"/>
		</g>
		<g id="shape267-88" transform="translate(249.7,-195.689)">
			<title>Sheet.267</title>
			<desc>Selection based on: - Hardware capabilities - User configurat...</desc>
			<rect x="0" y="293.495" width="131.811" height="53.8583" class="st11"/>
			<text x="4" y="310.52" class="st12">Selection based on: <tspan x="4" dy="1.2em" class="st7">-</tspan> Hardware capabilities <tspan
						x="4" dy="1.2em" class="st7">-</tspan> User configuration</text>		</g>
		<g id="shape268-93" transform="translate(-90.526,-154.887) rotate(-36.863)">
			<title>Sheet.268</title>
			<desc>Crypto driver wrappers</desc>
			<rect x="0" y="321.27" width="71.9693" height="26.0824" class="st11"/>
			<text x="7.37" y="331.31" class="st13">Crypto driver <tspan x="15.42" dy="1.2em" class="st7">wrappers</tspan></text>		</g>
		<g id="shape270-97" transform="translate(179.804,-76.2114)">
			<title>Square.270</title>
			<rect x="0" y="343.623" width="3.72979" height="3.72979" class="st1"/>
		</g>
		<g id="shape271-99" transform="translate(179.804,-45.665)">
			<title>Square.271</title>
			<rect x="0" y="343.623" width="3.72979" height="3.72979" class="st1"/>
		</g>
		<g id="shape272-101" transform="translate(174.582,-79.9412)">
			<title>Dynamic connector.272</title>
			<path d="M7.09 347.35 L7.09 370.86" class="st8"/>
		</g>
	</g>
</svg>
