<?xml version="1.0" encoding="UTF-8" standalone="no"?>
<!DOCTYPE svg PUBLIC "-//W3C//DTD SVG 1.1//EN" "http://www.w3.org/Graphics/SVG/1.1/DTD/svg11.dtd">
<!-- Generated by Microsoft Visio, SVG Export psa_crypto_api_arch.svg Page-1 -->
<svg xmlns="http://www.w3.org/2000/svg" xmlns:xlink="http://www.w3.org/1999/xlink" xmlns:ev="http://www.w3.org/2001/xml-events"
		width="6.96924in" height="2.77591in" viewBox="0 0 501.786 199.866" xml:space="preserve" color-interpolation-filters="sRGB"
		class="st17">
	<style type="text/css">
	<![CDATA[
		.st1 {fill:#0033a0;stroke:none;stroke-width:1}
		.st2 {fill:#ffffff;font-family:Arial;font-size:1.16666em}
		.st3 {fill:#768692;stroke:none;stroke-width:1}
		.st4 {fill:#de823b;stroke:none;stroke-width:1}
		.st5 {fill:#00a2c6;stroke:none;stroke-width:1}
		.st6 {fill:#ffffff;font-family:Arial;font-size:0.916672em}
		.st7 {font-size:1em}
		.st8 {fill:#0077c8;stroke:none;stroke-width:1}
		.st9 {marker-start:url(#mrkr5-23);stroke:#008bab;stroke-linecap:butt;stroke-width:1}
		.st10 {fill:#008bab;fill-opacity:1;stroke:#008bab;stroke-opacity:1;stroke-width:0.35714285714286}
		.st11 {marker-end:url(#mrkr5-34);stroke:#008bab;stroke-linecap:butt;stroke-width:1}
		.st12 {fill:#008bab;fill-opacity:1;stroke:#008bab;stroke-opacity:1;stroke-width:0.28409090909091}
		.st13 {fill:none;stroke:#333f48;stroke-width:1.5}
		.st14 {fill:none;stroke:#333f48;stroke-dasharray:7,5;stroke-width:1}
		.st15 {fill:none;stroke:none;stroke-width:1}
		.st16 {fill:#333f48;font-family:Arial;font-size:0.916672em}
		.st17 {fill:none;fill-rule:evenodd;font-size:12px;overflow:visible;stroke-linecap:square;stroke-miterlimit:3}
	]]>
	</style>

	<defs id="Markers">
		<g id="lend5">
			<path d="M 2 1 L 0 0 L 1.98117 -0.993387 C 1.67173 -0.364515 1.67301 0.372641 1.98465 1.00043 " style="stroke:none"/>
		</g>
		<marker id="mrkr5-23" class="st10" refX="4.54" orient="auto" markerUnits="strokeWidth" overflow="visible">
			<use xlink:href="#lend5" transform="scale(2.8) "/>
		</marker>
		<marker id="mrkr5-34" class="st12" refX="-6.16" orient="auto" markerUnits="strokeWidth" overflow="visible">
			<use xlink:href="#lend5" transform="scale(-3.52,-3.52) "/>
		</marker>
	</defs>
	<g>
		<title>Page-1</title>
		<g id="shape81-1" transform="translate(4.55714,-111.588)">
			<title>Nordic Blue.81</title>
			<desc>PSA Crypto API</desc>
			<rect x="0" y="167.044" width="314.901" height="32.8222" class="st1"/>
			<text x="107.65" y="187.65" class="st2">PSA Crypto API</text>		</g>
		<g id="shape82-4" transform="translate(4.55714,-1)">
			<title>Nordic Middle Grey</title>
			<desc>Hardware Platform</desc>
			<rect x="0" y="167.044" width="314.901" height="32.8222" class="st3"/>
			<text x="99.1" y="187.65" class="st2">Hardware Platform</text>		</g>
		<g id="shape85-7" transform="translate(4.55714,-166.044)">
			<title>Nordic Fall</title>
			<desc>Application</desc>
			<rect x="0" y="167.044" width="314.901" height="32.8222" class="st4"/>
			<text x="123.21" y="187.65" class="st2">Application</text>		</g>
		<g id="shape86-10" transform="translate(174.972,-52.6577)">
			<title>Nordic Blue.86</title>
			<desc>Cryptographic driver</desc>
			<rect x="0" y="167.044" width="144.487" height="32.8222" class="st5"/>
			<text x="38.01" y="180.15" class="st6">Cryptographic <tspan x="58.49" dy="1.2em" class="st7">driver</tspan></text>		</g>
		<g id="shape87-14" transform="translate(4.55714,-52.6577)">
			<title>Nordic Blue.87</title>
			<desc>Storage integration</desc>
			<rect x="0" y="167.044" width="144.487" height="32.8222" class="st8"/>
			<text x="52.98" y="180.15" class="st6">Storage <tspan x="46.56" dy="1.2em" class="st7">integration</tspan></text>		</g>
		<g id="shape123-18" transform="translate(69.798,-85.4799)">
			<title>Dynamic connector</title>
			<path d="M7.03 195.33 L7.03 194.97 L7.17 173.76" class="st9"/>
		</g>
		<g id="shape124-24" transform="translate(254.218,-85.4799)">
			<title>Dynamic connector.124</title>
			<path d="M-7.03 195.33 L-7.03 194.97 L-7.17 173.76" class="st9"/>
		</g>
		<g id="shape125-29" transform="translate(154.921,-166.044)">
			<title>Dynamic connector.125</title>
			<path d="M7.09 199.87 L7.09 215.34" class="st11"/>
		</g>
		<g id="shape137-35" transform="translate(338.323,-111.588)">
			<title>Sheet.137</title>
			<rect x="0" y="115.423" width="161.963" height="84.4426" class="st13"/>
		</g>
		<g id="shape138-37" transform="translate(344.701,-168.989)">
			<title>Nordic Red.54</title>
			<rect x="0" y="181.289" width="17.3286" height="18.5764" class="st1"/>
		</g>
		<g id="shape140-39" transform="translate(345.249,-142.059)">
			<title>Nordic Red.56</title>
			<path d="M0 199.87 L17.33 199.87 L17.33 181.29 L0 181.29 L0 199.87 Z" class="st14"/>
		</g>
		<g id="shape141-41" transform="translate(362.029,-167.647)">
			<title>Sheet.141</title>
			<desc>PSA Crypto API standard</desc>
			<rect x="0" y="179.948" width="138.256" height="19.9181" class="st15"/>
			<text x="4" y="193.21" class="st16">PSA Crypto API standard</text>		</g>
		<g id="shape142-44" transform="translate(362.578,-115.206)">
			<title>Sheet.142</title>
			<desc>API calls</desc>
			<rect x="0" y="179.948" width="137.708" height="19.9181" class="st15"/>
			<text x="4" y="193.21" class="st16">API calls</text>		</g>
		<g id="shape143-47" transform="translate(362.029,-140.718)">
			<title>Sheet.143</title>
			<desc>Implementation backend</desc>
			<rect x="0" y="179.948" width="138.256" height="19.9181" class="st15"/>
			<text x="4" y="193.21" class="st16">Implementation backend</text>		</g>
		<g id="shape153-50" transform="translate(1,-45.7949)">
			<title>Sheet.153</title>
			<path d="M0 199.87 L323.15 199.87 L323.15 151.68 L0 151.68 L0 199.87 Z" class="st14"/>
		</g>
		<g id="shape155-52" transform="translate(346.26,-118.645)">
			<title>Dynamic connector.155</title>
			<path d="M0 192.78 L9.71 192.78" class="st11"/>
		</g>
		<g id="shape156-57" transform="translate(345.089,-124.881)">
			<title>Nordic Red.156</title>
			<rect x="0" y="198.165" width="1.17116" height="1.70079" class="st15"/>
		</g>
		<g id="shape157-59" transform="translate(362.134,-124.881)">
			<title>Nordic Red.157</title>
			<rect x="0" y="198.165" width="1.17116" height="1.70079" class="st15"/>
		</g>
	</g>
</svg>
