<?xml version="1.0" encoding="UTF-8" standalone="no"?>
<!DOCTYPE svg PUBLIC "-//W3C//DTD SVG 1.1//EN" "http://www.w3.org/Graphics/SVG/1.1/DTD/svg11.dtd">
<!-- Generated by Microsoft Visio, SVG Export psa_crypto_api_ironside.svg Page-1 -->
<svg xmlns="http://www.w3.org/2000/svg" xmlns:xlink="http://www.w3.org/1999/xlink" xmlns:ev="http://www.w3.org/2001/xml-events"
		width="7.21282in" height="3.60704in" viewBox="0 0 519.323 259.707" xml:space="preserve" color-interpolation-filters="sRGB"
		class="st23">
	<style type="text/css">
	<![CDATA[
		.st1 {fill:#d9e1e2;stroke:#333f48;stroke-width:1}
		.st2 {fill:#333f48;font-family:Arial;font-size:0.916672em}
		.st3 {fill:#de823b;stroke:none;stroke-width:1}
		.st4 {fill:#ffffff;font-family:Arial;font-size:1.16666em}
		.st5 {fill:none;stroke:#333f48;stroke-width:1.5}
		.st6 {fill:#0033a0;stroke:none;stroke-width:1}
		.st7 {fill:none;stroke:#6ad1e3;stroke-width:1}
		.st8 {fill:none;stroke:none;stroke-width:1}
		.st9 {font-size:1em}
		.st10 {marker-end:url(#mrkr5-28);stroke:#008bab;stroke-linecap:butt;stroke-width:1}
		.st11 {fill:#008bab;fill-opacity:1;stroke:#008bab;stroke-opacity:1;stroke-width:0.28409090909091}
		.st12 {fill:#00a9ce;stroke:none;stroke-width:1}
		.st13 {fill:#333f48;stroke:none;stroke-width:1}
		.st14 {fill:#ffffff;font-family:Arial;font-size:0.916672em}
		.st15 {fill:none;stroke:#333f48;stroke-width:1}
		.st16 {fill:none;stroke:#f58220;stroke-dasharray:3,3;stroke-width:1}
		.st17 {marker-end:url(#mrkr5-68);stroke:#f58220;stroke-linecap:butt;stroke-width:1}
		.st18 {fill:#f58220;fill-opacity:1;stroke:#f58220;stroke-opacity:1;stroke-width:0.28409090909091}
		.st19 {fill:#ffffff;font-family:Arial;font-size:1.00001em}
		.st20 {stroke:#f58220;stroke-dasharray:4,2;stroke-linecap:butt;stroke-width:1}
		.st21 {fill:#00a2c6;stroke:none;stroke-width:1}
		.st22 {marker-end:url(#mrkr5-28);marker-start:url(#mrkr5-101);stroke:#008bab;stroke-linecap:butt;stroke-width:1}
		.st23 {fill:none;fill-rule:evenodd;font-size:12px;overflow:visible;stroke-linecap:square;stroke-miterlimit:3}
	]]>
	</style>

	<defs id="Markers">
		<g id="lend5">
			<path d="M 2 1 L 0 0 L 1.98117 -0.993387 C 1.67173 -0.364515 1.67301 0.372641 1.98465 1.00043 " style="stroke:none"/>
		</g>
		<marker id="mrkr5-28" class="st11" refX="-6.16" orient="auto" markerUnits="strokeWidth" overflow="visible">
			<use xlink:href="#lend5" transform="scale(-3.52,-3.52) "/>
		</marker>
		<marker id="mrkr5-68" class="st18" refX="-6.16" orient="auto" markerUnits="strokeWidth" overflow="visible">
			<use xlink:href="#lend5" transform="scale(-3.52,-3.52) "/>
		</marker>
		<marker id="mrkr5-101" class="st11" refX="5.8" orient="auto" markerUnits="strokeWidth" overflow="visible">
			<use xlink:href="#lend5" transform="scale(3.52) "/>
		</marker>
	</defs>
	<g>
		<title>Page-1</title>
		<g id="shape366-1" transform="translate(1.07995,-128.06)">
			<title>Nordic Blue.366</title>
			<desc>nRF54H20</desc>
			<rect x="0" y="170.604" width="314.901" height="89.103" class="st1"/>
			<text x="4" y="184.5" class="st2">nRF54H20</text>		</g>
		<g id="shape337-4" transform="translate(1,-225.885)">
			<title>Nordic Fall.337</title>
			<desc>Application</desc>
			<rect x="0" y="226.885" width="314.901" height="32.8222" class="st3"/>
			<text x="123.21" y="247.5" class="st4">Application</text>		</g>
		<g id="shape339-7" transform="translate(93.7707,-1.5)">
			<title>Sheet.339</title>
			<rect x="0" y="150.573" width="324.695" height="109.134" class="st5"/>
		</g>
		<g id="shape340-9" transform="translate(100.149,-83.5914)">
			<title>Nordic Red.340</title>
			<rect x="0" y="241.13" width="17.3286" height="18.5764" class="st6"/>
		</g>
		<g id="shape341-11" transform="translate(263.429,-83.6292)">
			<title>Nordic Red.341</title>
			<rect x="0" y="241.13" width="17.3286" height="18.5764" class="st7"/>
		</g>
		<g id="shape342-13" transform="translate(117.477,-82.2496)">
			<title>Sheet.342</title>
			<desc>PSA Crypto API standard</desc>
			<rect x="0" y="239.789" width="138.256" height="19.9181" class="st8"/>
			<text x="4" y="253.05" class="st2">PSA Crypto API standard</text>		</g>
		<g id="shape343-16" transform="translate(118.026,-5.6764)">
			<title>Sheet.343</title>
			<desc>API calls</desc>
			<rect x="0" y="239.789" width="137.708" height="19.9181" class="st8"/>
			<text x="4" y="253.05" class="st2">API calls</text>		</g>
		<g id="shape344-19" transform="translate(280.209,-82.2874)">
			<title>Sheet.344</title>
			<desc>Oberon PSA Crypto module</desc>
			<rect x="0" y="239.789" width="138.256" height="19.9181" class="st8"/>
			<text x="4" y="246.45" class="st2">Oberon PSA Crypto <tspan x="4" dy="1.2em" class="st9">module</tspan></text>		</g>
		<g id="shape345-23" transform="translate(101.708,-9.11577)">
			<title>Dynamic connector.345</title>
			<path d="M0 252.62 L9.71 252.62" class="st10"/>
		</g>
		<g id="shape346-29" transform="translate(100.537,-32.3977)">
			<title>Nordic Red.346</title>
			<rect x="0" y="258.006" width="1.17116" height="1.70079" class="st8"/>
		</g>
		<g id="shape347-31" transform="translate(117.582,-32.3977)">
			<title>Nordic Red.347</title>
			<rect x="0" y="258.006" width="1.17116" height="1.70079" class="st8"/>
		</g>
		<g id="shape356-33" transform="translate(263.546,-58.826)">
			<title>Nordic Red.356</title>
			<rect x="0" y="241.13" width="17.3286" height="18.5764" class="st12"/>
		</g>
		<g id="shape357-35" transform="translate(280.874,-58.1551)">
			<title>Sheet.357</title>
			<desc>Cryptographic driver</desc>
			<rect x="0" y="239.789" width="119.733" height="19.9181" class="st8"/>
			<text x="4" y="253.05" class="st2">Cryptographic driver</text>		</g>
		<g id="shape365-38" transform="translate(158.644,-140.993)">
			<title>Nordic Blue.251</title>
			<desc>CRACEN</desc>
			<rect x="0" y="236.207" width="138.256" height="23.4995" class="st13"/>
			<text x="45.9" y="251.26" class="st14">CRACEN</text>		</g>
		<g id="shape367-41" transform="translate(68.7853,-136.146)">
			<title>Nordic Blue.367</title>
			<desc>Secure Domain</desc>
			<rect x="0" y="191.538" width="236.939" height="68.1686" class="st15"/>
			<text x="4" y="205.44" class="st2">Secure Domain</text>		</g>
		<g id="shape369-44" transform="translate(100.537,-33.0685)">
			<title>Nordic Red.369</title>
			<rect x="0" y="241.13" width="17.3286" height="18.5764" class="st1"/>
		</g>
		<g id="shape370-46" transform="translate(117.865,-32.3977)">
			<title>Sheet.370</title>
			<desc>Hardware platform</desc>
			<rect x="0" y="239.789" width="119.733" height="19.9181" class="st8"/>
			<text x="4" y="253.05" class="st2">Hardware platform</text>		</g>
		<g id="shape371-49" transform="translate(263.546,-33.352)">
			<title>Nordic Red.371</title>
			<rect x="0" y="241.13" width="17.3286" height="18.5764" class="st13"/>
		</g>
		<g id="shape372-51" transform="translate(280.874,-32.6811)">
			<title>Sheet.372</title>
			<desc>Hardware peripheral</desc>
			<rect x="0" y="239.789" width="119.733" height="19.9181" class="st8"/>
			<text x="4" y="253.05" class="st2">Hardware peripheral</text>		</g>
		<g id="shape374-54" transform="translate(100.149,-59.015)">
			<title>Nordic Red.374</title>
			<path d="M0 259.71 L17.33 259.71 L17.33 241.13 L0 241.13 L0 259.71 Z" class="st16"/>
		</g>
		<g id="shape375-56" transform="translate(117.477,-58.3441)">
			<title>Sheet.375</title>
			<desc>IronSide SE firmware bundle</desc>
			<rect x="0" y="239.789" width="119.733" height="19.9181" class="st8"/>
			<text x="4" y="246.45" class="st2">IronSide SE firmware <tspan x="4" dy="1.2em" class="st9">bundle</tspan></text>		</g>
		<g id="shape376-60" transform="translate(280.758,-5.6764)">
			<title>Sheet.376</title>
			<desc>Firmware programming</desc>
			<rect x="0" y="239.789" width="137.708" height="19.9181" class="st8"/>
			<text x="4" y="253.05" class="st2">Firmware programming</text>		</g>
		<g id="shape377-63" transform="translate(264.44,-9.11577)">
			<title>Dynamic connector.377</title>
			<path d="M0 252.62 L9.71 252.62" class="st17"/>
		</g>
		<g id="shape383-69" transform="translate(158.644,-171.572)">
			<title>Nordic Blue.383</title>
			<desc>IronSide SE firmware</desc>
			<rect x="0" y="236.207" width="138.256" height="23.4995" class="st3"/>
			<text x="12.44" y="251.56" class="st19">IronSide SE firmware</text>		</g>
		<g id="shape384-72" transform="translate(343.539,-165.841)">
			<title>Nordic Blue.384</title>
			<desc>Oberon PSA Crypto</desc>
			<rect x="0" y="191.538" width="168.974" height="68.1686" class="st6"/>
			<text x="22.63" y="208.14" class="st4">Oberon PSA Crypto</text>		</g>
		<g id="shape385-75" transform="translate(386.454,-175.389)">
			<title>Nordic Blue.385</title>
			<desc>Cryptographic driver wrapper</desc>
			<rect x="0" y="226.885" width="83.1439" height="32.8222" class="st7"/>
			<text x="7.33" y="240" class="st14">Cryptographic <tspan x="6.42" dy="1.2em" class="st9">driver wrapper</tspan></text>		</g>
		<g id="shape386-79" transform="translate(337.161,-128.06)">
			<title>Nordic Red.386</title>
			<path d="M0 259.71 L181.16 259.71 L181.16 149.57 L0 149.57 L0 259.71 Z" class="st16"/>
		</g>
		<g id="shape389-81" transform="translate(296.9,-171.572)">
			<title>Dynamic connector.389</title>
			<path d="M0 259.71 L40.26 303.22" class="st20"/>
		</g>
		<g id="shape390-84" transform="translate(296.9,-195.071)">
			<title>Dynamic connector.390</title>
			<path d="M0 259.71 L40.26 216.59" class="st20"/>
		</g>
		<g id="shape391-87" transform="translate(220.685,-225.885)">
			<title>Dynamic connector.391</title>
			<path d="M7.09 259.71 L7.09 284.36" class="st17"/>
		</g>
		<g id="shape392-92" transform="translate(343.539,-132.879)">
			<title>Nordic Blue.392</title>
			<desc>CRACEN</desc>
			<rect x="0" y="236.207" width="168.974" height="23.4995" class="st21"/>
			<text x="61.26" y="251.26" class="st14">CRACEN</text>		</g>
		<g id="shape393-95" transform="translate(420.939,-175.389)">
			<title>Dynamic connector.393</title>
			<path d="M7.09 265.51 L7.09 265.87 L7.09 272.56" class="st22"/>
		</g>
		<g id="shape395-103" transform="translate(151.557,-183.322)">
			<title>Dynamic connector.395</title>
			<path d="M1.29 259.71 L0.93 259.71 L-5.99 259.71 L-5.99 290.29 L0.93 290.29" class="st22"/>
		</g>
	</g>
</svg>
