<?xml version="1.0" encoding="UTF-8" standalone="no"?>
<!DOCTYPE svg PUBLIC "-//W3C//DTD SVG 1.1//EN" "http://www.w3.org/Graphics/SVG/1.1/DTD/svg11.dtd">
<!-- Generated by Microsoft Visio, SVG Export psa_certified_api_lib_selection_details.svg Page-1 -->
<svg xmlns="http://www.w3.org/2000/svg" xmlns:xlink="http://www.w3.org/1999/xlink" xmlns:ev="http://www.w3.org/2001/xml-events"
		width="7.14372in" height="6.56943in" viewBox="0 0 514.348 472.999" xml:space="preserve" color-interpolation-filters="sRGB"
		class="st25">
	<style type="text/css">
	<![CDATA[
		.st1 {fill:#0033a0;stroke:none;stroke-width:1}
		.st2 {fill:#ffffff;font-family:Arial;font-size:1.16666em}
		.st3 {fill:#de823b;stroke:none;stroke-width:1}
		.st4 {marker-end:url(#mrkr5-12);stroke:#00a9ce;stroke-linecap:butt;stroke-width:1}
		.st5 {fill:#00a9ce;fill-opacity:1;stroke:#00a9ce;stroke-opacity:1;stroke-width:0.28409090909091}
		.st6 {fill:none;stroke:#333f48;stroke-width:1.5}
		.st7 {fill:none;stroke:#6ad1e3;stroke-width:1}
		.st8 {fill:none;stroke:none;stroke-width:1}
		.st9 {fill:#333f48;font-family:Arial;font-size:0.916672em}
		.st10 {font-size:1em}
		.st11 {fill:#ffffff;font-family:Arial;font-size:0.916672em}
		.st12 {fill:#feffff;font-family:Arial;font-size:0.916672em}
		.st13 {fill:#00a9ce;stroke:none;stroke-width:1}
		.st14 {fill:#00a9ce;font-family:Arial;font-size:0.916672em}
		.st15 {stroke:#6ad1e3;stroke-linecap:butt;stroke-width:1}
		.st16 {fill:#8bc058;stroke:none;stroke-width:1}
		.st17 {fill:#d1314f;stroke:none;stroke-width:1}
		.st18 {fill:#ffc000;stroke:none;stroke-width:1}
		.st19 {fill:#00a2c6;stroke:none;stroke-width:1}
		.st20 {marker-end:url(#mrkr5-12);marker-start:url(#mrkr5-170);stroke:#00a9ce;stroke-linecap:butt;stroke-width:1}
		.st21 {fill:#00a9ce;fill-opacity:1;stroke:#00a9ce;stroke-opacity:1;stroke-width:0.35714285714286}
		.st22 {fill:#ffffff;font-family:Arial;font-size:0.833336em}
		.st23 {fill:none;stroke:#92d050;stroke-width:1}
		.st24 {fill:#768692;stroke:none;stroke-width:1}
		.st25 {fill:none;fill-rule:evenodd;font-size:12px;overflow:visible;stroke-linecap:square;stroke-miterlimit:3}
	]]>
	</style>

	<defs id="Markers">
		<g id="lend5">
			<path d="M 2 1 L 0 0 L 1.98117 -0.993387 C 1.67173 -0.364515 1.67301 0.372641 1.98465 1.00043 " style="stroke:none"/>
		</g>
		<marker id="mrkr5-12" class="st5" refX="-6.16" orient="auto" markerUnits="strokeWidth" overflow="visible">
			<use xlink:href="#lend5" transform="scale(-3.52,-3.52) "/>
		</marker>
		<marker id="mrkr5-170" class="st21" refX="4.54" orient="auto" markerUnits="strokeWidth" overflow="visible">
			<use xlink:href="#lend5" transform="scale(2.8) "/>
		</marker>
	</defs>
	<g>
		<title>Page-1</title>
		<g id="shape300-1" transform="translate(1.36125,-111.701)">
			<title>Nordic Blue.81</title>
			<desc>Oberon PSA Crypto</desc>
			<rect x="0" y="165.478" width="314.901" height="307.521" class="st1"/>
			<text x="4" y="182.08" class="st2">Oberon PSA Crypto</text>		</g>
		<g id="shape301-4" transform="translate(1.36125,-439.177)">
			<title>Nordic Fall</title>
			<desc>Application</desc>
			<rect x="0" y="440.177" width="314.901" height="32.8222" class="st3"/>
			<text x="123.21" y="460.79" class="st2">Application</text>		</g>
		<g id="shape306-7" transform="translate(151.725,-439.177)">
			<title>Dynamic connector.125</title>
			<path d="M7.09 473 L7.09 529.31" class="st4"/>
		</g>
		<g id="shape307-13" transform="translate(350.885,-237.805)">
			<title>Sheet.307</title>
			<rect x="0" y="239.364" width="161.963" height="233.634" class="st6"/>
		</g>
		<g id="shape308-15" transform="translate(357.263,-444.397)">
			<title>Nordic Red.54</title>
			<rect x="0" y="454.422" width="17.3286" height="18.5764" class="st1"/>
		</g>
		<g id="shape309-17" transform="translate(357.811,-417.468)">
			<title>Nordic Red.56</title>
			<rect x="0" y="454.422" width="17.3286" height="18.5764" class="st7"/>
		</g>
		<g id="shape310-19" transform="translate(374.591,-443.055)">
			<title>Sheet.310</title>
			<desc>PSA Crypto API standard</desc>
			<rect x="0" y="453.081" width="138.256" height="19.9181" class="st8"/>
			<text x="4" y="466.34" class="st9">PSA Crypto API standard</text>		</g>
		<g id="shape311-22" transform="translate(375.14,-390.614)">
			<title>Sheet.311</title>
			<desc>API calls</desc>
			<rect x="0" y="453.081" width="137.708" height="19.9181" class="st8"/>
			<text x="4" y="466.34" class="st9">API calls</text>		</g>
		<g id="shape312-25" transform="translate(374.591,-416.126)">
			<title>Sheet.312</title>
			<desc>Oberon PSA Crypto module</desc>
			<rect x="0" y="453.081" width="138.256" height="19.9181" class="st8"/>
			<text x="4" y="459.74" class="st9">Oberon PSA Crypto <tspan x="4" dy="1.2em" class="st10">module</tspan></text>		</g>
		<g id="shape314-29" transform="translate(358.822,-394.053)">
			<title>Dynamic connector.155</title>
			<path d="M0 465.91 L9.71 465.91" class="st4"/>
		</g>
		<g id="shape315-34" transform="translate(357.651,-400.29)">
			<title>Nordic Red.156</title>
			<rect x="0" y="471.298" width="1.17116" height="1.70079" class="st8"/>
		</g>
		<g id="shape316-36" transform="translate(374.696,-400.29)">
			<title>Nordic Red.157</title>
			<rect x="0" y="471.298" width="1.17116" height="1.70079" class="st8"/>
		</g>
		<g id="shape317-38" transform="translate(6.44975,-124.419)">
			<title>Nordic Blue.317</title>
			<desc>Cryptographic driver wrapper</desc>
			<rect x="0" y="278.602" width="304.724" height="194.397" class="st7"/>
			<text x="81.44" y="292.5" class="st11">Cryptographic driver wrapper</text>		</g>
		<g id="shape325-41" transform="translate(13.7559,-220.797)">
			<title>Nordic Blue.236</title>
			<desc>HW driver (nrf_cc3xx)</desc>
			<rect x="0" y="440.177" width="70.8661" height="32.8222" class="st8"/>
			<text x="4" y="453.29" class="st12">HW driver <tspan x="4" dy="1.2em" class="st10">(nrf_cc3xx)</tspan></text>		</g>
		<g id="shape327-45" transform="translate(13.7559,-144.038)">
			<title>Nordic Blue.238</title>
			<desc>SW driver (nrf_oberon)</desc>
			<rect x="0" y="440.177" width="70.8661" height="32.8222" class="st8"/>
			<text x="4" y="453.29" class="st12">SW driver <tspan x="4" dy="1.2em" class="st10">(nrf_oberon)</tspan></text>		</g>
		<g id="shape334-49" transform="translate(358.165,-271.036)">
			<title>Nordic Red.227</title>
			<rect x="0" y="454.422" width="17.3286" height="18.5764" class="st13"/>
		</g>
		<g id="shape335-51" transform="translate(375.494,-270.365)">
			<title>Sheet.335</title>
			<desc>Cryptographic driver</desc>
			<rect x="0" y="453.081" width="119.733" height="19.9181" class="st8"/>
			<text x="4" y="466.34" class="st9">Cryptographic driver</text>		</g>
		<g id="shape336-54" transform="translate(86.5685,-343.88)">
			<title>Nordic Blue.336</title>
			<desc>Oberon PSA Core</desc>
			<rect x="0" y="440.177" width="144.487" height="32.8222" class="st7"/>
			<text x="27.92" y="459.89" class="st11">Oberon PSA Core</text>		</g>
		<g id="shape337-57" transform="translate(151.725,-343.88)">
			<title>Dynamic connector.337</title>
			<path d="M7.09 473 L7.09 491.9" class="st4"/>
		</g>
		<g id="shape338-62" transform="translate(158.812,-439.177)">
			<title>Dynamic connector.338</title>
			<path d="M0 473 L38.59 530.36" class="st4"/>
		</g>
		<g id="shape339-67" transform="translate(158.812,-439.177)">
			<title>Dynamic connector.339</title>
			<path d="M0 473 L-38.18 530.35" class="st4"/>
		</g>
		<g id="shape340-72" transform="translate(192.707,-343.88)">
			<title>Dynamic connector.340</title>
			<path d="M7.02 473 L7.12 491.9" class="st4"/>
		</g>
		<g id="shape341-77" transform="translate(123.882,-343.88)">
			<title>Dynamic connector.341</title>
			<path d="M-6.94 473 L-7.16 491.9" class="st4"/>
		</g>
		<g id="shape342-82" transform="translate(100.779,-376.702)">
			<title>Sheet.342</title>
			<desc>A</desc>
			<rect x="0" y="457.253" width="16.4415" height="15.7457" class="st8"/>
			<text x="4.55" y="468.43" class="st14">A</text>		</g>
		<g id="shape345-85" transform="translate(142.37,-376.702)">
			<title>Sheet.345</title>
			<desc>B</desc>
			<rect x="0" y="457.253" width="16.4415" height="15.7457" class="st8"/>
			<text x="4.55" y="468.43" class="st14">B</text>		</g>
		<g id="shape346-88" transform="translate(176.748,-376.702)">
			<title>Sheet.346</title>
			<desc>C</desc>
			<rect x="0" y="457.253" width="16.4415" height="15.7457" class="st8"/>
			<text x="4.25" y="468.43" class="st14">C</text>		</g>
		<g id="shape348-91" transform="translate(100.212,-318.816)">
			<title>Sheet.348</title>
			<desc>A</desc>
			<rect x="0" y="447.935" width="16.4415" height="25.0642" class="st8"/>
			<text x="4.55" y="463.77" class="st14">A</text>		</g>
		<g id="shape349-94" transform="translate(142.37,-318.816)">
			<title>Sheet.349</title>
			<desc>B</desc>
			<rect x="0" y="447.935" width="16.4415" height="25.0642" class="st8"/>
			<text x="4.55" y="463.77" class="st14">B</text>		</g>
		<g id="shape350-97" transform="translate(182.417,-318.816)">
			<title>Sheet.350</title>
			<desc>C</desc>
			<rect x="0" y="447.935" width="17.3286" height="25.0642" class="st8"/>
			<text x="4.69" y="463.77" class="st14">C</text>		</g>
		<g id="shape352-100" transform="translate(557.621,182.753) rotate(90)">
			<title>Sheet.352</title>
			<path d="M0 473 L153.29 473" class="st15"/>
		</g>
		<g id="shape353-103" transform="translate(607.227,182.753) rotate(90)">
			<title>Sheet.353</title>
			<path d="M0 473 L155.91 473" class="st15"/>
		</g>
		<g id="shape354-106" transform="translate(656.833,182.753) rotate(90)">
			<title>Sheet.354</title>
			<path d="M0 473 L155.91 473" class="st15"/>
		</g>
		<g id="shape355-109" transform="translate(706.44,182.753) rotate(90)">
			<title>Sheet.355</title>
			<path d="M0 473 L155.91 473" class="st15"/>
		</g>
		<g id="shape356-112" transform="translate(84.622,-257.424)">
			<title>Sheet.356</title>
			<desc>Feature A</desc>
			<rect x="0" y="440.177" width="49.6063" height="32.8222" class="st8"/>
			<text x="5.85" y="453.29" class="st12">Feature <tspan x="21.13" dy="1.2em" class="st10">A</tspan></text>		</g>
		<g id="shape357-116" transform="translate(134.009,-257.424)">
			<title>Sheet.357</title>
			<desc>Feature B</desc>
			<rect x="0" y="440.177" width="49.6063" height="32.8222" class="st8"/>
			<text x="5.85" y="453.29" class="st12">Feature <tspan x="21.13" dy="1.2em" class="st10">B</tspan></text>		</g>
		<g id="shape360-120" transform="translate(183.835,-257.424)">
			<title>Sheet.360</title>
			<desc>Feature C</desc>
			<rect x="0" y="440.177" width="49.6063" height="32.8222" class="st8"/>
			<text x="5.85" y="453.29" class="st12">Feature <tspan x="20.83" dy="1.2em" class="st10">C</tspan></text>		</g>
		<g id="shape361-124" transform="translate(95.9606,-226.466)">
			<title>Nordic Power</title>
			<desc>V</desc>
			<rect x="0" y="448.904" width="24.0945" height="24.0945" class="st16"/>
			<text x="8.38" y="464.25" class="st11">V</text>		</g>
		<g id="shape362-127" transform="translate(146.984,-186.073)">
			<title>Nordic Red</title>
			<desc>X</desc>
			<rect x="0" y="448.904" width="24.0945" height="24.0945" class="st17"/>
			<text x="8.38" y="464.25" class="st11">X</text>		</g>
		<g id="shape363-130" transform="translate(13.7559,-183.357)">
			<title>Nordic Blue.363</title>
			<desc>HW driver (CRACEN)</desc>
			<rect x="0" y="440.177" width="70.8661" height="32.8222" class="st8"/>
			<text x="4" y="453.29" class="st12">HW driver <tspan x="4" dy="1.2em" class="st10">(CRACEN)</tspan></text>		</g>
		<g id="shape364-134" transform="translate(95.9606,-147.096)">
			<title>Nordic Power.364</title>
			<desc>V</desc>
			<rect x="0" y="448.904" width="24.0945" height="24.0945" class="st16"/>
			<text x="8.38" y="464.25" class="st11">V</text>		</g>
		<g id="shape367-137" transform="translate(95.9606,-186.073)">
			<title>Nordic Sun</title>
			<desc>X</desc>
			<rect x="0" y="448.904" width="24.0945" height="24.0945" class="st17"/>
			<text x="8.38" y="464.25" class="st11">X</text>		</g>
		<g id="shape368-140" transform="translate(146.984,-226.466)">
			<title>Nordic Sun.368</title>
			<desc>X</desc>
			<rect x="0" y="448.904" width="24.0945" height="24.0945" class="st17"/>
			<text x="8.38" y="464.25" class="st11">X</text>		</g>
		<g id="shape369-143" transform="translate(198.008,-226.466)">
			<title>Nordic Power.369</title>
			<desc>X</desc>
			<rect x="0" y="448.904" width="24.0945" height="24.0945" class="st17"/>
			<text x="8.38" y="464.25" class="st11">X</text>		</g>
		<g id="shape370-146" transform="translate(198.008,-186.073)">
			<title>Nordic Power.370</title>
			<desc>V</desc>
			<rect x="0" y="448.904" width="24.0945" height="24.0945" class="st18"/>
			<text x="8.38" y="464.25" class="st11">V</text>		</g>
		<g id="shape371-149" transform="translate(198.008,-147.096)">
			<title>Nordic Power.371</title>
			<desc>V</desc>
			<rect x="0" y="448.904" width="24.0945" height="24.0945" class="st16"/>
			<text x="8.38" y="464.25" class="st11">V</text>		</g>
		<g id="shape372-152" transform="translate(146.984,-147.096)">
			<title>Nordic Power.372</title>
			<desc>V</desc>
			<rect x="0" y="448.904" width="24.0945" height="24.0945" class="st16"/>
			<text x="8.38" y="464.25" class="st11">V</text>		</g>
		<g id="shape373-155" transform="translate(1,-27.5935)">
			<title>Nordic Blue.373</title>
			<desc>nrf_cc3xx</desc>
			<rect x="0" y="432.866" width="70.8486" height="40.1326" class="st19"/>
			<text x="11.89" y="456.23" class="st11">nrf_cc3xx</text>		</g>
		<g id="shape374-158" transform="translate(123.026,-27.5935)">
			<title>Nordic Blue.237</title>
			<desc>nrf_oberon</desc>
			<rect x="0" y="432.866" width="70.8486" height="40.1326" class="st19"/>
			<text x="8.82" y="456.23" class="st11">nrf_oberon</text>		</g>
		<g id="shape375-161" transform="translate(245.053,-27.5935)">
			<title>Nordic Blue.375</title>
			<desc>CRACEN</desc>
			<rect x="0" y="432.866" width="70.8486" height="40.1326" class="st19"/>
			<text x="12.2" y="456.23" class="st11">CRACEN</text>		</g>
		<g id="shape376-164" transform="translate(152.087,-124.419)">
			<title>Dynamic connector.376</title>
			<path d="M7.09 477.54 L7.09 477.9 L7.09 523.53" class="st20"/>
		</g>
		<g id="shape377-172" transform="translate(142.009,-67.7261)">
			<title>Sheet.377</title>
			<desc>B</desc>
			<rect x="0" y="447.935" width="16.4415" height="25.0642" class="st8"/>
			<text x="4.55" y="463.77" class="st14">B</text>		</g>
		<g id="shape378-175" transform="translate(108.15,-124.419)">
			<title>Dynamic connector.378</title>
			<path d="M-3.56 475.81 L-3.84 476.04 L-66.89 525.87" class="st20"/>
		</g>
		<g id="shape379-182" transform="translate(28.2036,-67.7261)">
			<title>Sheet.379</title>
			<desc>A</desc>
			<rect x="0" y="447.935" width="16.4415" height="25.0642" class="st8"/>
			<text x="4.55" y="463.77" class="st14">A</text>		</g>
		<g id="shape380-185" transform="translate(209.63,-124.419)">
			<title>Dynamic connector.380</title>
			<path d="M-2.85 476.54 L-3.07 476.82 L-41.78 524.89" class="st20"/>
		</g>
		<g id="shape381-192" transform="translate(176.546,-67.7261)">
			<title>Sheet.381</title>
			<desc>C</desc>
			<rect x="0" y="447.935" width="17.3286" height="25.0642" class="st8"/>
			<text x="4.69" y="463.77" class="st14">C</text>		</g>
		<g id="shape382-195" transform="translate(358.822,-369.219)">
			<title>Nordic Power.382</title>
			<desc>V</desc>
			<rect x="0" y="454.422" width="17.3286" height="18.5764" class="st16"/>
			<text x="5" y="467.01" class="st11">V</text>		</g>
		<g id="shape384-198" transform="translate(358.165,-295.169)">
			<title>Nordic Red.384</title>
			<desc>X</desc>
			<rect x="0" y="454.422" width="17.3286" height="18.5764" class="st17"/>
			<text x="5" y="467.01" class="st11">X</text>		</g>
		<g id="shape385-201" transform="translate(376.15,-367.877)">
			<title>Sheet.385</title>
			<desc>Feature supported and enabled</desc>
			<rect x="0" y="453.081" width="119.733" height="19.9181" class="st8"/>
			<text x="4" y="459.74" class="st9">Feature supported <tspan x="4" dy="1.2em" class="st10">and enabled</tspan></text>		</g>
		<g id="shape387-205" transform="translate(375.913,-294.498)">
			<title>Sheet.387</title>
			<desc>Feature not supported</desc>
			<rect x="0" y="453.081" width="119.733" height="19.9181" class="st8"/>
			<text x="4" y="466.34" class="st9">Feature not supported</text>		</g>
		<g id="shape389-208" transform="translate(359.275,-344.358)">
			<title>Nordic Power.389</title>
			<desc>V</desc>
			<rect x="0" y="456.453" width="15.4344" height="16.5457" class="st16"/>
			<text x="4.38" y="467.73" class="st22">V</text>		</g>
		<g id="shape390-211" transform="translate(376.127,-342.672)">
			<title>Sheet.390</title>
			<desc>Driver selected</desc>
			<rect x="0" y="453.081" width="119.733" height="19.9181" class="st8"/>
			<text x="4" y="466.34" class="st9">Driver selected</text>		</g>
		<g id="shape391-214" transform="translate(357.173,-342.342)">
			<title>Nordic Power.391</title>
			<rect x="0" y="452.183" width="19.4173" height="20.8155" class="st23"/>
		</g>
		<g id="shape392-216" transform="translate(93.126,-223.632)">
			<title>Nordic Power.392</title>
			<rect x="0" y="443.011" width="29.7638" height="29.9876" class="st23"/>
		</g>
		<g id="shape393-218" transform="translate(143.93,-144.15)">
			<title>Nordic Power.393</title>
			<rect x="0" y="443.011" width="29.7638" height="29.9876" class="st23"/>
		</g>
		<g id="shape394-220" transform="translate(195.173,-144.15)">
			<title>Nordic Power.394</title>
			<rect x="0" y="443.011" width="29.7638" height="29.9876" class="st23"/>
		</g>
		<g id="shape395-222" transform="translate(358.128,-319.188)">
			<title>Nordic Red.395</title>
			<desc>V</desc>
			<rect x="0" y="454.422" width="17.3286" height="18.5764" class="st18"/>
			<text x="5" y="467.01" class="st11">V</text>		</g>
		<g id="shape396-225" transform="translate(376.412,-317.988)">
			<title>Sheet.396</title>
			<desc>Feature supported but disabled</desc>
			<rect x="0" y="453.081" width="119.733" height="19.9181" class="st8"/>
			<text x="4" y="459.74" class="st9">Feature supported <tspan x="4" dy="1.2em" class="st10">but disabled</tspan></text>		</g>
		<g id="shape397-229" transform="translate(1,-1)">
			<title>Nordic Blue.247</title>
			<desc>CC310</desc>
			<rect x="0" y="452.932" width="70.8486" height="20.0663" class="st24"/>
			<text x="18.3" y="466.27" class="st11">CC310</text>		</g>
		<g id="shape398-232" transform="translate(245.053,-1)">
			<title>Nordic Blue.398</title>
			<desc>CRACEN</desc>
			<rect x="0" y="452.932" width="70.8486" height="20.0663" class="st24"/>
			<text x="12.2" y="466.27" class="st11">CRACEN</text>		</g>
		<g id="shape399-235" transform="translate(358.165,-246.98)">
			<title>Nordic Red.399</title>
			<rect x="0" y="454.422" width="17.3286" height="18.5764" class="st24"/>
		</g>
		<g id="shape400-237" transform="translate(375.494,-246.309)">
			<title>Sheet.400</title>
			<desc>Supported hardware peripherals</desc>
			<rect x="0" y="453.081" width="119.733" height="19.9181" class="st8"/>
			<text x="4" y="459.74" class="st9">Supported hardware <tspan x="4" dy="1.2em" class="st10">peripherals</tspan></text>		</g>
	</g>
</svg>
