<?xml version="1.0" encoding="UTF-8" standalone="no"?>
<!DOCTYPE svg PUBLIC "-//W3C//DTD SVG 1.1//EN" "http://www.w3.org/Graphics/SVG/1.1/DTD/svg11.dtd">
<!-- Generated by Microsoft Visio, SVG Export psa_crypto_api_oberon.svg Page-1 -->
<svg xmlns="http://www.w3.org/2000/svg" xmlns:xlink="http://www.w3.org/1999/xlink" xmlns:ev="http://www.w3.org/2001/xml-events"
		width="5.75142in" height="3.11957in" viewBox="0 0 414.102 224.609" xml:space="preserve" color-interpolation-filters="sRGB"
		class="st13">
	<style type="text/css">
	<![CDATA[
		.st1 {fill:#0033a0;stroke:none;stroke-width:1}
		.st2 {fill:#ffffff;font-family:Arial;font-size:1.16666em}
		.st3 {fill:#0077c8;stroke:none;stroke-width:1}
		.st4 {fill:#ffffff;font-family:Arial;font-size:0.916672em}
		.st5 {fill:none;stroke:#333f48;stroke-dasharray:7,5;stroke-width:1}
		.st6 {fill:#00a2c6;stroke:none;stroke-width:1}
		.st7 {stroke:#333f48;stroke-dasharray:1,4;stroke-linecap:butt;stroke-width:1}
		.st8 {fill:none;stroke:#333f48;stroke-width:1.5}
		.st9 {fill:none;stroke:none;stroke-width:1}
		.st10 {fill:#333f48;font-family:Arial;font-size:0.916672em}
		.st11 {font-size:1em}
		.st12 {fill:#00a9ce;stroke:none;stroke-width:1}
		.st13 {fill:none;fill-rule:evenodd;font-size:12px;overflow:visible;stroke-linecap:square;stroke-miterlimit:3}
	]]>
	</style>

	<g>
		<title>Page-1</title>
		<g id="shape39-1" transform="translate(1.5,-190.787)">
			<title>Nordic Blue</title>
			<desc>Oberon PSA Crypto</desc>
			<rect x="0" y="191.787" width="411.102" height="32.8222" class="st1"/>
			<text x="143.69" y="212.4" class="st2">Oberon PSA Crypto</text>		</g>
		<g id="shape47-4" transform="translate(8.49781,-148.081)">
			<title>Nordic Blue.47</title>
			<desc>PSA Secure Storage API</desc>
			<rect x="0" y="191.787" width="150.57" height="32.8222" class="st3"/>
			<text x="14.14" y="211.5" class="st4">PSA Secure Storage API</text>		</g>
		<g id="shape65-7" transform="translate(1.5,-79.4528)">
			<title>Sheet.65</title>
			<path d="M0 224.61 L411.1 224.61 L411.1 116.82 L0 116.82 L0 224.61 Z" class="st5"/>
		</g>
		<g id="shape146-9" transform="translate(174.601,-140.771)">
			<title>Nordic Blue.146</title>
			<desc>nrf_cc3xx</desc>
			<rect x="0" y="184.476" width="70.8486" height="40.1326" class="st6"/>
			<text x="11.89" y="207.84" class="st4">nrf_cc3xx</text>		</g>
		<g id="shape147-12" transform="translate(253.862,-140.771)">
			<title>Nordic Blue.147</title>
			<desc>nrf_oberon</desc>
			<rect x="0" y="184.476" width="70.8486" height="40.1326" class="st6"/>
			<text x="8.82" y="207.84" class="st4">nrf_oberon</text>		</g>
		<g id="shape148-15" transform="translate(333.122,-140.771)">
			<title>Nordic Blue.148</title>
			<desc>CRACEN</desc>
			<rect x="0" y="184.476" width="70.8486" height="40.1326" class="st6"/>
			<text x="12.2" y="207.84" class="st4">CRACEN</text>		</g>
		<g id="shape216-18" transform="translate(23.3185,-121.972)">
			<title>Nordic Blue.216</title>
			<desc>Trusted storage</desc>
			<rect x="0" y="204.691" width="119.733" height="19.9181" class="st3"/>
			<text x="21.35" y="217.95" class="st4">Trusted storage</text>		</g>
		<g id="shape218-21" transform="translate(23.3185,-86.5394)">
			<title>Nordic Blue.218</title>
			<desc>Secure storage</desc>
			<rect x="0" y="204.691" width="119.733" height="19.9181" class="st3"/>
			<text x="22.57" y="217.95" class="st4">Secure storage</text>		</g>
		<g id="shape220-24" transform="translate(23.9165,-114.886)">
			<title>Sheet.220</title>
			<path d="M0 224.61 L119.06 224.61" class="st7"/>
		</g>
		<g id="shape221-27" transform="translate(1.5,-1.5)">
			<title>Sheet.221</title>
			<rect x="0" y="159.561" width="411.102" height="65.0477" class="st8"/>
		</g>
		<g id="shape222-29" transform="translate(7.87795,-39.5052)">
			<title>Nordic Red.222</title>
			<rect x="0" y="206.033" width="17.3286" height="18.5764" class="st1"/>
		</g>
		<g id="shape223-31" transform="translate(8.42622,-12.576)">
			<title>Nordic Red.223</title>
			<path d="M0 224.61 L17.33 224.61 L17.33 206.03 L0 206.03 L0 224.61 Z" class="st5"/>
		</g>
		<g id="shape224-33" transform="translate(25.2066,-38.1634)">
			<title>Sheet.224</title>
			<desc>Implementation of PSA Crypto API standard</desc>
			<rect x="0" y="204.691" width="150.57" height="19.9181" class="st9"/>
			<text x="4" y="211.35" class="st10">Implementation <tspan x="4" dy="1.2em" class="st11">of PSA Crypto API standard </tspan></text>		</g>
		<g id="shape225-37" transform="translate(25.2066,-11.2343)">
			<title>Sheet.225</title>
			<desc>Implementation backend</desc>
			<rect x="0" y="204.691" width="138.256" height="19.9181" class="st9"/>
			<text x="4" y="217.95" class="st10">Implementation backend</text>		</g>
		<g id="shape226-40" transform="translate(179.374,-42.2548)">
			<title>Nordic Red.226</title>
			<rect x="0" y="206.033" width="17.3286" height="18.5764" class="st3"/>
		</g>
		<g id="shape227-42" transform="translate(179.568,-15.9587)">
			<title>Nordic Red.227</title>
			<rect x="0" y="206.033" width="17.3286" height="18.5764" class="st12"/>
		</g>
		<g id="shape228-44" transform="translate(196.703,-41.1209)">
			<title>Sheet.228</title>
			<desc>Storage integration</desc>
			<rect x="0" y="204.691" width="117.317" height="19.9181" class="st9"/>
			<text x="4" y="217.95" class="st10">Storage integration</text>		</g>
		<g id="shape229-47" transform="translate(196.897,-15.2878)">
			<title>Sheet.229</title>
			<desc>Cryptographic driver</desc>
			<rect x="0" y="204.691" width="119.733" height="19.9181" class="st9"/>
			<text x="4" y="217.95" class="st10">Cryptographic driver</text>		</g>
		<g id="shape230-50" transform="translate(314.02,-43.9933)">
			<title>Dynamic connector.230</title>
			<path d="M0 217.52 L15.87 217.52" class="st7"/>
		</g>
		<g id="shape233-53" transform="translate(330.162,-41.1209)">
			<title>Sheet.233</title>
			<desc>Alternatives</desc>
			<rect x="0" y="204.691" width="82.4396" height="19.9181" class="st9"/>
			<text x="4" y="217.95" class="st10">Alternatives</text>		</g>
	</g>
</svg>
