<?xml version="1.0" encoding="UTF-8" standalone="no"?>
<!DOCTYPE svg PUBLIC "-//W3C//DTD SVG 1.1//EN" "http://www.w3.org/Graphics/SVG/1.1/DTD/svg11.dtd">
<!-- Generated by Microsoft Visio, SVG Export psa_want_use_need_flow.svg Page-1 -->
<svg xmlns="http://www.w3.org/2000/svg" xmlns:xlink="http://www.w3.org/1999/xlink" xmlns:ev="http://www.w3.org/2001/xml-events"
		width="7.90179in" height="5.14338in" viewBox="0 0 568.929 370.324" xml:space="preserve" color-interpolation-filters="sRGB"
		class="st21">
	<style type="text/css">
	<![CDATA[
		.st1 {marker-end:url(#mrkr5-6);stroke:#008bab;stroke-linecap:butt;stroke-width:1}
		.st2 {fill:#008bab;fill-opacity:1;stroke:#008bab;stroke-opacity:1;stroke-width:0.28409090909091}
		.st3 {fill:#de823b;stroke:none;stroke-width:1}
		.st4 {fill:#ffffff;font-family:Arial;font-size:0.916672em}
		.st5 {fill:#00a9ce;stroke:none;stroke-width:1}
		.st6 {font-size:1em}
		.st7 {fill:none;stroke:none;stroke-width:1}
		.st8 {fill:#333f48;font-family:Arial;font-size:1.00001em}
		.st9 {fill:#768692;stroke:none;stroke-width:1}
		.st10 {stroke:#333f48;stroke-dasharray:8,4;stroke-linecap:butt;stroke-width:1}
		.st11 {fill:none;stroke:#333f48;stroke-width:1.5}
		.st12 {fill:#333f48;font-family:Arial;font-size:0.916672em}
		.st13 {marker-end:url(#mrkr5-112);stroke:#333f48;stroke-linecap:butt;stroke-width:1}
		.st14 {fill:#333f48;fill-opacity:1;stroke:#333f48;stroke-opacity:1;stroke-width:0.28409090909091}
		.st15 {stroke:#333f48;stroke-dasharray:4,2;stroke-linecap:butt;stroke-width:1}
		.st16 {marker-end:url(#mrkr5-112);stroke:#333f48;stroke-dasharray:4,2;stroke-linecap:butt;stroke-width:1}
		.st17 {stroke:#00a9ce;stroke-linecap:butt;stroke-width:1}
		.st18 {fill:#00a9ce;font-family:Arial;font-size:0.833336em}
		.st19 {stroke:#333f48;stroke-linecap:butt;stroke-width:1}
		.st20 {fill:#333f48;font-family:Arial;font-size:0.833336em}
		.st21 {fill:none;fill-rule:evenodd;font-size:12px;overflow:visible;stroke-linecap:square;stroke-miterlimit:3}
	]]>
	</style>

	<defs id="Markers">
		<g id="lend5">
			<path d="M 2 1 L 0 0 L 1.98117 -0.993387 C 1.67173 -0.364515 1.67301 0.372641 1.98465 1.00043 " style="stroke:none"/>
		</g>
		<marker id="mrkr5-6" class="st2" refX="-6.16" orient="auto" markerUnits="strokeWidth" overflow="visible">
			<use xlink:href="#lend5" transform="scale(-3.52,-3.52) "/>
		</marker>
		<marker id="mrkr5-112" class="st14" refX="-6.16" orient="auto" markerUnits="strokeWidth" overflow="visible">
			<use xlink:href="#lend5" transform="scale(-3.52,-3.52) "/>
		</marker>
	</defs>
	<g>
		<title>Page-1</title>
		<g id="shape359-1" transform="translate(419.11,-261.524)">
			<title>Dynamic connector.359</title>
			<path d="M0 370.32 L0 349.34 L57.62 349.34" class="st1"/>
		</g>
		<g id="shape340-7" transform="translate(1,-298.265)">
			<title>Nordic Blue.78</title>
			<desc>CONFIG_PSA_WANT_*</desc>
			<rect x="0" y="350.289" width="138.256" height="20.0343" class="st3"/>
			<text x="9.23" y="363.61" class="st4">CONFIG_PSA_WANT_*</text>		</g>
		<g id="shape341-10" transform="translate(1,-254.041)">
			<title>Nordic Blue.79</title>
			<desc>CONFIG_PSA_USE_*</desc>
			<rect x="0" y="350.289" width="138.256" height="20.0343" class="st3"/>
			<text x="14.11" y="363.61" class="st4">CONFIG_PSA_USE_*</text>		</g>
		<g id="shape342-13" transform="translate(482.89,-252.571)">
			<title>Nordic Blue.80</title>
			<desc>Hardware driver operation</desc>
			<rect x="0" y="310.456" width="82.2047" height="59.8678" class="st5"/>
			<text x="17.26" y="330.49" class="st4">Hardware <tspan x="27.35" dy="1.2em" class="st6">driver </tspan><tspan x="18.17"
						dy="1.2em" class="st6">operation</tspan></text>		</g>
		<g id="shape344-18" transform="translate(19.746,-319.756)">
			<title>Sheet.344</title>
			<desc>Kconfig selection by user</desc>
			<rect x="0" y="321.929" width="107.717" height="48.3948" class="st7"/>
			<text x="8.5" y="342.53" class="st8">Kconfig selection <tspan x="34.18" dy="1.2em" class="st6">by user</tspan></text>		</g>
		<g id="shape346-22" transform="translate(148.402,-320.929)">
			<title>Sheet.346</title>
			<desc>Driver wrapper at compile time</desc>
			<rect x="0" y="321.929" width="221.102" height="48.3948" class="st7"/>
			<text x="71.21" y="342.53" class="st8">Driver wrapper <tspan x="70.2" dy="1.2em" class="st6">at compile time</tspan></text>		</g>
		<g id="shape347-26" transform="translate(369.504,-320.929)">
			<title>Sheet.347</title>
			<desc>Driver wrapper at runtime</desc>
			<rect x="0" y="321.929" width="102.047" height="48.3948" class="st7"/>
			<text x="11.68" y="342.53" class="st8">Driver wrapper <tspan x="24.35" dy="1.2em" class="st6">at runtime</tspan></text>		</g>
		<g id="shape348-30" transform="translate(160.516,-298.265)">
			<title>Nordic Blue.348</title>
			<desc>PSA_WANT_*</desc>
			<rect x="0" y="350.289" width="90.7087" height="20.0343" class="st9"/>
			<text x="9.9" y="363.61" class="st4">PSA_WANT_*</text>		</g>
		<g id="shape349-33" transform="translate(160.516,-254.041)">
			<title>Nordic Blue.349</title>
			<desc>PSA_USE_*</desc>
			<rect x="0" y="350.289" width="90.7087" height="20.0343" class="st9"/>
			<text x="14.78" y="363.61" class="st4">PSA_USE_*</text>		</g>
		<g id="shape350-36" transform="translate(271.709,-277.006)">
			<title>Nordic Blue.350</title>
			<desc>PSA_NEED_*</desc>
			<rect x="0" y="350.289" width="90.7087" height="20.0343" class="st9"/>
			<text x="10.81" y="363.61" class="st4">PSA_NEED_*</text>		</g>
		<g id="shape351-39" transform="translate(271.709,-228.381)">
			<title>Nordic Blue.351</title>
			<desc>Driver selection for compilation</desc>
			<rect x="0" y="337.18" width="90.7087" height="33.1436" class="st9"/>
			<text x="7.45" y="350.45" class="st4">Driver selection <tspan x="9.59" dy="1.2em" class="st6">for compilation</tspan></text>		</g>
		<g id="shape352-43" transform="translate(378.008,-228.381)">
			<title>Nordic Blue.352</title>
			<desc>Selected drivers</desc>
			<rect x="0" y="337.18" width="82.2047" height="33.1436" class="st5"/>
			<text x="19.7" y="350.45" class="st4">Selected <tspan x="24.6" dy="1.2em" class="st6">drivers</tspan></text>		</g>
		<g id="shape354-47" transform="translate(139.256,-301.196)">
			<title>Dynamic connector.354</title>
			<path d="M0 363.24 L15.1 363.24" class="st1"/>
		</g>
		<g id="shape355-52" transform="translate(139.256,-256.971)">
			<title>Dynamic connector.355</title>
			<path d="M0 363.24 L15.1 363.24" class="st1"/>
		</g>
		<g id="shape356-57" transform="translate(251.225,-308.283)">
			<title>Dynamic connector.356</title>
			<path d="M0 370.32 L6.34 370.32 L6.34 391.58 L14.32 391.58" class="st1"/>
		</g>
		<g id="shape357-62" transform="translate(251.225,-264.058)">
			<title>Dynamic connector.357</title>
			<path d="M0 370.32 L6.34 370.32 L6.34 347.36 L14.32 347.36" class="st1"/>
		</g>
		<g id="shape358-67" transform="translate(309.976,-277.006)">
			<title>Dynamic connector.358</title>
			<path d="M7.09 370.32 L7.09 379.65" class="st1"/>
		</g>
		<g id="shape362-72" transform="translate(518.725,7.40623) rotate(90)">
			<title>Sheet.362</title>
			<path d="M0 370.32 L198.43 370.32" class="st10"/>
		</g>
		<g id="shape363-75" transform="translate(739.827,7.40623) rotate(90)">
			<title>Sheet.363</title>
			<path d="M0 370.32 L198.43 370.32" class="st10"/>
		</g>
		<g id="shape364-78" transform="translate(139.898,-1.5)">
			<title>Sheet.364</title>
			<rect x="0" y="282.45" width="292.193" height="87.874" class="st11"/>
		</g>
		<g id="shape365-80" transform="translate(151.236,-63.6732)">
			<title>Nordic Red.226</title>
			<rect x="0" y="351.747" width="17.3286" height="18.5764" class="st3"/>
		</g>
		<g id="shape366-82" transform="translate(168.565,-62.3315)">
			<title>Sheet.366</title>
			<desc>User selection</desc>
			<rect x="0" y="350.405" width="117.317" height="19.9181" class="st7"/>
			<text x="4" y="363.66" class="st12">User selection</text>		</g>
		<g id="shape367-85" transform="translate(297.445,-62.0858)">
			<title>Nordic Red.228</title>
			<rect x="0" y="351.747" width="17.3286" height="18.5764" class="st9"/>
		</g>
		<g id="shape368-87" transform="translate(297.639,-35.7898)">
			<title>Nordic Red.229</title>
			<rect x="0" y="351.747" width="17.3286" height="18.5764" class="st5"/>
		</g>
		<g id="shape369-89" transform="translate(314.774,-60.952)">
			<title>Sheet.369</title>
			<desc>Automatic selection during compilation</desc>
			<rect x="0" y="350.405" width="117.317" height="19.9181" class="st7"/>
			<text x="4" y="357.06" class="st12">Automatic selection <tspan x="4" dy="1.2em" class="st6">during compilation</tspan></text>		</g>
		<g id="shape370-93" transform="translate(314.968,-35.1189)">
			<title>Sheet.370</title>
			<desc>Runtime process</desc>
			<rect x="0" y="350.405" width="117.123" height="19.9181" class="st7"/>
			<text x="4" y="363.66" class="st12">Runtime process</text>		</g>
		<g id="shape371-96" transform="translate(168.804,-34.448)">
			<title>Sheet.371</title>
			<desc>Backend calls</desc>
			<rect x="0" y="350.405" width="117.317" height="19.9181" class="st7"/>
			<text x="4" y="363.66" class="st12">Backend calls</text>		</g>
		<g id="shape372-99" transform="translate(152.486,-37.8874)">
			<title>Dynamic connector.233</title>
			<path d="M0 363.24 L9.71 363.24" class="st1"/>
		</g>
		<g id="shape378-104" transform="translate(168.804,-8.58661)">
			<title>Sheet.378</title>
			<desc>Driver chaining</desc>
			<rect x="0" y="350.405" width="117.317" height="19.9181" class="st7"/>
			<text x="4" y="363.66" class="st12">Driver chaining</text>		</g>
		<g id="shape379-107" transform="translate(152.486,-8.58661)">
			<title>Dynamic connector.379</title>
			<path d="M0 363.24 L9.71 363.24" class="st13"/>
		</g>
		<g id="shape383-113" transform="translate(166.827,-15.6732)">
			<title>Dynamic connector.383</title>
			<path d="M-0 363.24 L-8.01 363.24" class="st13"/>
		</g>
		<g id="shape385-118" transform="translate(841.875,7.40623) rotate(90)">
			<title>Sheet.385</title>
			<path d="M0 370.32 L198.43 370.32" class="st10"/>
		</g>
		<g id="shape386-121" transform="translate(477.22,-320.929)">
			<title>Sheet.386</title>
			<desc>Drivers at runtime</desc>
			<rect x="0" y="321.929" width="90.7087" height="48.3948" class="st7"/>
			<text x="26.36" y="342.53" class="st8">Drivers <tspan x="18.68" dy="1.2em" class="st6">at runtime</tspan></text>		</g>
		<g id="shape387-125" transform="translate(482.89,-273.528)">
			<title>Dynamic connector.387</title>
			<path d="M0 372.49 L-27.78 372.49 L-27.78 382.33" class="st15"/>
		</g>
		<g id="shape388-128" transform="translate(535.898,-252.571)">
			<title>Dynamic connector.388</title>
			<path d="M7.09 370.32 L7.09 378.54" class="st13"/>
		</g>
		<g id="shape389-133" transform="translate(558.008,-238.193)">
			<title>Dynamic connector.389</title>
			<path d="M-7.09 370.32 L-7.09 362.11" class="st13"/>
		</g>
		<g id="shape390-138" transform="translate(482.89,-178.325)">
			<title>Nordic Blue.390</title>
			<desc>Software driver operation</desc>
			<rect x="0" y="310.456" width="82.2047" height="59.8678" class="st5"/>
			<text x="19.4" y="330.49" class="st4">Software <tspan x="27.35" dy="1.2em" class="st6">driver </tspan><tspan x="18.17"
						dy="1.2em" class="st6">operation</tspan></text>		</g>
		<g id="shape391-143" transform="translate(454.827,-231.657)">
			<title>Dynamic connector.391</title>
			<path d="M0 373.6 L0 381.22 L21.9 381.22" class="st16"/>
		</g>
		<g id="shape392-148" transform="translate(314.774,-8.58661)">
			<title>Sheet.392</title>
			<desc>Software fallback</desc>
			<rect x="0" y="350.405" width="117.317" height="19.9181" class="st7"/>
			<text x="4" y="363.66" class="st12">Software fallback</text>		</g>
		<g id="shape393-151" transform="translate(298.456,-12.026)">
			<title>Dynamic connector.393</title>
			<path d="M0 363.24 L9.71 363.24" class="st16"/>
		</g>
		<g id="shape397-156" transform="translate(419.11,-228.381)">
			<title>Dynamic connector.397</title>
			<path d="M0 370.32 L0 390.45 L57.62 390.45" class="st1"/>
		</g>
		<g id="shape400-161" transform="translate(362.417,-237.866)">
			<title>Dynamic connector.400</title>
			<path d="M0 363.24 L9.43 363.24" class="st1"/>
		</g>
		<g id="shape402-166" transform="translate(369.504,-138.98)">
			<title>Sheet.402</title>
			<path d="M0 370.32 L192.76 370.32" class="st17"/>
		</g>
		<g id="shape404-169" transform="translate(369.504,-107.799)">
			<title>Sheet.404</title>
			<desc>IronSide SE (CRACEN, no chaining or fallback)</desc>
			<rect x="0" y="340.56" width="192.756" height="29.7638" class="st7"/>
			<text x="69.7" y="352.44" class="st18">IronSide SE  <tspan x="19.4" dy="1.2em" class="st6">(CRACEN, no chaining or fallback)</tspan></text>		</g>
		<g id="shape407-173" transform="translate(6.66929,-148.902)">
			<title>Sheet.407</title>
			<path d="M0 370.32 L555.59 370.32" class="st19"/>
		</g>
		<g id="shape408-176" transform="translate(6.66929,-89.0338)">
			<title>Sheet.408</title>
			<desc>Oberon PSA Crypto TF-M Crypto Service (all drivers)</desc>
			<rect x="0" y="310.456" width="558.425" height="59.8678" class="st7"/>
			<text x="235.03" y="325.39" class="st20">Oberon PSA Crypto  <tspan x="233.1" dy="1.2em" class="st6">TF</tspan>-M Crypto Service <tspan
						x="254.49" dy="1.2em" class="st6">(all drivers)</tspan></text>		</g>
	</g>
</svg>
