<?xml version="1.0" encoding="UTF-8" standalone="no"?>
<!DOCTYPE svg PUBLIC "-//W3C//DTD SVG 1.1//EN" "http://www.w3.org/Graphics/SVG/1.1/DTD/svg11.dtd">
<!-- Generated by Microsoft Visio, SVG Export psa_crypto_api_tfm.svg Page-1 -->
<svg xmlns="http://www.w3.org/2000/svg" xmlns:xlink="http://www.w3.org/1999/xlink" xmlns:ev="http://www.w3.org/2001/xml-events"
		width="5.75142in" height="2.96002in" viewBox="0 0 414.102 213.121" xml:space="preserve" color-interpolation-filters="sRGB"
		class="st12">
	<style type="text/css">
	<![CDATA[
		.st1 {fill:#0077c8;stroke:none;stroke-width:1}
		.st2 {fill:#ffffff;font-family:Arial;font-size:0.916672em}
		.st3 {font-size:1em}
		.st4 {fill:none;stroke:#333f48;stroke-dasharray:7,5;stroke-width:1}
		.st5 {fill:#0033a0;stroke:none;stroke-width:1}
		.st6 {fill:#ffffff;font-family:Arial;font-size:1.16666em}
		.st7 {fill:#00a2c6;stroke:none;stroke-width:1}
		.st8 {fill:none;stroke:#333f48;stroke-width:1.5}
		.st9 {fill:none;stroke:none;stroke-width:1}
		.st10 {fill:#333f48;font-family:Arial;font-size:0.916672em}
		.st11 {fill:#00a9ce;stroke:none;stroke-width:1}
		.st12 {fill:none;fill-rule:evenodd;font-size:12px;overflow:visible;stroke-linecap:square;stroke-miterlimit:3}
	]]>
	</style>

	<g>
		<title>Page-1</title>
		<g id="shape167-1" transform="translate(8.38033,-131.781)">
			<title>Nordic Blue.167</title>
			<desc>PSA Secure Storage API</desc>
			<rect x="0" y="180.299" width="150.57" height="32.8222" class="st1"/>
			<text x="14.14" y="200.01" class="st2">PSA Secure Storage API</text>		</g>
		<g id="shape168-4" transform="translate(8.38033,-87.2774)">
			<title>Nordic Blue.168</title>
			<desc>Internal Trusted Storage</desc>
			<rect x="0" y="172.645" width="70.8486" height="40.4758" class="st1"/>
			<text x="17.08" y="182.98" class="st2">Internal <tspan x="16.78" dy="1.2em" class="st3">Trusted </tspan><tspan
						x="16.16" dy="1.2em" class="st3">Storage</tspan></text>		</g>
		<g id="shape169-9" transform="translate(88.1021,-86.241)">
			<title>Nordic Blue.169</title>
			<desc>Protected Storage</desc>
			<rect x="0" y="171.609" width="70.8486" height="41.5122" class="st1"/>
			<text x="11.88" y="189.07" class="st2">Protected <tspan x="16.16" dy="1.2em" class="st3">Storage</tspan></text>		</g>
		<g id="shape170-13" transform="translate(1.5,-76.5435)">
			<title>Sheet.170</title>
			<path d="M0 213.12 L411.1 213.12 L411.1 116.89 L0 116.89 L0 213.12 Z" class="st4"/>
		</g>
		<g id="shape190-15" transform="translate(174.601,-131.781)">
			<title>Nordic Blue.190</title>
			<desc>Oberon PSA Crypto</desc>
			<rect x="0" y="180.299" width="229.369" height="32.8222" class="st5"/>
			<text x="66.08" y="200.01" class="st2">Oberon PSA Crypto</text>		</g>
		<g id="shape234-18" transform="translate(1.5,-179.299)">
			<title>Nordic Blue.234</title>
			<desc>TF-M Crypto Service</desc>
			<rect x="0" y="180.299" width="411.102" height="32.8222" class="st5"/>
			<text x="140.99" y="200.91" class="st6">TF-M Crypto Service</text>		</g>
		<g id="shape236-21" transform="translate(174.729,-86.241)">
			<title>Nordic Blue.236</title>
			<desc>nrf_cc3xx</desc>
			<rect x="0" y="172.989" width="70.8486" height="40.1326" class="st7"/>
			<text x="11.89" y="196.36" class="st2">nrf_cc3xx</text>		</g>
		<g id="shape237-24" transform="translate(253.989,-86.241)">
			<title>Nordic Blue.237</title>
			<desc>nrf_oberon</desc>
			<rect x="0" y="172.989" width="70.8486" height="40.1326" class="st7"/>
			<text x="8.82" y="196.36" class="st2">nrf_oberon</text>		</g>
		<g id="shape238-27" transform="translate(333.249,-86.241)">
			<title>Nordic Blue.238</title>
			<desc>CRACEN</desc>
			<rect x="0" y="172.989" width="70.8486" height="40.1326" class="st7"/>
			<text x="12.2" y="196.36" class="st2">CRACEN</text>		</g>
		<g id="shape240-30" transform="translate(1.5,-1.5)">
			<title>Sheet.240</title>
			<rect x="0" y="148.073" width="411.102" height="65.0477" class="st8"/>
		</g>
		<g id="shape241-32" transform="translate(7.87795,-39.5052)">
			<title>Nordic Red.241</title>
			<rect x="0" y="194.545" width="17.3286" height="18.5764" class="st5"/>
		</g>
		<g id="shape242-34" transform="translate(8.42622,-12.576)">
			<title>Nordic Red.242</title>
			<path d="M0 213.12 L17.33 213.12 L17.33 194.54 L0 194.54 L0 213.12 Z" class="st4"/>
		</g>
		<g id="shape243-36" transform="translate(25.2066,-38.1634)">
			<title>Sheet.243</title>
			<desc>Implementation of PSA Crypto API standard</desc>
			<rect x="0" y="193.203" width="150.57" height="19.9181" class="st9"/>
			<text x="4" y="199.86" class="st10">Implementation <tspan x="4" dy="1.2em" class="st3">of PSA Crypto API standard </tspan></text>		</g>
		<g id="shape244-40" transform="translate(25.2066,-11.2343)">
			<title>Sheet.244</title>
			<desc>Implementation backend</desc>
			<rect x="0" y="193.203" width="138.256" height="19.9181" class="st9"/>
			<text x="4" y="206.46" class="st10">Implementation backend</text>		</g>
		<g id="shape245-43" transform="translate(179.374,-42.2548)">
			<title>Nordic Red.245</title>
			<rect x="0" y="194.545" width="17.3286" height="18.5764" class="st1"/>
		</g>
		<g id="shape246-45" transform="translate(179.568,-15.9587)">
			<title>Nordic Red.246</title>
			<rect x="0" y="194.545" width="17.3286" height="18.5764" class="st11"/>
		</g>
		<g id="shape247-47" transform="translate(196.703,-41.1209)">
			<title>Sheet.247</title>
			<desc>Storage integration</desc>
			<rect x="0" y="193.203" width="117.317" height="19.9181" class="st9"/>
			<text x="4" y="206.46" class="st10">Storage integration</text>		</g>
		<g id="shape248-50" transform="translate(196.897,-15.2878)">
			<title>Sheet.248</title>
			<desc>Cryptographic driver</desc>
			<rect x="0" y="193.203" width="119.733" height="19.9181" class="st9"/>
			<text x="4" y="206.46" class="st10">Cryptographic driver</text>		</g>
	</g>
</svg>
