<?xml version="1.0" encoding="UTF-8" standalone="no"?>
<!DOCTYPE svg PUBLIC "-//W3C//DTD SVG 1.1//EN" "http://www.w3.org/Graphics/SVG/1.1/DTD/svg11.dtd">
<!-- Generated by Microsoft Visio, SVG Export psa_want_use_need_flow.svg Page-1 -->
<svg xmlns="http://www.w3.org/2000/svg" xmlns:xlink="http://www.w3.org/1999/xlink" xmlns:ev="http://www.w3.org/2001/xml-events"
		width="7.92946in" height="4.21819in" viewBox="0 0 570.921 303.709" xml:space="preserve" color-interpolation-filters="sRGB"
		class="st17">
	<style type="text/css">
	<![CDATA[
		.st1 {marker-end:url(#mrkr5-6);stroke:#008bab;stroke-linecap:butt;stroke-width:1}
		.st2 {fill:#008bab;fill-opacity:1;stroke:#008bab;stroke-opacity:1;stroke-width:0.28409090909091}
		.st3 {fill:#de823b;stroke:none;stroke-width:1}
		.st4 {fill:#ffffff;font-family:Arial;font-size:0.916672em}
		.st5 {fill:#00a9ce;stroke:none;stroke-width:1}
		.st6 {font-size:1em}
		.st7 {fill:none;stroke:none;stroke-width:1}
		.st8 {fill:#333f48;font-family:Arial;font-size:1.00001em}
		.st9 {fill:#768692;stroke:none;stroke-width:1}
		.st10 {stroke:#333f48;stroke-dasharray:8,4;stroke-linecap:butt;stroke-width:1}
		.st11 {fill:none;stroke:#333f48;stroke-width:1.5}
		.st12 {fill:#333f48;font-family:Arial;font-size:0.916672em}
		.st13 {marker-end:url(#mrkr5-112);stroke:#333f48;stroke-linecap:butt;stroke-width:1}
		.st14 {fill:#333f48;fill-opacity:1;stroke:#333f48;stroke-opacity:1;stroke-width:0.28409090909091}
		.st15 {stroke:#333f48;stroke-dasharray:4,2;stroke-linecap:butt;stroke-width:1}
		.st16 {marker-end:url(#mrkr5-112);stroke:#333f48;stroke-dasharray:4,2;stroke-linecap:butt;stroke-width:1}
		.st17 {fill:none;fill-rule:evenodd;font-size:12px;overflow:visible;stroke-linecap:square;stroke-miterlimit:3}
	]]>
	</style>

	<defs id="Markers">
		<g id="lend5">
			<path d="M 2 1 L 0 0 L 1.98117 -0.993387 C 1.67173 -0.364515 1.67301 0.372641 1.98465 1.00043 " style="stroke:none"/>
		</g>
		<marker id="mrkr5-6" class="st2" refX="-6.16" orient="auto" markerUnits="strokeWidth" overflow="visible">
			<use xlink:href="#lend5" transform="scale(-3.52,-3.52) "/>
		</marker>
		<marker id="mrkr5-112" class="st14" refX="-6.16" orient="auto" markerUnits="strokeWidth" overflow="visible">
			<use xlink:href="#lend5" transform="scale(-3.52,-3.52) "/>
		</marker>
	</defs>
	<g>
		<title>Page-1</title>
		<g id="shape359-1" transform="translate(419.11,-194.91)">
			<title>Dynamic connector.359</title>
			<path d="M0 303.71 L0 282.73 L57.62 282.73" class="st1"/>
		</g>
		<g id="shape340-7" transform="translate(1,-231.651)">
			<title>Nordic Blue.78</title>
			<desc>CONFIG_PSA_WANT_*</desc>
			<rect x="0" y="283.675" width="138.256" height="20.0343" class="st3"/>
			<text x="9.23" y="296.99" class="st4">CONFIG_PSA_WANT_*</text>		</g>
		<g id="shape341-10" transform="translate(1,-187.427)">
			<title>Nordic Blue.79</title>
			<desc>CONFIG_PSA_USE_*</desc>
			<rect x="0" y="283.675" width="138.256" height="20.0343" class="st3"/>
			<text x="14.11" y="296.99" class="st4">CONFIG_PSA_USE_*</text>		</g>
		<g id="shape342-13" transform="translate(482.89,-185.957)">
			<title>Nordic Blue.80</title>
			<desc>Hardware driver operation</desc>
			<rect x="0" y="243.842" width="82.2047" height="59.8678" class="st5"/>
			<text x="17.26" y="263.88" class="st4">Hardware <tspan x="27.35" dy="1.2em" class="st6">driver </tspan><tspan x="18.17"
						dy="1.2em" class="st6">operation</tspan></text>		</g>
		<g id="shape344-18" transform="translate(19.746,-253.142)">
			<title>Sheet.344</title>
			<desc>Kconfig selection by user</desc>
			<rect x="0" y="255.315" width="107.717" height="48.3948" class="st7"/>
			<text x="8.5" y="275.91" class="st8">Kconfig selection <tspan x="34.18" dy="1.2em" class="st6">by user</tspan></text>		</g>
		<g id="shape346-22" transform="translate(148.402,-254.315)">
			<title>Sheet.346</title>
			<desc>Driver wrapper at compile time</desc>
			<rect x="0" y="255.315" width="221.102" height="48.3948" class="st7"/>
			<text x="71.21" y="275.91" class="st8">Driver wrapper <tspan x="70.2" dy="1.2em" class="st6">at compile time</tspan></text>		</g>
		<g id="shape347-26" transform="translate(369.504,-254.315)">
			<title>Sheet.347</title>
			<desc>Driver wrapper at runtime</desc>
			<rect x="0" y="255.315" width="102.047" height="48.3948" class="st7"/>
			<text x="11.68" y="275.91" class="st8">Driver wrapper <tspan x="24.35" dy="1.2em" class="st6">at runtime</tspan></text>		</g>
		<g id="shape348-30" transform="translate(160.516,-231.651)">
			<title>Nordic Blue.348</title>
			<desc>PSA_WANT_*</desc>
			<rect x="0" y="283.675" width="90.7087" height="20.0343" class="st9"/>
			<text x="9.9" y="296.99" class="st4">PSA_WANT_*</text>		</g>
		<g id="shape349-33" transform="translate(160.516,-187.427)">
			<title>Nordic Blue.349</title>
			<desc>PSA_USE_*</desc>
			<rect x="0" y="283.675" width="90.7087" height="20.0343" class="st9"/>
			<text x="14.78" y="296.99" class="st4">PSA_USE_*</text>		</g>
		<g id="shape350-36" transform="translate(271.709,-210.391)">
			<title>Nordic Blue.350</title>
			<desc>PSA_NEED_*</desc>
			<rect x="0" y="283.675" width="90.7087" height="20.0343" class="st9"/>
			<text x="10.81" y="296.99" class="st4">PSA_NEED_*</text>		</g>
		<g id="shape351-39" transform="translate(271.709,-161.766)">
			<title>Nordic Blue.351</title>
			<desc>Driver selection for compilation</desc>
			<rect x="0" y="270.566" width="90.7087" height="33.1436" class="st9"/>
			<text x="7.45" y="283.84" class="st4">Driver selection <tspan x="9.59" dy="1.2em" class="st6">for compilation</tspan></text>		</g>
		<g id="shape352-43" transform="translate(378.008,-161.766)">
			<title>Nordic Blue.352</title>
			<desc>Selected drivers</desc>
			<rect x="0" y="270.566" width="82.2047" height="33.1436" class="st5"/>
			<text x="19.7" y="283.84" class="st4">Selected <tspan x="24.6" dy="1.2em" class="st6">drivers</tspan></text>		</g>
		<g id="shape354-47" transform="translate(139.256,-234.582)">
			<title>Dynamic connector.354</title>
			<path d="M0 296.62 L15.1 296.62" class="st1"/>
		</g>
		<g id="shape355-52" transform="translate(139.256,-190.357)">
			<title>Dynamic connector.355</title>
			<path d="M0 296.62 L15.1 296.62" class="st1"/>
		</g>
		<g id="shape356-57" transform="translate(251.225,-241.668)">
			<title>Dynamic connector.356</title>
			<path d="M0 303.71 L6.34 303.71 L6.34 324.97 L14.32 324.97" class="st1"/>
		</g>
		<g id="shape357-62" transform="translate(251.225,-197.444)">
			<title>Dynamic connector.357</title>
			<path d="M0 303.71 L6.34 303.71 L6.34 280.74 L14.32 280.74" class="st1"/>
		</g>
		<g id="shape358-67" transform="translate(309.976,-210.391)">
			<title>Dynamic connector.358</title>
			<path d="M7.09 303.71 L7.09 313.03" class="st1"/>
		</g>
		<g id="shape362-72" transform="translate(452.111,7.40623) rotate(90)">
			<title>Sheet.362</title>
			<path d="M0 303.71 L198.43 303.71" class="st10"/>
		</g>
		<g id="shape363-75" transform="translate(673.213,7.40623) rotate(90)">
			<title>Sheet.363</title>
			<path d="M0 303.71 L198.43 303.71" class="st10"/>
		</g>
		<g id="shape364-78" transform="translate(139.898,-1.5)">
			<title>Sheet.364</title>
			<rect x="0" y="215.835" width="292.193" height="87.874" class="st11"/>
		</g>
		<g id="shape365-80" transform="translate(151.236,-63.6732)">
			<title>Nordic Red.226</title>
			<rect x="0" y="285.133" width="17.3286" height="18.5764" class="st3"/>
		</g>
		<g id="shape366-82" transform="translate(168.565,-62.3315)">
			<title>Sheet.366</title>
			<desc>User selection</desc>
			<rect x="0" y="283.791" width="117.317" height="19.9181" class="st7"/>
			<text x="4" y="297.05" class="st12">User selection</text>		</g>
		<g id="shape367-85" transform="translate(297.445,-62.0858)">
			<title>Nordic Red.228</title>
			<rect x="0" y="285.133" width="17.3286" height="18.5764" class="st9"/>
		</g>
		<g id="shape368-87" transform="translate(297.639,-35.7898)">
			<title>Nordic Red.229</title>
			<rect x="0" y="285.133" width="17.3286" height="18.5764" class="st5"/>
		</g>
		<g id="shape369-89" transform="translate(314.774,-60.952)">
			<title>Sheet.369</title>
			<desc>Automatic selection during compilation</desc>
			<rect x="0" y="283.791" width="117.317" height="19.9181" class="st7"/>
			<text x="4" y="290.45" class="st12">Automatic selection <tspan x="4" dy="1.2em" class="st6">during compilation</tspan></text>		</g>
		<g id="shape370-93" transform="translate(314.968,-35.1189)">
			<title>Sheet.370</title>
			<desc>Runtime process</desc>
			<rect x="0" y="283.791" width="117.123" height="19.9181" class="st7"/>
			<text x="4" y="297.05" class="st12">Runtime process</text>		</g>
		<g id="shape371-96" transform="translate(168.804,-34.448)">
			<title>Sheet.371</title>
			<desc>Backend calls</desc>
			<rect x="0" y="283.791" width="117.317" height="19.9181" class="st7"/>
			<text x="4" y="297.05" class="st12">Backend calls</text>		</g>
		<g id="shape372-99" transform="translate(152.486,-37.8874)">
			<title>Dynamic connector.233</title>
			<path d="M0 296.62 L9.71 296.62" class="st1"/>
		</g>
		<g id="shape378-104" transform="translate(168.804,-8.58661)">
			<title>Sheet.378</title>
			<desc>Driver chaining</desc>
			<rect x="0" y="283.791" width="117.317" height="19.9181" class="st7"/>
			<text x="4" y="297.05" class="st12">Driver chaining</text>		</g>
		<g id="shape379-107" transform="translate(152.486,-8.58661)">
			<title>Dynamic connector.379</title>
			<path d="M0 296.62 L9.71 296.62" class="st13"/>
		</g>
		<g id="shape383-113" transform="translate(166.827,-15.6732)">
			<title>Dynamic connector.383</title>
			<path d="M-0 296.62 L-8.01 296.62" class="st13"/>
		</g>
		<g id="shape385-118" transform="translate(775.261,7.40623) rotate(90)">
			<title>Sheet.385</title>
			<path d="M0 303.71 L198.43 303.71" class="st10"/>
		</g>
		<g id="shape386-121" transform="translate(477.22,-254.315)">
			<title>Sheet.386</title>
			<desc>Drivers at runtime</desc>
			<rect x="0" y="255.315" width="90.7087" height="48.3948" class="st7"/>
			<text x="26.36" y="275.91" class="st8">Drivers <tspan x="18.68" dy="1.2em" class="st6">at runtime</tspan></text>		</g>
		<g id="shape387-125" transform="translate(482.89,-206.914)">
			<title>Dynamic connector.387</title>
			<path d="M0 305.88 L-27.78 305.88 L-27.78 315.71" class="st15"/>
		</g>
		<g id="shape388-128" transform="translate(535.898,-185.957)">
			<title>Dynamic connector.388</title>
			<path d="M7.09 303.71 L7.09 311.93" class="st13"/>
		</g>
		<g id="shape389-133" transform="translate(558.008,-171.579)">
			<title>Dynamic connector.389</title>
			<path d="M-7.09 303.71 L-7.09 295.49" class="st13"/>
		</g>
		<g id="shape390-138" transform="translate(482.89,-111.711)">
			<title>Nordic Blue.390</title>
			<desc>Software driver operation</desc>
			<rect x="0" y="243.842" width="82.2047" height="59.8678" class="st5"/>
			<text x="19.4" y="263.88" class="st4">Software <tspan x="27.35" dy="1.2em" class="st6">driver </tspan><tspan x="18.17"
						dy="1.2em" class="st6">operation</tspan></text>		</g>
		<g id="shape391-143" transform="translate(454.827,-165.043)">
			<title>Dynamic connector.391</title>
			<path d="M0 306.99 L0 314.61 L21.9 314.61" class="st16"/>
		</g>
		<g id="shape392-148" transform="translate(314.774,-8.58661)">
			<title>Sheet.392</title>
			<desc>Software fallback</desc>
			<rect x="0" y="283.791" width="117.317" height="19.9181" class="st7"/>
			<text x="4" y="297.05" class="st12">Software fallback</text>		</g>
		<g id="shape393-151" transform="translate(298.456,-12.026)">
			<title>Dynamic connector.393</title>
			<path d="M0 296.62 L9.71 296.62" class="st16"/>
		</g>
		<g id="shape397-156" transform="translate(419.11,-161.766)">
			<title>Dynamic connector.397</title>
			<path d="M0 303.71 L0 323.83 L57.62 323.83" class="st1"/>
		</g>
		<g id="shape400-161" transform="translate(362.417,-171.252)">
			<title>Dynamic connector.400</title>
			<path d="M0 296.62 L9.43 296.62" class="st1"/>
		</g>
	</g>
</svg>
