<?xml version="1.0" encoding="UTF-8" standalone="no"?>
<!DOCTYPE svg PUBLIC "-//W3C//DTD SVG 1.1//EN" "http://www.w3.org/Graphics/SVG/1.1/DTD/svg11.dtd">
<!-- Generated by Microsoft Visio, SVG Export nrf_modem_timers_sequence.svg Page-1 -->
<svg xmlns="http://www.w3.org/2000/svg" xmlns:xlink="http://www.w3.org/1999/xlink" xmlns:ev="http://www.w3.org/2001/xml-events"
		width="7.77674in" height="5.76688in" viewBox="0 0 559.925 415.216" xml:space="preserve" color-interpolation-filters="sRGB"
		class="st18">
	<style type="text/css">
	<![CDATA[
		.st1 {fill:#00a9ce;stroke:none;stroke-width:1}
		.st2 {stroke:#000000;stroke-dasharray:8,4;stroke-linecap:butt;stroke-width:1}
		.st3 {fill:#feffff;font-family:Arial;font-size:0.916672em;font-weight:bold}
		.st4 {marker-end:url(#mrkr4-19);stroke:#000000;stroke-linecap:butt;stroke-width:1}
		.st5 {fill:#000000;fill-opacity:1;stroke:#000000;stroke-opacity:1;stroke-width:0.23584905660377}
		.st6 {fill:#000000;font-family:Arial;font-size:0.666664em}
		.st7 {marker-end:url(#mrkr3-32);stroke:#000000;stroke-dasharray:8,4;stroke-linecap:butt;stroke-width:1}
		.st8 {font-size:1em}
		.st9 {fill:#0033a0;stroke:none;stroke-width:1}
		.st10 {fill:#ffffff;font-family:Arial;font-size:0.666664em}
		.st11 {fill:#feffff;fill-opacity:0;stroke:#00a9ce;stroke-dasharray:0.75,1.5;stroke-width:0.75}
		.st12 {fill:#ffffff;stroke:#00a9ce;stroke-dasharray:0.75,1.5;stroke-width:0.75}
		.st13 {fill:#00a9ce;font-family:Arial;font-size:0.666664em;font-weight:bold}
		.st14 {fill:#feffff;stroke:#000000;stroke-dasharray:2,1;stroke-linecap:butt;stroke-width:1}
		.st15 {fill:none;stroke:none;stroke-width:1}
		.st16 {marker-end:url(#mrkr4-125);stroke:#333f48;stroke-linecap:butt;stroke-width:1}
		.st17 {fill:#333f48;fill-opacity:1;stroke:#333f48;stroke-opacity:1;stroke-width:0.28409090909091}
		.st18 {fill:none;fill-rule:evenodd;font-size:12px;overflow:visible;stroke-linecap:square;stroke-miterlimit:3}
	]]>
	</style>

	<defs id="Markers">
		<g id="lend4">
			<path d="M 2 1 L 0 0 L 2 -1 L 2 1 " style="stroke:none"/>
		</g>
		<marker id="mrkr4-19" class="st5" refX="-8.48" orient="auto" markerUnits="strokeWidth" overflow="visible">
			<use xlink:href="#lend4" transform="scale(-4.24,-4.24) "/>
		</marker>
		<g id="lend3">
			<path d="M 2 1 L 0 0 L 2 -1 " style="stroke-linecap:round;stroke-linejoin:round;fill:none"/>
		</g>
		<marker id="mrkr3-32" class="st5" orient="auto" markerUnits="strokeWidth" overflow="visible">
			<use xlink:href="#lend3" transform="scale(-4.24,-4.24) "/>
		</marker>
		<marker id="mrkr4-125" class="st17" refX="-0" orient="auto" markerUnits="strokeWidth" overflow="visible">
			<use xlink:href="#lend4" transform="scale(-3.52,-3.52) "/>
		</marker>
	</defs>
	<g>
		<title>Page-1</title>
		<g id="group5-1" transform="translate(8.05709,-363.3)">
			<title>Object lifeline</title>
			<desc>app</desc>
			<g id="shape6-2">
				<title>Sheet.6</title>
				<rect x="0" y="389.704" width="51.0236" height="25.5118" class="st1"/>
			</g>
			<g id="shape7-4" transform="translate(17.0079,-29.0551)">
				<title>Sheet.7</title>
				<path d="M8.5 415.22 a0 0 0 1 1 0 0 a0 0 0 1 1 0 0 Z" class="st1"/>
			</g>
			<g id="shape8-6" transform="translate(17.0079,363.3)">
				<title>Sheet.8</title>
			</g>
			<g id="shape9-8" transform="translate(440.728,415.216) rotate(90)">
				<title>Sheet.9</title>
				<path d="M0 415.22 L345.69 415.22" class="st2"/>
			</g>
			<g id="shape5-11">
				<rect x="0" y="389.704" width="51.0236" height="25.5118" class="st1"/>
				<text x="15.73" y="405.76" class="st3">app</text>			</g>
		</g>
		<g id="shape21-14" transform="translate(33.5689,-352.387)">
			<title>Message</title>
			<desc>nrf_setsockopt(..., NRF_SO_RCVTIMEO, 30 seconds)</desc>
			<path d="M0 422.3 L199.05 422.3" class="st4"/>
			<text x="4.46" y="418.6" class="st6">nrf_setsockopt(..., NRF_SO_RCVTIMEO, 30 seconds)</text>		</g>
		<g id="shape1017-21" transform="translate(33.5689,-334.387)">
			<title>Message.1017</title>
			<desc>nrf_recv(...)</desc>
			<path d="M0 422.3 L199.05 422.3" class="st4"/>
			<text x="68.09" y="417.75" class="st6">nrf_recv(...)</text>		</g>
		<g id="shape1025-27" transform="translate(437.285,-100.387)">
			<title>Return Message.1025</title>
			<desc>return -NRF_EAGAIN, -NRF_ESHUTDOWN or 0</desc>
			<path d="M0 422.3 L-196.19 422.3" class="st7"/>
			<text x="-182.16" y="419.03" class="st6">return -NRF_EAGAIN, -NRF_ESHUTDOWN or 0</text>		</g>
		<g id="shape1029-34" transform="translate(241.098,-14.2137)">
			<title>Return Message.1029</title>
			<desc>bytes received or -1, errno NRF_EAGAIN or NRF_ESHUTDOWN</desc>
			<path d="M0 408.13 L-207.53 408.13" class="st7"/>
			<text x="-145.99" y="392.83" class="st6">bytes received or -1, <tspan x="-188.21" dy="1.2em" class="st8">errno NRF_EAGAIN or NRF_ESHUTDOWN</tspan></text>		</g>
		<g id="shape1030-41" transform="translate(241.098,-302.214)">
			<title>Message.1030</title>
			<desc>nrf_modem_os_timedwait(..., *remaining_timeout)</desc>
			<path d="M0 408.13 L183.46 408.13" class="st4"/>
			<text x="4.89" y="404.87" class="st6">nrf_modem_os_timedwait(..., *remaining_timeout)</text>		</g>
		<g id="group10-47" transform="translate(205.665,-363.3)">
			<title>Object lifeline.10</title>
			<desc>nrf_modem</desc>
			<g id="shape11-48" transform="translate(9.92126,0)">
				<title>Sheet.11</title>
				<rect x="0" y="389.704" width="51.0236" height="25.5118" class="st1"/>
			</g>
			<g id="shape12-50" transform="translate(26.9291,-29.0551)">
				<title>Sheet.12</title>
				<path d="M8.5 415.22 a0 0 0 1 1 0 0 a0 0 0 1 1 0 0 Z" class="st1"/>
			</g>
			<g id="shape13-52" transform="translate(23.622,363.3)">
				<title>Sheet.13</title>
			</g>
			<g id="shape14-54" transform="translate(450.649,415.216) rotate(90)">
				<title>Sheet.14</title>
				<path d="M0 415.22 L345.69 415.22" class="st2"/>
			</g>
			<g id="shape10-57">
				<rect x="0" y="389.704" width="70.8661" height="25.5118" class="st1"/>
				<text x="5.48" y="405.76" class="st3">nrf_modem</text>			</g>
		</g>
		<g id="shape1028-60" transform="translate(173.775,-50.2137)">
			<title>Process.1028</title>
			<desc>If no nrf_modem_os_timedwait error, data is ready for consump...</desc>
			<rect x="0" y="381.2" width="134.646" height="34.0157" class="st9"/>
			<text x="12.63" y="391.01" class="st10">If no nrf_modem_os_timedwait <tspan x="4.18" dy="1.2em" class="st8">error, data is ready for consumption </tspan><tspan
						x="36.19" dy="1.2em" class="st8">by the application</tspan></text>		</g>
		<g id="group1035-65" transform="translate(159.49,-113.993)">
			<title>Other fragment.1035</title>
			<g id="shape1035-66">
				<path d="M0 415.22 L386.65 415.22 L386.65 270.17 L0 270.17 L0 415.22 Z" class="st11"/>
			</g>
			<g id="shape1036-68" transform="translate(0,-127.443)">
				<title>Sheet.1036</title>
				<desc>IPC Interrupt</desc>
				<path d="M0 415.22 L56.91 415.22 L64 408.13 L64 397.61 L0 397.61 L0 415.22 Z" class="st12"/>
				<text x="4" y="408.81" class="st13">IPC Interrupt</text>			</g>
		</g>
		<g id="group1038-71" transform="translate(0.75,-7.69405)">
			<title>Other fragment.1038</title>
			<g id="shape1038-72">
				<path d="M0 415.22 L558.43 415.22 L558.43 8.44 L0 8.44 L0 415.22 Z" class="st11"/>
			</g>
			<g id="shape1039-74" transform="translate(0,-389.168)">
				<title>Sheet.1039</title>
				<desc>Timedwait</desc>
				<path d="M0 415.22 L56.91 415.22 L64 408.13 L64 397.61 L0 397.61 L0 415.22 Z" class="st12"/>
				<text x="4" y="408.81" class="st13">Timedwait</text>			</g>
		</g>
		<g id="group15-77" transform="translate(392.468,-363.3)">
			<title>Object lifeline.15</title>
			<desc>nrf_modem_os</desc>
			<g id="shape16-78" transform="translate(19.3054,0)">
				<title>Sheet.16</title>
				<rect x="0" y="389.704" width="51.0236" height="25.5118" class="st1"/>
			</g>
			<g id="shape17-80" transform="translate(36.3133,-29.0551)">
				<title>Sheet.17</title>
				<path d="M8.5 415.22 a0 0 0 1 1 0 0 a0 0 0 1 1 0 0 Z" class="st1"/>
			</g>
			<g id="shape18-82" transform="translate(29.8782,363.3)">
				<title>Sheet.18</title>
			</g>
			<g id="shape19-84" transform="translate(460.033,415.216) rotate(90)">
				<title>Sheet.19</title>
				<path d="M0 415.22 L345.69 415.22" class="st2"/>
			</g>
			<g id="shape15-87">
				<rect x="0" y="389.704" width="89.6345" height="25.5118" class="st1"/>
				<text x="5.39" y="405.76" class="st3">nrf_modem_os</text>			</g>
		</g>
		<g id="shape1041-90" transform="translate(26.3217,321.915) rotate(-90)">
			<title>Activation.1041</title>
			<path d="M0 415.22 L216 415.22 L216 406.71 L0 406.71 L0 415.22 Z" class="st14"/>
		</g>
		<g id="shape1042-92" transform="translate(536.498,-230.214)">
			<title>Message.1021</title>
			<desc>IPC_IRQ_handler(event_mask, *context)</desc>
			<path d="M0 408.13 L-286.92 408.13" class="st4"/>
			<text x="-268.07" y="404.86" class="st6">IPC_IRQ_handler(event_mask, *context)</text>		</g>
		<g id="shape1048-98" transform="translate(241.098,-158.214)">
			<title>Message.1048</title>
			<desc>nrf_modem_os_event_notify()</desc>
			<path d="M0 408.13 L187.71 408.13" class="st4"/>
			<text x="44.22" y="405.56" class="st6">nrf_modem_os_event_notify()</text>		</g>
		<g id="shape1049-104" transform="translate(31.2823,285.915) rotate(-90)">
			<title>Activation.1049</title>
			<path d="M0 415.22 L36 415.22 L36 406.71 L0 406.71 L0 415.22 Z" class="st14"/>
		</g>
		<g id="shape1050-106" transform="translate(397.429,-142.34)">
			<title>Process.1002</title>
			<desc>Wake sleeping threads</desc>
			<rect x="0" y="403.877" width="89.6345" height="11.3386" class="st9"/>
			<text x="4.13" y="411.95" class="st10">Wake sleeping threads</text>		</g>
		<g id="shape1051-109" transform="translate(441.537,-136.387)">
			<title>Return Message.1051</title>
			<path d="M0 422.3 L-200.44 422.3" class="st7"/>
		</g>
		<g id="shape1057-114" transform="translate(362.167,-289.741)">
			<title>Sheet.1057</title>
			<desc>Start timer/thread</desc>
			<rect x="0" y="403.877" width="70.8661" height="11.3386" class="st15"/>
			<text x="4.53" y="412.85" class="st6">Start timer/thread</text>		</g>
		<g id="shape1059-117" transform="translate(400.98,-275.568)">
			<title>Sheet.1059</title>
			<desc>Sleep</desc>
			<rect x="0" y="403.877" width="33.4706" height="11.3386" class="st15"/>
			<text x="6.51" y="412.85" class="st6">Sleep</text>		</g>
		<g id="shape1064-120" transform="translate(434.451,-285.773)">
			<title>Dynamic connector.1064</title>
			<path d="M7.09 416.92 C73.7 416.92 76.54 428.26 7.09 427.69" class="st16"/>
		</g>
		<g id="shape1065-126" transform="translate(435.159,-302.781)">
			<title>Dynamic connector.1065</title>
			<path d="M7.09 416.92 C73.7 416.92 76.54 428.26 7.09 427.69" class="st16"/>
		</g>
		<g id="shape1066-131" transform="translate(185.144,-184.859)">
			<title>Process.1066</title>
			<desc>Prepare data for consumption by the application</desc>
			<rect x="0" y="381.2" width="110.409" height="34.0157" class="st9"/>
			<text x="2.51" y="395.81" class="st10">Prepare data for consumption <tspan x="24.07" dy="1.2em" class="st8">by the application</tspan></text>		</g>
	</g>
</svg>
