<?xml version="1.0" encoding="UTF-8" standalone="no"?>
<!DOCTYPE svg PUBLIC "-//W3C//DTD SVG 1.1//EN" "http://www.w3.org/Graphics/SVG/1.1/DTD/svg11.dtd">
<!-- Generated by Microsoft Visio, SVG Export nrf_modem_initialization_sequence.svg Page-1 -->
<svg xmlns="http://www.w3.org/2000/svg" xmlns:xlink="http://www.w3.org/1999/xlink" xmlns:ev="http://www.w3.org/2001/xml-events"
		width="7.77674in" height="3.58348in" viewBox="0 0 559.925 258.01" xml:space="preserve" color-interpolation-filters="sRGB"
		class="st15">
	<style type="text/css">
	<![CDATA[
		.st1 {fill:#00a9ce;stroke:none;stroke-width:1}
		.st2 {stroke:#000000;stroke-dasharray:8,4;stroke-linecap:butt;stroke-width:1}
		.st3 {fill:#feffff;font-family:Arial;font-size:0.916672em;font-weight:bold}
		.st4 {marker-end:url(#mrkr4-45);stroke:#000000;stroke-linecap:butt;stroke-width:1}
		.st5 {fill:#000000;fill-opacity:1;stroke:#000000;stroke-opacity:1;stroke-width:0.23584905660377}
		.st6 {fill:#000000;font-family:Arial;font-size:0.666664em}
		.st7 {fill:#0033a0;stroke:none;stroke-width:1}
		.st8 {fill:#ffffff;font-family:Arial;font-size:0.666664em}
		.st9 {font-size:1em}
		.st10 {marker-end:url(#mrkr3-74);stroke:#000000;stroke-dasharray:5.25,3.75;stroke-linecap:round;stroke-linejoin:round;stroke-width:0.75}
		.st11 {fill:#000000;fill-opacity:1;stroke:#000000;stroke-opacity:1;stroke-width:0.18796992481203}
		.st12 {fill:#feffff;fill-opacity:0;stroke:#0077c8;stroke-dasharray:0.75,1.5;stroke-width:0.75}
		.st13 {fill:#ffffff;stroke:#0077c8;stroke-dasharray:0.75,1.5;stroke-width:0.75}
		.st14 {fill:#0077c8;font-family:Arial;font-size:0.666664em;font-weight:bold}
		.st15 {fill:none;fill-rule:evenodd;font-size:12px;overflow:visible;stroke-linecap:square;stroke-miterlimit:3}
	]]>
	</style>

	<defs id="Markers">
		<g id="lend4">
			<path d="M 2 1 L 0 0 L 2 -1 L 2 1 " style="stroke:none"/>
		</g>
		<marker id="mrkr4-45" class="st5" refX="-8.48" orient="auto" markerUnits="strokeWidth" overflow="visible">
			<use xlink:href="#lend4" transform="scale(-4.24,-4.24) "/>
		</marker>
		<g id="lend3">
			<path d="M 2 1 L 0 0 L 2 -1 " style="stroke-linecap:round;stroke-linejoin:round;fill:none"/>
		</g>
		<marker id="mrkr3-74" class="st11" orient="auto" markerUnits="strokeWidth" overflow="visible">
			<use xlink:href="#lend3" transform="scale(-5.32,-5.32) "/>
		</marker>
	</defs>
	<g>
		<title>Page-1</title>
		<g id="group5-1" transform="translate(8.6573,-208.387)">
			<title>Object lifeline</title>
			<desc>app</desc>
			<g id="shape6-2">
				<title>Sheet.6</title>
				<rect x="0" y="232.499" width="51.0236" height="25.5118" class="st1"/>
			</g>
			<g id="shape7-4" transform="translate(17.0079,-29.0551)">
				<title>Sheet.7</title>
				<path d="M8.5 258.01 a0 0 0 1 1 0 0 a0 0 0 1 1 0 0 Z" class="st1"/>
			</g>
			<g id="shape8-6" transform="translate(17.0079,207.537)">
				<title>Sheet.8</title>
			</g>
			<g id="shape9-8" transform="translate(283.522,258.01) rotate(90)">
				<title>Sheet.9</title>
				<path d="M0 258.01 L189.92 258.01" class="st2"/>
			</g>
			<g id="shape5-11">
				<rect x="0" y="232.499" width="51.0236" height="25.5118" class="st1"/>
				<text x="15.73" y="248.55" class="st3">app</text>			</g>
		</g>
		<g id="group10-14" transform="translate(192.909,-208.387)">
			<title>Object lifeline.10</title>
			<desc>nrf_modem</desc>
			<g id="shape11-15" transform="translate(9.92126,0)">
				<title>Sheet.11</title>
				<rect x="0" y="232.499" width="51.0236" height="25.5118" class="st1"/>
			</g>
			<g id="shape12-17" transform="translate(26.9291,-29.0551)">
				<title>Sheet.12</title>
				<path d="M8.5 258.01 a0 0 0 1 1 0 0 a0 0 0 1 1 0 0 Z" class="st1"/>
			</g>
			<g id="shape13-19" transform="translate(23.622,208.387)">
				<title>Sheet.13</title>
			</g>
			<g id="shape14-21" transform="translate(293.444,258.01) rotate(90)">
				<title>Sheet.14</title>
				<path d="M0 258.01 L190.77 258.01" class="st2"/>
			</g>
			<g id="shape10-24">
				<rect x="0" y="232.499" width="70.8661" height="25.5118" class="st1"/>
				<text x="5.48" y="248.55" class="st3">nrf_modem</text>			</g>
		</g>
		<g id="group15-27" transform="translate(430.326,-208.387)">
			<title>Object lifeline.15</title>
			<desc>nrf_modem_os</desc>
			<g id="shape16-28" transform="translate(19.3054,0)">
				<title>Sheet.16</title>
				<rect x="0" y="232.499" width="51.0236" height="25.5118" class="st1"/>
			</g>
			<g id="shape17-30" transform="translate(36.3133,-29.0551)">
				<title>Sheet.17</title>
				<path d="M8.5 258.01 a0 0 0 1 1 0 0 a0 0 0 1 1 0 0 Z" class="st1"/>
			</g>
			<g id="shape18-32" transform="translate(29.8782,207.537)">
				<title>Sheet.18</title>
			</g>
			<g id="shape19-34" transform="translate(302.828,258.01) rotate(90)">
				<title>Sheet.19</title>
				<path d="M0 258.01 L189.92 258.01" class="st2"/>
			</g>
			<g id="shape15-37">
				<rect x="0" y="232.499" width="89.6345" height="25.5118" class="st1"/>
				<text x="5.39" y="248.55" class="st3">nrf_modem_os</text>			</g>
		</g>
		<g id="shape21-40" transform="translate(34.1691,-197.474)">
			<title>Message</title>
			<desc>nrf_modem_init()</desc>
			<path d="M0 265.1 L185.69 265.1" class="st4"/>
			<text x="64.21" y="261.4" class="st6">nrf_modem_init()</text>		</g>
		<g id="shape1002-47" transform="translate(190.052,-168.565)">
			<title>Process.1002</title>
			<desc>Set up subsystems</desc>
			<rect x="0" y="246.672" width="76.5802" height="11.3386" class="st7"/>
			<text x="4.5" y="254.74" class="st8">Set up subsystems</text>		</g>
		<g id="shape1003-50" transform="translate(190.052,-155.128)">
			<title>Process.1003</title>
			<desc>Configure IPC_IRQ</desc>
			<rect x="0" y="248.145" width="76.5802" height="9.86547" class="st7"/>
			<text x="3.83" y="255.48" class="st8">Configure IPC_IRQ</text>		</g>
		<g id="shape1004-53" transform="translate(228.342,-138.87)">
			<title>Message.1004</title>
			<desc>nrf_modem_os_init()</desc>
			<path d="M0 250.99 L238.16 250.86" class="st4"/>
			<text x="86.56" y="248.36" class="st6">nrf_modem_os_init()</text>		</g>
		<g id="shape1006-59" transform="translate(399.316,-124.64)">
			<title>Process.1006</title>
			<desc>Initialize modem heap memory</desc>
			<rect x="0" y="246.672" width="144.567" height="11.3386" class="st7"/>
			<text x="17.82" y="254.74" class="st8">Initialize modem heap memory</text>		</g>
		<g id="shape1010-62" transform="translate(416.593,-106.34)">
			<title>Process.1010</title>
			<desc>Configure timers and threads</desc>
			<rect x="0" y="246.672" width="117.101" height="11.3386" class="st7"/>
			<text x="6.97" y="254.74" class="st8">Configure timers and threads</text>		</g>
		<g id="shape1011-65" transform="translate(402.86,-79.7117)">
			<title>Process.1011</title>
			<desc>Optional: Configure trace thread and trace medium</desc>
			<rect x="0" y="238.469" width="144.567" height="19.5414" class="st7"/>
			<text x="7.58" y="245.84" class="st8">Optional: Configure trace thread and <tspan x="48.05" dy="1.2em" class="st9">trace medium</tspan></text>		</g>
		<g id="shape1012-69" transform="translate(475.143,-57.3003)">
			<title>Return Message.1012</title>
			<path d="M0 250.92 L-246.8 250.92" class="st10"/>
		</g>
		<g id="shape1013-75" transform="translate(228.342,-39.3003)">
			<title>Return Message.1013</title>
			<path d="M0 250.92 L-194.17 250.92" class="st10"/>
		</g>
		<g id="group1023-80" transform="translate(0.75,-9.96175)">
			<title>Other fragment.1038</title>
			<g id="shape1023-81">
				<path d="M0 258.01 L558.43 258.01 L558.43 10.71 L0 10.71 L0 258.01 Z" class="st12"/>
			</g>
			<g id="shape1024-83" transform="translate(0,-229.695)">
				<title>Sheet.1024</title>
				<desc>Initialization sequence</desc>
				<path d="M0 258.01 L88.49 258.01 L95.58 250.92 L95.58 240.41 L0 240.41 L0 258.01 Z" class="st13"/>
				<text x="4" y="251.61" class="st14">Initialization sequence</text>			</g>
		</g>
	</g>
</svg>
