<?xml version="1.0" encoding="UTF-8" standalone="no"?>
<!DOCTYPE svg PUBLIC "-//W3C//DTD SVG 1.1//EN" "http://www.w3.org/Graphics/SVG/1.1/DTD/svg11.dtd">
<!-- Generated by Microsoft Visio, SVG Export security_tags.svg Page-1 -->
<svg xmlns="http://www.w3.org/2000/svg" xmlns:xlink="http://www.w3.org/1999/xlink" xmlns:ev="http://www.w3.org/2001/xml-events"
		width="7.58683in" height="4.88717in" viewBox="0 0 546.252 351.876" xml:space="preserve" color-interpolation-filters="sRGB"
		class="st13">
	<style type="text/css">
	<![CDATA[
		.st1 {fill:#6ad1e3;stroke:none;stroke-width:1}
		.st2 {fill:#0077c8;stroke:none;stroke-width:1}
		.st3 {fill:#ffcd00;stroke:none;stroke-width:1}
		.st4 {fill:#333f48;font-family:Arial;font-size:1.00001em}
		.st5 {fill:#ff585d;stroke:none;stroke-width:1}
		.st6 {fill:#d0df00;stroke:none;stroke-width:1}
		.st7 {fill:none;stroke:none;stroke-width:1}
		.st8 {fill:#002b8c;stroke:none;stroke-width:0.5}
		.st9 {fill:#feffff;font-family:Arial;font-size:1.00001em}
		.st10 {fill:#feffff;font-size:1em}
		.st11 {marker-end:url(#mrkr13-59);stroke:#333f48;stroke-linecap:butt;stroke-width:1}
		.st12 {fill:#333f48;fill-opacity:1;stroke:#333f48;stroke-opacity:1;stroke-width:0.28409090909091}
		.st13 {fill:none;fill-rule:evenodd;font-size:12px;overflow:visible;stroke-linecap:square;stroke-miterlimit:3}
	]]>
	</style>

	<defs id="Markers">
		<g id="lend13">
			<path d="M 3 1 L 0 0 L 3 -1 L 3 1 " style="stroke:none"/>
		</g>
		<marker id="mrkr13-59" class="st12" refX="-10.56" orient="auto" markerUnits="strokeWidth" overflow="visible">
			<use xlink:href="#lend13" transform="scale(-3.52,-3.52) "/>
		</marker>
	</defs>
	<g>
		<title>Page-1</title>
		<g id="shape2691-1" transform="translate(286.084,-1)">
			<title>Rectangle.209</title>
			<rect x="0" y="2" width="259.168" height="349.876" class="st1"/>
		</g>
		<g id="shape2692-3" transform="translate(334.678,-13.5534)">
			<title>Rectangle.8</title>
			<rect x="0" y="328.389" width="187.897" height="23.4871" class="st2"/>
		</g>
		<g id="shape2693-5" transform="translate(334.678,-39.5725)">
			<title>Rectangle.9</title>
			<rect x="0" y="328.389" width="187.897" height="23.4871" class="st2"/>
		</g>
		<g id="shape2694-7" transform="translate(334.678,-65.5915)">
			<title>Rectangle.10</title>
			<rect x="0" y="328.389" width="187.897" height="23.4871" class="st2"/>
		</g>
		<g id="shape2695-9" transform="translate(334.678,-91.6105)">
			<title>Rectangle.11</title>
			<desc>Private key</desc>
			<rect x="0" y="328.389" width="187.897" height="23.4871" class="st3"/>
			<text x="64.27" y="343.73" class="st4">Private key</text>		</g>
		<g id="shape2696-12" transform="translate(334.678,-117.63)">
			<title>Rectangle.12</title>
			<rect x="0" y="328.389" width="187.897" height="23.4871" class="st2"/>
		</g>
		<g id="shape2697-14" transform="translate(334.678,-143.649)">
			<title>Rectangle.13</title>
			<rect x="0" y="328.389" width="187.897" height="23.4871" class="st2"/>
		</g>
		<g id="shape2698-16" transform="translate(334.678,-169.668)">
			<title>Rectangle.14</title>
			<rect x="0" y="328.389" width="187.897" height="23.4871" class="st2"/>
		</g>
		<g id="shape2699-18" transform="translate(334.678,-195.687)">
			<title>Rectangle.15</title>
			<desc>Public certificate</desc>
			<rect x="0" y="328.389" width="187.897" height="23.4871" class="st5"/>
			<text x="50.26" y="343.73" class="st4">Public certificate</text>		</g>
		<g id="shape2700-21" transform="translate(334.678,-221.706)">
			<title>Rectangle.16</title>
			<desc>Root CA</desc>
			<rect x="0" y="328.389" width="187.897" height="23.4871" class="st6"/>
			<text x="71.27" y="343.73" class="st4">Root CA</text>		</g>
		<g id="shape2701-24" transform="translate(334.678,-247.725)">
			<title>Rectangle.17</title>
			<rect x="0" y="328.389" width="187.897" height="23.4871" class="st2"/>
		</g>
		<g id="shape2702-26" transform="translate(334.678,-273.744)">
			<title>Rectangle.18</title>
			<rect x="0" y="328.389" width="187.897" height="23.4871" class="st2"/>
		</g>
		<g id="shape2703-28" transform="translate(334.678,-299.763)">
			<title>Rectangle.19</title>
			<rect x="0" y="328.389" width="187.897" height="23.4871" class="st2"/>
		</g>
		<g id="shape2704-30" transform="translate(292.035,-323.25)">
			<title>Sheet.2704</title>
			<desc>Modem</desc>
			<rect x="0" y="329.019" width="253.217" height="22.8571" class="st7"/>
			<text x="4" y="344.05" class="st4">Modem</text>		</g>
		<g id="shape2705-33" transform="translate(307.952,-91.6105)">
			<title>Square.213</title>
			<desc>1</desc>
			<rect x="0" y="328.389" width="23.4871" height="23.4871" class="st8"/>
			<text x="8.41" y="343.73" class="st9">1</text>		</g>
		<g id="shape2706-36" transform="translate(307.952,-195.687)">
			<title>Square.27</title>
			<desc>1</desc>
			<rect x="0" y="328.389" width="23.4871" height="23.4871" class="st8"/>
			<text x="8.41" y="343.73" class="st9">1</text>		</g>
		<g id="shape2707-39" transform="translate(307.952,-221.706)">
			<title>Square.28</title>
			<desc>1</desc>
			<rect x="0" y="328.389" width="23.4871" height="23.4871" class="st8"/>
			<text x="8.41" y="343.73" class="st9">1</text>		</g>
		<g id="shape2708-42" transform="translate(1,-221.706)">
			<title>Rectangle.29</title>
			<desc>AT%CMNG=1,1,0,&#60;Root CA&#62;</desc>
			<rect x="0" y="328.389" width="220.292" height="23.4871" class="st6"/>
			<text x="4" y="343.73" class="st4">AT%CMNG=1,<tspan class="st10">1</tspan>,0,&#60;Root CA&#62;</text>		</g>
		<g id="shape2709-46" transform="translate(1,-195.687)">
			<title>Rectangle.30</title>
			<desc>AT%CMNG=1,1,1,&#60;Public certificate&#62;</desc>
			<rect x="0" y="328.389" width="220.292" height="23.4871" class="st5"/>
			<text x="4" y="343.73" class="st4">AT%CMNG=1,<tspan class="st10">1</tspan>,1,&#60;Public certificate&#62;</text>		</g>
		<g id="shape2710-50" transform="translate(1,-169.668)">
			<title>Rectangle.31</title>
			<desc>AT%CMNG=1,1,2,&#60;Private key&#62;</desc>
			<rect x="0" y="328.389" width="220.292" height="23.4871" class="st3"/>
			<text x="4" y="343.73" class="st4">AT%CMNG=1,<tspan class="st10">1</tspan>,2,&#60;Private key&#62;</text>		</g>
		<g id="shape2711-54" transform="translate(221.292,-226.363)">
			<title>Dynamic connector</title>
			<path d="M0 344.79 L76.1 344.79" class="st11"/>
		</g>
		<g id="shape2712-60" transform="translate(221.292,-200.344)">
			<title>Dynamic connector.42</title>
			<path d="M0 344.79 L76.1 344.79" class="st11"/>
		</g>
		<g id="shape2713-65" transform="translate(221.292,-181.411)">
			<title>Dynamic connector.43</title>
			<path d="M0 351.88 L19.01 351.88 L19.01 429.93 L76.1 429.93" class="st11"/>
		</g>
		<g id="shape2714-70" transform="translate(1,-243.97)">
			<title>Sheet.2714</title>
			<desc>Key provisioning</desc>
			<rect x="0" y="329.019" width="134.839" height="22.8571" class="st7"/>
			<text x="4" y="344.05" class="st4">Key provisioning</text>		</g>
	</g>
</svg>
