<?xml version="1.0" encoding="UTF-8" standalone="no"?>
<!DOCTYPE svg PUBLIC "-//W3C//DTD SVG 1.1//EN" "http://www.w3.org/Graphics/SVG/1.1/DTD/svg11.dtd">
<!-- Generated by Microsoft Visio, SVG Export thread_sed_ssed_comparison.svg Page-1 -->
<svg xmlns="http://www.w3.org/2000/svg" xmlns:xlink="http://www.w3.org/1999/xlink" xmlns:ev="http://www.w3.org/2001/xml-events"
		width="5.10652in" height="4.50716in" viewBox="0 0 367.669 324.516" xml:space="preserve" color-interpolation-filters="sRGB"
		class="st12">
	<style type="text/css">
	<![CDATA[
		.st1 {fill:#00a9ce;stroke:#feffff;stroke-width:1}
		.st2 {stroke:#768692;stroke-linecap:butt;stroke-width:1.5}
		.st3 {marker-end:url(#mrkr4-21);marker-start:url(#mrkr4-19);stroke:#333f48;stroke-linecap:butt;stroke-width:0.75}
		.st4 {fill:#333f48;fill-opacity:1;stroke:#333f48;stroke-opacity:1;stroke-width:0.22935779816514}
		.st5 {marker-end:url(#mrkr42-30);marker-start:url(#mrkr42-28);stroke:#333f48;stroke-linecap:butt;stroke-width:0.75}
		.st6 {marker-end:url(#mrkr4-21);stroke:#333f48;stroke-linecap:butt;stroke-width:0.75}
		.st7 {marker-start:url(#mrkr4-19);stroke:#333f48;stroke-linecap:butt;stroke-width:0.75}
		.st8 {fill:none;stroke:none;stroke-width:1}
		.st9 {fill:#333f48;font-family:Arial;font-size:0.916672em}
		.st10 {fill:#333f48;font-family:Arial;font-size:0.75em}
		.st11 {font-size:1em}
		.st12 {fill:none;fill-rule:evenodd;font-size:12px;overflow:visible;stroke-linecap:square;stroke-miterlimit:3}
	]]>
	</style>

	<defs id="Markers">
		<g id="lend4">
			<path d="M 2 1 L 0 0 L 2 -1 L 2 1 " style="stroke:none"/>
		</g>
		<marker id="mrkr4-19" class="st4" refX="8.24" orient="auto" markerUnits="strokeWidth" overflow="visible">
			<use xlink:href="#lend4" transform="scale(4.36) "/>
		</marker>
		<marker id="mrkr4-21" class="st4" refX="-8.72" orient="auto" markerUnits="strokeWidth" overflow="visible">
			<use xlink:href="#lend4" transform="scale(-4.36,-4.36) "/>
		</marker>
		<g id="lend42">
			<path
					d="M 0 0.75 C -0.414214 0.75 -0.75 0.414214 -0.75 0 -0.75 -0.414214 -0.414214 -0.75 0 -0.75 0.414214 -0.75 0.75 -0.414214 0.75 0 0.75 0.414214 0.414214 0.75 0 0.75 Z "
					style="stroke:none"/>
		</g>
		<marker id="mrkr42-28" class="st4" refX="2.79" orient="auto" markerUnits="strokeWidth" overflow="visible">
			<use xlink:href="#lend42" transform="scale(4.36) "/>
		</marker>
		<marker id="mrkr42-30" class="st4" refX="-3.27" orient="auto" markerUnits="strokeWidth" overflow="visible">
			<use xlink:href="#lend42" transform="scale(-4.36,-4.36) "/>
		</marker>
	</defs>
	<g>
		<title>Page-1</title>
		<g id="shape7-1" transform="translate(46.3543,-171.579)">
			<title>Sheet.7</title>
			<rect x="0" y="289.083" width="311.811" height="35.4331" class="st1"/>
		</g>
		<g id="shape8-3" transform="translate(95.9606,-256.618)">
			<title>Sheet.8</title>
			<rect x="0" y="289.083" width="28.3465" height="35.4331" class="st1"/>
		</g>
		<g id="shape9-5" transform="translate(222.102,-256.618)">
			<title>Sheet.9</title>
			<rect x="0" y="289.083" width="73.7008" height="35.4331" class="st1"/>
		</g>
		<g id="shape11-7" transform="translate(46.3543,-256.618)">
			<title>Sheet.11</title>
			<path d="M0 324.52 L311.81 324.52" class="st2"/>
		</g>
		<g id="shape12-10" transform="translate(46.3543,-171.579)">
			<title>Sheet.12</title>
			<path d="M0 324.52 L311.81 324.52" class="st2"/>
		</g>
		<g id="shape13-13" transform="translate(124.307,-274.335)">
			<title>Sheet.13</title>
			<path d="M6.18 324.52 L6.54 324.52 L91.26 324.52" class="st3"/>
		</g>
		<g id="shape14-22" transform="translate(222.102,-299.138)">
			<title>Sheet.14</title>
			<path d="M2.09 324.52 L2.45 324.52 L71.25 324.52" class="st5"/>
		</g>
		<g id="shape15-31" transform="translate(427.563,67.8977) rotate(90)">
			<title>Sheet.15</title>
			<path d="M0 324.52 L43.07 324.52" class="st6"/>
		</g>
		<g id="shape16-36" transform="translate(-207.295,117.504) rotate(-90)">
			<title>Sheet.16</title>
			<path d="M0 324.52 L43.07 324.52" class="st6"/>
		</g>
		<g id="shape17-41" transform="translate(555.122,67.8977) rotate(90)">
			<title>Sheet.17</title>
			<path d="M0 324.52 L43.07 324.52" class="st6"/>
		</g>
		<g id="shape18-46" transform="translate(-65.563,117.504) rotate(-90)">
			<title>Sheet.18</title>
			<path d="M0 324.52 L43.07 324.52" class="st6"/>
		</g>
		<g id="shape20-51" transform="translate(611.815,67.8977) rotate(90)">
			<title>Sheet.20</title>
			<path d="M6.18 324.52 L6.54 324.52 L49.61 324.52" class="st7"/>
		</g>
		<g id="shape21-56" transform="translate(46.3543,-1.5)">
			<title>Sheet.21</title>
			<rect x="0" y="289.083" width="311.811" height="35.4331" class="st1"/>
		</g>
		<g id="shape22-58" transform="translate(108.717,-86.5394)">
			<title>Sheet.22</title>
			<rect x="0" y="289.083" width="15.5906" height="35.4331" class="st1"/>
		</g>
		<g id="shape23-60" transform="translate(222.102,-86.5394)">
			<title>Sheet.23</title>
			<rect x="0" y="289.083" width="36.8504" height="35.4331" class="st1"/>
		</g>
		<g id="shape24-62" transform="translate(46.3543,-86.5394)">
			<title>Sheet.24</title>
			<path d="M0 324.52 L311.81 324.52" class="st2"/>
		</g>
		<g id="shape25-65" transform="translate(46.3543,-1.5)">
			<title>Sheet.25</title>
			<path d="M0 324.52 L311.81 324.52" class="st2"/>
		</g>
		<g id="shape26-68" transform="translate(124.307,-104.256)">
			<title>Sheet.26</title>
			<path d="M6.18 324.52 L6.54 324.52 L91.26 324.52" class="st3"/>
		</g>
		<g id="shape27-75" transform="translate(222.998,-126.224)">
			<title>Sheet.27</title>
			<path d="M2.09 324.52 L2.45 324.52 L33.5 324.52" class="st5"/>
		</g>
		<g id="shape30-82" transform="translate(555.122,237.976) rotate(90)">
			<title>Sheet.30</title>
			<path d="M6.18 324.52 L6.54 324.52 L49.61 324.52" class="st7"/>
		</g>
		<g id="shape32-87" transform="translate(1,-171.579)">
			<title>Sheet.32</title>
			<desc>Router</desc>
			<rect x="0" y="307.508" width="45.3543" height="17.0079" class="st8"/>
			<text x="6.17" y="319.31" class="st9">Router</text>		</g>
		<g id="shape34-90" transform="translate(1,-256.618)">
			<title>Sheet.34</title>
			<desc>SED</desc>
			<rect x="0" y="307.508" width="45.3543" height="17.0079" class="st8"/>
			<text x="11.37" y="319.31" class="st9">SED</text>		</g>
		<g id="shape35-93" transform="translate(1,-86.5394)">
			<title>Sheet.35</title>
			<desc>SSED</desc>
			<rect x="0" y="307.508" width="45.3543" height="17.0079" class="st8"/>
			<text x="7.7" y="319.31" class="st9">SSED</text>		</g>
		<g id="shape36-96" transform="translate(1,-1.5)">
			<title>Sheet.36</title>
			<desc>Router</desc>
			<rect x="0" y="307.508" width="45.3543" height="17.0079" class="st8"/>
			<text x="6.17" y="319.31" class="st9">Router</text>		</g>
		<g id="shape37-99" transform="translate(222.102,-299.138)">
			<title>Sheet.37</title>
			<desc>(Radio activity period)</desc>
			<rect x="0" y="300.138" width="73.7008" height="24.378" class="st8"/>
			<text x="8.59" y="309.63" class="st10">(Radio activity <tspan x="22.84" dy="1.2em" class="st11">period)</tspan></text>		</g>
		<g id="shape39-103" transform="translate(124.307,-274.335)">
			<title>Sheet.39</title>
			<desc>(Radio sleep period)</desc>
			<rect x="0" y="306.799" width="97.7953" height="17.7165" class="st8"/>
			<text x="8.38" y="318.36" class="st10">(Radio sleep period)</text>		</g>
		<g id="shape40-106" transform="translate(124.307,-207.012)">
			<title>Sheet.40</title>
			<desc>No data for SED</desc>
			<rect x="0" y="274.909" width="52.7244" height="49.6063" class="st8"/>
			<text x="7.1" y="296.41" class="st9">No data <tspan x="7.11" dy="1.2em" class="st11">for SED</tspan></text>		</g>
		<g id="shape41-110" transform="translate(295.803,-207.012)">
			<title>Sheet.41</title>
			<desc>Router has data for SED</desc>
			<rect x="0" y="274.909" width="70.8661" height="49.6063" class="st8"/>
			<text x="8.53" y="289.81" class="st9">Router has <tspan x="16.78" dy="1.2em" class="st11">data for </tspan><tspan
						x="24.12" dy="1.2em" class="st11">SED</tspan></text>		</g>
		<g id="shape42-115" transform="translate(258.953,-36.9331)">
			<title>Sheet.42</title>
			<desc>Router has data for SED</desc>
			<rect x="0" y="274.909" width="70.8661" height="49.6063" class="st8"/>
			<text x="8.53" y="289.81" class="st9">Router has <tspan x="16.78" dy="1.2em" class="st11">data for </tspan><tspan
						x="24.12" dy="1.2em" class="st11">SED</tspan></text>		</g>
		<g id="shape43-120" transform="translate(124.307,-36.9331)">
			<title>Sheet.43</title>
			<desc>No data for SED</desc>
			<rect x="0" y="274.909" width="52.7244" height="49.6063" class="st8"/>
			<text x="7.1" y="296.41" class="st9">No data <tspan x="7.11" dy="1.2em" class="st11">for SED</tspan></text>		</g>
		<g id="shape44-124" transform="translate(576.382,237.976) rotate(90)">
			<title>Sheet.44</title>
			<path d="M6.18 324.52 L6.54 324.52 L49.61 324.52" class="st7"/>
		</g>
		<g id="shape45-129" transform="translate(46.3543,-256.618)">
			<title>Sheet.45</title>
			<desc>(Time)</desc>
			<rect x="0" y="307.508" width="34.0158" height="17.0079" class="st8"/>
			<text x="4.01" y="318.71" class="st10">(Time)</text>		</g>
	</g>
</svg>
