<?xml version="1.0" encoding="UTF-8" standalone="no"?>
<!DOCTYPE svg PUBLIC "-//W3C//DTD SVG 1.1//EN" "http://www.w3.org/Graphics/SVG/1.1/DTD/svg11.dtd">
<!-- Generated by Microsoft Visio, SVG Export thread_platform_design_multi.svg Page-1 -->
<svg xmlns="http://www.w3.org/2000/svg" xmlns:xlink="http://www.w3.org/1999/xlink" xmlns:ev="http://www.w3.org/2001/xml-events"
		width="6.83661in" height="5.87205in" viewBox="0 0 492.236 422.787" xml:space="preserve" color-interpolation-filters="sRGB"
		class="st16">
	<style type="text/css">
	<![CDATA[
		.st1 {fill:#6ad1e3;stroke:none;stroke-linecap:round;stroke-linejoin:round;stroke-width:0.75}
		.st2 {stroke:none;stroke-linecap:round;stroke-linejoin:round;stroke-width:0.75}
		.st3 {fill:#333f48;font-family:Arial;font-size:1.5em}
		.st4 {fill:#0033a0;stroke:none;stroke-width:1}
		.st5 {fill:#ffffff;font-family:Arial;font-size:1.16666em}
		.st6 {fill:#00a9ce;stroke:none;stroke-width:1}
		.st7 {fill:#ffffff;font-family:Arial;font-size:1.00001em}
		.st8 {fill:#0077c8;stroke:none;stroke-width:1}
		.st9 {font-size:0.83333em}
		.st10 {fill:#768692;stroke:none;stroke-width:1}
		.st11 {marker-end:url(#mrkr13-49);marker-start:url(#mrkr13-47);stroke:#feffff;stroke-linecap:butt;stroke-width:1}
		.st12 {fill:#feffff;fill-opacity:1;stroke:#feffff;stroke-opacity:1;stroke-width:0.28409090909091}
		.st13 {fill:#0033a0;fill-opacity:0.55;stroke:none;stroke-linecap:round;stroke-linejoin:round;stroke-width:0.75}
		.st14 {fill:none;stroke:none;stroke-width:1}
		.st15 {fill:#ffffff;font-family:Arial;font-size:0.833336em}
		.st16 {fill:none;fill-rule:evenodd;font-size:12px;overflow:visible;stroke-linecap:square;stroke-miterlimit:3}
	]]>
	</style>

	<defs id="Markers">
		<g id="lend13">
			<path d="M 3 1 L 0 0 L 3 -1 L 3 1 " style="stroke:none"/>
		</g>
		<marker id="mrkr13-47" class="st12" refX="10.2" orient="auto" markerUnits="strokeWidth" overflow="visible">
			<use xlink:href="#lend13" transform="scale(3.52) "/>
		</marker>
		<marker id="mrkr13-49" class="st12" refX="-10.56" orient="auto" markerUnits="strokeWidth" overflow="visible">
			<use xlink:href="#lend13" transform="scale(-3.52,-3.52) "/>
		</marker>
	</defs>
	<g>
		<title>Page-1</title>
		<g id="shape661-1">
			<title>Sheet.661</title>
			<path d="M492.24 0 L0 0 L0 422.79 L492.24 422.79 L492.24 0 Z" class="st1"/>
		</g>
		<g id="shape662-3" transform="translate(374.155,-9.92126)">
			<title>Sheet.662</title>
			<desc>nRF SoC</desc>
			<path d="M111.13 391.32 L0 391.32 L0 422.79 L111.13 422.79 L111.13 391.32" class="st2"/>
			<text x="18.55" y="412.45" class="st3">nRF SoC</text>		</g>
		<g id="shape663-7" transform="translate(9.32043,-357.401)">
			<title>Sheet.663</title>
			<desc>Application</desc>
			<path d="M0 367.85 L0 422.79 L469.84 422.79 L469.84 367.85 L0 367.85 L0 367.85 Z" class="st4"/>
			<text x="200.68" y="399.52" class="st5">Application</text>		</g>
		<g id="shape665-10" transform="translate(9.32043,-46.9293)">
			<title>Sheet.665</title>
			<path d="M0 155.42 L0 422.79 L218.35 422.79 L218.35 155.42 L0 155.42 L0 155.42 Z" class="st6"/>
		</g>
		<g id="shape666-12" transform="translate(27.2446,-290.132)">
			<title>Sheet.666</title>
			<desc>Bluetooth速 LE stack</desc>
			<path d="M181.18 400.31 L0 400.31 L0 422.79 L181.18 422.79 L181.18 400.31" class="st2"/>
			<text x="27.06" y="415.75" class="st5">Bluetooth速 LE stack</text>		</g>
		<g id="shape667-16" transform="translate(235.371,-130.024)">
			<title>Sheet.667</title>
			<path d="M0 238.47 L0 422.79 L243.78 422.79 L243.78 238.47 L0 238.47 L0 238.47 Z" class="st6"/>
		</g>
		<g id="shape668-18" transform="translate(246.983,-290.132)">
			<title>Sheet.668</title>
			<desc>Thread stack (OpenThread)</desc>
			<path d="M217.92 400.31 L0 400.31 L0 422.79 L217.92 422.79 L217.92 400.31" class="st2"/>
			<text x="22.59" y="415.75" class="st5">Thread stack (OpenThread)</text>		</g>
		<g id="shape685-22" transform="translate(174.683,-9.92126)">
			<title>Sheet.685</title>
			<desc>Multiprotocol Service Layer (MPSL)</desc>
			<rect x="0" y="392.216" width="191.955" height="30.5719" class="st6"/>
			<text x="1.61" y="411.1" class="st7">Multiprotocol Service Layer (MPSL)</text>		</g>
		<g id="shape686-25" transform="translate(27.2446,-76.67)">
			<title>Sheet.686</title>
			<desc>nRF Bluetooth速 LE Controller</desc>
			<rect x="0" y="390.322" width="181.178" height="32.4651" class="st8"/>
			<text x="11.87" y="410.15" class="st7">nRF Bluetooth<tspan class="st9">速</tspan> LE Controller</text>		</g>
		<g id="shape698-29" transform="translate(119.18,-132.801)">
			<title>Sheet.698</title>
			<desc>HCI (RAM)</desc>
			<path d="M63.5 409.3 L0 409.3 L0 422.79 L63.5 422.79 L63.5 409.3" class="st2"/>
			<text x="2.42" y="419.64" class="st7">HCI (RAM)</text>		</g>
		<g id="shape699-33" transform="translate(9.31215,-320.585)">
			<title>Sheet.699</title>
			<desc>Zephyr integration</desc>
			<path d="M0 392.22 L0 422.79 L469.84 422.79 L469.84 392.22 L0 392.22 L0 392.22 Z" class="st10"/>
			<text x="178.5" y="411.7" class="st5">Zephyr integration</text>		</g>
		<g id="group701-36" transform="translate(303.403,-98.7481)">
			<title>Sheet.701</title>
			<desc>Secure boot</desc>
			<g id="shape702-37" transform="translate(1.79057E-12,-2.50527)">
				<title>Sheet.702</title>
				<rect x="0" y="400.261" width="175.748" height="22.5265" class="st10"/>
			</g>
			<g id="shape701-39">
				<text x="35.98" y="413.87" class="st7">Zephyr integration</text>			</g>
		</g>
		<g id="shape766-41" transform="translate(110.922,-175.036)">
			<title>Dynamic connector</title>
			<path d="M7.09 432.99 L7.09 433.35 L7.09 478.13" class="st11"/>
		</g>
		<g id="group779-50" transform="translate(246.556,-137.48)">
			<title>Sheet.779</title>
			<g id="shape669-51">
				<title>Sheet.669</title>
				<desc>IEEE 802.15.4 MAC</desc>
				<path d="M218.35 396.57 L0 396.57 L0 422.79 L218.35 422.79 L218.35 396.57 Z" class="st8"/>
				<text x="55.48" y="413.28" class="st7">IEEE 802.15.4 MAC</text>			</g>
			<g id="shape671-54" transform="translate(1.43885E-13,-57.252)">
				<title>Sheet.671</title>
				<desc>UDP</desc>
				<path d="M218.35 396.57 L0 396.57 L0 422.79 L218.35 422.79 L218.35 396.57 Z" class="st8"/>
				<text x="96.51" y="413.28" class="st7">UDP</text>			</g>
			<g id="shape673-57" transform="translate(1.43885E-13,-28.2893)">
				<title>Sheet.673</title>
				<desc>6LoWPAN / IPv6</desc>
				<path d="M218.35 396.57 L0 396.57 L0 422.79 L218.35 422.79 L218.35 396.57 Z" class="st8"/>
				<text x="64.15" y="413.28" class="st7">6LoWPAN / IPv6</text>			</g>
			<g id="shape675-60" transform="translate(3.19744E-14,-85.6295)">
				<title>Sheet.675</title>
				<desc>CoAP</desc>
				<path d="M109.8 390.32 L0 390.32 L0 422.79 L109.8 422.79 L109.8 390.32 Z" class="st8"/>
				<text x="39.22" y="410.15" class="st7">CoAP</text>			</g>
			<g id="shape677-63" transform="translate(3.19744E-14,-120.592)">
				<title>Sheet.677</title>
				<desc>MeshCoP</desc>
				<path d="M109.8 390.32 L0 390.32 L0 422.79 L109.8 422.79 L109.8 390.32 Z" class="st8"/>
				<text x="28.55" y="410.15" class="st7">MeshCoP</text>			</g>
			<g id="shape679-66" transform="translate(112.292,-85.6295)">
				<title>Sheet.679</title>
				<desc>MLE</desc>
				<path d="M0 422.79 L0 355.36 L53.65 355.36 L53.65 422.79 L0 422.79 Z" class="st8"/>
				<text x="14.49" y="392.67" class="st7">MLE</text>			</g>
			<g id="shape681-69" transform="translate(168.554,-85.6295)">
				<title>Sheet.681</title>
				<desc>DHCPv6</desc>
				<path d="M0 422.79 L0 355.36 L49.79 355.36 L49.79 422.79 L0 422.79 Z" class="st8"/>
				<text x="1.56" y="392.67" class="st7">DHCPv6</text>			</g>
		</g>
		<g id="group780-72" transform="translate(27.5934,-170.181)">
			<title>Sheet.780</title>
			<g id="shape683-73" transform="translate(0,-4.85509)">
				<title>Sheet.683</title>
				<rect x="0" y="307.286" width="181.178" height="115.501" class="st8"/>
			</g>
			<g id="shape687-75" transform="translate(8.8633,-12.8723)">
				<title>Sheet.687</title>
				<desc>L2CAP</desc>
				<path d="M75.42 397 L0 397 L0 422.79 L75.42 422.79 L75.42 397 Z" class="st13"/>
				<text x="18.7" y="413.49" class="st7">L2CAP</text>			</g>
			<g id="shape689-78" transform="translate(8.8633,-70.7977)">
				<title>Sheet.689</title>
				<desc>GATT</desc>
				<path d="M75.42 397.04 L0 397.04 L0 422.79 L75.42 422.79 L75.42 397.04 Z" class="st13"/>
				<text x="21.71" y="413.52" class="st7">GATT</text>			</g>
			<g id="shape691-81" transform="translate(8.8633,-41.5236)">
				<title>Sheet.691</title>
				<desc>ATT</desc>
				<path d="M75.42 397.04 L0 397.04 L0 422.79 L75.42 422.79 L75.42 397.04 Z" class="st13"/>
				<text x="26.38" y="413.52" class="st7">ATT</text>			</g>
			<g id="shape693-84" transform="translate(87.5425,-70.7977)">
				<title>Sheet.693</title>
				<desc>GAP</desc>
				<path d="M83.6 396.95 L0 396.95 L0 422.79 L83.6 422.79 L83.6 396.95 Z" class="st13"/>
				<text x="29.13" y="413.47" class="st7">GAP</text>			</g>
			<g id="shape695-87" transform="translate(87.5425,-12.8723)">
				<title>Sheet.695</title>
				<desc>SM</desc>
				<path d="M83.6 368.08 L0 368.08 L0 422.79 L83.6 422.79 L83.6 368.08 Z" class="st13"/>
				<text x="32.8" y="399.03" class="st7">SM</text>			</g>
			<g id="shape764-90" transform="translate(6.39488E-14,-96.209)">
				<title>Sheet.764</title>
				<desc>Zephyr host</desc>
				<rect x="0" y="403.304" width="181.178" height="19.4833" class="st14"/>
				<text x="58.91" y="414.1" class="st7">Zephyr host</text>			</g>
		</g>
		<g id="group783-93" transform="translate(303.869,-49.0956)">
			<title>Sheet.783</title>
			<g id="shape703-94">
				<title>Sheet.703</title>
				<path d="M175.75 377.02 L0 377.02 L0 422.79 L175.75 422.79 L175.75 377.02 Z" class="st6"/>
			</g>
			<g id="shape704-96" transform="translate(6.55476E-13,-29.1778)">
				<title>Sheet.704</title>
				<desc>nRF IEEE 802.15.4 radio driver</desc>
				<path d="M173.78 410.89 L0 410.89 L0 422.79 L173.78 422.79 L173.78 410.89" class="st2"/>
				<text x="3.51" y="420.44" class="st7">nRF IEEE 802.15.4 radio driver</text>			</g>
			<g id="shape705-100" transform="translate(6.89209,-5.1132)">
				<title>Sheet.705</title>
				<desc>IEEE 802.15.4 PHY</desc>
				<path d="M161.67 401.96 L0 401.96 L0 422.79 L161.67 422.79 L161.67 401.96 Z" class="st8"/>
				<text x="36.92" y="415.38" class="st15">IEEE 802.15.4 PHY</text>			</g>
		</g>
	</g>
</svg>
