<?xml version="1.0" encoding="UTF-8" standalone="no"?>
<!DOCTYPE svg PUBLIC "-//W3C//DTD SVG 1.1//EN" "http://www.w3.org/Graphics/SVG/1.1/DTD/svg11.dtd">
<!-- Generated by Microsoft Visio, SVG Export thread_platform_design_soc.svg Page-1 -->
<svg xmlns="http://www.w3.org/2000/svg" xmlns:xlink="http://www.w3.org/1999/xlink" xmlns:ev="http://www.w3.org/2001/xml-events"
		width="3.76794in" height="5.23615in" viewBox="0 0 271.291 377.003" xml:space="preserve" color-interpolation-filters="sRGB"
		class="st11">
	<style type="text/css">
	<![CDATA[
		.st1 {fill:#6ad1e3;stroke:#feffff;stroke-width:1}
		.st2 {stroke:none;stroke-linecap:round;stroke-linejoin:round;stroke-width:0.75}
		.st3 {fill:#333f48;font-family:Calibri;font-size:1.5em}
		.st4 {fill:#0033a0;stroke:none;stroke-width:1}
		.st5 {fill:#ffffff;font-family:Calibri;font-size:1.16666em}
		.st6 {fill:#00a9ce;stroke:none;stroke-width:1}
		.st7 {fill:#ffffff;font-family:Calibri;font-size:1.00001em}
		.st8 {fill:#0077c8;stroke:none;stroke-width:1}
		.st9 {fill:#ffffff;font-family:Calibri;font-size:0.833336em}
		.st10 {fill:#768692;stroke:none;stroke-width:1}
		.st11 {fill:none;fill-rule:evenodd;font-size:12px;overflow:visible;stroke-linecap:square;stroke-miterlimit:3}
	]]>
	</style>

	<g>
		<title>Page-1</title>
		<g id="shape186-1" transform="translate(1,-1)">
			<title>Sheet.186</title>
			<path d="M269.29 2 L0 2 L0 377 L269.29 377 L269.29 2 Z" class="st1"/>
		</g>
		<g id="shape187-3" transform="translate(197.016,-9.61944)">
			<title>Sheet.187</title>
			<desc>nRF SoC</desc>
			<path d="M66.19 353.91 L0 353.91 L0 377 L66.19 377 L66.19 353.91" class="st2"/>
			<text x="3.63" y="370.85" class="st3">nRF SoC</text>		</g>
		<g id="shape188-7" transform="translate(8.08662,-334.475)">
			<title>Sheet.188</title>
			<desc>Application</desc>
			<path d="M0 340.94 L0 377 L255.12 377 L255.12 340.94 L0 340.94 L0 340.94 Z" class="st4"/>
			<text x="95.31" y="363.17" class="st5">Application</text>		</g>
		<g id="shape190-10" transform="translate(8.08662,-124.968)">
			<title>Sheet.190</title>
			<path d="M0 202.76 L0 377 L255.12 377 L255.12 202.76 L0 202.76 L0 202.76 Z" class="st6"/>
		</g>
		<g id="shape191-12" transform="translate(23.3773,-272.29)">
			<title>Sheet.191</title>
			<desc>Thread stack (OpenThread)</desc>
			<path d="M230.79 357.2 L0 357.2 L0 377 L230.79 377 L230.79 357.2" class="st2"/>
			<text x="37.85" y="371.3" class="st5">Thread stack (OpenThread)</text>		</g>
		<g id="shape206-16" transform="translate(92.1339,-41.5146)">
			<title>Sheet.206</title>
			<path d="M171.21 328.81 L0 328.81 L0 377 L171.21 377 L171.21 328.81 Z" class="st6"/>
		</g>
		<g id="shape207-18" transform="translate(92.1339,-69.9214)">
			<title>Sheet.207</title>
			<desc>nRF IEEE 802.15.4 radio driver</desc>
			<path d="M171.21 363.8 L0 363.8 L0 377 L171.21 377 L171.21 363.8" class="st2"/>
			<text x="12.37" y="374" class="st7">nRF IEEE 802.15.4 radio driver</text>		</g>
		<g id="shape208-22" transform="translate(98.7921,-46.9737)">
			<title>Sheet.208</title>
			<desc>IEEE 802.15.4 PHY</desc>
			<path d="M156.18 358.37 L0 358.37 L0 377 L156.18 377 L156.18 358.37 Z" class="st8"/>
			<text x="41.38" y="370.69" class="st9">IEEE 802.15.4 PHY</text>		</g>
		<g id="group210-25" transform="translate(7.91024,-6.66929)">
			<title>Sheet.210</title>
			<desc>Secure boot</desc>
			<g id="shape211-26">
				<title>Sheet.211</title>
				<rect x="0" y="348.005" width="153.525" height="28.9978" class="st6"/>
			</g>
			<g id="shape210-28">
				<text x="6.79" y="365.5" class="st9">Multiprotocol Service Layer (MPSL)</text>			</g>
		</g>
		<g id="shape212-30" transform="translate(8.08662,-305.504)">
			<title>Sheet.212</title>
			<desc>Zephyr integration</desc>
			<path d="M0 354.33 L0 377 L255.12 377 L255.12 354.33 L0 354.33 L0 354.33 Z" class="st10"/>
			<text x="82.28" y="369.26" class="st7">Zephyr integration</text>		</g>
		<g id="shape215-33" transform="translate(92.1338,-95.9973)">
			<title>Sheet.215</title>
			<desc>Zephyr integration</desc>
			<rect x="0" y="354.326" width="171.071" height="22.6772" class="st10"/>
			<text x="40.25" y="369.26" class="st7">Zephyr integration</text>		</g>
		<g id="group231-36" transform="translate(41.4577,-130.558)">
			<title>Sheet.231</title>
			<g id="shape192-37">
				<title>Sheet.192</title>
				<desc>IEEE 802.15.4 MAC</desc>
				<path d="M192.33 353.91 L0 353.91 L0 377 L192.33 377 L192.33 353.91 Z" class="st8"/>
				<text x="50.08" y="369.05" class="st7">IEEE 802.15.4 MAC</text>			</g>
			<g id="shape194-40" transform="translate(7.99361E-14,-51.0236)">
				<title>Sheet.194</title>
				<desc>UDP</desc>
				<path d="M192.33 353.91 L0 353.91 L0 377 L192.33 377 L192.33 353.91 Z" class="st8"/>
				<text x="85.52" y="369.05" class="st7">UDP</text>			</g>
			<g id="shape196-43" transform="translate(7.99361E-14,-25.5118)">
				<title>Sheet.196</title>
				<desc>6LoWPAN / IPv6</desc>
				<path d="M192.33 353.91 L0 353.91 L0 377 L192.33 377 L192.33 353.91 Z" class="st8"/>
				<text x="56.26" y="369.05" class="st7">6LoWPAN / IPv6</text>			</g>
			<g id="shape198-46" transform="translate(1.59872E-14,-76.02)">
				<title>Sheet.198</title>
				<desc>CoAP</desc>
				<path d="M96.71 348.41 L0 348.41 L0 377 L96.71 377 L96.71 348.41 Z" class="st8"/>
				<text x="35.42" y="366.3" class="st7">CoAP</text>			</g>
			<g id="shape200-49" transform="translate(1.59872E-14,-106.817)">
				<title>Sheet.200</title>
				<desc>MeshCoP</desc>
				<path d="M96.71 348.41 L0 348.41 L0 377 L96.71 377 L96.71 348.41 Z" class="st8"/>
				<text x="25.28" y="366.3" class="st7">MeshCoP</text>			</g>
			<g id="shape202-52" transform="translate(98.913,-76.02)">
				<title>Sheet.202</title>
				<desc>MLE</desc>
				<path d="M0 377 L0 317.61 L47.26 317.61 L47.26 377 L0 377 Z" class="st8"/>
				<text x="13.05" y="350.91" class="st7">MLE</text>			</g>
			<g id="shape204-55" transform="translate(148.471,-76.02)">
				<title>Sheet.204</title>
				<desc>DHCPv6</desc>
				<path d="M0 377 L0 317.61 L43.86 317.61 L43.86 377 L0 377 Z" class="st8"/>
				<text x="2.45" y="350.91" class="st7">DHCPv6</text>			</g>
		</g>
	</g>
</svg>
