<?xml version="1.0" encoding="UTF-8" standalone="no"?>
<!DOCTYPE svg PUBLIC "-//W3C//DTD SVG 1.1//EN" "http://www.w3.org/Graphics/SVG/1.1/DTD/svg11.dtd">
<!-- Generated by Microsoft Visio, SVG Export thread_data_flow_tx_spi.svg Page-1 -->
<svg xmlns="http://www.w3.org/2000/svg" xmlns:xlink="http://www.w3.org/1999/xlink" xmlns:ev="http://www.w3.org/2001/xml-events"
		width="7.30534in" height="6.1938in" viewBox="0 0 525.984 445.953" xml:space="preserve" color-interpolation-filters="sRGB"
		class="st14">
	<style type="text/css">
	<![CDATA[
		.st1 {fill:#ffffff;stroke:none;stroke-width:1}
		.st2 {fill:#f2f2f2;stroke:none;stroke-width:1}
		.st3 {fill:#00a9ce;stroke:none;stroke-width:1}
		.st4 {fill:#feffff;font-family:Calibri;font-size:1.00001em}
		.st5 {marker-end:url(#mrkr13-28);stroke:#333f48;stroke-linecap:butt;stroke-width:1}
		.st6 {fill:#333f48;fill-opacity:1;stroke:#333f48;stroke-opacity:1;stroke-width:0.28409090909091}
		.st7 {fill:#333f48;stroke:#feffff;stroke-width:1}
		.st8 {fill:#333f48;font-family:Calibri;font-size:0.833336em}
		.st9 {font-size:1em}
		.st10 {fill:#00a9ce;stroke:none;stroke-width:1;visibility:hidden}
		.st11 {fill:none;stroke:none;stroke-width:1}
		.st12 {fill:#333f48;font-family:Calibri;font-size:0.75em}
		.st13 {fill:#feffff;font-family:Calibri;font-size:0.833336em}
		.st14 {fill:none;fill-rule:evenodd;font-size:12px;overflow:visible;stroke-linecap:square;stroke-miterlimit:3}
	]]>
	</style>

	<defs id="Markers">
		<g id="lend13">
			<path d="M 3 1 L 0 0 L 3 -1 L 3 1 " style="stroke:none"/>
		</g>
		<marker id="mrkr13-28" class="st6" refX="-10.56" orient="auto" markerUnits="strokeWidth" overflow="visible">
			<use xlink:href="#lend13" transform="scale(-3.52,-3.52) "/>
		</marker>
	</defs>
	<g>
		<title>Page-1</title>
		<g id="group1370-1" transform="translate(1,-179.713)">
			<title>Entity.1370</title>
			<g id="shape1371-2" transform="translate(0,-83.1848)">
				<title>Sheet.1371</title>
				<path d="M0 445.95 L523.98 445.95 L0 445.95 Z" class="st1"/>
			</g>
			<g id="shape1372-4">
				<title>Sheet.1372</title>
				<rect x="0" y="362.768" width="523.984" height="83.1848" class="st2"/>
			</g>
			<g id="shape1373-6" transform="translate(918.914,393.95) rotate(90)">
				<title>Sheet.1373</title>
			</g>
			<g id="shape1374-8" transform="translate(0,-52.0037)">
				<title>Sheet.1374</title>
				<desc>NCP TX buffer</desc>
				<rect x="0" y="414.772" width="523.984" height="31.1811" class="st3"/>
				<text x="228.03" y="433.96" class="st4">NCP TX buffer</text>			</g>
			<g id="shape1370-11"/>
		</g>
		<g id="group1391-12" transform="translate(153.432,-57.0321)">
			<title>Entity.1391</title>
			<g id="shape1392-13" transform="translate(0,-71.1848)">
				<title>Sheet.1392</title>
				<path d="M0 445.95 L219.12 445.95 L0 445.95 Z" class="st1"/>
			</g>
			<g id="shape1393-15">
				<title>Sheet.1393</title>
				<rect x="0" y="374.769" width="219.12" height="71.1848" class="st2"/>
			</g>
			<g id="shape1394-17" transform="translate(614.049,405.95) rotate(90)">
				<title>Sheet.1394</title>
			</g>
			<g id="shape1395-19" transform="translate(0,-40.0037)">
				<title>Sheet.1395</title>
				<desc>NCP SPI TX buffer</desc>
				<rect x="0" y="414.772" width="219.12" height="31.1811" class="st3"/>
				<text x="66.87" y="433.96" class="st4">NCP SPI TX buffer</text>			</g>
			<g id="shape1391-22"/>
		</g>
		<g id="shape1332-23" transform="translate(68.1933,-373.769)">
			<title>Dynamic connector.1301</title>
			<path d="M7.09 445.95 L7.09 546.26" class="st5"/>
		</g>
		<g id="shape1335-29" transform="translate(255.906,-1)">
			<title>Circle.1305</title>
			<path d="M0 438.87 A7.08661 7.08661 0 0 1 14.17 438.87 A7.08661 7.08661 0 1 1 0 438.87 Z" class="st7"/>
		</g>
		<g id="group1375-31" transform="translate(1,-179.713)">
			<title>Attribute.1375</title>
			<desc>Double ended buffer for Spinel data with two priority levels....</desc>
			<g id="shape1375-32">
				<text x="150.85" y="410.95" class="st8">Double ended buffer for Spinel data with two priority levels. <tspan
							x="174.43" dy="1.2em" class="st9">Stores two OT message queues for each priority. </tspan><tspan
							x="235.44" dy="1.2em" class="st9">Default size: 512 B</tspan></text>			</g>
			<g id="shape1376-37" transform="translate(472.961,-10.8)">
				<title>Sheet.1376</title>
				<desc>int</desc>
				<rect x="0" y="415.55" width="51.0236" height="30.4037" class="st10"/>
			</g>
			<g id="shape1377-39" transform="translate(4.25197,-17.4979)">
				<title>Attribute.5</title>
				<desc>PK</desc>
			</g>
		</g>
		<g id="shape1379-41" transform="translate(195.519,-373.769)">
			<title>Dynamic connector.1379</title>
			<path d="M7.09 445.95 L7.09 546.26" class="st5"/>
		</g>
		<g id="group1396-46" transform="translate(153.432,-57.0321)">
			<title>Attribute.1396</title>
			<g id="shape1396-47"/>
			<g id="shape1397-49" transform="translate(168.096,-6.00002)">
				<title>Sheet.1397</title>
				<desc>int</desc>
			</g>
			<g id="shape1398-51" transform="translate(4.25197,-11.4979)">
				<title>Attribute.5</title>
				<desc>PK</desc>
			</g>
		</g>
		<g id="shape1400-53" transform="translate(255.906,-57.0321)">
			<title>Dynamic connector.1400</title>
			<path d="M7.09 445.95 L7.09 477.25" class="st5"/>
		</g>
		<g id="shape1401-58" transform="translate(255.906,-179.713)">
			<title>Dynamic connector.1401</title>
			<path d="M7.09 445.95 L7.09 486.89" class="st5"/>
		</g>
		<g id="shape1402-63" transform="translate(75.2799,-303.441)">
			<title>Sheet.1402</title>
			<desc>MAC, PIv6, UDP Stream Low priority (delayed frames)</desc>
			<rect x="0" y="405.95" width="123.732" height="40.0037" class="st11"/>
			<text x="4" y="417.85" class="st12">MAC, PIv6, UDP Stream<tspan x="4" dy="1.2em" class="st9">Low priority</tspan><tspan
						x="4" dy="1.2em" class="st9">(delayed frames)</tspan></text>		</g>
		<g id="shape1404-68" transform="translate(202.605,-303.441)">
			<title>Sheet.1404</title>
			<desc>Execute handler High priority</desc>
			<rect x="0" y="405.95" width="84.5607" height="40.0037" class="st11"/>
			<text x="4" y="423.25" class="st12">Execute handler<tspan x="4" dy="1.2em" class="st9">High priority</tspan></text>		</g>
		<g id="shape1405-72" transform="translate(324.262,-303.441)">
			<title>Sheet.1405</title>
			<desc>Unsolicited update command Low priority (delayable frames)</desc>
			<rect x="0" y="405.95" width="121.656" height="40.0037" class="st11"/>
			<text x="4" y="417.85" class="st12">Unsolicited update command<tspan x="4" dy="1.2em" class="st9">Low priority </tspan><tspan
						x="4" dy="1.2em" class="st9">(delayable frames)</tspan></text>		</g>
		<g id="shape1406-77" transform="translate(445.918,-303.441)">
			<title>Sheet.1406</title>
			<desc>Write Low priority (delayable frames)</desc>
			<rect x="0" y="405.95" width="79.0664" height="40.0037" class="st11"/>
			<text x="4" y="417.85" class="st12">Write <tspan x="4" dy="1.2em" class="st9">Low priority </tspan><tspan x="4"
						dy="1.2em" class="st9">(delayable frames)</tspan></text>		</g>
		<g id="shape1407-82" transform="translate(271.195,-25.5686)">
			<title>Sheet.1407</title>
			<desc>Transmit</desc>
			<rect x="0" y="424.885" width="84.5607" height="21.0682" class="st11"/>
			<text x="4" y="438.42" class="st8">Transmit</text>		</g>
		<g id="shape1408-85" transform="translate(271.195,-138.612)">
			<title>Sheet.1408</title>
			<desc>Encode</desc>
			<rect x="0" y="415.55" width="73.259" height="30.4037" class="st11"/>
			<text x="4" y="433.75" class="st8">Encode</text>		</g>
		<g id="group1318-88" transform="translate(13.4137,-373.769)">
			<title>Entity.1291</title>
			<g id="shape1319-89" transform="translate(0,-71.1848)">
				<title>Sheet.1319</title>
				<path d="M0 445.95 L123.73 445.95 L0 445.95 Z" class="st1"/>
			</g>
			<g id="shape1320-91">
				<title>Sheet.1320</title>
				<rect x="0" y="374.769" width="123.732" height="71.1848" class="st2"/>
			</g>
			<g id="shape1321-93" transform="translate(518.662,405.95) rotate(90)">
				<title>Sheet.1321</title>
			</g>
			<g id="shape1322-95" transform="translate(0,-40.0037)">
				<title>Sheet.1322</title>
				<desc>OT message queue</desc>
				<rect x="0" y="414.772" width="123.732" height="31.1811" class="st3"/>
				<text x="23.37" y="433.36" class="st13">OT message queue</text>			</g>
			<g id="shape1318-98"/>
		</g>
		<g id="group1343-99" transform="translate(146.409,-373.769)">
			<title>Entity.1343</title>
			<g id="shape1344-100" transform="translate(0,-71.1848)">
				<title>Sheet.1344</title>
				<path d="M0 445.95 L112.39 445.95 L0 445.95 Z" class="st1"/>
			</g>
			<g id="shape1345-102">
				<title>Sheet.1345</title>
				<rect x="0" y="374.769" width="112.394" height="71.1848" class="st2"/>
			</g>
			<g id="shape1346-104" transform="translate(516.819,405.95) rotate(90)">
				<title>Sheet.1346</title>
			</g>
			<g id="shape1347-106" transform="translate(0,-40.0037)">
				<title>Sheet.1347</title>
				<desc>NCP response queue</desc>
				<rect x="0" y="414.772" width="112.394" height="31.1811" class="st3"/>
				<text x="14.08" y="433.36" class="st13">NCP response queue</text>			</g>
			<g id="shape1343-109"/>
		</g>
		<g id="group1327-110" transform="translate(13.4137,-373.769)">
			<title>Attribute.1296</title>
			<g id="shape1327-111"/>
			<g id="shape1328-113" transform="translate(72.7087,-6.00002)">
				<title>Sheet.1328</title>
				<desc>int</desc>
				<rect x="0" y="417.95" width="51.0236" height="28.0036" class="st10"/>
			</g>
			<g id="shape1329-115" transform="translate(4.25197,-11.4979)">
				<title>Attribute.5</title>
				<desc>PK</desc>
			</g>
		</g>
		<g id="group1348-117" transform="translate(146.409,-373.769)">
			<title>Attribute.1348</title>
			<g id="shape1348-118"/>
			<g id="shape1349-120" transform="translate(70.8661,-6.00002)">
				<title>Sheet.1349</title>
				<desc>int</desc>
				<rect x="0" y="417.95" width="41.5276" height="28.0036" class="st10"/>
			</g>
			<g id="shape1350-122" transform="translate(4.25197,-11.4979)">
				<title>Attribute.5</title>
				<desc>PK</desc>
			</g>
		</g>
		<g id="shape1410-124" transform="translate(13.4137,-373.769)">
			<title>Sheet.1410</title>
			<desc>Stores messages from OT stack Default size: 20 kB</desc>
			<rect x="0" y="410.672" width="123.732" height="35.2816" class="st11"/>
			<text x="4" y="425.61" class="st12">Stores messages from OT stack <tspan x="4" dy="1.2em" class="st9">Default size: 20 kB</tspan></text>		</g>
		<g id="shape1413-128" transform="translate(146.692,-375.926)">
			<title>Sheet.1413</title>
			<desc>Contains pending responses Default size: 15 entries</desc>
			<rect x="0" y="410.672" width="112.394" height="35.2816" class="st11"/>
			<text x="4" y="425.61" class="st12">Contains pending responses <tspan x="4" dy="1.2em" class="st9">Default size: 15 entries</tspan></text>		</g>
		<g id="group1414-132" transform="translate(268.065,-372.03)">
			<title>Entity.1414</title>
			<g id="shape1415-133" transform="translate(0,-71.1848)">
				<title>Sheet.1415</title>
				<path d="M0 445.95 L112.39 445.95 L0 445.95 Z" class="st1"/>
			</g>
			<g id="shape1416-135">
				<title>Sheet.1416</title>
				<rect x="0" y="374.769" width="112.394" height="71.1848" class="st2"/>
			</g>
			<g id="shape1417-137" transform="translate(516.819,405.95) rotate(90)">
				<title>Sheet.1417</title>
			</g>
			<g id="shape1418-139" transform="translate(0,-40.0037)">
				<title>Sheet.1418</title>
				<desc>NCP properties</desc>
				<rect x="0" y="414.772" width="112.394" height="31.1811" class="st3"/>
				<text x="25.46" y="433.36" class="st13">NCP properties</text>			</g>
			<g id="shape1414-142"/>
		</g>
		<g id="group1419-143" transform="translate(268.065,-372.03)">
			<title>Attribute.1419</title>
			<g id="shape1419-144"/>
			<g id="shape1420-146" transform="translate(70.8661,-6.00002)">
				<title>Sheet.1420</title>
				<desc>int</desc>
				<rect x="0" y="417.95" width="41.5276" height="28.0036" class="st10"/>
			</g>
			<g id="shape1421-148" transform="translate(4.25197,-11.4979)">
				<title>Attribute.5</title>
				<desc>PK</desc>
			</g>
		</g>
		<g id="group1425-150" transform="translate(389.721,-372.03)">
			<title>Entity.1425</title>
			<g id="shape1426-151" transform="translate(0,-71.1848)">
				<title>Sheet.1426</title>
				<path d="M0 445.95 L112.39 445.95 L0 445.95 Z" class="st1"/>
			</g>
			<g id="shape1427-153">
				<title>Sheet.1427</title>
				<rect x="0" y="374.769" width="112.394" height="71.1848" class="st2"/>
			</g>
			<g id="shape1428-155" transform="translate(516.819,405.95) rotate(90)">
				<title>Sheet.1428</title>
			</g>
			<g id="shape1429-157" transform="translate(0,-40.0037)">
				<title>Sheet.1429</title>
				<desc>Debug stream, log</desc>
				<rect x="0" y="414.772" width="112.394" height="31.1811" class="st3"/>
				<text x="19.13" y="433.36" class="st13">Debug stream, log</text>			</g>
			<g id="shape1425-160"/>
		</g>
		<g id="group1430-161" transform="translate(389.721,-372.03)">
			<title>Attribute.1430</title>
			<g id="shape1430-162"/>
			<g id="shape1431-164" transform="translate(70.8661,-6.00002)">
				<title>Sheet.1431</title>
				<desc>int</desc>
				<rect x="0" y="417.95" width="41.5276" height="28.0036" class="st10"/>
			</g>
			<g id="shape1432-166" transform="translate(4.25197,-11.4979)">
				<title>Attribute.5</title>
				<desc>PK</desc>
			</g>
		</g>
		<g id="shape1434-168" transform="translate(317.175,-372.03)">
			<title>Dynamic connector.1434</title>
			<path d="M7.09 445.95 L7.09 544.52" class="st5"/>
		</g>
		<g id="shape1435-173" transform="translate(438.831,-372.03)">
			<title>Dynamic connector.1435</title>
			<path d="M7.09 445.95 L7.09 544.52" class="st5"/>
		</g>
		<g id="shape1436-178" transform="translate(165.902,-67.0339)">
			<title>Sheet.1436</title>
			<desc>Stores data encoded in SPI framing protocol Default size: 1300B</desc>
			<rect x="0" y="425.953" width="194.18" height="20" class="st11"/>
			<text x="7.9" y="431.75" class="st8">Stores data encoded in SPI framing protocol <tspan x="57" dy="1.38em" class="st9">Default size: 1300 B</tspan></text>		</g>
	</g>
</svg>
