<?xml version="1.0" encoding="UTF-8" standalone="no"?>
<!DOCTYPE svg PUBLIC "-//W3C//DTD SVG 1.1//EN" "http://www.w3.org/Graphics/SVG/1.1/DTD/svg11.dtd">
<!-- Generated by Microsoft Visio, SVG Export thread_platform_design_nRF53_multi.svg Page-1 -->
<svg xmlns="http://www.w3.org/2000/svg" xmlns:xlink="http://www.w3.org/1999/xlink" xmlns:ev="http://www.w3.org/2001/xml-events"
		width="6.86439in" height="7.89665in" viewBox="0 0 494.236 568.559" xml:space="preserve" color-interpolation-filters="sRGB"
		class="st18">
	<style type="text/css">
	<![CDATA[
		.st1 {fill:#6ad1e3;stroke:none;stroke-width:1}
		.st2 {stroke:none;stroke-linecap:round;stroke-linejoin:round;stroke-width:0.75}
		.st3 {fill:#333f48;font-family:Arial;font-size:1.5em}
		.st4 {fill:#0033a0;stroke:none;stroke-width:1}
		.st5 {fill:#ffffff;font-family:Arial;font-size:1.16666em}
		.st6 {fill:#00a9ce;stroke:none;stroke-width:1}
		.st7 {fill:#768692;stroke:none;stroke-width:1}
		.st8 {fill:#ffffff;font-family:Arial;font-size:1.00001em}
		.st9 {fill:#0077c8;stroke:none;stroke-width:1}
		.st10 {fill:#0033a0;fill-opacity:0.55;stroke:none;stroke-linecap:round;stroke-linejoin:round;stroke-width:0.75}
		.st11 {fill:none;stroke:none;stroke-width:1}
		.st12 {marker-end:url(#mrkr13-98);marker-start:url(#mrkr13-96);stroke:#333f48;stroke-linecap:butt;stroke-width:1}
		.st13 {fill:#333f48;fill-opacity:1;stroke:#333f48;stroke-opacity:1;stroke-width:0.28409090909091}
		.st14 {fill:#333f48;font-family:Arial;font-size:1.00001em}
		.st15 {font-size:1em}
		.st16 {font-size:0.83333em}
		.st17 {fill:#ffffff;font-family:Arial;font-size:0.833336em}
		.st18 {fill:none;fill-rule:evenodd;font-size:12px;overflow:visible;stroke-linecap:square;stroke-miterlimit:3}
	]]>
	</style>

	<defs id="Markers">
		<g id="lend13">
			<path d="M 3 1 L 0 0 L 3 -1 L 3 1 " style="stroke:none"/>
		</g>
		<marker id="mrkr13-96" class="st13" refX="10.2" orient="auto" markerUnits="strokeWidth" overflow="visible">
			<use xlink:href="#lend13" transform="scale(3.52) "/>
		</marker>
		<marker id="mrkr13-98" class="st13" refX="-10.56" orient="auto" markerUnits="strokeWidth" overflow="visible">
			<use xlink:href="#lend13" transform="scale(-3.52,-3.52) "/>
		</marker>
	</defs>
	<g>
		<title>Page-1</title>
		<g id="shape1015-1" transform="translate(1,-1)">
			<title>Sheet.1015</title>
			<path d="M492.24 434.2 L0 434.2 L0 568.56 L492.24 568.56 L492.24 434.2 Z" class="st1"/>
		</g>
		<g id="shape661-3" transform="translate(1,-178.617)">
			<title>Sheet.661</title>
			<path d="M492.24 179.62 L0 179.62 L0 568.56 L492.24 568.56 L492.24 179.62 Z" class="st1"/>
		</g>
		<g id="shape662-5" transform="translate(1,-178.99)">
			<title>Sheet.662</title>
			<desc>nRF53 application core</desc>
			<path d="M492.24 537.09 L0 537.09 L0 568.56 L492.24 568.56 L492.24 537.09" class="st2"/>
			<text x="153.56" y="558.22" class="st3">nRF53 application core</text>		</g>
		<g id="shape663-9" transform="translate(10.3204,-502.173)">
			<title>Sheet.663</title>
			<desc>Application</desc>
			<path d="M0 513.62 L0 568.56 L469.84 568.56 L469.84 513.62 L0 513.62 L0 513.62 Z" class="st4"/>
			<text x="200.68" y="545.29" class="st5">Application</text>		</g>
		<g id="shape665-12" transform="translate(10.3204,-214.601)">
			<title>Sheet.665</title>
			<path d="M0 324.09 L0 568.56 L218.35 568.56 L218.35 324.09 L0 324.09 L0 324.09 Z" class="st6"/>
		</g>
		<g id="shape666-14" transform="translate(10.3121,-436.328)">
			<title>Sheet.666</title>
			<desc>Bluetooth速 LE stack</desc>
			<path d="M218.35 546.08 L0 546.08 L0 568.56 L218.35 568.56 L218.35 546.08" class="st2"/>
			<text x="45.65" y="561.52" class="st5">Bluetooth速 LE stack</text>		</g>
		<g id="shape667-18" transform="translate(236.371,-274.796)">
			<title>Sheet.667</title>
			<path d="M0 384.24 L0 568.56 L243.78 568.56 L243.78 384.24 L0 384.24 L0 384.24 Z" class="st6"/>
		</g>
		<g id="shape668-20" transform="translate(224.278,-436.328)">
			<title>Sheet.668</title>
			<desc>Thread stack (OpenThread)</desc>
			<path d="M262.01 546.08 L0 546.08 L0 568.56 L262.01 568.56 L262.01 546.08" class="st2"/>
			<text x="44.63" y="561.52" class="st5">Thread stack (OpenThread)</text>		</g>
		<g id="shape699-24" transform="translate(10.3121,-465.356)">
			<title>Sheet.699</title>
			<desc>Zephyr integration</desc>
			<path d="M0 537.99 L0 568.56 L469.84 568.56 L469.84 537.99 L0 537.99 L0 537.99 Z" class="st7"/>
			<text x="178.5" y="557.47" class="st5">Zephyr integration</text>		</g>
		<g id="group701-27" transform="translate(236.837,-243.52)">
			<title>Sheet.701</title>
			<desc>Secure boot</desc>
			<g id="shape702-28" transform="translate(2.44604E-12,-2.50527)">
				<title>Sheet.702</title>
				<rect x="0" y="546.033" width="243.314" height="22.5265" class="st7"/>
			</g>
			<g id="shape701-30">
				<text x="68.4" y="559.64" class="st8">Zephyr integration</text>			</g>
		</g>
		<g id="group779-32" transform="translate(244.805,-283.676)">
			<title>Sheet.779</title>
			<g id="shape669-33">
				<title>Sheet.669</title>
				<desc>IEEE 802.15.4 MAC</desc>
				<path d="M218.35 542.34 L0 542.34 L0 568.56 L218.35 568.56 L218.35 542.34 Z" class="st9"/>
				<text x="55.48" y="559.05" class="st8">IEEE 802.15.4 MAC</text>			</g>
			<g id="shape671-36" transform="translate(1.43885E-13,-57.252)">
				<title>Sheet.671</title>
				<desc>UDP</desc>
				<path d="M218.35 542.34 L0 542.34 L0 568.56 L218.35 568.56 L218.35 542.34 Z" class="st9"/>
				<text x="96.51" y="559.05" class="st8">UDP</text>			</g>
			<g id="shape673-39" transform="translate(1.43885E-13,-28.2893)">
				<title>Sheet.673</title>
				<desc>6LoWPAN / IPv6</desc>
				<path d="M218.35 542.34 L0 542.34 L0 568.56 L218.35 568.56 L218.35 542.34 Z" class="st9"/>
				<text x="64.15" y="559.05" class="st8">6LoWPAN / IPv6</text>			</g>
			<g id="shape675-42" transform="translate(3.19744E-14,-85.6295)">
				<title>Sheet.675</title>
				<desc>CoAP</desc>
				<path d="M109.8 536.09 L0 536.09 L0 568.56 L109.8 568.56 L109.8 536.09 Z" class="st9"/>
				<text x="39.22" y="555.93" class="st8">CoAP</text>			</g>
			<g id="shape677-45" transform="translate(3.19744E-14,-120.592)">
				<title>Sheet.677</title>
				<desc>MeshCoP</desc>
				<path d="M109.8 536.09 L0 536.09 L0 568.56 L109.8 568.56 L109.8 536.09 Z" class="st9"/>
				<text x="28.55" y="555.93" class="st8">MeshCoP</text>			</g>
			<g id="shape679-48" transform="translate(112.292,-85.6295)">
				<title>Sheet.679</title>
				<desc>MLE</desc>
				<path d="M0 568.56 L0 501.13 L53.65 501.13 L53.65 568.56 L0 568.56 Z" class="st9"/>
				<text x="14.49" y="538.45" class="st8">MLE</text>			</g>
			<g id="shape681-51" transform="translate(168.554,-85.6295)">
				<title>Sheet.681</title>
				<desc>DHCPv6</desc>
				<path d="M0 568.56 L0 501.13 L49.79 501.13 L49.79 568.56 L0 568.56 Z" class="st9"/>
				<text x="1.56" y="538.45" class="st8">DHCPv6</text>			</g>
		</g>
		<g id="group780-54" transform="translate(28.5934,-316.377)">
			<title>Sheet.780</title>
			<g id="shape683-55" transform="translate(0,-4.85509)">
				<title>Sheet.683</title>
				<rect x="0" y="453.058" width="181.178" height="115.501" class="st9"/>
			</g>
			<g id="shape687-57" transform="translate(8.8633,-12.8723)">
				<title>Sheet.687</title>
				<desc>L2CAP</desc>
				<path d="M75.42 542.77 L0 542.77 L0 568.56 L75.42 568.56 L75.42 542.77 Z" class="st10"/>
				<text x="18.7" y="559.26" class="st8">L2CAP</text>			</g>
			<g id="shape689-60" transform="translate(8.8633,-70.7977)">
				<title>Sheet.689</title>
				<desc>GATT</desc>
				<path d="M75.42 542.81 L0 542.81 L0 568.56 L75.42 568.56 L75.42 542.81 Z" class="st10"/>
				<text x="21.71" y="559.29" class="st8">GATT</text>			</g>
			<g id="shape691-63" transform="translate(8.8633,-41.5236)">
				<title>Sheet.691</title>
				<desc>ATT</desc>
				<path d="M75.42 542.81 L0 542.81 L0 568.56 L75.42 568.56 L75.42 542.81 Z" class="st10"/>
				<text x="26.38" y="559.29" class="st8">ATT</text>			</g>
			<g id="shape693-66" transform="translate(87.5425,-70.7977)">
				<title>Sheet.693</title>
				<desc>GAP</desc>
				<path d="M83.6 542.72 L0 542.72 L0 568.56 L83.6 568.56 L83.6 542.72 Z" class="st10"/>
				<text x="29.13" y="559.24" class="st8">GAP</text>			</g>
			<g id="shape695-69" transform="translate(87.5425,-12.8723)">
				<title>Sheet.695</title>
				<desc>SM</desc>
				<path d="M83.6 513.85 L0 513.85 L0 568.56 L83.6 568.56 L83.6 513.85 Z" class="st10"/>
				<text x="32.8" y="544.81" class="st8">SM</text>			</g>
			<g id="shape764-72" transform="translate(6.39488E-14,-96.209)">
				<title>Sheet.764</title>
				<desc>Zephyr host</desc>
				<rect x="0" y="549.076" width="181.178" height="19.4833" class="st11"/>
				<text x="58.91" y="559.88" class="st8">Zephyr host</text>			</g>
		</g>
		<g id="group783-75" transform="translate(236.837,-193.867)">
			<title>Sheet.783</title>
			<g id="shape703-76" transform="translate(0,-20.7341)">
				<title>Sheet.703</title>
				<path d="M243.78 543.53 L0 543.53 L0 568.56 L243.78 568.56 L243.78 543.53 Z" class="st6"/>
			</g>
			<g id="shape704-78" transform="translate(8.63309E-13,-29.1778)">
				<title>Sheet.704</title>
				<desc>nRF IEEE 802.15.4 radio driver</desc>
				<path d="M241.05 556.66 L0 556.66 L0 568.56 L241.05 568.56 L241.05 556.66" class="st2"/>
				<text x="37.15" y="566.21" class="st8">nRF IEEE 802.15.4 radio driver</text>			</g>
		</g>
		<g id="group1006-82" transform="translate(256.387,-67.4459)">
			<title>Sheet.1006</title>
		</g>
		<g id="shape1016-83" transform="translate(1,-2.01237)">
			<title>Sheet.1016</title>
			<desc>nRF53 network core</desc>
			<path d="M492.24 537.09 L0 537.09 L0 568.56 L492.24 568.56 L492.24 537.09" class="st2"/>
			<text x="165.08" y="558.22" class="st3">nRF53 network core</text>		</g>
		<g id="shape1018-87" transform="translate(12.0718,-34.9979)">
			<title>Sheet.1018</title>
			<desc>Multiprotocol Service Layer (MPSL)</desc>
			<path d="M468.08 537.99 L0 537.99 L0 568.56 L468.08 568.56 L468.08 537.99 Z" class="st6"/>
			<text x="139.67" y="556.87" class="st8">Multiprotocol Service Layer (MPSL)</text>		</g>
		<g id="shape1022-90" transform="translate(361.415,-214.601)">
			<title>Dynamic connector.1022</title>
			<path d="M7.09 578.76 L7.09 579.12 L7.09 651.77" class="st12"/>
		</g>
		<g id="shape1023-99" transform="translate(266.986,-145.16)">
			<title>Sheet.1023</title>
			<desc>OpenAMP (Spinel)</desc>
			<rect x="0" y="543.614" width="101.516" height="24.9449" class="st11"/>
			<text x="23.08" y="552.49" class="st14">OpenAMP <tspan x="30.08" dy="1.2em" class="st15">(Spinel)</tspan></text>		</g>
		<g id="shape1024-103" transform="translate(119.183,-143.46)">
			<title>Sheet.1024</title>
			<desc>OpenAMP (HCI)</desc>
			<rect x="0" y="543.614" width="90.5891" height="24.9449" class="st11"/>
			<text x="17.61" y="552.49" class="st14">OpenAMP <tspan x="30.97" dy="1.2em" class="st15">(HCI)</tspan></text>		</g>
		<g id="shape1025-107" transform="translate(112.096,-321.232)">
			<title>Dynamic connector.1025</title>
			<path d="M7.09 578.76 L7.09 579.12 L7.09 758.4" class="st12"/>
		</g>
		<g id="shape1011-114" transform="translate(12.0718,-75.0678)">
			<title>Sheet.1011</title>
			<path d="M224.25 522.79 L0 522.79 L0 568.56 L224.25 568.56 L224.25 522.79 Z" class="st6"/>
		</g>
		<g id="shape1013-116" transform="translate(20.009,-81.7182)">
			<title>Sheet.1013</title>
			<desc>nRF Bluetooth速 LE Controller</desc>
			<path d="M206.77 536.09 L0 536.09 L0 568.56 L206.77 568.56 L206.77 536.09 Z" class="st9"/>
			<text x="24.66" y="555.93" class="st8">nRF Bluetooth<tspan class="st16">速</tspan> LE Controller</text>		</g>
		<g id="group1028-120" transform="translate(256.387,-75.0678)">
			<title>Sheet.1028</title>
			<g id="shape1007-121">
				<title>Sheet.1007</title>
				<path d="M224.25 522.79 L0 522.79 L0 568.56 L224.25 568.56 L224.25 522.79 Z" class="st6"/>
			</g>
			<g id="shape1008-123" transform="translate(7.99361E-13,-29.1778)">
				<title>Sheet.1008</title>
				<desc>nRF IEEE 802.15.4 radio driver</desc>
				<path d="M221.74 556.66 L0 556.66 L0 568.56 L221.74 568.56 L221.74 556.66" class="st2"/>
				<text x="27.49" y="566.21" class="st8">nRF IEEE 802.15.4 radio driver</text>			</g>
			<g id="shape1009-127" transform="translate(8.79416,-5.1132)">
				<title>Sheet.1009</title>
				<desc>IEEE 802.15.4 PHY</desc>
				<path d="M206.29 547.74 L0 547.74 L0 568.56 L206.29 568.56 L206.29 547.74 Z" class="st9"/>
				<text x="59.23" y="561.15" class="st17">IEEE 802.15.4 PHY</text>			</g>
		</g>
	</g>
</svg>
