<?xml version="1.0" encoding="UTF-8" standalone="no"?>
<!DOCTYPE svg PUBLIC "-//W3C//DTD SVG 1.1//EN" "http://www.w3.org/Graphics/SVG/1.1/DTD/svg11.dtd">
<!-- Generated by Microsoft Visio, SVG Export Thread_on-mesh_commissioning.svg Page-1 -->
<svg xmlns="http://www.w3.org/2000/svg" xmlns:xlink="http://www.w3.org/1999/xlink" xmlns:ev="http://www.w3.org/2001/xml-events"
		width="4.55534in" height="4.55534in" viewBox="0 0 327.984 327.984" xml:space="preserve" color-interpolation-filters="sRGB"
		class="st11">
	<style type="text/css">
	<![CDATA[
		.st1 {fill:#d9e1e2;stroke:#d8d8d8;stroke-width:1}
		.st2 {stroke:#333f48;stroke-linecap:butt;stroke-width:2}
		.st3 {fill:none;stroke:none;stroke-width:1}
		.st4 {fill:#768692;font-family:Calibri;font-size:1.00001em}
		.st5 {fill:#0033a0;stroke:none;stroke-width:1}
		.st6 {fill:#333f48;font-family:Calibri;font-size:1.00001em}
		.st7 {fill:#0077c8;stroke:none;stroke-width:1}
		.st8 {font-size:1em}
		.st9 {fill:#00a9ce;stroke:none;stroke-width:1}
		.st10 {fill:#6ad1e3;stroke:none;stroke-width:1}
		.st11 {fill:none;fill-rule:evenodd;font-size:12px;overflow:visible;stroke-linecap:square;stroke-miterlimit:3}
	]]>
	</style>

	<g>
		<title>Page-1</title>
		<g id="shape1415-1" transform="translate(1,-1)">
			<title>Circle</title>
			<path d="M0 164.99 A162.992 162.992 0 1 1 325.98 164.99 A162.992 162.992 0 0 1 0 164.99 Z" class="st1"/>
		</g>
		<g id="shape1416-3" transform="translate(166.126,-137.26)">
			<title>Dynamic connector.61</title>
			<path d="M0 327.98 L-28.37 400.1" class="st2"/>
		</g>
		<g id="shape1417-6" transform="translate(107.52,-130.174)">
			<title>Dynamic connector</title>
			<path d="M0 320.9 L58.61 320.9" class="st2"/>
		</g>
		<g id="shape1418-9" transform="translate(107.52,-137.26)">
			<title>Dynamic connector.55</title>
			<path d="M0 327.98 L69 267.46" class="st2"/>
		</g>
		<g id="shape1419-12" transform="translate(178.409,-197.78)">
			<title>Dynamic connector.56</title>
			<path d="M-1.89 327.98 L-12.28 388.5" class="st2"/>
		</g>
		<g id="shape1420-15" transform="translate(224.732,-137.26)">
			<title>Dynamic connector.57</title>
			<path d="M0 327.98 L-48.21 267.46" class="st2"/>
		</g>
		<g id="shape1421-18" transform="translate(166.126,-144.347)">
			<title>Dynamic connector.54</title>
			<path d="M0 335.07 L58.61 335.07" class="st2"/>
		</g>
		<g id="shape1422-21" transform="translate(223.663,-137.26)">
			<title>Dynamic connector.62</title>
			<path d="M1.07 327.98 L13.1 400.1" class="st2"/>
		</g>
		<g id="shape1427-24" transform="translate(176.52,-197.78)">
			<title>Dynamic connector.69</title>
			<path d="M0 327.98 L30.86 250.03" class="st2"/>
		</g>
		<g id="shape1438-27" transform="translate(33.1261,-202.159)">
			<title>Sheet.1438</title>
			<desc>Thread network</desc>
			<rect x="0" y="310.976" width="97.6308" height="17.0079" class="st3"/>
			<text x="9.86" y="323.08" class="st4">Thread network</text>		</g>
		<g id="group1439-30" transform="translate(208.565,-30.865)">
			<title>Sheet.1439</title>
			<g id="shape1423-31" transform="translate(13.8827,-19.9569)">
				<title>Circle.29</title>
				<path d="M0 313.67 A14.3185 14.3185 0 1 1 28.64 313.67 A14.3185 14.3185 0 0 1 0 313.67 Z" class="st5"/>
			</g>
			<g id="shape1425-33">
				<title>Sheet.1425</title>
				<desc>Joiner</desc>
				<rect x="0" y="313.811" width="56.6929" height="14.1732" class="st3"/>
				<text x="13.66" y="324.5" class="st6">Joiner</text>			</g>
		</g>
		<g id="group1440-36" transform="translate(109.498,-30.865)">
			<title>Sheet.1440</title>
			<g id="shape1432-37" transform="translate(13.9434,-19.9569)">
				<title>Circle.49</title>
				<path d="M0 313.67 A14.3185 14.3185 0 1 1 28.64 313.67 A14.3185 14.3185 0 0 1 0 313.67 Z" class="st5"/>
			</g>
			<g id="shape1434-39">
				<title>Sheet.1434</title>
				<desc>Joiner</desc>
				<rect x="0" y="313.811" width="56.6929" height="14.1732" class="st3"/>
				<text x="13.66" y="324.5" class="st6">Joiner</text>			</g>
		</g>
		<g id="group1441-42" transform="translate(145.425,-93.2272)">
			<title>Sheet.1441</title>
			<g id="shape1430-43" transform="translate(1.34646,-26.7267)">
				<title>Pentagon.46</title>
				<path d="M19.35 289.29 L-1 304.07 L6.77 327.98 L31.92 327.98 L39.69 304.07 L19.35 289.29 Z" class="st7"/>
			</g>
			<g id="shape1435-45" transform="translate(6.77437,0)">
				<title>Sheet.1435</title>
				<desc>Joiner router</desc>
				<rect x="0" y="310.976" width="56.6929" height="17.0079" class="st3"/>
				<text x="13.66" y="315.88" class="st6">Joiner <tspan x="12.85" dy="1.2em" class="st8">r</tspan>outer</text>			</g>
		</g>
		<g id="group1442-49" transform="translate(205.378,-119.954)">
			<title>Sheet.1442</title>
			<g id="shape1429-50">
				<title>Pentagon.45</title>
				<path d="M19.35 289.29 L-1 304.07 L6.77 327.98 L31.92 327.98 L39.69 304.07 L19.35 289.29 Z" class="st7"/>
			</g>
			<g id="shape1433-52" transform="translate(42.2074,-10.8425)">
				<title>Sheet.1433</title>
				<desc>Joiner router</desc>
				<rect x="0" y="310.976" width="48.9264" height="17.0079" class="st3"/>
				<text x="9.78" y="315.88" class="st6">Joiner <tspan x="8.97" dy="1.2em" class="st8">r</tspan>outer</text>			</g>
		</g>
		<g id="group1443-56" transform="translate(31.4724,-119.954)">
			<title>Sheet.1443</title>
			<g id="shape1431-57" transform="translate(56.6929,0)">
				<title>Pentagon.47</title>
				<path d="M19.35 289.29 L-1 304.07 L6.77 327.98 L31.92 327.98 L39.69 304.07 L19.35 289.29 Z" class="st7"/>
			</g>
			<g id="shape1436-59" transform="translate(-7.99361E-15,-10.8425)">
				<title>Sheet.1436</title>
				<desc>Router</desc>
				<rect x="0" y="310.976" width="56.6929" height="17.0079" class="st3"/>
				<text x="11.69" y="323.08" class="st6">Router</text>			</g>
		</g>
		<g id="group1444-62" transform="translate(157.165,-180.474)">
			<title>Sheet.1444</title>
			<g id="shape1424-63" transform="translate(51.9621,-12.2598)">
				<title>Sheet.1424</title>
				<desc>Leader</desc>
				<rect x="0" y="313.811" width="49.1167" height="14.1732" class="st3"/>
				<text x="7.95" y="324.5" class="st6">Leader</text>			</g>
			<g id="shape1428-66">
				<title>Pentagon</title>
				<path d="M19.35 289.29 L-1 304.07 L6.77 327.98 L31.92 327.98 L39.69 304.07 L19.35 289.29 Z" class="st9"/>
			</g>
		</g>
		<g id="group1446-68" transform="translate(107.453,-258.426)">
			<title>Sheet.1446</title>
			<g id="shape1426-69" transform="translate(0,-8.00787)">
				<title>Sheet.1426</title>
				<desc>On-mesh commissioner</desc>
				<rect x="0" y="305.307" width="86.4567" height="22.6772" class="st3"/>
				<text x="4" y="313.05" class="st6">On-mesh <tspan x="4" dy="1.2em" class="st8">c</tspan>ommissioner</text>			</g>
			<g id="shape1437-73" transform="translate(80.5748,0)">
				<title>Pentagon.67</title>
				<path d="M19.35 289.29 L-1 304.07 L6.77 327.98 L31.92 327.98 L39.69 304.07 L19.35 289.29 Z" class="st10"/>
			</g>
		</g>
	</g>
</svg>
