<?xml version="1.0" encoding="UTF-8" standalone="no"?>
<!DOCTYPE svg PUBLIC "-//W3C//DTD SVG 1.1//EN" "http://www.w3.org/Graphics/SVG/1.1/DTD/svg11.dtd">
<!-- Generated by Microsoft Visio, SVG Export thread_platform_design_ncp.svg Page-1 -->
<svg xmlns="http://www.w3.org/2000/svg" xmlns:xlink="http://www.w3.org/1999/xlink" xmlns:ev="http://www.w3.org/2001/xml-events"
		width="7.29891in" height="6.54524in" viewBox="0 0 525.521 471.257" xml:space="preserve" color-interpolation-filters="sRGB"
		class="st19">
	<style type="text/css">
	<![CDATA[
		.st1 {fill:#6ad1e3;stroke:none;stroke-linecap:round;stroke-linejoin:round;stroke-width:0.75}
		.st2 {stroke:none;stroke-linecap:round;stroke-linejoin:round;stroke-width:0.75}
		.st3 {fill:#333f48;font-family:Calibri;font-size:1.5em}
		.st4 {fill:#00a9ce;stroke:none;stroke-width:1}
		.st5 {fill:#ffffff;font-family:Calibri;font-size:1.16666em}
		.st6 {fill:#ffffff;font-family:Calibri;font-size:1.00001em}
		.st7 {fill:#0077c8;stroke:none;stroke-width:1}
		.st8 {fill:#ffffff;font-family:Calibri;font-size:0.833336em}
		.st9 {fill:#768692;stroke:none;stroke-width:1}
		.st10 {fill:#d0df00;stroke:none;stroke-width:1}
		.st11 {fill:#000000;font-family:Calibri;font-size:1.16666em}
		.st12 {fill:#6ad1e3;stroke:none;stroke-width:1}
		.st13 {fill:#000000;font-family:Calibri;font-size:1.00001em}
		.st14 {fill:#0033a0;stroke:none;stroke-width:1}
		.st15 {marker-end:url(#mrkr13-78);marker-start:url(#mrkr13-76);stroke:#333f48;stroke-linecap:butt;stroke-width:1}
		.st16 {fill:#333f48;fill-opacity:1;stroke:#333f48;stroke-opacity:1;stroke-width:0.28409090909091}
		.st17 {fill:none;stroke:none;stroke-width:1}
		.st18 {fill:#333f48;font-family:Calibri;font-size:1.00001em}
		.st19 {fill:none;fill-rule:evenodd;font-size:12px;overflow:visible;stroke-linecap:square;stroke-miterlimit:3}
	]]>
	</style>

	<defs id="Markers">
		<g id="lend13">
			<path d="M 3 1 L 0 0 L 3 -1 L 3 1 " style="stroke:none"/>
		</g>
		<marker id="mrkr13-76" class="st16" refX="10.2" orient="auto" markerUnits="strokeWidth" overflow="visible">
			<use xlink:href="#lend13" transform="scale(3.52) "/>
		</marker>
		<marker id="mrkr13-78" class="st16" refX="-10.56" orient="auto" markerUnits="strokeWidth" overflow="visible">
			<use xlink:href="#lend13" transform="scale(-3.52,-3.52) "/>
		</marker>
	</defs>
	<g>
		<title>Page-1</title>
		<g id="shape1069-1">
			<title>Sheet.1069</title>
			<path d="M269.29 96.25 L0 96.25 L0 471.26 L269.29 471.26 L269.29 96.25 Z" class="st1"/>
		</g>
		<g id="shape1070-3" transform="translate(196.016,-8.61944)">
			<title>Sheet.1070</title>
			<desc>nRF SoC</desc>
			<path d="M66.19 448.16 L0 448.16 L0 471.26 L66.19 471.26 L66.19 448.16" class="st2"/>
			<text x="3.63" y="465.11" class="st3">nRF SoC</text>		</g>
		<g id="shape1072-7" transform="translate(7.08662,-123.968)">
			<title>Sheet.1072</title>
			<path d="M0 297.01 L0 471.26 L255.12 471.26 L255.12 297.01 L0 297.01 L0 297.01 Z" class="st4"/>
		</g>
		<g id="shape1073-9" transform="translate(22.3773,-271.29)">
			<title>Sheet.1073</title>
			<desc>Thread stack (OpenThread)</desc>
			<path d="M230.79 451.46 L0 451.46 L0 471.26 L230.79 471.26 L230.79 451.46" class="st2"/>
			<text x="37.85" y="465.56" class="st5">Thread stack (OpenThread)</text>		</g>
		<g id="shape1074-13" transform="translate(91.1339,-40.5146)">
			<title>Sheet.1074</title>
			<path d="M171.21 423.07 L0 423.07 L0 471.26 L171.21 471.26 L171.21 423.07 Z" class="st4"/>
		</g>
		<g id="shape1075-15" transform="translate(91.1339,-68.9214)">
			<title>Sheet.1075</title>
			<desc>nRF IEEE 802.15.4 radio driver</desc>
			<path d="M171.21 458.06 L0 458.06 L0 471.26 L171.21 471.26 L171.21 458.06" class="st2"/>
			<text x="12.37" y="468.26" class="st6">nRF IEEE 802.15.4 radio driver</text>		</g>
		<g id="shape1076-19" transform="translate(97.7921,-45.9737)">
			<title>Sheet.1076</title>
			<desc>IEEE 802.15.4 PHY</desc>
			<path d="M156.18 452.62 L0 452.62 L0 471.26 L156.18 471.26 L156.18 452.62 Z" class="st7"/>
			<text x="41.38" y="464.94" class="st8">IEEE 802.15.4 PHY</text>		</g>
		<g id="group1077-22" transform="translate(6.91024,-5.66929)">
			<title>Sheet.1077</title>
			<desc>Secure boot</desc>
			<g id="shape1078-23">
				<title>Sheet.1078</title>
				<rect x="0" y="442.26" width="153.525" height="28.9978" class="st4"/>
			</g>
			<g id="shape1077-25">
				<text x="6.79" y="459.76" class="st8">Multiprotocol Service Layer (MPSL)</text>			</g>
		</g>
		<g id="shape1079-27" transform="translate(7.08662,-304.504)">
			<title>Sheet.1079</title>
			<desc>Zephyr integration</desc>
			<path d="M0 448.58 L0 471.26 L255.12 471.26 L255.12 448.58 L0 448.58 L0 448.58 Z" class="st9"/>
			<text x="82.28" y="463.52" class="st6">Zephyr integration</text>		</g>
		<g id="shape1080-30" transform="translate(91.1338,-94.9973)">
			<title>Sheet.1080</title>
			<desc>Zephyr integration</desc>
			<rect x="0" y="448.58" width="171.071" height="22.6772" class="st9"/>
			<text x="40.25" y="463.52" class="st6">Zephyr integration</text>		</g>
		<g id="group1081-33" transform="translate(40.4577,-129.558)">
			<title>Sheet.1081</title>
			<g id="shape1082-34">
				<title>Sheet.1082</title>
				<desc>IEEE 802.15.4 MAC</desc>
				<path d="M192.33 448.16 L0 448.16 L0 471.26 L192.33 471.26 L192.33 448.16 Z" class="st7"/>
				<text x="50.08" y="463.31" class="st6">IEEE 802.15.4 MAC</text>			</g>
			<g id="shape1083-37" transform="translate(7.99361E-14,-51.0236)">
				<title>Sheet.1083</title>
				<desc>UDP</desc>
				<path d="M192.33 448.16 L0 448.16 L0 471.26 L192.33 471.26 L192.33 448.16 Z" class="st7"/>
				<text x="85.52" y="463.31" class="st6">UDP</text>			</g>
			<g id="shape1084-40" transform="translate(7.99361E-14,-25.5118)">
				<title>Sheet.1084</title>
				<desc>6LoWPAN / IPv6</desc>
				<path d="M192.33 448.16 L0 448.16 L0 471.26 L192.33 471.26 L192.33 448.16 Z" class="st7"/>
				<text x="56.26" y="463.31" class="st6">6LoWPAN / IPv6</text>			</g>
			<g id="shape1085-43" transform="translate(1.59872E-14,-76.02)">
				<title>Sheet.1085</title>
				<desc>CoAP</desc>
				<path d="M96.71 442.66 L0 442.66 L0 471.26 L96.71 471.26 L96.71 442.66 Z" class="st7"/>
				<text x="35.42" y="460.56" class="st6">CoAP</text>			</g>
			<g id="shape1086-46" transform="translate(1.59872E-14,-106.817)">
				<title>Sheet.1086</title>
				<desc>MeshCoP</desc>
				<path d="M96.71 442.66 L0 442.66 L0 471.26 L96.71 471.26 L96.71 442.66 Z" class="st7"/>
				<text x="25.28" y="460.56" class="st6">MeshCoP</text>			</g>
			<g id="shape1087-49" transform="translate(98.913,-76.02)">
				<title>Sheet.1087</title>
				<desc>MLE</desc>
				<path d="M0 471.26 L0 411.86 L47.26 411.86 L47.26 471.26 L0 471.26 Z" class="st7"/>
				<text x="13.05" y="445.16" class="st6">MLE</text>			</g>
			<g id="shape1088-52" transform="translate(148.471,-76.02)">
				<title>Sheet.1088</title>
				<desc>DHCPv6</desc>
				<path d="M0 471.26 L0 411.86 L43.86 411.86 L43.86 471.26 L0 471.26 Z" class="st7"/>
				<text x="2.45" y="445.16" class="st6">DHCPv6</text>			</g>
		</g>
		<g id="shape1089-55" transform="translate(7.08662,-332.942)">
			<title>Nordic Grass</title>
			<desc>Spinel</desc>
			<rect x="0" y="434.66" width="255.118" height="36.5971" class="st10"/>
			<text x="110.29" y="457.16" class="st11">Spinel</text>		</g>
		<g id="shape1091-58" transform="translate(363.088,-296.015)">
			<title>Nordic Sky</title>
			<rect x="0" y="297.015" width="161.433" height="174.242" class="st12"/>
		</g>
		<g id="group1095-60" transform="translate(372.868,-334.093)">
			<title>Sheet.1095</title>
			<g id="shape1092-61">
				<title>Nordic Grass.1092</title>
				<desc>Spinel</desc>
				<rect x="0" y="434.66" width="136.346" height="36.5971" class="st10"/>
				<text x="53.37" y="456.56" class="st13">Spinel</text>			</g>
			<g id="shape1093-64" transform="translate(1.1191E-13,-42.0387)">
				<title>Nordic Grass.1093</title>
				<desc>Third-party IPv6 stack</desc>
				<rect x="0" y="434.66" width="136.346" height="36.5971" class="st4"/>
				<text x="15.22" y="456.56" class="st6">Third-party IPv6 stack</text>			</g>
			<g id="shape1094-67" transform="translate(4.79616E-14,-84.0774)">
				<title>Nordic Grass.1094</title>
				<desc>Application</desc>
				<rect x="0" y="434.66" width="136.346" height="36.5971" class="st14"/>
				<text x="40.53" y="456.56" class="st6">Application</text>			</g>
		</g>
		<g id="shape1096-70" transform="translate(262.205,-344.73)">
			<title>Dynamic connector</title>
			<path d="M10.2 464.17 L10.56 464.17 L100.1 464.17" class="st15"/>
		</g>
		<g id="shape1097-79" transform="translate(269.291,-349.737)">
			<title>Sheet.1097</title>
			<desc>UART/SPI/USB</desc>
			<rect x="0" y="451.455" width="93.7969" height="19.8018" class="st17"/>
			<text x="11.52" y="464.96" class="st18">UART/SPI/USB</text>		</g>
		<g id="shape1099-82" transform="translate(363.088,-303.585)">
			<title>Sheet.1099</title>
			<desc>Host processor</desc>
			<path d="M161.43 448.16 L0 448.16 L0 471.26 L161.43 471.26 L161.43 448.16" class="st2"/>
			<text x="25.97" y="465.11" class="st3">Host processor</text>		</g>
	</g>
</svg>
