<?xml version="1.0" encoding="UTF-8" standalone="no"?>
<!DOCTYPE svg PUBLIC "-//W3C//DTD SVG 1.1//EN" "http://www.w3.org/Graphics/SVG/1.1/DTD/svg11.dtd">
<!-- Generated by Microsoft Visio, SVG Export thread_platform_design_rcp.svg Page-1 -->
<svg xmlns="http://www.w3.org/2000/svg" xmlns:xlink="http://www.w3.org/1999/xlink" xmlns:ev="http://www.w3.org/2001/xml-events"
		width="7.308in" height="6.84845in" viewBox="0 0 526.176 493.088" xml:space="preserve" color-interpolation-filters="sRGB"
		class="st18">
	<style type="text/css">
	<![CDATA[
		.st1 {fill:#6ad1e3;stroke:#feffff;stroke-width:1}
		.st2 {stroke:none;stroke-linecap:round;stroke-linejoin:round;stroke-width:0.75}
		.st3 {fill:#333f48;font-family:Calibri;font-size:1.5em}
		.st4 {fill:#00a9ce;stroke:none;stroke-width:1}
		.st5 {fill:#ffffff;font-family:Calibri;font-size:0.833336em}
		.st6 {font-size:1em}
		.st7 {fill:#768692;stroke:none;stroke-width:1}
		.st8 {fill:#ffffff;font-family:Calibri;font-size:1.00001em}
		.st9 {fill:#d0df00;stroke:none;stroke-width:1}
		.st10 {fill:#000000;font-family:Calibri;font-size:1.16666em}
		.st11 {fill:#0033a0;stroke:none;stroke-width:1}
		.st12 {fill:#ffffff;font-family:Calibri;font-size:1.16666em}
		.st13 {fill:#0077c8;stroke:none;stroke-width:1}
		.st14 {marker-end:url(#mrkr13-76);marker-start:url(#mrkr13-74);stroke:#333f48;stroke-linecap:butt;stroke-width:1}
		.st15 {fill:#333f48;fill-opacity:1;stroke:#333f48;stroke-opacity:1;stroke-width:0.28409090909091}
		.st16 {fill:none;stroke:none;stroke-width:1}
		.st17 {fill:#333f48;font-family:Calibri;font-size:1.00001em}
		.st18 {fill:none;fill-rule:evenodd;font-size:12px;overflow:visible;stroke-linecap:square;stroke-miterlimit:3}
	]]>
	</style>

	<defs id="Markers">
		<g id="lend13">
			<path d="M 3 1 L 0 0 L 3 -1 L 3 1 " style="stroke:none"/>
		</g>
		<marker id="mrkr13-74" class="st15" refX="10.2" orient="auto" markerUnits="strokeWidth" overflow="visible">
			<use xlink:href="#lend13" transform="scale(3.52) "/>
		</marker>
		<marker id="mrkr13-76" class="st15" refX="-10.56" orient="auto" markerUnits="strokeWidth" overflow="visible">
			<use xlink:href="#lend13" transform="scale(-3.52,-3.52) "/>
		</marker>
	</defs>
	<g>
		<title>Page-1</title>
		<g id="shape1069-1" transform="translate(1,-1)">
			<title>Sheet.1069</title>
			<path d="M208.7 262.49 L0 262.49 L0 493.09 L208.7 493.09 L208.7 262.49 Z" class="st1"/>
		</g>
		<g id="shape1070-3" transform="translate(143.054,-13.0115)">
			<title>Sheet.1070</title>
			<desc>nRF SoC</desc>
			<path d="M61.15 469.99 L0 469.99 L0 493.09 L61.15 493.09 L61.15 469.99" class="st2"/>
			<text x="1.11" y="486.94" class="st3">nRF SoC</text>		</g>
		<g id="group1077-7" transform="translate(6.35534,-10.0614)">
			<title>Sheet.1077</title>
			<desc>Secure boot</desc>
			<g id="shape1078-8">
				<title>Sheet.1078</title>
				<rect x="0" y="464.09" width="121.832" height="28.9978" class="st4"/>
			</g>
			<g id="shape1077-10">
				<text x="6.09" y="475.59" class="st5">Multiprotocol Service Layer <tspan x="47.68" dy="1.2em" class="st6">(MPSL)</tspan></text>			</g>
		</g>
		<g id="shape1079-13" transform="translate(5.50346,-161.25)">
			<title>Sheet.1079</title>
			<desc>Zephyr integration</desc>
			<path d="M0 470.41 L0 493.09 L197.71 493.09 L197.71 470.41 L0 470.41 L0 470.41 Z" class="st7"/>
			<text x="53.57" y="485.35" class="st8">Zephyr integration</text>		</g>
		<g id="shape1080-16" transform="translate(5.98454,-104.675)">
			<title>Sheet.1080</title>
			<desc>Zephyr integration</desc>
			<rect x="0" y="470.411" width="196.751" height="22.6772" class="st7"/>
			<text x="53.09" y="485.35" class="st8">Zephyr integration</text>		</g>
		<g id="shape1089-19" transform="translate(5.50346,-189.538)">
			<title>Nordic Grass</title>
			<desc>Spinel</desc>
			<rect x="0" y="456.491" width="197.713" height="36.5971" class="st9"/>
			<text x="81.59" y="478.99" class="st10">Spinel</text>		</g>
		<g id="shape1142-22" transform="translate(5.50346,-132.963)">
			<title>Sheet.1142</title>
			<desc>OpenThread Controller</desc>
			<path d="M0 470.41 L0 493.09 L197.71 493.09 L197.71 470.41 L0 470.41 L0 470.41 Z" class="st4"/>
			<text x="42.44" y="485.35" class="st8">OpenThread Controller</text>		</g>
		<g id="shape1145-25" transform="translate(296.356,-162.619)">
			<title>Sheet.1145</title>
			<path d="M228.82 163.62 L0 163.62 L0 493.09 L228.82 493.09 L228.82 163.62 Z" class="st1"/>
		</g>
		<g id="shape1146-27" transform="translate(296.356,-167.551)">
			<title>Sheet.1146</title>
			<desc>Host processor</desc>
			<path d="M228.82 469.99 L0 469.99 L0 493.09 L228.82 493.09 L228.82 469.99" class="st2"/>
			<text x="59.67" y="486.94" class="st3">Host processor</text>		</g>
		<g id="shape1147-31" transform="translate(302.378,-450.561)">
			<title>Sheet.1147</title>
			<desc>Application</desc>
			<path d="M0 457.02 L0 493.09 L216.78 493.09 L216.78 457.02 L0 457.02 L0 457.02 Z" class="st11"/>
			<text x="76.14" y="479.26" class="st12">Application</text>		</g>
		<g id="shape1148-34" transform="translate(302.378,-241.024)">
			<title>Sheet.1148</title>
			<path d="M0 320.01 L0 493.09 L216.78 493.09 L216.78 320.01 L0 320.01 L0 320.01 Z" class="st4"/>
		</g>
		<g id="shape1149-36" transform="translate(315.37,-391.539)">
			<title>Sheet.1149</title>
			<desc>Thread stack (OpenThread)</desc>
			<path d="M196.1 473.29 L0 473.29 L0 493.09 L196.1 493.09 L196.1 473.29" class="st2"/>
			<text x="31.58" y="486.79" class="st8">Thread stack (OpenThread)</text>		</g>
		<g id="shape1155-40" transform="translate(302.378,-420.995)">
			<title>Sheet.1155</title>
			<desc>Zephyr integration</desc>
			<path d="M0 470.41 L0 493.09 L216.78 493.09 L216.78 470.41 L0 470.41 L0 470.41 Z" class="st7"/>
			<text x="63.11" y="485.35" class="st8">Zephyr integration</text>		</g>
		<g id="group1157-43" transform="translate(312.714,-252.46)">
			<title>Sheet.1157</title>
			<g id="shape1158-44">
				<title>Sheet.1158</title>
				<desc>IEEE 802.15.4 MAC</desc>
				<path d="M196.1 469.99 L0 469.99 L0 493.09 L196.1 493.09 L196.1 469.99 Z" class="st13"/>
				<text x="51.96" y="485.14" class="st8">IEEE 802.15.4 MAC</text>			</g>
			<g id="shape1159-47" transform="translate(0,-51.0236)">
				<title>Sheet.1159</title>
				<desc>UDP</desc>
				<path d="M196.1 469.99 L0 469.99 L0 493.09 L196.1 493.09 L196.1 469.99 Z" class="st13"/>
				<text x="87.41" y="485.14" class="st8">UDP</text>			</g>
			<g id="shape1160-50" transform="translate(0,-25.5118)">
				<title>Sheet.1160</title>
				<desc>6LoWPAN / IPv6</desc>
				<path d="M196.1 469.99 L0 469.99 L0 493.09 L196.1 493.09 L196.1 469.99 Z" class="st13"/>
				<text x="58.15" y="485.14" class="st8">6LoWPAN / IPv6</text>			</g>
			<g id="shape1161-53" transform="translate(-4.79616E-14,-76.02)">
				<title>Sheet.1161</title>
				<desc>CoAP</desc>
				<path d="M90.82 464.49 L0 464.49 L0 493.09 L90.82 493.09 L90.82 464.49 Z" class="st13"/>
				<text x="32.48" y="482.39" class="st8">CoAP</text>			</g>
			<g id="shape1162-56" transform="translate(-4.79616E-14,-106.817)">
				<title>Sheet.1162</title>
				<desc>MeshCoP</desc>
				<path d="M90.82 464.49 L0 464.49 L0 493.09 L90.82 493.09 L90.82 464.49 Z" class="st13"/>
				<text x="22.33" y="482.39" class="st8">MeshCoP</text>			</g>
			<g id="shape1163-59" transform="translate(93.5805,-76.02)">
				<title>Sheet.1163</title>
				<desc>MLE</desc>
				<path d="M0 493.09 L0 433.69 L50.5 433.69 L50.5 493.09 L0 493.09 Z" class="st13"/>
				<text x="14.67" y="466.99" class="st8">MLE</text>			</g>
			<g id="shape1164-62" transform="translate(146.674,-76.02)">
				<title>Sheet.1164</title>
				<desc>DHCPv6</desc>
				<path d="M0 493.09 L0 433.69 L49.43 433.69 L49.43 493.09 L0 493.09 Z" class="st13"/>
				<text x="5.24" y="466.99" class="st8">DHCPv6</text>			</g>
		</g>
		<g id="shape1165-65" transform="translate(302.905,-197.538)">
			<title>Nordic Grass.1092</title>
			<desc>Spinel</desc>
			<rect x="0" y="456.491" width="215.722" height="36.5971" class="st9"/>
			<text x="90.59" y="478.99" class="st10">Spinel</text>		</g>
		<g id="shape1096-68" transform="translate(203.216,-204.75)">
			<title>Dynamic connector</title>
			<path d="M10.2 486 L10.56 486 L89.13 486" class="st14"/>
		</g>
		<g id="shape1097-77" transform="translate(209.697,-213.807)">
			<title>Sheet.1097</title>
			<desc>UART/SPI/USB</desc>
			<rect x="0" y="473.286" width="86.659" height="19.8018" class="st16"/>
			<text x="7.95" y="486.79" class="st17">UART/SPI/USB</text>		</g>
		<g id="group1166-80" transform="translate(5.50346,-50.8756)">
			<title>Sheet.1166</title>
			<g id="shape1074-81">
				<title>Sheet.1074</title>
				<path d="M197.71 444.9 L0 444.9 L0 493.09 L197.71 493.09 L197.71 444.9 Z" class="st4"/>
			</g>
			<g id="shape1075-83" transform="translate(0,-27.9124)">
				<title>Sheet.1075</title>
				<desc>nRF IEEE 802.15.4 radio driver</desc>
				<path d="M197.71 479.89 L0 479.89 L0 493.09 L197.71 493.09 L197.71 479.89" class="st2"/>
				<text x="25.62" y="490.09" class="st8">nRF IEEE 802.15.4 radio driver</text>			</g>
			<g id="shape1076-87" transform="translate(8.67739,-4.96479)">
				<title>Sheet.1076</title>
				<desc>IEEE 802.15.4 PHY</desc>
				<path d="M180.36 474.45 L0 474.45 L0 493.09 L180.36 493.09 L180.36 474.45 Z" class="st13"/>
				<text x="53.47" y="486.77" class="st5">IEEE 802.15.4 PHY</text>			</g>
		</g>
	</g>
</svg>
