<?xml version="1.0" encoding="UTF-8" standalone="no"?>
<!DOCTYPE svg PUBLIC "-//W3C//DTD SVG 1.1//EN" "http://www.w3.org/Graphics/SVG/1.1/DTD/svg11.dtd">
<!-- Generated by Microsoft Visio, SVG Export thread_platform_design_nRF53_multi.svg thread_platform_design_nRF53_mu -->
<svg xmlns="http://www.w3.org/2000/svg" xmlns:xlink="http://www.w3.org/1999/xlink" xmlns:ev="http://www.w3.org/2001/xml-events"
		xmlns:v="http://schemas.microsoft.com/visio/2003/SVGExtensions/" width="6.86439in" height="7.375in"
		viewBox="0 0 494.236 531" xml:space="preserve" color-interpolation-filters="sRGB" class="st17">
	<v:documentProperties v:langID="1033" v:viewMarkup="false"/>

	<style type="text/css">
	<![CDATA[
		.st1 {fill:#6ad1e3;stroke:none;stroke-width:1}
		.st2 {fill:none;stroke:none;stroke-linecap:round;stroke-linejoin:round;stroke-width:0.75}
		.st3 {fill:none;stroke:none;stroke-linecap:butt;stroke-width:0.75}
		.st4 {fill:#333f48;font-family:Arial;font-size:1.5em}
		.st5 {fill:#0033a0;stroke:none;stroke-width:1}
		.st6 {fill:#ffffff;font-family:Arial;font-size:1.16666em}
		.st7 {fill:#00a9ce;stroke:none;stroke-width:1}
		.st8 {fill:#0077c8;stroke:none;stroke-width:1}
		.st9 {fill:#ffffff;font-family:Arial;font-size:1.00001em}
		.st10 {fill:#0033a0;fill-opacity:0.55;stroke:none;stroke-linecap:round;stroke-linejoin:round;stroke-width:0.75}
		.st11 {fill:none;stroke:none;stroke-width:1}
		.st12 {stroke:#333f48;stroke-linecap:butt;stroke-width:1}
		.st13 {fill:#333f48;stroke:none;stroke-width:1}
		.st14 {fill:#333f48;font-family:Arial;font-size:1.00001em}
		.st15 {font-size:0.83333em}
		.st16 {fill:#ffffff;font-family:Arial;font-size:0.833336em}
		.st17 {fill:none;fill-rule:evenodd;font-size:12px;overflow:visible;stroke-linecap:square;stroke-miterlimit:3}
	]]>
	</style>

	<g v:mID="0" v:index="1" v:groupContext="foregroundPage">
		<title>thread_platform_design_nRF53_mu</title>
		<v:pageProperties v:drawingScale="1" v:pageScale="1" v:drawingUnits="19" v:shadowOffsetX="9" v:shadowOffsetY="-9"/>
		<g id="group1-1" transform="translate(1.00013,-0.999)" v:mID="1" v:groupContext="group">
			<title>Page-1</title>
			<g id="group2-2" v:mID="2" v:groupContext="group">
				<title>Sheet.2</title>
				<g id="shape3-3" v:mID="3" v:groupContext="shape">
					<title>Sheet.3</title>
					<path d="M492.24 396.64 L0 396.64 L0 531 L492.24 531 L492.24 396.64 Z" class="st1"/>
				</g>
			</g>
			<g id="group4-5" transform="translate(4.47642E-13,-177.617)" v:mID="4" v:groupContext="group">
				<title>Sheet.4</title>
				<g id="shape5-6" v:mID="5" v:groupContext="shape">
					<title>Sheet.5</title>
					<path d="M492.24 183.12 L0 183.12 L0 531 L492.24 531 L492.24 183.12 Z" class="st1"/>
				</g>
			</g>
			<g id="group6-8" transform="translate(-3.16547E-12,-177.99)" v:mID="6" v:groupContext="group">
				<v:userDefs/>
				<title>Sheet.6</title>
				<desc>nRF53 application core</desc>
				<g id="shape7-9" v:mID="7" v:groupContext="shape">
					<title>Sheet.7</title>
					<rect x="0" y="499.53" width="492.24" height="31.47" class="st2"/>
				</g>
				<g id="shape8-11" v:mID="8" v:groupContext="shape" transform="translate(153.56,-4.94)">
					<title>Sheet.8</title>
					<desc>nRF53 application core</desc>
					<v:textBlock v:margins="rect(0,0,0,0)"/>
					<v:textRect cx="198" cy="520.2" width="396" height="21.6"/>
					<rect x="0" y="509.4" width="396" height="21.6" class="st3"/>
					<text x="-0" y="525.6" class="st4" v:langID="1033"><v:paragraph/><v:tabList/>nRF53 application core</text>				</g>
			</g>
			<g id="group9-14" transform="translate(9.3204,-466.061)" v:mID="9" v:groupContext="group">
				<v:userDefs/>
				<title>Sheet.9</title>
				<desc>Application</desc>
				<g id="shape10-15" v:mID="10" v:groupContext="shape">
					<title>Sheet.10</title>
					<path d="M0 476.06 L0 531 L469.84 531 L469.84 476.06 L0 476.06 Z" class="st5"/>
				</g>
				<g id="shape11-17" v:mID="11" v:groupContext="shape" transform="translate(200.68,-19.07)">
					<title>Sheet.11</title>
					<desc>Application</desc>
					<v:textBlock v:margins="rect(0,0,0,0)"/>
					<v:textRect cx="76.9995" cy="522.6" width="154" height="16.7999"/>
					<rect x="0" y="514.2" width="153.999" height="16.7999" class="st3"/>
					<text x="0" y="526.8" class="st6" v:langID="1033"><v:paragraph/><v:tabList/>Application</text>				</g>
			</g>
			<g id="group12-20" transform="translate(9.3204,-213.601)" v:mID="12" v:groupContext="group">
				<title>Sheet.12</title>
				<g id="shape13-21" v:mID="13" v:groupContext="shape">
					<title>Sheet.13</title>
					<path d="M0 286.53 L0 531 L218.35 531 L218.35 286.53 L0 286.53 Z" class="st7"/>
				</g>
			</g>
			<g id="group14-23" transform="translate(9.3121,-435.328)" v:mID="14" v:groupContext="group">
				<v:userDefs/>
				<title>Sheet.14</title>
				<desc>Bluetooth® LE stack</desc>
				<g id="shape15-24" v:mID="15" v:groupContext="shape">
					<title>Sheet.15</title>
					<rect x="0" y="508.52" width="218.35" height="22.48" class="st2"/>
				</g>
				<g id="shape16-26" v:mID="16" v:groupContext="shape" transform="translate(45.65,-2.84002)">
					<title>Sheet.16</title>
					<desc>Bluetooth® LE stack</desc>
					<v:textBlock v:margins="rect(0,0,0,0)"/>
					<v:textRect cx="132.999" cy="522.6" width="266" height="16.7999"/>
					<rect x="0" y="514.2" width="265.998" height="16.7999" class="st3"/>
					<text x="0" y="526.8" class="st6" v:langID="1033"><v:paragraph/><v:tabList/>Bluetooth® LE stack</text>				</g>
			</g>
			<g id="group17-29" transform="translate(235.371,-273.796)" v:mID="17" v:groupContext="group">
				<title>Sheet.17</title>
				<g id="shape18-30" v:mID="18" v:groupContext="shape">
					<title>Sheet.18</title>
					<path d="M0 346.68 L0 531 L243.78 531 L243.78 346.68 L0 346.68 Z" class="st7"/>
				</g>
			</g>
			<g id="group19-32" transform="translate(223.278,-435.328)" v:mID="19" v:groupContext="group">
				<v:userDefs/>
				<title>Sheet.19</title>
				<desc>Thread stack (OpenThread)</desc>
				<g id="shape20-33" v:mID="20" v:groupContext="shape">
					<title>Sheet.20</title>
					<rect x="0" y="508.52" width="262.01" height="22.48" class="st2"/>
				</g>
				<g id="shape21-35" v:mID="21" v:groupContext="shape" transform="translate(44.63,-2.84002)">
					<title>Sheet.21</title>
					<desc>Thread stack (OpenThread)</desc>
					<v:textBlock v:margins="rect(0,0,0,0)"/>
					<v:textRect cx="174.999" cy="522.6" width="350" height="16.7999"/>
					<rect x="0" y="514.2" width="349.998" height="16.7999" class="st3"/>
					<text x="0" y="526.8" class="st6" v:langID="1033"><v:paragraph/><v:tabList/>Thread stack (OpenThread)</text>				</g>
			</g>
			<g id="group29-38" transform="translate(243.805,-282.676)" v:mID="29" v:groupContext="group">
				<title>Sheet.29</title>
				<g id="group30-39" v:mID="30" v:groupContext="group">
					<v:userDefs/>
					<title>Sheet.30</title>
					<desc>IEEE 802.15.4 MAC</desc>
					<g id="shape31-40" v:mID="31" v:groupContext="shape">
						<title>Sheet.31</title>
						<path d="M218.35 504.78 L0 504.78 L0 531 L218.35 531 L218.35 504.78 Z" class="st8"/>
					</g>
					<g id="shape32-42" v:mID="32" v:groupContext="shape" transform="translate(55.48,-5.90996)">
						<title>Sheet.32</title>
						<desc>IEEE 802.15.4 MAC</desc>
						<v:textBlock v:margins="rect(0,0,0,0)"/>
						<v:textRect cx="102.001" cy="523.8" width="204.01" height="14.4001"/>
						<rect x="0" y="516.6" width="204.002" height="14.4001" class="st3"/>
						<text x="0" y="527.4" class="st9" v:langID="1033"><v:paragraph/><v:tabList/>IEEE 802.15.4 MAC</text>					</g>
				</g>
				<g id="group33-45" transform="translate(8.63309E-13,-57.252)" v:mID="33" v:groupContext="group">
					<v:userDefs/>
					<title>Sheet.33</title>
					<desc>UDP</desc>
					<g id="shape34-46" v:mID="34" v:groupContext="shape">
						<title>Sheet.34</title>
						<path d="M218.35 504.78 L0 504.78 L0 531 L218.35 531 L218.35 504.78 Z" class="st8"/>
					</g>
					<g id="shape35-48" v:mID="35" v:groupContext="shape" transform="translate(96.51,-5.90996)">
						<title>Sheet.35</title>
						<desc>UDP</desc>
						<v:textBlock v:margins="rect(0,0,0,0)"/>
						<v:textRect cx="18.0002" cy="523.8" width="36.01" height="14.4001"/>
						<rect x="0" y="516.6" width="36.0003" height="14.4001" class="st3"/>
						<text x="0" y="527.4" class="st9" v:langID="1033"><v:paragraph/><v:tabList/>UDP</text>					</g>
				</g>
				<g id="group36-51" transform="translate(3.67706E-13,-28.2893)" v:mID="36" v:groupContext="group">
					<v:userDefs/>
					<title>Sheet.36</title>
					<desc>6LoWPAN / IPv6</desc>
					<g id="shape37-52" v:mID="37" v:groupContext="shape">
						<title>Sheet.37</title>
						<path d="M218.35 504.78 L0 504.78 L0 531 L218.35 531 L218.35 504.78 Z" class="st8"/>
					</g>
					<g id="shape38-54" v:mID="38" v:groupContext="shape" transform="translate(64.15,-5.90996)">
						<title>Sheet.38</title>
						<desc>6LoWPAN / IPv6</desc>
						<v:textBlock v:margins="rect(0,0,0,0)"/>
						<v:textRect cx="84.0008" cy="523.8" width="168.01" height="14.4001"/>
						<rect x="0" y="516.6" width="168.002" height="14.4001" class="st3"/>
						<text x="0" y="527.4" class="st9" v:langID="1033"><v:paragraph/><v:tabList/>6LoWPAN / IPv6</text>					</g>
				</g>
				<g id="group39-57" transform="translate(-7.67386E-13,-85.6295)" v:mID="39" v:groupContext="group">
					<v:userDefs/>
					<title>Sheet.39</title>
					<desc>CoAP</desc>
					<g id="shape40-58" v:mID="40" v:groupContext="shape">
						<title>Sheet.40</title>
						<path d="M109.8 498.53 L0 498.53 L0 531 L109.8 531 L109.8 498.53 Z" class="st8"/>
					</g>
					<g id="shape41-60" v:mID="41" v:groupContext="shape" transform="translate(39.22,-9.02996)">
						<title>Sheet.41</title>
						<desc>CoAP</desc>
						<v:textBlock v:margins="rect(0,0,0,0)"/>
						<v:textRect cx="24.0002" cy="523.8" width="48.01" height="14.4001"/>
						<rect x="0" y="516.6" width="48.0005" height="14.4001" class="st3"/>
						<text x="0" y="527.4" class="st9" v:langID="1033"><v:paragraph/><v:tabList/>CoAP</text>					</g>
				</g>
				<g id="group42-63" transform="translate(-7.67386E-13,-120.592)" v:mID="42" v:groupContext="group">
					<v:userDefs/>
					<title>Sheet.42</title>
					<desc>MeshCoP</desc>
					<g id="shape43-64" v:mID="43" v:groupContext="shape">
						<title>Sheet.43</title>
						<path d="M109.8 498.53 L0 498.53 L0 531 L109.8 531 L109.8 498.53 Z" class="st8"/>
					</g>
					<g id="shape44-66" v:mID="44" v:groupContext="shape" transform="translate(28.55,-9.02996)">
						<title>Sheet.44</title>
						<desc>MeshCoP</desc>
						<v:textBlock v:margins="rect(0,0,0,0)"/>
						<v:textRect cx="42.0004" cy="523.8" width="84.01" height="14.4001"/>
						<rect x="0" y="516.6" width="84.0008" height="14.4001" class="st3"/>
						<text x="0" y="527.4" class="st9" v:langID="1033"><v:paragraph/><v:tabList/>MeshCoP</text>					</g>
				</g>
				<g id="group45-69" transform="translate(112.292,-85.6295)" v:mID="45" v:groupContext="group">
					<v:userDefs/>
					<title>Sheet.45</title>
					<desc>MLE</desc>
					<g id="shape46-70" v:mID="46" v:groupContext="shape">
						<title>Sheet.46</title>
						<path d="M0 531 L0 463.57 L53.65 463.57 L53.65 531 L0 531 Z" class="st8"/>
					</g>
					<g id="shape47-72" v:mID="47" v:groupContext="shape" transform="translate(14.49,-26.51)">
						<title>Sheet.47</title>
						<desc>MLE</desc>
						<v:textBlock v:margins="rect(0,0,0,0)"/>
						<v:textRect cx="18.0002" cy="523.8" width="36.01" height="14.4001"/>
						<rect x="0" y="516.6" width="36.0003" height="14.4001" class="st3"/>
						<text x="0" y="527.4" class="st9" v:langID="1033"><v:paragraph/><v:tabList/>MLE</text>					</g>
				</g>
				<g id="group48-75" transform="translate(168.554,-85.6295)" v:mID="48" v:groupContext="group">
					<v:userDefs/>
					<title>Sheet.48</title>
					<desc>DHCPv6</desc>
					<g id="shape49-76" v:mID="49" v:groupContext="shape">
						<title>Sheet.49</title>
						<path d="M0 531 L0 463.57 L49.79 463.57 L49.79 531 L0 531 Z" class="st8"/>
					</g>
					<g id="shape50-78" v:mID="50" v:groupContext="shape" transform="translate(1.56,-26.51)">
						<title>Sheet.50</title>
						<desc>DHCPv6</desc>
						<v:textBlock v:margins="rect(0,0,0,0)"/>
						<v:textRect cx="36.0003" cy="523.8" width="72.01" height="14.4001"/>
						<rect x="0" y="516.6" width="72.0007" height="14.4001" class="st3"/>
						<text x="0" y="527.4" class="st9" v:langID="1033"><v:paragraph/><v:tabList/>DHCPv6</text>					</g>
				</g>
			</g>
			<g id="group51-81" transform="translate(27.5934,-320.233)" v:mID="51" v:groupContext="group">
				<title>Sheet.51</title>
				<g id="group52-82" v:mID="52" v:groupContext="group">
					<title>Sheet.52</title>
					<g id="shape53-83" v:mID="53" v:groupContext="shape">
						<title>Sheet.53</title>
						<rect x="0" y="415.499" width="181.178" height="115.501" class="st8"/>
					</g>
				</g>
				<g id="group54-85" transform="translate(8.8633,-8.01621)" v:mID="54" v:groupContext="group">
					<v:userDefs/>
					<title>Sheet.54</title>
					<desc>L2CAP</desc>
					<g id="shape55-86" v:mID="55" v:groupContext="shape">
						<title>Sheet.55</title>
						<path d="M75.42 505.21 L0 505.21 L0 531 L75.42 531 L75.42 505.21 Z" class="st10"/>
					</g>
					<g id="shape56-88" v:mID="56" v:groupContext="shape" transform="translate(18.7,-5.69996)">
						<title>Sheet.56</title>
						<desc>L2CAP</desc>
						<v:textBlock v:margins="rect(0,0,0,0)"/>
						<v:textRect cx="30.0003" cy="523.8" width="60.01" height="14.4001"/>
						<rect x="0" y="516.6" width="60.0006" height="14.4001" class="st3"/>
						<text x="0" y="527.4" class="st9" v:langID="1033"><v:paragraph/><v:tabList/>L2CAP</text>					</g>
				</g>
				<g id="group57-91" transform="translate(8.8633,-65.9416)" v:mID="57" v:groupContext="group">
					<v:userDefs/>
					<title>Sheet.57</title>
					<desc>GATT</desc>
					<g id="shape58-92" v:mID="58" v:groupContext="shape">
						<title>Sheet.58</title>
						<path d="M75.42 505.25 L0 505.25 L0 531 L75.42 531 L75.42 505.25 Z" class="st10"/>
					</g>
					<g id="shape59-94" v:mID="59" v:groupContext="shape" transform="translate(21.71,-5.66996)">
						<title>Sheet.59</title>
						<desc>GATT</desc>
						<v:textBlock v:margins="rect(0,0,0,0)"/>
						<v:textRect cx="24.0002" cy="523.8" width="48.01" height="14.4001"/>
						<rect x="0" y="516.6" width="48.0005" height="14.4001" class="st3"/>
						<text x="-0" y="527.4" class="st9" v:langID="1033"><v:paragraph/><v:tabList/>GATT</text>					</g>
				</g>
				<g id="group60-97" transform="translate(8.8633,-36.6675)" v:mID="60" v:groupContext="group">
					<v:userDefs/>
					<title>Sheet.60</title>
					<desc>ATT</desc>
					<g id="shape61-98" v:mID="61" v:groupContext="shape">
						<title>Sheet.61</title>
						<path d="M75.42 505.25 L0 505.25 L0 531 L75.42 531 L75.42 505.25 Z" class="st10"/>
					</g>
					<g id="shape62-100" v:mID="62" v:groupContext="shape" transform="translate(26.38,-5.66996)">
						<title>Sheet.62</title>
						<desc>ATT</desc>
						<v:textBlock v:margins="rect(0,0,0,0)"/>
						<v:textRect cx="18.0002" cy="523.8" width="36.01" height="14.4001"/>
						<rect x="0" y="516.6" width="36.0003" height="14.4001" class="st3"/>
						<text x="-0" y="527.4" class="st9" v:langID="1033"><v:paragraph/><v:tabList/>ATT</text>					</g>
				</g>
				<g id="group63-103" transform="translate(87.5425,-65.9416)" v:mID="63" v:groupContext="group">
					<v:userDefs/>
					<title>Sheet.63</title>
					<desc>GAP</desc>
					<g id="shape64-104" v:mID="64" v:groupContext="shape">
						<title>Sheet.64</title>
						<path d="M83.6 505.16 L0 505.16 L0 531 L83.6 531 L83.6 505.16 Z" class="st10"/>
					</g>
					<g id="shape65-106" v:mID="65" v:groupContext="shape" transform="translate(29.13,-5.71996)">
						<title>Sheet.65</title>
						<desc>GAP</desc>
						<v:textBlock v:margins="rect(0,0,0,0)"/>
						<v:textRect cx="18.0002" cy="523.8" width="36.01" height="14.4001"/>
						<rect x="0" y="516.6" width="36.0003" height="14.4001" class="st3"/>
						<text x="0" y="527.4" class="st9" v:langID="1033"><v:paragraph/><v:tabList/>GAP</text>					</g>
				</g>
				<g id="group66-109" transform="translate(87.5425,-8.01621)" v:mID="66" v:groupContext="group">
					<v:userDefs/>
					<title>Sheet.66</title>
					<desc>SM</desc>
					<g id="shape67-110" v:mID="67" v:groupContext="shape">
						<title>Sheet.67</title>
						<path d="M83.6 476.29 L0 476.29 L0 531 L83.6 531 L83.6 476.29 Z" class="st10"/>
					</g>
					<g id="shape68-112" v:mID="68" v:groupContext="shape" transform="translate(32.8,-20.15)">
						<title>Sheet.68</title>
						<desc>SM</desc>
						<v:textBlock v:margins="rect(0,0,0,0)"/>
						<v:textRect cx="12.0001" cy="523.8" width="24.01" height="14.4001"/>
						<rect x="0" y="516.6" width="24.0002" height="14.4001" class="st3"/>
						<text x="0" y="527.4" class="st9" v:langID="1033"><v:paragraph/><v:tabList/>SM</text>					</g>
				</g>
				<g id="group69-115" transform="translate(-3.51719E-13,-91.3536)" v:mID="69" v:groupContext="group">
					<v:userDefs/>
					<title>Sheet.69</title>
					<desc>Zephyr host</desc>
					<g id="shape70-116" v:mID="70" v:groupContext="shape">
						<title>Sheet.70</title>
						<rect x="0" y="511.517" width="181.178" height="19.4833" class="st11"/>
					</g>
					<g id="shape71-118" v:mID="71" v:groupContext="shape" transform="translate(58.91,-5.07926)">
						<title>Sheet.71</title>
						<desc>Zephyr host</desc>
						<v:textBlock v:margins="rect(0,0,0,0)"/>
						<v:textRect cx="66.0006" cy="523.8" width="132.01" height="14.4001"/>
						<rect x="0" y="516.6" width="132.001" height="14.4001" class="st3"/>
						<text x="-0" y="527.4" class="st9" v:langID="1033"><v:paragraph/><v:tabList/>Zephyr host</text>					</g>
				</g>
			</g>
			<g id="group72-121" transform="translate(235.837,-234.971)" v:mID="72" v:groupContext="group">
				<title>Sheet.72</title>
				<g id="group73-122" v:mID="73" v:groupContext="group">
					<title>Sheet.73</title>
					<g id="shape74-123" v:mID="74" v:groupContext="shape">
						<title>Sheet.74</title>
						<path d="M243.78 505.97 L0 505.97 L0 531 L243.78 531 L243.78 505.97 Z" class="st7"/>
					</g>
				</g>
				<g id="group75-125" transform="translate(-8.63309E-13,-7.19366)" v:mID="75" v:groupContext="group">
					<v:userDefs/>
					<title>Sheet.75</title>
					<desc>nRF IEEE 802.15.4 radio driver</desc>
					<g id="shape76-126" v:mID="76" v:groupContext="shape" transform="translate(-1.15108E-12,-1.25004)">
						<title>Sheet.76</title>
						<rect x="0" y="519.1" width="241.05" height="11.9" class="st2"/>
					</g>
					<g id="shape77-128" v:mID="77" v:groupContext="shape" transform="translate(37.15,-1.13687E-13)">
						<title>Sheet.77</title>
						<desc>nRF IEEE 802.15.4 radio driver</desc>
						<v:textBlock v:margins="rect(0,0,0,0)"/>
						<v:textRect cx="180.002" cy="523.8" width="360.01" height="14.4001"/>
						<rect x="0" y="516.6" width="360.003" height="14.4001" class="st3"/>
						<text x="0" y="527.4" class="st9" v:langID="1033"><v:paragraph/><v:tabList/>nRF IEEE 802.15.4 radio driver</text>					</g>
				</g>
			</g>
			<g id="group78-131" transform="translate(4.47642E-13,-1.01237)" v:mID="78" v:groupContext="group">
				<v:userDefs/>
				<title>Sheet.78</title>
				<desc>nRF53 network core</desc>
				<g id="shape79-132" v:mID="79" v:groupContext="shape">
					<title>Sheet.79</title>
					<rect x="0" y="499.53" width="492.24" height="31.47" class="st2"/>
				</g>
				<g id="shape80-134" v:mID="80" v:groupContext="shape" transform="translate(165.08,-4.94)">
					<title>Sheet.80</title>
					<desc>nRF53 network core</desc>
					<v:textBlock v:margins="rect(0,0,0,0)"/>
					<v:textRect cx="162" cy="520.2" width="324" height="21.6"/>
					<rect x="0" y="509.4" width="324" height="21.6" class="st3"/>
					<text x="0" y="525.6" class="st4" v:langID="1033"><v:paragraph/><v:tabList/>nRF53 network core</text>				</g>
			</g>
			<g id="group81-137" transform="translate(11.0718,-33.9979)" v:mID="81" v:groupContext="group">
				<v:userDefs/>
				<title>Sheet.81</title>
				<desc>Multiprotocol Service Layer (MPSL)</desc>
				<g id="shape82-138" v:mID="82" v:groupContext="shape">
					<title>Sheet.82</title>
					<path d="M468.08 500.43 L0 500.43 L0 531 L468.08 531 L468.08 500.43 Z" class="st7"/>
				</g>
				<g id="shape83-140" v:mID="83" v:groupContext="shape" transform="translate(139.67,-8.08996)">
					<title>Sheet.83</title>
					<desc>Multiprotocol Service Layer (MPSL)</desc>
					<v:textBlock v:margins="rect(0,0,0,0)"/>
					<v:textRect cx="204.002" cy="523.8" width="408.01" height="14.4001"/>
					<rect x="0" y="516.6" width="408.004" height="14.4001" class="st3"/>
					<text x="0" y="527.4" class="st9" v:langID="1033"><v:paragraph/><v:tabList/>Multiprotocol Service Layer (MPSL)</text>				</g>
			</g>
			<g id="group84-143" transform="translate(367.505,-130.391)" v:mID="84" v:groupContext="group">
				<title>Dynamic connector.1022</title>
				<g id="group85-144" v:mID="85" v:groupContext="group">
					<title>Sheet.85</title>
					<g id="shape86-145" v:mID="86" v:groupContext="shape">
						<title>Sheet.86</title>
						<path d="M0 457.99 L0 458.35 L0 531" class="st12"/>
						<path d="M-3.52 458.35 L-0 447.79 L3.52 458.35 L-3.52 458.35 Z" class="st13"/>
					</g>
					<g id="group87-149" transform="translate(527.48,531) rotate(90)" v:mID="87" v:groupContext="group">
						<title>mrkr13-98</title>
						<g id="shape88-150" v:mID="88" v:groupContext="shape" transform="translate(10.56,1054.96) rotate(180)">
							<title>Sheet.88</title>
							<path d="M10.56 531 L0 527.48 L10.56 523.96 L10.56 531 Z" class="st13"/>
						</g>
					</g>
				</g>
			</g>
			<g id="group89-152" transform="translate(265.986,-144.161)" v:mID="89" v:groupContext="group">
				<v:userDefs/>
				<title>Sheet.89</title>
				<desc>OpenAMP (Spinel)</desc>
				<g id="shape90-153" v:mID="90" v:groupContext="shape">
					<title>Sheet.90</title>
					<rect x="0" y="506.055" width="101.516" height="24.9449" class="st11"/>
				</g>
				<g id="shape91-155" v:mID="91" v:groupContext="shape" transform="translate(23.08,-12.4689)">
					<title>Sheet.91</title>
					<desc>OpenAMP (Spinel)</desc>
					<v:textBlock v:margins="rect(0,0,0,0)"/>
					<v:textRect cx="96.0009" cy="523.8" width="192.01" height="14.4001"/>
					<rect x="0" y="516.6" width="192.002" height="14.4001" class="st3"/>
					<text x="0" y="527.4" class="st14" v:langID="1033"><v:paragraph/><v:tabList/>OpenAMP (Spinel)</text>				</g>
			</g>
			<g id="group92-158" transform="translate(118.183,-142.461)" v:mID="92" v:groupContext="group">
				<v:userDefs/>
				<title>Sheet.92</title>
				<desc>OpenAMP (HCI)</desc>
				<g id="shape93-159" v:mID="93" v:groupContext="shape">
					<title>Sheet.93</title>
					<rect x="0" y="506.055" width="90.5891" height="24.9449" class="st11"/>
				</g>
				<g id="shape94-161" v:mID="94" v:groupContext="shape" transform="translate(17.61,-12.4689)">
					<title>Sheet.94</title>
					<desc>OpenAMP (HCI)</desc>
					<v:textBlock v:margins="rect(0,0,0,0)"/>
					<v:textRect cx="78.0008" cy="523.8" width="156.01" height="14.4001"/>
					<rect x="0" y="516.6" width="156.002" height="14.4001" class="st3"/>
					<text x="0" y="527.4" class="st14" v:langID="1033"><v:paragraph/><v:tabList/>OpenAMP (HCI)</text>				</g>
			</g>
			<g id="group95-164" transform="translate(118.186,-130.392)" v:mID="95" v:groupContext="group">
				<title>Dynamic connector.1025</title>
				<g id="group96-165" v:mID="96" v:groupContext="group">
					<title>Sheet.96</title>
					<g id="shape97-166" v:mID="97" v:groupContext="shape">
						<title>Sheet.97</title>
						<path d="M0 351.36 L0 351.72 L0 531" class="st12"/>
						<path d="M-3.52 351.72 L-0 341.16 L3.52 351.72 L-3.52 351.72 Z" class="st13"/>
					</g>
					<g id="group98-170" transform="translate(527.48,531) rotate(90)" v:mID="98" v:groupContext="group">
						<title>mrkr13-98</title>
						<g id="shape99-171" v:mID="99" v:groupContext="shape" transform="translate(10.56,1054.96) rotate(180)">
							<title>Sheet.99</title>
							<path d="M10.56 531 L0 527.48 L10.56 523.96 L10.56 531 Z" class="st13"/>
						</g>
					</g>
				</g>
			</g>
			<g id="group100-173" transform="translate(11.0718,-74.0678)" v:mID="100" v:groupContext="group">
				<title>Sheet.100</title>
				<g id="shape101-174" v:mID="101" v:groupContext="shape">
					<title>Sheet.101</title>
					<path d="M224.25 485.23 L0 485.23 L0 531 L224.25 531 L224.25 485.23 Z" class="st7"/>
				</g>
			</g>
			<g id="group102-176" transform="translate(19.009,-80.7182)" v:mID="102" v:groupContext="group">
				<v:userDefs/>
				<title>Sheet.102</title>
				<desc>nRF Bluetooth® LE Controller</desc>
				<g id="shape103-177" v:mID="103" v:groupContext="shape">
					<title>Sheet.103</title>
					<path d="M206.77 498.53 L0 498.53 L0 531 L206.77 531 L206.77 498.53 Z" class="st8"/>
				</g>
				<g id="shape104-179" v:mID="104" v:groupContext="shape" transform="translate(24.66,-9.02996)">
					<title>Sheet.104</title>
					<desc>nRF Bluetooth® LE Controller</desc>
					<v:textBlock v:margins="rect(0,0,0,0)"/>
					<v:textRect cx="167.002" cy="523.8" width="334.01" height="14.4001"/>
					<rect x="0" y="516.6" width="334.003" height="14.4001" class="st3"/>
					<text x="0" y="527.4" class="st9" v:langID="1033"><v:paragraph/><v:tabList/>nRF Bluetooth<tspan class="st15">®</tspan> LE Controller</text>				</g>
			</g>
			<g id="group105-183" transform="translate(255.387,-74.0678)" v:mID="105" v:groupContext="group">
				<title>Sheet.105</title>
				<g id="group106-184" v:mID="106" v:groupContext="group">
					<title>Sheet.106</title>
					<g id="shape107-185" v:mID="107" v:groupContext="shape">
						<title>Sheet.107</title>
						<path d="M224.25 485.23 L0 485.23 L0 531 L224.25 531 L224.25 485.23 Z" class="st7"/>
					</g>
				</g>
				<g id="group108-187" transform="translate(9.59233E-14,-27.9278)" v:mID="108" v:groupContext="group">
					<v:userDefs/>
					<title>Sheet.108</title>
					<desc>nRF IEEE 802.15.4 radio driver</desc>
					<g id="shape109-188" v:mID="109" v:groupContext="shape" transform="translate(-7.83373E-13,-1.25004)">
						<title>Sheet.109</title>
						<rect x="0" y="519.1" width="221.74" height="11.9" class="st2"/>
					</g>
					<g id="shape110-190" v:mID="110" v:groupContext="shape" transform="translate(27.49,0)">
						<title>Sheet.110</title>
						<desc>nRF IEEE 802.15.4 radio driver</desc>
						<v:textBlock v:margins="rect(0,0,0,0)"/>
						<v:textRect cx="180.002" cy="523.8" width="360.01" height="14.4001"/>
						<rect x="0" y="516.6" width="360.003" height="14.4001" class="st3"/>
						<text x="0" y="527.4" class="st9" v:langID="1033"><v:paragraph/><v:tabList/>nRF IEEE 802.15.4 radio driver</text>					</g>
				</g>
				<g id="group111-193" transform="translate(8.79416,-5.1132)" v:mID="111" v:groupContext="group">
					<v:userDefs/>
					<title>Sheet.111</title>
					<desc>IEEE 802.15.4 PHY</desc>
					<g id="shape112-194" v:mID="112" v:groupContext="shape">
						<title>Sheet.112</title>
						<path d="M206.29 510.18 L0 510.18 L0 531 L206.29 531 L206.29 510.18 Z" class="st8"/>
					</g>
					<g id="shape113-196" v:mID="113" v:groupContext="shape" transform="translate(59.23,-4.40999)">
						<title>Sheet.113</title>
						<desc>IEEE 802.15.4 PHY</desc>
						<v:textBlock v:margins="rect(0,0,0,0)"/>
						<v:textRect cx="85.0002" cy="525" width="170.01" height="12"/>
						<rect x="0" y="519" width="170" height="12" class="st3"/>
						<text x="-0" y="528" class="st16" v:langID="1033"><v:paragraph/><v:tabList/>IEEE 802.15.4 PHY</text>					</g>
				</g>
			</g>
		</g>
	</g>
</svg>
