<?xml version="1.0" encoding="UTF-8" standalone="no"?>
<!DOCTYPE svg PUBLIC "-//W3C//DTD SVG 1.1//EN" "http://www.w3.org/Graphics/SVG/1.1/DTD/svg11.dtd">
<!-- Generated by Microsoft Visio, SVG Export thread_platform_design_multi.svg thread_platform_design_multi -->
<svg xmlns="http://www.w3.org/2000/svg" xmlns:xlink="http://www.w3.org/1999/xlink" xmlns:ev="http://www.w3.org/2001/xml-events"
		xmlns:v="http://schemas.microsoft.com/visio/2003/SVGExtensions/" width="6.83661in" height="5.5in" viewBox="0 0 492.236 396"
		xml:space="preserve" color-interpolation-filters="sRGB" class="st16">
	<v:documentProperties v:langID="1033" v:viewMarkup="false"/>

	<style type="text/css">
	<![CDATA[
		.st1 {fill:#6ad1e3;stroke:none;stroke-linecap:round;stroke-linejoin:round;stroke-width:0.75}
		.st2 {fill:none;stroke:none;stroke-linecap:round;stroke-linejoin:round;stroke-width:0.75}
		.st3 {fill:none;stroke:none;stroke-linecap:butt;stroke-width:0.75}
		.st4 {fill:#333f48;font-family:Arial;font-size:1.5em}
		.st5 {fill:#0033a0;stroke:none;stroke-width:1}
		.st6 {fill:#ffffff;font-family:Arial;font-size:1.16666em}
		.st7 {fill:#00a9ce;stroke:none;stroke-width:1}
		.st8 {fill:#ffffff;font-family:Arial;font-size:1.00001em}
		.st9 {fill:#0077c8;stroke:none;stroke-width:1}
		.st10 {font-size:0.83333em}
		.st11 {stroke:#feffff;stroke-linecap:butt;stroke-width:1}
		.st12 {fill:#feffff;stroke:none;stroke-width:1}
		.st13 {fill:#0033a0;fill-opacity:0.55;stroke:none;stroke-linecap:round;stroke-linejoin:round;stroke-width:0.75}
		.st14 {fill:none;stroke:none;stroke-width:1}
		.st15 {fill:#ffffff;font-family:Arial;font-size:0.833336em}
		.st16 {fill:none;fill-rule:evenodd;font-size:12px;overflow:visible;stroke-linecap:square;stroke-miterlimit:3}
	]]>
	</style>

	<g v:mID="0" v:index="1" v:groupContext="foregroundPage">
		<title>thread_platform_design_multi</title>
		<v:pageProperties v:drawingScale="1" v:pageScale="1" v:drawingUnits="19" v:shadowOffsetX="9" v:shadowOffsetY="-9"/>
		<g id="group1-1" transform="translate(0,0.00266564)" v:mID="1" v:groupContext="group">
			<title>Page-1</title>
			<g id="group2-2" v:mID="2" v:groupContext="group">
				<title>Sheet.2</title>
				<g id="shape3-3" v:mID="3" v:groupContext="shape">
					<title>Sheet.3</title>
					<path d="M492.24 -0 L0 -0 L0 396 L492.24 396 L492.24 -0 Z" class="st1"/>
				</g>
			</g>
			<g id="group4-5" transform="translate(374.155,-30.6693)" v:mID="4" v:groupContext="group">
				<v:userDefs/>
				<title>Sheet.4</title>
				<desc>nRF SoC</desc>
				<g id="shape5-6" v:mID="5" v:groupContext="shape">
					<title>Sheet.5</title>
					<rect x="0" y="364.53" width="111.13" height="31.47" class="st2"/>
				</g>
				<g id="shape6-8" v:mID="6" v:groupContext="shape" transform="translate(18.55,-4.94)">
					<title>Sheet.6</title>
					<desc>nRF SoC</desc>
					<v:textBlock v:margins="rect(0,0,0,0)"/>
					<v:textRect cx="63" cy="385.2" width="126" height="21.6"/>
					<rect x="0" y="374.4" width="126" height="21.6" class="st3"/>
					<text x="0" y="390.6" class="st4" v:langID="1033"><v:paragraph/><v:tabList/>nRF SoC</text>				</g>
			</g>
			<g id="group7-11" transform="translate(9.32043,-328.003)" v:mID="7" v:groupContext="group">
				<v:userDefs/>
				<title>Sheet.7</title>
				<desc>Application</desc>
				<g id="shape8-12" v:mID="8" v:groupContext="shape">
					<title>Sheet.8</title>
					<path d="M0 341.06 L0 396 L469.84 396 L469.84 341.06 L0 341.06 Z" class="st5"/>
				</g>
				<g id="shape9-14" v:mID="9" v:groupContext="shape" transform="translate(200.68,-19.07)">
					<title>Sheet.9</title>
					<desc>Application</desc>
					<v:textBlock v:margins="rect(0,0,0,0)"/>
					<v:textRect cx="76.9995" cy="387.6" width="154" height="16.7999"/>
					<rect x="0" y="379.2" width="153.999" height="16.7999" class="st3"/>
					<text x="0" y="391.8" class="st6" v:langID="1033"><v:paragraph/><v:tabList/>Application</text>				</g>
			</g>
			<g id="group10-17" transform="translate(9.32043,-46.9293)" v:mID="10" v:groupContext="group">
				<title>Sheet.10</title>
				<g id="shape11-18" v:mID="11" v:groupContext="shape">
					<title>Sheet.11</title>
					<path d="M0 128.63 L0 396 L218.35 396 L218.35 128.63 L0 128.63 Z" class="st7"/>
				</g>
			</g>
			<g id="group12-20" transform="translate(27.2446,-290.132)" v:mID="12" v:groupContext="group">
				<v:userDefs/>
				<title>Sheet.12</title>
				<desc>Bluetooth® LE stack</desc>
				<g id="shape13-21" v:mID="13" v:groupContext="shape">
					<title>Sheet.13</title>
					<rect x="0" y="373.52" width="181.18" height="22.48" class="st2"/>
				</g>
				<g id="shape14-23" v:mID="14" v:groupContext="shape" transform="translate(27.06,-2.84002)">
					<title>Sheet.14</title>
					<desc>Bluetooth® LE stack</desc>
					<v:textBlock v:margins="rect(0,0,0,0)"/>
					<v:textRect cx="132.999" cy="387.6" width="266" height="16.7999"/>
					<rect x="0" y="379.2" width="265.998" height="16.7999" class="st3"/>
					<text x="0" y="391.8" class="st6" v:langID="1033"><v:paragraph/><v:tabList/>Bluetooth® LE stack</text>				</g>
			</g>
			<g id="group15-26" transform="translate(235.371,-130.024)" v:mID="15" v:groupContext="group">
				<title>Sheet.15</title>
				<g id="shape16-27" v:mID="16" v:groupContext="shape">
					<title>Sheet.16</title>
					<path d="M0 211.68 L0 396 L243.78 396 L243.78 211.68 L0 211.68 Z" class="st7"/>
				</g>
			</g>
			<g id="group17-29" transform="translate(246.983,-290.132)" v:mID="17" v:groupContext="group">
				<v:userDefs/>
				<title>Sheet.17</title>
				<desc>Thread stack (OpenThread)</desc>
				<g id="shape18-30" v:mID="18" v:groupContext="shape">
					<title>Sheet.18</title>
					<rect x="0" y="373.52" width="217.92" height="22.48" class="st2"/>
				</g>
				<g id="shape19-32" v:mID="19" v:groupContext="shape" transform="translate(22.59,-2.84002)">
					<title>Sheet.19</title>
					<desc>Thread stack (OpenThread)</desc>
					<v:textBlock v:margins="rect(0,0,0,0)"/>
					<v:textRect cx="174.999" cy="387.6" width="350" height="16.7999"/>
					<rect x="0" y="379.2" width="349.998" height="16.7999" class="st3"/>
					<text x="0" y="391.8" class="st6" v:langID="1033"><v:paragraph/><v:tabList/>Thread stack (OpenThread)</text>				</g>
			</g>
			<g id="group20-35" transform="translate(174.683,-9.92336)" v:mID="20" v:groupContext="group">
				<v:userDefs/>
				<title>Sheet.20</title>
				<desc>Multiprotocol Service Layer (MPSL)</desc>
				<g id="shape21-36" v:mID="21" v:groupContext="shape">
					<title>Sheet.21</title>
					<rect x="0" y="365.428" width="191.955" height="30.5719" class="st7"/>
				</g>
				<g id="shape22-38" v:mID="22" v:groupContext="shape" transform="translate(1.61,-8.08786)">
					<title>Sheet.22</title>
					<desc>Multiprotocol Service Layer (MPSL)</desc>
					<v:textBlock v:margins="rect(0,0,0,0)"/>
					<v:textRect cx="204.002" cy="388.8" width="408.01" height="14.4001"/>
					<rect x="0" y="381.6" width="408.004" height="14.4001" class="st3"/>
					<text x="0" y="392.4" class="st8" v:langID="1033"><v:paragraph/><v:tabList/>Multiprotocol Service Layer (MPSL)</text>				</g>
			</g>
			<g id="group23-41" transform="translate(27.2446,-76.6729)" v:mID="23" v:groupContext="group">
				<v:userDefs/>
				<title>Sheet.23</title>
				<desc>nRF Bluetooth® LE Controller</desc>
				<g id="shape24-42" v:mID="24" v:groupContext="shape">
					<title>Sheet.24</title>
					<rect x="0" y="363.535" width="181.178" height="32.4651" class="st9"/>
				</g>
				<g id="shape25-44" v:mID="25" v:groupContext="shape" transform="translate(11.87,-9.03706)">
					<title>Sheet.25</title>
					<desc>nRF Bluetooth® LE Controller</desc>
					<v:textBlock v:margins="rect(0,0,0,0)"/>
					<v:textRect cx="167.002" cy="388.8" width="334.01" height="14.4001"/>
					<rect x="0" y="381.6" width="334.003" height="14.4001" class="st3"/>
					<text x="0" y="392.4" class="st8" v:langID="1033"><v:paragraph/><v:tabList/>nRF Bluetooth<tspan class="st10">®</tspan> LE Controller</text>				</g>
			</g>
			<g id="group26-48" transform="translate(119.18,-132.351)" v:mID="26" v:groupContext="group">
				<v:userDefs/>
				<title>Sheet.26</title>
				<desc>HCI (RAM)</desc>
				<g id="shape27-49" v:mID="27" v:groupContext="shape" transform="translate(-3.83693E-13,-0.450036)">
					<title>Sheet.27</title>
					<rect x="0" y="382.51" width="63.5" height="13.49" class="st2"/>
				</g>
				<g id="shape28-51" v:mID="28" v:groupContext="shape" transform="translate(2.42,5.68434E-14)">
					<title>Sheet.28</title>
					<desc>HCI (RAM)</desc>
					<v:textBlock v:margins="rect(0,0,0,0)"/>
					<v:textRect cx="54.0005" cy="388.8" width="108.01" height="14.4001"/>
					<rect x="0" y="381.6" width="108.001" height="14.4001" class="st3"/>
					<text x="-0" y="392.4" class="st8" v:langID="1033"><v:paragraph/><v:tabList/>HCI (RAM)</text>				</g>
			</g>
			<g id="group36-54" transform="translate(118.012,-119.696)" v:mID="36" v:groupContext="group">
				<title>Dynamic connector</title>
				<g id="group37-55" v:mID="37" v:groupContext="group">
					<title>Sheet.37</title>
					<g id="shape38-56" v:mID="38" v:groupContext="shape">
						<title>Sheet.38</title>
						<path d="M0 350.86 L0 351.22 L0 396" class="st11"/>
						<path d="M-3.52 351.22 L0 340.66 L3.52 351.22 L-3.52 351.22 Z" class="st12"/>
					</g>
					<g id="group39-60" transform="translate(392.48,396) rotate(90)" v:mID="39" v:groupContext="group">
						<title>mrkr13-49</title>
						<g id="shape40-61" v:mID="40" v:groupContext="shape" transform="translate(10.56,784.96) rotate(180)">
							<title>Sheet.40</title>
							<path d="M10.56 396 L0 392.48 L10.56 388.96 L10.56 396 Z" class="st12"/>
						</g>
					</g>
				</g>
			</g>
			<g id="group41-63" transform="translate(246.556,-137.48)" v:mID="41" v:groupContext="group">
				<title>Sheet.41</title>
				<g id="group42-64" v:mID="42" v:groupContext="group">
					<v:userDefs/>
					<title>Sheet.42</title>
					<desc>IEEE 802.15.4 MAC</desc>
					<g id="shape43-65" v:mID="43" v:groupContext="shape">
						<title>Sheet.43</title>
						<path d="M218.35 369.78 L0 369.78 L0 396 L218.35 396 L218.35 369.78 Z" class="st9"/>
					</g>
					<g id="shape44-67" v:mID="44" v:groupContext="shape" transform="translate(55.48,-5.90996)">
						<title>Sheet.44</title>
						<desc>IEEE 802.15.4 MAC</desc>
						<v:textBlock v:margins="rect(0,0,0,0)"/>
						<v:textRect cx="102.001" cy="388.8" width="204.01" height="14.4001"/>
						<rect x="0" y="381.6" width="204.002" height="14.4001" class="st3"/>
						<text x="0" y="392.4" class="st8" v:langID="1033"><v:paragraph/><v:tabList/>IEEE 802.15.4 MAC</text>					</g>
				</g>
				<g id="group45-70" transform="translate(7.99361E-14,-57.252)" v:mID="45" v:groupContext="group">
					<v:userDefs/>
					<title>Sheet.45</title>
					<desc>UDP</desc>
					<g id="shape46-71" v:mID="46" v:groupContext="shape">
						<title>Sheet.46</title>
						<path d="M218.35 369.78 L0 369.78 L0 396 L218.35 396 L218.35 369.78 Z" class="st9"/>
					</g>
					<g id="shape47-73" v:mID="47" v:groupContext="shape" transform="translate(96.51,-5.90996)">
						<title>Sheet.47</title>
						<desc>UDP</desc>
						<v:textBlock v:margins="rect(0,0,0,0)"/>
						<v:textRect cx="18.0002" cy="388.8" width="36.01" height="14.4001"/>
						<rect x="0" y="381.6" width="36.0004" height="14.4001" class="st3"/>
						<text x="0" y="392.4" class="st8" v:langID="1033"><v:paragraph/><v:tabList/>UDP</text>					</g>
				</g>
				<g id="group48-76" transform="translate(-4.95604E-13,-28.2893)" v:mID="48" v:groupContext="group">
					<v:userDefs/>
					<title>Sheet.48</title>
					<desc>6LoWPAN / IPv6</desc>
					<g id="shape49-77" v:mID="49" v:groupContext="shape">
						<title>Sheet.49</title>
						<path d="M218.35 369.78 L0 369.78 L0 396 L218.35 396 L218.35 369.78 Z" class="st9"/>
					</g>
					<g id="shape50-79" v:mID="50" v:groupContext="shape" transform="translate(64.15,-5.90996)">
						<title>Sheet.50</title>
						<desc>6LoWPAN / IPv6</desc>
						<v:textBlock v:margins="rect(0,0,0,0)"/>
						<v:textRect cx="84.0008" cy="388.8" width="168.01" height="14.4001"/>
						<rect x="0" y="381.6" width="168.002" height="14.4001" class="st3"/>
						<text x="-0" y="392.4" class="st8" v:langID="1033"><v:paragraph/><v:tabList/>6LoWPAN / IPv6</text>					</g>
				</g>
				<g id="group51-82" transform="translate(-1.1271E-12,-85.6295)" v:mID="51" v:groupContext="group">
					<v:userDefs/>
					<title>Sheet.51</title>
					<desc>CoAP</desc>
					<g id="shape52-83" v:mID="52" v:groupContext="shape">
						<title>Sheet.52</title>
						<path d="M109.8 363.53 L0 363.53 L0 396 L109.8 396 L109.8 363.53 Z" class="st9"/>
					</g>
					<g id="shape53-85" v:mID="53" v:groupContext="shape" transform="translate(39.22,-9.03996)">
						<title>Sheet.53</title>
						<desc>CoAP</desc>
						<v:textBlock v:margins="rect(0,0,0,0)"/>
						<v:textRect cx="24.0002" cy="388.8" width="48.01" height="14.4001"/>
						<rect x="0" y="381.6" width="48.0005" height="14.4001" class="st3"/>
						<text x="0" y="392.4" class="st8" v:langID="1033"><v:paragraph/><v:tabList/>CoAP</text>					</g>
				</g>
				<g id="group54-88" transform="translate(-1.14309E-12,-120.592)" v:mID="54" v:groupContext="group">
					<v:userDefs/>
					<title>Sheet.54</title>
					<desc>MeshCoP</desc>
					<g id="shape55-89" v:mID="55" v:groupContext="shape">
						<title>Sheet.55</title>
						<path d="M109.8 363.53 L0 363.53 L0 396 L109.8 396 L109.8 363.53 Z" class="st9"/>
					</g>
					<g id="shape56-91" v:mID="56" v:groupContext="shape" transform="translate(28.55,-9.03996)">
						<title>Sheet.56</title>
						<desc>MeshCoP</desc>
						<v:textBlock v:margins="rect(0,0,0,0)"/>
						<v:textRect cx="42.0004" cy="388.8" width="84.01" height="14.4001"/>
						<rect x="0" y="381.6" width="84.0008" height="14.4001" class="st3"/>
						<text x="-0" y="392.4" class="st8" v:langID="1033"><v:paragraph/><v:tabList/>MeshCoP</text>					</g>
				</g>
				<g id="group57-94" transform="translate(112.292,-85.6295)" v:mID="57" v:groupContext="group">
					<v:userDefs/>
					<title>Sheet.57</title>
					<desc>MLE</desc>
					<g id="shape58-95" v:mID="58" v:groupContext="shape">
						<title>Sheet.58</title>
						<path d="M0 396 L0 328.57 L53.65 328.57 L53.65 396 L0 396 Z" class="st9"/>
					</g>
					<g id="shape59-97" v:mID="59" v:groupContext="shape" transform="translate(14.49,-26.52)">
						<title>Sheet.59</title>
						<desc>MLE</desc>
						<v:textBlock v:margins="rect(0,0,0,0)"/>
						<v:textRect cx="18.0002" cy="388.8" width="36.01" height="14.4001"/>
						<rect x="0" y="381.6" width="36.0004" height="14.4001" class="st3"/>
						<text x="-0" y="392.4" class="st8" v:langID="1033"><v:paragraph/><v:tabList/>MLE</text>					</g>
				</g>
				<g id="group60-100" transform="translate(168.554,-85.6295)" v:mID="60" v:groupContext="group">
					<v:userDefs/>
					<title>Sheet.60</title>
					<desc>DHCPv6</desc>
					<g id="shape61-101" v:mID="61" v:groupContext="shape">
						<title>Sheet.61</title>
						<path d="M0 396 L0 328.57 L49.79 328.57 L49.79 396 L0 396 Z" class="st9"/>
					</g>
					<g id="shape62-103" v:mID="62" v:groupContext="shape" transform="translate(1.56,-26.52)">
						<title>Sheet.62</title>
						<desc>DHCPv6</desc>
						<v:textBlock v:margins="rect(0,0,0,0)"/>
						<v:textRect cx="36.0004" cy="388.8" width="72.01" height="14.4001"/>
						<rect x="0" y="381.6" width="72.0007" height="14.4001" class="st3"/>
						<text x="0" y="392.4" class="st8" v:langID="1033"><v:paragraph/><v:tabList/>DHCPv6</text>					</g>
				</g>
			</g>
			<g id="group63-106" transform="translate(27.5934,-175.039)" v:mID="63" v:groupContext="group">
				<title>Sheet.63</title>
				<g id="group64-107" v:mID="64" v:groupContext="group">
					<title>Sheet.64</title>
					<g id="shape65-108" v:mID="65" v:groupContext="shape">
						<title>Sheet.65</title>
						<rect x="0" y="280.499" width="181.178" height="115.501" class="st9"/>
					</g>
				</g>
				<g id="group66-110" transform="translate(8.8633,-8.01421)" v:mID="66" v:groupContext="group">
					<v:userDefs/>
					<title>Sheet.66</title>
					<desc>L2CAP</desc>
					<g id="shape67-111" v:mID="67" v:groupContext="shape">
						<title>Sheet.67</title>
						<path d="M75.42 370.21 L0 370.21 L0 396 L75.42 396 L75.42 370.21 Z" class="st13"/>
					</g>
					<g id="shape68-113" v:mID="68" v:groupContext="shape" transform="translate(18.7,-5.69996)">
						<title>Sheet.68</title>
						<desc>L2CAP</desc>
						<v:textBlock v:margins="rect(0,0,0,0)"/>
						<v:textRect cx="30.0003" cy="388.8" width="60.01" height="14.4001"/>
						<rect x="0" y="381.6" width="60.0006" height="14.4001" class="st3"/>
						<text x="0" y="392.4" class="st8" v:langID="1033"><v:paragraph/><v:tabList/>L2CAP</text>					</g>
				</g>
				<g id="group69-116" transform="translate(8.8633,-65.9396)" v:mID="69" v:groupContext="group">
					<v:userDefs/>
					<title>Sheet.69</title>
					<desc>GATT</desc>
					<g id="shape70-117" v:mID="70" v:groupContext="shape">
						<title>Sheet.70</title>
						<path d="M75.42 370.25 L0 370.25 L0 396 L75.42 396 L75.42 370.25 Z" class="st13"/>
					</g>
					<g id="shape71-119" v:mID="71" v:groupContext="shape" transform="translate(21.71,-5.66996)">
						<title>Sheet.71</title>
						<desc>GATT</desc>
						<v:textBlock v:margins="rect(0,0,0,0)"/>
						<v:textRect cx="24.0002" cy="388.8" width="48.01" height="14.4001"/>
						<rect x="0" y="381.6" width="48.0005" height="14.4001" class="st3"/>
						<text x="0" y="392.4" class="st8" v:langID="1033"><v:paragraph/><v:tabList/>GATT</text>					</g>
				</g>
				<g id="group72-122" transform="translate(8.8633,-36.6655)" v:mID="72" v:groupContext="group">
					<v:userDefs/>
					<title>Sheet.72</title>
					<desc>ATT</desc>
					<g id="shape73-123" v:mID="73" v:groupContext="shape">
						<title>Sheet.73</title>
						<path d="M75.42 370.25 L0 370.25 L0 396 L75.42 396 L75.42 370.25 Z" class="st13"/>
					</g>
					<g id="shape74-125" v:mID="74" v:groupContext="shape" transform="translate(26.38,-5.66996)">
						<title>Sheet.74</title>
						<desc>ATT</desc>
						<v:textBlock v:margins="rect(0,0,0,0)"/>
						<v:textRect cx="18.0002" cy="388.8" width="36.01" height="14.4001"/>
						<rect x="0" y="381.6" width="36.0004" height="14.4001" class="st3"/>
						<text x="0" y="392.4" class="st8" v:langID="1033"><v:paragraph/><v:tabList/>ATT</text>					</g>
				</g>
				<g id="group75-128" transform="translate(87.5425,-65.9396)" v:mID="75" v:groupContext="group">
					<v:userDefs/>
					<title>Sheet.75</title>
					<desc>GAP</desc>
					<g id="shape76-129" v:mID="76" v:groupContext="shape">
						<title>Sheet.76</title>
						<path d="M83.6 370.16 L0 370.16 L0 396 L83.6 396 L83.6 370.16 Z" class="st13"/>
					</g>
					<g id="shape77-131" v:mID="77" v:groupContext="shape" transform="translate(29.13,-5.71996)">
						<title>Sheet.77</title>
						<desc>GAP</desc>
						<v:textBlock v:margins="rect(0,0,0,0)"/>
						<v:textRect cx="18.0002" cy="388.8" width="36.01" height="14.4001"/>
						<rect x="0" y="381.6" width="36.0004" height="14.4001" class="st3"/>
						<text x="0" y="392.4" class="st8" v:langID="1033"><v:paragraph/><v:tabList/>GAP</text>					</g>
				</g>
				<g id="group78-134" transform="translate(87.5425,-8.01421)" v:mID="78" v:groupContext="group">
					<v:userDefs/>
					<title>Sheet.78</title>
					<desc>SM</desc>
					<g id="shape79-135" v:mID="79" v:groupContext="shape">
						<title>Sheet.79</title>
						<path d="M83.6 341.29 L0 341.29 L0 396 L83.6 396 L83.6 341.29 Z" class="st13"/>
					</g>
					<g id="shape80-137" v:mID="80" v:groupContext="shape" transform="translate(32.8,-20.16)">
						<title>Sheet.80</title>
						<desc>SM</desc>
						<v:textBlock v:margins="rect(0,0,0,0)"/>
						<v:textRect cx="12.0001" cy="388.8" width="24.01" height="14.4001"/>
						<rect x="0" y="381.6" width="24.0002" height="14.4001" class="st3"/>
						<text x="0" y="392.4" class="st8" v:langID="1033"><v:paragraph/><v:tabList/>SM</text>					</g>
				</g>
				<g id="group81-140" transform="translate(1.29496E-12,-91.3536)" v:mID="81" v:groupContext="group">
					<v:userDefs/>
					<title>Sheet.81</title>
					<desc>Zephyr host</desc>
					<g id="shape82-141" v:mID="82" v:groupContext="shape">
						<title>Sheet.82</title>
						<rect x="0" y="376.517" width="181.178" height="19.4833" class="st14"/>
					</g>
					<g id="shape83-143" v:mID="83" v:groupContext="shape" transform="translate(58.91,-5.08726)">
						<title>Sheet.83</title>
						<desc>Zephyr host</desc>
						<v:textBlock v:margins="rect(0,0,0,0)"/>
						<v:textRect cx="66.0006" cy="388.8" width="132.01" height="14.4001"/>
						<rect x="0" y="381.6" width="132.001" height="14.4001" class="st3"/>
						<text x="-0" y="392.4" class="st8" v:langID="1033"><v:paragraph/><v:tabList/>Zephyr host</text>					</g>
				</g>
			</g>
			<g id="group84-146" transform="translate(304.243,-39.7327)" v:mID="84" v:groupContext="group">
				<title>Sheet.84</title>
				<g id="group85-147" transform="translate(-4.74393,-31.1371)" v:mID="85" v:groupContext="group">
					<title>Sheet.85</title>
					<g id="shape86-148" v:mID="86" v:groupContext="shape">
						<title>Sheet.86</title>
						<path d="M175.75 350.23 L0 350.23 L0 396 L175.75 396 L175.75 350.23 Z" class="st7"/>
					</g>
				</g>
				<g id="group87-150" transform="translate(-6.86894,-58.0069)" v:mID="87" v:groupContext="group">
					<v:userDefs/>
					<title>Sheet.87</title>
					<desc>nRF IEEE 802.15.4 radio driver</desc>
					<g id="shape88-151" v:mID="88" v:groupContext="shape" transform="translate(6.39488E-14,-1.25004)">
						<title>Sheet.88</title>
						<rect x="0" y="384.1" width="173.78" height="11.9" class="st2"/>
					</g>
					<g id="shape89-153" v:mID="89" v:groupContext="shape" transform="translate(3.51,1.7053E-13)">
						<title>Sheet.89</title>
						<desc>nRF IEEE 802.15.4 radio driver</desc>
						<v:textBlock v:margins="rect(0,0,0,0)"/>
						<v:textRect cx="180.002" cy="388.8" width="360.01" height="14.4001"/>
						<rect x="0" y="381.6" width="360.004" height="14.4001" class="st3"/>
						<text x="0" y="392.4" class="st8" v:langID="1033"><v:paragraph/><v:tabList/>nRF IEEE 802.15.4 radio driver</text>					</g>
				</g>
				<g id="group90-156" transform="translate(0.0231453,-35.1924)" v:mID="90" v:groupContext="group">
					<v:userDefs/>
					<title>Sheet.90</title>
					<desc>IEEE 802.15.4 PHY</desc>
					<g id="shape91-157" v:mID="91" v:groupContext="shape">
						<title>Sheet.91</title>
						<path d="M161.67 375.17 L0 375.17 L0 396 L161.67 396 L161.67 375.17 Z" class="st9"/>
					</g>
					<g id="shape92-159" v:mID="92" v:groupContext="shape" transform="translate(36.92,-4.40999)">
						<title>Sheet.92</title>
						<desc>IEEE 802.15.4 PHY</desc>
						<v:textBlock v:margins="rect(0,0,0,0)"/>
						<v:textRect cx="85.0003" cy="390" width="170.01" height="12"/>
						<rect x="0" y="384" width="170.001" height="12" class="st3"/>
						<text x="0" y="393" class="st15" v:langID="1033"><v:paragraph/><v:tabList/>IEEE 802.15.4 PHY</text>					</g>
				</g>
			</g>
		</g>
	</g>
</svg>
