<?xml version="1.0" encoding="UTF-8" standalone="no"?>
<!DOCTYPE svg PUBLIC "-//W3C//DTD SVG 1.1//EN" "http://www.w3.org/Graphics/SVG/1.1/DTD/svg11.dtd">
<!-- Generated by Microsoft Visio, SVG Export thread_data_flow_rx_spi.svg Page-1 -->
<svg xmlns="http://www.w3.org/2000/svg" xmlns:xlink="http://www.w3.org/1999/xlink" xmlns:ev="http://www.w3.org/2001/xml-events"
		width="3.63605in" height="2.96675in" viewBox="0 0 261.795 213.606" xml:space="preserve" color-interpolation-filters="sRGB"
		class="st12">
	<style type="text/css">
	<![CDATA[
		.st1 {fill:#ffffff;stroke:none;stroke-width:1}
		.st2 {fill:#f2f2f2;stroke:none;stroke-width:1}
		.st3 {fill:#00a9ce;stroke:none;stroke-width:1}
		.st4 {fill:#feffff;font-family:Calibri;font-size:1.00001em}
		.st5 {fill:#333f48;font-family:Calibri;font-size:1.00001em}
		.st6 {font-size:1em}
		.st7 {marker-end:url(#mrkr13-26);stroke:#333f48;stroke-linecap:butt;stroke-width:1}
		.st8 {fill:#333f48;fill-opacity:1;stroke:#333f48;stroke-opacity:1;stroke-width:0.28409090909091}
		.st9 {fill:#333f48;stroke:#feffff;stroke-width:1}
		.st10 {fill:none;stroke:none;stroke-width:1}
		.st11 {fill:#333f48;font-family:Calibri;font-size:0.833336em}
		.st12 {fill:none;fill-rule:evenodd;font-size:12px;overflow:visible;stroke-linecap:square;stroke-miterlimit:3}
	]]>
	</style>

	<defs id="Markers">
		<g id="lend13">
			<path d="M 3 1 L 0 0 L 3 -1 L 3 1 " style="stroke:none"/>
		</g>
		<marker id="mrkr13-26" class="st8" refX="-10.56" orient="auto" markerUnits="strokeWidth" overflow="visible">
			<use xlink:href="#lend13" transform="scale(-3.52,-3.52) "/>
		</marker>
	</defs>
	<g>
		<title>Page-1</title>
		<g id="group1318-1" transform="translate(1,-68.8107)">
			<title>Entity.1291</title>
			<g id="shape1319-2" transform="translate(0,-75.9849)">
				<title>Sheet.1319</title>
				<path d="M0 213.61 L259.8 213.61 L0 213.61 Z" class="st1"/>
			</g>
			<g id="shape1320-4">
				<title>Sheet.1320</title>
				<rect x="0" y="137.621" width="259.795" height="75.9849" class="st2"/>
			</g>
			<g id="shape1321-6" transform="translate(422.378,168.802) rotate(90)">
				<title>Sheet.1321</title>
			</g>
			<g id="shape1322-8" transform="translate(0,-44.8038)">
				<title>Sheet.1322</title>
				<desc>NCP SPI RX buffer</desc>
				<rect x="0" y="182.425" width="259.795" height="31.1811" class="st3"/>
				<text x="86.87" y="201.62" class="st4">NCP SPI RX buffer</text>			</g>
			<g id="shape1318-11"/>
		</g>
		<g id="group1327-12" transform="translate(1,-68.8107)">
			<title>Attribute.1296</title>
			<desc>Buffer for storing data received over SPI Default size: 1300 B</desc>
			<g id="shape1327-13">
				<text x="30" y="187.6" class="st5">Buffer for storing data received over SPI <tspan x="30" dy="1.2em" class="st6">Default size: 1300 B</tspan></text>			</g>
			<g id="shape1328-17" transform="translate(208.772,-7.20005)">
				<title>Sheet.1328</title>
				<desc>int</desc>
			</g>
			<g id="shape1329-19" transform="translate(4.25197,-13.898)">
				<title>Attribute.5</title>
				<desc>PK</desc>
			</g>
		</g>
		<g id="shape1332-21" transform="translate(123.811,-68.8107)">
			<title>Dynamic connector.1301</title>
			<path d="M7.09 213.61 L7.09 256.68" class="st7"/>
		</g>
		<g id="shape1333-27" transform="translate(123.811,-198.433)">
			<title>Circle.1303</title>
			<path d="M0 206.52 A7.08661 7.08661 0 0 1 14.17 206.52 A7.08661 7.08661 0 1 1 0 206.52 Z" class="st9"/>
		</g>
		<g id="shape1334-29" transform="translate(123.811,-198.433)">
			<title>Dynamic connector.1304</title>
			<path d="M7.09 213.61 L7.09 256.68" class="st7"/>
		</g>
		<g id="shape1335-34" transform="translate(123.811,-1)">
			<title>Circle.1305</title>
			<path d="M0 206.52 A7.08661 7.08661 0 0 1 14.17 206.52 A7.08661 7.08661 0 1 1 0 206.52 Z" class="st9"/>
		</g>
		<g id="shape1336-36" transform="translate(137.853,-159.567)">
			<title>Sheet.1336</title>
			<desc>Receive</desc>
			<rect x="0" y="189.512" width="80.4157" height="24.0945" class="st10"/>
			<text x="4" y="204.56" class="st11">Receive</text>		</g>
		<g id="shape1338-39" transform="translate(137.853,-29.9447)">
			<title>Sheet.1338</title>
			<desc>Dispatch and handle</desc>
			<rect x="0" y="189.512" width="94.5962" height="24.0945" class="st10"/>
			<text x="4" y="204.56" class="st11">Dispatch and handle</text>		</g>
	</g>
</svg>
