<?xml version="1.0" encoding="UTF-8" standalone="no"?>
<!DOCTYPE svg PUBLIC "-//W3C//DTD SVG 1.1//EN" "http://www.w3.org/Graphics/SVG/1.1/DTD/svg11.dtd">
<!-- Generated by Microsoft Visio, SVG Export antenna_gain.svg Page-1 -->
<svg xmlns="http://www.w3.org/2000/svg" xmlns:xlink="http://www.w3.org/1999/xlink" xmlns:ev="http://www.w3.org/2001/xml-events"
		width="4.59511in" height="1.73453in" viewBox="0 0 330.848 124.886" xml:space="preserve" color-interpolation-filters="sRGB"
		class="st13">
	<style type="text/css">
	<![CDATA[
		.st1 {fill:#00a9ce;stroke:none;stroke-width:1}
		.st2 {fill:#feffff;font-family:Arial;font-size:0.833336em}
		.st3 {stroke:#00a9ce;stroke-linecap:butt;stroke-width:1}
		.st4 {fill:none;stroke:none;stroke-width:1}
		.st5 {fill:#000000;font-family:Arial;font-size:0.833336em}
		.st6 {font-size:1em}
		.st7 {marker-start:url(#mrkr10-18);stroke:#333f48;stroke-linecap:butt;stroke-width:1}
		.st8 {fill:#333f48;fill-opacity:1;stroke:#333f48;stroke-opacity:1;stroke-width:0.28409090909091}
		.st9 {fill:#333f48;stroke:none;stroke-width:1}
		.st10 {marker-end:url(#mrkr4-29);marker-start:url(#mrkr4-27);stroke:#768692;stroke-linecap:butt;stroke-width:1}
		.st11 {fill:#768692;fill-opacity:1;stroke:#768692;stroke-opacity:1;stroke-width:0.28409090909091}
		.st12 {baseline-shift:-32.4947%;font-size:0.649894em}
		.st13 {fill:none;fill-rule:evenodd;font-size:12px;overflow:visible;stroke-linecap:square;stroke-miterlimit:3}
	]]>
	</style>

	<defs id="Markers">
		<g id="lend10">
			<path
					d="M 0 0.75 C -0.414214 0.75 -0.75 0.414214 -0.75 0 -0.75 -0.414214 -0.414214 -0.75 0 -0.75 0.414214 -0.75 0.75 -0.414214 0.75 0 0.75 0.414214 0.414214 0.75 0 0.75 Z "
					style="stroke:none"/>
		</g>
		<marker id="mrkr10-18" class="st8" refX="2.28" orient="auto" markerUnits="strokeWidth" overflow="visible">
			<use xlink:href="#lend10" transform="scale(3.52) "/>
		</marker>
		<g id="lend4">
			<path d="M 2 1 L 0 0 L 2 -1 L 2 1 " style="stroke:none"/>
		</g>
		<marker id="mrkr4-27" class="st11" refX="6.68" orient="auto" markerUnits="strokeWidth" overflow="visible">
			<use xlink:href="#lend4" transform="scale(3.52) "/>
		</marker>
		<marker id="mrkr4-29" class="st11" refX="-7.04" orient="auto" markerUnits="strokeWidth" overflow="visible">
			<use xlink:href="#lend4" transform="scale(-3.52,-3.52) "/>
		</marker>
	</defs>
	<g>
		<title>Page-1</title>
		<g id="shape6-1" transform="translate(1,-38.8465)">
			<title>Sheet.6</title>
			<desc>nRF7002</desc>
			<rect x="0" y="39.8465" width="74.0133" height="85.0394" class="st1"/>
			<text x="16.44" y="85.37" class="st2">nRF7002</text>		</g>
		<g id="shape7-4" transform="translate(238.231,-62.374)">
			<title>Sheet.7</title>
			<rect x="0" y="87.4685" width="11.3386" height="37.4173" class="st1"/>
		</g>
		<g id="shape8-6" transform="translate(75.2302,-81.366) rotate(0.0995163)">
			<title>Sheet.8</title>
			<path d="M0 124.89 L163.22 124.89" class="st3"/>
		</g>
		<g id="shape9-9" transform="translate(255.835,-71.5827)">
			<title>Sheet.9</title>
			<desc>PCB chip antenna</desc>
			<rect x="0" y="105.886" width="74.0133" height="19" class="st4"/>
			<text x="4" y="112.39" class="st5">PCB chip <tspan x="4" dy="1.2em" class="st6">antenna</tspan></text>		</g>
		<g id="shape11-13" transform="translate(281.508,43.6614) rotate(90)">
			<title>Sheet.11</title>
			<path d="M2.28 124.89 L2.64 124.89 L63.64 124.89" class="st7"/>
		</g>
		<g id="shape12-19" transform="translate(149.535,-3.41339)">
			<title>Sheet.12</title>
			<ellipse cx="7.08661" cy="117.799" rx="7.08661" ry="7.08661" class="st9"/>
		</g>
		<g id="shape13-21" transform="translate(75.0133,-99.7913)">
			<title>Sheet.13</title>
			<desc>PCBLossA</desc>
			<path d="M6.68 124.89 L7.04 124.89 L74.57 124.89" class="st10"/>
			<text x="17.79" y="117.89" class="st5">PCBLoss<tspan dy="-0.287em" class="st12">A</tspan></text>		</g>
		<g id="shape15-32" transform="translate(156.622,-99.7913)">
			<title>Sheet.15</title>
			<desc>PCBLossB</desc>
			<path d="M6.68 124.89 L7.04 124.89 L74.57 124.89" class="st10"/>
			<text x="17.79" y="117.89" class="st5">PCBLoss<tspan dy="-0.287em" class="st12">B</tspan></text>		</g>
		<g id="shape16-41" transform="translate(118.042,-1)">
			<title>Sheet.16</title>
			<desc>SMA</desc>
			<rect x="0" y="105.886" width="38.5802" height="19" class="st4"/>
			<text x="4" y="118.39" class="st5">SMA</text>		</g>
		<g id="shape17-44" transform="translate(302.768,43.6984) rotate(90)">
			<title>Sheet.17</title>
			<desc>Coax loss</desc>
			<path d="M6.68 124.89 L7.04 124.89 L56.56 124.89" class="st10"/>
			<text x="9.85" y="117.89" class="st5">Coax loss</text>		</g>
	</g>
</svg>
