<?xml version="1.0" encoding="UTF-8" standalone="no"?>
<!DOCTYPE svg PUBLIC "-//W3C//DTD SVG 1.1//EN" "http://www.w3.org/Graphics/SVG/1.1/DTD/svg11.dtd">
<!-- Generated by Microsoft Visio, SVG Export signaling_testbed_accesspoint.svg Page-1 -->
<svg xmlns="http://www.w3.org/2000/svg" xmlns:xlink="http://www.w3.org/1999/xlink" xmlns:ev="http://www.w3.org/2001/xml-events"
		width="5.38251in" height="1.50416in" viewBox="0 0 387.541 108.299" xml:space="preserve" color-interpolation-filters="sRGB"
		class="st12">
	<style type="text/css">
	<![CDATA[
		.st1 {fill:#00a9ce;stroke:none;stroke-width:1}
		.st2 {fill:#feffff;font-family:Arial;font-size:0.833336em}
		.st3 {font-size:1em}
		.st4 {stroke:#00a9ce;stroke-linecap:butt;stroke-width:1}
		.st5 {fill:#00a9ce;font-family:Arial;font-size:0.833336em}
		.st6 {fill:#0033a0;stroke:none;stroke-width:1}
		.st7 {marker-start:url(#mrkr10-38);stroke:#00a9ce;stroke-linecap:butt;stroke-width:1}
		.st8 {fill:#00a9ce;fill-opacity:1;stroke:#00a9ce;stroke-opacity:1;stroke-width:0.28409090909091}
		.st9 {marker-end:url(#mrkr4-80);marker-start:url(#mrkr4-78);stroke:#00a9ce;stroke-linecap:butt;stroke-width:1}
		.st10 {fill:none;stroke:none;stroke-width:1}
		.st11 {fill:#0077c8;stroke:none;stroke-width:1}
		.st12 {fill:none;fill-rule:evenodd;font-size:12px;overflow:visible;stroke-linecap:square;stroke-miterlimit:3}
	]]>
	</style>

	<defs id="Markers">
		<g id="lend10">
			<path
					d="M 0 0.75 C -0.414214 0.75 -0.75 0.414214 -0.75 0 -0.75 -0.414214 -0.414214 -0.75 0 -0.75 0.414214 -0.75 0.75 -0.414214 0.75 0 0.75 0.414214 0.414214 0.75 0 0.75 Z "
					style="stroke:none"/>
		</g>
		<marker id="mrkr10-38" class="st8" refX="2.28" orient="auto" markerUnits="strokeWidth" overflow="visible">
			<use xlink:href="#lend10" transform="scale(3.52) "/>
		</marker>
		<g id="lend4">
			<path d="M 2 1 L 0 0 L 2 -1 L 2 1 " style="stroke:none"/>
		</g>
		<marker id="mrkr4-78" class="st8" refX="6.68" orient="auto" markerUnits="strokeWidth" overflow="visible">
			<use xlink:href="#lend4" transform="scale(3.52) "/>
		</marker>
		<marker id="mrkr4-80" class="st8" refX="-7.04" orient="auto" markerUnits="strokeWidth" overflow="visible">
			<use xlink:href="#lend4" transform="scale(-3.52,-3.52) "/>
		</marker>
	</defs>
	<g>
		<title>Page-1</title>
		<g id="shape6-1" transform="translate(1,-1)">
			<title>Sheet.6</title>
			<desc>Computer serial terminal (Putty/Tera)</desc>
			<rect x="0" y="9.08661" width="74.0133" height="99.2126" class="st1"/>
			<text x="15.05" y="37.69" class="st2">Computer <tspan x="25.06" dy="1.2em" class="st3">serial </tspan><tspan x="19.22"
						dy="1.2em" class="st3">terminal  </tspan><tspan x="10.61" dy="2.4em" class="st3">(Putty/Tera)</tspan></text>		</g>
		<g id="shape7-7" transform="translate(126.844,-1)">
			<title>Sheet.7</title>
			<desc>nRF7002 DK/EK Wi-Fi Shell /Station</desc>
			<rect x="0" y="9.08661" width="74.0133" height="99.2126" class="st1"/>
			<text x="16.44" y="49.69" class="st2">nRF7002 <tspan x="22" dy="1.2em" class="st3">DK/EK  </tspan><tspan x="12.84"
						dy="2.4em" class="st3">Wi</tspan>-Fi Shell <tspan x="20.05" dy="1.2em" class="st3">/Station</tspan></text>		</g>
		<g id="shape8-13" transform="translate(75.0133,-50.6063)">
			<title>Sheet.8</title>
			<desc>USB</desc>
			<path d="M0 108.3 L51.83 108.3" class="st4"/>
			<text x="15.63" y="101.3" class="st5">USB</text>		</g>
		<g id="shape53-17" transform="translate(200.857,-43.2362)">
			<title>Sheet.53</title>
			<path d="M0 108.3 L28.05 108.3" class="st4"/>
		</g>
		<g id="shape54-20" transform="translate(312.528,-31.189)">
			<title>Sheet.54</title>
			<desc>Access point</desc>
			<rect x="0" y="83.6378" width="74.0133" height="24.6614" class="st6"/>
			<text x="8.66" y="98.97" class="st2">Access point</text>		</g>
		<g id="group55-23" transform="translate(214.671,-43.2362)">
			<title>Sheet.55</title>
			<g id="shape34-24" transform="translate(-102.61,60.6796) rotate(-87.451) scale(-1,1)">
				<title>Sheet.34</title>
				<path d="M-0 108.3 A18.279 13.9231 65.7 0 1 20.43 108.3" class="st4"/>
			</g>
			<g id="shape37-27" transform="translate(-100.379,68.5331) rotate(-90) scale(-1,1)">
				<title>Sheet.37</title>
				<path d="M-0 108.3 A13.1796 9.81795 68.11 0 1 14.34 108.3" class="st4"/>
			</g>
			<g id="shape38-30" transform="translate(-98.0405,71.7911) rotate(-90) scale(-1,1)">
				<title>Sheet.38</title>
				<path d="M-0 108.3 A6.6226 5.25028 59.05 0 1 7.82 108.3" class="st4"/>
			</g>
			<g id="shape39-33" transform="translate(122.644,76.3523) rotate(90.197)">
				<title>Sheet.39</title>
				<path d="M2.28 108.3 L2.64 108.3 L32.32 108.3" class="st7"/>
			</g>
			<g id="shape49-39" transform="translate(131.301,60.6796) rotate(87.451)">
				<title>Sheet.49</title>
				<path d="M-0 108.3 A18.279 13.9231 65.7 0 1 20.43 108.3" class="st4"/>
			</g>
			<g id="shape50-42" transform="translate(129.07,68.5331) rotate(90)">
				<title>Sheet.50</title>
				<path d="M-0 108.3 A13.1796 9.81795 68.11 0 1 14.34 108.3" class="st4"/>
			</g>
			<g id="shape51-45" transform="translate(126.732,71.7911) rotate(90)">
				<title>Sheet.51</title>
				<path d="M-0 108.3 A6.6226 5.25028 59.05 0 1 7.82 108.3" class="st4"/>
			</g>
		</g>
		<g id="group64-48" transform="translate(305.269,-55.8504)">
			<title>Sheet.64</title>
			<g id="shape57-49" transform="translate(-102.61,73.2938) rotate(-87.451) scale(-1,1)">
				<title>Sheet.57</title>
				<path d="M-0 108.3 A18.279 13.9231 65.7 0 1 20.43 108.3" class="st4"/>
			</g>
			<g id="shape58-52" transform="translate(-100.379,81.1473) rotate(-90) scale(-1,1)">
				<title>Sheet.58</title>
				<path d="M-0 108.3 A13.1796 9.81795 68.11 0 1 14.34 108.3" class="st4"/>
			</g>
			<g id="shape59-55" transform="translate(-98.0405,84.4053) rotate(-90) scale(-1,1)">
				<title>Sheet.59</title>
				<path d="M-0 108.3 A6.6226 5.25028 59.05 0 1 7.82 108.3" class="st4"/>
			</g>
			<g id="shape60-58" transform="translate(122.645,88.5942) rotate(90)">
				<title>Sheet.60</title>
				<path d="M2.28 108.3 L2.64 108.3 L19.7 108.3" class="st7"/>
			</g>
			<g id="shape61-63" transform="translate(131.301,73.2938) rotate(87.451)">
				<title>Sheet.61</title>
				<path d="M-0 108.3 A18.279 13.9231 65.7 0 1 20.43 108.3" class="st4"/>
			</g>
			<g id="shape62-66" transform="translate(129.07,81.1473) rotate(90)">
				<title>Sheet.62</title>
				<path d="M-0 108.3 A13.1796 9.81795 68.11 0 1 14.34 108.3" class="st4"/>
			</g>
			<g id="shape63-69" transform="translate(126.732,84.4053) rotate(90)">
				<title>Sheet.63</title>
				<path d="M-0 108.3 A6.6226 5.25028 59.05 0 1 7.82 108.3" class="st4"/>
			</g>
		</g>
		<g id="shape65-72" transform="translate(227.488,-93.126)">
			<title>Sheet.65</title>
			<path d="M6.68 108.3 L7.04 108.3 L85.09 108.3" class="st9"/>
		</g>
		<g id="shape66-81" transform="translate(239.535,-93.126)">
			<title>Sheet.66</title>
			<desc>Wi-Fi link</desc>
			<rect x="0" y="94.126" width="68.0315" height="14.1732" class="st10"/>
			<text x="13.46" y="104.21" class="st5">Wi-Fi link</text>		</g>
		<g id="shape70-84" transform="translate(134.795,-82.5)">
			<title>Sheet.70</title>
			<desc>TX-DUT</desc>
			<rect x="0" y="97.2441" width="58.1102" height="11.0551" class="st11"/>
			<text x="10.73" y="105.77" class="st2">TX-DUT</text>		</g>
	</g>
</svg>
