<?xml version="1.0" encoding="UTF-8" standalone="no"?>
<!DOCTYPE svg PUBLIC "-//W3C//DTD SVG 1.1//EN" "http://www.w3.org/Graphics/SVG/1.1/DTD/svg11.dtd">
<!-- Generated by Microsoft Visio, SVG Export bt_mesh_le_pair_resp.svg SDK test -->
<svg xmlns="http://www.w3.org/2000/svg" xmlns:xlink="http://www.w3.org/1999/xlink" xmlns:ev="http://www.w3.org/2001/xml-events"
		width="7.97263in" height="8.36633in" viewBox="0 0 574.029 602.376" xml:space="preserve" color-interpolation-filters="sRGB"
		class="st16">
	<style type="text/css">
	<![CDATA[
		.st1 {stroke:#c8ced3;stroke-dasharray:4,2;stroke-linecap:butt;stroke-width:0.5}
		.st2 {fill:#ffffff;stroke:none;stroke-linecap:butt}
		.st3 {fill:#c8ced3;font-family:Arial;font-size:0.916672em}
		.st4 {stroke:#00a9ce;stroke-linecap:butt;stroke-width:1}
		.st5 {fill:#00a9ce}
		.st6 {fill:#ffffff;stroke:none;stroke-linecap:butt;stroke-width:7.2}
		.st7 {fill:#00a9ce;font-family:Arial;font-size:0.916672em}
		.st8 {fill:none;stroke:none;stroke-width:1}
		.st9 {font-size:1em}
		.st10 {marker-start:url(#mrkr13-70);stroke:#00a9ce;stroke-linecap:butt;stroke-width:1}
		.st11 {fill:#00a9ce;fill-opacity:1;stroke:#00a9ce;stroke-opacity:1;stroke-width:0.28409090909091}
		.st12 {marker-end:url(#mrkr13-104);stroke:#00a9ce;stroke-linecap:butt;stroke-width:1}
		.st13 {fill:#0077c8;stroke:none;stroke-width:1}
		.st14 {fill:#ffffff;font-family:Arial;font-size:0.916672em}
		.st15 {fill:#768692;stroke:none;stroke-width:1}
		.st16 {fill:none;fill-rule:evenodd;font-size:12px;overflow:visible;stroke-linecap:square;stroke-miterlimit:3}
	]]>
	</style>

	<defs id="Markers">
		<g id="lend13">
			<path d="M 3 1 L 0 0 L 3 -1 L 3 1 " style="stroke:none"/>
		</g>
		<marker id="mrkr13-70" class="st11" refX="10.2" orient="auto" markerUnits="strokeWidth" overflow="visible">
			<use xlink:href="#lend13" transform="scale(3.52) "/>
		</marker>
		<marker id="mrkr13-104" class="st11" refX="-10.56" orient="auto" markerUnits="strokeWidth" overflow="visible">
			<use xlink:href="#lend13" transform="scale(-3.52,-3.52) "/>
		</marker>
	</defs>
	<g>
		<title>nRF Connect SDK diagram</title>
		<g id="shape1-1" transform="translate(608.976,6.60004) rotate(90)" display="none">
			<title>Sheet.1</title>
			<desc>Max 800 px</desc>
			<path d="M0 602.38 L595.28 602.38" class="st1"/>
			<rect x="269.206" y="595.776" width="56.8641" height="13.2001" class="st2"/>
			<text x="269.21" y="605.68" class="st3">Max 800 px</text>		</g>
		<g id="shape2-6" transform="translate(6.60004,-595.776)" display="none">
			<title>Sheet.2</title>
			<desc>Max 780 px</desc>
			<path d="M0 602.38 L566.93 602.38" class="st1"/>
			<rect x="255.033" y="595.776" width="56.8641" height="13.2001" class="st2"/>
			<text x="255.03" y="605.68" class="st3">Max 780 px</text>		</g>
		<g id="shape3-11" transform="translate(1175.74,6.60006) rotate(90)" display="none">
			<title>Sheet.3</title>
			<path d="M0 602.38 L595.28 602.38" class="st1"/>
		</g>
		<g id="shape4-14" transform="translate(6.60004,-0.500009)" display="none">
			<title>Sheet.4</title>
			<path d="M0 602.38 L566.93 602.38" class="st1"/>
		</g>
		<g id="shape5-17" transform="translate(739.697,92.4229) rotate(90)">
			<title>Straight Line</title>
			<path d="M0 602.38 L439.37 602.38" class="st4"/>
		</g>
		<g id="shape6-20" transform="translate(996.232,92.4229) rotate(90)">
			<title>Straight Line.15</title>
			<path d="M0 602.38 L439.37 602.38" class="st4"/>
		</g>
		<g id="shape7-23" transform="translate(137.321,-411.797)">
			<title>Line Arrow</title>
			<desc>Passkey Reset</desc>
			<path d="M250.14 599.18 L250.14 605.57 L256.54 602.38 L250.14 599.18 Z" class="st5"/>
			<path d="M250.14 599.18 L250.14 605.57 L256.54 602.38 L250.14 599.18" class="st4"/>
			<path d="M0 602.38 L250.14 602.38" class="st4"/>
			<rect x="91.5856" y="585.176" width="73.3642" height="13.2001" class="st6"/>
			<text x="91.59" y="595.08" class="st7">Passkey Reset</text>		</g>
		<g id="shape8-29" transform="translate(979.624,83.3106) rotate(79.4332)">
			<title>Arced Line Double Arrow</title>
			<path d="M36.96 593.62 L32.58 592.57 L34.86 602.38 L41.34 594.68 L36.96 593.62 Z" class="st5"/>
			<path d="M-2.1 593.62 A19.5315 19.5315 0 1 1 36.96 593.62" class="st4"/>
			<path d="M36.96 593.62 L32.58 592.57 L34.86 602.38 L41.34 594.68 L36.96 593.62" class="st4"/>
		</g>
		<g id="shape9-33" transform="translate(422.566,-366.691)">
			<title>Box</title>
			<desc>bt_rand() + bt_passkey_set()</desc>
			<rect x="0" y="548.294" width="97.4318" height="54.0821" class="st8"/>
			<text x="21.66" y="572.03" class="st7">bt_rand() + <tspan x="6.83" dy="1.2em" class="st9">bt_passkey_set()</tspan></text>		</g>
		<g id="shape10-37" transform="translate(713.304,162.145) rotate(76.0017)">
			<title>Arced Line Double Arrow.30</title>
			<path d="M41.99 593.43 L37.51 592.94 L41.01 602.38 L46.46 593.91 L41.99 593.43 Z" class="st5"/>
			<path d="M-0.97 593.43 A21.5914 21.5914 0 0 1 41.99 593.43" class="st4"/>
			<path d="M41.99 593.43 L37.51 592.94 L41.01 602.38 L46.46 593.91 L41.99 593.43" class="st4"/>
		</g>
		<g id="shape11-41" transform="translate(159.998,-250.359)">
			<title>Box.31</title>
			<desc>Setting the received passkey</desc>
			<rect x="0" y="548.294" width="156.694" height="54.0821" class="st8"/>
			<text x="8.03" y="578.63" class="st7">Setting the received passkey</text>		</g>
		<g id="shape12-44" transform="translate(-192.229,260.019) rotate(-76.6447)">
			<title>Arced Line Double Arrow.32</title>
			<path d="M-1.26 593.46 L3.19 592.83 L0 602.38 L-5.72 594.1 L-1.26 593.46 Z" class="st5"/>
			<path d="M-1.26 593.46 A21.5645 21.5645 0 0 1 41.76 593.46" class="st4"/>
			<path d="M-1.26 593.46 L3.19 592.83 L0 602.38 L-5.72 594.1 L-1.26 593.46" class="st4"/>
		</g>
		<g id="shape13-48" transform="translate(201.827,-199.164)">
			<title>Box.33</title>
			<desc>bt_conn_auth_pairing_confirm()</desc>
			<rect x="0" y="548.294" width="170.769" height="54.0821" class="st8"/>
			<text x="7.73" y="578.63" class="st7">bt_conn_auth_pairing_confirm()</text>		</g>
		<g id="shape14-51" transform="translate(-192.229,373.121) rotate(-76.6447)">
			<title>Arced Line Double Arrow.38</title>
			<path d="M-1.37 593.48 L3.07 592.79 L0 602.38 L-5.82 594.17 L-1.37 593.48 Z" class="st5"/>
			<path d="M-1.37 593.48 A21.6559 21.6559 0 0 1 41.87 593.48" class="st4"/>
			<path d="M-1.37 593.48 L3.07 592.79 L0 602.38 L-5.82 594.17 L-1.37 593.48" class="st4"/>
		</g>
		<g id="shape15-55" transform="translate(137.321,-86.0613)">
			<title>Box.39</title>
			<desc>bt_mesh_le_pair_resp_passkey_invalidate()</desc>
			<rect x="0" y="548.294" width="235.276" height="54.0821" class="st8"/>
			<text x="10.02" y="578.63" class="st7">bt_mesh_le_pair_resp_passkey_invalidate()</text>		</g>
		<g id="shape16-58" transform="translate(137.321,-374.333)">
			<title>Line Arrow.47</title>
			<desc>Passkey Status (passkey)</desc>
			<path d="M6.39 599.18 L6.39 605.57 L0 602.38 L6.39 599.18 Z" class="st5"/>
			<path d="M6.39 599.18 L6.39 605.57 L0 602.38 L6.39 599.18" class="st4"/>
			<path d="M6.39 602.38 L256.54 602.38" class="st4"/>
			<rect x="64.9932" y="585.176" width="126.549" height="13.2001" class="st6"/>
			<text x="64.99" y="595.08" class="st7">Passkey Status (passkey)</text>		</g>
		<g id="group17-64" transform="translate(393.856,-290.268)">
			<title>Signal, right-to-left</title>
			<g id="shape18-65">
				<title>Dynamic connector.32</title>
				<path d="M10.2 595.29 L10.56 595.29 L28.35 595.29" class="st10"/>
			</g>
			<g id="shape19-71" transform="translate(28.5059,-3.54326)">
				<title>Sheet.19</title>
				<desc>bt_conn_auth_cb.pairing_display()</desc>
				<rect x="0" y="595.289" width="97.6358" height="7.08661" class="st8"/>
				<text x="4" y="595.53" class="st7">bt_conn_auth_cb.<tspan x="4" dy="1.2em" class="st9">pairing_display()</tspan></text>			</g>
		</g>
		<g id="group20-75" transform="translate(393.856,-239.073)">
			<title>Signal, right-to-left.52</title>
			<g id="shape21-76">
				<title>Dynamic connector.32</title>
				<path d="M10.2 595.29 L10.56 595.29 L28.35 595.29" class="st10"/>
			</g>
			<g id="shape22-81" transform="translate(28.5059,-3.54326)">
				<title>Sheet.22</title>
				<desc>bt_conn_auth_cb.pairing_confirm()</desc>
				<rect x="0" y="595.289" width="97.6358" height="7.08661" class="st8"/>
				<text x="4" y="595.53" class="st7">bt_conn_auth_cb.<tspan x="4" dy="1.2em" class="st9">pairing_confirm()</tspan></text>			</g>
		</g>
		<g id="group23-85" transform="translate(393.856,-125.97)">
			<title>Signal, right-to-left.55</title>
			<g id="shape24-86">
				<title>Dynamic connector.32</title>
				<path d="M10.2 595.29 L10.56 595.29 L28.35 595.29" class="st10"/>
			</g>
			<g id="shape25-91" transform="translate(28.5059,-3.54326)">
				<title>Sheet.25</title>
				<desc>bt_conn_auth_info_cb.pairing_complete() / bt_conn_auth_info_c...</desc>
				<rect x="0" y="595.289" width="120.313" height="7.08661" class="st8"/>
				<text x="4.5" y="575.73" class="st7">bt_conn_auth_info_cb.<tspan x="14.61" dy="1.2em" class="st9">pairing_complete() </tspan><tspan
							x="58.63" dy="1.2em" class="st9">/ </tspan><tspan x="4" dy="1.2em" class="st9">bt_conn_auth_info_cb.</tspan><tspan
							x="4" dy="1.2em" class="st9">pairing_failed()</tspan></text>			</g>
		</g>
		<g id="group26-98" transform="translate(70.8661,-290.268)">
			<title>Signal, left-to-right</title>
			<g id="shape27-99" transform="translate(38.1083,0)">
				<title>Dynamic connector.31</title>
				<path d="M0 595.29 L17.79 595.29" class="st12"/>
			</g>
			<g id="shape28-105" transform="translate(-7.99361E-15,-7.39929)">
				<title>Sheet.28</title>
				<desc>A passkey is requested</desc>
				<rect x="0" y="570.486" width="83.2586" height="31.8898" class="st8"/>
				<text x="4" y="583.13" class="st7">A passkey <tspan x="4" dy="1.2em" class="st9">is requested</tspan></text>			</g>
		</g>
		<g id="shape29-109" transform="translate(73.5413,-509.953)">
			<title>Nordic Lake</title>
			<desc>Initiator (Mobile app)</desc>
			<rect x="0" y="559.572" width="127.559" height="42.8031" class="st13"/>
			<text x="45.74" y="577.67" class="st14">Initiator <tspan x="33.21" dy="1.2em" class="st9">(Mobile app)</tspan></text>		</g>
		<g id="shape30-113" transform="translate(330.077,-509.953)">
			<title>Nordic Lake.77</title>
			<desc>LE Pairing Responder (Mesh node)</desc>
			<rect x="0" y="559.572" width="127.559" height="42.8031" class="st13"/>
			<text x="9.97" y="577.67" class="st14">LE Pairing Responder <tspan x="32.9" dy="1.2em" class="st9">(Mesh node)</tspan></text>		</g>
		<g id="shape31-117" transform="translate(95.953,-481.606)">
			<title>Nordic Middle Grey</title>
			<desc>The Initiator is ready for pairing</desc>
			<rect x="0" y="588.202" width="336.012" height="14.1732" class="st15"/>
			<text x="92.19" y="598.59" class="st14">The Initiator is ready for pairing</text>		</g>
		<g id="shape32-120" transform="translate(95.953,-446.173)">
			<title>Nordic Middle Grey.82</title>
			<desc>The Initiator requests the passkey</desc>
			<rect x="0" y="588.202" width="336.012" height="14.1732" class="st15"/>
			<text x="85.46" y="598.59" class="st14">The Initiator requests the passkey</text>		</g>
		<g id="shape33-123" transform="translate(96.2185,-339.874)">
			<title>Nordic Middle Grey.84</title>
			<desc>The Initiator initiates the pairing</desc>
			<rect x="0" y="588.202" width="336.012" height="14.1732" class="st15"/>
			<text x="91.57" y="598.59" class="st14">The Initiator initiates the pairing</text>		</g>
		<g id="shape34-126" transform="translate(96.2185,-170.817)">
			<title>Nordic Middle Grey.86</title>
			<desc>Pairing completed / failed</desc>
			<rect x="0" y="588.202" width="336.012" height="14.1732" class="st15"/>
			<text x="106.25" y="598.59" class="st14">Pairing completed / failed</text>		</g>
	</g>
</svg>
