<?xml version="1.0" encoding="UTF-8" standalone="no"?>
<!DOCTYPE svg PUBLIC "-//W3C//DTD SVG 1.1//EN" "http://www.w3.org/Graphics/SVG/1.1/DTD/svg11.dtd">
<!-- Generated by Microsoft Visio, SVG Export bt_mesh_dm_models2.svg Page-1 -->
<svg xmlns="http://www.w3.org/2000/svg" xmlns:xlink="http://www.w3.org/1999/xlink" xmlns:ev="http://www.w3.org/2001/xml-events"
		xmlns:v="http://schemas.microsoft.com/visio/2003/SVGExtensions/" width="6.60743in" height="6.58263in"
		viewBox="0 0 475.735 473.949" xml:space="preserve" color-interpolation-filters="sRGB" class="st13">
	<v:documentProperties v:langID="1035" v:metric="true" v:viewMarkup="false"/>

	<style type="text/css">
	<![CDATA[
		.st1 {fill:#6ad1e3;stroke:none;stroke-width:1}
		.st2 {fill:#ffffff;font-family:Arial;font-size:0.916672em}
		.st3 {fill:#0077c8;stroke:none;stroke-width:1}
		.st4 {stroke:#00a9ce;stroke-dasharray:4,2;stroke-linecap:butt;stroke-width:1}
		.st5 {fill:#00a9ce;stroke:none;stroke-linecap:butt;stroke-width:1}
		.st6 {fill:none;stroke:none;stroke-width:1}
		.st7 {fill:#333f48;font-family:Arial;font-size:0.833336em}
		.st8 {font-size:1em}
		.st9 {marker-end:url(#mrkr13-35);stroke:#333f48;stroke-linecap:butt;stroke-width:1}
		.st10 {fill:#333f48;fill-opacity:1;stroke:#333f48;stroke-opacity:1;stroke-width:0.28409090909091}
		.st11 {fill:#d9e1e2}
		.st12 {stroke:none;stroke-width:1}
		.st13 {fill:none;fill-rule:evenodd;font-size:12px;overflow:visible;stroke-linecap:square;stroke-miterlimit:3}
	]]>
	</style>

	<defs id="Markers">
		<g id="lend13">
			<path d="M 3 1 L 0 0 L 3 -1 L 3 1 " style="stroke:none"/>
		</g>
		<marker id="mrkr13-35" class="st10" v:arrowType="13" v:arrowSize="2" v:setback="10.56" refX="-10.56" orient="auto"
				markerUnits="strokeWidth" overflow="visible">
			<use xlink:href="#lend13" transform="scale(-3.52,-3.52) "/>
		</marker>
	</defs>
	<g v:mID="0" v:index="1" v:groupContext="foregroundPage">
		<title>Page-1</title>
		<v:pageProperties v:drawingScale="0.0393701" v:pageScale="0.0393701" v:drawingUnits="24" v:shadowOffsetX="8.50394"
				v:shadowOffsetY="-8.50394"/>
		<v:layer v:name="Connect" v:index="0"/>
		<g id="shape11-1" v:mID="11" v:groupContext="shape" v:layerMember="0" transform="translate(1,-431.776)">
			<title>Start/End-point</title>
			<desc>DM CLI</desc>
			<v:custProps>
				<v:cp v:nameU="Cost" v:lbl="Cost" v:prompt="" v:type="7" v:format="@" v:sortKey="" v:invis="false" v:ask="false"
						v:langID="1033" v:cal="0"/>
				<v:cp v:nameU="ProcessNumber" v:lbl="Process Number" v:prompt="" v:type="2" v:format="" v:sortKey=""
						v:invis="false" v:ask="false" v:langID="1033" v:cal="0"/>
				<v:cp v:nameU="Owner" v:lbl="Owner" v:prompt="" v:type="0" v:format="" v:sortKey="" v:invis="false" v:ask="false"
						v:langID="1033" v:cal="0"/>
				<v:cp v:nameU="Function" v:lbl="Function" v:prompt="" v:type="0" v:format="" v:sortKey="" v:invis="false"
						v:ask="false" v:langID="1033" v:cal="0" v:val="VT4()"/>
				<v:cp v:nameU="StartDate" v:lbl="Start Date" v:prompt="" v:type="5" v:format="" v:sortKey="" v:invis="false"
						v:ask="false" v:langID="1033" v:cal="0"/>
				<v:cp v:nameU="EndDate" v:lbl="End Date" v:prompt="" v:type="5" v:format="" v:sortKey="" v:invis="false"
						v:ask="false" v:langID="1033" v:cal="0"/>
				<v:cp v:nameU="Status" v:lbl="Status" v:prompt="" v:type="4"
						v:format=";Not Started;In Progress;Completed;Deferred;Waiting on Input" v:sortKey="" v:invis="false"
						v:ask="false" v:langID="1033" v:cal="0" v:val="VT4()"/>
			</v:custProps>
			<v:userDefs>
				<v:ud v:nameU="visVersion" v:prompt="" v:val="VT0(15):26"/>
				<v:ud v:nameU="DefaultWidth" v:prompt="" v:val="VT0(1):0"/>
				<v:ud v:nameU="DefaultHeight" v:prompt="" v:val="VT0(0.375):0"/>
				<v:ud v:nameU="ResizeTxtHeight" v:prompt="" v:val="VT0(0.375):0"/>
			</v:userDefs>
			<v:textBlock v:margins="rect(2,2,2,2)" v:tabSpace="42.5197"/>
			<v:textRect cx="44.328" cy="453.363" width="88.66" height="41.1732"/>
			<path d="M20.59 473.95 L68.07 473.95 A20.5866 20.5866 -180 0 0 68.07 432.78 L20.59 432.78 A20.5866 20.5866 -180 1 0 20.59
						 473.95 Z" class="st1"/>
			<text x="25.69" y="456.66" class="st2" v:langID="1044"><v:paragraph v:horizAlign="1"/><v:tabList/>DM CLI</text>		</g>
		<g id="shape12-4" v:mID="12" v:groupContext="shape" v:layerMember="0" transform="translate(188.869,-431.776)">
			<title>Start/End-point.12</title>
			<desc>DM SRV 1</desc>
			<v:custProps>
				<v:cp v:nameU="Cost" v:lbl="Cost" v:prompt="" v:type="7" v:format="@" v:sortKey="" v:invis="false" v:ask="false"
						v:langID="1033" v:cal="0"/>
				<v:cp v:nameU="ProcessNumber" v:lbl="Process Number" v:prompt="" v:type="2" v:format="" v:sortKey=""
						v:invis="false" v:ask="false" v:langID="1033" v:cal="0"/>
				<v:cp v:nameU="Owner" v:lbl="Owner" v:prompt="" v:type="0" v:format="" v:sortKey="" v:invis="false" v:ask="false"
						v:langID="1033" v:cal="0"/>
				<v:cp v:nameU="Function" v:lbl="Function" v:prompt="" v:type="0" v:format="" v:sortKey="" v:invis="false"
						v:ask="false" v:langID="1033" v:cal="0" v:val="VT4()"/>
				<v:cp v:nameU="StartDate" v:lbl="Start Date" v:prompt="" v:type="5" v:format="" v:sortKey="" v:invis="false"
						v:ask="false" v:langID="1033" v:cal="0"/>
				<v:cp v:nameU="EndDate" v:lbl="End Date" v:prompt="" v:type="5" v:format="" v:sortKey="" v:invis="false"
						v:ask="false" v:langID="1033" v:cal="0"/>
				<v:cp v:nameU="Status" v:lbl="Status" v:prompt="" v:type="4"
						v:format=";Not Started;In Progress;Completed;Deferred;Waiting on Input" v:sortKey="" v:invis="false"
						v:ask="false" v:langID="1033" v:cal="0" v:val="VT4()"/>
			</v:custProps>
			<v:userDefs>
				<v:ud v:nameU="visVersion" v:prompt="" v:val="VT0(15):26"/>
				<v:ud v:nameU="DefaultWidth" v:prompt="" v:val="VT0(1):0"/>
				<v:ud v:nameU="DefaultHeight" v:prompt="" v:val="VT0(0.375):0"/>
				<v:ud v:nameU="ResizeTxtHeight" v:prompt="" v:val="VT0(0.375):0"/>
			</v:userDefs>
			<v:textBlock v:margins="rect(2,2,2,2)" v:tabSpace="42.5197"/>
			<v:textRect cx="44.328" cy="453.363" width="88.66" height="41.1732"/>
			<path d="M20.59 473.95 L68.07 473.95 A20.5866 20.5866 -180 0 0 68.07 432.78 L20.59 432.78 A20.5866 20.5866 -180 1 0 20.59
						 473.95 Z" class="st3"/>
			<text x="18.35" y="456.66" class="st2" v:langID="1044"><v:paragraph v:horizAlign="1"/><v:tabList/>DM SRV 1</text>		</g>
		<g id="shape13-7" v:mID="13" v:groupContext="shape" v:layerMember="0" transform="translate(369.504,-431.776)">
			<title>Start/End-point.13</title>
			<desc>DM SRV 2</desc>
			<v:custProps>
				<v:cp v:nameU="Cost" v:lbl="Cost" v:prompt="" v:type="7" v:format="@" v:sortKey="" v:invis="false" v:ask="false"
						v:langID="1033" v:cal="0"/>
				<v:cp v:nameU="ProcessNumber" v:lbl="Process Number" v:prompt="" v:type="2" v:format="" v:sortKey=""
						v:invis="false" v:ask="false" v:langID="1033" v:cal="0"/>
				<v:cp v:nameU="Owner" v:lbl="Owner" v:prompt="" v:type="0" v:format="" v:sortKey="" v:invis="false" v:ask="false"
						v:langID="1033" v:cal="0"/>
				<v:cp v:nameU="Function" v:lbl="Function" v:prompt="" v:type="0" v:format="" v:sortKey="" v:invis="false"
						v:ask="false" v:langID="1033" v:cal="0" v:val="VT4()"/>
				<v:cp v:nameU="StartDate" v:lbl="Start Date" v:prompt="" v:type="5" v:format="" v:sortKey="" v:invis="false"
						v:ask="false" v:langID="1033" v:cal="0"/>
				<v:cp v:nameU="EndDate" v:lbl="End Date" v:prompt="" v:type="5" v:format="" v:sortKey="" v:invis="false"
						v:ask="false" v:langID="1033" v:cal="0"/>
				<v:cp v:nameU="Status" v:lbl="Status" v:prompt="" v:type="4"
						v:format=";Not Started;In Progress;Completed;Deferred;Waiting on Input" v:sortKey="" v:invis="false"
						v:ask="false" v:langID="1033" v:cal="0" v:val="VT4()"/>
			</v:custProps>
			<v:userDefs>
				<v:ud v:nameU="visVersion" v:prompt="" v:val="VT0(15):26"/>
				<v:ud v:nameU="DefaultWidth" v:prompt="" v:val="VT0(1):0"/>
				<v:ud v:nameU="DefaultHeight" v:prompt="" v:val="VT0(0.375):0"/>
				<v:ud v:nameU="ResizeTxtHeight" v:prompt="" v:val="VT0(0.375):0"/>
			</v:userDefs>
			<v:textBlock v:margins="rect(2,2,2,2)" v:tabSpace="42.5197"/>
			<v:textRect cx="44.328" cy="453.363" width="88.66" height="41.1732"/>
			<path d="M20.59 473.95 L68.07 473.95 A20.5866 20.5866 -180 0 0 68.07 432.78 L20.59 432.78 A20.5866 20.5866 -180 1 0 20.59
						 473.95 Z" class="st3"/>
			<text x="18.35" y="456.66" class="st2" v:langID="1044"><v:paragraph v:horizAlign="1"/><v:tabList/>DM SRV 2</text>		</g>
		<g id="shape14-10" v:mID="14" v:groupContext="shape" transform="translate(45.328,516.123) scale(1,-1)">
			<title>Lifeline</title>
			<path d="M0 473.95 L0 43.17" class="st4"/>
		</g>
		<g id="shape17-13" v:mID="17" v:groupContext="shape" transform="translate(233.197,516.123) scale(1,-1)">
			<title>Lifeline.17</title>
			<path d="M0 473.95 L0 43.17" class="st4"/>
		</g>
		<g id="shape18-16" v:mID="18" v:groupContext="shape" transform="translate(413.832,516.123) scale(1,-1)">
			<title>Lifeline.18</title>
			<path d="M0 473.95 L0 43.17" class="st4"/>
		</g>
		<g id="shape19-19" v:mID="19" v:groupContext="shape" transform="translate(515.677,90.2722) rotate(90)">
			<title>Activation</title>
			<path d="M0 473.95 L0 466.75 L382.68 466.75 L382.68 473.95 L0 473.95 Z" class="st5"/>
		</g>
		<g id="shape20-21" v:mID="20" v:groupContext="shape" transform="translate(703.546,99.873) rotate(90)">
			<title>Activation.20</title>
			<path d="M0 473.95 L0 466.75 L373.08 466.75 L373.08 473.95 L0 473.95 Z" class="st5"/>
		</g>
		<g id="shape21-23" v:mID="21" v:groupContext="shape" transform="translate(884.181,100.697) rotate(90)">
			<title>Activation.21</title>
			<path d="M0 473.95 L0 466.75 L372.25 466.75 L372.25 473.95 L0 473.95 Z" class="st5"/>
		</g>
		<g id="shape34-25" v:mID="34" v:groupContext="shape" transform="translate(56.2981,-369.504)">
			<title>Sheet.34</title>
			<desc>Measurement_start(&#60;mode&#62; &#60;addr=DM SRV 2&#62; [&#60;TTL&#62; &#60;timeout&#62; &#60;de...</desc>
			<v:textBlock v:margins="rect(4,4,4,0)" v:tabSpace="42.5197" v:verticalAlign="2"/>
			<v:textRect cx="88.4493" cy="464.125" width="176.9" height="19.649"/>
			<rect x="0" y="454.3" width="176.899" height="19.649" class="st6"/>
			<text x="0" y="442.95" class="st7" v:langID="1044"><v:paragraph/><v:tabList/>Measurement_start(&#60;mode&#62; <tspan
						x="0" dy="1.2em" class="st8">&#60;addr=DM SRV 2&#62; [&#60;TTL&#62; &#60;timeout&#62; </tspan><tspan x="0"
						dy="1.2em" class="st8">&#60;delay&#62;])</tspan></text>		</g>
		<g id="shape37-30" v:mID="37" v:groupContext="shape" v:layerMember="0"
				transform="translate(50.5039,-365.675) rotate(0.19051)">
			<title>Message.right</title>
			<v:userDefs>
				<v:ud v:nameU="State" v:val="VT0(2):26"/>
				<v:ud v:nameU="LostFound" v:val="VT0(0):26"/>
			</v:userDefs>
			<path d="M0 473.95 L170.11 473.95" class="st9"/>
		</g>
		<g id="group40-36" transform="translate(184.494,-323.158)" v:mID="40" v:groupContext="group" v:layerMember="0">
			<v:userDefs>
				<v:ud v:nameU="F" v:val="VT0(1):26"/>
				<v:ud v:nameU="Format" v:val="VT0(0):26"/>
				<v:ud v:nameU="ActiveObject" v:prompt="0,0626" v:val="VT0(0):26"/>
			</v:userDefs>
			<title>Object</title>
			<g id="shape41-37" v:mID="41" v:groupContext="shape" v:layerMember="0" transform="translate(97.4043,0)">
				<title>Sheet.41</title>
				<path d="M0 473.95 L0 437.95 L0 473.95 Z" class="st11"/>
			</g>
			<g id="shape42-40" v:mID="42" v:groupContext="shape" v:layerMember="0">
				<title>Sheet.42</title>
				<path d="M97.4 473.95 L0 473.95 L97.4 473.95 Z" class="st11"/>
			</g>
			<g id="shape43-43" v:mID="43" v:groupContext="shape" v:layerMember="0">
				<title>Sheet.43</title>
				<path d="M97.4 473.95 L0 473.95 L97.4 473.95 Z" class="st11"/>
			</g>
			<g id="shape44-46" v:mID="44" v:groupContext="shape" v:layerMember="0">
				<title>Sheet.44</title>
				<path d="M97.4 473.95 L0 473.95 L97.4 473.95 Z" class="st11"/>
			</g>
			<g id="shape45-49" v:mID="45" v:groupContext="shape" v:layerMember="0">
				<title>Sheet.45</title>
				<desc>Start timeout timer</desc>
				<v:userDefs>
					<v:ud v:nameU="TabSize" v:val="VT0(0.125):0"/>
				</v:userDefs>
				<v:textBlock v:margins="rect(4,4,4,4)" v:tabSpace="42.5197"/>
				<v:textRect cx="48.7022" cy="455.949" width="97.41" height="36"/>
				<path d="M97.4 473.95 L97.4 437.95 L0 437.95 L0 473.95 L97.4 473.95 ZM0 473.95 L0 437.95 L0 473.95 ZM97.4 437.95
							 L97.4 473.95 L97.4 437.95 Z" class="st11"/>
				<path d="M97.4 473.95 L97.4 437.95" class="st12"/>
				<path d="M0 473.95 L0 437.95" class="st12"/>
				<path d="M0 437.95 L97.4 437.95" class="st12"/>
				<path d="M0 473.95 L97.4 473.95" class="st12"/>
				<text x="7.86" y="458.95" class="st7" v:langID="1044"><v:paragraph v:horizAlign="1"/><v:tabList/>Start timeout timer</text>			</g>
		</g>
		<g id="group46-56" transform="translate(172.293,-279.049)" v:mID="46" v:groupContext="group" v:layerMember="0">
			<v:userDefs>
				<v:ud v:nameU="F" v:val="VT0(1):26"/>
				<v:ud v:nameU="Format" v:val="VT0(0):26"/>
				<v:ud v:nameU="ActiveObject" v:prompt="0,0626" v:val="VT0(0):26"/>
			</v:userDefs>
			<title>Object.46</title>
			<g id="shape47-57" v:mID="47" v:groupContext="shape" v:layerMember="0" transform="translate(121.806,0)">
				<title>Sheet.47</title>
				<path d="M0 473.95 L0 437.95 L0 473.95 Z" class="st11"/>
			</g>
			<g id="shape48-60" v:mID="48" v:groupContext="shape" v:layerMember="0">
				<title>Sheet.48</title>
				<path d="M121.81 473.95 L0 473.95 L121.81 473.95 Z" class="st11"/>
			</g>
			<g id="shape49-63" v:mID="49" v:groupContext="shape" v:layerMember="0">
				<title>Sheet.49</title>
				<path d="M121.81 473.95 L0 473.95 L121.81 473.95 Z" class="st11"/>
			</g>
			<g id="shape50-66" v:mID="50" v:groupContext="shape" v:layerMember="0">
				<title>Sheet.50</title>
				<path d="M121.81 473.95 L0 473.95 L121.81 473.95 Z" class="st11"/>
			</g>
			<g id="shape51-69" v:mID="51" v:groupContext="shape" v:layerMember="0">
				<title>Sheet.51</title>
				<desc>Start_reflector(&#60;mode&#62;...</desc>
				<v:userDefs>
					<v:ud v:nameU="TabSize" v:val="VT0(0.125):0"/>
				</v:userDefs>
				<v:textBlock v:margins="rect(4,4,4,4)" v:tabSpace="42.5197"/>
				<v:textRect cx="60.9031" cy="455.949" width="121.81" height="36"/>
				<path d="M121.81 473.95 L121.81 437.95 L0 437.95 L0 473.95 L121.81 473.95 ZM0 473.95 L0 437.95 L0 473.95 ZM121.81
							 437.95 L121.81 473.95 L121.81 437.95 Z" class="st11"/>
				<path d="M121.81 473.95 L121.81 437.95" class="st12"/>
				<path d="M0 473.95 L0 437.95" class="st12"/>
				<path d="M0 437.95 L121.81 437.95" class="st12"/>
				<path d="M0 473.95 L121.81 473.95" class="st12"/>
				<text x="5.32" y="458.95" class="st7" v:langID="1044"><v:paragraph v:horizAlign="1"/><v:tabList/>Start_reflector(&#60;mode&#62;...</text>			</g>
		</g>
		<g id="shape52-76" v:mID="52" v:groupContext="shape" v:layerMember="0" transform="translate(236.797,-270.552)">
			<title>Message.right.52</title>
			<v:userDefs>
				<v:ud v:nameU="State" v:val="VT0(2):26"/>
				<v:ud v:nameU="LostFound" v:val="VT0(0):26"/>
			</v:userDefs>
			<path d="M0 473.95 L163.92 473.95" class="st9"/>
		</g>
		<g id="shape53-81" v:mID="53" v:groupContext="shape" transform="translate(297.247,-271.462)">
			<title>Sheet.53</title>
			<desc>Sync(&#60;mode&#62; &#60;timeout&#62;)</desc>
			<v:textBlock v:margins="rect(4,4,4,0)" v:tabSpace="42.5197" v:verticalAlign="2"/>
			<v:textRect cx="60.9031" cy="464.125" width="121.81" height="19.649"/>
			<rect x="0" y="454.3" width="121.806" height="19.649" class="st6"/>
			<text x="0" y="466.95" class="st7" v:langID="1044"><v:paragraph/><v:tabList/>Sync(&#60;mode&#62; &#60;timeout&#62;)</text>		</g>
		<g id="group54-84" transform="translate(365.13,-225.638)" v:mID="54" v:groupContext="group" v:layerMember="0">
			<v:userDefs>
				<v:ud v:nameU="F" v:val="VT0(1):26"/>
				<v:ud v:nameU="Format" v:val="VT0(0):26"/>
				<v:ud v:nameU="ActiveObject" v:prompt="0,0626" v:val="VT0(0):26"/>
			</v:userDefs>
			<title>Object.54</title>
			<g id="shape55-85" v:mID="55" v:groupContext="shape" v:layerMember="0" transform="translate(97.4043,0)">
				<title>Sheet.55</title>
				<path d="M0 473.95 L0 437.95 L0 473.95 Z" class="st11"/>
			</g>
			<g id="shape56-88" v:mID="56" v:groupContext="shape" v:layerMember="0">
				<title>Sheet.56</title>
				<path d="M97.4 473.95 L0 473.95 L97.4 473.95 Z" class="st11"/>
			</g>
			<g id="shape57-91" v:mID="57" v:groupContext="shape" v:layerMember="0">
				<title>Sheet.57</title>
				<path d="M97.4 473.95 L0 473.95 L97.4 473.95 Z" class="st11"/>
			</g>
			<g id="shape58-94" v:mID="58" v:groupContext="shape" v:layerMember="0">
				<title>Sheet.58</title>
				<path d="M97.4 473.95 L0 473.95 L97.4 473.95 Z" class="st11"/>
			</g>
			<g id="shape59-97" v:mID="59" v:groupContext="shape" v:layerMember="0">
				<title>Sheet.59</title>
				<desc>Start timeout timer</desc>
				<v:userDefs>
					<v:ud v:nameU="TabSize" v:val="VT0(0.125):0"/>
				</v:userDefs>
				<v:textBlock v:margins="rect(4,4,4,4)" v:tabSpace="42.5197"/>
				<v:textRect cx="48.7022" cy="455.949" width="97.41" height="36"/>
				<path d="M97.4 473.95 L97.4 437.95 L0 437.95 L0 473.95 L97.4 473.95 ZM0 473.95 L0 437.95 L0 473.95 ZM97.4 437.95
							 L97.4 473.95 L97.4 437.95 Z" class="st11"/>
				<path d="M97.4 473.95 L97.4 437.95" class="st12"/>
				<path d="M0 473.95 L0 437.95" class="st12"/>
				<path d="M0 437.95 L97.4 437.95" class="st12"/>
				<path d="M0 473.95 L97.4 473.95" class="st12"/>
				<text x="7.86" y="458.95" class="st7" v:langID="1044"><v:paragraph v:horizAlign="1"/><v:tabList/>Start timeout timer</text>			</g>
		</g>
		<g id="group60-104" transform="translate(352.929,-181.305)" v:mID="60" v:groupContext="group" v:layerMember="0">
			<v:userDefs>
				<v:ud v:nameU="F" v:val="VT0(1):26"/>
				<v:ud v:nameU="Format" v:val="VT0(0):26"/>
				<v:ud v:nameU="ActiveObject" v:prompt="0,0626" v:val="VT0(0):26"/>
			</v:userDefs>
			<title>Object.60</title>
			<g id="shape61-105" v:mID="61" v:groupContext="shape" v:layerMember="0" transform="translate(121.806,0)">
				<title>Sheet.61</title>
				<path d="M0 473.95 L0 437.95 L0 473.95 Z" class="st11"/>
			</g>
			<g id="shape62-108" v:mID="62" v:groupContext="shape" v:layerMember="0">
				<title>Sheet.62</title>
				<path d="M121.81 473.95 L0 473.95 L121.81 473.95 Z" class="st11"/>
			</g>
			<g id="shape63-111" v:mID="63" v:groupContext="shape" v:layerMember="0">
				<title>Sheet.63</title>
				<path d="M121.81 473.95 L0 473.95 L121.81 473.95 Z" class="st11"/>
			</g>
			<g id="shape64-114" v:mID="64" v:groupContext="shape" v:layerMember="0">
				<title>Sheet.64</title>
				<path d="M121.81 473.95 L0 473.95 L121.81 473.95 Z" class="st11"/>
			</g>
			<g id="shape65-117" v:mID="65" v:groupContext="shape" v:layerMember="0">
				<title>Sheet.65</title>
				<desc>Start_initiator(&#60;mode&#62;...</desc>
				<v:userDefs>
					<v:ud v:nameU="TabSize" v:val="VT0(0.125):0"/>
				</v:userDefs>
				<v:textBlock v:margins="rect(4,4,4,4)" v:tabSpace="42.5197"/>
				<v:textRect cx="60.9031" cy="455.949" width="121.81" height="36"/>
				<path d="M121.81 473.95 L121.81 437.95 L0 437.95 L0 473.95 L121.81 473.95 ZM0 473.95 L0 437.95 L0 473.95 ZM121.81
							 437.95 L121.81 473.95 L121.81 437.95 Z" class="st11"/>
				<path d="M121.81 473.95 L121.81 437.95" class="st12"/>
				<path d="M0 473.95 L0 437.95" class="st12"/>
				<path d="M0 437.95 L121.81 437.95" class="st12"/>
				<path d="M0 473.95 L121.81 473.95" class="st12"/>
				<text x="7.26" y="458.95" class="st7" v:langID="1044"><v:paragraph v:horizAlign="1"/><v:tabList/>Start_initiator(&#60;mode&#62;...</text>			</g>
		</g>
		<g id="group66-124" transform="translate(192.339,-133.035)" v:mID="66" v:groupContext="group" v:layerMember="0">
			<v:userDefs>
				<v:ud v:nameU="F" v:val="VT0(1):26"/>
				<v:ud v:nameU="Format" v:val="VT0(0):26"/>
				<v:ud v:nameU="ActiveObject" v:prompt="0,0626" v:val="VT0(0):26"/>
			</v:userDefs>
			<title>Object.66</title>
			<g id="shape67-125" v:mID="67" v:groupContext="shape" v:layerMember="0" transform="translate(257.953,0)">
				<title>Sheet.67</title>
				<path d="M0 473.95 L0 437.95 L0 473.95 Z" class="st11"/>
			</g>
			<g id="shape68-128" v:mID="68" v:groupContext="shape" v:layerMember="0">
				<title>Sheet.68</title>
				<path d="M257.95 473.95 L0 473.95 L257.95 473.95 Z" class="st11"/>
			</g>
			<g id="shape69-131" v:mID="69" v:groupContext="shape" v:layerMember="0">
				<title>Sheet.69</title>
				<path d="M257.95 473.95 L0 473.95 L257.95 473.95 Z" class="st11"/>
			</g>
			<g id="shape70-134" v:mID="70" v:groupContext="shape" v:layerMember="0">
				<title>Sheet.70</title>
				<path d="M257.95 473.95 L0 473.95 L257.95 473.95 Z" class="st11"/>
			</g>
			<g id="shape71-137" v:mID="71" v:groupContext="shape" v:layerMember="0">
				<title>Sheet.71</title>
				<desc>Ranging complete</desc>
				<v:userDefs>
					<v:ud v:nameU="TabSize" v:val="VT0(0.125):0"/>
				</v:userDefs>
				<v:textBlock v:margins="rect(4,4,4,4)" v:tabSpace="42.5197"/>
				<v:textRect cx="128.976" cy="455.949" width="257.96" height="36"/>
				<path d="M257.95 473.95 L257.95 437.95 L0 437.95 L0 473.95 L257.95 473.95 ZM0 473.95 L0 437.95 L0 473.95 ZM257.95
							 437.95 L257.95 473.95 L257.95 437.95 Z" class="st11"/>
				<path d="M257.95 473.95 L257.95 437.95" class="st12"/>
				<path d="M0 473.95 L0 437.95" class="st12"/>
				<path d="M0 437.95 L257.95 437.95" class="st12"/>
				<path d="M0 473.95 L257.95 473.95" class="st12"/>
				<text x="88.67" y="458.95" class="st7" v:langID="1044"><v:paragraph v:horizAlign="1"/><v:tabList/>Ranging complete</text>			</g>
		</g>
		<g id="group72-144" transform="translate(184.494,-86.6884)" v:mID="72" v:groupContext="group" v:layerMember="0">
			<v:userDefs>
				<v:ud v:nameU="F" v:val="VT0(1):26"/>
				<v:ud v:nameU="Format" v:val="VT0(0):26"/>
				<v:ud v:nameU="ActiveObject" v:prompt="0,0626" v:val="VT0(0):26"/>
			</v:userDefs>
			<title>Object.72</title>
			<g id="shape73-145" v:mID="73" v:groupContext="shape" v:layerMember="0" transform="translate(97.4043,0)">
				<title>Sheet.73</title>
				<path d="M0 473.95 L0 437.95 L0 473.95 Z" class="st11"/>
			</g>
			<g id="shape74-148" v:mID="74" v:groupContext="shape" v:layerMember="0">
				<title>Sheet.74</title>
				<path d="M97.4 473.95 L0 473.95 L97.4 473.95 Z" class="st11"/>
			</g>
			<g id="shape75-151" v:mID="75" v:groupContext="shape" v:layerMember="0">
				<title>Sheet.75</title>
				<path d="M97.4 473.95 L0 473.95 L97.4 473.95 Z" class="st11"/>
			</g>
			<g id="shape76-154" v:mID="76" v:groupContext="shape" v:layerMember="0">
				<title>Sheet.76</title>
				<path d="M97.4 473.95 L0 473.95 L97.4 473.95 Z" class="st11"/>
			</g>
			<g id="shape77-157" v:mID="77" v:groupContext="shape" v:layerMember="0">
				<title>Sheet.77</title>
				<desc>Store result</desc>
				<v:userDefs>
					<v:ud v:nameU="TabSize" v:val="VT0(0.125):0"/>
				</v:userDefs>
				<v:textBlock v:margins="rect(4,4,4,4)" v:tabSpace="42.5197"/>
				<v:textRect cx="48.7022" cy="455.949" width="97.41" height="36"/>
				<path d="M97.4 473.95 L97.4 437.95 L0 437.95 L0 473.95 L97.4 473.95 ZM0 473.95 L0 437.95 L0 473.95 ZM97.4 437.95
							 L97.4 473.95 L97.4 437.95 Z" class="st11"/>
				<path d="M97.4 473.95 L97.4 437.95" class="st12"/>
				<path d="M0 473.95 L0 437.95" class="st12"/>
				<path d="M0 437.95 L97.4 437.95" class="st12"/>
				<path d="M0 473.95 L97.4 473.95" class="st12"/>
				<text x="23.14" y="458.95" class="st7" v:langID="1044"><v:paragraph v:horizAlign="1"/><v:tabList/>Store result</text>			</g>
		</g>
		<g id="group78-164" transform="translate(365.13,-84.7645)" v:mID="78" v:groupContext="group" v:layerMember="0">
			<v:userDefs>
				<v:ud v:nameU="F" v:val="VT0(1):26"/>
				<v:ud v:nameU="Format" v:val="VT0(0):26"/>
				<v:ud v:nameU="ActiveObject" v:prompt="0,0626" v:val="VT0(0):26"/>
			</v:userDefs>
			<title>Object.78</title>
			<g id="shape79-165" v:mID="79" v:groupContext="shape" v:layerMember="0" transform="translate(97.4043,0)">
				<title>Sheet.79</title>
				<path d="M0 473.95 L0 437.95 L0 473.95 Z" class="st11"/>
			</g>
			<g id="shape80-168" v:mID="80" v:groupContext="shape" v:layerMember="0">
				<title>Sheet.80</title>
				<path d="M97.4 473.95 L0 473.95 L97.4 473.95 Z" class="st11"/>
			</g>
			<g id="shape81-171" v:mID="81" v:groupContext="shape" v:layerMember="0">
				<title>Sheet.81</title>
				<path d="M97.4 473.95 L0 473.95 L97.4 473.95 Z" class="st11"/>
			</g>
			<g id="shape82-174" v:mID="82" v:groupContext="shape" v:layerMember="0">
				<title>Sheet.82</title>
				<path d="M97.4 473.95 L0 473.95 L97.4 473.95 Z" class="st11"/>
			</g>
			<g id="shape83-177" v:mID="83" v:groupContext="shape" v:layerMember="0">
				<title>Sheet.83</title>
				<desc>Store result</desc>
				<v:userDefs>
					<v:ud v:nameU="TabSize" v:val="VT0(0.125):0"/>
				</v:userDefs>
				<v:textBlock v:margins="rect(4,4,4,4)" v:tabSpace="42.5197"/>
				<v:textRect cx="48.7022" cy="455.949" width="97.41" height="36"/>
				<path d="M97.4 473.95 L97.4 437.95 L0 437.95 L0 473.95 L97.4 473.95 ZM0 473.95 L0 437.95 L0 473.95 ZM97.4 437.95
							 L97.4 473.95 L97.4 437.95 Z" class="st11"/>
				<path d="M97.4 473.95 L97.4 437.95" class="st12"/>
				<path d="M0 473.95 L0 437.95" class="st12"/>
				<path d="M0 437.95 L97.4 437.95" class="st12"/>
				<path d="M0 473.95 L97.4 473.95" class="st12"/>
				<text x="23.14" y="458.95" class="st7" v:langID="1044"><v:paragraph v:horizAlign="1"/><v:tabList/>Store result</text>			</g>
		</g>
		<g id="shape84-184" v:mID="84" v:groupContext="shape" v:layerMember="0" transform="translate(229.538,887.893) rotate(180)">
			<title>Message.left</title>
			<v:userDefs>
				<v:ud v:nameU="State" v:val="VT0(2):26"/>
				<v:ud v:nameU="LostFound" v:val="VT0(0):26"/>
			</v:userDefs>
			<path d="M0 473.95 L170.86 473.95" class="st9"/>
		</g>
		<g id="shape85-189" v:mID="85" v:groupContext="shape" transform="translate(77.6191,-62.0416)">
			<title>Sheet.85</title>
			<desc>Send_result(&#60;result&#62;)</desc>
			<v:textBlock v:margins="rect(4,4,4,0)" v:tabSpace="42.5197" v:verticalAlign="2"/>
			<v:textRect cx="60.9031" cy="464.125" width="121.81" height="19.649"/>
			<rect x="0" y="454.3" width="121.806" height="19.649" class="st6"/>
			<text x="0" y="466.95" class="st7" v:langID="1044"><v:paragraph/><v:tabList/>Send_result(&#60;result&#62;)</text>		</g>
	</g>
</svg>
