<?xml version="1.0" encoding="UTF-8" standalone="no"?>
<!DOCTYPE svg PUBLIC "-//W3C//DTD SVG 1.1//EN" "http://www.w3.org/Graphics/SVG/1.1/DTD/svg11.dtd">
<!-- Generated by Microsoft Visio, SVG Export asset_tracker_v2_cloud_module_hierarchy.svg Page-1 -->
<svg xmlns="http://www.w3.org/2000/svg" xmlns:xlink="http://www.w3.org/1999/xlink" xmlns:ev="http://www.w3.org/2001/xml-events"
		width="6.23696in" height="4.96872in" viewBox="0 0 449.061 357.748" xml:space="preserve" color-interpolation-filters="sRGB"
		class="st11">
	<style type="text/css">
	<![CDATA[
		.st1 {fill:#d9e1e2;stroke:none;stroke-linecap:butt;stroke-width:1}
		.st2 {fill:#000000;font-family:Arial;font-size:1.00001em}
		.st3 {fill:#00a9ce;stroke:none;stroke-linecap:butt;stroke-width:1}
		.st4 {fill:#feffff;font-family:Arial;font-size:1.00001em}
		.st5 {fill:#f58220;stroke:none;stroke-linecap:butt;stroke-width:1}
		.st6 {fill:none;stroke:none;stroke-linecap:butt;stroke-width:1}
		.st7 {marker-end:url(#mrkr13-36);marker-start:url(#mrkr13-34);stroke:#000000;stroke-linecap:butt;stroke-width:1}
		.st8 {fill:#000000;fill-opacity:1;stroke:#000000;stroke-opacity:1;stroke-width:0.28409090909091}
		.st9 {fill:#00a9ce;stroke:none;stroke-width:1}
		.st10 {fill:#f58220;stroke:none;stroke-width:1}
		.st11 {fill:none;fill-rule:evenodd;font-size:12px;overflow:visible;stroke-linecap:square;stroke-miterlimit:3}
	]]>
	</style>

	<defs id="Markers">
		<g id="lend13">
			<path d="M 3 1 L 0 0 L 3 -1 L 3 1 " style="stroke:none"/>
		</g>
		<marker id="mrkr13-34" class="st8" refX="10.2" orient="auto" markerUnits="strokeWidth" overflow="visible">
			<use xlink:href="#lend13" transform="scale(3.52) "/>
		</marker>
		<marker id="mrkr13-36" class="st8" refX="-10.56" orient="auto" markerUnits="strokeWidth" overflow="visible">
			<use xlink:href="#lend13" transform="scale(-3.52,-3.52) "/>
		</marker>
	</defs>
	<g>
		<title>Page-1</title>
		<g id="shape5-1" transform="translate(153.799,-257.03)">
			<title>Sheet.5</title>
			<desc>cloud_module</desc>
			<rect x="0" y="258.03" width="111.563" height="99.7179" class="st1"/>
			<text x="18.42" y="311.49" class="st2">cloud_module</text>		</g>
		<g id="shape17-4" transform="translate(153.799,-212.832)">
			<title>Sheet.17</title>
			<desc>cloud_wrapper.h</desc>
			<rect x="0" y="341.128" width="111.563" height="16.6197" class="st1"/>
			<text x="11.42" y="353.04" class="st2">cloud_wrapper.h</text>		</g>
		<g id="shape22-7" transform="translate(1,-119.943)">
			<title>Sheet.22</title>
			<desc>nrf_cloud_integration.c</desc>
			<rect x="0" y="307.889" width="132.957" height="49.859" class="st3"/>
			<text x="5.77" y="336.42" class="st4">nrf_cloud_integration.c</text>		</g>
		<g id="shape27-10" transform="translate(143.102,-119.943)">
			<title>Sheet.27</title>
			<desc>aws_iot_integration.c</desc>
			<rect x="0" y="307.889" width="132.957" height="49.859" class="st3"/>
			<text x="10.11" y="336.42" class="st4">aws_iot_integration.c</text>		</g>
		<g id="shape32-13" transform="translate(285.203,-119.943)">
			<title>Sheet.32</title>
			<desc>azure_iot_hub_integration.c</desc>
			<rect x="0" y="307.889" width="162.858" height="49.859" class="st3"/>
			<text x="7.37" y="336.42" class="st4">azure_iot_hub_integration.c</text>		</g>
		<g id="shape34-16" transform="translate(1,-62.9463)">
			<title>Sheet.34</title>
			<desc>nrf_cloud.h</desc>
			<rect x="0" y="333.238" width="132.957" height="24.5105" class="st5"/>
			<text x="36.79" y="349.09" class="st4">nrf_cloud.h</text>		</g>
		<g id="shape36-19" transform="translate(143.102,-62.9463)">
			<title>Sheet.36</title>
			<desc>aws_iot.h</desc>
			<rect x="0" y="333.238" width="132.957" height="24.5105" class="st5"/>
			<text x="41.13" y="349.09" class="st4">aws_iot.h</text>		</g>
		<g id="shape38-22" transform="translate(285.203,-62.9463)">
			<title>Sheet.38</title>
			<desc>azure_iot_hub.h</desc>
			<rect x="0" y="333.238" width="162.858" height="24.5105" class="st5"/>
			<text x="38.39" y="349.09" class="st4">azure_iot_hub.h</text>		</g>
		<g id="shape45-25" transform="translate(28.0943,-4.93819)">
			<title>Sheet.45</title>
			<desc>Client library APIs</desc>
			<rect x="0" y="345.782" width="105.863" height="11.9662" class="st6"/>
			<text x="0" y="355.37" class="st2">Client library APIs</text>		</g>
		<g id="shape54-28" transform="translate(202.494,-257.03)">
			<title>Dynamic connector</title>
			<path d="M7.09 367.95 L7.09 368.31 L7.09 374.77" class="st7"/>
		</g>
		<g id="shape55-37" transform="translate(28.0943,-27.6914)">
			<title>Sheet.55</title>
			<desc>Integration layers</desc>
			<rect x="0" y="345.782" width="100.293" height="11.9662" class="st6"/>
			<text x="0" y="355.37" class="st2">Integration layers</text>		</g>
		<g id="shape56-40" transform="translate(3.79893,-23.7532)">
			<title>Nordic Blue</title>
			<rect x="0" y="337.906" width="19.8425" height="19.8425" class="st9"/>
		</g>
		<g id="shape57-42" transform="translate(3.79893,-1)">
			<title>Nordic Fall</title>
			<rect x="0" y="337.906" width="19.8425" height="19.8425" class="st10"/>
		</g>
		<g id="shape58-44" transform="translate(209.58,-212.832)">
			<title>Dynamic connector.58</title>
			<path d="M0 367.95 L0 368.31 L0 381.77 L157.05 381.77 L157.05 390.22" class="st7"/>
		</g>
		<g id="shape59-51" transform="translate(202.494,-212.832)">
			<title>Dynamic connector.59</title>
			<path d="M7.09 367.95 L7.09 368.31 L7.09 390.22" class="st7"/>
		</g>
		<g id="shape60-58" transform="translate(209.58,-212.832)">
			<title>Dynamic connector.60</title>
			<path d="M0 367.95 L0 368.31 L0 381.77 L-142.1 381.77 L-142.1 390.22" class="st7"/>
		</g>
		<g id="shape61-65" transform="translate(60.392,-119.943)">
			<title>Dynamic connector.61</title>
			<path d="M7.09 367.95 L7.09 368.31 L7.09 376.69" class="st7"/>
		</g>
		<g id="shape62-72" transform="translate(202.211,-119.943)">
			<title>Dynamic connector.62</title>
			<path d="M7.09 367.95 L7.09 368.31 L7.09 376.69" class="st7"/>
		</g>
		<g id="shape63-79" transform="translate(359.546,-119.943)">
			<title>Dynamic connector.63</title>
			<path d="M7.09 367.95 L7.09 368.31 L7.09 376.69" class="st7"/>
		</g>
	</g>
</svg>
