<?xml version="1.0" encoding="UTF-8" standalone="no"?>
<!DOCTYPE svg PUBLIC "-//W3C//DTD SVG 1.1//EN" "http://www.w3.org/Graphics/SVG/1.1/DTD/svg11.dtd">
<!-- Generated by Microsoft Visio, SVG Export asset_tracker_v2_cloud_module_hierarchy.svg Page-1 -->
<svg xmlns="http://www.w3.org/2000/svg" xmlns:xlink="http://www.w3.org/1999/xlink" xmlns:ev="http://www.w3.org/2001/xml-events"
		width="7.59282in" height="5.46138in" viewBox="0 0 546.683 393.219" xml:space="preserve" color-interpolation-filters="sRGB"
		class="st14">
	<style type="text/css">
	<![CDATA[
		.st1 {fill:#d9e1e2;stroke:none;stroke-linecap:butt;stroke-width:1}
		.st2 {fill:#000000;font-family:Arial;font-size:1.00001em}
		.st3 {fill:#00a9ce;stroke:none;stroke-linecap:butt;stroke-width:1}
		.st4 {fill:#feffff;font-family:Arial;font-size:1.00001em}
		.st5 {fill:#f58220;stroke:none;stroke-linecap:butt;stroke-width:1}
		.st6 {fill:none;stroke:none;stroke-linecap:butt;stroke-width:1}
		.st7 {marker-end:url(#mrkr13-36);marker-start:url(#mrkr13-34);stroke:#000000;stroke-linecap:butt;stroke-width:1}
		.st8 {fill:#000000;fill-opacity:1;stroke:#000000;stroke-opacity:1;stroke-width:0.28409090909091}
		.st9 {fill:#00a9ce;stroke:none;stroke-width:1}
		.st10 {fill:#f58220;stroke:none;stroke-width:1}
		.st11 {marker-end:url(#mrkr13-91);stroke:#333f48;stroke-linecap:butt;stroke-width:1}
		.st12 {fill:#333f48;fill-opacity:1;stroke:#333f48;stroke-opacity:1;stroke-width:0.28409090909091}
		.st13 {font-size:1em}
		.st14 {fill:none;fill-rule:evenodd;font-size:12px;overflow:visible;stroke-linecap:square;stroke-miterlimit:3}
	]]>
	</style>

	<defs id="Markers">
		<g id="lend13">
			<path d="M 3 1 L 0 0 L 3 -1 L 3 1 " style="stroke:none"/>
		</g>
		<marker id="mrkr13-34" class="st8" refX="10.2" orient="auto" markerUnits="strokeWidth" overflow="visible">
			<use xlink:href="#lend13" transform="scale(3.52) "/>
		</marker>
		<marker id="mrkr13-36" class="st8" refX="-10.56" orient="auto" markerUnits="strokeWidth" overflow="visible">
			<use xlink:href="#lend13" transform="scale(-3.52,-3.52) "/>
		</marker>
		<marker id="mrkr13-91" class="st12" refX="-10.56" orient="auto" markerUnits="strokeWidth" overflow="visible">
			<use xlink:href="#lend13" transform="scale(-3.52,-3.52) "/>
		</marker>
	</defs>
	<g>
		<title>Page-1</title>
		<g id="shape87-1" transform="translate(200.471,-292.501)">
			<title>Sheet.87</title>
			<desc>cloud_module</desc>
			<rect x="0" y="293.501" width="111.563" height="99.7179" class="st1"/>
			<text x="18.42" y="346.96" class="st2">cloud_module</text>		</g>
		<g id="shape88-4" transform="translate(200.471,-248.303)">
			<title>Sheet.88</title>
			<desc>cloud_wrapper.h</desc>
			<rect x="0" y="376.599" width="111.563" height="16.6197" class="st1"/>
			<text x="11.42" y="388.51" class="st2">cloud_wrapper.h</text>		</g>
		<g id="shape89-7" transform="translate(1,-155.414)">
			<title>Sheet.89</title>
			<desc>nrf_cloud_integration.c</desc>
			<rect x="0" y="343.36" width="132.957" height="49.859" class="st3"/>
			<text x="5.77" y="371.89" class="st4">nrf_cloud_integration.c</text>		</g>
		<g id="shape90-10" transform="translate(141.179,-155.414)">
			<title>Sheet.90</title>
			<desc>aws_iot_integration.c</desc>
			<rect x="0" y="343.36" width="119.325" height="49.859" class="st3"/>
			<text x="3.29" y="371.89" class="st4">aws_iot_integration.c</text>		</g>
		<g id="shape91-13" transform="translate(267.321,-155.414)">
			<title>Sheet.91</title>
			<desc>azure_iot_hub_integration.c</desc>
			<rect x="0" y="343.36" width="155.055" height="49.859" class="st3"/>
			<text x="3.47" y="371.89" class="st4">azure_iot_hub_integration.c</text>		</g>
		<g id="shape92-16" transform="translate(1,-87.353)">
			<title>Sheet.92</title>
			<desc>nRF Cloud</desc>
			<rect x="0" y="357.644" width="132.957" height="35.5748" class="st5"/>
			<text x="37.8" y="379.03" class="st4">nRF Cloud</text>		</g>
		<g id="shape93-19" transform="translate(141.179,-87.353)">
			<title>Sheet.93</title>
			<desc>AWS IoT</desc>
			<rect x="0" y="357.644" width="119.325" height="35.5748" class="st5"/>
			<text x="35.66" y="379.03" class="st4">AWS IoT</text>		</g>
		<g id="shape94-22" transform="translate(267.321,-87.353)">
			<title>Sheet.94</title>
			<desc>Azure IoT Hub</desc>
			<rect x="0" y="357.644" width="155.055" height="35.5748" class="st5"/>
			<text x="38.84" y="379.03" class="st4">Azure IoT Hub</text>		</g>
		<g id="shape95-25" transform="translate(27.1638,-4.93819)">
			<title>Sheet.95</title>
			<desc>Client libraries</desc>
			<rect x="0" y="381.253" width="105.863" height="11.9662" class="st6"/>
			<text x="0" y="390.84" class="st2">Client libraries</text>		</g>
		<g id="shape96-28" transform="translate(249.166,-292.501)">
			<title>Dynamic connector</title>
			<path d="M7.09 403.42 L7.09 403.78 L7.09 410.24" class="st7"/>
		</g>
		<g id="shape97-37" transform="translate(27.1638,-27.6914)">
			<title>Sheet.97</title>
			<desc>Integration layers</desc>
			<rect x="0" y="381.253" width="100.293" height="11.9662" class="st6"/>
			<text x="0" y="390.84" class="st2">Integration layers</text>		</g>
		<g id="shape98-40" transform="translate(2.86841,-23.7532)">
			<title>Nordic Blue</title>
			<rect x="0" y="373.377" width="19.8425" height="19.8425" class="st9"/>
		</g>
		<g id="shape99-42" transform="translate(2.86841,-1)">
			<title>Nordic Fall</title>
			<rect x="0" y="373.377" width="19.8425" height="19.8425" class="st10"/>
		</g>
		<g id="shape100-44" transform="translate(256.252,-248.303)">
			<title>Dynamic connector.58</title>
			<path d="M0 403.42 L0 403.78 L0 412.3 L88.6 412.3 L88.6 425.69" class="st7"/>
		</g>
		<g id="shape101-51" transform="translate(256.252,-248.303)">
			<title>Dynamic connector.59</title>
			<path d="M0 403.42 L0 403.78 L0 412.23 L-55.41 412.23 L-55.41 425.69" class="st7"/>
		</g>
		<g id="shape102-58" transform="translate(256.252,-248.303)">
			<title>Dynamic connector.60</title>
			<path d="M0 403.42 L0 403.78 L0 412.23 L-188.77 412.23 L-188.77 425.69" class="st7"/>
		</g>
		<g id="shape103-65" transform="translate(60.392,-155.414)">
			<title>Dynamic connector.61</title>
			<path d="M7.09 403.42 L7.09 403.78 L7.09 415.15" class="st7"/>
		</g>
		<g id="shape104-72" transform="translate(193.755,-155.414)">
			<title>Dynamic connector.62</title>
			<path d="M7.09 403.42 L7.09 403.78 L7.09 415.15" class="st7"/>
		</g>
		<g id="shape105-79" transform="translate(340.397,-155.414)">
			<title>Dynamic connector.63</title>
			<path d="M7.04 403.42 L7.04 403.78 L7.13 415.15" class="st7"/>
		</g>
		<g id="shape106-86" transform="translate(344.781,-229.227)">
			<title>Dynamic connector.64</title>
			<path d="M0 393.22 L141.24 393.22 L141.24 406.61" class="st11"/>
		</g>
		<g id="shape107-92" transform="translate(426.359,-155.414)">
			<title>Sheet.107</title>
			<desc>lwm2m_integration.c</desc>
			<rect x="0" y="343.36" width="119.325" height="49.859" class="st3"/>
			<text x="4.64" y="371.89" class="st4">lwm2m_integration.c</text>		</g>
		<g id="shape108-95" transform="translate(426.359,-87.353)">
			<title>Sheet.108</title>
			<desc>LwM2M Client Utils/ Zephyr LwM2M</desc>
			<rect x="0" y="357.644" width="119.325" height="35.5748" class="st5"/>
			<text x="6.65" y="371.83" class="st4">LwM2M Client Utils/ <tspan x="18.32" dy="1.2em" class="st13">Zephyr LwM2M</tspan></text>		</g>
		<g id="shape109-99" transform="translate(479.282,-155.414)">
			<title>Dynamic connector.67</title>
			<path d="M6.96 403.42 L6.96 403.78 L7.21 415.15" class="st7"/>
		</g>
	</g>
</svg>
