<?xml version="1.0" encoding="UTF-8" standalone="no"?>
<!DOCTYPE svg PUBLIC "-//W3C//DTD SVG 1.1//EN" "http://www.w3.org/Graphics/SVG/1.1/DTD/svg11.dtd">
<!-- Generated by Microsoft Visio, SVG Export asset_tracker_v2_passive_state.svg Page-1 -->
<svg xmlns="http://www.w3.org/2000/svg" xmlns:xlink="http://www.w3.org/1999/xlink" xmlns:ev="http://www.w3.org/2001/xml-events"
		xmlns:v="http://schemas.microsoft.com/visio/2003/SVGExtensions/" width="7.26439in" height="2.81671in"
		viewBox="0 0 523.036 202.803" xml:space="preserve" color-interpolation-filters="sRGB" class="st14">
	<v:documentProperties v:langID="1035" v:viewMarkup="false"/>

	<style type="text/css">
	<![CDATA[
		.st1 {fill:#00a9ce;stroke:none;stroke-width:1}
		.st2 {fill:#ffffff;font-family:Calibri;font-size:0.833336em}
		.st3 {font-size:1em}
		.st4 {fill:#d9e1e2;stroke:none;stroke-width:1}
		.st5 {fill:#333f48;font-family:Calibri;font-size:0.833336em}
		.st6 {fill:#0077c8;stroke:none;stroke-width:1}
		.st7 {fill:#feffff;font-family:Calibri;font-size:0.833336em}
		.st8 {fill:#d0df00;stroke:none;stroke-width:1}
		.st9 {fill:#333f48;font-family:Calibri;font-size:0.666664em}
		.st10 {fill:#6ad1e3;stroke:none;stroke-width:1}
		.st11 {marker-start:url(#mrkr13-30);stroke:#333f48;stroke-linecap:butt;stroke-width:1}
		.st12 {fill:#333f48;fill-opacity:1;stroke:#333f48;stroke-opacity:1;stroke-width:0.28409090909091}
		.st13 {fill:none;stroke:none;stroke-width:1}
		.st14 {fill:none;fill-rule:evenodd;font-size:12px;overflow:visible;stroke-linecap:square;stroke-miterlimit:3}
	]]>
	</style>

	<defs id="Markers">
		<g id="lend13">
			<path d="M 3 1 L 0 0 L 3 -1 L 3 1 " style="stroke:none"/>
		</g>
		<marker id="mrkr13-30" class="st12" v:arrowType="13" v:arrowSize="2" v:setback="10.2" refX="10.2" orient="auto"
				markerUnits="strokeWidth" overflow="visible">
			<use xlink:href="#lend13" transform="scale(3.52) "/>
		</marker>
	</defs>
	<g v:mID="0" v:index="1" v:groupContext="foregroundPage">
		<title>Page-1</title>
		<v:pageProperties v:drawingScale="0.0393701" v:pageScale="0.0393701" v:drawingUnits="24" v:shadowOffsetX="8.50394"
				v:shadowOffsetY="-8.50394"/>
		<v:layer v:name="Connector" v:index="0"/>
		<g id="shape186-1" v:mID="186" v:groupContext="shape" transform="translate(235.88,-130.959)">
			<title>Circle.213</title>
			<desc>Sample data (fill data buffers)</desc>
			<v:userDefs>
				<v:ud v:nameU="visVersion" v:val="VT0(15):26"/>
				<v:ud v:nameU="visMasterStencil" v:prompt="" v:val="VT4(Basic_M.vssx)"/>
			</v:userDefs>
			<v:textBlock v:margins="rect(4,4,4,4)" v:tabSpace="42.5197"/>
			<v:textRect cx="35.4219" cy="167.381" width="61.99" height="53.1329"/>
			<path d="M0 167.38 A35.4219 35.4219 0 0 1 70.84 167.38 A35.4219 35.4219 0 0 1 0 167.38 Z" class="st1"/>
			<text x="10.25" y="158.38" class="st2" v:langID="1033"><v:paragraph v:horizAlign="1"/><v:tabList/>Sample data<v:newlineChar/><tspan
						x="18.72" dy="1.2em" class="st3">(fill data </tspan><tspan x="19.41" dy="1.2em" class="st3">buffers)</tspan></text>		</g>
		<g id="shape187-6" v:mID="187" v:groupContext="shape" transform="translate(340.145,-130.959)">
			<title>Circle.155</title>
			<desc>In connected state?</desc>
			<v:userDefs>
				<v:ud v:nameU="visVersion" v:val="VT0(15):26"/>
				<v:ud v:nameU="visMasterStencil" v:prompt="" v:val="VT4(Basic_M.vssx)"/>
			</v:userDefs>
			<v:textBlock v:margins="rect(4,4,4,4)" v:tabSpace="42.5197"/>
			<v:textRect cx="35.4219" cy="167.381" width="61.99" height="53.1329"/>
			<path d="M0 167.38 A35.4219 35.4219 0 0 1 70.84 167.38 A35.4219 35.4219 0 0 1 0 167.38 Z" class="st4"/>
			<text x="9.01" y="164.38" class="st5" v:langID="1033"><v:paragraph v:horizAlign="1"/><v:tabList/>In connected <tspan
						x="22.92" dy="1.2em" class="st3">state?</tspan></text>		</g>
		<g id="shape188-10" v:mID="188" v:groupContext="shape" transform="translate(451.192,-130.959)">
			<title>Circle.156</title>
			<desc>Publish data (empty data buffers)</desc>
			<v:userDefs>
				<v:ud v:nameU="visVersion" v:val="VT0(15):26"/>
				<v:ud v:nameU="visMasterStencil" v:prompt="" v:val="VT4(Basic_M.vssx)"/>
			</v:userDefs>
			<v:textBlock v:margins="rect(4,4,4,4)" v:tabSpace="42.5197"/>
			<v:textRect cx="35.4219" cy="167.381" width="61.99" height="53.1329"/>
			<path d="M0 167.38 A35.4219 35.4219 0 0 1 70.84 167.38 A35.4219 35.4219 0 0 1 0 167.38 Z" class="st6"/>
			<text x="10.49" y="158.38" class="st7" v:langID="1033"><v:paragraph v:horizAlign="1"/><v:tabList/>Publish data <tspan
						x="10.64" dy="1.2em" class="st3">(empty data </tspan><tspan x="19.41" dy="1.2em" class="st3">buffers)</tspan></text>		</g>
		<g id="shape189-15" v:mID="189" v:groupContext="shape" transform="translate(340.145,-1)">
			<title>Circle.157</title>
			<desc>Start Movement resolution timer and wait for inactivity</desc>
			<v:userDefs>
				<v:ud v:nameU="visVersion" v:val="VT0(15):26"/>
				<v:ud v:nameU="visMasterStencil" v:prompt="" v:val="VT4(Basic_M.vssx)"/>
			</v:userDefs>
			<v:textBlock v:margins="rect(4,4,4,4)" v:tabSpace="42.5197"/>
			<v:textRect cx="35.4219" cy="167.381" width="61.99" height="53.1329"/>
			<path d="M0 167.38 A35.4219 35.4219 0 0 1 70.84 167.38 A35.4219 35.4219 0 0 1 0 167.38 Z" class="st8"/>
			<text x="8.74" y="155.38" class="st9" v:langID="1033"><v:paragraph v:horizAlign="1"/><v:tabList/>Start Movement<v:newlineChar/><tspan
						x="9.13" dy="1.2em" class="st3">resolution timer</tspan><tspan class="st3" v:langID="1044"> </tspan><tspan
						x="15.74" dy="1.2em" class="st3" v:langID="1044">and wait for </tspan><tspan x="20.66" dy="1.2em"
						class="st3" v:langID="1044">inactivity</tspan></text>		</g>
		<g id="shape190-22" v:mID="190" v:groupContext="shape" transform="translate(1,-130.959)">
			<title>Circle.158</title>
			<desc>Boot</desc>
			<v:userDefs>
				<v:ud v:nameU="visVersion" v:val="VT0(15):26"/>
				<v:ud v:nameU="visMasterStencil" v:prompt="" v:val="VT4(Basic_M.vssx)"/>
			</v:userDefs>
			<v:textBlock v:margins="rect(4,4,4,4)" v:tabSpace="42.5197"/>
			<v:textRect cx="35.4219" cy="167.381" width="61.99" height="53.1329"/>
			<path d="M0 167.38 A35.4219 35.4219 0 0 1 70.84 167.38 A35.4219 35.4219 0 0 1 0 167.38 Z" class="st10"/>
			<text x="25.75" y="170.38" class="st5" v:langID="1033"><v:paragraph v:horizAlign="1"/><v:tabList/>Boot</text>		</g>
		<g id="shape194-25" v:mID="194" v:groupContext="shape" v:layerMember="0" transform="translate(101.241,-159.294)">
			<title>Dynamic connector.162</title>
			<path d="M-10.2 195.72 L-10.56 195.72 L-29.4 195.72" class="st11"/>
		</g>
		<g id="shape197-31" v:mID="197" v:groupContext="shape" transform="translate(166.006,-40.399)">
			<title>Sheet.197</title>
			<desc>Timer expires</desc>
			<v:textBlock v:margins="rect(4,4,4,4)" v:tabSpace="42.5197"/>
			<v:textRect cx="37.6065" cy="195.28" width="75.22" height="15.0463"/>
			<rect x="0" y="187.757" width="75.2131" height="15.0463" class="st13"/>
			<text x="10.05" y="199.78" class="st5" v:langID="1033"><v:paragraph v:spLine="-1" v:horizAlign="1"/><v:tabList/>Timer expires</text>		</g>
		<g id="shape198-34" v:mID="198" v:groupContext="shape" transform="translate(413.865,-173.968)">
			<title>Sheet.198</title>
			<desc>Yes</desc>
			<v:textBlock v:margins="rect(4,4,4,4)" v:tabSpace="42.5197"/>
			<v:textRect cx="11.9816" cy="198.607" width="23.97" height="8.39136"/>
			<rect x="0" y="194.412" width="23.9632" height="8.39136" class="st13"/>
			<text x="5.1" y="204.01" class="st5" v:langID="1033"><v:paragraph v:horizAlign="1"/><v:tabList/>Yes</text>		</g>
		<g id="shape199-37" v:mID="199" v:groupContext="shape" transform="translate(375.567,-102.932)">
			<title>Sheet.199</title>
			<desc>No</desc>
			<v:textBlock v:margins="rect(4,4,4,4)" v:tabSpace="42.5197"/>
			<v:textRect cx="11.9816" cy="197.905" width="23.97" height="9.79563"/>
			<rect x="0" y="193.007" width="23.9632" height="9.79563" class="st13"/>
			<text x="6.12" y="200.91" class="st5" v:langID="1033"><v:paragraph v:horizAlign="1"/><v:tabList/>No</text>		</g>
		<g id="shape200-40" v:mID="200" v:groupContext="shape" transform="translate(101.241,-130.959)">
			<title>Circle.200</title>
			<desc>Wait for movement</desc>
			<v:userDefs>
				<v:ud v:nameU="visVersion" v:val="VT0(15):26"/>
				<v:ud v:nameU="visMasterStencil" v:prompt="" v:val="VT4(Basic_M.vssx)"/>
			</v:userDefs>
			<v:textBlock v:margins="rect(4,4,4,4)" v:tabSpace="42.5197"/>
			<v:textRect cx="35.4219" cy="167.381" width="61.99" height="53.1329"/>
			<path d="M0 167.38 A35.4219 35.4219 0 0 1 70.84 167.38 A35.4219 35.4219 0 0 1 0 167.38 Z" class="st4"/>
			<text x="18.72" y="164.38" class="st5" v:langID="1033"><v:paragraph v:horizAlign="1"/><v:tabList/>Wait for <tspan
						x="13.26" dy="1.2em" class="st3">movement</tspan></text>		</g>
		<g id="shape201-44" v:mID="201" v:groupContext="shape" v:layerMember="0" transform="translate(235.88,-159.294)">
			<title>Dynamic connector.201</title>
			<path d="M-10.2 195.72 L-10.56 195.72 L-63.8 195.72" class="st11"/>
		</g>
		<g id="shape202-49" v:mID="202" v:groupContext="shape" v:layerMember="0" transform="translate(340.145,-159.294)">
			<title>Dynamic connector.202</title>
			<path d="M-10.2 195.72 L-10.56 195.72 L-33.42 195.72" class="st11"/>
		</g>
		<g id="shape203-54" v:mID="203" v:groupContext="shape" v:layerMember="0" transform="translate(451.192,-159.294)">
			<title>Dynamic connector.203</title>
			<path d="M-10.2 195.72 L-10.56 195.72 L-40.2 195.72" class="st11"/>
		</g>
		<g id="shape204-59" v:mID="204" v:groupContext="shape" v:layerMember="0" transform="translate(368.48,-71.8438)">
			<title>Dynamic connector.204</title>
			<path d="M7.09 192.6 L7.09 192.24 L7.09 143.69" class="st11"/>
		</g>
		<g id="shape205-64" v:mID="205" v:groupContext="shape" v:layerMember="0" transform="translate(410.989,-36.4219)">
			<title>Dynamic connector.205</title>
			<path d="M10.2 202.8 L10.56 202.8 L75.62 202.8 L75.62 108.27" class="st11"/>
		</g>
		<g id="shape206-69" v:mID="206" v:groupContext="shape" v:layerMember="0" transform="translate(136.663,-130.959)">
			<title>Dynamic connector.206</title>
			<path d="M0 213 L0 213.36 L0 297.34 L203.48 297.34" class="st11"/>
		</g>
		<g id="shape207-74" v:mID="207" v:groupContext="shape" transform="translate(169.996,-170.64)">
			<title>Sheet.207</title>
			<desc>Movement</desc>
			<v:textBlock v:margins="rect(4,4,4,4)" v:tabSpace="42.5197"/>
			<v:textRect cx="30.1956" cy="195.28" width="60.4" height="15.0463"/>
			<rect x="0" y="187.757" width="60.3912" height="15.0463" class="st13"/>
			<text x="7.75" y="199.78" class="st5" v:langID="1033"><v:paragraph v:spLine="-1" v:horizAlign="1"/><v:tabList/>Movement</text>		</g>
		<g id="shape208-77" v:mID="208" v:groupContext="shape" v:layerMember="0" transform="translate(264.717,-130.959)">
			<title>Dynamic connector.208</title>
			<path d="M6.69 213 L6.7 213.36 L7.59 297.34" class="st11"/>
		</g>
		<g id="shape209-82" v:mID="209" v:groupContext="shape" transform="translate(263.045,-91.2017)">
			<title>Sheet.209</title>
			<desc>Inactivity detected</desc>
			<v:textBlock v:margins="rect(4,4,4,4)" v:tabSpace="42.5197"/>
			<v:textRect cx="37.6065" cy="195.28" width="75.22" height="15.0463"/>
			<rect x="0" y="187.757" width="75.2131" height="15.0463" class="st13"/>
			<text x="19.04" y="188.78" class="st5" v:langID="1044"><v:paragraph v:spLine="-1" v:horizAlign="1"/><v:tabList/>Inactivity <tspan
						x="19.42" dy="1.6em" class="st3">detected</tspan></text>		</g>
	</g>
</svg>
