<?xml version="1.0" encoding="UTF-8" standalone="no"?>
<!DOCTYPE svg PUBLIC "-//W3C//DTD SVG 1.1//EN" "http://www.w3.org/Graphics/SVG/1.1/DTD/svg11.dtd">
<!-- Generated by Microsoft Visio, SVG Export asset_tracker_v2_active_state.svg Page-1 -->
<svg xmlns="http://www.w3.org/2000/svg" xmlns:xlink="http://www.w3.org/1999/xlink" xmlns:ev="http://www.w3.org/2001/xml-events"
		width="4.87014in" height="4.52683in" viewBox="0 0 350.65 325.932" xml:space="preserve" color-interpolation-filters="sRGB"
		class="st13">
	<style type="text/css">
	<![CDATA[
		.st1 {fill:#00a9ce;stroke:none;stroke-width:1}
		.st2 {fill:#ffffff;font-family:Calibri;font-size:0.833336em}
		.st3 {font-size:1em}
		.st4 {fill:#d9e1e2;stroke:none;stroke-width:1}
		.st5 {fill:#333f48;font-family:Calibri;font-size:0.833336em}
		.st6 {fill:#0077c8;stroke:none;stroke-width:1}
		.st7 {fill:#feffff;font-family:Calibri;font-size:0.833336em}
		.st8 {fill:#d0df00;stroke:none;stroke-width:1}
		.st9 {fill:#6ad1e3;stroke:none;stroke-width:1}
		.st10 {marker-start:url(#mrkr13-28);stroke:#333f48;stroke-linecap:butt;stroke-width:1}
		.st11 {fill:#333f48;fill-opacity:1;stroke:#333f48;stroke-opacity:1;stroke-width:0.28409090909091}
		.st12 {fill:none;stroke:none;stroke-width:1}
		.st13 {fill:none;fill-rule:evenodd;font-size:12px;overflow:visible;stroke-linecap:square;stroke-miterlimit:3}
	]]>
	</style>

	<defs id="Markers">
		<g id="lend13">
			<path d="M 3 1 L 0 0 L 3 -1 L 3 1 " style="stroke:none"/>
		</g>
		<marker id="mrkr13-28" class="st11" refX="10.2" orient="auto" markerUnits="strokeWidth" overflow="visible">
			<use xlink:href="#lend13" transform="scale(3.52) "/>
		</marker>
	</defs>
	<g>
		<title>Page-1</title>
		<g id="shape154-1" transform="translate(1,-253.267)">
			<title>Circle.213</title>
			<desc>Sample data (fill data buffers)</desc>
			<path d="M0 290.1 A35.8322 35.8322 0 0 1 71.66 290.1 A35.8322 35.8322 0 1 1 0 290.1 Z" class="st1"/>
			<text x="10.66" y="281.1" class="st2">Sample data <tspan x="19.13" dy="1.2em" class="st3">(fill data </tspan><tspan
						x="19.82" dy="1.2em" class="st3">buffers)</tspan></text>		</g>
		<g id="shape155-6" transform="translate(139.493,-253.267)">
			<title>Circle.155</title>
			<desc>In connected state?</desc>
			<path d="M0 290.1 A35.8322 35.8322 0 0 1 71.66 290.1 A35.8322 35.8322 0 1 1 0 290.1 Z" class="st4"/>
			<text x="9.42" y="287.1" class="st5">In connected <tspan x="23.33" dy="1.2em" class="st3">state?</tspan></text>		</g>
		<g id="shape156-10" transform="translate(277.986,-253.267)">
			<title>Circle.156</title>
			<desc>Publish data (empty data buffers)</desc>
			<path d="M0 290.1 A35.8322 35.8322 0 0 1 71.66 290.1 A35.8322 35.8322 0 1 1 0 290.1 Z" class="st6"/>
			<text x="10.9" y="281.1" class="st7">Publish data <tspan x="11.05" dy="1.2em" class="st3">(empty data </tspan><tspan
						x="19.82" dy="1.2em" class="st3">buffers)</tspan></text>		</g>
		<g id="shape157-15" transform="translate(139.493,-112.92)">
			<title>Circle.157</title>
			<desc>Start Active wait timeout timer</desc>
			<path d="M0 290.1 A35.8322 35.8322 0 0 1 71.66 290.1 A35.8322 35.8322 0 1 1 0 290.1 Z" class="st8"/>
			<text x="12.34" y="281.1" class="st5">Start Active <tspan x="9.67" dy="1.2em" class="st3">wait timeout </tspan><tspan
						x="24.78" dy="1.2em" class="st3">timer</tspan></text>		</g>
		<g id="shape158-20" transform="translate(139.493,-1)">
			<title>Circle.158</title>
			<desc>Boot</desc>
			<path d="M0 290.1 A35.8322 35.8322 0 0 1 71.66 290.1 A35.8322 35.8322 0 1 1 0 290.1 Z" class="st9"/>
			<text x="26.16" y="293.1" class="st5">Boot</text>		</g>
		<g id="shape159-23" transform="translate(168.238,-112.92)">
			<title>Dynamic connector</title>
			<path d="M7.09 336.13 L7.09 336.49 L7.09 366.19" class="st10"/>
		</g>
		<g id="shape160-29" transform="translate(211.157,-148.753)">
			<title>Dynamic connector.160</title>
			<path d="M10.2 325.93 L10.56 325.93 L102.66 325.93 L102.66 221.42" class="st10"/>
		</g>
		<g id="shape161-34" transform="translate(36.8322,-253.267)">
			<title>Dynamic connector.161</title>
			<path d="M0 336.13 L0 336.49 L0 430.45 L102.66 430.45" class="st10"/>
		</g>
		<g id="shape162-39" transform="translate(168.238,-184.585)">
			<title>Dynamic connector.162</title>
			<path d="M7.09 315.73 L7.09 315.37 L7.09 257.25" class="st10"/>
		</g>
		<g id="shape163-44" transform="translate(139.493,-282.013)">
			<title>Dynamic connector.163</title>
			<path d="M-10.2 318.85 L-10.56 318.85 L-66.83 318.85" class="st10"/>
		</g>
		<g id="shape164-49" transform="translate(277.986,-282.013)">
			<title>Dynamic connector.164</title>
			<path d="M-10.2 318.85 L-10.56 318.85 L-66.83 318.85" class="st10"/>
		</g>
		<g id="shape165-54" transform="translate(36.8322,-150.423)">
			<title>Sheet.165</title>
			<desc>Timer expires</desc>
			<rect x="0" y="313.993" width="71.6644" height="11.9388" class="st12"/>
			<text x="8.28" y="322.46" class="st5">Timer expires</text>		</g>
		<g id="shape167-57" transform="translate(230.299,-293.677)">
			<title>Sheet.167</title>
			<desc>Yes</desc>
			<rect x="0" y="318.159" width="24.4839" height="7.77255" class="st12"/>
			<text x="5.36" y="325.05" class="st5">Yes</text>		</g>
		<g id="shape168-60" transform="translate(176.061,-222.044)">
			<title>Sheet.168</title>
			<desc>No</desc>
			<rect x="0" y="318.159" width="24.4839" height="7.77255" class="st12"/>
			<text x="6.38" y="325.05" class="st5">No</text>		</g>
	</g>
</svg>
