<?xml version="1.0" encoding="UTF-8" standalone="no"?>
<!DOCTYPE svg PUBLIC "-//W3C//DTD SVG 1.1//EN" "http://www.w3.org/Graphics/SVG/1.1/DTD/svg11.dtd">
<!-- Generated by Microsoft Visio, SVG Export asset_tracker_v2_passive_state.svg Page-1 -->
<svg xmlns="http://www.w3.org/2000/svg" xmlns:xlink="http://www.w3.org/1999/xlink" xmlns:ev="http://www.w3.org/2001/xml-events"
		width="7.26439in" height="2.81671in" viewBox="0 0 523.036 202.803" xml:space="preserve" color-interpolation-filters="sRGB"
		class="st13">
	<style type="text/css">
	<![CDATA[
		.st1 {fill:#00a9ce;stroke:none;stroke-width:1}
		.st2 {fill:#ffffff;font-family:Calibri;font-size:0.833336em}
		.st3 {font-size:1em}
		.st4 {fill:#d9e1e2;stroke:none;stroke-width:1}
		.st5 {fill:#333f48;font-family:Calibri;font-size:0.833336em}
		.st6 {fill:#0077c8;stroke:none;stroke-width:1}
		.st7 {fill:#feffff;font-family:Calibri;font-size:0.833336em}
		.st8 {fill:#d0df00;stroke:none;stroke-width:1}
		.st9 {fill:#6ad1e3;stroke:none;stroke-width:1}
		.st10 {marker-start:url(#mrkr13-29);stroke:#333f48;stroke-linecap:butt;stroke-width:1}
		.st11 {fill:#333f48;fill-opacity:1;stroke:#333f48;stroke-opacity:1;stroke-width:0.28409090909091}
		.st12 {fill:none;stroke:none;stroke-width:1}
		.st13 {fill:none;fill-rule:evenodd;font-size:12px;overflow:visible;stroke-linecap:square;stroke-miterlimit:3}
	]]>
	</style>

	<defs id="Markers">
		<g id="lend13">
			<path d="M 3 1 L 0 0 L 3 -1 L 3 1 " style="stroke:none"/>
		</g>
		<marker id="mrkr13-29" class="st11" refX="10.2" orient="auto" markerUnits="strokeWidth" overflow="visible">
			<use xlink:href="#lend13" transform="scale(3.52) "/>
		</marker>
	</defs>
	<g>
		<title>Page-1</title>
		<g id="shape186-1" transform="translate(235.88,-130.959)">
			<title>Circle.213</title>
			<desc>Sample data (fill data buffers)</desc>
			<path d="M0 167.38 A35.4219 35.4219 0 0 1 70.84 167.38 A35.4219 35.4219 0 0 1 0 167.38 Z" class="st1"/>
			<text x="10.25" y="158.38" class="st2">Sample data <tspan x="18.72" dy="1.2em" class="st3">(fill data </tspan><tspan
						x="19.41" dy="1.2em" class="st3">buffers)</tspan></text>		</g>
		<g id="shape187-6" transform="translate(340.145,-130.959)">
			<title>Circle.155</title>
			<desc>In connected state?</desc>
			<path d="M0 167.38 A35.4219 35.4219 0 0 1 70.84 167.38 A35.4219 35.4219 0 0 1 0 167.38 Z" class="st4"/>
			<text x="9.01" y="164.38" class="st5">In connected <tspan x="22.92" dy="1.2em" class="st3">state?</tspan></text>		</g>
		<g id="shape188-10" transform="translate(451.192,-130.959)">
			<title>Circle.156</title>
			<desc>Publish data (empty data buffers)</desc>
			<path d="M0 167.38 A35.4219 35.4219 0 0 1 70.84 167.38 A35.4219 35.4219 0 0 1 0 167.38 Z" class="st6"/>
			<text x="10.49" y="158.38" class="st7">Publish data <tspan x="10.64" dy="1.2em" class="st3">(empty data </tspan><tspan
						x="19.41" dy="1.2em" class="st3">buffers)</tspan></text>		</g>
		<g id="shape189-15" transform="translate(340.145,-1)">
			<title>Circle.157</title>
			<desc>Start Movement resolution timer</desc>
			<path d="M0 167.38 A35.4219 35.4219 0 0 1 70.84 167.38 A35.4219 35.4219 0 0 1 0 167.38 Z" class="st8"/>
			<text x="25.64" y="152.38" class="st5">Start <tspan x="12.98" dy="1.2em" class="st3">Movement </tspan><tspan x="14.74"
						dy="1.2em" class="st3">resolution </tspan><tspan x="24.37" dy="1.2em" class="st3">timer</tspan></text>		</g>
		<g id="shape190-21" transform="translate(1,-130.959)">
			<title>Circle.158</title>
			<desc>Boot</desc>
			<path d="M0 167.38 A35.4219 35.4219 0 0 1 70.84 167.38 A35.4219 35.4219 0 0 1 0 167.38 Z" class="st9"/>
			<text x="25.75" y="170.38" class="st5">Boot</text>		</g>
		<g id="shape194-24" transform="translate(101.241,-159.294)">
			<title>Dynamic connector.162</title>
			<path d="M-10.2 195.72 L-10.56 195.72 L-29.4 195.72" class="st10"/>
		</g>
		<g id="shape197-30" transform="translate(194.352,-40.399)">
			<title>Sheet.197</title>
			<desc>Timer expires</desc>
			<rect x="0" y="187.757" width="75.2131" height="15.0463" class="st12"/>
			<text x="10.05" y="199.78" class="st5">Timer expires</text>		</g>
		<g id="shape198-33" transform="translate(413.865,-173.968)">
			<title>Sheet.198</title>
			<desc>Yes</desc>
			<rect x="0" y="194.412" width="23.9632" height="8.39136" class="st12"/>
			<text x="5.1" y="204.01" class="st5">Yes</text>		</g>
		<g id="shape199-36" transform="translate(375.567,-102.932)">
			<title>Sheet.199</title>
			<desc>No</desc>
			<rect x="0" y="193.007" width="23.9632" height="9.79563" class="st12"/>
			<text x="6.12" y="200.91" class="st5">No</text>		</g>
		<g id="shape200-39" transform="translate(101.241,-130.959)">
			<title>Circle.200</title>
			<desc>Wait for movement</desc>
			<path d="M0 167.38 A35.4219 35.4219 0 0 1 70.84 167.38 A35.4219 35.4219 0 0 1 0 167.38 Z" class="st4"/>
			<text x="18.72" y="164.38" class="st5">Wait for <tspan x="13.26" dy="1.2em" class="st3">movement</tspan></text>		</g>
		<g id="shape201-43" transform="translate(235.88,-159.294)">
			<title>Dynamic connector.201</title>
			<path d="M-10.2 195.72 L-10.56 195.72 L-63.8 195.72" class="st10"/>
		</g>
		<g id="shape202-48" transform="translate(340.145,-159.294)">
			<title>Dynamic connector.202</title>
			<path d="M-10.2 195.72 L-10.56 195.72 L-33.42 195.72" class="st10"/>
		</g>
		<g id="shape203-53" transform="translate(451.192,-159.294)">
			<title>Dynamic connector.203</title>
			<path d="M-10.2 195.72 L-10.56 195.72 L-40.2 195.72" class="st10"/>
		</g>
		<g id="shape204-58" transform="translate(368.48,-71.8438)">
			<title>Dynamic connector.204</title>
			<path d="M7.09 192.6 L7.09 192.24 L7.09 143.69" class="st10"/>
		</g>
		<g id="shape205-63" transform="translate(410.989,-36.4219)">
			<title>Dynamic connector.205</title>
			<path d="M10.2 202.8 L10.56 202.8 L75.62 202.8 L75.62 108.27" class="st10"/>
		</g>
		<g id="shape206-68" transform="translate(136.663,-130.959)">
			<title>Dynamic connector.206</title>
			<path d="M0 213 L0 213.36 L0 297.34 L203.48 297.34" class="st10"/>
		</g>
		<g id="shape207-73" transform="translate(169.996,-170.64)">
			<title>Sheet.207</title>
			<desc>Movement</desc>
			<rect x="0" y="187.757" width="60.3912" height="15.0463" class="st12"/>
			<text x="7.75" y="199.78" class="st5">Movement</text>		</g>
	</g>
</svg>
