<svg version="1.1" xmlns="http://www.w3.org/2000/svg" xmlns:xlink="http://www.w3.org/1999/xlink" width="1256" height="1798"><defs/><g><g/><g/><g/><g/><g/><g/><g/><g/><g/><g/><g/><g/><g/><g/><g/><g/><g/><g/><g/><g/><g/><g/><g/><g/><g/><g/><g/><g/><g/><g/><g/><g/><g/><g/><g/><g><rect fill="white" stroke="none" x="0" y="0" width="1256" height="1798"/></g><g><text fill="black" stroke="none" font-family="sans-serif" font-size="16.5pt" font-style="normal" font-weight="normal" text-decoration="normal" x="494.9250753054622" y="24.50280495" text-anchor="start" dominant-baseline="alphabetic">AWS Firmware-over-the-air</text></g><g/><g><path fill="none" stroke="black" paint-order="fill stroke markers" d=" M 233.1905013872656 95.887643371 L 233.1905013872656 1798.015827231" stroke-miterlimit="10" stroke-width="1.3612669416666667" stroke-dasharray="12.565541,5.445067766666667"/><path fill="none" stroke="black" paint-order="fill stroke markers" d=" M 631.8021921669531 95.887643371 L 631.8021921669531 1798.015827231" stroke-miterlimit="10" stroke-width="1.3612669416666667" stroke-dasharray="12.565541,5.445067766666667"/><path fill="none" stroke="black" paint-order="fill stroke markers" d=" M 814.5597106010025 95.887643371 L 814.5597106010025 1798.015827231" stroke-miterlimit="10" stroke-width="1.3612669416666667" stroke-dasharray="12.565541,5.445067766666667"/><path fill="none" stroke="black" paint-order="fill stroke markers" d=" M 994.9321106650299 95.887643371 L 994.9321106650299 1798.015827231" stroke-miterlimit="10" stroke-width="1.3612669416666667" stroke-dasharray="12.565541,5.445067766666667"/><path fill="none" stroke="black" paint-order="fill stroke markers" d=" M 1179.7855287954635 95.887643371 L 1179.7855287954635 1798.015827231" stroke-miterlimit="10" stroke-width="1.3612669416666667" stroke-dasharray="12.565541,5.445067766666667"/></g><g><path fill="none" stroke="none"/><g><path fill="white" stroke="black" paint-order="fill stroke markers" d=" M 193.06166206897262 51.782594461 L 273.3193407055586 51.782594461 L 273.3193407055586 95.887643371 L 193.06166206897262 95.887643371 L 193.06166206897262 51.782594461 Z" stroke-miterlimit="10" stroke-width="2.613632528" stroke-dasharray=""/></g><g><g/><text fill="black" stroke="none" font-family="sans-serif" font-size="11pt" font-style="normal" font-weight="normal" text-decoration="normal" x="210.78535764947264" y="79.55244007099999" text-anchor="start" dominant-baseline="alphabetic">Device</text></g><path fill="none" stroke="none"/><g><path fill="white" stroke="black" paint-order="fill stroke markers" d=" M 538.6024834028593 51.782594461 L 725.0019009310469 51.782594461 L 725.0019009310469 95.887643371 L 538.6024834028593 95.887643371 L 538.6024834028593 51.782594461 Z" stroke-miterlimit="10" stroke-width="2.613632528" stroke-dasharray=""/></g><g><g/><text fill="black" stroke="none" font-family="sans-serif" font-size="11pt" font-style="normal" font-weight="normal" text-decoration="normal" x="556.3261789833593" y="79.55244007099999" text-anchor="start" dominant-baseline="alphabetic">AWS IoT MQTT Broker</text></g><path fill="none" stroke="none"/><g><path fill="white" stroke="black" paint-order="fill stroke markers" d=" M 750.2648022519478 51.782594461 L 878.8546189500572 51.782594461 L 878.8546189500572 95.887643371 L 750.2648022519478 95.887643371 L 750.2648022519478 51.782594461 Z" stroke-miterlimit="10" stroke-width="2.613632528" stroke-dasharray=""/></g><g><g/><text fill="black" stroke="none" font-family="sans-serif" font-size="11pt" font-style="normal" font-weight="normal" text-decoration="normal" x="767.9884978324478" y="79.55244007099999" text-anchor="start" dominant-baseline="alphabetic">AWS IoT Jobs</text></g><path fill="none" stroke="none"/><g><path fill="white" stroke="black" paint-order="fill stroke markers" d=" M 895.1898222500572 51.782594461 L 1094.6743990800026 51.782594461 L 1094.6743990800026 95.887643371 L 895.1898222500572 95.887643371 L 895.1898222500572 51.782594461 Z" stroke-miterlimit="10" stroke-width="2.613632528" stroke-dasharray=""/></g><g><g/><text fill="black" stroke="none" font-family="sans-serif" font-size="11pt" font-style="normal" font-weight="normal" text-decoration="normal" x="912.9135178305572" y="79.55244007099999" text-anchor="start" dominant-baseline="alphabetic">AWS IoT Device Shadow</text></g><path fill="none" stroke="none"/><g><path fill="white" stroke="black" paint-order="fill stroke markers" d=" M 1111.0096023800027 51.782594461 L 1248.5614552109246 51.782594461 L 1248.5614552109246 95.887643371 L 1111.0096023800027 95.887643371 L 1111.0096023800027 51.782594461 Z" stroke-miterlimit="10" stroke-width="2.613632528" stroke-dasharray=""/></g><g><g/><text fill="black" stroke="none" font-family="sans-serif" font-size="11pt" font-style="normal" font-weight="normal" text-decoration="normal" x="1128.7332979605026" y="79.55244007099999" text-anchor="start" dominant-baseline="alphabetic">AWS S3 Server</text></g></g><g><path fill="white" stroke="black" paint-order="fill stroke markers" d=" M 623.634590516953 104.05524502099999 L 639.9697938169531 104.05524502099999 L 639.9697938169531 1185.4457034809998 L 623.634590516953 1185.4457034809998 L 623.634590516953 104.05524502099999" stroke-miterlimit="10" stroke-width="1.3612669416666667" stroke-dasharray=""/><path fill="white" stroke="black" paint-order="fill stroke markers" d=" M 225.02289973726562 166.12901756099998 L 241.3581030372656 166.12901756099998 L 241.3581030372656 1698.371087101 L 225.02289973726562 1698.371087101 L 225.02289973726562 166.12901756099998" stroke-miterlimit="10" stroke-width="1.3612669416666667" stroke-dasharray=""/><path fill="white" stroke="black" paint-order="fill stroke markers" d=" M 986.7645090150298 211.867586801 L 1003.0997123150299 211.867586801 L 1003.0997123150299 273.94135934099995 L 986.7645090150298 273.94135934099995 L 986.7645090150298 211.867586801" stroke-miterlimit="10" stroke-width="1.3612669416666667" stroke-dasharray=""/><path fill="white" stroke="black" paint-order="fill stroke markers" d=" M 806.3921089510025 535.304612141 L 822.7273122510026 535.304612141 L 822.7273122510026 1123.3719309409998 L 806.3921089510025 1123.3719309409998 L 806.3921089510025 535.304612141" stroke-miterlimit="10" stroke-width="1.3612669416666667" stroke-dasharray=""/><path fill="white" stroke="black" paint-order="fill stroke markers" d=" M 1171.6179271454635 1231.1842727209998 L 1187.9531304454636 1231.1842727209998 L 1187.9531304454636 1276.922841961 L 1171.6179271454635 1276.922841961 L 1171.6179271454635 1231.1842727209998" stroke-miterlimit="10" stroke-width="1.3612669416666667" stroke-dasharray=""/><path fill="white" stroke="black" paint-order="fill stroke markers" d=" M 806.3921089510025 1463.144159581 L 822.7273122510026 1463.144159581 L 822.7273122510026 1678.7688431410002 L 806.3921089510025 1678.7688431410002 L 806.3921089510025 1463.144159581" stroke-miterlimit="10" stroke-width="1.3612669416666667" stroke-dasharray=""/><path fill="white" stroke="black" paint-order="fill stroke markers" d=" M 623.634590516953 1463.144159581 L 639.9697938169531 1463.144159581 L 639.9697938169531 1781.680623931 L 623.634590516953 1781.680623931 L 623.634590516953 1463.144159581" stroke-miterlimit="10" stroke-width="1.3612669416666667" stroke-dasharray=""/><path fill="white" stroke="black" paint-order="fill stroke markers" d=" M 233.1905013872656 147.34353376599998 L 225.02289973726562 147.34353376599998 M 100.24355901289061 128.558049971 L 210.3212167672656 128.558049971 L 225.02289973726562 143.259732941 L 225.02289973726562 166.12901756099998 L 100.24355901289061 166.12901756099998 L 100.24355901289061 128.558049971 M 210.3212167672656 128.558049971 L 210.3212167672656 143.259732941 L 225.02289973726562 143.259732941" stroke-miterlimit="10" stroke-width="1.3612669416666667" stroke-dasharray=""/><g><text fill="black" stroke="none" font-family="sans-serif" font-size="11pt" font-style="normal" font-weight="normal" text-decoration="normal" x="123.11284363289062" y="151.42733459099995" text-anchor="start" dominant-baseline="alphabetic">Device Boot</text></g><g><g><rect fill="white" stroke="none" x="537.4485575746048" y="190.631822511" width="153.22549690308594" height="21.23576429"/></g><text fill="black" stroke="none" font-family="sans-serif" font-size="11pt" font-style="normal" font-weight="normal" text-decoration="normal" x="539.8988380696048" y="205.33350548099997" text-anchor="start" dominant-baseline="alphabetic">Update device shadow</text></g><g><path fill="none" stroke="black" paint-order="fill stroke markers" d=" M 241.3581030372656 211.867586801 L 984.0419751316965 211.867586801" stroke-miterlimit="10" stroke-width="1.3612669416666667" stroke-dasharray=""/><g transform="translate(986.7645090150298,211.867586801) translate(-986.7645090150298,-211.867586801)"><path fill="black" stroke="none" paint-order="stroke fill markers" d=" M 973.1518395983632 205.06125209266665 L 986.7645090150298 211.867586801 L 973.1518395983632 218.67392150933333 Z"/></g></g><path fill="white" stroke="black" paint-order="fill stroke markers" d=" M 218.4888184172656 236.37039175099994 L 994.9321106650299 236.37039175099994 L 1009.6337936350299 251.07207472099995 L 1009.6337936350299 273.94135934099995 L 218.4888184172656 273.94135934099995 L 218.4888184172656 236.37039175099994 M 994.9321106650299 236.37039175099994 L 994.9321106650299 251.07207472099995 L 1009.6337936350299 251.07207472099995" stroke-miterlimit="10" stroke-width="1.3612669416666667" stroke-dasharray=""/><g><text fill="black" stroke="none" font-family="sans-serif" font-size="11pt" font-style="normal" font-weight="normal" text-decoration="normal" x="499.5516853596438" y="259.2396763709999" text-anchor="start" dominant-baseline="alphabetic">{nrf_cloud_app_fw_version: v1.0.0}</text></g><g><g><rect fill="white" stroke="none" x="378.7217941263476" y="298.44416429099994" width="107.54910530152344" height="21.23576429"/></g><text fill="black" stroke="none" font-family="sans-serif" font-size="11pt" font-style="normal" font-weight="normal" text-decoration="normal" x="381.17207462134763" y="313.1458472609999" text-anchor="start" dominant-baseline="alphabetic">MQTT: Connect</text></g><g><path fill="none" stroke="black" paint-order="fill stroke markers" d=" M 241.3581030372656 319.67992858099996 L 620.9120566336197 319.67992858099996" stroke-miterlimit="10" stroke-width="1.3612669416666667" stroke-dasharray=""/><g transform="translate(623.634590516953,319.67992858099996) translate(-623.634590516953,-319.67992858099996)"><path fill="black" stroke="none" paint-order="stroke fill markers" d=" M 610.0219211002864 312.8735938726666 L 623.634590516953 319.67992858099996 L 610.0219211002864 326.4862632893333 Z"/></g></g><g><g><rect fill="white" stroke="none" x="369.3695983866015" y="344.18273353099994" width="126.25349678101563" height="21.23576429"/></g><text fill="black" stroke="none" font-family="sans-serif" font-size="11pt" font-style="normal" font-weight="normal" text-decoration="normal" x="371.81987888160154" y="358.8844165009999" text-anchor="start" dominant-baseline="alphabetic">MQTT: CONNACK</text></g><g><path fill="none" stroke="black" paint-order="fill stroke markers" d=" M 623.634590516953 365.41849782099996 L 244.08063692059895 365.41849782099996" stroke-miterlimit="10" stroke-width="1.3612669416666667" stroke-dasharray=""/><g transform="translate(241.3581030372656,365.41849782099996) translate(-241.3581030372656,-365.41849782099996)"><path fill="black" stroke="none" paint-order="stroke fill markers" d=" M 254.97077245393228 358.6121631126666 L 241.3581030372656 365.41849782099996 L 254.97077245393228 372.2248325293333 Z"/></g></g><g><g><rect fill="white" stroke="none" x="373.42832183630856" y="389.92130277099994" width="118.13604988160156" height="21.23576429"/></g><text fill="black" stroke="none" font-family="sans-serif" font-size="11pt" font-style="normal" font-weight="normal" text-decoration="normal" x="375.87860233130857" y="404.6229857409999" text-anchor="start" dominant-baseline="alphabetic">MQTT: Subscribe</text></g><g><path fill="none" stroke="black" paint-order="fill stroke markers" d=" M 241.3581030372656 411.15706706099996 L 620.9120566336197 411.15706706099996" stroke-miterlimit="10" stroke-width="1.3612669416666667" stroke-dasharray=""/><g transform="translate(623.634590516953,411.15706706099996) translate(-623.634590516953,-411.15706706099996)"><path fill="black" stroke="none" paint-order="stroke fill markers" d=" M 610.0219211002864 404.3507323526666 L 623.634590516953 411.15706706099996 L 610.0219211002864 417.9634017693333 Z"/></g></g><path fill="white" stroke="black" paint-order="fill stroke markers" d=" M 218.4888184172656 435.65987201099995 L 631.8021921669531 435.65987201099995 L 646.5038751369531 450.3615549809999 L 646.5038751369531 473.23083960099996 L 218.4888184172656 473.23083960099996 L 218.4888184172656 435.65987201099995 M 631.8021921669531 435.65987201099995 L 631.8021921669531 450.3615549809999 L 646.5038751369531 450.3615549809999" stroke-miterlimit="10" stroke-width="1.3612669416666667" stroke-dasharray=""/><g><text fill="black" stroke="none" font-family="sans-serif" font-size="11pt" font-style="normal" font-weight="normal" text-decoration="normal" x="296.40833408179685" y="458.5291566309999" text-anchor="start" dominant-baseline="alphabetic">$aws/things/&lt;thingName&gt;/jobs/notify-next</text></g><path fill="white" stroke="black" paint-order="fill stroke markers" d=" M 814.5597106010025 516.519128346 L 822.7273122510026 516.519128346 M 822.7273122510026 497.733644551 L 930.3711778911197 497.733644551 L 945.0728608611197 512.435327521 L 945.0728608611197 535.304612141 L 822.7273122510026 535.304612141 L 822.7273122510026 497.733644551 M 930.3711778911197 497.733644551 L 930.3711778911197 512.435327521 L 945.0728608611197 512.435327521" stroke-miterlimit="10" stroke-width="1.3612669416666667" stroke-dasharray=""/><g><text fill="black" stroke="none" font-family="sans-serif" font-size="11pt" font-style="normal" font-weight="normal" text-decoration="normal" x="845.5965968710025" y="520.602929171" text-anchor="start" dominant-baseline="alphabetic">Job created</text></g><g><g><rect fill="white" stroke="none" x="473.361120054798" y="559.8074170909999" width="101.02797187867188" height="21.23576429"/></g><text fill="black" stroke="none" font-family="sans-serif" font-size="11pt" font-style="normal" font-weight="normal" text-decoration="normal" x="475.811400549798" y="574.5091000609999" text-anchor="start" dominant-baseline="alphabetic">MQTT: Publish</text></g><g><path fill="none" stroke="black" paint-order="fill stroke markers" d=" M 806.3921089510025 581.043181381 L 244.08063692059895 581.043181381" stroke-miterlimit="10" stroke-width="1.3612669416666667" stroke-dasharray=""/><g transform="translate(241.3581030372656,581.043181381) translate(-241.3581030372656,-581.043181381)"><path fill="black" stroke="none" paint-order="stroke fill markers" d=" M 254.97077245393228 574.2368466726666 L 241.3581030372656 581.043181381 L 254.97077245393228 587.8495160893333 Z"/></g></g><path fill="white" stroke="black" paint-order="fill stroke markers" d=" M 218.4888184172656 605.545986331 L 814.5597106010025 605.545986331 L 829.2613935710025 620.247669301 L 829.2613935710025 643.116953921 L 218.4888184172656 643.116953921 L 218.4888184172656 605.545986331 M 814.5597106010025 605.545986331 L 814.5597106010025 620.247669301 L 829.2613935710025 620.247669301" stroke-miterlimit="10" stroke-width="1.3612669416666667" stroke-dasharray=""/><g><text fill="black" stroke="none" font-family="sans-serif" font-size="11pt" font-style="normal" font-weight="normal" text-decoration="normal" x="440.34615244188797" y="628.415270951" text-anchor="start" dominant-baseline="alphabetic">Job description document</text></g><g><g><rect fill="white" stroke="none" x="375.8799896219531" y="667.6197588709999" width="113.2327143103125" height="21.23576429"/></g><text fill="black" stroke="none" font-family="sans-serif" font-size="11pt" font-style="normal" font-weight="normal" text-decoration="normal" x="378.3302701169531" y="682.3214418409999" text-anchor="start" dominant-baseline="alphabetic">MQTT: PUBACK</text></g><g><path fill="none" stroke="black" paint-order="fill stroke markers" d=" M 241.3581030372656 688.855523161 L 620.9120566336197 688.855523161" stroke-miterlimit="10" stroke-width="1.3612669416666667" stroke-dasharray=""/><g transform="translate(623.634590516953,688.855523161) translate(-623.634590516953,-688.855523161)"><path fill="black" stroke="none" paint-order="stroke fill markers" d=" M 610.0219211002864 682.0491884526666 L 623.634590516953 688.855523161 L 610.0219211002864 695.6618578693333 Z"/></g></g><g><g><rect fill="white" stroke="none" x="365.28229522498043" y="713.3583281109999" width="134.42810310425781" height="21.23576429"/></g><text fill="black" stroke="none" font-family="sans-serif" font-size="11pt" font-style="normal" font-weight="normal" text-decoration="normal" x="367.73257571998045" y="728.0600110809999" text-anchor="start" dominant-baseline="alphabetic">MQTT: Unsubscribe</text></g><g><path fill="none" stroke="black" paint-order="fill stroke markers" d=" M 241.3581030372656 734.5940924009999 L 620.9120566336197 734.5940924009999" stroke-miterlimit="10" stroke-width="1.3612669416666667" stroke-dasharray=""/><g transform="translate(623.634590516953,734.5940924009999) translate(-623.634590516953,-734.5940924009999)"><path fill="black" stroke="none" paint-order="stroke fill markers" d=" M 610.0219211002864 727.7877576926666 L 623.634590516953 734.5940924009999 L 610.0219211002864 741.4004271093332 Z"/></g></g><path fill="white" stroke="black" paint-order="fill stroke markers" d=" M 218.4888184172656 759.0968973509998 L 631.8021921669531 759.0968973509998 L 646.5038751369531 773.7985803209998 L 646.5038751369531 796.6678649409998 L 218.4888184172656 796.6678649409998 L 218.4888184172656 759.0968973509998 M 631.8021921669531 759.0968973509998 L 631.8021921669531 773.7985803209998 L 646.5038751369531 773.7985803209998" stroke-miterlimit="10" stroke-width="1.3612669416666667" stroke-dasharray=""/><g><text fill="black" stroke="none" font-family="sans-serif" font-size="11pt" font-style="normal" font-weight="normal" text-decoration="normal" x="293.5486539060156" y="781.9661819709999" text-anchor="start" dominant-baseline="alphabetic">$aws/things/&lt;thing_name&gt;/jobs/notify-next</text></g><g><g><rect fill="white" stroke="none" x="373.42832183630856" y="821.1706698909998" width="118.13604988160156" height="21.23576429"/></g><text fill="black" stroke="none" font-family="sans-serif" font-size="11pt" font-style="normal" font-weight="normal" text-decoration="normal" x="375.87860233130857" y="835.8723528609997" text-anchor="start" dominant-baseline="alphabetic">MQTT: Subscribe</text></g><g><path fill="none" stroke="black" paint-order="fill stroke markers" d=" M 241.3581030372656 842.4064341809998 L 620.9120566336197 842.4064341809998" stroke-miterlimit="10" stroke-width="1.3612669416666667" stroke-dasharray=""/><g transform="translate(623.634590516953,842.4064341809998) translate(-623.634590516953,-842.4064341809998)"><path fill="black" stroke="none" paint-order="stroke fill markers" d=" M 610.0219211002864 835.6000994726664 L 623.634590516953 842.4064341809998 L 610.0219211002864 849.2127688893331 Z"/></g></g><path fill="white" stroke="black" paint-order="fill stroke markers" d=" M 218.4888184172656 866.9092391309998 L 631.8021921669531 866.9092391309998 L 646.5038751369531 881.6109221009998 L 646.5038751369531 920.8154100209998 L 218.4888184172656 920.8154100209998 L 218.4888184172656 866.9092391309998 M 631.8021921669531 866.9092391309998 L 631.8021921669531 881.6109221009998 L 646.5038751369531 881.6109221009998" stroke-miterlimit="10" stroke-width="1.3612669416666667" stroke-dasharray=""/><g><text fill="black" stroke="none" font-family="sans-serif" font-size="11pt" font-style="normal" font-weight="normal" text-decoration="normal" x="249.5257046872656" y="889.7785237509997" text-anchor="start" dominant-baseline="alphabetic">$aws/things/&lt;thingName&gt;/jobs/&lt;jobId&gt;/update/accepted</text><text fill="black" stroke="none" font-family="sans-serif" font-size="11pt" font-style="normal" font-weight="normal" text-decoration="normal" x="249.5257046872656" y="906.1137270509997" text-anchor="start" dominant-baseline="alphabetic">$aws/things/&lt;thingName&gt;/jobs/&lt;jobId&gt;/update/rejected</text></g><g><g><rect fill="white" stroke="none" x="435.05046636827456" y="945.3182149709997" width="177.64927925171875" height="21.23576429"/></g><text fill="black" stroke="none" font-family="sans-serif" font-size="11pt" font-style="normal" font-weight="normal" text-decoration="normal" x="437.50074686327457" y="960.0198979409997" text-anchor="start" dominant-baseline="alphabetic">MQTT: Publish update job </text></g><g><path fill="none" stroke="black" paint-order="fill stroke markers" d=" M 241.3581030372656 966.5539792609998 L 803.6695750676691 966.5539792609998" stroke-miterlimit="10" stroke-width="1.3612669416666667" stroke-dasharray=""/><g transform="translate(806.3921089510025,966.5539792609998) translate(-806.3921089510025,-966.5539792609998)"><path fill="black" stroke="none" paint-order="stroke fill markers" d=" M 792.7794395343358 959.7476445526664 L 806.3921089510025 966.5539792609998 L 792.7794395343358 973.3603139693331 Z"/></g></g><path fill="white" stroke="black" paint-order="fill stroke markers" d=" M 218.4888184172656 991.0567842109998 L 814.5597106010025 991.0567842109998 L 829.2613935710025 1005.7584671809998 L 829.2613935710025 1077.6333617009998 L 218.4888184172656 1077.6333617009998 L 218.4888184172656 991.0567842109998 M 814.5597106010025 991.0567842109998 L 814.5597106010025 1005.7584671809998 L 829.2613935710025 1005.7584671809998" stroke-miterlimit="10" stroke-width="1.3612669416666667" stroke-dasharray=""/><g><text fill="black" stroke="none" font-family="sans-serif" font-size="11pt" font-style="normal" font-weight="normal" text-decoration="normal" x="372.6904441288997" y="1013.9260688309997" text-anchor="start" dominant-baseline="alphabetic">$aws/things/&lt;thingName&gt;/jobs/&lt;jobId&gt;/update</text><text fill="black" stroke="none" font-family="sans-serif" font-size="11pt" font-style="normal" font-weight="normal" text-decoration="normal" x="372.6904441288997" y="1030.2612721309997" text-anchor="start" dominant-baseline="alphabetic"></text><text fill="black" stroke="none" font-family="sans-serif" font-size="11pt" font-style="normal" font-weight="normal" text-decoration="normal" x="372.6904441288997" y="1046.5964754309998" text-anchor="start" dominant-baseline="alphabetic">status: IN_PROGRESS</text><text fill="black" stroke="none" font-family="sans-serif" font-size="11pt" font-style="normal" font-weight="normal" text-decoration="normal" x="372.6904441288997" y="1062.931678731" text-anchor="start" dominant-baseline="alphabetic">nextState: download_firmware</text></g><g><g><rect fill="white" stroke="none" x="376.7827814317511" y="1102.136166651" width="294.1846491247656" height="21.23576429"/></g><text fill="black" stroke="none" font-family="sans-serif" font-size="11pt" font-style="normal" font-weight="normal" text-decoration="normal" x="379.23306192675113" y="1116.837849621" text-anchor="start" dominant-baseline="alphabetic">MQTT Publish: Job Id update accepted topic</text></g><g><path fill="none" stroke="black" paint-order="fill stroke markers" d=" M 806.3921089510025 1123.3719309409998 L 244.08063692059895 1123.3719309409998" stroke-miterlimit="10" stroke-width="1.3612669416666667" stroke-dasharray=""/><g transform="translate(241.3581030372656,1123.3719309409998) translate(-241.3581030372656,-1123.3719309409998)"><path fill="black" stroke="none" paint-order="stroke fill markers" d=" M 254.97077245393228 1116.5655962326666 L 241.3581030372656 1123.3719309409998 L 254.97077245393228 1130.178265649333 Z"/></g></g><path fill="white" stroke="black" paint-order="fill stroke markers" d=" M 225.02289973726562 1166.660219686 L 216.85529808726562 1166.660219686 M 8.16760165 1147.8747358909998 L 202.15361511726562 1147.8747358909998 L 216.85529808726562 1162.5764188609999 L 216.85529808726562 1185.4457034809998 L 8.16760165 1185.4457034809998 L 8.16760165 1147.8747358909998 M 202.15361511726562 1147.8747358909998 L 202.15361511726562 1162.5764188609999 L 216.85529808726562 1162.5764188609999" stroke-miterlimit="10" stroke-width="1.3612669416666667" stroke-dasharray=""/><g><text fill="black" stroke="none" font-family="sans-serif" font-size="11pt" font-style="normal" font-weight="normal" text-decoration="normal" x="31.036886269999997" y="1170.744020511" text-anchor="start" dominant-baseline="alphabetic">Start Firmware download</text></g><g><g><rect fill="white" stroke="none" x="618.0678172990013" y="1209.948508431" width="176.84039558472656" height="21.23576429"/></g><text fill="black" stroke="none" font-family="sans-serif" font-size="11pt" font-style="normal" font-weight="normal" text-decoration="normal" x="620.5180977940013" y="1224.650191401" text-anchor="start" dominant-baseline="alphabetic">HTTP request: &lt;file_path&gt;</text></g><g><path fill="none" stroke="black" paint-order="fill stroke markers" d=" M 241.3581030372656 1231.1842727209998 L 1168.89539326213 1231.1842727209998" stroke-miterlimit="10" stroke-width="1.3612669416666667" stroke-dasharray=""/><g transform="translate(1171.6179271454635,1231.1842727209998) translate(-1171.6179271454635,-1231.1842727209998)"><path fill="black" stroke="none" paint-order="stroke fill markers" d=" M 1158.0052577287968 1224.3779380126666 L 1171.6179271454635 1231.1842727209998 L 1158.0052577287968 1237.990607429333 Z"/></g></g><g><g><rect fill="white" stroke="none" x="563.4722743912864" y="1255.687077671" width="286.0314814001562" height="21.23576429"/></g><text fill="black" stroke="none" font-family="sans-serif" font-size="11pt" font-style="normal" font-weight="normal" text-decoration="normal" x="565.9225548862864" y="1270.388760641" text-anchor="start" dominant-baseline="alphabetic">HTTP response: with content-range header</text></g><g><path fill="none" stroke="black" paint-order="fill stroke markers" d=" M 1171.6179271454635 1276.922841961 L 244.08063692059895 1276.922841961" stroke-miterlimit="10" stroke-width="1.3612669416666667" stroke-dasharray=""/><g transform="translate(241.3581030372656,1276.922841961) translate(-241.3581030372656,-1276.922841961)"><path fill="black" stroke="none" paint-order="stroke fill markers" d=" M 254.97077245393228 1270.1165072526667 L 241.3581030372656 1276.922841961 L 254.97077245393228 1283.7291766693331 Z"/></g></g><path fill="white" stroke="black" paint-order="fill stroke markers" d=" M 225.02289973726562 1320.211130706 L 216.85529808726562 1320.211130706 M 42.36228853964844 1301.4256469109998 L 202.15361511726562 1301.4256469109998 L 216.85529808726562 1316.127329881 L 216.85529808726562 1338.9966145009998 L 42.36228853964844 1338.9966145009998 L 42.36228853964844 1301.4256469109998 M 202.15361511726562 1301.4256469109998 L 202.15361511726562 1316.127329881 L 216.85529808726562 1316.127329881" stroke-miterlimit="10" stroke-width="1.3612669416666667" stroke-dasharray=""/><g><text fill="black" stroke="none" font-family="sans-serif" font-size="11pt" font-style="normal" font-weight="normal" text-decoration="normal" x="65.23157315964843" y="1324.294931531" text-anchor="start" dominant-baseline="alphabetic">Download complete</text></g><g><g><rect fill="white" stroke="none" x="439.1414235653449" y="1363.499419451" width="177.63496650757813" height="21.23576429"/></g><text fill="black" stroke="none" font-family="sans-serif" font-size="11pt" font-style="normal" font-weight="normal" text-decoration="normal" x="441.5917040603449" y="1378.201102421" text-anchor="start" dominant-baseline="alphabetic">MQTT Publish: Update job</text></g><g><path fill="none" stroke="black" paint-order="fill stroke markers" d=" M 241.3581030372656 1384.735183741 L 811.8371767176692 1384.735183741" stroke-miterlimit="10" stroke-width="1.3612669416666667" stroke-dasharray=""/><g transform="translate(814.5597106010025,1384.735183741) translate(-814.5597106010025,-1384.735183741)"><path fill="black" stroke="none" paint-order="stroke fill markers" d=" M 800.9470411843358 1377.9288490326667 L 814.5597106010025 1384.735183741 L 800.9470411843358 1391.5415184493331 Z"/></g></g><path fill="white" stroke="black" paint-order="fill stroke markers" d=" M 218.4888184172656 1409.2379886909998 L 814.5597106010025 1409.2379886909998 L 829.2613935710025 1423.939671661 L 829.2613935710025 1463.144159581 L 218.4888184172656 1463.144159581 L 218.4888184172656 1409.2379886909998 M 814.5597106010025 1409.2379886909998 L 814.5597106010025 1423.939671661 L 829.2613935710025 1423.939671661" stroke-miterlimit="10" stroke-width="1.3612669416666667" stroke-dasharray=""/><g><text fill="black" stroke="none" font-family="sans-serif" font-size="11pt" font-style="normal" font-weight="normal" text-decoration="normal" x="439.1328345707942" y="1432.1072733110002" text-anchor="start" dominant-baseline="alphabetic">status: IN_PROGRESS</text><text fill="black" stroke="none" font-family="sans-serif" font-size="11pt" font-style="normal" font-weight="normal" text-decoration="normal" x="439.1328345707942" y="1448.4424766110003" text-anchor="start" dominant-baseline="alphabetic">nextState: apply_frimware</text></g><g><g><rect fill="white" stroke="none" x="437.8887155748175" y="1487.646964531" width="171.97278083863281" height="21.23576429"/></g><text fill="black" stroke="none" font-family="sans-serif" font-size="11pt" font-style="normal" font-weight="normal" text-decoration="normal" x="440.33899606981754" y="1502.3486475010002" text-anchor="start" dominant-baseline="alphabetic">Publish on accepted topic</text></g><g><path fill="none" stroke="black" paint-order="fill stroke markers" d=" M 806.3921089510025 1508.882728821 L 244.08063692059895 1508.882728821" stroke-miterlimit="10" stroke-width="1.3612669416666667" stroke-dasharray=""/><g transform="translate(241.3581030372656,1508.882728821) translate(-241.3581030372656,-1508.882728821)"><path fill="black" stroke="none" paint-order="stroke fill markers" d=" M 254.97077245393228 1502.0763941126668 L 241.3581030372656 1508.882728821 L 254.97077245393228 1515.6890635293332 Z"/></g></g><g><g><rect fill="white" stroke="none" x="435.05762274034487" y="1533.3855337710002" width="177.63496650757813" height="21.23576429"/></g><text fill="black" stroke="none" font-family="sans-serif" font-size="11pt" font-style="normal" font-weight="normal" text-decoration="normal" x="437.5079032353449" y="1548.0872167410002" text-anchor="start" dominant-baseline="alphabetic">MQTT Publish: Update job</text></g><g><path fill="none" stroke="black" paint-order="fill stroke markers" d=" M 241.3581030372656 1554.621298061 L 803.6695750676691 1554.621298061" stroke-miterlimit="10" stroke-width="1.3612669416666667" stroke-dasharray=""/><g transform="translate(806.3921089510025,1554.621298061) translate(-806.3921089510025,-1554.621298061)"><path fill="black" stroke="none" paint-order="stroke fill markers" d=" M 792.7794395343358 1547.8149633526668 L 806.3921089510025 1554.621298061 L 792.7794395343358 1561.4276327693333 Z"/></g></g><path fill="white" stroke="black" paint-order="fill stroke markers" d=" M 218.4888184172656 1579.124103011 L 814.5597106010025 1579.124103011 L 829.2613935710025 1593.825785981 L 829.2613935710025 1633.030273901 L 218.4888184172656 1633.030273901 L 218.4888184172656 1579.124103011 M 814.5597106010025 1579.124103011 L 814.5597106010025 1593.825785981 L 829.2613935710025 1593.825785981" stroke-miterlimit="10" stroke-width="1.3612669416666667" stroke-dasharray=""/><g><text fill="black" stroke="none" font-family="sans-serif" font-size="11pt" font-style="normal" font-weight="normal" text-decoration="normal" x="454.2222892216731" y="1601.9933876310004" text-anchor="start" dominant-baseline="alphabetic">status: SUCCEEDED</text><text fill="black" stroke="none" font-family="sans-serif" font-size="11pt" font-style="normal" font-weight="normal" text-decoration="normal" x="454.2222892216731" y="1618.3285909310005" text-anchor="start" dominant-baseline="alphabetic">nextState: none</text></g><g><g><rect fill="white" stroke="none" x="437.8887155748175" y="1657.5330788510003" width="171.97278083863281" height="21.23576429"/></g><text fill="black" stroke="none" font-family="sans-serif" font-size="11pt" font-style="normal" font-weight="normal" text-decoration="normal" x="440.33899606981754" y="1672.2347618210003" text-anchor="start" dominant-baseline="alphabetic">Publish on accepted topic</text></g><g><path fill="none" stroke="black" paint-order="fill stroke markers" d=" M 806.3921089510025 1678.7688431410002 L 244.08063692059895 1678.7688431410002" stroke-miterlimit="10" stroke-width="1.3612669416666667" stroke-dasharray=""/><g transform="translate(241.3581030372656,1678.7688431410002) translate(-241.3581030372656,-1678.7688431410002)"><path fill="black" stroke="none" paint-order="stroke fill markers" d=" M 254.97077245393228 1671.962508432667 L 241.3581030372656 1678.7688431410002 L 254.97077245393228 1685.5751778493334 Z"/></g></g><path fill="white" stroke="black" paint-order="fill stroke markers" d=" M 233.1905013872656 1722.0571318860002 L 225.02289973726562 1722.0571318860002 M 81.50341619062499 1703.271648091 L 210.3212167672656 1703.271648091 L 225.02289973726562 1717.9733310610002 L 225.02289973726562 1740.842615681 L 81.50341619062499 1740.842615681 L 81.50341619062499 1703.271648091 M 210.3212167672656 1703.271648091 L 210.3212167672656 1717.9733310610002 L 225.02289973726562 1717.9733310610002" stroke-miterlimit="10" stroke-width="1.3612669416666667" stroke-dasharray=""/><g><text fill="black" stroke="none" font-family="sans-serif" font-size="11pt" font-style="normal" font-weight="normal" text-decoration="normal" x="104.37270081062499" y="1726.1409327110002" text-anchor="start" dominant-baseline="alphabetic">Device reboots</text></g></g><g/><g/><g/><g/><g/></g></svg>