<?xml version="1.0" encoding="UTF-8" standalone="no"?>
<!DOCTYPE svg PUBLIC "-//W3C//DTD SVG 1.1//EN" "http://www.w3.org/Graphics/SVG/1.1/DTD/svg11.dtd">
<!-- Generated by Microsoft Visio, SVG Export aws_matter_interaction.svg Page-1 -->
<svg xmlns="http://www.w3.org/2000/svg" xmlns:xlink="http://www.w3.org/1999/xlink" xmlns:ev="http://www.w3.org/2001/xml-events"
		width="5.67166in" height="4.66956in" viewBox="0 0 408.36 336.208" xml:space="preserve" color-interpolation-filters="sRGB"
		class="st13">
	<style type="text/css">
	<![CDATA[
		.st1 {fill:#d9e1e2;stroke:none;stroke-width:1}
		.st2 {fill:#333f48;font-family:Arial;font-size:0.75em}
		.st3 {fill:#f58220;stroke:none;stroke-width:1}
		.st4 {fill:#ffffff;font-family:Arial;font-size:0.75em}
		.st5 {marker-start:url(#mrkr4-15);stroke:#333f48;stroke-linecap:butt;stroke-width:0.5}
		.st6 {fill:#333f48;fill-opacity:1;stroke:#333f48;stroke-opacity:1;stroke-width:0.16556291390728}
		.st7 {font-size:1em}
		.st8 {fill:#d0df00;stroke:none;stroke-width:1}
		.st9 {fill:none;stroke:#333f48;stroke-width:1}
		.st10 {marker-end:url(#mrkr4-62);stroke:#333f48;stroke-linecap:butt;stroke-width:0.5}
		.st11 {fill:none;stroke:none;stroke-width:1}
		.st12 {fill:#000000;font-family:Arial;font-size:0.75em}
		.st13 {fill:none;fill-rule:evenodd;font-size:12px;overflow:visible;stroke-linecap:square;stroke-miterlimit:3}
	]]>
	</style>

	<defs id="Markers">
		<g id="lend4">
			<path d="M 2 1 L 0 0 L 2 -1 L 2 1 " style="stroke:none"/>
		</g>
		<marker id="mrkr4-15" class="st6" refX="11.36" orient="auto" markerUnits="strokeWidth" overflow="visible">
			<use xlink:href="#lend4" transform="scale(6.04) "/>
		</marker>
		<marker id="mrkr4-62" class="st6" refX="-12.08" orient="auto" markerUnits="strokeWidth" overflow="visible">
			<use xlink:href="#lend4" transform="scale(-6.04,-6.04) "/>
		</marker>
	</defs>
	<g>
		<title>Page-1</title>
		<g id="shape1003-1" transform="translate(160.567,-297.649)">
			<title>Nordic Sun.1003</title>
			<desc>Boot</desc>
			<rect x="0" y="298.649" width="100.749" height="37.5591" class="st1"/>
			<text x="41.12" y="320.13" class="st2">Boot</text>		</g>
		<g id="shape1033-4" transform="translate(160.567,-223.799)">
			<title>Nordic Sun.1033</title>
			<desc>Provisioned on Wi-Fi</desc>
			<rect x="0" y="298.649" width="100.749" height="37.5591" class="st1"/>
			<text x="8.86" y="320.13" class="st2">Provisioned on Wi-Fi</text>		</g>
		<g id="shape1037-7" transform="translate(160.567,-149.11)">
			<title>Nordic Sun.1037</title>
			<desc>Connect</desc>
			<rect x="0" y="298.649" width="100.749" height="37.5591" class="st3"/>
			<text x="33.61" y="320.13" class="st4">Connect</text>		</g>
		<g id="shape1038-10" transform="translate(203.855,-261.358)">
			<title>Dynamic connector.1038</title>
			<path d="M7.09 330.53 L7.09 330.17 L7.09 299.92" class="st5"/>
		</g>
		<g id="shape1040-16" transform="translate(203.979,-187.168)">
			<title>Dynamic connector.1040</title>
			<path d="M7.09 330.53 L7.09 330.17 L7.09 299.92" class="st5"/>
		</g>
		<g id="shape1042-21" transform="translate(203.855,-112.819)">
			<title>Dynamic connector.1042</title>
			<path d="M7.09 330.53 L7.09 330.17 L7.09 299.92" class="st5"/>
		</g>
		<g id="shape1073-26" transform="translate(160.691,-75.2602)">
			<title>Nordic Sun.1073</title>
			<desc>Clear desired shadow state</desc>
			<rect x="0" y="298.649" width="100.749" height="37.5591" class="st3"/>
			<text x="6.85" y="314.73" class="st4">Clear desired shadow <tspan x="40.62" dy="1.2em" class="st7">state</tspan></text>		</g>
		<g id="shape1075-30" transform="translate(159.402,-1)">
			<title>Nordic Sun.1075</title>
			<desc>Populate reported state with attribute values</desc>
			<rect x="0" y="298.649" width="100.749" height="37.5591" class="st3"/>
			<text x="14.6" y="309.33" class="st4">Populate reported <tspan x="13.86" dy="1.2em" class="st7">state with attribute </tspan><tspan
						x="37.37" dy="1.2em" class="st7">values</tspan></text>		</g>
		<g id="shape1076-35" transform="translate(202.69,-38.9693)">
			<title>Dynamic connector.1076</title>
			<path d="M7.09 330.53 L7.09 330.17 L7.09 299.92" class="st5"/>
		</g>
		<g id="shape1077-40" transform="translate(12.516,-1)">
			<title>Nordic Sun.1077</title>
			<desc>Set attributes in cluster</desc>
			<rect x="0" y="298.649" width="100.749" height="37.5591" class="st8"/>
			<text x="4.6" y="320.13" class="st4">Set attributes in cluster</text>		</g>
		<g id="shape1078-43" transform="translate(12.516,-75.2602)">
			<title>Nordic Sun.1078</title>
			<desc>Attribute change recieved on delta topic</desc>
			<rect x="0" y="298.649" width="100.749" height="37.5591" class="st3"/>
			<text x="17.6" y="314.73" class="st4">Attribute change <tspan x="5.35" dy="1.2em" class="st7">recieved on delta topic</tspan></text>		</g>
		<g id="shape1083-47" transform="translate(1,-280.921)">
			<title>Sheet.1083</title>
			<rect x="0" y="288.019" width="100.749" height="48.189" class="st9"/>
		</g>
		<g id="shape1086-49" transform="translate(9.50394,-308.54)">
			<title>Nordic Lake.1014</title>
			<rect x="0" y="321.564" width="14.6448" height="14.6448" class="st3"/>
		</g>
		<g id="shape1091-51" transform="translate(9.50394,-289.521)">
			<title>Nordic Middle Grey.1025</title>
			<rect x="0" y="321.564" width="14.6448" height="14.6448" class="st8"/>
		</g>
		<g id="shape1096-53" transform="translate(306.611,-75.2602)">
			<title>Nordic Sun.1096</title>
			<desc>Attribute in cluster updated</desc>
			<rect x="0" y="298.649" width="100.749" height="37.5591" class="st8"/>
			<text x="14.36" y="314.73" class="st4">Attribute in cluster <tspan x="34.11" dy="1.2em" class="st7">updated</tspan></text>		</g>
		<g id="shape1097-57" transform="translate(306.611,-88.1476)">
			<title>Dynamic connector.1097</title>
			<path d="M0 329.29 L-39.13 329" class="st10"/>
		</g>
		<g id="shape1099-63" transform="translate(200.371,-201.835)">
			<title>Sheet.1099</title>
			<desc>IP obtained</desc>
			<rect x="0" y="325.153" width="70.8661" height="11.0551" class="st11"/>
			<text x="12.67" y="333.38" class="st12">IP obtained</text>		</g>
		<g id="shape1101-66" transform="translate(198.908,-125.752)">
			<title>Sheet.1101</title>
			<desc>Connected</desc>
			<rect x="0" y="325.153" width="70.8661" height="11.0551" class="st11"/>
			<text x="13.67" y="333.38" class="st12">Connected</text>		</g>
		<g id="shape1103-69" transform="translate(55.804,-38.9693)">
			<title>Dynamic connector.1103</title>
			<path d="M7.09 330.53 L7.09 330.17 L7.09 299.92" class="st5"/>
		</g>
		<g id="shape1106-74" transform="translate(12.3386,-309.268)">
			<title>Sheet.1106</title>
			<desc>Cloud operation</desc>
			<rect x="0" y="322.035" width="93.0718" height="14.1732" class="st11"/>
			<text x="14.76" y="331.82" class="st12">Cloud operation</text>		</g>
		<g id="shape1111-77" transform="translate(16.3548,-289.425)">
			<title>Sheet.1111</title>
			<desc>Matter operation</desc>
			<rect x="0" y="322.035" width="89.0556" height="14.1732" class="st11"/>
			<text x="11.76" y="331.82" class="st12">Matter operation</text>		</g>
		<g id="shape1112-80" transform="translate(159.402,-12.6929)">
			<title>Dynamic connector.1112</title>
			<path d="M-5.68 329.12 L-6.04 329.12 L-46.14 329.12" class="st5"/>
		</g>
	</g>
</svg>
