<svg version="1.1" xmlns="http://www.w3.org/2000/svg" xmlns:xlink="http://www.w3.org/1999/xlink" width="1141" height="1560"><defs/><g><g/><g/><g/><g/><g/><g/><g/><g/><g/><g/><g/><g/><g/><g/><g/><g/><g/><g/><g/><g/><g/><g/><g/><g/><g/><g/><g/><g/><g/><g/><g/><g/><g/><g><rect fill="white" stroke="none" x="0" y="0" width="1141" height="1560"/></g><g><text fill="black" stroke="none" font-family="sans-serif" font-size="16.5pt" font-style="normal" font-weight="normal" text-decoration="normal" x="423.87031678071185" y="22.6179738" text-anchor="start" dominant-baseline="alphabetic" xml:space="preserve">AWS Firmware-over-the-air</text></g><g/><g><path fill="none" stroke="black" paint-order="fill stroke markers" d=" M 248.2215228588281 88.511670804 L 248.2215228588281 1560.1878327239997" stroke-miterlimit="10" stroke-width="1.2565541" stroke-dasharray="11.598960923076923,5.0262164"/><path fill="none" stroke="black" paint-order="fill stroke markers" d=" M 707.0288151553125 88.511670804 L 707.0288151553125 1560.1878327239997" stroke-miterlimit="10" stroke-width="1.2565541" stroke-dasharray="11.598960923076923,5.0262164"/><path fill="none" stroke="black" paint-order="fill stroke markers" d=" M 907.7134546047265 88.511670804 L 907.7134546047265 1560.1878327239997" stroke-miterlimit="10" stroke-width="1.2565541" stroke-dasharray="11.598960923076923,5.0262164"/><path fill="none" stroke="black" paint-order="fill stroke markers" d=" M 1063.2909677129687 88.511670804 L 1063.2909677129687 1560.1878327239997" stroke-miterlimit="10" stroke-width="1.2565541" stroke-dasharray="11.598960923076923,5.0262164"/></g><g><path fill="none" stroke="none"/><g><path fill="white" stroke="black" paint-order="fill stroke markers" d=" M 206.7611880953584 47.799317964000004 L 289.68185762229785 47.799317964000004 L 289.68185762229785 88.511670804 L 206.7611880953584 88.511670804 L 206.7611880953584 47.799317964000004 Z" stroke-miterlimit="10" stroke-width="2.4125838720000004" stroke-dasharray=""/></g><g><g/><text fill="black" stroke="none" font-family="sans-serif" font-size="11pt" font-style="normal" font-weight="normal" text-decoration="normal" x="223.12152247735838" y="73.43302160400002" text-anchor="start" dominant-baseline="alphabetic" xml:space="preserve">Device</text></g><path fill="none" stroke="none"/><g><path fill="white" stroke="black" paint-order="fill stroke markers" d=" M 611.1601494744843 47.799317964000004 L 802.8974808361406 47.799317964000004 L 802.8974808361406 88.511670804 L 611.1601494744843 88.511670804 L 611.1601494744843 47.799317964000004 Z" stroke-miterlimit="10" stroke-width="2.4125838720000004" stroke-dasharray=""/></g><g><g/><text fill="black" stroke="none" font-family="sans-serif" font-size="11pt" font-style="normal" font-weight="normal" text-decoration="normal" x="627.5204838564844" y="73.43302160400002" text-anchor="start" dominant-baseline="alphabetic" xml:space="preserve">AWS IoT MQTT Broker</text></g><path fill="none" stroke="none"/><g><path fill="white" stroke="black" paint-order="fill stroke markers" d=" M 843.8781217486054 47.799317964000004 L 971.5487874608476 47.799317964000004 L 971.5487874608476 88.511670804 L 843.8781217486054 88.511670804 L 843.8781217486054 47.799317964000004 Z" stroke-miterlimit="10" stroke-width="2.4125838720000004" stroke-dasharray=""/></g><g><g/><text fill="black" stroke="none" font-family="sans-serif" font-size="11pt" font-style="normal" font-weight="normal" text-decoration="normal" x="860.2384561306054" y="73.43302160400002" text-anchor="start" dominant-baseline="alphabetic" xml:space="preserve">AWS IoT Jobs</text></g><path fill="none" stroke="none"/><g><path fill="white" stroke="black" paint-order="fill stroke markers" d=" M 992.3473012692011 47.799317964000004 L 1134.2346341567363 47.799317964000004 L 1134.2346341567363 88.511670804 L 992.3473012692011 88.511670804 L 992.3473012692011 47.799317964000004 Z" stroke-miterlimit="10" stroke-width="2.4125838720000004" stroke-dasharray=""/></g><g><g/><text fill="black" stroke="none" font-family="sans-serif" font-size="11pt" font-style="normal" font-weight="normal" text-decoration="normal" x="1008.7076356512011" y="73.43302160400002" text-anchor="start" dominant-baseline="alphabetic" xml:space="preserve">AWS S3 Server</text></g></g><g><path fill="white" stroke="black" paint-order="fill stroke markers" d=" M 699.4894905553125 96.050995404 L 714.5681397553125 96.050995404 L 714.5681397553125 994.738487724 L 699.4894905553125 994.738487724 L 699.4894905553125 96.050995404" stroke-miterlimit="10" stroke-width="1.2565541" stroke-dasharray=""/><path fill="white" stroke="black" paint-order="fill stroke markers" d=" M 240.68219825882812 153.34986236400002 L 255.7608474588281 153.34986236400002 L 255.7608474588281 1460.6687480039998 L 240.68219825882812 1460.6687480039998 L 240.68219825882812 153.34986236400002" stroke-miterlimit="10" stroke-width="1.2565541" stroke-dasharray=""/><path fill="white" stroke="black" paint-order="fill stroke markers" d=" M 900.1741300047265 394.608249564 L 915.2527792047265 394.608249564 L 915.2527792047265 937.439620764 L 900.1741300047265 937.439620764 L 900.1741300047265 394.608249564" stroke-miterlimit="10" stroke-width="1.2565541" stroke-dasharray=""/><path fill="white" stroke="black" paint-order="fill stroke markers" d=" M 1055.7516431129686 1036.9587054840001 L 1070.8302923129688 1036.9587054840001 L 1070.8302923129688 1079.178923244 L 1055.7516431129686 1079.178923244 L 1055.7516431129686 1036.9587054840001" stroke-miterlimit="10" stroke-width="1.2565541" stroke-dasharray=""/><path fill="white" stroke="black" paint-order="fill stroke markers" d=" M 900.1741300047265 1251.075524124 L 915.2527792047265 1251.075524124 L 915.2527792047265 1450.1136935639997 L 900.1741300047265 1450.1136935639997 L 900.1741300047265 1251.075524124" stroke-miterlimit="10" stroke-width="1.2565541" stroke-dasharray=""/><path fill="white" stroke="black" paint-order="fill stroke markers" d=" M 699.4894905553125 1251.075524124 L 714.5681397553125 1251.075524124 L 714.5681397553125 1545.1091835239997 L 699.4894905553125 1545.1091835239997 L 699.4894905553125 1251.075524124" stroke-miterlimit="10" stroke-width="1.2565541" stroke-dasharray=""/><path fill="white" stroke="black" paint-order="fill stroke markers" d=" M 248.2215228588281 136.00941578400003 L 240.68219825882812 136.00941578400003 M 109.8119789729492 118.668969204 L 227.11141397882812 118.668969204 L 240.68219825882812 132.239753484 L 240.68219825882812 153.34986236400002 L 109.8119789729492 153.34986236400002 L 109.8119789729492 118.668969204 M 227.11141397882812 118.668969204 L 227.11141397882812 132.239753484 L 240.68219825882812 132.239753484" stroke-miterlimit="10" stroke-width="1.2565541" stroke-dasharray=""/><g><text fill="black" stroke="none" font-family="sans-serif" font-size="11pt" font-style="normal" font-weight="normal" text-decoration="normal" x="130.9220878529492" y="139.77907808400002" text-anchor="start" dominant-baseline="alphabetic" xml:space="preserve">Device Boot</text></g><g><g><rect fill="white" stroke="none" x="420.0800388023633" y="175.967836164" width="115.09026040941406" height="19.602243960000003"/></g><text fill="black" stroke="none" font-family="sans-serif" font-size="11pt" font-style="normal" font-weight="normal" text-decoration="normal" x="422.3418361823633" y="189.538620444" text-anchor="start" dominant-baseline="alphabetic" xml:space="preserve">MQTT: Connect</text></g><g><path fill="none" stroke="black" paint-order="fill stroke markers" d=" M 255.7608474588281 195.57008012400001 L 687.0747360473125 195.57008012400001" stroke-miterlimit="10" stroke-width="1.2565541" stroke-dasharray=""/><g transform="translate(699.4894905553125,195.57008012400001) translate(-699.4894905553125,-195.57008012400001)"><path fill="black" stroke="none" paint-order="stroke fill markers" d=" M 686.9239495553124 189.28730962400002 L 699.4894905553125 195.57008012400001 L 686.9239495553124 201.852850624 Z"/></g></g><g><g><rect fill="white" stroke="none" x="413.7133701011914" y="218.188053924" width="127.82359781175781" height="19.602243960000003"/></g><text fill="black" stroke="none" font-family="sans-serif" font-size="11pt" font-style="normal" font-weight="normal" text-decoration="normal" x="415.9751674811914" y="231.758838204" text-anchor="start" dominant-baseline="alphabetic" xml:space="preserve">MQTT: CONNACK</text></g><g><path fill="none" stroke="black" paint-order="fill stroke markers" d=" M 699.4894905553125 237.790297884 L 268.1756019668281 237.790297884" stroke-miterlimit="10" stroke-width="1.2565541" stroke-dasharray=""/><g transform="translate(255.7608474588281,237.790297884) translate(-255.7608474588281,-237.790297884)"><path fill="black" stroke="none" paint-order="stroke fill markers" d=" M 268.3263884588281 231.507527384 L 255.7608474588281 237.790297884 L 268.3263884588281 244.073068384 Z"/></g></g><g><g><rect fill="white" stroke="none" x="414.3633716270703" y="260.408271684" width="126.52359476" height="19.602243960000003"/></g><text fill="black" stroke="none" font-family="sans-serif" font-size="11pt" font-style="normal" font-weight="normal" text-decoration="normal" x="416.6251690070703" y="273.97905596400005" text-anchor="start" dominant-baseline="alphabetic" xml:space="preserve">MQTT: Subscribe</text></g><g><path fill="none" stroke="black" paint-order="fill stroke markers" d=" M 255.7608474588281 280.010515644 L 687.0747360473125 280.010515644" stroke-miterlimit="10" stroke-width="1.2565541" stroke-dasharray=""/><g transform="translate(699.4894905553125,280.010515644) translate(-699.4894905553125,-280.010515644)"><path fill="black" stroke="none" paint-order="stroke fill markers" d=" M 686.9239495553124 273.727745144 L 699.4894905553125 280.010515644 L 686.9239495553124 286.29328614400004 Z"/></g></g><path fill="white" stroke="black" paint-order="fill stroke markers" d=" M 234.6507385788281 302.628489444 L 707.0288151553125 302.628489444 L 720.5995994353125 316.199273724 L 720.5995994353125 337.309382604 L 234.6507385788281 337.309382604 L 234.6507385788281 302.628489444 M 707.0288151553125 302.628489444 L 707.0288151553125 316.199273724 L 720.5995994353125 316.199273724" stroke-miterlimit="10" stroke-width="1.2565541" stroke-dasharray=""/><g><text fill="black" stroke="none" font-family="sans-serif" font-size="11pt" font-style="normal" font-weight="normal" text-decoration="normal" x="318.58349725414064" y="323.738598324" text-anchor="start" dominant-baseline="alphabetic" xml:space="preserve">$aws/things/&lt;thingName&gt;/jobs/notify-next</text></g><path fill="white" stroke="black" paint-order="fill stroke markers" d=" M 907.7134546047265 377.267802984 L 915.2527792047265 377.267802984 M 915.2527792047265 359.927356404 L 1027.1022096329687 359.927356404 L 1040.6729939129686 373.498140684 L 1040.6729939129686 394.608249564 L 915.2527792047265 394.608249564 L 915.2527792047265 359.927356404 M 1027.1022096329687 359.927356404 L 1027.1022096329687 373.498140684 L 1040.6729939129686 373.498140684" stroke-miterlimit="10" stroke-width="1.2565541" stroke-dasharray=""/><g><text fill="black" stroke="none" font-family="sans-serif" font-size="11pt" font-style="normal" font-weight="normal" text-decoration="normal" x="936.3628880847265" y="381.03746528400006" text-anchor="start" dominant-baseline="alphabetic" xml:space="preserve">Job created</text></g><g><g><rect fill="white" stroke="none" x="524.6056928776563" y="417.226223364" width="106.72359170824218" height="19.602243960000003"/></g><text fill="black" stroke="none" font-family="sans-serif" font-size="11pt" font-style="normal" font-weight="normal" text-decoration="normal" x="526.8674902576563" y="430.797007644" text-anchor="start" dominant-baseline="alphabetic" xml:space="preserve">MQTT: Publish</text></g><g><path fill="none" stroke="black" paint-order="fill stroke markers" d=" M 900.1741300047265 436.82846732400003 L 268.1756019668281 436.82846732400003" stroke-miterlimit="10" stroke-width="1.2565541" stroke-dasharray=""/><g transform="translate(255.7608474588281,436.82846732400003) translate(-255.7608474588281,-436.82846732400003)"><path fill="black" stroke="none" paint-order="stroke fill markers" d=" M 268.3263884588281 430.545696824 L 255.7608474588281 436.82846732400003 L 268.3263884588281 443.11123782400006 Z"/></g></g><path fill="white" stroke="black" paint-order="fill stroke markers" d=" M 234.6507385788281 459.44644112400005 L 907.7134546047266 459.44644112400005 L 921.2842388847266 473.01722540400004 L 921.2842388847266 494.127334284 L 234.6507385788281 494.127334284 L 234.6507385788281 459.44644112400005 M 907.7134546047266 459.44644112400005 L 907.7134546047266 473.01722540400004 L 921.2842388847266 473.01722540400004" stroke-miterlimit="10" stroke-width="1.2565541" stroke-dasharray=""/><g><text fill="black" stroke="none" font-family="sans-serif" font-size="11pt" font-style="normal" font-weight="normal" text-decoration="normal" x="484.15082308236333" y="480.5565500040001" text-anchor="start" dominant-baseline="alphabetic" xml:space="preserve">Job description document</text></g><g><g><rect fill="white" stroke="none" x="420.77170445177734" y="516.745308084" width="113.70692911058593" height="19.602243960000003"/></g><text fill="black" stroke="none" font-family="sans-serif" font-size="11pt" font-style="normal" font-weight="normal" text-decoration="normal" x="423.03350183177736" y="530.316092364" text-anchor="start" dominant-baseline="alphabetic" xml:space="preserve">MQTT: PUBACK</text></g><g><path fill="none" stroke="black" paint-order="fill stroke markers" d=" M 255.7608474588281 536.347552044 L 687.0747360473125 536.347552044" stroke-miterlimit="10" stroke-width="1.2565541" stroke-dasharray=""/><g transform="translate(699.4894905553125,536.347552044) translate(-699.4894905553125,-536.347552044)"><path fill="black" stroke="none" paint-order="stroke fill markers" d=" M 686.9239495553124 530.0647815440001 L 699.4894905553125 536.347552044 L 686.9239495553124 542.630322544 Z"/></g></g><g><g><rect fill="white" stroke="none" x="405.18003727648437" y="558.965525844" width="144.89026346117188" height="19.602243960000003"/></g><text fill="black" stroke="none" font-family="sans-serif" font-size="11pt" font-style="normal" font-weight="normal" text-decoration="normal" x="407.4418346564844" y="572.536310124" text-anchor="start" dominant-baseline="alphabetic" xml:space="preserve">MQTT: Unsubscribe</text></g><g><path fill="none" stroke="black" paint-order="fill stroke markers" d=" M 255.7608474588281 578.567769804 L 687.0747360473125 578.567769804" stroke-miterlimit="10" stroke-width="1.2565541" stroke-dasharray=""/><g transform="translate(699.4894905553125,578.567769804) translate(-699.4894905553125,-578.567769804)"><path fill="black" stroke="none" paint-order="stroke fill markers" d=" M 686.9239495553124 572.284999304 L 699.4894905553125 578.567769804 L 686.9239495553124 584.850540304 Z"/></g></g><path fill="white" stroke="black" paint-order="fill stroke markers" d=" M 234.6507385788281 601.1857436040001 L 707.0288151553125 601.1857436040001 L 720.5995994353125 614.7565278840001 L 720.5995994353125 635.8666367640001 L 234.6507385788281 635.8666367640001 L 234.6507385788281 601.1857436040001 M 707.0288151553125 601.1857436040001 L 707.0288151553125 614.7565278840001 L 720.5995994353125 614.7565278840001" stroke-miterlimit="10" stroke-width="1.2565541" stroke-dasharray=""/><g><text fill="black" stroke="none" font-family="sans-serif" font-size="11pt" font-style="normal" font-weight="normal" text-decoration="normal" x="315.75850030589845" y="622.2958524840001" text-anchor="start" dominant-baseline="alphabetic" xml:space="preserve">$aws/things/&lt;thing_name&gt;/jobs/notify-next</text></g><g><g><rect fill="white" stroke="none" x="414.3633716270703" y="658.484610564" width="126.52359476" height="19.602243960000003"/></g><text fill="black" stroke="none" font-family="sans-serif" font-size="11pt" font-style="normal" font-weight="normal" text-decoration="normal" x="416.6251690070703" y="672.055394844" text-anchor="start" dominant-baseline="alphabetic" xml:space="preserve">MQTT: Subscribe</text></g><g><path fill="none" stroke="black" paint-order="fill stroke markers" d=" M 255.7608474588281 678.086854524 L 687.0747360473125 678.086854524" stroke-miterlimit="10" stroke-width="1.2565541" stroke-dasharray=""/><g transform="translate(699.4894905553125,678.086854524) translate(-699.4894905553125,-678.086854524)"><path fill="black" stroke="none" paint-order="stroke fill markers" d=" M 686.9239495553124 671.8040840240001 L 699.4894905553125 678.086854524 L 686.9239495553124 684.369625024 Z"/></g></g><path fill="white" stroke="black" paint-order="fill stroke markers" d=" M 234.6507385788281 700.7048283240001 L 707.0288151553125 700.7048283240001 L 720.5995994353125 714.2756126040001 L 720.5995994353125 750.4643706840001 L 234.6507385788281 750.4643706840001 L 234.6507385788281 700.7048283240001 M 707.0288151553125 700.7048283240001 L 707.0288151553125 714.2756126040001 L 720.5995994353125 714.2756126040001" stroke-miterlimit="10" stroke-width="1.2565541" stroke-dasharray=""/><g><text fill="black" stroke="none" font-family="sans-serif" font-size="11pt" font-style="normal" font-weight="normal" text-decoration="normal" x="263.30017205882814" y="721.814937204" text-anchor="start" dominant-baseline="alphabetic" xml:space="preserve">$aws/things/&lt;thingName&gt;/jobs/&lt;jobId&gt;/update/accepted</text><text fill="black" stroke="none" font-family="sans-serif" font-size="11pt" font-style="normal" font-weight="normal" text-decoration="normal" x="263.30017205882814" y="736.893586404" text-anchor="start" dominant-baseline="alphabetic" xml:space="preserve">$aws/things/&lt;thingName&gt;/jobs/&lt;jobId&gt;/update/rejected</text></g><g><g><rect fill="white" stroke="none" x="482.89735700119144" y="773.082344484" width="190.14026346117188" height="19.602243960000003"/></g><text fill="black" stroke="none" font-family="sans-serif" font-size="11pt" font-style="normal" font-weight="normal" text-decoration="normal" x="485.15915438119146" y="786.653128764" text-anchor="start" dominant-baseline="alphabetic" xml:space="preserve">MQTT: Publish update job</text></g><g><path fill="none" stroke="black" paint-order="fill stroke markers" d=" M 255.7608474588281 792.684588444 L 887.7593754967265 792.684588444" stroke-miterlimit="10" stroke-width="1.2565541" stroke-dasharray=""/><g transform="translate(900.1741300047265,792.684588444) translate(-900.1741300047265,-792.684588444)"><path fill="black" stroke="none" paint-order="stroke fill markers" d=" M 887.6085890047265 786.4018179440001 L 900.1741300047265 792.684588444 L 887.6085890047265 798.967358944 Z"/></g></g><path fill="white" stroke="black" paint-order="fill stroke markers" d=" M 234.6507385788281 815.302562244 L 907.7134546047266 815.302562244 L 921.2842388847266 828.873346524 L 921.2842388847266 895.219403004 L 234.6507385788281 895.219403004 L 234.6507385788281 815.302562244 M 907.7134546047266 815.302562244 L 907.7134546047266 828.873346524 L 921.2842388847266 828.873346524" stroke-miterlimit="10" stroke-width="1.2565541" stroke-dasharray=""/><g><text fill="black" stroke="none" font-family="sans-serif" font-size="11pt" font-style="normal" font-weight="normal" text-decoration="normal" x="399.90082308236333" y="836.412671124" text-anchor="start" dominant-baseline="alphabetic" xml:space="preserve">$aws/things/&lt;thingName&gt;/jobs/&lt;jobId&gt;/update</text><text fill="black" stroke="none" font-family="sans-serif" font-size="11pt" font-style="normal" font-weight="normal" text-decoration="normal" x="399.90082308236333" y="851.491320324" text-anchor="start" dominant-baseline="alphabetic" xml:space="preserve"></text><text fill="black" stroke="none" font-family="sans-serif" font-size="11pt" font-style="normal" font-weight="normal" text-decoration="normal" x="399.90082308236333" y="866.5699695239999" text-anchor="start" dominant-baseline="alphabetic" xml:space="preserve">status: IN_PROGRESS</text><text fill="black" stroke="none" font-family="sans-serif" font-size="11pt" font-style="normal" font-weight="normal" text-decoration="normal" x="399.90082308236333" y="881.6486187239999" text-anchor="start" dominant-baseline="alphabetic" xml:space="preserve">nextState: download_firmware</text></g><g><g><rect fill="white" stroke="none" x="416.2556944035352" y="917.837376804" width="323.42358865648436" height="19.602243960000003"/></g><text fill="black" stroke="none" font-family="sans-serif" font-size="11pt" font-style="normal" font-weight="normal" text-decoration="normal" x="418.5174917835352" y="931.408161084" text-anchor="start" dominant-baseline="alphabetic" xml:space="preserve">MQTT Publish: Job Id update accepted topic</text></g><g><path fill="none" stroke="black" paint-order="fill stroke markers" d=" M 900.1741300047265 937.439620764 L 268.1756019668281 937.439620764" stroke-miterlimit="10" stroke-width="1.2565541" stroke-dasharray=""/><g transform="translate(255.7608474588281,937.439620764) translate(-255.7608474588281,-937.439620764)"><path fill="black" stroke="none" paint-order="stroke fill markers" d=" M 268.3263884588281 931.156850264 L 255.7608474588281 937.439620764 L 268.3263884588281 943.722391264 Z"/></g></g><path fill="white" stroke="black" paint-order="fill stroke markers" d=" M 240.68219825882812 977.398041144 L 233.14287365882814 977.398041144 M 7.5393246000000005 960.057594564 L 219.57208937882814 960.057594564 L 233.14287365882814 973.628378844 L 233.14287365882814 994.738487724 L 7.5393246000000005 994.738487724 L 7.5393246000000005 960.057594564 M 219.57208937882814 960.057594564 L 219.57208937882814 973.628378844 L 233.14287365882814 973.628378844" stroke-miterlimit="10" stroke-width="1.2565541" stroke-dasharray=""/><g><text fill="black" stroke="none" font-family="sans-serif" font-size="11pt" font-style="normal" font-weight="normal" text-decoration="normal" x="28.64943348" y="981.167703444" text-anchor="start" dominant-baseline="alphabetic" xml:space="preserve">Start Firmware download</text></g><g><g><rect fill="white" stroke="none" x="555.8611166070702" y="1017.3564615240001" width="199.79025735765626" height="19.602243960000003"/></g><text fill="black" stroke="none" font-family="sans-serif" font-size="11pt" font-style="normal" font-weight="normal" text-decoration="normal" x="558.1229139870702" y="1030.9272458040002" text-anchor="start" dominant-baseline="alphabetic" xml:space="preserve">HTTP request: &lt;file_path&gt;</text></g><g><path fill="none" stroke="black" paint-order="fill stroke markers" d=" M 255.7608474588281 1036.9587054840001 L 1043.3368886049686 1036.9587054840001" stroke-miterlimit="10" stroke-width="1.2565541" stroke-dasharray=""/><g transform="translate(1055.7516431129686,1036.9587054840001) translate(-1055.7516431129686,-1036.9587054840001)"><path fill="black" stroke="none" paint-order="stroke fill markers" d=" M 1043.1861021129687 1030.6759349840002 L 1055.7516431129686 1036.9587054840001 L 1043.1861021129687 1043.241475984 Z"/></g></g><g><g><rect fill="white" stroke="none" x="496.0777761529686" y="1059.5766792840002" width="319.35693826585936" height="19.602243960000003"/></g><text fill="black" stroke="none" font-family="sans-serif" font-size="11pt" font-style="normal" font-weight="normal" text-decoration="normal" x="498.33957353296864" y="1073.1474635640002" text-anchor="start" dominant-baseline="alphabetic" xml:space="preserve">HTTP response: with content-range header</text></g><g><path fill="none" stroke="black" paint-order="fill stroke markers" d=" M 1055.7516431129686 1079.178923244 L 268.1756019668281 1079.178923244" stroke-miterlimit="10" stroke-width="1.2565541" stroke-dasharray=""/><g transform="translate(255.7608474588281,1079.178923244) translate(-255.7608474588281,-1079.178923244)"><path fill="black" stroke="none" paint-order="stroke fill markers" d=" M 268.3263884588281 1072.8961527440001 L 255.7608474588281 1079.178923244 L 268.3263884588281 1085.461693744 Z"/></g></g><path fill="white" stroke="black" paint-order="fill stroke markers" d=" M 240.68219825882812 1119.137343624 L 233.14287365882814 1119.137343624 M 44.73932154824219 1101.796897044 L 219.57208937882814 1101.796897044 L 233.14287365882814 1115.367681324 L 233.14287365882814 1136.477790204 L 44.73932154824219 1136.477790204 L 44.73932154824219 1101.796897044 M 219.57208937882814 1101.796897044 L 219.57208937882814 1115.367681324 L 233.14287365882814 1115.367681324" stroke-miterlimit="10" stroke-width="1.2565541" stroke-dasharray=""/><g><text fill="black" stroke="none" font-family="sans-serif" font-size="11pt" font-style="normal" font-weight="normal" text-decoration="normal" x="65.84943042824219" y="1122.907005924" text-anchor="start" dominant-baseline="alphabetic" xml:space="preserve">Download complete</text></g><g><g><rect fill="white" stroke="none" x="485.14201777531247" y="1159.095764004" width="193.1902665129297" height="19.602243960000003"/></g><text fill="black" stroke="none" font-family="sans-serif" font-size="11pt" font-style="normal" font-weight="normal" text-decoration="normal" x="487.4038151553125" y="1172.666548284" text-anchor="start" dominant-baseline="alphabetic" xml:space="preserve">MQTT Publish: Update job</text></g><g><path fill="none" stroke="black" paint-order="fill stroke markers" d=" M 255.7608474588281 1178.698007964 L 895.2987000967265 1178.698007964" stroke-miterlimit="10" stroke-width="1.2565541" stroke-dasharray=""/><g transform="translate(907.7134546047265,1178.698007964) translate(-907.7134546047265,-1178.698007964)"><path fill="black" stroke="none" paint-order="stroke fill markers" d=" M 895.1479136047265 1172.415237464 L 907.7134546047265 1178.698007964 L 895.1479136047265 1184.980778464 Z"/></g></g><path fill="white" stroke="black" paint-order="fill stroke markers" d=" M 234.6507385788281 1201.3159817639998 L 907.7134546047266 1201.3159817639998 L 921.2842388847266 1214.8867660439998 L 921.2842388847266 1251.075524124 L 234.6507385788281 1251.075524124 L 234.6507385788281 1201.3159817639998 M 907.7134546047266 1201.3159817639998 L 907.7134546047266 1214.8867660439998 L 921.2842388847266 1214.8867660439998" stroke-miterlimit="10" stroke-width="1.2565541" stroke-dasharray=""/><g><text fill="black" stroke="none" font-family="sans-serif" font-size="11pt" font-style="normal" font-weight="normal" text-decoration="normal" x="480.9758200306055" y="1222.426090644" text-anchor="start" dominant-baseline="alphabetic" xml:space="preserve">status: IN_PROGRESS</text><text fill="black" stroke="none" font-family="sans-serif" font-size="11pt" font-style="normal" font-weight="normal" text-decoration="normal" x="480.9758200306055" y="1237.504739844" text-anchor="start" dominant-baseline="alphabetic" xml:space="preserve">nextState: apply_frimware</text></g><g><g><rect fill="white" stroke="none" x="481.52235700119144" y="1273.693497924" width="192.89026346117188" height="19.602243960000003"/></g><text fill="black" stroke="none" font-family="sans-serif" font-size="11pt" font-style="normal" font-weight="normal" text-decoration="normal" x="483.78415438119146" y="1287.264282204" text-anchor="start" dominant-baseline="alphabetic" xml:space="preserve">Publish on accepted topic</text></g><g><path fill="none" stroke="black" paint-order="fill stroke markers" d=" M 900.1741300047265 1293.2957418839999 L 268.1756019668281 1293.2957418839999" stroke-miterlimit="10" stroke-width="1.2565541" stroke-dasharray=""/><g transform="translate(255.7608474588281,1293.2957418839999) translate(-255.7608474588281,-1293.2957418839999)"><path fill="black" stroke="none" paint-order="stroke fill markers" d=" M 268.3263884588281 1287.012971384 L 255.7608474588281 1293.2957418839999 L 268.3263884588281 1299.5785123839999 Z"/></g></g><g><g><rect fill="white" stroke="none" x="481.37235547531253" y="1315.913715684" width="193.1902665129297" height="19.602243960000003"/></g><text fill="black" stroke="none" font-family="sans-serif" font-size="11pt" font-style="normal" font-weight="normal" text-decoration="normal" x="483.63415285531255" y="1329.484499964" text-anchor="start" dominant-baseline="alphabetic" xml:space="preserve">MQTT Publish: Update job</text></g><g><path fill="none" stroke="black" paint-order="fill stroke markers" d=" M 255.7608474588281 1335.5159596439998 L 887.7593754967265 1335.5159596439998" stroke-miterlimit="10" stroke-width="1.2565541" stroke-dasharray=""/><g transform="translate(900.1741300047265,1335.5159596439998) translate(-900.1741300047265,-1335.5159596439998)"><path fill="black" stroke="none" paint-order="stroke fill markers" d=" M 887.6085890047265 1329.2331891439999 L 900.1741300047265 1335.5159596439998 L 887.6085890047265 1341.7987301439998 Z"/></g></g><path fill="white" stroke="black" paint-order="fill stroke markers" d=" M 234.6507385788281 1358.1339334439997 L 907.7134546047266 1358.1339334439997 L 921.2842388847266 1371.7047177239997 L 921.2842388847266 1407.8934758039998 L 234.6507385788281 1407.8934758039998 L 234.6507385788281 1358.1339334439997 M 907.7134546047266 1358.1339334439997 L 907.7134546047266 1371.7047177239997 L 921.2842388847266 1371.7047177239997" stroke-miterlimit="10" stroke-width="1.2565541" stroke-dasharray=""/><g><text fill="black" stroke="none" font-family="sans-serif" font-size="11pt" font-style="normal" font-weight="normal" text-decoration="normal" x="505.1424917835352" y="1379.2440423239998" text-anchor="start" dominant-baseline="alphabetic" xml:space="preserve">status: SUCCEEDED</text><text fill="black" stroke="none" font-family="sans-serif" font-size="11pt" font-style="normal" font-weight="normal" text-decoration="normal" x="505.1424917835352" y="1394.3226915239998" text-anchor="start" dominant-baseline="alphabetic" xml:space="preserve">nextState: none</text></g><g><g><rect fill="white" stroke="none" x="481.52235700119144" y="1430.5114496039998" width="192.89026346117188" height="19.602243960000003"/></g><text fill="black" stroke="none" font-family="sans-serif" font-size="11pt" font-style="normal" font-weight="normal" text-decoration="normal" x="483.78415438119146" y="1444.0822338839998" text-anchor="start" dominant-baseline="alphabetic" xml:space="preserve">Publish on accepted topic</text></g><g><path fill="none" stroke="black" paint-order="fill stroke markers" d=" M 900.1741300047265 1450.1136935639997 L 268.1756019668281 1450.1136935639997" stroke-miterlimit="10" stroke-width="1.2565541" stroke-dasharray=""/><g transform="translate(255.7608474588281,1450.1136935639997) translate(-255.7608474588281,-1450.1136935639997)"><path fill="black" stroke="none" paint-order="stroke fill markers" d=" M 268.3263884588281 1443.8309230639998 L 255.7608474588281 1450.1136935639997 L 268.3263884588281 1456.3964640639997 Z"/></g></g><path fill="white" stroke="black" paint-order="fill stroke markers" d=" M 248.2215228588281 1490.0721139439997 L 240.68219825882812 1490.0721139439997 M 88.1619774470703 1472.7316673639996 L 227.11141397882812 1472.7316673639996 L 240.68219825882812 1486.3024516439996 L 240.68219825882812 1507.4125605239997 L 88.1619774470703 1507.4125605239997 L 88.1619774470703 1472.7316673639996 M 227.11141397882812 1472.7316673639996 L 227.11141397882812 1486.3024516439996 L 240.68219825882812 1486.3024516439996" stroke-miterlimit="10" stroke-width="1.2565541" stroke-dasharray=""/><g><text fill="black" stroke="none" font-family="sans-serif" font-size="11pt" font-style="normal" font-weight="normal" text-decoration="normal" x="109.2720863270703" y="1493.8417762439997" text-anchor="start" dominant-baseline="alphabetic" xml:space="preserve">Device reboots</text></g></g><g/><g/><g/><g/></g></svg>