<?xml version="1.0" encoding="UTF-8" standalone="no"?>
<!DOCTYPE svg PUBLIC "-//W3C//DTD SVG 1.1//EN" "http://www.w3.org/Graphics/SVG/1.1/DTD/svg11.dtd">
<!-- Generated by Microsoft Visio, SVG Export b0_mcuboot_flash_layout.svg Page-1 -->
<svg xmlns="http://www.w3.org/2000/svg" xmlns:xlink="http://www.w3.org/1999/xlink" xmlns:ev="http://www.w3.org/2001/xml-events"
		width="2.52778in" height="7.68785in" viewBox="0 0 182 553.525" xml:space="preserve" color-interpolation-filters="sRGB"
		class="st10">
	<style type="text/css">
	<![CDATA[
		.st1 {fill:#d0df00;stroke:none;stroke-width:1}
		.st2 {fill:#333f48;font-family:Calibri;font-size:1.00001em}
		.st3 {fill:#768692;stroke:none;stroke-width:1}
		.st4 {fill:#ffffff;font-family:Calibri;font-size:1.00001em}
		.st5 {fill:none;stroke:none;stroke-width:1}
		.st6 {fill:#333f48;stroke:none;stroke-width:1}
		.st7 {fill:#6ad1e3;stroke:none;stroke-width:1}
		.st8 {fill:#00a9ce;stroke:none;stroke-width:1}
		.st9 {fill:#d9e1e2;stroke:none;stroke-width:1}
		.st10 {fill:none;fill-rule:evenodd;font-size:12px;overflow:visible;stroke-linecap:square;stroke-miterlimit:3}
	]]>
	</style>

	<g>
		<title>Page-1</title>
		<g id="group1149-1" transform="translate(1,-1)">
			<title>Sheet.1149</title>
			<g id="shape1140-2">
				<title>Nordic Grass.1140</title>
				<desc>MCUboot secondary</desc>
				<rect x="0" y="484.775" width="180" height="68.7503" class="st1"/>
				<text x="39.95" y="508.35" class="st2">MCUboot secondary</text>			</g>
			<g id="shape1144-5" transform="translate(15,-12.9331)">
				<title>Nordic Sky.1144</title>
				<desc>Secondary app</desc>
				<rect x="0" y="531.025" width="150" height="22.5" class="st3"/>
				<text x="39.03" y="545.88" class="st4">Secondary app</text>			</g>
		</g>
		<g id="group1154-8" transform="translate(1,-74.2679)">
			<title>Sheet.1154</title>
			<g id="shape1136-9">
				<title>Nordic Grass.1136</title>
				<rect x="0" y="420.273" width="180" height="133.253" class="st1"/>
			</g>
			<g id="shape1138-11" transform="translate(15,-75.4883)">
				<title>Nordic Sky.1138</title>
				<desc>MCUboot pad</desc>
				<rect x="0" y="531.025" width="150" height="22.5" class="st3"/>
				<text x="40.8" y="545.88" class="st4">MCUboot pad</text>			</g>
			<g id="shape1151-14" transform="translate(40.4443,-102.64)">
				<title>Nordic Grass.1151</title>
				<desc>MCUboot primary</desc>
				<rect x="0" y="531.025" width="99.1114" height="22.5" class="st5"/>
				<text x="5.43" y="545.88" class="st2">MCUboot primary</text>			</g>
			<g id="group1153-17" transform="translate(15,-10.3127)">
				<title>Sheet.1153</title>
				<g id="shape1137-18">
					<title>Nordic Light Grey.1137</title>
					<rect x="0" y="493.001" width="150" height="60.5243" class="st3"/>
				</g>
				<g id="shape1139-20" transform="translate(13.3465,-7.5)">
					<title>Nordic Grass.1139</title>
					<desc>App</desc>
					<rect x="0" y="522.926" width="123.307" height="30.5994" class="st6"/>
					<text x="51.88" y="541.83" class="st4">App</text>				</g>
				<g id="shape1152-23" transform="translate(40.937,-38.0243)">
					<title>Nordic Light Grey.1152</title>
					<desc>Primary app</desc>
					<rect x="0" y="531.025" width="68.126" height="22.5" class="st5"/>
					<text x="4.48" y="545.88" class="st4">Primary app</text>				</g>
			</g>
		</g>
		<g id="group1177-26" transform="translate(1,-212.038)">
			<title>Sheet.1177</title>
			<g id="shape1169-27">
				<title>Nordic Middle Grey</title>
				<rect x="0" y="428.827" width="180" height="124.698" class="st7"/>
			</g>
			<g id="shape1170-29" transform="translate(15,-76.8873)">
				<title>Nordic Sky</title>
				<desc>S1 Pad</desc>
				<rect x="0" y="531.025" width="150" height="22.5" class="st8"/>
				<text x="58.72" y="545.88" class="st4">S1 Pad</text>			</g>
			<g id="shape1171-32" transform="translate(69.7627,-105.549)">
				<title>Nordic Middle Grey.1158</title>
				<desc>Slot 1</desc>
				<rect x="0" y="546.602" width="40.4747" height="6.92327" class="st5"/>
				<text x="6.53" y="553.66" class="st2">Slot 1</text>			</g>
			<g id="group1176-35" transform="translate(15,-12.2257)">
				<title>Sheet.1176</title>
				<g id="shape1173-36">
					<title>Nordic Light Grey.1073</title>
					<rect x="0" y="493.001" width="150" height="60.5243" class="st8"/>
				</g>
				<g id="shape1174-38" transform="translate(13.3465,-7.5)">
					<title>Nordic Grass</title>
					<desc>MCUboot</desc>
					<rect x="0" y="522.926" width="123.307" height="30.5994" class="st1"/>
					<text x="37.98" y="541.83" class="st2">MCUboot</text>				</g>
				<g id="shape1175-41" transform="translate(44.7874,-39.4391)">
					<title>Nordic Light Grey.1159</title>
					<desc>S1 Image</desc>
					<rect x="0" y="534.965" width="60.4252" height="18.5602" class="st5"/>
					<text x="8.07" y="547.85" class="st4">S1 Image</text>				</g>
			</g>
		</g>
		<g id="group1186-44" transform="translate(1,-470.47)">
			<title>Sheet.1186</title>
			<g id="shape1067-45">
				<title>Nordic Light Grey</title>
				<rect x="0" y="471.47" width="180" height="82.0555" class="st9"/>
			</g>
			<g id="shape1155-47" transform="translate(69.9102,-59.6131)">
				<title>Nordic Light Grey.1155</title>
				<desc>B0</desc>
				<rect x="0" y="538.394" width="39.3292" height="15.1311" class="st5"/>
				<text x="13.36" y="549.56" class="st2">B0</text>			</g>
			<g id="shape1182-50" transform="translate(15,-33.9487)">
				<title>Nordic Sky.1182</title>
				<desc>B0 Image</desc>
				<rect x="0" y="531.025" width="150" height="22.5" class="st8"/>
				<text x="52.35" y="545.88" class="st4">B0 Image</text>			</g>
			<g id="shape1183-53" transform="translate(15,-7.31135)">
				<title>Nordic Sky.1183</title>
				<desc>Provision*</desc>
				<rect x="0" y="531.025" width="150" height="22.5" class="st3"/>
				<text x="49.53" y="545.88" class="st4">Provision*</text>			</g>
		</g>
		<g id="group1188-56" transform="translate(1,-341.254)">
			<title>Sheet.1188</title>
			<g id="shape1068-57">
				<title>Nordic Middle Grey</title>
				<rect x="0" y="428.827" width="180" height="124.698" class="st7"/>
			</g>
			<g id="shape1129-59" transform="translate(15,-76.8873)">
				<title>Nordic Sky</title>
				<desc>S0 Pad</desc>
				<rect x="0" y="531.025" width="150" height="22.5" class="st8"/>
				<text x="58.72" y="545.88" class="st4">S0 Pad</text>			</g>
			<g id="shape1158-62" transform="translate(69.7627,-105.549)">
				<title>Nordic Middle Grey.1158</title>
				<desc>Slot 0</desc>
				<rect x="0" y="546.602" width="40.4747" height="6.92327" class="st5"/>
				<text x="6.53" y="553.66" class="st2">Slot 0</text>			</g>
			<g id="group1160-65" transform="translate(15,-12.2257)">
				<title>Sheet.1160</title>
				<g id="shape1073-66">
					<title>Nordic Light Grey.1073</title>
					<rect x="0" y="493.001" width="150" height="60.5243" class="st8"/>
				</g>
				<g id="shape1130-68" transform="translate(13.3465,-7.5)">
					<title>Nordic Grass</title>
					<desc>MCUboot</desc>
					<rect x="0" y="522.926" width="123.307" height="30.5994" class="st1"/>
					<text x="37.98" y="541.83" class="st2">MCUboot</text>				</g>
				<g id="shape1159-71" transform="translate(44.7874,-39.4391)">
					<title>Nordic Light Grey.1159</title>
					<desc>S0 Image</desc>
					<rect x="0" y="534.965" width="60.4252" height="18.5602" class="st5"/>
					<text x="8.07" y="547.85" class="st4">S0 Image</text>				</g>
			</g>
		</g>
		<g id="shape1189-74" transform="translate(1,-465.952)">
			<title>Nordic Dark Grey</title>
			<rect x="0" y="549.008" width="180" height="4.51757" class="st6"/>
		</g>
		<g id="shape1190-76" transform="translate(1,-336.736)">
			<title>Nordic Dark Grey.1190</title>
			<rect x="0" y="549.008" width="180" height="4.51757" class="st6"/>
		</g>
		<g id="shape1191-78" transform="translate(1,-207.521)">
			<title>Nordic Dark Grey.1191</title>
			<rect x="0" y="549.008" width="180" height="4.51757" class="st6"/>
		</g>
		<g id="shape1192-80" transform="translate(1,-69.7503)">
			<title>Nordic Dark Grey.1192</title>
			<rect x="0" y="549.008" width="180" height="4.51757" class="st6"/>
		</g>
	</g>
</svg>
