<?xml version="1.0" encoding="UTF-8" standalone="no"?>
<!DOCTYPE svg PUBLIC "-//W3C//DTD SVG 1.1//EN" "http://www.w3.org/Graphics/SVG/1.1/DTD/svg11.dtd">
<!-- Generated by Microsoft Visio, SVG Export bt_dtm.svg MSC -->
<svg xmlns="http://www.w3.org/2000/svg" xmlns:xlink="http://www.w3.org/1999/xlink" xmlns:ev="http://www.w3.org/2001/xml-events"
		xmlns:v="http://schemas.microsoft.com/visio/2003/SVGExtensions/" width="8.99637in" height="5.32004in"
		viewBox="0 0 647.739 383.043" xml:space="preserve" color-interpolation-filters="sRGB" class="st14">
	<v:documentProperties v:langID="1033" v:viewMarkup="false">
		<v:userDefs>
			<v:ud v:nameU="msvConvertTheme"/>
			<v:ud v:nameU="msvNoAutoConnect" v:val="VT0(1):26"/>
		</v:userDefs>
	</v:documentProperties>

	<style type="text/css">
	<![CDATA[
		.st1 {fill:#ffffff}
		.st2 {stroke:#000000;stroke-linecap:round;stroke-linejoin:round;stroke-width:0.24}
		.st3 {fill:#000000;font-family:Arial;font-size:1.00001em;font-weight:bold}
		.st4 {marker-end:url(#mrkr13-86);stroke:#000000;stroke-linecap:round;stroke-linejoin:round;stroke-width:0.24}
		.st5 {fill:#000000;fill-opacity:1;stroke:#000000;stroke-opacity:1;stroke-width:0.08695652173913}
		.st6 {fill:#ffffff;stroke:none;stroke-linecap:butt;stroke-width:7.2}
		.st7 {fill:#000000;font-family:Arial;font-size:0.666664em}
		.st8 {marker-start:url(#mrkr13-94);stroke:#000000;stroke-linecap:round;stroke-linejoin:round;stroke-width:0.24}
		.st9 {fill:#000000;font-family:Arial;font-size:0.833336em}
		.st10 {font-size:0.799995em}
		.st11 {fill:#ffffff;stroke:none;stroke-linecap:butt}
		.st12 {marker-end:url(#mrkr13-86);marker-start:url(#mrkr10-196);stroke:#000000;stroke-linecap:round;stroke-linejoin:round;stroke-width:0.24}
		.st13 {fill:#000000;fill-opacity:1;stroke:#000000;stroke-opacity:1;stroke-width:0.057142857142857}
		.st14 {fill:none;fill-rule:evenodd;font-size:12px;overflow:visible;stroke-linecap:square;stroke-miterlimit:3}
	]]>
	</style>

	<defs id="Markers">
		<g id="lend13">
			<path d="M 3 1 L 0 0 L 3 -1 L 3 1 " style="stroke:none"/>
		</g>
		<marker id="mrkr13-86" class="st5" v:arrowType="13" v:arrowSize="2" v:setback="34.5" refX="-34.5" orient="auto"
				markerUnits="strokeWidth" overflow="visible">
			<use xlink:href="#lend13" transform="scale(-11.5,-11.5) "/>
		</marker>
		<marker id="mrkr13-94" class="st5" v:arrowType="13" v:arrowSize="2" v:setback="33" refX="33" orient="auto"
				markerUnits="strokeWidth" overflow="visible">
			<use xlink:href="#lend13" transform="scale(11.5) "/>
		</marker>
		<g id="lend10">
			<path
					d="M 0 0.75 C -0.414214 0.75 -0.75 0.414214 -0.75 0 -0.75 -0.414214 -0.414214 -0.75 0 -0.75 0.414214 -0.75 0.75 -0.414214 0.75 0 0.75 0.414214 0.414214 0.75 0 0.75 Z "
					style="stroke:none"/>
		</g>
		<marker id="mrkr10-196" class="st13" v:arrowType="10" v:arrowSize="4" v:setback="0" refX="0" orient="auto"
				markerUnits="strokeWidth" overflow="visible">
			<use xlink:href="#lend10" transform="scale(17.5) "/>
		</marker>
	</defs>
	<g v:mID="7" v:index="2" v:groupContext="foregroundPage">
		<title>engine</title>
		<v:pageProperties v:drawingScale="0.0393701" v:pageScale="0.0393701" v:drawingUnits="24" v:shadowOffsetX="8.50394"
				v:shadowOffsetY="-8.50394"/>
		<v:layer v:name="Connect" v:index="0"/>
		<v:layer v:name="Connector" v:index="1"/>
		<g id="group1-1" transform="translate(18.7167,-18.12)" v:mID="1" v:groupContext="group" v:layerMember="0">
			<v:userDefs>
				<v:ud v:nameU="F" v:val="VT0(1):26"/>
				<v:ud v:nameU="Format" v:val="VT0(0):26"/>
				<v:ud v:nameU="ActiveObject" v:prompt="0,0626" v:val="VT0(0):26"/>
			</v:userDefs>
			<title>Object</title>
			<g id="shape2-2" v:mID="2" v:groupContext="shape" v:layerMember="0" transform="translate(51.0236,0)">
				<title>Sheet.2</title>
				<path d="M0 383.04 L0 105.25 L0 383.04 Z" class="st1"/>
			</g>
			<g id="shape3-5" v:mID="3" v:groupContext="shape" v:layerMember="0">
				<title>Sheet.3</title>
				<path d="M51.02 383.04 L0 383.04 L51.02 383.04 Z" class="st1"/>
			</g>
			<g id="shape4-8" v:mID="4" v:groupContext="shape" v:layerMember="0">
				<title>Sheet.4</title>
				<path d="M51.02 383.04 L0 383.04 L51.02 383.04 Z" class="st1"/>
			</g>
			<g id="shape5-11" v:mID="5" v:groupContext="shape" v:layerMember="0">
				<title>Sheet.5</title>
				<path d="M51.02 383.04 L0 383.04 L51.02 383.04 Z" class="st1"/>
			</g>
			<g id="shape6-14" v:mID="6" v:groupContext="shape" v:layerMember="0">
				<title>Sheet.6</title>
				<desc>Idle</desc>
				<v:userDefs>
					<v:ud v:nameU="TabSize" v:val="VT0(0.125):0"/>
				</v:userDefs>
				<v:textBlock v:margins="rect(4,4,4,4)" v:tabSpace="42.5197"/>
				<v:textRect cx="25.5118" cy="244.145" width="51.03" height="277.795"/>
				<path d="M51.02 383.04 L51.02 105.25 L0 105.25 L0 383.04 L51.02 383.04 ZM0 383.04 L0 105.25 L0 383.04 ZM51.02 105.25
							 L51.02 383.04 L51.02 105.25 Z" class="st1"/>
				<path d="M51.02 383.04 L51.02 105.25" class="st2"/>
				<path d="M0 383.04 L0 105.25" class="st2"/>
				<path d="M0 105.25 L51.02 105.25" class="st2"/>
				<path d="M0 383.04 L51.02 383.04" class="st2"/>
				<text x="15.18" y="247.75" class="st3" v:langID="1044"><v:paragraph v:horizAlign="1"/><v:tabList/>Idle</text>			</g>
		</g>
		<g id="group14-21" transform="translate(356.04,-133.406)" v:mID="14" v:groupContext="group" v:layerMember="0">
			<v:userDefs>
				<v:ud v:nameU="F" v:val="VT0(1):26"/>
				<v:ud v:nameU="Format" v:val="VT0(0):26"/>
				<v:ud v:nameU="ActiveObject" v:prompt="0,0626" v:val="VT0(0):26"/>
			</v:userDefs>
			<title>Object.14</title>
			<g id="shape15-22" v:mID="15" v:groupContext="shape" v:layerMember="0" transform="translate(134.22,0)">
				<title>Sheet.15</title>
				<path d="M0 383.04 L0 333.92 L0 383.04 Z" class="st1"/>
			</g>
			<g id="shape16-25" v:mID="16" v:groupContext="shape" v:layerMember="0">
				<title>Sheet.16</title>
				<path d="M134.22 383.04 L0 383.04 L134.22 383.04 Z" class="st1"/>
			</g>
			<g id="shape17-28" v:mID="17" v:groupContext="shape" v:layerMember="0">
				<title>Sheet.17</title>
				<path d="M134.22 383.04 L0 383.04 L134.22 383.04 Z" class="st1"/>
			</g>
			<g id="shape18-31" v:mID="18" v:groupContext="shape" v:layerMember="0">
				<title>Sheet.18</title>
				<path d="M134.22 383.04 L0 383.04 L134.22 383.04 Z" class="st1"/>
			</g>
			<g id="shape19-34" v:mID="19" v:groupContext="shape" v:layerMember="0">
				<title>Sheet.19</title>
				<desc>Transmitter test</desc>
				<v:userDefs>
					<v:ud v:nameU="TabSize" v:val="VT0(0.125):0"/>
				</v:userDefs>
				<v:textBlock v:margins="rect(4,4,4,4)" v:tabSpace="42.5197"/>
				<v:textRect cx="67.1102" cy="358.481" width="134.23" height="49.1239"/>
				<path d="M134.22 383.04 L134.22 333.92 L0 333.92 L0 383.04 L134.22 383.04 ZM0 383.04 L0 333.92 L0 383.04 ZM134.22
							 333.92 L134.22 383.04 L134.22 333.92 Z" class="st1"/>
				<path d="M134.22 383.04 L134.22 333.92" class="st2"/>
				<path d="M0 383.04 L0 333.92" class="st2"/>
				<path d="M0 333.92 L134.22 333.92" class="st2"/>
				<path d="M0 383.04 L134.22 383.04" class="st2"/>
				<text x="21.76" y="362.08" class="st3" v:langID="1044"><v:paragraph v:horizAlign="1"/><v:tabList/>Transmitter test</text>			</g>
		</g>
		<g id="group20-41" transform="translate(356.04,-225.049)" v:mID="20" v:groupContext="group" v:layerMember="0">
			<v:userDefs>
				<v:ud v:nameU="F" v:val="VT0(1):26"/>
				<v:ud v:nameU="Format" v:val="VT0(0):26"/>
				<v:ud v:nameU="ActiveObject" v:prompt="0,0626" v:val="VT0(0):26"/>
			</v:userDefs>
			<title>Object.20</title>
			<g id="shape21-42" v:mID="21" v:groupContext="shape" v:layerMember="0" transform="translate(134.22,0)">
				<title>Sheet.21</title>
				<path d="M0 383.04 L0 333.92 L0 383.04 Z" class="st1"/>
			</g>
			<g id="shape22-45" v:mID="22" v:groupContext="shape" v:layerMember="0">
				<title>Sheet.22</title>
				<path d="M134.22 383.04 L0 383.04 L134.22 383.04 Z" class="st1"/>
			</g>
			<g id="shape23-48" v:mID="23" v:groupContext="shape" v:layerMember="0">
				<title>Sheet.23</title>
				<path d="M134.22 383.04 L0 383.04 L134.22 383.04 Z" class="st1"/>
			</g>
			<g id="shape24-51" v:mID="24" v:groupContext="shape" v:layerMember="0">
				<title>Sheet.24</title>
				<path d="M134.22 383.04 L0 383.04 L134.22 383.04 Z" class="st1"/>
			</g>
			<g id="shape25-54" v:mID="25" v:groupContext="shape" v:layerMember="0">
				<title>Sheet.25</title>
				<desc>Receiver test</desc>
				<v:userDefs>
					<v:ud v:nameU="TabSize" v:val="VT0(0.125):0"/>
				</v:userDefs>
				<v:textBlock v:margins="rect(4,4,4,4)" v:tabSpace="42.5197"/>
				<v:textRect cx="67.1102" cy="358.481" width="134.23" height="49.1239"/>
				<path d="M134.22 383.04 L134.22 333.92 L0 333.92 L0 383.04 L134.22 383.04 ZM0 383.04 L0 333.92 L0 383.04 ZM134.22
							 333.92 L134.22 383.04 L134.22 333.92 Z" class="st1"/>
				<path d="M134.22 383.04 L134.22 333.92" class="st2"/>
				<path d="M0 383.04 L0 333.92" class="st2"/>
				<path d="M0 333.92 L134.22 333.92" class="st2"/>
				<path d="M0 383.04 L134.22 383.04" class="st2"/>
				<text x="29.75" y="362.08" class="st3" v:langID="1044"><v:paragraph v:horizAlign="1"/><v:tabList/>Receiver test</text>			</g>
		</g>
		<g id="group26-61" transform="translate(356.04,-40.7972)" v:mID="26" v:groupContext="group" v:layerMember="0">
			<v:userDefs>
				<v:ud v:nameU="F" v:val="VT0(1):26"/>
				<v:ud v:nameU="Format" v:val="VT0(0):26"/>
				<v:ud v:nameU="ActiveObject" v:prompt="0,0626" v:val="VT0(0):26"/>
			</v:userDefs>
			<title>Object.26</title>
			<g id="shape27-62" v:mID="27" v:groupContext="shape" v:layerMember="0" transform="translate(134.22,0)">
				<title>Sheet.27</title>
				<path d="M0 383.04 L0 333.92 L0 383.04 Z" class="st1"/>
			</g>
			<g id="shape28-65" v:mID="28" v:groupContext="shape" v:layerMember="0">
				<title>Sheet.28</title>
				<path d="M134.22 383.04 L0 383.04 L134.22 383.04 Z" class="st1"/>
			</g>
			<g id="shape29-68" v:mID="29" v:groupContext="shape" v:layerMember="0">
				<title>Sheet.29</title>
				<path d="M134.22 383.04 L0 383.04 L134.22 383.04 Z" class="st1"/>
			</g>
			<g id="shape30-71" v:mID="30" v:groupContext="shape" v:layerMember="0">
				<title>Sheet.30</title>
				<path d="M134.22 383.04 L0 383.04 L134.22 383.04 Z" class="st1"/>
			</g>
			<g id="shape31-74" v:mID="31" v:groupContext="shape" v:layerMember="0">
				<title>Sheet.31</title>
				<desc>Carrier test</desc>
				<v:userDefs>
					<v:ud v:nameU="TabSize" v:val="VT0(0.125):0"/>
				</v:userDefs>
				<v:textBlock v:margins="rect(4,4,4,4)" v:tabSpace="42.5197"/>
				<v:textRect cx="67.1102" cy="358.481" width="134.23" height="49.1239"/>
				<path d="M134.22 383.04 L134.22 333.92 L0 333.92 L0 383.04 L134.22 383.04 ZM0 383.04 L0 333.92 L0 383.04 ZM134.22
							 333.92 L134.22 383.04 L134.22 333.92 Z" class="st1"/>
				<path d="M134.22 383.04 L134.22 333.92" class="st2"/>
				<path d="M0 383.04 L0 333.92" class="st2"/>
				<path d="M0 333.92 L134.22 333.92" class="st2"/>
				<path d="M0 383.04 L134.22 383.04" class="st2"/>
				<text x="35.09" y="362.08" class="st3" v:langID="1044"><v:paragraph v:horizAlign="1"/><v:tabList/>Carrier test</text>			</g>
		</g>
		<g id="shape33-81" v:mID="33" v:groupContext="shape" transform="translate(107.217,115.474) rotate(-90)">
			<title>Self-call</title>
			<desc>LE_CMD_TRANSMITTER_TEST</desc>
			<v:userDefs>
				<v:ud v:nameU="State" v:val="VT0(2):26"/>
			</v:userDefs>
			<v:textBlock v:margins="rect(4,4,4,4)" v:tabSpace="42.5197"/>
			<v:textRect cx="5.66929" cy="457.877" width="128.91" height="17.6036" transform="rotate(90)"/>
			<path d="M0 383.04 L0 455.75 L-13.5 455.75 L-13.5 391.32" class="st4"/>
			<rect v:rectContext="textBkgnd" x="397.423" y="-10.469" width="118.683" height="9.59985" transform="rotate(90)"
					class="st6"/>
			<text x="397.42" y="-3.27" transform="rotate(90)" class="st7" v:langID="1044"><v:paragraph/><v:tabList/>LE_CMD_TRANSMITTER_TEST</text>		</g>
		<g id="shape38-89" v:mID="38" v:groupContext="shape" transform="translate(107.229,138.151) rotate(-90)">
			<title>Self-call.38</title>
			<desc>LE_CMD_RECEIVER_TEST</desc>
			<v:userDefs>
				<v:ud v:nameU="State" v:val="VT0(2):26"/>
			</v:userDefs>
			<v:textBlock v:margins="rect(4,4,4,4)" v:tabSpace="42.5197"/>
			<v:textRect cx="-22.6772" cy="450.07" width="112.93" height="17.6036" transform="rotate(90)"/>
			<path d="M0 390.96 L0 391.32 L0 458.16 L-13.5 458.16 L-13.5 383.04" class="st8"/>
			<rect v:rectContext="textBkgnd" x="397.61" y="17.8774" width="102.694" height="9.59985" transform="rotate(90)"
					class="st6"/>
			<text x="397.61" y="25.08" transform="rotate(90)" class="st7" v:langID="1044"><v:paragraph/><v:tabList/>LE_CMD_RECEIVER_TEST</text>		</g>
		<g id="shape39-97" v:mID="39" v:groupContext="shape" transform="translate(107.332,206.856) rotate(-90)">
			<title>Self-call.39</title>
			<desc>LE_CMD_TRANSMITTER_TEST</desc>
			<v:userDefs>
				<v:ud v:nameU="State" v:val="VT0(2):26"/>
			</v:userDefs>
			<v:textBlock v:margins="rect(4,4,4,4)" v:tabSpace="42.5197"/>
			<v:textRect cx="5.66929" cy="457.877" width="128.91" height="17.6036" transform="rotate(90)"/>
			<path d="M0 383.04 L0 455.75 L-13.5 455.75 L-13.5 391.32" class="st4"/>
			<rect v:rectContext="textBkgnd" x="397.423" y="-10.469" width="118.683" height="9.59985" transform="rotate(90)"
					class="st6"/>
			<text x="397.42" y="-3.27" transform="rotate(90)" class="st7" v:langID="1044"><v:paragraph/><v:tabList/>LE_CMD_TRANSMITTER_TEST</text>		</g>
		<g id="shape40-104" v:mID="40" v:groupContext="shape" transform="translate(107.344,229.533) rotate(-90)">
			<title>Self-call.40</title>
			<desc>LE_CMD_RECEIVER_TEST</desc>
			<v:userDefs>
				<v:ud v:nameU="State" v:val="VT0(2):26"/>
			</v:userDefs>
			<v:textBlock v:margins="rect(4,4,4,4)" v:tabSpace="42.5197"/>
			<v:textRect cx="-22.6772" cy="450.07" width="112.93" height="17.6036" transform="rotate(90)"/>
			<path d="M0 390.96 L0 391.32 L0 458.16 L-13.5 458.16 L-13.5 383.04" class="st8"/>
			<rect v:rectContext="textBkgnd" x="397.61" y="17.8774" width="102.694" height="9.59985" transform="rotate(90)"
					class="st6"/>
			<text x="397.61" y="25.08" transform="rotate(90)" class="st7" v:langID="1044"><v:paragraph/><v:tabList/>LE_CMD_RECEIVER_TEST</text>		</g>
		<g id="shape43-111" v:mID="43" v:groupContext="shape" transform="translate(107.407,299.726) rotate(-90)">
			<title>Self-call.43</title>
			<desc>LE_CMD_TRANSMITTER_TEST</desc>
			<v:userDefs>
				<v:ud v:nameU="State" v:val="VT0(2):26"/>
			</v:userDefs>
			<v:textBlock v:margins="rect(4,4,4,4)" v:tabSpace="42.5197"/>
			<v:textRect cx="5.66929" cy="457.877" width="128.91" height="17.6036" transform="rotate(90)"/>
			<path d="M0 383.04 L0 455.75 L-13.5 455.75 L-13.5 391.32" class="st4"/>
			<rect v:rectContext="textBkgnd" x="397.423" y="-10.469" width="118.683" height="9.59985" transform="rotate(90)"
					class="st6"/>
			<text x="397.42" y="-3.27" transform="rotate(90)" class="st7" v:langID="1044"><v:paragraph/><v:tabList/>LE_CMD_TRANSMITTER_TEST</text>		</g>
		<g id="shape44-118" v:mID="44" v:groupContext="shape" transform="translate(107.419,322.403) rotate(-90)">
			<title>Self-call.44</title>
			<desc>LE_CMD_RECEIVER_TEST</desc>
			<v:userDefs>
				<v:ud v:nameU="State" v:val="VT0(2):26"/>
			</v:userDefs>
			<v:textBlock v:margins="rect(4,4,4,4)" v:tabSpace="42.5197"/>
			<v:textRect cx="-22.6772" cy="450.07" width="112.93" height="17.6036" transform="rotate(90)"/>
			<path d="M0 390.96 L0 391.32 L0 458.16 L-13.5 458.16 L-13.5 383.04" class="st8"/>
			<rect v:rectContext="textBkgnd" x="397.61" y="17.8774" width="102.694" height="9.59985" transform="rotate(90)"
					class="st6"/>
			<text x="397.61" y="25.08" transform="rotate(90)" class="st7" v:langID="1044"><v:paragraph/><v:tabList/>LE_CMD_RECEIVER_TEST</text>		</g>
		<g id="shape45-125" v:mID="45" v:groupContext="shape" v:layerMember="0" transform="translate(69.7403,-261.892)">
			<title>Message.right</title>
			<desc>LE_CMD_RECEIVER_TEST</desc>
			<v:userDefs>
				<v:ud v:nameU="State" v:val="VT0(2):26"/>
				<v:ud v:nameU="LostFound" v:val="VT0(0):26"/>
			</v:userDefs>
			<v:textBlock v:margins="rect(4,4,4,4)" v:tabSpace="42.5197"/>
			<v:textRect cx="143.15" cy="383.035" width="139.16" height="20.0036"/>
			<path d="M0 383.04 L278.02 383.04" class="st4"/>
			<rect v:rectContext="textBkgnd" x="77.5737" y="377.036" width="128.37" height="12.0001" class="st6"/>
			<text x="77.57" y="386.04" class="st9" v:langID="1044"><v:paragraph/><v:tabList/>LE_CMD_RECEIVER_TEST</text>		</g>
		<g id="shape46-132" v:mID="46" v:groupContext="shape" v:layerMember="0" transform="translate(69.7403,-249.611)">
			<title>Message.right.46</title>
			<desc>LE_CMD_TEST_END</desc>
			<v:userDefs>
				<v:ud v:nameU="State" v:val="VT0(2):26"/>
				<v:ud v:nameU="LostFound" v:val="VT0(0):26"/>
			</v:userDefs>
			<v:textBlock v:margins="rect(4,4,4,4)" v:tabSpace="42.5197"/>
			<v:textRect cx="143.15" cy="383.227" width="109.15" height="20.0036"/>
			<path d="M7.92 383.04 L8.28 383.04 L286.3 383.04" class="st8"/>
			<rect v:rectContext="textBkgnd" x="92.5788" y="377.227" width="98.3598" height="12.0001" class="st6"/>
			<text x="92.58" y="386.23" class="st9" v:langID="1044"><v:paragraph/><v:tabList/>LE_CMD_TEST_END</text>		</g>
		<g id="shape47-139" v:mID="47" v:groupContext="shape" v:layerMember="0" transform="translate(69.7403,-237.33)">
			<title>Message.right.47</title>
			<desc>LE_CMD_RESET</desc>
			<v:userDefs>
				<v:ud v:nameU="State" v:val="VT0(2):26"/>
				<v:ud v:nameU="LostFound" v:val="VT0(0):26"/>
			</v:userDefs>
			<v:textBlock v:margins="rect(4,4,4,4)" v:tabSpace="42.5197"/>
			<v:textRect cx="143.15" cy="383.227" width="90.26" height="20.0036"/>
			<path d="M7.92 383.04 L8.28 383.04 L286.3 383.04" class="st8"/>
			<rect v:rectContext="textBkgnd" x="102.025" y="377.227" width="79.4682" height="12.0001" class="st6"/>
			<text x="102.02" y="386.23" class="st9" v:langID="1044"><v:paragraph/><v:tabList/>LE_CMD_RESET</text>		</g>
		<g id="shape48-146" v:mID="48" v:groupContext="shape" v:layerMember="0" transform="translate(69.7403,-171.191)">
			<title>Message.right.48</title>
			<desc>LE_CMD_TRANSMITTER_TEST, pkt = 0x0F || 0x55 || PRBS9</desc>
			<v:userDefs>
				<v:ud v:nameU="State" v:val="VT0(2):26"/>
				<v:ud v:nameU="LostFound" v:val="VT0(0):26"/>
			</v:userDefs>
			<v:textBlock v:margins="rect(4,4,4,4)" v:tabSpace="42.5197"/>
			<v:textRect cx="143.15" cy="383.035" width="261.95" height="20.0036"/>
			<path d="M0 383.04 L278.02 383.04" class="st4"/>
			<rect v:rectContext="textBkgnd" x="16.1795" y="377.036" width="251.158" height="12.0001" class="st6"/>
			<text x="16.18" y="386.04" class="st9" v:langID="1044"><v:paragraph/><v:tabList/>LE_CMD_TRANSMITTER_TEST<tspan
						class="st10">, pkt = 0x0F || 0x55 || PRBS9</tspan></text>		</g>
		<g id="shape49-154" v:mID="49" v:groupContext="shape" v:layerMember="0" transform="translate(69.7403,-158.91)">
			<title>Message.right.49</title>
			<desc>LE_CMD_TEST_END</desc>
			<v:userDefs>
				<v:ud v:nameU="State" v:val="VT0(2):26"/>
				<v:ud v:nameU="LostFound" v:val="VT0(0):26"/>
			</v:userDefs>
			<v:textBlock v:margins="rect(4,4,4,4)" v:tabSpace="42.5197"/>
			<v:textRect cx="143.15" cy="383.227" width="109.15" height="20.0036"/>
			<path d="M7.92 383.04 L8.28 383.04 L286.3 383.04" class="st8"/>
			<rect v:rectContext="textBkgnd" x="92.5788" y="377.227" width="98.3598" height="12.0001" class="st11"/>
			<text x="92.58" y="386.23" class="st9" v:langID="1044"><v:paragraph/><v:tabList/>LE_CMD_TEST_END</text>		</g>
		<g id="shape50-161" v:mID="50" v:groupContext="shape" v:layerMember="0" transform="translate(69.7403,-146.629)">
			<title>Message.right.50</title>
			<desc>LE_CMD_RESET</desc>
			<v:userDefs>
				<v:ud v:nameU="State" v:val="VT0(2):26"/>
				<v:ud v:nameU="LostFound" v:val="VT0(0):26"/>
			</v:userDefs>
			<v:textBlock v:margins="rect(4,4,4,4)" v:tabSpace="42.5197"/>
			<v:textRect cx="143.15" cy="383.227" width="90.26" height="20.0036"/>
			<path d="M7.92 383.04 L8.28 383.04 L286.3 383.04" class="st8"/>
			<rect v:rectContext="textBkgnd" x="102.025" y="377.227" width="79.4682" height="12.0001" class="st6"/>
			<text x="102.02" y="386.23" class="st9" v:langID="1044"><v:paragraph/><v:tabList/>LE_CMD_RESET</text>		</g>
		<g id="shape51-168" v:mID="51" v:groupContext="shape" v:layerMember="0" transform="translate(69.7403,-76.6977)">
			<title>Message.right.51</title>
			<desc>LE_CMD_TRANSMITTER_TEST, pkt = Vendor Specific</desc>
			<v:userDefs>
				<v:ud v:nameU="State" v:val="VT0(2):26"/>
				<v:ud v:nameU="LostFound" v:val="VT0(0):26"/>
			</v:userDefs>
			<v:textBlock v:margins="rect(4,4,4,4)" v:tabSpace="42.5197"/>
			<v:textRect cx="143.15" cy="383.035" width="238.85" height="20.0036"/>
			<path d="M0 383.04 L278.02 383.04" class="st4"/>
			<rect v:rectContext="textBkgnd" x="27.7267" y="377.036" width="228.62" height="12.0001" class="st6"/>
			<text x="27.73" y="386.04" class="st9" v:langID="1044"><v:paragraph/><v:tabList/>LE_CMD_TRANSMITTER_TEST<tspan
						class="st10">, pkt = Vendor Specific</tspan></text>		</g>
		<g id="shape52-176" v:mID="52" v:groupContext="shape" v:layerMember="0" transform="translate(69.7403,-64.4167)">
			<title>Message.right.52</title>
			<desc>LE_CMD_TEST_END</desc>
			<v:userDefs>
				<v:ud v:nameU="State" v:val="VT0(2):26"/>
				<v:ud v:nameU="LostFound" v:val="VT0(0):26"/>
			</v:userDefs>
			<v:textBlock v:margins="rect(4,4,4,4)" v:tabSpace="42.5197"/>
			<v:textRect cx="143.15" cy="383.227" width="109.15" height="20.0036"/>
			<path d="M7.92 383.04 L8.28 383.04 L286.3 383.04" class="st8"/>
			<rect v:rectContext="textBkgnd" x="92.5788" y="377.227" width="98.3598" height="12.0001" class="st6"/>
			<text x="92.58" y="386.23" class="st9" v:langID="1044"><v:paragraph/><v:tabList/>LE_CMD_TEST_END</text>		</g>
		<g id="shape53-183" v:mID="53" v:groupContext="shape" v:layerMember="0" transform="translate(69.7403,-52.1357)">
			<title>Message.right.53</title>
			<desc>LE_CMD_RESET</desc>
			<v:userDefs>
				<v:ud v:nameU="State" v:val="VT0(2):26"/>
				<v:ud v:nameU="LostFound" v:val="VT0(0):26"/>
			</v:userDefs>
			<v:textBlock v:margins="rect(4,4,4,4)" v:tabSpace="42.5197"/>
			<v:textRect cx="143.15" cy="383.227" width="90.26" height="20.0036"/>
			<path d="M7.92 383.04 L8.28 383.04 L286.3 383.04" class="st8"/>
			<rect v:rectContext="textBkgnd" x="102.025" y="377.227" width="79.4682" height="12.0001" class="st6"/>
			<text x="102.02" y="386.23" class="st9" v:langID="1044"><v:paragraph/><v:tabList/>LE_CMD_RESET</text>		</g>
		<g id="shape57-190" v:mID="57" v:groupContext="shape" v:layerMember="1" transform="translate(37.1379,-356.315)">
			<title>Dynamic connector</title>
			<desc>dtm_init()</desc>
			<v:userDefs>
				<v:ud v:nameU="visVersion" v:val="VT0(11):26"/>
			</v:userDefs>
			<v:textBlock v:margins="rect(4,4,4,4)" v:tabSpace="42.5197"/>
			<v:textRect cx="7.09064" cy="413.239" width="52.46" height="20.0036"/>
			<path d="M7.08 383.04 L7.09 383.04 L7.09 435.16" class="st12"/>
			<rect v:rectContext="textBkgnd" x="-13.7469" y="407.239" width="41.675" height="12.0001" class="st6"/>
			<text x="-13.75" y="416.24" class="st9" v:langID="1044"><v:paragraph v:horizAlign="1"/><v:tabList/>dtm_init()</text>		</g>
	</g>
</svg>
