<?xml version="1.0" encoding="UTF-8" standalone="no"?>
<!DOCTYPE svg PUBLIC "-//W3C//DTD SVG 1.1//EN" "http://www.w3.org/Graphics/SVG/1.1/DTD/svg11.dtd">
<!-- Generated by Microsoft Visio, SVG Export bt_mesh_model_callbacks.svg Page-1 -->
<svg xmlns="http://www.w3.org/2000/svg" xmlns:xlink="http://www.w3.org/1999/xlink" xmlns:ev="http://www.w3.org/2001/xml-events"
		width="7.80507in" height="7.60931in" viewBox="0 0 561.965 547.87" xml:space="preserve" color-interpolation-filters="sRGB"
		class="st16">
	<style type="text/css">
	<![CDATA[
		.st1 {stroke:#768692;stroke-dasharray:7,5;stroke-linecap:round;stroke-linejoin:round;stroke-width:1}
		.st2 {stroke:#d9e1e2;stroke-linecap:butt;stroke-width:1}
		.st3 {marker-start:url(#mrkr13-26);stroke:#333f48;stroke-linecap:butt;stroke-width:1}
		.st4 {fill:#333f48;fill-opacity:1;stroke:#333f48;stroke-opacity:1;stroke-width:0.28409090909091}
		.st5 {fill:none;marker-end:url(#mrkr13-30);stroke:none;stroke-width:1}
		.st6 {fill:#feffff;fill-opacity:1;stroke:#feffff;stroke-opacity:1;stroke-width:0.28409090909091}
		.st7 {fill:#333f48;font-family:Calibri;font-size:0.833336em}
		.st8 {fill:#00a9ce;stroke:none;stroke-width:1}
		.st9 {fill:#ffffff;font-family:Calibri;font-size:0.833336em}
		.st10 {fill:#333f48;stroke:none;stroke-width:1}
		.st11 {fill:#ffffff;font-family:Calibri;font-size:1.00001em}
		.st12 {font-size:1em}
		.st13 {fill:#0077c8;stroke:none;stroke-width:1}
		.st14 {fill:none;stroke:none;stroke-width:1}
		.st15 {fill:#768692;font-family:Calibri;font-size:0.833336em}
		.st16 {fill:none;fill-rule:evenodd;font-size:12px;overflow:visible;stroke-linecap:square;stroke-miterlimit:3}
	]]>
	</style>

	<defs id="Markers">
		<g id="lend13">
			<path d="M 3 1 L 0 0 L 3 -1 L 3 1 " style="stroke:none"/>
		</g>
		<marker id="mrkr13-26" class="st4" refX="10.2" orient="auto" markerUnits="strokeWidth" overflow="visible">
			<use xlink:href="#lend13" transform="scale(3.52) "/>
		</marker>
		<marker id="mrkr13-30" class="st6" refX="-10.56" orient="auto" markerUnits="strokeWidth" overflow="visible">
			<use xlink:href="#lend13" transform="scale(-3.52,-3.52) "/>
		</marker>
	</defs>
	<g>
		<title>Page-1</title>
		<g id="shape1070-1" transform="translate(1,-141.212)">
			<title>Dotted-line report.1070</title>
			<path d="M0 540.78 L523.5 540.78" class="st1"/>
		</g>
		<g id="group1067-4" transform="translate(44.2649,-1.00001)">
			<title>Sheet.1067</title>
			<g id="shape1062-5" transform="translate(547.87,36.0158) rotate(90)">
				<title>Lateral line.1062</title>
				<path d="M0 547.87 L511.85 547.87" class="st2"/>
			</g>
			<g id="shape1063-8" transform="translate(657.599,36.0158) rotate(90)">
				<title>Lateral line.1063</title>
				<path d="M0 547.87 L511.85 547.87" class="st2"/>
			</g>
			<g id="shape1064-11" transform="translate(767.327,36.0158) rotate(90)">
				<title>Lateral line.1064</title>
				<path d="M0 547.87 L511.85 547.87" class="st2"/>
			</g>
			<g id="shape1065-14" transform="translate(877.055,36.0158) rotate(90)">
				<title>Lateral line.1065</title>
				<path d="M0 547.87 L511.85 547.87" class="st2"/>
			</g>
			<g id="shape1066-17" transform="translate(986.784,36.0158) rotate(90)">
				<title>Lateral line.1066</title>
				<path d="M0 547.87 L511.85 547.87" class="st2"/>
			</g>
		</g>
		<g id="group1037-20" transform="translate(22.8479,-470.746)">
			<title>Sheet.1037</title>
			<g id="shape1035-21" transform="translate(242.389,2.82602)">
				<title>Dynamic connector.1035</title>
				<path d="M-10.2 540.78 L-10.56 540.78 L-220.35 540.78" class="st3"/>
			</g>
			<g id="shape1036-27" transform="translate(87.442,-10.5922)">
				<title>Sheet.1036</title>
				<desc>bt_mesh_init()</desc>
				<rect x="0" y="538.543" width="82.9059" height="9.3269" class="st5"/>
				<text x="11.48" y="546.21" class="st7">bt_mesh_init()</text>			</g>
		</g>
		<g id="group1038-32" transform="translate(242.197,-457.222)">
			<title>Sheet.1038</title>
			<g id="shape1039-33" transform="translate(242.389,2.82602)">
				<title>Dynamic connector.1035</title>
				<path d="M-10.2 540.78 L-10.56 540.78 L-220.35 540.78" class="st3"/>
			</g>
			<g id="shape1040-38" transform="translate(62.3358,-10.5922)">
				<title>Sheet.1040</title>
				<desc>bt_mesh_model_cb.init()</desc>
				<rect x="0" y="538.543" width="137.776" height="9.3269" class="st5"/>
				<text x="17.53" y="546.21" class="st7">bt_mesh_model_cb.init()</text>			</g>
		</g>
		<g id="group1041-42" transform="translate(33.4567,-338.001)">
			<title>Sheet.1041</title>
			<g id="shape1042-43" transform="translate(121.804,2.82602)">
				<title>Dynamic connector.1035</title>
				<path d="M-10.2 540.78 L-10.56 540.78 L-110.73 540.78" class="st3"/>
			</g>
			<g id="shape1043-48" transform="translate(23.3187,-10.5922)">
				<title>Sheet.1043</title>
				<desc>settings_load()</desc>
				<rect x="0" y="538.543" width="82.9059" height="9.3269" class="st5"/>
				<text x="11.25" y="546.21" class="st7">settings_load()</text>			</g>
		</g>
		<g id="group1044-52" transform="translate(132.322,-315.366)">
			<title>Sheet.1044</title>
			<g id="shape1045-53" transform="translate(242.389,2.82602)">
				<title>Dynamic connector.1035</title>
				<path d="M-10.2 540.78 L-10.56 540.78 L-220.35 540.78" class="st3"/>
			</g>
			<g id="shape1046-58" transform="translate(47.3153,-10.5922)">
				<title>Sheet.1046</title>
				<desc>Restore mesh persistent data</desc>
				<rect x="0" y="538.543" width="160.157" height="9.3269" class="st5"/>
				<text x="20.45" y="546.21" class="st7">Restore mesh persistent data</text>			</g>
		</g>
		<g id="group1047-62" transform="translate(362.243,-292.732)">
			<title>Sheet.1047</title>
			<g id="shape1048-63" transform="translate(118.763,2.82602)">
				<title>Dynamic connector.1035</title>
				<path d="M-10.2 540.78 L-10.56 540.78 L-107.97 540.78" class="st3"/>
			</g>
			<g id="shape1049-68" transform="translate(-27.5657,-10.5922)">
				<title>Sheet.1049</title>
				<desc>bt_mesh_model_cb.settings_set()</desc>
				<rect x="0" y="538.543" width="178.583" height="9.3269" class="st5"/>
				<text x="20.04" y="546.21" class="st7">bt_mesh_model_cb.settings_set()</text>			</g>
		</g>
		<g id="group1050-72" transform="translate(143.512,-252.58)">
			<title>Sheet.1050</title>
			<g id="shape1051-73" transform="translate(118.763,-11.3472)">
				<title>Dynamic connector.1035</title>
				<path d="M-10.2 554.96 L-10.56 554.96 L-107.97 554.96" class="st3"/>
			</g>
			<g id="shape1052-78" transform="translate(-11.1898,-10.5922)">
				<title>Sheet.1052</title>
				<desc>Settings loading is finished</desc>
				<rect x="0" y="538.543" width="153.687" height="9.3269" class="st5"/>
				<text x="23.05" y="546.21" class="st7">Settings loading is finished</text>			</g>
		</g>
		<g id="group1053-82" transform="translate(242.197,-227.414)">
			<title>Sheet.1053</title>
			<g id="shape1054-83" transform="translate(242.389,2.82602)">
				<title>Dynamic connector.1035</title>
				<path d="M-10.2 540.78 L-10.56 540.78 L-220.35 540.78" class="st3"/>
			</g>
			<g id="shape1055-88" transform="translate(36.6876,-10.5922)">
				<title>Sheet.1055</title>
				<desc>bt_mesh_model_cb.start()</desc>
				<rect x="0" y="538.543" width="178.583" height="9.3269" class="st5"/>
				<text x="35.08" y="546.21" class="st7">bt_mesh_model_cb.start()</text>			</g>
		</g>
		<g id="group1081-92" transform="translate(374.627,-34.1285)">
			<title>Sheet.1081</title>
			<g id="shape1082-93" transform="translate(-0.763008,2.82602)">
				<title>Dynamic connector.1035</title>
				<path d="M10.2 540.78 L10.56 540.78 L108.35 540.78" class="st3"/>
			</g>
			<g id="shape1083-98" transform="translate(-59.6352,-10.5922)">
				<title>Sheet.1083</title>
				<desc>bt_mesh_model_data_store(NULL, 0)</desc>
				<rect x="0" y="538.543" width="235.843" height="9.3269" class="st5"/>
				<text x="41.53" y="546.21" class="st7">bt_mesh_model_data_store(NULL, 0)</text>			</g>
		</g>
		<g id="group1084-102" transform="translate(241.433,-101.066)">
			<title>Sheet.1084</title>
			<g id="shape1085-103" transform="translate(242.389,2.82602)">
				<title>Dynamic connector.1035</title>
				<path d="M-10.2 540.78 L-10.56 540.78 L-220.35 540.78" class="st3"/>
			</g>
			<g id="shape1086-108" transform="translate(36.6876,-10.5922)">
				<title>Sheet.1086</title>
				<desc>bt_mesh_model_cb.reset()</desc>
				<rect x="0" y="538.543" width="178.583" height="9.3269" class="st5"/>
				<text x="34.18" y="546.21" class="st7">bt_mesh_model_cb.reset()</text>			</g>
		</g>
		<g id="shape1074-112" transform="translate(1,-161.836)">
			<title>Nordic Sky.1074</title>
			<desc>Loading from persistent storage completed. Mesh is started.</desc>
			<rect x="0" y="529.811" width="524.842" height="18.0594" class="st8"/>
			<text x="139.76" y="541.84" class="st9">Loading from persistent storage completed. Mesh is started.</text>		</g>
		<g id="shape1071-115" transform="translate(1,-379.794)">
			<title>Nordic Sky.1071</title>
			<desc>Mesh initialization completed.</desc>
			<rect x="0" y="529.811" width="524.24" height="18.0594" class="st8"/>
			<text x="200.56" y="541.84" class="st9">Mesh initialization completed.</text>		</g>
		<g id="shape1029-118" transform="translate(1.36119,-512.854)">
			<title>Nordic Lake.1029</title>
			<desc>App</desc>
			<rect x="0" y="513.854" width="87.1738" height="34.0157" class="st10"/>
			<text x="33.81" y="534.46" class="st11">App</text>		</g>
		<g id="shape1030-121" transform="translate(110.67,-512.854)">
			<title>Nordic Lake.1030</title>
			<desc>Settings subsystem</desc>
			<rect x="0" y="513.854" width="87.1738" height="34.0157" class="st10"/>
			<text x="24.12" y="527.26" class="st11">Settings <tspan x="17.74" dy="1.2em" class="st12">subsystem</tspan></text>		</g>
		<g id="shape1031-125" transform="translate(219.979,-512.854)">
			<title>Nordic Lake.1031</title>
			<desc>Mesh</desc>
			<rect x="0" y="513.854" width="87.1738" height="34.0157" class="st10"/>
			<text x="29.97" y="534.46" class="st11">Mesh</text>		</g>
		<g id="shape1032-128" transform="translate(329.288,-512.854)">
			<title>Nordic Lake.1032</title>
			<desc>Access</desc>
			<rect x="0" y="513.854" width="87.1738" height="34.0157" class="st10"/>
			<text x="27.36" y="534.46" class="st11">Access</text>		</g>
		<g id="shape1033-131" transform="translate(438.597,-512.854)">
			<title>Nordic Lake.1033</title>
			<desc>Model</desc>
			<rect x="0" y="513.854" width="87.1738" height="34.0157" class="st10"/>
			<text x="27.78" y="534.46" class="st11">Model</text>		</g>
		<g id="shape1106-134" transform="translate(1.3008,-12.0594)">
			<title>Nordic Sky.1106</title>
			<desc>Mesh device is unprovisioned.</desc>
			<rect x="0" y="529.811" width="524.842" height="18.0594" class="st8"/>
			<text x="201.05" y="541.84" class="st9">Mesh device is unprovisioned.</text>		</g>
		<g id="shape1107-137" transform="translate(391.171,-403.766)">
			<title>Nordic Lake.1107</title>
			<desc>The Access API is not ready for use yet. The model may do add...</desc>
			<rect x="0" y="501.098" width="134.671" height="46.7717" class="st13"/>
			<text x="5.28" y="514.28" class="st9">The Access API is not ready for <tspan x="12.56" dy="1.2em" class="st12">use yet. The model may do </tspan><tspan
						x="9.15" dy="1.38em" class="st12">additional initialization here.</tspan></text>		</g>
		<g id="shape1108-142" transform="translate(399.533,-256.668)">
			<title>Nordic Lake.1108</title>
			<desc>The model restores its state from the persistent storage.</desc>
			<rect x="0" y="513.854" width="126.309" height="34.0157" class="st13"/>
			<text x="6.54" y="526.66" class="st9">The model restores its state <tspan x="6.18" dy="1.38em" class="st12">from the persistent storage.</tspan></text>		</g>
		<g id="shape1109-146" transform="translate(379.85,-188.536)">
			<title>Nordic Lake.1109</title>
			<desc>All Access APIs are ready for use. The model may start its be...</desc>
			<rect x="0" y="513.854" width="145.991" height="34.0157" class="st13"/>
			<text x="6.43" y="526.66" class="st9">All Access APIs are ready for use. <tspan x="4.84" dy="1.38em" class="st12">The model may start its behavior.</tspan></text>		</g>
		<g id="shape1110-150" transform="translate(399.533,-62.4749)">
			<title>Nordic Lake.1110</title>
			<desc>The model resets its state from the persistent storage.</desc>
			<rect x="0" y="513.854" width="126.309" height="34.0157" class="st13"/>
			<text x="10.92" y="526.66" class="st9">The model resets its state <tspan x="6.18" dy="1.38em" class="st12">from the persistent storage.</tspan></text>		</g>
		<g id="shape1069-154" transform="translate(1,-356.995)">
			<title>Dotted-line report.1069</title>
			<path d="M0 540.78 L523.5 540.78" class="st1"/>
		</g>
		<g id="shape1068-157" transform="translate(1.74524,-489.985)">
			<title>Dotted-line report.1068</title>
			<path d="M0 540.78 L523.5 540.78" class="st1"/>
		</g>
		<g id="shape1112-160" transform="translate(235.689,-151.547)">
			<title>Sheet.1112</title>
			<desc>Node reset</desc>
			<rect x="0" y="540.493" width="56.0657" height="7.37706" class="st14"/>
			<text x="5.57" y="547.78" class="st15">Node reset</text>		</g>
		<g id="shape1114-163" transform="translate(206.253,-368.638)">
			<title>Sheet.1114</title>
			<desc>Starting Bluetooth速 mesh</desc>
			<rect x="0" y="540.493" width="114.938" height="7.37706" class="st14"/>
			<text x="5.46" y="547.78" class="st15">Starting Bluetooth速 mesh</text>		</g>
		<g id="shape1116-166" transform="translate(200.567,-501.46)">
			<title>Sheet.1116</title>
			<desc>Initializing Bluetooth速 mesh</desc>
			<rect x="0" y="540.493" width="126.309" height="7.37706" class="st14"/>
			<text x="6.41" y="547.78" class="st15">Initializing Bluetooth速 mesh</text>		</g>
	</g>
</svg>
