<?xml version="1.0" encoding="UTF-8" standalone="no"?>
<!DOCTYPE svg PUBLIC "-//W3C//DTD SVG 1.1//EN" "http://www.w3.org/Graphics/SVG/1.1/DTD/svg11.dtd">
<!-- Generated by Microsoft Visio, SVG Export bt_mesh_device_lifecycle.svg Page-1 -->
<svg xmlns="http://www.w3.org/2000/svg" xmlns:xlink="http://www.w3.org/1999/xlink" xmlns:ev="http://www.w3.org/2001/xml-events"
		width="6.16899in" height="5.39988in" viewBox="0 0 444.167 388.791" xml:space="preserve" color-interpolation-filters="sRGB"
		class="st11">
	<style type="text/css">
	<![CDATA[
		.st1 {fill:#ebf1df;stroke:#000000;stroke-linecap:round;stroke-linejoin:round;stroke-opacity:0;stroke-width:0.24}
		.st2 {fill:#000000;font-family:Gotham Light;font-size:1.00001em}
		.st3 {font-size:1em}
		.st4 {fill:#dbeef3;stroke:#000000;stroke-linecap:round;stroke-linejoin:round;stroke-opacity:0;stroke-width:0.24}
		.st5 {fill:#f2f2f2;stroke:#000000;stroke-linecap:round;stroke-linejoin:round;stroke-opacity:0;stroke-width:0.24}
		.st6 {marker-end:url(#mrkr5-24);stroke:#000000;stroke-dasharray:5.25,3.75;stroke-linecap:round;stroke-linejoin:round;stroke-width:0.75}
		.st7 {fill:#000000;fill-opacity:1;stroke:#000000;stroke-opacity:1;stroke-width:0.22935779816514}
		.st8 {marker-start:url(#mrkr5-35);stroke:#000000;stroke-dasharray:5.25,3.75;stroke-linecap:round;stroke-linejoin:round;stroke-width:0.75}
		.st9 {stroke:#000000;stroke-dasharray:0,3.75;stroke-linecap:round;stroke-linejoin:round;stroke-width:0.75}
		.st10 {fill:none;stroke:none;stroke-linecap:round;stroke-linejoin:round;stroke-width:0.75}
		.st11 {fill:none;fill-rule:evenodd;font-size:12px;overflow:visible;stroke-linecap:square;stroke-miterlimit:3}
	]]>
	</style>

	<defs id="Markers">
		<g id="lend5">
			<path d="M 2 1 L 0 0 L 1.98117 -0.993387 C 1.67173 -0.364515 1.67301 0.372641 1.98465 1.00043 " style="stroke:none"/>
		</g>
		<marker id="mrkr5-24" class="st7" refX="-7.63" orient="auto" markerUnits="strokeWidth" overflow="visible">
			<use xlink:href="#lend5" transform="scale(-4.36,-4.36) "/>
		</marker>
		<marker id="mrkr5-35" class="st7" refX="7.15" orient="auto" markerUnits="strokeWidth" overflow="visible">
			<use xlink:href="#lend5" transform="scale(4.36) "/>
		</marker>
	</defs>
	<g>
		<title>Page-1</title>
		<g id="shape19-1" transform="translate(0.12,-78.7429)">
			<title>Process</title>
			<desc>Unprovisioned device</desc>
			<rect x="0" y="312.721" width="126.784" height="76.0701" rx="8.50394" ry="8.50394" class="st1"/>
			<text x="20.51" y="347.16" class="st2">Unprovisioned<tspan x="44.01" dy="1.2em" class="st3">d</tspan>evice</text>		</g>
		<g id="shape23-5" transform="translate(156.026,-194.731)">
			<title>Process.23</title>
			<desc>Provisioned mesh network node</desc>
			<rect x="0" y="312.721" width="126.784" height="76.0701" rx="8.50394" ry="8.50394" class="st4"/>
			<text x="28.7" y="347.16" class="st2">Provisioned<tspan x="4.62" dy="1.2em" class="st3">m</tspan>esh network node</text>		</g>
		<g id="shape24-9" transform="translate(312.707,-78.7429)">
			<title>Process.24</title>
			<desc>Configured mesh network node</desc>
			<rect x="0" y="312.721" width="126.784" height="76.0701" rx="8.50394" ry="8.50394" class="st4"/>
			<text x="30.25" y="347.16" class="st2">Configured<tspan x="4.62" dy="1.2em" class="st3">m</tspan>esh network node</text>		</g>
		<g id="shape28-13" transform="translate(156.026,-312.601)">
			<title>Process.28</title>
			<desc>Existing mesh network node (provisioner and configurator)</desc>
			<rect x="0" y="312.721" width="126.784" height="76.0701" rx="8.50394" ry="8.50394" class="st5"/>
			<text x="39.94" y="332.76" class="st2">Existing<tspan x="4.62" dy="1.2em" class="st3">m</tspan>esh network node<tspan
						x="27.73" dy="1.2em" class="st3">(</tspan>provisioner<tspan x="11.2" dy="1.2em" class="st3">and </tspan>configurator)</text>		</g>
		<g id="shape82-19" transform="translate(376.098,-71.6562)">
			<title>Dynamic connector</title>
			<path d="M0 381.7 L0 403.91 A22.2012 22.2012 0 0 1 -22.2 426.11 L-290.39 426.11 A22.2012 22.2012 0 0 1 -312.59 403.91
						 L-312.59 387.43" class="st6"/>
		</g>
		<g id="shape83-25" transform="translate(282.809,-232.766)">
			<title>Dynamic connector.83</title>
			<path d="M0 388.79 L59.27 388.79 A34.0157 34.0157 0 0 1 93.29 422.81 L93.29 461.02" class="st6"/>
		</g>
		<g id="shape84-30" transform="translate(156.026,-232.766)">
			<title>Dynamic connector.84</title>
			<path d="M-5.36 388.79 L-5.72 388.79 L-58.5 388.79 A34.0157 34.0157 -180 0 0 -92.51 422.81 L-92.51 466.74" class="st8"/>
		</g>
		<g id="shape86-36" transform="translate(219.417,-312.601)">
			<title>Dynamic connector.86</title>
			<path d="M0 388.79 L0 399.42 L-120.08 399.42 L-120.08 468.63" class="st9"/>
		</g>
		<g id="shape96-39" transform="translate(219.417,-312.601)">
			<title>Dynamic connector.96</title>
			<path d="M0 388.79 L0 399.42 L120.86 399.42 L120.86 468.63" class="st9"/>
		</g>
		<g id="shape97-42" transform="translate(350.416,-249.541)">
			<title>Sheet.97</title>
			<desc>Configuration</desc>
			<rect x="0" y="367.531" width="93.376" height="21.2598" class="st10"/>
			<text x="6.15" y="381.76" class="st2">Configuration</text>		</g>
		<g id="shape99-45" transform="translate(5.32472,-249.541)">
			<title>Sheet.99</title>
			<desc>Provisioning</desc>
			<rect x="0" y="367.531" width="83.2343" height="21.2598" class="st10"/>
			<text x="5.26" y="381.76" class="st2">Provisioning</text>		</g>
		<g id="shape100-48" transform="translate(63.5118,-0.375)">
			<title>Sheet.100</title>
			<desc>Node reset</desc>
			<rect x="0" y="354.826" width="313.616" height="33.9656" class="st10"/>
			<text x="124.17" y="375.41" class="st2">Node reset</text>		</g>
	</g>
</svg>
