<?xml version="1.0" encoding="UTF-8" standalone="no"?>
<!DOCTYPE svg PUBLIC "-//W3C//DTD SVG 1.1//EN" "http://www.w3.org/Graphics/SVG/1.1/DTD/svg11.dtd">
<!-- Generated by Microsoft Visio, SVG Export bt_mesh_light_ctrl_states.svg Page-1 -->
<svg xmlns="http://www.w3.org/2000/svg" xmlns:xlink="http://www.w3.org/1999/xlink" xmlns:ev="http://www.w3.org/2001/xml-events"
		width="3.77656in" height="2.69816in" viewBox="0 0 271.912 194.267" xml:space="preserve" color-interpolation-filters="sRGB"
		class="st10">
	<style type="text/css">
	<![CDATA[
		.st1 {fill:#00a9ce;stroke:none;stroke-width:1}
		.st2 {fill:#ffffff;font-family:Calibri;font-size:1.00001em}
		.st3 {fill:#0033a0;stroke:none;stroke-width:1}
		.st4 {fill:#0077c8;stroke:none;stroke-width:1}
		.st5 {marker-end:url(#mrkr13-15);stroke:#333f48;stroke-linecap:butt;stroke-width:1}
		.st6 {fill:#333f48;fill-opacity:1;stroke:#333f48;stroke-opacity:1;stroke-width:0.28409090909091}
		.st7 {stroke:#333f48;stroke-linecap:butt;stroke-width:1}
		.st8 {fill:none;stroke:none;stroke-width:1}
		.st9 {fill:#333f48;font-family:Calibri;font-size:1.00001em}
		.st10 {fill:none;fill-rule:evenodd;font-size:12px;overflow:visible;stroke-linecap:square;stroke-miterlimit:3}
	]]>
	</style>

	<defs id="Markers">
		<g id="lend13">
			<path d="M 3 1 L 0 0 L 3 -1 L 3 1 " style="stroke:none"/>
		</g>
		<marker id="mrkr13-15" class="st6" refX="-10.56" orient="auto" markerUnits="strokeWidth" overflow="visible">
			<use xlink:href="#lend13" transform="scale(-3.52,-3.52) "/>
		</marker>
	</defs>
	<g>
		<title>Page-1</title>
		<g id="shape8-1" transform="translate(91.1687,-158.86)">
			<title>Nordic Blue</title>
			<desc>Standby</desc>
			<rect x="0" y="159.86" width="86.2329" height="34.4067" class="st1"/>
			<text x="23.3" y="180.66" class="st2">Standby</text>		</g>
		<g id="shape9-4" transform="translate(91.1687,-79.9302)">
			<title>Nordic Blue.9</title>
			<desc>On</desc>
			<rect x="0" y="159.86" width="86.2329" height="34.4067" class="st3"/>
			<text x="35.99" y="180.66" class="st2">On</text>		</g>
		<g id="shape10-7" transform="translate(91.1687,-1)">
			<title>Nordic Blue.10</title>
			<desc>Prolong</desc>
			<rect x="0" y="159.86" width="86.2329" height="34.4067" class="st4"/>
			<text x="24.24" y="180.66" class="st2">Prolong</text>		</g>
		<g id="shape26-10" transform="translate(141.372,-158.86)">
			<title>Signal.26</title>
			<path d="M-7.09 194.27 L-7.09 228.23" class="st5"/>
		</g>
		<g id="shape27-16" transform="translate(101.314,-79.9302)">
			<title>Signal.27</title>
			<path d="M7.09 194.27 L7.09 228.23" class="st5"/>
		</g>
		<g id="shape29-21" transform="translate(170.315,-18.2034)">
			<title>Dynamic connector</title>
			<path d="M7.09 194.27 L71.6 194.27 L71.6 36.41 L17.65 36.41" class="st5"/>
		</g>
		<g id="shape33-26" transform="translate(98.2553,-97.1336)">
			<title>Dynamic connector.33</title>
			<path d="M-7.09 194.27 L-68.26 194.27 L-68.26 115.34 L-17.65 115.34" class="st5"/>
		</g>
		<g id="shape34-31" transform="translate(30,-97.1336)">
			<title>Dynamic connector.34</title>
			<path d="M0 194.27 L0 273.2 L61.17 273.2" class="st7"/>
		</g>
		<g id="shape36-34" transform="translate(152.337,-35.4067)">
			<title>Signal.36</title>
			<path d="M7.09 194.27 L7.09 160.73" class="st5"/>
		</g>
		<g id="shape37-39" transform="translate(188.74,-89.5753)">
			<title>Sheet.37</title>
			<desc>Timeout</desc>
			<rect x="0" y="179.151" width="51.0236" height="15.1165" class="st8"/>
			<text x="5.11" y="190.31" class="st9">Timeout</text>		</g>
		<g id="shape38-42" transform="translate(57.3767,-47.8034)">
			<title>Sheet.38</title>
			<desc>Timeout</desc>
			<rect x="0" y="179.151" width="51.0236" height="15.1165" class="st8"/>
			<text x="5.11" y="190.31" class="st9">Timeout</text>		</g>
		<g id="shape39-45" transform="translate(159.424,-47.8034)">
			<title>Sheet.39</title>
			<desc>On</desc>
			<rect x="0" y="179.151" width="23.6469" height="15.1165" class="st8"/>
			<text x="4.7" y="190.31" class="st9">On</text>		</g>
		<g id="shape40-48" transform="translate(30,-134.732)">
			<title>Sheet.40</title>
			<desc>Off</desc>
			<rect x="0" y="179.151" width="23.6469" height="15.1165" class="st8"/>
			<text x="4.19" y="190.31" class="st9">Off</text>		</g>
		<g id="shape41-51" transform="translate(108.4,-134.732)">
			<title>Sheet.41</title>
			<desc>On</desc>
			<rect x="0" y="179.151" width="23.6469" height="15.1165" class="st8"/>
			<text x="4.7" y="190.31" class="st9">On</text>		</g>
	</g>
</svg>
