<?xml version="1.0" encoding="UTF-8" standalone="no"?>
<!DOCTYPE svg PUBLIC "-//W3C//DTD SVG 1.1//EN" "http://www.w3.org/Graphics/SVG/1.1/DTD/svg11.dtd">
<!-- Generated by Microsoft Visio, SVG Export caf_buttons_states.svg Drawing -->
<svg xmlns="http://www.w3.org/2000/svg" xmlns:xlink="http://www.w3.org/1999/xlink" xmlns:ev="http://www.w3.org/2001/xml-events"
		width="8.02872in" height="6.10955in" viewBox="0 0 578.068 439.888" xml:space="preserve" color-interpolation-filters="sRGB"
		class="st19">
	<style type="text/css">
	<![CDATA[
		.st1 {marker-end:url(#mrkr13-6);stroke:#f58220;stroke-linecap:butt;stroke-opacity:0.77;stroke-width:1}
		.st2 {fill:#f58220;fill-opacity:0.77;stroke:#f58220;stroke-opacity:0.77;stroke-width:0.28409090909091}
		.st3 {fill:#ffffff;stroke:none;stroke-linecap:butt}
		.st4 {fill:#ed7d31;font-family:Arial;font-size:1.00001em}
		.st5 {marker-end:url(#mrkr13-14);stroke:#00a9ce;stroke-linecap:butt;stroke-width:1}
		.st6 {fill:#00a9ce;fill-opacity:1;stroke:#00a9ce;stroke-opacity:1;stroke-width:0.28409090909091}
		.st7 {fill:#ffffff;stroke:none;stroke-linecap:butt;stroke-width:7.2}
		.st8 {fill:#00a9ce;font-family:Arial;font-size:1.00001em}
		.st9 {fill:none;stroke:#f58220;stroke-dasharray:5.25,3.75;stroke-width:0.75}
		.st10 {marker-end:url(#mrkr13-24);stroke:#f58220;stroke-linecap:butt;stroke-width:1}
		.st11 {fill:#f58220;fill-opacity:1;stroke:#f58220;stroke-opacity:1;stroke-width:0.28409090909091}
		.st12 {font-size:1em}
		.st13 {marker-start:url(#mrkr13-41);stroke:#00a9ce;stroke-linecap:butt;stroke-width:1}
		.st14 {stroke:#00a9ce;stroke-linecap:butt;stroke-width:1}
		.st15 {fill:none;stroke:none;stroke-width:1}
		.st16 {marker-end:url(#mrkr13-70);stroke:#00a9ce;stroke-linecap:butt;stroke-width:1}
		.st17 {fill:#00a9ce;stroke:#feffff;stroke-width:1}
		.st18 {fill:#feffff;font-family:Arial;font-size:1.00001em}
		.st19 {fill:none;fill-rule:evenodd;font-size:12px;overflow:visible;stroke-linecap:square;stroke-miterlimit:3}
	]]>
	</style>

	<defs id="Markers">
		<g id="lend13">
			<path d="M 3 1 L 0 0 L 3 -1 L 3 1 " style="stroke:none"/>
		</g>
		<marker id="mrkr13-6" class="st2" refX="-10.56" orient="auto" markerUnits="strokeWidth" overflow="visible">
			<use xlink:href="#lend13" transform="scale(-3.52,-3.52) "/>
		</marker>
		<marker id="mrkr13-14" class="st6" refX="-10.56" orient="auto" markerUnits="strokeWidth" overflow="visible">
			<use xlink:href="#lend13" transform="scale(-3.52,-3.52) "/>
		</marker>
		<marker id="mrkr13-24" class="st11" refX="-10.56" orient="auto" markerUnits="strokeWidth" overflow="visible">
			<use xlink:href="#lend13" transform="scale(-3.52,-3.52) "/>
		</marker>
		<marker id="mrkr13-41" class="st6" refX="10.2" orient="auto" markerUnits="strokeWidth" overflow="visible">
			<use xlink:href="#lend13" transform="scale(3.52) "/>
		</marker>
		<marker id="mrkr13-70" class="st6" refX="-10.2" orient="auto" markerUnits="strokeWidth" overflow="visible">
			<use xlink:href="#lend13" transform="scale(-3.52,-3.52) "/>
		</marker>
	</defs>
	<g>
		<title>Drawing</title>
		<g id="shape6-1" transform="translate(169.357,-354.829)">
			<title>Sheet.6</title>
			<desc>Wake-up event</desc>
			<path d="M0 439.89 L214.2 439.89" class="st1"/>
			<rect x="72.7166" y="419.587" width="80.7083" height="14.4001" class="st3"/>
			<text x="72.72" y="430.39" class="st4">Wake-up event</text>		</g>
		<g id="shape9-9" transform="translate(204.946,-325.234)">
			<title>Dynamic connector</title>
			<desc>Button pressed</desc>
			<path d="M0 432.8 L153.85 432.8" class="st5"/>
			<rect x="40.1357" y="414.114" width="80.7201" height="14.4001" class="st7"/>
			<text x="40.14" y="424.91" class="st8">Button pressed</text>		</g>
		<g id="shape12-17" transform="translate(105.907,421.138) rotate(-90)">
			<title>Right Triangle.41</title>
			<path d="M0 439.89 L316.7 439.89 L0.43 8.23 L0 439.89 Z" class="st9"/>
		</g>
		<g id="shape13-19" transform="translate(433.033,-306.168)">
			<title>Dynamic connector.43</title>
			<desc>Power-down event</desc>
			<path d="M7.09 439.89 L7.09 583.76" class="st10"/>
			<rect x="12.6982" y="520.135" width="66.6977" height="28.8001" class="st7"/>
			<text x="12.7" y="530.94" class="st4">Power-down <tspan x="31.37" dy="1.2em" class="st12">event</tspan></text>		</g>
		<g id="shape14-28" transform="translate(127.095,-151.82)">
			<title>Dynamic connector.44</title>
			<desc>Power-down event</desc>
			<path d="M7.09 439.89 L7.09 299.07" class="st1"/>
			<rect x="-65.592" y="366.533" width="66.6977" height="28.8001" class="st7"/>
			<text x="-65.59" y="377.33" class="st4">Power-down <tspan x="-46.92" dy="1.2em" class="st12">event</tspan></text>		</g>
		<g id="shape15-36" transform="translate(63.3158,-330.836)">
			<title>Dynamic connector.45</title>
			<path d="M-10.2 439.89 L-10.56 439.89 L-24.57 439.89 L-24.57 708.14" class="st13"/>
		</g>
		<g id="shape16-42" transform="translate(440.12,-96.4585)">
			<title>Dynamic connector.46</title>
			<desc>No button pressed</desc>
			<path d="M0 439.89 L0 473.76 L-401.37 473.76" class="st14"/>
			<rect x="-200.797" y="455.357" width="98.064" height="14.4001" class="st7"/>
			<text x="-200.8" y="466.16" class="st8">No button pressed</text>		</g>
		<g id="shape17-47" transform="translate(59.1279,-214.091)">
			<title>Sheet.17</title>
			<rect x="0" y="419.888" width="152" height="20" class="st15"/>
		</g>
		<g id="shape18-49" transform="translate(458.638,18.8181) rotate(90)">
			<title>Right Triangle.77</title>
			<path d="M0 439.89 L306.03 439.89 L-0.07 8.23 L0 439.89 Z" class="st9"/>
		</g>
		<g id="shape19-51" transform="translate(830.605,355.993) rotate(135)">
			<title>Sheet.19</title>
			<desc>Initial scan</desc>
			<path d="M0 439.89 L43.97 439.89" class="st5"/>
			<rect x="-311.81" y="-337.502" width="28.0143" height="28.8001" transform="rotate(-135)" class="st7"/>
			<text x="-311.81" y="-326.7" transform="rotate(-135)" class="st8">Initial <tspan x="-310.48" dy="1.2em" class="st12">scan</tspan></text>		</g>
		<g id="shape21-59" transform="translate(21.7421,-391.406)">
			<title>Sheet.21</title>
			<desc>CONFIG_CAF_BUTTONS_PM_EVENTS</desc>
			<rect x="0" y="413.084" width="234.126" height="26.8031" class="st15"/>
			<text x="6.71" y="430.09" class="st4">CONFIG_CAF_BUTTONS_PM_EVENTS</text>		</g>
		<g id="shape22-62" transform="translate(304.306,-21.2673)">
			<title>Sheet.22</title>
			<desc>CONFIG_CAF_BUTTONS_PM_EVENTS</desc>
			<rect x="0" y="413.084" width="234.126" height="26.8031" class="st15"/>
			<text x="6.71" y="430.09" class="st4">CONFIG_CAF_BUTTONS_PM_EVENTS</text>		</g>
		<g id="shape23-65" transform="translate(686.922,454.924) rotate(138.204)">
			<title>Sheet.23</title>
			<desc>No button pressed</desc>
			<path d="M-0 439.89 A223.802 158.968 41.9 0 1 255.42 433.65 L255.71 433.86" class="st16"/>
			<rect x="-411.69" y="-226.363" width="52.0378" height="28.8001" transform="rotate(-138.204)" class="st7"/>
			<text x="-411.69" y="-215.56" transform="rotate(-138.204)" class="st8">No button <tspan x="-407.02" dy="1.2em"
						class="st12">pressed</tspan></text>		</g>
		<g id="shape24-74" transform="translate(-106.225,-32.8885) rotate(-41.5031)">
			<title>Sheet.24</title>
			<desc>Button pressed</desc>
			<path d="M-0 439.89 A224.592 158.03 41.96 0 1 254.69 433.67 L254.99 433.88" class="st16"/>
			<rect x="347.15" y="209.239" width="42.692" height="28.8001" transform="rotate(41.5031)" class="st7"/>
			<text x="351.15" y="220.04" transform="rotate(41.5031)" class="st8">Button <tspan x="347.15" dy="1.2em" class="st12">pressed</tspan></text>		</g>
		<g id="shape27-82" transform="translate(369.254,-306.168)">
			<title>Sheet.27</title>
			<desc>STATE_SCANNING</desc>
			<ellipse cx="70.8661" cy="412.25" rx="70.8661" ry="27.6378" class="st17"/>
			<text x="16.52" y="415.85" class="st18">STATE_SCANNING</text>		</g>
		<g id="shape29-85" transform="translate(369.254,-96.4585)">
			<title>Sheet.29</title>
			<desc>STATE_SUSPENDING</desc>
			<ellipse cx="70.8661" cy="412.25" rx="70.8661" ry="27.6378" class="st17"/>
			<text x="8.52" y="415.85" class="st18">STATE_SUSPENDING</text>		</g>
		<g id="shape30-88" transform="translate(63.3158,-96.5449)">
			<title>Sheet.30</title>
			<desc>STATE_ACTIVE</desc>
			<ellipse cx="70.8661" cy="412.25" rx="70.8661" ry="27.6378" class="st17"/>
			<text x="26.52" y="415.85" class="st18">STATE_ACTIVE</text>		</g>
		<g id="shape31-91" transform="translate(63.3158,-303.199)">
			<title>Sheet.31</title>
			<desc>STATE_IDLE</desc>
			<ellipse cx="70.8661" cy="412.25" rx="70.8661" ry="27.6378" class="st17"/>
			<text x="34.85" y="415.85" class="st18">STATE_IDLE</text>		</g>
	</g>
</svg>
