<?xml version="1.0" encoding="UTF-8" standalone="no"?>
<!DOCTYPE svg PUBLIC "-//W3C//DTD SVG 1.1//EN" "http://www.w3.org/Graphics/SVG/1.1/DTD/svg11.dtd">
<!-- Generated by Microsoft Visio, SVG Export caf_sensor_states.svg Drawing -->
<svg xmlns="http://www.w3.org/2000/svg" xmlns:xlink="http://www.w3.org/1999/xlink" xmlns:ev="http://www.w3.org/2001/xml-events"
		width="7.9128in" height="5.6486in" viewBox="0 0 569.721 406.699" xml:space="preserve" color-interpolation-filters="sRGB"
		class="st10">
	<style type="text/css">
	<![CDATA[
		.st1 {marker-end:url(#mrkr13-6);stroke:#00a9ce;stroke-linecap:butt;stroke-width:1}
		.st2 {fill:#00a9ce;fill-opacity:1;stroke:#00a9ce;stroke-opacity:1;stroke-width:0.28409090909091}
		.st3 {fill:none;stroke:none;stroke-width:1}
		.st4 {fill:#ed7d31;font-family:Arial;font-size:1.00001em}
		.st5 {fill:#00a9ce;stroke:#feffff;stroke-width:1}
		.st6 {fill:#feffff;font-family:Arial;font-size:1.00001em}
		.st7 {fill:none;stroke:#f58220;stroke-dasharray:5.25,3.75;stroke-width:0.75}
		.st8 {fill:#ffffff;stroke:none;stroke-linecap:butt;stroke-width:7.2}
		.st9 {fill:#008bab;font-family:Calibri;font-size:1.00001em}
		.st10 {fill:none;fill-rule:evenodd;font-size:12px;overflow:visible;stroke-linecap:square;stroke-miterlimit:3}
	]]>
	</style>

	<defs id="Markers">
		<g id="lend13">
			<path d="M 3 1 L 0 0 L 3 -1 L 3 1 " style="stroke:none"/>
		</g>
		<marker id="mrkr13-6" class="st2" refX="-10.56" orient="auto" markerUnits="strokeWidth" overflow="visible">
			<use xlink:href="#lend13" transform="scale(-3.52,-3.52) "/>
		</marker>
	</defs>
	<g>
		<title>Drawing</title>
		<g id="shape19-1" transform="translate(862.014,36.2289) rotate(90)">
			<title>Sheet.19</title>
			<path d="M0 406.7 L30.52 406.7" class="st1"/>
		</g>
		<g id="shape21-7" transform="translate(19,-19)">
			<title>Sheet.21</title>
			<desc>Sensor trigger enabled</desc>
			<rect x="0" y="379.896" width="141.732" height="26.8031" class="st3"/>
			<text x="10.16" y="396.9" class="st4">Sensor trigger enabled</text>		</g>
		<g id="shape27-10" transform="translate(359.907,-274.118)">
			<title>Sheet.27</title>
			<desc>SENSOR_STATE_DISABLED</desc>
			<ellipse cx="95.4069" cy="379.061" rx="95.4069" ry="27.6378" class="st5"/>
			<text x="14.38" y="382.66" class="st6">SENSOR_STATE_DISABLED</text>		</g>
		<g id="shape29-13" transform="translate(359.907,-64.409)">
			<title>Sheet.29</title>
			<desc>SENSOR_STATE_ACTIVE</desc>
			<ellipse cx="95.4069" cy="379.061" rx="95.4069" ry="27.6378" class="st5"/>
			<text x="22.39" y="382.66" class="st6">SENSOR_STATE_ACTIVE</text>		</g>
		<g id="shape30-16" transform="translate(49.2886,-64.409)">
			<title>Sheet.30</title>
			<desc>SENSOR_STATE_SLEEP</desc>
			<ellipse cx="95.4069" cy="379.061" rx="95.4069" ry="27.6378" class="st5"/>
			<text x="24.71" y="382.66" class="st6">SENSOR_STATE_SLEEP</text>		</g>
		<g id="shape31-19" transform="translate(49.2886,-274.118)">
			<title>Sheet.31</title>
			<desc>SENSOR_STATE_ERROR</desc>
			<ellipse cx="95.4069" cy="379.061" rx="95.4069" ry="27.6378" class="st5"/>
			<text x="22.39" y="382.66" class="st6">SENSOR_STATE_ERROR</text>		</g>
		<g id="shape32-22" transform="translate(19,-19)">
			<title>Right Triangle</title>
			<path d="M0 406.7 L382.68 406.7 L0 123.94 L0 406.7 Z" class="st7"/>
		</g>
		<g id="shape33-24" transform="translate(448.228,-274.118)">
			<title>Dynamic connector.33</title>
			<desc>Sensor initialized</desc>
			<path d="M7.09 406.7 L7.09 550.57" class="st1"/>
			<rect x="11.3794" y="476.716" width="82.5656" height="14.4001" class="st8"/>
			<text x="11.38" y="487.52" class="st9">Sensor initialized</text>		</g>
		<g id="shape35-31" transform="translate(359.907,-294.669)">
			<title>Dynamic connector.35</title>
			<desc>Sensor error</desc>
			<path d="M0 399.61 L-109.25 399.61" class="st1"/>
			<rect x="-94.6043" y="381.211" width="60.5569" height="14.4001" class="st8"/>
			<text x="-94.6" y="392.01" class="st9">Sensor error</text>		</g>
		<g id="shape37-38" transform="translate(137.609,-119.685)">
			<title>Dynamic connector.37</title>
			<desc>Sensor error</desc>
			<path d="M7.09 406.7 L7.09 262.83" class="st1"/>
			<rect x="-56.9648" y="322.283" width="60.5569" height="14.4001" class="st8"/>
			<text x="-56.96" y="333.08" class="st9">Sensor error</text>		</g>
		<g id="shape38-45" transform="translate(235.231,-94.0923)">
			<title>Dynamic connector.38</title>
			<desc>Sensor trigger</desc>
			<path d="M0 400.03 L119.99 399.27" class="st1"/>
			<rect x="31.2162" y="380.206" width="68.1155" height="14.4001" class="st8"/>
			<text x="31.22" y="391.01" class="st9">Sensor trigger</text>		</g>
		<g id="shape39-52" transform="translate(365.652,-75.5537)">
			<title>Dynamic connector.39</title>
			<desc>Sensor sleep conditions met</desc>
			<path d="M0 399.65 L-120.64 399.58" class="st1"/>
			<rect x="-134.233" y="407.89" width="137.269" height="14.4001" class="st8"/>
			<text x="-134.23" y="418.69" class="st9">Sensor sleep conditions met</text>		</g>
		<g id="shape42-59" transform="translate(426.197,-118.366)">
			<title>Dynamic connector.42</title>
			<desc>Sensor error</desc>
			<path d="M0 406.7 L-183.76 239.64" class="st1"/>
			<rect x="-160.893" y="323.143" width="60.5569" height="14.4001" class="st8"/>
			<text x="-160.89" y="333.94" class="st9">Sensor error</text>		</g>
		<g id="shape44-66" transform="translate(446.7,-370.47)">
			<title>Circle.219</title>
			<path d="M0 398.08 A8.61447 8.61447 0 0 1 17.23 398.08 A8.61447 8.61447 0 1 1 -0 398.08 Z" class="st5"/>
		</g>
	</g>
</svg>
