<?xml version="1.0" encoding="UTF-8" standalone="no"?>
<!DOCTYPE svg PUBLIC "-//W3C//DTD SVG 1.1//EN" "http://www.w3.org/Graphics/SVG/1.1/DTD/svg11.dtd">
<!-- Generated by Microsoft Visio, SVG Export chip_nrfconnect_overview_simplified_ncs.svg Page-1 -->
<svg xmlns="http://www.w3.org/2000/svg" xmlns:xlink="http://www.w3.org/1999/xlink" xmlns:ev="http://www.w3.org/2001/xml-events"
		xmlns:v="http://schemas.microsoft.com/visio/2003/SVGExtensions/" width="9.29832in" height="8.13998in"
		viewBox="0 0 669.479 586.079" xml:space="preserve" color-interpolation-filters="sRGB" class="st28">
	<v:documentProperties v:langID="1033" v:metric="true" v:viewMarkup="false">
		<v:userDefs>
			<v:ud v:nameU="msvNoAutoConnect" v:val="VT0(1):26"/>
		</v:userDefs>
	</v:documentProperties>

	<style type="text/css">
	<![CDATA[
		.st1 {fill:#0077c8;fill-opacity:0;stroke:#000000;stroke-linecap:round;stroke-linejoin:round;stroke-width:0.75}
		.st2 {fill:#6ad1e3;stroke:none;stroke-linecap:round;stroke-linejoin:round;stroke-width:0.75}
		.st3 {stroke:none;stroke-linecap:round;stroke-linejoin:round;stroke-width:0.75}
		.st4 {fill:#000000;font-family:Gotham Light;font-size:1.12521em}
		.st5 {fill:#4c5662;stroke:none;stroke-width:1}
		.st6 {fill:#ffffff;font-family:Gotham Light;font-size:1.29833em}
		.st7 {fill:#0033a0;stroke:none;stroke-width:1}
		.st8 {fill:#d9e1e2;stroke:#feffff;stroke-width:1}
		.st9 {fill:#000000;font-family:Gotham Light;font-size:1.16666em}
		.st10 {fill:#6ad1e3;stroke:none;stroke-width:1}
		.st11 {fill:#000000;font-family:Gotham Light;font-size:0.833336em}
		.st12 {font-size:1em}
		.st13 {fill:#000000;font-family:Gotham Light;font-size:1.00001em}
		.st14 {fill:#768692;stroke:none;stroke-linecap:round;stroke-linejoin:round;stroke-width:0.75}
		.st15 {fill:#ffffff;font-family:Gotham Light;font-size:1.00001em}
		.st16 {fill:#d9e1e2;stroke:#0075c8;stroke-linecap:round;stroke-linejoin:round;stroke-width:0.064891}
		.st17 {fill:#6ad1e3;stroke:#feffff;stroke-width:1}
		.st18 {fill:#00a9ce;stroke:none;stroke-linecap:round;stroke-linejoin:round;stroke-width:0.75}
		.st19 {fill:#4c5662;stroke:#feffff;stroke-width:1}
		.st20 {fill:#d9e1e2;stroke:none;stroke-linecap:round;stroke-linejoin:round;stroke-width:0.75}
		.st21 {fill:#000000;font-family:Gotham Light;font-size:0.916672em}
		.st22 {fill:#0033a0;stroke:#feffff;stroke-width:1}
		.st23 {fill:#6b9ef4;fill-opacity:0.58;stroke:#000000;stroke-dasharray:1.5,3;stroke-linecap:round;stroke-linejoin:round;stroke-opacity:0.95;stroke-width:1.5}
		.st24 {fill:#6b9ef4;fill-opacity:0.58;stroke:#000000;stroke-dasharray:1.5,3;stroke-linecap:round;stroke-linejoin:round;stroke-width:1.5}
		.st25 {fill:#ffffff;font-family:Gotham Light;font-size:1.16666em}
		.st26 {fill:#6b9ef4;fill-opacity:0.58;stroke:none;stroke-linecap:round;stroke-linejoin:round;stroke-width:0.75}
		.st27 {fill:#000000;font-family:Gotham Light;font-size:1.33333em}
		.st28 {fill:none;fill-rule:evenodd;font-size:12px;overflow:visible;stroke-linecap:square;stroke-miterlimit:3}
	]]>
	</style>

	<g v:mID="0" v:index="1" v:groupContext="foregroundPage">
		<title>Page-1</title>
		<v:pageProperties v:drawingScale="0.0393701" v:pageScale="0.0393701" v:drawingUnits="24" v:shadowOffsetX="8.50394"
				v:shadowOffsetY="-8.50394"/>
		<v:layer v:name="Connector" v:index="0"/>
		<v:layer v:name="gap" v:index="1"/>
		<g id="shape55-1" v:mID="55" v:groupContext="shape" transform="translate(18,-72.0158)">
			<title>Sheet.55</title>
			<path d="M633.48 90.02 L0 90.02 L0 586.08 L633.48 586.08 L633.48 90.02 Z" class="st1"/>
		</g>
		<g id="shape59-3" v:mID="59" v:groupContext="shape" transform="translate(191.524,-521.621)">
			<title>Sheet.59</title>
			<path d="M0 550.96 L0 586.08 L451.55 586.08 L451.55 550.96 L0 550.96 L0 550.96 Z" class="st2"/>
		</g>
		<g id="shape60-5" v:mID="60" v:groupContext="shape" transform="translate(191.524,-532.954)">
			<title>Sheet.60</title>
			<desc>User application</desc>
			<v:textBlock v:margins="rect(0,0,0,0)" v:tabSpace="42.5197"/>
			<v:textRect cx="225.677" cy="579.852" width="451.36" height="12.4539"/>
			<path d="M451.35 573.62 L0 573.62 L0 586.08 L451.35 586.08 L451.35 573.62" class="st3"/>
			<text x="171.8" y="583.9" class="st4" v:langID="1033"><v:paragraph v:horizAlign="1"/><v:tabList/>User application</text>		</g>
		<g id="shape61-9" v:mID="61" v:groupContext="shape" transform="translate(191.524,-113.425)">
			<title>Sheet.61</title>
			<path d="M0 265.76 L0 586.08 L192.33 586.08 L192.33 265.76 L0 265.76 L0 265.76 Z" class="st5"/>
		</g>
		<g id="shape62-11" v:mID="62" v:groupContext="shape" transform="translate(191.517,-409.379)">
			<title>Sheet.62</title>
			<desc>Bluetooth LE stack</desc>
			<v:textBlock v:margins="rect(0,0,0,0)" v:tabSpace="42.5197"/>
			<v:textRect cx="96.1654" cy="576.178" width="192.34" height="19.8018"/>
			<path d="M192.33 566.28 L0 566.28 L0 586.08 L192.33 586.08 L192.33 566.28" class="st3"/>
			<text x="23.35" y="580.85" class="st6" v:langID="1033"><v:paragraph v:horizAlign="1"/><v:tabList/>Bluetooth LE stack</text>		</g>
		<g id="shape67-15" v:mID="67" v:groupContext="shape" transform="translate(388.913,-196.74)">
			<title>Sheet.67</title>
			<path d="M0 433.88 L0 586.08 L254.31 586.08 L254.31 433.88 L0 433.88 L0 433.88 Z" class="st7"/>
		</g>
		<g id="shape71-17" v:mID="71" v:groupContext="shape" transform="translate(389.35,-196.74)">
			<title>Sheet.71</title>
			<desc>Thread stack (OpenThread)</desc>
			<v:textBlock v:margins="rect(0,0,0,0)" v:tabSpace="42.5197"/>
			<v:textRect cx="126.935" cy="509.98" width="253.87" height="152.197"/>
			<path d="M253.87 433.88 L0 433.88 L0 586.08 L253.87 586.08 L253.87 433.88" class="st3"/>
			<text x="20.16" y="514.65" class="st6" v:langID="1033"><v:paragraph v:horizAlign="1"/><v:tabList/>Thread stack (OpenThread)</text>		</g>
		<g id="shape117-21" v:mID="117" v:groupContext="shape" transform="translate(198.943,-254.449)">
			<title>Sheet.117</title>
			<desc>Zephyr host</desc>
			<v:textBlock v:margins="rect(5.66929,0,0,0)" v:tabSpace="42.5197" v:verticalAlign="0"/>
			<v:textRect cx="89.2913" cy="518.756" width="178.59" height="134.646"/>
			<rect x="0" y="451.433" width="178.583" height="134.646" class="st8"/>
			<text x="47.41" y="469.7" class="st9" v:langID="1033"><v:paragraph v:horizAlign="1"/><v:tabList/>Zephyr host</text>		</g>
		<g id="shape108-24" v:mID="108" v:groupContext="shape" transform="translate(342.145,-77.6851)">
			<title>Sheet.108</title>
			<rect x="0" y="554.34" width="166.205" height="31.7385" class="st10"/>
		</g>
		<g id="shape107-26" v:mID="107" v:groupContext="shape" transform="translate(342.145,-77.6851)">
			<title>Sheet.107</title>
			<desc>Secure boot</desc>
			<v:userDefs/>
			<v:textBlock v:margins="rect(0,0,0,0)" v:tabSpace="42.5197"/>
			<v:textRect cx="84.5418" cy="570.209" width="169.09" height="31.7385"/>
			<text x="16.8" y="567.21" class="st11" v:langID="1033"><v:paragraph v:horizAlign="1"/><v:tabList/>Multiprotocol Service Layer<v:newlineChar/><tspan
						x="66.29" dy="1.2em" class="st12">(MPSL)</tspan></text>		</g>
		<g id="shape118-29" v:mID="118" v:groupContext="shape" transform="translate(199.276,-124.764)">
			<title>Sheet.118</title>
			<desc>SoftDevice Controller</desc>
			<v:textBlock v:margins="rect(4,4,4,4)" v:tabSpace="42.5197"/>
			<v:textRect cx="89.2913" cy="567.654" width="178.59" height="36.8504"/>
			<rect x="0" y="549.228" width="178.583" height="36.8504" class="st2"/>
			<text x="25.62" y="571.25" class="st13" v:langID="1033"><v:paragraph v:horizAlign="1"/><v:tabList/>SoftDevice Controller</text>		</g>
		<g id="shape82-32" v:mID="82" v:groupContext="shape" transform="translate(206.03,-263.411)">
			<title>Sheet.82</title>
			<desc>L2CAP</desc>
			<v:textBlock v:margins="rect(4,4,4,4)" v:tabSpace="42.5197"/>
			<v:textRect cx="68.0315" cy="571.78" width="136.07" height="28.5969"/>
			<path d="M136.06 557.48 L0 557.48 L0 586.08 L136.06 586.08 L136.06 557.48 Z" class="st14"/>
			<text x="47.6" y="575.38" class="st15" v:langID="1033"><v:paragraph v:horizAlign="1"/><v:tabList/>L2CAP</text>		</g>
		<g id="shape78-35" v:mID="78" v:groupContext="shape" transform="translate(205.755,-328.608)">
			<title>Sheet.78</title>
			<desc>GATT</desc>
			<v:textBlock v:margins="rect(4,4,4,4)" v:tabSpace="42.5197"/>
			<v:textRect cx="36.1417" cy="571.78" width="72.29" height="28.5969"/>
			<path d="M72.28 557.48 L0 557.48 L0 586.08 L72.28 586.08 L72.28 557.48 Z" class="st14"/>
			<text x="19.04" y="575.38" class="st15" v:langID="1033"><v:paragraph v:horizAlign="1"/><v:tabList/>GATT</text>		</g>
		<g id="shape80-38" v:mID="80" v:groupContext="shape" transform="translate(206.03,-296.009)">
			<title>Sheet.80</title>
			<desc>ATT</desc>
			<v:textBlock v:margins="rect(4,4,4,4)" v:tabSpace="42.5197"/>
			<v:textRect cx="36.1417" cy="571.78" width="72.29" height="28.5969"/>
			<path d="M72.28 557.48 L0 557.48 L0 586.08 L72.28 586.08 L72.28 557.48 Z" class="st14"/>
			<text x="23.75" y="575.38" class="st15" v:langID="1033"><v:paragraph v:horizAlign="1"/><v:tabList/>ATT</text>		</g>
		<g id="shape88-41" v:mID="88" v:groupContext="shape" transform="translate(282.258,-328.688)">
			<title>Sheet.88</title>
			<desc>GAP</desc>
			<v:textBlock v:margins="rect(4,4,4,4)" v:tabSpace="42.5197"/>
			<v:textRect cx="45.1395" cy="571.78" width="90.28" height="28.5969"/>
			<path d="M90.28 557.48 L0 557.48 L0 586.08 L90.28 586.08 L90.28 557.48 Z" class="st14"/>
			<text x="31.69" y="575.38" class="st15" v:langID="1033"><v:paragraph v:horizAlign="1"/><v:tabList/>GAP</text>		</g>
		<g id="shape119-44" v:mID="119" v:groupContext="shape" transform="translate(866.314,333.189) rotate(90)">
			<title>Sheet.119</title>
			<path d="M8.46 581.13 L80.21 581.13 L80.21 582.23 L8.46 582.23 L8.46 581.13 L8.46 581.13 ZM10.11 586.08 L0 581.68 L10.11
						 577.28 L10.11 586.08 L10.11 586.08 ZM78.47 577.28 L88.58 581.68 L78.47 586.08 L78.47 577.28 L78.47 577.28
						 Z" class="st16"/>
		</g>
		<g id="shape120-46" v:mID="120" v:groupContext="shape" transform="translate(287.579,-198.698)">
			<title>Sheet.120</title>
			<desc>HCI (RAM)</desc>
			<v:textBlock v:margins="rect(0,0,0,0)" v:tabSpace="42.5197"/>
			<v:textRect cx="45.1395" cy="576.178" width="90.28" height="19.8018"/>
			<path d="M90.28 566.28 L0 566.28 L0 586.08 L90.28 586.08 L90.28 566.28" class="st3"/>
			<text x="13.23" y="579.78" class="st15" v:langID="1033"><v:paragraph v:horizAlign="1"/><v:tabList/>HCI (RAM)</text>		</g>
		<g id="shape188-50" v:mID="188" v:groupContext="shape" transform="translate(472.146,-155.638)">
			<title>Sheet.188</title>
			<rect x="0" y="550.646" width="171" height="35.4331" class="st5"/>
		</g>
		<g id="shape187-52" v:mID="187" v:groupContext="shape" transform="translate(472.146,-155.638)">
			<title>Sheet.187</title>
			<desc>Secure boot</desc>
			<v:userDefs/>
			<v:textBlock v:margins="rect(0,0,0,0)" v:tabSpace="42.5197"/>
			<v:textRect cx="82.0601" cy="568.362" width="165.48" height="35.4331"/>
			<text x="26.77" y="571.96" class="st15" v:langID="1033"><v:paragraph v:horizAlign="1"/><v:tabList/>Zephyr integration</text>		</g>
		<g id="shape100-54" v:mID="100" v:groupContext="shape" transform="translate(472.146,-113.425)">
			<title>Sheet.100</title>
			<path d="M171 549.23 L0 549.23 L0 586.08 L171 586.08 L171 549.23 Z" class="st2"/>
		</g>
		<g id="shape102-56" v:mID="102" v:groupContext="shape" transform="translate(472.146,-112.591)">
			<title>Sheet.102</title>
			<desc>nRF IEEE 802.15.4 radio driver</desc>
			<v:textBlock v:margins="rect(0,0,0,0)" v:tabSpace="42.5197"/>
			<v:textRect cx="84.5418" cy="567.654" width="169.09" height="36.8504"/>
			<path d="M169.08 549.23 L0 549.23 L0 586.08 L169.08 586.08 L169.08 549.23" class="st3"/>
			<text x="31.32" y="564.05" class="st13" v:langID="1033"><v:paragraph v:horizAlign="1"/><v:tabList/>nRF IEEE 802.15.4<v:newlineChar/><tspan
						x="50.35" dy="1.2em" class="st12">radio driver</tspan></text>		</g>
		<g id="shape189-61" v:mID="189" v:groupContext="shape" transform="translate(388.913,-354.317)">
			<title>Sheet.189</title>
			<path d="M0 506.71 L0 586.08 L253.88 586.08 L253.88 506.71 L0 506.71 L0 506.71 Z" class="st5"/>
		</g>
		<g id="shape190-63" v:mID="190" v:groupContext="shape" transform="translate(389.342,-412.173)">
			<title>Sheet.190</title>
			<desc>Zephyr network layer</desc>
			<v:textBlock v:margins="rect(0,0,0,0)" v:tabSpace="42.5197"/>
			<v:textRect cx="126.938" cy="576.178" width="253.88" height="19.8018"/>
			<path d="M253.88 566.28 L0 566.28 L0 586.08 L253.88 586.08 L253.88 566.28" class="st3"/>
			<text x="44.47" y="580.85" class="st6" v:langID="1033"><v:paragraph v:horizAlign="1"/><v:tabList/>Zephyr network layer</text>		</g>
		<g id="shape191-67" v:mID="191" v:groupContext="shape" transform="translate(396,-388.386)">
			<title>Sheet.191</title>
			<path d="M119.01 563.4 L0 563.4 L0 586.08 L119.01 586.08 L119.01 563.4 Z" class="st8"/>
		</g>
		<g id="shape192-69" v:mID="192" v:groupContext="shape" transform="translate(396,-388.386)">
			<title>Sheet.192</title>
			<desc>UDP</desc>
			<v:textBlock v:margins="rect(0,0,0,0)" v:tabSpace="42.5197"/>
			<v:textRect cx="59.5031" cy="574.74" width="119.01" height="22.6772"/>
			<path d="M119.01 563.4 L0 563.4 L0 586.08 L119.01 586.08 L119.01 563.4" class="st3"/>
			<text x="46.24" y="578.34" class="st13" v:langID="1033"><v:paragraph v:horizAlign="1"/><v:tabList/>UDP</text>		</g>
		<g id="shape193-73" v:mID="193" v:groupContext="shape" transform="translate(520.676,-388.386)">
			<title>Sheet.193</title>
			<path d="M115.14 563.15 L0 563.15 L0 586.08 L115.14 586.08 L115.14 563.15 Z" class="st8"/>
		</g>
		<g id="shape194-75" v:mID="194" v:groupContext="shape" transform="translate(520.676,-388.636)">
			<title>Sheet.194</title>
			<desc>TCP</desc>
			<v:textBlock v:margins="rect(0,0,0,0)" v:tabSpace="42.5197"/>
			<v:textRect cx="57.5677" cy="574.74" width="115.14" height="22.6772"/>
			<path d="M115.14 563.4 L0 563.4 L0 586.08 L115.14 586.08 L115.14 563.4" class="st3"/>
			<text x="45.27" y="578.34" class="st13" v:langID="1033"><v:paragraph v:horizAlign="1"/><v:tabList/>TCP</text>		</g>
		<g id="shape195-79" v:mID="195" v:groupContext="shape" transform="translate(396,-360.039)">
			<title>Sheet.195</title>
			<path d="M239.53 563.4 L0 563.4 L0 586.08 L239.53 586.08 L239.53 563.4 Z" class="st8"/>
		</g>
		<g id="shape196-81" v:mID="196" v:groupContext="shape" transform="translate(396,-360.039)">
			<title>Sheet.196</title>
			<desc>IPv6</desc>
			<v:textBlock v:margins="rect(0,0,0,0)" v:tabSpace="42.5197"/>
			<v:textRect cx="119.764" cy="574.74" width="239.53" height="22.6772"/>
			<path d="M239.53 563.4 L0 563.4 L0 586.08 L239.53 586.08 L239.53 563.4" class="st3"/>
			<text x="106.77" y="578.34" class="st13" v:langID="1033"><v:paragraph v:horizAlign="1"/><v:tabList/>IPv6</text>		</g>
		<g id="shape197-85" v:mID="197" v:groupContext="shape" transform="translate(25.6816,-113.425)">
			<title>Sheet.197</title>
			<desc>Drivers and modules</desc>
			<v:textBlock v:margins="rect(5.66929,0,0,0)" v:tabSpace="42.5197" v:verticalAlign="0"/>
			<v:textRect cx="80.1924" cy="525.004" width="160.39" height="122.15"/>
			<rect x="0" y="463.929" width="160.385" height="122.15" class="st17"/>
			<text x="19.41" y="480.4" class="st13" v:langID="1033"><v:paragraph v:horizAlign="1"/><v:tabList/>Drivers and modules</text>		</g>
		<g id="shape206-88" v:mID="206" v:groupContext="shape" transform="translate(107.177,-125.614)">
			<title>Sheet.206</title>
			<desc>Crypto backends</desc>
			<v:textBlock v:margins="rect(4,4,4,4)" v:tabSpace="42.5197"/>
			<v:textRect cx="35.4758" cy="567.654" width="70.96" height="36.8504"/>
			<path d="M70.95 549.23 L0 549.23 L0 586.08 L70.95 586.08 L70.95 549.23 Z" class="st18"/>
			<text x="14.89" y="564.05" class="st13" v:langID="1033"><v:paragraph v:horizAlign="1"/><v:tabList/>Crypto <tspan
						x="7.16" dy="1.2em" class="st12">backends</tspan></text>		</g>
		<g id="shape209-92" v:mID="209" v:groupContext="shape" transform="translate(32.1446,-125.614)">
			<title>Sheet.209</title>
			<desc>NFC</desc>
			<v:textBlock v:margins="rect(4,4,4,4)" v:tabSpace="42.5197"/>
			<v:textRect cx="35.4758" cy="567.654" width="70.96" height="36.8504"/>
			<path d="M70.95 549.23 L0 549.23 L0 586.08 L70.95 586.08 L70.95 549.23 Z" class="st18"/>
			<text x="22.34" y="571.25" class="st13" v:langID="1033"><v:paragraph v:horizAlign="1"/><v:tabList/>NFC</text>		</g>
		<g id="shape210-95" v:mID="210" v:groupContext="shape" transform="translate(32.1446,-168.134)">
			<title>Sheet.210</title>
			<desc>DFU</desc>
			<v:textBlock v:margins="rect(4,4,4,4)" v:tabSpace="42.5197"/>
			<v:textRect cx="35.4758" cy="567.654" width="70.96" height="36.8504"/>
			<path d="M70.95 549.23 L0 549.23 L0 586.08 L70.95 586.08 L70.95 549.23 Z" class="st18"/>
			<text x="22.29" y="571.25" class="st13" v:langID="1033"><v:paragraph v:horizAlign="1"/><v:tabList/>DFU</text>		</g>
		<g id="shape211-98" v:mID="211" v:groupContext="shape" transform="translate(107.177,-168.134)">
			<title>Sheet.211</title>
			<desc>Partition Manager</desc>
			<v:textBlock v:margins="rect(4,4,4,4)" v:tabSpace="42.5197"/>
			<v:textRect cx="35.4758" cy="567.654" width="70.96" height="36.8504"/>
			<path d="M70.95 549.23 L0 549.23 L0 586.08 L70.95 586.08 L70.95 549.23 Z" class="st18"/>
			<text x="10.32" y="564.05" class="st13" v:langID="1033"><v:paragraph v:horizAlign="1"/><v:tabList/>Partition <tspan
						x="9.84" dy="1.2em" class="st12">Manager</tspan></text>		</g>
		<g id="shape212-102" v:mID="212" v:groupContext="shape" transform="translate(25.6816,-240.11)">
			<title>Sheet.212</title>
			<desc>Zephyr APIs</desc>
			<v:textBlock v:margins="rect(5.66929,0,0,0)" v:tabSpace="42.5197" v:verticalAlign="0"/>
			<v:textRect cx="80.1924" cy="542.567" width="160.39" height="87.0236"/>
			<rect x="0" y="499.055" width="160.385" height="87.0236" class="st19"/>
			<text x="43.82" y="515.52" class="st15" v:langID="1033"><v:paragraph v:horizAlign="1"/><v:tabList/>Zephyr APIs</text>		</g>
		<g id="shape213-105" v:mID="213" v:groupContext="shape" transform="translate(107.177,-249.488)">
			<title>Sheet.213</title>
			<desc>Driver API</desc>
			<v:textBlock v:margins="rect(4,4,4,4)" v:tabSpace="42.5197"/>
			<v:textRect cx="35.4758" cy="561.984" width="70.96" height="48.189"/>
			<path d="M70.95 537.89 L0 537.89 L0 586.08 L70.95 586.08 L70.95 537.89 Z" class="st20"/>
			<text x="5.3" y="565.58" class="st13" v:langID="1033"><v:paragraph v:horizAlign="1"/><v:tabList/>Driver API</text>		</g>
		<g id="shape214-108" v:mID="214" v:groupContext="shape" transform="translate(32.1446,-249.488)">
			<title>Sheet.214</title>
			<desc>Crypto API</desc>
			<v:textBlock v:margins="rect(4,4,4,4)" v:tabSpace="42.5197"/>
			<v:textRect cx="35.4758" cy="561.984" width="70.96" height="48.189"/>
			<path d="M70.95 537.89 L0 537.89 L0 586.08 L70.95 586.08 L70.95 537.89 Z" class="st20"/>
			<text x="5.43" y="565.28" class="st21" v:langID="1033"><v:paragraph v:horizAlign="1"/><v:tabList/>Crypto API</text>		</g>
		<g id="shape217-111" v:mID="217" v:groupContext="shape" transform="translate(25.6816,-331.78)">
			<title>Sheet.217</title>
			<desc>Zephyr RTOS kernel</desc>
			<v:textBlock v:margins="rect(0,0,0,0)" v:tabSpace="42.5197"/>
			<v:textRect cx="80.1924" cy="562.737" width="160.39" height="46.6845"/>
			<rect x="0" y="539.394" width="160.385" height="46.6845" class="st19"/>
			<text x="20.35" y="566.34" class="st15" v:langID="1033"><v:paragraph v:horizAlign="1"/><v:tabList/>Zephyr RTOS kernel</text>		</g>
		<g id="shape220-114" v:mID="220" v:groupContext="shape" transform="translate(25.6816,-383.827)">
			<title>Sheet.220</title>
			<desc>MCU bootloader</desc>
			<v:textBlock v:margins="rect(0,0,0,0)" v:tabSpace="42.5197"/>
			<v:textRect cx="38.0979" cy="561.772" width="76.2" height="48.6142"/>
			<rect x="0" y="537.465" width="76.1958" height="48.6142" class="st22"/>
			<text x="23.87" y="558.17" class="st15" v:langID="1033"><v:paragraph v:horizAlign="1"/><v:tabList/>MCU <tspan x="5.42"
						dy="1.2em" class="st12">bootloader</tspan></text>		</g>
		<g id="shape221-118" v:mID="221" v:groupContext="shape" transform="translate(106.696,-383.827)">
			<title>Sheet.221</title>
			<desc>mbedTLS</desc>
			<v:textBlock v:margins="rect(0,0,0,0)" v:tabSpace="42.5197"/>
			<v:textRect cx="39.685" cy="561.772" width="79.38" height="48.6142"/>
			<rect x="0" y="537.465" width="79.3701" height="48.6142" class="st22"/>
			<text x="11.23" y="565.37" class="st15" v:langID="1033"><v:paragraph v:horizAlign="1"/><v:tabList/>mbedTLS</text>		</g>
		<g id="shape222-121" v:mID="222" v:groupContext="shape" transform="translate(191.325,-480.481)">
			<title>Sheet.222</title>
			<path d="M0 550.96 L0 586.08 L451.55 586.08 L451.55 550.96 L0 550.96 L0 550.96 Z" class="st23"/>
		</g>
		<g id="shape223-123" v:mID="223" v:groupContext="shape" transform="translate(191.524,-491.813)">
			<title>Sheet.223</title>
			<desc>Project CHIP stack</desc>
			<v:textBlock v:margins="rect(0,0,0,0)" v:tabSpace="42.5197"/>
			<v:textRect cx="225.677" cy="579.852" width="451.36" height="12.4539"/>
			<path d="M451.35 573.62 L0 573.62 L0 586.08 L451.35 586.08 L451.35 573.62" class="st3"/>
			<text x="163.84" y="583.9" class="st4" v:langID="1033"><v:paragraph v:horizAlign="1"/><v:tabList/>Project CHIP stack</text>		</g>
		<g id="shape224-127" v:mID="224" v:groupContext="shape" transform="translate(191.325,-439.34)">
			<title>Sheet.224</title>
			<path d="M0 550.96 L0 586.08 L451.55 586.08 L451.55 550.96 L0 550.96 L0 550.96 Z" class="st24"/>
		</g>
		<g id="shape225-129" v:mID="225" v:groupContext="shape" transform="translate(191.325,-450.673)">
			<title>Sheet.225</title>
			<desc>Zephyr integration layer</desc>
			<v:textBlock v:margins="rect(0,0,0,0)" v:tabSpace="42.5197"/>
			<v:textRect cx="225.776" cy="579.852" width="451.56" height="12.4539"/>
			<path d="M451.55 573.62 L0 573.62 L0 586.08 L451.55 586.08 L451.55 573.62" class="st3"/>
			<text x="145.37" y="583.9" class="st4" v:langID="1033"><v:paragraph v:horizAlign="1"/><v:tabList/>Zephyr integration layer</text>		</g>
		<g id="shape227-133" v:mID="227" v:groupContext="shape" transform="translate(932.173,257.39) rotate(90)">
			<title>Sheet.227</title>
			<path d="M65.54 559.64 L0 559.64 L0 586.08 L65.54 586.08 L65.54 559.64 Z" class="st14"/>
		</g>
		<g id="shape229-135" v:mID="229" v:groupContext="shape" transform="translate(282.565,-296.009)">
			<title>Sheet.229</title>
			<desc>SMP</desc>
			<v:textBlock v:margins="rect(4,4,4,4)" v:tabSpace="42.5197"/>
			<v:textRect cx="30.0472" cy="571.78" width="60.1" height="28.5969"/>
			<path d="M60.09 557.48 L0 557.48 L0 586.08 L60.09 586.08 L60.09 557.48 Z" class="st14"/>
			<text x="16.99" y="575.38" class="st15" v:langID="1033"><v:paragraph v:horizAlign="1"/><v:tabList/>SMP</text>		</g>
		<g id="shape231-138" v:mID="231" v:groupContext="shape" transform="translate(539.219,-19)">
			<title>Sheet.231</title>
			<desc>Project CHIP (built with GN)</desc>
			<v:textBlock v:margins="rect(4,4,4,4)" v:tabSpace="42.5197"/>
			<v:textRect cx="55.4533" cy="566.657" width="110.91" height="38.8425"/>
			<path d="M0 586.08 L110.91 586.08 L110.91 547.24 L0 547.24 L0 586.08 Z" class="st24"/>
			<text x="17.91" y="563.06" class="st13" v:langID="1033"><v:paragraph v:horizAlign="1"/><v:tabList/>Project CHIP<v:lf/><tspan
						x="11.49" dy="1.2em" class="st12">(built with GN)</tspan></text>		</g>
		<g id="shape232-142" v:mID="232" v:groupContext="shape" transform="translate(278.61,-19)">
			<title>Sheet.232</title>
			<desc>Third-party</desc>
			<v:textBlock v:margins="rect(0,0,0,0)" v:tabSpace="42.5197"/>
			<v:textRect cx="55.4533" cy="566.657" width="110.91" height="38.8425"/>
			<rect x="0" y="547.236" width="110.907" height="38.8425" class="st22"/>
			<text x="16.32" y="570.86" class="st25" v:langID="1033"><v:paragraph v:horizAlign="1"/><v:tabList/>Third-party</text>		</g>
		<g id="shape233-145" v:mID="233" v:groupContext="shape" transform="translate(407.231,-19)">
			<title>Sheet.233</title>
			<desc>Project CHIP</desc>
			<v:textBlock v:margins="rect(4,4,4,4)" v:tabSpace="42.5197"/>
			<v:textRect cx="55.4533" cy="566.657" width="110.91" height="38.8425"/>
			<rect x="0" y="547.236" width="110.907" height="38.8425" class="st26"/>
			<text x="5.4" y="571.46" class="st27" v:langID="1033"><v:paragraph v:horizAlign="1"/><v:tabList/>Project CHIP</text>		</g>
		<g id="shape234-148" v:mID="234" v:groupContext="shape" transform="translate(148.305,-19)">
			<title>Sheet.234</title>
			<desc>Zephyr</desc>
			<v:textBlock v:margins="rect(0,0,0,0)" v:tabSpace="42.5197"/>
			<v:textRect cx="55.4533" cy="566.657" width="110.91" height="38.8425"/>
			<rect x="0" y="547.236" width="110.907" height="38.8425" class="st5"/>
			<text x="30.72" y="570.86" class="st25" v:langID="1033"><v:paragraph v:horizAlign="1"/><v:tabList/>Zephyr</text>		</g>
		<g id="shape235-151" v:mID="235" v:groupContext="shape" transform="translate(18,-19)">
			<title>Sheet.235</title>
			<desc>nRF Connect SDK</desc>
			<v:textBlock v:margins="rect(4,4,4,4)" v:tabSpace="42.5197"/>
			<v:textRect cx="55.4533" cy="566.657" width="110.91" height="38.8425"/>
			<rect x="0" y="547.236" width="110.907" height="38.8425" class="st2"/>
			<text x="10.26" y="562.46" class="st9" v:langID="1033"><v:paragraph v:horizAlign="1"/><v:tabList/>nRF Connect <tspan
						x="40.49" dy="1.2em" class="st12">SDK</tspan></text>		</g>
	</g>
</svg>
