<?xml version="1.0" encoding="UTF-8" standalone="no"?>
<!DOCTYPE svg PUBLIC "-//W3C//DTD SVG 1.1//EN" "http://www.w3.org/Graphics/SVG/1.1/DTD/svg11.dtd">
<!-- Generated by Microsoft Visio, SVG Export chip_nrfconnect_overview_simplified_ncs.svg Page-1 -->
<svg xmlns="http://www.w3.org/2000/svg" xmlns:xlink="http://www.w3.org/1999/xlink" xmlns:ev="http://www.w3.org/2001/xml-events"
		width="9.29832in" height="8.13998in" viewBox="0 0 669.479 586.079" xml:space="preserve" color-interpolation-filters="sRGB"
		class="st27">
	<style type="text/css">
	<![CDATA[
		.st1 {fill:#0077c8;fill-opacity:0;stroke:#000000;stroke-linecap:round;stroke-linejoin:round;stroke-width:0.75}
		.st2 {fill:#6ad1e3;stroke:none;stroke-linecap:round;stroke-linejoin:round;stroke-width:0.75}
		.st3 {stroke:none;stroke-linecap:round;stroke-linejoin:round;stroke-width:0.75}
		.st4 {fill:#000000;font-family:Gotham Light;font-size:1.12521em}
		.st5 {fill:#0033a0;stroke:none;stroke-width:1}
		.st6 {fill:#ffffff;font-family:Gotham Light;font-size:1.29833em}
		.st7 {fill:#6ad1e3;stroke:none;stroke-width:1}
		.st8 {fill:#000000;font-family:Gotham Light;font-size:0.833336em}
		.st9 {font-size:1em}
		.st10 {fill:#4c5662;stroke:none;stroke-width:1}
		.st11 {fill:#ffffff;font-family:Gotham Light;font-size:1.00001em}
		.st12 {fill:#000000;font-family:Gotham Light;font-size:1.00001em}
		.st13 {fill:#d9e1e2;stroke:#feffff;stroke-width:1}
		.st14 {fill:#6ad1e3;stroke:#feffff;stroke-width:1}
		.st15 {fill:#00a9ce;stroke:none;stroke-linecap:round;stroke-linejoin:round;stroke-width:0.75}
		.st16 {fill:#4c5662;stroke:#feffff;stroke-width:1}
		.st17 {fill:#d9e1e2;stroke:none;stroke-linecap:round;stroke-linejoin:round;stroke-width:0.75}
		.st18 {fill:#000000;font-family:Gotham Light;font-size:0.916672em}
		.st19 {fill:#0033a0;stroke:#feffff;stroke-width:1}
		.st20 {fill:#6b9ef4;fill-opacity:0.58;stroke:#000000;stroke-dasharray:1.5,3;stroke-linecap:round;stroke-linejoin:round;stroke-opacity:0.95;stroke-width:1.5}
		.st21 {fill:#6b9ef4;fill-opacity:0.58;stroke:#000000;stroke-dasharray:1.5,3;stroke-linecap:round;stroke-linejoin:round;stroke-width:1.5}
		.st22 {fill:#ffffff;font-family:Gotham Light;font-size:1.16666em}
		.st23 {fill:#6b9ef4;fill-opacity:0.58;stroke:none;stroke-linecap:round;stroke-linejoin:round;stroke-width:0.75}
		.st24 {fill:#000000;font-family:Gotham Light;font-size:1.33333em}
		.st25 {fill:#000000;font-family:Gotham Light;font-size:1.16666em}
		.st26 {fill:#768692;stroke:none;stroke-linecap:round;stroke-linejoin:round;stroke-width:0.75}
		.st27 {fill:none;fill-rule:evenodd;font-size:12px;overflow:visible;stroke-linecap:square;stroke-miterlimit:3}
	]]>
	</style>

	<g>
		<title>Page-1</title>
		<g id="shape55-1" transform="translate(18,-72.0158)">
			<title>Sheet.55</title>
			<path d="M633.48 90.02 L0 90.02 L0 586.08 L633.48 586.08 L633.48 90.02 Z" class="st1"/>
		</g>
		<g id="shape59-3" transform="translate(191.524,-521.621)">
			<title>Sheet.59</title>
			<path d="M0 550.96 L0 586.08 L451.55 586.08 L451.55 550.96 L0 550.96 L0 550.96 Z" class="st2"/>
		</g>
		<g id="shape60-5" transform="translate(191.524,-532.954)">
			<title>Sheet.60</title>
			<desc>User application</desc>
			<path d="M451.35 573.62 L0 573.62 L0 586.08 L451.35 586.08 L451.35 573.62" class="st3"/>
			<text x="171.8" y="583.9" class="st4">User application</text>		</g>
		<g id="shape67-9" transform="translate(388.913,-196.74)">
			<title>Sheet.67</title>
			<path d="M0 433.88 L0 586.08 L254.31 586.08 L254.31 433.88 L0 433.88 L0 433.88 Z" class="st5"/>
		</g>
		<g id="shape71-11" transform="translate(389.35,-196.74)">
			<title>Sheet.71</title>
			<desc>Thread stack (OpenThread)</desc>
			<path d="M253.87 433.88 L0 433.88 L0 586.08 L253.87 586.08 L253.87 433.88" class="st3"/>
			<text x="20.16" y="514.65" class="st6">Thread stack (OpenThread)</text>		</g>
		<g id="shape108-15" transform="translate(342.145,-77.6851)">
			<title>Sheet.108</title>
			<rect x="0" y="554.34" width="166.205" height="31.7385" class="st7"/>
		</g>
		<g id="shape107-17" transform="translate(342.145,-77.6851)">
			<title>Sheet.107</title>
			<desc>Secure boot</desc>
			<text x="16.8" y="567.21" class="st8">Multiprotocol Service Layer <tspan x="66.29" dy="1.2em" class="st9">(MPSL)</tspan></text>		</g>
		<g id="shape188-20" transform="translate(472.146,-155.638)">
			<title>Sheet.188</title>
			<rect x="0" y="550.646" width="171" height="35.4331" class="st10"/>
		</g>
		<g id="shape187-22" transform="translate(472.146,-155.638)">
			<title>Sheet.187</title>
			<desc>Secure boot</desc>
			<text x="26.77" y="571.96" class="st11">Zephyr integration</text>		</g>
		<g id="shape100-24" transform="translate(472.146,-113.425)">
			<title>Sheet.100</title>
			<path d="M171 549.23 L0 549.23 L0 586.08 L171 586.08 L171 549.23 Z" class="st2"/>
		</g>
		<g id="shape102-26" transform="translate(472.146,-112.591)">
			<title>Sheet.102</title>
			<desc>nRF IEEE 802.15.4 radio driver</desc>
			<path d="M169.08 549.23 L0 549.23 L0 586.08 L169.08 586.08 L169.08 549.23" class="st3"/>
			<text x="31.32" y="564.05" class="st12">nRF IEEE 802.15.4 <tspan x="50.35" dy="1.2em" class="st9">radio driver</tspan></text>		</g>
		<g id="shape189-31" transform="translate(388.913,-354.317)">
			<title>Sheet.189</title>
			<path d="M0 506.71 L0 586.08 L253.88 586.08 L253.88 506.71 L0 506.71 L0 506.71 Z" class="st10"/>
		</g>
		<g id="shape190-33" transform="translate(389.342,-412.173)">
			<title>Sheet.190</title>
			<desc>Zephyr network layer</desc>
			<path d="M253.88 566.28 L0 566.28 L0 586.08 L253.88 586.08 L253.88 566.28" class="st3"/>
			<text x="44.47" y="580.85" class="st6">Zephyr network layer</text>		</g>
		<g id="shape191-37" transform="translate(396,-388.386)">
			<title>Sheet.191</title>
			<path d="M119.01 563.4 L0 563.4 L0 586.08 L119.01 586.08 L119.01 563.4 Z" class="st13"/>
		</g>
		<g id="shape192-39" transform="translate(396,-388.386)">
			<title>Sheet.192</title>
			<desc>UDP</desc>
			<path d="M119.01 563.4 L0 563.4 L0 586.08 L119.01 586.08 L119.01 563.4" class="st3"/>
			<text x="46.24" y="578.34" class="st12">UDP</text>		</g>
		<g id="shape193-43" transform="translate(520.676,-388.386)">
			<title>Sheet.193</title>
			<path d="M115.14 563.15 L0 563.15 L0 586.08 L115.14 586.08 L115.14 563.15 Z" class="st13"/>
		</g>
		<g id="shape194-45" transform="translate(520.676,-388.636)">
			<title>Sheet.194</title>
			<desc>TCP</desc>
			<path d="M115.14 563.4 L0 563.4 L0 586.08 L115.14 586.08 L115.14 563.4" class="st3"/>
			<text x="45.27" y="578.34" class="st12">TCP</text>		</g>
		<g id="shape195-49" transform="translate(396,-360.039)">
			<title>Sheet.195</title>
			<path d="M239.53 563.4 L0 563.4 L0 586.08 L239.53 586.08 L239.53 563.4 Z" class="st13"/>
		</g>
		<g id="shape196-51" transform="translate(396,-360.039)">
			<title>Sheet.196</title>
			<desc>IPv6</desc>
			<path d="M239.53 563.4 L0 563.4 L0 586.08 L239.53 586.08 L239.53 563.4" class="st3"/>
			<text x="106.77" y="578.34" class="st12">IPv6</text>		</g>
		<g id="shape197-55" transform="translate(25.6816,-113.425)">
			<title>Sheet.197</title>
			<desc>Drivers and modules</desc>
			<rect x="0" y="463.929" width="160.385" height="122.15" class="st14"/>
			<text x="19.41" y="480.4" class="st12">Drivers and modules</text>		</g>
		<g id="shape206-58" transform="translate(107.177,-125.614)">
			<title>Sheet.206</title>
			<desc>Crypto backends</desc>
			<path d="M70.95 549.23 L0 549.23 L0 586.08 L70.95 586.08 L70.95 549.23 Z" class="st15"/>
			<text x="14.89" y="564.05" class="st12">Crypto <tspan x="7.16" dy="1.2em" class="st9">backends</tspan></text>		</g>
		<g id="shape209-62" transform="translate(32.1446,-125.614)">
			<title>Sheet.209</title>
			<desc>NFC</desc>
			<path d="M70.95 549.23 L0 549.23 L0 586.08 L70.95 586.08 L70.95 549.23 Z" class="st15"/>
			<text x="22.34" y="571.25" class="st12">NFC</text>		</g>
		<g id="shape210-65" transform="translate(32.1446,-168.134)">
			<title>Sheet.210</title>
			<desc>DFU</desc>
			<path d="M70.95 549.23 L0 549.23 L0 586.08 L70.95 586.08 L70.95 549.23 Z" class="st15"/>
			<text x="22.29" y="571.25" class="st12">DFU</text>		</g>
		<g id="shape211-68" transform="translate(107.177,-168.134)">
			<title>Sheet.211</title>
			<desc>Partition Manager</desc>
			<path d="M70.95 549.23 L0 549.23 L0 586.08 L70.95 586.08 L70.95 549.23 Z" class="st15"/>
			<text x="10.32" y="564.05" class="st12">Partition <tspan x="9.84" dy="1.2em" class="st9">Manager</tspan></text>		</g>
		<g id="shape212-72" transform="translate(25.6816,-240.11)">
			<title>Sheet.212</title>
			<desc>Zephyr APIs</desc>
			<rect x="0" y="499.055" width="160.385" height="87.0236" class="st16"/>
			<text x="43.82" y="515.52" class="st11">Zephyr APIs</text>		</g>
		<g id="shape213-75" transform="translate(107.177,-249.488)">
			<title>Sheet.213</title>
			<desc>Driver API</desc>
			<path d="M70.95 537.89 L0 537.89 L0 586.08 L70.95 586.08 L70.95 537.89 Z" class="st17"/>
			<text x="5.3" y="565.58" class="st12">Driver API</text>		</g>
		<g id="shape214-78" transform="translate(32.1446,-249.488)">
			<title>Sheet.214</title>
			<desc>Crypto API</desc>
			<path d="M70.95 537.89 L0 537.89 L0 586.08 L70.95 586.08 L70.95 537.89 Z" class="st17"/>
			<text x="5.43" y="565.28" class="st18">Crypto API</text>		</g>
		<g id="shape217-81" transform="translate(25.6816,-331.78)">
			<title>Sheet.217</title>
			<desc>Zephyr RTOS kernel</desc>
			<rect x="0" y="539.394" width="160.385" height="46.6845" class="st16"/>
			<text x="20.35" y="566.34" class="st11">Zephyr RTOS kernel</text>		</g>
		<g id="shape220-84" transform="translate(25.6816,-383.827)">
			<title>Sheet.220</title>
			<desc>MCU bootloader</desc>
			<rect x="0" y="537.465" width="76.1958" height="48.6142" class="st19"/>
			<text x="23.87" y="558.17" class="st11">MCU <tspan x="5.42" dy="1.2em" class="st9">bootloader</tspan></text>		</g>
		<g id="shape221-88" transform="translate(106.696,-383.827)">
			<title>Sheet.221</title>
			<desc>mbedTLS</desc>
			<rect x="0" y="537.465" width="79.3701" height="48.6142" class="st19"/>
			<text x="11.23" y="565.37" class="st11">mbedTLS</text>		</g>
		<g id="shape222-91" transform="translate(191.325,-480.481)">
			<title>Sheet.222</title>
			<path d="M0 550.96 L0 586.08 L451.55 586.08 L451.55 550.96 L0 550.96 L0 550.96 Z" class="st20"/>
		</g>
		<g id="shape223-93" transform="translate(191.524,-491.813)">
			<title>Sheet.223</title>
			<desc>Project CHIP stack</desc>
			<path d="M451.35 573.62 L0 573.62 L0 586.08 L451.35 586.08 L451.35 573.62" class="st3"/>
			<text x="163.84" y="583.9" class="st4">Project CHIP stack</text>		</g>
		<g id="shape224-97" transform="translate(191.325,-439.34)">
			<title>Sheet.224</title>
			<path d="M0 550.96 L0 586.08 L451.55 586.08 L451.55 550.96 L0 550.96 L0 550.96 Z" class="st21"/>
		</g>
		<g id="shape225-99" transform="translate(191.325,-450.673)">
			<title>Sheet.225</title>
			<desc>Zephyr integration layer</desc>
			<path d="M451.55 573.62 L0 573.62 L0 586.08 L451.55 586.08 L451.55 573.62" class="st3"/>
			<text x="145.37" y="583.9" class="st4">Zephyr integration layer</text>		</g>
		<g id="shape231-103" transform="translate(539.219,-19)">
			<title>Sheet.231</title>
			<desc>Project CHIP (built with GN)</desc>
			<path d="M0 586.08 L110.91 586.08 L110.91 547.24 L0 547.24 L0 586.08 Z" class="st21"/>
			<text x="17.91" y="563.06" class="st12">Project CHIP<tspan x="11.49" dy="1.2em" class="st9">(built with GN)</tspan></text>		</g>
		<g id="shape232-107" transform="translate(278.61,-19)">
			<title>Sheet.232</title>
			<desc>Third-party</desc>
			<rect x="0" y="547.236" width="110.907" height="38.8425" class="st19"/>
			<text x="16.32" y="570.86" class="st22">Third-party</text>		</g>
		<g id="shape233-110" transform="translate(407.231,-19)">
			<title>Sheet.233</title>
			<desc>Project CHIP</desc>
			<rect x="0" y="547.236" width="110.907" height="38.8425" class="st23"/>
			<text x="5.4" y="571.46" class="st24">Project CHIP</text>		</g>
		<g id="shape234-113" transform="translate(148.305,-19)">
			<title>Sheet.234</title>
			<desc>Zephyr</desc>
			<rect x="0" y="547.236" width="110.907" height="38.8425" class="st10"/>
			<text x="30.72" y="570.86" class="st22">Zephyr</text>		</g>
		<g id="shape235-116" transform="translate(18,-19)">
			<title>Sheet.235</title>
			<desc>nRF Connect SDK</desc>
			<rect x="0" y="547.236" width="110.907" height="38.8425" class="st2"/>
			<text x="10.26" y="562.46" class="st25">nRF Connect <tspan x="40.49" dy="1.2em" class="st9">SDK</tspan></text>		</g>
		<g id="group246-120" transform="translate(191.413,-113.425)">
			<title>Sheet.246</title>
			<g id="group245-121">
				<title>Sheet.245</title>
				<g id="shape236-122">
					<title>Sheet.236</title>
					<path d="M0 265.76 L0 586.08 L192.33 586.08 L192.33 265.76 L0 265.76 L0 265.76 Z" class="st10"/>
				</g>
				<g id="shape237-124" transform="translate(7.41949,-86.1496)">
					<title>Sheet.237</title>
					<desc>Zephyr host</desc>
					<rect x="0" y="376.315" width="178.583" height="209.764" class="st13"/>
					<text x="47.41" y="394.58" class="st25">Zephyr host</text>				</g>
				<g id="shape238-127" transform="translate(7.75178,-11.3386)">
					<title>Sheet.238</title>
					<desc>SoftDevice Controller</desc>
					<rect x="0" y="525.441" width="178.583" height="60.6378" class="st2"/>
					<text x="25.62" y="559.36" class="st12">SoftDevice Controller</text>				</g>
				<g id="shape239-130" transform="translate(14.5061,-104.362)">
					<title>Sheet.239</title>
					<desc>L2CAP</desc>
					<path d="M136.54 537.46 L0 537.46 L0 586.08 L136.54 586.08 L136.54 537.46 Z" class="st26"/>
					<text x="47.84" y="565.37" class="st11">L2CAP</text>				</g>
				<g id="shape240-133" transform="translate(14.2715,-211.866)">
					<title>Sheet.240</title>
					<desc>GATT</desc>
					<path d="M72.28 537.46 L0 537.46 L0 586.08 L72.28 586.08 L72.28 537.46 Z" class="st26"/>
					<text x="19.04" y="565.37" class="st11">GATT</text>				</g>
				<g id="shape241-136" transform="translate(14.5061,-158.22)">
					<title>Sheet.241</title>
					<desc>ATT</desc>
					<path d="M72.28 537.46 L0 537.46 L0 586.08 L72.28 586.08 L72.28 537.46 Z" class="st26"/>
					<text x="23.75" y="565.37" class="st11">ATT</text>				</g>
				<g id="shape242-139" transform="translate(90.925,-211.866)">
					<title>Sheet.242</title>
					<desc>GAP</desc>
					<path d="M90.45 537.46 L0 537.46 L0 586.08 L90.45 586.08 L90.45 537.46 Z" class="st26"/>
					<text x="31.77" y="565.37" class="st11">GAP</text>				</g>
				<g id="shape243-142" transform="translate(741.374,325.598) rotate(90)">
					<title>Sheet.243</title>
					<path d="M155.91 559.89 L0 559.89 L0 586.08 L155.91 586.08 L155.91 559.89 Z" class="st26"/>
				</g>
				<g id="shape244-144" transform="translate(90.9486,-158.22)">
					<title>Sheet.244</title>
					<desc>SMP</desc>
					<path d="M60.09 537.46 L0 537.46 L0 586.08 L60.09 586.08 L60.09 537.46 Z" class="st26"/>
					<text x="16.99" y="565.37" class="st11">SMP</text>				</g>
			</g>
			<g id="shape62-147" transform="translate(0,-298.938)">
				<title>Sheet.62</title>
				<desc>Bluetooth LE stack</desc>
				<path d="M192.33 566.28 L0 566.28 L0 586.08 L192.33 586.08 L192.33 566.28" class="st3"/>
				<text x="23.35" y="580.85" class="st6">Bluetooth LE stack</text>			</g>
		</g>
	</g>
</svg>
