<?xml version="1.0" encoding="UTF-8" standalone="no"?>
<!DOCTYPE svg PUBLIC "-//W3C//DTD SVG 1.1//EN" "http://www.w3.org/Graphics/SVG/1.1/DTD/svg11.dtd">
<!-- Generated by Microsoft Visio, SVG Export conn_time_sync_diagram.svg Page-1 -->
<svg xmlns="http://www.w3.org/2000/svg" xmlns:xlink="http://www.w3.org/1999/xlink" xmlns:ev="http://www.w3.org/2001/xml-events"
		width="7.98834in" height="4.48535in" viewBox="0 0 575.16 322.945" xml:space="preserve" color-interpolation-filters="sRGB"
		class="st20">
	<style type="text/css">
	<![CDATA[
		.st1 {marker-end:url(#mrkr13-6);stroke:#333f48;stroke-linecap:butt;stroke-width:1}
		.st2 {fill:#333f48;fill-opacity:1;stroke:#333f48;stroke-opacity:1;stroke-width:0.28409090909091}
		.st3 {fill:#0033a0;stroke:none;stroke-width:1}
		.st4 {fill:#ffffff;font-family:Arial;font-size:0.833336em}
		.st5 {marker-end:url(#mrkr13-18);marker-start:url(#mrkr13-16);stroke:#008bab;stroke-linecap:butt;stroke-width:1}
		.st6 {fill:#008bab;fill-opacity:1;stroke:#008bab;stroke-opacity:1;stroke-width:0.28409090909091}
		.st7 {stroke:#333f48;stroke-linecap:butt;stroke-width:1}
		.st8 {fill:none;stroke:none;stroke-width:1}
		.st9 {fill:#00a9ce;font-family:Arial;font-size:0.75em}
		.st10 {fill:#333f48;font-family:Arial;font-size:0.75em}
		.st11 {font-size:1em}
		.st12 {fill:none;stroke:#333f48;stroke-dasharray:7,5;stroke-width:1}
		.st13 {fill:#333f48;font-family:Arial;font-size:0.833336em}
		.st14 {fill:#00a9ce;font-family:Arial;font-size:0.833336em}
		.st15 {fill:#ffffff;stroke:none;stroke-linecap:butt;stroke-width:7.2}
		.st16 {fill:#008bab;font-family:Arial;font-size:0.833336em}
		.st17 {fill:#008bab;font-family:Arial;font-size:0.75em}
		.st18 {stroke:#768692;stroke-dasharray:1,2;stroke-linecap:butt;stroke-width:1}
		.st19 {fill:none;stroke:#768692;stroke-width:1}
		.st20 {fill:none;fill-rule:evenodd;font-size:12px;overflow:visible;stroke-linecap:square;stroke-miterlimit:3}
	]]>
	</style>

	<defs id="Markers">
		<g id="lend13">
			<path d="M 3 1 L 0 0 L 3 -1 L 3 1 " style="stroke:none"/>
		</g>
		<marker id="mrkr13-6" class="st2" refX="-10.56" orient="auto" markerUnits="strokeWidth" overflow="visible">
			<use xlink:href="#lend13" transform="scale(-3.52,-3.52) "/>
		</marker>
		<marker id="mrkr13-16" class="st6" refX="10.2" orient="auto" markerUnits="strokeWidth" overflow="visible">
			<use xlink:href="#lend13" transform="scale(3.52) "/>
		</marker>
		<marker id="mrkr13-18" class="st6" refX="-10.56" orient="auto" markerUnits="strokeWidth" overflow="visible">
			<use xlink:href="#lend13" transform="scale(-3.52,-3.52) "/>
		</marker>
	</defs>
	<g>
		<title>Page-1</title>
		<g id="shape269-1" transform="translate(11.2732,-156.849)">
			<title>Sheet.269</title>
			<path d="M0 322.94 L542.2 322.94" class="st1"/>
		</g>
		<g id="shape270-7" transform="translate(30.9533,-156.849)">
			<title>Sheet.270</title>
			<desc>100</desc>
			<rect x="0" y="263.217" width="41.315" height="59.7274" class="st3"/>
			<text x="12.32" y="296.08" class="st4">100</text>		</g>
		<g id="shape271-10" transform="translate(30.9533,-139.841)">
			<title>Sheet.271</title>
			<path d="M10.2 322.94 L10.56 322.94 L98.79 322.94" class="st5"/>
		</g>
		<g id="shape272-19" transform="translate(140.3,-156.849)">
			<title>Sheet.272</title>
			<desc>101</desc>
			<rect x="0" y="263.217" width="41.315" height="59.7274" class="st3"/>
			<text x="12.32" y="296.08" class="st4">101</text>		</g>
		<g id="shape273-22" transform="translate(140.3,-139.841)">
			<title>Sheet.273</title>
			<path d="M10.2 322.94 L10.56 322.94 L98.79 322.94" class="st5"/>
		</g>
		<g id="shape274-29" transform="translate(249.221,-157.049)">
			<title>Sheet.274</title>
			<desc>102</desc>
			<rect x="0" y="263.217" width="41.315" height="59.7274" class="st3"/>
			<text x="12.32" y="296.08" class="st4">102</text>		</g>
		<g id="shape275-32" transform="translate(249.221,-140.041)">
			<title>Sheet.275</title>
			<path d="M10.2 322.94 L10.56 322.94 L98.79 322.94" class="st5"/>
		</g>
		<g id="shape276-39" transform="translate(358.567,-157.049)">
			<title>Sheet.276</title>
			<desc>103</desc>
			<rect x="0" y="263.217" width="41.315" height="59.7274" class="st3"/>
			<text x="12.32" y="296.08" class="st4">103</text>		</g>
		<g id="shape277-42" transform="translate(358.567,-140.041)">
			<title>Sheet.277</title>
			<path d="M10.2 322.94 L10.56 322.94 L98.79 322.94" class="st5"/>
		</g>
		<g id="shape278-49" transform="translate(469.104,-156.666)">
			<title>Sheet.278</title>
			<desc>104</desc>
			<rect x="0" y="263.217" width="41.315" height="59.7274" class="st3"/>
			<text x="12.32" y="296.08" class="st4">104</text>		</g>
		<g id="shape279-52" transform="translate(11.4447,-114.729)">
			<title>Sheet.279</title>
			<path d="M0 322.94 L541.6 322.94" class="st1"/>
		</g>
		<g id="shape280-57" transform="translate(353.898,199.712) rotate(90)">
			<title>Sheet.280</title>
			<path d="M0 322.94 L17.01 322.94" class="st7"/>
		</g>
		<g id="shape281-60" transform="translate(463.245,199.712) rotate(90)">
			<title>Sheet.281</title>
			<path d="M0 322.94 L17.01 322.94" class="st7"/>
		</g>
		<g id="shape282-63" transform="translate(572.753,199.712) rotate(90)">
			<title>Sheet.282</title>
			<path d="M0 322.94 L17.01 322.94" class="st7"/>
		</g>
		<g id="shape283-66" transform="translate(681.512,199.712) rotate(90)">
			<title>Sheet.283</title>
			<path d="M0 322.94 L17.01 322.94" class="st7"/>
		</g>
		<g id="shape284-69" transform="translate(791.588,199.712) rotate(90)">
			<title>Sheet.284</title>
			<path d="M0 322.94 L17.01 322.94" class="st7"/>
		</g>
		<g id="shape285-72" transform="translate(11.0395,-72.2101) rotate(-0.0162663)">
			<title>Sheet.285</title>
			<path d="M0 322.94 L542.34 322.94" class="st1"/>
		</g>
		<g id="shape286-77" transform="translate(355.053,242.231) rotate(90)">
			<title>Sheet.286</title>
			<path d="M0 322.94 L17.01 322.94" class="st7"/>
		</g>
		<g id="shape287-80" transform="translate(464.47,242.231) rotate(90)">
			<title>Sheet.287</title>
			<path d="M0 322.94 L45.38 322.94" class="st7"/>
		</g>
		<g id="shape288-83" transform="translate(572.753,242.231) rotate(90)">
			<title>Sheet.288</title>
			<path d="M0 322.94 L17.01 322.94" class="st7"/>
		</g>
		<g id="shape289-86" transform="translate(679.62,242.231) rotate(90)">
			<title>Sheet.289</title>
			<path d="M0 322.94 L52.47 322.94" class="st7"/>
		</g>
		<g id="shape290-89" transform="translate(793.005,242.231) rotate(90)">
			<title>Sheet.290</title>
			<path d="M0 322.94 L17.01 322.94" class="st7"/>
		</g>
		<g id="shape293-92" transform="translate(231.994,-90.5196)">
			<title>Sheet.293</title>
			<desc>40000</desc>
			<rect x="0" y="307.239" width="35.3041" height="15.7058" class="st8"/>
			<text x="5.14" y="317.79" class="st9">40000</text>		</g>
		<g id="shape295-95" transform="translate(451.452,-90.5195)">
			<title>Sheet.295</title>
			<desc>60000</desc>
			<rect x="0" y="307.239" width="35.3041" height="15.7058" class="st8"/>
			<text x="5.14" y="317.79" class="st9">60000</text>		</g>
		<g id="shape296-98" transform="translate(496.99,-94.7293)">
			<title>Sheet.296</title>
			<desc>Central clock</desc>
			<rect x="0" y="302.945" width="65.1969" height="20" class="st8"/>
			<text x="6.59" y="315.65" class="st10">Central clock</text>		</g>
		<g id="shape297-101" transform="translate(14.4557,-47.9999)">
			<title>Sheet.297</title>
			<desc>50001</desc>
			<rect x="0" y="307.239" width="35.3041" height="15.7058" class="st8"/>
			<text x="5.14" y="317.79" class="st9">50001</text>		</g>
		<g id="shape298-104" transform="translate(123.873,-48.0866)">
			<title>Sheet.298</title>
			<desc>60002</desc>
			<rect x="0" y="307.239" width="35.3041" height="15.7058" class="st8"/>
			<text x="5.14" y="317.79" class="st9">60002</text>		</g>
		<g id="shape299-107" transform="translate(232.157,-47.9999)">
			<title>Sheet.299</title>
			<desc>70000</desc>
			<rect x="0" y="307.239" width="35.3041" height="15.7058" class="st8"/>
			<text x="5.14" y="317.79" class="st9">70000</text>		</g>
		<g id="shape300-110" transform="translate(340.44,-47.9713)">
			<title>Sheet.300</title>
			<desc>79998</desc>
			<rect x="0" y="307.239" width="35.3041" height="15.7058" class="st8"/>
			<text x="5.14" y="317.79" class="st9">79998</text>		</g>
		<g id="shape301-113" transform="translate(452.408,-47.9999)">
			<title>Sheet.301</title>
			<desc>90002</desc>
			<rect x="0" y="307.239" width="35.3041" height="15.7058" class="st8"/>
			<text x="5.14" y="317.79" class="st9">90002</text>		</g>
		<g id="shape302-116" transform="translate(493.292,-43.7057)">
			<title>Sheet.302</title>
			<desc>Peripheral clock</desc>
			<rect x="0" y="294.283" width="70.7372" height="28.6614" class="st8"/>
			<text x="14.86" y="305.91" class="st10">Peripheral <tspan x="25.12" dy="1.2em" class="st11">clock</tspan></text>		</g>
		<g id="shape303-120" transform="translate(117.105,-92.0236)">
			<title>Sheet.303</title>
			<desc>Synchronization information sent from the Central to the Peri...</desc>
			<path d="M0 322.94 L90.8 322.94 L90.8 138.69 L0 138.69 L0 322.94 Z" class="st12"/>
			<text x="4" y="151.69" class="st13">Synchronization <tspan x="4" dy="1.2em" class="st11">i</tspan>nformation sent  <tspan
						x="4" dy="1.2em" class="st11">f</tspan>rom the Central <tspan x="4" dy="1.2em" class="st11">t</tspan>o the Peripheral</text>		</g>
		<g id="shape304-126" transform="translate(119.651,293.283) rotate(-90)">
			<title>Sheet.304</title>
			<path d="M0 322.94 L204.09 322.94" class="st7"/>
		</g>
		<g id="shape305-129" transform="translate(372.265,-233.756)">
			<title>Sheet.305</title>
			<desc>Trigger at central_clock = 57000</desc>
			<rect x="0" y="294.283" width="138.154" height="28.6614" class="st8"/>
			<text x="47.68" y="305.61" class="st14">Trigger at <tspan x="20.29" dy="1.2em" class="st11">central_clock = 57000</tspan></text>		</g>
		<g id="shape306-133" transform="translate(357.242,-35.3307)">
			<title>Sheet.306</title>
			<desc>7000</desc>
			<path d="M10.2 322.94 L10.56 322.94 L74.79 322.94" class="st5"/>
			<rect x="31.5541" y="316.945" width="22.2462" height="12.0001" class="st15"/>
			<text x="31.55" y="325.94" class="st16">7000</text>		</g>
		<g id="shape307-142" transform="translate(142.092,-42.4173)">
			<title>Sheet.307</title>
			<desc>20000</desc>
			<path d="M10.2 322.94 L10.56 322.94 L203.47 322.94" class="st5"/>
			<rect x="94.5019" y="317.545" width="25.0269" height="10.7998" class="st15"/>
			<text x="94.5" y="325.65" class="st17">20000</text>		</g>
		<g id="shape308-151" transform="translate(366.596,-1)">
			<title>Sheet.308</title>
			<desc>Trigger at peripheral_clock = 86998</desc>
			<rect x="0" y="294.283" width="152" height="28.6614" class="st8"/>
			<text x="54.6" y="305.61" class="st14">Trigger at <tspan x="19.99" dy="1.2em" class="st11">peripheral_clock = 86998</tspan></text>		</g>
		<g id="shape324-155" transform="translate(142.659,-6.66929)">
			<title>Sheet.324</title>
			<desc>2x connection interval [(103 – 101) * conn_interval]</desc>
			<rect x="0" y="294.283" width="215.908" height="28.6614" class="st8"/>
			<text x="64.43" y="305.91" class="st10">2x connection interval <tspan x="51.42" dy="1.2em" class="st11">[(103 </tspan>–<tspan
						dx="3.224em" class="st11">conn_interval]</tspan></text>		</g>
		<g id="shape327-160" transform="translate(-290.837,242.231) rotate(-90)">
			<title>Sheet.327</title>
			<path d="M0 322.94 L42.49 322.94" class="st18"/>
		</g>
		<g id="shape291-163" transform="translate(13.3012,-90.5196)">
			<title>Sheet.291</title>
			<desc>20000</desc>
			<rect x="0" y="307.239" width="35.3041" height="15.7058" class="st8"/>
			<text x="5.14" y="317.79" class="st9">20000</text>		</g>
		<g id="shape329-166" transform="translate(-181.42,242.231) rotate(-90)">
			<title>Sheet.329</title>
			<path d="M0 322.94 L42.49 322.94" class="st18"/>
		</g>
		<g id="shape292-169" transform="translate(122.816,-90.5196)">
			<title>Sheet.292</title>
			<desc>30000</desc>
			<rect x="0" y="307.239" width="35.3041" height="15.7058" class="st8"/>
			<text x="5.14" y="317.79" class="st9">30000</text>		</g>
		<g id="shape330-172" transform="translate(522.714,-137.092)">
			<title>Sheet.330</title>
			<desc>On air</desc>
			<rect x="0" y="302.945" width="41.315" height="20" class="st8"/>
			<text x="8.4" y="315.65" class="st10">On air</text>		</g>
		<g id="shape331-175" transform="translate(33.7299,242.231) rotate(-90)">
			<title>Sheet.331</title>
			<path d="M0 322.94 L42.49 322.94" class="st18"/>
		</g>
		<g id="shape294-178" transform="translate(340.915,-90.5195)">
			<title>Sheet.294</title>
			<desc>50000</desc>
			<rect x="0" y="307.239" width="35.3041" height="15.7058" class="st8"/>
			<text x="5.14" y="317.79" class="st9">50000</text>		</g>
		<g id="shape332-181" transform="translate(147.116,242.231) rotate(-90)">
			<title>Sheet.332</title>
			<path d="M0 322.94 L42.49 322.94" class="st18"/>
		</g>
		<g id="group333-184" transform="translate(57.6196,-293.283)">
			<title>Sheet.333</title>
			<g id="shape310-185">
				<title>Nordic Light Grey.2333</title>
				<rect x="0" y="294.283" width="453.821" height="28.6614" class="st19"/>
			</g>
			<g id="shape311-187" transform="translate(5.39058,-6.11617)">
				<title>Nordic Blue.1617</title>
				<rect x="0" y="307.239" width="17.0333" height="15.7058" class="st3"/>
			</g>
			<g id="shape312-189" transform="translate(22.4239,-6.11617)">
				<title>Sheet.312</title>
				<desc>Connection event (number)</desc>
				<rect x="0" y="307.239" width="130.195" height="15.7058" class="st8"/>
				<text x="4" y="318.09" class="st13">Connection event (number)</text>			</g>
			<g id="shape321-192" transform="translate(186.482,-6.11617)">
				<title>Sheet.321</title>
				<desc>Connection interval</desc>
				<rect x="0" y="307.239" width="152" height="15.7058" class="st8"/>
				<text x="4" y="318.09" class="st13">Connection interval</text>			</g>
			<g id="shape322-195" transform="translate(158.136,-13.9691)">
				<title>Sheet.322</title>
				<path d="M10.2 322.94 L10.56 322.94 L17.79 322.94" class="st5"/>
			</g>
			<g id="shape326-202" transform="translate(283.994,-14.7354)">
				<title>Sheet.326</title>
				<path d="M0 322.94 L21.26 322.94" class="st18"/>
			</g>
			<g id="shape328-205" transform="translate(308.907,-6.11617)">
				<title>Sheet.328</title>
				<desc>Potential clock drift indicator</desc>
				<rect x="0" y="307.239" width="138.154" height="15.7058" class="st8"/>
				<text x="4" y="318.09" class="st13">Potential clock drift indicator</text>			</g>
		</g>
	</g>
</svg>
