<?xml version="1.0" encoding="UTF-8" standalone="no"?>
<!DOCTYPE svg PUBLIC "-//W3C//DTD SVG 1.1//EN" "http://www.w3.org/Graphics/SVG/1.1/DTD/svg11.dtd">
<!-- Generated by Microsoft Visio, SVG Export data_storage_psa_tfm.svg Page-1 -->
<svg xmlns="http://www.w3.org/2000/svg" xmlns:xlink="http://www.w3.org/1999/xlink" xmlns:ev="http://www.w3.org/2001/xml-events"
		width="6.0625in" height="6.11959in" viewBox="0 0 436.5 440.611" xml:space="preserve" color-interpolation-filters="sRGB"
		class="st21">
	<style type="text/css">
	<![CDATA[
		.st1 {marker-end:url(#mrkr5-6);stroke:#d9e1e2;stroke-linecap:butt;stroke-width:1}
		.st2 {fill:#d9e1e2;fill-opacity:1;stroke:#d9e1e2;stroke-opacity:1;stroke-width:0.28409090909091}
		.st3 {fill:none;stroke:#333f48;stroke-width:1.5}
		.st4 {fill:#0033a0;stroke:none;stroke-width:1}
		.st5 {fill:none;stroke:none;stroke-width:1}
		.st6 {fill:#333f48;font-family:Arial;font-size:0.916672em}
		.st7 {fill:#00a9ce;stroke:none;stroke-width:1}
		.st8 {fill:#d9e1e2;stroke:none;stroke-width:1}
		.st9 {marker-end:url(#mrkr5-32);stroke:#008bab;stroke-linecap:butt;stroke-width:1}
		.st10 {fill:#008bab;fill-opacity:1;stroke:#008bab;stroke-opacity:1;stroke-width:0.28409090909091}
		.st11 {fill:#d9e1e2;stroke:none;stroke-linecap:butt;stroke-width:0.75}
		.st12 {fill:#768692;font-family:Arial;font-size:1.00001em}
		.st13 {fill:#0033a0;stroke:none;stroke-linecap:butt;stroke-width:0.75}
		.st14 {fill:#f2f2f2;font-family:Arial;font-size:1.00001em}
		.st15 {font-size:1em}
		.st16 {stroke:#d9e1e2;stroke-linecap:butt;stroke-width:1}
		.st17 {fill:none;stroke:#d9e1e2;stroke-width:1}
		.st18 {fill:#00a9ce;stroke:none;stroke-linecap:butt;stroke-width:0.75}
		.st19 {marker-end:url(#mrkr5-69);stroke:#00a9ce;stroke-linecap:butt;stroke-width:1}
		.st20 {fill:#00a9ce;fill-opacity:1;stroke:#00a9ce;stroke-opacity:1;stroke-width:0.28409090909091}
		.st21 {fill:none;fill-rule:evenodd;font-size:12px;overflow:visible;stroke-linecap:square;stroke-miterlimit:3}
	]]>
	</style>

	<defs id="Markers">
		<g id="lend5">
			<path d="M 2 1 L 0 0 L 1.98117 -0.993387 C 1.67173 -0.364515 1.67301 0.372641 1.98465 1.00043 " style="stroke:none"/>
		</g>
		<marker id="mrkr5-6" class="st2" refX="-6.16" orient="auto" markerUnits="strokeWidth" overflow="visible">
			<use xlink:href="#lend5" transform="scale(-3.52,-3.52) "/>
		</marker>
		<marker id="mrkr5-32" class="st10" refX="-6.16" orient="auto" markerUnits="strokeWidth" overflow="visible">
			<use xlink:href="#lend5" transform="scale(-3.52,-3.52) "/>
		</marker>
		<marker id="mrkr5-69" class="st20" refX="-6.16" orient="auto" markerUnits="strokeWidth" overflow="visible">
			<use xlink:href="#lend5" transform="scale(-3.52,-3.52) "/>
		</marker>
	</defs>
	<g>
		<title>Page-1</title>
		<g id="shape399-1" transform="translate(225.337,-391.111)">
			<title>Dynamic connector.399</title>
			<path d="M-7.09 440.61 L-7.09 456.57" class="st1"/>
		</g>
		<g id="shape400-7" transform="translate(75.1061,-1.5)">
			<title>Sheet.400</title>
			<rect x="0" y="374.043" width="292.193" height="66.5675" class="st3"/>
		</g>
		<g id="shape401-9" transform="translate(86.4447,-42.3667)">
			<title>Nordic Red.401</title>
			<rect x="0" y="422.034" width="17.3286" height="18.5764" class="st4"/>
		</g>
		<g id="shape402-11" transform="translate(103.773,-41.025)">
			<title>Sheet.402</title>
			<desc>Persistent memory</desc>
			<rect x="0" y="420.693" width="117.317" height="19.9181" class="st5"/>
			<text x="4" y="433.95" class="st6">Persistent memory</text>		</g>
		<g id="shape403-14" transform="translate(232.654,-40.7793)">
			<title>Nordic Red.403</title>
			<rect x="0" y="422.034" width="17.3286" height="18.5764" class="st7"/>
		</g>
		<g id="shape404-16" transform="translate(232.848,-14.4833)">
			<title>Nordic Red.404</title>
			<rect x="0" y="422.034" width="17.3286" height="18.5764" class="st8"/>
		</g>
		<g id="shape405-18" transform="translate(249.982,-39.6455)">
			<title>Sheet.405</title>
			<desc>Subsystem in use</desc>
			<rect x="0" y="420.693" width="117.317" height="19.9181" class="st5"/>
			<text x="4" y="433.95" class="st6">Subsystem in use</text>		</g>
		<g id="shape406-21" transform="translate(250.176,-13.8124)">
			<title>Sheet.406</title>
			<desc>Subsystem not in use</desc>
			<rect x="0" y="420.693" width="117.123" height="19.9181" class="st5"/>
			<text x="4" y="433.95" class="st6">Subsystem not in use</text>		</g>
		<g id="shape407-24" transform="translate(104.012,-13.1415)">
			<title>Sheet.407</title>
			<desc>API calls</desc>
			<rect x="0" y="420.693" width="117.317" height="19.9181" class="st5"/>
			<text x="4" y="433.95" class="st6">API calls</text>		</g>
		<g id="shape408-27" transform="translate(87.6941,-16.5809)">
			<title>Dynamic connector.408</title>
			<path d="M0 433.52 L9.71 433.52" class="st9"/>
		</g>
		<g id="shape409-33" transform="translate(150.75,-320.245)">
			<title>Sheet.409</title>
			<desc>Settings</desc>
			<rect x="0" y="391.861" width="135" height="48.75" class="st11"/>
			<text x="45.82" y="419.93" class="st12">Settings</text>		</g>
		<g id="shape410-36" transform="translate(0.75,-238.495)">
			<title>Sheet.410</title>
			<desc>File System</desc>
			<rect x="0" y="391.861" width="135" height="48.75" class="st11"/>
			<text x="36.16" y="419.84" class="st12">File System</text>		</g>
		<g id="shape411-39" transform="translate(150.75,-104.217)">
			<title>Sheet.411</title>
			<desc>Non-volatile memory</desc>
			<rect x="0" y="391.861" width="135" height="48.75" class="st13"/>
			<text x="35.82" y="412.64" class="st14">Non-volatile <tspan x="45.83" dy="1.2em" class="st15">memory</tspan></text>		</g>
		<g id="shape412-43" transform="translate(216.679,-313.152)">
			<title>Dynamic connector.412</title>
			<path d="M0 440.61 L-148.43 440.61 L-148.43 460.36" class="st1"/>
		</g>
		<g id="shape413-48" transform="translate(68.25,-238.495)">
			<title>Dynamic connector.413</title>
			<path d="M0 440.61 L0 483.37 L76.34 483.37" class="st1"/>
		</g>
		<g id="shape414-53" transform="translate(211.178,-324.578)">
			<title>Dynamic connector.414</title>
			<path d="M7.09 444.94 L7.09 450.45" class="st16"/>
		</g>
		<g id="shape415-56" transform="translate(216.679,-311.566)">
			<title>Nordic Blue.415</title>
			<rect x="0" y="437.439" width="3.17145" height="3.17145" class="st17"/>
		</g>
		<g id="shape417-58" transform="translate(150.75,-238.495)">
			<title>Sheet.417</title>
			<desc>NVS</desc>
			<rect x="0" y="391.861" width="135" height="48.75" class="st11"/>
			<text x="55.16" y="419.84" class="st12">NVS</text>		</g>
		<g id="shape418-61" transform="translate(150.75,-171.356)">
			<title>Sheet.418</title>
			<desc>NVMC or RRAMC</desc>
			<rect x="0" y="391.861" width="135" height="48.75" class="st18"/>
			<text x="19.17" y="419.84" class="st14">NVMC or RRAMC</text>		</g>
		<g id="shape419-64" transform="translate(211.163,-171.356)">
			<title>Dynamic connector.419</title>
			<path d="M7.09 440.61 L7.09 452.84" class="st19"/>
		</g>
		<g id="shape420-70" transform="translate(150.75,-391.111)">
			<title>Sheet.420</title>
			<desc>PSA Protected Storage</desc>
			<rect x="0" y="391.861" width="135" height="48.75" class="st18"/>
			<text x="5.46" y="419.84" class="st14">PSA Protected Storage</text>		</g>
		<g id="shape421-73" transform="translate(278.663,-415.486)">
			<title>Dynamic connector.421</title>
			<path d="M7.09 440.61 L19.46 440.61 L19.46 646.64 L13.25 646.64" class="st19"/>
		</g>
		<g id="shape426-78" transform="translate(211.163,-238.495)">
			<title>Dynamic connector.426</title>
			<path d="M7.09 440.61 L7.09 452.84" class="st1"/>
		</g>
		<g id="shape427-83" transform="translate(300.75,-238.495)">
			<title>Sheet.427</title>
			<desc>ZMS</desc>
			<rect x="0" y="391.861" width="135" height="48.75" class="st11"/>
			<text x="54.83" y="419.84" class="st12">ZMS</text>		</g>
		<g id="shape429-86" transform="translate(368.25,-238.495)">
			<title>Dynamic connector.429</title>
			<path d="M0 440.61 L0 483.37 L-76.34 483.37" class="st1"/>
		</g>
		<g id="shape431-91" transform="translate(225.344,-311.566)">
			<title>Dynamic connector.431</title>
			<path d="M-7.08 440.61 L-7.09 458.77" class="st1"/>
		</g>
		<g id="shape432-96" transform="translate(219.85,-313.152)">
			<title>Dynamic connector.432</title>
			<path d="M0 440.61 L75.91 440.61 A2.3622 2.3622 0 0 1 80.63 440.61 L148.4 440.61 L148.4 460.36" class="st1"/>
		</g>
	</g>
</svg>
