<?xml version="1.0" encoding="UTF-8" standalone="no"?>
<!DOCTYPE svg PUBLIC "-//W3C//DTD SVG 1.1//EN" "http://www.w3.org/Graphics/SVG/1.1/DTD/svg11.dtd">
<!-- Generated by Microsoft Visio, SVG Export data_storage_settings.svg Page-1 -->
<svg xmlns="http://www.w3.org/2000/svg" xmlns:xlink="http://www.w3.org/1999/xlink" xmlns:ev="http://www.w3.org/2001/xml-events"
		width="3.97917in" height="3.69831in" viewBox="0 0 286.5 266.278" xml:space="preserve" color-interpolation-filters="sRGB"
		class="st9">
	<style type="text/css">
	<![CDATA[
		.st1 {fill:#00a9ce;stroke:none;stroke-linecap:butt;stroke-width:0.75}
		.st2 {fill:#f2f2f2;font-family:Arial;font-size:1.00001em}
		.st3 {fill:#0033a0;stroke:none;stroke-linecap:butt;stroke-width:0.75}
		.st4 {font-size:1em}
		.st5 {marker-end:url(#mrkr5-22);stroke:#00a9ce;stroke-linecap:butt;stroke-width:1}
		.st6 {fill:#00a9ce;fill-opacity:1;stroke:#00a9ce;stroke-opacity:1;stroke-width:0.28409090909091}
		.st7 {stroke:#00a9ce;stroke-linecap:butt;stroke-width:1}
		.st8 {fill:none;stroke:#00a9ce;stroke-width:1}
		.st9 {fill:none;fill-rule:evenodd;font-size:12px;overflow:visible;stroke-linecap:square;stroke-miterlimit:3}
	]]>
	</style>

	<defs id="Markers">
		<g id="lend5">
			<path d="M 2 1 L 0 0 L 1.98117 -0.993387 C 1.67173 -0.364515 1.67301 0.372641 1.98465 1.00043 " style="stroke:none"/>
		</g>
		<marker id="mrkr5-22" class="st6" refX="-6.16" orient="auto" markerUnits="strokeWidth" overflow="visible">
			<use xlink:href="#lend5" transform="scale(-3.52,-3.52) "/>
		</marker>
	</defs>
	<g>
		<title>Page-1</title>
		<g id="shape8-1" transform="translate(150.75,-216.778)">
			<title>Sheet.8</title>
			<desc>Settings</desc>
			<rect x="0" y="217.528" width="135" height="48.75" class="st1"/>
			<text x="45.82" y="245.6" class="st2">Settings</text>		</g>
		<g id="shape11-4" transform="translate(0.75,-135.028)">
			<title>Sheet.11</title>
			<desc>File System</desc>
			<rect x="0" y="217.528" width="135" height="48.75" class="st1"/>
			<text x="36.16" y="245.6" class="st2">File System</text>		</g>
		<g id="shape14-7" transform="translate(150.75,-135.028)">
			<title>Sheet.14</title>
			<desc>NVS</desc>
			<rect x="0" y="217.528" width="135" height="48.75" class="st1"/>
			<text x="55.16" y="245.5" class="st2">NVS</text>		</g>
		<g id="shape17-10" transform="translate(150.75,-67.889)">
			<title>Sheet.17</title>
			<desc>NVMC</desc>
			<rect x="0" y="217.528" width="135" height="48.75" class="st1"/>
			<text x="49.83" y="245.5" class="st2">NVMC</text>		</g>
		<g id="shape20-13" transform="translate(150.75,-0.75)">
			<title>Sheet.20</title>
			<desc>Non-volatile memory</desc>
			<rect x="0" y="217.528" width="135" height="48.75" class="st3"/>
			<text x="35.82" y="238.3" class="st2">Non-volatile <tspan x="45.83" dy="1.2em" class="st4">memory</tspan></text>		</g>
		<g id="shape49-17" transform="translate(216.679,-203.753)">
			<title>Dynamic connector</title>
			<path d="M0 266.28 L-148.43 266.28 L-148.43 280.09" class="st5"/>
		</g>
		<g id="shape50-23" transform="translate(68.25,-135.028)">
			<title>Dynamic connector.50</title>
			<path d="M0 266.28 L0 309.04 L76.34 309.04" class="st5"/>
		</g>
		<g id="shape51-28" transform="translate(211.178,-218.145)">
			<title>Dynamic connector.51</title>
			<path d="M7.09 267.64 L7.09 279.08" class="st7"/>
		</g>
		<g id="shape52-31" transform="translate(211.163,-135.028)">
			<title>Dynamic connector.52</title>
			<path d="M7.09 266.28 L7.09 278.51" class="st5"/>
		</g>
		<g id="shape53-36" transform="translate(211.163,-67.889)">
			<title>Dynamic connector.53</title>
			<path d="M7.09 266.28 L7.09 278.51" class="st5"/>
		</g>
		<g id="shape54-41" transform="translate(216.679,-202.167)">
			<title>Nordic Blue</title>
			<rect x="0" y="263.107" width="3.17145" height="3.17145" class="st8"/>
		</g>
		<g id="shape55-43" transform="translate(225.344,-202.167)">
			<title>Dynamic connector.55</title>
			<path d="M-7.08 266.28 L-7.09 278.51" class="st5"/>
		</g>
	</g>
</svg>
