<?xml version="1.0" encoding="UTF-8" standalone="no"?>
<!DOCTYPE svg PUBLIC "-//W3C//DTD SVG 1.1//EN" "http://www.w3.org/Graphics/SVG/1.1/DTD/svg11.dtd">
<!-- Generated by Microsoft Visio, SVG Export data_storage_settings.svg Page-1 -->
<svg xmlns="http://www.w3.org/2000/svg" xmlns:xlink="http://www.w3.org/1999/xlink" xmlns:ev="http://www.w3.org/2001/xml-events"
		width="6.0629in" height="4.95251in" viewBox="0 0 436.529 356.581" xml:space="preserve" color-interpolation-filters="sRGB"
		class="st18">
	<style type="text/css">
	<![CDATA[
		.st1 {fill:#00a9ce;stroke:none;stroke-linecap:butt;stroke-width:0.75}
		.st2 {fill:#f2f2f2;font-family:Arial;font-size:1.00001em}
		.st3 {fill:#0033a0;stroke:none;stroke-linecap:butt;stroke-width:0.75}
		.st4 {font-size:1em}
		.st5 {marker-end:url(#mrkr5-16);stroke:#0077c8;stroke-dasharray:4,2;stroke-linecap:butt;stroke-width:1}
		.st6 {fill:#0077c8;fill-opacity:1;stroke:#0077c8;stroke-opacity:1;stroke-width:0.28409090909091}
		.st7 {marker-end:url(#mrkr5-22);stroke:#00a9ce;stroke-linecap:butt;stroke-width:1}
		.st8 {fill:#00a9ce;fill-opacity:1;stroke:#00a9ce;stroke-opacity:1;stroke-width:0.28409090909091}
		.st9 {stroke:#00a9ce;stroke-linecap:butt;stroke-width:1}
		.st10 {fill:none;stroke:#00a9ce;stroke-width:1}
		.st11 {fill:none;stroke:#333f48;stroke-width:1.5}
		.st12 {fill:#0033a0;stroke:none;stroke-width:1}
		.st13 {fill:none;stroke:none;stroke-width:1}
		.st14 {fill:#333f48;font-family:Arial;font-size:0.916672em}
		.st15 {fill:#00a9ce;stroke:none;stroke-width:1}
		.st16 {marker-end:url(#mrkr5-61);stroke:#008bab;stroke-linecap:butt;stroke-width:1}
		.st17 {fill:#008bab;fill-opacity:1;stroke:#008bab;stroke-opacity:1;stroke-width:0.28409090909091}
		.st18 {fill:none;fill-rule:evenodd;font-size:12px;overflow:visible;stroke-linecap:square;stroke-miterlimit:3}
	]]>
	</style>

	<defs id="Markers">
		<g id="lend5">
			<path d="M 2 1 L 0 0 L 1.98117 -0.993387 C 1.67173 -0.364515 1.67301 0.372641 1.98465 1.00043 " style="stroke:none"/>
		</g>
		<marker id="mrkr5-16" class="st6" refX="-6.16" orient="auto" markerUnits="strokeWidth" overflow="visible">
			<use xlink:href="#lend5" transform="scale(-3.52,-3.52) "/>
		</marker>
		<marker id="mrkr5-22" class="st8" refX="-6.16" orient="auto" markerUnits="strokeWidth" overflow="visible">
			<use xlink:href="#lend5" transform="scale(-3.52,-3.52) "/>
		</marker>
		<marker id="mrkr5-61" class="st17" refX="-6.16" orient="auto" markerUnits="strokeWidth" overflow="visible">
			<use xlink:href="#lend5" transform="scale(-3.52,-3.52) "/>
		</marker>
	</defs>
	<g>
		<title>Page-1</title>
		<g id="shape8-1" transform="translate(150.75,-307.081)">
			<title>Sheet.8</title>
			<desc>Settings</desc>
			<rect x="0" y="307.831" width="135" height="48.75" class="st1"/>
			<text x="45.82" y="335.9" class="st2">Settings</text>		</g>
		<g id="shape11-4" transform="translate(0.75,-225.331)">
			<title>Sheet.11</title>
			<desc>File System</desc>
			<rect x="0" y="307.831" width="135" height="48.75" class="st1"/>
			<text x="36.16" y="335.9" class="st2">File System</text>		</g>
		<g id="shape20-7" transform="translate(150.75,-91.0526)">
			<title>Sheet.20</title>
			<desc>Non-volatile memory</desc>
			<rect x="0" y="307.831" width="135" height="48.75" class="st3"/>
			<text x="35.82" y="328.61" class="st2">Non-volatile <tspan x="45.83" dy="1.2em" class="st4">memory</tspan></text>		</g>
		<g id="shape49-11" transform="translate(216.679,-294.055)">
			<title>Dynamic connector</title>
			<path d="M0 356.58 L-148.43 356.58 L-148.43 370.4" class="st5"/>
		</g>
		<g id="shape50-17" transform="translate(68.25,-225.331)">
			<title>Dynamic connector.50</title>
			<path d="M0 356.58 L0 399.34 L76.34 399.34" class="st7"/>
		</g>
		<g id="shape51-23" transform="translate(211.178,-308.448)">
			<title>Dynamic connector.51</title>
			<path d="M7.09 357.95 L7.09 369.39" class="st9"/>
		</g>
		<g id="shape54-26" transform="translate(216.679,-292.47)">
			<title>Nordic Blue</title>
			<rect x="0" y="353.409" width="3.17145" height="3.17145" class="st10"/>
		</g>
		<g id="shape55-28" transform="translate(211.178,-292.47)">
			<title>Dynamic connector.55</title>
			<path d="M7.09 356.58 L7.09 368.81" class="st5"/>
		</g>
		<g id="shape236-33" transform="translate(150.75,-158.192)">
			<title>Sheet.236</title>
			<desc>NVMC or RRAMC</desc>
			<rect x="0" y="307.831" width="135" height="48.75" class="st1"/>
			<text x="19.17" y="335.81" class="st2">NVMC or RRAMC</text>		</g>
		<g id="shape247-36" transform="translate(211.163,-158.192)">
			<title>Dynamic connector.247</title>
			<path d="M7.09 356.58 L7.09 368.81" class="st7"/>
		</g>
		<g id="shape366-41" transform="translate(72.9268,-1.5)">
			<title>Sheet.366</title>
			<rect x="0" y="294.219" width="292.193" height="62.3622" class="st11"/>
		</g>
		<g id="shape367-43" transform="translate(84.2653,-38.1614)">
			<title>Nordic Red.367</title>
			<rect x="0" y="338.004" width="17.3286" height="18.5764" class="st12"/>
		</g>
		<g id="shape368-45" transform="translate(101.594,-36.8197)">
			<title>Sheet.368</title>
			<desc>Persistent memory</desc>
			<rect x="0" y="336.663" width="117.317" height="19.9181" class="st13"/>
			<text x="4" y="349.92" class="st14">Persistent memory</text>		</g>
		<g id="shape369-48" transform="translate(230.474,-36.574)">
			<title>Nordic Red.369</title>
			<rect x="0" y="338.004" width="17.3286" height="18.5764" class="st15"/>
		</g>
		<g id="shape371-50" transform="translate(247.803,-35.4402)">
			<title>Sheet.371</title>
			<desc>Subsystem in use</desc>
			<rect x="0" y="336.663" width="117.317" height="19.9181" class="st13"/>
			<text x="4" y="349.92" class="st14">Subsystem in use</text>		</g>
		<g id="shape373-53" transform="translate(101.833,-8.93622)">
			<title>Sheet.373</title>
			<desc>API calls</desc>
			<rect x="0" y="336.663" width="117.317" height="19.9181" class="st13"/>
			<text x="4" y="349.92" class="st14">API calls</text>		</g>
		<g id="shape374-56" transform="translate(85.5148,-12.3756)">
			<title>Dynamic connector.374</title>
			<path d="M0 349.49 L9.71 349.49" class="st16"/>
		</g>
		<g id="shape381-62" transform="translate(150.764,-225.331)">
			<title>Sheet.381</title>
			<desc>NVS</desc>
			<rect x="0" y="307.831" width="135" height="48.75" class="st1"/>
			<text x="55.16" y="335.81" class="st2">NVS</text>		</g>
		<g id="shape383-65" transform="translate(225.344,-225.331)">
			<title>Dynamic connector.383</title>
			<path d="M-7.08 356.58 L-7.09 368.81" class="st7"/>
		</g>
		<g id="shape387-70" transform="translate(300.779,-225.331)">
			<title>Sheet.387</title>
			<desc>ZMS</desc>
			<rect x="0" y="307.831" width="135" height="48.75" class="st1"/>
			<text x="54.83" y="335.81" class="st2">ZMS</text>		</g>
		<g id="shape388-73" transform="translate(219.85,-294.055)">
			<title>Dynamic connector.388</title>
			<path d="M0 356.58 L148.43 356.58 L148.43 370.4" class="st5"/>
		</g>
		<g id="shape389-78" transform="translate(368.279,-225.331)">
			<title>Dynamic connector.389</title>
			<path d="M0 356.58 L0 399.34 L-76.37 399.34" class="st7"/>
		</g>
		<g id="shape390-83" transform="translate(247.803,-8.93622)">
			<title>Sheet.390</title>
			<desc>Alternative API calls</desc>
			<rect x="0" y="336.663" width="117.317" height="19.9181" class="st13"/>
			<text x="4" y="349.92" class="st14">Alternative API calls</text>		</g>
		<g id="shape391-86" transform="translate(231.485,-12.3756)">
			<title>Dynamic connector.391</title>
			<path d="M0 349.49 L9.71 349.49" class="st5"/>
		</g>
	</g>
</svg>
