<?xml version="1.0" encoding="UTF-8" standalone="no"?>
<!DOCTYPE svg PUBLIC "-//W3C//DTD SVG 1.1//EN" "http://www.w3.org/Graphics/SVG/1.1/DTD/svg11.dtd">
<!-- Generated by Microsoft Visio, SVG Export data_storage_psa_no_tfm.svg Page-1 -->
<svg xmlns="http://www.w3.org/2000/svg" xmlns:xlink="http://www.w3.org/1999/xlink" xmlns:ev="http://www.w3.org/2001/xml-events"
		width="6.0625in" height="6.45489in" viewBox="0 0 436.5 464.752" xml:space="preserve" color-interpolation-filters="sRGB"
		class="st23">
	<style type="text/css">
	<![CDATA[
		.st1 {stroke:#00a9ce;stroke-linecap:butt;stroke-width:1}
		.st2 {fill:none;stroke:#333f48;stroke-width:1.5}
		.st3 {fill:#0033a0;stroke:none;stroke-width:1}
		.st4 {fill:none;stroke:none;stroke-width:1}
		.st5 {fill:#333f48;font-family:Arial;font-size:0.916672em}
		.st6 {fill:#00a9ce;stroke:none;stroke-width:1}
		.st7 {fill:#d9e1e2;stroke:none;stroke-width:1}
		.st8 {marker-end:url(#mrkr5-29);stroke:#008bab;stroke-linecap:butt;stroke-width:1}
		.st9 {fill:#008bab;fill-opacity:1;stroke:#008bab;stroke-opacity:1;stroke-width:0.28409090909091}
		.st10 {fill:#00a9ce;stroke:none;stroke-linecap:butt;stroke-width:0.75}
		.st11 {fill:#f2f2f2;font-family:Arial;font-size:1.00001em}
		.st12 {fill:#d9e1e2;stroke:none;stroke-linecap:butt;stroke-width:0.75}
		.st13 {fill:#768692;font-family:Arial;font-size:1.00001em}
		.st14 {fill:#0033a0;stroke:none;stroke-linecap:butt;stroke-width:0.75}
		.st15 {font-size:1em}
		.st16 {marker-end:url(#mrkr5-45);stroke:#d9e1e2;stroke-linecap:butt;stroke-width:1}
		.st17 {fill:#d9e1e2;fill-opacity:1;stroke:#d9e1e2;stroke-opacity:1;stroke-width:0.28409090909091}
		.st18 {marker-end:url(#mrkr5-65);stroke:#00a9ce;stroke-linecap:butt;stroke-width:1}
		.st19 {fill:#00a9ce;fill-opacity:1;stroke:#00a9ce;stroke-opacity:1;stroke-width:0.28409090909091}
		.st20 {marker-end:url(#mrkr5-74);stroke:#0077c8;stroke-dasharray:4,2;stroke-linecap:butt;stroke-width:1}
		.st21 {fill:#0077c8;fill-opacity:1;stroke:#0077c8;stroke-opacity:1;stroke-width:0.28409090909091}
		.st22 {fill:none;stroke:#00a9ce;stroke-width:1}
		.st23 {fill:none;fill-rule:evenodd;font-size:12px;overflow:visible;stroke-linecap:square;stroke-miterlimit:3}
	]]>
	</style>

	<defs id="Markers">
		<g id="lend5">
			<path d="M 2 1 L 0 0 L 1.98117 -0.993387 C 1.67173 -0.364515 1.67301 0.372641 1.98465 1.00043 " style="stroke:none"/>
		</g>
		<marker id="mrkr5-29" class="st9" refX="-6.16" orient="auto" markerUnits="strokeWidth" overflow="visible">
			<use xlink:href="#lend5" transform="scale(-3.52,-3.52) "/>
		</marker>
		<marker id="mrkr5-45" class="st17" refX="-6.16" orient="auto" markerUnits="strokeWidth" overflow="visible">
			<use xlink:href="#lend5" transform="scale(-3.52,-3.52) "/>
		</marker>
		<marker id="mrkr5-65" class="st19" refX="-6.16" orient="auto" markerUnits="strokeWidth" overflow="visible">
			<use xlink:href="#lend5" transform="scale(-3.52,-3.52) "/>
		</marker>
		<marker id="mrkr5-74" class="st21" refX="-6.16" orient="auto" markerUnits="strokeWidth" overflow="visible">
			<use xlink:href="#lend5" transform="scale(-3.52,-3.52) "/>
		</marker>
	</defs>
	<g>
		<title>Page-1</title>
		<g id="shape399-1" transform="translate(225.337,-419.869)">
			<title>Dynamic connector.399</title>
			<path d="M-7.09 469.37 L-7.09 474.31" class="st1"/>
		</g>
		<g id="shape400-4" transform="translate(75.1061,-1.5)">
			<title>Sheet.400</title>
			<rect x="0" y="374.043" width="292.193" height="90.7087" class="st2"/>
		</g>
		<g id="shape401-6" transform="translate(86.4447,-66.5079)">
			<title>Nordic Red.401</title>
			<rect x="0" y="446.176" width="17.3286" height="18.5764" class="st3"/>
		</g>
		<g id="shape402-8" transform="translate(103.773,-65.1661)">
			<title>Sheet.402</title>
			<desc>Persistent memory</desc>
			<rect x="0" y="444.834" width="117.317" height="19.9181" class="st4"/>
			<text x="4" y="458.09" class="st5">Persistent memory</text>		</g>
		<g id="shape403-11" transform="translate(232.654,-64.9205)">
			<title>Nordic Red.403</title>
			<rect x="0" y="446.176" width="17.3286" height="18.5764" class="st6"/>
		</g>
		<g id="shape404-13" transform="translate(232.848,-38.6244)">
			<title>Nordic Red.404</title>
			<rect x="0" y="446.176" width="17.3286" height="18.5764" class="st7"/>
		</g>
		<g id="shape405-15" transform="translate(249.982,-63.7866)">
			<title>Sheet.405</title>
			<desc>Subsystem in use</desc>
			<rect x="0" y="444.834" width="117.317" height="19.9181" class="st4"/>
			<text x="4" y="458.09" class="st5">Subsystem in use</text>		</g>
		<g id="shape406-18" transform="translate(250.176,-37.9535)">
			<title>Sheet.406</title>
			<desc>Subsystem not in use</desc>
			<rect x="0" y="444.834" width="117.123" height="19.9181" class="st4"/>
			<text x="4" y="458.09" class="st5">Subsystem not in use</text>		</g>
		<g id="shape407-21" transform="translate(104.012,-37.2827)">
			<title>Sheet.407</title>
			<desc>API calls</desc>
			<rect x="0" y="444.834" width="117.317" height="19.9181" class="st4"/>
			<text x="4" y="458.09" class="st5">API calls</text>		</g>
		<g id="shape408-24" transform="translate(87.6941,-40.722)">
			<title>Dynamic connector.408</title>
			<path d="M0 457.67 L9.71 457.67" class="st8"/>
		</g>
		<g id="shape409-30" transform="translate(150.75,-344.386)">
			<title>Sheet.409</title>
			<desc>Settings</desc>
			<rect x="0" y="416.002" width="135" height="48.75" class="st10"/>
			<text x="45.82" y="444.07" class="st11">Settings</text>		</g>
		<g id="shape410-33" transform="translate(0.75,-262.636)">
			<title>Sheet.410</title>
			<desc>File System</desc>
			<rect x="0" y="416.002" width="135" height="48.75" class="st12"/>
			<text x="36.16" y="443.98" class="st13">File System</text>		</g>
		<g id="shape411-36" transform="translate(150.75,-128.358)">
			<title>Sheet.411</title>
			<desc>Non-volatile memory</desc>
			<rect x="0" y="416.002" width="135" height="48.75" class="st14"/>
			<text x="35.82" y="436.78" class="st11">Non-volatile <tspan x="45.83" dy="1.2em" class="st15">memory</tspan></text>		</g>
		<g id="shape412-40" transform="translate(216.679,-337.293)">
			<title>Dynamic connector.412</title>
			<path d="M0 464.75 L-148.43 464.75 L-148.43 484.5" class="st16"/>
		</g>
		<g id="shape413-46" transform="translate(68.25,-262.636)">
			<title>Dynamic connector.413</title>
			<path d="M0 464.75 L0 507.52 L76.34 507.52" class="st16"/>
		</g>
		<g id="shape414-51" transform="translate(211.178,-348.719)">
			<title>Dynamic connector.414</title>
			<path d="M7.09 469.09 L7.09 474.59" class="st1"/>
		</g>
		<g id="shape417-54" transform="translate(150.75,-262.636)">
			<title>Sheet.417</title>
			<desc>NVS</desc>
			<rect x="0" y="416.002" width="135" height="48.75" class="st10"/>
			<text x="55.16" y="443.98" class="st11">NVS</text>		</g>
		<g id="shape418-57" transform="translate(150.75,-195.497)">
			<title>Sheet.418</title>
			<desc>NVMC or RRAMC</desc>
			<rect x="0" y="416.002" width="135" height="48.75" class="st10"/>
			<text x="19.17" y="443.98" class="st11">NVMC or RRAMC</text>		</g>
		<g id="shape419-60" transform="translate(211.163,-195.497)">
			<title>Dynamic connector.419</title>
			<path d="M7.09 464.75 L7.09 476.98" class="st18"/>
		</g>
		<g id="shape420-66" transform="translate(150.75,-415.252)">
			<title>Sheet.420</title>
			<desc>PSA Protected Storage</desc>
			<rect x="0" y="416.002" width="135" height="48.75" class="st10"/>
			<text x="5.46" y="443.98" class="st11">PSA Protected Storage</text>		</g>
		<g id="shape421-69" transform="translate(219.836,-408.726)">
			<title>Dynamic connector.421</title>
			<path d="M0 464.75 L148.41 464.75 L148.41 555.93" class="st20"/>
		</g>
		<g id="shape422-75" transform="translate(211.163,-407.225)">
			<title>Dynamic connector.422</title>
			<path d="M7.09 464.84 L7.09 472.68" class="st20"/>
		</g>
		<g id="shape423-80" transform="translate(216.664,-407.141)">
			<title>Nordic Blue.423</title>
			<rect x="0" y="461.581" width="3.17145" height="3.17145" class="st22"/>
		</g>
		<g id="shape424-82" transform="translate(103.773,-11.8382)">
			<title>Sheet.424</title>
			<desc>Alternative API calls</desc>
			<rect x="0" y="444.834" width="117.317" height="19.9181" class="st4"/>
			<text x="4" y="458.09" class="st5">Alternative API calls</text>		</g>
		<g id="shape425-85" transform="translate(87.4554,-15.2776)">
			<title>Dynamic connector.425</title>
			<path d="M0 457.67 L9.71 457.67" class="st20"/>
		</g>
		<g id="shape426-90" transform="translate(211.163,-262.636)">
			<title>Dynamic connector.426</title>
			<path d="M7.09 464.75 L7.09 476.98" class="st18"/>
		</g>
		<g id="shape427-95" transform="translate(300.75,-262.636)">
			<title>Sheet.427</title>
			<desc>ZMS</desc>
			<rect x="0" y="416.002" width="135" height="48.75" class="st10"/>
			<text x="54.83" y="443.98" class="st11">ZMS</text>		</g>
		<g id="shape432-98" transform="translate(219.85,-337.293)">
			<title>Dynamic connector.432</title>
			<path d="M0 464.75 L138.63 464.75 L138.63 484.5" class="st20"/>
		</g>
		<g id="shape433-103" transform="translate(368.25,-262.636)">
			<title>Dynamic connector.433</title>
			<path d="M0 464.75 L0 507.52 L-76.34 507.52" class="st18"/>
		</g>
		<g id="shape434-108" transform="translate(225.344,-335.708)">
			<title>Dynamic connector.434</title>
			<path d="M-7.08 464.75 L-7.09 482.91" class="st20"/>
		</g>
		<g id="shape415-113" transform="translate(216.679,-335.708)">
			<title>Nordic Blue.415</title>
			<rect x="0" y="461.581" width="3.17145" height="3.17145" class="st22"/>
		</g>
	</g>
</svg>
