<?xml version="1.0" encoding="utf-8"?>
<!-- Generator: Adobe Illustrator 26.0.2, SVG Export Plug-In . SVG Version: 6.00 Build 0)  -->
<svg version="1.1" id="Layer_1" xmlns="http://www.w3.org/2000/svg" xmlns:xlink="http://www.w3.org/1999/xlink" x="0px" y="0px"
	 viewBox="0 0 1000 168.73" style="enable-background:new 0 0 1000 168.73;" xml:space="preserve">
<style type="text/css">
	.st0{fill:#FFFFFF;}
	.st1{fill:#CEDD50;}
</style>
<g>
	<g>
		<path class="st0" d="M366.06,100.29c0,6.56-2.33,12.21-6.97,16.94c-4.6,4.69-10.17,7.04-16.68,7.04h-23.65V27.12h23.65
			c6.52,0,12.08,2.35,16.68,7.04c4.65,4.74,6.97,10.38,6.97,16.94V100.29z M351.4,110.84c2.52-2.61,3.78-5.67,3.78-9.19V49.73
			c0-3.47-1.26-6.51-3.78-9.12c-2.56-2.56-5.58-3.85-9.06-3.85h-12.77v77.87h12.77C345.86,114.63,348.88,113.37,351.4,110.84z"/>
		<path class="st0" d="M434.37,89.08h-36.36v13.81c0,3.65,1.26,6.71,3.78,9.19c2.48,2.52,5.49,3.78,9.06,3.78
			c6.86,0,11.84-3.11,14.92-9.32l8.21,5.74c-5.56,8.82-13.29,13.23-23.2,13.23c-6.56,0-12.14-2.32-16.74-6.97
			c-4.6-4.65-6.91-10.32-6.91-17.01V72.27c0-6.65,2.3-12.29,6.91-16.94c4.65-4.69,10.23-7.04,16.74-7.04
			c6.52,0,12.08,2.34,16.68,7.04c4.6,4.73,6.91,10.38,6.91,16.94V89.08z M423.56,79.37v-8.41c0-3.47-1.26-6.52-3.78-9.12
			c-2.48-2.56-5.48-3.84-8.99-3.84c-3.56,0-6.58,1.28-9.06,3.84c-2.52,2.52-3.78,5.56-3.78,9.12v8.41H423.56z"/>
		<path class="st0" d="M508.73,49.6l-22.87,74.67l-11.08-0.06l-22.87-74.67h11.27l17.14,59.95l17.14-59.88H508.73z"/>
		<path class="st0" d="M574.96,124.27h-10.82v-20.59h-29.58v20.59h-10.81v-21.96l20.2-75.19h11.14l19.87,75.19V124.27z
			 M562.32,94.04l-12.84-53.37l-13.03,53.37H562.32z"/>
		<path class="st0" d="M642.89,112.28c-5.56,8.82-13.05,13.23-22.48,13.23c-6.99,0-12.79-2.32-17.4-6.97
			c-4.65-4.65-6.97-10.32-6.97-17.01V72.27c0-6.65,2.32-12.29,6.97-16.94c4.65-4.69,10.45-7.04,17.4-7.04
			c9.38,0,16.88,4.43,22.48,13.29l-8.21,5.74c-3.61-6.21-8.36-9.32-14.27-9.32c-4,0-7.23,1.28-9.71,3.84
			c-2.52,2.52-3.78,5.56-3.78,9.12v31.93c0,3.65,1.26,6.71,3.78,9.19c2.48,2.52,5.71,3.78,9.71,3.78c5.95,0,10.71-3.11,14.27-9.32
			L642.89,112.28z"/>
		<path class="st0" d="M707.64,124.27h-10.81v-8.15c-4.6,6.26-10.4,9.38-17.4,9.38c-5.52,0-10.04-1.97-13.55-5.93
			c-3.69-4.08-5.54-9.42-5.54-16.03c0-6.78,2.3-12.38,6.91-16.81c4.47-4.08,10.03-6.12,16.68-6.12h12.9v-10.3
			C696.39,62.11,692.07,58,683.86,58c-5.99,0-10.75,3.11-14.27,9.32l-8.21-5.74c5.56-8.86,13.07-13.29,22.54-13.29
			c6.91,0,12.49,1.87,16.74,5.6c4.65,4.17,6.97,10.1,6.97,17.79V124.27z M682.1,115.86c5.91,0,10.81-2.74,14.73-8.21V89.67h-12.9
			c-3.65,0-6.69,1.17-9.12,3.52c-2.43,2.43-3.65,5.89-3.65,10.36C671.15,111.76,674.8,115.86,682.1,115.86z"/>
		<path class="st0" d="M776.79,124.27h-10.82v-8.08c-4.6,6.21-10.4,9.32-17.4,9.32c-5.39,0-9.91-2.3-13.55-6.91
			c-3.69-4.52-5.54-10.17-5.54-16.94V72.47c0-6.69,1.84-12.34,5.54-16.94c3.65-4.65,8.17-6.97,13.55-6.97
			c6.99,0,12.79,3.13,17.4,9.38V27.12h10.82V124.27z M751.25,115.93c5.91,0,10.82-2.74,14.73-8.21V66.41
			c-3.91-5.43-8.82-8.15-14.73-8.15c-3.48,0-6.19,1.28-8.14,3.85c-1.87,2.3-2.8,5.32-2.8,9.06v31.8c0,3.78,0.94,6.82,2.8,9.12
			C745.01,114.65,747.73,115.93,751.25,115.93z"/>
		<path class="st0" d="M845.88,89.08h-36.36v13.81c0,3.65,1.26,6.71,3.78,9.19c2.48,2.52,5.49,3.78,9.06,3.78
			c6.86,0,11.84-3.11,14.92-9.32l8.21,5.74c-5.56,8.82-13.29,13.23-23.2,13.23c-6.56,0-12.14-2.32-16.74-6.97
			c-4.6-4.65-6.91-10.32-6.91-17.01V72.27c0-6.65,2.3-12.29,6.91-16.94c4.65-4.69,10.23-7.04,16.74-7.04
			c6.52,0,12.08,2.34,16.68,7.04c4.6,4.73,6.91,10.38,6.91,16.94V89.08z M835.06,79.37v-8.41c0-3.47-1.26-6.52-3.78-9.12
			c-2.48-2.56-5.48-3.84-8.99-3.84c-3.56,0-6.58,1.28-9.06,3.84c-2.52,2.52-3.78,5.56-3.78,9.12v8.41H835.06z"/>
		<path class="st0" d="M925.63,124.32h-9.51V64.7c-0.13-4.86-1.8-7.3-5.02-7.3c-3.04,0-6.17,2.2-9.38,6.58v60.34h-9.51V64.7
			c-0.13-4.86-1.74-7.3-4.82-7.3c-3.17,0-6.58,2.2-10.23,6.58v60.34h-9.51V49.65h9.51v7.1c4.69-5.61,9.19-8.41,13.49-8.41
			c4.86,0,8.15,2.65,9.84,7.95c2.34-2.87,4.13-4.73,5.34-5.61c2.08-1.56,4.67-2.34,7.75-2.34c8.03,0,12.05,5.91,12.05,17.72V124.32z
			"/>
		<path class="st0" d="M1000,49.53l-32.32,98.91h-11.6l9.9-29.52l-23.46-69.4h11.34l17.4,56.75l17.4-56.75H1000z"/>
	</g>
	<g>
		<polygon class="st1" points="254.31,49.5 168.82,0 168.82,14.02 230.07,49.48 168.82,84.85 168.82,98.86 190.56,86.3
			190.56,117.51 127.01,154.43 63.46,117.51 63.46,86.14 85.49,98.86 85.48,84.85 24.24,49.48 85.49,14.02 85.49,0 0,49.5
			51.32,79.13 51.32,124.24 127.01,168.73 202.69,124.24 202.69,79.3 		"/>
		<polygon class="st1" points="151.48,0.11 138.6,0.11 103.16,98.89 116.04,98.89 		"/>
		<polygon class="st1" points="258.36,98.8 254.81,92.7 243.34,99.76 243.67,86.27 236.62,86.27 236.95,99.76 225.48,92.7
			221.92,98.8 233.78,105.28 221.92,111.71 225.48,117.81 236.95,110.75 236.62,124.24 243.67,124.24 243.34,110.75 254.81,117.81
			258.36,111.71 246.51,105.28 		"/>
	</g>
</g>
</svg>
