<?xml version="1.0" encoding="UTF-8" standalone="no"?>
<!DOCTYPE svg PUBLIC "-//W3C//DTD SVG 1.1//EN" "http://www.w3.org/Graphics/SVG/1.1/DTD/svg11.dtd">
<!-- Generated by Microsoft Visio, SVG Export DevAcademy.svg Page-1 -->
<svg xmlns="http://www.w3.org/2000/svg" xmlns:xlink="http://www.w3.org/1999/xlink" xmlns:ev="http://www.w3.org/2001/xml-events"
		width="2.13465in" height="0.374311in" viewBox="0 0 153.695 26.9504" xml:space="preserve" color-interpolation-filters="sRGB"
		class="st3">
	<style type="text/css">
	<![CDATA[
		.st1 {fill:#ffffff;stroke:none;stroke-linecap:butt;stroke-width:0.612}
		.st2 {fill:#cedd50;stroke:none;stroke-linecap:butt;stroke-width:0.612}
		.st3 {fill:none;fill-rule:evenodd;font-size:12px;overflow:visible;stroke-linecap:square;stroke-miterlimit:3}
	]]>
	</style>

	<g>
		<title>Page-1</title>
		<g id="group2-1" transform="translate(49.2135,-3.70563)">
			<title>Sheet.2</title>
			<g id="shape3-2" transform="translate(5.19584E-14,-3.68521)">
				<title>Sheet.3</title>
				<path d="M7.21 23.29 C7.21 24.29 6.86 25.16 6.15 25.88 C5.45 26.59 4.6 26.95 3.61 26.95 L0 26.95 L0 12.14 L3.61 12.14
							 C4.6 12.14 5.45 12.5 6.15 13.21 C6.86 13.93 7.21 14.79 7.21 15.79 L7.21 23.29 ZM4.98 24.9 C5.36 24.5
							 5.55 24.04 5.55 23.5 L5.55 15.59 C5.55 15.06 5.36 14.59 4.98 14.19 C4.59 13.8 4.13 13.61 3.6 13.61 L1.65
							 13.61 L1.65 25.48 L3.6 25.48 C4.13 25.48 4.59 25.29 4.98 24.9 Z" class="st1"/>
			</g>
			<g id="shape4-4" transform="translate(10.4244,-3.49615)">
				<title>Sheet.4</title>
				<path d="M7.2 21.4 L1.66 21.4 L1.66 23.5 C1.66 24.06 1.85 24.52 2.24 24.9 C2.61 25.29 3.07 25.48 3.62 25.48 C4.66
							 25.48 5.42 25 5.89 24.06 L7.14 24.93 C6.3 26.28 5.12 26.95 3.61 26.95 C2.61 26.95 1.75 26.6 1.05 25.89
							 C0.35 25.18 0 24.31 0 23.29 L0 18.83 C0 17.82 0.35 16.96 1.05 16.25 C1.76 15.53 2.61 15.18 3.61 15.18
							 C4.6 15.18 5.45 15.53 6.15 16.25 C6.85 16.97 7.2 17.83 7.2 18.83 L7.2 21.4 ZM5.55 19.92 L5.55 18.63
							 C5.55 18.1 5.36 17.64 4.98 17.24 C4.6 16.85 4.14 16.66 3.61 16.66 C3.06 16.66 2.6 16.85 2.23 17.24 C1.84
							 17.63 1.65 18.09 1.65 18.63 L1.65 19.92 L5.55 19.92 Z" class="st1"/>
			</g>
			<g id="shape5-6" transform="translate(20.3015,-3.68521)">
				<title>Sheet.5</title>
				<path d="M8.66 15.57 L5.18 26.95 L3.49 26.94 L0 15.56 L1.72 15.56 L4.33 24.7 L6.95 15.57 L8.66 15.57 L8.66 15.57 Z"
						class="st1"/>
			</g>
			<g id="shape6-8" transform="translate(31.2549,-3.68521)">
				<title>Sheet.6</title>
				<path d="M7.81 26.95 L6.16 26.95 L6.16 23.81 L1.65 23.81 L1.65 26.95 L0 26.95 L0 23.6 L3.08 12.14 L4.78 12.14 L7.81
							 23.6 L7.81 26.95 ZM5.88 22.34 L3.92 14.2 L1.94 22.34 L5.88 22.34 Z" class="st1"/>
			</g>
			<g id="shape7-10" transform="translate(42.277,-3.49615)">
				<title>Sheet.7</title>
				<path d="M7.14 24.93 C6.3 26.28 5.15 26.95 3.72 26.95 C2.65 26.95 1.77 26.6 1.06 25.89 C0.35 25.18 0 24.31 0 23.29
							 L0 18.83 C0 17.82 0.35 16.96 1.06 16.25 C1.77 15.53 2.66 15.18 3.72 15.18 C5.15 15.18 6.29 15.85 7.14
							 17.2 L5.89 18.08 C5.34 17.13 4.62 16.66 3.72 16.66 C3.11 16.66 2.61 16.85 2.24 17.24 C1.85 17.63 1.66
							 18.09 1.66 18.63 L1.66 23.5 C1.66 24.06 1.85 24.52 2.24 24.9 C2.61 25.29 3.11 25.48 3.72 25.48 C4.62
							 25.48 5.35 25 5.89 24.06 L7.14 24.93 Z" class="st1"/>
			</g>
			<g id="shape8-12" transform="translate(52.0809,-3.49768)">
				<title>Sheet.8</title>
				<path d="M7.21 26.76 L5.56 26.76 L5.56 25.52 C4.86 26.47 3.98 26.95 2.91 26.95 C2.07 26.95 1.38 26.65 0.84 26.05
							 C0.28 25.42 0 24.61 0 23.6 C0 22.57 0.35 21.71 1.05 21.04 C1.74 20.42 2.58 20.11 3.6 20.11 L5.56 20.11
							 L5.56 18.54 C5.5 17.29 4.84 16.66 3.59 16.66 C2.67 16.66 1.95 17.13 1.41 18.08 L0.16 17.2 C1.01 15.85
							 2.15 15.18 3.6 15.18 C4.65 15.18 5.5 15.46 6.15 16.03 C6.86 16.67 7.21 17.57 7.21 18.74 L7.21 26.76
							 L7.21 26.76 ZM3.32 25.48 C4.22 25.48 4.97 25.06 5.56 24.23 L5.56 21.49 L3.6 21.49 C3.04 21.49 2.58 21.67
							 2.21 22.02 C1.84 22.39 1.65 22.92 1.65 23.6 C1.65 24.86 2.2 25.48 3.32 25.48 Z" class="st1"/>
			</g>
			<g id="shape9-14" transform="translate(62.6227,-3.49615)">
				<title>Sheet.9</title>
				<path d="M7.21 26.76 L5.56 26.76 L5.56 25.53 C4.86 26.48 3.98 26.95 2.91 26.95 C2.09 26.95 1.4 26.6 0.84 25.9 C0.28
							 25.21 0 24.35 0 23.31 L0 18.86 C0 17.84 0.28 16.98 0.84 16.28 C1.4 15.57 2.09 15.22 2.91 15.22 C3.98
							 15.22 4.86 15.69 5.56 16.65 L5.56 11.95 L7.21 11.95 L7.21 26.76 ZM3.32 25.49 C4.22 25.49 4.97 25.07
							 5.57 24.24 L5.57 17.94 C4.97 17.11 4.22 16.7 3.32 16.7 C2.79 16.7 2.38 16.89 2.08 17.28 C1.79 17.63
							 1.65 18.09 1.65 18.67 L1.65 23.51 C1.65 24.09 1.79 24.55 2.08 24.9 C2.37 25.29 2.78 25.49 3.32 25.49
							 Z" class="st1"/>
			</g>
			<g id="shape10-16" transform="translate(73.1676,-3.49615)">
				<title>Sheet.10</title>
				<path d="M7.2 21.4 L1.66 21.4 L1.66 23.5 C1.66 24.06 1.85 24.52 2.24 24.9 C2.61 25.29 3.07 25.48 3.62 25.48 C4.66
							 25.48 5.42 25 5.89 24.06 L7.14 24.93 C6.3 26.28 5.12 26.95 3.61 26.95 C2.61 26.95 1.75 26.6 1.05 25.89
							 C0.35 25.18 0 24.31 0 23.29 L0 18.83 C0 17.82 0.35 16.96 1.05 16.25 C1.76 15.53 2.61 15.18 3.61 15.18
							 C4.6 15.18 5.45 15.53 6.15 16.25 C6.85 16.97 7.2 17.83 7.2 18.83 L7.2 21.4 ZM5.55 19.92 L5.55 18.63
							 C5.55 18.1 5.36 17.64 4.98 17.24 C4.6 16.85 4.14 16.66 3.61 16.66 C3.06 16.66 2.6 16.85 2.22 17.24 C1.84
							 17.63 1.65 18.09 1.65 18.63 L1.65 19.92 L5.55 19.92 Z" class="st1"/>
			</g>
			<g id="shape11-18" transform="translate(83.6896,-3.67759)">
				<title>Sheet.11</title>
				<path d="M8.84 26.95 L7.39 26.95 L7.39 17.86 C7.37 17.12 7.12 16.75 6.62 16.75 C6.16 16.75 5.68 17.08 5.19 17.75
							 L5.19 26.95 L3.74 26.95 L3.74 17.86 C3.72 17.12 3.48 16.75 3.01 16.75 C2.53 16.75 2.01 17.08 1.45 17.75
							 L1.45 26.95 L0 26.95 L0 15.57 L1.45 15.57 L1.45 16.65 C2.17 15.79 2.85 15.37 3.51 15.37 C4.25 15.37
							 4.75 15.77 5.01 16.58 C5.36 16.14 5.64 15.86 5.82 15.72 C6.14 15.48 6.53 15.37 7 15.37 C8.23 15.37 8.84
							 16.27 8.84 18.07 L8.84 26.95 Z" class="st1"/>
			</g>
			<g id="shape12-20" transform="translate(95.1051,0)">
				<title>Sheet.12</title>
				<path d="M8.76 11.87 L3.84 26.95 L2.07 26.95 L3.58 22.45 L0 11.87 L1.73 11.87 L4.38 20.52 L7.03 11.87 L8.76 11.87
							 L8.76 11.87 Z" class="st1"/>
			</g>
		</g>
		<g id="group13-22" transform="translate(0.612,-0.612)">
			<title>Sheet.13</title>
			<g id="shape14-23">
				<title>Sheet.14</title>
				<path d="M38.77 8.77 L25.74 1.22 L25.74 3.36 L35.08 8.77 L25.74 14.16 L25.74 16.3 L29.05 14.38 L29.05 19.14 L19.37
							 24.77 L9.68 19.14 L9.68 14.36 L13.03 16.3 L13.03 14.16 L3.7 8.77 L13.03 3.36 L13.03 1.22 L0 8.77 L7.82
							 13.29 L7.82 20.17 L19.37 26.95 L30.9 20.17 L30.9 13.31 L38.77 8.77 Z" class="st2"/>
			</g>
			<g id="shape15-25" transform="translate(15.7289,-10.6485)">
				<title>Sheet.15</title>
				<path d="M7.37 11.89 L5.4 11.89 L0 26.95 L1.96 26.95 L7.37 11.89 Z" class="st2"/>
			</g>
			<g id="shape16-27" transform="translate(33.8363,-6.78342)">
				<title>Sheet.16</title>
				<path d="M5.56 23.07 L5.01 22.14 L3.27 23.22 L3.32 21.16 L2.24 21.16 L2.29 23.22 L0.54 22.14 L0 23.07 L1.81 24.06
							 L0 25.04 L0.54 25.97 L2.29 24.89 L2.24 26.95 L3.32 26.95 L3.27 24.89 L5.01 25.97 L5.56 25.04 L3.75 24.06
							 L5.56 23.07 Z" class="st2"/>
			</g>
		</g>
	</g>
</svg>
