<?xml version="1.0" encoding="UTF-8" standalone="no"?>
<!DOCTYPE svg PUBLIC "-//W3C//DTD SVG 1.1//EN" "http://www.w3.org/Graphics/SVG/1.1/DTD/svg11.dtd">
<!-- Generated by Microsoft Visio, SVG Export DevAcademy.svg Page-1 -->
<svg xmlns="http://www.w3.org/2000/svg" xmlns:xlink="http://www.w3.org/1999/xlink" xmlns:ev="http://www.w3.org/2001/xml-events"
		width="0.814502in" height="0.537833in" viewBox="0 0 58.6441 38.724" xml:space="preserve" color-interpolation-filters="sRGB"
		class="st2">
	<style type="text/css">
	<![CDATA[
		.st1 {fill:#cedd50;stroke:none;stroke-linecap:butt;stroke-width:0.612}
		.st2 {fill:none;fill-rule:evenodd;font-size:12px;overflow:visible;stroke-linecap:square;stroke-miterlimit:3}
	]]>
	</style>

	<g>
		<title>Page-1</title>
		<g id="group17-1" transform="translate(0.612,-0.612)">
			<title>Sheet.17</title>
			<g id="shape18-2">
				<title>Sheet.18</title>
				<path d="M56.52 12.23 L37.52 1.22 L37.52 4.34 L51.13 12.22 L37.52 20.08 L37.52 23.2 L42.35 20.4 L42.35 27.34 L28.23
							 35.55 L14.1 27.34 L14.1 20.37 L19 23.2 L19 20.08 L5.39 12.22 L19 4.34 L19 1.22 L0 12.23 L11.41 18.81
							 L11.41 28.84 L28.23 38.72 L45.05 28.84 L45.05 18.85 L56.52 12.23 Z" class="st1"/>
			</g>
			<g id="shape19-4" transform="translate(22.9272,-15.5218)">
				<title>Sheet.19</title>
				<path d="M10.74 16.77 L7.88 16.77 L0 38.72 L2.86 38.72 L10.74 16.77 Z" class="st1"/>
			</g>
			<g id="shape20-6" transform="translate(49.3214,-9.88784)">
				<title>Sheet.20</title>
				<path d="M8.1 33.07 L7.31 31.71 L4.76 33.28 L4.83 30.29 L3.27 30.29 L3.34 33.28 L0.79 31.71 L0 33.07 L2.64 34.51
							 L0 35.94 L0.79 37.29 L3.34 35.73 L3.27 38.72 L4.83 38.72 L4.76 35.73 L7.31 37.29 L8.1 35.94 L5.47 34.51
							 L8.1 33.07 Z" class="st1"/>
			</g>
		</g>
	</g>
</svg>
