<?xml version="1.0" encoding="UTF-8" standalone="no"?>
<!DOCTYPE svg PUBLIC "-//W3C//DTD SVG 1.1//EN" "http://www.w3.org/Graphics/SVG/1.1/DTD/svg11.dtd">
<!-- Generated by Microsoft Visio, SVG Export esb_packet_format.svg Page-1 -->
<svg xmlns="http://www.w3.org/2000/svg" xmlns:xlink="http://www.w3.org/1999/xlink" xmlns:ev="http://www.w3.org/2001/xml-events"
		width="4.97634in" height="1.44395in" viewBox="0 0 358.296 103.965" xml:space="preserve" color-interpolation-filters="sRGB"
		class="st15">
	<style type="text/css">
	<![CDATA[
		.st1 {fill:#dc582a;fill-opacity:0.85;stroke:#000000;stroke-linecap:round;stroke-linejoin:round;stroke-width:0.72}
		.st2 {fill:#000000;font-family:Arial;font-size:1.00001em}
		.st3 {fill:none;stroke:none;stroke-width:0.25}
		.st4 {visibility:visible}
		.st5 {fill:none;filter:url(#filter_2);stroke:#5b9bd5;stroke-opacity:0.22}
		.st6 {stroke:#000000;stroke-width:0.5}
		.st7 {fill:#000000;font-family:Arial;font-size:1.16666em}
		.st8 {fill:#000000;font-family:Arial;font-size:0.833336em}
		.st9 {fill:#5b9bd5;filter:url(#filter_2);font-family:Calibri;font-size:0.833336em;opacity:0.219608}
		.st10 {fill:none;stroke:#000000;stroke-width:0.72}
		.st11 {fill:#000000;font-family:Calibri;font-size:0.833336em}
		.st12 {fill:#ffffff;stroke:none;stroke-width:0.25}
		.st13 {fill:#009cde;fill-opacity:0.85;stroke:#000000;stroke-linecap:round;stroke-linejoin:round;stroke-width:0.72}
		.st14 {fill:#88b7e4;fill-opacity:0.85;stroke:#000000;stroke-linecap:round;stroke-linejoin:round;stroke-width:0.72}
		.st15 {fill:none;fill-rule:evenodd;font-size:12px;overflow:visible;stroke-linecap:square;stroke-miterlimit:3}
	]]>
	</style>

	<defs id="Filters">
		<filter id="filter_2">
			<feGaussianBlur stdDeviation="2"/>
		</filter>
	</defs>
	<g>
		<title>Page-1</title>
		<g id="shape64-1" transform="translate(65.209,-21.5098)">
			<title>s.3</title>
			<desc>Base address</desc>
			<rect x="0" y="61.4449" width="153.94" height="42.5197" class="st1"/>
			<text x="40.28" y="86.31" class="st2">Base address</text>		</g>
		<g id="shape46-4" transform="translate(0.25,-3.53702)">
			<title>Sheet.46</title>
			<desc>1 byte</desc>
			<rect x="0" y="83.9646" width="64.3424" height="20" class="st3"/>
			<text x="15.83" y="97.56" class="st2">1 byte</text>		</g>
		<g id="shape47-7" transform="translate(36.2968,-3.00591)">
			<title>Sheet.47</title>
			<desc>2-4 bytes</desc>
			<rect x="0" y="83.9646" width="207.53" height="20" class="st3"/>
			<text x="79.08" y="97.56" class="st2">2-4 bytes</text>		</g>
		<g id="shape48-10" transform="translate(141.997,-3.00591)">
			<title>Sheet.48</title>
			<desc>1 byte</desc>
			<rect x="0" y="83.9646" width="207.53" height="20" class="st3"/>
			<text x="87.42" y="97.56" class="st2">1 byte</text>		</g>
		<g id="shape54-13" transform="translate(167.109,39.935) rotate(-90)">
			<title>Right Brace.31</title>
			<g id="shadow54-14" transform="matrix(1,0,0,1,-1.97279,0.345598)" class="st4">
				<path d="M0 103.96 A26.776 34.4566 -180 0 0 10 83.37 L10 1.02 L20 1.02 L10 1.02 L10 -81.34 A26.776 34.4566 -180 0
							 0 -0 -101.93" class="st5"/>
			</g>
			<path d="M0 103.96 A26.776 34.4566 -180 0 0 10 83.37 L10 1.02 L20 1.02 L10 1.02 L10 -81.34 A26.776 34.4566 -180 0 0 -0
						 -101.93" class="st6"/>
		</g>
		<g id="shape57-21" transform="translate(64.5924,-83.7146)">
			<title>Sheet.57</title>
			<desc>Address</desc>
			<rect x="0" y="83.9646" width="207.53" height="20" class="st3"/>
			<text x="78.09" y="98.16" class="st7">Address</text>		</g>
		<g id="shape58-24" transform="translate(51.4162,-47.9907)">
			<title>Sheet.58</title>
			<desc>MSB</desc>
			<rect x="0" y="83.9646" width="52.0007" height="20" class="st3"/>
			<text x="15.17" y="96.96" class="st8">MSB</text>		</g>
		<g id="shape62-27" transform="translate(270.58,-21.5098)">
			<title>Rectangle.62</title>
			<desc>...</desc>
			<g id="shadow62-28" transform="matrix(1,0,0,1,0.345598,1.97279)" class="st4">
				<rect x="0" y="61.4449" width="79.7265" height="42.5197" class="st5"/>
				<text x="36.08" y="85.7" class="st9">...</text>			</g>
			<rect x="0" y="61.4449" width="79.7265" height="42.5197" class="st10"/>
			<text x="36.08" y="85.7" class="st11">...</text>		</g>
		<g id="shape63-35" transform="translate(338.695,-0.25)">
			<title>Rectangle.63</title>
			<rect x="0" y="18.9252" width="19.3511" height="85.0394" class="st12"/>
		</g>
		<g id="shape65-37" transform="translate(219.149,-21.5098)">
			<title>s.1</title>
			<desc>Prefix</desc>
			<rect x="0" y="61.4449" width="51.4307" height="42.5197" class="st13"/>
			<text x="10.38" y="86.31" class="st2">Prefix</text>		</g>
		<g id="shape66-40" transform="translate(0.881131,-21.5098)">
			<title>s.2</title>
			<desc>Preamble</desc>
			<rect x="0" y="61.4449" width="64.3424" height="42.5197" class="st14"/>
			<text x="6.49" y="86.31" class="st2">Preamble</text>		</g>
	</g>
</svg>
