<?xml version="1.0" encoding="UTF-8" standalone="no"?>
<!DOCTYPE svg PUBLIC "-//W3C//DTD SVG 1.1//EN" "http://www.w3.org/Graphics/SVG/1.1/DTD/svg11.dtd">
<!-- Generated by Microsoft Visio, SVG Export esb_fig2_ptx_trans_ok.svg Page-1 -->
<svg xmlns="http://www.w3.org/2000/svg" xmlns:xlink="http://www.w3.org/1999/xlink" xmlns:ev="http://www.w3.org/2001/xml-events"
		width="7.29862in" height="5.88519in" viewBox="0 0 525.501 423.734" xml:space="preserve" color-interpolation-filters="sRGB"
		class="st15">
	<style type="text/css">
	<![CDATA[
		.st1 {fill:none;stroke:none;stroke-linecap:round;stroke-linejoin:round;stroke-width:0.72}
		.st2 {fill:#000000;font-family:Calibri;font-size:1.00001em}
		.st3 {fill:#000000;stroke:none;stroke-linecap:round;stroke-linejoin:round;stroke-width:0.24}
		.st4 {fill:#0077c8;stroke:none;stroke-linecap:round;stroke-linejoin:round;stroke-width:0.72}
		.st5 {fill:#ffffff;font-family:Calibri;font-size:0.833336em}
		.st6 {font-size:1em}
		.st7 {fill:#d9e1e2;stroke:none;stroke-linecap:round;stroke-linejoin:round;stroke-width:0.72}
		.st8 {fill:#000000;font-family:Calibri;font-size:0.833336em}
		.st9 {marker-end:url(#mrkr13-30);stroke:#333f48;stroke-linecap:butt;stroke-width:1}
		.st10 {fill:#333f48;fill-opacity:1;stroke:#333f48;stroke-opacity:1;stroke-width:0.28409090909091}
		.st11 {fill:#d0df00;stroke:none;stroke-linecap:round;stroke-linejoin:round;stroke-width:0.72}
		.st12 {fill:#00a9ce;stroke:none;stroke-width:1}
		.st13 {marker-start:url(#mrkr13-73);stroke:#333f48;stroke-dasharray:8,4;stroke-linecap:butt;stroke-width:1}
		.st14 {stroke:#000000;stroke-linecap:round;stroke-linejoin:round;stroke-width:0.75}
		.st15 {fill:none;fill-rule:evenodd;font-size:12px;overflow:visible;stroke-linecap:square;stroke-miterlimit:3}
	]]>
	</style>

	<defs id="Markers">
		<g id="lend13">
			<path d="M 3 1 L 0 0 L 3 -1 L 3 1 " style="stroke:none"/>
		</g>
		<marker id="mrkr13-30" class="st10" refX="-10.56" orient="auto" markerUnits="strokeWidth" overflow="visible">
			<use xlink:href="#lend13" transform="scale(-3.52,-3.52) "/>
		</marker>
		<marker id="mrkr13-73" class="st10" refX="10.2" orient="auto" markerUnits="strokeWidth" overflow="visible">
			<use xlink:href="#lend13" transform="scale(3.52) "/>
		</marker>
	</defs>
	<g>
		<title>Page-1</title>
		<g id="shape26-1" transform="translate(11.2165,-222.188)">
			<title>Sheet.26</title>
			<desc>PTX operation</desc>
			<rect x="0" y="410.978" width="82.2835" height="12.7559" class="st1"/>
			<text x="4" y="420.96" class="st2">PTX operation</text>		</g>
		<g id="shape27-4" transform="translate(274.43,-215.102)">
			<title>Rectangle.260</title>
			<rect x="0" y="378.734" width="2.83465" height="45" class="st3"/>
		</g>
		<g id="shape28-6" transform="translate(205.835,-215.102)">
			<title>Rectangle.261</title>
			<rect x="0" y="378.734" width="2.83465" height="45" class="st3"/>
		</g>
		<g id="shape30-8" transform="translate(11.2165,-118.727)">
			<title>Sheet.30</title>
			<desc>PRX operation</desc>
			<rect x="0" y="410.978" width="82.2835" height="12.7559" class="st1"/>
			<text x="4" y="420.96" class="st2">PRX operation</text>		</g>
		<g id="shape31-11" transform="translate(274.43,-111.64)">
			<title>Rectangle.272</title>
			<rect x="0" y="378.734" width="2.83465" height="45" class="st3"/>
		</g>
		<g id="shape32-13" transform="translate(205.335,-111.64)">
			<title>Rectangle.273</title>
			<rect x="0" y="378.734" width="2.83465" height="45" class="st3"/>
		</g>
		<g id="shape123-15" transform="translate(277.334,-215.102)">
			<title>s.384</title>
			<desc>Receive ACK with payload</desc>
			<rect x="0" y="378.734" width="66.2598" height="45" class="st4"/>
			<text x="8.14" y="398.23" class="st5">Receive ACK <tspan x="6.88" dy="1.2em" class="st6">with </tspan>payload</text>		</g>
		<g id="shape124-19" transform="translate(94.7839,-111.64)">
			<title>s.free</title>
			<desc>Listen</desc>
			<rect x="0" y="378.734" width="110.551" height="45" class="st7"/>
			<text x="43.28" y="404.23" class="st8">Listen</text>		</g>
		<g id="shape125-22" transform="translate(343.524,-111.64)">
			<title>s.free.389</title>
			<desc>Listen</desc>
			<rect x="0" y="378.734" width="168.461" height="45" class="st7"/>
			<text x="72.24" y="404.23" class="st8">Listen</text>		</g>
		<g id="shape126-25" transform="translate(665.551,188.89) rotate(90.3729)">
			<title>Sheet.126</title>
			<path d="M0 423.73 L70.4 423.73" class="st9"/>
		</g>
		<g id="shape127-31" transform="translate(-113.34,289.226) rotate(-89.9503)">
			<title>Sheet.127</title>
			<path d="M0 423.73 L70.4 423.73" class="st9"/>
		</g>
		<g id="shape128-36" transform="translate(208.697,-215.102)">
			<title>s.3</title>
			<desc>Send packet</desc>
			<rect x="0" y="378.734" width="66.2598" height="45" class="st11"/>
			<text x="8.39" y="404.23" class="st8">Send packet</text>		</g>
		<g id="shape129-39" transform="translate(277.264,-111.64)">
			<title>s.403</title>
			<desc>Send ACK with payload</desc>
			<rect x="0" y="378.734" width="66.2598" height="45" class="st11"/>
			<text x="13.8" y="398.23" class="st8">Send ACK <tspan x="6.88" dy="1.2em" class="st6">with </tspan>payload</text>		</g>
		<g id="shape130-43" transform="translate(208.17,-111.64)">
			<title>s.405</title>
			<desc>Receive packet</desc>
			<rect x="0" y="378.734" width="66.2598" height="45" class="st4"/>
			<text x="17.43" y="398.23" class="st5">Receive <tspan x="19.56" dy="1.2em" class="st6">packet</tspan></text>		</g>
		<g id="shape131-47" transform="translate(1,-286.778)">
			<title>Nordic Middle Grey</title>
			<desc>Start the transaction by adding a payload to the TX FIFO usin...</desc>
			<rect x="0" y="369.094" width="154.5" height="54.6402" class="st12"/>
			<text x="10.97" y="386.21" class="st5">Start the transaction by adding a <tspan x="19.5" dy="1.2em" class="st6">payload to the TX FIFO using </tspan><tspan
						x="27.06" dy="1.38em" class="st6">nrf_esb_write_payload()</tspan></text>		</g>
		<g id="shape133-52" transform="translate(127.055,-368.094)">
			<title>Nordic Middle Grey.133</title>
			<desc>Event with event ID NRF_ESB_EVENT_TX_SUCCESS</desc>
			<rect x="0" y="369.094" width="138.898" height="54.6402" class="st12"/>
			<text x="29.67" y="392.21" class="st5">Event with event ID <tspan x="7.5" dy="1.38em" class="st6">NRF_ESB_EVENT_TX_SUCCESS</tspan></text>		</g>
		<g id="shape136-56" transform="translate(310.921,-368.094)">
			<title>Nordic Middle Grey.136</title>
			<desc>Event with event ID NRF_ESB_EVENT_RX_RECEIVED (A payload is r...</desc>
			<rect x="0" y="369.094" width="179.669" height="54.6402" class="st12"/>
			<text x="50.06" y="380.21" class="st5">Event with event ID <tspan x="25.6" dy="1.2em" class="st6">NRF_ESB_EVENT_RX_RECEIVED </tspan><tspan
						x="8.67" dy="1.2em" class="st6">(</tspan>A payload is received in the ACK packet <tspan x="41.72"
						dy="1.38em" class="st6">and</tspan> is ready to be read)</text>		</g>
		<g id="shape138-62" transform="translate(344.051,-268.229)">
			<title>Nordic Middle Grey.138</title>
			<desc>If both events occur, the NRF_ESB_EVENT_TX_SUCCESS event alwa...</desc>
			<rect x="0" y="350.545" width="179.669" height="73.1891" class="st12"/>
			<text x="40.2" y="370.94" class="st5">If both events occur, the <tspan x="15.22" dy="1.2em" class="st6">NRF_ESB_EVENT_TX_SUCCESS event </tspan><tspan
						x="39.22" dy="1.2em" class="st6">always occurs before the </tspan><tspan x="12.94" dy="1.38em" class="st6">NRF_ESB_EVENT_RX_RECEIVED event</tspan></text>		</g>
		<g id="shape141-68" transform="translate(343.594,-237.602)">
			<title>Dynamic connector</title>
			<path d="M10.2 423.73 L10.56 423.73 L90.29 423.73 L90.29 393.11" class="st13"/>
		</g>
		<g id="shape142-74" transform="translate(310.464,-260.102)">
			<title>Dynamic connector.142</title>
			<path d="M0 413.53 L0 413.17 L0 333.81 L90.29 333.81 L90.29 315.74" class="st13"/>
		</g>
		<g id="shape143-79" transform="translate(310.464,-260.102)">
			<title>Dynamic connector.143</title>
			<path d="M0 413.53 L0 413.17 L0 334.75 L-113.96 334.75 L-113.96 315.74" class="st13"/>
		</g>
		<g id="shape144-84" transform="translate(205.835,-237.602)">
			<title>Dynamic connector.144</title>
			<path d="M-10.2 423.73 L-10.56 423.73 L-127.59 423.73 L-127.59 374.56" class="st13"/>
		</g>
		<g id="shape145-89" transform="translate(1,-1)">
			<title>Nordic Middle Grey.145</title>
			<desc>Preload a TX payload using nrf_esb_write_payload() (Optional)</desc>
			<rect x="0" y="369.094" width="138.898" height="54.6402" class="st12"/>
			<text x="15.08" y="380.21" class="st5">Preload a TX payload using <tspan x="19.26" dy="1.2em" class="st6">nrf_esb_write_payload()  </tspan><tspan
						x="48.85" dy="2.58em" class="st6">(Optional)</tspan></text>		</g>
		<g id="shape147-94" transform="translate(150.059,-111.64)">
			<title>Dynamic connector.147</title>
			<path d="M0 433.93 L0 434.29 L0 459.08 L-79.61 459.08 L-79.61 479.73" class="st13"/>
		</g>
		<g id="shape195-99" transform="translate(172.061,-1)">
			<title>Nordic Middle Grey.195</title>
			<desc>Event with event ID NRF_ESB_EVENT_RX_RECEIVED</desc>
			<rect x="0" y="369.094" width="138.898" height="54.6402" class="st12"/>
			<text x="29.67" y="392.21" class="st5">Event with event ID <tspan x="5.22" dy="1.38em" class="st6">NRF_ESB_EVENT_RX_RECEIVED</tspan></text>		</g>
		<g id="shape196-103" transform="translate(234.318,-111.64)">
			<title>Dynamic connector.196</title>
			<path d="M7.02 433.93 L7.02 434.29 L7.19 479.73" class="st13"/>
		</g>
		<g id="shape29-108" transform="translate(12.6339,-111.64)">
			<title>Sheet.29</title>
			<path d="M0 423.73 L512.49 423.73" class="st14"/>
		</g>
		<g id="shape25-111" transform="translate(12.6339,-215.102)">
			<title>Sheet.25</title>
			<path d="M0 423.73 L511.99 423.73" class="st14"/>
		</g>
	</g>
</svg>
