<?xml version="1.0" encoding="UTF-8" standalone="no"?>
<!DOCTYPE svg PUBLIC "-//W3C//DTD SVG 1.1//EN" "http://www.w3.org/Graphics/SVG/1.1/DTD/svg11.dtd">
<!-- Generated by Microsoft Visio, SVG Export gzp_user_data_exchange.svg Page-1 -->
<svg xmlns="http://www.w3.org/2000/svg" xmlns:xlink="http://www.w3.org/1999/xlink" xmlns:ev="http://www.w3.org/2001/xml-events"
		width="7.70614in" height="7.86942in" viewBox="0 0 554.842 566.598" xml:space="preserve" color-interpolation-filters="sRGB"
		class="st20">
	<style type="text/css">
	<![CDATA[
		.st1 {fill:#d9e1e2;stroke:none;stroke-width:1}
		.st2 {fill:#00a9ce;stroke:none;stroke-width:1}
		.st3 {fill:#ffffff;font-family:Calibri;font-size:0.833336em}
		.st4 {fill:none;stroke:none;stroke-width:1}
		.st5 {fill:#333f48;font-family:Calibri;font-size:1.16666em}
		.st6 {fill:#768692;stroke:none;stroke-width:1}
		.st7 {fill:#0033a0;stroke:none;stroke-width:1}
		.st8 {fill:#6ad1e3;stroke:none;stroke-width:1}
		.st9 {fill:#333f48;font-family:Calibri;font-size:0.833336em}
		.st10 {font-size:1em}
		.st11 {fill:#0077c8;stroke:none;stroke-width:1}
		.st12 {fill:#00a9ce;font-family:Calibri;font-size:0.833336em}
		.st13 {marker-start:url(#mrkr13-57);stroke:#00a9ce;stroke-linecap:butt;stroke-width:1}
		.st14 {fill:#00a9ce;fill-opacity:1;stroke:#00a9ce;stroke-opacity:1;stroke-width:0.28409090909091}
		.st15 {marker-end:url(#mrkr13-68);stroke:#333f48;stroke-linecap:butt;stroke-width:1}
		.st16 {fill:#333f48;fill-opacity:1;stroke:#333f48;stroke-opacity:1;stroke-width:0.28409090909091}
		.st17 {fill:#333f48;stroke:none;stroke-width:1}
		.st18 {fill:#ffffff;font-family:Calibri;font-size:0.75em}
		.st19 {fill:#333f48;font-family:Calibri;font-size:0.75em}
		.st20 {fill:none;fill-rule:evenodd;font-size:12px;overflow:visible;stroke-linecap:square;stroke-miterlimit:3}
	]]>
	</style>

	<defs id="Markers">
		<g id="lend13">
			<path d="M 3 1 L 0 0 L 3 -1 L 3 1 " style="stroke:none"/>
		</g>
		<marker id="mrkr13-57" class="st14" refX="10.2" orient="auto" markerUnits="strokeWidth" overflow="visible">
			<use xlink:href="#lend13" transform="scale(3.52) "/>
		</marker>
		<marker id="mrkr13-68" class="st16" refX="-10.56" orient="auto" markerUnits="strokeWidth" overflow="visible">
			<use xlink:href="#lend13" transform="scale(-3.52,-3.52) "/>
		</marker>
	</defs>
	<g>
		<title>Page-1</title>
		<g id="shape445-1" transform="translate(284.863,-44.0236)">
			<title>Nordic Light Grey.292</title>
			<rect x="0" y="45.0236" width="241.838" height="521.575" class="st1"/>
		</g>
		<g id="shape447-3" transform="translate(411.439,-509.419)">
			<title>Nordic Blueslate.290</title>
			<desc>System address</desc>
			<rect x="0" y="539.279" width="107.114" height="27.3191" class="st2"/>
			<text x="21.96" y="555.94" class="st3">System address</text>		</g>
		<g id="shape448-6" transform="translate(378.869,-541.429)">
			<title>Sheet.448</title>
			<desc>Host</desc>
			<rect x="0" y="549.591" width="62.9963" height="17.0079" class="st4"/>
			<text x="18.36" y="562.29" class="st5">Host</text>		</g>
		<g id="shape453-9" transform="translate(31.0467,-44.0236)">
			<title>Nordic Light Grey</title>
			<rect x="0" y="45.0236" width="241.838" height="521.575" class="st1"/>
		</g>
		<g id="shape456-11" transform="translate(113.861,-541.429)">
			<title>Nordic Light Grey.298</title>
			<desc>Device</desc>
			<rect x="0" y="549.591" width="62.9963" height="17.0079" class="st4"/>
			<text x="12.5" y="562.29" class="st5">Device</text>		</g>
		<g id="shape466-14" transform="translate(36.6843,-509.419)">
			<title>Nordic Blueslate.466</title>
			<desc>System address</desc>
			<rect x="0" y="539.279" width="107.114" height="27.3191" class="st2"/>
			<text x="21.96" y="555.94" class="st3">System address</text>		</g>
		<g id="shape687-17" transform="translate(158.906,-441.975)">
			<title>Nordic Blueslate.687</title>
			<desc>AES cipher</desc>
			<rect x="0" y="539.279" width="69.3644" height="27.3191" class="st6"/>
			<text x="13.17" y="555.94" class="st3">AES cipher</text>		</g>
		<g id="shape690-20" transform="translate(337.661,-441.975)">
			<title>Nordic Blueslate.690</title>
			<desc>AES cipher</desc>
			<rect x="0" y="539.279" width="66.1626" height="27.3191" class="st6"/>
			<text x="11.57" y="555.94" class="st3">AES cipher</text>		</g>
		<g id="shape693-23" transform="translate(44.0363,-441.975)">
			<title>Nordic Blueslate.693</title>
			<desc>Dynamic key</desc>
			<rect x="0" y="539.279" width="69.3644" height="27.3191" class="st7"/>
			<text x="8.91" y="555.94" class="st3">Dynamic key</text>		</g>
		<g id="shape694-26" transform="translate(181.413,-399.008)">
			<title>Circle.694</title>
			<path d="M0 554.42 A12.1751 12.1751 0 1 1 24.35 554.42 A12.1751 12.1751 0 0 1 0 554.42 Z" class="st6"/>
		</g>
		<g id="shape695-28" transform="translate(237.126,-388.071)">
			<title>Nordic Blueslate.695</title>
			<desc>Packet validation ID + Dynamic key</desc>
			<rect x="0" y="520.373" width="91.2239" height="46.2252" class="st8"/>
			<text x="5.43" y="534.49" class="st9">Packet validation ID<tspan x="43.12" dy="1.2em" class="st10">+</tspan><tspan
						x="19.84" dy="1.2em" class="st10">Dynamic key</tspan></text>		</g>
		<g id="shape696-33" transform="translate(358.567,-399.008)">
			<title>Circle.696</title>
			<path d="M0 554.42 A12.1751 12.1751 0 1 1 24.35 554.42 A12.1751 12.1751 0 0 1 0 554.42 Z" class="st6"/>
		</g>
		<g id="shape697-35" transform="translate(403.824,-397.524)">
			<title>Nordic Blueslate.697</title>
			<desc>Packet validation ID</desc>
			<rect x="0" y="539.279" width="70.4626" height="27.3191" class="st8"/>
			<text x="21.7" y="549.94" class="st9">Packet <tspan x="9.71" dy="1.2em" class="st10">validation ID</tspan></text>		</g>
		<g id="shape702-39" transform="translate(456.725,-361.909)">
			<title>Nordic Blueslate.702</title>
			<desc>Packet validation ID</desc>
			<rect x="0" y="539.279" width="61.8275" height="27.3191" class="st8"/>
			<text x="17.39" y="549.94" class="st9">Packet <tspan x="5.39" dy="1.2em" class="st10">validation ID</tspan></text>		</g>
		<g id="shape703-43" transform="translate(331.939,-289.791)">
			<title>Nordic Blueslate.703</title>
			<desc>User data</desc>
			<rect x="0" y="539.279" width="77.606" height="27.3191" class="st11"/>
			<text x="19.19" y="555.94" class="st3">User data</text>		</g>
		<g id="shape704-46" transform="translate(456.725,-289.791)">
			<title>Nordic Blueslate.704</title>
			<desc>User data</desc>
			<rect x="0" y="539.279" width="61.8275" height="27.3191" class="st11"/>
			<text x="11.3" y="555.94" class="st3">User data</text>		</g>
		<g id="shape705-49" transform="translate(207.497,-19.8504)">
			<title>Sheet.705</title>
			<desc>Using system address</desc>
			<rect x="0" y="546.598" width="113.386" height="20" class="st4"/>
			<text x="13.02" y="559.6" class="st12">Using system address</text>		</g>
		<g id="shape706-52" transform="translate(320.883,-29.8504)">
			<title>Dynamic connector.706</title>
			<path d="M10.2 566.6 L10.56 566.6 L102.91 566.6 L102.91 552.43" class="st13"/>
		</g>
		<g id="shape707-58" transform="translate(119.272,-44.0236)">
			<title>Dynamic connector.707</title>
			<path d="M0 576.8 L0 577.16 L0 580.77 L88.23 580.77" class="st13"/>
		</g>
		<g id="shape709-63" transform="translate(186.501,-441.975)">
			<title>Dynamic connector.709</title>
			<path d="M7.09 566.6 L7.09 574.66" class="st15"/>
		</g>
		<g id="shape711-69" transform="translate(205.763,-404.097)">
			<title>Dynamic connector.711</title>
			<path d="M0 559.51 L20.8 559.51" class="st15"/>
		</g>
		<g id="shape718-74" transform="translate(363.656,-441.975)">
			<title>Dynamic connector.718</title>
			<path d="M7.09 566.6 L7.09 574.66" class="st15"/>
		</g>
		<g id="shape719-79" transform="translate(328.35,-404.097)">
			<title>Dynamic connector.719</title>
			<path d="M0 559.51 L19.66 559.51" class="st15"/>
		</g>
		<g id="shape720-84" transform="translate(363.656,-399.008)">
			<title>Dynamic connector.720</title>
			<path d="M7.09 566.6 L7.09 637.94" class="st15"/>
		</g>
		<g id="shape722-89" transform="translate(409.545,-296.364)">
			<title>Dynamic connector.722</title>
			<path d="M0 559.51 L36.62 559.51" class="st15"/>
		</g>
		<g id="shape723-94" transform="translate(439.055,-324.695)">
			<title>Dynamic connector.723</title>
			<path d="M0 566.6 L0 587.84 L7.11 587.84" class="st15"/>
		</g>
		<g id="shape724-99" transform="translate(456.725,-375.568)">
			<title>Dynamic connector.724</title>
			<path d="M0 566.6 L-17.67 566.6 L-17.67 581.44" class="st15"/>
		</g>
		<g id="shape725-104" transform="translate(446.142,-397.524)">
			<title>Dynamic connector.725</title>
			<path d="M-7.09 566.6 L-7.09 603.39" class="st15"/>
		</g>
		<g id="shape726-109" transform="translate(382.917,-404.097)">
			<title>Dynamic connector.726</title>
			<path d="M0 559.51 L10.35 559.51" class="st15"/>
		</g>
		<g id="group728-114" transform="translate(426.47,-324.543)">
			<title>Sheet.728</title>
			<g id="shape698-115" transform="translate(-388.06,165.801) rotate(-45)">
				<title>Square.231</title>
				<rect x="0" y="548.586" width="18.0124" height="18.0124" class="st6"/>
			</g>
			<g id="shape699-117" transform="translate(5.59242,-6.63676)">
				<title>Sheet.699</title>
				<desc>=</desc>
				<rect x="0" y="554.096" width="13.2876" height="12.5026" class="st4"/>
				<text x="4.15" y="563.35" class="st3">=</text>			</g>
		</g>
		<g id="shape729-120" transform="translate(44.0363,-398.295)">
			<title>Nordic Blueslate.729</title>
			<desc>Packet validation ID</desc>
			<rect x="0" y="540.822" width="70.4626" height="25.7761" class="st8"/>
			<text x="21.7" y="550.71" class="st9">Packet <tspan x="9.71" dy="1.2em" class="st10">validation ID</tspan></text>		</g>
		<g id="shape731-124" transform="translate(412.323,-303.844)">
			<title>Sheet.731</title>
			<desc>Yes</desc>
			<rect x="0" y="550.145" width="25.1707" height="16.4535" class="st4"/>
			<text x="5.71" y="561.37" class="st9">Yes</text>		</g>
		<g id="shape1480-127" transform="translate(44.0363,-362.817)">
			<title>Nordic Blueslate.1480</title>
			<desc>User data</desc>
			<rect x="0" y="540.822" width="70.4626" height="25.7761" class="st11"/>
			<text x="15.61" y="556.71" class="st3">User data</text>		</g>
		<g id="shape1481-130" transform="translate(456.725,-444.614)">
			<title>Nordic Blueslate.1481</title>
			<desc>Dynamic key</desc>
			<rect x="0" y="539.279" width="61.8275" height="27.3191" class="st7"/>
			<text x="5.14" y="555.94" class="st3">Dynamic key</text>		</g>
		<g id="shape1482-133" transform="translate(480.935,-327.757)">
			<title>Nordic Blueslate.1482</title>
			<desc>Discard</desc>
			<rect x="0" y="547.25" width="37.6173" height="19.3481" class="st17"/>
			<text x="5.26" y="559.62" class="st18">Discard</text>		</g>
		<g id="shape1483-136" transform="translate(451.792,-330.345)">
			<title>Dynamic connector.1483</title>
			<path d="M0 559.51 L18.58 559.51" class="st15"/>
		</g>
		<g id="shape1484-141" transform="translate(449.879,-335.309)">
			<title>Sheet.1484</title>
			<desc>No</desc>
			<rect x="0" y="550.145" width="21.4228" height="16.4535" class="st4"/>
			<text x="4.85" y="561.37" class="st9">No</text>		</g>
		<g id="shape1487-144" transform="translate(158.619,-216.827)">
			<title>Nordic Blueslate.1487</title>
			<desc>AES cipher</desc>
			<rect x="0" y="539.279" width="69.9374" height="27.3191" class="st6"/>
			<text x="13.46" y="555.94" class="st3">AES cipher</text>		</g>
		<g id="shape1488-147" transform="translate(158.906,-259.692)">
			<title>Nordic Blueslate.1488</title>
			<desc>Session token*</desc>
			<rect x="0" y="543.486" width="69.3644" height="23.1126" class="st6"/>
			<text x="4.25" y="558.04" class="st3">Session token*</text>		</g>
		<g id="shape1491-150" transform="translate(44.0363,-216.827)">
			<title>Nordic Blueslate.1491</title>
			<desc>Dynamic key</desc>
			<rect x="0" y="539.279" width="70.4626" height="27.3191" class="st7"/>
			<text x="9.46" y="555.94" class="st3">Dynamic key</text>		</g>
		<g id="shape1492-153" transform="translate(181.413,-175.573)">
			<title>Circle.1492</title>
			<path d="M0 554.42 A12.1751 12.1751 0 1 1 24.35 554.42 A12.1751 12.1751 0 0 1 0 554.42 Z" class="st6"/>
		</g>
		<g id="shape1494-155" transform="translate(358.567,-175.573)">
			<title>Circle.1494</title>
			<path d="M0 554.42 A12.1751 12.1751 0 1 1 24.35 554.42 A12.1751 12.1751 0 0 1 0 554.42 Z" class="st6"/>
		</g>
		<g id="shape1495-157" transform="translate(448.09,-174.089)">
			<title>Nordic Blueslate.1495</title>
			<desc>Packet validation ID</desc>
			<rect x="0" y="539.279" width="70.4626" height="27.3191" class="st8"/>
			<text x="21.7" y="549.94" class="st9">Packet <tspan x="9.71" dy="1.2em" class="st10">validation ID</tspan></text>		</g>
		<g id="shape1496-161" transform="translate(314.127,-110.513)">
			<title>Nordic Blueslate.1496</title>
			<desc>Pseudo random number generator</desc>
			<rect x="0" y="539.279" width="91.2239" height="27.3191" class="st6"/>
			<text x="13.54" y="549.94" class="st3">Pseudo random <tspan x="8.23" dy="1.2em" class="st10">number generator</tspan></text>		</g>
		<g id="shape1516-165" transform="translate(90.779,-174.86)">
			<title>Nordic Blueslate.1516</title>
			<desc>Packet validation ID</desc>
			<rect x="0" y="540.822" width="69.486" height="25.7761" class="st8"/>
			<text x="21.22" y="550.71" class="st9">Packet <tspan x="9.22" dy="1.2em" class="st10">validation ID</tspan></text>		</g>
		<g id="shape1519-169" transform="translate(456.725,-216.827)">
			<title>Nordic Blueslate.1519</title>
			<desc>Dynamic key</desc>
			<rect x="0" y="539.279" width="61.8275" height="27.3191" class="st7"/>
			<text x="5.14" y="555.94" class="st3">Dynamic key</text>		</g>
		<g id="shape1498-172" transform="translate(35.4138,-52.0942)">
			<title>Nordic Blueslate.1498</title>
			<desc>Success</desc>
			<rect x="0" y="550.902" width="39.9043" height="15.6964" class="st11"/>
			<text x="4.4" y="561.75" class="st3">Success</text>		</g>
		<g id="group1513-175" transform="translate(70.5611,-97.6246)">
			<title>Sheet.1513</title>
			<g id="shape1514-176" transform="translate(-388.06,165.801) rotate(-45)">
				<title>Square.231</title>
				<rect x="0" y="548.586" width="18.0124" height="18.0124" class="st6"/>
			</g>
			<g id="shape1515-178" transform="translate(5.59242,-6.63676)">
				<title>Sheet.1515</title>
				<desc>=</desc>
				<rect x="0" y="554.096" width="13.2876" height="12.5026" class="st4"/>
				<text x="4.15" y="563.35" class="st3">=</text>			</g>
		</g>
		<g id="shape1517-181" transform="translate(53.6086,-85.6233)">
			<title>Sheet.1517</title>
			<desc>Yes</desc>
			<rect x="0" y="550.145" width="25.1707" height="16.4535" class="st4"/>
			<text x="5.71" y="561.37" class="st9">Yes</text>		</g>
		<g id="shape1518-184" transform="translate(48.4034,-143.605)">
			<title>Nordic Blueslate.1518</title>
			<desc>Packet validation ID</desc>
			<rect x="0" y="540.822" width="69.486" height="25.7761" class="st8"/>
			<text x="21.22" y="550.71" class="st9">Packet <tspan x="9.22" dy="1.2em" class="st10">validation ID</tspan></text>		</g>
		<g id="shape1520-188" transform="translate(90.9747,-52.0942)">
			<title>Nordic Blueslate.1520</title>
			<desc>Failed</desc>
			<rect x="0" y="550.902" width="39.9043" height="15.6964" class="st17"/>
			<text x="7.85" y="561.75" class="st3">Failed</text>		</g>
		<g id="shape1522-191" transform="translate(83.1464,-85.6803)">
			<title>Sheet.1522</title>
			<desc>No</desc>
			<rect x="0" y="550.145" width="21.4228" height="16.4535" class="st4"/>
			<text x="4.85" y="561.37" class="st9">No</text>		</g>
		<g id="shape1524-194" transform="translate(76.0598,-143.605)">
			<title>Dynamic connector.1524</title>
			<path d="M7.09 566.6 L7.09 576.39" class="st15"/>
		</g>
		<g id="shape1525-199" transform="translate(83.1464,-97.7759)">
			<title>Dynamic connector.1525</title>
			<path d="M0 566.6 L0 578.75 L-27.78 578.75 L-27.78 586.02" class="st15"/>
		</g>
		<g id="shape1526-204" transform="translate(83.1464,-97.7759)">
			<title>Dynamic connector.1526</title>
			<path d="M0 566.6 L0 578.69 L27.78 578.69 L27.78 586.02" class="st15"/>
		</g>
		<g id="shape1528-209" transform="translate(125.522,-174.86)">
			<title>Dynamic connector.1528</title>
			<path d="M0 566.6 L0 630.95 L-19.08 630.95" class="st15"/>
		</g>
		<g id="shape1529-214" transform="translate(181.413,-180.662)">
			<title>Dynamic connector.1529</title>
			<path d="M0 559.51 L-10.59 559.51" class="st15"/>
		</g>
		<g id="shape1530-219" transform="translate(186.501,-216.827)">
			<title>Dynamic connector.1530</title>
			<path d="M7.09 566.6 L7.09 572.94" class="st15"/>
		</g>
		<g id="shape1531-224" transform="translate(114.499,-223.4)">
			<title>Dynamic connector.1531</title>
			<path d="M0 559.51 L33.56 559.51" class="st15"/>
		</g>
		<g id="shape1532-229" transform="translate(186.501,-259.692)">
			<title>Dynamic connector.1532</title>
			<path d="M7.09 566.6 L7.09 571.58" class="st15"/>
		</g>
		<g id="group1533-234" transform="translate(231.278,-163.37)">
			<title>Sheet.1533</title>
			<g id="shape1493-235" transform="translate(0,-24.3781)">
				<title>Nordic Blueslate.1493</title>
				<desc>Packet validation ID</desc>
				<rect x="0" y="543.486" width="91.2239" height="23.1126" class="st8"/>
				<text x="5.43" y="558.04" class="st9">Packet validation ID</text>			</g>
			<g id="shape1523-238">
				<title>Nordic Blueslate.1523</title>
				<desc>Session token</desc>
				<rect x="0" y="543.486" width="91.2239" height="23.1126" class="st6"/>
				<text x="17.67" y="558.04" class="st3">Session token</text>			</g>
		</g>
		<g id="shape1534-241" transform="translate(231.278,-180.662)">
			<title>Dynamic connector.1534</title>
			<path d="M0 559.51 L-14.95 559.51" class="st15"/>
		</g>
		<g id="shape1535-246" transform="translate(332.833,-216.827)">
			<title>Nordic Blueslate.1535</title>
			<desc>AES cipher</desc>
			<rect x="0" y="539.279" width="75.8191" height="27.3191" class="st6"/>
			<text x="16.4" y="555.94" class="st3">AES cipher</text>		</g>
		<g id="shape1536-249" transform="translate(332.833,-259.692)">
			<title>Nordic Blueslate.1536</title>
			<desc>Session token*</desc>
			<rect x="0" y="543.486" width="75.8191" height="23.1126" class="st6"/>
			<text x="7.48" y="558.04" class="st3">Session token*</text>		</g>
		<g id="shape1539-252" transform="translate(363.656,-216.827)">
			<title>Dynamic connector.1539</title>
			<path d="M7.09 566.6 L7.09 572.94" class="st15"/>
		</g>
		<g id="shape1540-257" transform="translate(363.656,-259.692)">
			<title>Dynamic connector.1540</title>
			<path d="M7.09 566.6 L7.09 571.58" class="st15"/>
		</g>
		<g id="shape1542-262" transform="translate(456.725,-223.4)">
			<title>Dynamic connector.1542</title>
			<path d="M0 559.51 L-37.51 559.51" class="st15"/>
		</g>
		<g id="shape1543-267" transform="translate(448.09,-180.662)">
			<title>Dynamic connector.1543</title>
			<path d="M0 559.51 L-54.61 559.51" class="st15"/>
		</g>
		<g id="shape1544-272" transform="translate(358.567,-180.662)">
			<title>Dynamic connector.1544</title>
			<path d="M0 559.51 L-25.51 559.51" class="st15"/>
		</g>
		<g id="shape1545-277" transform="translate(359.739,-137.832)">
			<title>Dynamic connector.1545</title>
			<path d="M0 566.6 L0 529.5 L-26.68 529.5" class="st15"/>
		</g>
		<g id="shape1548-282" transform="translate(158.906,-485.031)">
			<title>Nordic Blueslate.1548</title>
			<desc>Session token*</desc>
			<rect x="0" y="543.486" width="69.3644" height="23.1126" class="st6"/>
			<text x="4.25" y="558.04" class="st3">Session token*</text>		</g>
		<g id="shape1549-285" transform="translate(336.06,-485.031)">
			<title>Nordic Blueslate.1549</title>
			<desc>Session token*</desc>
			<rect x="0" y="543.486" width="69.3644" height="23.1126" class="st6"/>
			<text x="4.25" y="558.04" class="st3">Session token*</text>		</g>
		<g id="shape1550-288" transform="translate(186.501,-485.031)">
			<title>Dynamic connector.1550</title>
			<path d="M7.09 566.6 L7.09 571.78" class="st15"/>
		</g>
		<g id="shape1551-293" transform="translate(363.656,-485.031)">
			<title>Dynamic connector.1551</title>
			<path d="M7.09 566.6 L7.09 571.78" class="st15"/>
		</g>
		<g id="shape1552-298" transform="translate(456.725,-449.868)">
			<title>Dynamic connector.1552</title>
			<path d="M0 559.51 L-42.34 559.51" class="st15"/>
		</g>
		<g id="shape1553-303" transform="translate(113.401,-448.548)">
			<title>Dynamic connector.1553</title>
			<path d="M0 559.51 L34.94 559.51" class="st15"/>
		</g>
		<g id="shape1554-308" transform="translate(114.499,-404.097)">
			<title>Dynamic connector.1554</title>
			<path d="M0 559.51 L56.35 559.51" class="st15"/>
		</g>
		<g id="shape1856-313" transform="translate(518.553,-296.364)">
			<title>Dynamic connector.1856</title>
			<path d="M0 559.51 L14.6 559.51" class="st15"/>
		</g>
		<g id="shape1857-318" transform="translate(114.499,-375.705)">
			<title>Dynamic connector.1857</title>
			<path d="M0 566.6 L19.01 566.6 L19.01 531.12 L56.35 531.12" class="st15"/>
		</g>
		<g id="shape1858-323" transform="translate(19.3981,-1)">
			<title>Sheet.1858</title>
			<desc>*Session token denotes the previously received or generated s...</desc>
			<rect x="0" y="546.598" width="524.312" height="20" class="st4"/>
			<text x="17.66" y="558.85" class="st19">*Session token denotes the previously received or generated session token, either during key exchange or during user data exchange.</text>		</g>
		<g id="shape1859-326" transform="translate(19.3981,-368.255)">
			<title>Dynamic connector.1859</title>
			<path d="M0 559.51 L14.08 559.51" class="st15"/>
		</g>
		<g id="shape1860-331" transform="translate(158.619,-110.513)">
			<title>Nordic Blueslate.1860</title>
			<desc>New session token</desc>
			<rect x="0" y="539.279" width="91.2239" height="27.3191" class="st6"/>
			<text x="7.6" y="555.94" class="st3">New session token</text>		</g>
		<g id="shape1861-334" transform="translate(231.278,-174.927)">
			<title>Dynamic connector.1861</title>
			<path d="M0 566.6 L-27.05 566.6 L-27.05 593.13" class="st15"/>
		</g>
	</g>
</svg>
