<?xml version="1.0" encoding="UTF-8" standalone="no"?>
<!DOCTYPE svg PUBLIC "-//W3C//DTD SVG 1.1//EN" "http://www.w3.org/Graphics/SVG/1.1/DTD/svg11.dtd">
<!-- Generated by Microsoft Visio, SVG Export gzp_host_id_exchange.svg Page-1 -->
<svg xmlns="http://www.w3.org/2000/svg" xmlns:xlink="http://www.w3.org/1999/xlink" xmlns:ev="http://www.w3.org/2001/xml-events"
		width="7.36843in" height="5.28755in" viewBox="0 0 530.527 380.704" xml:space="preserve" color-interpolation-filters="sRGB"
		class="st17">
	<style type="text/css">
	<![CDATA[
		.st1 {fill:#d9e1e2;stroke:none;stroke-width:1}
		.st2 {fill:#00a9ce;stroke:none;stroke-width:1}
		.st3 {fill:#ffffff;font-family:Calibri;font-size:1.00001em}
		.st4 {fill:none;stroke:none;stroke-width:1}
		.st5 {fill:#333f48;font-family:Calibri;font-size:1.16666em}
		.st6 {fill:#0077c8;stroke:none;stroke-width:1}
		.st7 {fill:#0033a0;stroke:none;stroke-width:1}
		.st8 {fill:#768692;stroke:none;stroke-width:1}
		.st9 {font-size:1em}
		.st10 {fill:none;stroke:#768692;stroke-dasharray:7,5;stroke-width:1}
		.st11 {marker-end:url(#mrkr13-56);stroke:#333f48;stroke-linecap:butt;stroke-width:1}
		.st12 {fill:#333f48;fill-opacity:1;stroke:#333f48;stroke-opacity:1;stroke-width:0.28409090909091}
		.st13 {fill:#333f48;font-family:Calibri;font-size:1.00001em}
		.st14 {fill:#00a9ce;font-family:Calibri;font-size:1.00001em}
		.st15 {marker-start:url(#mrkr13-119);stroke:#00a9ce;stroke-linecap:butt;stroke-width:1}
		.st16 {fill:#00a9ce;fill-opacity:1;stroke:#00a9ce;stroke-opacity:1;stroke-width:0.28409090909091}
		.st17 {fill:none;fill-rule:evenodd;font-size:12px;overflow:visible;stroke-linecap:square;stroke-miterlimit:3}
	]]>
	</style>

	<defs id="Markers">
		<g id="lend13">
			<path d="M 3 1 L 0 0 L 3 -1 L 3 1 " style="stroke:none"/>
		</g>
		<marker id="mrkr13-56" class="st12" refX="-10.56" orient="auto" markerUnits="strokeWidth" overflow="visible">
			<use xlink:href="#lend13" transform="scale(-3.52,-3.52) "/>
		</marker>
		<marker id="mrkr13-119" class="st16" refX="10.2" orient="auto" markerUnits="strokeWidth" overflow="visible">
			<use xlink:href="#lend13" transform="scale(3.52) "/>
		</marker>
	</defs>
	<g>
		<title>Page-1</title>
		<g id="shape445-1" transform="translate(281.526,-33.8772)">
			<title>Nordic Light Grey.292</title>
			<rect x="0" y="34.8772" width="246.291" height="345.827" class="st1"/>
		</g>
		<g id="shape447-3" transform="translate(385.89,-313.526)">
			<title>Nordic Blueslate.290</title>
			<desc>System address</desc>
			<rect x="0" y="352.464" width="113.386" height="28.2396" class="st2"/>
			<text x="18.78" y="370.18" class="st3">System address</text>		</g>
		<g id="shape448-6" transform="translate(371.329,-355.337)">
			<title>Sheet.448</title>
			<desc>Host</desc>
			<rect x="0" y="363.696" width="66.685" height="17.0079" class="st4"/>
			<text x="20.21" y="376.4" class="st5">Host</text>		</g>
		<g id="shape449-9" transform="translate(385.89,-239.04)">
			<title>Nordic Blueslate.312</title>
			<desc>Host ID</desc>
			<rect x="0" y="352.464" width="113.386" height="28.2396" class="st6"/>
			<text x="38.87" y="370.18" class="st3">Host ID</text>		</g>
		<g id="shape451-12" transform="translate(385.89,-276.742)">
			<title>Nordic Lake.314</title>
			<desc>Secret key</desc>
			<rect x="0" y="353.384" width="113.386" height="27.3201" class="st7"/>
			<text x="31.54" y="370.64" class="st3">Secret key</text>		</g>
		<g id="shape453-15" transform="translate(1,-33.8772)">
			<title>Nordic Light Grey</title>
			<rect x="0" y="34.8772" width="246.291" height="345.827" class="st1"/>
		</g>
		<g id="shape456-17" transform="translate(90.8028,-351.357)">
			<title>Nordic Light Grey.298</title>
			<desc>Device</desc>
			<rect x="0" y="363.696" width="66.685" height="17.0079" class="st4"/>
			<text x="14.34" y="376.4" class="st5">Device</text>		</g>
		<g id="shape457-20" transform="translate(34.1099,-275.375)">
			<title>Nordic Lake.311</title>
			<desc>Secret key</desc>
			<rect x="0" y="353.384" width="113.386" height="27.3201" class="st7"/>
			<text x="31.54" y="370.64" class="st3">Secret key</text>		</g>
		<g id="shape466-23" transform="translate(34.1099,-313.526)">
			<title>Nordic Blueslate.466</title>
			<desc>System address</desc>
			<rect x="0" y="352.464" width="113.386" height="28.2396" class="st2"/>
			<text x="18.78" y="370.18" class="st3">System address</text>		</g>
		<g id="shape467-26" transform="translate(27.5798,-49.1385)">
			<title>Nordic Blueslate.467</title>
			<desc>Host ID</desc>
			<rect x="0" y="352.464" width="96.5655" height="28.2396" class="st6"/>
			<text x="30.46" y="370.18" class="st3">Host ID</text>		</g>
		<g id="shape468-29" transform="translate(212.051,-49.1385)">
			<title>Nordic Blueslate.468</title>
			<desc>Host ID</desc>
			<rect x="0" y="352.464" width="96.5655" height="28.2396" class="st8"/>
			<text x="30.46" y="370.18" class="st3">Host ID</text>		</g>
		<g id="shape469-32" transform="translate(154.776,-49.9361)">
			<title>Circle.229</title>
			<path d="M0 367.38 A13.3223 13.3223 0 0 1 26.64 367.38 A13.3223 13.3223 0 1 1 0 367.38 Z" class="st8"/>
		</g>
		<g id="shape470-34" transform="translate(353.437,-49.9361)">
			<title>Circle.470</title>
			<path d="M0 367.38 A13.3223 13.3223 0 0 1 26.64 367.38 A13.3223 13.3223 0 1 1 0 367.38 Z" class="st8"/>
		</g>
		<g id="shape471-36" transform="translate(130.187,-120.872)">
			<title>Nordic Blueslate.471</title>
			<desc>AES cipher</desc>
			<rect x="0" y="352.464" width="75.8237" height="28.2396" class="st8"/>
			<text x="12.1" y="370.18" class="st3">AES cipher</text>		</g>
		<g id="shape472-39" transform="translate(328.847,-120.872)">
			<title>Nordic Blueslate.472</title>
			<desc>AES cipher</desc>
			<rect x="0" y="352.464" width="75.8237" height="28.2396" class="st8"/>
			<text x="12.1" y="370.18" class="st3">AES cipher</text>		</g>
		<g id="shape473-42" transform="translate(229.945,-185.86)">
			<title>Nordic Blueslate.473</title>
			<desc>Session token</desc>
			<rect x="0" y="342.442" width="89.749" height="38.2615" class="st8"/>
			<text x="11.35" y="365.17" class="st3">Session token</text>		</g>
		<g id="shape474-45" transform="translate(123.224,-185.86)">
			<title>Nordic Blueslate.474</title>
			<desc>True random generator</desc>
			<rect x="0" y="342.442" width="89.749" height="38.2615" class="st8"/>
			<text x="13.14" y="357.97" class="st3">True random <tspan x="20.7" dy="1.2em" class="st9">generator</tspan></text>		</g>
		<g id="shape488-49" transform="translate(3.13948,-171.58)">
			<title>Nordic Light Grey.488</title>
			<path d="M0 380.7 L526.39 380.7 L0 380.7 Z" class="st10"/>
		</g>
		<g id="shape475-51" transform="translate(442.583,-239.04)">
			<title>Dynamic connector</title>
			<path d="M0 380.7 L0 556.49 L-51.94 556.49" class="st11"/>
		</g>
		<g id="shape476-57" transform="translate(385.89,-290.402)">
			<title>Dynamic connector.476</title>
			<path d="M0 380.7 L-19.13 380.7 L-19.13 511.43" class="st11"/>
		</g>
		<g id="shape477-62" transform="translate(274.819,-185.86)">
			<title>Dynamic connector.477</title>
			<path d="M0 380.7 L0 431.57 L43.47 431.57" class="st11"/>
		</g>
		<g id="shape478-67" transform="translate(353.437,-56.1717)">
			<title>Dynamic connector.478</title>
			<path d="M0 373.62 L-34.26 373.62" class="st11"/>
		</g>
		<g id="shape479-72" transform="translate(359.673,-120.872)">
			<title>Dynamic connector.479</title>
			<path d="M7.09 380.7 L7.09 414.44" class="st11"/>
		</g>
		<g id="shape480-77" transform="translate(212.973,-197.904)">
			<title>Dynamic connector.480</title>
			<path d="M0 373.62 L6.41 373.62" class="st11"/>
		</g>
		<g id="shape481-82" transform="translate(161.012,-185.86)">
			<title>Dynamic connector.481</title>
			<path d="M7.09 380.7 L7.09 406.89" class="st11"/>
		</g>
		<g id="shape482-87" transform="translate(90.8028,-275.375)">
			<title>Dynamic connector.482</title>
			<path d="M0 380.7 L0 521.09 L28.82 521.09" class="st11"/>
		</g>
		<g id="shape483-92" transform="translate(161.012,-120.872)">
			<title>Dynamic connector.483</title>
			<path d="M7.09 380.7 L7.09 414.44" class="st11"/>
		</g>
		<g id="shape484-97" transform="translate(154.776,-56.1717)">
			<title>Dynamic connector.484</title>
			<path d="M0 373.62 L-20.07 373.62" class="st11"/>
		</g>
		<g id="shape485-102" transform="translate(212.051,-56.1717)">
			<title>Dynamic connector.485</title>
			<path d="M0 373.62 L-20.07 373.62" class="st11"/>
		</g>
		<g id="shape489-107" transform="translate(4.75295,-190.871)">
			<title>Sheet.489</title>
			<desc>Optional: User validation</desc>
			<rect x="0" y="352.464" width="82.583" height="28.2396" class="st4"/>
			<text x="4" y="362.98" class="st13">Optional: <tspan x="4" dy="1.2em" class="st9">User validation</tspan></text>		</g>
		<g id="shape493-111" transform="translate(211.911,-1.2)">
			<title>Sheet.493</title>
			<desc>Using system address</desc>
			<rect x="0" y="360.704" width="113.386" height="20" class="st4"/>
			<text x="4.28" y="374.3" class="st14">Using system address</text>		</g>
		<g id="shape495-114" transform="translate(325.297,-11.2)">
			<title>Dynamic connector.495</title>
			<path d="M10.2 380.7 L10.56 380.7 L101.26 380.7 L101.26 358.03" class="st15"/>
		</g>
		<g id="shape497-120" transform="translate(106.456,-33.8772)">
			<title>Dynamic connector.497</title>
			<path d="M0 390.9 L0 391.26 L0 403.38 L105.46 403.38" class="st15"/>
		</g>
	</g>
</svg>
