<?xml version="1.0" encoding="UTF-8" standalone="no"?>
<!DOCTYPE svg PUBLIC "-//W3C//DTD SVG 1.1//EN" "http://www.w3.org/Graphics/SVG/1.1/DTD/svg11.dtd">
<!-- Generated by Microsoft Visio, SVG Export gzp_key_exchange.svg Page-1 -->
<svg xmlns="http://www.w3.org/2000/svg" xmlns:xlink="http://www.w3.org/1999/xlink" xmlns:ev="http://www.w3.org/2001/xml-events"
		width="7.31496in" height="4.58108in" viewBox="0 0 526.677 329.838" xml:space="preserve" color-interpolation-filters="sRGB"
		class="st18">
	<style type="text/css">
	<![CDATA[
		.st1 {fill:#d9e1e2;stroke:none;stroke-width:1}
		.st2 {fill:#00a9ce;stroke:none;stroke-width:1}
		.st3 {fill:#ffffff;font-family:Calibri;font-size:0.833336em}
		.st4 {fill:none;stroke:none;stroke-width:1}
		.st5 {fill:#333f48;font-family:Calibri;font-size:1.16666em}
		.st6 {fill:#0077c8;stroke:none;stroke-width:1}
		.st7 {fill:#768692;stroke:none;stroke-width:1}
		.st8 {font-size:1em}
		.st9 {fill:#0033a0;stroke:none;stroke-width:1}
		.st10 {fill:#6ad1e3;stroke:none;stroke-width:1}
		.st11 {fill:#333f48;font-family:Calibri;font-size:0.833336em}
		.st12 {fill:#00a9ce;font-family:Calibri;font-size:1.00001em}
		.st13 {marker-start:url(#mrkr13-74);stroke:#00a9ce;stroke-linecap:butt;stroke-width:1}
		.st14 {fill:#00a9ce;fill-opacity:1;stroke:#00a9ce;stroke-opacity:1;stroke-width:0.28409090909091}
		.st15 {marker-end:url(#mrkr13-85);stroke:#333f48;stroke-linecap:butt;stroke-width:1}
		.st16 {fill:#333f48;fill-opacity:1;stroke:#333f48;stroke-opacity:1;stroke-width:0.28409090909091}
		.st17 {fill:#ffffff;font-family:Calibri;font-size:1.16666em}
		.st18 {fill:none;fill-rule:evenodd;font-size:12px;overflow:visible;stroke-linecap:square;stroke-miterlimit:3}
	]]>
	</style>

	<defs id="Markers">
		<g id="lend13">
			<path d="M 3 1 L 0 0 L 3 -1 L 3 1 " style="stroke:none"/>
		</g>
		<marker id="mrkr13-74" class="st14" refX="10.2" orient="auto" markerUnits="strokeWidth" overflow="visible">
			<use xlink:href="#lend13" transform="scale(3.52) "/>
		</marker>
		<marker id="mrkr13-85" class="st16" refX="-10.56" orient="auto" markerUnits="strokeWidth" overflow="visible">
			<use xlink:href="#lend13" transform="scale(-3.52,-3.52) "/>
		</marker>
	</defs>
	<g>
		<title>Page-1</title>
		<g id="shape445-1" transform="translate(259.86,-31.2)">
			<title>Nordic Light Grey.292</title>
			<rect x="0" y="32.2" width="265.817" height="297.638" class="st1"/>
		</g>
		<g id="shape447-3" transform="translate(403.666,-268.627)">
			<title>Nordic Blueslate.290</title>
			<desc>System address</desc>
			<rect x="0" y="301.598" width="113.386" height="28.2396" class="st2"/>
			<text x="25.1" y="318.72" class="st3">System address</text>		</g>
		<g id="shape448-6" transform="translate(369.189,-304.669)">
			<title>Sheet.448</title>
			<desc>Host</desc>
			<rect x="0" y="312.83" width="66.685" height="17.0079" class="st4"/>
			<text x="20.21" y="325.53" class="st5">Host</text>		</g>
		<g id="shape449-9" transform="translate(403.666,-194.188)">
			<title>Nordic Blueslate.312</title>
			<desc>Host ID</desc>
			<rect x="0" y="301.598" width="74.5886" height="28.2396" class="st6"/>
			<text x="22.45" y="318.72" class="st3">Host ID</text>		</g>
		<g id="shape453-12" transform="translate(1,-31.2)">
			<title>Nordic Light Grey</title>
			<rect x="0" y="32.2" width="234.731" height="297.638" class="st1"/>
		</g>
		<g id="shape456-14" transform="translate(88.6633,-304.669)">
			<title>Nordic Light Grey.298</title>
			<desc>Device</desc>
			<rect x="0" y="312.83" width="66.685" height="17.0079" class="st4"/>
			<text x="14.34" y="325.53" class="st5">Device</text>		</g>
		<g id="shape466-17" transform="translate(6.96768,-268.627)">
			<title>Nordic Blueslate.466</title>
			<desc>System address</desc>
			<rect x="0" y="301.598" width="113.386" height="28.2396" class="st2"/>
			<text x="25.1" y="318.72" class="st3">System address</text>		</g>
		<g id="shape467-20" transform="translate(27.2634,-194.188)">
			<title>Nordic Blueslate.467</title>
			<desc>Host ID</desc>
			<rect x="0" y="301.598" width="74.5886" height="28.2396" class="st6"/>
			<text x="22.45" y="318.72" class="st3">Host ID</text>		</g>
		<g id="shape687-23" transform="translate(122.516,-194.188)">
			<title>Nordic Blueslate.687</title>
			<desc>AES cipher</desc>
			<rect x="0" y="301.598" width="58.3161" height="28.2396" class="st7"/>
			<text x="7.65" y="318.72" class="st3">AES cipher</text>		</g>
		<g id="shape688-26" transform="translate(201.004,-245.2)">
			<title>Nordic Blueslate.688</title>
			<desc>Session token</desc>
			<rect x="0" y="291.576" width="89.749" height="38.2615" class="st7"/>
			<text x="16.94" y="313.71" class="st3">Session token</text>		</g>
		<g id="shape689-29" transform="translate(306.253,-245.2)">
			<title>Nordic Blueslate.689</title>
			<desc>Pseudo random generator</desc>
			<rect x="0" y="291.576" width="79.5562" height="38.2615" class="st7"/>
			<text x="7.71" y="307.71" class="st3">Pseudo random <tspan x="19.63" dy="1.2em" class="st8">generator</tspan></text>		</g>
		<g id="shape690-33" transform="translate(316.873,-194.188)">
			<title>Nordic Blueslate.690</title>
			<desc>AES cipher</desc>
			<rect x="0" y="301.598" width="58.3161" height="28.2396" class="st7"/>
			<text x="7.65" y="318.72" class="st3">AES cipher</text>		</g>
		<g id="shape692-36" transform="translate(26.8832,-92.1449)">
			<title>Nordic Blueslate.692</title>
			<desc>True random key generator</desc>
			<rect x="0" y="291.576" width="73.5548" height="38.2615" class="st7"/>
			<text x="9.2" y="307.71" class="st3">True  random <tspan x="8.47" dy="1.2em" class="st8">key generator</tspan></text>		</g>
		<g id="shape693-40" transform="translate(30.9367,-42.6454)">
			<title>Nordic Blueslate.693</title>
			<desc>Dynamic key</desc>
			<rect x="0" y="301.598" width="65.4478" height="28.2396" class="st9"/>
			<text x="6.95" y="318.72" class="st3">Dynamic key</text>		</g>
		<g id="shape694-43" transform="translate(138.352,-144.251)">
			<title>Circle.694</title>
			<path d="M0 316.52 A13.3223 13.3223 0 0 1 26.64 316.52 A13.3223 13.3223 0 1 1 0 316.52 Z" class="st7"/>
		</g>
		<g id="shape695-45" transform="translate(197.596,-133.682)">
			<title>Nordic Blueslate.695</title>
			<desc>Packet validation ID + Dynamic key</desc>
			<rect x="0" y="282.055" width="96.5655" height="47.7828" class="st10"/>
			<text x="8.1" y="296.95" class="st11">Packet validation ID<tspan x="45.79" dy="1.2em" class="st8">+</tspan><tspan
						x="22.51" dy="1.2em" class="st8">Dynamic key</tspan></text>		</g>
		<g id="shape696-50" transform="translate(332.709,-144.251)">
			<title>Circle.696</title>
			<path d="M0 316.52 A13.3223 13.3223 0 0 1 26.64 316.52 A13.3223 13.3223 0 1 1 0 316.52 Z" class="st7"/>
		</g>
		<g id="shape697-52" transform="translate(383.75,-143.454)">
			<title>Nordic Blueslate.697</title>
			<desc>Packet validation ID</desc>
			<rect x="0" y="301.598" width="74.5886" height="28.2396" class="st10"/>
			<text x="23.77" y="312.72" class="st11">Packet <tspan x="11.77" dy="1.2em" class="st8">validation ID</tspan></text>		</g>
		<g id="shape702-56" transform="translate(457.537,-93.0496)">
			<title>Nordic Blueslate.702</title>
			<desc>Packet validation ID</desc>
			<rect x="0" y="301.598" width="62.6432" height="28.2396" class="st10"/>
			<text x="17.79" y="312.72" class="st11">Packet <tspan x="5.8" dy="1.2em" class="st8">validation ID</tspan></text>		</g>
		<g id="shape703-60" transform="translate(313.307,-42.6454)">
			<title>Nordic Blueslate.703</title>
			<desc>Dynamic key</desc>
			<rect x="0" y="301.598" width="65.4478" height="28.2396" class="st9"/>
			<text x="6.95" y="318.72" class="st3">Dynamic key</text>		</g>
		<g id="shape704-63" transform="translate(456.135,-42.6454)">
			<title>Nordic Blueslate.704</title>
			<desc>Dynamic key</desc>
			<rect x="0" y="301.598" width="65.4478" height="28.2396" class="st9"/>
			<text x="6.95" y="318.72" class="st3">Dynamic key</text>		</g>
		<g id="shape705-66" transform="translate(191.102,-1.2)">
			<title>Sheet.705</title>
			<desc>Using system address</desc>
			<rect x="0" y="309.838" width="113.386" height="20" class="st4"/>
			<text x="4.28" y="323.44" class="st12">Using system address</text>		</g>
		<g id="shape706-69" transform="translate(304.488,-11.2)">
			<title>Dynamic connector.706</title>
			<path d="M10.2 329.84 L10.56 329.84 L88.28 329.84 L88.28 309.84" class="st13"/>
		</g>
		<g id="shape707-75" transform="translate(118.365,-31.2)">
			<title>Dynamic connector.707</title>
			<path d="M0 340.04 L0 340.4 L0 349.84 L72.74 349.84" class="st13"/>
		</g>
		<g id="shape708-80" transform="translate(101.852,-201.221)">
			<title>Dynamic connector.708</title>
			<path d="M0 322.75 L10.1 322.75" class="st15"/>
		</g>
		<g id="shape709-86" transform="translate(144.587,-194.188)">
			<title>Dynamic connector.709</title>
			<path d="M7.09 329.84 L7.09 342.57" class="st15"/>
		</g>
		<g id="shape710-91" transform="translate(201.004,-264.33)">
			<title>Dynamic connector.710</title>
			<path d="M0 329.84 L-49.33 329.84 L-49.33 361.18" class="st15"/>
		</g>
		<g id="shape711-96" transform="translate(164.996,-150.487)">
			<title>Dynamic connector.711</title>
			<path d="M0 322.75 L22.04 322.75" class="st15"/>
		</g>
		<g id="shape713-101" transform="translate(96.3845,-56.7652)">
			<title>Dynamic connector.713</title>
			<path d="M0 329.84 L19.01 329.84 L19.01 229.03 L31.41 229.03" class="st15"/>
		</g>
		<g id="shape715-106" transform="translate(56.574,-92.1449)">
			<title>Dynamic connector.715</title>
			<path d="M7.09 329.84 L7.09 340.54" class="st15"/>
		</g>
		<g id="shape716-111" transform="translate(306.253,-257.244)">
			<title>Dynamic connector.716</title>
			<path d="M0 322.75 L-4.94 322.75" class="st15"/>
		</g>
		<g id="shape717-116" transform="translate(338.945,-245.2)">
			<title>Dynamic connector.717</title>
			<path d="M7.09 329.84 L7.09 342.05" class="st15"/>
		</g>
		<g id="shape718-121" transform="translate(338.945,-194.188)">
			<title>Dynamic connector.718</title>
			<path d="M7.09 329.84 L7.09 342.57" class="st15"/>
		</g>
		<g id="shape719-126" transform="translate(294.161,-150.487)">
			<title>Dynamic connector.719</title>
			<path d="M0 322.75 L27.99 322.75" class="st15"/>
		</g>
		<g id="shape720-131" transform="translate(338.945,-144.251)">
			<title>Dynamic connector.720</title>
			<path d="M7.09 329.84 L7.09 392.64" class="st15"/>
		</g>
		<g id="shape722-136" transform="translate(378.755,-49.6786)">
			<title>Dynamic connector.722</title>
			<path d="M0 322.75 L66.82 322.75" class="st15"/>
		</g>
		<g id="shape723-141" transform="translate(421.045,-93.8471)">
			<title>Dynamic connector.723</title>
			<path d="M0 329.84 L0 366.92 L24.53 366.92" class="st15"/>
		</g>
		<g id="shape724-146" transform="translate(457.537,-114.256)">
			<title>Dynamic connector.724</title>
			<path d="M0 336.92 L-12.61 336.92" class="st15"/>
		</g>
		<g id="shape725-151" transform="translate(413.958,-143.454)">
			<title>Dynamic connector.725</title>
			<path d="M7.09 329.84 L7.09 342.24" class="st15"/>
		</g>
		<g id="shape726-156" transform="translate(383.75,-150.487)">
			<title>Dynamic connector.726</title>
			<path d="M0 322.75 L-13.84 322.75" class="st15"/>
		</g>
		<g id="shape727-161" transform="translate(403.666,-201.221)">
			<title>Dynamic connector.727</title>
			<path d="M0 322.75 L-17.92 322.75" class="st15"/>
		</g>
		<g id="group728-166" transform="translate(407.722,-93.8471)">
			<title>Sheet.728</title>
			<g id="shape698-167" transform="translate(-219.908,96.6073) rotate(-45)">
				<title>Square.231</title>
				<rect x="0" y="310.997" width="18.8406" height="18.8406" class="st7"/>
			</g>
			<g id="shape699-169" transform="translate(5.91988,-6.86038)">
				<title>Sheet.699</title>
				<desc>=</desc>
				<rect x="0" y="316.914" width="14.0657" height="12.9238" class="st4"/>
				<text x="4" y="327.58" class="st17">=</text>			</g>
		</g>
		<g id="shape729-172" transform="translate(26.8832,-144.251)">
			<title>Nordic Blueslate.729</title>
			<desc>Packet validation ID</desc>
			<rect x="0" y="303.193" width="73.5548" height="26.6446" class="st10"/>
			<text x="23.25" y="313.52" class="st11">Packet <tspan x="11.25" dy="1.2em" class="st8">validation ID</tspan></text>		</g>
		<g id="shape730-176" transform="translate(100.438,-150.487)">
			<title>Dynamic connector.730</title>
			<path d="M0 322.75 L27.35 322.75" class="st15"/>
		</g>
		<g id="shape731-181" transform="translate(398.368,-68.0504)">
			<title>Sheet.731</title>
			<desc>Yes</desc>
			<rect x="0" y="312.83" width="22.6772" height="17.0079" class="st4"/>
			<text x="4.46" y="324.33" class="st11">Yes</text>		</g>
	</g>
</svg>
