<?xml version="1.0" encoding="UTF-8" standalone="no"?>
<!DOCTYPE svg PUBLIC "-//W3C//DTD SVG 1.1//EN" "http://www.w3.org/Graphics/SVG/1.1/DTD/svg11.dtd">
<!-- Generated by Microsoft Visio, SVG Export lwm2m_client_state_diagram.svg Page-1 -->
<svg xmlns="http://www.w3.org/2000/svg" xmlns:xlink="http://www.w3.org/1999/xlink" xmlns:ev="http://www.w3.org/2001/xml-events"
		width="7.1432in" height="7.69622in" viewBox="0 0 514.31 554.128" xml:space="preserve" color-interpolation-filters="sRGB"
		class="st13">
	<style type="text/css">
	<![CDATA[
		.st1 {fill:#333f48;stroke:#333f48;stroke-width:1}
		.st2 {marker-end:url(#mrkr4-8);stroke:#333f48;stroke-linecap:butt;stroke-width:1}
		.st3 {fill:#333f48;fill-opacity:1;stroke:#333f48;stroke-opacity:1;stroke-width:0.28409090909091}
		.st4 {fill:#00a9ce;stroke:none;stroke-width:1}
		.st5 {fill:#ffffff;font-family:Arial;font-size:0.833336em}
		.st6 {font-size:1em}
		.st7 {fill:none;stroke:none;stroke-width:1}
		.st8 {fill:#000000;font-family:Arial;font-size:0.666664em}
		.st9 {fill:#333f48;font-family:Arial;font-size:0.666664em}
		.st10 {fill:#feffff;font-size:1em}
		.st11 {marker-end:url(#mrkr4-81);stroke:#333f48;stroke-linecap:butt;stroke-width:1}
		.st12 {marker-start:url(#mrkr4-130);stroke:#333f48;stroke-linecap:butt;stroke-width:1}
		.st13 {fill:none;fill-rule:evenodd;font-size:12px;overflow:visible;stroke-linecap:square;stroke-miterlimit:3}
	]]>
	</style>

	<defs id="Markers">
		<g id="lend4">
			<path d="M 2 1 L 0 0 L 2 -1 L 2 1 " style="stroke:none"/>
		</g>
		<marker id="mrkr4-8" class="st3" refX="-7.04" orient="auto" markerUnits="strokeWidth" overflow="visible">
			<use xlink:href="#lend4" transform="scale(-3.52,-3.52) "/>
		</marker>
		<marker id="mrkr4-81" class="st3" refX="-6.68" orient="auto" markerUnits="strokeWidth" overflow="visible">
			<use xlink:href="#lend4" transform="scale(-3.52,-3.52) "/>
		</marker>
		<marker id="mrkr4-130" class="st3" refX="6.68" orient="auto" markerUnits="strokeWidth" overflow="visible">
			<use xlink:href="#lend4" transform="scale(3.52) "/>
		</marker>
	</defs>
	<g>
		<title>Page-1</title>
		<g id="shape57-1" transform="translate(209.901,-531.935)">
			<title>Sheet.57</title>
			<ellipse cx="3.42799" cy="550.584" rx="3.42799" ry="3.54331" class="st1"/>
		</g>
		<g id="shape58-3" transform="translate(206.434,-536.712)">
			<title>Dynamic connector.58</title>
			<path d="M6.96 554.13 L7.13 569.58" class="st2"/>
		</g>
		<g id="shape59-9" transform="translate(210.216,-441.935)">
			<title>Sheet.59</title>
			<ellipse cx="3.42799" cy="550.584" rx="3.42799" ry="3.54331" class="st1"/>
		</g>
		<g id="shape60-11" transform="translate(206.557,-471.699)">
			<title>Dynamic connector.60</title>
			<path d="M7.09 554.13 L7.09 569.76" class="st2"/>
		</g>
		<g id="shape69-16" transform="translate(172.982,-471.085)">
			<title>Ellipse</title>
			<desc>Connect LTE</desc>
			<path d="M0 532.56 A40.6618 21.5667 0 0 1 81.32 532.56 A40.6618 21.5667 0 0 1 0 532.56 Z" class="st4"/>
			<text x="11.48" y="535.56" class="st5">Connect LTE</text>		</g>
		<g id="shape72-19" transform="translate(88.9195,-359.445)">
			<title>Ellipse.72</title>
			<desc>Start LwM2M connect</desc>
			<path d="M0 530.6 A40.6618 23.5286 0 1 1 81.32 530.6 A40.6618 23.5286 0 1 1 -0 530.6 Z" class="st4"/>
			<text x="11.21" y="527.6" class="st5">Start LwM2M <tspan x="23.15" dy="1.2em" class="st6">connect</tspan></text>		</g>
		<g id="shape75-23" transform="translate(258.998,-361.998)">
			<title>Ellipse.75</title>
			<desc>Start Bootstrap</desc>
			<path d="M0 530.6 A40.6618 23.5286 0 0 1 81.32 530.6 A40.6618 23.5286 0 0 1 0 530.6 Z" class="st4"/>
			<text x="30.1" y="527.6" class="st5">Start <tspan x="19.26" dy="1.2em" class="st6">Bootstrap</tspan></text>		</g>
		<g id="shape1001-27" transform="translate(292.573,-378.44)">
			<title>Dynamic connector.1001</title>
		</g>
		<g id="shape1002-28" transform="translate(175.762,-253.235)">
			<title>Ellipse.1002</title>
			<desc>Connecting LwM2M</desc>
			<path d="M0 530.6 A40.6618 23.5286 0 0 1 81.32 530.6 A40.6618 23.5286 0 0 1 0 530.6 Z" class="st4"/>
			<text x="15.37" y="527.6" class="st5">Connecting <tspan x="23.16" dy="1.2em" class="st6">LwM2M </tspan></text>		</g>
		<g id="shape1005-32" transform="translate(178.488,-127.004)">
			<title>Ellipse.1005</title>
			<desc>Registered</desc>
			<path d="M0 530.6 A40.6618 23.5286 0 0 1 81.32 530.6 A40.6618 23.5286 0 1 1 -0 530.6 Z" class="st4"/>
			<text x="16.48" y="533.6" class="st5">Registered</text>		</g>
		<g id="shape1008-35" transform="translate(303.385,-406.502)">
			<title>Sheet.1008</title>
			<desc>true</desc>
			<rect x="0" y="538.193" width="32.5439" height="15.9346" class="st7"/>
			<text x="9.38" y="548.56" class="st8">true</text>		</g>
		<g id="shape1010-38" transform="translate(93.1715,-406.502)">
			<title>Sheet.1010</title>
			<desc>false</desc>
			<rect x="0" y="538.193" width="32.5439" height="15.9346" class="st7"/>
			<text x="7.82" y="548.56" class="st8">false</text>		</g>
		<g id="shape1012-41" transform="translate(135.5,-310.124)">
			<title>Sheet.1012</title>
			<desc>BOOTSTRAP_TRANSFER_COMPLETE BOOTSTRAP_REG_COMPLETE</desc>
			<rect x="0" y="523.097" width="159.162" height="31.0309" class="st7"/>
			<text x="6.9" y="536.21" class="st9">BOOTSTRAP_TRANSFER_COMPLETE <tspan x="19.79" dy="1.2em" class="st6">BOOTSTRAP_REG_COMPLETE</tspan></text>		</g>
		<g id="shape1014-45" transform="translate(172.982,-8.8)">
			<title>Ellipse.1014</title>
			<desc>Reconnect LwM2M</desc>
			<path d="M0 530.6 A40.6618 23.5286 0 0 1 81.32 530.6 A40.6618 23.5286 0 1 1 -0 530.6 Z" class="st4"/>
			<text x="16.76" y="527.6" class="st5">Reconnect <tspan class="st10"> </tspan><tspan x="23.16" dy="1.2em" class="st10">LwM2M</tspan></text>		</g>
		<g id="shape1015-50" transform="translate(323.628,-29.1396)">
			<title>Sheet.1015</title>
			<ellipse cx="3.42799" cy="550.939" rx="3.42799" ry="3.18898" class="st1"/>
		</g>
		<g id="shape1016-52" transform="translate(254.306,-39.4152)">
			<title>Dynamic connector.1016</title>
			<path d="M0 561.21 L62.28 561.21" class="st2"/>
		</g>
		<g id="shape1020-57" transform="translate(359.092,-8.8)">
			<title>Ellipse.1020</title>
			<desc>Reconnect LTE</desc>
			<path d="M0 530.6 A40.6618 23.5286 0 0 1 81.32 530.6 A40.6618 23.5286 0 0 1 0 530.6 Z" class="st4"/>
			<text x="16.76" y="527.6" class="st5">Reconnect <tspan x="31.49" dy="1.2em" class="st6">LTE</tspan></text>		</g>
		<g id="shape1024-61" transform="translate(196.154,-538.955)">
			<title>Sheet.1024</title>
			<desc>Start</desc>
			<rect x="0" y="539.955" width="34.9803" height="14.1732" class="st7"/>
			<text x="9.04" y="549.44" class="st9">Start</text>		</g>
		<g id="shape1025-64" transform="translate(394.468,-297.368)">
			<title>Sheet.1025</title>
			<ellipse cx="3.42799" cy="550.584" rx="3.42799" ry="3.54331" class="st1"/>
		</g>
		<g id="shape1027-66" transform="translate(294.662,-8.8)">
			<title>Sheet.1027</title>
			<desc>Reconnect= true</desc>
			<rect x="0" y="536.714" width="78.5792" height="17.4134" class="st7"/>
			<text x="9.83" y="547.82" class="st8">Reconnect= true</text>		</g>
		<g id="shape1028-69" transform="translate(138.911,-220.402)">
			<title>Sheet.1028</title>
			<desc>REGISTRATION_COMPLETE</desc>
			<rect x="0" y="538.935" width="125.756" height="15.1929" class="st7"/>
			<text x="8.65" y="548.93" class="st9">REGISTRATION_COMPLETE</text>		</g>
		<g id="shape1032-72" transform="translate(257.581,-228.508)">
			<title>Dynamic connector.1032</title>
		</g>
		<g id="shape1033-73" transform="translate(167.15,-189.264)">
			<title>Sheet.1033</title>
			<desc>REG_UPDATE_COMPLETE</desc>
			<rect x="0" y="538.193" width="120.195" height="15.9346" class="st7"/>
			<text x="8.75" y="548.56" class="st9">REG_UPDATE_COMPLETE</text>		</g>
		<g id="shape1035-76" transform="translate(397.896,-304.455)">
			<title>Dynamic connector.1035</title>
			<path d="M0 554.13 C7.09 516.99 -5.32 466.36 -38.07 434.06 C-70.58 402.01 -123.13 388.02 -175.42 407 L-175.76 407.14"
					class="st11"/>
		</g>
		<g id="shape1036-82" transform="translate(287.575,-334.068)">
			<title>Dynamic connector.1036</title>
		</g>
		<g id="shape1038-83" transform="translate(145.046,-72.0533)">
			<title>Sheet.1038</title>
			<desc>DEREGISTER_FAILURE NETWOTK_ERROR REG_UPDATE_FAILURE</desc>
			<rect x="0" y="514.381" width="102.614" height="39.7472" class="st7"/>
			<text x="6.19" y="527.05" class="st9">DEREGISTER_FAILURE <tspan x="14.64" dy="1.2em" class="st6">NETWOTK_ERROR </tspan><tspan
						x="5.07" dy="1.2em" class="st6">REG_UPDATE_FAILURE</tspan></text>		</g>
		<g id="shape1040-88" transform="translate(315.922,-297.368)">
			<title>Sheet.1040</title>
			<desc>Reconnect = false</desc>
			<rect x="0" y="530.468" width="92.7547" height="23.6601" class="st7"/>
			<text x="14.25" y="544.7" class="st8">Reconnect = false</text>		</g>
		<g id="shape1044-91" transform="translate(287.575,-1.71339)">
			<title>Dynamic connector.1044</title>
		</g>
		<g id="shape1045-92" transform="translate(156.321,-406.502)">
			<title>Sheet.1045</title>
			<desc>Bootstrap or reconnection counter &#62; 3</desc>
			<rect x="0" y="524.096" width="114.645" height="30.0317" class="st7"/>
			<text x="11.52" y="536.71" class="st9">Bootstrap or reconnection <tspan x="37.2" dy="1.2em" class="st6">counter &#62; 3</tspan></text>		</g>
		<g id="shape1013-96" transform="translate(18.7165,-150.532)">
			<title>Sheet.1013</title>
			<desc>REGISTRATION_FAILURE BOOTSTRAP_REG_FAILURE</desc>
			<rect x="0" y="524.096" width="120.195" height="30.0317" class="st7"/>
			<text x="10.98" y="536.71" class="st9">REGISTRATION_FAILURE <tspan x="5.42" dy="1.2em" class="st6">BOOTSTRAP_REG_FAILURE</tspan></text>		</g>
		<g id="shape1068-100" transform="translate(204.708,-306.258)">
			<title>Dynamic connector.1068</title>
			<path d="M0 561.09 C-2.13 543.94 20.38 538.66 24.27 554.32 L24.3 554.67" class="st11"/>
		</g>
		<g id="shape1070-105" transform="translate(304.305,-362.152)">
			<title>Dynamic connector.1070</title>
			<path d="M0 554.13 C0.05 583.48 -1.24 600.14 -11.31 614.29 C-18.25 624.05 -29.37 632.61 -40.56 637.24 L-40.9 637.35"
					class="st11"/>
		</g>
		<g id="shape1072-110" transform="translate(129.581,-359.445)">
			<title>Dynamic connector.1072</title>
			<path d="M0 554.13 C-0.98 583.61 1.71 600.75 11.97 613.51 C19.04 622.29 29.69 629 39.77 633.89 L40.1 634.04"
					class="st11"/>
		</g>
		<g id="shape1073-115" transform="translate(171.778,-270.415)">
			<title>Dynamic connector.1073</title>
			<path d="M5.49 554.13 C-31.83 556.94 -48.19 584.77 -48.82 609.27 C-49.46 633.81 -34.3 655 1.85 665.07 L2.2 665.15"
					class="st11"/>
		</g>
		<g id="shape1074-120" transform="translate(208.056,-180.016)">
			<title>Dynamic connector.1074</title>
			<path d="M0 560.98 C-1.32 541.42 20.61 539.13 24.34 554.43 L24.36 554.79" class="st11"/>
		</g>
		<g id="shape1077-125" transform="translate(394.468,-300.911)">
			<title>Dynamic connector.1077</title>
			<path d="M-6.22 556.57 L-6.55 556.71 C-62.41 579.57 -89.13 614.04 -99.07 660.61 C-109.51 709.48 -101.45 771.69 -67.41
						 819.52" class="st12"/>
		</g>
		<g id="shape1078-131" transform="translate(181.458,-273.273)">
			<title>Dynamic connector.1078</title>
			<path d="M-5.7 554.13 C-132.22 545.62 -165.16 618.13 -161.14 675.39 C-156.8 737.43 -109.08 781.57 -15.46 794.2 L-15.1
						 794.24" class="st11"/>
		</g>
		<g id="shape1079-136" transform="translate(184.43,-150.532)">
			<title>Dynamic connector.1079</title>
			<path d="M-5.94 554.13 C-44.49 551.86 -58.91 579.87 -58.91 606.52 C-58.91 632.3 -45.42 656.81 -15.22 662.27 L-14.86 662.31"
					class="st11"/>
		</g>
		<g id="shape1082-141" transform="translate(440.416,-32.3286)">
			<title>Dynamic connector.1082</title>
			<path d="M0 554.13 C32.6 525.78 61.06 468.58 54.31 411.38 C48 357.92 10.94 304.45 -32.42 287.8 L-32.76 287.68"
					class="st11"/>
		</g>
		<g id="shape1083-146" transform="translate(330.484,-25.242)">
			<title>Dynamic connector.1083</title>
			<path d="M0 547.04 L21.57 547.04" class="st2"/>
		</g>
		<g id="shape1084-151" transform="translate(129.581,-406.502)">
			<title>Dynamic connector.1084</title>
			<path d="M-0.67 547.48 L-0.71 547.12 C0.32 522.83 37.18 501.56 80.63 515.15" class="st12"/>
		</g>
		<g id="shape1085-156" transform="translate(299.66,-409.055)">
			<title>Dynamic connector.1085</title>
			<path d="M-0.22 547.45 L-0.24 547.09 C-2.03 535.69 -10.52 524.12 -23.86 518.18 C-41.49 510.33 -67.59 512.32 -82.59 517.7"
					class="st12"/>
		</g>
	</g>
</svg>
