<?xml version="1.0" encoding="UTF-8" standalone="no"?>
<!DOCTYPE svg PUBLIC "-//W3C//DTD SVG 1.1//EN" "http://www.w3.org/Graphics/SVG/1.1/DTD/svg11.dtd">
<!-- Generated by Microsoft Visio, SVG Export lwm2m_client_state_diagram.svg Page-1 -->
<svg xmlns="http://www.w3.org/2000/svg" xmlns:xlink="http://www.w3.org/1999/xlink" xmlns:ev="http://www.w3.org/2001/xml-events"
		xmlns:v="http://schemas.microsoft.com/visio/2003/SVGExtensions/" width="7.48613in" height="7.94497in"
		viewBox="0 0 539.001 572.038" xml:space="preserve" color-interpolation-filters="sRGB" class="st15">
	<v:documentProperties v:langID="1035" v:viewMarkup="false"/>

	<style type="text/css">
	<![CDATA[
		.st1 {stroke:#768692;stroke-dasharray:1,4;stroke-linecap:butt;stroke-width:1}
		.st2 {fill:#333f48;stroke:#333f48;stroke-width:1}
		.st3 {marker-end:url(#mrkr4-11);stroke:#333f48;stroke-linecap:butt;stroke-width:1}
		.st4 {fill:#333f48;fill-opacity:1;stroke:#333f48;stroke-opacity:1;stroke-width:0.28409090909091}
		.st5 {fill:#00a9ce;stroke:none;stroke-width:1}
		.st6 {fill:#ffffff;font-family:Arial;font-size:0.833336em}
		.st7 {fill:#feffff;font-family:Arial;font-size:0.833336em}
		.st8 {marker-end:url(#mrkr4-30);stroke:#333f48;stroke-linecap:butt;stroke-width:1}
		.st9 {fill:none;stroke:none;stroke-width:1}
		.st10 {fill:#000000;font-family:Arial;font-size:0.666664em}
		.st11 {fill:#333f48;font-family:Arial;font-size:0.666664em}
		.st12 {font-size:1em}
		.st13 {fill:#feffff;font-size:1em}
		.st14 {marker-end:url(#mrkr4-121);stroke:#333f48;stroke-linecap:butt;stroke-width:1}
		.st15 {fill:none;fill-rule:evenodd;font-size:12px;overflow:visible;stroke-linecap:square;stroke-miterlimit:3}
	]]>
	</style>

	<defs id="Markers">
		<g id="lend4">
			<path d="M 2 1 L 0 0 L 2 -1 L 2 1 " style="stroke:none"/>
		</g>
		<marker id="mrkr4-11" class="st4" v:arrowType="4" v:arrowSize="2" v:setback="7.04" refX="-7.04" orient="auto"
				markerUnits="strokeWidth" overflow="visible">
			<use xlink:href="#lend4" transform="scale(-3.52,-3.52) "/>
		</marker>
		<marker id="mrkr4-30" class="st4" v:arrowType="4" v:arrowSize="2" v:setback="6.68" refX="-6.68" orient="auto"
				markerUnits="strokeWidth" overflow="visible">
			<use xlink:href="#lend4" transform="scale(-3.52,-3.52) "/>
		</marker>
		<marker id="mrkr4-121" class="st4" v:arrowType="4" v:arrowSize="2" v:setback="0" refX="-0" orient="auto"
				markerUnits="strokeWidth" overflow="visible">
			<use xlink:href="#lend4" transform="scale(-3.52,-3.52) "/>
		</marker>
	</defs>
	<g v:mID="0" v:index="1" v:groupContext="foregroundPage">
		<title>Page-1</title>
		<v:pageProperties v:drawingScale="0.0393701" v:pageScale="0.0393701" v:drawingUnits="24" v:shadowOffsetX="8.50394"
				v:shadowOffsetY="-8.50394"/>
		<v:layer v:name="Connector" v:index="0"/>
		<g id="shape54-1" v:mID="54" v:groupContext="shape" v:layerMember="0" transform="translate(269.881,-508.57)">
			<title>Dynamic connector.183</title>
			<path d="M7.09 572.04 L7.09 592.19" class="st1"/>
		</g>
		<g id="shape57-4" v:mID="57" v:groupContext="shape" transform="translate(242.798,-556.865)">
			<title>Sheet.57</title>
			<ellipse cx="6.85598" cy="564.951" rx="6.85598" ry="7.08661" class="st2"/>
		</g>
		<g id="shape58-6" v:mID="58" v:groupContext="shape" v:layerMember="0" transform="translate(242.568,-556.865)">
			<title>Dynamic connector.58</title>
			<path d="M7.09 572.04 L7.09 594.51" class="st3"/>
		</g>
		<g id="shape59-12" v:mID="59" v:groupContext="shape" transform="translate(243.052,-415.908)">
			<title>Sheet.59</title>
			<ellipse cx="6.85598" cy="564.951" rx="6.85598" ry="7.08661" class="st2"/>
		</g>
		<g id="shape60-14" v:mID="60" v:groupContext="shape" v:layerMember="0" transform="translate(242.683,-496.948)">
			<title>Dynamic connector.60</title>
			<path d="M6.97 572.04 L7.18 631.87" class="st3"/>
		</g>
		<g id="shape69-19" v:mID="69" v:groupContext="shape" transform="translate(192.332,-466.545)">
			<title>Ellipse</title>
			<desc>Connect LTE</desc>
			<v:userDefs>
				<v:ud v:nameU="visVersion" v:val="VT0(15):26"/>
			</v:userDefs>
			<v:textBlock v:margins="rect(4,4,4,4)"/>
			<v:textRect cx="57.3225" cy="541.635" width="100.32" height="53.2059"/>
			<path d="M0 541.63 A57.3225 30.4034 0 1 1 114.64 541.63 A57.3225 30.4034 0 1 1 -0 541.63 Z" class="st5"/>
			<text x="28.14" y="544.63" class="st6" v:langID="1044"><v:paragraph v:horizAlign="1" v:bulletSize="0.166667"/><v:tabList/>Connect LTE</text>		</g>
		<g id="shape72-22" v:mID="72" v:groupContext="shape" transform="translate(73.5541,-337.46)">
			<title>Ellipse.72</title>
			<desc>Start LwM2M connect</desc>
			<v:userDefs>
				<v:ud v:nameU="visVersion" v:val="VT0(15):26"/>
			</v:userDefs>
			<v:textBlock v:margins="rect(4,4,4,4)"/>
			<v:textRect cx="65.9477" cy="548.509" width="115.41" height="41.1751"/>
			<path d="M0 548.51 A65.9477 23.5286 0 0 1 131.9 548.51 A65.9477 23.5286 0 0 1 -0 548.51 Z" class="st5"/>
			<text x="17.6" y="551.51" class="st7" v:langID="1044"><v:paragraph v:horizAlign="1"/><v:tabList/>Start LwM2M connect</text>		</g>
		<g id="shape74-25" v:mID="74" v:groupContext="shape" v:layerMember="0" transform="translate(243.052,-422.995)">
			<title>Dynamic connector.74</title>
			<path d="M0 572.04 C-80 570.75 -92.14 583.68 -100.88 604 L-101.02 604.33" class="st8"/>
		</g>
		<g id="shape75-31" v:mID="75" v:groupContext="shape" transform="translate(289.364,-337.46)">
			<title>Ellipse.75</title>
			<desc>Start Bootstrap</desc>
			<v:userDefs>
				<v:ud v:nameU="visVersion" v:val="VT0(15):26"/>
			</v:userDefs>
			<v:textBlock v:margins="rect(4,4,4,4)"/>
			<v:textRect cx="65.9477" cy="548.509" width="115.41" height="41.1751"/>
			<path d="M0 548.51 A65.9477 23.5286 0 1 1 131.9 548.51 A65.9477 23.5286 0 0 1 -0 548.51 Z" class="st5"/>
			<text x="32.6" y="551.51" class="st7" v:langID="1044"><v:paragraph v:horizAlign="1"/><v:tabList/>Start Bootstrap</text>		</g>
		<g id="shape1000-34" v:mID="1000" v:groupContext="shape" v:layerMember="0" transform="translate(256.764,-422.995)">
			<title>Dynamic connector.1000</title>
			<path d="M0 572.04 C60.79 571.46 94.31 577.95 98.2 603.48 L98.22 603.84" class="st8"/>
		</g>
		<g id="shape1001-39" v:mID="1001" v:groupContext="shape" v:layerMember="0" transform="translate(348.225,-353.902)">
			<title>Dynamic connector.1001</title>
		</g>
		<g id="shape1002-40" v:mID="1002" v:groupContext="shape" transform="translate(27.8937,-224.72)">
			<title>Ellipse.1002</title>
			<desc>Connecting LwM2M</desc>
			<v:userDefs>
				<v:ud v:nameU="visVersion" v:val="VT0(15):26"/>
			</v:userDefs>
			<v:textBlock v:margins="rect(4,4,4,4)"/>
			<v:textRect cx="65.9477" cy="535.896" width="115.41" height="63.248"/>
			<path d="M0 535.9 A65.9477 36.1417 0 0 1 131.9 535.9 A65.9477 36.1417 0 1 1 0 535.9 Z" class="st5"/>
			<text x="21.76" y="538.9" class="st7" v:langID="1044"><v:paragraph v:horizAlign="1"/><v:tabList/>Connecting LwM2M  </text>		</g>
		<g id="shape1003-43" v:mID="1003" v:groupContext="shape" v:layerMember="0" transform="translate(108.307,-340.259)">
			<title>Dynamic connector.1003</title>
			<path d="M0 572.04 C-1.99 578.36 -9.63 594.66 -13.09 608.39 L-13.16 608.74" class="st8"/>
		</g>
		<g id="shape1004-48" v:mID="1004" v:groupContext="shape" v:layerMember="0" transform="translate(355.312,-337.46)">
			<title>Dynamic connector.1004</title>
			<path d="M0 572.04 C-7.49 638.63 -121.44 659.42 -188.58 649.77 L-188.93 649.72" class="st8"/>
		</g>
		<g id="shape1005-53" v:mID="1005" v:groupContext="shape" transform="translate(240.238,-143.72)">
			<title>Ellipse.1005</title>
			<desc>Registered</desc>
			<v:userDefs>
				<v:ud v:nameU="visVersion" v:val="VT0(15):26"/>
			</v:userDefs>
			<v:textBlock v:margins="rect(4,4,4,4)"/>
			<v:textRect cx="39.2896" cy="552.164" width="68.76" height="34.7788"/>
			<path d="M0 552.16 A39.2896 19.8736 0 1 1 78.58 552.16 A39.2896 19.8736 0 1 1 0 552.16 Z" class="st5"/>
			<text x="15.11" y="555.16" class="st7" v:langID="1044"><v:paragraph v:horizAlign="1"/><v:tabList/>Registered</text>		</g>
		<g id="shape1006-56" v:mID="1006" v:groupContext="shape" v:layerMember="0" transform="translate(116.093,-294.884)">
			<title>Dynamic connector.1006</title>
			<path d="M0 572.04 C9.42 557.37 37.79 560.71 36.92 581.89 L36.85 582.24" class="st8"/>
		</g>
		<g id="shape1008-61" v:mID="1008" v:groupContext="shape" transform="translate(306.977,-399.974)">
			<title>Sheet.1008</title>
			<desc>true</desc>
			<v:textBlock v:margins="rect(4,4,4,4)" v:tabSpace="42.5197"/>
			<v:textRect cx="16.2719" cy="564.071" width="32.55" height="15.9346"/>
			<rect x="0" y="556.104" width="32.5439" height="15.9346" class="st9"/>
			<text x="9.38" y="566.47" class="st10" v:langID="1044"><v:paragraph v:horizAlign="1"/><v:tabList/>true</text>		</g>
		<g id="shape1010-64" v:mID="1010" v:groupContext="shape" transform="translate(159.788,-399.974)">
			<title>Sheet.1010</title>
			<desc>false</desc>
			<v:textBlock v:margins="rect(4,4,4,4)" v:tabSpace="42.5197"/>
			<v:textRect cx="16.2719" cy="564.071" width="32.55" height="15.9346"/>
			<rect x="0" y="556.104" width="32.5439" height="15.9346" class="st9"/>
			<text x="7.82" y="566.47" class="st10" v:langID="1044"><v:paragraph v:horizAlign="1"/><v:tabList/>false</text>		</g>
		<g id="shape1012-67" v:mID="1012" v:groupContext="shape" transform="translate(139.076,-285.069)">
			<title>Sheet.1012</title>
			<desc>BOOTSTRAP_TRANSFER_COMPLETE BOOTSTRAP_REG_COMPLETE</desc>
			<v:textBlock v:margins="rect(4,4,4,4)" v:tabSpace="42.5197"/>
			<v:textRect cx="80.9239" cy="556.523" width="161.85" height="31.0309"/>
			<rect x="0" y="541.007" width="161.848" height="31.0309" class="st9"/>
			<text x="8.24" y="554.12" class="st11" v:langID="1044"><v:paragraph v:horizAlign="1"/><v:tabList/>BOOTSTRAP_TRANSFER_COMPLETE<v:newlineChar/><tspan
						x="21.13" dy="1.2em" class="st12">BOOTSTRAP_REG_COMPLETE</tspan></text>		</g>
		<g id="shape1014-71" v:mID="1014" v:groupContext="shape" transform="translate(69.0128,-1)">
			<title>Ellipse.1014</title>
			<desc>Reconnect LwM2M</desc>
			<v:userDefs>
				<v:ud v:nameU="visVersion" v:val="VT0(15):26"/>
			</v:userDefs>
			<v:textBlock v:margins="rect(4,4,4,4)"/>
			<v:textRect cx="75.4935" cy="535.896" width="132.12" height="63.248"/>
			<path d="M0 535.9 A75.4935 36.1417 0 1 1 150.99 535.9 A75.4935 36.1417 0 1 1 0 535.9 Z" class="st5"/>
			<text x="31.31" y="538.9" class="st6" v:langID="1044"><v:paragraph v:horizAlign="1" v:bulletSize="0.166667"/><v:tabList/>Reconnect <tspan
						class="st13"> </tspan><tspan class="st13">LwM2M</tspan></text>		</g>
		<g id="shape1015-76" v:mID="1015" v:groupContext="shape" transform="translate(340.703,-27.5618)">
			<title>Sheet.1015</title>
			<ellipse cx="6.85598" cy="564.951" rx="6.85598" ry="7.08661" class="st2"/>
		</g>
		<g id="shape1016-78" v:mID="1016" v:groupContext="shape" v:layerMember="0" transform="translate(220,-42.273)">
			<title>Dynamic connector.1016</title>
			<path d="M0 578.59 L113.66 579.6" class="st3"/>
		</g>
		<g id="shape1018-83" v:mID="1018" v:groupContext="shape" v:layerMember="0" transform="translate(279.527,-143.72)">
			<title>Dynamic connector.1018</title>
			<path d="M0 572.04 C-9.76 620.76 -29.36 635.86 -77.11 650.08 L-77.46 650.18" class="st8"/>
		</g>
		<g id="shape1020-88" v:mID="1020" v:groupContext="shape" transform="translate(404.252,-7.71925)">
			<title>Ellipse.1020</title>
			<desc>Reconnect LTE</desc>
			<v:userDefs>
				<v:ud v:nameU="visVersion" v:val="VT0(15):26"/>
			</v:userDefs>
			<v:textBlock v:margins="rect(4,4,4,4)"/>
			<v:textRect cx="51.3071" cy="541.635" width="89.79" height="53.2059"/>
			<path d="M0 541.63 A51.3071 30.4034 0 0 1 102.61 541.63 A51.3071 30.4034 0 1 1 0 541.63 Z" class="st5"/>
			<text x="16.84" y="544.63" class="st7" v:langID="1044"><v:paragraph v:horizAlign="1"/><v:tabList/><v:newlineChar/>Reconnect LTE<v:newlineChar/></text>		</g>
		<g id="shape1021-91" v:mID="1021" v:groupContext="shape" v:layerMember="0" transform="translate(340.703,-28.2704)">
			<title>Dynamic connector.1021</title>
			<path d="M0 565.66 L56.51 564.4" class="st3"/>
		</g>
		<g id="shape1024-96" v:mID="1024" v:groupContext="shape" transform="translate(256.51,-556.865)">
			<title>Sheet.1024</title>
			<desc>Start</desc>
			<v:textBlock v:margins="rect(4,4,4,4)" v:tabSpace="42.5197"/>
			<v:textRect cx="17.4901" cy="564.951" width="34.99" height="14.1732"/>
			<rect x="0" y="557.865" width="34.9803" height="14.1732" class="st9"/>
			<text x="9.04" y="567.35" class="st11" v:langID="1044"><v:paragraph v:horizAlign="1"/><v:tabList/>Start</text>		</g>
		<g id="shape1025-99" v:mID="1025" v:groupContext="shape" transform="translate(489.752,-282.83)">
			<title>Sheet.1025</title>
			<ellipse cx="6.85598" cy="564.951" rx="6.85598" ry="7.08661" class="st2"/>
		</g>
		<g id="shape1027-101" v:mID="1027" v:groupContext="shape" transform="translate(335.793,-10.5539)">
			<title>Sheet.1027</title>
			<desc>Reconnect= true</desc>
			<v:textBlock v:margins="rect(4,4,4,4)" v:tabSpace="42.5197"/>
			<v:textRect cx="39.2896" cy="563.331" width="78.58" height="17.4134"/>
			<rect x="0" y="554.625" width="78.5792" height="17.4134" class="st9"/>
			<text x="9.83" y="565.73" class="st10" v:langID="1044"><v:paragraph v:horizAlign="1"/><v:tabList/>Reconnect= true</text>		</g>
		<g id="shape1028-104" v:mID="1028" v:groupContext="shape" transform="translate(109.364,-196.851)">
			<title>Sheet.1028</title>
			<desc>REGISTRATION__COMPLETE</desc>
			<v:textBlock v:margins="rect(4,4,4,4)" v:tabSpace="42.5197"/>
			<v:textRect cx="65.9477" cy="564.071" width="131.9" height="15.9346"/>
			<rect x="0" y="556.104" width="131.895" height="15.9346" class="st9"/>
			<text x="9.49" y="566.47" class="st11" v:langID="1044"><v:paragraph v:horizAlign="1"/><v:tabList/>REGISTRATION__COMPLETE</text>		</g>
		<g id="shape1032-107" v:mID="1032" v:groupContext="shape" v:layerMember="0" transform="translate(234.173,-205.699)">
			<title>Dynamic connector.1032</title>
		</g>
		<g id="shape1033-108" v:mID="1033" v:groupContext="shape" transform="translate(262.52,-198.177)">
			<title>Sheet.1033</title>
			<desc>REG_UPDATE_COMPLETE</desc>
			<v:textBlock v:margins="rect(4,4,4,4)" v:tabSpace="42.5197"/>
			<v:textRect cx="60.0974" cy="564.071" width="120.2" height="15.9346"/>
			<rect x="0" y="556.104" width="120.195" height="15.9346" class="st9"/>
			<text x="8.75" y="566.47" class="st11" v:langID="1044"><v:paragraph v:horizAlign="1"/><v:tabList/>REG_UPDATE_COMPLETE</text>		</g>
		<g id="shape1034-111" v:mID="1034" v:groupContext="shape" v:layerMember="0" transform="translate(475.544,-66.1246)">
			<title>Dynamic connector.1034</title>
			<path d="M0 572.04 C53.84 522.14 52.69 408.52 29.04 359.66 L28.87 359.34" class="st8"/>
		</g>
		<g id="shape1035-116" v:mID="1035" v:groupContext="shape" v:layerMember="0" transform="translate(496.608,-297.003)">
			<title>Dynamic connector.1035</title>
			<path d="M0 572.04 C2.6 514.08 -18.66 421.95 -241.48 441.45" class="st14"/>
		</g>
		<g id="shape1036-122" v:mID="1036" v:groupContext="shape" v:layerMember="0" transform="translate(293.837,-309.013)">
			<title>Dynamic connector.1036</title>
		</g>
		<g id="shape1038-123" v:mID="1038" v:groupContext="shape" transform="translate(128.683,-77.628)">
			<title>Sheet.1038</title>
			<desc>DEREGISTER_FAILURE NETWOTK_ERROR REG_UPDATE_FAILURE</desc>
			<v:textBlock v:margins="rect(4,4,4,4)" v:tabSpace="42.5197"/>
			<v:textRect cx="51.3071" cy="552.164" width="102.62" height="39.7472"/>
			<rect x="0" y="532.291" width="102.614" height="39.7472" class="st9"/>
			<text x="6.19" y="544.96" class="st11" v:langID="1044"><v:paragraph v:horizAlign="1"/><v:tabList/>DEREGISTER_FAILURE<v:newlineChar/><tspan
						x="14.64" dy="1.2em" class="st12">NETWOTK_ERROR<v:newlineChar/></tspan><tspan x="5.07" dy="1.2em"
						class="st12">REG_UPDATE_FAILURE</tspan></text>		</g>
		<g id="shape1040-128" v:mID="1040" v:groupContext="shape" transform="translate(396.998,-276.028)">
			<title>Sheet.1040</title>
			<desc>Reconnect = false</desc>
			<v:textBlock v:margins="rect(4,4,4,4)" v:tabSpace="42.5197"/>
			<v:textRect cx="46.3773" cy="560.208" width="92.76" height="23.6601"/>
			<rect x="0" y="548.378" width="92.7547" height="23.6601" class="st9"/>
			<text x="14.25" y="562.61" class="st10" v:langID="1044"><v:paragraph v:horizAlign="1"/><v:tabList/>Reconnect = false</text>		</g>
		<g id="shape1042-131" v:mID="1042" v:groupContext="shape" v:layerMember="0" transform="translate(279.527,-183.467)">
			<title>Dynamic connector.1042</title>
			<path d="M0 572.04 C-0 559.37 20.22 557.11 31.6 562 C41.63 566.31 44.8 576.18 42.15 585.48 L42 585.81" class="st8"/>
		</g>
		<g id="shape1007-136" v:mID="1007" v:groupContext="shape" v:layerMember="0" transform="translate(93.8414,-224.72)">
			<title>Dynamic connector.1007</title>
			<path d="M0 572.04 C0 587.32 12.27 599.12 35.76 609.59 C62.61 621.56 104.13 631.79 139.36 633.04 L139.72 633.04"
					class="st8"/>
		</g>
		<g id="shape1043-141" v:mID="1043" v:groupContext="shape" v:layerMember="0" transform="translate(347.559,-41.735)">
			<title>Dynamic connector.1043</title>
			<path d="M0 572.04 C-6.86 425.62 72.55 359.52 135.9 327.01 L136.22 326.85" class="st8"/>
		</g>
		<g id="shape1044-146" v:mID="1044" v:groupContext="shape" v:layerMember="0" transform="translate(328.706,-3.46728)">
			<title>Dynamic connector.1044</title>
		</g>
		<g id="shape1045-147" v:mID="1045" v:groupContext="shape" transform="translate(193.025,-388.711)">
			<title>Sheet.1045</title>
			<desc>Bootstrap or reconnection counter &#62; 3</desc>
			<v:textBlock v:margins="rect(4,4,4,4)" v:tabSpace="42.5197"/>
			<v:textRect cx="57.3225" cy="557.022" width="114.65" height="30.0317"/>
			<rect x="0" y="542.006" width="114.645" height="30.0317" class="st9"/>
			<text x="11.52" y="554.62" class="st11" v:langID="1044"><v:paragraph v:horizAlign="1"/><v:tabList/>Bootstrap or reconnection <tspan
						x="37.2" dy="1.2em" class="st12">counter &#62; 3</tspan></text>		</g>
		<g id="shape1046-151" v:mID="1046" v:groupContext="shape" v:layerMember="0" transform="translate(40.8583,-239.342)">
			<title>Dynamic connector</title>
			<path d="M0 572.04 C-32.47 618.02 -33.43 716.84 22.88 769.58 L23.15 769.81" class="st8"/>
		</g>
		<g id="shape1013-156" v:mID="1013" v:groupContext="shape" transform="translate(22.6924,-141.768)">
			<title>Sheet.1013</title>
			<desc>REGISTRATION_FAILURE BOOTSTRAP_REG_FAILURE</desc>
			<v:textBlock v:margins="rect(4,4,4,4)" v:tabSpace="42.5197"/>
			<v:textRect cx="59.0066" cy="557.022" width="118.02" height="30.0317"/>
			<rect x="0" y="542.006" width="118.013" height="30.0317" class="st9"/>
			<text x="9.89" y="554.62" class="st11" v:langID="1044"><v:paragraph v:horizAlign="1"/><v:tabList/>REGISTRATION_FAILURE<v:newlineChar/><tspan
						x="4.33" dy="1.2em" class="st12">BOOTSTRAP_REG_FAILURE</tspan></text>		</g>
	</g>
</svg>
