<?xml version="1.0" encoding="UTF-8" standalone="no"?>
<!DOCTYPE svg PUBLIC "-//W3C//DTD SVG 1.1//EN" "http://www.w3.org/Graphics/SVG/1.1/DTD/svg11.dtd">
<!-- Generated by Microsoft Visio, SVG Export matter_nrfconnect_overview_simplified_ncs.svg Page-1 -->
<svg xmlns="http://www.w3.org/2000/svg" xmlns:xlink="http://www.w3.org/1999/xlink" xmlns:ev="http://www.w3.org/2001/xml-events"
		width="7.28702in" height="6.19055in" viewBox="0 0 524.666 445.719" xml:space="preserve" color-interpolation-filters="sRGB"
		class="st21">
	<style type="text/css">
	<![CDATA[
		.st1 {fill:#00a9ce;stroke:none;stroke-linecap:round;stroke-linejoin:round;stroke-width:0.75}
		.st2 {fill:#feffff;font-family:Calibri;font-size:1.00001em}
		.st3 {fill:#0033a0;stroke:none;stroke-width:1}
		.st4 {fill:#ffffff;font-family:Calibri;font-size:1.00001em}
		.st5 {stroke:none;stroke-linecap:round;stroke-linejoin:round;stroke-width:0.75}
		.st6 {fill:#00a9ce;stroke:none;stroke-width:1}
		.st7 {fill:#ffffff;font-family:Calibri;font-size:0.833336em}
		.st8 {fill:#768692;stroke:none;stroke-width:1}
		.st9 {font-size:1em}
		.st10 {fill:#333f48;stroke:none;stroke-width:1}
		.st11 {fill:#0077c8;stroke:none;stroke-linecap:round;stroke-linejoin:round;stroke-width:0.75}
		.st12 {fill:#333f48;stroke:none;stroke-linecap:round;stroke-linejoin:round;stroke-width:0.75}
		.st13 {fill:#f2f2f2;font-family:Calibri;font-size:0.833336em}
		.st14 {fill:#d9e1e2;stroke:none;stroke-width:1}
		.st15 {fill:#333f48;font-family:Calibri;font-size:1.00001em}
		.st16 {fill:#d0df00;stroke:none;stroke-linecap:round;stroke-linejoin:round;stroke-width:0.75}
		.st17 {fill:none;stroke:#768692;stroke-width:1}
		.st18 {fill:#d0df00;stroke:none;stroke-width:1}
		.st19 {fill:none;stroke:none;stroke-width:1}
		.st20 {fill:#333f48;font-family:Calibri;font-size:0.666664em}
		.st21 {fill:none;fill-rule:evenodd;font-size:12px;overflow:visible;stroke-linecap:square;stroke-miterlimit:3}
	]]>
	</style>

	<g>
		<title>Page-1</title>
		<g id="shape3186-1" transform="translate(152.285,-368.911)">
			<title>Sheet.3186</title>
			<desc>User application</desc>
			<path d="M0 416.85 L0 445.72 L371.26 445.72 L371.26 416.85 L0 416.85 L0 416.85 Z" class="st1"/>
			<text x="145.95" y="434.88" class="st2">User application</text>		</g>
		<g id="shape3188-4" transform="translate(314.575,-101.8)">
			<title>Sheet.3188</title>
			<desc>Thread stack (OpenThread)</desc>
			<path d="M0 327.32 L0 445.72 L209.09 445.72 L209.09 327.32 L0 327.32 L0 327.32 Z" class="st3"/>
			<text x="38.08" y="390.12" class="st4">Thread stack (OpenThread)</text>		</g>
		<g id="shape3189-7" transform="translate(314.933,-101.8)">
			<title>Sheet.3189</title>
			<path d="M208.73 320.59 L0 320.59 L0 445.72 L208.73 445.72 L208.73 320.59" class="st5"/>
		</g>
		<g id="shape3190-10" transform="translate(264.776,-1)">
			<title>Sheet.3190</title>
			<desc>Multiprotocol Service Layer (MPSL)</desc>
			<rect x="0" y="419.625" width="158.131" height="26.0948" class="st6"/>
			<text x="7.77" y="435.67" class="st7">Multiprotocol Service Layer (MPSL)</text>		</g>
		<g id="shape3192-13" transform="translate(383.007,-68.0067)">
			<title>Sheet.3192</title>
			<desc>Zephyr integration</desc>
			<rect x="0" y="416.587" width="140.592" height="29.1324" class="st8"/>
			<text x="25.01" y="434.75" class="st4">Zephyr integration</text>		</g>
		<g id="shape3194-16" transform="translate(383.007,-33.3003)">
			<title>Sheet.3194</title>
			<desc>nRF IEEE 802.15.4 radio driver</desc>
			<path d="M140.59 415.42 L0 415.42 L0 445.72 L140.59 445.72 L140.59 415.42 Z" class="st1"/>
			<text x="26.84" y="426.97" class="st4">nRF IEEE 802.15.4 <tspan x="41.87" dy="1.2em" class="st9">radio driver</tspan></text>		</g>
		<g id="shape3195-20" transform="translate(383.007,-32.6148)">
			<title>Sheet.3195</title>
			<path d="M139.02 415.42 L0 415.42 L0 445.72 L139.02 445.72 L139.02 415.42" class="st5"/>
		</g>
		<g id="shape3196-23" transform="translate(314.575,-225.065)">
			<title>Sheet.3196</title>
			<path d="M0 374.17 L0 445.72 L208.73 445.72 L208.73 374.17 L0 374.17 L0 374.17 Z" class="st8"/>
		</g>
		<g id="shape3197-25" transform="translate(314.927,-277.623)">
			<title>Sheet.3197</title>
			<desc>Zephyr network layer</desc>
			<path d="M208.73 429.44 L0 429.44 L0 445.72 L208.73 445.72 L208.73 429.44" class="st5"/>
			<text x="52.28" y="441.18" class="st4">Zephyr network layer</text>		</g>
		<g id="shape3198-29" transform="translate(320.401,-254.033)">
			<title>Sheet.3198</title>
			<desc>UDP</desc>
			<path d="M97.84 427.07 L0 427.07 L0 445.72 L97.84 445.72 L97.84 427.07 Z" class="st10"/>
			<text x="38.28" y="440" class="st4">UDP</text>		</g>
		<g id="shape3200-32" transform="translate(422.907,-253.827)">
			<title>Sheet.3200</title>
			<desc>TCP</desc>
			<path d="M94.66 426.87 L0 426.87 L0 445.72 L94.66 445.72 L94.66 426.87 Z" class="st10"/>
			<text x="39.65" y="440.49" class="st7">TCP</text>		</g>
		<g id="shape3202-35" transform="translate(320.401,-231.868)">
			<title>Sheet.3202</title>
			<desc>IPv6</desc>
			<path d="M196.93 427.07 L0 427.07 L0 445.72 L196.93 445.72 L196.93 427.07 Z" class="st10"/>
			<text x="88.11" y="440.6" class="st4">IPv6</text>		</g>
		<g id="shape3203-38" transform="translate(320.401,-233.628)">
			<title>Sheet.3203</title>
			<path d="M196.93 427.07 L0 427.07 L0 445.72 L196.93 445.72 L196.93 427.07" class="st5"/>
		</g>
		<g id="shape3204-41" transform="translate(15.9325,-33.3003)">
			<title>Sheet.3204</title>
			<desc>Drivers and modules</desc>
			<rect x="0" y="345.29" width="131.865" height="100.429" class="st6"/>
			<text x="15.78" y="361.76" class="st4">Drivers and modules</text>		</g>
		<g id="shape3205-44" transform="translate(82.9366,-43.3218)">
			<title>Sheet.3205</title>
			<desc>Crypto backends</desc>
			<path d="M58.33 415.42 L0 415.42 L0 445.72 L58.33 445.72 L58.33 415.42 Z" class="st11"/>
			<text x="15.56" y="427.57" class="st7">Crypto <tspan x="10.06" dy="1.2em" class="st9">backends</tspan></text>		</g>
		<g id="shape3206-48" transform="translate(21.2463,-43.3218)">
			<title>Sheet.3206</title>
			<desc>NFC</desc>
			<path d="M58.33 415.42 L0 415.42 L0 445.72 L58.33 445.72 L58.33 415.42 Z" class="st11"/>
			<text x="20.98" y="433.57" class="st7">NFC</text>		</g>
		<g id="shape3207-51" transform="translate(21.2463,-78.2807)">
			<title>Sheet.3207</title>
			<desc>DFU</desc>
			<path d="M58.33 415.42 L0 415.42 L0 445.72 L58.33 445.72 L58.33 415.42 Z" class="st11"/>
			<text x="20.59" y="433.57" class="st7">DFU</text>		</g>
		<g id="shape3208-54" transform="translate(82.9366,-78.2807)">
			<title>Sheet.3208</title>
			<desc>Partition Manager</desc>
			<path d="M58.33 415.42 L0 415.42 L0 445.72 L58.33 445.72 L58.33 415.42 Z" class="st11"/>
			<text x="11.54" y="427.57" class="st7">Partition <tspan x="10.89" dy="1.2em" class="st9">Manager</tspan></text>		</g>
		<g id="shape3209-58" transform="translate(15.9325,-137.458)">
			<title>Sheet.3209</title>
			<desc>Zephyr APIs</desc>
			<rect x="0" y="374.17" width="131.865" height="71.5491" class="st8"/>
			<text x="37.24" y="390.64" class="st4">Zephyr APIs</text>		</g>
		<g id="shape3210-61" transform="translate(82.9367,-145.169)">
			<title>Sheet.3210</title>
			<desc>Driver API</desc>
			<path d="M58.33 406.1 L0 406.1 L0 445.72 L58.33 445.72 L58.33 406.1 Z" class="st12"/>
			<text x="8.85" y="428.91" class="st13">Driver API</text>		</g>
		<g id="shape3211-64" transform="translate(21.2463,-145.169)">
			<title>Sheet.3211</title>
			<desc>Crypto API</desc>
			<path d="M58.33 406.1 L0 406.1 L0 445.72 L58.33 445.72 L58.33 406.1 Z" class="st12"/>
			<text x="7.69" y="428.91" class="st13">Crypto API</text>		</g>
		<g id="shape3212-67" transform="translate(15.9325,-212.827)">
			<title>Sheet.3212</title>
			<desc>Zephyr RTOS kernel</desc>
			<rect x="0" y="407.336" width="131.865" height="38.3831" class="st8"/>
			<text x="18.08" y="430.13" class="st4">Zephyr RTOS kernel</text>		</g>
		<g id="shape3213-70" transform="translate(15.9325,-255.619)">
			<title>Sheet.3213</title>
			<desc>MCU bootloader</desc>
			<rect x="0" y="405.75" width="62.6467" height="39.9696" class="st3"/>
			<text x="19.14" y="422.13" class="st4">MCU <tspan x="4.19" dy="1.2em" class="st9">bootloader</tspan></text>		</g>
		<g id="shape3214-74" transform="translate(82.5412,-255.619)">
			<title>Sheet.3214</title>
			<desc>mbedTLS</desc>
			<rect x="0" y="405.75" width="65.2565" height="39.9696" class="st3"/>
			<text x="10.34" y="429.33" class="st4">mbedTLS</text>		</g>
		<g id="group3225-77" transform="translate(152.194,-33.3003)">
			<title>Sheet.3225</title>
			<g id="shape3226-78">
				<title>Sheet.3226</title>
				<path d="M0 182.36 L0 445.72 L158.13 445.72 L158.13 182.36 L0 182.36 L0 182.36 Z" class="st14"/>
			</g>
			<g id="shape3228-80" transform="translate(6.37336,-9.32235)">
				<title>Sheet.3228</title>
				<desc>SoftDevice Controller</desc>
				<rect x="0" y="395.864" width="146.827" height="49.8552" class="st1"/>
				<text x="21.4" y="424.39" class="st4">SoftDevice Controller</text>			</g>
		</g>
		<g id="shape3235-83" transform="translate(152.194,-277.623)">
			<title>Sheet.3235</title>
			<desc>Bluetooth® LE stack</desc>
			<path d="M158.13 429.44 L0 429.44 L0 445.72 L158.13 445.72 L158.13 429.44" class="st5"/>
			<text x="31.09" y="441.18" class="st15">Bluetooth® LE stack</text>		</g>
		<g id="shape3241-87" transform="translate(152.285,-335.086)">
			<title>Sheet.3241</title>
			<desc>Matter stack</desc>
			<path d="M0 416.85 L0 445.72 L371.26 445.72 L371.26 416.85 L0 416.85 L0 416.85 Z" class="st16"/>
			<text x="154.68" y="434.88" class="st15">Matter stack</text>		</g>
		<g id="shape3242-90" transform="translate(152.285,-301.261)">
			<title>Sheet.3242</title>
			<desc>Zephyr integration layer</desc>
			<path d="M0 416.85 L0 445.72 L371.26 445.72 L371.26 416.85 L0 416.85 L0 416.85 Z" class="st16"/>
			<text x="126.95" y="434.88" class="st15">Zephyr integration layer</text>		</g>
		<g id="group3259-93" transform="translate(158.294,-100.18)">
			<title>Sheet.3259</title>
			<g id="shape3227-94">
				<title>Sheet.3227</title>
				<desc>Zephyr host</desc>
				<rect x="0" y="273.256" width="146.827" height="172.464" class="st8"/>
				<text x="44.48" y="289.72" class="st4">Zephyr host</text>			</g>
			<g id="shape3229-97" transform="translate(5.82647,-14.9741)">
				<title>Sheet.3229</title>
				<desc>L2CAP</desc>
				<path d="M112.26 405.75 L0 405.75 L0 445.72 L112.26 445.72 L112.26 405.75 Z" class="st12"/>
				<text x="40.79" y="429.33" class="st4">L2CAP</text>			</g>
			<g id="shape3230-100" transform="translate(5.63355,-103.362)">
				<title>Sheet.3230</title>
				<desc>GATT</desc>
				<path d="M59.43 405.75 L0 405.75 L0 445.72 L59.43 445.72 L59.43 405.75 Z" class="st12"/>
				<text x="16.61" y="429.33" class="st4">GATT</text>			</g>
			<g id="shape3231-103" transform="translate(5.82648,-59.2553)">
				<title>Sheet.3231</title>
				<desc>ATT</desc>
				<path d="M59.43 405.75 L0 405.75 L0 445.72 L59.43 445.72 L59.43 405.75 Z" class="st12"/>
				<text x="20.4" y="429.33" class="st4">ATT</text>			</g>
			<g id="shape3232-106" transform="translate(68.6566,-103.362)">
				<title>Sheet.3232</title>
				<desc>GAP</desc>
				<path d="M74.37 405.75 L0 405.75 L0 445.72 L74.37 445.72 L74.37 405.75 Z" class="st12"/>
				<text x="26.83" y="429.33" class="st4">GAP</text>			</g>
			<g id="shape3233-109" transform="translate(567.3,302.388) rotate(90)">
				<title>Sheet.3233</title>
				<path d="M128.18 424.18 L0 424.18 L0 445.72 L128.18 445.72 L128.18 424.18 Z" class="st12"/>
			</g>
			<g id="shape3234-111" transform="translate(68.676,-59.2553)">
				<title>Sheet.3234</title>
				<desc>SMP</desc>
				<path d="M49.41 405.75 L0 405.75 L0 445.72 L49.41 445.72 L49.41 405.75 Z" class="st12"/>
				<text x="13.72" y="429.33" class="st4">SMP</text>			</g>
		</g>
		<g id="shape3261-114" transform="translate(1,-350.042)">
			<title>Nordic Light Grey</title>
			<rect x="0" y="351.042" width="127.378" height="94.6771" class="st17"/>
		</g>
		<g id="group3297-116" transform="translate(5.8114,-355.93)">
			<title>Sheet.3297</title>
			<g id="group3290-117">
				<title>Sheet.3290</title>
				<g id="shape3271-118">
					<title>Sheet.3271</title>
					<rect x="0" y="427.713" width="28.1738" height="18.0063" class="st18"/>
				</g>
				<g id="shape3282-120" transform="translate(34.6999,-0.862791)">
					<title>Sheet.3282</title>
					<desc>Matter (build with GN)</desc>
					<rect x="0" y="429.439" width="83.0556" height="16.2807" class="st19"/>
					<text x="4" y="439.98" class="st20">Matter (build with GN)</text>				</g>
			</g>
			<g id="group3293-123" transform="translate(7.99361E-15,-21.5577)">
				<title>Sheet.3293</title>
				<g id="shape3220-124">
					<title>Sheet.3220</title>
					<rect x="0" y="427.713" width="28.1738" height="18.0063" class="st3"/>
				</g>
				<g id="shape3278-126" transform="translate(34.6999,-0.862791)">
					<title>Sheet.3278</title>
					<desc>Third-party</desc>
					<rect x="0" y="429.439" width="83.0556" height="16.2807" class="st19"/>
					<text x="4" y="439.98" class="st20">Third-party</text>				</g>
			</g>
			<g id="group3294-129" transform="translate(7.99361E-15,-43.2261)">
				<title>Sheet.3294</title>
				<g id="shape3222-130">
					<title>Sheet.3222</title>
					<rect x="0" y="427.713" width="28.1738" height="18.0063" class="st8"/>
				</g>
				<g id="shape3276-132" transform="translate(34.6999,-0.862791)">
					<title>Sheet.3276</title>
					<desc>Zephyr</desc>
					<rect x="0" y="429.439" width="83.0556" height="16.2807" class="st19"/>
					<text x="4" y="439.98" class="st20">Zephyr</text>				</g>
			</g>
			<g id="group3295-135" transform="translate(7.99361E-15,-64.8945)">
				<title>Sheet.3295</title>
				<g id="shape3223-136">
					<title>Sheet.3223</title>
					<rect x="0" y="427.713" width="28.1738" height="18.0063" class="st1"/>
				</g>
				<g id="shape3274-138" transform="translate(34.6999,-0.862791)">
					<title>Sheet.3274</title>
					<desc>nRF Connect SDK</desc>
					<rect x="0" y="429.439" width="83.0556" height="16.2807" class="st19"/>
					<text x="4" y="439.98" class="st20">nRF Connect SDK</text>				</g>
			</g>
		</g>
	</g>
</svg>
