<?xml version="1.0" encoding="UTF-8" standalone="no"?>
<!DOCTYPE svg PUBLIC "-//W3C//DTD SVG 1.1//EN" "http://www.w3.org/Graphics/SVG/1.1/DTD/svg11.dtd">
<!-- Generated by Microsoft Visio, SVG Export matter_device_attestation.svg Page-1 -->
<svg xmlns="http://www.w3.org/2000/svg" xmlns:xlink="http://www.w3.org/1999/xlink" xmlns:ev="http://www.w3.org/2001/xml-events"
		width="6.7639in" height="5.93329in" viewBox="0 0 487.001 427.197" xml:space="preserve" color-interpolation-filters="sRGB"
		class="st26">
	<style type="text/css">
	<![CDATA[
		.st1 {fill:#00a9ce;stroke:none;stroke-width:1}
		.st2 {fill:#feffff;font-family:Arial;font-size:0.833336em}
		.st3 {font-size:1em}
		.st4 {fill:#00a9ce;stroke:#feffff;stroke-width:1}
		.st5 {marker-end:url(#mrkr13-21);stroke:#00a9ce;stroke-linecap:butt;stroke-width:1}
		.st6 {fill:#00a9ce;fill-opacity:1;stroke:#00a9ce;stroke-opacity:1;stroke-width:0.28409090909091}
		.st7 {fill:none;stroke:#ffc000;stroke-dasharray:7,5;stroke-width:1}
		.st8 {fill:#ffc000;font-family:Arial;font-size:0.833336em}
		.st9 {fill:none;stroke:none;stroke-width:1}
		.st10 {fill:#00a9ce;font-family:Arial;font-size:0.833336em}
		.st11 {marker-start:url(#mrkr4-61);stroke:#00a9ce;stroke-linecap:butt;stroke-width:1}
		.st12 {fill:none;stroke:#333f48;stroke-dasharray:7,5;stroke-width:1}
		.st13 {fill:#333f48;font-family:Arial;font-size:0.833336em}
		.st14 {stroke:#00a9ce;stroke-linecap:butt;stroke-width:1}
		.st15 {fill:none;stroke:#0033a0;stroke-dasharray:7,5;stroke-width:1}
		.st16 {fill:#0033a0;font-family:Arial;font-size:0.833336em}
		.st17 {fill:none;stroke:#768692;stroke-dasharray:7,5;stroke-width:1}
		.st18 {fill:#768692;font-family:Arial;font-size:0.833336em}
		.st19 {fill:#333f48;stroke:none;stroke-width:1}
		.st20 {marker-end:url(#mrkr4-113);stroke:#333f48;stroke-dasharray:8,4;stroke-linecap:butt;stroke-width:1}
		.st21 {fill:#333f48;fill-opacity:1;stroke:#333f48;stroke-opacity:1;stroke-width:0.28409090909091}
		.st22 {marker-end:url(#mrkr4-113);stroke:#333f48;stroke-linecap:butt;stroke-width:1}
		.st23 {fill:none;stroke:#768692;stroke-width:1}
		.st24 {fill:#333f48;font-family:Arial;font-size:0.666664em}
		.st25 {fill:#00a9ce;stroke:none;stroke-linecap:round;stroke-linejoin:round;stroke-width:0.75}
		.st26 {fill:none;fill-rule:evenodd;font-size:12px;overflow:visible;stroke-linecap:square;stroke-miterlimit:3}
	]]>
	</style>

	<defs id="Markers">
		<g id="lend13">
			<path d="M 3 1 L 0 0 L 3 -1 L 3 1 " style="stroke:none"/>
		</g>
		<marker id="mrkr13-21" class="st6" refX="-10.56" orient="auto" markerUnits="strokeWidth" overflow="visible">
			<use xlink:href="#lend13" transform="scale(-3.52,-3.52) "/>
		</marker>
		<g id="lend4">
			<path d="M 2 1 L 0 0 L 2 -1 L 2 1 " style="stroke:none"/>
		</g>
		<marker id="mrkr4-61" class="st6" refX="6.68" orient="auto" markerUnits="strokeWidth" overflow="visible">
			<use xlink:href="#lend4" transform="scale(3.52) "/>
		</marker>
		<marker id="mrkr4-113" class="st21" refX="-7.04" orient="auto" markerUnits="strokeWidth" overflow="visible">
			<use xlink:href="#lend4" transform="scale(-3.52,-3.52) "/>
		</marker>
	</defs>
	<g>
		<title>Page-1</title>
		<g id="shape3296-1" transform="translate(25.2674,-227.175)">
			<title>Sheet.3296</title>
			<desc>Self-signed PAA certificate</desc>
			<rect x="0" y="386.915" width="71.0733" height="40.2818" class="st1"/>
			<text x="10.52" y="398.06" class="st2">Self-signed <tspan x="25.53" dy="1.2em" class="st3">PAA </tspan><tspan x="14.14"
						dy="1.2em" class="st3">certificate</tspan></text>		</g>
		<g id="shape3298-6" transform="translate(273.195,-173.615)">
			<title>Sheet.3298</title>
			<desc>DAC certificate</desc>
			<rect x="0" y="386.915" width="71.0733" height="40.2818" class="st4"/>
			<text x="24.98" y="404.06" class="st2">DAC <tspan x="14.14" dy="1.2em" class="st3">certificate</tspan></text>		</g>
		<g id="shape3299-10" transform="translate(403.457,-380.842)">
			<title>Sheet.3299</title>
			<desc>Manufacturer</desc>
			<rect x="0" y="386.915" width="71.0733" height="40.2818" class="st1"/>
			<text x="6.08" y="410.06" class="st2">Manufacturer</text>		</g>
		<g id="shape3304-13" transform="translate(273.195,-108.717)">
			<title>Sheet.3304</title>
			<desc>Private key</desc>
			<rect x="0" y="386.915" width="71.0733" height="40.2818" class="st1"/>
			<text x="10.8" y="410.06" class="st2">Private key</text>		</g>
		<g id="shape3305-16" transform="translate(60.8041,-227.175)">
			<title>Dynamic connector.3305</title>
			<path d="M0 427.2 L0 460.62 L72.57 460.62" class="st5"/>
		</g>
		<g id="shape3309-22" transform="translate(15.4498,-161.157)">
			<title>Sheet.3309</title>
			<desc>Public Key Infrastructure (PKI)</desc>
			<path d="M0 427.2 L342.99 427.2 L342.99 303.29 L0 303.29 L0 427.2 Z" class="st7"/>
			<text x="204.5" y="319.89" class="st8">Public Key Infrastructure (PKI)</text>		</g>
		<g id="shape3316-25" transform="translate(32.4576,-380.843)">
			<title>Sheet.3316</title>
			<desc>CSA (TCOC)</desc>
			<rect x="0" y="386.915" width="56.6929" height="40.2818" class="st1"/>
			<text x="18.07" y="404.06" class="st2">CSA <tspan x="10.85" dy="1.2em" class="st3">(TCOC)</tspan></text>		</g>
		<g id="shape3318-29" transform="translate(99.497,-369.504)">
			<title>Sheet.3318</title>
			<desc>Provides VID and signed CD to Manufacturer</desc>
			<rect x="0" y="401.088" width="303.96" height="26.1086" class="st9"/>
			<text x="51.93" y="417.14" class="st10">Provides VID and signed CD to Manufacturer</text>		</g>
		<g id="shape3321-32" transform="translate(89.1505,-385.094)">
			<title>Dynamic connector.3321</title>
			<path d="M0 420.11 L303.75 420.11" class="st5"/>
		</g>
		<g id="shape3322-37" transform="translate(403.457,-404.937)">
			<title>Dynamic connector.3322</title>
			<path d="M0 420.11 L-303.75 420.11" class="st5"/>
		</g>
		<g id="shape3323-42" transform="translate(99.497,-412.024)">
			<title>Sheet.3323</title>
			<desc>Requests VID from CSA</desc>
			<rect x="0" y="413.024" width="303.96" height="14.1732" class="st9"/>
			<text x="98.07" y="423.11" class="st10">Requests VID from CSA</text>		</g>
		<g id="shape3324-45" transform="translate(215.154,-302.622)">
			<title>Sheet.3324</title>
			<desc>DCL</desc>
			<rect x="0" y="386.915" width="56.6929" height="40.2818" class="st1"/>
			<text x="18.34" y="410.06" class="st2">DCL</text>		</g>
		<g id="shape3325-48" transform="translate(89.1506,-385.094)">
			<title>Dynamic connector.3325</title>
			<path d="M0 427.2 L15.87 427.2 L15.87 478.49 L115.44 478.49" class="st5"/>
		</g>
		<g id="shape3326-53" transform="translate(102.332,-336.905)">
			<title>Sheet.3326</title>
			<desc>Provides DCL</desc>
			<rect x="0" y="413.024" width="82.2047" height="14.1732" class="st9"/>
			<text x="10.26" y="423.11" class="st10">Provides DCL</text>		</g>
		<g id="shape3327-56" transform="translate(215.154,-313.961)">
			<title>Dynamic connector.3327</title>
			<path d="M-6.68 427.2 L-7.04 427.2 L-110.41 427.2 L-110.41 482.21 L-118.81 482.21" class="st11"/>
		</g>
		<g id="shape3328-62" transform="translate(120.332,-86.0394)">
			<title>Sheet.3328</title>
			<desc>Factory data</desc>
			<path d="M0 427.2 L252.28 427.2 L252.28 284.05 L0 284.05 L0 427.2 Z" class="st12"/>
			<text x="4" y="420.2" class="st13">Factory data</text>		</g>
		<g id="shape3329-65" transform="translate(301.645,-173.615)">
			<title>Dynamic connector.3329</title>
			<path d="M7.09 427.2 L7.09 451.81" class="st14"/>
		</g>
		<g id="shape3330-68" transform="translate(143.93,-173.615)">
			<title>Sheet.3330</title>
			<desc>PAI certificate</desc>
			<rect x="0" y="386.915" width="71.0733" height="40.2818" class="st1"/>
			<text x="27.48" y="404.06" class="st2">PAI <tspan x="14.14" dy="1.2em" class="st3">certificate</tspan></text>		</g>
		<g id="shape3331-72" transform="translate(215.003,-186.669)">
			<title>Dynamic connector.3331</title>
			<path d="M0 420.11 L47.63 420.11" class="st5"/>
		</g>
		<g id="shape3342-77" transform="translate(143.93,-108.717)">
			<title>Sheet.3342</title>
			<desc>Verifier</desc>
			<rect x="0" y="386.915" width="71.0733" height="40.2818" class="st1"/>
			<text x="19.7" y="410.06" class="st2">Verifier</text>		</g>
		<g id="shape3343-80" transform="translate(113.67,-66.1968)">
			<title>Sheet.3343</title>
			<desc>Application</desc>
			<path d="M0 427.2 L351.07 427.2 L351.07 260.55 L0 260.55 L0 427.2 Z" class="st15"/>
			<text x="298.15" y="420.2" class="st16">Application</text>		</g>
		<g id="shape3344-83" transform="translate(383.245,-173.615)">
			<title>Sheet.3344</title>
			<desc>Certification Declaration</desc>
			<rect x="0" y="386.915" width="71.0733" height="40.2818" class="st1"/>
			<text x="9.14" y="404.06" class="st2">Certification <tspan x="10.25" dy="1.2em" class="st3">Declaration</tspan></text>		</g>
		<g id="shape3345-87" transform="translate(431.907,-380.842)">
			<title>Dynamic connector.3345</title>
			<path d="M7.09 427.2 L7.09 564.64" class="st5"/>
		</g>
		<g id="shape3363-92" transform="translate(1,-43.5197)">
			<title>Sheet.3363</title>
			<desc>DAC elements validated during commissioning</desc>
			<path d="M0 427.2 L485 427.2 L485 115.39 L0 115.39 L0 427.2 Z" class="st17"/>
			<text x="4" y="420.2" class="st18">DAC elements validated during commissioning</text>		</g>
		<g id="shape3371-95" transform="translate(89.1506,-411.173)">
			<title>Dynamic connector.3371</title>
			<path d="M0 434.28 L303.75 434.28" class="st5"/>
		</g>
		<g id="shape3417-100" transform="translate(89.1506,-288.717)">
			<title>Sheet.3417</title>
			<desc>Provides PAA certificate to DCL</desc>
			<rect x="0" y="401.685" width="111.969" height="25.5118" class="st9"/>
			<text x="25.14" y="411.44" class="st10">Provides PAA <tspan x="17.64" dy="1.2em" class="st3">certificate to DCL</tspan></text>		</g>
		<g id="shape3421-104" transform="translate(25.2674,-300.055)">
			<title>Sheet.3421</title>
			<desc>PAA organization</desc>
			<rect x="0" y="386.915" width="71.0733" height="40.2818" class="st19"/>
			<text x="25.53" y="404.06" class="st2">PAA <tspan x="8.3" dy="1.2em" class="st3">organization</tspan></text>		</g>
		<g id="shape3422-108" transform="translate(53.7175,-380.843)">
			<title>Dynamic connector.3422</title>
			<path d="M7.09 427.2 L7.09 460.66" class="st20"/>
		</g>
		<g id="shape3423-114" transform="translate(53.7175,-300.055)">
			<title>Dynamic connector.3423</title>
			<path d="M7.09 427.2 L7.09 452.76" class="st22"/>
		</g>
		<g id="group3435-119" transform="translate(1,-1)">
			<title>Sheet.3435</title>
			<g id="shape3261-120">
				<title>Nordic Light Grey</title>
				<rect x="0" y="395.97" width="161.921" height="31.2273" class="st23"/>
			</g>
			<g id="shape3222-122" transform="translate(2.904,-3.72702)">
				<title>Sheet.3222</title>
				<rect x="0" y="416.329" width="17.0048" height="10.868" class="st19"/>
			</g>
			<g id="shape3276-124" transform="translate(23.8477,-4.24778)">
				<title>Sheet.3276</title>
				<desc>Parties external to the DAC process</desc>
				<rect x="0" y="417.37" width="138.073" height="9.82649" class="st9"/>
				<text x="4" y="424.68" class="st24">Parties external to the DAC process</text>			</g>
			<g id="shape3223-127" transform="translate(2.904,-16.8054)">
				<title>Sheet.3223</title>
				<rect x="0" y="416.329" width="17.0048" height="10.868" class="st25"/>
			</g>
			<g id="shape3274-129" transform="translate(23.8477,-17.3261)">
				<title>Sheet.3274</title>
				<desc>Parts of the DAC process</desc>
				<rect x="0" y="417.37" width="132.404" height="9.82649" class="st9"/>
				<text x="4" y="424.68" class="st24">Parts of the DAC process</text>			</g>
		</g>
	</g>
</svg>
