<?xml version="1.0" encoding="utf-8"?>
<!-- Generator: Adobe Illustrator 25.2.3, SVG Export Plug-In . SVG Version: 6.00 Build 0)  -->
<svg version="1.1" xmlns="http://www.w3.org/2000/svg" xmlns:xlink="http://www.w3.org/1999/xlink" x="0px" y="0px"
	 viewBox="0 0 350 216.68" style="enable-background:new 0 0 350 216.68;" xml:space="preserve">
<style type="text/css">
	.st0{fill:none;}
	.st1{fill:none;stroke:#00A9CE;stroke-width:2.1786;stroke-linecap:round;stroke-miterlimit:10;}
	.st2{fill:#00A9CE;}
	.st3{fill:none;stroke:#00A9CE;stroke-miterlimit:10;}
	.st4{fill:none;stroke:#00A9CE;stroke-width:2.034;stroke-miterlimit:10;}
	.st5{fill:none;stroke:#00A9CE;stroke-width:1.0165;stroke-miterlimit:10;}
	.st6{fill:none;stroke:#00A9CE;stroke-width:2.7341;stroke-linecap:round;stroke-linejoin:round;stroke-miterlimit:10;}
	.st7{fill:#131926;}
	.st8{fill:none;stroke:#00A9CE;stroke-width:2;stroke-miterlimit:10;}
	.st9{fill:#333F48;}
	.st10{fill:#CEDD50;}
	.st11{fill:none;stroke:#00A9CE;stroke-width:3.554;stroke-linecap:round;stroke-linejoin:round;stroke-miterlimit:10;}
	.st12{fill:none;stroke:#00A9CE;stroke-width:3.1125;stroke-linecap:round;stroke-linejoin:round;stroke-miterlimit:10;}
	.st13{fill:none;stroke:#00B2DB;stroke-width:45;stroke-linecap:round;stroke-linejoin:round;stroke-miterlimit:10;}
	.st14{fill:none;stroke:#00B2DB;stroke-width:30;stroke-linecap:round;stroke-linejoin:round;stroke-miterlimit:10;}
	.st15{fill:none;stroke:#00A9CE;stroke-width:1.5742;stroke-linecap:round;stroke-linejoin:round;stroke-miterlimit:10;}
	.st16{fill:none;stroke:#00A9CE;stroke-width:2.3613;stroke-linecap:round;stroke-linejoin:round;stroke-miterlimit:10;}
	.st17{fill:none;stroke:#00A9CE;stroke-width:3;stroke-linecap:round;stroke-linejoin:round;stroke-miterlimit:10;}
	.st18{fill:none;stroke:#00A9CE;stroke-width:2.8475;stroke-linecap:round;stroke-linejoin:round;stroke-miterlimit:10;}
	.st19{fill:none;stroke:#00A9CE;stroke-width:2.2271;stroke-miterlimit:10;}
	.st20{fill:none;stroke:#00A9CE;stroke-width:3.4468;stroke-linecap:round;stroke-linejoin:round;stroke-miterlimit:10;}
	.st21{fill:none;stroke:#00A9CE;stroke-width:2.8723;stroke-linecap:round;stroke-linejoin:round;stroke-miterlimit:10;}
	.st22{fill:none;stroke:#00A9CE;stroke-width:1.8566;stroke-linecap:round;stroke-linejoin:round;stroke-miterlimit:10;}
	.st23{fill:none;stroke:#00A9CE;stroke-width:2.5;stroke-linecap:round;stroke-linejoin:round;stroke-miterlimit:10;}
	.st24{fill:none;stroke:#00A9CE;stroke-width:2;stroke-linecap:round;stroke-miterlimit:10;}
	.st25{display:none;}
	.st26{display:inline;fill:#2300E2;}
	.st27{display:inline;fill:none;stroke:#00A9CE;stroke-width:2;stroke-miterlimit:10;}
	.st28{display:inline;fill:none;stroke:#00A9CE;stroke-width:2.1264;stroke-linecap:round;stroke-miterlimit:10;}
</style>
<g id="Layer_2">
</g>
<g id="Layer_1">
	<g>
		<rect x="208.24" y="104.36" class="st17" width="37.42" height="67.06"/>
		<line class="st18" x1="228.52" y1="112.89" x2="219.58" y2="112.89"/>
		<line class="st18" x1="234.28" y1="112.89" x2="234.28" y2="112.89"/>
		<path class="st2" d="M219.21,127.93h-4.11c-0.77,0-1.4-0.63-1.4-1.4v-4.11c0-0.77,0.63-1.4,1.4-1.4h4.11c0.77,0,1.4,0.63,1.4,1.4
			v4.11C220.61,127.3,219.98,127.93,219.21,127.93z"/>
		<path class="st2" d="M229.01,127.93h-4.11c-0.77,0-1.4-0.63-1.4-1.4v-4.11c0-0.77,0.63-1.4,1.4-1.4h4.11c0.77,0,1.4,0.63,1.4,1.4
			v4.11C230.41,127.3,229.78,127.93,229.01,127.93z"/>
		<path class="st2" d="M238.81,127.93h-4.11c-0.77,0-1.4-0.63-1.4-1.4v-4.11c0-0.77,0.63-1.4,1.4-1.4h4.11c0.77,0,1.4,0.63,1.4,1.4
			v4.11C240.22,127.3,239.59,127.93,238.81,127.93z"/>
		<path class="st2" d="M219.21,137.42h-4.11c-0.77,0-1.4-0.63-1.4-1.4v-4.11c0-0.77,0.63-1.4,1.4-1.4h4.11c0.77,0,1.4,0.63,1.4,1.4
			v4.11C220.61,136.78,219.98,137.42,219.21,137.42z"/>
		<path class="st2" d="M229.01,137.42h-4.11c-0.77,0-1.4-0.63-1.4-1.4v-4.11c0-0.77,0.63-1.4,1.4-1.4h4.11c0.77,0,1.4,0.63,1.4,1.4
			v4.11C230.41,136.78,229.78,137.42,229.01,137.42z"/>
		<path class="st2" d="M238.81,137.42h-4.11c-0.77,0-1.4-0.63-1.4-1.4v-4.11c0-0.77,0.63-1.4,1.4-1.4h4.11c0.77,0,1.4,0.63,1.4,1.4
			v4.11C240.22,136.78,239.59,137.42,238.81,137.42z"/>
		<path class="st2" d="M219.21,146.9h-4.11c-0.77,0-1.4-0.63-1.4-1.4v-4.11c0-0.77,0.63-1.4,1.4-1.4h4.11c0.77,0,1.4,0.63,1.4,1.4
			v4.11C220.61,146.26,219.98,146.9,219.21,146.9z"/>
		<path class="st2" d="M229.01,146.9h-4.11c-0.77,0-1.4-0.63-1.4-1.4v-4.11c0-0.77,0.63-1.4,1.4-1.4h4.11c0.77,0,1.4,0.63,1.4,1.4
			v4.11C230.41,146.26,229.78,146.9,229.01,146.9z"/>
		<path class="st2" d="M219.21,164.49h-4.11c-0.77,0-1.4-0.63-1.4-1.4v-4.11c0-0.77,0.63-1.4,1.4-1.4h4.11c0.77,0,1.4,0.63,1.4,1.4
			v4.11C220.61,163.86,219.98,164.49,219.21,164.49z"/>
		<path class="st2" d="M229.01,164.49h-4.11c-0.77,0-1.4-0.63-1.4-1.4v-4.11c0-0.77,0.63-1.4,1.4-1.4h4.11c0.77,0,1.4,0.63,1.4,1.4
			v4.11C230.41,163.86,229.78,164.49,229.01,164.49z"/>
		<path class="st2" d="M238.81,164.49h-4.11c-0.77,0-1.4-0.63-1.4-1.4v-4.11c0-0.77,0.63-1.4,1.4-1.4h4.11c0.77,0,1.4,0.63,1.4,1.4
			v4.11C240.22,163.86,239.59,164.49,238.81,164.49z"/>
	</g>
	<polygon class="st2" points="190.31,168.18 192.7,170.57 81.76,170.57 84.15,168.18 81.28,168.18 77.88,171.57 81.28,174.96 
		84.15,174.96 81.76,172.57 192.7,172.57 190.31,174.96 193.19,174.96 196.58,171.57 193.19,168.18 	"/>
	<path class="st2" d="M59.49,128.05H28.58c-4,0-7.25,3.25-7.25,7.25v30.29c0,4,3.25,7.25,7.25,7.25h30.91c4,0,7.25-3.25,7.25-7.25
		V135.3C66.74,131.3,63.49,128.05,59.49,128.05z M64.01,165.59c0,2.49-2.03,4.52-4.52,4.52H28.58c-2.49,0-4.52-2.03-4.52-4.52V135.3
		c0-2.49,2.03-4.52,4.52-4.52h30.91c2.49,0,4.52,2.03,4.52,4.52V165.59z"/>
	<circle class="st2" cx="28.55" cy="136.38" r="3.19"/>
	<g>
		<path class="st7" d="M48.55,145.17c-0.92,0.74-2.02,1.26-3.23,1.48v-6.32l-1.29-0.74l-1.29,0.74v6.32
			c-1.21-0.22-2.31-0.74-3.23-1.48l-2.34,1.35c1.76,1.74,4.19,2.82,6.86,2.82c2.68,0,5.1-1.08,6.86-2.82L48.55,145.17z"/>
		<path class="st7" d="M35.49,149.43v2.71c1.1,0.42,2.11,1.12,2.9,2.06l-5.47,3.16v1.49l1.29,0.74l5.47-3.16
			c0.42,1.16,0.52,2.37,0.33,3.54l2.34,1.35c0.63-2.4,0.35-5.04-0.99-7.35C40.03,151.64,37.88,150.08,35.49,149.43z"/>
		<path class="st7" d="M52.57,152.13v-2.71c-2.39,0.65-4.54,2.22-5.87,4.53c-1.34,2.32-1.62,4.95-0.99,7.35l2.34-1.35
			c-0.18-1.17-0.08-2.38,0.33-3.54l5.47,3.16l1.29-0.74v-1.49l-5.47-3.16C50.47,153.25,51.47,152.55,52.57,152.13z"/>
	</g>
	<path class="st2" d="M341.47,17.64h-68.96c-0.95,0-1.72,0.77-1.72,1.72v45.19c0,0.95,0.77,1.72,1.72,1.72h33.08v10.81h-15.02
		c-0.95,0-1.72,0.77-1.72,1.72s0.77,1.72,1.72,1.72h33.5c0.95,0,1.72-0.77,1.72-1.72s-0.77-1.72-1.72-1.72h-15.02V66.28h32.43
		c0.95,0,1.72-0.77,1.72-1.72V19.36C343.19,18.41,342.42,17.64,341.47,17.64z M339.74,62.83h-65.51V21.08h65.51V62.83z"/>
	<path class="st2" d="M289.62,53.83c0.25,0.18,0.55,0.27,0.84,0.27c0.45,0,0.89-0.21,1.17-0.6l9.98-13.86l9.32,9.32
		c0.3,0.3,0.73,0.46,1.14,0.41c0.42-0.04,0.81-0.26,1.05-0.61l11.59-16.71c0.45-0.65,0.29-1.55-0.36-2c-0.65-0.45-1.55-0.29-2,0.36
		l-10.61,15.29l-9.3-9.3c-0.3-0.3-0.71-0.45-1.13-0.42c-0.42,0.03-0.8,0.25-1.05,0.59l-10.96,15.23
		C288.83,52.47,288.97,53.37,289.62,53.83z"/>
	<path class="st2" d="M200.92,45.05c-0.42-0.36-1.05-0.32-1.41,0.09c-0.36,0.42-0.32,1.05,0.09,1.41l128.11,112.08
		c0.19,0.17,0.42,0.25,0.66,0.25c0.28,0,0.55-0.12,0.75-0.34c0.36-0.42,0.32-1.05-0.09-1.41L200.92,45.05z"/>
	<g>
		<path class="st9" d="M116.93,185.07c0.19,0.22,0.29,0.5,0.29,0.84c0,0.29-0.07,0.54-0.21,0.75s-0.32,0.36-0.56,0.47
			c-0.23,0.1-0.49,0.16-0.78,0.16h-1.92v-4.9h1.74c0.44,0,0.79,0.11,1.05,0.33c0.26,0.22,0.39,0.52,0.39,0.9
			c0,0.26-0.07,0.49-0.2,0.68s-0.33,0.32-0.57,0.38v0.01C116.48,184.73,116.74,184.86,116.93,185.07z M114.29,182.9v1.59h1.05
			c0.67,0,1-0.26,1-0.78c0-0.54-0.32-0.81-0.97-0.81H114.29z M116.35,186.53c0.19-0.16,0.28-0.38,0.28-0.66
			c0-0.27-0.1-0.49-0.29-0.65s-0.46-0.24-0.82-0.24h-1.24v1.79h1.29C115.91,186.78,116.17,186.7,116.35,186.53z"/>
		<path class="st9" d="M118.44,187.29h-0.5v-4.9h0.5V187.29z"/>
		<path class="st9" d="M119.65,187.06c-0.22-0.23-0.33-0.58-0.33-1.05v-1.95h0.51v1.92c0,0.31,0.07,0.54,0.22,0.7
			c0.15,0.15,0.35,0.23,0.6,0.23c0.3,0,0.54-0.11,0.72-0.33s0.27-0.57,0.27-1.06v-1.46h0.5v3.23h-0.5v-0.6h-0.01
			c-0.09,0.21-0.22,0.38-0.4,0.51c-0.18,0.13-0.41,0.2-0.7,0.2C120.16,187.39,119.87,187.28,119.65,187.06z"/>
		<path class="st9" d="M125.62,184.42c0.26,0.32,0.4,0.72,0.4,1.23v0.09h-2.69c0,0.35,0.11,0.64,0.33,0.85s0.49,0.32,0.83,0.32
			c0.27,0,0.48-0.06,0.65-0.17c0.17-0.11,0.32-0.26,0.46-0.44l0.36,0.33c-0.16,0.22-0.35,0.4-0.58,0.55
			c-0.23,0.15-0.52,0.22-0.88,0.22c-0.34,0-0.63-0.07-0.88-0.21c-0.25-0.14-0.45-0.34-0.59-0.6c-0.14-0.26-0.21-0.56-0.21-0.9
			c0-0.34,0.07-0.64,0.21-0.9c0.14-0.26,0.33-0.46,0.58-0.61s0.53-0.22,0.86-0.22C124.97,183.95,125.35,184.11,125.62,184.42z
			 M123.7,184.66c-0.2,0.16-0.32,0.39-0.35,0.69h2.12c-0.02-0.3-0.12-0.53-0.3-0.69c-0.18-0.16-0.42-0.25-0.73-0.25
			C124.14,184.42,123.9,184.5,123.7,184.66z"/>
		<path class="st9" d="M127.31,184.49v1.91c0,0.28,0.14,0.43,0.41,0.43h0.17v0.47h-0.27c-0.26,0-0.46-0.07-0.6-0.2
			s-0.22-0.33-0.22-0.6v-2.01h-0.62v-0.43h0.62v-1.29h0.5v1.29h0.71v0.43H127.31z"/>
		<path class="st9" d="M130.88,184.17c0.27,0.15,0.47,0.35,0.62,0.61s0.22,0.56,0.22,0.89c0,0.33-0.07,0.63-0.22,0.89
			s-0.36,0.47-0.62,0.61c-0.27,0.15-0.57,0.22-0.9,0.22c-0.33,0-0.63-0.07-0.9-0.22c-0.27-0.15-0.48-0.35-0.63-0.62
			s-0.23-0.56-0.23-0.89c0-0.33,0.08-0.62,0.23-0.89s0.36-0.47,0.63-0.62c0.27-0.15,0.56-0.22,0.9-0.22
			C130.31,183.95,130.61,184.02,130.88,184.17z M129.35,184.6c-0.18,0.1-0.33,0.24-0.43,0.43c-0.1,0.19-0.16,0.4-0.16,0.64
			c0,0.24,0.05,0.46,0.16,0.64c0.11,0.19,0.25,0.33,0.43,0.43c0.18,0.1,0.39,0.15,0.63,0.15s0.44-0.05,0.63-0.15
			c0.18-0.1,0.33-0.24,0.43-0.43c0.11-0.19,0.16-0.4,0.16-0.64c0-0.24-0.05-0.46-0.16-0.64c-0.1-0.19-0.25-0.33-0.43-0.43
			c-0.18-0.1-0.39-0.15-0.63-0.15S129.53,184.5,129.35,184.6z"/>
		<path class="st9" d="M134.82,184.17c0.27,0.15,0.47,0.35,0.62,0.61s0.22,0.56,0.22,0.89c0,0.33-0.08,0.63-0.22,0.89
			s-0.36,0.47-0.62,0.61c-0.27,0.15-0.57,0.22-0.9,0.22c-0.33,0-0.63-0.07-0.9-0.22c-0.27-0.15-0.47-0.35-0.63-0.62
			c-0.15-0.26-0.23-0.56-0.23-0.89c0-0.33,0.08-0.62,0.23-0.89c0.15-0.26,0.36-0.47,0.63-0.62c0.27-0.15,0.56-0.22,0.9-0.22
			C134.26,183.95,134.56,184.02,134.82,184.17z M133.3,184.6c-0.18,0.1-0.33,0.24-0.43,0.43c-0.11,0.19-0.16,0.4-0.16,0.64
			c0,0.24,0.05,0.46,0.16,0.64c0.1,0.19,0.25,0.33,0.43,0.43c0.18,0.1,0.39,0.15,0.63,0.15s0.44-0.05,0.63-0.15
			c0.18-0.1,0.33-0.24,0.43-0.43c0.1-0.19,0.16-0.4,0.16-0.64c0-0.24-0.05-0.46-0.16-0.64c-0.11-0.19-0.25-0.33-0.43-0.43
			c-0.18-0.1-0.39-0.15-0.63-0.15S133.48,184.5,133.3,184.6z"/>
		<path class="st9" d="M136.97,184.49v1.91c0,0.28,0.14,0.43,0.41,0.43h0.17v0.47h-0.27c-0.26,0-0.46-0.07-0.6-0.2
			c-0.15-0.14-0.22-0.33-0.22-0.6v-2.01h-0.62v-0.43h0.62v-1.29h0.5v1.29h0.71v0.43H136.97z"/>
		<path class="st9" d="M138.82,184.68h0.01c0.1-0.23,0.25-0.41,0.46-0.54c0.2-0.13,0.43-0.19,0.7-0.19c0.38,0,0.68,0.11,0.9,0.34
			c0.22,0.22,0.34,0.57,0.34,1.04v1.97h-0.5v-1.9c0-0.32-0.08-0.55-0.23-0.71c-0.15-0.15-0.36-0.23-0.63-0.23
			c-0.31,0-0.56,0.11-0.75,0.32c-0.19,0.21-0.29,0.55-0.29,1.03v1.49h-0.5v-4.9h0.5V184.68z"/>
		<path class="st9" d="M144.79,186.77h2.28v0.52h-2.81v-4.9h0.54V186.77z"/>
		<path class="st9" d="M150.42,186.78v0.51h-2.78v-4.9h2.74v0.51h-2.21v1.41h2.03v0.5h-2.03v1.97H150.42z"/>
		<path class="st9" d="M154.1,183.51v0.55h0.74v0.43h-0.74v2.8h-0.5v-2.8H153v-0.43h0.6v-0.54c0-0.4,0.1-0.7,0.3-0.9
			s0.48-0.3,0.84-0.3h0.11v0.48h-0.09C154.32,182.8,154.1,183.03,154.1,183.51z"/>
		<path class="st9" d="M157.61,184.17c0.27,0.15,0.47,0.35,0.62,0.61s0.22,0.56,0.22,0.89c0,0.33-0.07,0.63-0.22,0.89
			s-0.36,0.47-0.62,0.61c-0.27,0.15-0.57,0.22-0.9,0.22c-0.33,0-0.63-0.07-0.9-0.22c-0.27-0.15-0.48-0.35-0.63-0.62
			s-0.23-0.56-0.23-0.89c0-0.33,0.08-0.62,0.23-0.89s0.36-0.47,0.63-0.62c0.27-0.15,0.56-0.22,0.9-0.22
			C157.04,183.95,157.34,184.02,157.61,184.17z M156.08,184.6c-0.18,0.1-0.33,0.24-0.43,0.43c-0.1,0.19-0.16,0.4-0.16,0.64
			c0,0.24,0.05,0.46,0.16,0.64c0.11,0.19,0.25,0.33,0.43,0.43c0.18,0.1,0.39,0.15,0.63,0.15s0.44-0.05,0.63-0.15
			c0.18-0.1,0.33-0.24,0.43-0.43c0.11-0.19,0.16-0.4,0.16-0.64c0-0.24-0.05-0.46-0.16-0.64c-0.1-0.19-0.25-0.33-0.43-0.43
			c-0.18-0.1-0.39-0.15-0.63-0.15S156.26,184.5,156.08,184.6z"/>
		<path class="st9" d="M160.8,184.54h-0.1c-0.35,0-0.61,0.11-0.79,0.32s-0.28,0.52-0.28,0.91v1.52h-0.5v-3.23h0.5v0.73h0.01
			c0.07-0.25,0.2-0.45,0.39-0.6c0.19-0.15,0.42-0.23,0.68-0.23h0.08V184.54z"/>
		<path class="st9" d="M116.02,195.47c-0.39-0.21-0.7-0.52-0.92-0.9c-0.22-0.39-0.33-0.83-0.33-1.33c0-0.5,0.11-0.94,0.33-1.33
			c0.22-0.39,0.53-0.69,0.92-0.9c0.39-0.21,0.85-0.32,1.37-0.32c0.34,0,0.66,0.05,0.93,0.14c0.28,0.09,0.53,0.23,0.78,0.41
			l-0.33,0.47c-0.42-0.32-0.88-0.48-1.39-0.48c-0.39,0-0.74,0.08-1.05,0.25s-0.54,0.4-0.71,0.71c-0.17,0.31-0.26,0.65-0.26,1.05
			c0,0.39,0.08,0.74,0.26,1.05c0.17,0.31,0.41,0.54,0.71,0.71s0.65,0.25,1.05,0.25c0.51,0,0.97-0.16,1.39-0.48l0.33,0.47
			c-0.24,0.18-0.5,0.32-0.78,0.41s-0.59,0.14-0.93,0.14C116.87,195.79,116.42,195.69,116.02,195.47z"/>
		<path class="st9" d="M121.98,192.57c0.27,0.15,0.47,0.35,0.62,0.61s0.22,0.56,0.22,0.89c0,0.33-0.07,0.63-0.22,0.89
			s-0.36,0.47-0.62,0.61c-0.27,0.15-0.57,0.22-0.9,0.22c-0.33,0-0.63-0.07-0.9-0.22c-0.27-0.15-0.48-0.35-0.63-0.62
			s-0.23-0.56-0.23-0.89c0-0.33,0.08-0.62,0.23-0.89s0.36-0.47,0.63-0.62c0.27-0.15,0.56-0.22,0.9-0.22
			C121.42,192.35,121.72,192.42,121.98,192.57z M120.45,193c-0.18,0.1-0.33,0.24-0.43,0.43c-0.1,0.19-0.16,0.4-0.16,0.64
			c0,0.24,0.05,0.46,0.16,0.64c0.11,0.19,0.25,0.33,0.43,0.43c0.18,0.1,0.39,0.15,0.63,0.15s0.44-0.05,0.63-0.15
			c0.18-0.1,0.33-0.24,0.43-0.43c0.11-0.19,0.16-0.4,0.16-0.64c0-0.24-0.05-0.46-0.16-0.64c-0.1-0.19-0.25-0.33-0.43-0.43
			c-0.18-0.1-0.39-0.15-0.63-0.15S120.64,192.9,120.45,193z"/>
		<path class="st9" d="M123.5,192.46h0.5v0.58h0.01c0.17-0.46,0.51-0.69,1.02-0.69c0.25,0,0.46,0.06,0.63,0.17
			c0.17,0.12,0.3,0.3,0.4,0.55h0.01c0.09-0.24,0.23-0.42,0.42-0.54c0.19-0.12,0.41-0.18,0.65-0.18c0.33,0,0.6,0.11,0.8,0.32
			c0.2,0.21,0.3,0.54,0.3,1v2.02h-0.5v-2.01c0-0.27-0.06-0.48-0.19-0.62s-0.31-0.21-0.55-0.21c-0.27,0-0.48,0.09-0.64,0.28
			c-0.16,0.18-0.23,0.48-0.23,0.87v1.69h-0.5v-1.91c0-0.62-0.25-0.92-0.76-0.92c-0.27,0-0.48,0.1-0.64,0.3
			c-0.15,0.2-0.23,0.51-0.23,0.92v1.62h-0.5V192.46z"/>
		<path class="st9" d="M129.12,192.46h0.5v0.58h0.01c0.17-0.46,0.51-0.69,1.01-0.69c0.25,0,0.46,0.06,0.63,0.17s0.3,0.3,0.4,0.55
			h0.01c0.09-0.24,0.23-0.42,0.42-0.54c0.19-0.12,0.41-0.18,0.65-0.18c0.33,0,0.6,0.11,0.8,0.32s0.3,0.54,0.3,1v2.02h-0.5v-2.01
			c0-0.27-0.06-0.48-0.19-0.62s-0.31-0.21-0.55-0.21c-0.27,0-0.48,0.09-0.64,0.28c-0.16,0.18-0.23,0.48-0.23,0.87v1.69h-0.5v-1.91
			c0-0.62-0.25-0.92-0.76-0.92c-0.27,0-0.48,0.1-0.64,0.3c-0.15,0.2-0.23,0.51-0.23,0.92v1.62h-0.5V192.46z"/>
		<path class="st9" d="M135.3,191.7h-0.64v-0.84h0.64V191.7z M134.74,192.46h0.5v3.23h-0.5V192.46z"/>
		<path class="st9" d="M136.36,195.69c-0.23-0.07-0.44-0.16-0.63-0.28l0.25-0.45c0.36,0.23,0.73,0.35,1.11,0.35
			c0.21,0,0.38-0.04,0.48-0.12c0.11-0.08,0.16-0.18,0.16-0.31c0-0.1-0.04-0.19-0.11-0.27s-0.18-0.15-0.33-0.22l-0.6-0.29
			c-0.47-0.21-0.7-0.52-0.7-0.9c0-0.28,0.1-0.49,0.3-0.64c0.2-0.15,0.47-0.22,0.81-0.22c0.36,0,0.72,0.08,1.09,0.25l-0.22,0.45
			c-0.32-0.15-0.61-0.22-0.89-0.22c-0.18,0-0.32,0.03-0.42,0.09c-0.1,0.06-0.14,0.16-0.14,0.28c0,0.1,0.04,0.19,0.11,0.27
			s0.19,0.15,0.35,0.22l0.59,0.27c0.22,0.11,0.4,0.23,0.51,0.37c0.12,0.14,0.18,0.32,0.18,0.54c0,0.3-0.11,0.53-0.32,0.69
			c-0.21,0.16-0.51,0.23-0.88,0.23C136.83,195.79,136.6,195.76,136.36,195.69z"/>
		<path class="st9" d="M139.21,195.69c-0.23-0.07-0.44-0.16-0.63-0.28l0.25-0.45c0.36,0.23,0.73,0.35,1.11,0.35
			c0.21,0,0.38-0.04,0.48-0.12c0.11-0.08,0.16-0.18,0.16-0.31c0-0.1-0.04-0.19-0.11-0.27s-0.18-0.15-0.33-0.22l-0.6-0.29
			c-0.47-0.21-0.7-0.52-0.7-0.9c0-0.28,0.1-0.49,0.3-0.64c0.2-0.15,0.47-0.22,0.81-0.22c0.36,0,0.72,0.08,1.09,0.25l-0.22,0.45
			c-0.32-0.15-0.61-0.22-0.89-0.22c-0.18,0-0.32,0.03-0.42,0.09c-0.1,0.06-0.14,0.16-0.14,0.28c0,0.1,0.04,0.19,0.11,0.27
			s0.19,0.15,0.35,0.22l0.59,0.27c0.22,0.11,0.4,0.23,0.51,0.37c0.12,0.14,0.18,0.32,0.18,0.54c0,0.3-0.11,0.53-0.32,0.69
			c-0.21,0.16-0.51,0.23-0.88,0.23C139.67,195.79,139.44,195.76,139.21,195.69z"/>
		<path class="st9" d="M142.31,191.7h-0.64v-0.84h0.64V191.7z M141.74,192.46h0.5v3.23h-0.5V192.46z"/>
		<path class="st9" d="M145.58,192.57c0.27,0.15,0.47,0.35,0.62,0.61s0.22,0.56,0.22,0.89c0,0.33-0.08,0.63-0.22,0.89
			s-0.36,0.47-0.62,0.61c-0.27,0.15-0.57,0.22-0.9,0.22c-0.33,0-0.63-0.07-0.9-0.22c-0.27-0.15-0.47-0.35-0.63-0.62
			c-0.15-0.26-0.23-0.56-0.23-0.89c0-0.33,0.08-0.62,0.23-0.89c0.15-0.26,0.36-0.47,0.63-0.62c0.27-0.15,0.56-0.22,0.9-0.22
			C145.01,192.35,145.31,192.42,145.58,192.57z M144.05,193c-0.18,0.1-0.33,0.24-0.43,0.43c-0.11,0.19-0.16,0.4-0.16,0.64
			c0,0.24,0.05,0.46,0.16,0.64c0.1,0.19,0.25,0.33,0.43,0.43c0.18,0.1,0.39,0.15,0.63,0.15s0.44-0.05,0.63-0.15
			c0.18-0.1,0.33-0.24,0.43-0.43c0.1-0.19,0.16-0.4,0.16-0.64c0-0.24-0.05-0.46-0.16-0.64c-0.11-0.19-0.25-0.33-0.43-0.43
			c-0.18-0.1-0.39-0.15-0.63-0.15S144.24,192.9,144.05,193z"/>
		<path class="st9" d="M149.68,192.69c0.22,0.22,0.33,0.57,0.33,1.04v1.97h-0.5v-1.9c0-0.32-0.08-0.55-0.23-0.71
			c-0.15-0.15-0.37-0.23-0.64-0.23c-0.31,0-0.56,0.11-0.75,0.32s-0.29,0.55-0.29,1.03v1.49h-0.5v-3.23h0.5v0.62h0.01
			c0.11-0.24,0.26-0.42,0.45-0.54c0.19-0.12,0.43-0.19,0.7-0.19C149.15,192.35,149.46,192.46,149.68,192.69z"/>
		<path class="st9" d="M151.45,191.7h-0.64v-0.84h0.64V191.7z M150.88,192.46h0.5v3.23h-0.5V192.46z"/>
		<path class="st9" d="M154.86,192.69c0.22,0.22,0.33,0.57,0.33,1.04v1.97h-0.5v-1.9c0-0.32-0.08-0.55-0.23-0.71
			c-0.15-0.15-0.37-0.23-0.64-0.23c-0.31,0-0.56,0.11-0.75,0.32s-0.29,0.55-0.29,1.03v1.49h-0.5v-3.23h0.5v0.62h0.01
			c0.11-0.24,0.26-0.42,0.45-0.54c0.19-0.12,0.43-0.19,0.7-0.19C154.34,192.35,154.64,192.46,154.86,192.69z"/>
		<path class="st9" d="M156.44,197.05l0.1-0.49c0.44,0.1,0.83,0.15,1.15,0.15c0.35,0,0.6-0.08,0.76-0.25
			c0.16-0.16,0.23-0.43,0.23-0.81v-0.54h-0.01c-0.12,0.21-0.28,0.38-0.49,0.5c-0.21,0.12-0.45,0.18-0.74,0.18
			c-0.3,0-0.57-0.07-0.81-0.21c-0.24-0.14-0.44-0.34-0.58-0.6c-0.14-0.26-0.21-0.56-0.21-0.91c0-0.35,0.07-0.65,0.21-0.91
			c0.14-0.26,0.33-0.46,0.58-0.6c0.24-0.14,0.51-0.21,0.81-0.21c0.28,0,0.53,0.06,0.74,0.18c0.21,0.12,0.37,0.29,0.49,0.5h0.01
			v-0.57h0.5v3.23c-0.01,0.58-0.14,0.97-0.41,1.19c-0.26,0.21-0.63,0.32-1.09,0.32C157.31,197.19,156.89,197.15,156.44,197.05z
			 M158.38,194.95c0.21-0.23,0.32-0.52,0.32-0.88c0-0.36-0.11-0.65-0.32-0.88s-0.5-0.34-0.85-0.34s-0.63,0.11-0.85,0.34
			c-0.21,0.23-0.32,0.52-0.32,0.88c0,0.36,0.11,0.65,0.32,0.88c0.21,0.23,0.5,0.34,0.85,0.34S158.17,195.18,158.38,194.95z"/>
	</g>
	<g>
		<path class="st9" d="M101.22,152.14h-0.55v-4.9h0.55V152.14z"/>
		<path class="st9" d="M104.71,147.43c0.22,0.12,0.39,0.29,0.51,0.51c0.12,0.22,0.17,0.47,0.17,0.75c0,0.28-0.06,0.52-0.18,0.74
			c-0.12,0.22-0.29,0.39-0.51,0.51c-0.22,0.13-0.48,0.19-0.79,0.19h-1.11v2.01h-0.54v-4.9h1.65
			C104.22,147.24,104.48,147.31,104.71,147.43z M104.55,149.38c0.17-0.16,0.26-0.39,0.26-0.69c0-0.3-0.09-0.54-0.26-0.7
			s-0.4-0.24-0.69-0.24h-1.06v1.87h1.06C104.15,149.62,104.38,149.54,104.55,149.38z"/>
		<path class="st9" d="M108.71,148.91l-1.32,3.23h-0.48l-1.32-3.23h0.59l0.97,2.63l0.97-2.63H108.71z"/>
		<path class="st9" d="M109.79,152.05c-0.25-0.13-0.45-0.32-0.59-0.57s-0.22-0.55-0.22-0.89c0-0.34,0.06-0.66,0.19-0.96
			c0.13-0.3,0.33-0.62,0.62-0.97l1.05-1.27h0.62l-1.71,2.06l0.02,0.01c0.15-0.14,0.3-0.25,0.46-0.32c0.16-0.07,0.34-0.1,0.53-0.1
			c0.3,0,0.56,0.07,0.79,0.2c0.23,0.14,0.41,0.32,0.53,0.56c0.13,0.24,0.19,0.52,0.19,0.83c0,0.32-0.07,0.6-0.21,0.84
			c-0.14,0.24-0.33,0.44-0.58,0.57c-0.25,0.14-0.53,0.21-0.85,0.21C110.32,152.25,110.04,152.18,109.79,152.05z M111.44,151.46
			c0.21-0.21,0.31-0.49,0.31-0.83c0-0.34-0.1-0.61-0.3-0.82s-0.47-0.31-0.8-0.31c-0.34,0-0.62,0.1-0.83,0.31s-0.31,0.49-0.31,0.83
			c0,0.34,0.1,0.61,0.31,0.82c0.21,0.21,0.48,0.31,0.82,0.31C110.96,151.77,111.23,151.67,111.44,151.46z"/>
		<path class="st9" d="M115.76,148.36v0.55h0.74v0.43h-0.74v2.8h-0.5v-2.8h-0.59v-0.43h0.59v-0.54c0-0.4,0.1-0.7,0.3-0.9
			s0.48-0.3,0.84-0.3h0.11v0.48h-0.09C115.99,147.65,115.76,147.89,115.76,148.36z"/>
		<path class="st9" d="M119.28,149.02c0.27,0.15,0.47,0.35,0.62,0.61s0.22,0.56,0.22,0.89c0,0.33-0.08,0.63-0.22,0.89
			s-0.36,0.47-0.62,0.61c-0.27,0.15-0.57,0.22-0.9,0.22c-0.33,0-0.63-0.07-0.9-0.22c-0.27-0.15-0.47-0.35-0.63-0.62
			c-0.15-0.26-0.23-0.56-0.23-0.89c0-0.33,0.08-0.62,0.23-0.89c0.15-0.26,0.36-0.47,0.63-0.62c0.27-0.15,0.56-0.22,0.9-0.22
			C118.71,148.8,119.01,148.88,119.28,149.02z M117.75,149.45c-0.18,0.1-0.33,0.24-0.43,0.43c-0.11,0.19-0.16,0.4-0.16,0.64
			c0,0.24,0.05,0.46,0.16,0.64c0.1,0.19,0.25,0.33,0.43,0.43c0.18,0.1,0.39,0.15,0.63,0.15s0.44-0.05,0.63-0.15
			c0.18-0.1,0.33-0.24,0.43-0.43c0.1-0.19,0.16-0.4,0.16-0.64c0-0.24-0.05-0.46-0.16-0.64c-0.11-0.19-0.25-0.33-0.43-0.43
			c-0.18-0.1-0.39-0.15-0.63-0.15S117.93,149.35,117.75,149.45z"/>
		<path class="st9" d="M122.47,149.39h-0.1c-0.34,0-0.61,0.11-0.79,0.32c-0.18,0.21-0.28,0.52-0.28,0.91v1.52h-0.5v-3.23h0.5v0.73
			h0.01c0.07-0.25,0.2-0.45,0.39-0.6c0.19-0.15,0.42-0.23,0.68-0.23h0.08V149.39z"/>
		<path class="st9" d="M125.67,152.04c-0.24-0.14-0.44-0.34-0.58-0.6c-0.14-0.26-0.21-0.56-0.21-0.91c0-0.35,0.07-0.65,0.21-0.91
			c0.14-0.26,0.33-0.46,0.58-0.6c0.24-0.14,0.51-0.21,0.81-0.21c0.28,0,0.53,0.06,0.74,0.18c0.21,0.12,0.37,0.29,0.49,0.5h0.01
			v-0.57h0.5v3.23h-0.5v-0.57h-0.01c-0.12,0.21-0.28,0.38-0.49,0.5c-0.21,0.12-0.45,0.18-0.74,0.18
			C126.18,152.25,125.91,152.18,125.67,152.04z M127.42,151.41c0.21-0.23,0.32-0.52,0.32-0.88c0-0.36-0.11-0.65-0.32-0.88
			s-0.5-0.34-0.85-0.34s-0.63,0.11-0.85,0.34c-0.21,0.23-0.32,0.52-0.32,0.88c0,0.36,0.11,0.65,0.32,0.88
			c0.21,0.23,0.5,0.34,0.85,0.34S127.21,151.64,127.42,151.41z"/>
		<path class="st9" d="M129.1,148.91h0.5v0.57h0.01c0.12-0.21,0.28-0.38,0.49-0.5c0.21-0.12,0.45-0.18,0.74-0.18
			c0.3,0,0.57,0.07,0.81,0.21c0.24,0.14,0.43,0.34,0.58,0.6s0.21,0.56,0.21,0.91c0,0.35-0.07,0.65-0.21,0.91s-0.33,0.46-0.58,0.6
			c-0.24,0.14-0.51,0.21-0.81,0.21c-0.28,0-0.53-0.06-0.74-0.18c-0.21-0.12-0.37-0.29-0.49-0.5h-0.01v1.97h-0.5V148.91z
			 M131.59,151.41c0.21-0.23,0.32-0.52,0.32-0.88c0-0.36-0.11-0.65-0.32-0.88s-0.5-0.34-0.85-0.34s-0.63,0.11-0.85,0.34
			c-0.21,0.23-0.32,0.52-0.32,0.88c0,0.36,0.11,0.65,0.32,0.88c0.21,0.23,0.5,0.34,0.85,0.34S131.38,151.64,131.59,151.41z"/>
		<path class="st9" d="M133.12,148.91h0.5v0.57h0.01c0.12-0.21,0.28-0.38,0.49-0.5c0.21-0.12,0.45-0.18,0.74-0.18
			c0.3,0,0.57,0.07,0.81,0.21c0.24,0.14,0.44,0.34,0.58,0.6c0.14,0.26,0.21,0.56,0.21,0.91c0,0.35-0.07,0.65-0.21,0.91
			c-0.14,0.26-0.33,0.46-0.58,0.6c-0.24,0.14-0.51,0.21-0.81,0.21c-0.29,0-0.53-0.06-0.74-0.18c-0.21-0.12-0.37-0.29-0.49-0.5h-0.01
			v1.97h-0.5V148.91z M135.61,151.41c0.21-0.23,0.32-0.52,0.32-0.88c0-0.36-0.11-0.65-0.32-0.88s-0.5-0.34-0.85-0.34
			c-0.35,0-0.63,0.11-0.85,0.34s-0.32,0.52-0.32,0.88c0,0.36,0.11,0.65,0.32,0.88s0.5,0.34,0.85,0.34
			C135.12,151.75,135.4,151.64,135.61,151.41z"/>
		<path class="st9" d="M137.66,152.14h-0.5v-4.9h0.5V152.14z"/>
		<path class="st9" d="M139.15,148.15h-0.64v-0.84h0.64V148.15z M138.59,148.91h0.5v3.23h-0.5V148.91z"/>
		<path class="st9" d="M140.62,152.03c-0.27-0.15-0.47-0.35-0.62-0.61c-0.15-0.26-0.22-0.56-0.22-0.9c0-0.34,0.07-0.64,0.22-0.9
			c0.15-0.26,0.36-0.46,0.62-0.61s0.57-0.22,0.91-0.22c0.39,0,0.76,0.11,1.11,0.32l-0.25,0.43c-0.3-0.18-0.59-0.27-0.88-0.27
			c-0.24,0-0.45,0.06-0.63,0.16c-0.18,0.11-0.33,0.26-0.43,0.44c-0.1,0.19-0.15,0.39-0.15,0.62c0,0.23,0.05,0.44,0.15,0.62
			c0.1,0.19,0.24,0.33,0.43,0.44c0.18,0.11,0.4,0.16,0.63,0.16c0.29,0,0.58-0.09,0.88-0.27l0.25,0.43
			c-0.35,0.21-0.72,0.32-1.11,0.32C141.19,152.25,140.88,152.18,140.62,152.03z"/>
		<path class="st9" d="M143.62,152.04c-0.24-0.14-0.44-0.34-0.58-0.6s-0.21-0.56-0.21-0.91c0-0.35,0.07-0.65,0.21-0.91
			s0.33-0.46,0.58-0.6c0.24-0.14,0.51-0.21,0.81-0.21c0.29,0,0.53,0.06,0.74,0.18c0.21,0.12,0.37,0.29,0.49,0.5h0.01v-0.57h0.5v3.23
			h-0.5v-0.57h-0.01c-0.12,0.21-0.28,0.38-0.49,0.5c-0.21,0.12-0.45,0.18-0.74,0.18C144.13,152.25,143.86,152.18,143.62,152.04z
			 M145.38,151.41c0.21-0.23,0.32-0.52,0.32-0.88c0-0.36-0.11-0.65-0.32-0.88s-0.5-0.34-0.85-0.34c-0.35,0-0.63,0.11-0.85,0.34
			s-0.32,0.52-0.32,0.88c0,0.36,0.11,0.65,0.32,0.88s0.5,0.34,0.85,0.34C144.88,151.75,145.16,151.64,145.38,151.41z"/>
		<path class="st9" d="M147.87,149.34v1.91c0,0.28,0.14,0.43,0.41,0.43h0.17v0.47h-0.27c-0.26,0-0.46-0.07-0.6-0.2
			c-0.15-0.14-0.22-0.33-0.22-0.6v-2.01h-0.62v-0.43h0.62v-1.29h0.5v1.29h0.71v0.43H147.87z"/>
		<path class="st9" d="M149.77,148.15h-0.64v-0.84h0.64V148.15z M149.21,148.91h0.5v3.23h-0.5V148.91z"/>
		<path class="st9" d="M153.04,149.02c0.27,0.15,0.47,0.35,0.62,0.61s0.22,0.56,0.22,0.89c0,0.33-0.07,0.63-0.22,0.89
			s-0.36,0.47-0.62,0.61c-0.27,0.15-0.57,0.22-0.9,0.22c-0.33,0-0.63-0.07-0.9-0.22c-0.27-0.15-0.48-0.35-0.63-0.62
			s-0.23-0.56-0.23-0.89c0-0.33,0.08-0.62,0.23-0.89s0.36-0.47,0.63-0.62c0.27-0.15,0.56-0.22,0.9-0.22
			C152.48,148.8,152.78,148.88,153.04,149.02z M151.51,149.45c-0.18,0.1-0.33,0.24-0.43,0.43c-0.1,0.19-0.16,0.4-0.16,0.64
			c0,0.24,0.05,0.46,0.16,0.64c0.11,0.19,0.25,0.33,0.43,0.43c0.18,0.1,0.39,0.15,0.63,0.15s0.44-0.05,0.63-0.15
			c0.18-0.1,0.33-0.24,0.43-0.43c0.11-0.19,0.16-0.4,0.16-0.64c0-0.24-0.05-0.46-0.16-0.64c-0.1-0.19-0.25-0.33-0.43-0.43
			c-0.18-0.1-0.39-0.15-0.63-0.15S151.7,149.35,151.51,149.45z"/>
		<path class="st9" d="M157.14,149.14c0.22,0.22,0.33,0.57,0.33,1.04v1.97h-0.5v-1.9c0-0.32-0.08-0.55-0.23-0.71
			c-0.15-0.15-0.37-0.23-0.64-0.23c-0.31,0-0.56,0.11-0.75,0.32s-0.29,0.55-0.29,1.03v1.49h-0.5v-3.23h0.5v0.62h0.01
			c0.11-0.24,0.26-0.42,0.45-0.54c0.19-0.12,0.43-0.19,0.7-0.19C156.62,148.8,156.92,148.92,157.14,149.14z"/>
		<path class="st9" d="M160.99,152.04c-0.24-0.14-0.44-0.34-0.58-0.6c-0.14-0.26-0.21-0.56-0.21-0.91c0-0.35,0.07-0.65,0.21-0.91
			c0.14-0.26,0.33-0.46,0.58-0.6c0.24-0.14,0.51-0.21,0.81-0.21c0.28,0,0.53,0.06,0.74,0.18c0.21,0.12,0.37,0.29,0.49,0.5h0.01
			v-2.24h0.5v4.9h-0.5v-0.57h-0.01c-0.12,0.21-0.28,0.38-0.49,0.5c-0.21,0.12-0.45,0.18-0.74,0.18
			C161.5,152.25,161.23,152.18,160.99,152.04z M162.74,151.41c0.21-0.23,0.32-0.52,0.32-0.88c0-0.36-0.11-0.65-0.32-0.88
			s-0.5-0.34-0.85-0.34s-0.63,0.11-0.85,0.34c-0.21,0.23-0.32,0.52-0.32,0.88c0,0.36,0.11,0.65,0.32,0.88
			c0.21,0.23,0.5,0.34,0.85,0.34S162.53,151.64,162.74,151.41z"/>
		<path class="st9" d="M165.03,152.04c-0.24-0.14-0.44-0.34-0.58-0.6c-0.14-0.26-0.21-0.56-0.21-0.91c0-0.35,0.07-0.65,0.21-0.91
			c0.14-0.26,0.33-0.46,0.58-0.6c0.24-0.14,0.51-0.21,0.81-0.21c0.28,0,0.53,0.06,0.74,0.18c0.21,0.12,0.37,0.29,0.49,0.5h0.01
			v-0.57h0.5v3.23h-0.5v-0.57h-0.01c-0.12,0.21-0.28,0.38-0.49,0.5c-0.21,0.12-0.45,0.18-0.74,0.18
			C165.54,152.25,165.27,152.18,165.03,152.04z M166.78,151.41c0.21-0.23,0.32-0.52,0.32-0.88c0-0.36-0.11-0.65-0.32-0.88
			s-0.5-0.34-0.85-0.34s-0.63,0.11-0.85,0.34c-0.21,0.23-0.32,0.52-0.32,0.88c0,0.36,0.11,0.65,0.32,0.88
			c0.21,0.23,0.5,0.34,0.85,0.34S166.57,151.64,166.78,151.41z"/>
		<path class="st9" d="M169.28,149.34v1.91c0,0.28,0.14,0.43,0.41,0.43h0.17v0.47h-0.27c-0.26,0-0.46-0.07-0.6-0.2
			s-0.22-0.33-0.22-0.6v-2.01h-0.62v-0.43h0.62v-1.29h0.5v1.29h0.71v0.43H169.28z"/>
		<path class="st9" d="M170.98,152.04c-0.24-0.14-0.44-0.34-0.58-0.6c-0.14-0.26-0.21-0.56-0.21-0.91c0-0.35,0.07-0.65,0.21-0.91
			c0.14-0.26,0.33-0.46,0.58-0.6c0.24-0.14,0.51-0.21,0.81-0.21c0.28,0,0.53,0.06,0.74,0.18c0.21,0.12,0.37,0.29,0.49,0.5h0.01
			v-0.57h0.5v3.23h-0.5v-0.57h-0.01c-0.12,0.21-0.28,0.38-0.49,0.5c-0.21,0.12-0.45,0.18-0.74,0.18
			C171.5,152.25,171.23,152.18,170.98,152.04z M172.74,151.41c0.21-0.23,0.32-0.52,0.32-0.88c0-0.36-0.11-0.65-0.32-0.88
			s-0.5-0.34-0.85-0.34s-0.63,0.11-0.85,0.34c-0.21,0.23-0.32,0.52-0.32,0.88c0,0.36,0.11,0.65,0.32,0.88
			c0.21,0.23,0.5,0.34,0.85,0.34S172.53,151.64,172.74,151.41z"/>
		<path class="st9" d="M119.36,155.49c-0.37,0.49-0.64,0.97-0.81,1.47s-0.26,1.04-0.26,1.63c0,0.61,0.08,1.16,0.25,1.67
			c0.17,0.51,0.43,1.01,0.79,1.5l-0.38,0.29c-0.38-0.52-0.67-1.06-0.86-1.6c-0.2-0.54-0.3-1.16-0.3-1.86c0-0.69,0.1-1.3,0.3-1.83
			c0.2-0.53,0.49-1.05,0.88-1.56L119.36,155.49z"/>
		<path class="st9" d="M121.9,157.42c0.27,0.15,0.47,0.35,0.62,0.61s0.22,0.56,0.22,0.89c0,0.33-0.07,0.63-0.22,0.89
			s-0.36,0.47-0.62,0.61c-0.27,0.15-0.57,0.22-0.9,0.22c-0.33,0-0.63-0.07-0.9-0.22c-0.27-0.15-0.48-0.35-0.63-0.62
			s-0.23-0.56-0.23-0.89c0-0.33,0.08-0.62,0.23-0.89s0.36-0.47,0.63-0.62c0.27-0.15,0.56-0.22,0.9-0.22
			C121.33,157.2,121.63,157.28,121.9,157.42z M120.37,157.85c-0.18,0.1-0.33,0.24-0.43,0.43c-0.1,0.19-0.16,0.4-0.16,0.64
			c0,0.24,0.05,0.46,0.16,0.64c0.11,0.19,0.25,0.33,0.43,0.43c0.18,0.1,0.39,0.15,0.63,0.15s0.44-0.05,0.63-0.15
			c0.18-0.1,0.33-0.24,0.43-0.43c0.11-0.19,0.16-0.4,0.16-0.64c0-0.24-0.05-0.46-0.16-0.64c-0.1-0.19-0.25-0.33-0.43-0.43
			c-0.18-0.1-0.39-0.15-0.63-0.15S120.55,157.75,120.37,157.85z"/>
		<path class="st9" d="M125.96,157.31l-1.32,3.23h-0.48l-1.32-3.23h0.59l0.97,2.63l0.97-2.63H125.96z"/>
		<path class="st9" d="M128.86,157.68c0.26,0.32,0.4,0.72,0.4,1.23V159h-2.69c0,0.35,0.11,0.64,0.33,0.85s0.49,0.32,0.83,0.32
			c0.27,0,0.48-0.06,0.65-0.17c0.17-0.11,0.32-0.26,0.46-0.44l0.36,0.33c-0.16,0.22-0.35,0.4-0.58,0.55
			c-0.23,0.15-0.52,0.22-0.88,0.22c-0.34,0-0.63-0.07-0.89-0.21c-0.25-0.14-0.45-0.34-0.59-0.6c-0.14-0.26-0.21-0.56-0.21-0.9
			c0-0.34,0.07-0.64,0.21-0.9c0.14-0.26,0.33-0.46,0.58-0.61c0.25-0.14,0.54-0.22,0.86-0.22
			C128.21,157.2,128.6,157.36,128.86,157.68z M126.94,157.92c-0.2,0.16-0.32,0.39-0.35,0.69h2.12c-0.02-0.3-0.12-0.53-0.3-0.69
			c-0.18-0.16-0.42-0.25-0.73-0.25C127.39,157.67,127.14,157.76,126.94,157.92z"/>
		<path class="st9" d="M131.6,157.79h-0.1c-0.34,0-0.61,0.11-0.79,0.32c-0.18,0.21-0.28,0.52-0.28,0.91v1.52h-0.5v-3.23h0.5v0.73
			h0.01c0.07-0.25,0.2-0.45,0.39-0.6c0.19-0.15,0.42-0.23,0.68-0.23h0.08V157.79z"/>
		<path class="st9" d="M137.11,156.15h-1.46v4.39h-0.54v-4.39h-1.46v-0.51h3.47V156.15z"/>
		<path class="st9" d="M138.15,157.93h0.01c0.1-0.23,0.25-0.41,0.46-0.54c0.2-0.13,0.43-0.19,0.7-0.19c0.38,0,0.68,0.11,0.9,0.34
			c0.22,0.22,0.34,0.57,0.34,1.04v1.97h-0.5v-1.9c0-0.32-0.08-0.55-0.23-0.71c-0.15-0.15-0.36-0.23-0.63-0.23
			c-0.31,0-0.56,0.11-0.75,0.32s-0.29,0.55-0.29,1.03v1.49h-0.5v-4.9h0.5V157.93z"/>
		<path class="st9" d="M143.1,157.79H143c-0.35,0-0.61,0.11-0.79,0.32s-0.28,0.52-0.28,0.91v1.52h-0.5v-3.23h0.5v0.73h0.01
			c0.07-0.25,0.2-0.45,0.39-0.6c0.19-0.15,0.42-0.23,0.68-0.23h0.08V157.79z"/>
		<path class="st9" d="M145.99,157.68c0.26,0.32,0.4,0.72,0.4,1.23V159h-2.69c0,0.35,0.11,0.64,0.33,0.85s0.49,0.32,0.83,0.32
			c0.27,0,0.48-0.06,0.65-0.17c0.17-0.11,0.32-0.26,0.46-0.44l0.36,0.33c-0.16,0.22-0.35,0.4-0.58,0.55
			c-0.23,0.15-0.52,0.22-0.88,0.22c-0.34,0-0.63-0.07-0.88-0.21c-0.25-0.14-0.45-0.34-0.59-0.6c-0.14-0.26-0.21-0.56-0.21-0.9
			c0-0.34,0.07-0.64,0.21-0.9c0.14-0.26,0.33-0.46,0.58-0.61s0.53-0.22,0.86-0.22C145.34,157.2,145.73,157.36,145.99,157.68z
			 M144.07,157.92c-0.2,0.16-0.32,0.39-0.35,0.69h2.12c-0.02-0.3-0.12-0.53-0.3-0.69c-0.18-0.16-0.42-0.25-0.73-0.25
			C144.51,157.67,144.27,157.76,144.07,157.92z"/>
		<path class="st9" d="M147.62,160.44c-0.24-0.14-0.44-0.34-0.58-0.6s-0.21-0.56-0.21-0.91c0-0.35,0.07-0.65,0.21-0.91
			s0.33-0.46,0.58-0.6c0.24-0.14,0.51-0.21,0.81-0.21c0.29,0,0.53,0.06,0.74,0.18c0.21,0.12,0.37,0.29,0.49,0.5h0.01v-0.57h0.5v3.23
			h-0.5v-0.57h-0.01c-0.12,0.21-0.28,0.38-0.49,0.5c-0.21,0.12-0.45,0.18-0.74,0.18C148.14,160.65,147.87,160.58,147.62,160.44z
			 M149.38,159.81c0.21-0.23,0.32-0.52,0.32-0.88c0-0.36-0.11-0.65-0.32-0.88s-0.5-0.34-0.85-0.34c-0.35,0-0.63,0.11-0.85,0.34
			s-0.32,0.52-0.32,0.88c0,0.36,0.11,0.65,0.32,0.88s0.5,0.34,0.85,0.34C148.88,160.15,149.17,160.04,149.38,159.81z"/>
		<path class="st9" d="M151.63,160.44c-0.24-0.14-0.44-0.34-0.58-0.6s-0.21-0.56-0.21-0.91c0-0.35,0.07-0.65,0.21-0.91
			s0.33-0.46,0.58-0.6c0.24-0.14,0.51-0.21,0.81-0.21c0.29,0,0.53,0.06,0.74,0.18c0.21,0.12,0.37,0.29,0.49,0.5h0.01v-2.24h0.5v4.9
			h-0.5v-0.57h-0.01c-0.12,0.21-0.28,0.38-0.49,0.5c-0.21,0.12-0.45,0.18-0.74,0.18C152.14,160.65,151.87,160.58,151.63,160.44z
			 M153.39,159.81c0.21-0.23,0.32-0.52,0.32-0.88c0-0.36-0.11-0.65-0.32-0.88s-0.5-0.34-0.85-0.34c-0.35,0-0.63,0.11-0.85,0.34
			s-0.32,0.52-0.32,0.88c0,0.36,0.11,0.65,0.32,0.88s0.5,0.34,0.85,0.34C152.89,160.15,153.17,160.04,153.39,159.81z"/>
		<path class="st9" d="M154.78,161.76c0.36-0.49,0.62-0.99,0.79-1.5c0.17-0.51,0.26-1.07,0.26-1.67c0-0.6-0.09-1.14-0.26-1.63
			s-0.44-0.98-0.81-1.47l0.39-0.29c0.39,0.51,0.68,1.03,0.88,1.56c0.2,0.53,0.3,1.14,0.3,1.83c0,0.7-0.1,1.31-0.3,1.86
			c-0.2,0.54-0.49,1.08-0.86,1.6L154.78,161.76z"/>
	</g>
	<g>
		<path class="st9" d="M287.23,94.93h-0.57l-0.91-3.86h-0.01l-1.2,3.07h-0.42l-1.2-3.07h-0.01l-0.91,3.86h-0.57l1.2-4.9h0.45
			l1.25,3.28h0.01l1.25-3.28h0.45L287.23,94.93z"/>
		<path class="st9" d="M288.29,94.82c-0.24-0.14-0.44-0.34-0.58-0.6s-0.21-0.56-0.21-0.91c0-0.35,0.07-0.65,0.21-0.91
			s0.33-0.46,0.58-0.6c0.24-0.14,0.51-0.21,0.81-0.21c0.29,0,0.53,0.06,0.74,0.18c0.21,0.12,0.37,0.29,0.49,0.5h0.01v-0.57h0.5v3.23
			h-0.5v-0.57h-0.01c-0.12,0.21-0.28,0.38-0.49,0.5c-0.21,0.12-0.45,0.18-0.74,0.18C288.81,95.03,288.53,94.96,288.29,94.82z
			 M290.05,94.19c0.21-0.23,0.32-0.52,0.32-0.88c0-0.36-0.11-0.65-0.32-0.88s-0.5-0.34-0.85-0.34c-0.35,0-0.63,0.11-0.85,0.34
			s-0.32,0.52-0.32,0.88c0,0.36,0.11,0.65,0.32,0.88s0.5,0.34,0.85,0.34C289.55,94.53,289.83,94.42,290.05,94.19z"/>
		<path class="st9" d="M292.54,92.13v1.91c0,0.28,0.14,0.43,0.41,0.43h0.17v0.47h-0.27c-0.26,0-0.46-0.07-0.6-0.2
			c-0.15-0.14-0.22-0.33-0.22-0.6v-2.01h-0.62v-0.43h0.62V90.4h0.5v1.29h0.71v0.43H292.54z"/>
		<path class="st9" d="M294.68,92.13v1.91c0,0.28,0.14,0.43,0.41,0.43h0.17v0.47H295c-0.26,0-0.46-0.07-0.6-0.2s-0.22-0.33-0.22-0.6
			v-2.01h-0.62v-0.43h0.62V90.4h0.5v1.29h0.71v0.43H294.68z"/>
		<path class="st9" d="M298.4,92.06c0.26,0.32,0.4,0.72,0.4,1.23v0.09h-2.69c0,0.35,0.11,0.64,0.33,0.85s0.49,0.32,0.83,0.32
			c0.27,0,0.48-0.06,0.65-0.17c0.17-0.11,0.32-0.26,0.46-0.44l0.36,0.33c-0.16,0.22-0.35,0.4-0.58,0.55
			c-0.23,0.15-0.52,0.22-0.88,0.22c-0.34,0-0.63-0.07-0.88-0.21c-0.25-0.14-0.45-0.34-0.59-0.6c-0.14-0.26-0.21-0.56-0.21-0.9
			c0-0.34,0.07-0.64,0.21-0.9c0.14-0.26,0.33-0.46,0.58-0.61s0.53-0.22,0.86-0.22C297.75,91.59,298.14,91.74,298.4,92.06z
			 M296.49,92.3c-0.2,0.16-0.32,0.39-0.35,0.69h2.12c-0.02-0.3-0.12-0.53-0.3-0.69c-0.18-0.16-0.42-0.25-0.73-0.25
			C296.93,92.06,296.68,92.14,296.49,92.3z"/>
		<path class="st9" d="M301.14,92.17h-0.1c-0.35,0-0.61,0.11-0.79,0.32s-0.28,0.52-0.28,0.91v1.52h-0.5v-3.23h0.5v0.73h0.01
			c0.07-0.25,0.2-0.45,0.39-0.6c0.19-0.15,0.42-0.23,0.68-0.23h0.08V92.17z"/>
		<path class="st9" d="M304.84,94.71c-0.39-0.21-0.7-0.52-0.92-0.9c-0.22-0.39-0.33-0.83-0.33-1.33c0-0.5,0.11-0.94,0.33-1.33
			c0.22-0.39,0.53-0.69,0.92-0.9c0.39-0.21,0.85-0.32,1.37-0.32c0.35,0,0.66,0.05,0.93,0.14c0.28,0.09,0.53,0.23,0.78,0.41
			l-0.33,0.47c-0.42-0.32-0.88-0.48-1.39-0.48c-0.39,0-0.74,0.08-1.05,0.25s-0.54,0.4-0.71,0.71c-0.17,0.31-0.25,0.65-0.25,1.05
			c0,0.39,0.08,0.74,0.25,1.05c0.17,0.31,0.41,0.54,0.71,0.71s0.66,0.25,1.05,0.25c0.51,0,0.97-0.16,1.39-0.48l0.33,0.47
			c-0.24,0.18-0.5,0.32-0.78,0.41s-0.59,0.14-0.93,0.14C305.69,95.03,305.23,94.92,304.84,94.71z"/>
		<path class="st9" d="M310.8,91.81c0.27,0.15,0.47,0.35,0.62,0.61s0.22,0.56,0.22,0.89c0,0.33-0.08,0.63-0.22,0.89
			s-0.36,0.47-0.62,0.61c-0.27,0.15-0.57,0.22-0.9,0.22c-0.33,0-0.63-0.07-0.9-0.22c-0.27-0.15-0.47-0.35-0.63-0.62
			c-0.15-0.26-0.23-0.56-0.23-0.89c0-0.33,0.08-0.62,0.23-0.89c0.15-0.26,0.36-0.47,0.63-0.62c0.27-0.15,0.56-0.22,0.9-0.22
			C310.23,91.59,310.53,91.66,310.8,91.81z M309.27,92.23c-0.18,0.1-0.33,0.24-0.43,0.43c-0.11,0.19-0.16,0.4-0.16,0.64
			c0,0.24,0.05,0.46,0.16,0.64c0.1,0.19,0.25,0.33,0.43,0.43c0.18,0.1,0.39,0.15,0.63,0.15s0.44-0.05,0.63-0.15
			c0.18-0.1,0.33-0.24,0.43-0.43c0.1-0.19,0.16-0.4,0.16-0.64c0-0.24-0.05-0.46-0.16-0.64c-0.11-0.19-0.25-0.33-0.43-0.43
			c-0.18-0.1-0.39-0.15-0.63-0.15S309.45,92.13,309.27,92.23z"/>
		<path class="st9" d="M314.9,91.92c0.22,0.22,0.33,0.57,0.33,1.04v1.97h-0.5v-1.9c0-0.32-0.08-0.55-0.23-0.71
			c-0.15-0.15-0.37-0.23-0.64-0.23c-0.31,0-0.56,0.11-0.75,0.32s-0.29,0.55-0.29,1.03v1.49h-0.5v-3.23h0.5v0.62h0.01
			c0.11-0.24,0.26-0.42,0.45-0.54c0.19-0.12,0.43-0.19,0.7-0.19C314.37,91.59,314.67,91.7,314.9,91.92z"/>
		<path class="st9" d="M316.71,92.13v1.91c0,0.28,0.14,0.43,0.41,0.43h0.17v0.47h-0.27c-0.26,0-0.46-0.07-0.6-0.2
			s-0.22-0.33-0.22-0.6v-2.01h-0.62v-0.43h0.62V90.4h0.5v1.29h0.71v0.43H316.71z"/>
		<path class="st9" d="M319.71,92.17h-0.1c-0.35,0-0.61,0.11-0.79,0.32s-0.28,0.52-0.28,0.91v1.52h-0.5v-3.23h0.5v0.73h0.01
			c0.07-0.25,0.2-0.45,0.39-0.6c0.19-0.15,0.42-0.23,0.68-0.23h0.08V92.17z"/>
		<path class="st9" d="M322.46,91.81c0.27,0.15,0.47,0.35,0.62,0.61s0.22,0.56,0.22,0.89c0,0.33-0.08,0.63-0.22,0.89
			s-0.36,0.47-0.62,0.61c-0.27,0.15-0.57,0.22-0.9,0.22c-0.33,0-0.63-0.07-0.9-0.22c-0.27-0.15-0.47-0.35-0.63-0.62
			c-0.15-0.26-0.23-0.56-0.23-0.89c0-0.33,0.08-0.62,0.23-0.89c0.15-0.26,0.36-0.47,0.63-0.62c0.27-0.15,0.56-0.22,0.9-0.22
			C321.89,91.59,322.19,91.66,322.46,91.81z M320.93,92.23c-0.18,0.1-0.33,0.24-0.43,0.43c-0.11,0.19-0.16,0.4-0.16,0.64
			c0,0.24,0.05,0.46,0.16,0.64c0.1,0.19,0.25,0.33,0.43,0.43c0.18,0.1,0.39,0.15,0.63,0.15s0.44-0.05,0.63-0.15
			c0.18-0.1,0.33-0.24,0.43-0.43c0.1-0.19,0.16-0.4,0.16-0.64c0-0.24-0.05-0.46-0.16-0.64c-0.11-0.19-0.25-0.33-0.43-0.43
			c-0.18-0.1-0.39-0.15-0.63-0.15S321.11,92.13,320.93,92.23z"/>
		<path class="st9" d="M324.5,94.93H324v-4.9h0.5V94.93z"/>
		<path class="st9" d="M325.95,94.93h-0.5v-4.9h0.5V94.93z"/>
		<path class="st9" d="M329.44,92.06c0.26,0.32,0.4,0.72,0.4,1.23v0.09h-2.69c0,0.35,0.11,0.64,0.33,0.85s0.49,0.32,0.83,0.32
			c0.27,0,0.48-0.06,0.65-0.17c0.17-0.11,0.32-0.26,0.46-0.44l0.36,0.33c-0.16,0.22-0.35,0.4-0.58,0.55
			c-0.23,0.15-0.52,0.22-0.88,0.22c-0.34,0-0.63-0.07-0.89-0.21c-0.25-0.14-0.45-0.34-0.59-0.6c-0.14-0.26-0.21-0.56-0.21-0.9
			c0-0.34,0.07-0.64,0.21-0.9c0.14-0.26,0.33-0.46,0.58-0.61c0.25-0.14,0.54-0.22,0.86-0.22C328.79,91.59,329.18,91.74,329.44,92.06
			z M327.52,92.3c-0.2,0.16-0.32,0.39-0.35,0.69h2.12c-0.02-0.3-0.12-0.53-0.3-0.69c-0.18-0.16-0.42-0.25-0.73-0.25
			C327.96,92.06,327.72,92.14,327.52,92.3z"/>
		<path class="st9" d="M332.18,92.17h-0.1c-0.35,0-0.61,0.11-0.79,0.32s-0.28,0.52-0.28,0.91v1.52h-0.5v-3.23h0.5v0.73h0.01
			c0.07-0.25,0.2-0.45,0.39-0.6c0.19-0.15,0.42-0.23,0.68-0.23h0.08V92.17z"/>
	</g>
	<g>
		<path class="st9" d="M207.19,187.29h-0.57l-0.91-3.86h-0.01l-1.2,3.07h-0.42l-1.2-3.07h-0.01l-0.91,3.86h-0.57l1.2-4.9h0.45
			l1.25,3.28h0.01l1.25-3.28h0.45L207.19,187.29z"/>
		<path class="st9" d="M208.26,187.18c-0.24-0.14-0.44-0.34-0.58-0.6s-0.21-0.56-0.21-0.91c0-0.35,0.07-0.65,0.21-0.91
			s0.33-0.46,0.58-0.6c0.24-0.14,0.51-0.21,0.81-0.21c0.28,0,0.53,0.06,0.74,0.18c0.21,0.12,0.37,0.29,0.49,0.5h0.01v-0.57h0.5v3.23
			h-0.5v-0.57h-0.01c-0.12,0.21-0.28,0.38-0.49,0.5c-0.21,0.12-0.45,0.18-0.74,0.18C208.77,187.39,208.5,187.32,208.26,187.18z
			 M210.01,186.55c0.21-0.23,0.32-0.52,0.32-0.88c0-0.36-0.11-0.65-0.32-0.88s-0.5-0.34-0.85-0.34c-0.35,0-0.63,0.11-0.85,0.34
			s-0.32,0.52-0.32,0.88c0,0.36,0.11,0.65,0.32,0.88s0.5,0.34,0.85,0.34C209.52,186.9,209.8,186.78,210.01,186.55z"/>
		<path class="st9" d="M212.5,184.49v1.91c0,0.28,0.14,0.43,0.41,0.43h0.17v0.47h-0.27c-0.26,0-0.46-0.07-0.6-0.2
			s-0.22-0.33-0.22-0.6v-2.01h-0.62v-0.43H212v-1.29h0.5v1.29h0.71v0.43H212.5z"/>
		<path class="st9" d="M214.65,184.49v1.91c0,0.28,0.13,0.43,0.41,0.43h0.17v0.47h-0.27c-0.26,0-0.46-0.07-0.6-0.2
			s-0.22-0.33-0.22-0.6v-2.01h-0.62v-0.43h0.62v-1.29h0.5v1.29h0.71v0.43H214.65z"/>
		<path class="st9" d="M218.37,184.42c0.26,0.32,0.39,0.72,0.39,1.23v0.09h-2.69c0,0.35,0.11,0.64,0.33,0.85s0.49,0.32,0.83,0.32
			c0.27,0,0.48-0.06,0.65-0.17c0.17-0.11,0.32-0.26,0.46-0.44l0.37,0.33c-0.16,0.22-0.35,0.4-0.58,0.55
			c-0.23,0.15-0.52,0.22-0.88,0.22c-0.34,0-0.63-0.07-0.89-0.21c-0.25-0.14-0.45-0.34-0.59-0.6c-0.14-0.26-0.21-0.56-0.21-0.9
			c0-0.34,0.07-0.64,0.21-0.9c0.14-0.26,0.33-0.46,0.58-0.61c0.25-0.14,0.53-0.22,0.86-0.22
			C217.72,183.95,218.1,184.11,218.37,184.42z M216.45,184.66c-0.2,0.16-0.32,0.39-0.35,0.69h2.12c-0.02-0.3-0.12-0.53-0.3-0.69
			c-0.18-0.16-0.42-0.25-0.73-0.25C216.89,184.42,216.65,184.5,216.45,184.66z"/>
		<path class="st9" d="M221.11,184.54h-0.1c-0.35,0-0.61,0.11-0.79,0.32c-0.18,0.21-0.28,0.52-0.28,0.91v1.52h-0.5v-3.23h0.5v0.73
			h0.01c0.07-0.25,0.2-0.45,0.39-0.6c0.19-0.15,0.42-0.23,0.68-0.23h0.08V184.54z"/>
		<path class="st9" d="M224.8,187.07c-0.39-0.21-0.7-0.52-0.92-0.9c-0.22-0.39-0.33-0.83-0.33-1.33c0-0.5,0.11-0.94,0.33-1.33
			c0.22-0.39,0.53-0.69,0.92-0.9c0.39-0.21,0.85-0.32,1.37-0.32c0.35,0,0.66,0.05,0.93,0.14c0.28,0.09,0.53,0.23,0.78,0.41
			l-0.33,0.47c-0.42-0.32-0.88-0.48-1.39-0.48c-0.39,0-0.74,0.08-1.05,0.25s-0.54,0.4-0.71,0.71s-0.25,0.65-0.25,1.05
			c0,0.39,0.08,0.74,0.25,1.05s0.41,0.54,0.71,0.71s0.65,0.25,1.05,0.25c0.51,0,0.97-0.16,1.39-0.48l0.33,0.47
			c-0.24,0.18-0.5,0.32-0.78,0.41s-0.59,0.14-0.93,0.14C225.65,187.39,225.19,187.29,224.8,187.07z"/>
		<path class="st9" d="M230.76,184.17c0.27,0.15,0.47,0.35,0.62,0.61s0.22,0.56,0.22,0.89c0,0.33-0.08,0.63-0.22,0.89
			s-0.36,0.47-0.62,0.61c-0.27,0.15-0.57,0.22-0.9,0.22c-0.33,0-0.63-0.07-0.9-0.22c-0.27-0.15-0.47-0.35-0.63-0.62
			c-0.15-0.26-0.23-0.56-0.23-0.89c0-0.33,0.08-0.62,0.23-0.89c0.15-0.26,0.36-0.47,0.63-0.62s0.56-0.22,0.9-0.22
			C230.19,183.95,230.49,184.02,230.76,184.17z M229.23,184.6c-0.18,0.1-0.33,0.24-0.43,0.43c-0.11,0.19-0.16,0.4-0.16,0.64
			c0,0.24,0.05,0.46,0.16,0.64c0.1,0.19,0.25,0.33,0.43,0.43c0.18,0.1,0.39,0.15,0.63,0.15c0.23,0,0.44-0.05,0.63-0.15
			c0.18-0.1,0.33-0.24,0.43-0.43c0.1-0.19,0.16-0.4,0.16-0.64c0-0.24-0.05-0.46-0.16-0.64c-0.11-0.19-0.25-0.33-0.43-0.43
			c-0.18-0.1-0.39-0.15-0.63-0.15C229.62,184.45,229.41,184.5,229.23,184.6z"/>
		<path class="st9" d="M234.86,184.29c0.22,0.22,0.33,0.57,0.33,1.04v1.97h-0.5v-1.9c0-0.32-0.08-0.55-0.23-0.71
			c-0.15-0.15-0.37-0.23-0.64-0.23c-0.31,0-0.56,0.11-0.75,0.32s-0.29,0.55-0.29,1.03v1.49h-0.5v-3.23h0.5v0.62h0.01
			c0.11-0.24,0.26-0.42,0.45-0.54s0.43-0.19,0.7-0.19C234.33,183.95,234.64,184.06,234.86,184.29z"/>
		<path class="st9" d="M236.67,184.49v1.91c0,0.28,0.14,0.43,0.41,0.43h0.18v0.47h-0.27c-0.26,0-0.46-0.07-0.6-0.2
			c-0.15-0.14-0.22-0.33-0.22-0.6v-2.01h-0.62v-0.43h0.62v-1.29h0.5v1.29h0.71v0.43H236.67z"/>
		<path class="st9" d="M239.68,184.54h-0.1c-0.35,0-0.61,0.11-0.79,0.32c-0.18,0.21-0.28,0.52-0.28,0.91v1.52H238v-3.23h0.5v0.73
			h0.01c0.07-0.25,0.2-0.45,0.39-0.6c0.19-0.15,0.42-0.23,0.68-0.23h0.08V184.54z"/>
		<path class="st9" d="M242.42,184.17c0.27,0.15,0.47,0.35,0.62,0.61s0.22,0.56,0.22,0.89c0,0.33-0.08,0.63-0.22,0.89
			s-0.36,0.47-0.62,0.61c-0.27,0.15-0.57,0.22-0.9,0.22c-0.33,0-0.63-0.07-0.9-0.22c-0.27-0.15-0.47-0.35-0.63-0.62
			c-0.15-0.26-0.23-0.56-0.23-0.89c0-0.33,0.08-0.62,0.23-0.89c0.15-0.26,0.36-0.47,0.63-0.62s0.56-0.22,0.9-0.22
			C241.86,183.95,242.16,184.02,242.42,184.17z M240.89,184.6c-0.18,0.1-0.33,0.24-0.43,0.43c-0.11,0.19-0.16,0.4-0.16,0.64
			c0,0.24,0.05,0.46,0.16,0.64c0.1,0.19,0.25,0.33,0.43,0.43c0.18,0.1,0.39,0.15,0.63,0.15c0.23,0,0.44-0.05,0.63-0.15
			c0.18-0.1,0.33-0.24,0.43-0.43c0.1-0.19,0.16-0.4,0.16-0.64c0-0.24-0.05-0.46-0.16-0.64c-0.11-0.19-0.25-0.33-0.43-0.43
			c-0.18-0.1-0.39-0.15-0.63-0.15C241.28,184.45,241.08,184.5,240.89,184.6z"/>
		<path class="st9" d="M244.46,187.29h-0.5v-4.9h0.5V187.29z"/>
		<path class="st9" d="M245.91,187.29h-0.5v-4.9h0.5V187.29z"/>
		<path class="st9" d="M249.4,184.42c0.26,0.32,0.4,0.72,0.4,1.23v0.09h-2.69c0,0.35,0.11,0.64,0.33,0.85s0.49,0.32,0.83,0.32
			c0.27,0,0.48-0.06,0.65-0.17c0.17-0.11,0.32-0.26,0.46-0.44l0.36,0.33c-0.16,0.22-0.35,0.4-0.58,0.55
			c-0.23,0.15-0.52,0.22-0.88,0.22c-0.34,0-0.63-0.07-0.88-0.21c-0.25-0.14-0.45-0.34-0.59-0.6c-0.14-0.26-0.21-0.56-0.21-0.9
			c0-0.34,0.07-0.64,0.21-0.9c0.14-0.26,0.33-0.46,0.58-0.61s0.53-0.22,0.86-0.22C248.75,183.95,249.14,184.11,249.4,184.42z
			 M247.49,184.66c-0.2,0.16-0.32,0.39-0.35,0.69h2.12c-0.02-0.3-0.12-0.53-0.3-0.69c-0.18-0.16-0.42-0.25-0.73-0.25
			C247.93,184.42,247.68,184.5,247.49,184.66z"/>
		<path class="st9" d="M252.14,184.54h-0.1c-0.35,0-0.61,0.11-0.79,0.32c-0.18,0.21-0.28,0.52-0.28,0.91v1.52h-0.5v-3.23h0.5v0.73
			h0.01c0.07-0.25,0.2-0.45,0.39-0.6c0.19-0.15,0.42-0.23,0.68-0.23h0.08V184.54z"/>
		<path class="st9" d="M212.81,191.91v0.55h0.74v0.43h-0.74v2.8h-0.5v-2.8h-0.6v-0.43h0.6v-0.54c0-0.4,0.1-0.7,0.3-0.9
			s0.48-0.3,0.84-0.3h0.11v0.48h-0.09C213.03,191.2,212.81,191.43,212.81,191.91z"/>
		<path class="st9" d="M216.32,192.57c0.27,0.15,0.47,0.35,0.62,0.61c0.15,0.26,0.22,0.56,0.22,0.89c0,0.33-0.07,0.63-0.22,0.89
			c-0.15,0.26-0.36,0.47-0.62,0.61c-0.27,0.15-0.57,0.22-0.9,0.22c-0.33,0-0.63-0.07-0.9-0.22c-0.27-0.15-0.47-0.35-0.63-0.62
			s-0.23-0.56-0.23-0.89c0-0.33,0.08-0.62,0.23-0.89s0.36-0.47,0.63-0.62c0.27-0.15,0.56-0.22,0.9-0.22
			C215.76,192.35,216.06,192.42,216.32,192.57z M214.79,193c-0.18,0.1-0.33,0.24-0.43,0.43c-0.11,0.19-0.16,0.4-0.16,0.64
			c0,0.24,0.05,0.46,0.16,0.64c0.11,0.19,0.25,0.33,0.43,0.43c0.18,0.1,0.39,0.15,0.63,0.15s0.44-0.05,0.63-0.15
			c0.18-0.1,0.33-0.24,0.43-0.43c0.11-0.19,0.16-0.4,0.16-0.64c0-0.24-0.05-0.46-0.16-0.64c-0.11-0.19-0.25-0.33-0.43-0.43
			c-0.19-0.1-0.39-0.15-0.63-0.15S214.98,192.9,214.79,193z"/>
		<path class="st9" d="M219.51,192.94h-0.1c-0.34,0-0.61,0.11-0.79,0.32s-0.28,0.52-0.28,0.91v1.52h-0.5v-3.23h0.5v0.73h0.01
			c0.07-0.25,0.2-0.45,0.39-0.6c0.19-0.15,0.42-0.23,0.68-0.23h0.08V192.94z"/>
		<path class="st9" d="M227.49,195.69h-0.57l-0.91-3.86h-0.01l-1.2,3.07h-0.42l-1.2-3.07h-0.01l-0.91,3.86h-0.57l1.2-4.9h0.45
			l1.25,3.28h0.01l1.25-3.28h0.45L227.49,195.69z"/>
		<path class="st9" d="M230.41,192.57c0.27,0.15,0.47,0.35,0.62,0.61s0.22,0.56,0.22,0.89c0,0.33-0.07,0.63-0.22,0.89
			s-0.36,0.47-0.62,0.61c-0.27,0.15-0.57,0.22-0.9,0.22c-0.33,0-0.63-0.07-0.9-0.22c-0.27-0.15-0.48-0.35-0.63-0.62
			c-0.15-0.26-0.23-0.56-0.23-0.89c0-0.33,0.08-0.62,0.23-0.89c0.15-0.26,0.36-0.47,0.63-0.62s0.56-0.22,0.9-0.22
			C229.85,192.35,230.15,192.42,230.41,192.57z M228.88,193c-0.18,0.1-0.33,0.24-0.43,0.43c-0.1,0.19-0.16,0.4-0.16,0.64
			c0,0.24,0.05,0.46,0.16,0.64c0.11,0.19,0.25,0.33,0.43,0.43c0.18,0.1,0.39,0.15,0.63,0.15c0.23,0,0.44-0.05,0.63-0.15
			c0.18-0.1,0.33-0.24,0.43-0.43c0.11-0.19,0.16-0.4,0.16-0.64c0-0.24-0.05-0.46-0.16-0.64c-0.1-0.19-0.25-0.33-0.43-0.43
			c-0.18-0.1-0.39-0.15-0.63-0.15C229.28,192.85,229.07,192.9,228.88,193z"/>
		<path class="st9" d="M232.96,195.61c-0.21-0.12-0.37-0.29-0.49-0.5h-0.01v0.57h-0.5v-4.9h0.5v2.24h0.01
			c0.12-0.21,0.28-0.38,0.49-0.5c0.21-0.12,0.45-0.18,0.74-0.18c0.3,0,0.57,0.07,0.81,0.21s0.44,0.34,0.58,0.6
			c0.14,0.26,0.21,0.56,0.21,0.91c0,0.35-0.07,0.65-0.21,0.91c-0.14,0.26-0.34,0.46-0.58,0.6s-0.51,0.21-0.81,0.21
			C233.41,195.79,233.16,195.73,232.96,195.61z M234.44,194.95c0.21-0.23,0.32-0.52,0.32-0.88c0-0.36-0.11-0.65-0.32-0.88
			s-0.5-0.34-0.85-0.34s-0.63,0.11-0.85,0.34c-0.21,0.23-0.32,0.52-0.32,0.88c0,0.36,0.11,0.65,0.32,0.88
			c0.21,0.23,0.5,0.34,0.85,0.34S234.23,195.18,234.44,194.95z"/>
		<path class="st9" d="M236.54,191.7h-0.64v-0.84h0.64V191.7z M235.98,192.46h0.5v3.23h-0.5V192.46z"/>
		<path class="st9" d="M237.91,195.69h-0.5v-4.9h0.5V195.69z"/>
		<path class="st9" d="M241.41,192.82c0.26,0.32,0.4,0.72,0.4,1.23v0.09h-2.69c0.01,0.35,0.12,0.64,0.33,0.85s0.49,0.32,0.83,0.32
			c0.27,0,0.48-0.06,0.65-0.17c0.17-0.11,0.32-0.26,0.46-0.44l0.36,0.33c-0.16,0.22-0.35,0.4-0.58,0.55
			c-0.23,0.15-0.52,0.22-0.88,0.22c-0.34,0-0.63-0.07-0.89-0.21c-0.25-0.14-0.45-0.34-0.59-0.6c-0.14-0.26-0.21-0.56-0.21-0.9
			c0-0.34,0.07-0.64,0.21-0.9c0.14-0.26,0.33-0.46,0.58-0.61c0.25-0.14,0.54-0.22,0.86-0.22
			C240.76,192.35,241.14,192.51,241.41,192.82z M239.49,193.06c-0.2,0.16-0.32,0.39-0.35,0.69h2.12c-0.02-0.3-0.12-0.53-0.3-0.69
			c-0.18-0.16-0.42-0.25-0.73-0.25C239.93,192.82,239.69,192.9,239.49,193.06z"/>
	</g>
	<g>
		<path class="st9" d="M24.38,187.15h-0.57l-0.91-3.86h-0.01l-1.2,3.07h-0.42l-1.2-3.07h-0.01l-0.91,3.86h-0.57l1.2-4.9h0.45
			l1.25,3.28h0.01l1.25-3.28h0.45L24.38,187.15z"/>
		<path class="st9" d="M25.44,187.05c-0.24-0.14-0.44-0.34-0.58-0.6c-0.14-0.26-0.21-0.56-0.21-0.91c0-0.35,0.07-0.65,0.21-0.91
			c0.14-0.26,0.33-0.46,0.58-0.6c0.24-0.14,0.51-0.21,0.81-0.21c0.28,0,0.53,0.06,0.74,0.18c0.21,0.12,0.37,0.29,0.49,0.5h0.01
			v-0.57H28v3.23h-0.5v-0.57h-0.01c-0.12,0.21-0.28,0.38-0.49,0.5c-0.21,0.12-0.45,0.18-0.74,0.18
			C25.96,187.26,25.69,187.19,25.44,187.05z M27.2,186.42c0.21-0.23,0.32-0.52,0.32-0.88c0-0.36-0.11-0.65-0.32-0.88
			s-0.5-0.34-0.85-0.34s-0.63,0.11-0.85,0.34c-0.21,0.23-0.32,0.52-0.32,0.88c0,0.36,0.11,0.65,0.32,0.88
			c0.21,0.23,0.5,0.34,0.85,0.34S26.99,186.65,27.2,186.42z"/>
		<path class="st9" d="M29.69,184.35v1.91c0,0.28,0.14,0.43,0.41,0.43h0.17v0.47h-0.27c-0.26,0-0.46-0.07-0.6-0.2
			s-0.22-0.33-0.22-0.6v-2.01h-0.62v-0.43h0.62v-1.29h0.5v1.29h0.71v0.43H29.69z"/>
		<path class="st9" d="M31.84,184.35v1.91c0,0.28,0.14,0.43,0.41,0.43h0.17v0.47h-0.27c-0.26,0-0.46-0.07-0.6-0.2
			c-0.15-0.14-0.22-0.33-0.22-0.6v-2.01h-0.62v-0.43h0.62v-1.29h0.5v1.29h0.71v0.43H31.84z"/>
		<path class="st9" d="M35.56,184.29c0.26,0.32,0.4,0.72,0.4,1.23v0.09h-2.69c0,0.35,0.11,0.64,0.33,0.85s0.49,0.32,0.83,0.32
			c0.27,0,0.48-0.06,0.65-0.17c0.17-0.11,0.32-0.26,0.46-0.44l0.36,0.33c-0.16,0.22-0.35,0.4-0.58,0.55
			c-0.23,0.15-0.52,0.22-0.88,0.22c-0.34,0-0.63-0.07-0.89-0.21c-0.25-0.14-0.45-0.34-0.59-0.6c-0.14-0.26-0.21-0.56-0.21-0.9
			c0-0.34,0.07-0.64,0.21-0.9c0.14-0.26,0.33-0.46,0.58-0.61c0.25-0.14,0.54-0.22,0.86-0.22C34.91,183.81,35.29,183.97,35.56,184.29
			z M33.64,184.53c-0.2,0.16-0.32,0.39-0.35,0.69h2.12c-0.02-0.3-0.12-0.53-0.3-0.69c-0.18-0.16-0.42-0.25-0.73-0.25
			C34.08,184.28,33.84,184.37,33.64,184.53z"/>
		<path class="st9" d="M38.3,184.4h-0.1c-0.34,0-0.61,0.11-0.79,0.32c-0.18,0.21-0.28,0.52-0.28,0.91v1.52h-0.5v-3.23h0.5v0.73h0.01
			c0.07-0.25,0.2-0.45,0.39-0.6c0.19-0.15,0.42-0.23,0.68-0.23h0.08V184.4z"/>
		<path class="st9" d="M43.76,185.84h-2.3l-0.52,1.31h-0.59l2-4.9h0.51l2,4.9h-0.58L43.76,185.84z M43.57,185.35l-0.95-2.41
			l-0.96,2.41H43.57z"/>
		<path class="st9" d="M45.89,187.04c-0.27-0.15-0.47-0.35-0.62-0.61c-0.15-0.26-0.22-0.56-0.22-0.9c0-0.34,0.08-0.64,0.22-0.9
			c0.15-0.26,0.36-0.46,0.62-0.61c0.27-0.14,0.57-0.22,0.91-0.22c0.39,0,0.76,0.11,1.11,0.32l-0.25,0.43
			c-0.3-0.18-0.59-0.27-0.88-0.27c-0.24,0-0.45,0.06-0.63,0.16c-0.18,0.11-0.33,0.26-0.43,0.44c-0.1,0.19-0.15,0.39-0.15,0.62
			c0,0.23,0.05,0.44,0.15,0.62c0.1,0.19,0.24,0.33,0.43,0.44c0.18,0.11,0.4,0.16,0.63,0.16c0.28,0,0.58-0.09,0.88-0.27l0.25,0.43
			c-0.35,0.21-0.72,0.32-1.11,0.32C46.46,187.26,46.16,187.19,45.89,187.04z"/>
		<path class="st9" d="M48.95,187.04c-0.27-0.15-0.47-0.35-0.62-0.61c-0.15-0.26-0.22-0.56-0.22-0.9c0-0.34,0.07-0.64,0.22-0.9
			c0.15-0.26,0.36-0.46,0.62-0.61s0.57-0.22,0.91-0.22c0.39,0,0.76,0.11,1.11,0.32l-0.25,0.43c-0.3-0.18-0.59-0.27-0.88-0.27
			c-0.24,0-0.45,0.06-0.63,0.16c-0.18,0.11-0.33,0.26-0.43,0.44c-0.1,0.19-0.15,0.39-0.15,0.62c0,0.23,0.05,0.44,0.15,0.62
			c0.1,0.19,0.24,0.33,0.43,0.44c0.18,0.11,0.4,0.16,0.63,0.16c0.29,0,0.58-0.09,0.88-0.27l0.25,0.43
			c-0.35,0.21-0.72,0.32-1.11,0.32C49.52,187.26,49.22,187.19,48.95,187.04z"/>
		<path class="st9" d="M53.97,184.29c0.26,0.32,0.4,0.72,0.4,1.23v0.09h-2.69c0,0.35,0.11,0.64,0.33,0.85s0.49,0.32,0.83,0.32
			c0.27,0,0.48-0.06,0.65-0.17c0.17-0.11,0.32-0.26,0.46-0.44l0.36,0.33c-0.16,0.22-0.35,0.4-0.58,0.55
			c-0.23,0.15-0.52,0.22-0.88,0.22c-0.34,0-0.63-0.07-0.89-0.21c-0.25-0.14-0.45-0.34-0.59-0.6c-0.14-0.26-0.21-0.56-0.21-0.9
			c0-0.34,0.07-0.64,0.21-0.9c0.14-0.26,0.33-0.46,0.58-0.61c0.25-0.14,0.54-0.22,0.86-0.22C53.32,183.81,53.7,183.97,53.97,184.29z
			 M52.05,184.53c-0.2,0.16-0.32,0.39-0.35,0.69h2.12c-0.02-0.3-0.12-0.53-0.3-0.69c-0.18-0.16-0.42-0.25-0.73-0.25
			C52.49,184.28,52.25,184.37,52.05,184.53z"/>
		<path class="st9" d="M55.29,187.16c-0.23-0.07-0.44-0.16-0.63-0.28l0.25-0.45c0.36,0.23,0.73,0.35,1.11,0.35
			c0.21,0,0.38-0.04,0.48-0.12c0.11-0.08,0.16-0.18,0.16-0.31c0-0.1-0.04-0.19-0.11-0.27s-0.18-0.15-0.33-0.22l-0.6-0.29
			c-0.47-0.21-0.7-0.52-0.7-0.9c0-0.28,0.1-0.49,0.3-0.64c0.2-0.15,0.47-0.22,0.81-0.22c0.36,0,0.72,0.08,1.09,0.25l-0.22,0.45
			c-0.32-0.15-0.61-0.22-0.89-0.22c-0.18,0-0.32,0.03-0.42,0.09s-0.14,0.16-0.14,0.28c0,0.1,0.04,0.19,0.11,0.27
			s0.19,0.15,0.35,0.22l0.59,0.27c0.22,0.11,0.4,0.23,0.51,0.37s0.18,0.32,0.18,0.54c0,0.3-0.11,0.53-0.32,0.69
			s-0.51,0.23-0.88,0.23C55.76,187.26,55.52,187.22,55.29,187.16z"/>
		<path class="st9" d="M58.13,187.16c-0.23-0.07-0.44-0.16-0.63-0.28l0.25-0.45c0.36,0.23,0.73,0.35,1.11,0.35
			c0.21,0,0.38-0.04,0.48-0.12c0.11-0.08,0.16-0.18,0.16-0.31c0-0.1-0.04-0.19-0.11-0.27s-0.18-0.15-0.33-0.22l-0.6-0.29
			c-0.47-0.21-0.7-0.52-0.7-0.9c0-0.28,0.1-0.49,0.3-0.64c0.2-0.15,0.47-0.22,0.81-0.22c0.36,0,0.72,0.08,1.09,0.25l-0.22,0.45
			c-0.32-0.15-0.61-0.22-0.89-0.22c-0.18,0-0.32,0.03-0.42,0.09s-0.14,0.16-0.14,0.28c0,0.1,0.04,0.19,0.11,0.27
			s0.19,0.15,0.35,0.22l0.59,0.27c0.22,0.11,0.4,0.23,0.51,0.37s0.18,0.32,0.18,0.54c0,0.3-0.11,0.53-0.32,0.69
			s-0.51,0.23-0.88,0.23C58.6,187.26,58.36,187.22,58.13,187.16z"/>
		<path class="st9" d="M63.09,184.04c0.27,0.15,0.47,0.35,0.62,0.61s0.22,0.56,0.22,0.89c0,0.33-0.07,0.63-0.22,0.89
			s-0.36,0.47-0.62,0.61c-0.27,0.15-0.57,0.22-0.9,0.22c-0.33,0-0.63-0.07-0.9-0.22c-0.27-0.15-0.48-0.35-0.63-0.62
			s-0.23-0.56-0.23-0.89c0-0.33,0.08-0.62,0.23-0.89s0.36-0.47,0.63-0.62c0.27-0.15,0.56-0.22,0.9-0.22
			C62.52,183.81,62.82,183.89,63.09,184.04z M61.56,184.46c-0.18,0.1-0.33,0.24-0.43,0.43c-0.1,0.19-0.16,0.4-0.16,0.64
			c0,0.24,0.05,0.46,0.16,0.64c0.11,0.19,0.25,0.33,0.43,0.43c0.18,0.1,0.39,0.15,0.63,0.15s0.44-0.05,0.63-0.15
			c0.18-0.1,0.33-0.24,0.43-0.43c0.11-0.19,0.16-0.4,0.16-0.64c0-0.24-0.05-0.46-0.16-0.64c-0.1-0.19-0.25-0.33-0.43-0.43
			c-0.18-0.1-0.39-0.15-0.63-0.15S61.74,184.36,61.56,184.46z"/>
		<path class="st9" d="M66.28,184.4h-0.1c-0.35,0-0.61,0.11-0.79,0.32s-0.28,0.52-0.28,0.91v1.52h-0.5v-3.23h0.5v0.73h0.01
			c0.07-0.25,0.2-0.45,0.39-0.6c0.19-0.15,0.42-0.23,0.68-0.23h0.08V184.4z"/>
		<path class="st9" d="M69.6,183.92l-2.11,4.63h-0.54l0.83-1.74l-1.34-2.89h0.6l1.01,2.32l1.01-2.32H69.6z"/>
	</g>
</g>
<g id="grid_and_guides" class="st25">
</g>
<g id="Layer_3" class="st25">
</g>
</svg>
