<?xml version="1.0" encoding="UTF-8" standalone="no"?>
<!DOCTYPE svg PUBLIC "-//W3C//DTD SVG 1.1//EN" "http://www.w3.org/Graphics/SVG/1.1/DTD/svg11.dtd">
<!-- Generated by Microsoft Visio, SVG Export matter_network_topologies.svg Page-1 -->
<svg xmlns="http://www.w3.org/2000/svg" xmlns:xlink="http://www.w3.org/1999/xlink" xmlns:ev="http://www.w3.org/2001/xml-events"
		width="7.28694in" height="7.02545in" viewBox="0 0 524.66 505.832" xml:space="preserve" color-interpolation-filters="sRGB"
		class="st33">
	<style type="text/css">
	<![CDATA[
		.st1 {fill:none;stroke:none;stroke-width:1}
		.st2 {fill:#ffffff;font-family:Arial;font-size:1.00001em}
		.st3 {fill:#00b1da;stroke:none;stroke-linecap:butt;stroke-width:0.597656}
		.st4 {fill:#00b3dc;stroke:none;stroke-linecap:butt;stroke-width:0.597651}
		.st5 {fill:#00b3dc;stroke:none;stroke-linecap:butt;stroke-width:0.597656}
		.st6 {fill:#00b2db;stroke:none;stroke-linecap:butt;stroke-width:0.597656}
		.st7 {fill:#00b2db;stroke:none;stroke-linecap:butt;stroke-width:0.597665}
		.st8 {fill:#00b2db;stroke:none;stroke-linecap:butt;stroke-width:0.597634}
		.st9 {fill:#00b2db;stroke:none;stroke-linecap:butt;stroke-width:0.597651}
		.st10 {fill:#00b2db;stroke:none;stroke-linecap:butt;stroke-width:0.597671}
		.st11 {fill:#d9e1e2;stroke:none;stroke-linecap:butt;stroke-width:0.597656}
		.st12 {fill:#00b3dc;stroke:none;stroke-linecap:butt;stroke-width:0.597634}
		.st13 {fill:#00a9ce;stroke:none;stroke-linecap:butt;stroke-width:0.597656}
		.st14 {fill:#00a9ce;stroke:none;stroke-linecap:butt;stroke-width:0.597665}
		.st15 {fill:#00a9ce;stroke:none;stroke-linecap:butt;stroke-width:0.597634}
		.st16 {fill:#00a9ce;stroke:none;stroke-linecap:butt;stroke-width:0.597651}
		.st17 {stroke:#ee2f4e;stroke-dasharray:8,4;stroke-linecap:butt;stroke-width:2}
		.st18 {stroke:#f58220;stroke-dasharray:8,4;stroke-linecap:butt;stroke-width:2}
		.st19 {fill:#333f48;font-family:Arial;font-size:1.00001em}
		.st20 {font-size:1em}
		.st21 {fill:#d9e1e2;stroke:none;stroke-linecap:butt;stroke-width:0.597651}
		.st22 {fill:#d9e1e2;stroke:none;stroke-linecap:butt;stroke-width:0.597634}
		.st23 {fill:#d9e1e2;stroke:none;stroke-linecap:butt;stroke-width:0.597671}
		.st24 {stroke:#0033a0;stroke-dasharray:8,4;stroke-linecap:butt;stroke-width:2}
		.st25 {stroke:#d9e1e2;stroke-dasharray:8,4;stroke-linecap:butt;stroke-width:2}
		.st26 {stroke:#768692;stroke-dasharray:8,4;stroke-linecap:butt;stroke-width:2}
		.st27 {fill:none;stroke:#768692;stroke-width:1}
		.st28 {fill:#ee2f4e;stroke:none;stroke-linecap:round;stroke-linejoin:round;stroke-width:0.75}
		.st29 {fill:#0033a0;stroke:none;stroke-width:1}
		.st30 {fill:#768692;stroke:none;stroke-width:1}
		.st31 {fill:#f58220;stroke:none;stroke-width:1}
		.st32 {fill:#d9e1e2;stroke:none;stroke-width:1}
		.st33 {fill:none;fill-rule:evenodd;font-size:12px;overflow:visible;stroke-linecap:square;stroke-miterlimit:3}
	]]>
	</style>

	<g>
		<title>Page-1</title>
		<g id="shape3314-1" transform="translate(424.447,-249.714)">
			<title>Sheet.3314</title>
			<desc>Wi-Fi host</desc>
			<rect x="0" y="487.407" width="99.2126" height="18.4252" class="st1"/>
			<text x="22.61" y="500.22" class="st2">Wi-Fi host</text>		</g>
		<g id="group3318-4" transform="translate(66.2189,-72.2602)">
			<title>Sheet.3318</title>
			<g id="group3319-5">
				<title>Sheet.3319</title>
				<g id="shape3320-6">
					<title>Sheet.3320</title>
					<path d="M42.24 468.19 L6.61 468.19 C2.96 468.19 0 471.15 0 474.79 L0 499.22 C0 502.87 2.96 505.83 6.61 505.83
								 L42.24 505.83 C45.89 505.83 48.85 502.87 48.85 499.22 L48.85 474.79 C48.85 471.15 45.89 468.19 42.24
								 468.19 ZM45.95 499.22 C45.95 501.27 44.29 502.93 42.24 502.93 L6.61 502.93 C4.56 502.93 2.9 501.27
								 2.9 499.22 L2.9 474.79 C2.9 472.75 4.56 471.08 6.61 471.08 L42.24 471.08 C44.29 471.08 45.95 472.75
								 45.95 474.79 L45.95 499.22 Z" class="st3"/>
				</g>
				<g id="shape3321-8" transform="translate(7.25402,-11.9961)">
					<title>Sheet.3321</title>
					<path d="M7.2 498.6 C7.5 498 7.64 497.39 7.64 496.76 C7.64 495.7 7.32 494.87 6.66 494.26 C6 493.66 5.1 493.36
								 3.96 493.36 C2.78 493.36 1.83 493.69 1.13 494.35 C0.42 495 0.06 495.9 0.04 497.03 L1.81 497.03 C1.82
								 496.4 2.01 495.91 2.39 495.56 C2.76 495.2 3.26 495.02 3.89 495.02 C4.48 495.02 4.94 495.19 5.29
								 495.52 C5.63 495.85 5.8 496.3 5.8 496.85 C5.8 497.26 5.68 497.68 5.45 498.11 C5.21 498.55 4.8 499.1
								 4.21 499.76 L0 504.53 L0 505.83 L7.63 505.83 L7.63 504.13 L2.58 504.13 L5.69 500.68 C6.4 499.9 6.91
								 499.21 7.2 498.6 Z" class="st3"/>
				</g>
				<g id="shape3322-10" transform="translate(17.6103,-11.9961)">
					<title>Sheet.3322</title>
					<path d="M0 495.4 L0.76 495.4 L0.76 505.83 L2.53 505.83 L2.53 493.63 L0 493.63 L0 495.4 Z" class="st3"/>
				</g>
				<g id="shape3323-12" transform="translate(23.5741,-19.55)">
					<title>Sheet.3323</title>
					<path d="M2.46 500.92 C1.75 500.92 1.16 501.14 0.7 501.6 C0.23 502.06 0 502.65 0 503.37 C0 504.1 0.23 504.69
								 0.7 505.15 C1.16 505.6 1.75 505.83 2.46 505.83 C3.17 505.83 3.76 505.6 4.22 505.15 C4.68 504.69
								 4.92 504.1 4.92 503.37 C4.92 502.65 4.68 502.06 4.22 501.6 C3.76 501.14 3.17 500.92 2.46 500.92
								 ZM3.58 504.53 C3.28 504.83 2.9 504.98 2.46 504.98 C2 504.98 1.62 504.83 1.32 504.53 C1.02 504.23
								 0.87 503.84 0.87 503.37 C0.87 502.9 1.02 502.52 1.32 502.22 C1.62 501.92 2 501.76 2.46 501.76 C2.9
								 501.76 3.28 501.92 3.58 502.22 C3.88 502.52 4.03 502.9 4.03 503.37 C4.03 503.84 3.88 504.23 3.58
								 504.53 Z" class="st3"/>
				</g>
				<g id="shape3324-14" transform="translate(33.7796,-22.5162)">
					<title>Sheet.3324</title>
					<path d="M4.28 499.67 C4.12 499.34 3.78 499.13 3.42 499.13 C3.05 499.13 2.72 499.34 2.55 499.67 L0.24 504.3 C0
								 504.77 0.19 505.36 0.67 505.59 C1.15 505.83 1.73 505.64 1.97 505.16 L3.42 502.26 L4.87 505.16 C5.04
								 505.5 5.38 505.7 5.73 505.7 C5.88 505.7 6.02 505.66 6.16 505.59 C6.64 505.35 6.83 504.77 6.6 504.3
								 L4.28 499.67 Z" class="st3"/>
				</g>
				<g id="shape3325-16" transform="translate(33.7796,-8.60913)">
					<title>Sheet.3325</title>
					<path d="M6.16 499.37 C5.69 499.13 5.11 499.33 4.87 499.8 L3.42 502.71 L1.97 499.8 C1.73 499.33 1.15 499.13 0.67
								 499.37 C0.19 499.61 0 500.19 0.24 500.67 L2.55 505.3 C2.72 505.63 3.05 505.83 3.42 505.83 C3.78
								 505.83 4.12 505.63 4.28 505.3 L6.6 500.67 C6.83 500.19 6.64 499.61 6.16 499.37 Z" class="st3"/>
				</g>
			</g>
		</g>
		<g id="group3326-18" transform="translate(392.535,-212.864)">
			<title>Sheet.3326</title>
			<g id="group3327-19">
				<title>Sheet.3327</title>
				<g id="shape3328-20" transform="translate(-317.659,138.078) rotate(-45)">
					<title>Sheet.3328</title>
					<ellipse cx="1.14427" cy="504.688" rx="1.14427" ry="1.14427" class="st4"/>
				</g>
				<g id="shape3329-22" transform="translate(-349.013,138.077) rotate(-45)">
					<title>Sheet.3329</title>
					<ellipse cx="1.14427" cy="504.688" rx="1.14427" ry="1.14427" class="st4"/>
				</g>
				<g id="shape3330-24">
					<title>Sheet.3330</title>
					<path d="M48.85 485.58 C48.85 483.26 48.15 481.14 46.76 479.27 C45.49 477.57 43.66 476.1 41.33 474.92 C37.01
								 472.73 31.17 471.58 24.43 471.58 C17.63 471.58 11.79 472.69 7.54 474.81 C2.61 477.27 0 480.99 0
								 485.58 C0 488.24 1.25 490.79 3.62 492.99 L3.62 493.9 C3.62 497.79 7.55 501.16 14.14 502.96 C14.72
								 503.48 15.5 504 16.6 504.46 C18.7 505.34 21.44 505.83 24.34 505.83 C27.24 505.83 29.98 505.35 32.08
								 504.46 C33.17 504 33.96 503.48 34.53 502.96 C41.13 501.16 45.06 497.79 45.06 493.9 L45.06 493.15
								 C47.54 490.92 48.85 488.3 48.85 485.58 ZM42.12 488.47 C41.16 487.67 39.97 486.93 38.57 486.29 C34.75
								 484.52 29.69 483.55 24.34 483.55 C18.99 483.55 13.94 484.52 10.12 486.29 C8.72 486.93 7.53 487.67
								 6.57 488.47 L6.57 486.83 C6.57 485.09 8.31 483.29 11.35 481.88 C14.8 480.29 19.41 479.42 24.34 479.42
								 C29.28 479.42 33.9 480.3 37.34 481.88 C40.38 483.29 42.12 485.09 42.12 486.83 L42.12 488.47 ZM14.25
								 494.51 C14.7 493.97 15.3 493.49 16.03 493.06 L16.6 495.71 C15.89 496.01 15.3 496.34 14.82 496.67
								 L14.25 494.51 ZM33.81 496.64 C33.34 496.31 32.77 496 32.08 495.71 C32.07 495.7 32.06 495.7 32.05
								 495.69 L32.62 493.04 C33.33 493.45 33.92 493.9 34.36 494.42 L33.81 496.64 ZM30.47 495.14 C28.89
								 494.68 27.07 494.41 25.16 494.35 L25.16 491.29 C27.42 491.36 29.44 491.73 31.08 492.33 L30.47 495.14
								 ZM23.51 494.35 C21.59 494.42 19.76 494.69 18.17 495.16 L17.57 492.35 C19.21 491.74 21.24 491.37
								 23.52 491.3 L23.52 494.35 L23.51 494.35 ZM30.94 501.76 C29.23 502.48 26.82 502.89 24.34 502.89 C21.87
								 502.89 19.46 502.48 17.75 501.76 C16.92 501.4 16.35 501.02 16.02 500.69 C15.99 500.66 15.97 500.63
								 15.94 500.6 C15.76 500.4 15.68 500.22 15.68 500.09 C15.68 500.09 15.68 500.08 15.68 500.08 C15.68
								 499.69 16.33 499.01 17.75 498.41 C19.46 497.69 21.87 497.27 24.34 497.27 C26.82 497.27 29.23 497.68
								 30.94 498.41 C32.36 499.01 33.01 499.7 33.01 500.08 C33.01 500.08 33.01 500.08 33.01 500.08 C33.01
								 500.22 32.92 500.39 32.75 500.6 C32.73 500.62 32.7 500.65 32.67 500.68 C32.34 501.02 31.77 501.4
								 30.94 501.76 ZM39.98 497.29 C38.98 498.06 37.69 498.76 36.17 499.34 L37.38 494.45 C37.38 494.45
								 37.39 494.44 37.39 494.43 C37.39 494.42 37.39 494.4 37.4 494.39 C37.4 494.38 37.4 494.37 37.4 494.35
								 C37.4 494.34 37.41 494.33 37.41 494.32 C37.41 494.3 37.41 494.29 37.41 494.28 C37.41 494.27 37.41
								 494.26 37.42 494.25 C37.42 494.23 37.42 494.21 37.42 494.2 C37.42 494.19 37.42 494.19 37.42 494.18
								 C37.42 494.16 37.42 494.15 37.42 494.13 C37.42 494.12 37.42 494.12 37.42 494.11 C37.42 494.09 37.42
								 494.07 37.42 494.06 C37.42 494.05 37.42 494.04 37.42 494.03 C37.42 494.02 37.42 494 37.42 493.99
								 C37.42 493.98 37.42 493.97 37.42 493.96 C37.42 493.95 37.42 493.94 37.42 493.92 C37.42 493.91 37.41
								 493.9 37.41 493.89 C37.41 493.88 37.41 493.86 37.41 493.85 C37.41 493.84 37.4 493.83 37.4 493.82
								 C37.4 493.81 37.4 493.8 37.4 493.79 C37.39 493.77 37.39 493.76 37.39 493.75 C37.39 493.73 37.38
								 493.73 37.38 493.72 C37.37 493.7 37.37 493.69 37.37 493.67 C37.37 493.67 37.36 493.66 37.36 493.65
								 C37.36 493.64 37.35 493.62 37.35 493.61 C37.34 493.6 37.34 493.59 37.34 493.59 C37.33 493.57 37.33
								 493.55 37.32 493.54 C37.32 493.53 37.32 493.52 37.31 493.52 C37.31 493.5 37.3 493.49 37.29 493.48
								 C37.29 493.47 37.28 493.46 37.28 493.45 C37.28 493.44 37.27 493.43 37.26 493.42 C37.26 493.4 37.25
								 493.39 37.25 493.38 C37.24 493.37 37.24 493.36 37.23 493.35 C37.22 493.34 37.21 493.33 37.2 493.32
								 C37.2 493.31 37.2 493.31 37.19 493.3 C37.19 493.29 37.19 493.29 37.18 493.28 C37.18 493.28 37.18
								 493.28 37.18 493.27 C36.11 491.64 34.35 490.38 31.95 489.52 C29.79 488.75 27.16 488.34 24.35 488.34
								 C21.49 488.34 18.83 488.77 16.65 489.56 C14.24 490.45 12.43 491.79 11.41 493.45 C11.2 493.8 11.13
								 494.21 11.24 494.6 L12.49 499.33 C10.99 498.74 9.71 498.05 8.71 497.28 C7.73 496.53 6.57 495.33
								 6.57 493.9 C6.57 492.16 8.31 490.36 11.35 488.95 C14.8 487.36 19.41 486.49 24.34 486.49 C29.28 486.49
								 33.9 487.36 37.34 488.95 C40.38 490.35 42.12 492.16 42.12 493.9 C42.12 495.33 40.96 496.53 39.98
								 497.29 ZM38.57 479.21 C34.75 477.45 29.69 476.48 24.34 476.48 C18.99 476.48 13.94 477.45 10.12 479.21
								 C5.93 481.15 3.63 483.85 3.63 486.83 L3.63 488.27 C3.22 487.46 2.95 486.56 2.95 485.57 C2.95 482.13
								 4.94 479.39 8.86 477.43 C12.7 475.52 18.09 474.5 24.44 474.5 C30.63 474.5 36.16 475.58 40.01 477.53
								 C43.94 479.52 45.93 482.22 45.93 485.57 C45.93 486.69 45.58 487.7 45.07 488.59 L45.07 486.82 C45.06
								 483.85 42.76 481.15 38.57 479.21 Z" class="st5"/>
				</g>
			</g>
		</g>
		<g id="group3331-26" transform="translate(53.2165,-156.171)">
			<title>Sheet.3331</title>
			<g id="group3332-27">
				<title>Sheet.3332</title>
				<g id="shape3333-28">
					<title>Sheet.3333</title>
					<path d="M30.8 468.98 L6.05 468.98 C2.72 468.98 0 471.7 0 475.03 L0 499.78 C0 503.12 2.72 505.83 6.05 505.83
								 L30.8 505.83 C34.14 505.83 36.85 503.12 36.85 499.78 L36.85 475.03 C36.85 471.7 34.14 468.98 30.8
								 468.98 ZM34.66 499.78 C34.66 501.91 32.93 503.65 30.8 503.65 L6.05 503.65 C3.92 503.65 2.19 501.91
								 2.19 499.78 L2.19 475.03 C2.19 472.9 3.92 471.17 6.05 471.17 L30.8 471.17 C32.93 471.17 34.66 472.9
								 34.66 475.03 L34.66 499.78 Z" class="st3"/>
				</g>
				<g id="shape3334-30" transform="translate(6.22723,-6.22723)">
					<title>Sheet.3334</title>
					<path d="M12.2 481.44 C8.94 481.44 5.88 482.71 3.57 485.01 C1.27 487.31 0 490.38 0 493.63 C0 496.89 1.27 499.96
								 3.57 502.26 C5.88 504.56 8.94 505.83 12.2 505.83 C15.46 505.83 18.52 504.56 20.82 502.26 C23.13
								 499.96 24.4 496.89 24.4 493.63 C24.4 490.38 23.13 487.31 20.82 485.01 C18.52 482.71 15.46 481.44
								 12.2 481.44 ZM12.93 503.62 L12.93 501.44 C12.93 501.04 12.6 500.72 12.2 500.72 C11.8 500.72 11.47
								 501.04 11.47 501.44 L11.47 503.62 C6.29 503.25 2.19 498.91 2.19 493.63 C2.19 488.36 6.29 484.02
								 11.47 483.65 L11.47 485.82 C11.47 486.23 11.8 486.55 12.2 486.55 C12.6 486.55 12.93 486.23 12.93
								 485.82 L12.93 483.65 C18.11 484.02 22.21 488.36 22.21 493.63 C22.21 498.91 18.11 503.24 12.93 503.62
								 Z" class="st3"/>
				</g>
				<g id="shape3335-32" transform="translate(11.4992,-16.6216)">
					<title>Sheet.3335</title>
					<ellipse cx="1.80319" cy="504.029" rx="1.80319" ry="1.80319" class="st3"/>
				</g>
				<g id="shape3336-34" transform="translate(21.7414,-16.6216)">
					<title>Sheet.3336</title>
					<ellipse cx="1.80319" cy="504.029" rx="1.80319" ry="1.80319" class="st3"/>
				</g>
			</g>
		</g>
		<g id="group3337-36" transform="translate(205.112,-344.818)">
			<title>Sheet.3337</title>
			<g id="group3338-37">
				<title>Sheet.3338</title>
				<g id="shape3339-38">
					<title>Sheet.3339</title>
					<path d="M77.2 446.24 C77.2 444.04 75.5 442.08 72.41 440.71 C69.72 439.52 66.17 438.86 62.42 438.86 C58.66 438.86
								 55.12 439.52 52.42 440.71 C49.33 442.08 47.63 444.04 47.63 446.24 C47.63 446.25 47.63 446.26 47.63
								 446.27 C47.63 446.27 47.63 446.27 47.63 446.28 L47.63 454.58 L10.08 454.58 C9.24 454.58 8.57 455.26
								 8.57 456.09 L8.57 465.27 L1.52 465.27 C0.68 465.27 0 465.95 0 466.79 L0 504.32 C0 505.15 0.68 505.83
								 1.52 505.83 L22.46 505.83 C23.3 505.83 23.97 505.15 23.97 504.32 L23.97 496.52 L45.53 496.52 C46.37
								 496.52 47.05 495.84 47.05 495 L47.05 490.7 L57.53 490.7 C58.36 490.7 59.04 490.02 59.04 489.18 L59.04
								 485.04 C60.14 485.16 61.27 485.22 62.42 485.22 C66.17 485.22 69.72 484.57 72.41 483.38 C75.5 482.01
								 77.2 480.05 77.2 477.84 L77.2 446.28 C77.2 446.27 77.2 446.27 77.2 446.27 C77.2 446.26 77.2 446.25
								 77.2 446.24 ZM62.42 441.89 C69.59 441.89 74.17 444.47 74.17 446.24 C74.17 448.02 69.59 450.59 62.42
								 450.59 C55.24 450.59 50.66 448.02 50.66 446.24 C50.66 444.47 55.24 441.89 62.42 441.89 ZM20.94 502.8
								 L3.03 502.8 L3.03 468.31 L20.94 468.31 L20.94 502.8 ZM44.02 493.48 L23.97 493.48 L23.97 490.7 L44.02
								 490.7 L44.02 493.48 ZM56.01 487.66 L45.53 487.66 L23.97 487.66 L23.97 466.79 C23.97 465.95 23.3
								 465.27 22.46 465.27 L11.6 465.27 L11.6 457.61 L56.01 457.61 L56.01 487.66 ZM62.42 482.19 C61.26
								 482.19 60.13 482.12 59.04 481.99 L59.04 456.09 C59.04 455.26 58.36 454.58 57.53 454.58 L50.66 454.58
								 L50.66 450.84 C51.19 451.18 51.77 451.49 52.42 451.78 C55.11 452.97 58.66 453.63 62.41 453.63 C66.16
								 453.63 69.71 452.97 72.41 451.78 C73.06 451.49 73.64 451.18 74.17 450.84 L74.17 477.84 C74.17 479.61
								 69.59 482.19 62.42 482.19 Z" class="st6"/>
				</g>
				<g id="shape3340-40" transform="translate(-13.5055,-39.4936) rotate(-9.21836)">
					<title>Sheet.3340</title>
					<ellipse cx="1.48503" cy="504.347" rx="1.48503" ry="1.48503" class="st7"/>
				</g>
				<g id="shape3341-42" transform="translate(-54.9348,-31.9457) rotate(-13.2858)">
					<title>Sheet.3341</title>
					<ellipse cx="1.48495" cy="504.347" rx="1.48495" ry="1.48495" class="st8"/>
				</g>
				<g id="shape3342-44" transform="translate(-288.924,108.234) rotate(-45)">
					<title>Sheet.3342</title>
					<ellipse cx="1.48499" cy="504.347" rx="1.48499" ry="1.48499" class="st9"/>
				</g>
				<g id="shape3343-46" transform="translate(-295.262,108.698) rotate(-45)">
					<title>Sheet.3343</title>
					<ellipse cx="1.48499" cy="504.347" rx="1.48499" ry="1.48499" class="st9"/>
				</g>
				<g id="shape3344-48" transform="translate(-48.596,-20.9954) rotate(-13.2858)">
					<title>Sheet.3344</title>
					<ellipse cx="1.48495" cy="504.347" rx="1.48495" ry="1.48495" class="st8"/>
				</g>
				<g id="shape3345-50" transform="translate(-404.105,278.345) rotate(-67.4996)">
					<title>Sheet.3345</title>
					<ellipse cx="1.48505" cy="504.347" rx="1.48505" ry="1.48505" class="st10"/>
				</g>
				<g id="shape3346-52" transform="translate(-13.5052,-22.3711) rotate(-9.21836)">
					<title>Sheet.3346</title>
					<ellipse cx="1.48503" cy="504.347" rx="1.48503" ry="1.48503" class="st7"/>
				</g>
				<g id="shape3347-54" transform="translate(-54.9339,-14.8243) rotate(-13.2858)">
					<title>Sheet.3347</title>
					<ellipse cx="1.48495" cy="504.347" rx="1.48495" ry="1.48495" class="st8"/>
				</g>
				<g id="shape3348-56" transform="translate(7.07349,-33.4813)">
					<title>Sheet.3348</title>
					<path d="M0.79 505.83 L5.79 505.83 C6.23 505.83 6.58 505.48 6.58 505.05 C6.58 504.61 6.22 504.26 5.79 504.26
								 L0.79 504.26 C0.35 504.26 0 504.61 0 505.05 C0 505.48 0.35 505.83 0.79 505.83 Z" class="st6"/>
				</g>
				<g id="shape3349-58" transform="translate(15.3044,-33.4813)">
					<title>Sheet.3349</title>
					<path d="M0.49 505.77 C0.53 505.79 0.58 505.81 0.63 505.82 C0.68 505.83 0.73 505.83 0.79 505.83 C0.84 505.83
								 0.89 505.83 0.94 505.82 C0.99 505.81 1.04 505.79 1.09 505.77 C1.14 505.75 1.18 505.73 1.22 505.7
								 C1.27 505.67 1.31 505.64 1.34 505.6 C1.38 505.57 1.41 505.53 1.44 505.48 C1.47 505.44 1.49 505.39
								 1.51 505.35 C1.53 505.3 1.55 505.25 1.56 505.2 C1.57 505.15 1.57 505.1 1.57 505.04 C1.57 504.99
								 1.57 504.94 1.56 504.89 C1.55 504.84 1.53 504.79 1.51 504.74 C1.49 504.7 1.47 504.65 1.44 504.61
								 C1.41 504.57 1.38 504.52 1.34 504.49 C1.31 504.45 1.27 504.42 1.22 504.39 C1.18 504.36 1.14 504.34
								 1.09 504.32 C1.04 504.3 0.99 504.28 0.94 504.27 C0.84 504.25 0.73 504.25 0.63 504.27 C0.58 504.28
								 0.53 504.3 0.49 504.32 C0.44 504.34 0.39 504.36 0.35 504.39 C0.31 504.42 0.27 504.45 0.23 504.49
								 C0.19 504.52 0.16 504.57 0.13 504.61 C0.1 504.65 0.08 504.7 0.06 504.74 C0.04 504.79 0.02 504.84
								 0.02 504.89 C0.01 504.94 0 504.99 0 505.04 C0 505.1 0.01 505.15 0.02 505.2 C0.02 505.25 0.04 505.3
								 0.06 505.35 C0.08 505.39 0.1 505.44 0.13 505.48 C0.16 505.53 0.19 505.57 0.23 505.6 C0.27 505.64
								 0.31 505.67 0.35 505.7 C0.39 505.73 0.44 505.75 0.49 505.77 Z" class="st6"/>
				</g>
				<g id="shape3350-60" transform="translate(4.56483,-25.8491)">
					<title>Sheet.3350</title>
					<path d="M3.24 501.96 L0.63 501.96 C0.28 501.96 0 502.24 0 502.59 L0 505.2 C0 505.55 0.28 505.83 0.63 505.83
								 L3.24 505.83 C3.59 505.83 3.87 505.55 3.87 505.2 L3.87 502.59 C3.87 502.24 3.59 501.96 3.24 501.96
								 Z" class="st6"/>
				</g>
				<g id="shape3351-62" transform="translate(10.0515,-25.8491)">
					<title>Sheet.3351</title>
					<path d="M3.24 501.96 L0.63 501.96 C0.28 501.96 0 502.24 0 502.59 L0 505.2 C0 505.55 0.28 505.83 0.63 505.83
								 L3.24 505.83 C3.59 505.83 3.87 505.55 3.87 505.2 L3.87 502.59 C3.87 502.24 3.59 501.96 3.24 501.96
								 Z" class="st6"/>
				</g>
				<g id="shape3352-64" transform="translate(15.5372,-25.8491)">
					<title>Sheet.3352</title>
					<path d="M3.24 501.96 L0.63 501.96 C0.28 501.96 0 502.24 0 502.59 L0 505.2 C0 505.55 0.28 505.83 0.63 505.83
								 L3.24 505.83 C3.59 505.83 3.87 505.55 3.87 505.2 L3.87 502.59 C3.87 502.24 3.59 501.96 3.24 501.96
								 Z" class="st6"/>
				</g>
				<g id="shape3353-66" transform="translate(4.56483,-20.5439)">
					<title>Sheet.3353</title>
					<path d="M3.24 501.96 L0.63 501.96 C0.28 501.96 0 502.24 0 502.59 L0 505.2 C0 505.55 0.28 505.83 0.63 505.83
								 L3.24 505.83 C3.59 505.83 3.87 505.55 3.87 505.2 L3.87 502.59 C3.87 502.24 3.59 501.96 3.24 501.96
								 Z" class="st6"/>
				</g>
				<g id="shape3354-68" transform="translate(10.0515,-20.5439)">
					<title>Sheet.3354</title>
					<path d="M3.24 501.96 L0.63 501.96 C0.28 501.96 0 502.24 0 502.59 L0 505.2 C0 505.55 0.28 505.83 0.63 505.83
								 L3.24 505.83 C3.59 505.83 3.87 505.55 3.87 505.2 L3.87 502.59 C3.87 502.24 3.59 501.96 3.24 501.96
								 Z" class="st6"/>
				</g>
				<g id="shape3355-70" transform="translate(15.5372,-20.5439)">
					<title>Sheet.3355</title>
					<path d="M3.24 501.96 L0.63 501.96 C0.28 501.96 0 502.24 0 502.59 L0 505.2 C0 505.55 0.28 505.83 0.63 505.83
								 L3.24 505.83 C3.59 505.83 3.87 505.55 3.87 505.2 L3.87 502.59 C3.87 502.24 3.59 501.96 3.24 501.96
								 Z" class="st6"/>
				</g>
				<g id="shape3356-72" transform="translate(4.56483,-15.2388)">
					<title>Sheet.3356</title>
					<path d="M3.24 501.96 L0.63 501.96 C0.28 501.96 0 502.24 0 502.59 L0 505.2 C0 505.55 0.28 505.83 0.63 505.83
								 L3.24 505.83 C3.59 505.83 3.87 505.55 3.87 505.2 L3.87 502.59 C3.87 502.24 3.59 501.96 3.24 501.96
								 Z" class="st6"/>
				</g>
				<g id="shape3357-74" transform="translate(10.0515,-15.2388)">
					<title>Sheet.3357</title>
					<path d="M3.24 501.96 L0.63 501.96 C0.28 501.96 0 502.24 0 502.59 L0 505.2 C0 505.55 0.28 505.83 0.63 505.83
								 L3.24 505.83 C3.59 505.83 3.87 505.55 3.87 505.2 L3.87 502.59 C3.87 502.24 3.59 501.96 3.24 501.96
								 Z" class="st6"/>
				</g>
				<g id="shape3358-76" transform="translate(4.56483,-5.39456)">
					<title>Sheet.3358</title>
					<path d="M3.24 501.96 L0.63 501.96 C0.28 501.96 0 502.24 0 502.59 L0 505.2 C0 505.55 0.28 505.83 0.63 505.83
								 L3.24 505.83 C3.59 505.83 3.87 505.55 3.87 505.2 L3.87 502.59 C3.87 502.24 3.59 501.96 3.24 501.96
								 Z" class="st6"/>
				</g>
				<g id="shape3359-78" transform="translate(10.0515,-5.39456)">
					<title>Sheet.3359</title>
					<path d="M3.24 501.96 L0.63 501.96 C0.28 501.96 0 502.24 0 502.59 L0 505.2 C0 505.55 0.28 505.83 0.63 505.83
								 L3.24 505.83 C3.59 505.83 3.87 505.55 3.87 505.2 L3.87 502.59 C3.87 502.24 3.59 501.96 3.24 501.96
								 Z" class="st6"/>
				</g>
				<g id="shape3360-80" transform="translate(15.5372,-5.39456)">
					<title>Sheet.3360</title>
					<path d="M3.24 501.96 L0.63 501.96 C0.28 501.96 0 502.24 0 502.59 L0 505.2 C0 505.55 0.28 505.83 0.63 505.83
								 L3.24 505.83 C3.59 505.83 3.87 505.55 3.87 505.2 L3.87 502.59 C3.87 502.24 3.59 501.96 3.24 501.96
								 Z" class="st6"/>
				</g>
				<g id="shape3361-82" transform="translate(24.4048,-25.1504)">
					<title>Sheet.3361</title>
					<path d="M18.07 494.36 L10.37 487.95 C9.81 487.48 8.99 487.48 8.43 487.95 L0.73 494.36 C0.09 494.89 0 495.85
								 0.54 496.49 C0.83 496.85 1.26 497.04 1.69 497.04 L1.69 504.32 C1.69 505.15 2.37 505.83 3.21 505.83
								 L15.59 505.83 C16.43 505.83 17.11 505.15 17.11 504.32 L17.11 497.04 C17.54 497.04 17.97 496.85 18.26
								 496.49 C18.8 495.85 18.71 494.89 18.07 494.36 ZM4.72 502.8 L4.72 494.98 L9.4 491.09 L14.08 494.98
								 L14.08 502.8 L4.72 502.8 L4.72 502.8 Z" class="st6"/>
				</g>
			</g>
		</g>
		<g id="group3362-84" transform="translate(137.324,-8.76925)">
			<title>Sheet.3362</title>
			<g id="group3363-85">
				<title>Sheet.3363</title>
				<g id="shape3364-86">
					<title>Sheet.3364</title>
					<path d="M48.3 477.03 L25.15 461.16 C24.71 460.86 24.14 460.86 23.71 461.16 L0.55 477.03 C0.21 477.26 0 477.66
								 0 478.08 L0 504.56 C0 505.26 0.57 505.83 1.27 505.83 C1.98 505.83 2.55 505.26 2.55 504.56 L2.55
								 478.75 L24.43 463.76 L46.3 478.75 L46.3 504.56 C46.3 505.26 46.87 505.83 47.58 505.83 C48.28 505.83
								 48.85 505.26 48.85 504.56 L48.85 478.08 C48.85 477.66 48.65 477.26 48.3 477.03 Z" class="st6"/>
				</g>
				<g id="shape3365-88" transform="translate(5.43707,2.27374E-13)">
					<title>Sheet.3365</title>
					<path d="M36.54 481.81 L1.27 481.81 C0.57 481.81 0 482.39 0 483.09 L0 504.56 C0 505.26 0.57 505.83 1.27 505.83
								 C1.98 505.83 2.55 505.26 2.55 504.56 L2.55 484.36 L35.26 484.36 L35.26 504.56 C35.26 505.26 35.83
								 505.83 36.54 505.83 C37.24 505.83 37.81 505.26 37.81 504.56 L37.81 483.09 C37.81 482.38 37.24 481.81
								 36.54 481.81 Z" class="st6"/>
				</g>
				<g id="shape3366-90" transform="translate(10.3269,-0.424965)">
					<title>Sheet.3366</title>
					<path d="M27.74 504.13 L0.85 504.13 C0.38 504.13 0 504.51 0 504.98 C0 505.45 0.38 505.83 0.85 505.83 L27.74 505.83
								 C28.21 505.83 28.59 505.45 28.59 504.98 C28.59 504.51 28.21 504.13 27.74 504.13 Z" class="st6"/>
				</g>
				<g id="shape3367-92" transform="translate(10.3269,-4.54638)">
					<title>Sheet.3367</title>
					<path d="M27.74 504.13 L0.85 504.13 C0.38 504.13 0 504.51 0 504.98 C0 505.45 0.38 505.83 0.85 505.83 L27.74 505.83
								 C28.21 505.83 28.59 505.45 28.59 504.98 C28.59 504.51 28.21 504.13 27.74 504.13 Z" class="st6"/>
				</g>
				<g id="shape3368-94" transform="translate(10.3269,-8.6678)">
					<title>Sheet.3368</title>
					<path d="M27.74 504.13 L0.85 504.13 C0.38 504.13 0 504.51 0 504.98 C0 505.45 0.38 505.83 0.85 505.83 L27.74 505.83
								 C28.21 505.83 28.59 505.45 28.59 504.98 C28.59 504.51 28.21 504.13 27.74 504.13 Z" class="st6"/>
				</g>
				<g id="shape3369-96" transform="translate(10.3269,-12.7887)">
					<title>Sheet.3369</title>
					<path d="M27.74 504.13 L0.85 504.13 C0.38 504.13 0 504.51 0 504.98 C0 505.45 0.38 505.83 0.85 505.83 L27.74 505.83
								 C28.21 505.83 28.59 505.45 28.59 504.98 C28.59 504.51 28.21 504.13 27.74 504.13 Z" class="st6"/>
				</g>
				<g id="shape3370-98" transform="translate(10.3269,-16.9101)">
					<title>Sheet.3370</title>
					<path d="M27.74 504.13 L0.85 504.13 C0.38 504.13 0 504.51 0 504.98 C0 505.45 0.38 505.83 0.85 505.83 L27.74 505.83
								 C28.21 505.83 28.59 505.45 28.59 504.98 C28.59 504.51 28.21 504.13 27.74 504.13 Z" class="st6"/>
				</g>
			</g>
		</g>
		<g id="group3371-100" transform="translate(466.236,-439.647)">
			<title>Sheet.3371</title>
			<g id="shape3372-101" transform="translate(8.05924,-8.05924)">
				<title>Sheet.3372</title>
				<path d="M10.37 505.83 C7.6 505.83 4.99 504.75 3.04 502.79 C1.08 500.84 0 498.23 0 495.47 C0 492.7 1.08 490.09 3.04
							 488.14 C4.99 486.18 7.6 485.1 10.37 485.1 C13.13 485.1 15.74 486.18 17.69 488.14 C19.65 490.09 20.73
							 492.7 20.73 495.47 C20.73 498.23 19.65 500.84 17.69 502.79 C15.74 504.75 13.13 505.83 10.37 505.83 ZM10.37
							 486.9 C5.64 486.9 1.8 490.74 1.8 495.47 C1.8 500.19 5.64 504.03 10.37 504.03 C15.09 504.03 18.93 500.19
							 18.93 495.47 C18.93 490.74 15.08 486.9 10.37 486.9 Z" class="st11"/>
			</g>
			<g id="shape3373-103" transform="translate(12.5445,-17.8889)">
				<title>Sheet.3373</title>
				<path d="M10.88 505.3 C10.92 504.64 10.82 503.97 10.6 503.34 C10.38 502.71 10.02 502.12 9.56 501.61 C9.1 501.1 8.54
							 500.68 7.91 500.38 C7.28 500.08 6.59 499.9 5.88 499.87 C5.16 499.84 4.44 499.94 3.76 500.19 C3.08 500.43
							 2.44 500.82 1.89 501.31 C1.35 501.81 0.9 502.42 0.57 503.1 C0.26 503.78 0.07 504.53 0.03 505.3 C0 504.53
							 0.11 503.75 0.38 503.02 C0.65 502.29 1.06 501.6 1.59 501.02 C2.13 500.44 2.79 499.95 3.52 499.61 C4.25
							 499.27 5.05 499.07 5.87 499.04 C6.69 499 7.52 499.13 8.31 499.42 C9.09 499.7 9.82 500.15 10.44 500.72
							 C11.06 501.29 11.58 502 11.94 502.78 C12.3 503.56 12.51 504.42 12.54 505.3 L12.54 505.31 C12.56 505.77
							 10.89 505.83 10.87 505.37 C10.88 505.35 10.88 505.32 10.88 505.3 Z" class="st11"/>
			</g>
			<g id="shape3374-105">
				<title>Sheet.3374</title>
				<path d="M35.5 505.83 L1.35 505.83 C0.61 505.83 0 505.22 0 504.48 L0 470.33 C0 469.59 0.61 468.98 1.35 468.98 L35.49
							 468.98 C36.24 468.98 36.85 469.59 36.85 470.33 L36.85 504.47 C36.85 505.22 36.24 505.83 35.5 505.83
							 ZM2.71 503.13 L34.14 503.13 L34.14 471.69 L2.71 471.69 L2.71 503.13 Z" class="st11"/>
			</g>
			<g id="shape3375-107" transform="translate(17.8367,-12.4069)">
				<title>Sheet.3375</title>
				<ellipse cx="0.588543" cy="505.244" rx="0.588543" ry="0.588543" class="st11"/>
			</g>
		</g>
		<g id="group3376-109" transform="translate(473.171,-54.3364)">
			<title>Sheet.3376</title>
			<g id="shape3377-110">
				<title>Sheet.3377</title>
				<path d="M47.03 500.41 L47.03 474.02 C47.3 473.76 47.46 473.4 47.46 473.01 L47.46 468.16 C47.46 467.39 46.83 466.76
							 46.05 466.76 L1.41 466.76 C0.63 466.76 0 467.39 0 468.16 L0 473.01 C0 473.78 0.63 474.41 1.41 474.41
							 L7.81 474.41 L7.81 476.36 L5.38 476.36 C4.6 476.36 3.97 476.99 3.97 477.77 C3.97 478.54 4.6 479.17 5.38
							 479.17 L7.81 479.17 L7.81 481.49 L5.38 481.49 C4.6 481.49 3.97 482.12 3.97 482.89 C3.97 483.67 4.6 484.3
							 5.38 484.3 L7.81 484.3 L7.81 486.61 L5.38 486.61 C4.6 486.61 3.97 487.24 3.97 488.02 C3.97 488.8 4.6
							 489.43 5.38 489.43 L7.81 489.43 L7.81 491.74 L5.38 491.74 C4.6 491.74 3.97 492.37 3.97 493.15 C3.97
							 493.93 4.6 494.56 5.38 494.56 L7.81 494.56 L7.81 496.87 L5.38 496.87 C4.6 496.87 3.97 497.5 3.97 498.28
							 C3.97 499.05 4.6 499.69 5.38 499.69 L42.08 499.69 C42.86 499.69 43.49 499.05 43.49 498.28 C43.49 497.5
							 42.86 496.87 42.08 496.87 L39.86 496.87 L39.86 494.56 L42.08 494.56 C42.86 494.56 43.49 493.93 43.49
							 493.15 C43.49 492.37 42.86 491.74 42.08 491.74 L39.86 491.74 L39.86 489.43 L42.08 489.43 C42.86 489.43
							 43.49 488.8 43.49 488.02 C43.49 487.24 42.86 486.61 42.08 486.61 L39.86 486.61 L39.86 484.3 L42.08 484.3
							 C42.86 484.3 43.49 483.67 43.49 482.89 C43.49 482.12 42.86 481.49 42.08 481.49 L39.86 481.49 L39.86
							 479.17 L42.08 479.17 C42.86 479.17 43.49 478.54 43.49 477.77 C43.49 476.99 42.86 476.36 42.08 476.36
							 L39.86 476.36 L39.86 474.41 L45.16 474.41 L45.16 500.38 C44.05 500.75 43.25 501.8 43.25 503.03 C43.25
							 504.58 44.51 505.83 46.05 505.83 C47.6 505.83 48.85 504.58 48.85 503.03 C48.85 501.83 48.09 500.81 47.03
							 500.41 ZM37.99 496.87 L9.69 496.87 L9.69 494.56 L37.99 494.56 L37.99 496.87 ZM37.99 491.74 L9.69 491.74
							 L9.69 489.43 L37.99 489.43 L37.99 491.74 ZM37.99 486.61 L9.69 486.61 L9.69 484.3 L37.99 484.3 L37.99
							 486.61 ZM37.99 481.49 L9.69 481.49 L9.69 479.17 L37.99 479.17 L37.99 481.49 ZM37.99 476.36 L9.69 476.36
							 L9.69 474.41 L37.99 474.41 L37.99 476.36 ZM44.65 471.6 L2.82 471.6 L2.82 469.57 L44.65 469.57 L44.65
							 471.6 ZM46.05 503.95 C45.54 503.95 45.13 503.54 45.13 503.03 C45.13 502.52 45.54 502.11 46.05 502.11
							 C46.56 502.11 46.98 502.52 46.98 503.03 C46.98 503.54 46.56 503.95 46.05 503.95 Z" class="st6"/>
			</g>
		</g>
		<g id="group3378-112" transform="translate(402.457,-295.98)">
			<title>Sheet.3378</title>
			<g id="group3379-113">
				<title>Sheet.3379</title>
				<g id="shape3380-114" transform="translate(3.10365,3.41061E-13)">
					<title>Sheet.3380</title>
					<path d="M29.85 488.48 L21.91 488.48 L21.91 475.17 C21.91 469.13 17 464.22 10.96 464.22 C4.91 464.22 0 469.13
								 0 475.17 L0 494.88 C0 500.92 4.91 505.83 10.96 505.83 C16.37 505.83 20.99 501.84 21.79 496.51 L29.85
								 496.51 C32 496.51 33.75 494.77 33.75 492.62 L33.75 492.38 C33.75 490.23 32 488.48 29.85 488.48 ZM10.96
								 502.19 C6.92 502.19 3.64 498.91 3.64 494.88 L3.64 475.17 C3.64 471.14 6.92 467.86 10.96 467.86 C14.99
								 467.86 18.27 471.14 18.27 475.17 L18.27 488.48 L10.96 488.48 C8.81 488.48 7.07 490.23 7.07 492.38
								 L7.07 492.62 C7.07 494.77 8.81 496.51 10.96 496.51 L18.08 496.51 C17.33 499.79 14.39 502.19 10.96
								 502.19 ZM31.32 492.62 C31.32 493.43 30.66 494.09 29.85 494.09 L10.96 494.09 C10.15 494.09 9.5 493.43
								 9.5 492.62 L9.5 492.38 C9.5 491.57 10.15 490.91 10.96 490.91 L29.85 490.91 C30.66 490.91 31.32 491.57
								 31.32 492.38 L31.32 492.62 Z" class="st6"/>
				</g>
				<g id="shape3381-116" transform="translate(6.01984,-41.8158)">
					<title>Sheet.3381</title>
					<path d="M7.94 500.1 C5.1 500.1 2.44 501.34 0.44 503.59 C0 504.09 0.05 504.86 0.55 505.3 C1.05 505.75 1.82 505.7
								 2.26 505.2 C3.79 503.48 5.8 502.53 7.94 502.53 C10.17 502.53 12.25 503.55 13.79 505.4 C14.03 505.68
								 14.38 505.83 14.72 505.83 C15 505.83 15.28 505.74 15.5 505.55 C16.02 505.12 16.09 504.35 15.66 503.84
								 C13.67 501.46 10.86 500.1 7.94 500.1 Z" class="st6"/>
				</g>
				<g id="shape3382-118" transform="translate(3.06956,-45.7701)">
					<title>Sheet.3382</title>
					<path d="M19.72 505.43 C19.96 505.7 20.3 505.83 20.63 505.83 C20.92 505.83 21.21 505.73 21.44 505.52 C21.94 505.08
								 21.98 504.31 21.54 503.81 C18.71 500.63 14.93 498.88 10.91 498.88 C6.98 498.88 3.26 500.56 0.45
								 503.62 C0 504.11 0.03 504.88 0.53 505.33 C1.02 505.79 1.79 505.75 2.24 505.26 C4.59 502.71 7.66
								 501.31 10.91 501.31 C14.23 501.31 17.36 502.77 19.72 505.43 Z" class="st6"/>
				</g>
				<g id="shape3383-120" transform="translate(-1.85851E-13,-49.5874)">
					<title>Sheet.3383</title>
					<path d="M25.86 505.42 C26.1 505.69 26.43 505.83 26.77 505.83 C27.05 505.83 27.34 505.73 27.57 505.53 C28.07
								 505.09 28.12 504.32 27.68 503.81 C24.03 499.67 19.14 497.38 13.93 497.38 C8.86 497.38 4.08 499.56
								 0.45 503.5 C0 504 0.03 504.77 0.53 505.22 C1.02 505.67 1.79 505.64 2.24 505.15 C5.4 501.71 9.55
								 499.81 13.93 499.81 C18.43 499.81 22.67 501.8 25.86 505.42 Z" class="st6"/>
				</g>
				<g id="shape3384-122" transform="translate(-348.197,128.653) rotate(-45)">
					<title>Sheet.3384</title>
					<ellipse cx="1.45276" cy="504.379" rx="1.45276" ry="1.45276" class="st9"/>
				</g>
				<g id="shape3385-124" transform="translate(-343.619,128.653) rotate(-45)">
					<title>Sheet.3385</title>
					<ellipse cx="1.45276" cy="504.379" rx="1.45276" ry="1.45276" class="st9"/>
				</g>
				<g id="shape3386-126" transform="translate(-339.041,128.729) rotate(-45)">
					<title>Sheet.3386</title>
					<ellipse cx="1.45276" cy="504.379" rx="1.45276" ry="1.45276" class="st9"/>
				</g>
				<g id="shape3387-128" transform="translate(-348.197,124.268) rotate(-45)">
					<title>Sheet.3387</title>
					<ellipse cx="1.45276" cy="504.379" rx="1.45276" ry="1.45276" class="st9"/>
				</g>
				<g id="shape3388-130" transform="translate(-103.265,-10.6597) rotate(-13.2858)">
					<title>Sheet.3388</title>
					<ellipse cx="1.45272" cy="504.38" rx="1.45272" ry="1.45272" class="st8"/>
				</g>
				<g id="shape3389-132" transform="translate(-339.041,124.344) rotate(-45)">
					<title>Sheet.3389</title>
					<ellipse cx="1.45276" cy="504.379" rx="1.45276" ry="1.45276" class="st9"/>
				</g>
				<g id="shape3390-134" transform="translate(-348.197,119.882) rotate(-45)">
					<title>Sheet.3390</title>
					<ellipse cx="1.45276" cy="504.379" rx="1.45276" ry="1.45276" class="st9"/>
				</g>
				<g id="shape3391-136" transform="translate(-103.266,-15.0448) rotate(-13.2858)">
					<title>Sheet.3391</title>
					<ellipse cx="1.45272" cy="504.38" rx="1.45272" ry="1.45272" class="st8"/>
				</g>
				<g id="shape3392-138" transform="translate(-447.902,283.902) rotate(-67.4996)">
					<title>Sheet.3392</title>
					<ellipse cx="1.45281" cy="504.379" rx="1.45281" ry="1.45281" class="st10"/>
				</g>
			</g>
		</g>
		<g id="group3394-140" transform="translate(400.795,-110.991)">
			<title>Sheet.3394</title>
			<g id="shape3395-141">
				<title>Sheet.3395</title>
				<path d="M33.06 471.58 L1.2 471.58 C0.54 471.58 0 472.11 0 472.77 L0 504.63 C0 505.29 0.54 505.83 1.2 505.83 L33.06
							 505.83 C33.72 505.83 34.26 505.29 34.26 504.63 L34.26 472.77 C34.26 472.11 33.72 471.58 33.06 471.58
							 ZM31.86 503.44 L2.4 503.44 L2.4 473.97 L31.86 473.97 L31.86 503.44 L31.86 503.44 Z" class="st5"/>
			</g>
			<g id="shape3396-143" transform="translate(-111.533,-13.9737) rotate(-13.2858)">
				<title>Sheet.3396</title>
				<ellipse cx="1.12263" cy="504.71" rx="1.12263" ry="1.12263" class="st12"/>
			</g>
			<g id="shape3397-145" transform="translate(27.5623,-27.7389)">
				<title>Sheet.3397</title>
				<ellipse cx="1.12267" cy="504.71" rx="1.12267" ry="1.12267" class="st5"/>
			</g>
			<g id="shape3398-147" transform="translate(4.45286,-4.26785)">
				<title>Sheet.3398</title>
				<ellipse cx="1.12267" cy="504.71" rx="1.12267" ry="1.12267" class="st5"/>
			</g>
			<g id="shape3399-149" transform="translate(-328.965,144.352) rotate(-45)">
				<title>Sheet.3399</title>
				<ellipse cx="1.12266" cy="504.71" rx="1.12266" ry="1.12266" class="st4"/>
			</g>
			<g id="shape3400-151" transform="translate(10.3732,-5.49564)">
				<title>Sheet.3400</title>
				<path d="M1.06 505.51 C1.14 505.7 1.34 505.83 1.56 505.83 L11.84 505.83 C12.06 505.83 12.26 505.71 12.35 505.53 L13.37
							 503.33 C13.38 503.3 13.39 503.27 13.4 503.25 L13.4 503.24 C13.48 503.05 13.51 502.84 13.48 502.63 L12.35
							 493.9 L12.35 484.09 C12.35 483.42 11.82 482.89 11.16 482.89 L2.47 482.89 C1.81 482.89 1.27 483.42 1.27
							 484.09 L1.27 493.89 L0.03 502.62 C0 502.83 0.03 503.05 0.11 503.25 L1.06 505.51 ZM3.66 494.15 C3.67
							 494.1 3.67 494.04 3.67 493.98 L3.67 485.28 L9.96 485.28 L9.96 493.98 C9.96 494.03 9.97 494.08 9.97 494.13
							 L10.93 501.59 L2.6 501.59 L3.66 494.15 Z" class="st5"/>
			</g>
		</g>
		<g id="group3402-153" transform="translate(283.252,-72.2602)">
			<title>Sheet.3402</title>
			<g id="shape3403-154">
				<title>Sheet.3403</title>
				<path d="M49.98 485.82 L42.97 485.82 L42.97 476.32 C42.97 475.39 42.21 474.64 41.29 474.64 C40.36 474.64 39.61 475.39
							 39.61 476.32 L39.61 485.81 L3.04 485.81 C1.36 485.82 0 487.18 0 488.86 L0 502.79 C0 504.47 1.37 505.83
							 3.04 505.83 L49.98 505.83 C51.66 505.83 53.02 504.47 53.02 502.79 L53.02 488.86 C53.02 487.18 51.66
							 485.82 49.98 485.82 ZM49.67 502.48 L3.36 502.48 L3.36 489.17 L49.67 489.17 L49.67 502.48 Z"
						class="st13"/>
			</g>
			<g id="shape3404-156" transform="translate(23.597,-7.76752)">
				<title>Sheet.3404</title>
				<ellipse cx="2.40269" cy="503.43" rx="2.40269" ry="2.40269" class="st13"/>
			</g>
			<g id="shape3405-158" transform="translate(31.2409,-7.76752)">
				<title>Sheet.3405</title>
				<ellipse cx="2.40269" cy="503.43" rx="2.40269" ry="2.40269" class="st13"/>
			</g>
			<g id="shape3406-160" transform="translate(-41.7308,-0.880657) rotate(-9.21836)">
				<title>Sheet.3406</title>
				<ellipse cx="2.40273" cy="503.429" rx="2.40273" ry="2.40273" class="st14"/>
			</g>
			<g id="shape3407-162" transform="translate(32.6012,-33.1842)">
				<title>Sheet.3407</title>
				<path d="M2.08 505.21 C3.83 503.24 6.14 502.16 8.59 502.16 C11.14 502.16 13.52 503.32 15.28 505.43 C15.5 505.7 15.82
							 505.83 16.14 505.83 C16.39 505.83 16.64 505.75 16.85 505.57 C17.33 505.18 17.39 504.47 17 503.99 C15.94
							 502.73 14.68 501.73 13.27 501.03 C11.79 500.29 10.22 499.92 8.59 499.92 C5.49 499.92 2.59 501.27 0.41
							 503.72 C0 504.19 0.05 504.9 0.51 505.3 C0.97 505.71 1.67 505.67 2.08 505.21 Z" class="st13"/>
			</g>
			<g id="shape3408-164" transform="translate(29.3093,-37.5833)">
				<title>Sheet.3408</title>
				<path d="M18.33 500.01 C16.29 499.04 14.13 498.55 11.89 498.55 C7.58 498.55 3.5 500.4 0.42 503.75 C0 504.2 0.03 504.91
							 0.48 505.33 C0.94 505.75 1.64 505.72 2.07 505.27 C4.72 502.38 8.21 500.79 11.89 500.79 C15.65 500.79
							 19.2 502.45 21.88 505.46 C22.1 505.7 22.41 505.83 22.71 505.83 C22.98 505.83 23.24 505.74 23.46 505.55
							 C23.92 505.14 23.96 504.43 23.55 503.97 C22.05 502.27 20.29 500.94 18.33 500.01 Z" class="st13"/>
			</g>
			<g id="shape3409-166" transform="translate(25.8937,-41.841)">
				<title>Sheet.3409</title>
				<path d="M30.39 503.98 C28.44 501.76 26.16 500.02 23.61 498.8 C20.96 497.53 18.15 496.89 15.25 496.89 C9.67 496.89
							 4.4 499.29 0.42 503.64 C0 504.09 0.03 504.8 0.49 505.22 C0.94 505.64 1.65 505.61 2.07 505.15 C5.63 501.27
							 10.31 499.13 15.25 499.13 C20.34 499.13 25.12 501.37 28.71 505.46 C28.94 505.71 29.24 505.83 29.56 505.83
							 C29.82 505.83 30.08 505.74 30.3 505.56 C30.75 505.14 30.8 504.44 30.39 503.98 Z" class="st13"/>
			</g>
		</g>
		<g id="group3410-168" transform="translate(161.546,-173.384)">
			<title>Sheet.3410</title>
			<g id="group3411-169">
				<title>Sheet.3411</title>
				<g id="shape3412-170" transform="translate(-89.7068,5.63038) rotate(-13.2858)">
					<title>Sheet.3412</title>
					<ellipse cx="2.61223" cy="503.22" rx="2.61223" ry="2.61223" class="st15"/>
				</g>
				<g id="shape3413-172" transform="translate(-320.878,140.803) rotate(-45)">
					<title>Sheet.3413</title>
					<ellipse cx="2.6123" cy="503.22" rx="2.6123" ry="2.6123" class="st16"/>
				</g>
				<g id="shape3414-174" transform="translate(-312.556,140.803) rotate(-45)">
					<title>Sheet.3414</title>
					<ellipse cx="2.6123" cy="503.22" rx="2.6123" ry="2.6123" class="st16"/>
				</g>
				<g id="shape3415-176" transform="translate(34.2703,-38.5529)">
					<title>Sheet.3415</title>
					<path d="M10 498.23 C6.45 498.23 3.14 499.77 0.66 502.56 C0 503.31 0.07 504.45 0.82 505.11 C1.56 505.77 2.7 505.7
								 3.36 504.96 C5.14 502.94 7.5 501.83 10 501.83 C12.6 501.83 15.03 503.02 16.83 505.18 C17.19 505.61
								 17.7 505.83 18.22 505.83 C18.62 505.83 19.03 505.69 19.37 505.41 C20.14 504.77 20.24 503.64 19.6
								 502.87 C17.13 499.92 13.63 498.23 10 498.23 Z" class="st13"/>
				</g>
				<g id="shape3416-178" transform="translate(30.697,-44.5614)">
					<title>Sheet.3416</title>
					<path d="M3.33 505.03 C6.11 502.01 9.75 500.35 13.59 500.35 C17.52 500.35 21.22 502.08 24.02 505.23 C24.38 505.63
								 24.87 505.83 25.37 505.83 C25.8 505.83 26.23 505.68 26.57 505.38 C27.31 504.71 27.38 503.57 26.72
								 502.83 C23.22 498.9 18.56 496.74 13.59 496.74 C8.73 496.74 4.14 498.82 0.67 502.59 C0 503.32 0.05
								 504.46 0.78 505.14 C1.51 505.81 2.66 505.77 3.33 505.03 Z" class="st13"/>
				</g>
				<g id="shape3417-180" transform="translate(0.205275,2.84217E-13)">
					<title>Sheet.3417</title>
					<path d="M53.9 484.09 L45.98 484.09 L45.98 473.73 C45.98 472.74 45.17 471.93 44.18 471.93 C43.18 471.93 42.37
								 472.74 42.37 473.73 L42.37 484.09 L15.29 484.09 L15.29 473.73 C15.29 472.74 14.48 471.93 13.49 471.93
								 C12.49 471.93 11.68 472.74 11.68 473.73 L11.68 484.09 L3.76 484.09 C1.69 484.09 0 485.78 0 487.85
								 L0 502.07 C0 504.14 1.69 505.83 3.76 505.83 L53.9 505.83 C55.98 505.83 57.67 504.15 57.67 502.07
								 L57.67 487.85 C57.67 485.78 55.98 484.09 53.9 484.09 ZM54.06 502.07 C54.06 502.15 53.99 502.22 53.9
								 502.22 L3.76 502.22 C3.68 502.22 3.61 502.15 3.61 502.07 L3.61 487.85 C3.61 487.77 3.68 487.7 3.76
								 487.7 L53.9 487.7 C53.99 487.7 54.06 487.77 54.06 487.85 L54.06 502.07 L54.06 502.07 Z"
							class="st13"/>
				</g>
				<g id="shape3418-182" transform="translate(3.5684,-38.5522)">
					<title>Sheet.3418</title>
					<path d="M10.24 498.23 C6.6 498.23 3.1 499.92 0.64 502.87 C0 503.64 0.1 504.77 0.87 505.41 C1.2 505.69 1.61 505.83
								 2.02 505.83 C2.54 505.83 3.05 505.61 3.41 505.18 C5.21 503.02 7.64 501.83 10.24 501.83 C12.74 501.83
								 15.09 502.94 16.88 504.96 C17.54 505.7 18.68 505.77 19.42 505.11 C20.17 504.45 20.24 503.31 19.58
								 502.56 C17.1 499.77 13.78 498.23 10.24 498.23 Z" class="st13"/>
				</g>
				<g id="shape3419-184" transform="translate(-2.8777E-13,-44.5614)">
					<title>Sheet.3419</title>
					<path d="M0.81 505.38 C1.15 505.68 1.58 505.83 2.01 505.83 C2.51 505.83 3 505.63 3.36 505.23 C6.16 502.08 9.86
								 500.35 13.79 500.35 C17.63 500.35 21.27 502.01 24.05 505.03 C24.72 505.77 25.87 505.81 26.6 505.14
								 C27.33 504.46 27.38 503.32 26.7 502.59 C23.24 498.82 18.65 496.74 13.79 496.74 C8.82 496.74 4.16
								 498.9 0.66 502.83 C0 503.57 0.07 504.71 0.81 505.38 Z" class="st13"/>
				</g>
			</g>
		</g>
		<g id="shape3423-186" transform="translate(398.205,-0.597656)">
			<title>Sheet.3423</title>
			<path d="M31.45 456.01 C27.98 452.52 23.35 450.61 18.43 450.61 C13.5 450.61 8.88 452.52 5.4 456.01 C1.92 459.48 0 464.11
						 0 469.03 C0 474.97 3.8 479.67 6.58 483.1 C7.33 484.01 7.97 484.81 8.42 485.49 C8.96 486.28 9.01 486.58 9.01
						 486.62 L9.01 494.9 C9.01 496.01 9.73 496.96 10.72 497.32 L10.72 504.2 C10.72 505.1 11.45 505.83 12.35 505.83
						 L24.5 505.83 C25.4 505.83 26.13 505.1 26.13 504.2 L26.13 497.32 C27.12 496.97 27.84 496.02 27.84 494.9 L27.84
						 486.62 C27.84 486.58 27.9 486.28 28.43 485.5 C28.88 484.83 29.51 484.06 30.24 483.16 C33.03 479.71 36.85
						 474.99 36.85 469.03 C36.85 464.11 34.93 459.48 31.45 456.01 ZM22.87 502.58 L13.98 502.58 L13.98 497.47 L22.87
						 497.47 L22.87 502.58 ZM16.56 478.9 C16.61 479.35 16.68 479.77 16.78 480.13 C17.17 481.52 17.89 481.81 18.43
						 481.81 C18.96 481.81 19.68 481.52 20.07 480.13 C20.18 479.77 20.25 479.36 20.3 478.9 C20.35 479.35 20.42
						 479.77 20.52 480.13 C20.58 480.35 20.66 480.54 20.73 480.72 C20.66 480.8 20.6 480.88 20.56 480.98 C20.48
						 481.15 18.84 484.82 18.43 491.88 C18.01 484.82 16.37 481.15 16.29 480.98 C16.25 480.88 16.18 480.78 16.11
						 480.7 C16.19 480.54 16.26 480.34 16.33 480.12 C16.43 479.77 16.5 479.35 16.56 478.9 ZM27.71 481.11 C25.89
						 483.35 24.58 484.98 24.58 486.62 L24.58 494.21 L24.5 494.21 L20.52 494.21 C20.66 486.18 22.51 481.95 22.54
						 481.88 C22.57 481.84 22.58 481.79 22.59 481.74 C23.05 481.6 23.53 481.17 23.82 480.13 C24.01 479.46 24.11
						 478.6 24.11 477.69 C24.11 476.79 24.01 475.92 23.82 475.26 C23.43 473.87 22.71 473.57 22.17 473.57 C21.63
						 473.57 20.91 473.87 20.52 475.26 C20.42 475.62 20.35 476.03 20.3 476.48 C20.25 476.03 20.18 475.62 20.08
						 475.26 C19.69 473.87 18.97 473.57 18.43 473.57 C17.89 473.57 17.17 473.87 16.78 475.26 C16.68 475.62 16.61
						 476.03 16.56 476.48 C16.51 476.03 16.44 475.62 16.34 475.26 C15.95 473.87 15.23 473.57 14.69 473.57 C14.15
						 473.57 13.43 473.87 13.04 475.26 C12.86 475.92 12.75 476.78 12.75 477.69 C12.75 478.59 12.86 479.46 13.04
						 480.13 C13.34 481.18 13.83 481.6 14.28 481.75 C14.29 481.79 14.31 481.84 14.33 481.89 C14.35 481.93 16.22
						 486.15 16.36 494.22 L12.36 494.22 L12.28 494.22 L12.28 486.61 C12.28 484.94 10.96 483.31 9.13 481.04 C6.51
						 477.82 3.27 473.81 3.27 469.03 C3.27 460.67 10.06 453.87 18.43 453.87 C26.79 453.87 33.59 460.67 33.59 469.03
						 C33.59 473.84 30.19 478.04 27.71 481.11 Z" class="st5"/>
		</g>
		<g id="group3449-188" transform="translate(287.172,-206.756)">
			<title>Sheet.3449</title>
			<g id="group3450-189">
				<title>Sheet.3450</title>
				<g id="shape3451-190">
					<title>Sheet.3451</title>
					<path d="M47.47 465.27 L1.39 465.27 C0.62 465.27 0 465.89 0 466.66 L0 498.79 C0 499.56 0.62 500.18 1.39 500.18
								 L7.44 500.18 L7.44 504.45 C7.44 505.21 8.06 505.83 8.83 505.83 L40.02 505.83 C40.79 505.83 41.41
								 505.21 41.41 504.45 L41.41 500.18 L47.47 500.18 C48.23 500.18 48.85 499.56 48.85 498.79 L48.85 466.66
								 C48.85 465.89 48.23 465.27 47.47 465.27 ZM40.02 497.4 L8.83 497.4 L2.77 497.4 L2.77 468.04 L46.08
								 468.04 L46.08 497.4 L40.02 497.4 ZM38.64 503.06 L10.22 503.06 L10.22 500.18 L38.64 500.18 L38.64
								 503.06 Z" class="st13"/>
				</g>
				<g id="shape3452-192" transform="translate(15.6562,-15.2768)">
					<title>Sheet.3452</title>
					<path d="M1.29 496.58 L1.64 496.28 L1.64 505.1 C1.64 505.51 1.97 505.83 2.37 505.83 L15.17 505.83 C15.57 505.83
								 15.9 505.51 15.9 505.1 L15.9 496.28 L16.25 496.58 C16.39 496.69 16.56 496.75 16.72 496.75 C16.93
								 496.75 17.14 496.66 17.28 496.49 C17.54 496.18 17.5 495.72 17.19 495.46 L9.24 488.84 C8.97 488.61
								 8.57 488.61 8.3 488.84 L0.35 495.46 C0.04 495.72 0 496.18 0.26 496.49 C0.52 496.8 0.98 496.84 1.29
								 496.58 ZM8.77 490.35 L14.44 495.07 C14.44 495.09 14.44 495.12 14.44 495.14 L14.44 504.37 L3.1 504.37
								 L3.1 495.14 C3.1 495.12 3.1 495.09 3.1 495.07 L8.77 490.35 Z" class="st13"/>
				</g>
				<g id="shape3453-194" transform="translate(4.83098,-10.4842)">
					<title>Sheet.3453</title>
					<path d="M38.27 480.59 L0.92 480.59 C0.41 480.59 0 481 0 481.51 L0 504.91 C0 505.42 0.41 505.83 0.92 505.83 L38.27
								 505.83 C38.78 505.83 39.19 505.42 39.19 504.91 L39.19 481.51 C39.19 481 38.78 480.59 38.27 480.59
								 ZM37.34 503.98 L1.85 503.98 L1.85 482.44 L37.34 482.44 L37.34 503.98 Z" class="st13"/>
				</g>
			</g>
		</g>
		<g id="shape3456-196" transform="translate(115.072,-91.0835)">
			<title>Dynamic connector</title>
			<path d="M0 505.83 C10.63 505.83 10.63 483.57 10.63 461.31 C10.63 437.56 10.63 413.82 46.68 413.82" class="st17"/>
		</g>
		<g id="shape3457-199" transform="translate(169.198,-53.4428)">
			<title>Dynamic connector.3457</title>
			<path d="M-6.73 505.83 C-6.73 437.08 -23.81 437.08 -29.2 408.56 C-31.68 395.4 -31.68 376.18 -7.45 376.18" class="st17"/>
		</g>
		<g id="shape3459-202" transform="translate(161.751,-185.935)">
			<title>Dynamic connector.3459</title>
			<path d="M0 508.67 C-30.53 508.67 -48.68 508.67 -56.04 511.67 C-61.05 513.72 -61.05 517.17 -71.68 517.17" class="st17"/>
		</g>
		<g id="shape3460-205" transform="translate(192.243,-227.037)">
			<title>Dynamic connector.3460</title>
			<path d="M0 505.83 C0 495.2 51.47 495.2 51.47 388.05" class="st17"/>
		</g>
		<g id="shape3461-208" transform="translate(219.417,-191.362)">
			<title>Dynamic connector.3461</title>
			<path d="M0 505.83 C10.63 505.83 24.3 447.48 67.76 470.16" class="st17"/>
		</g>
		<g id="shape3462-211" transform="translate(219.417,-177.145)">
			<title>Dynamic connector.3462</title>
			<path d="M0 505.83 C49.81 519.01 38.69 526.19 49.32 539.3 C56.56 548.24 73.91 559.94 90.15 566.68" class="st17"/>
		</g>
		<g id="shape3463-214" transform="translate(310.909,-206.756)">
			<title>Dynamic connector.3463</title>
			<path d="M0.69 505.83 L13.48 589.55" class="st18"/>
		</g>
		<g id="shape3464-217" transform="translate(148.143,-132.822)">
			<title>Sheet.3464</title>
			<desc>Wi-Fi Access Point</desc>
			<rect x="0" y="465.271" width="84.8808" height="40.5614" class="st1"/>
			<text x="28.45" y="481.95" class="st19">Wi-Fi <tspan x="7.76" dy="1.2em" class="st20">Access Point</tspan></text>		</g>
		<g id="shape3466-221" transform="translate(263.898,-27.8314)">
			<title>Sheet.3466</title>
			<desc>Thread Border Router</desc>
			<rect x="0" y="465.271" width="95.4014" height="40.5614" class="st1"/>
			<text x="28.69" y="481.95" class="st19">Thread <tspan x="10.02" dy="1.2em" class="st20">Border Router</tspan></text>		</g>
		<g id="shape3467-225" transform="translate(263.898,-247.318)">
			<title>Sheet.3467</title>
			<desc>Thread Border Router</desc>
			<rect x="0" y="465.271" width="95.4014" height="40.5614" class="st1"/>
			<text x="28.69" y="481.95" class="st19">Thread <tspan x="10.02" dy="1.2em" class="st20">Border Router</tspan></text>		</g>
		<g id="shape3468-229" transform="translate(272.513,-344.818)">
			<title>Sheet.3468</title>
			<desc>Matter controllers</desc>
			<rect x="0" y="465.271" width="69.9668" height="40.5614" class="st1"/>
			<text x="17.98" y="481.95" class="st19">Matter <tspan x="7.31" dy="1.2em" class="st20">controllers</tspan></text>		</g>
		<g id="group3471-233" transform="translate(471.833,-252.813)">
			<title>Sheet.3471</title>
			<g id="shape3472-234">
				<title>Sheet.3472</title>
				<path d="M11.86 489.15 L11.86 486.41 L16.72 488.55 C16.95 488.65 17.2 488.7 17.44 488.7 C18.13 488.7 18.78 488.3
							 19.08 487.63 C19.47 486.73 19.06 485.67 18.16 485.28 L11.86 482.51 L11.86 479.54 C11.86 478.88 11.5
							 478.28 10.92 477.97 C10.34 477.66 9.64 477.69 9.09 478.05 L3.17 481.97 C2.67 482.31 2.37 482.87 2.37
							 483.47 L2.37 488.34 C2.37 489.33 3.17 490.13 4.16 490.13 C5.14 490.13 5.94 489.33 5.94 488.34 L5.94
							 484.42 L8.29 482.87 L8.29 489.89 C6.86 493.56 1.39 501.85 0.63 502.84 C0.09 503.43 0 504.34 0.47 505.04
							 C0.81 505.55 1.38 505.83 1.95 505.83 C2.3 505.83 2.64 505.73 2.94 505.53 C3.25 505.33 3.34 505.27 4.59
							 503.39 C5.05 502.71 5.98 501.3 7.07 499.55 C8.26 497.64 9.69 495.23 10.72 493.17 C12.61 495.36 15.41
							 499.33 16.3 504.36 C16.45 505.22 17.21 505.83 18.06 505.83 C18.16 505.83 18.27 505.82 18.37 505.8 C19.34
							 505.63 19.99 504.7 19.82 503.73 C18.48 496.18 13.61 490.85 11.86 489.15 Z" class="st6"/>
			</g>
			<g id="shape3473-236" transform="translate(6.56589,-28.9344)">
				<title>Sheet.3473</title>
				<ellipse cx="4.12781" cy="501.704" rx="4.12781" ry="4.12781" class="st6"/>
			</g>
			<g id="shape3474-238" transform="translate(31.7766,-37.4353)">
				<title>Sheet.3474</title>
				<path d="M11.17 503.43 C8.74 503.58 6.51 502.77 4.9 501.17 C3.23 499.49 2.43 497.17 2.66 494.63 C2.72 493.98 2.24
							 493.4 1.58 493.34 C0.93 493.28 0.35 493.76 0.29 494.42 C0 497.63 1.07 500.7 3.22 502.85 C5.15 504.79
							 7.75 505.83 10.6 505.83 C10.83 505.83 11.07 505.83 11.31 505.81 C11.97 505.77 12.47 505.21 12.43 504.55
							 C12.39 503.89 11.83 503.39 11.17 503.43 Z" class="st6"/>
			</g>
			<g id="shape3475-240" transform="translate(26.6726,-32.3417)">
				<title>Sheet.3475</title>
				<path d="M15.59 503.44 C11.93 503.59 8.58 502.34 6.15 499.91 C3.67 497.43 2.42 493.99 2.64 490.24 C2.68 489.58 2.17
							 489.02 1.52 488.98 C0.86 488.94 0.3 489.45 0.26 490.1 C0 494.54 1.49 498.62 4.47 501.6 C7.21 504.34
							 10.93 505.83 14.99 505.83 C15.22 505.83 15.45 505.83 15.69 505.82 C16.34 505.79 16.85 505.23 16.83 504.58
							 C16.8 503.92 16.24 503.41 15.59 503.44 Z" class="st6"/>
			</g>
			<g id="shape3476-242" transform="translate(21.6389,-27.138)">
				<title>Sheet.3476</title>
				<path d="M19.98 503.43 C15.06 503.64 10.54 501.96 7.28 498.69 C3.91 495.33 2.23 490.68 2.56 485.6 C2.6 484.94 2.1
							 484.38 1.44 484.34 C0.78 484.29 0.22 484.79 0.18 485.45 C0 488.25 0.36 490.95 1.25 493.47 C2.18 496.1
							 3.64 498.43 5.59 500.38 C9.13 503.91 13.91 505.83 19.15 505.83 C19.46 505.83 19.77 505.83 20.08 505.81
							 C20.74 505.78 21.25 505.23 21.22 504.57 C21.19 503.91 20.64 503.4 19.98 503.43 Z" class="st6"/>
			</g>
			<g id="shape3477-244" transform="translate(38.176,-43.9496)">
				<title>Sheet.3477</title>
				<path d="M8.53 495.15 L2.15 495.15 C0.96 495.15 0 496.12 0 497.3 L0 500.49 C0 503.44 2.39 505.83 5.34 505.83 C8.28
							 505.83 10.68 503.44 10.68 500.49 L10.68 497.3 C10.68 496.12 9.71 495.15 8.53 495.15 ZM8.29 500.49 C8.29
							 502.12 6.97 503.45 5.34 503.45 C3.71 503.45 2.38 502.12 2.38 500.49 L2.38 497.54 L8.29 497.54 L8.29
							 500.49 L8.29 500.49 Z" class="st6"/>
			</g>
		</g>
		<g id="group3478-246" transform="translate(330.173,-430.46)">
			<title>Sheet.3478</title>
			<g id="group3479-247">
				<title>Sheet.3479</title>
				<g id="shape3480-248" transform="translate(3.10365,3.41061E-13)">
					<title>Sheet.3480</title>
					<path d="M29.85 488.48 L21.91 488.48 L21.91 475.17 C21.91 469.13 17 464.22 10.96 464.22 C4.91 464.22 0 469.13
								 0 475.17 L0 494.88 C0 500.92 4.91 505.83 10.96 505.83 C16.37 505.83 20.99 501.84 21.79 496.51 L29.85
								 496.51 C32 496.51 33.75 494.77 33.75 492.62 L33.75 492.38 C33.75 490.23 32 488.48 29.85 488.48 ZM10.96
								 502.19 C6.92 502.19 3.64 498.91 3.64 494.88 L3.64 475.17 C3.64 471.14 6.92 467.86 10.96 467.86 C14.99
								 467.86 18.27 471.14 18.27 475.17 L18.27 488.48 L10.96 488.48 C8.81 488.48 7.07 490.23 7.07 492.38
								 L7.07 492.62 C7.07 494.77 8.81 496.51 10.96 496.51 L18.08 496.51 C17.33 499.79 14.39 502.19 10.96
								 502.19 ZM31.32 492.62 C31.32 493.43 30.66 494.09 29.85 494.09 L10.96 494.09 C10.15 494.09 9.5 493.43
								 9.5 492.62 L9.5 492.38 C9.5 491.57 10.15 490.91 10.96 490.91 L29.85 490.91 C30.66 490.91 31.32 491.57
								 31.32 492.38 L31.32 492.62 Z" class="st11"/>
				</g>
				<g id="shape3481-250" transform="translate(6.01984,-41.8158)">
					<title>Sheet.3481</title>
					<path d="M7.94 500.1 C5.1 500.1 2.44 501.34 0.44 503.59 C0 504.09 0.05 504.86 0.55 505.3 C1.05 505.75 1.82 505.7
								 2.26 505.2 C3.79 503.48 5.8 502.53 7.94 502.53 C10.17 502.53 12.25 503.55 13.79 505.4 C14.03 505.68
								 14.38 505.83 14.72 505.83 C15 505.83 15.28 505.74 15.5 505.55 C16.02 505.12 16.09 504.35 15.66 503.84
								 C13.67 501.46 10.86 500.1 7.94 500.1 Z" class="st11"/>
				</g>
				<g id="shape3482-252" transform="translate(3.06956,-45.7701)">
					<title>Sheet.3482</title>
					<path d="M19.72 505.43 C19.96 505.7 20.3 505.83 20.63 505.83 C20.92 505.83 21.21 505.73 21.44 505.52 C21.94 505.08
								 21.98 504.31 21.54 503.81 C18.71 500.63 14.93 498.88 10.91 498.88 C6.98 498.88 3.26 500.56 0.45
								 503.62 C0 504.11 0.03 504.88 0.53 505.33 C1.02 505.79 1.79 505.75 2.24 505.26 C4.59 502.71 7.66
								 501.31 10.91 501.31 C14.23 501.31 17.36 502.77 19.72 505.43 Z" class="st11"/>
				</g>
				<g id="shape3483-254" transform="translate(-1.85851E-13,-49.5874)">
					<title>Sheet.3483</title>
					<path d="M25.86 505.42 C26.1 505.69 26.43 505.83 26.77 505.83 C27.05 505.83 27.34 505.73 27.57 505.53 C28.07
								 505.09 28.12 504.32 27.68 503.81 C24.03 499.67 19.14 497.38 13.93 497.38 C8.86 497.38 4.08 499.56
								 0.45 503.5 C0 504 0.03 504.77 0.53 505.22 C1.02 505.67 1.79 505.64 2.24 505.15 C5.4 501.71 9.55
								 499.81 13.93 499.81 C18.43 499.81 22.67 501.8 25.86 505.42 Z" class="st11"/>
				</g>
				<g id="shape3484-256" transform="translate(-348.197,128.653) rotate(-45)">
					<title>Sheet.3484</title>
					<ellipse cx="1.45276" cy="504.379" rx="1.45276" ry="1.45276" class="st21"/>
				</g>
				<g id="shape3485-258" transform="translate(-343.619,128.653) rotate(-45)">
					<title>Sheet.3485</title>
					<ellipse cx="1.45276" cy="504.379" rx="1.45276" ry="1.45276" class="st21"/>
				</g>
				<g id="shape3486-260" transform="translate(-339.041,128.729) rotate(-45)">
					<title>Sheet.3486</title>
					<ellipse cx="1.45276" cy="504.379" rx="1.45276" ry="1.45276" class="st21"/>
				</g>
				<g id="shape3487-262" transform="translate(-348.197,124.268) rotate(-45)">
					<title>Sheet.3487</title>
					<ellipse cx="1.45276" cy="504.379" rx="1.45276" ry="1.45276" class="st21"/>
				</g>
				<g id="shape3488-264" transform="translate(-103.265,-10.6597) rotate(-13.2858)">
					<title>Sheet.3488</title>
					<ellipse cx="1.45272" cy="504.38" rx="1.45272" ry="1.45272" class="st22"/>
				</g>
				<g id="shape3489-266" transform="translate(-339.041,124.344) rotate(-45)">
					<title>Sheet.3489</title>
					<ellipse cx="1.45276" cy="504.379" rx="1.45276" ry="1.45276" class="st21"/>
				</g>
				<g id="shape3490-268" transform="translate(-348.197,119.882) rotate(-45)">
					<title>Sheet.3490</title>
					<ellipse cx="1.45276" cy="504.379" rx="1.45276" ry="1.45276" class="st21"/>
				</g>
				<g id="shape3491-270" transform="translate(-103.266,-15.0448) rotate(-13.2858)">
					<title>Sheet.3491</title>
					<ellipse cx="1.45272" cy="504.38" rx="1.45272" ry="1.45272" class="st22"/>
				</g>
				<g id="shape3492-272" transform="translate(-447.902,283.902) rotate(-67.4996)">
					<title>Sheet.3492</title>
					<ellipse cx="1.45281" cy="504.379" rx="1.45281" ry="1.45281" class="st23"/>
				</g>
			</g>
		</g>
		<g id="shape3493-274" transform="translate(398.205,-430.46)">
			<title>Sheet.3493</title>
			<path d="M31.45 456.01 C27.98 452.52 23.35 450.61 18.43 450.61 C13.5 450.61 8.88 452.52 5.4 456.01 C1.92 459.48 0 464.11
						 0 469.03 C0 474.97 3.8 479.67 6.58 483.1 C7.33 484.01 7.97 484.81 8.42 485.49 C8.96 486.28 9.01 486.58 9.01
						 486.62 L9.01 494.9 C9.01 496.01 9.73 496.96 10.72 497.32 L10.72 504.2 C10.72 505.1 11.45 505.83 12.35 505.83
						 L24.5 505.83 C25.4 505.83 26.13 505.1 26.13 504.2 L26.13 497.32 C27.12 496.97 27.84 496.02 27.84 494.9 L27.84
						 486.62 C27.84 486.58 27.9 486.28 28.43 485.5 C28.88 484.83 29.51 484.06 30.24 483.16 C33.03 479.71 36.85
						 474.99 36.85 469.03 C36.85 464.11 34.93 459.48 31.45 456.01 ZM22.87 502.58 L13.98 502.58 L13.98 497.47 L22.87
						 497.47 L22.87 502.58 ZM16.56 478.9 C16.61 479.35 16.68 479.77 16.78 480.13 C17.17 481.52 17.89 481.81 18.43
						 481.81 C18.96 481.81 19.68 481.52 20.07 480.13 C20.18 479.77 20.25 479.36 20.3 478.9 C20.35 479.35 20.42
						 479.77 20.52 480.13 C20.58 480.35 20.66 480.54 20.73 480.72 C20.66 480.8 20.6 480.88 20.56 480.98 C20.48
						 481.15 18.84 484.82 18.43 491.88 C18.01 484.82 16.37 481.15 16.29 480.98 C16.25 480.88 16.18 480.78 16.11
						 480.7 C16.19 480.54 16.26 480.34 16.33 480.12 C16.43 479.77 16.5 479.35 16.56 478.9 ZM27.71 481.11 C25.89
						 483.35 24.58 484.98 24.58 486.62 L24.58 494.21 L24.5 494.21 L20.52 494.21 C20.66 486.18 22.51 481.95 22.54
						 481.88 C22.57 481.84 22.58 481.79 22.59 481.74 C23.05 481.6 23.53 481.17 23.82 480.13 C24.01 479.46 24.11
						 478.6 24.11 477.69 C24.11 476.79 24.01 475.92 23.82 475.26 C23.43 473.87 22.71 473.57 22.17 473.57 C21.63
						 473.57 20.91 473.87 20.52 475.26 C20.42 475.62 20.35 476.03 20.3 476.48 C20.25 476.03 20.18 475.62 20.08
						 475.26 C19.69 473.87 18.97 473.57 18.43 473.57 C17.89 473.57 17.17 473.87 16.78 475.26 C16.68 475.62 16.61
						 476.03 16.56 476.48 C16.51 476.03 16.44 475.62 16.34 475.26 C15.95 473.87 15.23 473.57 14.69 473.57 C14.15
						 473.57 13.43 473.87 13.04 475.26 C12.86 475.92 12.75 476.78 12.75 477.69 C12.75 478.59 12.86 479.46 13.04
						 480.13 C13.34 481.18 13.83 481.6 14.28 481.75 C14.29 481.79 14.31 481.84 14.33 481.89 C14.35 481.93 16.22
						 486.15 16.36 494.22 L12.36 494.22 L12.28 494.22 L12.28 486.61 C12.28 484.94 10.96 483.31 9.13 481.04 C6.51
						 477.82 3.27 473.81 3.27 469.03 C3.27 460.67 10.06 453.87 18.43 453.87 C26.79 453.87 33.59 460.67 33.59 469.03
						 C33.59 473.84 30.19 478.04 27.71 481.11 Z" class="st11"/>
		</g>
		<g id="shape3500-276" transform="translate(112.391,-291.603)">
			<title>Dynamic connector.3500</title>
			<path d="M0 505.83 C15.74 505.83 39.26 505.83 51.06 517.85 C62.95 529.96 62.95 554.26 62.95 570.4" class="st24"/>
		</g>
		<g id="shape3501-279" transform="translate(466.236,-450.985)">
			<title>Dynamic connector.3501</title>
			<path d="M0 498.75 L-31.18 498.75" class="st25"/>
		</g>
		<g id="shape3502-282" transform="translate(398.205,-450.985)">
			<title>Dynamic connector.3502</title>
			<path d="M0 498.75 L-43.02 498.75" class="st25"/>
		</g>
		<g id="shape3503-285" transform="translate(333.277,-461.118)">
			<title>Dynamic connector.3503</title>
			<path d="M0 505.83 C-13.94 505.83 -35.1 505.83 -45.55 515.66 C-55.75 525.25 -55.75 544.22 -55.75 557.01" class="st26"/>
		</g>
		<g id="shape3504-288" transform="translate(333.277,-461.118)">
			<title>Dynamic connector.3504</title>
			<path d="M0 505.83 C-23.1 505.83 -59.39 505.83 -76.67 519.21 C-92.39 531.38 -92.39 554.62 -92.39 570.88" class="st26"/>
		</g>
		<g id="shape3505-291" transform="translate(333.277,-461.118)">
			<title>Dynamic connector.3505</title>
			<path d="M0 505.83 C-18.52 505.83 -47.72 505.83 -61.57 516.3 C-74.07 525.76 -74.07 543.74 -74.07 556.37" class="st26"/>
		</g>
		<g id="shape3507-294" transform="translate(336.276,-103.454)">
			<title>Dynamic connector.3507</title>
			<path d="M0 505.83 L63.31 564.86" class="st18"/>
		</g>
		<g id="shape3509-297" transform="translate(410.191,-55.8218)">
			<title>Dynamic connector.3509</title>
			<path d="M6.44 505.83 L7.73 450.66" class="st18"/>
		</g>
		<g id="shape3510-300" transform="translate(483.811,-93.4132)">
			<title>Dynamic connector.3510</title>
			<path d="M0 505.83 L-48.76 471.13" class="st18"/>
		</g>
		<g id="shape3511-303" transform="translate(400.795,-128.12)">
			<title>Dynamic connector.3511</title>
			<path d="M0 505.83 L-66.16 421.54" class="st18"/>
		</g>
		<g id="shape3512-306" transform="translate(392.535,-226.11)">
			<title>Dynamic connector.3512</title>
			<path d="M0 498.82 L-56.51 498.67" class="st18"/>
		</g>
		<g id="shape3513-309" transform="translate(423.828,-247.12)">
			<title>Dynamic connector.3513</title>
			<path d="M-6.86 505.83 L-7.31 456.97" class="st18"/>
		</g>
		<g id="shape3514-312" transform="translate(433.864,-243.78)">
			<title>Dynamic connector.3514</title>
			<path d="M0 505.83 L37.97 482.71" class="st18"/>
		</g>
		<g id="shape3515-315" transform="translate(432.547,-46.6883)">
			<title>Dynamic connector.3515</title>
			<path d="M0 505.83 L45.5 486.82" class="st18"/>
		</g>
		<g id="shape3516-318" transform="translate(409.788,-212.864)">
			<title>Dynamic connector.3516</title>
			<path d="M7.09 505.83 L7.09 573.45" class="st18"/>
		</g>
		<g id="shape3517-321" transform="translate(330.173,-392.813)">
			<title>Sheet.3517</title>
			<desc>Other networks (for example Zigbee)</desc>
			<rect x="0" y="468.186" width="172.913" height="37.6467" class="st1"/>
			<text x="45.77" y="483.41" class="st19">Other networks <tspan x="31.1" dy="1.2em" class="st20">(for example Zigbee)</tspan></text>		</g>
		<g id="group3518-325" transform="translate(76.2906,-273.553)">
			<title>Sheet.3518</title>
			<g id="shape3519-326">
				<title>Sheet.3519</title>
				<path d="M34.68 480.76 C33.77 478.6 32.47 476.68 30.81 475.02 C29.16 473.36 27.22 472.06 25.08 471.15 C22.85 470.21
							 20.49 469.73 18.05 469.73 C15.61 469.73 13.25 470.21 11.02 471.15 C8.87 472.06 6.94 473.36 5.29 475.02
							 C3.63 476.68 2.33 478.61 1.42 480.76 C0.48 482.98 0 485.35 0 487.78 C0 490.22 0.48 492.58 1.42 494.81
							 C2.33 496.96 3.63 498.89 5.29 500.54 C6.94 502.2 8.88 503.5 11.02 504.41 C13.25 505.35 15.61 505.83
							 18.05 505.83 C20.49 505.83 22.85 505.35 25.08 504.41 C27.23 503.5 29.16 502.2 30.81 500.54 C32.47 498.89
							 33.77 496.96 34.68 494.81 C35.62 492.58 36.1 490.22 36.1 487.78 C36.1 485.35 35.62 482.98 34.68 480.76
							 ZM31.82 495.35 L27.42 495.35 C28 493.24 28.33 490.94 28.4 488.56 L33.75 488.56 C33.63 491.01 32.94 493.32
							 31.82 495.35 ZM20.32 503.33 C19.83 503.4 19.33 503.45 18.83 503.47 L18.83 496.91 L25.29 496.91 C24.96
							 497.77 24.58 498.58 24.15 499.33 C23.05 501.27 21.74 502.63 20.32 503.33 ZM11.95 499.33 C11.53 498.58
							 11.15 497.77 10.82 496.91 L17.27 496.91 L17.27 503.48 C16.77 503.45 16.27 503.4 15.78 503.33 C14.36
							 502.63 13.05 501.27 11.95 499.33 ZM2.35 488.56 L7.7 488.56 C7.76 490.94 8.1 493.24 8.67 495.35 L4.28
							 495.35 C3.16 493.32 2.47 491.01 2.35 488.56 ZM4.3 480.18 L8.69 480.18 C8.1 482.3 7.76 484.61 7.7 487.01
							 L2.35 487.01 C2.47 484.54 3.17 482.22 4.3 480.18 ZM15.78 472.23 C16.27 472.16 16.77 472.11 17.27 472.09
							 L17.27 478.62 L10.83 478.62 C11.16 477.77 11.53 476.97 11.95 476.23 C13.05 474.29 14.36 472.93 15.78
							 472.23 ZM24.15 476.23 C24.57 476.97 24.94 477.77 25.27 478.62 L18.83 478.62 L18.83 472.09 C19.33 472.11
							 19.83 472.16 20.32 472.23 C21.74 472.93 23.05 474.29 24.15 476.23 ZM25.8 480.18 C26.42 482.27 26.78
							 484.59 26.84 487.01 L18.83 487.01 L18.83 480.18 L25.8 480.18 ZM17.27 480.18 L17.27 487.01 L9.26 487.01
							 C9.32 484.59 9.68 482.27 10.3 480.18 L17.27 480.18 ZM9.26 488.56 L17.27 488.56 L17.27 495.35 L10.29
							 495.35 C9.67 493.27 9.32 490.96 9.26 488.56 ZM18.83 495.35 L18.83 488.56 L26.84 488.56 C26.78 490.97
							 26.42 493.27 25.81 495.35 L18.83 495.35 ZM28.4 487 C28.33 484.6 28 482.29 27.41 480.17 L31.8 480.17
							 C32.93 482.22 33.62 484.53 33.75 487 L28.4 487 ZM30.81 478.62 L26.93 478.62 C26.53 477.49 26.05 476.43
							 25.5 475.46 C25.02 474.62 24.5 473.86 23.95 473.21 C26.71 474.34 29.09 476.23 30.81 478.62 ZM12.15 473.21
							 C11.6 473.86 11.08 474.62 10.6 475.46 C10.05 476.43 9.57 477.49 9.18 478.62 L5.29 478.62 C7.01 476.23
							 9.38 474.34 12.15 473.21 ZM5.26 496.91 L9.16 496.91 C9.56 498.05 10.04 499.12 10.6 500.1 C11.08 500.94
							 11.6 501.7 12.15 502.35 C9.37 501.22 6.99 499.31 5.26 496.91 ZM23.95 502.35 C24.5 501.7 25.02 500.94
							 25.5 500.1 C26.05 499.12 26.53 498.05 26.93 496.91 L30.84 496.91 C29.11 499.31 26.73 501.22 23.95 502.35
							 Z" class="st11"/>
			</g>
		</g>
		<g id="shape3528-328" transform="translate(51.9004,-247.318)">
			<title>Sheet.3528</title>
			<desc>Internet</desc>
			<rect x="0" y="485.551" width="84.8808" height="20.2807" class="st1"/>
			<text x="22.09" y="499.29" class="st19">Internet</text>		</g>
		<g id="shape3261-331" transform="translate(1,-391.446)">
			<title>Nordic Light Grey</title>
			<rect x="0" y="392.446" width="166.181" height="113.386" class="st27"/>
		</g>
		<g id="shape3223-333" transform="translate(5.8114,-481.656)">
			<title>Sheet.3223</title>
			<rect x="0" y="487.826" width="28.1738" height="18.0063" class="st28"/>
		</g>
		<g id="shape3274-335" transform="translate(40.5113,-482.519)">
			<title>Sheet.3274</title>
			<desc>Wi-Fi connection</desc>
			<rect x="0" y="489.552" width="99.2126" height="16.2807" class="st1"/>
			<text x="4" y="501.29" class="st19">Wi-Fi connection</text>		</g>
		<g id="group3520-338" transform="translate(5.8114,-439.136)">
			<title>Sheet.3520</title>
			<g id="shape3220-339">
				<title>Sheet.3220</title>
				<rect x="0" y="487.826" width="28.1738" height="18.0063" class="st29"/>
			</g>
			<g id="shape3278-341" transform="translate(34.6999,-0.862791)">
				<title>Sheet.3278</title>
				<desc>Ethernet connection</desc>
				<rect x="0" y="489.552" width="117.755" height="16.2807" class="st1"/>
				<text x="4" y="501.29" class="st19">Ethernet connection</text>			</g>
		</g>
		<g id="group3527-344" transform="translate(5.77898,-417.876)">
			<title>Sheet.3527</title>
			<g id="shape3521-345">
				<title>Sheet.3521</title>
				<rect x="0" y="487.826" width="28.1738" height="18.0063" class="st30"/>
			</g>
			<g id="shape3523-347" transform="translate(34.7323,-0.862742)">
				<title>Sheet.3523</title>
				<desc>Bridging connection</desc>
				<rect x="0" y="489.552" width="117.755" height="16.2807" class="st1"/>
				<text x="4" y="501.29" class="st19">Bridging connection</text>			</g>
		</g>
		<g id="shape3222-350" transform="translate(5.8114,-460.396)">
			<title>Sheet.3222</title>
			<rect x="0" y="487.826" width="28.1738" height="18.0063" class="st31"/>
		</g>
		<g id="shape3276-352" transform="translate(40.5113,-461.259)">
			<title>Sheet.3276</title>
			<desc>Thread connection</desc>
			<rect x="0" y="489.552" width="111.079" height="16.2807" class="st1"/>
			<text x="4" y="501.29" class="st19">Thread connection</text>		</g>
		<g id="group3533-355" transform="translate(5.8114,-396.075)">
			<title>Sheet.3533</title>
			<g id="shape3534-356">
				<title>Sheet.3534</title>
				<rect x="0" y="487.826" width="28.1738" height="18.0063" class="st32"/>
			</g>
			<g id="shape3535-358" transform="translate(34.7323,-0.499198)">
				<title>Sheet.3535</title>
				<desc>Other networks</desc>
				<rect x="0" y="489.552" width="117.755" height="16.2807" class="st1"/>
				<text x="4" y="501.29" class="st19">Other networks</text>			</g>
		</g>
	</g>
</svg>
