<?xml version="1.0" encoding="UTF-8" standalone="no"?>
<!DOCTYPE svg PUBLIC "-//W3C//DTD SVG 1.1//EN" "http://www.w3.org/Graphics/SVG/1.1/DTD/svg11.dtd">
<!-- Generated by Microsoft Visio, SVG Export matter_template_sample.svg Page-1 -->
<svg xmlns="http://www.w3.org/2000/svg" xmlns:xlink="http://www.w3.org/1999/xlink" xmlns:ev="http://www.w3.org/2001/xml-events"
		width="5.04947in" height="5.93329in" viewBox="0 0 363.562 427.197" xml:space="preserve" color-interpolation-filters="sRGB"
		class="st28">
	<style type="text/css">
	<![CDATA[
		.st1 {fill:#00a9ce;stroke:none;stroke-linecap:round;stroke-linejoin:round;stroke-width:0.75}
		.st2 {fill:#feffff;font-family:Arial;font-size:1.00001em}
		.st3 {fill:#0033a0;stroke:none;stroke-width:1}
		.st4 {fill:#ffffff;font-family:Arial;font-size:0.75em}
		.st5 {stroke:none;stroke-linecap:round;stroke-linejoin:round;stroke-width:0.75}
		.st6 {fill:#00a9ce;stroke:none;stroke-width:1}
		.st7 {fill:#ffffff;font-family:Arial;font-size:0.833336em}
		.st8 {fill:#768692;stroke:none;stroke-width:1}
		.st9 {stroke:none;stroke-width:1}
		.st10 {fill:#ffffff;font-family:Calibri;font-size:0.833336em}
		.st11 {fill:#ffffff;font-family:Arial;font-size:0.666664em}
		.st12 {font-size:1em}
		.st13 {fill:#d9e1e2;stroke:none;stroke-width:1}
		.st14 {fill:#333f48;font-family:Arial;font-size:0.75em}
		.st15 {fill:#d0df00;stroke:none;stroke-linecap:round;stroke-linejoin:round;stroke-width:0.75}
		.st16 {fill:#333f48;font-family:Arial;font-size:1.00001em}
		.st17 {fill:none;stroke:#768692;stroke-width:1}
		.st18 {fill:#d0df00;stroke:none;stroke-width:1}
		.st19 {fill:none;stroke:none;stroke-width:1}
		.st20 {fill:#333f48;font-family:Arial;font-size:0.666664em}
		.st21 {fill:#333f48;font-family:Arial;font-size:0.499992em}
		.st22 {fill:none;stroke:#00a9ce;stroke-linecap:round;stroke-linejoin:round;stroke-width:1}
		.st23 {fill:#00a9ce;font-family:Arial;font-size:1.00001em}
		.st24 {fill:none;stroke:#333f48;stroke-dasharray:5.25,3.75;stroke-linecap:round;stroke-linejoin:round;stroke-width:0.75}
		.st25 {marker-end:url(#mrkr4-102);stroke:#333f48;stroke-linecap:butt;stroke-width:1}
		.st26 {fill:#333f48;fill-opacity:1;stroke:#333f48;stroke-opacity:1;stroke-width:0.28409090909091}
		.st27 {fill:#feffff;font-family:Arial;font-size:0.833336em}
		.st28 {fill:none;fill-rule:evenodd;font-size:12px;overflow:visible;stroke-linecap:square;stroke-miterlimit:3}
	]]>
	</style>

	<defs id="Markers">
		<g id="lend4">
			<path d="M 2 1 L 0 0 L 2 -1 L 2 1 " style="stroke:none"/>
		</g>
		<marker id="mrkr4-102" class="st26" refX="-7.04" orient="auto" markerUnits="strokeWidth" overflow="visible">
			<use xlink:href="#lend4" transform="scale(-3.52,-3.52) "/>
		</marker>
	</defs>
	<g>
		<title>Page-1</title>
		<g id="shape3186-1" transform="translate(84.5284,-170.167)">
			<title>Sheet.3186</title>
			<desc>User application</desc>
			<path d="M0 409.77 L0 427.2 L224.08 427.2 L224.08 409.77 L0 409.77 L0 409.77 Z" class="st1"/>
			<text x="69.02" y="422.08" class="st2">User application</text>		</g>
		<g id="shape3188-4" transform="translate(182.481,-61.6177)">
			<title>Sheet.3188</title>
			<desc>Thread stack (OpenThread)</desc>
			<path d="M0 397.11 L0 427.2 L126.2 427.2 L126.2 397.11 L0 397.11 L0 397.11 Z" class="st3"/>
			<text x="7.58" y="414.85" class="st4">Thread stack (OpenThread)</text>		</g>
		<g id="shape3189-7" transform="translate(182.698,-8.94718)">
			<title>Sheet.3189</title>
			<path d="M125.98 351.67 L0 351.67 L0 427.2 L125.98 427.2 L125.98 351.67" class="st5"/>
		</g>
		<g id="shape3190-10" transform="translate(152.425,-1)">
			<title>Sheet.3190</title>
			<desc>MPSL</desc>
			<rect x="0" y="411.447" width="95.4424" height="15.75" class="st6"/>
			<text x="34.11" y="422.32" class="st7">MPSL</text>		</g>
		<g id="shape3192-13" transform="translate(223.785,-41.443)">
			<title>Sheet.3192</title>
			<desc>Zephyr integration</desc>
			<rect x="0" y="409.614" width="84.857" height="17.5833" class="st8"/>
			<text x="6.16" y="421.11" class="st4">Zephyr integration</text>		</g>
		<g id="shape3194-16" transform="translate(223.785,-20.4954)">
			<title>Sheet.3194</title>
			<desc>Radio driver</desc>
			<path d="M84.86 408.91 L0 408.91 L0 427.2 L84.86 427.2 L84.86 408.91 Z" class="st1"/>
			<text x="18.17" y="420.75" class="st4">Radio driver</text>		</g>
		<g id="shape3195-19" transform="translate(223.785,-20.0817)">
			<title>Sheet.3195</title>
			<path d="M83.91 408.91 L0 408.91 L0 427.2 L83.91 427.2 L83.91 408.91" class="st5"/>
		</g>
		<g id="shape3196-22" transform="translate(182.481,-96.4392)">
			<title>Sheet.3196</title>
			<path d="M0 397.11 L0 427.2 L125.98 427.2 L125.98 397.11 L0 397.11 L0 397.11 Z" class="st8"/>
		</g>
		<g id="shape3197-24" transform="translate(182.694,-96.4392)">
			<title>Sheet.3197</title>
			<desc>Zephyr network layer</desc>
			<path d="M125.98 397.11 L0 397.11 L0 427.2 L125.98 427.2 L125.98 397.11" class="st9"/>
			<text x="19.59" y="415.15" class="st10">Zephyr network layer</text>		</g>
		<g id="shape3212-28" transform="translate(2.23074,-81.9259)">
			<title>Sheet.3212</title>
			<desc>Zephyr kernel</desc>
			<rect x="0" y="408.91" width="79.5895" height="18.2867" class="st8"/>
			<text x="9.23" y="421.05" class="st7">Zephyr kernel</text>		</g>
		<g id="shape3213-31" transform="translate(2.23074,-101.787)">
			<title>Sheet.3213</title>
			<desc>MCU bootloader</desc>
			<rect x="0" y="403.073" width="37.8115" height="24.1243" class="st3"/>
			<text x="9.8" y="412.73" class="st11">MCU <tspan x="0" dy="1.2em" class="st12">bootloader</tspan></text>		</g>
		<g id="shape3214-35" transform="translate(42.4336,-101.787)">
			<title>Sheet.3214</title>
			<desc>mbedTLS</desc>
			<rect x="0" y="403.073" width="39.3867" height="24.1243" class="st3"/>
			<text x="2.35" y="417.53" class="st11">mbedTLS</text>		</g>
		<g id="shape3226-38" transform="translate(84.4735,-18.0079)">
			<title>Sheet.3226</title>
			<path d="M0 318.65 L0 427.2 L95.44 427.2 L95.44 318.65 L0 318.65 L0 318.65 Z" class="st13"/>
		</g>
		<g id="shape3228-40" transform="translate(87.8847,-21.6005)">
			<title>Sheet.3228</title>
			<desc>SoftDevice Controller</desc>
			<rect x="0" y="397.106" width="88.6201" height="30.091" class="st1"/>
			<text x="20.13" y="409.15" class="st7">SoftDevice <tspan x="22.64" dy="1.2em" class="st12">Controller</tspan></text>		</g>
		<g id="shape3235-44" transform="translate(84.4735,-115.068)">
			<title>Sheet.3235</title>
			<desc>Bluetooth® LE stack</desc>
			<path d="M95.44 417.37 L0 417.37 L0 427.2 L95.44 427.2 L95.44 417.37" class="st5"/>
			<text x="6.88" y="424.98" class="st14">Bluetooth® LE stack</text>		</g>
		<g id="shape3241-48" transform="translate(84.5284,-149.751)">
			<title>Sheet.3241</title>
			<desc>Matter stack</desc>
			<path d="M0 409.77 L0 427.2 L224.08 427.2 L224.08 409.77 L0 409.77 L0 409.77 Z" class="st15"/>
			<text x="79.36" y="422.08" class="st16">Matter stack</text>		</g>
		<g id="shape3242-51" transform="translate(84.5284,-129.335)">
			<title>Sheet.3242</title>
			<desc>Zephyr integration layer</desc>
			<path d="M0 409.77 L0 427.2 L224.08 427.2 L224.08 409.77 L0 409.77 L0 409.77 Z" class="st15"/>
			<text x="49.01" y="422.08" class="st16">Zephyr integration layer</text>		</g>
		<g id="shape3227-54" transform="translate(88.1554,-54.9189)">
			<title>Sheet.3227</title>
			<desc>Zephyr host</desc>
			<rect x="0" y="370.053" width="88.6201" height="57.144" class="st8"/>
			<text x="17.91" y="401.62" class="st7">Zephyr host</text>		</g>
		<g id="shape3261-57" transform="translate(1,-134.84)">
			<title>Nordic Light Grey</title>
			<rect x="0" y="370.053" width="76.8813" height="57.144" class="st17"/>
		</g>
		<g id="group3290-59" transform="translate(3.904,-138.394)">
			<title>Sheet.3290</title>
			<g id="shape3271-60">
				<title>Sheet.3271</title>
				<rect x="0" y="416.329" width="17.0048" height="10.868" class="st18"/>
			</g>
			<g id="shape3282-62" transform="translate(20.9437,-0.520753)">
				<title>Sheet.3282</title>
				<desc>Matter</desc>
				<rect x="0" y="417.37" width="50.1296" height="9.82649" class="st19"/>
				<text x="4" y="424.68" class="st20">Matter </text>			</g>
		</g>
		<g id="group3293-65" transform="translate(3.904,-151.406)">
			<title>Sheet.3293</title>
			<g id="shape3220-66">
				<title>Sheet.3220</title>
				<rect x="0" y="416.329" width="17.0048" height="10.868" class="st3"/>
			</g>
			<g id="shape3278-68" transform="translate(20.9437,-0.520753)">
				<title>Sheet.3278</title>
				<desc>Third-party</desc>
				<rect x="0" y="417.37" width="50.1296" height="9.82649" class="st19"/>
				<text x="4" y="424.68" class="st20">Third-party</text>			</g>
		</g>
		<g id="group3294-71" transform="translate(3.904,-164.484)">
			<title>Sheet.3294</title>
			<g id="shape3222-72">
				<title>Sheet.3222</title>
				<rect x="0" y="416.329" width="17.0048" height="10.868" class="st8"/>
			</g>
			<g id="shape3276-74" transform="translate(20.9437,-0.520753)">
				<title>Sheet.3276</title>
				<desc>Zephyr</desc>
				<rect x="0" y="417.37" width="50.1296" height="9.82649" class="st19"/>
				<text x="4" y="424.68" class="st20">Zephyr</text>			</g>
		</g>
		<g id="group3295-77" transform="translate(3.904,-177.562)">
			<title>Sheet.3295</title>
			<g id="shape3223-78">
				<title>Sheet.3223</title>
				<rect x="0" y="416.329" width="17.0048" height="10.868" class="st1"/>
			</g>
			<g id="shape3274-80" transform="translate(20.9437,-0.520753)">
				<title>Sheet.3274</title>
				<desc>nRF Connect SDK</desc>
				<rect x="0" y="417.37" width="50.1296" height="9.82649" class="st19"/>
				<text x="4" y="420.48" class="st21">nRF Connect <tspan x="4" dy="1.2em" class="st12">SDK</tspan></text>			</g>
		</g>
		<g id="shape3296-84" transform="translate(106.913,-253.418)">
			<title>Sheet.3296</title>
			<desc>User application</desc>
			<path d="M0 408.14 L0 427.2 L244.98 427.2 L244.98 408.14 L0 408.14 L0 408.14 Z" class="st22"/>
			<text x="79.47" y="421.27" class="st23">User application</text>		</g>
		<g id="shape3297-87" transform="translate(106.913,-231.098)">
			<title>Sheet.3297</title>
			<desc>Utility clusters</desc>
			<path d="M0 408.14 L0 427.2 L120.69 427.2 L120.69 408.14 L0 408.14 L0 408.14 Z" class="st15"/>
			<text x="23.34" y="421.27" class="st16">Utility clusters</text>		</g>
		<g id="shape3298-90" transform="translate(106.913,-208.778)">
			<title>Sheet.3298</title>
			<desc>Matter library</desc>
			<path d="M0 408.14 L0 427.2 L244.98 427.2 L244.98 408.14 L0 408.14 L0 408.14 Z" class="st15"/>
			<text x="87.48" y="421.27" class="st16">Matter library</text>		</g>
		<g id="shape3299-93" transform="translate(96.1052,-202.736)">
			<title>Sheet.3299</title>
			<path d="M0 335.14 L0 427.2 L266.46 427.2 L266.46 335.14 L0 335.14 L0 335.14 Z" class="st24"/>
		</g>
		<g id="shape3300-95" transform="translate(82.3643,-148.402)">
			<title>Sheet.3300</title>
			<path d="M0 385.96 L0 427.2 L228.47 427.2 L228.47 385.96 L0 385.96 L0 385.96 Z" class="st24"/>
		</g>
		<g id="shape3302-97" transform="translate(310.759,-169.021)">
			<title>Dynamic connector</title>
			<path d="M0.07 427.2 L14.1 427.2 L14.1 400.52" class="st25"/>
		</g>
		<g id="shape3303-103" transform="translate(96.1052,-276.082)">
			<title>Sheet.3303</title>
			<desc>Matter template sample</desc>
			<rect x="0" y="408.488" width="266.457" height="18.7091" class="st19"/>
			<text x="70.53" y="421.44" class="st16">Matter template sample</text>		</g>
		<g id="shape3305-106" transform="translate(231.203,-231.098)">
			<title>Sheet.3305</title>
			<desc>Application clusters</desc>
			<path d="M0 408.14 L0 427.2 L120.69 427.2 L120.69 408.14 L0 408.14 L0 408.14 Z" class="st22"/>
			<text x="8.65" y="421.27" class="st23">Application clusters</text>		</g>
		<g id="shape3306-109" transform="translate(15.2335,-376.423)">
			<title>Sheet.3306</title>
			<desc>If OnOff.OnOff Then Update(TemperatureMeasurement)</desc>
			<path d="M0 404.27 L0 427.2 L294.73 427.2 L294.73 404.27 L0 404.27 L0 404.27 Z" class="st1"/>
			<text x="22.31" y="418.74" class="st27">If OnOff.OnOff Then Update(TemperatureMeasurement) </text>		</g>
		<g id="shape3307-112" transform="translate(15.2335,-349.57)">
			<title>Sheet.3307</title>
			<desc>Utility clusters</desc>
			<path d="M0 404.27 L0 427.2 L145.2 427.2 L145.2 404.27 L0 404.27 L0 404.27 Z" class="st15"/>
			<text x="35.59" y="419.34" class="st16">Utility clusters</text>		</g>
		<g id="shape3308-115" transform="translate(15.2335,-322.718)">
			<title>Sheet.3308</title>
			<desc>Matter library</desc>
			<path d="M0 404.27 L0 427.2 L294.73 427.2 L294.73 404.27 L0 404.27 L0 404.27 Z" class="st15"/>
			<text x="112.36" y="419.34" class="st16">Matter library</text>		</g>
		<g id="shape3309-118" transform="translate(2.23074,-315.449)">
			<title>Sheet.3309</title>
			<path d="M0 316.45 L0 427.2 L320.56 427.2 L320.56 316.45 L0 316.45 L0 316.45 Z" class="st24"/>
		</g>
		<g id="shape3310-120" transform="translate(2.23074,-403.689)">
			<title>Sheet.3310</title>
			<desc>Matter device from this user guide</desc>
			<rect x="0" y="404.689" width="320.562" height="22.508" class="st19"/>
			<text x="69.91" y="419.54" class="st16">Matter device from this user guide</text>		</g>
		<g id="shape3311-123" transform="translate(164.761,-349.57)">
			<title>Sheet.3311</title>
			<desc>Temperature, OnOff</desc>
			<path d="M0 404.27 L0 427.2 L145.2 427.2 L145.2 404.27 L0 404.27 L0 404.27 Z" class="st15"/>
			<text x="18.91" y="419.34" class="st16">Temperature, OnOff</text>		</g>
		<g id="shape3312-126" transform="translate(96.1052,-248.764)">
			<title>Dynamic connector.3312</title>
			<path d="M0 427.2 L-42.52 427.2 L-42.52 367.55" class="st25"/>
		</g>
		<g id="shape3316-131" transform="translate(2.23074,-62.0834)">
			<title>Sheet.3316</title>
			<desc>Zephyr APIs</desc>
			<rect x="0" y="408.91" width="79.5895" height="18.2867" class="st8"/>
			<text x="12.28" y="421.05" class="st7">Zephyr APIs</text>		</g>
		<g id="shape3317-134" transform="translate(2.23074,-18.0079)">
			<title>Sheet.3317</title>
			<desc>Drivers and modules</desc>
			<rect x="0" y="384.677" width="79.5895" height="42.5197" class="st1"/>
			<text x="14.23" y="401.74" class="st7">Drivers and <tspan x="20.9" dy="1.38em" class="st12">modules</tspan></text>		</g>
	</g>
</svg>
