<?xml version="1.0" encoding="UTF-8" standalone="no"?>
<!DOCTYPE svg PUBLIC "-//W3C//DTD SVG 1.1//EN" "http://www.w3.org/Graphics/SVG/1.1/DTD/svg11.dtd">
<!-- Generated by Microsoft Visio, SVG Export matter_architecture.svg Page-1 -->
<svg xmlns="http://www.w3.org/2000/svg" xmlns:xlink="http://www.w3.org/1999/xlink" xmlns:ev="http://www.w3.org/2001/xml-events"
		width="7.19805in" height="4.9766in" viewBox="0 0 518.26 358.315" xml:space="preserve" color-interpolation-filters="sRGB"
		class="st14">
	<style type="text/css">
	<![CDATA[
		.st1 {fill:#768692;stroke:none;stroke-width:1}
		.st2 {fill:#feffff;font-family:Arial;font-size:0.833336em}
		.st3 {fill:#d0df00;stroke:none;stroke-linecap:round;stroke-linejoin:round;stroke-width:0.75}
		.st4 {fill:#333f48;font-family:Arial;font-size:1.00001em}
		.st5 {fill:none;stroke:#768692;stroke-width:1}
		.st6 {fill:#d0df00;stroke:none;stroke-width:1}
		.st7 {fill:none;stroke:none;stroke-width:1}
		.st8 {fill:#333f48;font-family:Arial;font-size:0.666664em}
		.st9 {fill:#333f48;stroke:none;stroke-linecap:round;stroke-linejoin:round;stroke-width:0.75}
		.st10 {stroke:none;stroke-linecap:round;stroke-linejoin:round;stroke-width:0.75}
		.st11 {fill:#333f48;stroke:none;stroke-width:1}
		.st12 {fill:#ffffff;font-family:Arial;font-size:1.00001em}
		.st13 {font-size:1em}
		.st14 {fill:none;fill-rule:evenodd;font-size:12px;overflow:visible;stroke-linecap:square;stroke-miterlimit:3}
	]]>
	</style>

	<g>
		<title>Page-1</title>
		<g id="shape3321-1" transform="translate(83.5591,-174.254)">
			<title>Sheet.3321</title>
			<desc>Session</desc>
			<path d="M0 330.08 L0 358.31 L73.86 358.31 L73.86 330.08 L0 330.08 L0 330.08 Z" class="st1"/>
			<text x="8.5" y="347.2" class="st2">Session</text>		</g>
		<g id="shape3322-4" transform="translate(83.5591,-205.152)">
			<title>Sheet.3322</title>
			<desc>Presentation</desc>
			<path d="M0 330.08 L0 358.31 L73.86 358.31 L73.86 330.08 L0 330.08 L0 330.08 Z" class="st1"/>
			<text x="8.5" y="347.2" class="st2">Presentation</text>		</g>
		<g id="shape3323-7" transform="translate(83.5591,-235.54)">
			<title>Sheet.3323</title>
			<desc>Application</desc>
			<path d="M0 330.08 L0 358.31 L73.86 358.31 L73.86 330.08 L0 330.08 L0 330.08 Z" class="st1"/>
			<text x="8.5" y="347.2" class="st2">Application</text>		</g>
		<g id="shape3315-10" transform="translate(456.322,-43.2362)">
			<title>Sheet.3315</title>
			<path d="M60.94 276.68 L0 276.68 L0 358.31 L60.94 358.31 L60.94 276.68 Z" class="st1"/>
		</g>
		<g id="shape3313-12" transform="translate(83.5591,-43.2362)">
			<title>Sheet.3313</title>
			<desc>Data Link</desc>
			<path d="M0 318.63 L0 358.31 L433.7 358.31 L433.7 318.63 L0 318.63 L0 318.63 Z" class="st1"/>
			<text x="8.5" y="341.47" class="st2">Data Link</text>		</g>
		<g id="shape3312-15" transform="translate(83.5591,-86.0394)">
			<title>Sheet.3312</title>
			<desc>Network</desc>
			<path d="M0 319.48 L0 358.31 L370.49 358.31 L370.49 319.48 L0 319.48 L0 319.48 Z" class="st1"/>
			<text x="8.5" y="341.9" class="st2">Network</text>		</g>
		<g id="shape3241-18" transform="translate(152.285,-171.929)">
			<title>Sheet.3241</title>
			<desc>Matter stack</desc>
			<path d="M0 263.64 L0 358.31 L364.98 358.31 L364.98 263.64 L0 263.64 L0 263.64 Z" class="st3"/>
			<text x="149.81" y="314.58" class="st4">Matter stack</text>		</g>
		<g id="shape3261-21" transform="translate(1,-285.315)">
			<title>Nordic Light Grey</title>
			<rect x="0" y="286.315" width="127.378" height="72" class="st5"/>
		</g>
		<g id="group3290-23" transform="translate(5.8114,-291.203)">
			<title>Sheet.3290</title>
			<g id="shape3271-24">
				<title>Sheet.3271</title>
				<rect x="0" y="340.309" width="28.1738" height="18.0063" class="st6"/>
			</g>
			<g id="shape3282-26" transform="translate(34.6999,-0.862791)">
				<title>Sheet.3282</title>
				<desc>Matter stack</desc>
				<rect x="0" y="342.034" width="83.0556" height="16.2807" class="st7"/>
				<text x="4" y="352.57" class="st8">Matter stack</text>			</g>
		</g>
		<g id="group3294-29" transform="translate(5.8114,-311.971)">
			<title>Sheet.3294</title>
			<g id="shape3222-30">
				<title>Sheet.3222</title>
				<rect x="0" y="340.309" width="28.1738" height="18.0063" class="st1"/>
			</g>
			<g id="shape3276-32" transform="translate(34.6999,-0.862791)">
				<title>Sheet.3276</title>
				<desc>OSI/ISO stack layers</desc>
				<rect x="0" y="342.034" width="83.0556" height="16.2807" class="st7"/>
				<text x="4" y="352.57" class="st8">OSI/ISO stack layers</text>			</g>
		</g>
		<g id="group3295-35" transform="translate(5.8114,-333.639)">
			<title>Sheet.3295</title>
			<g id="shape3223-36">
				<title>Sheet.3223</title>
				<rect x="0" y="340.309" width="28.1738" height="18.0063" class="st9"/>
			</g>
			<g id="shape3274-38" transform="translate(34.6999,-0.862791)">
				<title>Sheet.3274</title>
				<desc>Components</desc>
				<rect x="0" y="342.034" width="83.0556" height="16.2807" class="st7"/>
				<text x="4" y="352.57" class="st8">Components</text>			</g>
		</g>
		<g id="shape3196-41" transform="translate(83.5591,-127.709)">
			<title>Sheet.3196</title>
			<desc>Transport</desc>
			<path d="M0 318.63 L0 358.31 L370.49 358.31 L370.49 318.63 L0 318.63 L0 318.63 Z" class="st1"/>
			<text x="8.5" y="341.47" class="st2">Transport</text>		</g>
		<g id="shape3203-44" transform="translate(157.417,-48.3981)">
			<title>Sheet.3203</title>
			<path d="M196.93 339.67 L0 339.67 L0 358.31 L196.93 358.31 L196.93 339.67" class="st10"/>
		</g>
		<g id="shape3198-47" transform="translate(152.285,-130.085)">
			<title>Sheet.3198</title>
			<desc>TCP</desc>
			<path d="M146.71 324.33 L0 324.33 L0 358.31 L146.71 358.31 L146.71 324.33 Z" class="st11"/>
			<text x="61.35" y="344.92" class="st12">TCP</text>		</g>
		<g id="shape3200-50" transform="translate(305.356,-130.085)">
			<title>Sheet.3200</title>
			<desc>UDP</desc>
			<path d="M146.71 324.33 L0 324.33 L0 358.31 L146.71 358.31 L146.71 324.33 Z" class="st11"/>
			<text x="60.69" y="345.82" class="st12">UDP</text>		</g>
		<g id="shape3311-53" transform="translate(152.285,-88.2403)">
			<title>Sheet.3311</title>
			<desc>IPv6</desc>
			<path d="M299.78 324.33 L0 324.33 L0 358.31 L299.78 358.31 L299.78 324.33 Z" class="st11"/>
			<text x="59.53" y="344.92" class="st12">IPv6</text>		</g>
		<g id="shape3317-56" transform="translate(311.465,-102.197)">
			<title>Sheet.3317</title>
			<path d="M137.76 323.15 L0 323.15 L0 358.31 L137.76 358.31 L137.76 323.15 Z" class="st1"/>
		</g>
		<g id="shape3319-58" transform="translate(456.322,-127.709)">
			<title>Sheet.3319</title>
			<path d="M60.94 310.58 L0 310.58 L0 358.31 L60.94 358.31 L60.94 310.58 Z" class="st3"/>
		</g>
		<g id="shape3314-60" transform="translate(458.027,-130.085)">
			<title>Sheet.3314</title>
			<desc>BTP</desc>
			<path d="M57.53 324.33 L0 324.33 L0 358.31 L57.53 358.31 L57.53 324.33 Z" class="st11"/>
			<text x="17.1" y="345.82" class="st12">BTP</text>		</g>
		<g id="shape3320-63" transform="translate(83.5591,-1)">
			<title>Sheet.3320</title>
			<desc>Physical</desc>
			<path d="M0 319.48 L0 358.31 L433.7 358.31 L433.7 319.48 L0 319.48 L0 319.48 Z" class="st1"/>
			<text x="8.5" y="341.9" class="st2">Physical</text>		</g>
		<g id="shape3305-66" transform="translate(314.583,-106.449)">
			<title>Sheet.3305</title>
			<desc>Thread</desc>
			<path d="M131.73 331.39 L0 331.39 L0 358.31 L131.73 358.31 L131.73 331.39 Z" class="st11"/>
			<text x="46.85" y="349.35" class="st12">Thread</text>		</g>
		<g id="shape3303-69" transform="translate(152.285,-4.40158)">
			<title>Sheet.3303</title>
			<desc>Ethernet</desc>
			<path d="M93.05 282.33 L0 282.33 L0 358.31 L93.05 358.31 L93.05 282.33 Z" class="st11"/>
			<text x="23.85" y="324.82" class="st12">Ethernet</text>		</g>
		<g id="shape3302-72" transform="translate(255.299,-4.40158)">
			<title>Sheet.3302</title>
			<desc>Wi-Fi</desc>
			<path d="M93.05 282.33 L0 282.33 L0 358.31 L93.05 358.31 L93.05 282.33 Z" class="st11"/>
			<text x="32.54" y="324.82" class="st12">Wi-Fi</text>		</g>
		<g id="shape3304-75" transform="translate(358.52,-4.40158)">
			<title>Sheet.3304</title>
			<desc>802.15.4</desc>
			<path d="M93.05 282.33 L0 282.33 L0 358.31 L93.05 358.31 L93.05 282.33 Z" class="st11"/>
			<text x="23.17" y="324.82" class="st12">802.15.4</text>		</g>
		<g id="shape3306-78" transform="translate(459.717,-4.40158)">
			<title>Sheet.3306</title>
			<desc>Bluetooth LE</desc>
			<path d="M54.14 240.17 L0 240.17 L0 358.31 L54.14 358.31 L54.14 240.17 Z" class="st11"/>
			<text x="1.72" y="293.24" class="st12">Bluetooth <tspan x="19.73" dy="1.375em" class="st13">LE</tspan></text>		</g>
	</g>
</svg>
