<?xml version="1.0" encoding="UTF-8" standalone="no"?>
<!DOCTYPE svg PUBLIC "-//W3C//DTD SVG 1.1//EN" "http://www.w3.org/Graphics/SVG/1.1/DTD/svg11.dtd">
<!-- Generated by Microsoft Visio, SVG Export matter_device_certification_process_pf.svg Page-1 -->
<svg xmlns="http://www.w3.org/2000/svg" xmlns:xlink="http://www.w3.org/1999/xlink" xmlns:ev="http://www.w3.org/2001/xml-events"
		width="8.24955in" height="4.73415in" viewBox="0 0 593.968 340.858" xml:space="preserve" color-interpolation-filters="sRGB"
		class="st34">
	<style type="text/css">
	<![CDATA[
		.st1 {fill:none;stroke:#768692;stroke-dasharray:0.01,10;stroke-width:2}
		.st2 {fill:#d9e1e2;stroke:#d9e1e2;stroke-width:1}
		.st3 {fill:#768692;font-family:Arial;font-size:0.833336em}
		.st4 {fill:#00a9ce;stroke:none;stroke-width:1}
		.st5 {fill:#feffff;font-family:Arial;font-size:0.833336em}
		.st6 {fill:none;stroke:#ffcd00;stroke-width:1}
		.st7 {fill:#333f48;font-family:Arial;font-size:0.833336em}
		.st8 {font-size:1em}
		.st9 {fill:#d9e1e2;stroke:none;stroke-width:1}
		.st10 {fill:none;stroke:#d9e1e2;stroke-width:1}
		.st11 {fill:#d9e1e2;font-family:Arial;font-size:0.833336em}
		.st12 {fill:none;stroke:#0033a0;stroke-width:1}
		.st13 {fill:none;stroke:none;stroke-width:1}
		.st14 {marker-end:url(#mrkr13-59);stroke:#d9e1e2;stroke-linecap:butt;stroke-width:1}
		.st15 {fill:#d9e1e2;fill-opacity:1;stroke:#d9e1e2;stroke-opacity:1;stroke-width:0.28409090909091}
		.st16 {marker-start:url(#mrkr13-85);stroke:#d9e1e2;stroke-linecap:butt;stroke-width:1}
		.st17 {marker-end:url(#mrkr13-59);stroke:#d9e1e2;stroke-dasharray:1,4;stroke-linecap:butt;stroke-width:1}
		.st18 {marker-end:url(#mrkr13-121);stroke:#00a9ce;stroke-dasharray:8,4;stroke-linecap:butt;stroke-width:1}
		.st19 {fill:#00a9ce;fill-opacity:1;stroke:#00a9ce;stroke-opacity:1;stroke-width:0.28409090909091}
		.st20 {marker-end:url(#mrkr13-121);stroke:#00a9ce;stroke-linecap:butt;stroke-width:1}
		.st21 {fill:#333f48;font-family:Arial;font-size:1.00001em}
		.st22 {stroke:#768692;stroke-linecap:butt;stroke-width:4}
		.st23 {stroke:#008bab;stroke-linecap:butt;stroke-width:4}
		.st24 {fill:#d9e1e2;font-family:Arial;font-size:1.00001em}
		.st25 {fill:#768692;fill-opacity:0.41;stroke:#768692;stroke-dasharray:0.01,10;stroke-width:2}
		.st26 {fill:none;stroke:#768692;stroke-width:1}
		.st27 {fill:#333f48;font-family:Arial;font-size:0.666664em}
		.st28 {fill:#00a9ce;stroke:none;stroke-linecap:round;stroke-linejoin:round;stroke-width:0.75}
		.st29 {fill:none;stroke:#ee2f4e;stroke-width:1}
		.st30 {marker-start:url(#mrkr4-221);stroke:#008bab;stroke-linecap:butt;stroke-width:1}
		.st31 {fill:#008bab;fill-opacity:1;stroke:#008bab;stroke-opacity:1;stroke-width:0.28409090909091}
		.st32 {marker-start:url(#mrkr4-221);stroke:#008bab;stroke-dasharray:8,4;stroke-linecap:butt;stroke-width:1}
		.st33 {marker-start:url(#mrkr4-221);stroke:#008bab;stroke-dasharray:1,4;stroke-linecap:butt;stroke-width:1}
		.st34 {fill:none;fill-rule:evenodd;font-size:12px;overflow:visible;stroke-linecap:square;stroke-miterlimit:3}
	]]>
	</style>

	<defs id="Markers">
		<g id="lend13">
			<path d="M 3 1 L 0 0 L 3 -1 L 3 1 " style="stroke:none"/>
		</g>
		<marker id="mrkr13-59" class="st15" refX="-10.56" orient="auto" markerUnits="strokeWidth" overflow="visible">
			<use xlink:href="#lend13" transform="scale(-3.52,-3.52) "/>
		</marker>
		<marker id="mrkr13-85" class="st15" refX="10.2" orient="auto" markerUnits="strokeWidth" overflow="visible">
			<use xlink:href="#lend13" transform="scale(3.52) "/>
		</marker>
		<marker id="mrkr13-121" class="st19" refX="-10.56" orient="auto" markerUnits="strokeWidth" overflow="visible">
			<use xlink:href="#lend13" transform="scale(-3.52,-3.52) "/>
		</marker>
		<g id="lend4">
			<path d="M 2 1 L 0 0 L 2 -1 L 2 1 " style="stroke:none"/>
		</g>
		<marker id="mrkr4-221" class="st31" refX="6.68" orient="auto" markerUnits="strokeWidth" overflow="visible">
			<use xlink:href="#lend4" transform="scale(3.52) "/>
		</marker>
	</defs>
	<g>
		<title>Page-1</title>
		<g id="shape3686-1" transform="translate(349.425,-16.7559)">
			<title>Sheet.3686</title>
			<path d="M0 340.86 L158.74 340.86 L158.74 235.98 L0 235.98 L0 340.86 Z" class="st1"/>
		</g>
		<g id="shape3687-3" transform="translate(180.728,-151.554)">
			<title>Sheet.3687</title>
			<desc>Testing</desc>
			<rect x="0" y="288.57" width="66.4128" height="52.2882" class="st2"/>
			<text x="16.81" y="317.71" class="st3">Testing</text>		</g>
		<g id="shape3688-6" transform="translate(269.818,-151.554)">
			<title>Sheet.3688</title>
			<desc>Reporting</desc>
			<rect x="0" y="288.57" width="66.4128" height="52.2882" class="st2"/>
			<text x="11.53" y="317.71" class="st3">Reporting</text>		</g>
		<g id="shape3689-9" transform="translate(357.491,-151.554)">
			<title>Sheet.3689</title>
			<desc>Application</desc>
			<rect x="0" y="288.57" width="66.4128" height="52.2882" class="st4"/>
			<text x="8.75" y="317.71" class="st5">Application</text>		</g>
		<g id="shape3690-12" transform="translate(448.804,-151.554)">
			<title>Sheet.3690</title>
			<desc>Processing</desc>
			<rect x="0" y="288.57" width="66.4128" height="52.2882" class="st4"/>
			<text x="8.47" y="317.71" class="st5">Processing</text>		</g>
		<g id="shape3691-15" transform="translate(526.555,-76.4362)">
			<title>Sheet.3691</title>
			<desc>Certification for Family of Products</desc>
			<rect x="0" y="304.793" width="66.4128" height="36.0653" class="st6"/>
			<text x="6.81" y="313.83" class="st7">Certification <tspan x="5.7" dy="1.2em" class="st8">for Family of </tspan><tspan
						x="13.47" dy="1.2em" class="st8">Products</tspan></text>		</g>
		<g id="shape3692-20" transform="translate(90.0197,-151.554)">
			<title>Sheet.3692</title>
			<desc>Membership at CSA</desc>
			<rect x="0" y="288.57" width="66.4128" height="52.2882" class="st9"/>
			<text x="5.7" y="311.71" class="st3">Membership <tspan x="17.37" dy="1.2em" class="st8">at CSA</tspan></text>		</g>
		<g id="shape3693-24" transform="translate(255.846,-90.1298)">
			<title>Sheet.3693</title>
			<desc>Test results</desc>
			<rect x="0" y="308.413" width="66.4128" height="32.4457" class="st10"/>
			<text x="7.37" y="327.64" class="st11">Test results</text>		</g>
		<g id="shape3694-27" transform="translate(154.202,-77.5374)">
			<title>Sheet.3694</title>
			<desc>DoC</desc>
			<rect x="0" y="306.21" width="66.4128" height="34.648" class="st10"/>
			<text x="23.2" y="326.53" class="st11">DoC</text>		</g>
		<g id="shape3695-30" transform="translate(154.202,-30.4496)">
			<title>Sheet.3695</title>
			<desc>PICS</desc>
			<rect x="0" y="304.793" width="66.4128" height="36.0653" class="st10"/>
			<text x="21.54" y="325.83" class="st11">PICS</text>		</g>
		<g id="shape3696-33" transform="translate(357.491,-77.8535)">
			<title>Sheet.3696</title>
			<desc>DoC</desc>
			<rect x="0" y="306.21" width="66.4128" height="34.648" class="st12"/>
			<text x="23.2" y="326.53" class="st7">DoC</text>		</g>
		<g id="shape3697-36" transform="translate(357.491,-30.4496)">
			<title>Sheet.3697</title>
			<desc>PICS</desc>
			<rect x="0" y="304.793" width="66.4128" height="36.0653" class="st12"/>
			<text x="21.54" y="325.83" class="st7">PICS</text>		</g>
		<g id="shape3698-39" transform="translate(435.846,-77.8535)">
			<title>Sheet.3698</title>
			<desc>Dependent Transport Attestation</desc>
			<rect x="0" y="306.21" width="66.4128" height="34.648" class="st12"/>
			<text x="8.74" y="314.53" class="st7">Dependent <tspan x="11.81" dy="1.2em" class="st8">Transport </tspan><tspan
						x="9.58" dy="1.2em" class="st8">Attestation</tspan></text>		</g>
		<g id="shape3699-44" transform="translate(435.846,-30.4496)">
			<title>Sheet.3699</title>
			<desc>Attestation of Security</desc>
			<rect x="0" y="304.793" width="66.4128" height="36.0653" class="st12"/>
			<text x="9.58" y="319.83" class="st7">Attestation <tspan x="9.59" dy="1.2em" class="st8">of Security</tspan></text>		</g>
		<g id="shape3700-48" transform="translate(90.0197,-78.6385)">
			<title>Sheet.3700</title>
			<desc>VID</desc>
			<rect x="0" y="308.413" width="39.685" height="32.4457" class="st10"/>
			<text x="11.51" y="327.64" class="st11">VID</text>		</g>
		<g id="shape3701-51" transform="translate(349.425,-3.1496)">
			<title>Sheet.3701</title>
			<desc>Required application documents</desc>
			<rect x="0" y="327.252" width="158.74" height="13.6063" class="st13"/>
			<text x="7.94" y="337.06" class="st7">Required application documents</text>		</g>
		<g id="shape3702-54" transform="translate(116.949,-151.554)">
			<title>Dynamic connector.3702</title>
			<path d="M-7.09 340.86 L-7.09 370.77" class="st14"/>
		</g>
		<g id="shape3703-60" transform="translate(129.705,-87.7748)">
			<title>Dynamic connector.3703</title>
			<path d="M0 333.77 L13.94 333.77" class="st14"/>
		</g>
		<g id="shape3704-65" transform="translate(109.862,-78.6385)">
			<title>Dynamic connector.3704</title>
			<path d="M0 340.86 L0 371.01 L33.78 371.01" class="st14"/>
		</g>
		<g id="shape3705-70" transform="translate(187.408,-112.185)">
			<title>Dynamic connector.3705</title>
			<path d="M0 340.86 L0 321.33 L26.53 321.33 L26.53 312.05" class="st14"/>
		</g>
		<g id="shape3706-75" transform="translate(247.141,-170.612)">
			<title>Dynamic connector.3706</title>
			<path d="M0 333.77 L12.12 333.77" class="st14"/>
		</g>
		<g id="shape3707-80" transform="translate(180.728,-184.973)">
			<title>Dynamic connector.3707</title>
			<path d="M-10.2 333.78 L-10.56 333.78 L-24.3 333.74" class="st16"/>
		</g>
		<g id="shape3708-86" transform="translate(180.728,-158.357)">
			<title>Dynamic connector.3708</title>
			<path d="M0 333.77 L-13.74 333.77" class="st14"/>
		</g>
		<g id="shape3709-91" transform="translate(336.231,-170.612)">
			<title>Dynamic connector.3709</title>
			<path d="M0 333.77 L10.7 333.77" class="st14"/>
		</g>
		<g id="shape3710-96" transform="translate(310.091,-151.554)">
			<title>Dynamic connector.3710</title>
			<path d="M-7.08 351.06 L-7.08 351.42 L-7.11 369.84" class="st16"/>
		</g>
		<g id="shape3711-101" transform="translate(234.02,-151.554)">
			<title>Dynamic connector.3711</title>
			<path d="M0 340.86 L0 386.06 L11.27 386.06" class="st14"/>
		</g>
		<g id="shape3712-106" transform="translate(220.615,-76.4525)">
			<title>Dynamic connector.3712</title>
			<path d="M0 333.79 L126.32 333.76" class="st17"/>
		</g>
		<g id="shape3713-111" transform="translate(220.615,-41.3957)">
			<title>Dynamic connector.3713</title>
			<path d="M0 333.77 L126.32 333.77" class="st17"/>
		</g>
		<g id="shape3714-116" transform="translate(383.526,-121.638)">
			<title>Dynamic connector.3714</title>
			<path d="M7 340.86 L7.11 321.5" class="st18"/>
		</g>
		<g id="shape3715-122" transform="translate(423.904,-170.612)">
			<title>Dynamic connector.3715</title>
			<path d="M0 333.77 L14.34 333.77" class="st20"/>
		</g>
		<g id="shape3716-127" transform="translate(515.217,-177.698)">
			<title>Dynamic connector.3716</title>
			<path d="M0 340.86 L44.54 340.86 L44.54 395.5" class="st18"/>
		</g>
		<g id="shape3717-132" transform="translate(2.14567,-3.1496)">
			<title>Sheet.3717</title>
			<desc>Certification documents</desc>
			<rect x="0" y="219.536" width="72.0821" height="121.323" class="st13"/>
			<text x="4.72" y="276.6" class="st21">Certification <tspan x="9.38" dy="1.2em" class="st8">documents</tspan></text>		</g>
		<g id="shape3718-136" transform="translate(420.957,216.386) rotate(90)">
			<title>Sheet.3718</title>
			<path d="M0 340.86 L120.47 340.86" class="st22"/>
		</g>
		<g id="shape3719-139" transform="translate(1.43701,-148.567)">
			<title>Sheet.3719</title>
			<desc>Certification process steps</desc>
			<rect x="0" y="283.79" width="72.0821" height="57.0687" class="st13"/>
			<text x="4.72" y="301.52" class="st21">Certification <tspan x="26.06" dy="1.2em" class="st8">process </tspan><tspan
						x="39.4" dy="1.2em" class="st8">steps</tspan></text>		</g>
		<g id="shape3720-144" transform="translate(420.248,135.223) rotate(90)">
			<title>Sheet.3720</title>
			<path d="M0 340.86 L56.67 340.86" class="st23"/>
		</g>
		<g id="shape3721-147" transform="translate(1,-222.943)">
			<title>Sheet.3721</title>
			<desc>Actors in each step</desc>
			<rect x="0" y="283.79" width="72.0821" height="57.0687" class="st13"/>
			<text x="21.4" y="308.72" class="st21">Actors in <tspan x="16.04" dy="1.2em" class="st8">each step</tspan></text>		</g>
		<g id="shape3722-151" transform="translate(419.811,60.847) rotate(90)">
			<title>Sheet.3722</title>
			<path d="M0 340.86 L56.67 340.86" class="st22"/>
		</g>
		<g id="shape3723-154" transform="translate(185.588,-223.685)">
			<title>Sheet.3723</title>
			<desc>ATL</desc>
			<rect x="0" y="312.512" width="56.6929" height="28.3465" class="st13"/>
			<text x="17.34" y="330.29" class="st24">ATL</text>		</g>
		<g id="shape3724-157" transform="translate(94.8796,-223.685)">
			<title>Sheet.3724</title>
			<desc>CSA</desc>
			<rect x="0" y="312.512" width="56.6929" height="28.3465" class="st13"/>
			<text x="16.01" y="330.29" class="st24">CSA</text>		</g>
		<g id="shape3725-160" transform="translate(94.8796,-252.031)">
			<title>Sheet.3725</title>
			<desc>Vendor</desc>
			<rect x="0" y="312.512" width="56.6929" height="28.3465" class="st13"/>
			<text x="9" y="330.29" class="st24">Vendor</text>		</g>
		<g id="shape3726-163" transform="translate(185.588,-252.031)">
			<title>Sheet.3726</title>
			<desc>Vendor</desc>
			<rect x="0" y="312.512" width="56.6929" height="28.3465" class="st13"/>
			<text x="9" y="330.29" class="st24">Vendor</text>		</g>
		<g id="shape3727-166" transform="translate(274.678,-252.031)">
			<title>Sheet.3727</title>
			<desc>ATL</desc>
			<rect x="0" y="312.512" width="56.6929" height="28.3465" class="st13"/>
			<text x="17.34" y="330.29" class="st24">ATL</text>		</g>
		<g id="shape3728-169" transform="translate(274.678,-223.685)">
			<title>Sheet.3728</title>
			<desc>CSA</desc>
			<rect x="0" y="312.512" width="56.6929" height="28.3465" class="st13"/>
			<text x="16.01" y="330.29" class="st24">CSA</text>		</g>
		<g id="shape3729-172" transform="translate(359.311,-223.685)">
			<title>Sheet.3729</title>
			<desc>CSA</desc>
			<rect x="0" y="312.512" width="56.6929" height="28.3465" class="st13"/>
			<text x="16.01" y="330.29" class="st21">CSA</text>		</g>
		<g id="shape3730-175" transform="translate(359.311,-252.031)">
			<title>Sheet.3730</title>
			<desc>Vendor</desc>
			<rect x="0" y="312.512" width="56.6929" height="28.3465" class="st13"/>
			<text x="9" y="330.29" class="st21">Vendor</text>		</g>
		<g id="shape3731-178" transform="translate(453.664,-223.685)">
			<title>Sheet.3731</title>
			<desc>CSA</desc>
			<rect x="0" y="312.512" width="56.6929" height="28.3465" class="st13"/>
			<text x="16.01" y="330.29" class="st21">CSA</text>		</g>
		<g id="shape3732-181" transform="translate(90.0197,-3.1496)">
			<title>Sheet.3732</title>
			<desc>Completed in the original certification process</desc>
			<path d="M0 340.86 L252.32 340.86 L252.32 61.43 L0 61.43 L0 340.86 Z" class="st25"/>
			<text x="5.1" y="204.74" class="st21">Completed in the original certification process</text>		</g>
		<g id="group3820-184" transform="translate(459.541,-254.819)">
			<title>Sheet.3820</title>
			<g id="shape3821-185">
				<title>Nordic Light Grey</title>
				<rect x="0" y="255.819" width="126.067" height="85.0394" class="st26"/>
			</g>
			<g id="shape3822-187" transform="translate(2.904,-57.5392)">
				<title>Sheet.3822</title>
				<rect x="0" y="329.99" width="17.0048" height="10.868" class="st6"/>
			</g>
			<g id="shape3823-189" transform="translate(23.8477,-58.0599)">
				<title>Sheet.3823</title>
				<desc>Documents from CSA</desc>
				<rect x="0" y="331.032" width="102.219" height="9.82649" class="st13"/>
				<text x="4" y="338.35" class="st27">Documents from CSA</text>			</g>
			<g id="shape3824-192" transform="translate(2.904,-70.6175)">
				<title>Sheet.3824</title>
				<rect x="0" y="329.99" width="17.0048" height="10.868" class="st28"/>
			</g>
			<g id="shape3825-194" transform="translate(23.8477,-71.1383)">
				<title>Sheet.3825</title>
				<desc>Certification steps</desc>
				<rect x="0" y="331.032" width="102.219" height="9.82649" class="st13"/>
				<text x="4" y="338.35" class="st27">Certification steps</text>			</g>
			<g id="shape3826-197" transform="translate(2.904,-44.1723)">
				<title>Sheet.3826</title>
				<rect x="0" y="329.99" width="17.0048" height="10.868" class="st12"/>
			</g>
			<g id="shape3827-199" transform="translate(23.8477,-44.1723)">
				<title>Sheet.3827</title>
				<desc>Documents from Vendor</desc>
				<rect x="0" y="331.032" width="102.219" height="9.82649" class="st13"/>
				<text x="4" y="338.35" class="st27">Documents from Vendor</text>			</g>
			<g id="shape3828-202" transform="translate(2.904,-30.5178)">
				<title>Sheet.3828</title>
				<rect x="0" y="329.99" width="17.0048" height="10.868" class="st29"/>
			</g>
			<g id="shape3829-204" transform="translate(23.8477,-31.3702)">
				<title>Sheet.3829</title>
				<desc>Documents from ATL</desc>
				<rect x="0" y="331.032" width="102.219" height="9.82649" class="st13"/>
				<text x="4" y="338.35" class="st27">Documents from ATL</text>			</g>
			<g id="shape3830-207" transform="translate(30.8976,-19.1813)">
				<title>Sheet.3830</title>
				<desc>Process step</desc>
				<rect x="0" y="331.032" width="95.1695" height="9.82649" class="st13"/>
				<text x="4" y="338.35" class="st27">Process step</text>			</g>
			<g id="shape3831-210" transform="translate(30.8976,-9.35477)">
				<title>Sheet.3831</title>
				<desc>Document step</desc>
				<rect x="0" y="331.032" width="95.1695" height="9.82649" class="st13"/>
				<text x="4" y="338.35" class="st27">Document step</text>			</g>
			<g id="shape3832-213" transform="translate(30.8976,-0.283465)">
				<title>Sheet.3832</title>
				<desc>Same document used</desc>
				<rect x="0" y="331.032" width="95.1695" height="9.82649" class="st13"/>
				<text x="4" y="338.35" class="st27">Same document used</text>			</g>
			<g id="shape3833-216" transform="translate(4.25196,-24.6614)">
				<title>Sheet.3833</title>
				<path d="M6.68 340.86 L7.04 340.86 L26.65 340.86" class="st30"/>
			</g>
			<g id="shape3834-222" transform="translate(4.25196,-14.7402)">
				<title>Sheet.3834</title>
				<path d="M6.68 340.86 L7.04 340.86 L26.65 340.86" class="st32"/>
			</g>
			<g id="shape3835-227" transform="translate(4.25196,-5.66931)">
				<title>Sheet.3835</title>
				<path d="M6.68 340.86 L7.04 340.86 L26.65 340.86" class="st33"/>
			</g>
		</g>
	</g>
</svg>
