<?xml version="1.0" encoding="UTF-8" standalone="no"?>
<!DOCTYPE svg PUBLIC "-//W3C//DTD SVG 1.1//EN" "http://www.w3.org/Graphics/SVG/1.1/DTD/svg11.dtd">
<!-- Generated by Microsoft Visio, SVG Export matter_components.svg Page-1 -->
<svg xmlns="http://www.w3.org/2000/svg" xmlns:xlink="http://www.w3.org/1999/xlink" xmlns:ev="http://www.w3.org/2001/xml-events"
		width="5.77581in" height="5.15033in" viewBox="0 0 415.858 370.824" xml:space="preserve" color-interpolation-filters="sRGB"
		class="st17">
	<style type="text/css">
	<![CDATA[
		.st1 {fill:#768692;stroke:none;stroke-width:1}
		.st2 {fill:#feffff;font-family:Arial;font-size:0.833336em}
		.st3 {fill:#d0df00;stroke:none;stroke-linecap:round;stroke-linejoin:round;stroke-width:0.75}
		.st4 {fill:#333f48;font-family:Arial;font-size:1.00001em}
		.st5 {fill:#d9e1e2;stroke:none;stroke-width:1}
		.st6 {fill:#333f48;stroke:none;stroke-width:1}
		.st7 {fill:#feffff;font-family:Arial;font-size:1.00001em}
		.st8 {fill:#ffffff;font-family:Arial;font-size:1.00001em}
		.st9 {fill:none;stroke:#768692;stroke-width:1}
		.st10 {fill:#d0df00;stroke:none;stroke-width:1}
		.st11 {fill:none;stroke:none;stroke-width:1}
		.st12 {fill:#333f48;font-family:Arial;font-size:0.666664em}
		.st13 {fill:#d9e1e2;stroke:none;stroke-linecap:round;stroke-linejoin:round;stroke-width:0.75}
		.st14 {marker-end:url(#mrkr4-84);stroke:#000000;stroke-linecap:butt;stroke-width:1}
		.st15 {fill:#000000;fill-opacity:1;stroke:#000000;stroke-opacity:1;stroke-width:0.28409090909091}
		.st16 {font-size:1em}
		.st17 {fill:none;fill-rule:evenodd;font-size:12px;overflow:visible;stroke-linecap:square;stroke-miterlimit:3}
	]]>
	</style>

	<defs id="Markers">
		<g id="lend4">
			<path d="M 2 1 L 0 0 L 2 -1 L 2 1 " style="stroke:none"/>
		</g>
		<marker id="mrkr4-84" class="st15" refX="-7.04" orient="auto" markerUnits="strokeWidth" overflow="visible">
			<use xlink:href="#lend4" transform="scale(-3.52,-3.52) "/>
		</marker>
	</defs>
	<g>
		<title>Page-1</title>
		<g id="shape3340-1" transform="translate(72.7011,-37.8504)">
			<title>Sheet.3340</title>
			<desc>Transport</desc>
			<path d="M0 324.62 L0 370.82 L221.68 370.82 L221.68 324.62 L0 324.62 L0 324.62 Z" class="st1"/>
			<text x="8.5" y="350.72" class="st2">Transport</text>		</g>
		<g id="shape3241-4" transform="translate(146.559,-37.8504)">
			<title>Sheet.3241</title>
			<desc>Matter stack</desc>
			<path d="M0 147.88 L0 370.82 L215.86 370.82 L215.86 147.88 L0 147.88 L0 147.88 Z" class="st3"/>
			<text x="75.25" y="162.68" class="st4">Matter stack</text>		</g>
		<g id="shape3299-7" transform="translate(156.906,-219.268)">
			<title>Sheet.3299</title>
			<desc>Application</desc>
			<path d="M198.43 351.97 L0 351.97 L0 370.82 L198.43 370.82 L198.43 351.97 Z" class="st5"/>
			<text x="69.86" y="365.9" class="st4">Application</text>		</g>
		<g id="shape3310-10" transform="translate(156.906,-192.835)">
			<title>Sheet.3310</title>
			<desc>Data Model</desc>
			<path d="M198.43 351.97 L0 351.97 L0 370.82 L198.43 370.82 L198.43 351.97 Z" class="st5"/>
			<text x="68.53" y="365.9" class="st4">Data Model</text>		</g>
		<g id="shape3311-13" transform="translate(156.906,-166.118)">
			<title>Sheet.3311</title>
			<desc>Interaction Model</desc>
			<path d="M198.43 351.97 L0 351.97 L0 370.82 L198.43 370.82 L198.43 351.97 Z" class="st5"/>
			<text x="53.19" y="365.9" class="st4">Interaction Model</text>		</g>
		<g id="shape3312-16" transform="translate(156.906,-140.89)">
			<title>Sheet.3312</title>
			<desc>Action Framing</desc>
			<path d="M198.43 351.97 L0 351.97 L0 370.82 L198.43 370.82 L198.43 351.97 Z" class="st5"/>
			<text x="58.86" y="365.9" class="st4">Action Framing</text>		</g>
		<g id="shape3313-19" transform="translate(156.906,-115.661)">
			<title>Sheet.3313</title>
			<desc>Security</desc>
			<path d="M198.43 351.97 L0 351.97 L0 370.82 L198.43 370.82 L198.43 351.97 Z" class="st5"/>
			<text x="77.54" y="365.9" class="st4">Security</text>		</g>
		<g id="shape3314-22" transform="translate(156.906,-90.4324)">
			<title>Sheet.3314</title>
			<desc>Message Framing and Routing</desc>
			<path d="M198.43 351.97 L0 351.97 L0 370.82 L198.43 370.82 L198.43 351.97 Z" class="st5"/>
			<text x="17.17" y="365.9" class="st4">Message Framing and Routing</text>		</g>
		<g id="shape3337-25" transform="translate(72.7011,-88.874)">
			<title>Sheet.3337</title>
			<desc>Session</desc>
			<path d="M0 314.13 L0 370.82 L73.86 370.82 L73.86 314.13 L0 314.13 L0 314.13 Z" class="st1"/>
			<text x="8.5" y="345.48" class="st2">Session</text>		</g>
		<g id="shape3338-28" transform="translate(72.7011,-149.819)">
			<title>Sheet.3338</title>
			<desc>Presentation</desc>
			<path d="M0 318.38 L0 370.82 L73.86 370.82 L73.86 318.38 L0 318.38 L0 318.38 Z" class="st1"/>
			<text x="8.5" y="347.6" class="st2">Presentation</text>		</g>
		<g id="shape3339-31" transform="translate(72.7011,-206.512)">
			<title>Sheet.3339</title>
			<desc>Application</desc>
			<path d="M0 318.38 L0 370.82 L73.86 370.82 L73.86 318.38 L0 318.38 L0 318.38 Z" class="st1"/>
			<text x="8.5" y="347.6" class="st2">Application</text>		</g>
		<g id="shape3341-34" transform="translate(72.7011,-1)">
			<title>Sheet.3341</title>
			<desc>Network</desc>
			<path d="M0 336.84 L0 370.82 L289.72 370.82 L289.72 336.84 L0 336.84 L0 336.84 Z" class="st1"/>
			<text x="8.5" y="356.83" class="st2">Network</text>		</g>
		<g id="shape3342-37" transform="translate(142.732,-37.8504)">
			<title>Sheet.3342</title>
			<path d="M0 324.62 L0 370.82 L151.65 370.82 L151.65 324.62 L0 324.62 L0 324.62 Z" class="st1"/>
		</g>
		<g id="shape3345-39" transform="translate(227.85,-62.2287)">
			<title>Sheet.3345</title>
			<path d="M76.46 348.71 L0 348.71 L0 370.82 L76.46 370.82 L76.46 348.71 Z" class="st3"/>
		</g>
		<g id="shape3343-41" transform="translate(233.937,-65.2038)">
			<title>Sheet.3343</title>
			<desc>MRP</desc>
			<path d="M57.53 351.97 L0 351.97 L0 370.82 L57.53 370.82 L57.53 351.97 Z" class="st6"/>
			<text x="15.43" y="364.4" class="st7">MRP</text>		</g>
		<g id="shape3344-44" transform="translate(297.802,-42.1095)">
			<title>Sheet.3344</title>
			<desc>BTP</desc>
			<path d="M57.53 328.88 L0 328.88 L0 370.82 L57.53 370.82 L57.53 328.88 Z" class="st6"/>
			<text x="17.1" y="354.35" class="st8">BTP</text>		</g>
		<g id="shape3348-47" transform="translate(1,-273.126)">
			<title>Nordic Light Grey</title>
			<rect x="0" y="274.126" width="127.378" height="96.698" class="st9"/>
		</g>
		<g id="group3349-49" transform="translate(5.8114,-346.648)">
			<title>Sheet.3349</title>
			<g id="shape3350-50">
				<title>Sheet.3350</title>
				<rect x="0" y="352.818" width="28.1738" height="18.0063" class="st10"/>
			</g>
			<g id="shape3351-52" transform="translate(34.6999,-0.862791)">
				<title>Sheet.3351</title>
				<desc>Matter stack</desc>
				<rect x="0" y="354.543" width="83.0556" height="16.2807" class="st11"/>
				<text x="4" y="365.08" class="st12">Matter stack</text>			</g>
		</g>
		<g id="group3352-55" transform="translate(5.8114,-300.375)">
			<title>Sheet.3352</title>
			<g id="shape3353-56">
				<title>Sheet.3353</title>
				<rect x="0" y="352.818" width="28.1738" height="18.0063" class="st6"/>
			</g>
			<g id="shape3354-58" transform="translate(34.6999,-0.862791)">
				<title>Sheet.3354</title>
				<desc>Components</desc>
				<rect x="0" y="354.543" width="83.0556" height="16.2807" class="st11"/>
				<text x="4" y="365.08" class="st12">Components</text>			</g>
		</g>
		<g id="group3355-61" transform="translate(5.8114,-323.471)">
			<title>Sheet.3355</title>
			<g id="shape3356-62">
				<title>Sheet.3356</title>
				<rect x="0" y="352.818" width="28.1738" height="18.0063" class="st13"/>
			</g>
			<g id="shape3357-64" transform="translate(34.6999,-0.862791)">
				<title>Sheet.3357</title>
				<desc>Stack layers</desc>
				<rect x="0" y="354.543" width="83.0556" height="16.2807" class="st11"/>
				<text x="4" y="365.08" class="st12">Stack layers</text>			</g>
		</g>
		<g id="group3358-67" transform="translate(5.8114,-277.698)">
			<title>Sheet.3358</title>
			<g id="shape3359-68">
				<title>Sheet.3359</title>
				<rect x="0" y="352.818" width="28.1738" height="18.0063" class="st1"/>
			</g>
			<g id="shape3360-70" transform="translate(34.6999,-0.862791)">
				<title>Sheet.3360</title>
				<desc>OSI/ISO stack layers</desc>
				<rect x="0" y="354.543" width="83.0556" height="16.2807" class="st11"/>
				<text x="4" y="365.08" class="st12">OSI/ISO stack layers</text>			</g>
		</g>
		<g id="shape3362-73" transform="translate(146.559,-42.1095)">
			<title>Sheet.3362</title>
			<desc>TCP</desc>
			<path d="M76.46 331.73 L0 331.73 L0 370.82 L76.46 370.82 L76.46 331.73 Z" class="st6"/>
			<text x="26.23" y="354.88" class="st8">TCP</text>		</g>
		<g id="shape3363-76" transform="translate(233.937,-42.1095)">
			<title>Sheet.3363</title>
			<desc>UDP</desc>
			<path d="M57.53 353.83 L0 353.83 L0 370.82 L57.53 370.82 L57.53 353.83 Z" class="st6"/>
			<text x="16.1" y="366.83" class="st8">UDP</text>		</g>
		<g id="shape3364-79" transform="translate(743.163,134.548) rotate(90)">
			<title>Sheet.3364</title>
			<path d="M0 370.82 L214.06 370.82" class="st14"/>
		</g>
		<g id="shape3365-85" transform="translate(30.428,355.651) rotate(-90)">
			<title>Sheet.3365</title>
			<path d="M0 370.82 L214.06 370.82" class="st14"/>
		</g>
		<g id="shape3367-90" transform="translate(372.339,-214.59)">
			<title>Sheet.3367</title>
			<desc>TX</desc>
			<rect x="0" y="351.973" width="14.1732" height="18.8506" class="st11"/>
			<text x="4" y="357.8" class="st4">T<tspan x="4" dy="1.2em" class="st16">X</tspan></text>		</g>
		<g id="shape3369-94" transform="translate(383.11,-16.732)">
			<title>Sheet.3369</title>
			<desc>RX</desc>
			<rect x="0" y="351.973" width="18.1417" height="18.8506" class="st11"/>
			<text x="4.74" y="357.8" class="st4">R<tspan x="5.07" dy="1.2em" class="st16">X</tspan></text>		</g>
		<g id="shape3370-98" transform="translate(362.417,-241.945)">
			<title>Sheet.3370</title>
			<desc>Payload</desc>
			<rect x="0" y="351.973" width="52.4409" height="18.8506" class="st11"/>
			<text x="4.54" y="365" class="st4">Payload</text>		</g>
	</g>
</svg>
