<?xml version="1.0" encoding="UTF-8" standalone="no"?>
<!DOCTYPE svg PUBLIC "-//W3C//DTD SVG 1.1//EN" "http://www.w3.org/Graphics/SVG/1.1/DTD/svg11.dtd">
<!-- Generated by Microsoft Visio, SVG Export ml_app_architecture.svg Page-1 -->
<svg xmlns="http://www.w3.org/2000/svg" xmlns:xlink="http://www.w3.org/1999/xlink" xmlns:ev="http://www.w3.org/2001/xml-events"
		xmlns:v="http://schemas.microsoft.com/visio/2003/SVGExtensions/" width="7.29734in" height="6.60691in"
		viewBox="0 0 525.409 475.698" xml:space="preserve" color-interpolation-filters="sRGB" class="st16">
	<v:documentProperties v:langID="1035" v:viewMarkup="false"/>

	<style type="text/css">
	<![CDATA[
		.st1 {fill:#d9e1e2;stroke:none;stroke-width:1}
		.st2 {fill:#00a9ce;stroke:none;stroke-width:1}
		.st3 {fill:#ffffff;font-family:Arial;font-size:0.75em}
		.st4 {font-size:1em}
		.st5 {fill:#0033a0;stroke:none;stroke-width:1}
		.st6 {fill:#ffffff;font-family:Arial;font-size:0.916672em}
		.st7 {marker-end:url(#mrkr13-36);marker-start:url(#mrkr13-34);stroke:#333f48;stroke-linecap:butt;stroke-width:1}
		.st8 {fill:#333f48;fill-opacity:1;stroke:#333f48;stroke-opacity:1;stroke-width:0.28409090909091}
		.st9 {fill:#333f48;stroke:none;stroke-width:1}
		.st10 {fill:#768692;stroke:none;stroke-width:1}
		.st11 {fill:none;stroke:#768692;stroke-width:1}
		.st12 {fill:none;stroke:none;stroke-width:1}
		.st13 {fill:#333f48;font-family:Arial;font-size:0.833336em}
		.st14 {fill:none;stroke:#768692;stroke-dasharray:7,5;stroke-width:1}
		.st15 {fill:#768692;font-family:Arial;font-size:0.833336em}
		.st16 {fill:none;fill-rule:evenodd;font-size:12px;overflow:visible;stroke-linecap:square;stroke-miterlimit:3}
	]]>
	</style>

	<defs id="Markers">
		<g id="lend13">
			<path d="M 3 1 L 0 0 L 3 -1 L 3 1 " style="stroke:none"/>
		</g>
		<marker id="mrkr13-34" class="st8" v:arrowType="13" v:arrowSize="2" v:setback="10.2" refX="10.2" orient="auto"
				markerUnits="strokeWidth" overflow="visible">
			<use xlink:href="#lend13" transform="scale(3.52) "/>
		</marker>
		<marker id="mrkr13-36" class="st8" v:arrowType="13" v:arrowSize="2" v:setback="10.56" refX="-10.56" orient="auto"
				markerUnits="strokeWidth" overflow="visible">
			<use xlink:href="#lend13" transform="scale(-3.52,-3.52) "/>
		</marker>
	</defs>
	<g v:mID="0" v:index="1" v:groupContext="foregroundPage">
		<title>Page-1</title>
		<v:pageProperties v:drawingScale="0.0393701" v:pageScale="0.0393701" v:drawingUnits="24" v:shadowOffsetX="8.50394"
				v:shadowOffsetY="-8.50394"/>
		<v:layer v:name="Connector" v:index="0"/>
		<g id="shape99-1" v:mID="99" v:groupContext="shape" transform="translate(161.539,-400.215)">
			<title>Sheet.99</title>
			<rect x="0" y="401.215" width="316.28" height="74.4828" class="st1"/>
		</g>
		<g id="shape100-3" v:mID="100" v:groupContext="shape" transform="translate(6.53611,-119.798)">
			<title>Nordic Blue</title>
			<desc>Sensor simulation control</desc>
			<v:textBlock v:margins="rect(4,4,4,4)"/>
			<v:textRect cx="42.2492" cy="462.233" width="84.5" height="26.9291"/>
			<rect x="0" y="448.769" width="84.4984" height="26.9291" class="st2"/>
			<text x="6.48" y="459.53" class="st3" v:langID="1033"><v:paragraph v:horizAlign="1" v:bulletSize="0.166667"/><v:tabList/>Sensor simulation <tspan
						x="28.74" dy="1.2em" class="st4">control</tspan></text>		</g>
		<g id="shape101-7" v:mID="101" v:groupContext="shape" transform="translate(158.704,-119.798)">
			<title>Nordic Blue.136</title>
			<desc>CAF LEDs</desc>
			<v:textBlock v:margins="rect(4,4,4,4)"/>
			<v:textRect cx="21.1884" cy="462.233" width="42.38" height="26.9291"/>
			<rect x="0" y="448.769" width="42.3769" height="26.9291" class="st2"/>
			<text x="12.19" y="459.53" class="st3" v:langID="1044"><v:paragraph v:horizAlign="1" v:bulletSize="0.166667"/><v:tabList/>CAF <tspan
						x="10.18" dy="1.2em" class="st4" v:langID="1033">LEDs</tspan></text>		</g>
		<g id="shape102-11" v:mID="102" v:groupContext="shape" transform="translate(38.4462,-285.558)">
			<title>Nordic Blue.137</title>
			<desc>LED state</desc>
			<v:textBlock v:margins="rect(4,4,4,4)"/>
			<v:textRect cx="25.5295" cy="462.233" width="51.06" height="26.9291"/>
			<rect x="0" y="448.769" width="51.059" height="26.9291" class="st2"/>
			<text x="5.77" y="464.93" class="st3" v:langID="1033"><v:paragraph v:horizAlign="1" v:bulletSize="0.166667"/><v:tabList/>LED state</text>		</g>
		<g id="shape103-14" v:mID="103" v:groupContext="shape" transform="translate(100.67,-285.558)">
			<title>Nordic Blue.138</title>
			<desc>ML state</desc>
			<v:textBlock v:margins="rect(4,4,4,4)"/>
			<v:textRect cx="23.9864" cy="462.233" width="47.98" height="26.9291"/>
			<rect x="0" y="448.769" width="47.9727" height="26.9291" class="st2"/>
			<text x="6.73" y="464.93" class="st3" v:langID="1033"><v:paragraph v:horizAlign="1" v:bulletSize="0.166667"/><v:tabList/>ML state</text>		</g>
		<g id="shape104-17" v:mID="104" v:groupContext="shape" transform="translate(270.524,-119.798)">
			<title>Nordic Blue.139</title>
			<desc>CAF Click detector</desc>
			<v:textBlock v:margins="rect(4,4,4,4)"/>
			<v:textRect cx="30.7357" cy="462.233" width="61.48" height="26.9291"/>
			<rect x="0" y="448.769" width="61.4714" height="26.9291" class="st2"/>
			<text x="10.74" y="459.53" class="st3" v:langID="1044"><v:paragraph v:horizAlign="1" v:bulletSize="0.166667"/><v:tabList/>CAF <tspan
						class="st4" v:langID="1033">Click </tspan><tspan x="14.48" dy="1.2em" class="st4" v:langID="1033">detector</tspan></text>		</g>
		<g id="shape105-22" v:mID="105" v:groupContext="shape" transform="translate(99.1587,-119.798)">
			<title>Nordic Blue.141</title>
			<desc>ML runner</desc>
			<v:textBlock v:margins="rect(4,4,4,4)"/>
			<v:textRect cx="25.5295" cy="462.233" width="51.06" height="26.9291"/>
			<rect x="0" y="448.769" width="51.059" height="26.9291" class="st2"/>
			<text x="5.02" y="464.93" class="st3" v:langID="1033"><v:paragraph v:horizAlign="1" v:bulletSize="0.166667"/><v:tabList/>ML runner</text>		</g>
		<g id="shape106-25" v:mID="106" v:groupContext="shape" transform="translate(159.808,-189.14)">
			<title>Nordic Blueslate.142</title>
			<desc>Event manager</desc>
			<v:textBlock v:margins="rect(4,4,4,4)"/>
			<v:textRect cx="68.0315" cy="448.378" width="136.07" height="54.6402"/>
			<rect x="0" y="421.057" width="136.063" height="54.6402" class="st5"/>
			<text x="30.73" y="451.68" class="st6" v:langID="1033"><v:paragraph v:horizAlign="1" v:bulletSize="0.166667"/><v:tabList/>Event manager</text>		</g>
		<g id="shape107-28" v:mID="107" v:groupContext="shape" v:layerMember="0" transform="translate(301.26,-146.727)">
			<title>Dynamic connector.145</title>
			<path d="M0 465.5 L0 465.14 L0 455.6 L-73.42 455.6 L-73.42 443.84" class="st7"/>
		</g>
		<g id="shape108-37" v:mID="108" v:groupContext="shape" v:layerMember="0" transform="translate(179.892,-146.727)">
			<title>Dynamic connector.150</title>
			<path d="M0 465.5 L0 465.14 L0 455.6 L47.95 455.6 L47.95 443.84" class="st7"/>
		</g>
		<g id="shape109-44" v:mID="109" v:groupContext="shape" v:layerMember="0" transform="translate(124.688,-146.727)">
			<title>Dynamic connector.151</title>
			<path d="M0 465.5 L0 465.14 L0 455.6 L103.15 455.6 L103.15 443.84" class="st7"/>
		</g>
		<g id="shape110-51" v:mID="110" v:groupContext="shape" v:layerMember="0" transform="translate(48.7853,-146.727)">
			<title>Dynamic connector.152</title>
			<path d="M0 465.5 L0 465.14 L0 455.6 L179.05 455.6 L179.05 443.84" class="st7"/>
		</g>
		<g id="shape111-58" v:mID="111" v:groupContext="shape" transform="translate(82.9419,-1)">
			<title>Nordic Middle Grey.154</title>
			<desc>Edge Impulse C++ library</desc>
			<v:textBlock v:margins="rect(4,4,4,4)"/>
			<v:textRect cx="38.8283" cy="457.702" width="77.66" height="35.991"/>
			<rect x="0" y="439.707" width="77.6565" height="35.991" class="st9"/>
			<text x="5.2" y="454.4" class="st6" v:langID="1033"><v:paragraph v:horizAlign="1" v:bulletSize="0.166667"/><v:tabList/>Edge Impulse <tspan
						x="11.93" dy="1.2em" class="st4">C++ library</tspan></text>		</g>
		<g id="shape112-62" v:mID="112" v:groupContext="shape" transform="translate(91.0345,-63.9201)">
			<title>Nordic Middle Grey.155</title>
			<desc>EI wrapper</desc>
			<v:textBlock v:margins="rect(4,4,4,4)"/>
			<v:textRect cx="30.7357" cy="462.233" width="61.48" height="26.9291"/>
			<rect x="0" y="448.769" width="61.4714" height="26.9291" class="st2"/>
			<text x="8.98" y="464.93" class="st3" v:langID="1033"><v:paragraph v:horizAlign="1" v:bulletSize="0.166667"/><v:tabList/>EI wrapper</text>		</g>
		<g id="shape113-65" v:mID="113" v:groupContext="shape" transform="translate(211.807,-119.798)">
			<title>Nordic Blue.160</title>
			<desc>CAF Buttons</desc>
			<v:textBlock v:margins="rect(4,4,4,4)"/>
			<v:textRect cx="25.5295" cy="462.233" width="51.06" height="26.9291"/>
			<rect x="0" y="448.769" width="51.059" height="26.9291" class="st2"/>
			<text x="16.53" y="459.53" class="st3" v:langID="1044"><v:paragraph v:horizAlign="1" v:bulletSize="0.166667"/><v:tabList/>CAF <tspan
						x="10.27" dy="1.2em" class="st4" v:langID="1033">Buttons</tspan></text>		</g>
		<g id="shape114-69" v:mID="114" v:groupContext="shape" transform="translate(338.375,-117.165)">
			<title>Nordic Blue.114</title>
			<desc>CAF Sensor manager</desc>
			<v:textBlock v:margins="rect(4,4,4,4)"/>
			<v:textRect cx="30.7357" cy="460.917" width="61.48" height="29.5616"/>
			<rect x="0" y="446.136" width="61.4714" height="29.5616" class="st2"/>
			<text x="6.23" y="458.22" class="st3" v:langID="1044"><v:paragraph v:horizAlign="1" v:bulletSize="0.166667"/><v:tabList/>CAF <tspan
						class="st4" v:langID="1033">Sensor </tspan><tspan x="12.98" dy="1.2em" class="st4" v:langID="1033">manager</tspan></text>		</g>
		<g id="shape115-74" v:mID="115" v:groupContext="shape" v:layerMember="0" transform="translate(239.674,-146.727)">
			<title>Dynamic connector.81</title>
			<path d="M-2.34 465.5 L-2.34 465.14 L-2.34 455.6 L-11.83 455.6 L-11.83 443.84" class="st7"/>
		</g>
		<g id="shape116-81" v:mID="116" v:groupContext="shape" transform="translate(211.807,-63.9201)">
			<title>Nordic Blue.186</title>
			<desc>GPIO driver</desc>
			<v:textBlock v:margins="rect(4,4,4,4)"/>
			<v:textRect cx="25.5295" cy="462.233" width="51.06" height="26.9291"/>
			<rect x="0" y="448.769" width="51.059" height="26.9291" class="st10"/>
			<text x="14.28" y="459.53" class="st3" v:langID="1035"><v:paragraph v:horizAlign="1" v:bulletSize="0.166667"/><v:tabList/>GPIO <tspan
						x="14.28" dy="1.2em" class="st4">driver</tspan></text>		</g>
		<g id="shape117-85" v:mID="117" v:groupContext="shape" transform="translate(159.808,-286.194)">
			<title>Nordic Blue.198</title>
			<desc>EI data forwarder</desc>
			<v:textBlock v:margins="rect(4,4,4,4)"/>
			<v:textRect cx="25.5295" cy="462.233" width="51.06" height="26.9291"/>
			<rect x="0" y="448.769" width="51.059" height="26.9291" class="st2"/>
			<text x="11.27" y="459.53" class="st3" v:langID="1033"><v:paragraph v:horizAlign="1" v:bulletSize="0.166667"/><v:tabList/>EI data <tspan
						x="6.52" dy="1.2em" class="st4">forwarder</tspan></text>		</g>
		<g id="shape118-89" v:mID="118" v:groupContext="shape" transform="translate(371.821,-286.194)">
			<title>Nordic Blue.199</title>
			<desc>CAF State</desc>
			<v:textBlock v:margins="rect(4,4,4,4)"/>
			<v:textRect cx="28.0251" cy="462.233" width="56.06" height="26.9291"/>
			<rect x="0" y="448.769" width="56.0503" height="26.9291" class="st2"/>
			<text x="7.27" y="464.93" class="st3" v:langID="1044"><v:paragraph v:horizAlign="1" v:bulletSize="0.166667"/><v:tabList/>CAF State</text>		</g>
		<g id="shape119-92" v:mID="119" v:groupContext="shape" transform="translate(301.26,-286.194)">
			<title>Nordic Blue.200</title>
			<desc>CAF advertising</desc>
			<v:textBlock v:margins="rect(4,4,4,4)"/>
			<v:textRect cx="32.8557" cy="462.233" width="65.72" height="26.9291"/>
			<rect x="0" y="448.769" width="65.7113" height="26.9291" class="st2"/>
			<text x="23.86" y="459.53" class="st3" v:langID="1044"><v:paragraph v:horizAlign="1" v:bulletSize="0.166667"/><v:tabList/>CAF<tspan
						class="st4" v:langID="1033"> </tspan><tspan x="11.09" dy="1.2em" class="st4">advertising</tspan></text>		</g>
		<g id="shape120-97" v:mID="120" v:groupContext="shape" transform="translate(152.482,-342.887)">
			<title>Nordic Blue.201</title>
			<desc>UART driver</desc>
			<v:textBlock v:margins="rect(4,4,4,4)"/>
			<v:textRect cx="32.8557" cy="462.233" width="65.72" height="26.9291"/>
			<rect x="0" y="448.769" width="65.7113" height="26.9291" class="st10"/>
			<text x="17.88" y="458.93" class="st6" v:langID="1033"><v:paragraph v:horizAlign="1" v:bulletSize="0.166667"/><v:tabList/>UART <tspan
						x="19.1" dy="1.2em" class="st4">driver</tspan></text>		</g>
		<g id="shape121-101" v:mID="121" v:groupContext="shape" transform="translate(232.405,-342.887)">
			<title>Nordic Blue.202</title>
			<desc>NUS</desc>
			<v:textBlock v:margins="rect(4,4,4,4)"/>
			<v:textRect cx="25.5295" cy="462.233" width="51.06" height="26.9291"/>
			<rect x="0" y="448.769" width="51.059" height="26.9291" class="st2"/>
			<text x="13.92" y="465.53" class="st6" v:langID="1033"><v:paragraph v:horizAlign="1" v:bulletSize="0.166667"/><v:tabList/>NUS</text>		</g>
		<g id="shape122-104" v:mID="122" v:groupContext="shape" transform="translate(170.043,-430.832)">
			<title>Nordic Blue.203</title>
			<desc>Nordic proprietary Bluetooth® LE Link layer</desc>
			<v:textBlock v:margins="rect(4,4,4,4)"/>
			<v:textRect cx="73.5566" cy="457.343" width="147.12" height="36.7084"/>
			<rect x="0" y="438.989" width="147.113" height="36.7084" class="st2"/>
			<text x="29.85" y="454.04" class="st6" v:langID="1033"><v:paragraph v:horizAlign="1" v:bulletSize="0.166667"/><v:tabList/>Nordic proprietary <tspan
						x="12.94" dy="1.2em" class="st4">Bluetooth® LE Link layer</tspan></text>		</g>
		<g id="shape123-108" v:mID="123" v:groupContext="shape" transform="translate(323.113,-430.832)">
			<title>Nordic Blue.205</title>
			<desc>Zephyr SW Bluetooth® LE Link layer</desc>
			<v:textBlock v:margins="rect(4,4,4,4)"/>
			<v:textRect cx="73.5566" cy="457.343" width="147.12" height="36.7084"/>
			<rect x="0" y="438.989" width="147.113" height="36.7084" class="st10"/>
			<text x="46.05" y="454.04" class="st6" v:langID="1033"><v:paragraph v:horizAlign="1" v:bulletSize="0.166667"/><v:tabList/>Zephyr SW<v:newlineChar/><tspan
						x="12.94" dy="1.2em" class="st4">Bluetooth® LE Link layer</tspan></text>		</g>
		<g id="shape124-112" v:mID="124" v:groupContext="shape" transform="translate(170.043,-408.124)">
			<title>Nordic Blue.206</title>
			<desc>Host layer</desc>
			<v:textBlock v:margins="rect(4,4,4,4)"/>
			<v:textRect cx="150.092" cy="466.521" width="300.19" height="18.3542"/>
			<rect x="0" y="457.344" width="300.184" height="18.3542" class="st10"/>
			<text x="125.33" y="469.82" class="st6" v:langID="1033"><v:paragraph v:horizAlign="1" v:bulletSize="0.166667"/><v:tabList/>Host layer</text>		</g>
		<g id="shape125-115" v:mID="125" v:groupContext="shape" transform="translate(18.0496,-63.9201)">
			<title>Nordic Middle Grey.209</title>
			<desc>Sensor simulator</desc>
			<v:textBlock v:margins="rect(4,4,4,4)"/>
			<v:textRect cx="30.7357" cy="462.233" width="61.48" height="26.9291"/>
			<rect x="0" y="448.769" width="61.4714" height="26.9291" class="st2"/>
			<text x="16.48" y="459.53" class="st3" v:langID="1033"><v:paragraph v:horizAlign="1" v:bulletSize="0.166667"/><v:tabList/>Sensor <tspan
						x="12.48" dy="1.2em" class="st4">simulator</tspan></text>		</g>
		<g id="shape126-119" v:mID="126" v:groupContext="shape" transform="translate(158.704,-63.9201)">
			<title>Nordic Middle Grey.210</title>
			<desc>LED driver</desc>
			<v:textBlock v:margins="rect(4,4,4,4)"/>
			<v:textRect cx="21.1884" cy="462.233" width="42.38" height="26.9291"/>
			<rect x="0" y="448.769" width="42.3769" height="26.9291" class="st10"/>
			<text x="12.43" y="459.53" class="st3" v:langID="1035"><v:paragraph v:horizAlign="1" v:bulletSize="0.166667"/><v:tabList/>LED <tspan
						x="9.94" dy="1.2em" class="st4">driver</tspan></text>		</g>
		<g id="shape127-123" v:mID="127" v:groupContext="shape" transform="translate(338.375,-63.9201)">
			<title>Nordic Blue.212</title>
			<desc>Sensor driver</desc>
			<v:textBlock v:margins="rect(4,4,4,4)"/>
			<v:textRect cx="30.7357" cy="462.233" width="61.48" height="26.9291"/>
			<rect x="0" y="448.769" width="61.4714" height="26.9291" class="st10"/>
			<text x="16.48" y="459.53" class="st3" v:langID="1033"><v:paragraph v:horizAlign="1" v:bulletSize="0.166667"/><v:tabList/>Sensor <tspan
						x="19.48" dy="1.2em" class="st4">driver</tspan></text>		</g>
		<g id="shape128-127" v:mID="128" v:groupContext="shape" v:layerMember="0" transform="translate(210.867,-299.658)">
			<title>Dynamic connector.96</title>
			<path d="M10.2 475.7 L10.56 475.7 L47.07 475.7 L47.07 443.03" class="st7"/>
		</g>
		<g id="shape129-134" v:mID="129" v:groupContext="shape" v:layerMember="0" transform="translate(124.657,-285.558)">
			<title>Dynamic connector.217</title>
			<path d="M0 485.9 L0 486.26 L0 494.07 L103.18 494.07 L103.18 506.92" class="st7"/>
		</g>
		<g id="shape130-141" v:mID="130" v:groupContext="shape" v:layerMember="0" transform="translate(63.9756,-285.558)">
			<title>Dynamic connector.218</title>
			<path d="M0 485.9 L0 486.26 L0 494.71 L163.86 494.71 L163.86 506.92" class="st7"/>
		</g>
		<g id="shape131-148" v:mID="131" v:groupContext="shape" v:layerMember="0" transform="translate(334.115,-286.194)">
			<title>Dynamic connector.219</title>
			<path d="M0 485.9 L0 486.26 L0 494.71 L-106.28 494.71 L-106.28 507.55" class="st7"/>
		</g>
		<g id="shape132-155" v:mID="132" v:groupContext="shape" v:layerMember="0" transform="translate(399.846,-286.194)">
			<title>Dynamic connector.220</title>
			<path d="M0 485.9 L0 486.26 L0 494.71 L-172.01 494.71 L-172.01 507.55" class="st7"/>
		</g>
		<g id="shape133-162" v:mID="133" v:groupContext="shape" v:layerMember="0" transform="translate(369.11,-146.727)">
			<title>Dynamic connector.221</title>
			<path d="M0 465.5 L0 465.14 L0 455.6 L-141.27 455.6 L-141.27 443.84" class="st7"/>
		</g>
		<g id="shape134-169" v:mID="134" v:groupContext="shape" v:layerMember="0" transform="translate(362.024,-90.8493)">
			<title>Dynamic connector.222</title>
			<path d="M7.09 465.5 L7.09 465.14 L7.09 459.94" class="st7"/>
		</g>
		<g id="shape135-176" v:mID="135" v:groupContext="shape" v:layerMember="0" transform="translate(230.25,-90.8493)">
			<title>Dynamic connector.223</title>
			<path d="M7.09 465.5 L7.09 465.14 L7.09 457.31" class="st7"/>
		</g>
		<g id="shape137-183" v:mID="137" v:groupContext="shape" v:layerMember="0" transform="translate(41.6987,-90.8493)">
			<title>Dynamic connector.226</title>
			<path d="M7.09 465.5 L7.09 465.14 L7.09 457.31" class="st7"/>
		</g>
		<g id="shape138-190" v:mID="138" v:groupContext="shape" v:layerMember="0" transform="translate(114.684,-36.991)">
			<title>Dynamic connector.227</title>
			<path d="M7.09 465.5 L7.09 465.14 L7.09 459.33" class="st7"/>
		</g>
		<g id="shape140-197" v:mID="140" v:groupContext="shape" v:layerMember="0" transform="translate(185.337,-286.194)">
			<title>Dynamic connector.113</title>
			<path d="M0 485.9 L0 486.26 L0 494.71 L42.5 494.71 L42.5 507.55" class="st7"/>
		</g>
		<g id="group141-204" transform="translate(1,-407.49)" v:mID="141" v:groupContext="group">
			<title>Sheet.141</title>
			<g id="shape142-205" v:mID="142" v:groupContext="shape">
				<title>Nordic Light Grey.2333</title>
				<rect x="0" y="408.8" width="80.4521" height="66.8976" class="st11"/>
			</g>
			<g id="shape143-207" v:mID="143" v:groupContext="shape" transform="translate(4.89191,-44.3524)">
				<title>Nordic Blue.1617</title>
				<rect x="0" y="459.992" width="15.4576" height="15.7058" class="st2"/>
			</g>
			<g id="shape144-209" v:mID="144" v:groupContext="shape" transform="translate(20.3495,-44.3524)">
				<title>Sheet.144</title>
				<desc>NCS</desc>
				<v:textBlock v:margins="rect(4,4,4,4)" v:tabSpace="42.5197"/>
				<v:textRect cx="27.175" cy="467.845" width="54.35" height="15.7058"/>
				<rect x="0" y="459.992" width="54.3499" height="15.7058" class="st12"/>
				<text x="4" y="470.84" class="st13" v:langID="1033"><v:paragraph/><v:tabList/>NCS</text>			</g>
			<g id="shape145-212" v:mID="145" v:groupContext="shape" transform="translate(4.89191,-25.5959)">
				<title>Nordic Blue.1618</title>
				<rect x="0" y="459.992" width="15.4576" height="15.7058" class="st10"/>
			</g>
			<g id="shape146-214" v:mID="146" v:groupContext="shape" transform="translate(20.3495,-25.5959)">
				<title>Sheet.146</title>
				<desc>Zephyr</desc>
				<v:textBlock v:margins="rect(4,4,4,4)" v:tabSpace="42.5197"/>
				<v:textRect cx="27.175" cy="467.845" width="54.35" height="15.7058"/>
				<rect x="0" y="459.992" width="54.3499" height="15.7058" class="st12"/>
				<text x="4" y="470.84" class="st13" v:langID="1033"><v:paragraph/><v:tabList/>Zephyr</text>			</g>
			<g id="shape147-217" v:mID="147" v:groupContext="shape" transform="translate(4.89191,-6.83943)">
				<title>Nordic Blue.2341</title>
				<rect x="0" y="459.992" width="15.4576" height="15.7058" class="st9"/>
			</g>
			<g id="shape148-219" v:mID="148" v:groupContext="shape" transform="translate(20.3495,-6.83943)">
				<title>Sheet.148</title>
				<desc>Other</desc>
				<v:textBlock v:margins="rect(4,4,4,4)" v:tabSpace="42.5197"/>
				<v:textRect cx="27.175" cy="467.845" width="54.35" height="15.7058"/>
				<rect x="0" y="459.992" width="54.3499" height="15.7058" class="st12"/>
				<text x="4" y="470.84" class="st13" v:langID="1033"><v:paragraph/><v:tabList/>Other</text>			</g>
		</g>
		<g id="shape149-222" v:mID="149" v:groupContext="shape" transform="translate(405.764,-119.798)">
			<title>Nordic Blue.125</title>
			<desc>CAF Power Manager</desc>
			<v:textBlock v:margins="rect(4,4,4,4)"/>
			<v:textRect cx="30.7357" cy="462.233" width="61.48" height="26.9291"/>
			<rect x="0" y="448.769" width="61.4714" height="26.9291" class="st2"/>
			<text x="7.73" y="459.53" class="st3" v:langID="1044"><v:paragraph v:horizAlign="1" v:bulletSize="0.166667"/><v:tabList/>CAF Power <tspan
						x="12.98" dy="1.2em" class="st4">Manager</tspan></text>		</g>
		<g id="shape150-226" v:mID="150" v:groupContext="shape" transform="translate(473.35,-119.798)">
			<title>Nordic Blue.126</title>
			<desc>USB State</desc>
			<v:textBlock v:margins="rect(4,4,4,4)"/>
			<v:textRect cx="25.5295" cy="462.233" width="51.06" height="26.9291"/>
			<rect x="0" y="448.769" width="51.059" height="26.9291" class="st2"/>
			<text x="4.52" y="464.93" class="st3" v:langID="1044"><v:paragraph v:horizAlign="1" v:bulletSize="0.166667"/><v:tabList/>USB State</text>		</g>
		<g id="shape151-229" v:mID="151" v:groupContext="shape" transform="translate(410.97,-63.9201)">
			<title>Nordic Blue.2193</title>
			<desc>OS power mgmt</desc>
			<v:textBlock v:margins="rect(4,4,4,4)"/>
			<v:textRect cx="25.5295" cy="462.233" width="51.06" height="26.9291"/>
			<rect x="0" y="448.769" width="51.059" height="26.9291" class="st10"/>
			<text x="5.52" y="459.53" class="st3" v:langID="1033"><v:paragraph v:horizAlign="1" v:bulletSize="0.166667"/><v:tabList/>OS power <tspan
						x="14.28" dy="1.2em" class="st4">mgmt</tspan></text>		</g>
		<g id="shape152-233" v:mID="152" v:groupContext="shape" transform="translate(481.561,-3.58271)">
			<title>Nordic Blue.2192</title>
			<desc>USB stack</desc>
			<v:textBlock v:margins="rect(4,4,4,4)"/>
			<v:textRect cx="17.1543" cy="458.994" width="34.31" height="33.4083"/>
			<rect x="0" y="442.289" width="34.3085" height="33.4083" class="st10"/>
			<text x="7.9" y="456.29" class="st3" v:langID="1033"><v:paragraph v:horizAlign="1" v:bulletSize="0.166667"/><v:tabList/>USB <tspan
						x="6.65" dy="1.2em" class="st4">stack</tspan></text>		</g>
		<g id="shape153-237" v:mID="153" v:groupContext="shape" transform="translate(481.707,-62.5028)">
			<title>Nordic Blue.2195</title>
			<desc>USB driver</desc>
			<v:textBlock v:margins="rect(4,4,4,4)"/>
			<v:textRect cx="17.1543" cy="461.524" width="34.31" height="28.3465"/>
			<rect x="0" y="447.351" width="34.3085" height="28.3465" class="st10"/>
			<text x="7.9" y="458.82" class="st3" v:langID="1033"><v:paragraph v:horizAlign="1" v:bulletSize="0.166667"/><v:tabList/>USB <tspan
						x="5.9" dy="1.2em" class="st4">driver</tspan></text>		</g>
		<g id="shape154-241" v:mID="154" v:groupContext="shape" v:layerMember="0" transform="translate(491.784,-90.8493)">
			<title>Dynamic connector.134</title>
			<path d="M7.08 465.5 L7.08 465.14 L7.09 457.31" class="st7"/>
		</g>
		<g id="shape155-248" v:mID="155" v:groupContext="shape" v:layerMember="0" transform="translate(114.684,-90.8493)">
			<title>Dynamic connector.135</title>
			<path d="M7.09 465.5 L7.09 465.14 L7.09 457.31" class="st7"/>
		</g>
		<g id="shape156-255" v:mID="156" v:groupContext="shape" v:layerMember="0" transform="translate(491.702,-36.991)">
			<title>Dynamic connector.137</title>
			<path d="M7.07 465.5 L7.07 465.14 L7.1 460.75" class="st7"/>
		</g>
		<g id="shape157-262" v:mID="157" v:groupContext="shape" v:layerMember="0" transform="translate(436.499,-146.727)">
			<title>Dynamic connector</title>
			<path d="M0 465.5 L0 465.14 L0 455.6 L-208.66 455.6 L-208.66 443.84" class="st7"/>
		</g>
		<g id="shape158-269" v:mID="158" v:groupContext="shape" v:layerMember="0" transform="translate(227.839,-189.14)">
			<title>Dynamic connector.139</title>
			<path d="M0 485.9 L0 486.26 L0 498.01 L271.04 498.01 L271.04 507.55" class="st7"/>
		</g>
		<g id="shape159-276" v:mID="159" v:groupContext="shape" v:layerMember="0" transform="translate(429.413,-90.8493)">
			<title>Dynamic connector.158</title>
			<path d="M7.09 465.5 L7.09 465.14 L7.09 457.31" class="st7"/>
		</g>
		<g id="shape160-283" v:mID="160" v:groupContext="shape" v:layerMember="0" transform="translate(178.251,-313.123)">
			<title>Dynamic connector.159</title>
			<path d="M7.09 465.5 L7.09 465.14 L7.09 456.49" class="st7"/>
		</g>
		<g id="shape161-290" v:mID="161" v:groupContext="shape" transform="translate(432.291,-286.194)">
			<title>Nordic Blue.162</title>
			<desc>CAF SMP</desc>
			<v:textBlock v:margins="rect(4,4,4,4)"/>
			<v:textRect cx="23.9864" cy="462.233" width="47.98" height="26.9291"/>
			<rect x="0" y="448.769" width="47.9727" height="26.9291" class="st2"/>
			<text x="14.99" y="459.53" class="st3" v:langID="1044"><v:paragraph v:horizAlign="1" v:bulletSize="0.166667"/><v:tabList/>CAF <tspan
						x="14.23" dy="1.2em" class="st4">SMP</tspan></text>		</g>
		<g id="shape162-294" v:mID="162" v:groupContext="shape" v:layerMember="0" transform="translate(456.278,-286.194)">
			<title>Dynamic connector.163</title>
			<path d="M0 485.9 L0 486.26 L0 494.71 L-228.44 494.71 L-228.44 507.55" class="st7"/>
		</g>
		<g id="shape163-301" v:mID="163" v:groupContext="shape" transform="translate(421.812,-340.052)">
			<title>Nordic Blue.165</title>
			<desc>SMP Bluetooth</desc>
			<v:textBlock v:margins="rect(4,4,4,4)"/>
			<v:textRect cx="32.8557" cy="461.524" width="65.72" height="28.3465"/>
			<rect x="0" y="447.351" width="65.7113" height="28.3465" class="st10"/>
			<text x="20.94" y="458.22" class="st6" v:langID="1044"><v:paragraph v:horizAlign="1" v:bulletSize="0.166667"/><v:tabList/>SMP <tspan
						x="9.61" dy="1.2em" class="st4">Bluetooth</tspan></text>		</g>
		<g id="shape264-305" v:mID="264" v:groupContext="shape" v:layerMember="0" transform="translate(448.386,-340.052)">
			<title>Dynamic connector.264</title>
			<path d="M6.89 485.88 L6.91 486.24 L7.26 492.09" class="st7"/>
		</g>
		<g id="shape265-312" v:mID="265" v:groupContext="shape" v:layerMember="0" transform="translate(447.581,-332.965)">
			<title>Dynamic connector.265</title>
		</g>
		<g id="shape267-313" v:mID="267" v:groupContext="shape" v:layerMember="0" transform="translate(446.734,-393.128)">
			<title>Dynamic connector.267</title>
		</g>
		<g id="shape290-314" v:mID="290" v:groupContext="shape" v:layerMember="0" transform="translate(447.648,-368.398)">
			<title>Dynamic connector.290</title>
			<path d="M7.09 465.5 L7.09 465.14 L7.09 454.44" class="st7"/>
		</g>
		<g id="shape297-321" v:mID="297" v:groupContext="shape" v:layerMember="0" transform="translate(250.848,-368.396)">
			<title>Dynamic connector.297</title>
			<path d="M7.09 465.5 L7.09 465.14 L7.09 454.44" class="st7"/>
		</g>
		<g id="shape300-328" v:mID="300" v:groupContext="shape" v:layerMember="0" transform="translate(186.979,-90.8493)">
			<title>Dynamic connector.300</title>
			<path d="M-7.09 465.5 L-7.09 465.14 L-7.09 457.31" class="st7"/>
		</g>
		<g id="shape301-335" v:mID="301" v:groupContext="shape" transform="translate(295.871,-276.521)">
			<title>Nordic Blue.2345</title>
			<path d="M0 475.7 L191.65 475.7 L191.65 429.42 L0 429.42 L0 475.7 Z" class="st14"/>
		</g>
		<g id="shape302-337" v:mID="302" v:groupContext="shape" transform="translate(295.553,-322.112)">
			<title>Sheet.302</title>
			<desc>Bluetooth® LE</desc>
			<v:textBlock v:margins="rect(4,4,4,4)" v:tabSpace="42.5197"/>
			<v:textRect cx="39.2921" cy="467.679" width="78.59" height="16.0377"/>
			<rect x="0" y="459.66" width="78.5842" height="16.0377" class="st12"/>
			<text x="6.97" y="470.68" class="st15" v:langID="1035"><v:paragraph v:horizAlign="1"/><v:tabList/>B<tspan class="st4"
						v:langID="1033">luetooth® </tspan>LE</text>		</g>
		<g id="shape303-341" v:mID="303" v:groupContext="shape" v:layerMember="0" transform="translate(376.972,-322.796)">
			<title>Dynamic connector.303</title>
			<path d="M7.09 465.5 L7.09 465.14 L7.09 408.84" class="st7"/>
		</g>
	</g>
</svg>
