<?xml version="1.0" encoding="UTF-8" standalone="no"?>
<!DOCTYPE svg PUBLIC "-//W3C//DTD SVG 1.1//EN" "http://www.w3.org/Graphics/SVG/1.1/DTD/svg11.dtd">
<!-- Generated by Microsoft Visio, SVG Export ml_app_architecture.svg Drawing -->
<svg xmlns="http://www.w3.org/2000/svg" xmlns:xlink="http://www.w3.org/1999/xlink" xmlns:ev="http://www.w3.org/2001/xml-events"
		width="5.90557in" height="6.6048in" viewBox="0 0 425.201 475.546" xml:space="preserve" color-interpolation-filters="sRGB"
		class="st15">
	<style type="text/css">
	<![CDATA[
		.st1 {fill:#00a9ce;stroke:#feffff;stroke-width:1}
		.st2 {fill:#000000;font-family:Calibri;font-size:1.00001em}
		.st3 {fill:#768692;stroke:#feffff;stroke-width:1}
		.st4 {fill:none;stroke:#333f48;stroke-width:1}
		.st5 {fill:#00a9ce;stroke:none;stroke-width:1}
		.st6 {fill:#ffffff;font-family:Calibri;font-size:1.00001em}
		.st7 {font-size:1em}
		.st8 {fill:#0033a0;stroke:none;stroke-width:1}
		.st9 {marker-end:url(#mrkr13-41);marker-start:url(#mrkr13-39);stroke:#00a9ce;stroke-linecap:butt;stroke-width:1}
		.st10 {fill:#00a9ce;fill-opacity:1;stroke:#00a9ce;stroke-opacity:1;stroke-width:0.28409090909091}
		.st11 {fill:#333f48;stroke:none;stroke-width:1}
		.st12 {fill:#768692;stroke:none;stroke-width:1}
		.st13 {fill:#ffffff;font-family:Calibri;font-size:0.833336em}
		.st14 {fill:none;stroke:#00a9ce;stroke-width:1}
		.st15 {fill:none;fill-rule:evenodd;font-size:12px;overflow:visible;stroke-linecap:square;stroke-miterlimit:3}
	]]>
	</style>

	<defs id="Markers">
		<g id="lend13">
			<path d="M 3 1 L 0 0 L 3 -1 L 3 1 " style="stroke:none"/>
		</g>
		<marker id="mrkr13-39" class="st10" refX="10.2" orient="auto" markerUnits="strokeWidth" overflow="visible">
			<use xlink:href="#lend13" transform="scale(3.52) "/>
		</marker>
		<marker id="mrkr13-41" class="st10" refX="-10.56" orient="auto" markerUnits="strokeWidth" overflow="visible">
			<use xlink:href="#lend13" transform="scale(-3.52,-3.52) "/>
		</marker>
	</defs>
	<g>
		<title>Drawing</title>
		<g id="shape88-1" transform="translate(23.252,-445.695)">
			<title>Box.29</title>
			<desc>NCS</desc>
			<rect x="0" y="469.735" width="25.2284" height="5.81109" class="st1"/>
			<text x="39.49" y="476.24" class="st2">NCS</text>		</g>
		<g id="shape108-4" transform="translate(23.1525,-434.569)">
			<title>Box.31</title>
			<desc>Zephyr</desc>
			<rect x="0" y="469.735" width="25.2284" height="5.81109" class="st3"/>
			<text x="32.46" y="476.24" class="st2">Zephyr</text>		</g>
		<g id="shape131-7" transform="translate(19,-417.617)">
			<title>Box.34</title>
			<rect x="0" y="437.617" width="77.6565" height="37.9284" class="st4"/>
		</g>
		<g id="shape132-9" transform="translate(20,-137.798)">
			<title>Nordic Blue</title>
			<desc>Sensor sim ctrl</desc>
			<rect x="0" y="448.617" width="56.315" height="26.9291" class="st5"/>
			<text x="11.66" y="458.48" class="st6">Sensor <tspan x="10.27" dy="1.2em" class="st7">sim ctrl</tspan></text>		</g>
		<g id="shape136-13" transform="translate(151.898,-137.798)">
			<title>Nordic Blue.136</title>
			<desc>LEDs</desc>
			<rect x="0" y="448.617" width="56.315" height="26.9291" class="st5"/>
			<text x="16.67" y="465.68" class="st6">LEDs</text>		</g>
		<g id="shape137-16" transform="translate(20,-304.194)">
			<title>Nordic Blue.137</title>
			<desc>LED state</desc>
			<rect x="0" y="448.617" width="56.315" height="26.9291" class="st5"/>
			<text x="5.43" y="465.68" class="st6">LED state</text>		</g>
		<g id="shape138-19" transform="translate(85.9489,-304.194)">
			<title>Nordic Blue.138</title>
			<desc>ML state</desc>
			<rect x="0" y="448.617" width="56.315" height="26.9291" class="st5"/>
			<text x="6.92" y="465.68" class="st6">ML state</text>		</g>
		<g id="shape139-22" transform="translate(283.796,-137.798)">
			<title>Nordic Blue.139</title>
			<desc>Click detector</desc>
			<rect x="0" y="448.617" width="56.315" height="26.9291" class="st5"/>
			<text x="16.94" y="458.48" class="st6">Click <tspan x="7.22" dy="1.2em" class="st7">detector</tspan></text>		</g>
		<g id="shape141-26" transform="translate(85.9489,-137.798)">
			<title>Nordic Blue.141</title>
			<desc>ML runner</desc>
			<rect x="0" y="448.617" width="56.315" height="26.9291" class="st5"/>
			<text x="20.51" y="458.48" class="st6">ML <tspan x="11.53" dy="1.2em" class="st7">runner</tspan></text>		</g>
		<g id="shape142-30" transform="translate(144.567,-207.14)">
			<title>Nordic Blueslate.142</title>
			<desc>Event manager</desc>
			<rect x="0" y="420.906" width="136.063" height="54.6402" class="st8"/>
			<text x="31.29" y="451.83" class="st6">Event manager</text>		</g>
		<g id="shape145-33" transform="translate(311.953,-164.727)">
			<title>Dynamic connector.145</title>
			<path d="M0 465.35 L0 464.99 L0 455.44 L-99.35 455.44 L-99.35 443.69" class="st9"/>
		</g>
		<g id="shape150-42" transform="translate(180.055,-164.727)">
			<title>Dynamic connector.150</title>
			<path d="M0 465.35 L0 464.99 L0 455.44 L32.54 455.44 L32.54 443.69" class="st9"/>
		</g>
		<g id="shape151-49" transform="translate(114.106,-164.727)">
			<title>Dynamic connector.151</title>
			<path d="M0 465.35 L0 464.99 L0 455.44 L98.49 455.44 L98.49 443.69" class="st9"/>
		</g>
		<g id="shape152-56" transform="translate(48.1575,-164.727)">
			<title>Dynamic connector.152</title>
			<path d="M0 465.35 L0 464.99 L0 455.44 L164.44 455.44 L164.44 443.69" class="st9"/>
		</g>
		<g id="shape154-63" transform="translate(75.2781,-19)">
			<title>Nordic Middle Grey.154</title>
			<desc>Edge Impulse C++ library</desc>
			<rect x="0" y="439.555" width="77.6565" height="35.991" class="st11"/>
			<text x="6.26" y="453.95" class="st6">Edge Impulse <tspan x="12.62" dy="1.2em" class="st7">C++ library</tspan></text>		</g>
		<g id="shape155-67" transform="translate(85.9489,-81.9201)">
			<title>Nordic Middle Grey.155</title>
			<desc>EI wrapper</desc>
			<rect x="0" y="448.617" width="56.315" height="26.9291" class="st5"/>
			<text x="23.72" y="458.48" class="st6">EI <tspan x="7.52" dy="1.2em" class="st7">wrapper</tspan></text>		</g>
		<g id="shape160-71" transform="translate(217.847,-137.798)">
			<title>Nordic Blue.160</title>
			<desc>Buttons</desc>
			<rect x="0" y="448.617" width="56.315" height="26.9291" class="st5"/>
			<text x="9.06" y="465.68" class="st6">Buttons</text>		</g>
		<g id="shape161-74" transform="translate(349.744,-137.798)">
			<title>Nordic Blue.161</title>
			<desc>Sensor sampler</desc>
			<rect x="0" y="448.617" width="56.315" height="26.9291" class="st5"/>
			<text x="11.66" y="458.48" class="st6">Sensor <tspan x="8.54" dy="1.2em" class="st7">sampler</tspan></text>		</g>
		<g id="shape163-78" transform="translate(246.004,-164.727)">
			<title>Dynamic connector.163</title>
			<path d="M-0 465.35 L-0 464.99 L-0 455.44 L-33.41 455.44 L-33.41 443.69" class="st9"/>
		</g>
		<g id="shape186-85" transform="translate(217.847,-81.9201)">
			<title>Nordic Blue.186</title>
			<desc>GPIO driver</desc>
			<rect x="0" y="448.617" width="56.315" height="26.9291" class="st12"/>
			<text x="15.79" y="458.48" class="st6">GPIO <tspan x="13.75" dy="1.2em" class="st7">driver</tspan></text>		</g>
		<g id="shape196-89" transform="translate(23.252,-423.08)">
			<title>Box.196</title>
			<desc>Other</desc>
			<rect x="0" y="471.311" width="25.2284" height="4.23458" class="st11"/>
			<text x="35.1" y="477.03" class="st2">Other</text>		</g>
		<g id="shape198-92" transform="translate(151.898,-304.194)">
			<title>Nordic Blue.198</title>
			<desc>EI data forwarder</desc>
			<rect x="0" y="448.617" width="56.315" height="26.9291" class="st5"/>
			<text x="14.23" y="459.08" class="st13">EI data <tspan x="7.68" dy="1.2em" class="st7">forwarder</tspan></text>		</g>
		<g id="shape199-96" transform="translate(350.268,-304.194)">
			<title>Nordic Blue.199</title>
			<desc>Bluetooth LE state</desc>
			<rect x="0" y="448.617" width="56.315" height="26.9291" class="st5"/>
			<text x="7.93" y="459.08" class="st13">Bluetooth <tspan x="12.3" dy="1.2em" class="st7">LE state</tspan></text>		</g>
		<g id="shape200-100" transform="translate(283.796,-304.194)">
			<title>Nordic Blue.200</title>
			<desc>Bluetooth LE adv.</desc>
			<rect x="0" y="448.617" width="56.315" height="26.9291" class="st5"/>
			<text x="7.93" y="459.08" class="st13">Bluetooth <tspan x="13.94" dy="1.2em" class="st7">LE adv.</tspan></text>		</g>
		<g id="shape201-104" transform="translate(151.898,-362.126)">
			<title>Nordic Blue.201</title>
			<desc>UART driver</desc>
			<rect x="0" y="448.617" width="56.315" height="26.9291" class="st12"/>
			<text x="14.65" y="458.48" class="st6">UART <tspan x="13.75" dy="1.2em" class="st7">driver</tspan></text>		</g>
		<g id="shape202-108" transform="translate(218.457,-348.661)">
			<title>Nordic Blue.202</title>
			<desc>NUS</desc>
			<rect x="0" y="448.617" width="56.315" height="26.9291" class="st5"/>
			<text x="17.68" y="465.68" class="st6">NUS</text>		</g>
		<g id="shape203-111" transform="translate(143.996,-423.947)">
			<title>Nordic Blue.203</title>
			<desc>Nordic proprietary Bluetooth LE Link Layer</desc>
			<rect x="0" y="448.617" width="126.039" height="26.9291" class="st5"/>
			<text x="25.3" y="459.08" class="st13">Nordic proprietary <tspan x="15.71" dy="1.2em" class="st7">Bluetooth LE Link Layer</tspan></text>		</g>
		<g id="shape205-115" transform="translate(273.256,-423.947)">
			<title>Nordic Blue.205</title>
			<desc>Zephyr SW Bluetooth LE Link Layer</desc>
			<rect x="0" y="448.617" width="126.039" height="26.9291" class="st12"/>
			<text x="36.66" y="458.48" class="st6">Zephyr SW <tspan x="6.25" dy="1.2em" class="st7">Bluetooth LE Link Layer</tspan></text>		</g>
		<g id="shape206-119" transform="translate(143.996,-408.357)">
			<title>Nordic Blue.206</title>
			<desc>Host Layer</desc>
			<rect x="0" y="462.081" width="255.299" height="13.4645" class="st12"/>
			<text x="101.84" y="472.41" class="st6">Host Layer</text>		</g>
		<g id="shape208-122" transform="translate(136.063,-401.906)">
			<title>Sheet.208</title>
			<rect x="0" y="420.906" width="270.138" height="54.6402" class="st14"/>
		</g>
		<g id="shape209-124" transform="translate(20,-81.9201)">
			<title>Nordic Middle Grey.209</title>
			<desc>Sensor sim</desc>
			<rect x="0" y="448.617" width="56.315" height="26.9291" class="st5"/>
			<text x="11.66" y="458.48" class="st6">Sensor <tspan x="19.64" dy="1.2em" class="st7">sim</tspan></text>		</g>
		<g id="shape210-128" transform="translate(151.898,-81.9201)">
			<title>Nordic Middle Grey.210</title>
			<desc>LED driver</desc>
			<rect x="0" y="448.617" width="56.315" height="26.9291" class="st12"/>
			<text x="19.01" y="458.48" class="st6">LED <tspan x="13.75" dy="1.2em" class="st7">driver</tspan></text>		</g>
		<g id="shape212-132" transform="translate(349.744,-81.9201)">
			<title>Nordic Blue.212</title>
			<desc>Sensor driver</desc>
			<rect x="0" y="448.617" width="56.315" height="26.9291" class="st12"/>
			<text x="11.66" y="458.48" class="st6">Sensor <tspan x="13.75" dy="1.2em" class="st7">driver</tspan></text>		</g>
		<g id="shape213-136" transform="translate(208.213,-317.658)">
			<title>Dynamic connector</title>
			<path d="M10.2 475.55 L10.56 475.55 L38.4 475.55 L38.4 455.1" class="st9"/>
		</g>
		<g id="shape214-143" transform="translate(318.969,-331.123)">
			<title>Dynamic connector.214</title>
			<path d="M-7.02 465.35 L-7.02 464.99 L-7.02 456.54 L-7.16 456.54 L-7.16 415.32" class="st9"/>
		</g>
		<g id="shape215-150" transform="translate(371.339,-331.123)">
			<title>Dynamic connector.215</title>
			<path d="M7.09 465.35 L7.09 464.99 L7.09 415.32" class="st9"/>
		</g>
		<g id="shape216-157" transform="translate(212.598,-261.781)">
			<title>Dynamic connector.216</title>
			<path d="M0 465.35 L0 464.99 L0 452.14 L-32.54 452.14 L-32.54 443.69" class="st9"/>
		</g>
		<g id="shape217-164" transform="translate(114.106,-304.194)">
			<title>Dynamic connector.217</title>
			<path d="M0 485.75 L0 486.11 L0 494.55 L98.49 494.55 L98.49 507.4" class="st9"/>
		</g>
		<g id="shape218-171" transform="translate(48.1575,-304.194)">
			<title>Dynamic connector.218</title>
			<path d="M0 485.75 L0 486.11 L0 494.55 L164.44 494.55 L164.44 507.4" class="st9"/>
		</g>
		<g id="shape219-178" transform="translate(311.953,-304.194)">
			<title>Dynamic connector.219</title>
			<path d="M0 485.75 L0 486.11 L0 494.55 L-99.35 494.55 L-99.35 507.4" class="st9"/>
		</g>
		<g id="shape220-185" transform="translate(378.425,-304.194)">
			<title>Dynamic connector.220</title>
			<path d="M0 485.75 L0 486.11 L0 494.55 L-165.83 494.55 L-165.83 507.4" class="st9"/>
		</g>
		<g id="shape221-192" transform="translate(377.902,-164.727)">
			<title>Dynamic connector.221</title>
			<path d="M0 465.35 L0 464.99 L0 455.44 L-165.3 455.44 L-165.3 443.69" class="st9"/>
		</g>
		<g id="shape222-199" transform="translate(370.815,-108.849)">
			<title>Dynamic connector.222</title>
			<path d="M7.09 465.35 L7.09 464.99 L7.09 457.16" class="st9"/>
		</g>
		<g id="shape223-206" transform="translate(238.918,-108.849)">
			<title>Dynamic connector.223</title>
			<path d="M7.09 465.35 L7.09 464.99 L7.09 457.16" class="st9"/>
		</g>
		<g id="shape224-213" transform="translate(172.969,-108.849)">
			<title>Dynamic connector.224</title>
			<path d="M7.09 465.35 L7.09 464.99 L7.09 457.16" class="st9"/>
		</g>
		<g id="shape225-220" transform="translate(107.02,-108.849)">
			<title>Dynamic connector.225</title>
			<path d="M7.09 465.35 L7.09 464.99 L7.09 457.16" class="st9"/>
		</g>
		<g id="shape226-227" transform="translate(41.0709,-108.849)">
			<title>Dynamic connector.226</title>
			<path d="M7.09 465.35 L7.09 464.99 L7.09 457.16" class="st9"/>
		</g>
		<g id="shape227-234" transform="translate(107.02,-54.991)">
			<title>Dynamic connector.227</title>
			<path d="M7.09 465.35 L7.09 464.99 L7.09 459.18" class="st9"/>
		</g>
		<g id="shape229-241" transform="translate(172.969,-331.123)">
			<title>Dynamic connector.229</title>
			<path d="M7.09 465.35 L7.09 464.99 L7.09 455.1" class="st9"/>
		</g>
		<g id="shape232-248" transform="translate(239.528,-375.591)">
			<title>Dynamic connector.232</title>
			<path d="M7.09 465.35 L7.09 464.99 L7.09 459.79" class="st9"/>
		</g>
	</g>
</svg>
