<?xml version="1.0" encoding="UTF-8" standalone="no"?>
<!DOCTYPE svg PUBLIC "-//W3C//DTD SVG 1.1//EN" "http://www.w3.org/Graphics/SVG/1.1/DTD/svg11.dtd">
<!-- Generated by Microsoft Visio, SVG Export ml_app_architecture_hcs.svg Page-1 -->
<svg xmlns="http://www.w3.org/2000/svg" xmlns:xlink="http://www.w3.org/1999/xlink" xmlns:ev="http://www.w3.org/2001/xml-events"
		xmlns:v="http://schemas.microsoft.com/visio/2003/SVGExtensions/" width="7.94808in" height="7.70035in"
		viewBox="0 0 572.262 554.425" xml:space="preserve" color-interpolation-filters="sRGB" class="st20">
	<v:documentProperties v:langID="1035" v:viewMarkup="false"/>

	<style type="text/css">
	<![CDATA[
		.st1 {fill:#d9e1e2;stroke:none;stroke-width:1}
		.st2 {fill:#00a9ce;marker-end:url(#mrkr4-8);marker-start:url(#mrkr4-6);stroke:none;stroke-width:1}
		.st3 {fill:#feffff;fill-opacity:1;stroke:#feffff;stroke-opacity:1;stroke-width:0.28409090909091}
		.st4 {fill:#ffffff;font-family:Arial;font-size:0.666664em}
		.st5 {font-size:1em}
		.st6 {fill:#0033a0;marker-end:url(#mrkr4-8);marker-start:url(#mrkr4-6);stroke:none;stroke-width:1}
		.st7 {fill:#333f48;stroke:none;stroke-width:1}
		.st8 {fill:#768692;marker-end:url(#mrkr4-8);marker-start:url(#mrkr4-6);stroke:none;stroke-width:1}
		.st9 {fill:#00a9ce;stroke:none;stroke-width:1}
		.st10 {fill:#768692;stroke:none;stroke-width:1}
		.st11 {marker-end:url(#mrkr4-90);marker-start:url(#mrkr4-88);stroke:#333f48;stroke-linecap:butt;stroke-width:1}
		.st12 {fill:#333f48;fill-opacity:1;stroke:#333f48;stroke-opacity:1;stroke-width:0.28409090909091}
		.st13 {fill:none;stroke:#768692;stroke-width:1}
		.st14 {fill:none;stroke:none;stroke-width:1}
		.st15 {fill:#333f48;font-family:Arial;font-size:0.666664em}
		.st16 {fill:none;stroke:#768692;stroke-dasharray:7,5;stroke-width:1}
		.st17 {fill:#768692;fill-opacity:1;stroke:#768692;stroke-opacity:1;stroke-width:0.28409090909091}
		.st18 {fill:none;marker-end:url(#mrkr4-8);marker-start:url(#mrkr4-6);stroke:none;stroke-width:1}
		.st19 {fill:#768692;font-family:Arial;font-size:0.666664em}
		.st20 {fill:none;fill-rule:evenodd;font-size:12px;overflow:visible;stroke-linecap:square;stroke-miterlimit:3}
	]]>
	</style>

	<defs id="Markers">
		<g id="lend4">
			<path d="M 2 1 L 0 0 L 2 -1 L 2 1 " style="stroke:none"/>
		</g>
		<marker id="mrkr4-6" class="st3" v:arrowType="4" v:arrowSize="2" v:setback="7.04" refX="7.04" orient="auto"
				markerUnits="strokeWidth" overflow="visible">
			<use xlink:href="#lend4" transform="scale(3.52) "/>
		</marker>
		<marker id="mrkr4-8" class="st3" v:arrowType="4" v:arrowSize="2" v:setback="7.04" refX="-7.04" orient="auto"
				markerUnits="strokeWidth" overflow="visible">
			<use xlink:href="#lend4" transform="scale(-3.52,-3.52) "/>
		</marker>
		<marker id="mrkr4-88" class="st12" v:arrowType="4" v:arrowSize="2" v:setback="6.68" refX="6.68" orient="auto"
				markerUnits="strokeWidth" overflow="visible">
			<use xlink:href="#lend4" transform="scale(3.52) "/>
		</marker>
		<marker id="mrkr4-90" class="st12" v:arrowType="4" v:arrowSize="2" v:setback="7.04" refX="-7.04" orient="auto"
				markerUnits="strokeWidth" overflow="visible">
			<use xlink:href="#lend4" transform="scale(-3.52,-3.52) "/>
		</marker>
		<marker id="mrkr4-158" class="st17" v:arrowType="4" v:arrowSize="2" v:setback="7.04" refX="7.04" orient="auto"
				markerUnits="strokeWidth" overflow="visible">
			<use xlink:href="#lend4" transform="scale(3.52) "/>
		</marker>
		<marker id="mrkr4-160" class="st17" v:arrowType="4" v:arrowSize="2" v:setback="7.04" refX="-7.04" orient="auto"
				markerUnits="strokeWidth" overflow="visible">
			<use xlink:href="#lend4" transform="scale(-3.52,-3.52) "/>
		</marker>
	</defs>
	<g v:mID="0" v:index="1" v:groupContext="foregroundPage">
		<title>Page-1</title>
		<v:pageProperties v:drawingScale="0.0393701" v:pageScale="0.0393701" v:drawingUnits="24" v:shadowOffsetX="8.50394"
				v:shadowOffsetY="-8.50394"/>
		<v:layer v:name="Connector" v:index="0"/>
		<g id="shape99-1" v:mID="99" v:groupContext="shape" transform="translate(165.846,-486.416)">
			<title>Sheet.99</title>
			<rect x="0" y="504.592" width="196.421" height="49.8332" class="st1"/>
		</g>
		<g id="shape104-3" v:mID="104" v:groupContext="shape" transform="translate(196.759,-158.646)">
			<title>Nordic Blue.139</title>
			<desc>CAF Click detector</desc>
			<v:textBlock v:margins="rect(4,4,4,4)"/>
			<v:textRect cx="23.746" cy="538.346" width="47.5" height="32.1584"/>
			<rect x="0" y="522.267" width="47.492" height="32.1584" class="st2"/>
			<text x="5.97" y="535.95" class="st4" v:langID="1044"><v:paragraph v:horizAlign="1" v:bulletSize="0.166667"/><v:tabList/>CAF <tspan
						class="st5" v:langID="1033">Click </tspan><tspan x="9.29" dy="1.2em" class="st5" v:langID="1033">detector</tspan></text>		</g>
		<g id="shape106-12" v:mID="106" v:groupContext="shape" transform="translate(170.375,-278.439)">
			<title>Nordic Blueslate.142</title>
			<desc>Application Event Manager</desc>
			<v:textBlock v:margins="rect(4,4,4,4)"/>
			<v:textRect cx="39.2977" cy="538.644" width="78.6" height="31.5624"/>
			<rect x="0" y="522.863" width="78.5954" height="31.5624" class="st6"/>
			<text x="19.73" y="536.24" class="st4" v:langID="1033"><v:paragraph v:horizAlign="1" v:bulletSize="0.166667"/><v:tabList/>Application<v:newlineChar/><tspan
						x="12.17" dy="1.2em" class="st5">Event Manager</tspan></text>		</g>
		<g id="shape111-18" v:mID="111" v:groupContext="shape" transform="translate(54.2758,-46.0494)">
			<title>Nordic Middle Grey.154</title>
			<desc>Edge Impulse C++ library</desc>
			<v:textBlock v:margins="rect(4,4,4,4)"/>
			<v:textRect cx="30.5254" cy="540.278" width="61.06" height="28.2949"/>
			<rect x="0" y="526.13" width="61.0508" height="28.2949" class="st7"/>
			<text x="6.07" y="537.88" class="st4" v:langID="1033"><v:paragraph v:horizAlign="1" v:bulletSize="0.166667"/><v:tabList/>Edge Impulse <tspan
						x="10.96" dy="1.2em" class="st5">C++ library</tspan></text>		</g>
		<g id="shape112-22" v:mID="112" v:groupContext="shape" transform="translate(63.0069,-104.247)">
			<title>Nordic Middle Grey.155</title>
			<desc>EI wrapper</desc>
			<v:textBlock v:margins="rect(4,4,4,4)"/>
			<v:textRect cx="21.7943" cy="541.901" width="43.59" height="25.0479"/>
			<rect x="0" y="529.377" width="43.5885" height="25.0479" class="st2"/>
			<text x="18.02" y="539.5" class="st4" v:langID="1033"><v:paragraph v:horizAlign="1" v:bulletSize="0.166667"/><v:tabList/>EI <tspan
						x="7.34" dy="1.2em" class="st5">wrapper</tspan></text>		</g>
		<g id="shape113-28" v:mID="113" v:groupContext="shape" transform="translate(146.977,-158.646)">
			<title>Nordic Blue.160</title>
			<desc>CAF Buttons</desc>
			<v:textBlock v:margins="rect(4,4,4,4)"/>
			<v:textRect cx="23.746" cy="538.346" width="47.5" height="32.1584"/>
			<rect x="0" y="522.267" width="47.492" height="32.1584" class="st2"/>
			<text x="15.75" y="535.95" class="st4" v:langID="1044"><v:paragraph v:horizAlign="1" v:bulletSize="0.166667"/><v:tabList/>CAF <tspan
						x="10.18" dy="1.2em" class="st5" v:langID="1033">Buttons</tspan></text>		</g>
		<g id="shape116-34" v:mID="116" v:groupContext="shape" transform="translate(154.419,-104.247)">
			<title>Nordic Blue.186</title>
			<desc>GPIO driver</desc>
			<v:textBlock v:margins="rect(4,4,4,4)"/>
			<v:textRect cx="15.9559" cy="541.901" width="31.92" height="25.0479"/>
			<rect x="0" y="529.377" width="31.9118" height="25.0479" class="st8"/>
			<text x="5.95" y="539.5" class="st4" v:langID="1035"><v:paragraph v:horizAlign="1" v:bulletSize="0.166667"/><v:tabList/>GPIO <tspan
						x="5.95" dy="1.2em" class="st5">driver</tspan></text>		</g>
		<g id="shape117-40" v:mID="117" v:groupContext="shape" transform="translate(130.768,-357.742)">
			<title>Nordic Blue.198</title>
			<desc>EI data forwarder</desc>
			<v:textBlock v:margins="rect(4,4,4,4)"/>
			<v:textRect cx="23.746" cy="541.901" width="47.5" height="25.0479"/>
			<rect x="0" y="529.377" width="47.492" height="25.0479" class="st2"/>
			<text x="11.07" y="539.5" class="st4" v:langID="1033"><v:paragraph v:horizAlign="1" v:bulletSize="0.166667"/><v:tabList/>EI data <tspan
						x="6.85" dy="1.2em" class="st5">forwarder</tspan></text>		</g>
		<g id="shape120-46" v:mID="120" v:groupContext="shape" transform="translate(130.768,-404.542)">
			<title>Nordic Blue.201</title>
			<desc>UART driver</desc>
			<v:textBlock v:margins="rect(4,4,4,4)"/>
			<v:textRect cx="23.746" cy="541.901" width="47.5" height="25.0479"/>
			<rect x="0" y="529.377" width="47.492" height="25.0479" class="st8"/>
			<text x="12.86" y="539.5" class="st4" v:langID="1033"><v:paragraph v:horizAlign="1" v:bulletSize="0.166667"/><v:tabList/>UART <tspan
						x="13.74" dy="1.2em" class="st5">driver</tspan></text>		</g>
		<g id="shape121-52" v:mID="121" v:groupContext="shape" transform="translate(183.892,-404.542)">
			<title>Nordic Blue.202</title>
			<desc>NUS</desc>
			<v:textBlock v:margins="rect(4,4,4,4)"/>
			<v:textRect cx="23.746" cy="541.901" width="47.5" height="25.0479"/>
			<rect x="0" y="529.377" width="47.492" height="25.0479" class="st2"/>
			<text x="15.3" y="544.3" class="st4" v:langID="1033"><v:paragraph v:horizAlign="1" v:bulletSize="0.166667"/><v:tabList/>NUS</text>		</g>
		<g id="shape122-57" v:mID="122" v:groupContext="shape" transform="translate(171.082,-505.269)">
			<title>Nordic Blue.203</title>
			<desc>Nordic proprietary Bluetooth® LE Link layer</desc>
			<v:textBlock v:margins="rect(4,4,4,4)"/>
			<v:textRect cx="45.2945" cy="540.211" width="90.59" height="28.429"/>
			<rect x="0" y="525.996" width="90.5889" height="28.429" class="st9"/>
			<text x="13.51" y="533.01" class="st4" v:langID="1033"><v:paragraph v:horizAlign="1" v:bulletSize="0.166667"/><v:tabList/>Nordic proprietary <tspan
						x="10.99" dy="1.2em" class="st5">Bluetooth® LE Link </tspan><tspan x="36.62" dy="1.2em" class="st5">layer</tspan></text>		</g>
		<g id="shape123-62" v:mID="123" v:groupContext="shape" transform="translate(265.34,-505.269)">
			<title>Nordic Blue.205</title>
			<desc>Zephyr SW Bluetooth® LE Link layer</desc>
			<v:textBlock v:margins="rect(4,4,4,4)"/>
			<v:textRect cx="45.2945" cy="540.211" width="90.59" height="28.429"/>
			<rect x="0" y="525.996" width="90.5889" height="28.429" class="st10"/>
			<text x="25.29" y="533.01" class="st4" v:langID="1033"><v:paragraph v:horizAlign="1" v:bulletSize="0.166667"/><v:tabList/>Zephyr SW<v:newlineChar/><tspan
						x="10.99" dy="1.2em" class="st5">Bluetooth® LE Link </tspan><tspan x="36.62" dy="1.2em" class="st5">layer</tspan></text>		</g>
		<g id="shape124-67" v:mID="124" v:groupContext="shape" transform="translate(171.082,-491.286)">
			<title>Nordic Blue.206</title>
			<desc>Host layer</desc>
			<v:textBlock v:margins="rect(4,4,4,4)"/>
			<v:textRect cx="92.4232" cy="549.802" width="184.85" height="9.24667"/>
			<rect x="0" y="545.178" width="184.846" height="9.24667" class="st10"/>
			<text x="74.42" y="552.2" class="st4" v:langID="1033"><v:paragraph v:horizAlign="1" v:bulletSize="0.166667"/><v:tabList/>Host layer</text>		</g>
		<g id="shape125-70" v:mID="125" v:groupContext="shape" transform="translate(13.9351,-104.247)">
			<title>Nordic Middle Grey.209</title>
			<desc>Sensor simulator</desc>
			<v:textBlock v:margins="rect(4,4,4,4)"/>
			<v:textRect cx="21.7943" cy="541.901" width="43.59" height="25.0479"/>
			<rect x="0" y="529.377" width="43.5885" height="25.0479" class="st2"/>
			<text x="9.12" y="539.5" class="st4" v:langID="1033"><v:paragraph v:horizAlign="1" v:bulletSize="0.166667"/><v:tabList/>Sensor <tspan
						x="5.57" dy="1.2em" class="st5">simulator</tspan></text>		</g>
		<g id="shape126-76" v:mID="126" v:groupContext="shape" transform="translate(110.117,-104.247)">
			<title>Nordic Middle Grey.210</title>
			<desc>LED driver</desc>
			<v:textBlock v:margins="rect(4,4,4,4)"/>
			<v:textRect cx="15.9559" cy="541.901" width="31.92" height="25.0479"/>
			<rect x="0" y="529.377" width="31.9118" height="25.0479" class="st8"/>
			<text x="8.17" y="539.5" class="st4" v:langID="1035"><v:paragraph v:horizAlign="1" v:bulletSize="0.166667"/><v:tabList/>LED <tspan
						x="5.95" dy="1.2em" class="st5">driver</tspan></text>		</g>
		<g id="shape128-82" v:mID="128" v:groupContext="shape" v:layerMember="0" transform="translate(178.26,-370.266)">
			<title>Dynamic connector.96</title>
			<path d="M6.68 554.43 L7.04 554.43 L29.38 554.43 L29.38 527.19" class="st11"/>
		</g>
		<g id="shape138-91" v:mID="138" v:groupContext="shape" v:layerMember="0" transform="translate(77.7146,-74.3442)">
			<title>Dynamic connector.227</title>
			<path d="M7.09 547.75 L7.09 547.39 L7.09 531.56" class="st11"/>
		</g>
		<g id="group141-98" transform="translate(13.5431,-490.616)" v:mID="141" v:groupContext="group">
			<title>Sheet.141</title>
			<g id="shape142-99" v:mID="142" v:groupContext="shape">
				<title>Nordic Light Grey.2333</title>
				<rect x="0" y="514.572" width="78.0839" height="39.8535" class="st13"/>
			</g>
			<g id="shape143-101" v:mID="143" v:groupContext="shape" transform="translate(4.74791,-26.4224)">
				<title>Nordic Blue.1617</title>
				<rect x="0" y="545.069" width="15.0026" height="9.35656" class="st9"/>
			</g>
			<g id="shape144-103" v:mID="144" v:groupContext="shape" transform="translate(19.7505,-26.4224)">
				<title>Sheet.144</title>
				<desc>NCS</desc>
				<v:textBlock v:margins="rect(4,4,4,4)" v:tabSpace="42.5197"/>
				<v:textRect cx="26.375" cy="549.747" width="52.76" height="9.35656"/>
				<rect x="0" y="545.069" width="52.7501" height="9.35656" class="st14"/>
				<text x="4" y="552.15" class="st15" v:langID="1033"><v:paragraph/><v:tabList/>NCS</text>			</g>
			<g id="shape145-106" v:mID="145" v:groupContext="shape" transform="translate(4.74791,-15.2485)">
				<title>Nordic Blue.1618</title>
				<rect x="0" y="545.069" width="15.0026" height="9.35656" class="st10"/>
			</g>
			<g id="shape146-108" v:mID="146" v:groupContext="shape" transform="translate(19.7505,-15.2485)">
				<title>Sheet.146</title>
				<desc>Zephyr</desc>
				<v:textBlock v:margins="rect(4,4,4,4)" v:tabSpace="42.5197"/>
				<v:textRect cx="26.375" cy="549.747" width="52.76" height="9.35656"/>
				<rect x="0" y="545.069" width="52.7501" height="9.35656" class="st14"/>
				<text x="4" y="552.15" class="st15" v:langID="1033"><v:paragraph/><v:tabList/>Zephyr</text>			</g>
			<g id="shape147-111" v:mID="147" v:groupContext="shape" transform="translate(4.74791,-4.07451)">
				<title>Nordic Blue.2341</title>
				<rect x="0" y="545.069" width="15.0026" height="9.35656" class="st7"/>
			</g>
			<g id="shape148-113" v:mID="148" v:groupContext="shape" transform="translate(19.7505,-4.07451)">
				<title>Sheet.148</title>
				<desc>Other</desc>
				<v:textBlock v:margins="rect(4,4,4,4)" v:tabSpace="42.5197"/>
				<v:textRect cx="26.375" cy="549.747" width="52.76" height="9.35656"/>
				<rect x="0" y="545.069" width="52.7501" height="9.35656" class="st14"/>
				<text x="4" y="552.15" class="st15" v:langID="1033"><v:paragraph/><v:tabList/>Other</text>			</g>
		</g>
		<g id="shape149-116" v:mID="149" v:groupContext="shape" transform="translate(246.89,-158.646)">
			<title>Nordic Blue.125</title>
			<desc>CAF Power Manager</desc>
			<v:textBlock v:margins="rect(4,4,4,4)"/>
			<v:textRect cx="23.4215" cy="538.346" width="46.85" height="32.1584"/>
			<rect x="0" y="522.267" width="46.843" height="32.1584" class="st2"/>
			<text x="15.42" y="531.15" class="st4" v:langID="1044"><v:paragraph v:horizAlign="1" v:bulletSize="0.166667"/><v:tabList/>CAF <tspan
						x="12.08" dy="1.2em" class="st5">Power </tspan><tspan x="7.63" dy="1.2em" class="st5">Manager</tspan></text>		</g>
		<g id="shape151-123" v:mID="151" v:groupContext="shape" transform="translate(248.328,-104.247)">
			<title>Nordic Blue.2193</title>
			<desc>OS power mgmt</desc>
			<v:textBlock v:margins="rect(4,4,4,4)"/>
			<v:textRect cx="21.7943" cy="541.901" width="43.59" height="25.0479"/>
			<rect x="0" y="529.377" width="43.5885" height="25.0479" class="st8"/>
			<text x="4.01" y="539.5" class="st4" v:langID="1033"><v:paragraph v:horizAlign="1" v:bulletSize="0.166667"/><v:tabList/>OS power <tspan
						x="11.79" dy="1.2em" class="st5">mgmt</tspan></text>		</g>
		<g id="shape152-129" v:mID="152" v:groupContext="shape" transform="translate(20.4382,-357.151)">
			<title>Nordic Blue.2192</title>
			<desc>USB State</desc>
			<v:textBlock v:margins="rect(4,4,4,4)"/>
			<v:textRect cx="15.9559" cy="541.901" width="31.92" height="25.0479"/>
			<rect x="0" y="529.377" width="31.9118" height="25.0479" class="st2"/>
			<text x="7.73" y="539.5" class="st4" v:langID="1033"><v:paragraph v:horizAlign="1" v:bulletSize="0.166667"/><v:tabList/>USB <tspan
						x="6.62" dy="1.2em" class="st5" v:langID="1044">State</tspan></text>		</g>
		<g id="shape153-135" v:mID="153" v:groupContext="shape" transform="translate(20.4382,-403.883)">
			<title>Nordic Blue.2195</title>
			<desc>USB stack</desc>
			<v:textBlock v:margins="rect(4,4,4,4)"/>
			<v:textRect cx="15.9559" cy="541.242" width="31.92" height="26.3662"/>
			<rect x="0" y="528.059" width="31.9118" height="26.3662" class="st8"/>
			<text x="7.73" y="538.84" class="st4" v:langID="1033"><v:paragraph v:horizAlign="1" v:bulletSize="0.166667"/><v:tabList/>USB <tspan
						x="6.62" dy="1.2em" class="st5" v:langID="1044">stack</tspan></text>		</g>
		<g id="shape156-141" v:mID="156" v:groupContext="shape" v:layerMember="0" transform="translate(29.3074,-382.199)">
			<title>Dynamic connector.137</title>
			<path d="M7.09 547.75 L7.09 547.39 L7.09 539.78" class="st11"/>
		</g>
		<g id="shape157-148" v:mID="157" v:groupContext="shape" v:layerMember="0" transform="translate(270.311,-190.805)">
			<title>Dynamic connector</title>
			<path d="M0 547.75 L0 547.39 L0 517.67 L-60.64 517.67 L-60.64 473.83" class="st11"/>
		</g>
		<g id="shape301-155" v:mID="301" v:groupContext="shape" transform="translate(215.248,-348.745)">
			<title>Nordic Blue.2345</title>
			<path d="M0 554.43 L147.02 554.43 L147.02 511.38 L0 511.38 L0 554.43 Z" class="st16"/>
		</g>
		<g id="shape302-161" v:mID="302" v:groupContext="shape" transform="translate(209.455,-389.242)">
			<title>Sheet.302</title>
			<desc>Bluetooth® LE</desc>
			<v:textBlock v:margins="rect(4,4,4,4)" v:tabSpace="42.5197"/>
			<v:textRect cx="32.4554" cy="546.967" width="64.92" height="14.9173"/>
			<rect x="0" y="539.508" width="64.9107" height="14.9173" class="st18"/>
			<text x="6.6" y="549.37" class="st19" v:langID="1035"><v:paragraph v:horizAlign="1"/><v:tabList/>B<tspan class="st5"
						v:langID="1033">luetooth® </tspan>LE</text>		</g>
		<g id="shape1000-167" v:mID="1000" v:groupContext="shape" transform="translate(20.1659,-451.933)">
			<title>Nordic Blue.1000</title>
			<desc>USB driver</desc>
			<v:textBlock v:margins="rect(4,4,4,4)"/>
			<v:textRect cx="15.9559" cy="541.242" width="31.92" height="26.3662"/>
			<rect x="0" y="528.059" width="31.9118" height="26.3662" class="st8"/>
			<text x="7.73" y="538.84" class="st4" v:langID="1033"><v:paragraph v:horizAlign="1" v:bulletSize="0.166667"/><v:tabList/>USB <tspan
						x="5.95" dy="1.2em" class="st5">driver</tspan></text>		</g>
		<g id="shape1002-173" v:mID="1002" v:groupContext="shape" v:layerMember="0" transform="translate(29.1713,-430.249)">
			<title>Dynamic connector.1002</title>
			<path d="M7.09 547.75 L7.09 547.39 L7.09 539.78" class="st11"/>
		</g>
		<g id="shape1003-180" v:mID="1003" v:groupContext="shape" v:layerMember="0" transform="translate(36.394,-357.151)">
			<title>Dynamic connector.1003</title>
			<path d="M0 561.11 L0 561.47 L0 572.8 L173.28 572.8 L173.28 594.54" class="st11"/>
		</g>
		<g id="shape1004-187" v:mID="1004" v:groupContext="shape" transform="translate(57.2147,-357.151)">
			<title>Nordic Blue.1004</title>
			<desc>LED State</desc>
			<v:textBlock v:margins="rect(4,4,4,4)"/>
			<v:textRect cx="15.9559" cy="541.901" width="31.92" height="25.0479"/>
			<rect x="0" y="529.377" width="31.9118" height="25.0479" class="st2"/>
			<text x="8.17" y="539.5" class="st4" v:langID="1044"><v:paragraph v:horizAlign="1" v:bulletSize="0.166667"/><v:tabList/>LED<tspan
						class="st5" v:langID="1033"> </tspan><tspan x="6.62" dy="1.2em" class="st5">State</tspan></text>		</g>
		<g id="shape1006-194" v:mID="1006" v:groupContext="shape" transform="translate(93.9912,-357.742)">
			<title>Nordic Blue.1006</title>
			<desc>ML State</desc>
			<v:textBlock v:margins="rect(4,4,4,4)"/>
			<v:textRect cx="15.9559" cy="541.901" width="31.92" height="25.0479"/>
			<rect x="0" y="529.377" width="31.9118" height="25.0479" class="st2"/>
			<text x="10.4" y="539.5" class="st4" v:langID="1044"><v:paragraph v:horizAlign="1" v:bulletSize="0.166667"/><v:tabList/>ML<tspan
						class="st5" v:langID="1033"> </tspan><tspan x="6.62" dy="1.2em" class="st5">State</tspan></text>		</g>
		<g id="shape1010-201" v:mID="1010" v:groupContext="shape" transform="translate(183.892,-437.5)">
			<title>Nordic Blue.1010</title>
			<desc>NSMS</desc>
			<v:textBlock v:margins="rect(4,4,4,4)"/>
			<v:textRect cx="23.746" cy="541.901" width="47.5" height="25.0479"/>
			<rect x="0" y="529.377" width="47.492" height="25.0479" class="st2"/>
			<text x="12.19" y="544.3" class="st4" v:langID="1044"><v:paragraph v:horizAlign="1" v:bulletSize="0.166667"/><v:tabList/>NSMS</text>		</g>
		<g id="shape1011-206" v:mID="1011" v:groupContext="shape" v:layerMember="0" transform="translate(109.947,-382.79)">
			<title>Dynamic connector.1011</title>
			<path d="M0 547.75 L0 547.39 L0 487.19 L66.91 487.19" class="st11"/>
		</g>
		<g id="shape1012-213" v:mID="1012" v:groupContext="shape" transform="translate(219.117,-357.742)">
			<title>Nordic Blue.1012</title>
			<desc>CAF advertising</desc>
			<v:textBlock v:margins="rect(4,4,4,4)"/>
			<v:textRect cx="25.1863" cy="541.901" width="50.38" height="25.0479"/>
			<rect x="0" y="529.377" width="50.3726" height="25.0479" class="st2"/>
			<text x="17.19" y="539.5" class="st4" v:langID="1044"><v:paragraph v:horizAlign="1" v:bulletSize="0.166667"/><v:tabList/>CAF <tspan
						x="5.84" dy="1.2em" class="st5">advertising</tspan></text>		</g>
		<g id="shape1014-219" v:mID="1014" v:groupContext="shape" v:layerMember="0" transform="translate(73.1706,-357.151)">
			<title>Dynamic connector.1014</title>
			<path d="M0 561.11 L0 561.47 L0 572.8 L136.5 572.8 L136.5 594.54" class="st11"/>
		</g>
		<g id="shape1016-226" v:mID="1016" v:groupContext="shape" v:layerMember="0" transform="translate(154.514,-357.742)">
			<title>Dynamic connector.1016</title>
			<path d="M0 561.11 L0 561.47 L0 573.43 L55.16 573.43 L55.16 595.13" class="st11"/>
		</g>
		<g id="shape1018-233" v:mID="1018" v:groupContext="shape" transform="translate(274.366,-357.742)">
			<title>Nordic Blue.1018</title>
			<desc>CAF State</desc>
			<v:textBlock v:margins="rect(4,4,4,4)"/>
			<v:textRect cx="19.3488" cy="541.901" width="38.7" height="25.0479"/>
			<rect x="0" y="529.377" width="38.6976" height="25.0479" class="st2"/>
			<text x="11.35" y="539.5" class="st4" v:langID="1044"><v:paragraph v:horizAlign="1" v:bulletSize="0.166667"/><v:tabList/>CAF <tspan
						x="10.01" dy="1.2em" class="st5">State</tspan></text>		</g>
		<g id="shape1019-239" v:mID="1019" v:groupContext="shape" transform="translate(319.688,-357.742)">
			<title>Nordic Blue.1019</title>
			<desc>CAF SMP</desc>
			<v:textBlock v:margins="rect(4,4,4,4)"/>
			<v:textRect cx="19.3488" cy="541.901" width="38.7" height="25.0479"/>
			<rect x="0" y="529.377" width="38.6976" height="25.0479" class="st2"/>
			<text x="11.35" y="539.5" class="st4" v:langID="1044"><v:paragraph v:horizAlign="1" v:bulletSize="0.166667"/><v:tabList/>CAF <tspan
						x="10.68" dy="1.2em" class="st5">SMP</tspan></text>		</g>
		<g id="shape1020-245" v:mID="1020" v:groupContext="shape" transform="translate(317.018,-425.833)">
			<title>Nordic Blue.1020</title>
			<desc>SMP Bluetooth</desc>
			<v:textBlock v:margins="rect(4,4,4,4)"/>
			<v:textRect cx="22.018" cy="541.901" width="44.04" height="25.0479"/>
			<rect x="0" y="529.377" width="44.036" height="25.0479" class="st8"/>
			<text x="13.35" y="539.5" class="st4" v:langID="1044"><v:paragraph v:horizAlign="1" v:bulletSize="0.166667"/><v:tabList/>SMP <tspan
						x="5.12" dy="1.2em" class="st5">Bluetooth</tspan></text>		</g>
		<g id="shape1021-251" v:mID="1021" v:groupContext="shape" v:layerMember="0" transform="translate(200.05,-462.548)">
			<title>Dynamic connector.1021</title>
			<path d="M7.05 547.75 L7.05 547.39 L7.12 537.6" class="st11"/>
		</g>
		<g id="shape1022-258" v:mID="1022" v:groupContext="shape" v:layerMember="0" transform="translate(230.927,-417.066)">
			<title>Dynamic connector.1022</title>
			<path d="M7.14 554.43 L7.5 554.43 L13.72 554.43 L13.72 492.12" class="st11"/>
		</g>
		<g id="shape1023-265" v:mID="1023" v:groupContext="shape" v:layerMember="0" transform="translate(298.986,-391.788)">
			<title>Dynamic connector.1023</title>
			<v:textBlock v:margins="rect(4,4,4,4)" v:tabSpace="42.5197"/>
			<path d="M-6.72 547.75 L-6.72 547.39 L-7.45 466.84" class="st11"/>
		</g>
		<g id="shape1024-272" v:mID="1024" v:groupContext="shape" v:layerMember="0" transform="translate(346.123,-450.881)">
			<title>Dynamic connector.1024</title>
			<path d="M-7.09 547.75 L-7.09 547.39 L-7.09 525.93" class="st11"/>
		</g>
		<g id="shape1025-279" v:mID="1025" v:groupContext="shape" v:layerMember="0" transform="translate(331.639,-425.833)">
			<title>Dynamic connector.1025</title>
			<path d="M6.87 561.1 L6.88 561.46 L7.3 590.43" class="st11"/>
		</g>
		<g id="shape1026-286" v:mID="1026" v:groupContext="shape" transform="translate(12.648,-157.857)">
			<title>Nordic Blue.1026</title>
			<desc>Sensor Simulation Control</desc>
			<v:textBlock v:margins="rect(4,4,4,4)"/>
			<v:textRect cx="23.746" cy="537.687" width="47.5" height="33.4767"/>
			<rect x="0" y="520.948" width="47.492" height="33.4767" class="st2"/>
			<text x="11.07" y="530.49" class="st4" v:langID="1044"><v:paragraph v:horizAlign="1" v:bulletSize="0.166667"/><v:tabList/>Sensor <tspan
						x="5.07" dy="1.2em" class="st5">Simulation </tspan><tspan x="10.85" dy="1.2em" class="st5">Control </tspan> </text>		</g>
		<g id="shape1028-293" v:mID="1028" v:groupContext="shape" transform="translate(69.0247,-158.646)">
			<title>Nordic Blue.1028</title>
			<desc>ML runner</desc>
			<v:textBlock v:margins="rect(4,4,4,4)"/>
			<v:textRect cx="15.9559" cy="538.346" width="31.92" height="32.1584"/>
			<rect x="0" y="522.267" width="31.9118" height="32.1584" class="st2"/>
			<text x="10.4" y="535.95" class="st4" v:langID="1044"><v:paragraph v:horizAlign="1" v:bulletSize="0.166667"/><v:tabList/>ML <tspan
						x="4.39" dy="1.2em" class="st5">runner</tspan></text>		</g>
		<g id="shape1029-299" v:mID="1029" v:groupContext="shape" transform="translate(109.947,-158.646)">
			<title>Nordic Blue.1029</title>
			<desc>CAF LEDs</desc>
			<v:textBlock v:margins="rect(4,4,4,4)"/>
			<v:textRect cx="15.9559" cy="538.346" width="31.92" height="32.1584"/>
			<rect x="0" y="522.267" width="31.9118" height="32.1584" class="st2"/>
			<text x="7.96" y="535.95" class="st4" v:langID="1044"><v:paragraph v:horizAlign="1" v:bulletSize="0.166667"/><v:tabList/>CAF <tspan
						x="6.17" dy="1.2em" class="st5">LEDs</tspan></text>		</g>
		<g id="shape1034-305" v:mID="1034" v:groupContext="shape" transform="translate(301.177,-219.938)">
			<title>Nordic Blue.1034</title>
			<desc>IPC service</desc>
			<v:textBlock v:margins="rect(4,4,4,4)"/>
			<v:textRect cx="23.746" cy="541.901" width="47.5" height="25.0479"/>
			<rect x="0" y="529.377" width="47.492" height="25.0479" class="st8"/>
			<text x="17.08" y="539.5" class="st4" v:langID="1044"><v:paragraph v:horizAlign="1" v:bulletSize="0.166667"/><v:tabList/>IPC <tspan
						x="11.08" dy="1.2em" class="st5">service</tspan></text>		</g>
		<g id="shape1036-311" v:mID="1036" v:groupContext="shape" transform="translate(396.26,-277.389)">
			<title>Nordic Blueslate.1036</title>
			<desc>Application Event Manager Proxy</desc>
			<v:textBlock v:margins="rect(4,4,4,4)"/>
			<v:textRect cx="32.4554" cy="537.459" width="64.92" height="33.9329"/>
			<rect x="0" y="520.492" width="64.9107" height="33.9329" class="st6"/>
			<text x="12.89" y="530.26" class="st4" v:langID="1033"><v:paragraph v:horizAlign="1" v:bulletSize="0.166667"/><v:tabList/>Application<v:newlineChar/><tspan
						x="5.33" dy="1.2em" class="st5">Event Manager</tspan><tspan class="st5" v:langID="1044"> </tspan><tspan
						x="22.23" dy="1.2em" class="st5" v:langID="1044">Proxy</tspan></text>		</g>
		<g id="shape1039-319" v:mID="1039" v:groupContext="shape" v:layerMember="0" transform="translate(331.938,-244.986)">
			<title>Dynamic connector.1039</title>
			<path d="M-7.05 547.75 L-7.05 547.39 L-7.13 531.04" class="st11"/>
		</g>
		<g id="shape1040-326" v:mID="1040" v:groupContext="shape" transform="translate(292.324,-275.415)">
			<title>Nordic Blueslate.1040</title>
			<desc>Application Event Manager Proxy</desc>
			<v:textBlock v:margins="rect(4,4,4,4)"/>
			<v:textRect cx="32.4554" cy="535.876" width="64.92" height="37.0978"/>
			<rect x="0" y="517.327" width="64.9107" height="37.0978" class="st6"/>
			<text x="12.89" y="528.68" class="st4" v:langID="1033"><v:paragraph v:horizAlign="1" v:bulletSize="0.166667"/><v:tabList/>Application<v:newlineChar/><tspan
						x="5.33" dy="1.2em" class="st5">Event Manager</tspan><tspan class="st5" v:langID="1044"> </tspan><tspan
						x="22.23" dy="1.2em" class="st5" v:langID="1044">Proxy</tspan></text>		</g>
		<g id="shape1041-334" v:mID="1041" v:groupContext="shape" transform="translate(479.99,-277.389)">
			<title>Nordic Blueslate.1041</title>
			<desc>Application Event Manager</desc>
			<v:textBlock v:margins="rect(4,4,4,4)"/>
			<v:textRect cx="28.5885" cy="537.459" width="57.18" height="33.9329"/>
			<rect x="0" y="520.492" width="57.177" height="33.9329" class="st6"/>
			<text x="9.02" y="530.26" class="st4" v:langID="1033"><v:paragraph v:horizAlign="1" v:bulletSize="0.166667"/><v:tabList/>Application<v:newlineChar/><tspan
						x="18.36" dy="1.2em" class="st5">Event </tspan><tspan x="12.8" dy="1.2em" class="st5">Manager</tspan></text>		</g>
		<g id="shape1042-341" v:mID="1042" v:groupContext="shape" transform="translate(404.969,-220.067)">
			<title>Nordic Blue.1042</title>
			<desc>IPC Service</desc>
			<v:textBlock v:margins="rect(4,4,4,4)"/>
			<v:textRect cx="23.746" cy="540.961" width="47.5" height="26.9291"/>
			<rect x="0" y="527.496" width="47.492" height="26.9291" class="st8"/>
			<text x="17.08" y="538.56" class="st4" v:langID="1044"><v:paragraph v:horizAlign="1" v:bulletSize="0.166667"/><v:tabList/>IPC <tspan
						x="10.41" dy="1.2em" class="st5">Service</tspan></text>		</g>
		<g id="shape1043-347" v:mID="1043" v:groupContext="shape" transform="translate(511.878,-156.244)">
			<title>Nordic Blue.1043</title>
			<desc>CAF Sensor data aggregator</desc>
			<v:textBlock v:margins="rect(4,4,4,4)"/>
			<v:textRect cx="23.4215" cy="535.876" width="46.85" height="37.0978"/>
			<rect x="0" y="517.327" width="46.843" height="37.0978" class="st2"/>
			<text x="15.42" y="523.88" class="st4" v:langID="1044"><v:paragraph v:horizAlign="1" v:bulletSize="0.166667"/><v:tabList/>CAF <tspan
						x="10.75" dy="1.2em" class="st5">Sensor </tspan><tspan x="15.64" dy="1.2em" class="st5">data </tspan><tspan
						x="4.07" dy="1.2em" class="st5">aggregator</tspan></text>		</g>
		<g id="shape1046-355" v:mID="1046" v:groupContext="shape" transform="translate(457.993,-156.244)">
			<title>Nordic Blue.1046</title>
			<desc>CAF Sensor Manager</desc>
			<v:textBlock v:margins="rect(4,4,4,4)"/>
			<v:textRect cx="22.018" cy="535.876" width="44.04" height="37.0978"/>
			<rect x="0" y="517.327" width="44.036" height="37.0978" class="st2"/>
			<text x="14.02" y="528.68" class="st4" v:langID="1044"><v:paragraph v:horizAlign="1" v:bulletSize="0.166667"/><v:tabList/>CAF <tspan
						x="9.34" dy="1.2em" class="st5">Sensor </tspan><tspan x="6.23" dy="1.2em" class="st5">Manager</tspan></text>		</g>
		<g id="shape1047-362" v:mID="1047" v:groupContext="shape" transform="translate(7.87096,-7.87096)">
			<title>Nordic Blue.1047</title>
			<path d="M0 554.43 L365.46 554.43 L365.46 20.21 L0 20.21 L0 554.43 Z" class="st16"/>
		</g>
		<g id="shape1048-366" v:mID="1048" v:groupContext="shape" transform="translate(382.973,-95.6299)">
			<title>Nordic Blue.1048</title>
			<path d="M0 554.43 L181.42 554.43 L181.42 301.31 L0 301.31 L0 554.43 Z" class="st16"/>
		</g>
		<g id="shape1049-370" v:mID="1049" v:groupContext="shape" transform="translate(458.196,-102.716)">
			<title>Nordic Blue.1049</title>
			<desc>Sensor driver</desc>
			<v:textBlock v:margins="rect(4,4,4,4)"/>
			<v:textRect cx="21.7943" cy="540.961" width="43.59" height="26.9291"/>
			<rect x="0" y="527.496" width="43.5885" height="26.9291" class="st8"/>
			<text x="9.12" y="538.56" class="st4" v:langID="1044"><v:paragraph v:horizAlign="1" v:bulletSize="0.166667"/><v:tabList/>Sensor <tspan
						x="11.79" dy="1.2em" class="st5">driver</tspan></text>		</g>
		<g id="shape1050-376" v:mID="1050" v:groupContext="shape" v:layerMember="0" transform="translate(435.802,-246.996)">
			<title>Dynamic connector.1050</title>
			<path d="M-7.09 547.75 L-7.09 547.39 L-7.09 531.07" class="st11"/>
		</g>
		<g id="shape1051-383" v:mID="1051" v:groupContext="shape" v:layerMember="0" transform="translate(508.578,-277.389)">
			<title>Dynamic connector.1051</title>
			<path d="M0 561.11 L0 561.47 L0 615.56 L-28.59 615.56 L-28.59 631.43" class="st11"/>
		</g>
		<g id="shape1052-390" v:mID="1052" v:groupContext="shape" v:layerMember="0" transform="translate(508.578,-277.389)">
			<title>Dynamic connector.1052</title>
			<path d="M0 561.11 L0 561.47 L0 615.56 L26.72 615.56 L26.72 631.43" class="st11"/>
		</g>
		<g id="shape1053-397" v:mID="1053" v:groupContext="shape" v:layerMember="0" transform="translate(486.946,-156.244)">
			<title>Dynamic connector.1053</title>
			<path d="M-7.05 561.11 L-7.06 561.47 L-7.12 574.33" class="st11"/>
		</g>
		<g id="shape1054-404" v:mID="1054" v:groupContext="shape" v:layerMember="0" transform="translate(147.427,-404.542)">
			<title>Dynamic connector.1054</title>
			<path d="M7.09 561.11 L7.09 561.47 L7.09 569.14" class="st11"/>
		</g>
		<g id="shape1055-411" v:mID="1055" v:groupContext="shape" v:layerMember="0" transform="translate(109.947,-357.742)">
			<title>Dynamic connector.1055</title>
			<path d="M0 561.11 L0 561.47 L0 573.39 L99.73 573.39 L99.73 595.13" class="st11"/>
		</g>
		<g id="shape1056-418" v:mID="1056" v:groupContext="shape" v:layerMember="0" transform="translate(293.715,-357.742)">
			<title>Dynamic connector.1056</title>
			<path d="M0 561.11 L0 561.47 L0 573.43 L-84.04 573.43 L-84.04 595.13" class="st11"/>
		</g>
		<g id="shape1058-425" v:mID="1058" v:groupContext="shape" transform="translate(389.417,-213.82)">
			<title>Nordic Blue.1058</title>
			<path d="M0 554.43 L78.6 554.43 L78.6 450.65 L0 450.65 L0 554.43 Z" class="st16"/>
		</g>
		<g id="shape1059-429" v:mID="1059" v:groupContext="shape" transform="translate(285.482,-213.82)">
			<title>Nordic Blue.1059</title>
			<path d="M0 554.43 L78.6 554.43 L78.6 450.65 L0 450.65 L0 554.43 Z" class="st16"/>
		</g>
		<g id="shape1063-433" v:mID="1063" v:groupContext="shape" v:layerMember="0" transform="translate(36.394,-191.334)">
			<title>Dynamic connector.1063</title>
			<path d="M0 547.75 L0 547.39 L0 518.32 L173.28 518.32 L173.28 474.36" class="st11"/>
		</g>
		<g id="shape1068-440" v:mID="1068" v:groupContext="shape" v:layerMember="0" transform="translate(43.1483,-157.857)">
			<title>Dynamic connector.1068</title>
			<path d="M-6.91 561.1 L-6.92 561.46 L-7.26 575.95" class="st11"/>
		</g>
		<g id="shape1069-447" v:mID="1069" v:groupContext="shape" v:layerMember="0" transform="translate(91.9775,-158.646)">
			<title>Dynamic connector.1069</title>
			<path d="M-7.04 561.11 L-7.04 561.47 L-7.13 576.74" class="st11"/>
		</g>
		<g id="shape1070-454" v:mID="1070" v:groupContext="shape" v:layerMember="0" transform="translate(277.303,-158.646)">
			<title>Dynamic connector.1070</title>
			<path d="M-7.04 561.11 L-7.04 561.47 L-7.14 576.74" class="st11"/>
		</g>
		<g id="shape1071-461" v:mID="1071" v:groupContext="shape" v:layerMember="0" transform="translate(163.442,-158.646)">
			<title>Dynamic connector.1071</title>
			<path d="M7 561.1 L7.01 561.46 L7.17 576.74" class="st11"/>
		</g>
		<g id="shape1072-468" v:mID="1072" v:groupContext="shape" v:layerMember="0" transform="translate(118.901,-158.646)">
			<title>Dynamic connector.1072</title>
			<path d="M7.04 561.11 L7.04 561.47 L7.13 576.74" class="st11"/>
		</g>
		<g id="shape1073-475" v:mID="1073" v:groupContext="shape" v:layerMember="0" transform="translate(248.97,-301.178)">
			<title>Dynamic connector.1073</title>
			<path d="M6.68 561.42 L7.04 561.43 L36.31 561.6" class="st11"/>
		</g>
		<g id="shape1074-482" v:mID="1074" v:groupContext="shape" transform="translate(388.643,-350.748)">
			<title>Sheet.1074</title>
			<desc>PPR</desc>
			<v:textBlock v:margins="rect(4,4,4,4)" v:tabSpace="42.5197"/>
			<v:textRect cx="19.8425" cy="548.756" width="39.69" height="11.3386"/>
			<rect x="0" y="543.087" width="39.685" height="11.3386" class="st14"/>
			<text x="4" y="551.16" class="st15" v:langID="1033"><v:paragraph/><v:tabList/>PPR</text>		</g>
		<g id="shape1075-485" v:mID="1075" v:groupContext="shape" transform="translate(7.87096,-542.087)">
			<title>Sheet.1075</title>
			<desc>APP</desc>
			<v:textBlock v:margins="rect(4,4,4,4)" v:tabSpace="42.5197"/>
			<v:textRect cx="19.8425" cy="548.756" width="39.69" height="11.3386"/>
			<rect x="0" y="543.087" width="39.685" height="11.3386" class="st14"/>
			<text x="4" y="551.16" class="st15" v:langID="1044"><v:paragraph/><v:tabList/>APP</text>		</g>
		<g id="shape1076-488" v:mID="1076" v:groupContext="shape" v:layerMember="0" transform="translate(364.077,-257.973)">
			<title>Dynamic connector.1076</title>
			<path d="M6.68 547.44 L7.04 547.44 L18.3 547.24" class="st11"/>
		</g>
		<g id="shape1077-495" v:mID="1077" v:groupContext="shape" v:layerMember="0" transform="translate(461.17,-287.269)">
			<title>Dynamic connector.1077</title>
			<path d="M6.68 547.34 L7.04 547.34 L11.78 547.34" class="st11"/>
		</g>
		<g id="shape1078-502" v:mID="1078" v:groupContext="shape" v:layerMember="0" transform="translate(244.304,-357.742)">
			<title>Dynamic connector.1078</title>
			<path d="M0 561.11 L0 561.47 L0 573.43 L-34.63 573.43 L-34.63 595.13" class="st11"/>
		</g>
		<g id="shape1079-509" v:mID="1079" v:groupContext="shape" v:layerMember="0" transform="translate(209.673,-310.001)">
			<title>Dynamic connector.1079</title>
			<path d="M0 547.75 L0 547.39 L0 525.69 L129.36 525.69 L129.36 513.72" class="st11"/>
		</g>
		<g id="shape1080-516" v:mID="1080" v:groupContext="shape" v:layerMember="0" transform="translate(84.9806,-190.805)">
			<title>Dynamic connector.1080</title>
			<path d="M0 547.75 L0 547.39 L0 517.79 L124.69 517.79 L124.69 473.83" class="st11"/>
		</g>
		<g id="shape1081-523" v:mID="1081" v:groupContext="shape" v:layerMember="0" transform="translate(125.903,-190.805)">
			<title>Dynamic connector.1081</title>
			<path d="M0 547.75 L0 547.39 L0 517.79 L83.77 517.79 L83.77 473.83" class="st11"/>
		</g>
		<g id="shape1082-530" v:mID="1082" v:groupContext="shape" v:layerMember="0" transform="translate(170.723,-190.805)">
			<title>Dynamic connector.1082</title>
			<path d="M0 547.75 L0 547.39 L0 517.79 L38.95 517.79 L38.95 473.83" class="st11"/>
		</g>
		<g id="shape1083-537" v:mID="1083" v:groupContext="shape" v:layerMember="0" transform="translate(222.176,-190.805)">
			<title>Dynamic connector.1083</title>
			<path d="M-1.67 547.75 L-1.67 547.39 L-1.67 517.67 L-12.5 517.67 L-12.5 473.83" class="st11"/>
		</g>
	</g>
</svg>
