<?xml version="1.0" encoding="UTF-8" standalone="no"?>
<!DOCTYPE svg PUBLIC "-//W3C//DTD SVG 1.1//EN" "http://www.w3.org/Graphics/SVG/1.1/DTD/svg11.dtd">
<!-- Generated by Microsoft Visio, SVG Export ml_app_architecture.svg Page-1 -->
<svg xmlns="http://www.w3.org/2000/svg" xmlns:xlink="http://www.w3.org/1999/xlink" xmlns:ev="http://www.w3.org/2001/xml-events"
		xmlns:v="http://schemas.microsoft.com/visio/2003/SVGExtensions/" width="7.70657in" height="6.79777in"
		viewBox="0 0 554.873 489.44" xml:space="preserve" color-interpolation-filters="sRGB" class="st17">
	<v:documentProperties v:langID="1035" v:viewMarkup="false"/>

	<style type="text/css">
	<![CDATA[
		.st1 {fill:#d9e1e2;marker-end:url(#mrkr4-6);marker-start:url(#mrkr4-4);stroke:none;stroke-width:1}
		.st2 {fill:#333f48;fill-opacity:1;stroke:#333f48;stroke-opacity:1;stroke-width:0.28409090909091}
		.st3 {fill:#00a9ce;marker-end:url(#mrkr4-12);marker-start:url(#mrkr4-10);stroke:none;stroke-width:1}
		.st4 {fill:#feffff;fill-opacity:1;stroke:#feffff;stroke-opacity:1;stroke-width:0.28409090909091}
		.st5 {fill:#ffffff;font-family:Arial;font-size:0.75em}
		.st6 {font-size:1em}
		.st7 {fill:#0033a0;marker-end:url(#mrkr4-12);marker-start:url(#mrkr4-10);stroke:none;stroke-width:1}
		.st8 {marker-end:url(#mrkr4-6);marker-start:url(#mrkr4-55);stroke:#333f48;stroke-linecap:butt;stroke-width:1}
		.st9 {fill:#333f48;marker-end:url(#mrkr4-12);marker-start:url(#mrkr4-10);stroke:none;stroke-width:1}
		.st10 {fill:#768692;marker-end:url(#mrkr4-12);marker-start:url(#mrkr4-10);stroke:none;stroke-width:1}
		.st11 {fill:none;marker-end:url(#mrkr4-255);marker-start:url(#mrkr4-253);stroke:#768692;stroke-width:1}
		.st12 {fill:#768692;fill-opacity:1;stroke:#768692;stroke-opacity:1;stroke-width:0.28409090909091}
		.st13 {fill:none;marker-end:url(#mrkr4-12);marker-start:url(#mrkr4-10);stroke:none;stroke-width:1}
		.st14 {fill:#333f48;font-family:Arial;font-size:0.75em}
		.st15 {fill:none;stroke:#768692;stroke-dasharray:7,5;stroke-width:1}
		.st16 {fill:#768692;font-family:Arial;font-size:0.75em}
		.st17 {fill:none;fill-rule:evenodd;font-size:12px;overflow:visible;stroke-linecap:square;stroke-miterlimit:3}
	]]>
	</style>

	<defs id="Markers">
		<g id="lend4">
			<path d="M 2 1 L 0 0 L 2 -1 L 2 1 " style="stroke:none"/>
		</g>
		<marker id="mrkr4-4" class="st2" v:arrowType="4" v:arrowSize="2" v:setback="7.04" refX="7.04" orient="auto"
				markerUnits="strokeWidth" overflow="visible">
			<use xlink:href="#lend4" transform="scale(3.52) "/>
		</marker>
		<marker id="mrkr4-6" class="st2" v:arrowType="4" v:arrowSize="2" v:setback="7.04" refX="-7.04" orient="auto"
				markerUnits="strokeWidth" overflow="visible">
			<use xlink:href="#lend4" transform="scale(-3.52,-3.52) "/>
		</marker>
		<marker id="mrkr4-10" class="st4" v:arrowType="4" v:arrowSize="2" v:setback="7.04" refX="7.04" orient="auto"
				markerUnits="strokeWidth" overflow="visible">
			<use xlink:href="#lend4" transform="scale(3.52) "/>
		</marker>
		<marker id="mrkr4-12" class="st4" v:arrowType="4" v:arrowSize="2" v:setback="7.04" refX="-7.04" orient="auto"
				markerUnits="strokeWidth" overflow="visible">
			<use xlink:href="#lend4" transform="scale(-3.52,-3.52) "/>
		</marker>
		<marker id="mrkr4-55" class="st2" v:arrowType="4" v:arrowSize="2" v:setback="6.68" refX="6.68" orient="auto"
				markerUnits="strokeWidth" overflow="visible">
			<use xlink:href="#lend4" transform="scale(3.52) "/>
		</marker>
		<marker id="mrkr4-253" class="st12" v:arrowType="4" v:arrowSize="2" v:setback="7.04" refX="7.04" orient="auto"
				markerUnits="strokeWidth" overflow="visible">
			<use xlink:href="#lend4" transform="scale(3.52) "/>
		</marker>
		<marker id="mrkr4-255" class="st12" v:arrowType="4" v:arrowSize="2" v:setback="7.04" refX="-7.04" orient="auto"
				markerUnits="strokeWidth" overflow="visible">
			<use xlink:href="#lend4" transform="scale(-3.52,-3.52) "/>
		</marker>
	</defs>
	<g v:mID="0" v:index="1" v:groupContext="foregroundPage">
		<title>Page-1</title>
		<v:pageProperties v:drawingScale="0.0393701" v:pageScale="0.0393701" v:drawingUnits="24" v:shadowOffsetX="8.50394"
				v:shadowOffsetY="-8.50394"/>
		<v:layer v:name="Connector" v:index="0"/>
		<g id="shape99-1" v:mID="99" v:groupContext="shape" transform="translate(202.486,-407.086)">
			<title>Sheet.99</title>
			<rect x="0" y="414.957" width="316.28" height="74.4828" class="st1"/>
		</g>
		<g id="shape100-7" v:mID="100" v:groupContext="shape" transform="translate(35.1673,-126.669)">
			<title>Nordic Blue</title>
			<desc>Sensor simulation control</desc>
			<v:textBlock v:margins="rect(4,4,4,4)"/>
			<v:textRect cx="42.2492" cy="475.975" width="84.5" height="26.9291"/>
			<rect x="0" y="462.51" width="84.4984" height="26.9291" class="st3"/>
			<text x="6.48" y="473.28" class="st5" v:langID="1033"><v:paragraph v:horizAlign="1" v:bulletSize="0.166667"/><v:tabList/>Sensor simulation <tspan
						x="28.74" dy="1.2em" class="st6">control</tspan></text>		</g>
		<g id="shape101-15" v:mID="101" v:groupContext="shape" transform="translate(187.335,-126.669)">
			<title>Nordic Blue.136</title>
			<desc>CAF LEDs</desc>
			<v:textBlock v:margins="rect(4,4,4,4)"/>
			<v:textRect cx="21.1884" cy="475.975" width="42.38" height="26.9291"/>
			<rect x="0" y="462.51" width="42.3769" height="26.9291" class="st3"/>
			<text x="12.19" y="473.28" class="st5" v:langID="1044"><v:paragraph v:horizAlign="1" v:bulletSize="0.166667"/><v:tabList/>CAF <tspan
						x="10.18" dy="1.2em" class="st6" v:langID="1033">LEDs</tspan></text>		</g>
		<g id="shape102-21" v:mID="102" v:groupContext="shape" transform="translate(67.0774,-292.429)">
			<title>Nordic Blue.137</title>
			<desc>LED state</desc>
			<v:textBlock v:margins="rect(4,4,4,4)"/>
			<v:textRect cx="25.5295" cy="475.975" width="51.06" height="26.9291"/>
			<rect x="0" y="462.51" width="51.059" height="26.9291" class="st3"/>
			<text x="5.77" y="478.68" class="st5" v:langID="1033"><v:paragraph v:horizAlign="1" v:bulletSize="0.166667"/><v:tabList/>LED state</text>		</g>
		<g id="shape103-26" v:mID="103" v:groupContext="shape" transform="translate(129.301,-292.429)">
			<title>Nordic Blue.138</title>
			<desc>ML state</desc>
			<v:textBlock v:margins="rect(4,4,4,4)"/>
			<v:textRect cx="23.9864" cy="475.975" width="47.98" height="26.9291"/>
			<rect x="0" y="462.51" width="47.9727" height="26.9291" class="st3"/>
			<text x="6.73" y="478.68" class="st5" v:langID="1033"><v:paragraph v:horizAlign="1" v:bulletSize="0.166667"/><v:tabList/>ML state</text>		</g>
		<g id="shape104-31" v:mID="104" v:groupContext="shape" transform="translate(299.155,-126.669)">
			<title>Nordic Blue.139</title>
			<desc>CAF Click detector</desc>
			<v:textBlock v:margins="rect(4,4,4,4)"/>
			<v:textRect cx="30.7357" cy="475.975" width="61.48" height="26.9291"/>
			<rect x="0" y="462.51" width="61.4714" height="26.9291" class="st3"/>
			<text x="10.74" y="473.28" class="st5" v:langID="1044"><v:paragraph v:horizAlign="1" v:bulletSize="0.166667"/><v:tabList/>CAF <tspan
						class="st6" v:langID="1033">Click </tspan><tspan x="14.48" dy="1.2em" class="st6" v:langID="1033">detector</tspan></text>		</g>
		<g id="shape105-38" v:mID="105" v:groupContext="shape" transform="translate(127.79,-126.669)">
			<title>Nordic Blue.141</title>
			<desc>ML runner</desc>
			<v:textBlock v:margins="rect(4,4,4,4)"/>
			<v:textRect cx="25.5295" cy="475.975" width="51.06" height="26.9291"/>
			<rect x="0" y="462.51" width="51.059" height="26.9291" class="st3"/>
			<text x="5.02" y="478.68" class="st5" v:langID="1033"><v:paragraph v:horizAlign="1" v:bulletSize="0.166667"/><v:tabList/>ML runner</text>		</g>
		<g id="shape106-43" v:mID="106" v:groupContext="shape" transform="translate(188.439,-196.011)">
			<title>Nordic Blueslate.142</title>
			<desc>Application Event Manager</desc>
			<v:textBlock v:margins="rect(4,4,4,4)"/>
			<v:textRect cx="68.0315" cy="462.119" width="136.07" height="54.6402"/>
			<rect x="0" y="434.799" width="136.063" height="54.6402" class="st7"/>
			<text x="46.02" y="459.42" class="st5" v:langID="1033"><v:paragraph v:horizAlign="1" v:bulletSize="0.166667"/><v:tabList/>Application<v:newlineChar/><tspan
						x="37.51" dy="1.2em" class="st6">Event Manager</tspan></text>		</g>
		<g id="shape107-49" v:mID="107" v:groupContext="shape" v:layerMember="0" transform="translate(329.891,-153.598)">
			<title>Dynamic connector.145</title>
			<path d="M0 482.76 L0 482.4 L0 469.34 L-73.42 469.34 L-73.42 454.07" class="st8"/>
		</g>
		<g id="shape108-57" v:mID="108" v:groupContext="shape" v:layerMember="0" transform="translate(208.524,-153.598)">
			<title>Dynamic connector.150</title>
			<path d="M0 482.76 L0 482.4 L0 469.34 L47.95 469.34 L47.95 454.07" class="st8"/>
		</g>
		<g id="shape109-64" v:mID="109" v:groupContext="shape" v:layerMember="0" transform="translate(153.319,-153.598)">
			<title>Dynamic connector.151</title>
			<path d="M0 482.76 L0 482.4 L0 469.34 L103.15 469.34 L103.15 454.07" class="st8"/>
		</g>
		<g id="shape110-71" v:mID="110" v:groupContext="shape" v:layerMember="0" transform="translate(77.4165,-153.598)">
			<title>Dynamic connector.152</title>
			<path d="M0 482.76 L0 482.4 L0 469.34 L179.05 469.34 L179.05 454.07" class="st8"/>
		</g>
		<g id="shape111-78" v:mID="111" v:groupContext="shape" transform="translate(111.573,-7.87096)">
			<title>Nordic Middle Grey.154</title>
			<desc>Edge Impulse C++ library</desc>
			<v:textBlock v:margins="rect(4,4,4,4)"/>
			<v:textRect cx="38.8283" cy="471.444" width="77.66" height="35.991"/>
			<rect x="0" y="453.449" width="77.6565" height="35.991" class="st9"/>
			<text x="11.31" y="468.74" class="st5" v:langID="1033"><v:paragraph v:horizAlign="1" v:bulletSize="0.166667"/><v:tabList/>Edge Impulse <tspan
						x="16.82" dy="1.2em" class="st6">C++ library</tspan></text>		</g>
		<g id="shape112-84" v:mID="112" v:groupContext="shape" transform="translate(119.666,-70.7911)">
			<title>Nordic Middle Grey.155</title>
			<desc>EI wrapper</desc>
			<v:textBlock v:margins="rect(4,4,4,4)"/>
			<v:textRect cx="30.7357" cy="475.975" width="61.48" height="26.9291"/>
			<rect x="0" y="462.51" width="61.4714" height="26.9291" class="st3"/>
			<text x="8.98" y="478.68" class="st5" v:langID="1033"><v:paragraph v:horizAlign="1" v:bulletSize="0.166667"/><v:tabList/>EI wrapper</text>		</g>
		<g id="shape113-89" v:mID="113" v:groupContext="shape" transform="translate(240.438,-126.669)">
			<title>Nordic Blue.160</title>
			<desc>CAF Buttons</desc>
			<v:textBlock v:margins="rect(4,4,4,4)"/>
			<v:textRect cx="25.5295" cy="475.975" width="51.06" height="26.9291"/>
			<rect x="0" y="462.51" width="51.059" height="26.9291" class="st3"/>
			<text x="16.53" y="473.28" class="st5" v:langID="1044"><v:paragraph v:horizAlign="1" v:bulletSize="0.166667"/><v:tabList/>CAF <tspan
						x="10.27" dy="1.2em" class="st6" v:langID="1033">Buttons</tspan></text>		</g>
		<g id="shape114-95" v:mID="114" v:groupContext="shape" transform="translate(367.006,-124.036)">
			<title>Nordic Blue.114</title>
			<desc>CAF Sensor manager</desc>
			<v:textBlock v:margins="rect(4,4,4,4)"/>
			<v:textRect cx="30.7357" cy="474.659" width="61.48" height="29.5616"/>
			<rect x="0" y="459.878" width="61.4714" height="29.5616" class="st3"/>
			<text x="6.23" y="471.96" class="st5" v:langID="1044"><v:paragraph v:horizAlign="1" v:bulletSize="0.166667"/><v:tabList/>CAF <tspan
						class="st6" v:langID="1033">Sensor </tspan><tspan x="12.98" dy="1.2em" class="st6" v:langID="1033">manager</tspan></text>		</g>
		<g id="shape115-102" v:mID="115" v:groupContext="shape" v:layerMember="0" transform="translate(268.306,-153.598)">
			<title>Dynamic connector.81</title>
			<path d="M-2.34 482.76 L-2.34 482.4 L-2.34 469.34 L-11.83 469.34 L-11.83 454.07" class="st8"/>
		</g>
		<g id="shape116-109" v:mID="116" v:groupContext="shape" transform="translate(240.438,-70.7911)">
			<title>Nordic Blue.186</title>
			<desc>GPIO driver</desc>
			<v:textBlock v:margins="rect(4,4,4,4)"/>
			<v:textRect cx="25.5295" cy="475.975" width="51.06" height="26.9291"/>
			<rect x="0" y="462.51" width="51.059" height="26.9291" class="st10"/>
			<text x="14.28" y="473.28" class="st5" v:langID="1035"><v:paragraph v:horizAlign="1" v:bulletSize="0.166667"/><v:tabList/>GPIO <tspan
						x="14.28" dy="1.2em" class="st6">driver</tspan></text>		</g>
		<g id="shape117-115" v:mID="117" v:groupContext="shape" transform="translate(188.439,-293.065)">
			<title>Nordic Blue.198</title>
			<desc>EI data forwarder</desc>
			<v:textBlock v:margins="rect(4,4,4,4)"/>
			<v:textRect cx="25.5295" cy="475.975" width="51.06" height="26.9291"/>
			<rect x="0" y="462.51" width="51.059" height="26.9291" class="st3"/>
			<text x="11.27" y="473.28" class="st5" v:langID="1033"><v:paragraph v:horizAlign="1" v:bulletSize="0.166667"/><v:tabList/>EI data <tspan
						x="6.52" dy="1.2em" class="st6">forwarder</tspan></text>		</g>
		<g id="shape118-121" v:mID="118" v:groupContext="shape" transform="translate(400.452,-293.065)">
			<title>Nordic Blue.199</title>
			<desc>CAF State</desc>
			<v:textBlock v:margins="rect(4,4,4,4)"/>
			<v:textRect cx="28.0251" cy="475.975" width="56.06" height="26.9291"/>
			<rect x="0" y="462.51" width="56.0503" height="26.9291" class="st3"/>
			<text x="7.27" y="478.68" class="st5" v:langID="1044"><v:paragraph v:horizAlign="1" v:bulletSize="0.166667"/><v:tabList/>CAF State</text>		</g>
		<g id="shape119-126" v:mID="119" v:groupContext="shape" transform="translate(329.891,-293.065)">
			<title>Nordic Blue.200</title>
			<desc>CAF advertising</desc>
			<v:textBlock v:margins="rect(4,4,4,4)"/>
			<v:textRect cx="32.8557" cy="475.975" width="65.72" height="26.9291"/>
			<rect x="0" y="462.51" width="65.7113" height="26.9291" class="st3"/>
			<text x="23.86" y="473.28" class="st5" v:langID="1044"><v:paragraph v:horizAlign="1" v:bulletSize="0.166667"/><v:tabList/>CAF<tspan
						class="st6" v:langID="1033"> </tspan><tspan x="11.09" dy="1.2em" class="st6">advertising</tspan></text>		</g>
		<g id="shape120-133" v:mID="120" v:groupContext="shape" transform="translate(188.439,-346.263)">
			<title>Nordic Blue.201</title>
			<desc>UART driver</desc>
			<v:textBlock v:margins="rect(4,4,4,4)"/>
			<v:textRect cx="25.5295" cy="478.15" width="51.06" height="22.5794"/>
			<rect x="0" y="466.86" width="51.059" height="22.5794" class="st10"/>
			<text x="13.28" y="475.45" class="st5" v:langID="1033"><v:paragraph v:horizAlign="1" v:bulletSize="0.166667"/><v:tabList/>UART <tspan
						x="14.28" dy="1.2em" class="st6">driver</tspan></text>		</g>
		<g id="shape121-139" v:mID="121" v:groupContext="shape" transform="translate(247.399,-346.923)">
			<title>Nordic Blue.202</title>
			<desc>NUS</desc>
			<v:textBlock v:margins="rect(4,4,4,4)"/>
			<v:textRect cx="25.5295" cy="478.426" width="51.06" height="22.028"/>
			<rect x="0" y="467.412" width="51.059" height="22.028" class="st3"/>
			<text x="16.03" y="481.13" class="st5" v:langID="1033"><v:paragraph v:horizAlign="1" v:bulletSize="0.166667"/><v:tabList/>NUS</text>		</g>
		<g id="shape122-144" v:mID="122" v:groupContext="shape" transform="translate(210.99,-437.703)">
			<title>Nordic Blue.203</title>
			<desc>Nordic proprietary Bluetooth® LE Link layer</desc>
			<v:textBlock v:margins="rect(4,4,4,4)"/>
			<v:textRect cx="73.5566" cy="471.085" width="147.12" height="36.7084"/>
			<rect x="0" y="452.731" width="147.113" height="36.7084" class="st3"/>
			<text x="7.46" y="468.39" class="st5" v:langID="1033"><v:paragraph v:horizAlign="1" v:bulletSize="0.166667"/><v:tabList/>Nordic proprietary Bluetooth® LE <tspan
						x="54.3" dy="1.2em" class="st6">Link layer</tspan></text>		</g>
		<g id="shape123-150" v:mID="123" v:groupContext="shape" transform="translate(364.061,-437.703)">
			<title>Nordic Blue.205</title>
			<desc>Zephyr SW Bluetooth® LE Link layer</desc>
			<v:textBlock v:margins="rect(4,4,4,4)"/>
			<v:textRect cx="73.5566" cy="471.085" width="147.12" height="36.7084"/>
			<rect x="0" y="452.731" width="147.113" height="36.7084" class="st10"/>
			<text x="51.05" y="468.39" class="st5" v:langID="1033"><v:paragraph v:horizAlign="1" v:bulletSize="0.166667"/><v:tabList/>Zephyr SW<v:newlineChar/><tspan
						x="23.96" dy="1.2em" class="st6">Bluetooth® LE Link layer</tspan></text>		</g>
		<g id="shape124-156" v:mID="124" v:groupContext="shape" transform="translate(210.99,-414.995)">
			<title>Nordic Blue.206</title>
			<desc>Host layer</desc>
			<v:textBlock v:margins="rect(4,4,4,4)"/>
			<v:textRect cx="150.092" cy="480.263" width="300.19" height="18.3542"/>
			<rect x="0" y="471.085" width="300.184" height="18.3542" class="st10"/>
			<text x="129.84" y="482.96" class="st5" v:langID="1033"><v:paragraph v:horizAlign="1" v:bulletSize="0.166667"/><v:tabList/>Host layer</text>		</g>
		<g id="shape125-161" v:mID="125" v:groupContext="shape" transform="translate(46.6808,-70.7911)">
			<title>Nordic Middle Grey.209</title>
			<desc>Sensor simulator</desc>
			<v:textBlock v:margins="rect(4,4,4,4)"/>
			<v:textRect cx="30.7357" cy="475.975" width="61.48" height="26.9291"/>
			<rect x="0" y="462.51" width="61.4714" height="26.9291" class="st3"/>
			<text x="16.48" y="473.28" class="st5" v:langID="1033"><v:paragraph v:horizAlign="1" v:bulletSize="0.166667"/><v:tabList/>Sensor <tspan
						x="12.48" dy="1.2em" class="st6">simulator</tspan></text>		</g>
		<g id="shape126-167" v:mID="126" v:groupContext="shape" transform="translate(187.335,-70.7911)">
			<title>Nordic Middle Grey.210</title>
			<desc>LED driver</desc>
			<v:textBlock v:margins="rect(4,4,4,4)"/>
			<v:textRect cx="21.1884" cy="475.975" width="42.38" height="26.9291"/>
			<rect x="0" y="462.51" width="42.3769" height="26.9291" class="st10"/>
			<text x="12.43" y="473.28" class="st5" v:langID="1035"><v:paragraph v:horizAlign="1" v:bulletSize="0.166667"/><v:tabList/>LED <tspan
						x="9.94" dy="1.2em" class="st6">driver</tspan></text>		</g>
		<g id="shape127-173" v:mID="127" v:groupContext="shape" transform="translate(367.006,-70.7911)">
			<title>Nordic Blue.212</title>
			<desc>Sensor driver</desc>
			<v:textBlock v:margins="rect(4,4,4,4)"/>
			<v:textRect cx="30.7357" cy="475.975" width="61.48" height="26.9291"/>
			<rect x="0" y="462.51" width="61.4714" height="26.9291" class="st10"/>
			<text x="16.48" y="473.28" class="st5" v:langID="1033"><v:paragraph v:horizAlign="1" v:bulletSize="0.166667"/><v:tabList/>Sensor <tspan
						x="19.48" dy="1.2em" class="st6">driver</tspan></text>		</g>
		<g id="shape128-179" v:mID="128" v:groupContext="shape" v:layerMember="0" transform="translate(239.498,-306.529)">
			<title>Dynamic connector.96</title>
			<path d="M6.68 489.44 L7.04 489.44 L33.43 489.44 L33.43 456.09" class="st8"/>
		</g>
		<g id="shape129-186" v:mID="129" v:groupContext="shape" v:layerMember="0" transform="translate(153.288,-292.429)">
			<title>Dynamic connector.217</title>
			<path d="M0 496.12 L0 496.48 L0 508.45 L103.18 508.45 L103.18 524.18" class="st8"/>
		</g>
		<g id="shape130-193" v:mID="130" v:groupContext="shape" v:layerMember="0" transform="translate(92.6069,-292.429)">
			<title>Dynamic connector.218</title>
			<path d="M0 496.12 L0 496.48 L0 508.45 L163.86 508.45 L163.86 524.18" class="st8"/>
		</g>
		<g id="shape131-200" v:mID="131" v:groupContext="shape" v:layerMember="0" transform="translate(362.746,-293.065)">
			<title>Dynamic connector.219</title>
			<path d="M0 496.12 L0 496.48 L0 509.08 L-106.28 509.08 L-106.28 525.45" class="st8"/>
		</g>
		<g id="shape132-207" v:mID="132" v:groupContext="shape" v:layerMember="0" transform="translate(428.477,-293.065)">
			<title>Dynamic connector.220</title>
			<path d="M0 496.12 L0 496.48 L0 509.08 L-172.01 509.08 L-172.01 525.45" class="st8"/>
		</g>
		<g id="shape133-214" v:mID="133" v:groupContext="shape" v:layerMember="0" transform="translate(397.742,-153.598)">
			<title>Dynamic connector.221</title>
			<path d="M0 482.76 L0 482.4 L0 469.34 L-141.27 469.34 L-141.27 454.07" class="st8"/>
		</g>
		<g id="shape134-221" v:mID="134" v:groupContext="shape" v:layerMember="0" transform="translate(390.655,-97.7202)">
			<title>Dynamic connector.222</title>
			<path d="M7.09 482.76 L7.09 482.4 L7.09 470.16" class="st8"/>
		</g>
		<g id="shape135-228" v:mID="135" v:groupContext="shape" v:layerMember="0" transform="translate(258.881,-97.7202)">
			<title>Dynamic connector.223</title>
			<path d="M7.09 482.76 L7.09 482.4 L7.09 467.53" class="st8"/>
		</g>
		<g id="shape137-235" v:mID="137" v:groupContext="shape" v:layerMember="0" transform="translate(70.3299,-97.7202)">
			<title>Dynamic connector.226</title>
			<path d="M7.09 482.76 L7.09 482.4 L7.09 467.53" class="st8"/>
		</g>
		<g id="shape138-242" v:mID="138" v:groupContext="shape" v:layerMember="0" transform="translate(143.315,-43.862)">
			<title>Dynamic connector.227</title>
			<path d="M7.09 482.76 L7.09 482.4 L7.09 469.55" class="st8"/>
		</g>
		<g id="group141-249" transform="translate(10.7056,-426.619)" v:mID="141" v:groupContext="group">
			<title>Sheet.141</title>
			<g id="shape142-250" v:mID="142" v:groupContext="shape">
				<title>Nordic Light Grey.2333</title>
				<rect x="0" y="434.799" width="80.4521" height="54.6402" class="st11"/>
			</g>
			<g id="shape143-256" v:mID="143" v:groupContext="shape" transform="translate(4.89191,-36.2259)">
				<title>Nordic Blue.1617</title>
				<rect x="0" y="476.612" width="15.4576" height="12.8281" class="st3"/>
			</g>
			<g id="shape144-260" v:mID="144" v:groupContext="shape" transform="translate(20.3495,-36.2259)">
				<title>Sheet.144</title>
				<desc>NCS</desc>
				<v:textBlock v:margins="rect(4,4,4,4)" v:tabSpace="42.5197"/>
				<v:textRect cx="27.175" cy="483.026" width="54.35" height="12.8281"/>
				<rect x="0" y="476.612" width="54.3499" height="12.8281" class="st13"/>
				<text x="4" y="485.73" class="st14" v:langID="1033"><v:paragraph/><v:tabList/>NCS</text>			</g>
			<g id="shape145-265" v:mID="145" v:groupContext="shape" transform="translate(4.89191,-20.9061)">
				<title>Nordic Blue.1618</title>
				<rect x="0" y="476.612" width="15.4576" height="12.8281" class="st10"/>
			</g>
			<g id="shape146-269" v:mID="146" v:groupContext="shape" transform="translate(20.3495,-20.9061)">
				<title>Sheet.146</title>
				<desc>Zephyr</desc>
				<v:textBlock v:margins="rect(4,4,4,4)" v:tabSpace="42.5197"/>
				<v:textRect cx="27.175" cy="483.026" width="54.35" height="12.8281"/>
				<rect x="0" y="476.612" width="54.3499" height="12.8281" class="st13"/>
				<text x="4" y="485.73" class="st14" v:langID="1033"><v:paragraph/><v:tabList/>Zephyr</text>			</g>
			<g id="shape147-274" v:mID="147" v:groupContext="shape" transform="translate(4.89191,-5.58627)">
				<title>Nordic Blue.2341</title>
				<rect x="0" y="476.612" width="15.4576" height="12.8281" class="st9"/>
			</g>
			<g id="shape148-278" v:mID="148" v:groupContext="shape" transform="translate(20.3495,-5.58627)">
				<title>Sheet.148</title>
				<desc>Other</desc>
				<v:textBlock v:margins="rect(4,4,4,4)" v:tabSpace="42.5197"/>
				<v:textRect cx="27.175" cy="483.026" width="54.35" height="12.8281"/>
				<rect x="0" y="476.612" width="54.3499" height="12.8281" class="st13"/>
				<text x="4" y="485.73" class="st14" v:langID="1033"><v:paragraph/><v:tabList/>Other</text>			</g>
		</g>
		<g id="shape149-283" v:mID="149" v:groupContext="shape" transform="translate(434.395,-126.669)">
			<title>Nordic Blue.125</title>
			<desc>CAF Power Manager</desc>
			<v:textBlock v:margins="rect(4,4,4,4)"/>
			<v:textRect cx="30.7357" cy="475.975" width="61.48" height="26.9291"/>
			<rect x="0" y="462.51" width="61.4714" height="26.9291" class="st3"/>
			<text x="7.73" y="473.28" class="st5" v:langID="1044"><v:paragraph v:horizAlign="1" v:bulletSize="0.166667"/><v:tabList/>CAF Power <tspan
						x="12.98" dy="1.2em" class="st6">Manager</tspan></text>		</g>
		<g id="shape151-289" v:mID="151" v:groupContext="shape" transform="translate(439.601,-70.7911)">
			<title>Nordic Blue.2193</title>
			<desc>OS power mgmt</desc>
			<v:textBlock v:margins="rect(4,4,4,4)"/>
			<v:textRect cx="25.5295" cy="475.975" width="51.06" height="26.9291"/>
			<rect x="0" y="462.51" width="51.059" height="26.9291" class="st10"/>
			<text x="5.52" y="473.28" class="st5" v:langID="1033"><v:paragraph v:horizAlign="1" v:bulletSize="0.166667"/><v:tabList/>OS power <tspan
						x="14.28" dy="1.2em" class="st6">mgmt</tspan></text>		</g>
		<g id="shape155-295" v:mID="155" v:groupContext="shape" v:layerMember="0" transform="translate(143.315,-97.7202)">
			<title>Dynamic connector.135</title>
			<path d="M7.09 482.76 L7.09 482.4 L7.09 467.53" class="st8"/>
		</g>
		<g id="shape157-302" v:mID="157" v:groupContext="shape" v:layerMember="0" transform="translate(465.13,-153.598)">
			<title>Dynamic connector</title>
			<path d="M0 482.76 L0 482.4 L0 469.34 L-208.66 469.34 L-208.66 454.07" class="st8"/>
		</g>
		<g id="shape159-309" v:mID="159" v:groupContext="shape" v:layerMember="0" transform="translate(458.044,-97.7202)">
			<title>Dynamic connector.158</title>
			<path d="M7.09 482.76 L7.09 482.4 L7.09 467.53" class="st8"/>
		</g>
		<g id="shape160-316" v:mID="160" v:groupContext="shape" v:layerMember="0" transform="translate(206.882,-319.994)">
			<title>Dynamic connector.159</title>
			<path d="M7.09 482.76 L7.09 482.4 L7.09 470.21" class="st8"/>
		</g>
		<g id="shape161-323" v:mID="161" v:groupContext="shape" transform="translate(460.923,-293.065)">
			<title>Nordic Blue.162</title>
			<desc>CAF SMP</desc>
			<v:textBlock v:margins="rect(4,4,4,4)"/>
			<v:textRect cx="23.9864" cy="475.975" width="47.98" height="26.9291"/>
			<rect x="0" y="462.51" width="47.9727" height="26.9291" class="st3"/>
			<text x="14.99" y="473.28" class="st5" v:langID="1044"><v:paragraph v:horizAlign="1" v:bulletSize="0.166667"/><v:tabList/>CAF <tspan
						x="14.23" dy="1.2em" class="st6">SMP</tspan></text>		</g>
		<g id="shape162-329" v:mID="162" v:groupContext="shape" v:layerMember="0" transform="translate(484.909,-293.065)">
			<title>Dynamic connector.163</title>
			<path d="M0 496.12 L0 496.48 L0 509.08 L-228.44 509.08 L-228.44 525.45" class="st8"/>
		</g>
		<g id="shape163-336" v:mID="163" v:groupContext="shape" transform="translate(450.979,-346.923)">
			<title>Nordic Blue.165</title>
			<desc>SMP Bluetooth</desc>
			<v:textBlock v:margins="rect(4,4,4,4)"/>
			<v:textRect cx="32.8557" cy="475.266" width="65.72" height="28.3465"/>
			<rect x="0" y="461.093" width="65.7113" height="28.3465" class="st10"/>
			<text x="23.1" y="472.57" class="st5" v:langID="1044"><v:paragraph v:horizAlign="1" v:bulletSize="0.166667"/><v:tabList/>SMP <tspan
						x="13.84" dy="1.2em" class="st6">Bluetooth</tspan></text>		</g>
		<g id="shape264-342" v:mID="264" v:groupContext="shape" v:layerMember="0" transform="translate(490.422,-346.923)">
			<title>Dynamic connector.264</title>
			<path d="M-6.96 496.12 L-6.97 496.48 L-7.2 509.33" class="st8"/>
		</g>
		<g id="shape267-349" v:mID="267" v:groupContext="shape" v:layerMember="0" transform="translate(475.365,-399.999)">
			<title>Dynamic connector.267</title>
		</g>
		<g id="shape290-350" v:mID="290" v:groupContext="shape" v:layerMember="0" transform="translate(476.279,-375.269)">
			<title>Dynamic connector.290</title>
			<path d="M7.09 482.76 L7.09 482.4 L7.09 464.66" class="st8"/>
		</g>
		<g id="shape300-357" v:mID="300" v:groupContext="shape" v:layerMember="0" transform="translate(215.61,-97.7202)">
			<title>Dynamic connector.300</title>
			<path d="M-7.09 482.76 L-7.09 482.4 L-7.09 467.53" class="st8"/>
		</g>
		<g id="shape301-364" v:mID="301" v:groupContext="shape" transform="translate(324.502,-283.391)">
			<title>Nordic Blue.2345</title>
			<path d="M0 489.44 L191.65 489.44 L191.65 443.16 L0 443.16 L0 489.44 Z" class="st15"/>
		</g>
		<g id="shape302-368" v:mID="302" v:groupContext="shape" transform="translate(324.184,-328.983)">
			<title>Sheet.302</title>
			<desc>Bluetooth® LE</desc>
			<v:textBlock v:margins="rect(4,4,4,4)" v:tabSpace="42.5197"/>
			<v:textRect cx="39.2921" cy="481.421" width="78.59" height="16.0377"/>
			<rect x="0" y="473.402" width="78.5842" height="16.0377" class="st13"/>
			<text x="10.21" y="484.12" class="st16" v:langID="1035"><v:paragraph v:horizAlign="1"/><v:tabList/>B<tspan class="st6"
						v:langID="1033">luetooth® </tspan>LE</text>		</g>
		<g id="shape303-374" v:mID="303" v:groupContext="shape" v:layerMember="0" transform="translate(421.739,-329.652)">
			<title>Dynamic connector.303</title>
			<path d="M6.63 482.76 L6.63 482.4 L7.54 419.05" class="st8"/>
		</g>
		<g id="shape309-381" v:mID="309" v:groupContext="shape" transform="translate(7.87096,-292.429)">
			<title>Nordic Blue.309</title>
			<desc>USB State</desc>
			<v:textBlock v:margins="rect(4,4,4,4)"/>
			<v:textRect cx="25.5295" cy="475.975" width="51.06" height="26.9291"/>
			<rect x="0" y="462.51" width="51.059" height="26.9291" class="st3"/>
			<text x="4.52" y="478.68" class="st5" v:langID="1044"><v:paragraph v:horizAlign="1" v:bulletSize="0.166667"/><v:tabList/>USB State</text>		</g>
		<g id="shape310-386" v:mID="310" v:groupContext="shape" v:layerMember="0" transform="translate(33.4004,-292.429)">
			<title>Dynamic connector.310</title>
			<path d="M0 496.12 L0 496.48 L0 508.45 L223.07 508.45 L223.07 524.18" class="st8"/>
		</g>
		<g id="shape311-393" v:mID="311" v:groupContext="shape" transform="translate(16.3749,-344.088)">
			<title>Nordic Blue.311</title>
			<desc>USB Stack</desc>
			<v:textBlock v:margins="rect(4,4,4,4)"/>
			<v:textRect cx="17.1543" cy="478.15" width="34.31" height="22.5794"/>
			<rect x="0" y="466.86" width="34.3085" height="22.5794" class="st10"/>
			<text x="7.9" y="475.45" class="st5" v:langID="1033"><v:paragraph v:horizAlign="1" v:bulletSize="0.166667"/><v:tabList/>USB <tspan
						x="5.9" dy="1.2em" class="st6" v:langID="1044">Stack</tspan></text>		</g>
		<g id="shape312-399" v:mID="312" v:groupContext="shape" transform="translate(16.3749,-391.398)">
			<title>Nordic Blue.312</title>
			<desc>USB driver</desc>
			<v:textBlock v:margins="rect(4,4,4,4)"/>
			<v:textRect cx="17.1543" cy="478.426" width="34.31" height="22.028"/>
			<rect x="0" y="467.412" width="34.3085" height="22.028" class="st10"/>
			<text x="7.9" y="475.73" class="st5" v:langID="1033"><v:paragraph v:horizAlign="1" v:bulletSize="0.166667"/><v:tabList/>USB <tspan
						x="5.9" dy="1.2em" class="st6" v:langID="1044">driver</tspan></text>		</g>
		<g id="shape313-405" v:mID="313" v:groupContext="shape" v:layerMember="0" transform="translate(26.3782,-319.359)">
			<title>Dynamic connector.313</title>
			<path d="M7.06 482.76 L7.06 482.4 L7.11 471.75" class="st8"/>
		</g>
		<g id="shape315-412" v:mID="315" v:groupContext="shape" v:layerMember="0" transform="translate(26.4425,-366.668)">
			<title>Dynamic connector.315</title>
			<path d="M7.09 482.76 L7.09 482.4 L7.09 471.75" class="st8"/>
		</g>
		<g id="shape317-419" v:mID="317" v:groupContext="shape" transform="translate(247.399,-375.269)">
			<title>Nordic Blue.317</title>
			<desc>NSMS</desc>
			<v:textBlock v:margins="rect(4,4,4,4)"/>
			<v:textRect cx="25.5295" cy="478.426" width="51.06" height="22.028"/>
			<rect x="0" y="467.412" width="51.059" height="22.028" class="st3"/>
			<text x="12.53" y="481.13" class="st5" v:langID="1044"><v:paragraph v:horizAlign="1" v:bulletSize="0.166667"/><v:tabList/>NSMS</text>		</g>
		<g id="shape319-424" v:mID="319" v:groupContext="shape" v:layerMember="0" transform="translate(153.288,-319.359)">
			<title>Dynamic connector.319</title>
			<path d="M0 482.76 L0 482.4 L0 422.51 L87.07 422.51" class="st8"/>
		</g>
		<g id="shape320-431" v:mID="320" v:groupContext="shape" v:layerMember="0" transform="translate(298.458,-357.937)">
			<title>Dynamic connector.320</title>
			<path d="M6.68 489.44 L7.04 489.44 L45.04 489.44 L45.04 447.33" class="st8"/>
		</g>
		<g id="shape322-438" v:mID="322" v:groupContext="shape" v:layerMember="0" transform="translate(298.458,-382.923)">
			<title>Dynamic connector.322</title>
			<path d="M6.68 489.44 L7.04 489.44 L21.22 489.44 L21.22 472.32" class="st8"/>
		</g>
		<g id="shape323-445" v:mID="323" v:groupContext="shape" v:layerMember="0" transform="translate(213.969,-293.065)">
			<title>Dynamic connector.323</title>
			<path d="M0 496.12 L0 496.48 L0 509.08 L42.5 509.08 L42.5 524.81" class="st8"/>
		</g>
	</g>
</svg>
