<?xml version="1.0" encoding="UTF-8" standalone="no"?>
<!DOCTYPE svg PUBLIC "-//W3C//DTD SVG 1.1//EN" "http://www.w3.org/Graphics/SVG/1.1/DTD/svg11.dtd">
<!-- Generated by Microsoft Visio, SVG Export architecture.svg Page-1 -->
<svg xmlns="http://www.w3.org/2000/svg" xmlns:xlink="http://www.w3.org/1999/xlink" xmlns:ev="http://www.w3.org/2001/xml-events"
		xmlns:v="http://schemas.microsoft.com/visio/2003/SVGExtensions/" width="7.58683in" height="7.8992in"
		viewBox="0 0 546.252 568.742" xml:space="preserve" color-interpolation-filters="sRGB" class="st17">
	<v:documentProperties v:langID="1035" v:viewMarkup="false"/>

	<style type="text/css">
	<![CDATA[
		.st1 {fill:#f58220;stroke:none;stroke-width:1}
		.st2 {fill:#ffffff;font-family:Arial;font-size:0.75em}
		.st3 {fill:#768692;stroke:none;stroke-width:1}
		.st4 {fill:#0077c8;stroke:none;stroke-width:1}
		.st5 {marker-end:url(#mrkr4-24);stroke:#333f48;stroke-linecap:butt;stroke-width:0.5}
		.st6 {fill:#333f48;fill-opacity:1;stroke:#333f48;stroke-opacity:1;stroke-width:0.16556291390728}
		.st7 {marker-end:url(#mrkr4-24);marker-start:url(#mrkr4-51);stroke:#333f48;stroke-linecap:butt;stroke-width:0.5}
		.st8 {marker-start:url(#mrkr4-51);stroke:#333f48;stroke-linecap:butt;stroke-width:0.5}
		.st9 {font-size:1em}
		.st10 {fill:#ffcd00;stroke:none;stroke-width:1}
		.st11 {fill:#ee2f4e;stroke:none;stroke-width:1}
		.st12 {fill:none;stroke:#333f48;stroke-width:1}
		.st13 {fill:none;stroke:none;stroke-width:1}
		.st14 {fill:#333f48;font-family:Arial;font-size:0.666664em}
		.st15 {marker-end:url(#mrkr4-108);stroke:#333f48;stroke-linecap:butt;stroke-width:0.5}
		.st16 {marker-end:url(#mrkr4-108);marker-start:url(#mrkr4-51);stroke:#333f48;stroke-linecap:butt;stroke-width:0.5}
		.st17 {fill:none;fill-rule:evenodd;font-size:12px;overflow:visible;stroke-linecap:square;stroke-miterlimit:3}
	]]>
	</style>

	<defs id="Markers">
		<g id="lend4">
			<path d="M 2 1 L 0 0 L 2 -1 L 2 1 " style="stroke:none"/>
		</g>
		<marker id="mrkr4-24" class="st6" v:arrowType="4" v:arrowSize="2" v:setback="12.08" refX="-12.08" orient="auto"
				markerUnits="strokeWidth" overflow="visible">
			<use xlink:href="#lend4" transform="scale(-6.04,-6.04) "/>
		</marker>
		<marker id="mrkr4-51" class="st6" v:arrowType="4" v:arrowSize="2" v:setback="11.36" refX="11.36" orient="auto"
				markerUnits="strokeWidth" overflow="visible">
			<use xlink:href="#lend4" transform="scale(6.04) "/>
		</marker>
		<marker id="mrkr4-108" class="st6" v:arrowType="4" v:arrowSize="2" v:setback="11.36" refX="-11.36" orient="auto"
				markerUnits="strokeWidth" overflow="visible">
			<use xlink:href="#lend4" transform="scale(-6.04,-6.04) "/>
		</marker>
	</defs>
	<g v:mID="0" v:index="1" v:groupContext="foregroundPage">
		<title>Page-1</title>
		<v:pageProperties v:drawingScale="0.0393701" v:pageScale="0.0393701" v:drawingUnits="24" v:shadowOffsetX="8.50394"
				v:shadowOffsetY="-8.50394"/>
		<v:layer v:name="Connector" v:index="0"/>
		<g id="shape5-1" v:mID="5" v:groupContext="shape" transform="translate(1,-280.037)">
			<title>Nordic Fall</title>
			<desc>Zbus</desc>
			<v:textBlock v:margins="rect(4,4,4,4)"/>
			<v:textRect cx="269.291" cy="553.665" width="538.59" height="30.1548"/>
			<rect x="0" y="538.588" width="538.583" height="30.1548" class="st1"/>
			<text x="307.79" y="556.37" class="st2" v:langID="1044"><v:paragraph v:indentLeft="72" v:horizAlign="1"
						v:bulletSize="0.166667"/><v:tabList/>Zbus</text>		</g>
		<g id="shape6-4" v:mID="6" v:groupContext="shape" transform="translate(38.322,-400.448)">
			<title>Nordic Grass</title>
			<desc>Sampler</desc>
			<v:textBlock v:margins="rect(4,4,4,4)"/>
			<v:textRect cx="45.3543" cy="555.082" width="90.71" height="27.3202"/>
			<rect x="0" y="541.422" width="90.7087" height="27.3202" class="st3"/>
			<text x="28.6" y="557.78" class="st2" v:langID="1044"><v:paragraph v:horizAlign="1" v:bulletSize="0.166667"/><v:tabList/>Sampler</text>		</g>
		<g id="shape7-7" v:mID="7" v:groupContext="shape" transform="translate(38.322,-273.341)">
			<title>Nordic Lake</title>
			<desc>Trigger</desc>
			<v:textBlock v:margins="rect(4,4,4,4)"/>
			<v:textRect cx="45.3543" cy="547.483" width="90.71" height="42.5197"/>
			<rect x="0" y="526.223" width="90.7087" height="42.5197" class="st4"/>
			<text x="31.1" y="550.18" class="st2" v:langID="1044"><v:paragraph v:horizAlign="1" v:bulletSize="0.166667"/><v:tabList/>Trigger</text>		</g>
		<g id="shape8-10" v:mID="8" v:groupContext="shape" transform="translate(38.322,-189.328)">
			<title>Nordic Grass.8</title>
			<desc>Trigger</desc>
			<v:textBlock v:margins="rect(4,4,4,4)"/>
			<v:textRect cx="45.3543" cy="555.082" width="90.71" height="27.3202"/>
			<rect x="0" y="541.422" width="90.7087" height="27.3202" class="st3"/>
			<text x="31.1" y="557.78" class="st2" v:langID="1044"><v:paragraph v:horizAlign="1" v:bulletSize="0.166667"/><v:tabList/>Trigger</text>		</g>
		<g id="shape9-13" v:mID="9" v:groupContext="shape" transform="translate(203.57,-273.341)">
			<title>Nordic Lake.9</title>
			<desc>Payload</desc>
			<v:textBlock v:margins="rect(4,4,4,4)"/>
			<v:textRect cx="45.3543" cy="547.483" width="90.71" height="42.5197"/>
			<rect x="0" y="526.223" width="90.7087" height="42.5197" class="st4"/>
			<text x="29.09" y="550.18" class="st2" v:langID="1044"><v:paragraph v:horizAlign="1" v:bulletSize="0.166667"/><v:tabList/>Payload</text>		</g>
		<g id="shape10-16" v:mID="10" v:groupContext="shape" transform="translate(346.827,-273.341)">
			<title>Nordic Lake.10</title>
			<desc>Network status</desc>
			<v:textBlock v:margins="rect(4,4,4,4)"/>
			<v:textRect cx="45.3543" cy="547.483" width="90.71" height="42.5197"/>
			<rect x="0" y="526.223" width="90.7087" height="42.5197" class="st4"/>
			<text x="15.59" y="550.18" class="st2" v:langID="1044"><v:paragraph v:horizAlign="1" v:bulletSize="0.166667"/><v:tabList/>Network status</text>		</g>
		<g id="shape11-19" v:mID="11" v:groupContext="shape" v:layerMember="0" transform="translate(76.5897,-216.648)">
			<title>Dynamic connector</title>
			<path d="M7.09 568.74 L7.09 518.09" class="st5"/>
		</g>
		<g id="shape12-25" v:mID="12" v:groupContext="shape" v:layerMember="0" transform="translate(76.5897,-315.861)">
			<title>Dynamic connector.12</title>
			<path d="M7.09 568.74 L7.09 490.2" class="st5"/>
		</g>
		<g id="shape16-30" v:mID="16" v:groupContext="shape" transform="translate(344.887,-406.263)">
			<title>Nordic Middle Grey.16</title>
			<desc>Network</desc>
			<v:textBlock v:margins="rect(4,4,4,4)"/>
			<v:textRect cx="45.3543" cy="555.082" width="90.71" height="27.3201"/>
			<rect x="0" y="541.422" width="90.7087" height="27.3201" class="st3"/>
			<text x="28.85" y="557.78" class="st2" v:langID="1044"><v:paragraph v:horizAlign="1" v:bulletSize="0.166667"/><v:tabList/>Network  </text>		</g>
		<g id="shape25-33" v:mID="25" v:groupContext="shape" transform="translate(346.827,-189.328)">
			<title>Nordic Grass.25</title>
			<desc>Transport</desc>
			<v:textBlock v:margins="rect(4,4,4,4)"/>
			<v:textRect cx="45.3543" cy="555.082" width="90.71" height="27.3202"/>
			<rect x="0" y="541.422" width="90.7087" height="27.3202" class="st3"/>
			<text x="26.1" y="557.78" class="st2" v:langID="1044"><v:paragraph v:horizAlign="1" v:bulletSize="0.166667"/><v:tabList/>Transport</text>		</g>
		<g id="shape26-36" v:mID="26" v:groupContext="shape" transform="translate(454.543,-189.328)">
			<title>Nordic Grass.26</title>
			<desc>LED</desc>
			<v:textBlock v:margins="rect(4,4,4,4)"/>
			<v:textRect cx="45.3543" cy="555.082" width="90.71" height="27.3202"/>
			<rect x="0" y="541.422" width="90.7087" height="27.3202" class="st3"/>
			<text x="36.6" y="557.78" class="st2" v:langID="1044"><v:paragraph v:horizAlign="1" v:bulletSize="0.166667"/><v:tabList/>LED</text>		</g>
		<g id="shape28-39" v:mID="28" v:groupContext="shape" transform="translate(346.827,-103.262)">
			<title>Nordic Grass.28</title>
			<desc>MQTT helper</desc>
			<v:textBlock v:margins="rect(4,4,4,4)"/>
			<v:textRect cx="45.3543" cy="555.082" width="90.71" height="27.3202"/>
			<rect x="0" y="541.422" width="90.7087" height="27.3202" class="st1"/>
			<text x="18.85" y="557.78" class="st2" v:langID="1044"><v:paragraph v:horizAlign="1" v:bulletSize="0.166667"/><v:tabList/>MQTT helper</text>		</g>
		<g id="shape29-42" v:mID="29" v:groupContext="shape" transform="translate(346.827,-21.3019)">
			<title>Nordic Grass.29</title>
			<desc>Zephyr MQTT</desc>
			<v:textBlock v:margins="rect(4,4,4,4)"/>
			<v:textRect cx="45.3543" cy="555.082" width="90.71" height="27.3202"/>
			<rect x="0" y="541.422" width="90.7087" height="27.3202" class="st1"/>
			<text x="17.35" y="557.78" class="st2" v:langID="1044"><v:paragraph v:horizAlign="1" v:bulletSize="0.166667"/><v:tabList/>Zephyr MQTT</text>		</g>
		<g id="shape1000-45" v:mID="1000" v:groupContext="shape" v:layerMember="0" transform="translate(399.268,-130.583)">
			<title>Dynamic connector.1000</title>
			<path d="M-7.09 563.06 L-7.09 562.7 L-7.09 516.04" class="st7"/>
		</g>
		<g id="shape1001-53" v:mID="1001" v:groupContext="shape" v:layerMember="0" transform="translate(385.095,-48.622)">
			<title>Dynamic connector.1001</title>
			<path d="M7.09 563.06 L7.09 562.7 L7.09 520.14" class="st7"/>
		</g>
		<g id="shape1002-60" v:mID="1002" v:groupContext="shape" v:layerMember="0" transform="translate(385.095,-216.648)">
			<title>Dynamic connector.1002</title>
			<path d="M7.09 563.06 L7.09 562.7 L7.09 512.05" class="st8"/>
		</g>
		<g id="shape1003-65" v:mID="1003" v:groupContext="shape" transform="translate(344.887,-468.223)">
			<title>Nordic Sun.1003</title>
			<desc>Zephyr NET Connection Manager</desc>
			<v:textBlock v:margins="rect(4,4,4,4)"/>
			<v:textRect cx="45.3543" cy="549.963" width="90.71" height="37.5591"/>
			<rect x="0" y="531.183" width="90.7087" height="37.5591" class="st1"/>
			<text x="21.1" y="541.86" class="st2" v:langID="1044"><v:paragraph v:horizAlign="1" v:bulletSize="0.166667"/><v:tabList/>Zephyr NET <tspan
						x="22.59" dy="1.2em" class="st9">Connection </tspan><tspan x="27.59" dy="1.2em" class="st9">Manager</tspan></text>		</g>
		<g id="shape1004-70" v:mID="1004" v:groupContext="shape" transform="translate(290.462,-540.422)">
			<title>Nordic Sun.1004</title>
			<desc>Wi-Fi</desc>
			<v:textBlock v:margins="rect(4,4,4,4)"/>
			<v:textRect cx="45.3543" cy="555.082" width="90.71" height="27.3201"/>
			<rect x="0" y="541.422" width="90.7087" height="27.3201" class="st10"/>
			<text x="34.86" y="557.78" class="st2" v:langID="1044"><v:paragraph v:horizAlign="1" v:bulletSize="0.166667"/><v:tabList/>Wi-Fi</text>		</g>
		<g id="shape1006-73" v:mID="1006" v:groupContext="shape" v:layerMember="0" transform="translate(383.155,-432.729)">
			<title>Dynamic connector.1006</title>
			<path d="M7.09 563.06 L7.09 562.7 L7.09 539.29" class="st7"/>
		</g>
		<g id="shape1008-80" v:mID="1008" v:groupContext="shape" transform="translate(402.386,-540.422)">
			<title>Nordic Red.1008</title>
			<desc>LTE</desc>
			<v:textBlock v:margins="rect(4,4,4,4)"/>
			<v:textRect cx="45.3543" cy="555.082" width="90.71" height="27.3201"/>
			<rect x="0" y="541.422" width="90.7087" height="27.3201" class="st11"/>
			<text x="37.1" y="557.78" class="st2" v:langID="1044"><v:paragraph v:horizAlign="1" v:bulletSize="0.166667"/><v:tabList/>LTE</text>		</g>
		<g id="shape1011-83" v:mID="1011" v:groupContext="shape" transform="translate(1,-1)">
			<title>Sheet.1011</title>
			<rect x="0" y="466.48" width="130.394" height="102.262" class="st12"/>
		</g>
		<g id="shape1012-85" v:mID="1012" v:groupContext="shape" transform="translate(9.50394,-83.5152)">
			<title>Nordic Sun.1012</title>
			<rect x="0" y="554.098" width="14.6448" height="14.6448" class="st10"/>
		</g>
		<g id="shape1013-87" v:mID="1013" v:groupContext="shape" transform="translate(19.673,-84.6014)">
			<title>Sheet.1013</title>
			<desc>nRF70 Series devices</desc>
			<v:textBlock v:margins="rect(4,4,4,4)" v:tabSpace="42.5197"/>
			<v:textRect cx="49.1811" cy="564.207" width="98.37" height="9.07087"/>
			<rect x="0" y="559.672" width="98.3622" height="9.07087" class="st13"/>
			<text x="11.16" y="566.61" class="st14" v:langID="1044"><v:paragraph v:horizAlign="1"/><v:tabList/>nRF70 Series devices</text>		</g>
		<g id="shape1014-90" v:mID="1014" v:groupContext="shape" transform="translate(9.50394,-45.8414)">
			<title>Nordic Lake.1014</title>
			<rect x="0" y="554.098" width="14.6448" height="14.6448" class="st4"/>
		</g>
		<g id="shape1015-92" v:mID="1015" v:groupContext="shape" transform="translate(27.3265,-66.4597)">
			<title>Sheet.1015</title>
			<desc>nRF91 Series devices</desc>
			<v:textBlock v:margins="rect(4,4,4,4)" v:tabSpace="42.5197"/>
			<v:textRect cx="45.3543" cy="564.207" width="90.71" height="9.07087"/>
			<rect x="0" y="559.672" width="90.7087" height="9.07087" class="st13"/>
			<text x="4" y="566.61" class="st14" v:langID="1044"><v:paragraph/><v:tabList/>nRF91 Series devices</text>		</g>
		<g id="shape1016-95" v:mID="1016" v:groupContext="shape" transform="translate(9.50394,-64.8543)">
			<title>Nordic Red.1016</title>
			<rect x="0" y="554.098" width="14.6448" height="14.6448" class="st11"/>
		</g>
		<g id="shape1017-97" v:mID="1017" v:groupContext="shape" transform="translate(27.3622,-48.6284)">
			<title>Sheet.1017</title>
			<desc>Channels</desc>
			<v:textBlock v:margins="rect(4,4,4,4)" v:tabSpace="42.5197"/>
			<v:textRect cx="21.2598" cy="564.207" width="42.52" height="9.07087"/>
			<rect x="0" y="559.672" width="42.5197" height="9.07087" class="st13"/>
			<text x="4.36" y="566.61" class="st14" v:langID="1044"><v:paragraph v:horizAlign="1"/><v:tabList/>Channels</text>		</g>
		<g id="shape1019-100" v:mID="1019" v:groupContext="shape" transform="translate(26.5118,-29.6093)">
			<title>Sheet.1019</title>
			<desc>Modules</desc>
			<v:textBlock v:margins="rect(4,4,4,4)" v:tabSpace="42.5197"/>
			<v:textRect cx="21.2598" cy="564.207" width="42.52" height="9.07087"/>
			<rect x="0" y="559.672" width="42.5197" height="9.07087" class="st13"/>
			<text x="6.14" y="566.61" class="st14" v:langID="1044"><v:paragraph v:horizAlign="1"/><v:tabList/>Modules</text>		</g>
		<g id="shape1020-103" v:mID="1020" v:groupContext="shape" transform="translate(489.516,-285.273) rotate(39.3331)">
			<title>Sheet.1020</title>
			<path d="M0 568.74 C17.46 555.02 23.22 550.92 33.34 543.8 C43.82 536.42 58.98 525.79 73.86 522.51 C93.06 518.28 111.8
						 526.28 125.21 536.16 C135.98 544.09 143.29 553.24 151.37 563.92 L151.59 564.21" class="st15"/>
		</g>
		<g id="shape1021-109" v:mID="1021" v:groupContext="shape" transform="translate(559.172,-136.338) rotate(35.701)">
			<title>Sheet.1021</title>
			<path d="M0 531.65 C11.01 549.22 20.12 563.35 35.13 567.47 C49.46 571.4 69.17 566.18 89.63 553.61 C98.48 548.16 107.47
						 541.34 115.7 535.23 L115.99 535.02" class="st15"/>
		</g>
		<g id="shape1022-114" v:mID="1022" v:groupContext="shape" transform="translate(881.649,-81.1491) rotate(51.3402)">
			<title>Sheet.1022</title>
			<path d="M0 568.74 C7.79 559 15.12 551.3 23.91 546.37 C35.26 540 49.05 538.26 61.81 542.66 C73.97 546.85 85.2 556.63
						 95.16 564.91 L95.43 565.14" class="st15"/>
		</g>
		<g id="shape1025-119" v:mID="1025" v:groupContext="shape" transform="translate(9.50394,-26.8223)">
			<title>Nordic Middle Grey.1025</title>
			<rect x="0" y="554.098" width="14.6448" height="14.6448" class="st3"/>
		</g>
		<g id="shape1026-121" v:mID="1026" v:groupContext="shape" transform="translate(637.534,-445.726) rotate(32.4757)">
			<title>Sheet.1026</title>
			<path d="M3.43 566.45 L3.64 566.74 C3.66 566.75 3.67 566.75 3.68 566.76 C10.14 571.85 22.63 567.32 32.74 560.8 C39.13
						 556.67 44.56 551.74 49.79 551.26 C53.93 550.88 57.93 553.26 61.11 556.93 L61.31 557.23" class="st16"/>
		</g>
		<g id="shape1027-128" v:mID="1027" v:groupContext="shape" transform="translate(93.2382,-412.995) rotate(-32.0234)">
			<title>Sheet.1027</title>
			<path d="M0 560.21 C0.97 559.77 1.04 559 1.28 558.2 C2.51 554.06 8.43 549.19 12.93 548.42 C16.19 547.86 18.72 549.46
						 21.47 551.3 C26.84 554.89 33.09 559.4 38.89 563.18 C43.12 565.93 47.1 568.3 51.52 568.71 C54.6 569 57.9
						 568.34 60.02 566.13 C60.21 565.94 60.39 565.73 60.56 565.51 L60.73 565.19" class="st15"/>
		</g>
		<g id="shape1030-133" v:mID="1030" v:groupContext="shape" transform="translate(9.50394,-7.94359)">
			<title>Nordic Middle Grey.1030</title>
			<rect x="0" y="554.098" width="14.6448" height="14.6448" class="st1"/>
		</g>
		<g id="shape1031-135" v:mID="1031" v:groupContext="shape" transform="translate(23.6772,-10.7305)">
			<title>Sheet.1031</title>
			<desc>Zephyr RTOS</desc>
			<v:textBlock v:margins="rect(4,4,4,4)" v:tabSpace="42.5197"/>
			<v:textRect cx="34.0157" cy="564.207" width="68.04" height="9.07087"/>
			<rect x="0" y="559.672" width="68.0315" height="9.07087" class="st13"/>
			<text x="9.34" y="566.61" class="st14" v:langID="1044"><v:paragraph v:horizAlign="1"/><v:tabList/>Zephyr RTOS</text>		</g>
		<g id="shape1032-138" v:mID="1032" v:groupContext="shape" v:layerMember="0" transform="translate(398.298,-315.861)">
			<title>Dynamic connector.1032</title>
			<path d="M-6.24 563.06 L-6.25 562.7 L-7.93 484.38" class="st7"/>
		</g>
	</g>
</svg>
