<?xml version="1.0" encoding="UTF-8" standalone="no"?>
<!DOCTYPE svg PUBLIC "-//W3C//DTD SVG 1.1//EN" "http://www.w3.org/Graphics/SVG/1.1/DTD/svg11.dtd">
<!-- Generated by Microsoft Visio, SVG Export ncs-toolchain.svg Page-1 -->
<svg xmlns="http://www.w3.org/2000/svg" xmlns:xlink="http://www.w3.org/1999/xlink" xmlns:ev="http://www.w3.org/2001/xml-events"
		xmlns:v="http://schemas.microsoft.com/visio/2003/SVGExtensions/" width="6.32699in" height="2.16462in"
		viewBox="0 0 455.543 155.853" xml:space="preserve" color-interpolation-filters="sRGB" class="st4">
	<v:documentProperties v:langID="1035" v:metric="true" v:viewMarkup="false"/>

	<style type="text/css">
	<![CDATA[
		.st1 {fill:#0033a0;stroke:none;stroke-width:1}
		.st2 {fill:#ffffff;font-family:Calibri;font-size:1.16666em}
		.st3 {fill:#003399;stroke:none;stroke-linecap:round;stroke-linejoin:round;stroke-width:0.24}
		.st4 {fill:none;fill-rule:evenodd;font-size:12px;overflow:visible;stroke-linecap:square;stroke-miterlimit:3}
	]]>
	</style>

	<g v:mID="0" v:index="1" v:groupContext="foregroundPage">
		<title>Page-1</title>
		<v:pageProperties v:drawingScale="0.0393701" v:pageScale="0.0393701" v:drawingUnits="24" v:shadowOffsetX="8.50394"
				v:shadowOffsetY="-8.50394"/>
		<g id="shape1-1" v:mID="1" v:groupContext="shape" transform="translate(1,-100.213)">
			<title>Nordic Blueslate</title>
			<desc>Kconfig</desc>
			<v:textBlock v:margins="rect(4,4,4,4)"/>
			<v:textRect cx="38.6587" cy="128.533" width="77.32" height="54.6402"/>
			<rect x="0" y="101.213" width="77.3174" height="54.6402" class="st1"/>
			<text x="17.66" y="132.73" class="st2" v:langID="1033"><v:paragraph v:horizAlign="1" v:bulletSize="0.166667"/><v:tabList/>Kconfig</text>		</g>
		<g id="shape2-4" v:mID="2" v:groupContext="shape" transform="translate(1,-1)">
			<title>Nordic Blueslate.2</title>
			<desc>Devicetree</desc>
			<v:textBlock v:margins="rect(4,4,4,4)"/>
			<v:textRect cx="38.6587" cy="128.533" width="77.32" height="54.6402"/>
			<rect x="0" y="101.213" width="77.3174" height="54.6402" class="st1"/>
			<text x="7.91" y="132.73" class="st2" v:langID="1033"><v:paragraph v:horizAlign="1" v:bulletSize="0.166667"/><v:tabList/>Devicetree</text>		</g>
		<g id="shape3-7" v:mID="3" v:groupContext="shape" transform="translate(135.01,-50.6063)">
			<title>Nordic Blueslate.3</title>
			<desc>CMake</desc>
			<v:textBlock v:margins="rect(4,4,4,4)"/>
			<v:textRect cx="38.6587" cy="128.533" width="77.32" height="54.6402"/>
			<rect x="0" y="101.213" width="77.3174" height="54.6402" class="st1"/>
			<text x="18.92" y="132.73" class="st2" v:langID="1033"><v:paragraph v:horizAlign="1" v:bulletSize="0.166667"/><v:tabList/>CMake</text>		</g>
		<g id="shape4-10" v:mID="4" v:groupContext="shape" transform="translate(256.118,-50.6063)">
			<title>Nordic Blueslate.4</title>
			<desc>Ninja</desc>
			<v:textBlock v:margins="rect(4,4,4,4)"/>
			<v:textRect cx="38.6587" cy="128.533" width="77.32" height="54.6402"/>
			<rect x="0" y="101.213" width="77.3174" height="54.6402" class="st1"/>
			<text x="23.83" y="132.73" class="st2" v:langID="1033"><v:paragraph v:horizAlign="1" v:bulletSize="0.166667"/><v:tabList/>Ninja</text>		</g>
		<g id="shape5-13" v:mID="5" v:groupContext="shape" transform="translate(377.226,-50.6063)">
			<title>Nordic Blueslate.5</title>
			<desc>GCC</desc>
			<v:textBlock v:margins="rect(4,4,4,4)"/>
			<v:textRect cx="38.6587" cy="128.533" width="77.32" height="54.6402"/>
			<rect x="0" y="101.213" width="77.3174" height="54.6402" class="st1"/>
			<text x="26.78" y="132.73" class="st2" v:langID="1033"><v:paragraph v:horizAlign="1" v:bulletSize="0.166667"/><v:tabList/>GCC</text>		</g>
		<g id="shape6-16" v:mID="6" v:groupContext="shape" transform="translate(193.931,248.779) rotate(155.201)">
			<title>Simple Arrow</title>
			<v:userDefs>
				<v:ud v:nameU="visVersion" v:val="VT0(15):26"/>
				<v:ud v:nameU="ArrowType" v:prompt="" v:val="VT0(2):26"/>
			</v:userDefs>
			<path d="M0 155.85 L11.34 147.71 L11.34 151.78 L48.24 151.78 L48.24 155.85 L48.24 159.92 L11.34 159.92 L11.34 163.99
						 L0 155.85 Z" class="st3"/>
		</g>
		<g id="shape9-18" v:mID="9" v:groupContext="shape" transform="translate(55.2165,189.541) rotate(-151.928)">
			<title>Simple Arrow.9</title>
			<v:userDefs>
				<v:ud v:nameU="visVersion" v:val="VT0(15):26"/>
				<v:ud v:nameU="ArrowType" v:prompt="" v:val="VT0(2):26"/>
			</v:userDefs>
			<path d="M0 155.85 L11.34 147.71 L11.34 151.78 L48.19 151.78 L48.19 155.85 L48.19 159.92 L11.34 159.92 L11.34 163.99
						 L0 155.85 Z" class="st3"/>
		</g>
		<g id="shape10-20" v:mID="10" v:groupContext="shape" transform="translate(256.118,233.779) rotate(180)">
			<title>Simple Arrow.10</title>
			<v:userDefs>
				<v:ud v:nameU="visVersion" v:val="VT0(15):26"/>
				<v:ud v:nameU="ArrowType" v:prompt="" v:val="VT0(2):26"/>
			</v:userDefs>
			<path d="M0 155.85 L11.34 147.71 L11.34 151.78 L43.79 151.78 L43.79 155.85 L43.79 159.92 L11.34 159.92 L11.34 163.99
						 L0 155.85 Z" class="st3"/>
		</g>
		<g id="shape11-22" v:mID="11" v:groupContext="shape" transform="translate(377.226,233.779) rotate(180)">
			<title>Simple Arrow.11</title>
			<v:userDefs>
				<v:ud v:nameU="visVersion" v:val="VT0(15):26"/>
				<v:ud v:nameU="ArrowType" v:prompt="" v:val="VT0(2):26"/>
			</v:userDefs>
			<path d="M0 155.85 L11.34 147.71 L11.34 151.78 L43.79 151.78 L43.79 155.85 L43.79 159.92 L11.34 159.92 L11.34 163.99
						 L0 155.85 Z" class="st3"/>
		</g>
	</g>
</svg>
