<?xml version="1.0" encoding="UTF-8" standalone="no"?>
<!DOCTYPE svg PUBLIC "-//W3C//DTD SVG 1.1//EN" "http://www.w3.org/Graphics/SVG/1.1/DTD/svg11.dtd">
<!-- Generated by Microsoft Visio, SVG Export ncs-toolchain.svg Page-1 -->
<svg xmlns="http://www.w3.org/2000/svg" xmlns:xlink="http://www.w3.org/1999/xlink" xmlns:ev="http://www.w3.org/2001/xml-events"
		width="6.45132in" height="3.9739in" viewBox="0 0 464.495 286.121" xml:space="preserve" color-interpolation-filters="sRGB"
		class="st14">
	<style type="text/css">
	<![CDATA[
		.st1 {fill:#00a9ce;stroke:none;stroke-width:1}
		.st2 {fill:#ffffff;font-family:Calibri;font-size:1.16666em}
		.st3 {marker-end:url(#mrkr13-12);stroke:#333f48;stroke-linecap:butt;stroke-width:1}
		.st4 {fill:#333f48;fill-opacity:1;stroke:#333f48;stroke-opacity:1;stroke-width:0.28409090909091}
		.st5 {fill:#768692;stroke:none;stroke-width:1}
		.st6 {fill:#0077c8;stroke:none;stroke-width:1}
		.st7 {fill:#0033a0;stroke:none;stroke-width:1}
		.st8 {font-size:1em}
		.st9 {fill:none;stroke:#768692;stroke-width:1}
		.st10 {fill:#768692;font-family:Calibri;font-size:0.833336em}
		.st11 {stroke:#768692;stroke-dasharray:1,4;stroke-linecap:butt;stroke-width:1}
		.st12 {fill:none;stroke:none;stroke-width:1}
		.st13 {fill:#00a9ce;font-family:Calibri;font-size:1.00001em}
		.st14 {fill:none;fill-rule:evenodd;font-size:12px;overflow:visible;stroke-linecap:square;stroke-miterlimit:3}
	]]>
	</style>

	<defs id="Markers">
		<g id="lend13">
			<path d="M 3 1 L 0 0 L 3 -1 L 3 1 " style="stroke:none"/>
		</g>
		<marker id="mrkr13-12" class="st4" refX="-10.56" orient="auto" markerUnits="strokeWidth" overflow="visible">
			<use xlink:href="#lend13" transform="scale(-3.52,-3.52) "/>
		</marker>
	</defs>
	<g>
		<title>Page-1</title>
		<g id="shape1693-1" transform="translate(4.90885,-153.945)">
			<title>Nordic Blueslate</title>
			<desc>Kconfig</desc>
			<rect x="0" y="231.481" width="77.3174" height="54.6402" class="st1"/>
			<text x="17.66" y="263" class="st2">Kconfig</text>		</g>
		<g id="shape1694-4" transform="translate(4.90885,-78.0453)">
			<title>Nordic Blueslate.2</title>
			<desc>Devicetree</desc>
			<rect x="0" y="231.481" width="77.3174" height="54.6402" class="st1"/>
			<text x="7.91" y="263" class="st2">Devicetree</text>		</g>
		<g id="shape1702-7" transform="translate(82.2263,-98.2788)">
			<title>Dynamic connector</title>
			<path d="M0 279.03 L46.13 279.03" class="st3"/>
		</g>
		<g id="shape1712-13" transform="translate(82.2263,-181.265)">
			<title>Dynamic connector.1712</title>
			<path d="M0 286.12 L19.01 286.12 L19.01 362.02 L46.13 362.02" class="st3"/>
		</g>
		<g id="shape1695-18" transform="translate(138.919,-78.0453)">
			<title>Nordic Blueslate.3</title>
			<desc>CMake</desc>
			<rect x="0" y="231.481" width="77.3174" height="54.6402" class="st5"/>
			<text x="18.92" y="263" class="st2">CMake</text>		</g>
		<g id="shape1696-21" transform="translate(260.027,-78.0453)">
			<title>Nordic Blueslate.4</title>
			<desc>Ninja</desc>
			<rect x="0" y="231.481" width="77.3174" height="54.6402" class="st6"/>
			<text x="23.83" y="263" class="st2">Ninja</text>		</g>
		<g id="shape1697-24" transform="translate(381.135,-78.0453)">
			<title>Nordic Blueslate.5</title>
			<desc>Compiler (GCC)</desc>
			<rect x="0" y="231.481" width="77.3174" height="54.6402" class="st7"/>
			<text x="12.83" y="254.6" class="st2">Compiler <tspan x="22.53" dy="1.2em" class="st8">(GCC)</tspan></text>		</g>
		<g id="shape1713-28" transform="translate(216.237,-98.2788)">
			<title>Dynamic connector.1713</title>
			<path d="M0 279.03 L33.23 279.03" class="st3"/>
		</g>
		<g id="shape1723-33" transform="translate(337.344,-98.2788)">
			<title>Dynamic connector.1723</title>
			<path d="M0 279.03 L33.23 279.03" class="st3"/>
		</g>
		<g id="shape1729-38" transform="translate(138.919,-167.605)">
			<title>Nordic Blueslate.1729</title>
			<desc>CMakeLists.txt</desc>
			<rect x="0" y="258.801" width="77.3174" height="27.3201" class="st9"/>
			<text x="8.95" y="275.46" class="st10">CMakeLists.txt</text>		</g>
		<g id="shape1730-41" transform="translate(4.90885,-1)">
			<title>Nordic Blueslate.1730</title>
			<desc>Partition Manager</desc>
			<rect x="0" y="231.481" width="77.3174" height="54.6402" class="st1"/>
			<text x="13.98" y="254.6" class="st2">Partition <tspan x="13.07" dy="1.2em" class="st8">Manager</tspan></text>		</g>
		<g id="shape1733-45" transform="translate(170.491,-167.605)">
			<title>Dynamic connector.1733</title>
			<path d="M7.09 286.12 L7.09 321.04" class="st11"/>
		</g>
		<g id="shape1734-48" transform="translate(82.2263,-28.3201)">
			<title>Dynamic connector.1734</title>
			<path d="M0 286.12 L19.01 286.12 L19.01 209.08 L46.13 209.08" class="st3"/>
		</g>
		<g id="group1746-53" transform="translate(1,-219.751)">
			<title>Sheet.1746</title>
			<g id="group1731-54" transform="translate(3.90885,-5.68434E-14)">
				<title>Sheet.1731</title>
				<g id="shape1724-55" transform="translate(0,-17.5748)">
					<title>Rectangle</title>
					<rect x="0" y="285.047" width="211.328" height="1.0742" class="st1"/>
				</g>
				<g id="shape1726-57" transform="translate(0.196515,-17.5748)">
					<title>Sheet.1726</title>
					<desc>Configuration phase</desc>
					<rect x="0" y="268.009" width="211.328" height="18.1119" class="st12"/>
					<text x="56.43" y="280.67" class="st13">Configuration phase</text>				</g>
			</g>
			<g id="group1732-60" transform="translate(259.027,-1.13687E-13)">
				<title>Sheet.1732</title>
				<g id="shape1725-61" transform="translate(0,-17.5748)">
					<title>Rectangle.1725</title>
					<rect x="0" y="285.047" width="198.425" height="1.0742" class="st1"/>
				</g>
				<g id="shape1728-63" transform="translate(0,-18.649)">
					<title>Sheet.1728</title>
					<desc>Building phase</desc>
					<rect x="0" y="268.009" width="198.425" height="18.1119" class="st12"/>
					<text x="63.67" y="280.67" class="st13">Building phase</text>				</g>
			</g>
			<g id="shape1736-66" transform="translate(1.0742,-47.3894)">
				<title>Rectangle</title>
				<rect x="0" y="285.047" width="460.346" height="1.0742" class="st1"/>
			</g>
			<g id="shape1737-68" transform="translate(1.07421,-47.258)">
				<title>Sheet.1737</title>
				<desc>CMake build</desc>
				<rect x="0" y="268.009" width="460.346" height="18.1119" class="st12"/>
				<text x="199.69" y="280.67" class="st13">CMake build</text>			</g>
			<g id="shape1740-71" transform="translate(286.121,237.657) rotate(90)">
				<title>Rectangle.1740</title>
				<rect x="0" y="285.047" width="16.0157" height="1.0742" class="st1"/>
			</g>
			<g id="shape1741-73" transform="translate(288.956,267.472) rotate(90)">
				<title>Rectangle.1741</title>
				<rect x="0" y="285.047" width="16.0157" height="1.0742" class="st1"/>
			</g>
			<g id="shape1742-75" transform="translate(501.358,267.472) rotate(90)">
				<title>Rectangle.1742</title>
				<rect x="0" y="285.047" width="16.0157" height="1.0742" class="st1"/>
			</g>
			<g id="shape1743-77" transform="translate(544.074,267.472) rotate(90)">
				<title>Rectangle.1743</title>
				<rect x="0" y="285.047" width="16.0157" height="1.0742" class="st1"/>
			</g>
			<g id="shape1744-79" transform="translate(743.573,267.472) rotate(90)">
				<title>Rectangle.1744</title>
				<rect x="0" y="285.047" width="16.0157" height="1.0742" class="st1"/>
			</g>
			<g id="shape1745-81" transform="translate(747.542,237.657) rotate(90)">
				<title>Rectangle.1745</title>
				<rect x="0" y="285.047" width="16.0157" height="1.0742" class="st1"/>
			</g>
		</g>
	</g>
</svg>
