<?xml version="1.0" encoding="UTF-8" standalone="no"?>
<!DOCTYPE svg PUBLIC "-//W3C//DTD SVG 1.1//EN" "http://www.w3.org/Graphics/SVG/1.1/DTD/svg11.dtd">
<!-- Generated by Microsoft Visio, SVG Export nfc_overview2.svg Page-1 -->
<svg xmlns="http://www.w3.org/2000/svg" xmlns:xlink="http://www.w3.org/1999/xlink" xmlns:ev="http://www.w3.org/2001/xml-events"
		width="4.30889in" height="2.21659in" viewBox="0 0 310.24 159.594" xml:space="preserve" color-interpolation-filters="sRGB"
		class="st14">
	<style type="text/css">
	<![CDATA[
		.st1 {visibility:visible}
		.st2 {fill:none;filter:url(#filter_2);stroke:#5b9bd5;stroke-opacity:0.22}
		.st3 {fill:none;stroke:#c8c8c8;stroke-width:2.5}
		.st4 {fill:#5b9bd5;filter:url(#filter_2);font-family:Arial;font-size:1.00001em;opacity:0.219608}
		.st5 {fill:#a5a5a5;font-family:Arial;font-size:1.00001em}
		.st6 {fill:#c4dbf2;stroke:#000000;stroke-linecap:round;stroke-linejoin:round;stroke-width:0.24}
		.st7 {fill:#000000;font-family:Arial;font-size:1.00001em}
		.st8 {font-size:1em}
		.st9 {marker-end:url(#mrkr13-34);stroke:#000000;stroke-linecap:round;stroke-linejoin:round;stroke-width:0.24}
		.st10 {fill:#000000;fill-opacity:1;stroke:#000000;stroke-opacity:1;stroke-width:0.08695652173913}
		.st11 {fill:#ffffff;stroke:none;stroke-linecap:butt;stroke-width:7.2}
		.st12 {fill:#88b7e4;fill-opacity:0.85;stroke:#000000;stroke-linecap:round;stroke-linejoin:round;stroke-width:0.72}
		.st13 {fill:none;stroke:none;stroke-linecap:round;stroke-linejoin:round;stroke-width:0.75}
		.st14 {fill:none;fill-rule:evenodd;font-size:12px;overflow:visible;stroke-linecap:square;stroke-miterlimit:3}
	]]>
	</style>

	<defs id="Markers">
		<g id="lend13">
			<path d="M 3 1 L 0 0 L 3 -1 L 3 1 " style="stroke:none"/>
		</g>
		<marker id="mrkr13-34" class="st10" refX="-34.5" orient="auto" markerUnits="strokeWidth" overflow="visible">
			<use xlink:href="#lend13" transform="scale(-11.5,-11.5) "/>
		</marker>
	</defs>
	<defs id="Filters">
		<filter id="filter_2">
			<feGaussianBlur stdDeviation="2"/>
		</filter>
	</defs>
	<g>
		<title>Page-1</title>
		<g id="shape332-1" transform="translate(89.5222,-22.6798)">
			<title>Concentric layer 3.34</title>
			<g id="shadow332-2" transform="matrix(1,0,0,1,0.345598,1.97279)" class="st1">
				<path d="M0 99.44 A60.1564 60.1564 -180 0 0 120.31 99.44 A60.1564 60.1564 -180 0 0 0 99.44 ZM28.35 99.44 A31.8099
							 31.8099 0 0 1 91.97 99.44 A31.8099 31.8099 0 0 1 28.35 99.44 Z" class="st2"/>
			</g>
			<path d="M0 99.44 A60.1564 60.1564 -180 0 0 120.31 99.44 A60.1564 60.1564 -180 0 0 0 99.44 ZM28.35 99.44 A31.8099 31.8099
						 0 0 1 91.97 99.44 A31.8099 31.8099 0 0 1 28.35 99.44 Z" class="st3"/>
		</g>
		<g id="shape333-6" transform="translate(75.12,-6.22282)">
			<title>Concentric layer 1.333</title>
			<g id="shadow333-7" transform="matrix(1,0,0,1,0.345598,1.97279)" class="st1">
				<path d="M0 84.16 A75.4357 75.4357 -180 0 0 150.87 84.16 A75.4357 75.4357 -180 0 0 0 84.16 ZM28.35 84.16 A47.0892
							 47.0892 0 1 1 122.52 84.16 A47.0892 47.0892 0 0 1 28.35 84.16 Z" class="st2"/>
			</g>
			<path d="M0 84.16 A75.4357 75.4357 -180 0 0 150.87 84.16 A75.4357 75.4357 -180 0 0 0 84.16 ZM28.35 84.16 A47.0892 47.0892
						 0 1 1 122.52 84.16 A47.0892 47.0892 0 0 1 28.35 84.16 Z" class="st3"/>
		</g>
		<g id="shape334-11" transform="translate(132.396,-63.7822)">
			<title>Concentric layer 3.334</title>
			<g id="shadow334-12" transform="matrix(1,0,0,1,0.345598,1.97279)" class="st1">
				<path d="M0 141.88 A17.7165 17.7165 -180 0 0 35.43 141.88 A17.7165 17.7165 -180 0 0 0 141.88 Z" class="st2"/>
			</g>
			<path d="M0 141.88 A17.7165 17.7165 -180 0 0 35.43 141.88 A17.7165 17.7165 -180 0 0 0 141.88 Z" class="st3"/>
		</g>
		<g id="shape335-16" transform="translate(75.12,-6.22282)">
			<title>Sheet.335</title>
			<desc>Electromagnetic field</desc>
			<g id="shadow335-17" transform="matrix(1,0,0,1,0.345598,1.97279)" class="st1">
				<text x="19.74" y="87.76" class="st4">Electromagnetic field</text>			</g>
			<text x="19.74" y="87.76" class="st5">Electromagnetic field</text>		</g>
		<g id="shape323-21" transform="translate(0.12,-15.2083)">
			<title>Process.245</title>
			<desc>Polling device</desc>
			<rect x="0" y="23.6798" width="68.3704" height="135.914" class="st6"/>
			<text x="16.17" y="88.04" class="st7">Polling <tspan x="16.84" dy="1.2em" class="st8">device</tspan></text>		</g>
		<g id="shape324-25" transform="translate(234.12,-15.1798)">
			<title>Process.324</title>
			<desc>Type 2 Tag</desc>
			<rect x="0" y="23.6798" width="76" height="135.914" class="st6"/>
			<text x="19.66" y="50.88" class="st7">Type 2 <tspan x="27.66" dy="1.2em" class="st8">Tag</tspan></text>		</g>
		<g id="shape325-29" transform="translate(68.4904,-135.104)">
			<title>Flowline1</title>
			<desc>Generate field</desc>
			<path d="M0 159.59 L157.35 159.59" class="st9"/>
			<rect x="42.27" y="153.505" width="75.3819" height="14.4001" class="st11"/>
			<text x="42.27" y="164.31" class="st7">Generate field</text>		</g>
		<g id="shape326-37" transform="translate(68.4904,-121.779)">
			<title>Flowline1.326</title>
			<desc>READ command</desc>
			<path d="M0 159.59 L157.35 159.59" class="st9"/>
			<rect x="35.2797" y="154.394" width="89.3625" height="14.4001" class="st11"/>
			<text x="35.28" y="165.19" class="st7">READ command</text>		</g>
		<g id="shape327-44" transform="translate(234.12,284.021) rotate(180)">
			<title>Flowline1.327</title>
			<desc>NDEF («Hello World!»)</desc>
			<path d="M0 159.59 L157.35 159.59" class="st9"/>
			<rect x="-147.014" y="-166.794" width="122.691" height="14.4001" transform="rotate(180)" class="st11"/>
			<text x="-147.01" y="-155.99" transform="rotate(180)" class="st7">NDEF («Hello World!»)</text>		</g>
		<g id="shape336-51" transform="translate(241.584,-49.5941)">
			<title>s.5</title>
			<desc>Hello world!</desc>
			<rect x="0" y="114.594" width="61.0714" height="45" class="st12"/>
			<text x="16.86" y="133.49" class="st7">Hello <tspan x="14.53" dy="1.2em" class="st8">world</tspan>!</text>		</g>
		<g id="shape337-55" transform="translate(241.584,-29.5941)">
			<title>Sheet.337</title>
			<desc>Data</desc>
			<rect x="0" y="139.594" width="61.0714" height="20" class="st13"/>
			<text x="17.86" y="153.19" class="st7">Data</text>		</g>
	</g>
</svg>
