<?xml version="1.0" encoding="UTF-8" standalone="no"?>
<!DOCTYPE svg PUBLIC "-//W3C//DTD SVG 1.1//EN" "http://www.w3.org/Graphics/SVG/1.1/DTD/svg11.dtd">
<!-- Generated by Microsoft Visio, SVG Export nfc_static_connection_handover.svg Page-1 -->
<svg xmlns="http://www.w3.org/2000/svg" xmlns:xlink="http://www.w3.org/1999/xlink" xmlns:ev="http://www.w3.org/2001/xml-events"
		width="7.44995in" height="2.38561in" viewBox="0 0 536.397 171.764" xml:space="preserve" color-interpolation-filters="sRGB"
		class="st16">
	<style type="text/css">
	<![CDATA[
		.st1 {fill:none;stroke:none;stroke-linecap:butt;stroke-width:0.799994}
		.st2 {fill:#0077c8;stroke:none;stroke-linecap:butt;stroke-width:0.799994}
		.st3 {fill:none;stroke:#3465a4;stroke-linecap:butt;stroke-width:0.799994}
		.st4 {fill:none;stroke:none;stroke-linecap:butt;stroke-width:0.75}
		.st5 {fill:#000000;font-family:Calibri;font-size:1.49764em}
		.st6 {fill:none}
		.st7 {stroke:#000000;stroke-linecap:butt;stroke-width:0.799994}
		.st8 {fill:#000000;stroke:none;stroke-linecap:butt;stroke-width:0.799994}
		.st9 {fill:#00a9ce;stroke:none;stroke-linecap:butt;stroke-width:0.799994}
		.st10 {fill:#768692;stroke:none;stroke-linecap:butt;stroke-width:0.799994}
		.st11 {fill:#ffffff;font-family:Calibri;font-size:1.33228em}
		.st12 {font-size:1em}
		.st13 {stroke:#111111;stroke-linecap:butt;stroke-width:0.799994}
		.st14 {fill:#111111;stroke:none;stroke-linecap:butt;stroke-width:0.799994}
		.st15 {fill:#000000;font-family:Calibri;font-size:0.833862em}
		.st16 {fill:none;fill-rule:evenodd;font-size:12px;overflow:visible;stroke-linecap:square;stroke-miterlimit:3}
	]]>
	</style>

	<g>
		<title>Page-1</title>
		<g id="group116-1" transform="translate(0.799994,-0.799994)">
			<title>Sheet.116</title>
			<g id="group3-2" transform="translate(382.677,-102.047)">
				<title>id3</title>
				<g id="shape4-3">
					<title>Sheet.4</title>
					<rect x="0" y="106.482" width="150.973" height="65.2819" class="st1"/>
				</g>
				<g id="shape5-5" transform="translate(0.0301765,-0.0566929)">
					<title>Sheet.5</title>
					<path d="M75.44 171.76 L0 171.76 L0 106.57 L150.88 106.57 L150.88 171.76 L75.44 171.76 Z" class="st2"/>
				</g>
				<g id="shape6-7" transform="translate(0.0301765,-0.0566929)">
					<title>Sheet.6</title>
					<path d="M75.44 171.76 L0 171.76 L0 106.57 L150.88 106.57 L150.88 171.76 L75.44 171.76 Z" class="st3"/>
				</g>
			</g>
			<g id="group7-9">
				<title>id4</title>
				<g id="shape8-10">
					<title>Sheet.8</title>
					<rect x="0" y="1.59999" width="172.998" height="170.164" class="st1"/>
				</g>
				<g id="shape9-12" transform="translate(0.0283465,-0.0566929)">
					<title>Sheet.9</title>
					<path d="M86.46 171.76 L0 171.76 L0 1.69 L172.91 1.69 L172.91 171.76 L86.46 171.76 Z" class="st2"/>
				</g>
				<g id="shape10-14" transform="translate(0.0283465,-0.0566929)">
					<title>Sheet.10</title>
					<path d="M86.46 171.76 L0 171.76 L0 1.69 L172.91 1.69 L172.91 171.76 L86.46 171.76 Z" class="st3"/>
				</g>
			</g>
			<g id="group11-16" transform="translate(397.704,-123.644)">
				<title>id5</title>
				<g id="shape12-17">
					<title>Sheet.12</title>
					<rect x="0" y="149.675" width="58.7514" height="22.089" class="st1"/>
				</g>
				<g id="shape13-19" transform="translate(3.847,-10.3293)">
					<title>Sheet.13</title>
					<desc>NFC Forum Tag</desc>
					<rect x="0" y="161.725" width="117.072" height="10.039" class="st4"/>
					<text x="0" y="172.14" class="st5">NFC Forum Tag</text>				</g>
			</g>
			<g id="group14-22" transform="translate(172.942,-129.005)">
				<title>id6</title>
				<g id="shape15-23">
					<title>Sheet.15</title>
					<rect x="0" y="163.231" width="209.82" height="8.53228" class="st1"/>
				</g>
				<g id="shape16-25" transform="translate(12.189,-4.28031)">
					<title>Sheet.16</title>
					<path d="M197.57 171.76 L0 171.76 L197.57 171.76 Z" class="st6"/>
					<path d="M197.57 171.76 L0 171.76" class="st7"/>
				</g>
				<g id="shape17-28" transform="translate(-1.04916E-13,-0.0283465)">
					<title>Sheet.17</title>
					<path d="M0 167.51 L12.76 171.76 L12.76 163.26 L0 167.51 Z" class="st8"/>
				</g>
			</g>
			<g id="group18-30" transform="translate(8.50394,-102.047)">
				<title>id7</title>
				<g id="shape19-31">
					<title>Sheet.19</title>
					<rect x="0" y="109.317" width="155.991" height="62.4472" class="st1"/>
				</g>
				<g id="shape20-33" transform="translate(0.0283465,-0.0566929)">
					<title>Sheet.20</title>
					<path d="M77.95 171.76 L0 171.76 L0 109.4 L155.91 109.4 L155.91 171.76 L77.95 171.76 Z" class="st9"/>
				</g>
				<g id="shape21-35" transform="translate(0.0283465,-0.0566929)">
					<title>Sheet.21</title>
					<path d="M77.95 171.76 L0 171.76 L0 109.4 L155.91 109.4 L155.91 171.76 L77.95 171.76 Z" class="st3"/>
				</g>
			</g>
			<g id="group22-37" transform="translate(36.8787,-110.58)">
				<title>id8</title>
				<g id="shape23-38">
					<title>Sheet.23</title>
					<rect x="0" y="124.312" width="102.076" height="47.452" class="st1"/>
				</g>
				<g id="shape24-40" transform="translate(-11.7283,-12.797)">
					<title>Sheet.24</title>
					<desc>NFC Poller Device</desc>
					<rect x="0" y="150.198" width="134.185" height="21.566" class="st4"/>
					<text x="0" y="166.37" class="st5">NFC Poller Device</text>				</g>
			</g>
			<g id="group25-43" transform="translate(11.3386,-11.3386)">
				<title>id9</title>
				<g id="shape26-44">
					<title>Sheet.26</title>
					<rect x="0" y="97.9779" width="43.0221" height="73.7858" class="st1"/>
				</g>
				<g id="shape27-46" transform="translate(0.00796262,-0.0566929)">
					<title>Sheet.27</title>
					<path d="M76.38 171.76 L0 171.76 L0 98.06 L152.76 98.06 L152.76 171.76 L76.38 171.76 Z" class="st10"/>
				</g>
				<g id="shape28-48" transform="translate(0.00796262,-0.0566929)">
					<title>Sheet.28</title>
					<path d="M76.38 171.76 L0 171.76 L0 98.06 L152.76 98.06 L152.76 171.76 L76.38 171.76 Z" class="st3"/>
				</g>
				<g id="shape29-50" transform="translate(11.5703,-17.8746)">
					<title>Sheet.29</title>
					<desc>Alternative Carrier (Bluetooth LE)</desc>
					<rect x="0" y="133.699" width="129.638" height="38.065" class="st4"/>
					<text x="4.72" y="147.94" class="st11">Alternative Carrier <tspan x="18.55" dy="1.2em" class="st12">(Bluetooth LE)</tspan></text>				</g>
			</g>
			<g id="group35-54" transform="translate(172.942,-49.6346)">
				<title>id11</title>
				<g id="shape36-55">
					<title>Sheet.36</title>
					<rect x="0" y="163.231" width="209.792" height="8.53228" class="st1"/>
				</g>
				<g id="shape37-57" transform="translate(12.189,-4.28031)">
					<title>Sheet.37</title>
					<path d="M0 171.76 L1.5 171.76 L0 171.76 Z" class="st6"/>
					<path d="M0 171.76 L1.5 171.76" class="st13"/>
				</g>
				<g id="shape38-60" transform="translate(15.1937,-4.28031)">
					<title>Sheet.38</title>
					<path d="M0 171.76 L1.5 171.76 L0 171.76 Z" class="st6"/>
					<path d="M0 171.76 L1.5 171.76" class="st13"/>
				</g>
				<g id="shape39-63" transform="translate(18.1984,-4.28031)">
					<title>Sheet.39</title>
					<path d="M0 171.76 L1.5 171.76 L0 171.76 Z" class="st6"/>
					<path d="M0 171.76 L1.5 171.76" class="st13"/>
				</g>
				<g id="shape40-66" transform="translate(21.2315,-4.28031)">
					<title>Sheet.40</title>
					<path d="M0 171.76 L1.5 171.76 L0 171.76 Z" class="st6"/>
					<path d="M0 171.76 L1.5 171.76" class="st13"/>
				</g>
				<g id="shape41-69" transform="translate(24.2362,-4.28031)">
					<title>Sheet.41</title>
					<path d="M0 171.76 L1.5 171.76 L0 171.76 Z" class="st6"/>
					<path d="M0 171.76 L1.5 171.76" class="st13"/>
				</g>
				<g id="shape42-72" transform="translate(27.2409,-4.28031)">
					<title>Sheet.42</title>
					<path d="M0 171.76 L1.5 171.76 L0 171.76 Z" class="st6"/>
					<path d="M0 171.76 L1.5 171.76" class="st13"/>
				</g>
				<g id="shape43-75" transform="translate(30.2457,-4.28031)">
					<title>Sheet.43</title>
					<path d="M0 171.76 L1.5 171.76 L0 171.76 Z" class="st6"/>
					<path d="M0 171.76 L1.5 171.76" class="st13"/>
				</g>
				<g id="shape44-78" transform="translate(33.2504,-4.28031)">
					<title>Sheet.44</title>
					<path d="M0 171.76 L1.5 171.76 L0 171.76 Z" class="st6"/>
					<path d="M0 171.76 L1.5 171.76" class="st13"/>
				</g>
				<g id="shape45-81" transform="translate(36.2551,-4.28031)">
					<title>Sheet.45</title>
					<path d="M0 171.76 L1.53 171.76 L0 171.76 Z" class="st6"/>
					<path d="M0 171.76 L1.53 171.76" class="st13"/>
				</g>
				<g id="shape46-84" transform="translate(39.2882,-4.28031)">
					<title>Sheet.46</title>
					<path d="M0 171.76 L1.5 171.76 L0 171.76 Z" class="st6"/>
					<path d="M0 171.76 L1.5 171.76" class="st13"/>
				</g>
				<g id="shape47-87" transform="translate(42.2929,-4.28031)">
					<title>Sheet.47</title>
					<path d="M0 171.76 L1.5 171.76 L0 171.76 Z" class="st6"/>
					<path d="M0 171.76 L1.5 171.76" class="st13"/>
				</g>
				<g id="shape48-90" transform="translate(45.2976,-4.28031)">
					<title>Sheet.48</title>
					<path d="M0 171.76 L1.5 171.76 L0 171.76 Z" class="st6"/>
					<path d="M0 171.76 L1.5 171.76" class="st13"/>
				</g>
				<g id="shape49-93" transform="translate(48.3024,-4.28031)">
					<title>Sheet.49</title>
					<path d="M0 171.76 L1.5 171.76 L0 171.76 Z" class="st6"/>
					<path d="M0 171.76 L1.5 171.76" class="st13"/>
				</g>
				<g id="shape50-96" transform="translate(51.3071,-4.28031)">
					<title>Sheet.50</title>
					<path d="M0 171.76 L1.5 171.76 L0 171.76 Z" class="st6"/>
					<path d="M0 171.76 L1.5 171.76" class="st13"/>
				</g>
				<g id="shape51-99" transform="translate(54.3402,-4.28031)">
					<title>Sheet.51</title>
					<path d="M0 171.76 L1.5 171.76 L0 171.76 Z" class="st6"/>
					<path d="M0 171.76 L1.5 171.76" class="st13"/>
				</g>
				<g id="shape52-102" transform="translate(57.3449,-4.28031)">
					<title>Sheet.52</title>
					<path d="M0 171.76 L1.5 171.76 L0 171.76 Z" class="st6"/>
					<path d="M0 171.76 L1.5 171.76" class="st13"/>
				</g>
				<g id="shape53-105" transform="translate(60.3496,-4.28031)">
					<title>Sheet.53</title>
					<path d="M0 171.76 L1.5 171.76 L0 171.76 Z" class="st6"/>
					<path d="M0 171.76 L1.5 171.76" class="st13"/>
				</g>
				<g id="shape54-108" transform="translate(63.3543,-4.28031)">
					<title>Sheet.54</title>
					<path d="M0 171.76 L1.5 171.76 L0 171.76 Z" class="st6"/>
					<path d="M0 171.76 L1.5 171.76" class="st13"/>
				</g>
				<g id="shape55-111" transform="translate(66.3591,-4.28031)">
					<title>Sheet.55</title>
					<path d="M0 171.76 L1.5 171.76 L0 171.76 Z" class="st6"/>
					<path d="M0 171.76 L1.5 171.76" class="st13"/>
				</g>
				<g id="shape56-114" transform="translate(69.3638,-4.28031)">
					<title>Sheet.56</title>
					<path d="M0 171.76 L1.53 171.76 L0 171.76 Z" class="st6"/>
					<path d="M0 171.76 L1.53 171.76" class="st13"/>
				</g>
				<g id="shape57-117" transform="translate(72.3969,-4.28031)">
					<title>Sheet.57</title>
					<path d="M0 171.76 L1.5 171.76 L0 171.76 Z" class="st6"/>
					<path d="M0 171.76 L1.5 171.76" class="st13"/>
				</g>
				<g id="shape58-120" transform="translate(75.4016,-4.28031)">
					<title>Sheet.58</title>
					<path d="M0 171.76 L1.5 171.76 L0 171.76 Z" class="st6"/>
					<path d="M0 171.76 L1.5 171.76" class="st13"/>
				</g>
				<g id="shape59-123" transform="translate(78.4063,-4.28031)">
					<title>Sheet.59</title>
					<path d="M0 171.76 L1.5 171.76 L0 171.76 Z" class="st6"/>
					<path d="M0 171.76 L1.5 171.76" class="st13"/>
				</g>
				<g id="shape60-126" transform="translate(81.411,-4.28031)">
					<title>Sheet.60</title>
					<path d="M0 171.76 L1.5 171.76 L0 171.76 Z" class="st6"/>
					<path d="M0 171.76 L1.5 171.76" class="st13"/>
				</g>
				<g id="shape61-129" transform="translate(84.4157,-4.28031)">
					<title>Sheet.61</title>
					<path d="M0 171.76 L1.5 171.76 L0 171.76 Z" class="st6"/>
					<path d="M0 171.76 L1.5 171.76" class="st13"/>
				</g>
				<g id="shape62-132" transform="translate(87.4488,-4.28031)">
					<title>Sheet.62</title>
					<path d="M0 171.76 L1.5 171.76 L0 171.76 Z" class="st6"/>
					<path d="M0 171.76 L1.5 171.76" class="st13"/>
				</g>
				<g id="shape63-135" transform="translate(90.4535,-4.28031)">
					<title>Sheet.63</title>
					<path d="M0 171.76 L1.5 171.76 L0 171.76 Z" class="st6"/>
					<path d="M0 171.76 L1.5 171.76" class="st13"/>
				</g>
				<g id="shape64-138" transform="translate(93.4583,-4.28031)">
					<title>Sheet.64</title>
					<path d="M0 171.76 L1.5 171.76 L0 171.76 Z" class="st6"/>
					<path d="M0 171.76 L1.5 171.76" class="st13"/>
				</g>
				<g id="shape65-141" transform="translate(96.463,-4.28031)">
					<title>Sheet.65</title>
					<path d="M0 171.76 L1.5 171.76 L0 171.76 Z" class="st6"/>
					<path d="M0 171.76 L1.5 171.76" class="st13"/>
				</g>
				<g id="shape66-144" transform="translate(99.4677,-4.28031)">
					<title>Sheet.66</title>
					<path d="M0 171.76 L1.5 171.76 L0 171.76 Z" class="st6"/>
					<path d="M0 171.76 L1.5 171.76" class="st13"/>
				</g>
				<g id="shape67-147" transform="translate(102.472,-4.28031)">
					<title>Sheet.67</title>
					<path d="M0 171.76 L1.53 171.76 L0 171.76 Z" class="st6"/>
					<path d="M0 171.76 L1.53 171.76" class="st13"/>
				</g>
				<g id="shape68-150" transform="translate(105.506,-4.28031)">
					<title>Sheet.68</title>
					<path d="M0 171.76 L1.5 171.76 L0 171.76 Z" class="st6"/>
					<path d="M0 171.76 L1.5 171.76" class="st13"/>
				</g>
				<g id="shape69-153" transform="translate(108.51,-4.28031)">
					<title>Sheet.69</title>
					<path d="M0 171.76 L1.5 171.76 L0 171.76 Z" class="st6"/>
					<path d="M0 171.76 L1.5 171.76" class="st13"/>
				</g>
				<g id="shape70-156" transform="translate(111.515,-4.28031)">
					<title>Sheet.70</title>
					<path d="M0 171.76 L1.5 171.76 L0 171.76 Z" class="st6"/>
					<path d="M0 171.76 L1.5 171.76" class="st13"/>
				</g>
				<g id="shape71-159" transform="translate(114.52,-4.28031)">
					<title>Sheet.71</title>
					<path d="M0 171.76 L1.5 171.76 L0 171.76 Z" class="st6"/>
					<path d="M0 171.76 L1.5 171.76" class="st13"/>
				</g>
				<g id="shape72-162" transform="translate(117.524,-4.28031)">
					<title>Sheet.72</title>
					<path d="M0 171.76 L1.5 171.76 L0 171.76 Z" class="st6"/>
					<path d="M0 171.76 L1.5 171.76" class="st13"/>
				</g>
				<g id="shape73-165" transform="translate(120.557,-4.28031)">
					<title>Sheet.73</title>
					<path d="M0 171.76 L1.5 171.76 L0 171.76 Z" class="st6"/>
					<path d="M0 171.76 L1.5 171.76" class="st13"/>
				</g>
				<g id="shape74-168" transform="translate(123.562,-4.28031)">
					<title>Sheet.74</title>
					<path d="M0 171.76 L1.5 171.76 L0 171.76 Z" class="st6"/>
					<path d="M0 171.76 L1.5 171.76" class="st13"/>
				</g>
				<g id="shape75-171" transform="translate(126.567,-4.28031)">
					<title>Sheet.75</title>
					<path d="M0 171.76 L1.5 171.76 L0 171.76 Z" class="st6"/>
					<path d="M0 171.76 L1.5 171.76" class="st13"/>
				</g>
				<g id="shape76-174" transform="translate(129.572,-4.28031)">
					<title>Sheet.76</title>
					<path d="M0 171.76 L1.5 171.76 L0 171.76 Z" class="st6"/>
					<path d="M0 171.76 L1.5 171.76" class="st13"/>
				</g>
				<g id="shape77-177" transform="translate(132.576,-4.28031)">
					<title>Sheet.77</title>
					<path d="M0 171.76 L1.5 171.76 L0 171.76 Z" class="st6"/>
					<path d="M0 171.76 L1.5 171.76" class="st13"/>
				</g>
				<g id="shape78-180" transform="translate(135.609,-4.28031)">
					<title>Sheet.78</title>
					<path d="M0 171.76 L1.5 171.76 L0 171.76 Z" class="st6"/>
					<path d="M0 171.76 L1.5 171.76" class="st13"/>
				</g>
				<g id="shape79-183" transform="translate(138.614,-4.28031)">
					<title>Sheet.79</title>
					<path d="M0 171.76 L1.5 171.76 L0 171.76 Z" class="st6"/>
					<path d="M0 171.76 L1.5 171.76" class="st13"/>
				</g>
				<g id="shape80-186" transform="translate(141.619,-4.28031)">
					<title>Sheet.80</title>
					<path d="M0 171.76 L1.5 171.76 L0 171.76 Z" class="st6"/>
					<path d="M0 171.76 L1.5 171.76" class="st13"/>
				</g>
				<g id="shape81-189" transform="translate(144.624,-4.28031)">
					<title>Sheet.81</title>
					<path d="M0 171.76 L1.5 171.76 L0 171.76 Z" class="st6"/>
					<path d="M0 171.76 L1.5 171.76" class="st13"/>
				</g>
				<g id="shape82-192" transform="translate(147.628,-4.28031)">
					<title>Sheet.82</title>
					<path d="M0 171.76 L1.5 171.76 L0 171.76 Z" class="st6"/>
					<path d="M0 171.76 L1.5 171.76" class="st13"/>
				</g>
				<g id="shape83-195" transform="translate(150.633,-4.28031)">
					<title>Sheet.83</title>
					<path d="M0 171.76 L1.53 171.76 L0 171.76 Z" class="st6"/>
					<path d="M0 171.76 L1.53 171.76" class="st13"/>
				</g>
				<g id="shape84-198" transform="translate(153.666,-4.28031)">
					<title>Sheet.84</title>
					<path d="M0 171.76 L1.5 171.76 L0 171.76 Z" class="st6"/>
					<path d="M0 171.76 L1.5 171.76" class="st13"/>
				</g>
				<g id="shape85-201" transform="translate(156.671,-4.28031)">
					<title>Sheet.85</title>
					<path d="M0 171.76 L1.5 171.76 L0 171.76 Z" class="st6"/>
					<path d="M0 171.76 L1.5 171.76" class="st13"/>
				</g>
				<g id="shape86-204" transform="translate(159.676,-4.28031)">
					<title>Sheet.86</title>
					<path d="M0 171.76 L1.5 171.76 L0 171.76 Z" class="st6"/>
					<path d="M0 171.76 L1.5 171.76" class="st13"/>
				</g>
				<g id="shape87-207" transform="translate(162.68,-4.28031)">
					<title>Sheet.87</title>
					<path d="M0 171.76 L1.5 171.76 L0 171.76 Z" class="st6"/>
					<path d="M0 171.76 L1.5 171.76" class="st13"/>
				</g>
				<g id="shape88-210" transform="translate(165.685,-4.28031)">
					<title>Sheet.88</title>
					<path d="M0 171.76 L1.5 171.76 L0 171.76 Z" class="st6"/>
					<path d="M0 171.76 L1.5 171.76" class="st13"/>
				</g>
				<g id="shape89-213" transform="translate(168.718,-4.28031)">
					<title>Sheet.89</title>
					<path d="M0 171.76 L1.5 171.76 L0 171.76 Z" class="st6"/>
					<path d="M0 171.76 L1.5 171.76" class="st13"/>
				</g>
				<g id="shape90-216" transform="translate(171.723,-4.28031)">
					<title>Sheet.90</title>
					<path d="M0 171.76 L1.5 171.76 L0 171.76 Z" class="st6"/>
					<path d="M0 171.76 L1.5 171.76" class="st13"/>
				</g>
				<g id="shape91-219" transform="translate(174.728,-4.28031)">
					<title>Sheet.91</title>
					<path d="M0 171.76 L1.5 171.76 L0 171.76 Z" class="st6"/>
					<path d="M0 171.76 L1.5 171.76" class="st13"/>
				</g>
				<g id="shape92-222" transform="translate(177.732,-4.28031)">
					<title>Sheet.92</title>
					<path d="M0 171.76 L1.5 171.76 L0 171.76 Z" class="st6"/>
					<path d="M0 171.76 L1.5 171.76" class="st13"/>
				</g>
				<g id="shape93-225" transform="translate(180.737,-4.28031)">
					<title>Sheet.93</title>
					<path d="M0 171.76 L1.5 171.76 L0 171.76 Z" class="st6"/>
					<path d="M0 171.76 L1.5 171.76" class="st13"/>
				</g>
				<g id="shape94-228" transform="translate(183.742,-4.28031)">
					<title>Sheet.94</title>
					<path d="M0 171.76 L1.53 171.76 L0 171.76 Z" class="st6"/>
					<path d="M0 171.76 L1.53 171.76" class="st13"/>
				</g>
				<g id="shape95-231" transform="translate(186.775,-4.28031)">
					<title>Sheet.95</title>
					<path d="M0 171.76 L1.5 171.76 L0 171.76 Z" class="st6"/>
					<path d="M0 171.76 L1.5 171.76" class="st13"/>
				</g>
				<g id="shape96-234" transform="translate(189.78,-4.28031)">
					<title>Sheet.96</title>
					<path d="M0 171.76 L1.5 171.76 L0 171.76 Z" class="st6"/>
					<path d="M0 171.76 L1.5 171.76" class="st13"/>
				</g>
				<g id="shape97-237" transform="translate(192.784,-4.28031)">
					<title>Sheet.97</title>
					<path d="M0 171.76 L1.5 171.76 L0 171.76 Z" class="st6"/>
					<path d="M0 171.76 L1.5 171.76" class="st13"/>
				</g>
				<g id="shape98-240" transform="translate(195.789,-4.28031)">
					<title>Sheet.98</title>
					<path d="M0 171.76 L1.5 171.76 L0 171.76 Z" class="st6"/>
					<path d="M0 171.76 L1.5 171.76" class="st13"/>
				</g>
				<g id="shape99-243" transform="translate(-1.04916E-13,-0.0283465)">
					<title>Sheet.99</title>
					<path d="M0 167.51 L12.76 171.76 L12.76 163.26 L0 167.51 Z" class="st14"/>
				</g>
				<g id="shape100-245" transform="translate(197.008,-0.0283465)">
					<title>Sheet.100</title>
					<path d="M12.76 167.51 L0 163.26 L0 171.76 L12.76 167.51 Z" class="st14"/>
				</g>
			</g>
			<g id="group101-247" transform="translate(190.46,-138.926)">
				<title>id12</title>
				<g id="shape102-248">
					<title>Sheet.102</title>
					<rect x="0" y="153.452" width="87.4773" height="18.3118" class="st1"/>
				</g>
				<g id="shape103-250" transform="translate(3.04078,-2.75244)">
					<title>Sheet.103</title>
					<desc>Handover Select (Bluetooth LE, OOB data)</desc>
					<rect x="0" y="159.756" width="171.743" height="12.0076" class="st4"/>
					<text x="0" y="168.76" class="st15">Handover Select (Bluetooth LE, OOB data)</text>				</g>
			</g>
			<g id="group104-253" transform="translate(206.405,-27.0992)">
				<title>id13</title>
				<g id="shape105-254">
					<title>Sheet.105</title>
					<rect x="0" y="153.452" width="75.73" height="18.3118" class="st1"/>
				</g>
				<g id="shape106-256" transform="translate(4.7702,-2.75244)">
					<title>Sheet.106</title>
					<desc>Data exchange over Bluetooth LE</desc>
					<rect x="0" y="159.756" width="138.096" height="12.0076" class="st4"/>
					<text x="0" y="168.76" class="st15">Data exchange over Bluetooth LE</text>				</g>
			</g>
			<g id="group109-259" transform="translate(382.026,-11.3953)">
				<title>id9.109</title>
				<g id="shape110-260">
					<title>Sheet.110</title>
					<rect x="0" y="97.9779" width="43.0221" height="73.7858" class="st1"/>
				</g>
				<g id="shape111-262" transform="translate(0.00796262,-0.0566929)">
					<title>Sheet.111</title>
					<path d="M76.38 171.76 L0 171.76 L0 98.06 L152.76 98.06 L152.76 171.76 L76.38 171.76 Z" class="st10"/>
				</g>
				<g id="shape112-264" transform="translate(0.00796262,-0.0566929)">
					<title>Sheet.112</title>
					<path d="M76.38 171.76 L0 171.76 L0 98.06 L152.76 98.06 L152.76 171.76 L76.38 171.76 Z" class="st3"/>
				</g>
				<g id="shape113-266" transform="translate(11.5703,-17.8746)">
					<title>Sheet.113</title>
					<desc>Alternative Carrier (Bluetooth LE)</desc>
					<rect x="0" y="133.699" width="129.638" height="38.065" class="st4"/>
					<text x="4.72" y="147.94" class="st11">Alternative Carrier <tspan x="18.55" dy="1.2em" class="st12">(Bluetooth LE)</tspan></text>				</g>
			</g>
		</g>
	</g>
</svg>
