<?xml version="1.0" encoding="UTF-8" standalone="no"?>
<!DOCTYPE svg PUBLIC "-//W3C//DTD SVG 1.1//EN" "http://www.w3.org/Graphics/SVG/1.1/DTD/svg11.dtd">
<!-- Generated by Microsoft Visio, SVG Export nrf-secure-rom-granularity.svg Page-1 -->
<svg xmlns="http://www.w3.org/2000/svg" xmlns:xlink="http://www.w3.org/1999/xlink" xmlns:ev="http://www.w3.org/2001/xml-events"
		width="6.02476in" height="2.61428in" viewBox="0 0 433.783 188.228" xml:space="preserve" color-interpolation-filters="sRGB"
		class="st13">
	<style type="text/css">
	<![CDATA[
		.st1 {fill:#6ad1e3;stroke:none;stroke-width:0.5}
		.st2 {fill:none;stroke:none;stroke-width:0.5}
		.st3 {fill:#000000;font-family:Arial;font-size:0.75em}
		.st4 {fill:#000000;font-family:Arial;font-size:0.833336em}
		.st5 {fill:#ffffff;stroke:#000000;stroke-width:0.5}
		.st6 {fill:#768692;stroke:#000000;stroke-width:0.5}
		.st7 {fill:#0033a0;stroke:#000000;stroke-width:0.5}
		.st8 {fill:#d9e1e2;stroke:none;stroke-width:0.5}
		.st9 {fill:#0033a0;stroke:none;stroke-width:1}
		.st10 {fill:#ffffff;font-family:Arial;font-size:0.666664em}
		.st11 {fill:#768692;stroke:none;stroke-width:1}
		.st12 {fill:none;stroke:none;stroke-width:1}
		.st13 {fill:none;fill-rule:evenodd;font-size:12px;overflow:visible;stroke-linecap:square;stroke-miterlimit:3}
	]]>
	</style>

	<g>
		<title>Page-1</title>
		<g id="shape6-1" transform="translate(0.5,-0.5)">
			<title>Sheet.6</title>
			<rect x="0" y="87.0315" width="320.933" height="101.197" class="st1"/>
		</g>
		<g id="shape17-3" transform="translate(0.5,-107.791)">
			<title>Sheet.17</title>
			<rect x="0" y="108.291" width="364.44" height="79.937" class="st1"/>
		</g>
		<g id="shape5-5" transform="translate(185.989,-162.064)">
			<title>Sheet.5</title>
			<desc>Granularity by device</desc>
			<rect x="0" y="169.228" width="140" height="19" class="st2"/>
			<text x="27.73" y="181.43" class="st3">Granularity by device</text>		</g>
		<g id="shape7-8" transform="translate(0.5,-74.8292)">
			<title>Sheet.7</title>
			<desc>nRF54</desc>
			<rect x="0" y="169.228" width="44.2404" height="19" class="st2"/>
			<text x="7.11" y="181.73" class="st4">nRF54</text>		</g>
		<g id="shape8-11" transform="translate(0.5,-48.7599)">
			<title>Sheet.8</title>
			<desc>nRF53</desc>
			<rect x="0" y="169.228" width="44.2404" height="19" class="st2"/>
			<text x="7.11" y="181.73" class="st4">nRF53</text>		</g>
		<g id="shape9-14" transform="translate(0.5,-27.547)">
			<title>Sheet.9</title>
			<desc>nRF91</desc>
			<rect x="0" y="169.228" width="44.2404" height="19" class="st2"/>
			<text x="7.11" y="181.73" class="st4">nRF91</text>		</g>
		<g id="shape10-17" transform="translate(94.9328,-51.1663)">
			<title>Nordic Blue.1056</title>
			<rect x="0" y="171.635" width="16.7308" height="16.5936" class="st5"/>
		</g>
		<g id="shape11-19" transform="translate(3.11605,-160.861)">
			<title>Sheet.11</title>
			<desc>nRF54</desc>
			<rect x="0" y="169.228" width="44.2404" height="19" class="st2"/>
			<text x="7.11" y="181.73" class="st4">nRF54</text>		</g>
		<g id="shape12-22" transform="translate(3.11605,-138.718)">
			<title>Sheet.12</title>
			<desc>nRF53</desc>
			<rect x="0" y="169.228" width="44.2404" height="19" class="st2"/>
			<text x="7.11" y="181.73" class="st4">nRF53</text>		</g>
		<g id="shape13-25" transform="translate(2.839,-116.575)">
			<title>Sheet.13</title>
			<desc>nRF91</desc>
			<rect x="0" y="169.228" width="44.7944" height="19" class="st2"/>
			<text x="7.39" y="181.73" class="st4">nRF91</text>		</g>
		<g id="shape14-28" transform="translate(70.5935,-160.861)">
			<title>Sheet.14</title>
			<desc>4 kB</desc>
			<rect x="0" y="169.228" width="29.4935" height="19" class="st2"/>
			<text x="5.74" y="181.43" class="st3">4 kB</text>		</g>
		<g id="shape15-31" transform="translate(116.72,-138.265)">
			<title>Sheet.15</title>
			<desc>16 kB</desc>
			<rect x="0" y="169.228" width="44.2404" height="19" class="st2"/>
			<text x="10.61" y="181.43" class="st3">16 kB</text>		</g>
		<g id="shape16-34" transform="translate(317.98,-115.372)">
			<title>Sheet.16</title>
			<desc>32 kB</desc>
			<rect x="0" y="169.228" width="44.2404" height="19" class="st2"/>
			<text x="10.61" y="181.43" class="st3">32 kB</text>		</g>
		<g id="shape18-37" transform="translate(53.8626,-162.064)">
			<title>Nordic Blue.1003</title>
			<rect x="0" y="171.635" width="16.7308" height="16.5936" class="st5"/>
		</g>
		<g id="shape19-39" transform="translate(94.9328,-76.0324)">
			<title>Nordic Blue.1071</title>
			<rect x="0" y="171.635" width="16.7308" height="16.5936" class="st6"/>
		</g>
		<g id="shape20-41" transform="translate(111.664,-76.0324)">
			<title>Nordic Blue.1072</title>
			<rect x="0" y="171.635" width="16.7308" height="16.5936" class="st6"/>
		</g>
		<g id="shape21-43" transform="translate(128.395,-76.0324)">
			<title>Nordic Blue.1073</title>
			<rect x="0" y="171.635" width="16.7308" height="16.5936" class="st6"/>
		</g>
		<g id="shape22-45" transform="translate(167.525,-51.1663)">
			<title>Nordic Blue.1077</title>
			<rect x="0" y="171.635" width="16.7308" height="16.5936" class="st5"/>
		</g>
		<g id="shape24-47" transform="translate(184.256,-76.0324)">
			<title>Sheet.24</title>
			<desc>Alignment to flash regions</desc>
			<rect x="0" y="169.228" width="135.329" height="19" class="st2"/>
			<text x="15.89" y="181.43" class="st3">Alignment to flash regions</text>		</g>
		<g id="shape32-50" transform="translate(44.7404,-76.0324)">
			<title>Nordic Blue.1051</title>
			<rect x="0" y="171.635" width="16.7308" height="16.5936" class="st7"/>
		</g>
		<g id="shape33-52" transform="translate(61.4712,-76.0324)">
			<title>Nordic Blue.1069</title>
			<rect x="0" y="171.635" width="16.7308" height="16.5936" class="st7"/>
		</g>
		<g id="shape34-54" transform="translate(78.202,-76.0324)">
			<title>Nordic Blue.1070</title>
			<rect x="0" y="171.635" width="16.7308" height="16.5936" class="st7"/>
		</g>
		<g id="shape35-56" transform="translate(44.7404,-51.1663)">
			<title>Nordic Blue.1133</title>
			<rect x="0" y="171.635" width="50.1925" height="16.5936" class="st7"/>
		</g>
		<g id="shape36-58" transform="translate(117.333,-51.1663)">
			<title>Nordic Blue.1134</title>
			<rect x="0" y="171.635" width="50.1925" height="16.5936" class="st6"/>
		</g>
		<g id="shape37-60" transform="translate(44.7404,-6.65449)">
			<title>Nordic Blue.1137</title>
			<rect x="0" y="171.635" width="267.693" height="16.5936" class="st5"/>
		</g>
		<g id="shape38-62" transform="translate(44.7295,-27.547)">
			<title>Nordic Blue.1130</title>
			<rect x="0" y="171.635" width="267.693" height="16.5936" class="st5"/>
		</g>
		<g id="shape39-64" transform="translate(44.7295,-27.547)">
			<title>Nordic Blue.1135</title>
			<rect x="0" y="171.635" width="50.1925" height="16.5936" class="st7"/>
		</g>
		<g id="shape41-66" transform="translate(44.7404,-6.65449)">
			<title>Nordic Blue.1136</title>
			<rect x="0" y="171.635" width="50.1925" height="16.5936" class="st6"/>
		</g>
		<g id="shape42-68" transform="translate(53.8626,-139.469)">
			<title>Nordic Blue.1036</title>
			<rect x="0" y="171.635" width="66.9233" height="16.5936" class="st5"/>
		</g>
		<g id="shape43-70" transform="translate(53.8626,-116.575)">
			<title>Nordic Blue.1142</title>
			<rect x="0" y="171.635" width="267.693" height="16.5936" class="st5"/>
		</g>
		<g id="shape1004-72" transform="translate(327.402,-0.5)">
			<title>Sheet.1004</title>
			<desc>Legend</desc>
			<rect x="0" y="87.0315" width="105.881" height="101.197" class="st8"/>
			<text x="37.92" y="99.13" class="st3">Legend</text>		</g>
		<g id="shape1001-75" transform="translate(346.881,-57.3071)">
			<title>Nordic Blueslate.1001</title>
			<desc>TF-M binary</desc>
			<rect x="0" y="168.358" width="66.9233" height="19.8701" class="st9"/>
			<text x="11.91" y="180.69" class="st10">TF-M binary</text>		</g>
		<g id="shape1002-78" transform="translate(346.881,-31.8091)">
			<title>Nordic Middle Grey.1002</title>
			<desc>Secure Storage</desc>
			<rect x="0" y="168.358" width="66.9233" height="19.8701" class="st11"/>
			<text x="6.78" y="180.69" class="st10">Secure Storage</text>		</g>
		<g id="group1006-81" transform="translate(347.286,-6.65449)">
			<title>Sheet.1006</title>
			<g id="shape1003-82" transform="translate(-2.89768E-14,-1.63827)">
				<title>Nordic Blueslate.1003</title>
				<rect x="0" y="171.635" width="16.7308" height="16.5936" class="st5"/>
			</g>
			<g id="shape1005-84" transform="translate(16.7308,0)">
				<title>Sheet.1005</title>
				<desc>4 kB</desc>
				<rect x="0" y="168.358" width="31.4757" height="19.8701" class="st12"/>
				<text x="6.73" y="180.99" class="st3">4 kB</text>			</g>
		</g>
	</g>
</svg>
