<?xml version="1.0" encoding="UTF-8" standalone="no"?>
<!DOCTYPE svg PUBLIC "-//W3C//DTD SVG 1.1//EN" "http://www.w3.org/Graphics/SVG/1.1/DTD/svg11.dtd">
<!-- Generated by Microsoft Visio, SVG Export nrf5340_audio_broadcast_sink_I2S_structure.svg Page-1 -->
<svg xmlns="http://www.w3.org/2000/svg" xmlns:xlink="http://www.w3.org/1999/xlink" xmlns:ev="http://www.w3.org/2001/xml-events"
		width="7.72078in" height="8.24932in" viewBox="0 0 555.896 593.951" xml:space="preserve" color-interpolation-filters="sRGB"
		class="st39">
	<style type="text/css">
	<![CDATA[
		.st1 {fill:#d9e1e2;stroke:none;stroke-width:1}
		.st2 {fill:#333f48;stroke:none;stroke-width:1}
		.st3 {fill:#ffffff;font-family:Arial;font-size:0.916672em}
		.st4 {font-size:1em}
		.st5 {fill:#6ad1e3;stroke:#333f48;stroke-dasharray:7,5;stroke-width:1}
		.st6 {fill:#333f48;font-family:Arial;font-size:0.916672em}
		.st7 {fill:#6ad1e3;stroke:none;stroke-width:1}
		.st8 {marker-end:url(#mrkr4-54);marker-start:url(#mrkr4-52);stroke:#6ad1e3;stroke-linecap:butt;stroke-width:1}
		.st9 {fill:#6ad1e3;fill-opacity:1;stroke:#6ad1e3;stroke-opacity:1;stroke-width:0.28409090909091}
		.st10 {fill:#0033a0;stroke:#0033a0;stroke-width:1}
		.st11 {fill:#feffff;font-family:Arial;font-size:0.916672em}
		.st12 {fill:#00a9ce;stroke:none;stroke-width:1}
		.st13 {fill:none;stroke:#768692;stroke-dasharray:3,3;stroke-width:1}
		.st14 {fill:#00a9ce;stroke:#333f48;stroke-dasharray:7,5;stroke-width:1}
		.st15 {fill:#768692;stroke:none;stroke-width:1}
		.st16 {fill:#ffffff;font-family:Arial;font-size:0.666664em}
		.st17 {fill:none;stroke:#333f48;stroke-dasharray:0.01,5;stroke-width:1}
		.st18 {fill:none;stroke:none;stroke-width:1}
		.st19 {marker-end:url(#mrkr4-100);stroke:#768692;stroke-linecap:butt;stroke-width:1}
		.st20 {fill:#768692;fill-opacity:1;stroke:#768692;stroke-opacity:1;stroke-width:0.28409090909091}
		.st21 {fill:#768692;font-family:Arial;font-size:0.75em}
		.st22 {marker-end:url(#mrkr4-128);stroke:#d0df00;stroke-linecap:butt;stroke-width:1}
		.st23 {fill:#d0df00;fill-opacity:1;stroke:#d0df00;stroke-opacity:1;stroke-width:0.28409090909091}
		.st24 {marker-end:url(#mrkr4-139);stroke:#00a9ce;stroke-linecap:butt;stroke-width:1}
		.st25 {fill:#00a9ce;fill-opacity:1;stroke:#00a9ce;stroke-opacity:1;stroke-width:0.28409090909091}
		.st26 {marker-start:url(#mrkr4-148);stroke:#768692;stroke-linecap:butt;stroke-width:1}
		.st27 {fill:#768692;font-family:Arial;font-size:0.666664em}
		.st28 {marker-end:url(#mrkr4-139);marker-start:url(#mrkr4-163);stroke:#00a9ce;stroke-linecap:butt;stroke-width:1}
		.st29 {marker-end:url(#mrkr4-100);marker-start:url(#mrkr4-148);stroke:#768692;stroke-linecap:butt;stroke-width:1}
		.st30 {fill:none;stroke:#333f48;stroke-width:1}
		.st31 {fill:#d0df00;stroke:none;stroke-width:1}
		.st32 {fill:#333f48;font-family:Arial;font-size:0.75em}
		.st33 {fill:#ffffff;stroke:#333f48;stroke-dasharray:3,3;stroke-width:1}
		.st34 {marker-end:url(#mrkr4-128);marker-start:url(#mrkr4-267);stroke:#d0df00;stroke-linecap:butt;stroke-width:1}
		.st35 {marker-start:url(#mrkr4-267);stroke:#d0df00;stroke-linecap:butt;stroke-width:1}
		.st36 {fill:#333f48;font-family:Arial;font-size:0.666664em}
		.st37 {fill:#ffffff;font-family:Arial;font-size:0.583328em}
		.st38 {fill:#333f48;font-family:Arial;font-size:0.833336em}
		.st39 {fill:none;fill-rule:evenodd;font-size:12px;overflow:visible;stroke-linecap:square;stroke-miterlimit:3}
	]]>
	</style>

	<defs id="Markers">
		<g id="lend4">
			<path d="M 2 1 L 0 0 L 2 -1 L 2 1 " style="stroke:none"/>
		</g>
		<marker id="mrkr4-52" class="st9" refX="6.68" orient="auto" markerUnits="strokeWidth" overflow="visible">
			<use xlink:href="#lend4" transform="scale(3.52) "/>
		</marker>
		<marker id="mrkr4-54" class="st9" refX="-7.04" orient="auto" markerUnits="strokeWidth" overflow="visible">
			<use xlink:href="#lend4" transform="scale(-3.52,-3.52) "/>
		</marker>
		<marker id="mrkr4-100" class="st20" refX="-7.04" orient="auto" markerUnits="strokeWidth" overflow="visible">
			<use xlink:href="#lend4" transform="scale(-3.52,-3.52) "/>
		</marker>
		<marker id="mrkr4-128" class="st23" refX="-7.04" orient="auto" markerUnits="strokeWidth" overflow="visible">
			<use xlink:href="#lend4" transform="scale(-3.52,-3.52) "/>
		</marker>
		<marker id="mrkr4-139" class="st25" refX="-7.04" orient="auto" markerUnits="strokeWidth" overflow="visible">
			<use xlink:href="#lend4" transform="scale(-3.52,-3.52) "/>
		</marker>
		<marker id="mrkr4-148" class="st20" refX="6.68" orient="auto" markerUnits="strokeWidth" overflow="visible">
			<use xlink:href="#lend4" transform="scale(3.52) "/>
		</marker>
		<marker id="mrkr4-163" class="st25" refX="6.68" orient="auto" markerUnits="strokeWidth" overflow="visible">
			<use xlink:href="#lend4" transform="scale(3.52) "/>
		</marker>
		<marker id="mrkr4-267" class="st23" refX="6.68" orient="auto" markerUnits="strokeWidth" overflow="visible">
			<use xlink:href="#lend4" transform="scale(3.52) "/>
		</marker>
	</defs>
	<g>
		<title>Page-1</title>
		<g id="shape241-1" transform="translate(150.251,-427.959)">
			<title>Nordic Blue</title>
			<rect x="0" y="529.798" width="202.677" height="64.1525" class="st1"/>
		</g>
		<g id="shape242-3" transform="translate(425.211,-531.079)">
			<title>Nordic Blue.6</title>
			<desc>LE Audio Controller Subsystem for nRF53</desc>
			<rect x="0" y="551.431" width="129.685" height="42.5197" class="st2"/>
			<text x="17.15" y="569.39" class="st3">LE Audio Controller <tspan x="11.66" dy="1.2em" class="st4">S</tspan>ubsystem for nRF53</text>		</g>
		<g id="shape243-7" transform="translate(425.211,-9.50394)">
			<title>Nordic Blue.7</title>
			<desc>Radio</desc>
			<path d="M0 593.95 L53.15 593.95 L53.15 551.43 L0 551.43 L0 593.95 Z" class="st5"/>
			<text x="12.2" y="575.99" class="st6">Radio</text>		</g>
		<g id="shape244-10" transform="translate(501.747,-9.50394)">
			<title>Nordic Blue.8</title>
			<desc>UART (debug)</desc>
			<path d="M0 593.95 L53.15 593.95 L53.15 551.43 L0 551.43 L0 593.95 Z" class="st5"/>
			<text x="11.6" y="569.39" class="st6">UART <tspan x="7.62" dy="1.2em" class="st4">(debug)</tspan></text>		</g>
		<g id="shape245-14" transform="translate(44.1469,-9.50394)">
			<title>Nordic Blue.9</title>
			<desc>UART (debug)</desc>
			<path d="M0 593.95 L53.15 593.95 L53.15 551.43 L0 551.43 L0 593.95 Z" class="st5"/>
			<text x="11.6" y="569.39" class="st6">UART <tspan x="7.62" dy="1.2em" class="st4">(debug)</tspan></text>		</g>
		<g id="shape246-18" transform="translate(14.1876,-66.1969)">
			<title>Nordic Blue.10</title>
			<desc>TWI/I2C</desc>
			<path d="M0 593.95 L53.15 593.95 L53.15 551.43 L0 551.43 L0 593.95 Z" class="st5"/>
			<text x="6.41" y="575.99" class="st6">TWI/I2C</text>		</g>
		<g id="shape247-21" transform="translate(77.9671,-66.1969)">
			<title>Nordic Blue.11</title>
			<desc>SPI4</desc>
			<path d="M0 593.95 L53.15 593.95 L53.15 551.43 L0 551.43 L0 593.95 Z" class="st5"/>
			<text x="14.65" y="575.99" class="st6">SPI4</text>		</g>
		<g id="shape248-24" transform="translate(77.9671,-151.236)">
			<title>Nordic Blue.12</title>
			<desc>SD card</desc>
			<rect x="0" y="551.431" width="53.1496" height="42.5197" class="st7"/>
			<text x="6.71" y="575.99" class="st6">SD card</text>		</g>
		<g id="shape249-27" transform="translate(40.6915,-196.926)">
			<title>Nordic Blue.13</title>
			<desc>HW codec (CS47L63)</desc>
			<rect x="0" y="551.431" width="63.7795" height="42.5197" class="st7"/>
			<text x="6.52" y="569.39" class="st6">HW codec <tspan x="5.29" dy="1.2em" class="st4">(CS47L63)</tspan></text>		</g>
		<g id="shape250-31" transform="translate(14.1876,-151.236)">
			<title>Nordic Blue.14</title>
			<desc>Power module (INA231)</desc>
			<rect x="0" y="551.431" width="53.1496" height="42.5197" class="st7"/>
			<text x="10.99" y="562.79" class="st6">Power <tspan x="8.54" dy="1.2em" class="st4">module </tspan><tspan x="4.57"
						dy="1.2em" class="st4">(INA231)</tspan></text>		</g>
		<g id="shape251-36" transform="translate(44.1469,-300.055)">
			<title>Nordic Blue.15</title>
			<desc>Error handler</desc>
			<rect x="0" y="551.431" width="53.1496" height="42.5197" class="st7"/>
			<text x="14.35" y="569.39" class="st6">Error <tspan x="8.23" dy="1.2em" class="st4">handler</tspan></text>		</g>
		<g id="shape252-40" transform="translate(74.4238,-250.449)">
			<title>Nordic Blue.16</title>
			<desc>Buttons</desc>
			<rect x="0" y="551.431" width="53.1496" height="42.5197" class="st7"/>
			<text x="7.92" y="575.99" class="st6">Buttons</text>		</g>
		<g id="shape253-43" transform="translate(10.6443,-250.449)">
			<title>Nordic Blue.17</title>
			<desc>LEDs</desc>
			<rect x="0" y="551.431" width="53.1496" height="42.5197" class="st7"/>
			<text x="13.13" y="575.99" class="st6">LEDs</text>		</g>
		<g id="shape254-46" transform="translate(33.6758,-108.717)">
			<title>Dynamic connector</title>
			<path d="M7.09 587.27 L7.09 586.91 L7.09 558.47" class="st8"/>
		</g>
		<g id="shape255-55" transform="translate(155.37,-167.462)">
			<title>Nordic Blueslate</title>
			<desc>Synchronization module (audio_datapath.c)</desc>
			<rect x="0" y="539.311" width="220.802" height="54.6402" class="st10"/>
			<text x="51.7" y="563.33" class="st11">Synchronization module <tspan x="64.53" dy="1.2em" class="st4">(audio_datapath.c)</tspan></text>		</g>
		<g id="shape256-59" transform="translate(155.37,-73.2835)">
			<title>Nordic Lake</title>
			<desc>audio_i2s.c</desc>
			<rect x="0" y="560.57" width="220.802" height="33.3804" class="st12"/>
			<text x="82.58" y="580.56" class="st11">audio_i2s.c</text>		</g>
		<g id="shape257-62" transform="translate(149.643,-2.03534)">
			<title>Nordic Blue.25</title>
			<path d="M0 593.95 L232.35 593.95 L232.35 185.38 L0 185.38 L0 593.95 Z" class="st13"/>
		</g>
		<g id="shape258-64" transform="translate(97.4553,-108.717)">
			<title>Dynamic connector.26</title>
			<path d="M7.09 587.27 L7.09 586.91 L7.09 558.47" class="st8"/>
		</g>
		<g id="shape259-71" transform="translate(72.5813,-196.926)">
			<title>Dynamic connector.29</title>
			<path d="M0 600.63 L0 600.99 L0 659.48 L20.41 659.48 L20.41 675.12" class="st8"/>
		</g>
		<g id="shape260-78" transform="translate(239.196,-9.50394)">
			<title>Nordic Lake.30</title>
			<desc>I2S (audio)</desc>
			<path d="M0 593.95 L53.15 593.95 L53.15 551.43 L0 551.43 L0 593.95 Z" class="st14"/>
			<text x="18.32" y="569.39" class="st11">I2S <tspan x="9.45" dy="1.2em" class="st4">(audio)</tspan></text>		</g>
		<g id="shape262-82" transform="translate(155.37,-370.903)">
			<title>Nordic Sky</title>
			<desc>audio_sync_timer.c</desc>
			<rect x="0" y="569.838" width="78.5026" height="24.1125" class="st15"/>
			<text x="4.79" y="584.29" class="st16">audio_sync_timer.c</text>		</g>
		<g id="shape263-85" transform="translate(396.865,-1)">
			<title>Nordic Blue.33</title>
			<path d="M0 593.95 L0.28 593.95 L0.28 4.34 L0 4.34 L0 593.95 Z" class="st17"/>
		</g>
		<g id="shape264-87" transform="translate(396.865,-573.598)">
			<title>Sheet.264</title>
			<desc>Network core</desc>
			<rect x="0" y="575.526" width="85.0394" height="18.4252" class="st18"/>
			<text x="10.12" y="588.04" class="st6">Network core</text>		</g>
		<g id="shape265-90" transform="translate(304.739,-573.598)">
			<title>Sheet.265</title>
			<desc>Application core</desc>
			<rect x="0" y="575.526" width="92.4095" height="18.4252" class="st18"/>
			<text x="7.07" y="588.04" class="st6">Application core</text>		</g>
		<g id="shape267-93" transform="translate(165.535,-258.953)">
			<title>Nordic Middle Grey.42</title>
			<rect x="0" y="507.211" width="117.943" height="86.7402" class="st1"/>
		</g>
		<g id="shape268-95" transform="translate(154.006,-370.903)">
			<title>Dynamic connector.44</title>
			<path d="M6.59 593.95 L7.54 735.71" class="st19"/>
		</g>
		<g id="shape269-101" transform="translate(253.715,-427.959)">
			<title>Dynamic connector.45</title>
			<path d="M7.09 593.95 L7.09 673.64" class="st19"/>
		</g>
		<g id="shape270-106" transform="translate(231.038,-427.959)">
			<title>Dynamic connector.46</title>
			<path d="M7.09 593.95 L7.09 673.64" class="st19"/>
		</g>
		<g id="shape273-111" transform="translate(221.117,-229.189)">
			<title>Sheet.273</title>
			<desc>bad_frame</desc>
			<rect x="0" y="572.691" width="53.1496" height="21.2598" class="st18"/>
			<text x="4" y="586.02" class="st21">bad_frame</text>		</g>
		<g id="shape274-114" transform="translate(165.535,-229.189)">
			<title>Sheet.274</title>
			<desc>sdu_ref</desc>
			<rect x="0" y="572.691" width="39.2315" height="21.2598" class="st18"/>
			<text x="5.21" y="586.02" class="st21">sdu_ref</text>		</g>
		<g id="shape275-117" transform="translate(260.802,-509.819)">
			<title>Sheet.275</title>
			<desc>bad_frame</desc>
			<rect x="0" y="572.691" width="53.1496" height="21.2598" class="st18"/>
			<text x="4" y="586.02" class="st21">bad_frame</text>		</g>
		<g id="shape276-120" transform="translate(198.893,-510.178)">
			<title>Sheet.276</title>
			<desc>sdu_ref</desc>
			<rect x="0" y="572.691" width="39.2315" height="21.2598" class="st18"/>
			<text x="5.21" y="586.02" class="st21">sdu_ref</text>		</g>
		<g id="shape277-123" transform="translate(242.362,-427.959)">
			<title>Dynamic connector.72</title>
			<path d="M7.09 593.95 L7.09 673.64" class="st22"/>
		</g>
		<g id="shape278-129" transform="translate(205.951,-317.118)">
			<title>Dynamic connector.73</title>
			<path d="M7.09 593.95 L7.09 681.33" class="st22"/>
		</g>
		<g id="shape279-134" transform="translate(201.543,-167.745)">
			<title>Dynamic connector.74</title>
			<path d="M-7.09 594.79 L-7.09 600.24" class="st24"/>
		</g>
		<g id="shape281-140" transform="translate(163.006,-349.27)">
			<title>Sheet.281</title>
			<desc>cur_time</desc>
			<rect x="0" y="572.691" width="42.5197" height="21.2598" class="st18"/>
			<text x="4" y="586.02" class="st21">cur_time</text>		</g>
		<g id="shape282-143" transform="translate(226.786,-167.462)">
			<title>Dynamic connector.77</title>
			<path d="M7.09 600.63 L7.09 600.99 L7.09 654.75" class="st26"/>
		</g>
		<g id="shape283-149" transform="translate(233.873,-139.898)">
			<title>Sheet.283</title>
			<desc>frame_start_ts</desc>
			<rect x="0" y="576.943" width="66.6142" height="17.0079" class="st18"/>
			<text x="4" y="587.85" class="st27">frame_start_ts</text>		</g>
		<g id="shape284-152" transform="translate(243.794,-52.0236)">
			<title>Dynamic connector.80</title>
			<path d="M7.09 593.95 L7.09 579.73" class="st19"/>
		</g>
		<g id="shape285-157" transform="translate(270.156,-52.0236)">
			<title>Dynamic connector.81</title>
			<path d="M7.09 587.27 L7.09 586.91 L7.09 579.73" class="st28"/>
		</g>
		<g id="shape286-165" transform="translate(352.928,-545.252)">
			<title>Dynamic connector.82</title>
			<path d="M6.68 586.86 L7.04 586.86 L65.24 586.86" class="st29"/>
		</g>
		<g id="shape287-172" transform="translate(357.18,-552.339)">
			<title>Sheet.287</title>
			<desc>HCI IPC</desc>
			<rect x="0" y="572.691" width="42.5197" height="21.2598" class="st18"/>
			<text x="4.76" y="586.02" class="st21">HCI IPC</text>		</g>
		<g id="shape288-175" transform="translate(149.55,-395.016)">
			<title>Sheet.288</title>
			<desc>Audio modules</desc>
			<rect x="0" y="578.36" width="71.5663" height="15.5906" class="st18"/>
			<text x="4" y="588.86" class="st21">Audio modules</text>		</g>
		<g id="shape289-178" transform="translate(137.191,-285.557)">
			<title>Dynamic connector.86</title>
			<path d="M1.72 586.86 L5.41 586.86" class="st19"/>
		</g>
		<g id="shape290-183" transform="translate(151.06,-275.961)">
			<title>Dynamic connector.87</title>
			<path d="M-2.02 586.86 L-5.11 586.86" class="st19"/>
		</g>
		<g id="group291-188" transform="translate(2.53133,-1)">
			<title>Sheet.291</title>
			<g id="shape292-189">
				<title>Nordic Blue.24</title>
				<path d="M0 593.95 L136.38 593.95 L136.38 214.43 L0 214.43 L0 593.95 Z" class="st13"/>
			</g>
			<g id="shape293-191" transform="translate(0,-362.569)">
				<title>Sheet.293</title>
				<desc>Peripheral modules</desc>
				<rect x="0" y="576.995" width="136.381" height="16.956" class="st18"/>
				<text x="4" y="588.17" class="st21">Peripheral modules</text>			</g>
		</g>
		<g id="shape294-194" transform="translate(2.88994,-403.52)">
			<title>Nordic Blue.103</title>
			<rect x="0" y="404.52" width="127.877" height="189.431" class="st30"/>
		</g>
		<g id="shape295-196" transform="translate(12.7002,-536.678)">
			<title>Nordic Lake.104</title>
			<rect x="0" y="583.89" width="16.0192" height="10.0608" class="st31"/>
		</g>
		<g id="shape296-198" transform="translate(29.8533,-587.717)">
			<title>Dynamic connector.105</title>
			<path d="M0 601.02 L-12.71 601.04" class="st19"/>
		</g>
		<g id="shape297-203" transform="translate(33.6886,-575.578)">
			<title>Sheet.297</title>
			<desc>Control data</desc>
			<rect x="0" y="583.89" width="71.5663" height="10.0608" class="st18"/>
			<text x="4" y="591.62" class="st32">Control data</text>		</g>
		<g id="shape298-206" transform="translate(29.8533,-575.528)">
			<title>Dynamic connector.107</title>
			<path d="M0 601.02 L-12.71 601.04" class="st22"/>
		</g>
		<g id="shape299-211" transform="translate(33.6886,-563.389)">
			<title>Sheet.299</title>
			<desc>Compressed audio</desc>
			<rect x="0" y="583.89" width="97.0781" height="10.0608" class="st18"/>
			<text x="4" y="591.62" class="st32">Compressed audio</text>		</g>
		<g id="shape300-214" transform="translate(29.8533,-563.339)">
			<title>Dynamic connector.109</title>
			<path d="M0 601.02 L-12.71 601.04" class="st24"/>
		</g>
		<g id="shape301-219" transform="translate(33.6886,-551.2)">
			<title>Sheet.301</title>
			<desc>Uncompressed audio</desc>
			<rect x="0" y="583.89" width="97.0781" height="10.0608" class="st18"/>
			<text x="4" y="591.62" class="st32">Uncompressed audio</text>		</g>
		<g id="shape302-222" transform="translate(12.7002,-513.287)">
			<title>Nordic Lake.111</title>
			<rect x="0" y="583.89" width="16.0192" height="10.0608" class="st12"/>
		</g>
		<g id="shape303-224" transform="translate(33.4717,-531.357)">
			<title>Sheet.303</title>
			<desc>Block working on compressed audio</desc>
			<rect x="0" y="583.89" width="97.0781" height="10.0608" class="st18"/>
			<text x="4" y="586.22" class="st32">Block working on <tspan x="4" dy="1.2em" class="st4">compressed audio</tspan></text>		</g>
		<g id="shape304-228" transform="translate(33.6886,-508.113)">
			<title>Sheet.304</title>
			<desc>Block working on uncompressed audio</desc>
			<rect x="0" y="583.89" width="97.0781" height="10.0608" class="st18"/>
			<text x="4" y="586.22" class="st32">Block working on <tspan x="4" dy="1.2em" class="st4">uncompressed audio</tspan></text>		</g>
		<g id="shape305-232" transform="translate(12.7002,-409.189)">
			<title>Nordic Lake.114</title>
			<path d="M0 593.95 L16.02 593.95 L16.02 583.89 L0 583.89 L0 593.95 Z" class="st33"/>
		</g>
		<g id="shape306-234" transform="translate(33.6886,-409.189)">
			<title>Sheet.306</title>
			<desc>HW layer element</desc>
			<rect x="0" y="583.89" width="97.0781" height="10.0608" class="st18"/>
			<text x="4" y="591.62" class="st32">HW layer element</text>		</g>
		<g id="shape307-237" transform="translate(12.7002,-490.466)">
			<title>Nordic Lake.115</title>
			<rect x="0" y="583.89" width="16.0192" height="10.0608" class="st7"/>
		</g>
		<g id="shape308-239" transform="translate(33.6886,-490.466)">
			<title>Sheet.308</title>
			<desc>Peripheral module</desc>
			<rect x="0" y="583.89" width="97.0781" height="10.0608" class="st18"/>
			<text x="4" y="591.62" class="st32">Peripheral module</text>		</g>
		<g id="shape309-242" transform="translate(12.7002,-473.459)">
			<title>Nordic Lake.117</title>
			<rect x="0" y="583.89" width="16.0192" height="10.0608" class="st2"/>
		</g>
		<g id="shape310-244" transform="translate(34.0387,-473.459)">
			<title>Sheet.310</title>
			<desc>Large main module</desc>
			<rect x="0" y="583.89" width="97.0781" height="10.0608" class="st18"/>
			<text x="4" y="591.62" class="st32">Large main module</text>		</g>
		<g id="shape311-247" transform="translate(33.6886,-452.059)">
			<title>Sheet.311</title>
			<desc>Application source files</desc>
			<rect x="0" y="583.89" width="97.0781" height="10.0608" class="st18"/>
			<text x="4" y="586.22" class="st32">Application <tspan x="4" dy="1.2em" class="st4">source files</tspan></text>		</g>
		<g id="shape312-251" transform="translate(12.7002,-456.451)">
			<title>Nordic Lake.120</title>
			<rect x="0" y="583.89" width="16.0192" height="10.0608" class="st15"/>
		</g>
		<g id="shape313-253" transform="translate(12.7002,-446.39)">
			<title>Nordic Lake.121</title>
			<rect x="0" y="583.89" width="16.0192" height="10.0608" class="st1"/>
		</g>
		<g id="shape314-255" transform="translate(12.7002,-431.727)">
			<title>Nordic Lake.123</title>
			<rect x="0" y="583.89" width="16.0192" height="10.0608" class="st10"/>
		</g>
		<g id="shape315-257" transform="translate(33.33,-421.236)">
			<title>Sheet.315</title>
			<desc>Synchronization module</desc>
			<rect x="0" y="572.691" width="97.0781" height="21.2598" class="st18"/>
			<text x="4" y="580.62" class="st32">Synchronization <tspan x="4" dy="1.2em" class="st4">module</tspan></text>		</g>
		<g id="shape316-261" transform="translate(444.522,-531.079)">
			<title>Dynamic connector.126</title>
			<path d="M6.91 600.63 L6.91 600.99 L7.26 1065.97" class="st34"/>
		</g>
		<g id="shape317-269" transform="translate(150.251,-531.079)">
			<title>Nordic Blue.128</title>
			<desc>Bluetooth LE Host</desc>
			<rect x="0" y="551.431" width="202.677" height="42.5197" class="st2"/>
			<text x="57.01" y="575.99" class="st3">Bluetooth LE Host</text>		</g>
		<g id="shape318-272" transform="translate(253.715,-492.111)">
			<title>Dynamic connector.129</title>
			<path d="M7.09 587.27 L7.09 586.91 L7.09 554.98" class="st26"/>
		</g>
		<g id="shape319-277" transform="translate(242.377,-492.111)">
			<title>Dynamic connector.130</title>
			<path d="M7.09 587.27 L7.09 586.91 L7.09 554.98" class="st35"/>
		</g>
		<g id="shape320-282" transform="translate(245.211,-492.111)">
			<title>Dynamic connector.131</title>
			<path d="M-7.09 587.27 L-7.09 586.91 L-7.09 554.98" class="st26"/>
		</g>
		<g id="shape321-287" transform="translate(147.089,-417.693)">
			<title>Nordic Blue.129</title>
			<path d="M0 593.95 L235.6 593.95 L235.6 501.82 L0 501.82 L0 593.95 Z" class="st13"/>
		</g>
		<g id="shape322-289" transform="translate(147.089,-491.394)">
			<title>Sheet.322</title>
			<desc>Bluetooth modules</desc>
			<rect x="0" y="575.526" width="85.0394" height="18.4252" class="st18"/>
			<text x="6.49" y="587.44" class="st21">Bluetooth modules</text>		</g>
		<g id="shape326-292" transform="translate(204.282,-443.345)">
			<title>Nordic Light Grey.142</title>
			<desc>broadcast_sink.c</desc>
			<rect x="0" y="560.57" width="94.615" height="33.3804" class="st15"/>
			<text x="17.29" y="579.66" class="st16">broadcast_sink.c</text>		</g>
		<g id="shape328-295" transform="translate(227.9,-222.699)">
			<title>Dynamic connector.48</title>
			<path d="M-6.86 587.27 L-6.86 586.91 L-7.35 498.93" class="st26"/>
		</g>
		<g id="shape329-300" transform="translate(212.594,-317.715)">
			<title>Dynamic connector.47</title>
			<path d="M-7.07 593.95 L-7.1 681.93" class="st19"/>
		</g>
		<g id="shape330-305" transform="translate(199.211,-317.118)">
			<title>Nordic Lake.43</title>
			<desc>Bluetooth LE RX FIFO</desc>
			<rect x="0" y="569.838" width="63.7795" height="24.1125" class="st31"/>
			<text x="8.98" y="579.49" class="st36">Bluetooth LE <tspan x="16.11" dy="1.2em" class="st4">RX FIFO</tspan></text>		</g>
		<g id="shape333-309" transform="translate(170.093,-273.126)">
			<title>Sheet.333</title>
			<desc>main.c</desc>
			<rect x="0" y="576.526" width="107.717" height="17.4252" class="st15"/>
			<text x="43.55" y="587.34" class="st37">main.c</text>		</g>
		<g id="group334-312" transform="translate(155.37,-115.446)">
			<title>Sheet.334</title>
			<g id="shape335-313">
				<title>Nordic Light Grey.335</title>
				<desc>sw_codec_select.c</desc>
				<rect x="0" y="554.984" width="75.3701" height="38.9666" class="st15"/>
				<text x="4.11" y="587.55" class="st16">sw_codec_select.c</text>			</g>
			<g id="shape336-316" transform="translate(11.1102,-15.2894)">
				<title>Nordic Lake.336</title>
				<desc>Decoder</desc>
				<rect x="0" y="575.526" width="53.1496" height="18.4252" class="st31"/>
				<text x="7.68" y="587.74" class="st38">Decoder</text>			</g>
		</g>
		<g id="shape337-319" transform="translate(187.37,-118.141)">
			<title>Dynamic connector.337</title>
			<path d="M7.09 596.65 L7.09 598.39" class="st24"/>
		</g>
	</g>
</svg>
