<?xml version="1.0" encoding="UTF-8" standalone="no"?>
<!DOCTYPE svg PUBLIC "-//W3C//DTD SVG 1.1//EN" "http://www.w3.org/Graphics/SVG/1.1/DTD/svg11.dtd">
<!-- Generated by Microsoft Visio, SVG Export nrf5340audio_all_packages.svg Page-1 -->
<svg xmlns="http://www.w3.org/2000/svg" xmlns:xlink="http://www.w3.org/1999/xlink" xmlns:ev="http://www.w3.org/2001/xml-events"
		width="8.20122in" height="7.99526in" viewBox="0 0 590.488 575.659" xml:space="preserve" color-interpolation-filters="sRGB"
		class="st33">
	<style type="text/css">
	<![CDATA[
		.st1 {marker-end:url(#mrkr13-6);stroke:#0077c8;stroke-linecap:butt;stroke-width:1}
		.st2 {fill:#0077c8;fill-opacity:1;stroke:#0077c8;stroke-opacity:1;stroke-width:0.28409090909091}
		.st3 {marker-end:url(#mrkr13-12);stroke:#00a9ce;stroke-linecap:butt;stroke-width:1}
		.st4 {fill:#00a9ce;fill-opacity:1;stroke:#00a9ce;stroke-opacity:1;stroke-width:0.28409090909091}
		.st5 {fill:#f58220;stroke:none;stroke-width:1}
		.st6 {fill:#d9e1e2;stroke:none;stroke-width:1}
		.st7 {fill:#333f48;font-family:Arial;font-size:0.833336em}
		.st8 {fill:#0033a0;stroke:none;stroke-width:1}
		.st9 {fill:#ffffff;font-family:Arial;font-size:0.833336em}
		.st10 {fill:#00a9ce;stroke:none;stroke-width:1}
		.st11 {fill:#ffffff;font-family:Arial;font-size:0.583328em}
		.st12 {fill:#768692;stroke:none;stroke-width:1}
		.st13 {fill:none;stroke:#768692;stroke-width:1}
		.st14 {fill:none;stroke:none;stroke-width:1}
		.st15 {font-size:1em}
		.st16 {fill:#0077c8;stroke:none;stroke-width:1}
		.st17 {fill:#ffffff;font-family:Arial;font-size:0.666664em}
		.st18 {fill:#feffff;font-family:Arial;font-size:0.666664em;font-stretch:semi-expanded}
		.st19 {fill:#feffff;font-family:Arial;font-size:0.541672em;font-stretch:semi-expanded}
		.st20 {fill:#768692;font-size:1em}
		.st21 {fill:#feffff;font-family:Arial;font-size:0.583328em;font-stretch:semi-expanded}
		.st22 {fill:#feffff;font-family:Arial;font-size:0.499992em;font-stretch:semi-expanded}
		.st23 {fill:#ffffff;font-family:Arial;font-size:0.75em}
		.st24 {fill:none;stroke:#768692;stroke-dasharray:7,5;stroke-width:1}
		.st25 {fill:#333f48;font-family:Arial;font-size:0.75em}
		.st26 {fill:#333f48;stroke:none;stroke-width:1}
		.st27 {marker-start:url(#mrkr13-276);stroke:#00a9ce;stroke-linecap:butt;stroke-width:1}
		.st28 {marker-end:url(#mrkr13-312);stroke:#0033a0;stroke-linecap:butt;stroke-width:1}
		.st29 {fill:#0033a0;fill-opacity:1;stroke:#0033a0;stroke-opacity:1;stroke-width:0.28409090909091}
		.st30 {marker-end:url(#mrkr13-338);stroke:#768692;stroke-linecap:butt;stroke-width:1}
		.st31 {fill:#768692;fill-opacity:1;stroke:#768692;stroke-opacity:1;stroke-width:0.28409090909091}
		.st32 {marker-start:url(#mrkr13-474);stroke:#0033a0;stroke-linecap:butt;stroke-width:1}
		.st33 {fill:none;fill-rule:evenodd;font-size:12px;overflow:visible;stroke-linecap:square;stroke-miterlimit:3}
	]]>
	</style>

	<defs id="Markers">
		<g id="lend13">
			<path d="M 3 1 L 0 0 L 3 -1 L 3 1 " style="stroke:none"/>
		</g>
		<marker id="mrkr13-6" class="st2" refX="-10.56" orient="auto" markerUnits="strokeWidth" overflow="visible">
			<use xlink:href="#lend13" transform="scale(-3.52,-3.52) "/>
		</marker>
		<marker id="mrkr13-12" class="st4" refX="-10.56" orient="auto" markerUnits="strokeWidth" overflow="visible">
			<use xlink:href="#lend13" transform="scale(-3.52,-3.52) "/>
		</marker>
		<marker id="mrkr13-276" class="st4" refX="10.2" orient="auto" markerUnits="strokeWidth" overflow="visible">
			<use xlink:href="#lend13" transform="scale(3.52) "/>
		</marker>
		<marker id="mrkr13-312" class="st29" refX="-10.56" orient="auto" markerUnits="strokeWidth" overflow="visible">
			<use xlink:href="#lend13" transform="scale(-3.52,-3.52) "/>
		</marker>
		<marker id="mrkr13-338" class="st31" refX="-10.56" orient="auto" markerUnits="strokeWidth" overflow="visible">
			<use xlink:href="#lend13" transform="scale(-3.52,-3.52) "/>
		</marker>
		<marker id="mrkr13-474" class="st29" refX="10.2" orient="auto" markerUnits="strokeWidth" overflow="visible">
			<use xlink:href="#lend13" transform="scale(3.52) "/>
		</marker>
	</defs>
	<g>
		<title>Page-1</title>
		<g id="shape251-1" transform="translate(460.504,-209.967)">
			<title>Dynamic connector.251</title>
			<path d="M0 575.66 L0 770.04 L-114.16 770.04" class="st1"/>
		</g>
		<g id="shape223-7" transform="translate(121.236,-111.464)">
			<title>Dynamic connector.223</title>
			<path d="M0 575.66 L30.43 575.66 L30.43 487.72" class="st3"/>
		</g>
		<g id="shape145-13" transform="translate(208.22,-551.982)">
			<title>Nordic Blue.145</title>
			<rect x="0" y="559.953" width="17.0333" height="15.7058" class="st5"/>
		</g>
		<g id="shape5-15" transform="translate(120.346,-420.277)">
			<title>Nordic Light Grey</title>
			<desc>Top-level applications</desc>
			<rect x="0" y="477.97" width="346.25" height="97.6893" class="st6"/>
			<text x="124.77" y="490.97" class="st7">Top-level applications</text>		</g>
		<g id="shape6-18" transform="translate(134.457,-431.586)">
			<title>Nordic Blue.1433</title>
			<desc>main.c</desc>
			<rect x="0" y="556.198" width="52.3927" height="19.4605" class="st8"/>
			<text x="11.47" y="568.93" class="st9">main.c</text>		</g>
		<g id="shape17-21" transform="translate(13.6846,-209.967)">
			<title>Nordic Blue.1464</title>
			<desc>le_audio_rx</desc>
			<rect x="0" y="547.312" width="59.8903" height="28.3465" class="st10"/>
			<text x="11.85" y="563.59" class="st11">le_audio_rx</text>		</g>
		<g id="shape26-24" transform="translate(248.96,-208.982)">
			<title>Nordic Blue.1440</title>
			<desc>nrf5340_audio_dk</desc>
			<rect x="0" y="547.312" width="64.1422" height="28.3465" class="st12"/>
			<text x="4.05" y="563.59" class="st11">nrf5340_audio_dk</text>		</g>
		<g id="shape87-27" transform="translate(25.1085,-546.312)">
			<title>Nordic Light Grey.2333</title>
			<rect x="0" y="547.312" width="530.356" height="28.3465" class="st13"/>
		</g>
		<g id="shape88-29" transform="translate(30.4991,-552.114)">
			<title>Nordic Blue.1617</title>
			<rect x="0" y="559.953" width="17.0333" height="15.7058" class="st8"/>
		</g>
		<g id="shape89-31" transform="translate(47.5324,-552.114)">
			<title>Sheet.89</title>
			<desc>Top-level applications</desc>
			<rect x="0" y="559.953" width="66.2293" height="15.7058" class="st14"/>
			<text x="4" y="564.81" class="st7">Top-level <tspan x="4" dy="1.2em" class="st15">a</tspan>pplications</text>		</g>
		<g id="shape90-35" transform="translate(303.207,-551.982)">
			<title>Nordic Blue.1618</title>
			<rect x="0" y="559.953" width="17.0333" height="15.7058" class="st10"/>
		</g>
		<g id="shape91-37" transform="translate(320.24,-551.982)">
			<title>Sheet.91</title>
			<desc>Audio</desc>
			<rect x="0" y="559.953" width="59.8903" height="15.7058" class="st14"/>
			<text x="4" y="570.81" class="st7">Audio</text>		</g>
		<g id="shape92-40" transform="translate(354.005,-551.982)">
			<title>Nordic Blue.2341</title>
			<rect x="0" y="559.953" width="17.0333" height="15.7058" class="st12"/>
		</g>
		<g id="shape93-42" transform="translate(371.039,-551.982)">
			<title>Sheet.93</title>
			<desc>Board-related</desc>
			<rect x="0" y="559.953" width="72.4573" height="15.7058" class="st14"/>
			<text x="4" y="570.81" class="st7">Board-related</text>		</g>
		<g id="shape97-45" transform="translate(379.257,-209.967)">
			<title>Nordic Lake.1443</title>
			<desc>le_audio</desc>
			<rect x="0" y="547.312" width="38.5035" height="28.3465" class="st16"/>
			<text x="4.13" y="563.89" class="st17">le_audio</text>		</g>
		<g id="shape98-48" transform="translate(423.687,-209.967)">
			<title>Nordic Lake.1444</title>
			<desc>bt_le_audio_tx</desc>
			<rect x="0" y="547.312" width="44.6363" height="28.3465" class="st16"/>
			<text x="4.22" y="559.39" class="st11">bt_le_audio<tspan x="17.65" dy="1.2em" class="st15">_tx</tspan></text>		</g>
		<g id="shape99-52" transform="translate(328.693,-209.967)">
			<title>Nordic Lake.1445</title>
			<desc>bt_mgmt</desc>
			<rect x="0" y="547.312" width="44.6363" height="28.3465" class="st16"/>
			<text x="5.2" y="563.89" class="st18">bt_mgmt</text>		</g>
		<g id="shape101-55" transform="translate(474.251,-209.967)">
			<title>Nordic Lake.1447</title>
			<desc>bt_rendering_and_capture</desc>
			<rect x="0" y="547.312" width="51.4735" height="28.3465" class="st16"/>
			<text x="4.14" y="559.39" class="st11">bt_rendering_<tspan x="6.28" dy="1.2em" class="st15">and_capture</tspan></text>		</g>
		<g id="shape102-59" transform="translate(361.533,-178.924)">
			<title>Nordic Lake.1451</title>
			<desc>bt_mgmt_ctlr_cfg_internal</desc>
			<rect x="0" y="559.184" width="95.8941" height="16.4743" class="st16"/>
			<text x="6.82" y="569.37" class="st19">bt_mgmt_ctlr_cfg_internal</text>		</g>
		<g id="shape122-62" transform="translate(531.652,-209.967)">
			<title>Nordic Lake.122</title>
			<desc>bt_content_control</desc>
			<rect x="0" y="547.312" width="44.6363" height="28.3465" class="st16"/>
			<text x="4.03" y="559.39" class="st11">bt_content_<tspan x="11.81" dy="1.2em" class="st15">control</tspan></text>		</g>
		<g id="shape141-66" transform="translate(443.496,-551.982)">
			<title>Nordic Blue.141</title>
			<rect x="0" y="559.953" width="17.0333" height="15.7058" class="st16"/>
		</g>
		<g id="shape142-68" transform="translate(460.529,-551.982)">
			<title>Sheet.142</title>
			<desc>Bluetooth® LE</desc>
			<rect x="0" y="559.953" width="80.8668" height="15.7058" class="st14"/>
			<text x="4" y="570.81" class="st7">Bluetooth®<tspan class="st20"> </tspan> LE</text>		</g>
		<g id="shape146-72" transform="translate(225.254,-551.982)">
			<title>Sheet.146</title>
			<desc>Stream control</desc>
			<rect x="0" y="559.953" width="77.9528" height="15.7058" class="st14"/>
			<text x="4" y="570.81" class="st7">Stream control</text>		</g>
		<g id="shape149-75" transform="translate(361.533,-158.499)">
			<title>Nordic Lake.149</title>
			<desc>bt_mgmt_adv_internal</desc>
			<rect x="0" y="559.184" width="95.8941" height="16.4743" class="st16"/>
			<text x="9.85" y="569.52" class="st21">bt_mgmt_adv_internal</text>		</g>
		<g id="shape151-78" transform="translate(361.533,-138.075)">
			<title>Nordic Lake.151</title>
			<desc>bt_mgmt_scan_for_broadcast</desc>
			<rect x="0" y="559.184" width="95.8941" height="16.4743" class="st16"/>
			<text x="4.29" y="569.22" class="st22">bt_mgmt_scan_for_broadcast</text>		</g>
		<g id="shape153-81" transform="translate(361.533,-119.698)">
			<title>Nordic Lake.153</title>
			<desc>bt_mgmt_scan_for_conn</desc>
			<rect x="0" y="559.184" width="95.8941" height="16.4743" class="st16"/>
			<text x="5.57" y="569.52" class="st21">bt_mgmt_scan_for_conn</text>		</g>
		<g id="shape155-84" transform="translate(361.533,-100.389)">
			<title>Nordic Lake.155</title>
			<desc>bt_mgmt_scan</desc>
			<rect x="0" y="559.184" width="95.8941" height="16.4743" class="st16"/>
			<text x="22.7" y="569.52" class="st21">bt_mgmt_scan</text>		</g>
		<g id="shape156-87" transform="translate(490.268,-178.827)">
			<title>Nordic Lake.156</title>
			<desc>bt_vol_rend_internal</desc>
			<rect x="0" y="559.184" width="77.9528" height="16.4743" class="st16"/>
			<text x="4.09" y="569.52" class="st21">bt_vol_rend_internal</text>		</g>
		<g id="shape158-90" transform="translate(490.268,-158.451)">
			<title>Nordic Lake.158</title>
			<desc>bt_vol_ctrl_internal</desc>
			<rect x="0" y="559.184" width="77.9528" height="16.4743" class="st16"/>
			<text x="6.66" y="569.52" class="st21">bt_vol_ctrl_internal</text>		</g>
		<g id="shape159-93" transform="translate(462.288,-86.7011)">
			<title>Nordic Lake.159</title>
			<desc>bt_content_ctrl_media_internal</desc>
			<rect x="0" y="559.184" width="114.803" height="16.4743" class="st16"/>
			<text x="4.75" y="569.52" class="st21">bt_content_ctrl_media_internal</text>		</g>
		<g id="shape161-96" transform="translate(263.322,-176.276)">
			<title>Nordic Blue.161</title>
			<desc>channel_assignment</desc>
			<rect x="0" y="559.953" width="72.4573" height="15.7058" class="st12"/>
			<text x="4.12" y="569.91" class="st11">channel_assignment</text>		</g>
		<g id="shape162-99" transform="translate(263.322,-128.496)">
			<title>Nordic Blue.162</title>
			<desc>uicr</desc>
			<rect x="0" y="559.953" width="72.4573" height="15.7058" class="st12"/>
			<text x="30.59" y="569.91" class="st11">uicr</text>		</g>
		<g id="shape163-102" transform="translate(263.322,-107.961)">
			<title>Nordic Blue.163</title>
			<desc>button_assignments</desc>
			<rect x="0" y="559.953" width="72.4573" height="15.7058" class="st12"/>
			<text x="4.9" y="569.91" class="st11">button_assignments</text>		</g>
		<g id="shape164-105" transform="translate(263.322,-87.4263)">
			<title>Nordic Blue.164</title>
			<desc>button_handler</desc>
			<rect x="0" y="559.953" width="72.4573" height="15.7058" class="st12"/>
			<text x="12.88" y="569.91" class="st11">button_handler</text>		</g>
		<g id="shape165-108" transform="translate(263.322,-66.1232)">
			<title>Nordic Blue.165</title>
			<desc>board_version</desc>
			<rect x="0" y="559.953" width="72.4573" height="15.7058" class="st12"/>
			<text x="14.05" y="569.91" class="st11">board_version</text>		</g>
		<g id="shape166-111" transform="translate(263.322,-7.72964)">
			<title>Nordic Blue.166</title>
			<desc>audio_sync_timer</desc>
			<rect x="0" y="559.953" width="72.4573" height="15.7058" class="st12"/>
			<text x="8.8" y="569.91" class="st11">audio_sync_timer</text>		</g>
		<g id="shape167-114" transform="translate(33.7084,-175.507)">
			<title>Nordic Blue.167</title>
			<desc>audio_datapath</desc>
			<rect x="0" y="559.184" width="59.8903" height="16.4743" class="st10"/>
			<text x="5.81" y="569.52" class="st11">audio_datapath</text>		</g>
		<g id="shape168-117" transform="translate(54.2596,-103.227)">
			<title>Nordic Blue.168</title>
			<desc>sd_card_playback</desc>
			<rect x="0" y="559.184" width="66.9769" height="16.4743" class="st10"/>
			<text x="5.28" y="569.52" class="st11">sd_card_playback</text>		</g>
		<g id="shape169-120" transform="translate(73.5748,-78.4207)">
			<title>Nordic Blue.169</title>
			<desc>sw_codec_select</desc>
			<rect x="0" y="559.184" width="66.9769" height="16.4743" class="st10"/>
			<text x="6.84" y="569.52" class="st11">sw_codec_select</text>		</g>
		<g id="shape170-123" transform="translate(127.07,-209.967)">
			<title>Nordic Blue.170</title>
			<desc>audio_system</desc>
			<rect x="0" y="547.312" width="59.8903" height="28.3465" class="st10"/>
			<text x="8.35" y="563.59" class="st11">audio_system</text>		</g>
		<g id="shape171-126" transform="translate(73.5748,-53.614)">
			<title>Nordic Blue.171</title>
			<desc>sw_codec_select</desc>
			<rect x="0" y="559.184" width="66.9769" height="16.4743" class="st10"/>
			<text x="6.84" y="569.52" class="st11">sw_codec_select</text>		</g>
		<g id="shape172-129" transform="translate(73.5748,-135.762)">
			<title>Nordic Blue.172</title>
			<desc>streamctrl.h</desc>
			<rect x="0" y="547.312" width="59.8903" height="28.3465" class="st5"/>
			<text x="11.66" y="563.59" class="st11">streamctrl.h</text>		</g>
		<g id="shape173-132" transform="translate(171.37,-107.961)">
			<title>Nordic Blue.173</title>
			<desc>audio_usb</desc>
			<rect x="0" y="559.184" width="55.6383" height="16.4743" class="st10"/>
			<text x="11.67" y="569.52" class="st11">audio_usb</text>		</g>
		<g id="shape174-135" transform="translate(182.709,-86.6578)">
			<title>Nordic Blue.174</title>
			<desc>hw_codec</desc>
			<rect x="0" y="559.184" width="44.2997" height="16.4743" class="st10"/>
			<text x="6.39" y="569.52" class="st11">hw_codec</text>		</g>
		<g id="shape175-138" transform="translate(182.709,-65.3547)">
			<title>Nordic Blue.175</title>
			<desc>audio_i2s</desc>
			<rect x="0" y="559.184" width="44.2997" height="16.4743" class="st10"/>
			<text x="7.17" y="569.52" class="st11">audio_i2s</text>		</g>
		<g id="shape176-141" transform="translate(179.937,-176.276)">
			<title>Nordic Blue.176</title>
			<desc>led</desc>
			<rect x="0" y="559.953" width="38.5035" height="15.7058" class="st12"/>
			<text x="14.58" y="569.91" class="st11">led</text>		</g>
		<g id="shape177-144" transform="translate(120.346,-345.052)">
			<title>Nordic Light Grey.177</title>
			<desc>Application-specific files</desc>
			<rect x="0" y="521.8" width="346.25" height="53.8583" class="st6"/>
			<text x="120.05" y="534.8" class="st7">Application-specific files</text>		</g>
		<g id="shape178-147" transform="translate(124.425,-355.054)">
			<title>Nordic Blue.178</title>
			<desc>unicast_client</desc>
			<rect x="0" y="556.198" width="72.4573" height="19.4605" class="st8"/>
			<text x="5.93" y="568.93" class="st9">unicast_client</text>		</g>
		<g id="shape179-150" transform="translate(205.306,-355.054)">
			<title>Nordic Blue.179</title>
			<desc>unicast_server</desc>
			<rect x="0" y="556.198" width="80.8668" height="19.4605" class="st8"/>
			<text x="7.92" y="568.93" class="st9">unicast_server</text>		</g>
		<g id="shape180-153" transform="translate(294.598,-355.054)">
			<title>Nordic Blue.180</title>
			<desc>broadcast_source</desc>
			<rect x="0" y="556.198" width="80.8668" height="19.4605" class="st8"/>
			<text x="4.66" y="568.63" class="st23">broadcast_source</text>		</g>
		<g id="shape181-156" transform="translate(383.889,-355.054)">
			<title>Nordic Blue.181</title>
			<desc>broadcast_sink</desc>
			<rect x="0" y="556.198" width="78.0321" height="19.4605" class="st8"/>
			<text x="8.75" y="568.63" class="st23">broadcast_sink</text>		</g>
		<g id="shape186-159" transform="translate(124.425,-425.131)">
			<title>Nordic Blue.186</title>
			<path d="M0 575.66 L72.46 575.66 L72.46 543.29 L0 543.29 L0 575.66 Z" class="st24"/>
		</g>
		<g id="shape187-161" transform="translate(124.425,-457.502)">
			<title>Sheet.187</title>
			<desc>unicast_client (CIS) (gateway)</desc>
			<rect x="0" y="535.746" width="72.4573" height="39.9126" class="st14"/>
			<text x="8.96" y="553" class="st25">unicast_client <tspan x="4.72" dy="1.2em" class="st15">(CIS) (gateway)</tspan></text>		</g>
		<g id="shape188-165" transform="translate(220.914,-431.586)">
			<title>Nordic Blue.188</title>
			<desc>main.c</desc>
			<rect x="0" y="556.198" width="52.3927" height="19.4605" class="st8"/>
			<text x="11.47" y="568.93" class="st9">main.c</text>		</g>
		<g id="shape189-168" transform="translate(210.881,-424.423)">
			<title>Nordic Blue.189</title>
			<path d="M0 575.66 L72.46 575.66 L72.46 543.29 L0 543.29 L0 575.66 Z" class="st24"/>
		</g>
		<g id="shape190-170" transform="translate(209.638,-456.793)">
			<title>Sheet.190</title>
			<desc>unicast_server (CIS) (headset)</desc>
			<rect x="0" y="535.746" width="75.1181" height="39.9126" class="st14"/>
			<text x="8.3" y="553" class="st25">unicast_server <tspan x="6.8" dy="1.2em" class="st15">(CIS) (headset)</tspan></text>		</g>
		<g id="shape191-174" transform="translate(308.465,-431.586)">
			<title>Nordic Blue.191</title>
			<desc>main.c</desc>
			<rect x="0" y="556.198" width="52.3927" height="19.4605" class="st8"/>
			<text x="11.47" y="568.93" class="st9">main.c</text>		</g>
		<g id="shape192-177" transform="translate(298.433,-424.423)">
			<title>Nordic Blue.192</title>
			<path d="M0 575.66 L72.46 575.66 L72.46 543.29 L0 543.29 L0 575.66 Z" class="st24"/>
		</g>
		<g id="shape193-179" transform="translate(287.496,-456.793)">
			<title>Sheet.193</title>
			<desc>broadcast_source (BIS) (gateway) (Auracast)</desc>
			<rect x="0" y="535.746" width="90.8031" height="39.9126" class="st14"/>
			<text x="9.63" y="547.6" class="st25">broadcast_source <tspan x="14.14" dy="1.2em" class="st15">(BIS) (gateway) </tspan><tspan
						x="24.65" dy="1.2em" class="st15">(Auracast)</tspan></text>		</g>
		<g id="shape194-184" transform="translate(396.708,-430.878)">
			<title>Nordic Blue.194</title>
			<desc>main.c</desc>
			<rect x="0" y="556.198" width="52.3927" height="19.4605" class="st8"/>
			<text x="11.47" y="568.93" class="st9">main.c</text>		</g>
		<g id="shape195-187" transform="translate(385.212,-424.423)">
			<title>Nordic Blue.195</title>
			<path d="M0 575.66 L72.46 575.66 L72.46 543.29 L0 543.29 L0 575.66 Z" class="st24"/>
		</g>
		<g id="shape196-189" transform="translate(379.811,-456.793)">
			<title>Sheet.196</title>
			<desc>broadcast_sink (BIS) (headset) (Auracast)</desc>
			<rect x="0" y="535.746" width="83.622" height="39.9126" class="st14"/>
			<text x="11.54" y="547.6" class="st25">broadcast_sink <tspan x="11.3" dy="1.2em" class="st15">(BIS) (headset) </tspan><tspan
						x="21.06" dy="1.2em" class="st15">(Auracast)</tspan></text>		</g>
		<g id="shape197-194" transform="translate(474.251,-457.212)">
			<title>Nordic Blue.197</title>
			<desc>zbus_common.h</desc>
			<rect x="0" y="556.198" width="80.8668" height="19.4605" class="st26"/>
			<text x="11.09" y="568.33" class="st17">zbus_common.h</text>		</g>
		<g id="shape198-197" transform="translate(127.07,-313.565)">
			<title>Nordic Blue.198</title>
			<desc>fw_info_app.h</desc>
			<rect x="0" y="559.953" width="59.8903" height="15.7058" class="st8"/>
			<text x="8.15" y="569.91" class="st11">fw_info_app.h</text>		</g>
		<g id="shape199-200" transform="translate(19.7676,-209.967)">
			<title>Dynamic connector</title>
			<path d="M0.23 575.66 L0.23 601.88 L3.38 601.88" class="st3"/>
		</g>
		<g id="shape200-205" transform="translate(20,-209.967)">
			<title>Dynamic connector.200</title>
			<path d="M0 575.66 L0 645.09 L16.81 645.09 A2.3622 2.3622 0 1 1 21.54 645.09 L43.01 645.09" class="st3"/>
		</g>
		<g id="shape201-210" transform="translate(20,-209.967)">
			<title>Dynamic connector.201</title>
			<path d="M0 575.66 L0 774.49 L232.76 774.49" class="st3"/>
		</g>
		<g id="shape202-215" transform="translate(39.1735,-175.507)">
			<title>Dynamic connector.202</title>
			<path d="M0 575.66 L0 639.7 L4.53 639.7" class="st3"/>
		</g>
		<g id="shape203-220" transform="translate(57.7404,-103.227)">
			<title>Dynamic connector.203</title>
			<path d="M0 575.66 L0 592.23 L5.27 592.23" class="st3"/>
		</g>
		<g id="shape204-225" transform="translate(57.7404,-103.227)">
			<title>Dynamic connector.204</title>
			<path d="M0 575.66 L0 617.03 L5.27 617.03" class="st3"/>
		</g>
		<g id="shape205-230" transform="translate(39.1735,-175.507)">
			<title>Dynamic connector.205</title>
			<path d="M0 575.66 L0 689.31 L23.84 689.31" class="st3"/>
		</g>
		<g id="shape206-235" transform="translate(39.1735,-175.507)">
			<title>Dynamic connector.206</title>
			<path d="M0 575.66 L0 718.07 L155.27 718.07 L155.27 696.37" class="st3"/>
		</g>
		<g id="shape207-240" transform="translate(73.5748,-224.651)">
			<title>Dynamic connector.207</title>
			<path d="M0 568.64 L4.16 568.63 A2.3622 2.3622 0 1 1 8.88 568.62 L42.94 568.53" class="st3"/>
		</g>
		<g id="shape208-245" transform="translate(127.07,-218.911)">
			<title>Dynamic connector.208</title>
			<path d="M0 575.66 L-38.76 575.66 L-38.76 592.03" class="st3"/>
		</g>
		<g id="shape209-250" transform="translate(39.1735,-175.507)">
			<title>Dynamic connector.209</title>
			<path d="M0 575.66 L0 601.23 L23.84 601.23" class="st3"/>
		</g>
		<g id="shape210-255" transform="translate(113.762,-551.982)">
			<title>Nordic Blue.210</title>
			<rect x="0" y="559.953" width="17.0333" height="15.7058" class="st26"/>
		</g>
		<g id="shape211-257" transform="translate(130.795,-551.982)">
			<title>Sheet.211</title>
			<desc>Used by all Zbus modules</desc>
			<rect x="0" y="559.953" width="72.4573" height="15.7058" class="st14"/>
			<text x="4" y="564.81" class="st7">Used by all <tspan x="4" dy="1.2em" class="st15">Zbus modules</tspan></text>		</g>
		<g id="shape212-261" transform="translate(147.344,-209.967)">
			<title>Dynamic connector.212</title>
			<path d="M-0.29 575.66 L-0.29 635.69 L-3.32 635.69" class="st3"/>
		</g>
		<g id="shape214-266" transform="translate(156.063,-209.967)">
			<title>Dynamic connector.214</title>
			<path d="M0 575.66 L0 669.43 L4.75 669.43" class="st3"/>
		</g>
		<g id="shape215-271" transform="translate(182.709,-94.895)">
			<title>Dynamic connector.215</title>
			<path d="M-10.2 575.66 L-10.56 575.66 L-26.65 575.66 L-26.65 460.59" class="st27"/>
		</g>
		<g id="shape216-277" transform="translate(156.063,-209.967)">
			<title>Dynamic connector.216</title>
			<path d="M0 575.66 L0 712.03 L16.09 712.03" class="st3"/>
		</g>
		<g id="shape218-282" transform="translate(140.552,-61.8512)">
			<title>Dynamic connector.218</title>
			<path d="M10.2 575.66 L10.56 575.66 L15.51 575.66 L15.51 427.54" class="st27"/>
		</g>
		<g id="shape219-287" transform="translate(140.552,-86.6578)">
			<title>Dynamic connector.219</title>
			<path d="M10.2 575.66 L10.56 575.66 L15.51 575.66 L15.51 452.35" class="st27"/>
		</g>
		<g id="shape220-292" transform="translate(93.5987,-186.819)">
			<title>Dynamic connector.220</title>
			<path d="M0 582.74 L51.09 582.75 A6.86929 6.86929 0 0 1 64.83 582.75 L75.78 582.75" class="st3"/>
		</g>
		<g id="shape222-297" transform="translate(93.5987,-188.267)">
			<title>Dynamic connector.222</title>
			<path d="M0 575.66 L38.65 575.66 L38.65 564.52" class="st3"/>
		</g>
		<g id="shape224-302" transform="translate(216.112,-65.3547)">
			<title>Dynamic connector.224</title>
			<path d="M0 575.66 L0 620.53 L36.65 620.53" class="st3"/>
		</g>
		<g id="shape225-307" transform="translate(120.346,-440.013)">
			<title>Dynamic connector.225</title>
			<path d="M0 575.66 L-76.72 575.66 L-76.72 766.8" class="st28"/>
		</g>
		<g id="shape226-313" transform="translate(118.661,-440.013)">
			<title>Dynamic connector.226</title>
			<path d="M5.76 575.66 L-10.99 575.66 L-10.99 694.25 L-2.15 694.25" class="st28"/>
		</g>
		<g id="shape227-318" transform="translate(120.346,-440.013)">
			<title>Dynamic connector.227</title>
			<path d="M0 575.66 L-12.67 575.66 L-12.67 724.48 L36.67 724.48 L36.67 766.8" class="st28"/>
		</g>
		<g id="shape228-323" transform="translate(120.346,-440.013)">
			<title>Dynamic connector.228</title>
			<path d="M0 575.66 L-40.25 575.66 L-40.25 813.13" class="st28"/>
		</g>
		<g id="shape229-328" transform="translate(293.471,-345.052)">
			<title>Dynamic connector.229</title>
			<path d="M0 575.66 L0 606.84 L48.54 606.84 L48.54 671.84" class="st28"/>
		</g>
		<g id="shape231-333" transform="translate(248.96,-223.155)">
			<title>Dynamic connector.231</title>
			<path d="M0 575.66 L-4.46 575.66 L-4.46 618.88 L3.8 618.88" class="st30"/>
		</g>
		<g id="shape232-339" transform="translate(292.464,-176.276)">
			<title>Dynamic connector.232</title>
			<path d="M7.09 575.66 L7.09 597.17" class="st30"/>
		</g>
		<g id="shape233-344" transform="translate(248.96,-223.155)">
			<title>Dynamic connector.233</title>
			<path d="M0 575.66 L-4.46 575.66 L-4.46 687.05 L3.8 687.05" class="st30"/>
		</g>
		<g id="shape234-349" transform="translate(120.346,-440.013)">
			<title>Dynamic connector.234</title>
			<path d="M0 575.66 L-12.67 575.66 L-12.67 724.48 L113.44 724.48 L113.44 895.69 L121.8 895.69 A2.3622 2.3622 0 0 1 126.52
						 895.69 L132.42 895.69" class="st28"/>
		</g>
		<g id="shape235-354" transform="translate(248.96,-223.155)">
			<title>Dynamic connector.235</title>
			<path d="M0 575.66 L-4.46 575.66 L-4.46 724.84 L3.8 724.84" class="st30"/>
		</g>
		<g id="shape236-359" transform="translate(120.346,-440.013)">
			<title>Dynamic connector.236</title>
			<path d="M0 575.66 L-12.67 575.66 L-12.67 724.48 L113.44 724.48 L113.44 916.38 L121.8 916.38 A2.3622 2.3622 0 0 1 126.52
						 916.38 L132.42 916.38" class="st28"/>
		</g>
		<g id="shape237-364" transform="translate(248.96,-223.155)">
			<title>Dynamic connector.237</title>
			<path d="M0 575.66 L-4.46 575.66 L-4.46 708.03 L3.8 708.03" class="st30"/>
		</g>
		<g id="shape238-369" transform="translate(293.471,-345.052)">
			<title>Dynamic connector.238</title>
			<path d="M0 575.66 L0 606.84 L28.13 606.84 L28.13 718.17" class="st28"/>
		</g>
		<g id="shape239-374" transform="translate(120.346,-440.013)">
			<title>Dynamic connector.239</title>
			<path d="M0 575.66 L-12.67 575.66 L-12.67 724.48 L78.84 724.48 L78.84 813.13" class="st28"/>
		</g>
		<g id="shape240-379" transform="translate(120.346,-440.013)">
			<title>Dynamic connector.240</title>
			<path d="M0 575.66 L-12.67 575.66 L-12.67 724.48 L141.73 724.48 L141.73 767.78" class="st28"/>
		</g>
		<g id="shape241-384" transform="translate(466.596,-440.58)">
			<title>Dynamic connector.241</title>
			<path d="M0 575.66 L12.67 575.66 L12.67 725.04 L-28.68 725.04 A2.3622 2.3622 -180 0 0 -33.4 725.04 L-74.88 725.04 A2.3622
						 2.3622 -180 0 0 -79.6 725.04 L-105.87 725.04 L-105.87 767.37" class="st28"/>
		</g>
		<g id="shape242-389" transform="translate(466.596,-440.58)">
			<title>Dynamic connector.242</title>
			<path d="M0 575.66 L12.67 575.66 L12.67 725.04 L-28.68 725.04 A2.3622 2.3622 -180 0 0 -33.4 725.04 L-58.53 725.04 L-58.53
						 767.37" class="st28"/>
		</g>
		<g id="shape243-394" transform="translate(293.471,-345.052)">
			<title>Dynamic connector.243</title>
			<path d="M0 575.66 L0 606.84 L95.88 606.84 L95.88 671.84" class="st28"/>
		</g>
		<g id="shape244-399" transform="translate(293.471,-345.052)">
			<title>Dynamic connector.244</title>
			<path d="M0 575.66 L0 606.84 L142.09 606.84 L142.09 671.84" class="st28"/>
		</g>
		<g id="shape245-404" transform="translate(469.078,-440.58)">
			<title>Dynamic connector.245</title>
			<path d="M-2.48 575.66 L10.19 575.66 L10.19 725.04 L-11.69 725.04 L-11.69 767.37" class="st28"/>
		</g>
		<g id="shape246-409" transform="translate(466.596,-440.58)">
			<title>Dynamic connector.246</title>
			<path d="M0 575.66 L12.67 575.66 L12.67 725.04 L33.39 725.04 L33.39 767.37" class="st28"/>
		</g>
		<g id="shape247-414" transform="translate(466.596,-440.58)">
			<title>Dynamic connector.247</title>
			<path d="M0 575.66 L12.67 575.66 L12.67 725.04 L87.37 725.04 L87.37 767.37" class="st28"/>
		</g>
		<g id="shape248-419" transform="translate(563.402,-209.967)">
			<title>Dynamic connector.248</title>
			<path d="M7.09 575.66 L7.09 671.89" class="st1"/>
		</g>
		<g id="shape249-424" transform="translate(475.953,-209.967)">
			<title>Dynamic connector.249</title>
			<path d="M0 575.66 L0 598.56 L3.75 598.56" class="st1"/>
		</g>
		<g id="shape250-429" transform="translate(475.953,-209.967)">
			<title>Dynamic connector.250</title>
			<path d="M0 575.66 L0 618.94 L3.75 618.94" class="st1"/>
		</g>
		<g id="shape252-434" transform="translate(349.528,-209.967)">
			<title>Dynamic connector.252</title>
			<path d="M-0.43 575.66 L-0.43 669.81 L-3.19 669.81" class="st1"/>
		</g>
		<g id="shape253-439" transform="translate(349.528,-209.967)">
			<title>Dynamic connector.253</title>
			<path d="M-0.43 575.66 L-0.43 690.35 L-3.19 690.35" class="st1"/>
		</g>
		<g id="shape254-444" transform="translate(348.231,-209.967)">
			<title>Dynamic connector.254</title>
			<path d="M0.87 575.66 L0.87 598.46 L2.74 598.46" class="st1"/>
		</g>
		<g id="shape255-449" transform="translate(348.231,-209.967)">
			<title>Dynamic connector.255</title>
			<path d="M0.87 575.66 L0.87 618.89 L2.74 618.89" class="st1"/>
		</g>
		<g id="shape256-454" transform="translate(348.231,-209.967)">
			<title>Dynamic connector.256</title>
			<path d="M0.87 575.66 L0.87 639.31 L2.74 639.31" class="st1"/>
		</g>
		<g id="shape257-459" transform="translate(348.231,-209.967)">
			<title>Dynamic connector.257</title>
			<path d="M0.87 575.66 L0.87 657.69 L2.74 657.69" class="st1"/>
		</g>
		<g id="shape258-464" transform="translate(167.74,-431.586)">
			<title>Dynamic connector.258</title>
			<path d="M-7.09 575.66 L-7.09 622.17" class="st28"/>
		</g>
		<g id="shape260-469" transform="translate(228.063,-374.515)">
			<title>Dynamic connector.260</title>
			<path d="M0 565.46 L0 565.1 L0 539.92 L19.05 539.92 L19.05 518.59" class="st32"/>
		</g>
		<g id="shape261-475" transform="translate(334.661,-431.586)">
			<title>Dynamic connector.261</title>
			<path d="M0 575.66 L0 597.6 L20.96 597.6 L20.96 622.17" class="st28"/>
		</g>
		<g id="shape263-480" transform="translate(429.991,-374.515)">
			<title>Dynamic connector.263</title>
			<path d="M-7.09 565.46 L-7.09 565.1 L-7.09 519.3" class="st32"/>
		</g>
		<g id="shape264-485" transform="translate(248.96,-223.155)">
			<title>Dynamic connector.264</title>
			<path d="M0 575.66 L-4.46 575.66 L-4.46 614.69 L-12.82 614.69 A2.3622 2.3622 -180 0 0 -17.54 614.69 L-19.96 614.69"
					class="st30"/>
		</g>
	</g>
</svg>
