<?xml version="1.0" encoding="UTF-8" standalone="no"?>
<!DOCTYPE svg PUBLIC "-//W3C//DTD SVG 1.1//EN" "http://www.w3.org/Graphics/SVG/1.1/DTD/svg11.dtd">
<!-- Generated by Microsoft Visio, SVG Export nrf5340_audio_broadcast_source_USB_structure.svg Page-1 -->
<svg xmlns="http://www.w3.org/2000/svg" xmlns:xlink="http://www.w3.org/1999/xlink" xmlns:ev="http://www.w3.org/2001/xml-events"
		width="7.72576in" height="8.2622in" viewBox="0 0 556.255 594.878" xml:space="preserve" color-interpolation-filters="sRGB"
		class="st33">
	<style type="text/css">
	<![CDATA[
		.st1 {fill:#333f48;stroke:none;stroke-width:1}
		.st2 {fill:#ffffff;font-family:Arial;font-size:0.916672em}
		.st3 {font-size:1em}
		.st4 {fill:#6ad1e3;stroke:#333f48;stroke-dasharray:7,5;stroke-width:1}
		.st5 {fill:#333f48;font-family:Arial;font-size:0.916672em}
		.st6 {fill:#6ad1e3;stroke:none;stroke-width:1}
		.st7 {marker-end:url(#mrkr4-51);marker-start:url(#mrkr4-49);stroke:#6ad1e3;stroke-linecap:butt;stroke-width:1}
		.st8 {fill:#6ad1e3;fill-opacity:1;stroke:#6ad1e3;stroke-opacity:1;stroke-width:0.28409090909091}
		.st9 {fill:#d9e1e2;stroke:none;stroke-width:1}
		.st10 {fill:#333f48;font-family:Arial;font-size:0.75em}
		.st11 {fill:#00a9ce;stroke:none;stroke-width:1}
		.st12 {fill:none;stroke:#768692;stroke-dasharray:3,3;stroke-width:1}
		.st13 {fill:#00a9ce;stroke:#333f48;stroke-dasharray:7,5;stroke-width:1}
		.st14 {fill:none;stroke:#333f48;stroke-dasharray:0.01,5;stroke-width:1}
		.st15 {fill:none;stroke:none;stroke-width:1}
		.st16 {marker-start:url(#mrkr4-86);stroke:#00a9ce;stroke-linecap:butt;stroke-width:1}
		.st17 {fill:#00a9ce;fill-opacity:1;stroke:#00a9ce;stroke-opacity:1;stroke-width:0.28409090909091}
		.st18 {marker-end:url(#mrkr4-95);marker-start:url(#mrkr4-93);stroke:#768692;stroke-linecap:butt;stroke-width:1}
		.st19 {fill:#768692;fill-opacity:1;stroke:#768692;stroke-opacity:1;stroke-width:0.28409090909091}
		.st20 {marker-end:url(#mrkr4-103);marker-start:url(#mrkr4-86);stroke:#00a9ce;stroke-linecap:butt;stroke-width:1}
		.st21 {fill:#768692;font-family:Arial;font-size:0.75em}
		.st22 {marker-end:url(#mrkr4-95);stroke:#768692;stroke-linecap:butt;stroke-width:1}
		.st23 {fill:none;stroke:#333f48;stroke-width:1}
		.st24 {fill:#d0df00;stroke:none;stroke-width:1}
		.st25 {marker-end:url(#mrkr4-144);stroke:#d0df00;stroke-linecap:butt;stroke-width:1}
		.st26 {fill:#d0df00;fill-opacity:1;stroke:#d0df00;stroke-opacity:1;stroke-width:0.28409090909091}
		.st27 {marker-end:url(#mrkr4-103);stroke:#00a9ce;stroke-linecap:butt;stroke-width:1}
		.st28 {fill:#ffffff;stroke:#333f48;stroke-dasharray:3,3;stroke-width:1}
		.st29 {fill:#ffffff;font-family:Arial;font-size:0.666664em}
		.st30 {fill:#768692;stroke:none;stroke-width:1}
		.st31 {fill:#333f48;font-family:Arial;font-size:0.833336em}
		.st32 {marker-end:url(#mrkr4-144);marker-start:url(#mrkr4-221);stroke:#d0df00;stroke-linecap:butt;stroke-width:1}
		.st33 {fill:none;fill-rule:evenodd;font-size:12px;overflow:visible;stroke-linecap:square;stroke-miterlimit:3}
	]]>
	</style>

	<defs id="Markers">
		<g id="lend4">
			<path d="M 2 1 L 0 0 L 2 -1 L 2 1 " style="stroke:none"/>
		</g>
		<marker id="mrkr4-49" class="st8" refX="6.68" orient="auto" markerUnits="strokeWidth" overflow="visible">
			<use xlink:href="#lend4" transform="scale(3.52) "/>
		</marker>
		<marker id="mrkr4-51" class="st8" refX="-7.04" orient="auto" markerUnits="strokeWidth" overflow="visible">
			<use xlink:href="#lend4" transform="scale(-3.52,-3.52) "/>
		</marker>
		<marker id="mrkr4-86" class="st17" refX="6.68" orient="auto" markerUnits="strokeWidth" overflow="visible">
			<use xlink:href="#lend4" transform="scale(3.52) "/>
		</marker>
		<marker id="mrkr4-93" class="st19" refX="6.68" orient="auto" markerUnits="strokeWidth" overflow="visible">
			<use xlink:href="#lend4" transform="scale(3.52) "/>
		</marker>
		<marker id="mrkr4-95" class="st19" refX="-7.04" orient="auto" markerUnits="strokeWidth" overflow="visible">
			<use xlink:href="#lend4" transform="scale(-3.52,-3.52) "/>
		</marker>
		<marker id="mrkr4-103" class="st17" refX="-7.04" orient="auto" markerUnits="strokeWidth" overflow="visible">
			<use xlink:href="#lend4" transform="scale(-3.52,-3.52) "/>
		</marker>
		<marker id="mrkr4-144" class="st26" refX="-7.04" orient="auto" markerUnits="strokeWidth" overflow="visible">
			<use xlink:href="#lend4" transform="scale(-3.52,-3.52) "/>
		</marker>
		<marker id="mrkr4-221" class="st26" refX="6.68" orient="auto" markerUnits="strokeWidth" overflow="visible">
			<use xlink:href="#lend4" transform="scale(3.52) "/>
		</marker>
	</defs>
	<g>
		<title>Page-1</title>
		<g id="shape5-1" transform="translate(162.467,-531.496)">
			<title>Nordic Blue</title>
			<desc>Bluetooth LE Host</desc>
			<rect x="0" y="552.359" width="191.864" height="42.5197" class="st1"/>
			<text x="51.6" y="576.92" class="st2">Bluetooth LE Host</text>		</g>
		<g id="shape6-4" transform="translate(425.57,-531.496)">
			<title>Nordic Blue.6</title>
			<desc>LE Audio Controller Subsystem for nRF53</desc>
			<rect x="0" y="552.359" width="129.685" height="42.5197" class="st1"/>
			<text x="17.15" y="570.32" class="st2">LE Audio Controller <tspan x="11.66" dy="1.2em" class="st3">S</tspan>ubsystem for nRF53</text>		</g>
		<g id="shape7-8" transform="translate(425.57,-9.50394)">
			<title>Nordic Blue.7</title>
			<desc>Radio</desc>
			<path d="M0 594.88 L53.15 594.88 L53.15 552.36 L0 552.36 L0 594.88 Z" class="st4"/>
			<text x="12.2" y="576.92" class="st5">Radio</text>		</g>
		<g id="shape8-11" transform="translate(502.105,-9.50394)">
			<title>Nordic Blue.8</title>
			<desc>UART (debug)</desc>
			<path d="M0 594.88 L53.15 594.88 L53.15 552.36 L0 552.36 L0 594.88 Z" class="st4"/>
			<text x="11.6" y="570.32" class="st5">UART <tspan x="7.62" dy="1.2em" class="st3">(debug)</tspan></text>		</g>
		<g id="shape9-15" transform="translate(44.5055,-9.50394)">
			<title>Nordic Blue.9</title>
			<desc>UART (debug)</desc>
			<path d="M0 594.88 L53.15 594.88 L53.15 552.36 L0 552.36 L0 594.88 Z" class="st4"/>
			<text x="11.6" y="570.32" class="st5">UART <tspan x="7.62" dy="1.2em" class="st3">(debug)</tspan></text>		</g>
		<g id="shape10-19" transform="translate(14.5462,-66.1969)">
			<title>Nordic Blue.10</title>
			<desc>TWI/I2C</desc>
			<path d="M0 594.88 L53.15 594.88 L53.15 552.36 L0 552.36 L0 594.88 Z" class="st4"/>
			<text x="6.41" y="576.92" class="st5">TWI/I2C</text>		</g>
		<g id="shape11-22" transform="translate(78.3257,-66.1969)">
			<title>Nordic Blue.11</title>
			<desc>SPI4</desc>
			<path d="M0 594.88 L53.15 594.88 L53.15 552.36 L0 552.36 L0 594.88 Z" class="st4"/>
			<text x="14.65" y="576.92" class="st5">SPI4</text>		</g>
		<g id="shape12-25" transform="translate(78.3257,-151.236)">
			<title>Nordic Blue.12</title>
			<desc>SD card</desc>
			<rect x="0" y="552.359" width="53.1496" height="42.5197" class="st6"/>
			<text x="6.71" y="576.92" class="st5">SD card</text>		</g>
		<g id="shape14-28" transform="translate(14.5462,-151.236)">
			<title>Nordic Blue.14</title>
			<desc>Power module (INA231)</desc>
			<rect x="0" y="552.359" width="53.1496" height="42.5197" class="st6"/>
			<text x="10.99" y="563.72" class="st5">Power <tspan x="8.54" dy="1.2em" class="st3">module </tspan><tspan x="4.57"
						dy="1.2em" class="st3">(INA231)</tspan></text>		</g>
		<g id="shape15-33" transform="translate(44.5055,-300.055)">
			<title>Nordic Blue.15</title>
			<desc>Error handler</desc>
			<rect x="0" y="552.359" width="53.1496" height="42.5197" class="st6"/>
			<text x="14.35" y="570.32" class="st5">Error <tspan x="8.23" dy="1.2em" class="st3">handler</tspan></text>		</g>
		<g id="shape16-37" transform="translate(74.7824,-250.449)">
			<title>Nordic Blue.16</title>
			<desc>Buttons</desc>
			<rect x="0" y="552.359" width="53.1496" height="42.5197" class="st6"/>
			<text x="7.92" y="576.92" class="st5">Buttons</text>		</g>
		<g id="shape17-40" transform="translate(11.0029,-250.449)">
			<title>Nordic Blue.17</title>
			<desc>LEDs</desc>
			<rect x="0" y="552.359" width="53.1496" height="42.5197" class="st6"/>
			<text x="13.13" y="576.92" class="st5">LEDs</text>		</g>
		<g id="shape18-43" transform="translate(34.0344,-108.717)">
			<title>Dynamic connector</title>
			<path d="M7.09 588.2 L7.09 587.84 L7.09 559.4" class="st7"/>
		</g>
		<g id="shape22-52" transform="translate(155.729,-174.567)">
			<title>Nordic Blueslate</title>
			<desc>audio_system.c</desc>
			<rect x="0" y="465.12" width="220.802" height="129.758" class="st9"/>
			<text x="154.27" y="588.18" class="st10">audio_system.c</text>		</g>
		<g id="shape23-55" transform="translate(155.729,-94.1787)">
			<title>Nordic Lake</title>
			<desc>audio_usb.c</desc>
			<rect x="0" y="561.498" width="220.802" height="33.3804" class="st11"/>
			<text x="80.74" y="581.49" class="st2">audio_usb.c</text>		</g>
		<g id="shape25-58" transform="translate(149.909,-2.03534)">
			<title>Nordic Blue.25</title>
			<path d="M0 594.88 L235.6 594.88 L235.6 191.94 L0 191.94 L0 594.88 Z" class="st12"/>
		</g>
		<g id="shape26-60" transform="translate(97.8139,-108.717)">
			<title>Dynamic connector.26</title>
			<path d="M7.09 588.2 L7.09 587.84 L7.09 559.4" class="st7"/>
		</g>
		<g id="shape30-67" transform="translate(239.555,-9.50394)">
			<title>Nordic Lake.30</title>
			<desc>USB (audio)</desc>
			<path d="M0 594.88 L53.15 594.88 L53.15 552.36 L0 552.36 L0 594.88 Z" class="st13"/>
			<text x="15.27" y="570.32" class="st2">USB <tspan x="9.45" dy="1.2em" class="st3">(audio)</tspan></text>		</g>
		<g id="shape33-71" transform="translate(397.223,-1)">
			<title>Nordic Blue.33</title>
			<path d="M0 594.88 L0.28 594.88 L0.28 5.27 L0 5.27 L0 594.88 Z" class="st14"/>
		</g>
		<g id="shape34-73" transform="translate(397.223,-575.453)">
			<title>Sheet.34</title>
			<desc>Network core</desc>
			<rect x="0" y="576.453" width="85.0394" height="18.4252" class="st15"/>
			<text x="10.12" y="588.97" class="st5">Network core</text>		</g>
		<g id="shape36-76" transform="translate(305.097,-574.724)">
			<title>Sheet.36</title>
			<desc>Application core</desc>
			<rect x="0" y="576.453" width="92.4095" height="18.4252" class="st15"/>
			<text x="7.07" y="588.97" class="st5">Application core</text>		</g>
		<g id="shape42-79" transform="translate(155.729,-320.397)">
			<title>Nordic Middle Grey.42</title>
			<rect x="0" y="537.421" width="220.802" height="57.4569" class="st9"/>
		</g>
		<g id="shape75-81" transform="translate(273.216,-194.856)">
			<title>Dynamic connector.75</title>
			<path d="M-7.09 601.56 L-7.09 601.92 L-7.09 662.17" class="st16"/>
		</g>
		<g id="shape80-87" transform="translate(244.152,-52.0236)">
			<title>Dynamic connector.80</title>
			<path d="M7.09 588.2 L7.09 587.84 L7.09 559.76" class="st18"/>
		</g>
		<g id="shape81-96" transform="translate(270.515,-52.0236)">
			<title>Dynamic connector.81</title>
			<path d="M7.09 588.2 L7.09 587.84 L7.09 559.76" class="st20"/>
		</g>
		<g id="shape82-104" transform="translate(354.331,-545.669)">
			<title>Dynamic connector.82</title>
			<path d="M6.68 587.79 L7.04 587.79 L64.2 587.79" class="st18"/>
		</g>
		<g id="shape83-111" transform="translate(357.165,-552.756)">
			<title>Sheet.83</title>
			<desc>HCI IPC</desc>
			<rect x="0" y="573.618" width="42.5197" height="21.2598" class="st15"/>
			<text x="4.76" y="586.95" class="st21">HCI IPC</text>		</g>
		<g id="shape84-114" transform="translate(304.964,-383.712)">
			<title>Sheet.84</title>
			<desc>Audio modules</desc>
			<rect x="0" y="573.618" width="80.5476" height="21.2598" class="st15"/>
			<text x="17.01" y="586.95" class="st21">Audio modules</text>		</g>
		<g id="shape86-117" transform="translate(137.503,-303.569)">
			<title>Dynamic connector.86</title>
			<path d="M1.77 587.81 L5.37 587.8" class="st22"/>
		</g>
		<g id="shape87-122" transform="translate(151.676,-307.546)">
			<title>Dynamic connector.87</title>
			<path d="M-1.77 601.95 L-5.37 601.96" class="st22"/>
		</g>
		<g id="shape88-127" transform="translate(2.88994,-423.362)">
			<title>Nordic Blue.88</title>
			<rect x="0" y="424.362" width="127.877" height="170.516" class="st23"/>
		</g>
		<g id="shape89-129" transform="translate(12.7002,-537.606)">
			<title>Nordic Lake.89</title>
			<rect x="0" y="584.817" width="16.0192" height="10.0608" class="st24"/>
		</g>
		<g id="shape90-131" transform="translate(29.8533,-588.644)">
			<title>Dynamic connector.90</title>
			<path d="M0 601.94 L-12.71 601.97" class="st22"/>
		</g>
		<g id="shape91-136" transform="translate(33.6886,-576.505)">
			<title>Sheet.91</title>
			<desc>Control data</desc>
			<rect x="0" y="584.817" width="71.5663" height="10.0608" class="st15"/>
			<text x="4" y="592.55" class="st10">Control data</text>		</g>
		<g id="shape93-139" transform="translate(29.8533,-576.455)">
			<title>Dynamic connector.93</title>
			<path d="M0 601.94 L-12.71 601.97" class="st25"/>
		</g>
		<g id="shape94-145" transform="translate(33.6886,-564.316)">
			<title>Sheet.94</title>
			<desc>Compressed audio</desc>
			<rect x="0" y="584.817" width="97.0781" height="10.0608" class="st15"/>
			<text x="4" y="592.55" class="st10">Compressed audio</text>		</g>
		<g id="shape95-148" transform="translate(29.8533,-564.266)">
			<title>Dynamic connector.95</title>
			<path d="M0 601.94 L-12.71 601.97" class="st27"/>
		</g>
		<g id="shape96-153" transform="translate(33.6886,-552.127)">
			<title>Sheet.96</title>
			<desc>Uncompressed audio</desc>
			<rect x="0" y="584.817" width="97.0781" height="10.0608" class="st15"/>
			<text x="4" y="592.55" class="st10">Uncompressed audio</text>		</g>
		<g id="shape97-156" transform="translate(12.7002,-514.215)">
			<title>Nordic Lake.97</title>
			<rect x="0" y="584.817" width="16.0192" height="10.0608" class="st11"/>
		</g>
		<g id="shape98-158" transform="translate(33.4717,-532.285)">
			<title>Sheet.98</title>
			<desc>Block working on compressed audio</desc>
			<rect x="0" y="584.817" width="97.0781" height="10.0608" class="st15"/>
			<text x="4" y="587.15" class="st10">Block working on <tspan x="4" dy="1.2em" class="st3">compressed audio</tspan></text>		</g>
		<g id="shape99-162" transform="translate(33.6886,-509.04)">
			<title>Sheet.99</title>
			<desc>Block working on uncompressed audio</desc>
			<rect x="0" y="584.817" width="97.0781" height="10.0608" class="st15"/>
			<text x="4" y="587.15" class="st10">Block working on <tspan x="4" dy="1.2em" class="st3">uncompressed audio</tspan></text>		</g>
		<g id="shape100-166" transform="translate(12.7002,-431.866)">
			<title>Nordic Lake.100</title>
			<path d="M0 594.88 L16.02 594.88 L16.02 584.82 L0 584.82 L0 594.88 Z" class="st28"/>
		</g>
		<g id="shape101-168" transform="translate(33.6886,-431.866)">
			<title>Sheet.101</title>
			<desc>HW layer element</desc>
			<rect x="0" y="584.817" width="97.0781" height="10.0608" class="st15"/>
			<text x="4" y="592.55" class="st10">HW layer element</text>		</g>
		<g id="group102-171" transform="translate(2.88994,-1)">
			<title>Sheet.102</title>
			<g id="shape24-172">
				<title>Nordic Blue.24</title>
				<path d="M0 594.88 L136.38 594.88 L136.38 191.94 L0 191.94 L0 594.88 Z" class="st12"/>
			</g>
			<g id="shape85-174" transform="translate(0,-384.935)">
				<title>Sheet.85</title>
				<desc>Peripheral modules</desc>
				<rect x="0" y="576.876" width="136.381" height="18.002" class="st15"/>
				<text x="4" y="588.58" class="st21">Peripheral modules</text>			</g>
		</g>
		<g id="shape104-177" transform="translate(239.555,-194.856)">
			<title>Nordic Lake.104</title>
			<desc>USB RX FIFO</desc>
			<rect x="0" y="561.498" width="53.1496" height="33.3804" class="st11"/>
			<text x="18.35" y="575.79" class="st29">USB  <tspan x="10.8" dy="1.2em" class="st3">RX FIFO</tspan></text>		</g>
		<g id="shape40-181" transform="translate(162.467,-239.528)">
			<title>Nordic Light Grey</title>
			<desc>sw_codec_select.c</desc>
			<rect x="0" y="537.421" width="208.111" height="57.4569" class="st30"/>
			<text x="136.97" y="588.48" class="st29">sw_codec_select.c</text>		</g>
		<g id="shape105-184" transform="translate(239.555,-255.018)">
			<title>Nordic Lake.105</title>
			<desc>Encoder</desc>
			<rect x="0" y="561.498" width="53.1496" height="33.3804" class="st24"/>
			<text x="7.95" y="581.19" class="st31">Encoder</text>		</g>
		<g id="shape109-187" transform="translate(259.928,-288.399)">
			<title>Dynamic connector.109</title>
			<path d="M6.36 594.88 L7.75 448.39" class="st25"/>
		</g>
		<g id="shape114-192" transform="translate(259.37,-228.236)">
			<title>Dynamic connector.114</title>
			<path d="M7.09 594.88 L7.09 575.14" class="st27"/>
		</g>
		<g id="shape115-197" transform="translate(12.7002,-491.394)">
			<title>Nordic Lake.115</title>
			<rect x="0" y="584.817" width="16.0192" height="10.0608" class="st6"/>
		</g>
		<g id="shape116-199" transform="translate(33.6886,-491.394)">
			<title>Sheet.116</title>
			<desc>Peripheral module</desc>
			<rect x="0" y="584.817" width="97.0781" height="10.0608" class="st15"/>
			<text x="4" y="592.55" class="st10">Peripheral module</text>		</g>
		<g id="shape117-202" transform="translate(12.7002,-474.386)">
			<title>Nordic Lake.117</title>
			<rect x="0" y="584.817" width="16.0192" height="10.0608" class="st1"/>
		</g>
		<g id="shape118-204" transform="translate(34.0387,-474.386)">
			<title>Sheet.118</title>
			<desc>Large main module</desc>
			<rect x="0" y="584.817" width="97.0781" height="10.0608" class="st15"/>
			<text x="4" y="592.55" class="st10">Large main module</text>		</g>
		<g id="shape119-207" transform="translate(33.6886,-452.986)">
			<title>Sheet.119</title>
			<desc>Application source files</desc>
			<rect x="0" y="584.817" width="97.0781" height="10.0608" class="st15"/>
			<text x="4" y="587.15" class="st10">Application <tspan x="4" dy="1.2em" class="st3">source files</tspan></text>		</g>
		<g id="shape120-211" transform="translate(12.7002,-457.378)">
			<title>Nordic Lake.120</title>
			<rect x="0" y="584.817" width="16.0192" height="10.0608" class="st30"/>
		</g>
		<g id="shape121-213" transform="translate(12.7002,-447.317)">
			<title>Nordic Lake.121</title>
			<rect x="0" y="584.817" width="16.0192" height="10.0608" class="st9"/>
		</g>
		<g id="shape122-215" transform="translate(445.049,-531.496)">
			<title>Dynamic connector.122</title>
			<path d="M7.08 601.56 L7.08 601.92 L7.1 1067.31" class="st32"/>
		</g>
		<g id="shape129-223" transform="translate(149.909,-418.11)">
			<title>Nordic Blue.129</title>
			<path d="M0 594.88 L235.6 594.88 L235.6 502.75 L0 502.75 L0 594.88 Z" class="st12"/>
		</g>
		<g id="shape134-225" transform="translate(260.657,-484.447)">
			<title>Dynamic connector.134</title>
			<path d="M7.09 594.88 L7.09 554.87" class="st25"/>
		</g>
		<g id="shape135-230" transform="translate(300.472,-488.976)">
			<title>Sheet.135</title>
			<desc>Bluetooth modules</desc>
			<rect x="0" y="573.618" width="85.0394" height="21.2598" class="st15"/>
			<text x="6.49" y="586.95" class="st21">Bluetooth modules</text>		</g>
		<g id="shape136-233" transform="translate(220.638,-329.493)">
			<title>Sheet.136</title>
			<desc>main.c</desc>
			<rect x="0" y="561.498" width="97.0781" height="33.3804" class="st30"/>
			<text x="36.76" y="580.59" class="st29">main.c</text>		</g>
		<g id="shape124-236" transform="translate(159.36,-441.927)">
			<title>Nordic Blue.124</title>
			<rect x="0" y="552.359" width="217.17" height="42.5197" class="st9"/>
		</g>
		<g id="shape125-238" transform="translate(220.638,-455.173)">
			<title>Nordic Light Grey.125</title>
			<desc>broadcast_source.c</desc>
			<rect x="0" y="576.878" width="94.615" height="18.0005" class="st30"/>
			<text x="12.4" y="588.28" class="st29">broadcast_source.c</text>		</g>
	</g>
</svg>
