<?xml version="1.0" encoding="UTF-8" standalone="no"?>
<!DOCTYPE svg PUBLIC "-//W3C//DTD SVG 1.1//EN" "http://www.w3.org/Graphics/SVG/1.1/DTD/svg11.dtd">
<!-- Generated by Microsoft Visio, SVG Export nrf5340_audio_structure_sync_module.svg Page-1 -->
<svg xmlns="http://www.w3.org/2000/svg" xmlns:xlink="http://www.w3.org/1999/xlink" xmlns:ev="http://www.w3.org/2001/xml-events"
		width="7.76747in" height="8.05927in" viewBox="0 0 559.258 580.268" xml:space="preserve" color-interpolation-filters="sRGB"
		class="st40">
	<style type="text/css">
	<![CDATA[
		.st1 {fill:#d9e1e2;stroke:none;stroke-width:1}
		.st2 {fill:#00a9ce;stroke:none;stroke-width:1}
		.st3 {fill:#ffffff;font-family:Arial;font-size:0.916672em}
		.st4 {fill:none;stroke:#0033a0;stroke-width:1.25}
		.st5 {fill:#ffffff;font-family:Arial;font-size:0.833336em}
		.st6 {font-size:1em}
		.st7 {fill:#768692;stroke:none;stroke-width:1}
		.st8 {fill:#ffffff;font-family:Arial;font-size:0.75em}
		.st9 {fill:none;stroke:#333f48;stroke-dasharray:0.01,5;stroke-width:1}
		.st10 {fill:none;stroke:none;stroke-width:1}
		.st11 {fill:#333f48;font-family:Arial;font-size:0.916672em}
		.st12 {fill:#768692;font-family:Arial;font-size:0.833336em}
		.st13 {fill:#00a9ce;font-family:Arial;font-size:0.833336em}
		.st14 {fill:#0033a0;font-family:Arial;font-size:0.833336em;font-weight:bold}
		.st15 {fill:#d0df00;stroke:none;stroke-width:1}
		.st16 {fill:#333f48;font-family:Arial;font-size:0.833336em}
		.st17 {fill:#ffcd00;stroke:none;stroke-width:1}
		.st18 {fill:#333f48;font-family:Arial;font-size:0.666664em;font-weight:bold}
		.st19 {font-size:1em;font-weight:normal}
		.st20 {fill:#f58220;stroke:none;stroke-width:1}
		.st21 {fill:#333f48;font-family:Arial;font-size:0.75em;font-weight:bold}
		.st22 {marker-end:url(#mrkr4-82);stroke:#00a9ce;stroke-linecap:butt;stroke-width:1}
		.st23 {fill:#00a9ce;fill-opacity:1;stroke:#00a9ce;stroke-opacity:1;stroke-width:0.28409090909091}
		.st24 {marker-start:url(#mrkr4-98);stroke:#00a9ce;stroke-linecap:butt;stroke-width:1}
		.st25 {marker-start:url(#mrkr4-114);stroke:#768692;stroke-linecap:butt;stroke-width:1}
		.st26 {fill:#768692;fill-opacity:1;stroke:#768692;stroke-opacity:1;stroke-width:0.28409090909091}
		.st27 {marker-start:url(#mrkr4-120);stroke:#333f48;stroke-linecap:butt;stroke-width:1}
		.st28 {fill:#333f48;fill-opacity:1;stroke:#333f48;stroke-opacity:1;stroke-width:0.28409090909091}
		.st29 {marker-end:url(#mrkr4-126);stroke:#768692;stroke-linecap:butt;stroke-width:1}
		.st30 {fill:#768692;font-family:Arial;font-size:0.75em}
		.st31 {fill:none;stroke:#333f48;stroke-width:1}
		.st32 {fill:#333f48;font-family:Arial;font-size:0.75em}
		.st33 {marker-end:url(#mrkr4-82);marker-start:url(#mrkr4-98);stroke:#00a9ce;stroke-linecap:butt;stroke-width:1}
		.st34 {marker-end:url(#mrkr4-159);stroke:#333f48;stroke-linecap:butt;stroke-width:1}
		.st35 {marker-end:url(#mrkr4-206);stroke:#d0df00;stroke-linecap:butt;stroke-width:1}
		.st36 {fill:#d0df00;fill-opacity:1;stroke:#d0df00;stroke-opacity:1;stroke-width:0.28409090909091}
		.st37 {fill:#d9e1e2;fill-opacity:0.58;stroke:none;stroke-width:1}
		.st38 {fill:#ffffff;font-family:Arial;font-size:0.666664em}
		.st39 {fill:#ffffff;font-family:Arial;font-size:0.625008em}
		.st40 {fill:none;fill-rule:evenodd;font-size:12px;overflow:visible;stroke-linecap:square;stroke-miterlimit:3}
	]]>
	</style>

	<defs id="Markers">
		<g id="lend4">
			<path d="M 2 1 L 0 0 L 2 -1 L 2 1 " style="stroke:none"/>
		</g>
		<marker id="mrkr4-82" class="st23" refX="-7.04" orient="auto" markerUnits="strokeWidth" overflow="visible">
			<use xlink:href="#lend4" transform="scale(-3.52,-3.52) "/>
		</marker>
		<marker id="mrkr4-98" class="st23" refX="6.68" orient="auto" markerUnits="strokeWidth" overflow="visible">
			<use xlink:href="#lend4" transform="scale(3.52) "/>
		</marker>
		<marker id="mrkr4-114" class="st26" refX="6.68" orient="auto" markerUnits="strokeWidth" overflow="visible">
			<use xlink:href="#lend4" transform="scale(3.52) "/>
		</marker>
		<marker id="mrkr4-120" class="st28" refX="6.68" orient="auto" markerUnits="strokeWidth" overflow="visible">
			<use xlink:href="#lend4" transform="scale(3.52) "/>
		</marker>
		<marker id="mrkr4-126" class="st26" refX="-7.04" orient="auto" markerUnits="strokeWidth" overflow="visible">
			<use xlink:href="#lend4" transform="scale(-3.52,-3.52) "/>
		</marker>
		<marker id="mrkr4-159" class="st28" refX="-7.04" orient="auto" markerUnits="strokeWidth" overflow="visible">
			<use xlink:href="#lend4" transform="scale(-3.52,-3.52) "/>
		</marker>
		<marker id="mrkr4-206" class="st36" refX="-7.04" orient="auto" markerUnits="strokeWidth" overflow="visible">
			<use xlink:href="#lend4" transform="scale(-3.52,-3.52) "/>
		</marker>
	</defs>
	<g>
		<title>Page-1</title>
		<g id="shape41-1" transform="translate(432.184,-447.084)">
			<title>Nordic Middle Grey</title>
			<rect x="0" y="516.115" width="91.8083" height="64.1525" class="st1"/>
		</g>
		<g id="shape23-3" transform="translate(3.83465,-1)">
			<title>Nordic Lake</title>
			<desc>audio_i2s.c</desc>
			<rect x="0" y="546.887" width="554.173" height="33.3804" class="st2"/>
			<text x="249.26" y="566.88" class="st3">audio_i2s.c</text>		</g>
		<g id="shape25-6" transform="translate(3.83465,-46.3543)">
			<title>Nordic Blue.25</title>
			<rect x="0" y="194.597" width="554.173" height="385.671" class="st4"/>
		</g>
		<g id="shape31-8" transform="translate(440.37,-472.187)">
			<title>Nordic Lake.31</title>
			<desc>I2S RX FIFO</desc>
			<rect x="0" y="546.887" width="75.1181" height="33.3804" class="st2"/>
			<text x="30.05" y="560.58" class="st5">I2S <tspan x="17.84" dy="1.2em" class="st6">RX FIFO</tspan></text>		</g>
		<g id="shape32-12" transform="translate(184.419,-440.042)">
			<title>Nordic Sky</title>
			<desc>audio_sync_timer.c</desc>
			<rect x="0" y="564.349" width="91.8083" height="15.9188" class="st7"/>
			<text x="7.14" y="575.01" class="st8">audio_sync_timer.c</text>		</g>
		<g id="shape33-15" transform="translate(418.827,-46.3543)">
			<title>Nordic Blue.33</title>
			<path d="M0 580.27 L0.28 580.27 L0.28 50.19 L0 50.19 L0 580.27 Z" class="st9"/>
		</g>
		<g id="shape34-17" transform="translate(419.11,-541)">
			<title>Sheet.34</title>
			<desc>RX (HW codec to nRF5340)</desc>
			<rect x="0" y="543.417" width="127.877" height="36.8504" class="st10"/>
			<text x="4" y="558.54" class="st11">RX <tspan x="4" dy="1.2em" class="st6">(HW codec to nRF5340)</tspan></text>		</g>
		<g id="shape36-21" transform="translate(290.95,-539.583)">
			<title>Sheet.36</title>
			<desc>TX (nRF5340 to HW codec)</desc>
			<rect x="0" y="540.583" width="127.877" height="39.685" class="st10"/>
			<text x="109.82" y="557.13" class="st11">TX <tspan x="5.28" dy="1.2em" class="st6">(nRF5340 to HW codec)</tspan></text>		</g>
		<g id="shape58-25" transform="translate(1,-410.765)">
			<title>Sheet.58</title>
			<desc>bad_frame</desc>
			<rect x="0" y="559.008" width="56.6929" height="21.2598" class="st10"/>
			<text x="4" y="572.64" class="st12">bad_frame</text>		</g>
		<g id="shape65-28" transform="translate(114.386,-409.898)">
			<title>Sheet.65</title>
			<desc>sdu_ref</desc>
			<rect x="0" y="559.008" width="42.5197" height="21.2598" class="st10"/>
			<text x="5.16" y="572.64" class="st12">sdu_ref</text>		</g>
		<g id="shape76-31" transform="translate(230.323,-410.765)">
			<title>Sheet.76</title>
			<desc>cur_time</desc>
			<rect x="0" y="559.008" width="53.1496" height="21.2598" class="st10"/>
			<text x="4" y="572.64" class="st12">cur_time</text>		</g>
		<g id="shape79-34" transform="translate(325.567,-52.0236)">
			<title>Sheet.79</title>
			<desc>frame_start_ts</desc>
			<rect x="0" y="563.26" width="76.9606" height="17.0079" class="st10"/>
			<text x="4" y="574.76" class="st13">frame_start_ts</text>		</g>
		<g id="shape84-37" transform="translate(459.858,-393.598)">
			<title>Sheet.84</title>
			<desc>Synchronization module (audio_datapath.c)</desc>
			<rect x="0" y="543.417" width="98.1496" height="36.8504" class="st10"/>
			<text x="10.18" y="552.84" class="st14">Synchronization <tspan x="31.3" dy="1.2em" class="st6">module </tspan><tspan
						x="4.63" dy="1.2em" class="st6">(audio_datapath.c)</tspan></text>		</g>
		<g id="shape102-42" transform="translate(15.0144,-446.198)">
			<title>Nordic Middle Grey.102</title>
			<rect x="0" y="483.34" width="127.877" height="96.9278" class="st1"/>
		</g>
		<g id="shape103-44" transform="translate(22.8439,-508.711)">
			<title>Nordic Lake.103</title>
			<desc>Bluetooth LE RX FIFO</desc>
			<rect x="0" y="550.22" width="112.677" height="30.0472" class="st15"/>
			<text x="27.71" y="562.24" class="st16">Bluetooth LE <tspan x="36.62" dy="1.2em" class="st6">RX FIFO</tspan></text>		</g>
		<g id="shape107-48" transform="translate(54.7874,-188.949)">
			<title>Nordic Lake.107</title>
			<desc>I2S TX FIFO</desc>
			<rect x="0" y="546.887" width="53.1496" height="33.3804" class="st2"/>
			<text x="19.07" y="560.58" class="st5">I2S <tspan x="7.41" dy="1.2em" class="st6">T</tspan>X FIFO</text>		</g>
		<g id="shape108-52" transform="translate(164.701,-139.581)">
			<title>Nordic Lake.108</title>
			<desc>I2S block complete</desc>
			<rect x="0" y="546.887" width="53.1496" height="33.3804" class="st2"/>
			<text x="6.01" y="560.58" class="st5">I2S block <tspan x="6.29" dy="1.2em" class="st6">complete</tspan></text>		</g>
		<g id="shape110-56" transform="translate(164.701,-71.1485)">
			<title>Nordic Sky.110</title>
			<desc>pcm_mix.c</desc>
			<rect x="0" y="556.155" width="53.1496" height="24.1125" class="st7"/>
			<text x="5.07" y="570.91" class="st8">pcm_mix.c</text>		</g>
		<g id="shape112-59" transform="translate(187.094,-260.892)">
			<title>Nordic Light Grey.112</title>
			<desc>Presentation compensation (Executed every time a new package ...</desc>
			<rect x="0" y="516.115" width="84.189" height="64.1525" class="st17"/>
			<text x="17.87" y="526.59" class="st18">Presentation <tspan x="14.98" dy="1.2em" class="st6">compensation  </tspan><tspan
						x="4.52" dy="2.4em" class="st19">(Executed every time </tspan><tspan x="11.19" dy="1.2em" class="st19">a new package is </tspan><tspan
						x="25.64" dy="1.2em" class="st19">received)</tspan></text>		</g>
		<g id="shape113-66" transform="translate(283.472,-355.489)">
			<title>Nordic Light Grey.113</title>
			<desc>Drift compensation (Executed every time an I2S block is compl...</desc>
			<rect x="0" y="516.115" width="84.189" height="64.1525" class="st20"/>
			<text x="32.85" y="523.89" class="st21">Drift <tspan x="11.59" dy="1.2em" class="st6">compensation  </tspan><tspan
						x="9.58" dy="2.4em" class="st19">(Executed every </tspan><tspan x="7.58" dy="1.2em" class="st19">time an I2S block </tspan><tspan
						x="15.33" dy="1.2em" class="st19">is completed)</tspan></text>		</g>
		<g id="shape118-73" transform="translate(433.283,-137.063)">
			<title>Nordic Lake.118</title>
			<desc>I2S block complete</desc>
			<rect x="0" y="546.887" width="53.1496" height="33.3804" class="st2"/>
			<text x="6.01" y="560.58" class="st5">I2S block <tspan x="6.29" dy="1.2em" class="st6">complete</tspan></text>		</g>
		<g id="shape126-77" transform="translate(81.3622,-188.949)">
			<title>Dynamic connector.126</title>
			<path d="M0 580.27 L0 612.95 L76.3 612.95" class="st22"/>
		</g>
		<g id="shape127-83" transform="translate(184.189,-139.581)">
			<title>Dynamic connector.127</title>
			<path d="M7.09 580.27 L7.09 617.55" class="st22"/>
		</g>
		<g id="shape129-88" transform="translate(100.553,-116.698)">
			<title>Dynamic connector.129</title>
			<path d="M0 580.27 L90.72 580.27 L90.72 594.67" class="st22"/>
		</g>
		<g id="shape131-93" transform="translate(452.772,-137.063)">
			<title>Dynamic connector.131</title>
			<path d="M7.09 586.95 L7.09 587.31 L7.09 682.95" class="st24"/>
		</g>
		<g id="shape132-99" transform="translate(318.48,-34.3804)">
			<title>Dynamic connector.132</title>
			<path d="M7.09 580.27 L7.09 266.2" class="st22"/>
		</g>
		<g id="shape133-104" transform="translate(271.283,-292.969)">
			<title>Dynamic connector.133</title>
			<path d="M6.68 580.27 L7.04 580.27 L54.28 580.27 L54.28 838.86" class="st24"/>
		</g>
		<g id="shape134-109" transform="translate(223.236,-325.045)">
			<title>Dynamic connector.134</title>
			<path d="M7.09 573.59 L7.09 573.23 L7.09 465.27" class="st25"/>
		</g>
		<g id="shape136-115" transform="translate(222.102,-231.44)">
			<title>Dynamic connector.136</title>
			<path d="M7.09 573.59 L7.09 573.23 L7.09 550.82" class="st27"/>
		</g>
		<g id="shape137-121" transform="translate(114.386,-446.198)">
			<title>Dynamic connector.137</title>
			<path d="M0 580.27 L0 627.2 L113.57 627.2 A2.3622 2.3622 0 0 1 118.3 627.2 L131.24 627.2 L131.24 638.9 L162.05 638.9"
					class="st29"/>
		</g>
		<g id="shape140-127" transform="translate(114.386,-335.115)">
			<title>Sheet.140</title>
			<desc>Estimate current sdu_ref if the delta between the current and...</desc>
			<rect x="0" y="516.115" width="112.677" height="64.1525" class="st10"/>
			<text x="4" y="529.29" class="st30">Estimate current sdu_ref <tspan x="4" dy="1.2em" class="st6">if the delta between the </tspan><tspan
						x="4" dy="1.2em" class="st6">current and the previous </tspan><tspan x="4" dy="1.2em" class="st6">incoming sdu_ref is over </tspan><tspan
						x="4" dy="1.2em" class="st6">or under a threshold</tspan></text>		</g>
		<g id="shape142-134" transform="translate(187.094,-179.839)">
			<title>Sheet.142</title>
			<desc>Adjust placement of audio blocks in FIFO to synchronize audio</desc>
			<rect x="0" y="528.667" width="84.189" height="51.6011" class="st31"/>
			<text x="7.58" y="540.97" class="st32">Adjust placement <tspan x="7.32" dy="1.2em" class="st6">of audio blocks in </tspan><tspan
						x="26.84" dy="1.2em" class="st6">FIFO to </tspan><tspan x="5.82" dy="1.2em" class="st6">synchronize audio</tspan></text>		</g>
		<g id="shape143-140" transform="translate(452.772,-170.443)">
			<title>Dynamic connector.143</title>
			<path d="M7.09 573.59 L7.09 573.23 L7.09 285.56" class="st33"/>
		</g>
		<g id="shape144-147" transform="translate(342.575,-264.785)">
			<title>Nordic Lake.144</title>
			<desc>Audio clock (PLL) fine adjustment for synchronizing audio</desc>
			<rect x="0" y="523.738" width="68.0315" height="56.5296" class="st31"/>
			<text x="11" y="533.1" class="st32">Audio clock <tspan x="14.51" dy="1.2em" class="st6">(PLL) fine </tspan><tspan
						x="5.5" dy="1.2em" class="st6">adjustment for </tspan><tspan x="6.5" dy="1.2em" class="st6">synchronizing </tspan><tspan
						x="23.01" dy="1.2em" class="st6">audio</tspan></text>		</g>
		<g id="shape145-154" transform="translate(187.094,-198.553)">
			<title>Dynamic connector.145</title>
			<path d="M0 573.18 L-72.12 573.18" class="st34"/>
		</g>
		<g id="shape146-160" transform="translate(365.039,-387.565)">
			<title>Dynamic connector.146</title>
			<path d="M2.62 580.27 L11.55 580.27 L11.55 639.48" class="st34"/>
		</g>
		<g id="shape147-165" transform="translate(184.189,-71.1485)">
			<title>Dynamic connector.147</title>
			<path d="M7.09 580.27 L7.09 610" class="st22"/>
		</g>
		<g id="group169-170" transform="translate(57.6929,-85.4619)">
			<title>Sheet.169</title>
			<g id="shape111-171">
				<title>Nordic Light Grey.111</title>
				<desc>tone.c</desc>
				<rect x="0" y="528.667" width="46.2047" height="51.6011" class="st1"/>
				<text x="10.84" y="573.57" class="st32">tone.c</text>			</g>
			<g id="shape109-174" transform="translate(3.62835,-14.5462)">
				<title>Nordic Lake.109</title>
				<desc>Tone</desc>
				<rect x="0" y="546.887" width="39.2315" height="33.3804" class="st2"/>
				<text x="8.22" y="566.58" class="st5">Tone</text>			</g>
		</g>
		<g id="group172-177" transform="translate(36.4331,-260.892)">
			<title>Sheet.172</title>
			<g id="shape105-178">
				<title>Nordic Light Grey</title>
				<rect x="0" y="516.115" width="84.189" height="64.1525" class="st1"/>
			</g>
			<g id="shape104-180" transform="translate(15.5197,-17.4799)">
				<title>Nordic Lake.37</title>
				<desc>Decoder</desc>
				<rect x="0" y="546.887" width="53.1496" height="33.3804" class="st15"/>
				<text x="7.68" y="566.58" class="st16">Decoder</text>			</g>
		</g>
		<g id="shape121-183" transform="translate(72.8583,-278.372)">
			<title>Dynamic connector.121</title>
			<path d="M7.09 580.27 L7.09 629.27" class="st22"/>
		</g>
		<g id="group180-188" transform="translate(160.608,-465.1)">
			<title>Sheet.180</title>
			<g id="shape148-189">
				<title>Nordic Blue.88</title>
				<rect x="0" y="502.899" width="247.533" height="77.3683" class="st31"/>
			</g>
			<g id="shape149-191" transform="translate(9.8103,-62.1805)">
				<title>Nordic Lake.89</title>
				<rect x="0" y="570.207" width="16.0192" height="10.0608" class="st15"/>
			</g>
			<g id="shape150-193" transform="translate(146.62,-72.8551)">
				<title>Dynamic connector.90</title>
				<path d="M0 587.33 L-12.71 587.36" class="st29"/>
			</g>
			<g id="shape151-198" transform="translate(150.455,-60.7159)">
				<title>Sheet.151</title>
				<desc>Control data</desc>
				<rect x="0" y="570.207" width="71.5663" height="10.0608" class="st10"/>
				<text x="4" y="577.94" class="st32">Control data</text>			</g>
			<g id="shape152-201" transform="translate(146.62,-60.6661)">
				<title>Dynamic connector.93</title>
				<path d="M0 587.33 L-12.71 587.36" class="st35"/>
			</g>
			<g id="shape153-207" transform="translate(150.455,-48.5269)">
				<title>Sheet.153</title>
				<desc>Compressed audio</desc>
				<rect x="0" y="570.207" width="97.0781" height="10.0608" class="st10"/>
				<text x="4" y="577.94" class="st32">Compressed audio</text>			</g>
			<g id="shape154-210" transform="translate(146.62,-48.4772)">
				<title>Dynamic connector.95</title>
				<path d="M0 587.33 L-12.71 587.36" class="st22"/>
			</g>
			<g id="shape155-215" transform="translate(150.455,-36.3379)">
				<title>Sheet.155</title>
				<desc>Uncompressed audio</desc>
				<rect x="0" y="570.207" width="97.0781" height="10.0608" class="st10"/>
				<text x="4" y="577.94" class="st32">Uncompressed audio</text>			</g>
			<g id="shape156-218" transform="translate(9.8103,-37.8674)">
				<title>Nordic Lake.97</title>
				<rect x="0" y="570.207" width="16.0192" height="10.0608" class="st2"/>
			</g>
			<g id="shape157-220" transform="translate(30.5818,-49.9125)">
				<title>Sheet.157</title>
				<desc>Block working on compressed audio</desc>
				<rect x="0" y="559.008" width="97.0781" height="21.2598" class="st10"/>
				<text x="4" y="566.94" class="st32">Block working on <tspan x="4" dy="1.2em" class="st6">compressed audio</tspan></text>			</g>
			<g id="shape158-224" transform="translate(30.7987,-26.6684)">
				<title>Sheet.158</title>
				<desc>Block working on uncompressed audio</desc>
				<rect x="0" y="559.008" width="97.0781" height="21.2598" class="st10"/>
				<text x="4" y="566.94" class="st32">Block working on <tspan x="4" dy="1.2em" class="st6">uncompressed audio</tspan></text>			</g>
			<g id="shape165-228" transform="translate(30.7987,-2.81661)">
				<title>Sheet.165</title>
				<desc>Application source files</desc>
				<rect x="0" y="556.155" width="97.0781" height="24.1125" class="st10"/>
				<text x="4" y="565.51" class="st32">Application <tspan x="4" dy="1.2em" class="st6">source files</tspan></text>			</g>
			<g id="shape166-232" transform="translate(9.81029,-14.3497)">
				<title>Nordic Lake.120</title>
				<rect x="0" y="574.121" width="16.0192" height="6.14675" class="st7"/>
			</g>
			<g id="shape167-234" transform="translate(9.81029,-8.20295)">
				<title>Nordic Lake.121</title>
				<rect x="0" y="574.121" width="16.0192" height="6.14675" class="st1"/>
			</g>
			<g id="shape173-236" transform="translate(130.6,-23.0151)">
				<title>Nordic Lake.173</title>
				<rect x="0" y="570.207" width="16.0192" height="10.0608" class="st31"/>
			</g>
			<g id="shape174-238" transform="translate(149.738,-23.0151)">
				<title>Sheet.174</title>
				<desc>Adjustments</desc>
				<rect x="0" y="570.207" width="97.0781" height="10.0608" class="st10"/>
				<text x="4" y="577.94" class="st32">Adjustments</text>			</g>
			<g id="shape177-241" transform="translate(130.6,-13.3948)">
				<title>Nordic Lake.177</title>
				<rect x="0" y="574.121" width="16.0192" height="6.14675" class="st20"/>
			</g>
			<g id="shape178-243" transform="translate(130.6,-7.24803)">
				<title>Nordic Lake.178</title>
				<rect x="0" y="574.121" width="16.0192" height="6.14675" class="st17"/>
			</g>
			<g id="shape179-245" transform="translate(149.876,-8.20295)">
				<title>Sheet.179</title>
				<desc>Compensations</desc>
				<rect x="0" y="570.207" width="97.0781" height="10.0608" class="st10"/>
				<text x="4" y="577.94" class="st32">Compensations</text>			</g>
		</g>
		<g id="shape119-248" transform="translate(49.189,-446.198)">
			<title>Dynamic connector</title>
			<path d="M7.09 580.27 L7.09 707.67" class="st29"/>
		</g>
		<g id="shape120-253" transform="translate(107.299,-446.198)">
			<title>Dynamic connector.120</title>
			<path d="M-7.09 580.27 L-7.09 707.67" class="st35"/>
		</g>
		<g id="shape182-258" transform="translate(114.386,-446.198)">
			<title>Dynamic connector.182</title>
			<path d="M0 580.27 L0 627.2 L113.57 627.2 A2.3622 2.3622 0 1 1 118.3 627.2 L131.24 627.2 L131.24 694.38" class="st29"/>
		</g>
		<g id="shape183-263" transform="translate(432.184,-451.709)">
			<title>Sheet.183</title>
			<desc>audio_system.c</desc>
			<rect x="0" y="571.764" width="91.8083" height="8.50394" class="st37"/>
			<text x="25.28" y="578.72" class="st32">audio_system.c</text>		</g>
		<g id="shape184-266" transform="translate(22.3845,-485.254)">
			<title>Sheet.184</title>
			<desc>streamctrl_unicast_client.c</desc>
			<rect x="0" y="570.823" width="112.677" height="9.44466" class="st7"/>
			<text x="9.21" y="577.95" class="st38">streamctrl_unicast_client.c</text>		</g>
		<g id="shape185-269" transform="translate(22.8439,-473.303)">
			<title>Sheet.185</title>
			<desc>streamctrl_unicast_server.c</desc>
			<rect x="0" y="570.823" width="112.677" height="9.44466" class="st7"/>
			<text x="7.43" y="577.95" class="st38">streamctrl_unicast_server.c</text>		</g>
		<g id="shape186-272" transform="translate(22.8439,-461.63)">
			<title>Sheet.186</title>
			<desc>streamctrl_broadcast_source.c</desc>
			<rect x="0" y="570.823" width="112.677" height="9.44466" class="st7"/>
			<text x="5.07" y="577.8" class="st39">streamctrl_broadcast_source.c</text>		</g>
		<g id="shape187-275" transform="translate(22.8439,-450.291)">
			<title>Sheet.187</title>
			<desc>streamctrl_broadcast_sink.c</desc>
			<rect x="0" y="570.823" width="112.677" height="9.44466" class="st7"/>
			<text x="6.54" y="577.95" class="st38">streamctrl_broadcast_sink.c</text>		</g>
		<g id="shape188-278" transform="translate(36.4331,-264.622)">
			<title>Sheet.188</title>
			<desc>sw_codec_select.c</desc>
			<rect x="0" y="571.764" width="84.189" height="8.50394" class="st37"/>
			<text x="4.65" y="579.02" class="st32">sw_codec_select.c</text>		</g>
		<g id="shape190-281" transform="translate(22.8439,-496.655)">
			<title>Sheet.190</title>
			<desc>One of the following:</desc>
			<rect x="0" y="568.521" width="112.677" height="11.7467" class="st37"/>
			<text x="15.31" y="577.09" class="st32">One of the following:</text>		</g>
	</g>
</svg>
