<?xml version="1.0" encoding="UTF-8" standalone="no"?>
<!DOCTYPE svg PUBLIC "-//W3C//DTD SVG 1.1//EN" "http://www.w3.org/Graphics/SVG/1.1/DTD/svg11.dtd">
<!-- Generated by Microsoft Visio, SVG Export nrf9160_ug_overview.svg Page-1 -->
<svg xmlns="http://www.w3.org/2000/svg" xmlns:xlink="http://www.w3.org/1999/xlink" xmlns:ev="http://www.w3.org/2001/xml-events"
		width="4.51178in" height="5.65759in" viewBox="0 0 324.848 407.347" xml:space="preserve" color-interpolation-filters="sRGB"
		class="st12">
	<style type="text/css">
	<![CDATA[
		.st1 {fill:none;stroke:none;stroke-width:1}
		.st2 {fill:none;stroke:none;stroke-linecap:butt;stroke-width:0.75}
		.st3 {fill:#000000;font-family:Calibri;font-size:1.00001em}
		.st4 {fill:#0033a0;stroke:none;stroke-width:1}
		.st5 {fill:#ffffff;font-family:Calibri;font-size:1.00001em}
		.st6 {fill:#6ad1e3;stroke:none;stroke-width:1}
		.st7 {fill:none}
		.st8 {stroke:#008bab;stroke-linecap:butt;stroke-width:1}
		.st9 {fill:#00a9ce;stroke:#feffff;stroke-width:1}
		.st10 {fill:#feffff;font-family:Calibri;font-size:1.00001em}
		.st11 {fill:#0077c8;stroke:#00a9ce;stroke-linecap:round;stroke-linejoin:round;stroke-width:1}
		.st12 {fill:none;fill-rule:evenodd;font-size:12px;overflow:visible;stroke-linecap:square;stroke-miterlimit:3}
	]]>
	</style>

	<g>
		<title>Page-1</title>
		<g id="group41-1" transform="translate(1,-1)">
			<title>Sheet.41</title>
			<g id="group27-2" transform="translate(195.787,-152.075)">
				<title>Sheet.27</title>
				<desc>Non-secure</desc>
				<g id="shape28-3">
					<title>Sheet.28</title>
					<rect x="0" y="374.748" width="70.8661" height="32.5984" class="st1"/>
				</g>
				<g id="shape29-5" transform="translate(7.31,-9.09837)">
					<title>Sheet.29</title>
					<desc>Non-secure</desc>
					<rect x="0" y="392.946" width="120.001" height="14.4002" class="st2"/>
					<text x="0" y="403.75" class="st3">Non-secure</text>				</g>
			</g>
			<g id="group40-8">
				<title>Sheet.40</title>
				<g id="group3-9" transform="translate(28.2547,-377)">
					<title>Sheet.3</title>
					<desc>Cortex-M33 Application MCU</desc>
					<g id="shape4-10">
						<title>Sheet.4</title>
						<rect x="0" y="379" width="86.0899" height="28.3465" class="st1"/>
					</g>
					<g id="shape5-12" transform="translate(5.2079,-6.97847)">
						<title>Sheet.5</title>
						<desc>Cortex-M33 Application MCU</desc>
						<rect x="0" y="392.946" width="143.292" height="14.4002" class="st2"/>
						<text x="0" y="403.75" class="st3">Cortex-M33 Application MCU</text>					</g>
				</g>
				<g id="group6-15" transform="translate(0.005,0)">
					<title>Rectangle.21</title>
					<desc>LTE modem</desc>
					<g id="shape7-16">
						<title>Sheet.7</title>
						<rect x="0" y="366.879" width="198.425" height="40.467" class="st4"/>
					</g>
					<g id="shape8-18" transform="translate(70.59,-13.038)">
						<title>Sheet.8</title>
						<desc>LTE modem</desc>
						<rect x="0" y="392.946" width="108.001" height="14.4002" class="st2"/>
						<text x="0" y="403.75" class="st5">LTE modem</text>					</g>
				</g>
				<g id="shape11-21" transform="translate(0.005,-72.1703)">
					<title>Sheet.11</title>
					<rect x="0" y="216.007" width="198.425" height="191.339" class="st6"/>
				</g>
				<g id="group12-23" transform="translate(0.005,-263.51)">
					<title>Sheet.12</title>
					<desc>Secure boot</desc>
					<g id="shape13-24">
						<title>Sheet.13</title>
						<rect x="0" y="293.856" width="198.425" height="113.49" class="st6"/>
					</g>
				</g>
				<g id="group15-26" transform="translate(198.43,551.182) rotate(180)">
					<title>Sheet.15</title>
					<g id="shape16-27">
						<title>Sheet.16</title>
						<path d="M0 407.35 L198.43 407.35 L0 407.35 Z" class="st7"/>
						<path d="M0 407.35 L198.43 407.35" class="st8"/>
					</g>
				</g>
				<g id="group17-30" transform="translate(19.4223,-168.026)">
					<title>Sheet.17</title>
					<desc>Application</desc>
					<g id="shape18-31">
						<title>Sheet.18</title>
						<rect x="0" y="329.394" width="159.591" height="77.9528" class="st9"/>
					</g>
					<g id="shape19-33" transform="translate(52.15,-31.7778)">
						<title>Sheet.19</title>
						<desc>Application</desc>
						<rect x="0" y="392.946" width="132.001" height="14.4002" class="st2"/>
						<text x="0" y="403.75" class="st10">Application</text>					</g>
				</g>
				<g id="group20-36" transform="translate(19.4223,-90.0735)">
					<title>Sheet.20</title>
					<desc>BSD socket</desc>
					<g id="shape21-37">
						<title>Sheet.21</title>
						<rect x="0" y="329.394" width="159.591" height="77.9528" class="st9"/>
					</g>
					<g id="shape22-39" transform="translate(52.96,-31.7778)">
						<title>Sheet.22</title>
						<desc>BSD socket</desc>
						<rect x="0" y="392.946" width="120.001" height="14.4002" class="st2"/>
						<text x="0" y="403.75" class="st10">BSD socket</text>					</g>
				</g>
				<g id="group23-42" transform="translate(19.8546,-168.024)">
					<title>Sheet.23</title>
					<g id="shape24-43">
						<title>Sheet.24</title>
						<path d="M0 407.35 L158.74 407.35 L0 407.35 Z" class="st7"/>
						<path d="M0 407.35 L158.74 407.35" class="st8"/>
					</g>
				</g>
				<g id="group25-46" transform="translate(-295.376,366.879) rotate(-90)">
					<title>Master, v</title>
					<g id="shape26-47">
						<title>Sheet.26</title>
						<path d="M0 394.6 L5.67 381.84 L2.83 390.35 L46.77 390.35 L43.94 381.84 L49.61 394.6 L43.94 407.35 L46.77
									 398.85 L2.83 398.85 L5.67 407.35 L0 394.6 Z" class="st11"/>
					</g>
				</g>
				<g id="group30-49" transform="translate(197.005,-304.451)">
					<title>Sheet.30</title>
					<desc>Secure</desc>
					<g id="shape31-50">
						<title>Sheet.31</title>
						<rect x="0" y="374.748" width="46.7717" height="32.5984" class="st1"/>
					</g>
					<g id="shape32-52" transform="translate(6.88,-9.09837)">
						<title>Sheet.32</title>
						<desc>Secure</desc>
						<rect x="0" y="392.946" width="72.0008" height="14.4002" class="st2"/>
						<text x="0" y="403.75" class="st3">Secure</text>					</g>
				</g>
				<g id="shape34-55" transform="translate(19.4223,-281.047)">
					<title>Sheet.34</title>
					<rect x="0" y="329.394" width="159.591" height="77.9528" class="st9"/>
				</g>
				<g id="shape35-57" transform="translate(71.5723,-312.825)">
					<title>Sheet.35</title>
					<desc>Secure boot</desc>
					<rect x="0" y="392.946" width="132.001" height="14.4002" class="st2"/>
					<text x="0" y="403.75" class="st10">Secure boot</text>				</g>
			</g>
		</g>
	</g>
</svg>
