<?xml version="1.0" encoding="UTF-8" standalone="no"?>
<!DOCTYPE svg PUBLIC "-//W3C//DTD SVG 1.1//EN" "http://www.w3.org/Graphics/SVG/1.1/DTD/svg11.dtd">
<!-- Generated by Microsoft Visio, SVG Export nrf9160_ug_overview.svg Page-1 -->
<svg xmlns="http://www.w3.org/2000/svg" xmlns:xlink="http://www.w3.org/1999/xlink" xmlns:ev="http://www.w3.org/2001/xml-events"
		width="3.84563in" height="5.86699in" viewBox="0 0 276.885 422.423" xml:space="preserve" color-interpolation-filters="sRGB"
		class="st12">
	<style type="text/css">
	<![CDATA[
		.st1 {fill:none;stroke:none;stroke-width:1}
		.st2 {fill:none;stroke:none;stroke-linecap:butt;stroke-width:0.75}
		.st3 {fill:#000000;font-family:Calibri;font-size:1.00001em}
		.st4 {fill:#0033a0;stroke:none;stroke-width:1}
		.st5 {fill:#ffffff;font-family:Calibri;font-size:1.00001em}
		.st6 {fill:#6ad1e3;stroke:none;stroke-width:1}
		.st7 {fill:none}
		.st8 {stroke:#008bab;stroke-linecap:butt;stroke-width:1}
		.st9 {fill:#00a9ce;stroke:#feffff;stroke-width:1}
		.st10 {fill:#feffff;font-family:Calibri;font-size:1.00001em}
		.st11 {fill:#0077c8;stroke:#00a9ce;stroke-linecap:round;stroke-linejoin:round;stroke-width:1}
		.st12 {fill:none;fill-rule:evenodd;font-size:12px;overflow:visible;stroke-linecap:square;stroke-miterlimit:3}
	]]>
	</style>

	<g>
		<title>Page-1</title>
		<g id="group27-1" transform="translate(199.644,-153.075)">
			<title>Sheet.27</title>
			<desc>Non-secure</desc>
			<g id="shape28-2">
				<title>Sheet.28</title>
				<rect x="0" y="389.825" width="33.2384" height="32.5984" class="st1"/>
			</g>
			<g id="shape29-4" transform="translate(3.42862,-9.09837)">
				<title>Sheet.29</title>
				<desc>Non-secure</desc>
				<rect x="0" y="408.023" width="56.2843" height="14.4002" class="st2"/>
				<text x="0" y="418.82" class="st3">Non-secure</text>			</g>
		</g>
		<g id="group40-7" transform="translate(1,-1)">
			<title>Sheet.40</title>
			<g id="group3-8" transform="translate(28.2547,-392.077)">
				<title>Sheet.3</title>
				<desc>Cortex-M33 Application MCU</desc>
				<g id="shape4-9">
					<title>Sheet.4</title>
					<rect x="0" y="394.077" width="86.0899" height="28.3465" class="st1"/>
				</g>
				<g id="shape5-11" transform="translate(5.2079,-6.97847)">
					<title>Sheet.5</title>
					<desc>Cortex-M33 Application MCU</desc>
					<rect x="0" y="408.023" width="143.292" height="14.4002" class="st2"/>
					<text x="0" y="418.82" class="st3">Cortex-M33 Application MCU</text>				</g>
			</g>
			<g id="group6-14" transform="translate(0.005,0)">
				<title>Rectangle.21</title>
				<desc>LTE modem</desc>
				<g id="shape7-15">
					<title>Sheet.7</title>
					<rect x="0" y="381.956" width="198.425" height="40.467" class="st4"/>
				</g>
				<g id="shape8-17" transform="translate(70.59,-13.038)">
					<title>Sheet.8</title>
					<desc>LTE modem</desc>
					<rect x="0" y="408.023" width="108.001" height="14.4002" class="st2"/>
					<text x="0" y="418.82" class="st5">LTE modem</text>				</g>
			</g>
			<g id="shape11-20" transform="translate(0.005,-72.1703)">
				<title>Sheet.11</title>
				<rect x="0" y="231.084" width="198.425" height="191.339" class="st6"/>
			</g>
			<g id="group12-22" transform="translate(0.005,-263.51)">
				<title>Sheet.12</title>
				<desc>Secure boot</desc>
				<g id="shape13-23">
					<title>Sheet.13</title>
					<rect x="0" y="290.933" width="198.425" height="131.49" class="st6"/>
				</g>
			</g>
			<g id="group15-25" transform="translate(198.43,581.335) rotate(180)">
				<title>Sheet.15</title>
				<g id="shape16-26">
					<title>Sheet.16</title>
					<path d="M0 422.42 L198.43 422.42 L0 422.42 Z" class="st7"/>
					<path d="M0 422.42 L198.43 422.42" class="st8"/>
				</g>
			</g>
			<g id="group17-29" transform="translate(19.4223,-168.026)">
				<title>Sheet.17</title>
				<desc>Application</desc>
				<g id="shape18-30">
					<title>Sheet.18</title>
					<rect x="0" y="344.47" width="159.591" height="77.9528" class="st9"/>
				</g>
				<g id="shape19-32" transform="translate(52.15,-31.7778)">
					<title>Sheet.19</title>
					<desc>Application</desc>
					<rect x="0" y="408.023" width="132.001" height="14.4002" class="st2"/>
					<text x="0" y="418.82" class="st10">Application</text>				</g>
			</g>
			<g id="group20-35" transform="translate(19.4223,-90.0735)">
				<title>Sheet.20</title>
				<desc>BSD socket</desc>
				<g id="shape21-36">
					<title>Sheet.21</title>
					<rect x="0" y="344.47" width="159.591" height="77.9528" class="st9"/>
				</g>
				<g id="shape22-38" transform="translate(52.96,-31.7778)">
					<title>Sheet.22</title>
					<desc>BSD socket</desc>
					<rect x="0" y="408.023" width="120.001" height="14.4002" class="st2"/>
					<text x="-0" y="418.82" class="st10">BSD socket</text>				</g>
			</g>
			<g id="group23-41" transform="translate(19.8546,-168.024)">
				<title>Sheet.23</title>
				<g id="shape24-42">
					<title>Sheet.24</title>
					<path d="M0 422.42 L158.74 422.42 L0 422.42 Z" class="st7"/>
					<path d="M0 422.42 L158.74 422.42" class="st8"/>
				</g>
			</g>
			<g id="group25-45" transform="translate(-310.453,381.956) rotate(-90)">
				<title>Master, v</title>
				<g id="shape26-46">
					<title>Sheet.26</title>
					<path d="M0 409.67 L5.67 396.91 L2.83 405.42 L46.77 405.42 L43.94 396.91 L49.61 409.67 L43.94 422.42 L46.77 413.92
								 L2.83 413.92 L5.67 422.42 L0 409.67 Z" class="st11"/>
				</g>
			</g>
			<g id="group30-48" transform="translate(197.455,-304.451)">
				<title>Sheet.30</title>
				<desc>Secure</desc>
				<g id="shape31-49">
					<title>Sheet.31</title>
					<rect x="0" y="389.825" width="32.0161" height="32.5984" class="st1"/>
				</g>
				<g id="shape32-51" transform="translate(4.70949,-9.09837)">
					<title>Sheet.32</title>
					<desc>Secure</desc>
					<rect x="0" y="408.023" width="49.2858" height="14.4002" class="st2"/>
					<text x="0" y="418.82" class="st3">Secure</text>				</g>
			</g>
			<g id="shape34-54" transform="translate(19.4223,-281.047)">
				<title>Sheet.34</title>
				<rect x="0" y="380.47" width="159.591" height="41.9528" class="st9"/>
			</g>
			<g id="shape35-56" transform="translate(38.7493,-295.1)">
				<title>Sheet.35</title>
				<desc>Secure Partition Manager</desc>
				<rect x="0" y="408.023" width="132.001" height="14.4002" class="st2"/>
				<text x="0" y="418.82" class="st10">Secure Partition Manager</text>			</g>
		</g>
		<g id="shape42-59" transform="translate(20.4089,-339.024)">
			<title>Sheet.42</title>
			<rect x="0" y="380.47" width="159.591" height="41.9528" class="st9"/>
		</g>
		<g id="shape43-61" transform="translate(56.9986,-352.8)">
			<title>Sheet.43</title>
			<desc>Bootloader chain</desc>
			<rect x="0" y="408.023" width="132.001" height="14.4002" class="st2"/>
			<text x="0" y="418.82" class="st10">Bootloader chain</text>		</g>
	</g>
</svg>
