<?xml version="1.0" encoding="utf-8"?>
<!-- Generator: Adobe Illustrator 24.1.1, SVG Export Plug-In . SVG Version: 6.00 Build 0)  -->
<svg version="1.0" id="Layer_1" xmlns="http://www.w3.org/2000/svg" xmlns:xlink="http://www.w3.org/1999/xlink" x="0px" y="0px"
	 width="273px" height="135px" viewBox="0 0 273 135" enable-background="new 0 0 273 135" xml:space="preserve">
<g>

		<line fill="none" stroke="#000000" stroke-width="0.72" stroke-linecap="round" stroke-linejoin="round" stroke-miterlimit="10" x1="55.978" y1="116.281" x2="135.598" y2="128.281"/>

		<path fill="none" stroke="#000000" stroke-width="0.72" stroke-linecap="round" stroke-linejoin="bevel" stroke-miterlimit="10" d="
		M32.818,51.121l-2.64,0.72c-9.669,2.819-18.37,8.882-24.36,16.98l-1.56,2.28"/>

		<path fill="none" stroke="#000000" stroke-width="0.72" stroke-linecap="round" stroke-linejoin="bevel" stroke-miterlimit="10" d="
		M63.358,49.381l-3.84-0.36c-7.649-0.661-15.39-0.237-22.92,1.26l-3.78,0.84"/>

		<path fill="none" stroke="#000000" stroke-width="0.72" stroke-linecap="round" stroke-linejoin="bevel" stroke-miterlimit="10" d="
		M89.818,58.381l-2.7-1.56c-6.377-3.611-13.44-6.004-20.7-7.02l-3.12-0.42"/>

		<path fill="none" stroke="#000000" stroke-width="0.72" stroke-linecap="round" stroke-linejoin="bevel" stroke-miterlimit="10" d="
		M125.519,84.181l-4.74-4.14c-8.155-6.694-16.504-12.979-25.56-18.42l-5.4-3.24"/>

		<path fill="none" stroke="#000000" stroke-width="0.72" stroke-linecap="round" stroke-linejoin="round" stroke-miterlimit="10" d="
		M125.578,84.181l5.76,5.52c11.791,10.771,24.408,20.492,37.98,28.92l6.84,4.14"/>

		<path fill="none" stroke="#000000" stroke-width="0.72" stroke-linecap="round" stroke-linejoin="bevel" stroke-miterlimit="10" d="
		M176.158,122.701l2.82,1.5c8.28,4.152,17.969,6.499,27.24,6.42l3.12-0.06"/>

		<path fill="none" stroke="#000000" stroke-width="0.72" stroke-linecap="round" stroke-linejoin="bevel" stroke-miterlimit="10" d="
		M218.699,129.961l3.06-0.3c10.327-1.296,19.92-5.084,28.44-11.04l2.46-1.8l2.22-2.22c5.98-6.34,10.071-13.155,12.84-21.42l0.9-3.06
		"/>

		<path fill="none" stroke="#000000" stroke-width="0.72" stroke-linecap="round" stroke-linejoin="bevel" stroke-miterlimit="10" d="
		M268.678,90.121l0.36-1.8c1.368-7.225-1.2-14.888-6.54-19.92l-1.38-1.2l-6.12-4.8c-16.383-12.553-33.759-23.85-52.02-33.48
		l-6.9-3.6"/>

		<path fill="none" stroke="#000000" stroke-width="0.72" stroke-linecap="round" stroke-linejoin="bevel" stroke-miterlimit="10" d="
		M196.079,25.381l-4.98-2.4c-11.861-5.419-23.924-9.596-36.6-12.66l-5.4-1.2l-6.42-1.32l-6.42-1.2l-6.42-1.02l-6.48-0.9"/>

		<path fill="none" stroke="#000000" stroke-width="0.72" stroke-linecap="round" stroke-linejoin="bevel" stroke-miterlimit="10" d="
		M123.478,4.741l-4.8-0.6c-18.705-2.151-38.881-0.428-56.94,4.92l-4.56,1.38l-3.84,1.26c-8.976,3.205-17.22,7.656-24.84,13.38
		l-3.18,2.52l-2.46,2.1c-7.875,7.043-13.925,16.137-17.28,26.16l-0.96,3"/>

		<polyline fill="none" stroke="#000000" stroke-width="0.72" stroke-linecap="round" stroke-linejoin="bevel" stroke-miterlimit="10" points="
		4.558,58.861 4.138,61.321 3.779,63.841 3.599,66.301 3.599,68.821 3.719,71.281 4.019,73.801 4.859,77.461 5.938,81.121
		7.138,84.661 8.519,88.201 10.079,91.681 11.818,95.041 	"/>

		<polyline fill="none" stroke="#000000" stroke-width="0.72" stroke-linecap="round" stroke-linejoin="bevel" stroke-miterlimit="10" points="
		11.878,95.041 13.198,97.441 14.638,99.841 16.198,102.061 17.939,104.221 	"/>

		<path fill="none" stroke="#000000" stroke-width="0.72" stroke-linecap="round" stroke-linejoin="round" stroke-miterlimit="10" d="
		M17.878,104.221l0.18,0.24l0.48,0.48c0.804,0.786,1.648,1.635,2.7,2.1l0.12,0.12l0.12,0.06l0.18,0.06l0.12,0.06l0.18,0.06
		l0.12,0.12l0.12,0.06l0.18,0.06l0.12,0.06l0.18,0.06l0.12,0.06l0.12,0.06l0.6,0.24c1.397,0.568,2.735,1.1,4.14,1.62l0.3,0.12
		l0.3,0.06l0.3,0.12l0.3,0.12c8.02,2.564,16.366,4.077,24.66,5.64l1.2,0.24l1.26,0.24"/>

		<polyline fill="none" stroke="#000000" stroke-width="0.72" stroke-linecap="round" stroke-linejoin="round" stroke-miterlimit="10" points="
		173.399,131.281 180.959,131.701 188.459,131.761 195.959,131.641 203.459,131.221 210.959,130.501 	"/>

		<polyline fill="none" stroke="#000000" stroke-width="0.72" stroke-linecap="round" stroke-linejoin="round" stroke-miterlimit="10" points="
		146.579,129.421 155.519,130.201 164.459,130.861 173.399,131.281 	"/>

		<line fill="none" stroke="#000000" stroke-width="0.72" stroke-linecap="round" stroke-linejoin="round" stroke-miterlimit="10" x1="146.579" y1="129.421" x2="135.599" y2="128.281"/>

		<polyline fill="none" stroke="#000000" stroke-width="0.24" stroke-linecap="round" stroke-linejoin="round" stroke-miterlimit="10" points="
		172.498,91.441 149.519,77.341 126.418,63.421 	"/>

		<polyline fill="none" stroke="#000000" stroke-width="0.24" stroke-linecap="round" stroke-linejoin="bevel" stroke-miterlimit="10" points="
		126.418,63.421 121.198,60.301 115.918,57.361 110.578,54.541 105.118,51.841 99.658,49.321 94.078,46.861 	"/>

		<polyline fill="none" stroke="#000000" stroke-width="0.24" stroke-linecap="round" stroke-linejoin="bevel" stroke-miterlimit="10" points="
		94.078,46.921 90.238,45.241 86.278,43.681 82.258,42.301 78.238,41.041 74.158,39.961 70.018,39.001 	"/>

		<path fill="none" stroke="#000000" stroke-width="0.24" stroke-linecap="round" stroke-linejoin="round" stroke-miterlimit="10" d="
		M70.018,38.941l-1.08-0.24l-0.54-0.12l-0.6-0.06c-6.329-1.554-12.695-1.354-19.2-1.38h-0.54l-0.6,0.06
		c-4.238,0.07-8.48,0.551-12.54,1.8l-0.3,0.06l-0.24,0.12l-0.3,0.06c-10.421,3.406-21.575,10.174-28.5,18.84l-0.42,0.42l-0.72,0.9"
		/>

		<path fill="none" stroke="#000000" stroke-width="0.24" stroke-linecap="round" stroke-linejoin="round" stroke-miterlimit="10" d="
		M172.498,91.441l1.38,0.84l1.32,0.9l0.72,0.42c7.115,4.452,15.093,8.622,23.22,10.86l0.36,0.12l0.42,0.12
		c7.596,1.949,13.713,1.774,21.54,1.32h0.84l0.78-0.06h0.84l0.78-0.06c8.264-0.219,17.853-3.892,25.56-6.66l1.5-0.6l1.5-0.54
		l1.5-0.6c2.979-1.184,5.955-2.341,8.76-3.9l0.36-0.24l0.36-0.18l0.3-0.18c0.541-0.327,1.057-0.662,1.56-1.02l0.12-0.12l0.12-0.06
		l0.18-0.12l0.24-0.24l0.12-0.06l0.12-0.12l0.12-0.06l0.06-0.12l0.24-0.24v-0.06h0.06l0.12-0.12v-0.06l0.3-0.3v-0.12l0.12-0.12
		l0.06-0.12c0.311-0.279,0.502-0.671,0.72-1.02l0.12-0.12l0.06-0.12"/>

		<path fill="none" stroke="#000000" stroke-width="0.72" stroke-linecap="round" stroke-linejoin="round" stroke-miterlimit="10" d="
		M218.638,129.961l-0.54,0.06c-2.745,0.254-5.402,0.459-8.16,0.54h-0.6"/>

		<path fill="none" stroke="#000000" stroke-width="0.24" stroke-linecap="round" stroke-linejoin="bevel" stroke-miterlimit="10" d="
		M184.738,35.401l-5.22-3.18c-15.827-9.535-32.605-16.693-50.34-21.84l-5.88-1.62"/>

		<path fill="none" stroke="#000000" stroke-width="0.24" stroke-linecap="round" stroke-linejoin="bevel" stroke-miterlimit="10" d="
		M219.478,62.161l-0.42-1.98c-3.388-13.734-16.479-22.372-30.42-20.34l-1.98,0.42"/>

		<path fill="none" stroke="#000000" stroke-width="0.24" stroke-linecap="round" stroke-linejoin="bevel" stroke-miterlimit="10" d="
		M228.778,68.341l0.06-2.22c-0.44-21.487-21.928-35.767-41.94-27.96l-1.98,0.9"/>

		<line fill="none" stroke="#000000" stroke-width="0.24" stroke-linecap="round" stroke-linejoin="round" stroke-miterlimit="10" x1="182.998" y1="37.741" x2="235.019" y2="72.481"/>

		<line fill="none" stroke="#000000" stroke-width="0.24" stroke-linecap="round" stroke-linejoin="round" stroke-miterlimit="10" x1="240.058" y1="65.041" x2="226.019" y2="53.581"/>

		<polyline fill="none" stroke="#000000" stroke-width="0.24" stroke-linecap="round" stroke-linejoin="round" stroke-miterlimit="10" points="
		257.158,85.501 248.639,78.361 239.999,71.521 	"/>

		<path fill="none" stroke="#000000" stroke-width="0.24" stroke-linecap="round" stroke-linejoin="bevel" stroke-miterlimit="10" d="
		M258.358,96.061l0.36-1.5c0.443-2.551,0.166-5.251-0.9-7.62l-0.72-1.44"/>

		<path fill="none" stroke="#000000" stroke-width="0.24" stroke-linecap="round" stroke-linejoin="round" stroke-miterlimit="10" d="
		M182.998,37.741l-0.06-0.12v-0.54l-0.06-0.06v-0.12h0.06v-0.36l0.06-0.06v-0.12h0.06v-0.12h0.06v-0.06h0.06v-0.06h0.06v-0.06h0.06
		v-0.06h0.06v-0.06h0.06l0.06-0.06h0.06l0.06-0.06h0.06v-0.06h0.06l0.06-0.06h0.06l0.06-0.06h0.12l0.06-0.06h0.12l0.06-0.06h0.06
		l0.06-0.06h0.18l0.06-0.06h0.18l0.06-0.06h0.12l0.12-0.06h0.18l0.06-0.06h0.24l0.06-0.06h0.24l0.06-0.06h0.36l0.06-0.06h0.48
		l0.06-0.06h0.18c0.67,0.028,1.019-0.107,1.74-0.06h1.26l0.12,0.06h0.54c0.348,0.029,1.1-0.064,1.38,0.06h0.84l0.12,0.06h0.6
		c0.325,0.04,0.2,0.082,0.66,0.06h0.12l0.18,0.06h0.42l0.12,0.06h0.42l0.12,0.06h0.3l0.12,0.06h0.24l0.18,0.06h0.24l0.18,0.06h0.12
		l0.12,0.06h0.12l0.18,0.06h0.24l0.12,0.06h0.18l0.12,0.06l0.12,0.06h0.12l0.18,0.06h0.12l0.06,0.06h0.12l0.06,0.06"/>

		<path fill="none" stroke="#000000" stroke-width="0.24" stroke-linecap="round" stroke-linejoin="round" stroke-miterlimit="10" d="
		M235.018,72.481h0.18l0.06,0.06h0.18v0.06h0.18l0.06,0.06h0.18l0.06,0.06h0.36l0.06,0.06h0.42c0.12,0,0.24,0,0.36,0h0.36l0.06-0.06
		h0.3v-0.06h0.18l0.06-0.06h0.18v-0.06h0.18v-0.06h0.06c0.153-0.021,0.267-0.159,0.42-0.18h0.06v-0.06h0.06l0.06-0.06h0.06
		l0.06-0.06l0.06-0.06h0.06l0.06-0.06h0.06v-0.06h0.06l0.12-0.12h0.06v-0.06h0.06c0.14-0.14,0.28-0.28,0.42-0.42v-0.06h0.06
		l0.12-0.12v-0.06h0.06v-0.06l0.06-0.06l0.06-0.06v-0.06h0.06v-0.12h0.06v-0.06l0.06-0.06l0.06-0.06v-0.06l0.06-0.06v-0.06h0.06
		v-0.12l0.06-0.06v-0.06l0.06-0.06v-0.06l0.06-0.06v-0.12l0.06-0.06v-0.12h0.06v-0.24h0.06v-0.18l0.06-0.06v-0.3l0.06-0.06
		c0-0.12,0-0.24,0-0.36v-0.24c0-0.1,0-0.2,0-0.3v-0.3l-0.06-0.06v-0.3h-0.06v-0.18l-0.06-0.06v-0.18l-0.06-0.06v-0.12h-0.06v-0.18
		h-0.06v-0.12l-0.06-0.06v-0.06l-0.06-0.06v-0.06h-0.06v-0.12h-0.06v-0.06v-0.06h-0.06v-0.06l-0.06-0.06v-0.06h-0.06v-0.06
		l-0.06-0.06v-0.06h-0.06v-0.06l-0.12-0.12v-0.06h-0.06l-0.12-0.12v-0.06h-0.06v-0.06h-0.06"/>

		<path fill="none" stroke="#000000" stroke-width="0.42" stroke-linecap="round" stroke-linejoin="bevel" stroke-miterlimit="10" d="
		M40.438,64.861l-1.26,0.06l-1.2,0.24c-15.576,4.475-14.963,34.303,1.2,37.2l1.26,0.06l1.26-0.06
		c16.163-2.897,16.776-32.725,1.2-37.2l-1.2-0.24L40.438,64.861z"/>
</g>
</svg>
