<?xml version="1.0" encoding="UTF-8" standalone="no"?>
<!DOCTYPE svg PUBLIC "-//W3C//DTD SVG 1.1//EN" "http://www.w3.org/Graphics/SVG/1.1/DTD/svg11.dtd">
<!-- Generated by Microsoft Visio, SVG Export nrf_desktop_arch_dongle.svg Page-1 -->
<svg xmlns="http://www.w3.org/2000/svg" xmlns:xlink="http://www.w3.org/1999/xlink" xmlns:ev="http://www.w3.org/2001/xml-events"
		width="7.31321in" height="6.4057in" viewBox="0 0 526.551 461.21" xml:space="preserve" color-interpolation-filters="sRGB"
		class="st17">
	<style type="text/css">
	<![CDATA[
		.st1 {fill:#d9e1e2;stroke:none;stroke-width:1}
		.st2 {fill:#0077c8;stroke:none;stroke-width:1}
		.st3 {fill:#ffffff;font-family:Calibri;font-size:0.666664em}
		.st4 {font-size:1em}
		.st5 {fill:#768692;stroke:none;stroke-width:1}
		.st6 {marker-end:url(#mrkr13-31);marker-start:url(#mrkr13-29);stroke:#333f48;stroke-linecap:butt;stroke-width:1}
		.st7 {fill:#333f48;fill-opacity:1;stroke:#333f48;stroke-opacity:1;stroke-width:0.40983606557377}
		.st8 {fill:#00a9ce;stroke:none;stroke-width:1}
		.st9 {fill:#ffffff;font-family:Calibri;font-size:0.833336em}
		.st10 {fill:none;stroke:#768692;stroke-width:1}
		.st11 {fill:none;stroke:none;stroke-width:1}
		.st12 {fill:#333f48;font-family:Calibri;font-size:0.833336em}
		.st13 {fill:#768692;font-family:Calibri;font-size:1.00001em}
		.st14 {fill:none;stroke:#768692;stroke-dasharray:7,5;stroke-width:1}
		.st15 {fill:#ffffff;font-family:Calibri;font-size:1.00001em}
		.st16 {font-size:0.83333em}
		.st17 {fill:none;fill-rule:evenodd;font-size:12px;overflow:visible;stroke-linecap:square;stroke-miterlimit:3}
	]]>
	</style>

	<defs id="Markers">
		<g id="lend13">
			<path d="M 3 1 L 0 0 L 3 -1 L 3 1 " style="stroke:none"/>
		</g>
		<marker id="mrkr13-29" class="st7" refX="6.96" orient="auto" markerUnits="strokeWidth" overflow="visible">
			<use xlink:href="#lend13" transform="scale(2.44) "/>
		</marker>
		<marker id="mrkr13-31" class="st7" refX="-7.32" orient="auto" markerUnits="strokeWidth" overflow="visible">
			<use xlink:href="#lend13" transform="scale(-2.44,-2.44) "/>
		</marker>
	</defs>
	<g>
		<title>Page-1</title>
		<g id="shape1432-1" transform="translate(155.485,-385.092)">
			<title>Nordic Light Grey</title>
			<rect x="0" y="386.092" width="266.596" height="75.1181" class="st1"/>
		</g>
		<g id="shape1442-3" transform="translate(316.797,-239.835)">
			<title>Nordic Lake.1442</title>
			<desc>State</desc>
			<rect x="0" y="432.864" width="38.8587" height="28.3465" class="st2"/>
			<text x="11.01" y="449.44" class="st3">State</text>		</g>
		<g id="shape1444-6" transform="translate(317.033,-270.712)">
			<title>Nordic Lake.1444</title>
			<desc>Bond</desc>
			<rect x="0" y="432.864" width="38.8587" height="28.3465" class="st2"/>
			<text x="10.94" y="449.44" class="st3">Bond</text>		</g>
		<g id="shape1447-9" transform="translate(359.199,-270.712)">
			<title>Nordic Lake.1447</title>
			<desc>Scan</desc>
			<rect x="0" y="432.864" width="38.8587" height="28.3465" class="st2"/>
			<text x="11.88" y="449.44" class="st3">Scan</text>		</g>
		<g id="shape1450-12" transform="translate(260.104,-239.835)">
			<title>Nordic Lake.1450</title>
			<desc>Connection parameters</desc>
			<rect x="0" y="432.864" width="53.6209" height="28.3465" class="st2"/>
			<text x="8.22" y="444.64" class="st3">Connection <tspan x="8.01" dy="1.2em" class="st4">parameters</tspan></text>		</g>
		<g id="shape1458-16" transform="translate(102.915,-385.092)">
			<title>Nordic Blue.1458</title>
			<desc>PWM driver</desc>
			<rect x="0" y="432.864" width="32.8502" height="28.3465" class="st5"/>
			<text x="7.38" y="444.64" class="st3">PWM <tspan x="6.82" dy="1.2em" class="st4">driver</tspan></text>		</g>
		<g id="shape1470-20" transform="translate(102.915,-270.712)">
			<title>Nordic Lake.1470</title>
			<desc>LEDs</desc>
			<rect x="0" y="432.864" width="32.8502" height="28.3465" class="st2"/>
			<text x="8.77" y="449.44" class="st3">LEDs</text>		</g>
		<g id="shape2139-23" transform="translate(321.994,-385.092)">
			<title>Dynamic connector.2139</title>
			<path d="M7.09 468.17 L7.09 468.53 L7.09 530.71" class="st6"/>
		</g>
		<g id="shape2143-32" transform="translate(225.564,-169.195)">
			<title>Nordic Blue.2143</title>
			<desc>Application Event Manager</desc>
			<rect x="0" y="432.864" width="80.7218" height="28.3465" class="st8"/>
			<text x="17.32" y="444.04" class="st9">Application <tspan x="9.46" dy="1.2em" class="st4">Event Manager</tspan></text>		</g>
		<g id="shape2151-36" transform="translate(329.081,-233.153)">
			<title>Dynamic connector.2151</title>
			<path d="M0 468.17 L0 468.53 L0 473.84 L-63.16 473.84 L-63.16 489.5" class="st6"/>
		</g>
		<g id="shape2164-43" transform="translate(41.2289,-106.776)">
			<title>Nordic Lake.2164</title>
			<desc>Power management</desc>
			<rect x="0" y="432.864" width="53.6209" height="28.3465" class="st2"/>
			<text x="16.39" y="444.64" class="st3">Power <tspan x="5.18" dy="1.2em" class="st4">management</tspan></text>		</g>
		<g id="shape2165-47" transform="translate(106.393,-106.776)">
			<title>Nordic Lake.2165</title>
			<desc>Settings loader</desc>
			<rect x="0" y="432.864" width="34.7653" height="28.3465" class="st2"/>
			<text x="4.41" y="444.64" class="st3">Settings <tspan x="6.95" dy="1.2em" class="st4">loader</tspan></text>		</g>
		<g id="shape2166-51" transform="translate(146.905,-106.776)">
			<title>Nordic Lake.2166</title>
			<desc>Failsafe</desc>
			<rect x="0" y="432.864" width="33.6339" height="28.3465" class="st2"/>
			<text x="4.54" y="449.44" class="st3">Failsafe</text>		</g>
		<g id="shape2168-54" transform="translate(237.174,-106.804)">
			<title>Nordic Lake.2168</title>
			<desc>Watchdog</desc>
			<rect x="0" y="432.864" width="44.6363" height="28.3465" class="st2"/>
			<text x="5.62" y="449.44" class="st3">Watchdog</text>		</g>
		<g id="shape2169-57" transform="translate(303.882,-106.804)">
			<title>Nordic Lake.2169</title>
			<desc>Buttons</desc>
			<rect x="0" y="432.864" width="33.6339" height="28.3465" class="st2"/>
			<text x="4.08" y="449.44" class="st3">Buttons</text>		</g>
		<g id="shape2171-60" transform="translate(351.504,-106.804)">
			<title>Nordic Lake.2171</title>
			<desc>Board</desc>
			<rect x="0" y="432.864" width="33.6339" height="28.3465" class="st2"/>
			<text x="7.12" y="449.44" class="st3">Board</text>		</g>
		<g id="shape2173-63" transform="translate(402.652,-106.804)">
			<title>Nordic Lake.2173</title>
			<desc>Click detector</desc>
			<rect x="0" y="432.864" width="38.8587" height="28.3465" class="st2"/>
			<text x="11.95" y="444.64" class="st3">Click <tspan x="5.47" dy="1.2em" class="st4">detector</tspan></text>		</g>
		<g id="shape2178-67" transform="translate(68.0394,-135.123)">
			<title>Dynamic connector.2178</title>
			<path d="M0 454.25 L0 453.89 L0 448.01 L197.89 448.01 L197.89 434.46" class="st6"/>
		</g>
		<g id="shape2179-74" transform="translate(123.776,-135.123)">
			<title>Dynamic connector.2179</title>
			<path d="M0 454.25 L0 453.89 L0 448.01 L142.15 448.01 L142.15 434.46" class="st6"/>
		</g>
		<g id="shape2180-81" transform="translate(163.722,-135.123)">
			<title>Dynamic connector.2180</title>
			<path d="M0 454.25 L0 453.89 L0 448.01 L102.2 448.01 L102.2 434.46" class="st6"/>
		</g>
		<g id="shape2182-88" transform="translate(255.622,-135.151)">
			<title>Dynamic connector.2182</title>
			<path d="M3.87 454.25 L3.87 453.89 L3.87 448.03 L10.3 448.03 L10.3 434.49" class="st6"/>
		</g>
		<g id="shape2183-95" transform="translate(320.699,-135.151)">
			<title>Dynamic connector.2183</title>
			<path d="M0 454.25 L0 453.89 L0 448.03 L-54.77 448.03 L-54.77 434.49" class="st6"/>
		</g>
		<g id="shape2185-102" transform="translate(265.925,-169.195)">
			<title>Dynamic connector.2185</title>
			<path d="M0 468.17 L0 468.53 L0 482.08 L102.4 482.08 L102.4 487.93" class="st6"/>
		</g>
		<g id="shape2187-109" transform="translate(265.925,-169.195)">
			<title>Dynamic connector.2187</title>
			<path d="M0 468.17 L0 468.53 L0 482.08 L156.16 482.08 L156.16 487.93" class="st6"/>
		</g>
		<g id="shape2193-116" transform="translate(41.2289,-55.1451)">
			<title>Nordic Blue.2193</title>
			<desc>OS power management</desc>
			<rect x="0" y="432.864" width="53.6209" height="28.3465" class="st5"/>
			<text x="10.96" y="444.64" class="st3">OS power <tspan x="5.18" dy="1.2em" class="st4">management</tspan></text>		</g>
		<g id="shape2194-120" transform="translate(109.928,-55.1451)">
			<title>Nordic Blue.2194</title>
			<desc>Settings subsystem</desc>
			<rect x="0" y="432.864" width="44.6363" height="28.3465" class="st5"/>
			<text x="9.34" y="444.64" class="st3">Settings <tspan x="5.09" dy="1.2em" class="st4">subsystem</tspan></text>		</g>
		<g id="shape2196-124" transform="translate(109.928,-1)">
			<title>Nordic Blue.2196</title>
			<desc>FLASH driver</desc>
			<rect x="0" y="432.864" width="70.6113" height="28.3465" class="st5"/>
			<text x="14.63" y="449.44" class="st3">FLASH driver</text>		</g>
		<g id="shape2199-127" transform="translate(60.9528,-83.4915)">
			<title>Dynamic connector.2199</title>
			<path d="M7.09 454.25 L7.09 453.89 L7.09 445.25" class="st6"/>
		</g>
		<g id="shape2200-134" transform="translate(116.689,-82.9599)">
			<title>Dynamic connector.2200</title>
			<path d="M7.09 454.25 L7.09 453.89 L7.09 444.71" class="st6"/>
		</g>
		<g id="shape2201-141" transform="translate(125.16,-29.3465)">
			<title>Dynamic connector.2201</title>
			<path d="M7.09 454.25 L7.09 453.89 L7.09 442.73" class="st6"/>
		</g>
		<g id="shape2202-148" transform="translate(156.636,-29.1016)">
			<title>Dynamic connector.2202</title>
			<path d="M7.09 454.25 L7.09 453.89 L7.09 390.86" class="st6"/>
		</g>
		<g id="shape2203-155" transform="translate(294.811,-55.1732)">
			<title>Nordic Blue.2203</title>
			<desc>GPIO driver</desc>
			<rect x="0" y="432.864" width="95.0196" height="28.3465" class="st5"/>
			<text x="28.75" y="449.44" class="st3">GPIO driver</text>		</g>
		<g id="shape2205-158" transform="translate(237.174,-55.1732)">
			<title>Nordic Blue.2205</title>
			<desc>Watchdog driver</desc>
			<rect x="0" y="432.864" width="44.6363" height="28.3465" class="st5"/>
			<text x="5.62" y="444.64" class="st3">Watchdog <tspan x="12.71" dy="1.2em" class="st4">driver</tspan></text>		</g>
		<g id="shape2323-162" transform="translate(252.406,-83.5197)">
			<title>Dynamic connector.2323</title>
			<path d="M7.09 454.25 L7.09 453.89 L7.09 445.25" class="st6"/>
		</g>
		<g id="shape2324-169" transform="translate(313.612,-83.5197)">
			<title>Dynamic connector.2324</title>
			<path d="M7.09 454.25 L7.09 453.89 L7.09 445.25" class="st6"/>
		</g>
		<g id="shape2326-176" transform="translate(361.234,-83.5197)">
			<title>Dynamic connector.2326</title>
			<path d="M7.09 454.25 L7.09 453.89 L7.09 445.25" class="st6"/>
		</g>
		<g id="shape2333-183" transform="translate(259.153,-329.27)">
			<title>Nordic Blue.2333</title>
			<desc>Discovery manager</desc>
			<rect x="0" y="432.864" width="53.6209" height="28.3465" class="st8"/>
			<text x="11.06" y="444.64" class="st3">Discovery <tspan x="12.41" dy="1.2em" class="st4">manager</tspan></text>		</g>
		<g id="shape2334-187" transform="translate(260.104,-270.712)">
			<title>Nordic Lake.2334</title>
			<desc>Discovery</desc>
			<rect x="0" y="432.864" width="53.6209" height="28.3465" class="st2"/>
			<text x="11.06" y="449.44" class="st3">Discovery</text>		</g>
		<g id="shape2335-190" transform="translate(278.877,-329.27)">
			<title>Dynamic connector.2335</title>
			<path d="M7.09 468.17 L7.09 468.53 L7.09 484.1" class="st6"/>
		</g>
		<g id="shape2336-197" transform="translate(278.877,-385.092)">
			<title>Dynamic connector.2336</title>
			<path d="M7.09 468.17 L7.09 468.53 L7.09 481.37" class="st6"/>
		</g>
		<g id="shape2338-204" transform="translate(112.254,-385.092)">
			<title>Dynamic connector.2338</title>
			<path d="M7.09 468.17 L7.09 468.53 L7.09 539.92" class="st6"/>
		</g>
		<g id="shape2343-211" transform="translate(119.341,-270.712)">
			<title>Dynamic connector.2343</title>
			<path d="M0 468.17 L0 468.53 L0 511.44 L146.58 511.44 L146.58 527.06" class="st6"/>
		</g>
		<g id="shape2346-218" transform="translate(500.656,-106.804)">
			<title>Nordic Lake.2346</title>
			<desc>Info</desc>
			<rect x="0" y="432.864" width="24.8947" height="28.3465" class="st2"/>
			<text x="6.01" y="449.44" class="st3">Info</text>		</g>
		<g id="shape2347-221" transform="translate(445.02,-106.804)">
			<title>Nordic Lake.2347</title>
			<desc>LED state</desc>
			<rect x="0" y="432.864" width="38.8587" height="28.3465" class="st2"/>
			<text x="4.28" y="449.44" class="st3">LED state</text>		</g>
		<g id="shape2348-224" transform="translate(191.65,-106.804)">
			<title>Nordic Lake.2348</title>
			<desc>DFU</desc>
			<rect x="0" y="432.864" width="38.8587" height="28.3465" class="st2"/>
			<text x="12.56" y="449.44" class="st3">DFU</text>		</g>
		<g id="shape2349-227" transform="translate(191.65,-55.1732)">
			<title>Nordic Blue.2349</title>
			<desc>Image manager</desc>
			<rect x="0" y="432.864" width="38.8587" height="28.3465" class="st5"/>
			<text x="9.44" y="444.64" class="st3">Image <tspan x="5.03" dy="1.2em" class="st4">manager</tspan></text>		</g>
		<g id="shape2350-231" transform="translate(211.079,-135.151)">
			<title>Dynamic connector.2350</title>
			<path d="M0 454.25 L0 453.89 L0 448.03 L54.85 448.03 L54.85 434.49" class="st6"/>
		</g>
		<g id="shape2351-238" transform="translate(203.993,-83.5197)">
			<title>Dynamic connector.2351</title>
			<path d="M7.09 454.25 L7.09 453.89 L7.09 445.25" class="st6"/>
		</g>
		<g id="shape2352-245" transform="translate(265.925,-169.195)">
			<title>Dynamic connector.2352</title>
			<path d="M0 468.17 L0 468.53 L0 482.08 L198.52 482.08 L198.52 487.93" class="st6"/>
		</g>
		<g id="shape2353-252" transform="translate(265.925,-169.195)">
			<title>Dynamic connector.2353</title>
			<path d="M0 468.17 L0 468.53 L0 482.08 L247.18 482.08 L247.18 487.93" class="st6"/>
		</g>
		<g id="shape2354-259" transform="translate(175.894,-329.27)">
			<title>Nordic Blue.2354</title>
			<desc>HID service client</desc>
			<rect x="0" y="432.864" width="58.6974" height="28.3465" class="st8"/>
			<text x="11.13" y="444.64" class="st3">HID service <tspan x="20.39" dy="1.2em" class="st4">client</tspan></text>		</g>
		<g id="shape2355-263" transform="translate(185.814,-270.712)">
			<title>Nordic Lake.2355</title>
			<desc>HID forward</desc>
			<rect x="0" y="432.864" width="38.8587" height="28.3465" class="st2"/>
			<text x="13.47" y="444.64" class="st3">HID <tspan x="6.43" dy="1.2em" class="st4">forward</tspan></text>		</g>
		<g id="shape2356-267" transform="translate(359.199,-239.835)">
			<title>Nordic Lake.2356</title>
			<desc>QoS</desc>
			<rect x="0" y="432.864" width="38.8587" height="28.3465" class="st2"/>
			<text x="12.79" y="449.44" class="st3">QoS</text>		</g>
		<g id="shape2358-270" transform="translate(198.156,-385.092)">
			<title>Dynamic connector.2358</title>
			<path d="M7.09 468.17 L7.09 468.53 L7.09 481.37" class="st6"/>
		</g>
		<g id="shape2359-277" transform="translate(198.156,-329.27)">
			<title>Dynamic connector.2359</title>
			<path d="M7.09 468.17 L7.09 468.53 L7.09 484.1" class="st6"/>
		</g>
		<g id="shape2361-284" transform="translate(1.67464,-106.804)">
			<title>Nordic Lake.2163</title>
			<desc>USB state</desc>
			<rect x="0" y="432.864" width="33.6339" height="28.3465" class="st2"/>
			<text x="10.24" y="444.64" class="st3">USB <tspan x="8.67" dy="1.2em" class="st4">state</tspan></text>		</g>
		<g id="shape2362-288" transform="translate(1,-55.1732)">
			<title>Nordic Blue.2192</title>
			<desc>USB stack</desc>
			<rect x="0" y="432.864" width="34.3085" height="28.3465" class="st5"/>
			<text x="10.57" y="444.64" class="st3">USB <tspan x="8.82" dy="1.2em" class="st4">stack</tspan></text>		</g>
		<g id="shape2363-292" transform="translate(1.67464,-1.02812)">
			<title>Nordic Blue.2195</title>
			<desc>USB driver</desc>
			<rect x="0" y="432.864" width="34.3085" height="28.3465" class="st5"/>
			<text x="10.57" y="444.64" class="st3">USB <tspan x="7.55" dy="1.2em" class="st4">driver</tspan></text>		</g>
		<g id="shape2364-296" transform="translate(11.0676,-83.5197)">
			<title>Dynamic connector.2197</title>
			<path d="M7.09 454.25 L7.09 453.89 L7.09 445.31" class="st6"/>
		</g>
		<g id="shape2365-303" transform="translate(11.7423,-29.3746)">
			<title>Dynamic connector.2198</title>
			<path d="M7.09 454.25 L7.09 453.89 L7.09 442.73" class="st6"/>
		</g>
		<g id="shape2366-310" transform="translate(18.4916,-135.151)">
			<title>Dynamic connector.2366</title>
			<path d="M0 454.25 L0 453.89 L0 448.03 L247.43 448.03 L247.43 434.49" class="st6"/>
		</g>
		<g id="group2367-317" transform="translate(1,-393.313)">
			<title>Sheet.2367</title>
			<g id="shape2368-318">
				<title>Nordic Light Grey.2333</title>
				<rect x="0" y="394.313" width="80.4521" height="66.8976" class="st10"/>
			</g>
			<g id="shape2369-320" transform="translate(4.89191,-44.3524)">
				<title>Nordic Blue.1617</title>
				<rect x="0" y="445.505" width="15.4576" height="15.7058" class="st2"/>
			</g>
			<g id="shape2370-322" transform="translate(20.3495,-44.3524)">
				<title>Sheet.2370</title>
				<desc>Application</desc>
				<rect x="0" y="445.505" width="54.3499" height="15.7058" class="st11"/>
				<text x="4" y="456.96" class="st12">Application</text>			</g>
			<g id="shape2371-325" transform="translate(4.89191,-25.5959)">
				<title>Nordic Blue.1618</title>
				<rect x="0" y="445.505" width="15.4576" height="15.7058" class="st8"/>
			</g>
			<g id="shape2372-327" transform="translate(20.3495,-25.5959)">
				<title>Sheet.2372</title>
				<desc>NCS</desc>
				<rect x="0" y="445.505" width="54.3499" height="15.7058" class="st11"/>
				<text x="4" y="456.96" class="st12">NCS</text>			</g>
			<g id="shape2373-330" transform="translate(4.89191,-6.83943)">
				<title>Nordic Blue.2341</title>
				<rect x="0" y="445.505" width="15.4576" height="15.7058" class="st5"/>
			</g>
			<g id="shape2374-332" transform="translate(20.3495,-6.83943)">
				<title>Sheet.2374</title>
				<desc>Zephyr</desc>
				<rect x="0" y="445.505" width="54.3499" height="15.7058" class="st11"/>
				<text x="4" y="456.96" class="st12">Zephyr</text>			</g>
		</g>
		<g id="shape2375-335" transform="translate(329.613,-312.929)">
			<title>Sheet.2375</title>
			<desc>Bluetooth速 LE</desc>
			<rect x="0" y="445.173" width="78.5842" height="16.0377" class="st11"/>
			<text x="5.16" y="456.79" class="st13">Bluetooth速 LE</text>		</g>
		<g id="shape2376-338" transform="translate(249.965,-233.153)">
			<title>Nordic Blue.2345</title>
			<path d="M0 461.21 L158.23 461.21 L158.23 386.09 L0 386.09 L0 461.21 Z" class="st14"/>
		</g>
		<g id="shape2377-340" transform="translate(205.243,-270.712)">
			<title>Dynamic connector.2377</title>
			<path d="M0 468.17 L0 468.53 L0 511.44 L60.68 511.44 L60.68 527.06" class="st6"/>
		</g>
		<g id="shape1433-347" transform="translate(163.722,-414.476)">
			<title>Nordic Blue.1433</title>
			<desc>Nordic proprietary Bluetooth速 LE Link layer</desc>
			<rect x="0" y="423.651" width="131.089" height="37.5591" class="st8"/>
			<text x="20.29" y="438.83" class="st15">Nordic proprietary <tspan x="7.39" dy="1.2em" class="st4">Bluetooth</tspan><tspan
						class="st16">速</tspan> LE Link layer</text>		</g>
		<g id="shape1435-352" transform="translate(164.175,-393.267)">
			<title>Nordic Sky</title>
			<desc>Host layer</desc>
			<rect x="0" y="445.229" width="247.209" height="15.9815" class="st5"/>
			<text x="98.95" y="456.82" class="st15">Host layer</text>		</g>
	</g>
</svg>
