<?xml version="1.0" encoding="utf-8"?>
<!-- Generator: Adobe Illustrator 24.1.2, SVG Export Plug-In . SVG Version: 6.00 Build 0)  -->
<svg version="1.0" id="Layer_1" xmlns="http://www.w3.org/2000/svg" xmlns:xlink="http://www.w3.org/1999/xlink" x="0px" y="0px"
	 width="396px" height="91px" viewBox="0 0 396 91" enable-background="new 0 0 396 91" xml:space="preserve">
<g>

		<line fill="none" stroke="#000000" stroke-width="0.72" stroke-linecap="round" stroke-linejoin="round" stroke-miterlimit="10" x1="2.486" y1="88.67" x2="32.366" y2="88.67"/>

		<line fill="none" stroke="#000000" stroke-width="0.72" stroke-linecap="round" stroke-linejoin="round" stroke-miterlimit="10" x1="37.466" y1="88.67" x2="46.766" y2="88.67"/>

		<line fill="none" stroke="#000000" stroke-width="0.72" stroke-linecap="round" stroke-linejoin="round" stroke-miterlimit="10" x1="51.866" y1="88.67" x2="61.166" y2="88.67"/>

		<line fill="none" stroke="#000000" stroke-width="0.72" stroke-linecap="round" stroke-linejoin="round" stroke-miterlimit="10" x1="66.266" y1="88.67" x2="75.566" y2="88.67"/>

		<line fill="none" stroke="#000000" stroke-width="0.72" stroke-linecap="round" stroke-linejoin="round" stroke-miterlimit="10" x1="263.546" y1="11.45" x2="195.866" y2="11.45"/>

		<line fill="none" stroke="#000000" stroke-width="0.72" stroke-linecap="round" stroke-linejoin="round" stroke-miterlimit="10" x1="181.886" y1="79.55" x2="190.766" y2="79.55"/>

		<line fill="none" stroke="#000000" stroke-width="0.72" stroke-linecap="round" stroke-linejoin="round" stroke-miterlimit="10" x1="80.666" y1="88.67" x2="89.966" y2="88.67"/>

		<line fill="none" stroke="#000000" stroke-width="0.72" stroke-linecap="round" stroke-linejoin="round" stroke-miterlimit="10" x1="95.066" y1="88.67" x2="104.366" y2="88.67"/>

		<line fill="none" stroke="#000000" stroke-width="0.72" stroke-linecap="round" stroke-linejoin="round" stroke-miterlimit="10" x1="109.466" y1="88.67" x2="118.766" y2="88.67"/>

		<line fill="none" stroke="#000000" stroke-width="0.72" stroke-linecap="round" stroke-linejoin="round" stroke-miterlimit="10" x1="123.866" y1="88.67" x2="133.166" y2="88.67"/>

		<line fill="none" stroke="#000000" stroke-width="0.72" stroke-linecap="round" stroke-linejoin="round" stroke-miterlimit="10" x1="138.266" y1="88.67" x2="147.566" y2="88.67"/>

		<line fill="none" stroke="#000000" stroke-width="0.72" stroke-linecap="round" stroke-linejoin="round" stroke-miterlimit="10" x1="152.666" y1="88.67" x2="161.966" y2="88.67"/>

		<line fill="none" stroke="#000000" stroke-width="0.72" stroke-linecap="round" stroke-linejoin="round" stroke-miterlimit="10" x1="167.066" y1="88.67" x2="172.766" y2="88.67"/>

		<line fill="none" stroke="#000000" stroke-width="0.72" stroke-linecap="round" stroke-linejoin="round" stroke-miterlimit="10" x1="172.766" y1="2.33" x2="167.066" y2="2.33"/>

		<line fill="none" stroke="#000000" stroke-width="0.72" stroke-linecap="round" stroke-linejoin="round" stroke-miterlimit="10" x1="161.966" y1="2.33" x2="152.666" y2="2.33"/>

		<line fill="none" stroke="#000000" stroke-width="0.72" stroke-linecap="round" stroke-linejoin="round" stroke-miterlimit="10" x1="195.866" y1="79.55" x2="263.546" y2="79.55"/>

		<line fill="none" stroke="#000000" stroke-width="0.24" stroke-linecap="round" stroke-linejoin="round" stroke-miterlimit="10" x1="159.386" y1="2.33" x2="159.386" y2="10.01"/>

		<line fill="none" stroke="#000000" stroke-width="0.72" stroke-linecap="round" stroke-linejoin="round" stroke-miterlimit="10" x1="32.366" y1="2.33" x2="2.486" y2="2.33"/>

		<line fill="none" stroke="#000000" stroke-width="0.72" stroke-linecap="round" stroke-linejoin="round" stroke-miterlimit="10" x1="46.766" y1="2.33" x2="37.466" y2="2.33"/>

		<line fill="none" stroke="#000000" stroke-width="0.72" stroke-linecap="round" stroke-linejoin="round" stroke-miterlimit="10" x1="147.566" y1="2.33" x2="138.266" y2="2.33"/>

		<line fill="none" stroke="#000000" stroke-width="0.72" stroke-linecap="round" stroke-linejoin="round" stroke-miterlimit="10" x1="133.166" y1="2.33" x2="123.866" y2="2.33"/>

		<line fill="none" stroke="#000000" stroke-width="0.72" stroke-linecap="round" stroke-linejoin="round" stroke-miterlimit="10" x1="190.766" y1="11.45" x2="181.886" y2="11.45"/>

		<line fill="none" stroke="#000000" stroke-width="0.72" stroke-linecap="round" stroke-linejoin="round" stroke-miterlimit="10" x1="2.486" y1="2.33" x2="2.486" y2="88.67"/>

		<line fill="none" stroke="#000000" stroke-width="0.72" stroke-linecap="round" stroke-linejoin="round" stroke-miterlimit="10" x1="263.546" y1="79.55" x2="263.546" y2="11.45"/>

		<line fill="none" stroke="#000000" stroke-width="0.24" stroke-linecap="round" stroke-linejoin="round" stroke-miterlimit="10" x1="169.646" y1="10.01" x2="169.646" y2="2.33"/>

		<line fill="none" stroke="#000000" stroke-width="0.72" stroke-linecap="round" stroke-linejoin="round" stroke-miterlimit="10" x1="172.766" y1="88.67" x2="181.886" y2="79.55"/>

		<line fill="none" stroke="#000000" stroke-width="0.72" stroke-linecap="round" stroke-linejoin="round" stroke-miterlimit="10" x1="172.766" y1="2.33" x2="181.886" y2="11.45"/>

		<line fill="none" stroke="#000000" stroke-width="0.24" stroke-linecap="round" stroke-linejoin="round" stroke-miterlimit="10" x1="159.386" y1="10.01" x2="169.646" y2="10.01"/>

		<path fill="none" stroke="#000000" stroke-width="0.72" stroke-linecap="round" stroke-linejoin="bevel" stroke-miterlimit="10" d="
		M162.026,2.33l0.06,0.66c0.839,2.492,4.081,2.492,4.92,0l0.06-0.66"/>

		<polyline fill="none" stroke="#000000" stroke-width="0.24" stroke-linecap="round" stroke-linejoin="round" stroke-miterlimit="10" points="
		144.986,2.33 144.986,10.01 155.246,10.01 155.246,2.33 	"/>

		<path fill="none" stroke="#000000" stroke-width="0.72" stroke-linecap="round" stroke-linejoin="bevel" stroke-miterlimit="10" d="
		M147.626,2.33l0.06,0.66c0.839,2.492,4.081,2.492,4.92,0l0.06-0.66"/>

		<polyline fill="none" stroke="#000000" stroke-width="0.24" stroke-linecap="round" stroke-linejoin="round" stroke-miterlimit="10" points="
		130.586,2.33 130.586,10.01 140.846,10.01 140.846,2.33 	"/>

		<path fill="none" stroke="#000000" stroke-width="0.72" stroke-linecap="round" stroke-linejoin="bevel" stroke-miterlimit="10" d="
		M133.226,2.33l0.06,0.66c0.839,2.492,4.081,2.492,4.92,0l0.06-0.66"/>

		<polyline fill="none" stroke="#000000" stroke-width="0.24" stroke-linecap="round" stroke-linejoin="round" stroke-miterlimit="10" points="
		116.186,2.33 116.186,10.01 126.446,10.01 126.446,2.33 	"/>

		<path fill="none" stroke="#000000" stroke-width="0.72" stroke-linecap="round" stroke-linejoin="bevel" stroke-miterlimit="10" d="
		M118.826,2.33l0.06,0.66c0.839,2.492,4.081,2.492,4.92,0l0.06-0.66"/>

		<line fill="none" stroke="#000000" stroke-width="0.24" stroke-linecap="round" stroke-linejoin="round" stroke-miterlimit="10" x1="101.786" y1="2.33" x2="101.786" y2="10.01"/>

		<line fill="none" stroke="#000000" stroke-width="0.72" stroke-linecap="round" stroke-linejoin="round" stroke-miterlimit="10" x1="61.166" y1="2.33" x2="51.866" y2="2.33"/>

		<line fill="none" stroke="#000000" stroke-width="0.24" stroke-linecap="round" stroke-linejoin="round" stroke-miterlimit="10" x1="101.786" y1="10.01" x2="112.046" y2="10.01"/>

		<line fill="none" stroke="#000000" stroke-width="0.72" stroke-linecap="round" stroke-linejoin="round" stroke-miterlimit="10" x1="75.566" y1="2.33" x2="66.266" y2="2.33"/>

		<line fill="none" stroke="#000000" stroke-width="0.24" stroke-linecap="round" stroke-linejoin="round" stroke-miterlimit="10" x1="112.046" y1="10.01" x2="112.046" y2="2.33"/>

		<path fill="none" stroke="#000000" stroke-width="0.72" stroke-linecap="round" stroke-linejoin="bevel" stroke-miterlimit="10" d="
		M104.366,2.33l0.06,0.66c0.839,2.492,4.081,2.492,4.92,0l0.06-0.66"/>

		<line fill="none" stroke="#000000" stroke-width="0.72" stroke-linecap="round" stroke-linejoin="round" stroke-miterlimit="10" x1="89.966" y1="2.33" x2="80.666" y2="2.33"/>

		<line fill="none" stroke="#000000" stroke-width="0.24" stroke-linecap="round" stroke-linejoin="round" stroke-miterlimit="10" x1="87.386" y1="2.33" x2="87.386" y2="10.01"/>

		<line fill="none" stroke="#000000" stroke-width="0.72" stroke-linecap="round" stroke-linejoin="round" stroke-miterlimit="10" x1="104.366" y1="2.33" x2="95.066" y2="2.33"/>

		<line fill="none" stroke="#000000" stroke-width="0.72" stroke-linecap="round" stroke-linejoin="round" stroke-miterlimit="10" x1="118.766" y1="2.33" x2="109.466" y2="2.33"/>

		<polyline fill="none" stroke="#000000" stroke-width="0.24" stroke-linecap="round" stroke-linejoin="round" stroke-miterlimit="10" points="
		87.386,10.01 97.646,10.01 97.646,2.33 	"/>

		<path fill="none" stroke="#000000" stroke-width="0.72" stroke-linecap="round" stroke-linejoin="bevel" stroke-miterlimit="10" d="
		M89.966,2.33l0.06,0.66c0.839,2.492,4.081,2.492,4.92,0l0.06-0.66"/>

		<polyline fill="none" stroke="#000000" stroke-width="0.24" stroke-linecap="round" stroke-linejoin="round" stroke-miterlimit="10" points="
		72.986,2.33 72.986,10.01 83.246,10.01 83.246,2.33 	"/>

		<path fill="none" stroke="#000000" stroke-width="0.72" stroke-linecap="round" stroke-linejoin="bevel" stroke-miterlimit="10" d="
		M75.566,2.33l0.06,0.66c0.839,2.492,4.081,2.492,4.92,0l0.06-0.66"/>

		<polyline fill="none" stroke="#000000" stroke-width="0.24" stroke-linecap="round" stroke-linejoin="round" stroke-miterlimit="10" points="
		58.586,2.33 58.586,10.01 68.846,10.01 68.846,2.33 	"/>

		<path fill="none" stroke="#000000" stroke-width="0.72" stroke-linecap="round" stroke-linejoin="bevel" stroke-miterlimit="10" d="
		M61.166,2.33l0.06,0.66c0.839,2.492,4.081,2.492,4.92,0l0.06-0.66"/>

		<polyline fill="none" stroke="#000000" stroke-width="0.24" stroke-linecap="round" stroke-linejoin="round" stroke-miterlimit="10" points="
		44.186,2.33 44.186,10.01 54.446,10.01 54.446,2.33 	"/>

		<path fill="none" stroke="#000000" stroke-width="0.72" stroke-linecap="round" stroke-linejoin="bevel" stroke-miterlimit="10" d="
		M46.766,2.33l0.06,0.66c0.839,2.492,4.081,2.492,4.92,0l0.06-0.66"/>

		<polyline fill="none" stroke="#000000" stroke-width="0.24" stroke-linecap="round" stroke-linejoin="round" stroke-miterlimit="10" points="
		54.446,88.67 54.446,80.99 44.186,80.99 44.186,88.67 	"/>

		<path fill="none" stroke="#000000" stroke-width="0.72" stroke-linecap="round" stroke-linejoin="bevel" stroke-miterlimit="10" d="
		M51.806,88.67l-0.06-0.66c-0.839-2.492-4.081-2.492-4.92,0l-0.06,0.66"/>

		<polyline fill="none" stroke="#000000" stroke-width="0.24" stroke-linecap="round" stroke-linejoin="round" stroke-miterlimit="10" points="
		68.846,88.67 68.846,80.99 58.586,80.99 58.586,88.67 	"/>

		<path fill="none" stroke="#000000" stroke-width="0.72" stroke-linecap="round" stroke-linejoin="bevel" stroke-miterlimit="10" d="
		M66.206,88.67l-0.06-0.66c-0.839-2.492-4.081-2.492-4.92,0l-0.06,0.66"/>

		<polyline fill="none" stroke="#000000" stroke-width="0.24" stroke-linecap="round" stroke-linejoin="round" stroke-miterlimit="10" points="
		83.246,88.67 83.246,80.99 72.986,80.99 72.986,88.67 	"/>

		<path fill="none" stroke="#000000" stroke-width="0.72" stroke-linecap="round" stroke-linejoin="bevel" stroke-miterlimit="10" d="
		M80.606,88.67l-0.06-0.66c-0.839-2.492-4.081-2.492-4.92,0l-0.06,0.66"/>

		<polyline fill="none" stroke="#000000" stroke-width="0.24" stroke-linecap="round" stroke-linejoin="round" stroke-miterlimit="10" points="
		97.646,88.67 97.646,80.99 87.386,80.99 87.386,88.67 	"/>

		<path fill="none" stroke="#000000" stroke-width="0.72" stroke-linecap="round" stroke-linejoin="bevel" stroke-miterlimit="10" d="
		M95.006,88.67l-0.06-0.66c-0.839-2.492-4.081-2.492-4.92,0l-0.06,0.66"/>

		<polyline fill="none" stroke="#000000" stroke-width="0.24" stroke-linecap="round" stroke-linejoin="round" stroke-miterlimit="10" points="
		112.046,88.67 112.046,80.99 101.786,80.99 101.786,88.67 	"/>

		<path fill="none" stroke="#000000" stroke-width="0.72" stroke-linecap="round" stroke-linejoin="bevel" stroke-miterlimit="10" d="
		M109.466,88.67l-0.06-0.66c-0.839-2.492-4.081-2.492-4.92,0l-0.06,0.66"/>

		<polyline fill="none" stroke="#000000" stroke-width="0.24" stroke-linecap="round" stroke-linejoin="round" stroke-miterlimit="10" points="
		126.446,88.67 126.446,80.99 116.186,80.99 116.186,88.67 	"/>

		<path fill="none" stroke="#000000" stroke-width="0.72" stroke-linecap="round" stroke-linejoin="bevel" stroke-miterlimit="10" d="
		M123.866,88.67l-0.06-0.66c-0.839-2.492-4.081-2.492-4.92,0l-0.06,0.66"/>

		<polyline fill="none" stroke="#000000" stroke-width="0.24" stroke-linecap="round" stroke-linejoin="round" stroke-miterlimit="10" points="
		140.846,88.67 140.846,80.99 130.586,80.99 130.586,88.67 	"/>

		<path fill="none" stroke="#000000" stroke-width="0.72" stroke-linecap="round" stroke-linejoin="bevel" stroke-miterlimit="10" d="
		M138.266,88.67l-0.06-0.66c-0.839-2.492-4.081-2.492-4.92,0l-0.06,0.66"/>

		<polyline fill="none" stroke="#000000" stroke-width="0.24" stroke-linecap="round" stroke-linejoin="round" stroke-miterlimit="10" points="
		155.246,88.67 155.246,80.99 144.986,80.99 144.986,88.67 	"/>

		<path fill="none" stroke="#000000" stroke-width="0.72" stroke-linecap="round" stroke-linejoin="bevel" stroke-miterlimit="10" d="
		M152.666,88.67l-0.06-0.66c-0.839-2.492-4.081-2.492-4.92,0l-0.06,0.66"/>

		<polyline fill="none" stroke="#000000" stroke-width="0.24" stroke-linecap="round" stroke-linejoin="round" stroke-miterlimit="10" points="
		169.646,88.67 169.646,80.99 159.386,80.99 159.386,88.67 	"/>

		<path fill="none" stroke="#000000" stroke-width="0.72" stroke-linecap="round" stroke-linejoin="bevel" stroke-miterlimit="10" d="
		M167.066,88.67l-0.06-0.66c-0.839-2.492-4.081-2.492-4.92,0l-0.06,0.66"/>

		<rect x="79.886" y="25.67" fill="none" stroke="#000000" stroke-width="0.24" stroke-linecap="round" stroke-linejoin="round" stroke-miterlimit="10" width="39.66" height="39.66"/>

		<path fill="none" stroke="#000000" stroke-width="0.24" stroke-linecap="round" stroke-linejoin="round" stroke-miterlimit="10" d="
		M79.886,25.67"/>

		<path fill="none" stroke="#000000" stroke-width="0.24" stroke-linecap="round" stroke-linejoin="bevel" stroke-miterlimit="10" d="
		M116.006,59.63l-0.06-0.54l-0.24-0.54c-0.83-1.431-3.068-1.344-3.72,0.24l-0.18,0.54v0.6c0.338,1.957,2.877,2.459,3.9,0.78
		l0.24-0.54L116.006,59.63z"/>

		<path fill="none" stroke="#000000" stroke-width="0.24" stroke-linecap="round" stroke-linejoin="bevel" stroke-miterlimit="10" d="
		M184.586,23.93l-0.06-0.66l-0.24-0.6c-1.118-2.039-4.098-2.04-5.04,0.3l-0.18,0.66v0.6c0.471,2.765,3.841,3.35,5.22,0.96l0.24-0.6
		L184.586,23.93z"/>

		<path fill="none" stroke="#000000" stroke-width="0.24" stroke-linecap="round" stroke-linejoin="bevel" stroke-miterlimit="10" d="
		M190.346,67.07l-0.06-0.66l-0.24-0.6c-1.118-2.039-4.099-2.04-5.04,0.3l-0.18,0.66v0.6c0.471,2.765,3.841,3.35,5.22,0.96l0.24-0.6
		L190.346,67.07z"/>

		<path fill="none" stroke="#000000" stroke-width="0.24" stroke-linecap="round" stroke-linejoin="bevel" stroke-miterlimit="10" d="
		M178.826,67.07l-0.06-0.66l-0.24-0.6c-1.119-2.039-4.099-2.04-5.04,0.3l-0.18,0.66v0.6c0.471,2.765,3.841,3.35,5.22,0.96l0.24-0.6
		L178.826,67.07z"/>

		<line fill="none" stroke="#000000" stroke-width="0.72" stroke-linecap="round" stroke-linejoin="round" stroke-miterlimit="10" x1="190.766" y1="11.45" x2="190.766" y2="16.67"/>

		<path fill="none" stroke="#000000" stroke-width="0.72" stroke-linecap="round" stroke-linejoin="bevel" stroke-miterlimit="10" d="
		M190.826,16.61l0.06,0.66c0.839,2.492,4.081,2.492,4.92,0l0.06-0.66"/>

		<line fill="none" stroke="#000000" stroke-width="0.72" stroke-linecap="round" stroke-linejoin="round" stroke-miterlimit="10" x1="195.866" y1="16.67" x2="195.866" y2="11.45"/>

		<path fill="none" stroke="#000000" stroke-width="0.24" stroke-linecap="round" stroke-linejoin="bevel" stroke-miterlimit="10" d="
		M188.966,19.37l0.6,0.72c1.932,2.254,5.628,2.254,7.56,0l0.6-0.72"/>

		<line fill="none" stroke="#000000" stroke-width="0.24" stroke-linecap="round" stroke-linejoin="round" stroke-miterlimit="10" x1="188.246" y1="19.37" x2="188.246" y2="11.45"/>

		<line fill="none" stroke="#000000" stroke-width="0.24" stroke-linecap="round" stroke-linejoin="round" stroke-miterlimit="10" x1="198.446" y1="19.37" x2="198.446" y2="11.45"/>

		<line fill="none" stroke="#000000" stroke-width="0.24" stroke-linecap="round" stroke-linejoin="round" stroke-miterlimit="10" x1="188.246" y1="19.37" x2="188.906" y2="19.37"/>

		<line fill="none" stroke="#000000" stroke-width="0.24" stroke-linecap="round" stroke-linejoin="round" stroke-miterlimit="10" x1="198.446" y1="19.37" x2="197.726" y2="19.37"/>

		<line fill="none" stroke="#000000" stroke-width="0.72" stroke-linecap="round" stroke-linejoin="round" stroke-miterlimit="10" x1="195.866" y1="79.55" x2="195.866" y2="74.33"/>

		<path fill="none" stroke="#000000" stroke-width="0.72" stroke-linecap="round" stroke-linejoin="bevel" stroke-miterlimit="10" d="
		M195.866,74.33l-0.06-0.66c-0.839-2.492-4.081-2.492-4.92,0l-0.06,0.66"/>

		<line fill="none" stroke="#000000" stroke-width="0.72" stroke-linecap="round" stroke-linejoin="round" stroke-miterlimit="10" x1="190.766" y1="74.33" x2="190.766" y2="79.55"/>

		<path fill="none" stroke="#000000" stroke-width="0.24" stroke-linecap="round" stroke-linejoin="bevel" stroke-miterlimit="10" d="
		M197.726,71.57l-0.6-0.72c-1.932-2.254-5.628-2.254-7.56,0l-0.6,0.72"/>

		<line fill="none" stroke="#000000" stroke-width="0.24" stroke-linecap="round" stroke-linejoin="round" stroke-miterlimit="10" x1="198.446" y1="71.57" x2="198.446" y2="79.55"/>

		<line fill="none" stroke="#000000" stroke-width="0.24" stroke-linecap="round" stroke-linejoin="round" stroke-miterlimit="10" x1="188.246" y1="71.57" x2="188.246" y2="79.55"/>

		<line fill="none" stroke="#000000" stroke-width="0.24" stroke-linecap="round" stroke-linejoin="round" stroke-miterlimit="10" x1="198.446" y1="71.57" x2="197.726" y2="71.57"/>

		<line fill="none" stroke="#000000" stroke-width="0.24" stroke-linecap="round" stroke-linejoin="round" stroke-miterlimit="10" x1="188.246" y1="71.57" x2="188.906" y2="71.57"/>

		<line fill="none" stroke="#000000" stroke-width="0.24" stroke-linecap="round" stroke-linejoin="round" stroke-miterlimit="10" x1="119.546" y1="62.51" x2="116.726" y2="65.33"/>

		<line fill="none" stroke="#000000" stroke-width="0.24" stroke-linecap="round" stroke-linejoin="round" stroke-miterlimit="10" x1="71.486" y1="40.55" x2="71.486" y2="17.93"/>

		<polyline fill="none" stroke="#000000" stroke-width="0.24" stroke-linecap="round" stroke-linejoin="bevel" stroke-miterlimit="10" points="
		71.486,17.93 71.426,17.69 71.186,17.45 70.946,17.39 	"/>

		<line fill="none" stroke="#000000" stroke-width="0.24" stroke-linecap="round" stroke-linejoin="round" stroke-miterlimit="10" x1="70.946" y1="17.33" x2="54.506" y2="17.33"/>

		<line fill="none" stroke="#000000" stroke-width="0.24" stroke-linecap="round" stroke-linejoin="round" stroke-miterlimit="10" x1="53.906" y1="17.93" x2="53.906" y2="40.55"/>

		<polyline fill="none" stroke="#000000" stroke-width="0.24" stroke-linecap="round" stroke-linejoin="bevel" stroke-miterlimit="10" points="
		54.506,17.39 54.206,17.45 54.026,17.63 53.966,17.93 	"/>

		<line fill="none" stroke="#000000" stroke-width="0.24" stroke-linecap="round" stroke-linejoin="round" stroke-miterlimit="10" x1="70.946" y1="41.15" x2="54.506" y2="41.15"/>

		<polyline fill="none" stroke="#000000" stroke-width="0.24" stroke-linecap="round" stroke-linejoin="bevel" stroke-miterlimit="10" points="
		70.946,41.09 71.306,40.91 71.486,40.55 	"/>

		<polyline fill="none" stroke="#000000" stroke-width="0.24" stroke-linecap="round" stroke-linejoin="bevel" stroke-miterlimit="10" points="
		53.966,40.55 54.146,40.91 54.506,41.09 	"/>

		<line fill="none" stroke="#000000" stroke-width="0.24" stroke-linecap="round" stroke-linejoin="round" stroke-miterlimit="10" x1="60.146" y1="17.33" x2="53.906" y2="23.57"/>

		<line fill="none" stroke="#000000" stroke-width="0.24" stroke-linecap="round" stroke-linejoin="round" stroke-miterlimit="10" x1="65.246" y1="17.33" x2="71.486" y2="23.57"/>

		<line fill="none" stroke="#000000" stroke-width="0.24" stroke-linecap="round" stroke-linejoin="round" stroke-miterlimit="10" x1="60.146" y1="41.15" x2="53.906" y2="34.91"/>

		<line fill="none" stroke="#000000" stroke-width="0.24" stroke-linecap="round" stroke-linejoin="round" stroke-miterlimit="10" x1="65.246" y1="41.15" x2="71.486" y2="34.91"/>

		<line fill="none" stroke="#000000" stroke-width="0.24" stroke-linecap="round" stroke-linejoin="round" stroke-miterlimit="10" x1="68.966" y1="26.99" x2="68.966" y2="31.49"/>

		<path fill="none" stroke="#000000" stroke-width="0.24" stroke-linecap="round" stroke-linejoin="bevel" stroke-miterlimit="10" d="
		M56.546,31.49l0.06,0.96c1.337,6.958,10.903,6.959,12.24,0l0.06-0.96"/>

		<line fill="none" stroke="#000000" stroke-width="0.24" stroke-linecap="round" stroke-linejoin="round" stroke-miterlimit="10" x1="56.486" y1="26.99" x2="56.486" y2="31.49"/>

		<path fill="none" stroke="#000000" stroke-width="0.24" stroke-linecap="round" stroke-linejoin="bevel" stroke-miterlimit="10" d="
		M68.906,26.99l-0.06-0.96c-1.338-6.959-10.903-6.958-12.24,0l-0.06,0.96"/>

		<polyline fill="none" stroke="#000000" stroke-width="0.24" stroke-linecap="round" stroke-linejoin="round" stroke-miterlimit="10" points="
		55.046,17.33 55.046,16.19 58.166,16.19 58.166,17.33 	"/>

		<polyline fill="none" stroke="#000000" stroke-width="0.24" stroke-linecap="round" stroke-linejoin="round" stroke-miterlimit="10" points="
		67.226,17.33 67.226,16.19 70.346,16.19 70.346,17.33 	"/>

		<polyline fill="none" stroke="#000000" stroke-width="0.24" stroke-linecap="round" stroke-linejoin="round" stroke-miterlimit="10" points="
		55.046,41.15 55.046,42.29 58.166,42.29 58.166,41.15 	"/>

		<polyline fill="none" stroke="#000000" stroke-width="0.24" stroke-linecap="round" stroke-linejoin="round" stroke-miterlimit="10" points="
		67.226,41.15 67.226,42.29 70.346,42.29 70.346,41.15 	"/>

		<polyline fill="none" stroke="#000000" stroke-width="0.24" stroke-linecap="round" stroke-linejoin="round" stroke-miterlimit="10" points="
		35.126,24.47 35.126,19.43 51.506,19.43 51.506,39.17 35.126,39.17 35.126,34.07 	"/>

		<polyline fill="none" stroke="#000000" stroke-width="0.24" stroke-linecap="round" stroke-linejoin="round" stroke-miterlimit="10" points="
		50.666,19.43 50.666,21.65 51.506,21.65 	"/>

		<line fill="none" stroke="#000000" stroke-width="0.24" stroke-linecap="round" stroke-linejoin="round" stroke-miterlimit="10" x1="50.366" y1="19.67" x2="50.366" y2="38.87"/>

		<polyline fill="none" stroke="#000000" stroke-width="0.24" stroke-linecap="round" stroke-linejoin="round" stroke-miterlimit="10" points="
		50.666,39.17 50.666,36.89 51.506,36.89 	"/>

		<polyline fill="none" stroke="#000000" stroke-width="0.24" stroke-linecap="round" stroke-linejoin="round" stroke-miterlimit="10" points="
		35.126,36.89 35.966,36.89 35.966,39.17 	"/>

		<line fill="none" stroke="#000000" stroke-width="0.24" stroke-linecap="round" stroke-linejoin="round" stroke-miterlimit="10" x1="50.366" y1="38.87" x2="47.546" y2="38.87"/>

		<line fill="none" stroke="#000000" stroke-width="0.24" stroke-linecap="round" stroke-linejoin="round" stroke-miterlimit="10" x1="45.086" y1="37.43" x2="41.546" y2="37.43"/>

		<polyline fill="none" stroke="#000000" stroke-width="0.24" stroke-linecap="round" stroke-linejoin="round" stroke-miterlimit="10" points="
		45.866,37.73 47.546,37.73 47.546,38.87 	"/>

		<polyline fill="none" stroke="#000000" stroke-width="0.24" stroke-linecap="round" stroke-linejoin="bevel" stroke-miterlimit="10" points="
		47.486,37.73 47.426,37.43 47.186,37.25 46.946,37.19 	"/>

		<line fill="none" stroke="#000000" stroke-width="0.24" stroke-linecap="round" stroke-linejoin="round" stroke-miterlimit="10" x1="45.266" y1="39.17" x2="45.266" y2="37.73"/>

		<line fill="none" stroke="#000000" stroke-width="0.24" stroke-linecap="round" stroke-linejoin="round" stroke-miterlimit="10" x1="45.866" y1="39.17" x2="45.866" y2="37.73"/>

		<line fill="none" stroke="#000000" stroke-width="0.24" stroke-linecap="round" stroke-linejoin="round" stroke-miterlimit="10" x1="45.086" y1="37.43" x2="45.086" y2="39.17"/>

		<line fill="none" stroke="#000000" stroke-width="0.24" stroke-linecap="round" stroke-linejoin="round" stroke-miterlimit="10" x1="45.506" y1="37.19" x2="46.946" y2="37.19"/>

		<line fill="none" stroke="#000000" stroke-width="0.24" stroke-linecap="round" stroke-linejoin="bevel" stroke-miterlimit="10" x1="45.566" y1="37.19" x2="45.086" y2="37.49"/>

		<line fill="none" stroke="#000000" stroke-width="0.24" stroke-linecap="round" stroke-linejoin="round" stroke-miterlimit="10" x1="45.866" y1="37.73" x2="45.266" y2="37.73"/>

		<polyline fill="none" stroke="#000000" stroke-width="0.24" stroke-linecap="round" stroke-linejoin="round" stroke-miterlimit="10" points="
		40.766,37.73 39.086,37.73 39.086,38.87 	"/>

		<polyline fill="none" stroke="#000000" stroke-width="0.24" stroke-linecap="round" stroke-linejoin="bevel" stroke-miterlimit="10" points="
		39.626,37.19 39.386,37.25 39.146,37.43 39.086,37.73 	"/>

		<line fill="none" stroke="#000000" stroke-width="0.24" stroke-linecap="round" stroke-linejoin="round" stroke-miterlimit="10" x1="41.306" y1="39.17" x2="41.306" y2="37.73"/>

		<line fill="none" stroke="#000000" stroke-width="0.24" stroke-linecap="round" stroke-linejoin="round" stroke-miterlimit="10" x1="40.766" y1="39.17" x2="40.766" y2="37.73"/>

		<line fill="none" stroke="#000000" stroke-width="0.24" stroke-linecap="round" stroke-linejoin="round" stroke-miterlimit="10" x1="41.546" y1="37.43" x2="41.546" y2="39.17"/>

		<line fill="none" stroke="#000000" stroke-width="0.24" stroke-linecap="round" stroke-linejoin="round" stroke-miterlimit="10" x1="41.066" y1="37.19" x2="39.626" y2="37.19"/>

		<line fill="none" stroke="#000000" stroke-width="0.24" stroke-linecap="round" stroke-linejoin="bevel" stroke-miterlimit="10" x1="41.486" y1="37.49" x2="41.006" y2="37.19"/>

		<line fill="none" stroke="#000000" stroke-width="0.24" stroke-linecap="round" stroke-linejoin="round" stroke-miterlimit="10" x1="40.766" y1="37.73" x2="41.306" y2="37.73"/>

		<line fill="none" stroke="#000000" stroke-width="0.24" stroke-linecap="round" stroke-linejoin="round" stroke-miterlimit="10" x1="39.086" y1="38.87" x2="36.206" y2="38.87"/>

		<polyline fill="none" stroke="#000000" stroke-width="0.24" stroke-linecap="round" stroke-linejoin="round" stroke-miterlimit="10" points="
		41.606,38.57 44.966,38.57 44.966,37.73 	"/>

		<polyline fill="none" stroke="#000000" stroke-width="0.24" stroke-linecap="round" stroke-linejoin="round" stroke-miterlimit="10" points="
		41.606,38.57 41.606,37.73 41.546,37.73 	"/>

		<line fill="none" stroke="#000000" stroke-width="0.24" stroke-linecap="round" stroke-linejoin="round" stroke-miterlimit="10" x1="44.966" y1="37.73" x2="45.086" y2="37.73"/>

		<polyline fill="none" stroke="#000000" stroke-width="0.24" stroke-linecap="round" stroke-linejoin="round" stroke-miterlimit="10" points="
		36.206,38.87 36.206,34.61 35.126,34.61 	"/>

		<line fill="none" stroke="#000000" stroke-width="0.24" stroke-linecap="round" stroke-linejoin="round" stroke-miterlimit="10" x1="35.366" y1="34.07" x2="31.406" y2="34.07"/>

		<line fill="none" stroke="#000000" stroke-width="0.24" stroke-linecap="round" stroke-linejoin="round" stroke-miterlimit="10" x1="36.806" y1="32.93" x2="36.806" y2="34.61"/>

		<polyline fill="none" stroke="#000000" stroke-width="0.24" stroke-linecap="round" stroke-linejoin="bevel" stroke-miterlimit="10" points="
		36.746,34.61 36.146,34.19 35.366,34.07 	"/>

		<polyline fill="none" stroke="#000000" stroke-width="0.24" stroke-linecap="round" stroke-linejoin="round" stroke-miterlimit="10" points="
		31.406,34.07 31.406,24.47 35.366,24.47 	"/>

		<line fill="none" stroke="#000000" stroke-width="0.24" stroke-linecap="round" stroke-linejoin="round" stroke-miterlimit="10" x1="36.806" y1="25.61" x2="36.806" y2="23.93"/>

		<polyline fill="none" stroke="#000000" stroke-width="0.24" stroke-linecap="round" stroke-linejoin="bevel" stroke-miterlimit="10" points="
		35.366,24.47 36.146,24.35 36.746,23.93 	"/>

		<polyline fill="none" stroke="#000000" stroke-width="0.24" stroke-linecap="round" stroke-linejoin="round" stroke-miterlimit="10" points="
		33.686,26.15 33.686,32.39 36.806,32.93 	"/>

		<line fill="none" stroke="#000000" stroke-width="0.24" stroke-linecap="round" stroke-linejoin="round" stroke-miterlimit="10" x1="36.806" y1="25.61" x2="33.686" y2="26.15"/>

		<polyline fill="none" stroke="#000000" stroke-width="0.24" stroke-linecap="round" stroke-linejoin="round" stroke-miterlimit="10" points="
		33.686,27.29 33.386,27.29 33.386,26.45 33.686,26.45 	"/>

		<polyline fill="none" stroke="#000000" stroke-width="0.24" stroke-linecap="round" stroke-linejoin="round" stroke-miterlimit="10" points="
		33.686,32.09 33.386,32.09 33.386,31.25 33.686,31.25 	"/>

		<polyline fill="none" stroke="#000000" stroke-width="0.24" stroke-linecap="round" stroke-linejoin="round" stroke-miterlimit="10" points="
		35.126,21.65 35.966,21.65 35.966,19.43 	"/>

		<line fill="none" stroke="#000000" stroke-width="0.24" stroke-linecap="round" stroke-linejoin="round" stroke-miterlimit="10" x1="50.366" y1="19.67" x2="47.546" y2="19.67"/>

		<line fill="none" stroke="#000000" stroke-width="0.24" stroke-linecap="round" stroke-linejoin="round" stroke-miterlimit="10" x1="45.086" y1="21.11" x2="41.546" y2="21.11"/>

		<polyline fill="none" stroke="#000000" stroke-width="0.24" stroke-linecap="round" stroke-linejoin="round" stroke-miterlimit="10" points="
		45.866,20.81 47.546,20.81 47.546,19.67 	"/>

		<polyline fill="none" stroke="#000000" stroke-width="0.24" stroke-linecap="round" stroke-linejoin="bevel" stroke-miterlimit="10" points="
		46.946,21.35 47.186,21.29 47.426,21.11 47.486,20.81 	"/>

		<line fill="none" stroke="#000000" stroke-width="0.24" stroke-linecap="round" stroke-linejoin="round" stroke-miterlimit="10" x1="45.266" y1="19.43" x2="45.266" y2="20.81"/>

		<line fill="none" stroke="#000000" stroke-width="0.24" stroke-linecap="round" stroke-linejoin="round" stroke-miterlimit="10" x1="45.866" y1="19.43" x2="45.866" y2="20.81"/>

		<line fill="none" stroke="#000000" stroke-width="0.24" stroke-linecap="round" stroke-linejoin="round" stroke-miterlimit="10" x1="45.086" y1="21.11" x2="45.086" y2="19.43"/>

		<line fill="none" stroke="#000000" stroke-width="0.24" stroke-linecap="round" stroke-linejoin="round" stroke-miterlimit="10" x1="45.506" y1="21.35" x2="46.946" y2="21.35"/>

		<line fill="none" stroke="#000000" stroke-width="0.24" stroke-linecap="round" stroke-linejoin="bevel" stroke-miterlimit="10" x1="45.086" y1="21.05" x2="45.566" y2="21.35"/>

		<line fill="none" stroke="#000000" stroke-width="0.24" stroke-linecap="round" stroke-linejoin="round" stroke-miterlimit="10" x1="45.866" y1="20.81" x2="45.266" y2="20.81"/>

		<polyline fill="none" stroke="#000000" stroke-width="0.24" stroke-linecap="round" stroke-linejoin="round" stroke-miterlimit="10" points="
		40.766,20.81 39.086,20.81 39.086,19.67 	"/>

		<polyline fill="none" stroke="#000000" stroke-width="0.24" stroke-linecap="round" stroke-linejoin="bevel" stroke-miterlimit="10" points="
		39.086,20.81 39.146,21.11 39.386,21.29 39.626,21.35 	"/>

		<line fill="none" stroke="#000000" stroke-width="0.24" stroke-linecap="round" stroke-linejoin="round" stroke-miterlimit="10" x1="41.306" y1="19.43" x2="41.306" y2="20.81"/>

		<line fill="none" stroke="#000000" stroke-width="0.24" stroke-linecap="round" stroke-linejoin="round" stroke-miterlimit="10" x1="40.766" y1="19.43" x2="40.766" y2="20.81"/>

		<line fill="none" stroke="#000000" stroke-width="0.24" stroke-linecap="round" stroke-linejoin="round" stroke-miterlimit="10" x1="41.546" y1="21.11" x2="41.546" y2="19.43"/>

		<line fill="none" stroke="#000000" stroke-width="0.24" stroke-linecap="round" stroke-linejoin="round" stroke-miterlimit="10" x1="41.066" y1="21.35" x2="39.626" y2="21.35"/>

		<line fill="none" stroke="#000000" stroke-width="0.24" stroke-linecap="round" stroke-linejoin="bevel" stroke-miterlimit="10" x1="41.006" y1="21.35" x2="41.486" y2="21.05"/>

		<line fill="none" stroke="#000000" stroke-width="0.24" stroke-linecap="round" stroke-linejoin="round" stroke-miterlimit="10" x1="40.766" y1="20.81" x2="41.306" y2="20.81"/>

		<line fill="none" stroke="#000000" stroke-width="0.24" stroke-linecap="round" stroke-linejoin="round" stroke-miterlimit="10" x1="39.086" y1="19.67" x2="36.206" y2="19.67"/>

		<polyline fill="none" stroke="#000000" stroke-width="0.24" stroke-linecap="round" stroke-linejoin="round" stroke-miterlimit="10" points="
		41.606,19.97 44.966,19.97 44.966,20.87 	"/>

		<polyline fill="none" stroke="#000000" stroke-width="0.24" stroke-linecap="round" stroke-linejoin="round" stroke-miterlimit="10" points="
		41.606,19.97 41.606,20.81 41.546,20.81 	"/>

		<line fill="none" stroke="#000000" stroke-width="0.24" stroke-linecap="round" stroke-linejoin="round" stroke-miterlimit="10" x1="44.966" y1="20.87" x2="45.086" y2="20.87"/>

		<polyline fill="none" stroke="#000000" stroke-width="0.24" stroke-linecap="round" stroke-linejoin="round" stroke-miterlimit="10" points="
		36.206,19.67 36.206,23.93 35.126,23.93 	"/>

		<polyline fill="none" stroke="#000000" stroke-width="0.24" stroke-linecap="round" stroke-linejoin="round" stroke-miterlimit="10" points="
		37.646,16.01 40.466,16.01 40.466,18.29 	"/>

		<line fill="none" stroke="#000000" stroke-width="0.24" stroke-linecap="round" stroke-linejoin="round" stroke-miterlimit="10" x1="37.646" y1="16.01" x2="37.646" y2="18.29"/>

		<polyline fill="none" stroke="#000000" stroke-width="0.24" stroke-linecap="round" stroke-linejoin="round" stroke-miterlimit="10" points="
		37.346,19.43 37.346,18.29 37.646,18.29 	"/>

		<polyline fill="none" stroke="#000000" stroke-width="0.24" stroke-linecap="round" stroke-linejoin="round" stroke-miterlimit="10" points="
		40.766,19.43 40.766,18.29 40.466,18.29 	"/>

		<polyline fill="none" stroke="#000000" stroke-width="0.24" stroke-linecap="round" stroke-linejoin="round" stroke-miterlimit="10" points="
		46.106,16.01 48.926,16.01 48.926,18.29 	"/>

		<line fill="none" stroke="#000000" stroke-width="0.24" stroke-linecap="round" stroke-linejoin="round" stroke-miterlimit="10" x1="46.106" y1="16.01" x2="46.106" y2="18.29"/>

		<polyline fill="none" stroke="#000000" stroke-width="0.24" stroke-linecap="round" stroke-linejoin="round" stroke-miterlimit="10" points="
		45.866,19.43 45.866,18.29 46.106,18.29 	"/>

		<polyline fill="none" stroke="#000000" stroke-width="0.24" stroke-linecap="round" stroke-linejoin="round" stroke-miterlimit="10" points="
		49.226,19.43 49.226,18.29 48.926,18.29 	"/>

		<polyline fill="none" stroke="#000000" stroke-width="0.24" stroke-linecap="round" stroke-linejoin="round" stroke-miterlimit="10" points="
		37.646,42.53 40.466,42.53 40.466,40.25 	"/>

		<line fill="none" stroke="#000000" stroke-width="0.24" stroke-linecap="round" stroke-linejoin="round" stroke-miterlimit="10" x1="37.646" y1="42.53" x2="37.646" y2="40.25"/>

		<polyline fill="none" stroke="#000000" stroke-width="0.24" stroke-linecap="round" stroke-linejoin="round" stroke-miterlimit="10" points="
		37.346,39.17 37.346,40.25 37.646,40.25 	"/>

		<polyline fill="none" stroke="#000000" stroke-width="0.24" stroke-linecap="round" stroke-linejoin="round" stroke-miterlimit="10" points="
		40.766,39.17 40.766,40.25 40.466,40.25 	"/>

		<polyline fill="none" stroke="#000000" stroke-width="0.24" stroke-linecap="round" stroke-linejoin="round" stroke-miterlimit="10" points="
		46.106,42.53 48.926,42.53 48.926,40.25 	"/>

		<line fill="none" stroke="#000000" stroke-width="0.24" stroke-linecap="round" stroke-linejoin="round" stroke-miterlimit="10" x1="46.106" y1="42.53" x2="46.106" y2="40.25"/>

		<polyline fill="none" stroke="#000000" stroke-width="0.24" stroke-linecap="round" stroke-linejoin="round" stroke-miterlimit="10" points="
		45.866,39.17 45.866,40.25 46.106,40.25 	"/>

		<polyline fill="none" stroke="#000000" stroke-width="0.24" stroke-linecap="round" stroke-linejoin="round" stroke-miterlimit="10" points="
		49.226,39.17 49.226,40.25 48.926,40.25 	"/>

		<line fill="none" stroke="#000000" stroke-width="0.24" stroke-linecap="round" stroke-linejoin="round" stroke-miterlimit="10" x1="47.246" y1="33.23" x2="47.246" y2="25.31"/>

		<line fill="none" stroke="#000000" stroke-width="0.24" stroke-linecap="round" stroke-linejoin="round" stroke-miterlimit="10" x1="45.626" y1="27.05" x2="45.626" y2="31.55"/>

		<line fill="none" stroke="#000000" stroke-width="0.24" stroke-linecap="round" stroke-linejoin="round" stroke-miterlimit="10" x1="46.706" y1="33.77" x2="41.906" y2="33.77"/>

		<polyline fill="none" stroke="#000000" stroke-width="0.24" stroke-linecap="round" stroke-linejoin="bevel" stroke-miterlimit="10" points="
		46.706,33.77 46.946,33.71 47.186,33.47 47.246,33.23 	"/>

		<polyline fill="none" stroke="#000000" stroke-width="0.24" stroke-linecap="round" stroke-linejoin="bevel" stroke-miterlimit="10" points="
		48.086,33.77 48.386,33.71 48.566,33.47 48.626,33.23 	"/>

		<polyline fill="none" stroke="#000000" stroke-width="0.24" stroke-linecap="round" stroke-linejoin="bevel" stroke-miterlimit="10" points="
		41.366,33.23 41.426,33.47 41.606,33.71 41.906,33.77 	"/>

		<polyline fill="none" stroke="#000000" stroke-width="0.24" stroke-linecap="round" stroke-linejoin="round" stroke-miterlimit="10" points="
		45.626,31.55 43.106,32.09 43.106,26.45 45.626,27.05 	"/>

		<line fill="none" stroke="#000000" stroke-width="0.24" stroke-linecap="round" stroke-linejoin="round" stroke-miterlimit="10" x1="41.906" y1="32.09" x2="43.106" y2="32.09"/>

		<line fill="none" stroke="#000000" stroke-width="0.24" stroke-linecap="round" stroke-linejoin="round" stroke-miterlimit="10" x1="41.906" y1="26.45" x2="43.106" y2="26.45"/>

		<polyline fill="none" stroke="#000000" stroke-width="0.24" stroke-linecap="round" stroke-linejoin="bevel" stroke-miterlimit="10" points="
		41.366,25.91 41.546,26.27 41.906,26.45 	"/>

		<line fill="none" stroke="#000000" stroke-width="0.24" stroke-linecap="round" stroke-linejoin="round" stroke-miterlimit="10" x1="42.446" y1="26.45" x2="42.446" y2="32.09"/>

		<line fill="none" stroke="#000000" stroke-width="0.24" stroke-linecap="round" stroke-linejoin="round" stroke-miterlimit="10" x1="41.306" y1="32.69" x2="41.306" y2="33.23"/>

		<polyline fill="none" stroke="#000000" stroke-width="0.24" stroke-linecap="round" stroke-linejoin="bevel" stroke-miterlimit="10" points="
		41.906,32.15 41.546,32.33 41.366,32.69 	"/>

		<line fill="none" stroke="#000000" stroke-width="0.24" stroke-linecap="round" stroke-linejoin="round" stroke-miterlimit="10" x1="48.626" y1="32.09" x2="48.686" y2="33.23"/>

		<line fill="none" stroke="#000000" stroke-width="0.24" stroke-linecap="round" stroke-linejoin="round" stroke-miterlimit="10" x1="48.086" y1="31.55" x2="47.546" y2="31.55"/>

		<polyline fill="none" stroke="#000000" stroke-width="0.24" stroke-linecap="round" stroke-linejoin="bevel" stroke-miterlimit="10" points="
		48.626,32.09 48.446,31.73 48.086,31.55 	"/>

		<line fill="none" stroke="#000000" stroke-width="0.24" stroke-linecap="round" stroke-linejoin="round" stroke-miterlimit="10" x1="48.086" y1="33.77" x2="46.706" y2="33.77"/>

		<line fill="none" stroke="#000000" stroke-width="0.24" stroke-linecap="round" stroke-linejoin="round" stroke-miterlimit="10" x1="47.546" y1="31.55" x2="47.546" y2="27.05"/>

		<line fill="none" stroke="#000000" stroke-width="0.24" stroke-linecap="round" stroke-linejoin="round" stroke-miterlimit="10" x1="46.706" y1="24.77" x2="41.906" y2="24.77"/>

		<polyline fill="none" stroke="#000000" stroke-width="0.24" stroke-linecap="round" stroke-linejoin="bevel" stroke-miterlimit="10" points="
		47.246,25.31 47.186,25.01 46.946,24.83 46.706,24.77 	"/>

		<polyline fill="none" stroke="#000000" stroke-width="0.24" stroke-linecap="round" stroke-linejoin="bevel" stroke-miterlimit="10" points="
		48.626,25.31 48.566,25.07 48.386,24.83 48.086,24.77 	"/>

		<line fill="none" stroke="#000000" stroke-width="0.24" stroke-linecap="round" stroke-linejoin="round" stroke-miterlimit="10" x1="48.626" y1="26.45" x2="48.686" y2="25.31"/>

		<line fill="none" stroke="#000000" stroke-width="0.24" stroke-linecap="round" stroke-linejoin="round" stroke-miterlimit="10" x1="48.086" y1="26.99" x2="47.546" y2="26.99"/>

		<polyline fill="none" stroke="#000000" stroke-width="0.24" stroke-linecap="round" stroke-linejoin="bevel" stroke-miterlimit="10" points="
		48.086,26.99 48.446,26.81 48.626,26.45 	"/>

		<line fill="none" stroke="#000000" stroke-width="0.24" stroke-linecap="round" stroke-linejoin="round" stroke-miterlimit="10" x1="48.086" y1="24.77" x2="46.706" y2="24.77"/>

		<polyline fill="none" stroke="#000000" stroke-width="0.24" stroke-linecap="round" stroke-linejoin="bevel" stroke-miterlimit="10" points="
		41.906,24.77 41.606,24.83 41.426,25.07 41.366,25.31 	"/>

		<line fill="none" stroke="#000000" stroke-width="0.24" stroke-linecap="round" stroke-linejoin="round" stroke-miterlimit="10" x1="41.306" y1="25.91" x2="41.306" y2="25.31"/>

		<polyline fill="none" stroke="#000000" stroke-width="0.24" stroke-linecap="round" stroke-linejoin="round" stroke-miterlimit="10" points="
		38.066,88.67 38.066,80.99 31.766,80.99 31.766,88.67 	"/>

		<path fill="none" stroke="#000000" stroke-width="0.72" stroke-linecap="round" stroke-linejoin="bevel" stroke-miterlimit="10" d="
		M37.406,88.67l-0.06-0.66c-0.839-2.492-4.081-2.492-4.92,0l-0.06,0.66"/>

		<polyline fill="none" stroke="#000000" stroke-width="0.24" stroke-linecap="round" stroke-linejoin="round" stroke-miterlimit="10" points="
		31.766,2.33 31.766,10.01 38.066,10.01 38.066,2.33 	"/>

		<path fill="none" stroke="#000000" stroke-width="0.72" stroke-linecap="round" stroke-linejoin="bevel" stroke-miterlimit="10" d="
		M32.366,2.33l0.06,0.66c0.839,2.492,4.081,2.492,4.92,0l0.06-0.66"/>

		<rect x="156.686" y="66.05" fill="none" stroke="#000000" stroke-width="0.24" stroke-linecap="round" stroke-linejoin="round" stroke-miterlimit="10" width="11.34" height="4.92"/>

		<path fill="none" stroke="#000000" stroke-width="0.24" stroke-linecap="round" stroke-linejoin="round" stroke-miterlimit="10" d="
		M156.686,66.05"/>

		<line fill="none" stroke="#000000" stroke-width="0.24" stroke-linecap="round" stroke-linejoin="round" stroke-miterlimit="10" x1="158.966" y1="70.97" x2="158.966" y2="66.05"/>

		<line fill="none" stroke="#000000" stroke-width="0.24" stroke-linecap="round" stroke-linejoin="round" stroke-miterlimit="10" x1="165.746" y1="70.97" x2="165.746" y2="66.05"/>

		<line fill="none" stroke="#000000" stroke-width="0.24" stroke-linecap="round" stroke-linejoin="round" stroke-miterlimit="10" x1="166.046" y1="20.21" x2="158.666" y2="20.21"/>

		<line fill="none" stroke="#000000" stroke-width="0.24" stroke-linecap="round" stroke-linejoin="round" stroke-miterlimit="10" x1="157.826" y1="23.87" x2="157.826" y2="21.05"/>

		<polyline fill="none" stroke="#000000" stroke-width="0.24" stroke-linecap="round" stroke-linejoin="bevel" stroke-miterlimit="10" points="
		157.826,21.05 158.246,20.93 158.546,20.63 158.666,20.21 	"/>

		<line fill="none" stroke="#000000" stroke-width="0.24" stroke-linecap="round" stroke-linejoin="round" stroke-miterlimit="10" x1="166.886" y1="23.87" x2="166.886" y2="21.05"/>

		<polyline fill="none" stroke="#000000" stroke-width="0.24" stroke-linecap="round" stroke-linejoin="bevel" stroke-miterlimit="10" points="
		166.046,20.21 166.166,20.63 166.466,20.93 166.886,21.05 	"/>

		<line fill="none" stroke="#000000" stroke-width="0.24" stroke-linecap="round" stroke-linejoin="round" stroke-miterlimit="10" x1="166.046" y1="24.77" x2="158.666" y2="24.77"/>

		<polyline fill="none" stroke="#000000" stroke-width="0.24" stroke-linecap="round" stroke-linejoin="bevel" stroke-miterlimit="10" points="
		158.666,24.77 158.546,24.35 158.246,24.05 157.826,23.93 	"/>

		<polyline fill="none" stroke="#000000" stroke-width="0.24" stroke-linecap="round" stroke-linejoin="bevel" stroke-miterlimit="10" points="
		166.886,23.93 166.466,24.05 166.166,24.35 166.046,24.77 	"/>

		<rect x="160.766" y="20.81" fill="none" stroke="#000000" stroke-width="0.24" stroke-linecap="round" stroke-linejoin="round" stroke-miterlimit="10" width="1.2" height="1.2"/>

		<path fill="none" stroke="#000000" stroke-width="0.24" stroke-linecap="round" stroke-linejoin="round" stroke-miterlimit="10" d="
		M160.766,20.81"/>

		<rect x="162.746" y="20.81" fill="none" stroke="#000000" stroke-width="0.24" stroke-linecap="round" stroke-linejoin="round" stroke-miterlimit="10" width="1.2" height="1.2"/>

		<path fill="none" stroke="#000000" stroke-width="0.24" stroke-linecap="round" stroke-linejoin="round" stroke-miterlimit="10" d="
		M162.746,20.81"/>

		<rect x="160.706" y="22.85" fill="none" stroke="#000000" stroke-width="0.24" stroke-linecap="round" stroke-linejoin="round" stroke-miterlimit="10" width="1.2" height="1.2"/>

		<path fill="none" stroke="#000000" stroke-width="0.24" stroke-linecap="round" stroke-linejoin="round" stroke-miterlimit="10" d="
		M160.706,22.85"/>

		<path fill="none" stroke="#000000" stroke-width="0.24" stroke-linecap="round" stroke-linejoin="bevel" stroke-miterlimit="10" d="
		M194.486,39.29l-0.66,0.18c-2.021,0.939-2.021,3.741,0,4.68l0.66,0.18"/>

		<line fill="none" stroke="#000000" stroke-width="0.24" stroke-linecap="round" stroke-linejoin="round" stroke-miterlimit="10" x1="194.426" y1="39.23" x2="194.426" y2="41.27"/>

		<line fill="none" stroke="#000000" stroke-width="0.24" stroke-linecap="round" stroke-linejoin="round" stroke-miterlimit="10" x1="194.426" y1="42.35" x2="194.426" y2="44.39"/>

		<path fill="none" stroke="#000000" stroke-width="0.24" stroke-linecap="round" stroke-linejoin="bevel" stroke-miterlimit="10" d="
		M196.106,44.33l0.66-0.18c2.021-0.939,2.021-3.741,0-4.68l-0.66-0.18"/>

		<line fill="none" stroke="#000000" stroke-width="0.24" stroke-linecap="round" stroke-linejoin="round" stroke-miterlimit="10" x1="196.106" y1="39.23" x2="196.106" y2="41.27"/>

		<line fill="none" stroke="#000000" stroke-width="0.24" stroke-linecap="round" stroke-linejoin="round" stroke-miterlimit="10" x1="196.106" y1="42.35" x2="196.106" y2="44.39"/>

		<line fill="none" stroke="#000000" stroke-width="0.24" stroke-linecap="round" stroke-linejoin="round" stroke-miterlimit="10" x1="196.106" y1="41.27" x2="194.426" y2="41.27"/>

		<line fill="none" stroke="#000000" stroke-width="0.24" stroke-linecap="round" stroke-linejoin="round" stroke-miterlimit="10" x1="196.106" y1="42.35" x2="194.426" y2="42.35"/>

		<path fill="none" stroke="#000000" stroke-width="0.24" stroke-linecap="round" stroke-linejoin="bevel" stroke-miterlimit="10" d="
		M194.486,46.67l-0.66,0.18c-2.021,0.939-2.021,3.741,0,4.68l0.66,0.18"/>

		<line fill="none" stroke="#000000" stroke-width="0.24" stroke-linecap="round" stroke-linejoin="round" stroke-miterlimit="10" x1="194.426" y1="46.55" x2="194.426" y2="48.59"/>

		<line fill="none" stroke="#000000" stroke-width="0.24" stroke-linecap="round" stroke-linejoin="round" stroke-miterlimit="10" x1="194.426" y1="49.73" x2="194.426" y2="51.77"/>

		<path fill="none" stroke="#000000" stroke-width="0.24" stroke-linecap="round" stroke-linejoin="bevel" stroke-miterlimit="10" d="
		M196.106,51.71l0.66-0.18c2.021-0.939,2.021-3.741,0-4.68l-0.66-0.18"/>

		<line fill="none" stroke="#000000" stroke-width="0.24" stroke-linecap="round" stroke-linejoin="round" stroke-miterlimit="10" x1="196.106" y1="46.55" x2="196.106" y2="48.59"/>

		<line fill="none" stroke="#000000" stroke-width="0.24" stroke-linecap="round" stroke-linejoin="round" stroke-miterlimit="10" x1="196.106" y1="49.73" x2="196.106" y2="51.77"/>

		<line fill="none" stroke="#000000" stroke-width="0.24" stroke-linecap="round" stroke-linejoin="round" stroke-miterlimit="10" x1="196.106" y1="48.59" x2="194.426" y2="48.59"/>

		<line fill="none" stroke="#000000" stroke-width="0.24" stroke-linecap="round" stroke-linejoin="round" stroke-miterlimit="10" x1="196.106" y1="49.73" x2="194.426" y2="49.73"/>
	<polyline fill-rule="evenodd" clip-rule="evenodd" points="213.446,33.89 212.846,33.05 209.306,33.05 209.306,30.95
		209.306,33.89 	"/>
	<path fill-rule="evenodd" clip-rule="evenodd" d="M213.626,33.29v-0.3l-0.06-0.18l-0.06-0.12l-0.06-0.06l-3.96-2.34l-0.24-0.12
		c-0.277,0.028-0.504-0.086-0.66,0.12v2.76h-1.44l-0.06,0.06v0.18l-0.06,0.18l0.06,0.24v0.12l0.06,0.06h1.44v0.78l0.06,0.12h0.06
		l0.24,0.06h0.06l0.18-0.06l0.12-0.12v-3.72l3.54,2.1l0.6,0.84h0.06l0.06-0.12v-0.24l0.06-0.06"/>
	<path fill-rule="evenodd" clip-rule="evenodd" d="M213.086,36.29l-0.18-0.18l-0.18-0.06l-0.06-0.06
		c-0.342-0.253-1.08-0.39-1.5-0.42l-0.18-0.06h-0.24c-0.56-0.007-1.329-0.007-1.86,0.12h-0.06l-0.24,0.06l-0.18,0.06l-0.24,0.06
		l-0.18,0.06l-0.12,0.12l-0.12,0.06l-0.18,0.12l-0.12,0.18l-0.12,0.12l-0.12,0.18v0.06l-0.12,0.36
		c-0.153,0.391-0.156,1.393,0.18,1.68l0.06,0.18l0.12,0.18l0.12,0.12l0.12-1.5l0.06-0.24v-0.18l0.24-0.36l0.12-0.12l0.18-0.12h0.06
		l0.18-0.06l0.18-0.12c0.347,0.015,0.674-0.141,1.02-0.12h0.66c0.784-0.044,2.244,0.058,2.52,0.96l0.06,0.18v0.24"/>
	<path fill-rule="evenodd" clip-rule="evenodd" d="M213.686,37.79v-0.06c-0.111-0.579-0.064-0.843-0.48-1.32l-0.12-0.12l-0.12,1.5
		v0.24l-0.12,0.36l-0.12,0.18h-0.06l-0.12,0.12c-0.511,0.407-1.706,0.453-2.34,0.42h-0.6c-0.314-0.092-0.652-0.066-0.96-0.18
		l-0.18-0.06l-0.06-0.06c-0.303-0.061-0.539-0.297-0.6-0.6l-0.06-0.06l-0.06-0.18v-0.24l-0.12,1.5l0.18,0.12
		c1.183,0.984,5.775,1.109,5.88-1.08l0.06-0.24"/>
	<path fill-rule="evenodd" clip-rule="evenodd" d="M213.086,41.51l-0.18-0.18l-0.18-0.06l-0.06-0.06
		c-0.342-0.253-1.08-0.39-1.5-0.42l-0.18-0.06h-0.24c-0.56-0.007-1.329-0.007-1.86,0.12h-0.06l-0.24,0.06l-0.18,0.06l-0.24,0.06
		l-0.18,0.06l-0.12,0.12l-0.12,0.06l-0.18,0.12l-0.12,0.18l-0.12,0.12l-0.12,0.18v0.06l-0.12,0.36
		c-0.153,0.391-0.156,1.393,0.18,1.68l0.06,0.18l0.12,0.18l0.12,0.12l0.12-1.5l0.06-0.24v-0.18l0.24-0.36l0.12-0.12l0.18-0.12h0.06
		l0.18-0.06l0.18-0.12c0.347,0.015,0.674-0.141,1.02-0.12h0.66c0.784-0.044,2.244,0.058,2.52,0.96l0.06,0.18v0.24"/>
	<path fill-rule="evenodd" clip-rule="evenodd" d="M213.686,43.01v-0.06c-0.111-0.579-0.064-0.843-0.48-1.32l-0.12-0.12l-0.12,1.5
		v0.24l-0.12,0.36l-0.12,0.18h-0.06l-0.12,0.12c-0.511,0.407-1.706,0.453-2.34,0.42h-0.6c-0.314-0.092-0.652-0.066-0.96-0.18
		l-0.18-0.06l-0.06-0.06c-0.303-0.061-0.539-0.297-0.6-0.6l-0.06-0.06l-0.06-0.18v-0.24l-0.12,1.5l0.18,0.12
		c1.183,0.984,5.775,1.109,5.88-1.08l0.06-0.24"/>
	<polyline fill-rule="evenodd" clip-rule="evenodd" points="212.966,46.31 212.426,46.31 212.366,46.37 212.366,46.43
		212.426,46.61 212.546,46.73 212.666,46.91 212.666,46.97 212.726,47.15 212.846,47.39 212.846,47.51 212.906,47.75 212.906,47.93
			"/>
	<path fill-rule="evenodd" clip-rule="evenodd" d="M213.686,48.05v-0.18c-0.13-0.491-0.237-1.241-0.66-1.56h-0.06l-0.06,1.62v0.3
		l-0.06,0.18l-0.24,0.36l-0.18,0.12l-0.36,0.12l-0.24,0.06h-0.06c-0.673-0.134-0.637-0.132-1.26-0.42l-0.12-0.12l-0.24-0.12v-0.06
		l-0.18-0.12l-0.12-0.12c-0.642-0.495-1.434-1.352-1.98-1.86l-0.12-0.06h-0.48l-0.12,0.06l-0.06,0.06v3.78l0.12,0.06l0.12,0.06h0.3
		l0.12-0.06l0.06-0.06v-2.88l1.08,1.02l0.12,0.12c0.652,0.59,1.339,1.195,2.16,1.5h0.18l0.24,0.06c1.015,0.08,1.742-0.24,2.04-1.26
		v-0.18l0.06-0.18"/>
	<path fill-rule="evenodd" clip-rule="evenodd" d="M208.106,51.47v-0.06l-0.06-0.06h-0.12l-0.18-0.06l-0.12,0.06l0.06,1.62v-0.24
		c0.085-0.327,0.139-0.645,0.3-0.96l0.06-0.18"/>
	<polyline fill-rule="evenodd" clip-rule="evenodd" points="210.326,51.71 210.266,51.89 210.326,52.13 210.326,52.85 	"/>
	<polyline fill-rule="evenodd" clip-rule="evenodd" points="211.046,53.27 211.046,52.73 210.986,52.49 210.986,53.87
		210.986,53.69 211.046,53.51 	"/>
	<path fill-rule="evenodd" clip-rule="evenodd" d="M213.566,54.83v-2.94l-0.06-0.18h-0.06l-0.18-0.06h-2.76l-0.18,0.06v1.14
		c0.273,2.194-2.666,2.243-2.64,0.12l-0.06-1.62h-0.18c-0.636,0.855-0.624,2.554,0.12,3.42l0.18,0.12l0.12,0.12l0.36,0.24l0.12,0.06
		l0.18,0.06h0.24l0.18,0.06h0.42l0.18-0.06l0.18-0.06l0.24-0.06h0.06l0.36-0.24l0.24-0.24l0.12-0.18l0.06-0.18l0.12-0.18v-0.12
		l0.06-0.24v-1.38h1.86v2.34l0.06,0.12l0.06,0.06h0.42l0.12-0.06l0.06-0.06"/>
	<path fill-rule="evenodd" clip-rule="evenodd" d="M213.086,57.11l-0.18-0.18l-0.18-0.06l-0.06-0.06
		c-0.342-0.253-1.08-0.39-1.5-0.42l-0.18-0.06h-0.24c-0.56-0.007-1.329-0.007-1.86,0.12h-0.06l-0.24,0.06l-0.18,0.06l-0.24,0.06
		l-0.18,0.06l-0.12,0.12l-0.12,0.06l-0.18,0.12l-0.12,0.18l-0.12,0.12l-0.12,0.18v0.06l-0.12,0.36
		c-0.153,0.391-0.156,1.393,0.18,1.68l0.06,0.18l0.12,0.18l0.12,0.12l0.12-1.5l0.06-0.24v-0.18l0.24-0.36l0.12-0.12l0.18-0.12h0.06
		l0.18-0.06l0.18-0.12c0.347,0.015,0.674-0.141,1.02-0.12h0.66c0.784-0.043,2.244,0.058,2.52,0.96l0.06,0.18v0.24"/>
	<path fill-rule="evenodd" clip-rule="evenodd" d="M213.686,58.61v-0.06c-0.111-0.579-0.064-0.843-0.48-1.32l-0.12-0.12l-0.12,1.5
		v0.24l-0.12,0.36l-0.12,0.18h-0.06l-0.12,0.12c-0.512,0.407-1.705,0.453-2.34,0.42h-0.6c-0.314-0.092-0.652-0.066-0.96-0.18
		l-0.18-0.06l-0.06-0.06c-0.303-0.061-0.539-0.297-0.6-0.6l-0.06-0.06l-0.06-0.18v-0.24l-0.12,1.5l0.18,0.12
		c1.183,0.984,5.775,1.109,5.88-1.08l0.06-0.24"/>
	<path fill-rule="evenodd" clip-rule="evenodd" d="M204.446,30.95l-0.06-0.12l-0.12-0.06l-0.06-0.06l-0.12-0.06h-0.18l-0.24-0.12
		h-0.18l-0.06-0.06h-0.3l-0.12-0.06h-0.18c-0.53-0.032-0.686,0.037-1.14,0.06h-0.12l-0.06,0.06h-0.18
		c-1.049,0.323-1.395,1.368-0.84,2.28l0.06,0.12l0.12,0.06l0.06-1.02v-0.18l0.06-0.12c0.081-0.175,0.189-0.43,0.42-0.42l0.12-0.06
		l0.12-0.06c0.292-0.001,0.216-0.093,0.66-0.06h0.18l0.12-0.06h0.36l0.12,0.06h0.42l0.18,0.06h0.12l0.12,0.06l0.12,0.06h0.06
		l0.18,0.06l0.06,0.12l0.12,0.06l0.06,0.06v0.12l0.06,0.18v0.12"/>
	<path fill-rule="evenodd" clip-rule="evenodd" d="M204.866,32.03v-0.36l-0.06-0.18l-0.06-0.12v-0.12l-0.12-0.06l-0.06-0.12
		l-0.12-0.12l-0.06,1.02v0.18l-0.06,0.12v0.12l-0.12,0.12v0.06l-0.24,0.12l-0.06,0.06l-0.12,0.06h-0.18l-0.06,0.06h-0.24l-0.18,0.06
		h-0.96c-0.395,0.008-1.316-0.178-1.38-0.66l-0.06-0.12v-0.18l-0.06,1.02l0.12,0.12l0.12,0.06c0.197,0.192,0.47,0.232,0.72,0.3h0.24
		l0.12,0.06h1.32l0.12-0.06h0.18l0.18-0.06h0.12l0.12-0.06l0.18-0.06l0.06-0.06l0.12-0.06l0.3-0.3l0.06-0.12v-0.06l0.06-0.06
		l0.06-0.18v-0.24"/>
	<path fill-rule="evenodd" clip-rule="evenodd" d="M204.386,34.31h-0.06c-0.282-0.015-0.525-0.026-0.24,0.3l0.06,0.18h0.06
		l0.06,0.12l0.06,0.18v0.24l0.06,0.12"/>
	<path fill-rule="evenodd" clip-rule="evenodd" d="M204.866,35.57v-0.42l-0.06-0.06v-0.18l-0.18-0.36l-0.24-0.24v1.14l-0.06,0.06
		v0.3h-0.06l-0.12,0.24c-0.581,0.408-1.205,0.089-1.68-0.3h-0.06l-0.18-0.18l-0.12-0.06l-1.14-1.14l-0.12-0.06l-0.06-0.06
		c-0.313,0.032-0.3-0.098-0.48,0.12v2.64h0.06l0.06,0.06h0.24l0.12-0.12v-1.98l0.78,0.72l0.06,0.06
		c0.611,0.481,0.773,0.796,1.56,1.02l0.12,0.06h0.12c0.855,0.033,1.078-0.063,1.44-0.84v-0.3"/>
	<path fill-rule="evenodd" clip-rule="evenodd" d="M202.406,40.19v-1.02l-0.06,0.06c-0.1,0.2-0.2,0.4-0.3,0.6l-0.12,0.06v0.06
		l-0.36,0.18h-0.36l-0.24-0.12l-0.06-0.06v-0.06l-0.06-0.06l-0.12-0.24v-0.36v1.26l0.12,0.12l0.12,0.06h0.06l0.12,0.06h0.54
		l0.12-0.06h0.12l0.12-0.06l0.12-0.12l0.06-0.12l0.12-0.06"/>
	<path fill-rule="evenodd" clip-rule="evenodd" d="M204.446,38.09l-0.12-0.06l-0.12-0.06h-0.06l-0.12-0.06h-0.12l-0.18-0.06h-0.06
		l-0.12,0.06h-0.12l-0.06,0.06l-0.36,0.18l-0.06,0.12l-0.12,0.12l0.06,0.9l0.12-0.24c0.292-0.28-0.087-0.157,0.54-0.54h0.12
		l0.12-0.06c0.285-0.017,0.515,0.224,0.6,0.48v0.12l0.06,0.18"/>
	<path fill-rule="evenodd" clip-rule="evenodd" d="M204.866,39.29v-0.06c0.014-0.477-0.094-0.631-0.3-1.02l-0.12-0.12v1.2
		c-0.175,0.492,0.038,0.464-0.54,0.72h-0.24c-0.544-0.258-0.36-0.188-0.72-0.6l-0.06-0.12l-0.06-0.9l-0.12,0.24l-0.12,0.12v-0.06
		l-0.06-0.12l-0.12-0.12l-0.12-0.24l-0.12-0.12l-0.06-0.12l-0.48-0.24c-0.264,0.001-0.569-0.031-0.78,0.12l-0.12,0.06l-0.18,0.18
		c-0.445,0.586-0.392,1.677,0,2.28l0.06,0.06l0.12,0.06v-1.26c-0.015-0.233-0.005-0.488,0.18-0.66v-0.06l0.12-0.06
		c0.765-0.416,1.042,0.287,1.38,0.72v1.02l0.06-0.06l0.12-0.24l0.06-0.18h0.06l0.06,0.18l0.06,0.12c0.247,0.321,0.59,0.612,1.02,0.6
		h0.12l0.12-0.06c0.445,0.068,0.658-0.52,0.78-0.84v-0.3"/>
	<polyline fill-rule="evenodd" clip-rule="evenodd" points="204.746,43.85 204.326,43.25 201.866,43.25 201.866,41.81
		201.866,43.85 	"/>
	<polyline fill-rule="evenodd" clip-rule="evenodd" points="204.866,43.43 204.866,43.25 204.806,43.07 204.806,43.01
		204.746,42.95 201.986,41.33 201.926,41.33 201.806,41.27 201.386,41.27 201.326,41.33 201.326,43.25 200.366,43.25 200.306,43.31
		200.306,43.79 200.366,43.85 201.326,43.85 201.326,44.39 201.446,44.51 201.626,44.51 201.806,44.45 201.866,44.39 201.866,41.81
		204.326,43.25 204.746,43.85 204.806,43.73 204.806,43.61 204.866,43.55 	"/>
	<polyline fill-rule="evenodd" clip-rule="evenodd" points="202.346,47.39 202.346,46.31 202.346,46.37 202.286,46.49
		202.286,46.67 202.226,46.67 202.106,46.91 202.046,46.91 201.926,47.03 201.806,47.09 201.746,47.15 201.626,47.15 201.506,47.21
		200.426,47.63 200.306,47.75 200.306,48.23 200.366,48.29 200.486,48.29 200.666,48.23 201.626,47.81 201.686,47.81 201.926,47.69
		202.106,47.63 202.166,47.51 202.286,47.45 	"/>
	<path fill-rule="evenodd" clip-rule="evenodd" d="M204.386,47.75l-0.06-1.38v0.36l-0.06,0.18v0.06l-0.06,0.12l-0.24,0.24h-0.12
		l-0.12,0.06h-0.18c-0.422,0.045-0.736-0.401-0.72-0.78v-0.72l-0.12,1.68l0.12,0.12l0.06,0.12l0.06,0.06l0.12,0.06l0.18,0.06h0.12
		l0.12,0.06c0.53,0.03,0.225-0.088,0.6-0.06l0.06-0.06l0.12-0.06"/>
	<polyline fill-rule="evenodd" clip-rule="evenodd" points="204.806,46.49 204.806,45.47 204.746,45.35 204.566,45.29
		200.366,45.29 200.306,45.35 200.306,45.83 200.366,45.89 202.346,45.89 202.346,47.39 202.406,47.27 202.526,47.15 202.526,47.27
		202.646,47.51 202.706,47.57 202.826,45.89 204.326,45.89 204.326,46.37 204.386,47.75 204.506,47.69 204.626,47.45 204.686,47.39
		204.746,47.27 204.746,47.09 204.806,46.97 204.806,46.61 	"/>
	<path fill-rule="evenodd" clip-rule="evenodd" d="M204.866,49.49l-0.06-0.18v-0.12h-3.24l-0.12,0.06h-0.12l-0.12,0.06h-0.06
		l-0.12,0.06l-0.12,0.12l-0.12,0.06l-0.12,0.12h-0.06l-0.12,0.24c-0.172,0.29-0.265,0.622-0.24,0.96v0.3
		c0.161,0.509,0.007,0.355,0.36,0.84l0.06,0.12l0.06,0.06v-1.32l0.06-0.18v-0.12l0.06-0.12l0.06-0.18l0.3-0.3l0.12-0.06
		c0.156-0.078,0.479-0.144,0.66-0.12h2.82v-0.18"/>
	<path fill-rule="evenodd" clip-rule="evenodd" d="M204.866,52.31l-0.06-0.18v-0.12h-2.82c-0.171,0.013-0.554-0.113-0.72-0.18
		l-0.12-0.06l-0.18-0.18l-0.12-0.24l-0.06-0.06v-0.24l-0.06-0.18v1.32l0.12,0.06l0.12,0.12l0.12,0.06l0.18,0.06h0.12l0.12,0.06h0.18
		l0.12,0.06h2.94l0.06-0.06v-0.12"/>
	<path fill-rule="evenodd" clip-rule="evenodd" d="M202.406,56.39v-1.32v0.18c-0.168,0.328,0.092,0.312-0.24,0.6l-0.12,0.12
		l-0.12,0.06h-0.06l-0.12,0.06h-0.36l-0.18-0.06l-0.12-0.06l-0.06-0.12h-0.06l-0.06-0.12l-0.06-0.18v-0.06l-0.06-0.12v-1.02v2.1
		l0.12,0.06l0.06,0.06l0.24,0.12h0.24l0.18,0.06l0.12-0.06h0.12l0.18-0.06h0.06l0.12-0.06l0.12-0.12"/>
	<path fill-rule="evenodd" clip-rule="evenodd" d="M204.446,56.21l-0.12-1.26v0.18c0.001,1.015-1.603,0.874-1.44-0.12v-0.66
		l-0.06,1.62l0.06,0.12l0.12,0.12l0.36,0.18l0.18,0.06h0.36l0.24-0.12h0.06l0.12-0.06"/>
	<path fill-rule="evenodd" clip-rule="evenodd" d="M204.806,55.01v-1.08l-0.06-0.12l-0.18-0.06h-4.08l-0.12,0.06v0.06l-0.06,0.12
		v1.5l0.06,0.12v0.12c0.062,0.199,0.129,0.352,0.24,0.54l0.06,0.06l0.12,0.12v-2.1h1.62v2.04l0.12-0.06l0.18-0.36v-0.12l0.12,0.12
		l0.06-1.62h1.44v0.6l0.12,1.26l0.06-0.12l0.06-0.06l0.18-0.36v-0.06l0.06-0.18v-0.24"/>
	<polyline fill-rule="evenodd" clip-rule="evenodd" points="202.346,59.69 202.346,58.61 202.346,58.67 202.286,58.79
		202.286,58.97 202.226,58.97 202.106,59.21 202.046,59.21 201.926,59.33 201.806,59.39 201.746,59.45 201.626,59.45 201.506,59.51
		200.426,59.93 200.306,60.05 200.306,60.53 200.366,60.59 200.486,60.59 200.666,60.53 201.626,60.11 201.686,60.11 201.926,59.99
		202.106,59.93 202.166,59.81 202.286,59.75 	"/>
	<path fill-rule="evenodd" clip-rule="evenodd" d="M204.386,60.05l-0.06-1.38v0.36l-0.06,0.18v0.06l-0.06,0.12l-0.24,0.24h-0.12
		l-0.12,0.06h-0.18c-0.422,0.045-0.736-0.401-0.72-0.78v-0.72l-0.12,1.68l0.12,0.12l0.06,0.12l0.06,0.06l0.12,0.06l0.18,0.06h0.12
		l0.12,0.06c0.53,0.03,0.225-0.088,0.6-0.06l0.06-0.06l0.12-0.06"/>
	<polyline fill-rule="evenodd" clip-rule="evenodd" points="204.806,58.79 204.806,57.77 204.746,57.65 204.566,57.59
		200.366,57.59 200.306,57.65 200.306,58.13 200.366,58.19 202.346,58.19 202.346,59.69 202.406,59.57 202.526,59.45 202.526,59.57
		202.646,59.81 202.706,59.87 202.826,58.19 204.326,58.19 204.326,58.67 204.386,60.05 204.506,59.99 204.626,59.75 204.686,59.69
		204.746,59.57 204.746,59.39 204.806,59.27 204.806,58.91 	"/>

		<rect x="215.006" y="21.29" fill="none" stroke="#000000" stroke-width="0.24" stroke-linecap="round" stroke-linejoin="round" stroke-miterlimit="10" width="42.6" height="8.64"/>

		<path fill="none" stroke="#000000" stroke-width="0.24" stroke-linecap="round" stroke-linejoin="round" stroke-miterlimit="10" d="
		M215.006,21.29"/>

		<rect x="215.006" y="36.83" fill="none" stroke="#000000" stroke-width="0.24" stroke-linecap="round" stroke-linejoin="round" stroke-miterlimit="10" width="36.84" height="5.88"/>

		<path fill="none" stroke="#000000" stroke-width="0.24" stroke-linecap="round" stroke-linejoin="round" stroke-miterlimit="10" d="
		M215.006,36.83"/>

		<rect x="215.006" y="48.23" fill="none" stroke="#000000" stroke-width="0.24" stroke-linecap="round" stroke-linejoin="round" stroke-miterlimit="10" width="36.84" height="5.88"/>

		<path fill="none" stroke="#000000" stroke-width="0.24" stroke-linecap="round" stroke-linejoin="round" stroke-miterlimit="10" d="
		M215.006,48.23"/>

		<rect x="215.006" y="60.95" fill="none" stroke="#000000" stroke-width="0.24" stroke-linecap="round" stroke-linejoin="round" stroke-miterlimit="10" width="42.6" height="8.64"/>

		<path fill="none" stroke="#000000" stroke-width="0.24" stroke-linecap="round" stroke-linejoin="round" stroke-miterlimit="10" d="
		M215.006,60.95"/>

		<line fill="none" stroke="#000000" stroke-width="0.72" stroke-linecap="round" stroke-linejoin="round" stroke-miterlimit="10" x1="288.866" y1="45.47" x2="269.186" y2="45.47"/>
	<path fill-rule="evenodd" clip-rule="evenodd" d="M299.246,40.37h-0.3l-0.18,0.06l-0.12,0.06l-0.06,0.12v6.72l0.06,0.36l0.12,0.6
		l0.12,0.3c0.25,0.599,0.362,0.812,0.84,1.26l0.48,0.36l0.3,0.12c1.244,0.628,3.401,0.492,4.5-0.42l0.18-0.24l0.12-0.12h-2.88
		c-0.596,0.072-1.438-0.238-1.8-0.72h-0.06l-0.18-0.24l-0.12-0.3l-0.18-0.3l-0.06-0.24l-0.06-0.3v-6.84l-0.06-0.12l-0.12-0.06
		l-0.18-0.06"/>
	<polyline fill-rule="evenodd" clip-rule="evenodd" points="305.606,40.37 305.246,40.37 305.066,40.43 304.946,40.49
		304.886,40.61 304.886,47.45 304.826,47.75 304.766,47.99 304.766,48.05 304.586,48.35 304.466,48.65 304.286,48.89 303.806,49.25
		303.506,49.37 303.386,49.43 303.086,49.49 302.786,49.55 302.426,49.55 305.306,49.55 305.546,49.31 305.726,49.07 305.966,48.47
		306.026,48.41 306.206,47.51 306.266,47.15 306.266,40.61 306.206,40.49 306.086,40.43 305.906,40.37 	"/>
	<path fill-rule="evenodd" clip-rule="evenodd" d="M308.366,48.71h-0.06l-0.12,0.12v0.18l-0.06,0.3v0.06l0.06,0.3l2.82-0.12h-0.12
		c-0.529,0.066-1.778-0.362-2.16-0.72h-0.06"/>
	<polyline fill-rule="evenodd" clip-rule="evenodd" points="313.826,41.27 311.426,41.39 311.666,41.39 311.966,41.45
		312.266,41.51 312.626,41.63 313.586,42.11 313.706,42.05 313.766,41.93 313.826,41.75 313.826,41.51 	"/>
	<path fill-rule="evenodd" clip-rule="evenodd" d="M311.486,40.25h-0.3l-0.3,0.06c-2.075,0.197-3.064,2.159-2.16,3.96l0.18,0.24
		l0.42,0.42c0.277,0.388,1.455,0.887,1.92,1.08l0.3,0.18l0.18,0.06l0.3,0.18l0.24,0.18l0.12,0.06l0.18,0.24l0.24,0.24l0.06,0.12
		l0.06,0.24l0.06,0.36v0.12l-0.12,0.6h-0.06l-0.12,0.3l-0.24,0.24h-0.06l-0.3,0.18l-0.3,0.12l-0.12,0.06l-0.36,0.06h-0.3l-2.82,0.12
		l0.12,0.24l0.06,0.06c2.314,1.544,6.387,0.741,6-2.7l-0.06-0.3l-0.24-0.6c-0.719-1.041-1.977-1.444-3.06-1.98l-0.24-0.12l-0.3-0.18
		l-0.06-0.12l-0.24-0.18l-0.18-0.24l-0.06-0.12l-0.12-0.3l-0.06-0.36l0.06-0.24l0.06-0.3l0.12-0.18l0.18-0.24l0.24-0.18l0.3-0.12
		l0.06-0.06l0.3-0.06h0.36l2.4-0.12l-0.06-0.18v-0.06l-0.12-0.12v-0.06l-0.3-0.18l-0.24-0.06l-0.6-0.24l-0.36-0.06l-0.36-0.06"/>
	<path fill-rule="evenodd" clip-rule="evenodd" d="M322.286,45.83l-3,0.06h0.12c2.745-0.236,3.021,3.654,0.24,3.54h-1.98l4.68,0.12
		l0.18-0.3c0.635-0.836,0.645-2.171,0.06-3.06l-0.18-0.24"/>
	<path fill-rule="evenodd" clip-rule="evenodd" d="M321.806,41.33l-2.76,0.18h0.36l0.3,0.06l0.3,0.06l0.3,0.12l0.24,0.18l0.18,0.24
		l0.18,0.3l0.06,0.3v0.66l-0.06,0.3l-0.12,0.3l-0.24,0.24v0.06l-0.24,0.18l-0.24,0.12l-0.18,0.12l-0.3,0.06h-1.92l3.66,0.18
		c1.044-0.627,1.255-2.065,0.84-3.12l-0.18-0.3"/>
	<path fill-rule="evenodd" clip-rule="evenodd" d="M319.106,40.43h-2.34l-0.3,0.12l-0.06,0.12l-0.06,0.3v9.24l0.12,0.24h0.06
		l0.3,0.12h3.06l0.3-0.06h0.3l0.24-0.06c0.716-0.243,0.638-0.185,1.32-0.6l0.06-0.12l0.24-0.18l-4.68-0.12v-3.54h1.62l3-0.06
		l-0.24-0.24l-0.24-0.18l-0.18-0.06l-0.6-0.24h0.06l0.24-0.12l-3.66-0.18v-3.3h1.38l2.76-0.18l-0.24-0.24
		c-0.66-0.547-0.924-0.474-1.74-0.66h-0.3"/>
	<path fill-rule="evenodd" clip-rule="evenodd" d="M333.386,48.71l-0.24,0.12c-0.435,0.316-0.893,0.648-1.44,0.72l-0.36,0.06
		l2.22,0.06l0.06-0.12v-0.54l-0.06-0.18l-0.06-0.12"/>
	<path fill-rule="evenodd" clip-rule="evenodd" d="M328.886,44.03l-0.36,0.48c-0.681,1.492-0.693,3.544,0.12,4.98l0.18,0.24
		l0.24,0.24c1.166,1.044,3.117,0.936,4.32,0l0.12-0.18l0.06-0.12l-2.22-0.06c-2.553,0.257-2.605-5.384-0.36-5.52l0.3-0.06"/>
	<path fill-rule="evenodd" clip-rule="evenodd" d="M331.346,42.95h-0.06c-1.056,0.101-1.485,0.153-2.28,0.96l-0.12,0.12h2.4
		c0.753,0.089,1.189,0.237,1.8,0.72l0.24,0.12l0.18-0.12l0.06-0.06v-0.6l-0.06-0.18v-0.12l-0.18-0.12v-0.06l-0.3-0.18l-0.18-0.12
		l-0.3-0.12l-0.24-0.06l-0.3-0.12h-0.06l-0.3-0.06"/>
	<path fill-rule="evenodd" clip-rule="evenodd" d="M341.066,43.97l-2.64,0.06h0.12c0.609,0.05,1.247,0.273,1.56,0.84h0.06l0.12,0.3
		c0.671,1.555,0.398,4.589-1.92,4.44l-2.64,0.12h0.06l0.18,0.24c1.12,0.968,3.487,1.011,4.62,0.06l0.24-0.18l0.18-0.24
		c1.088-1.086,1.167-3.521,0.54-4.86l-0.12-0.3l-0.18-0.24"/>
	<path fill-rule="evenodd" clip-rule="evenodd" d="M338.486,42.95h-0.06c-3.468-0.122-4.381,4.086-2.88,6.54l0.18,0.24l2.64-0.12
		h-0.12c-2.771,0.192-2.773-5.859,0.18-5.58l2.64-0.06v-0.06c-0.525-0.511-1.183-0.825-1.92-0.9l-0.3-0.06"/>
	<polyline fill-rule="evenodd" clip-rule="evenodd" points="345.266,43.97 345.026,44.27 346.226,44.33 346.826,44.09
		347.126,44.09 	"/>
	<polyline fill-rule="evenodd" clip-rule="evenodd" points="344.426,43.07 344.126,43.07 343.946,43.13 343.826,43.19
		343.826,50.39 343.886,50.45 343.946,50.57 344.186,50.63 344.786,50.63 344.966,50.57 345.146,50.39 345.146,45.41 345.266,45.29
		345.446,45.05 345.926,44.57 346.166,44.45 346.226,44.33 345.026,44.27 345.026,43.31 344.966,43.19 344.906,43.13 344.726,43.07
			"/>
	<path fill-rule="evenodd" clip-rule="evenodd" d="M347.366,42.95h-0.24c-0.62,0.055-1.154,0.389-1.62,0.78l-0.24,0.24l1.86,0.12
		h0.36l0.3,0.12l0.24,0.18l0.24,0.24v0.06l0.18,0.24l0.06,0.36l0.06,0.24l0.06,0.36v4.56l0.12,0.12l0.18,0.06h0.66l0.18-0.06
		l0.12-0.12v-5.1l-0.12-0.6v-0.06l-0.12-0.3c-0.135-0.451-0.646-1.021-1.08-1.2l-0.24-0.12l-0.3-0.06l-0.3-0.06"/>
	<polyline fill-rule="evenodd" clip-rule="evenodd" points="353.726,43.97 353.486,44.27 354.686,44.33 354.986,44.21
		355.286,44.09 355.586,44.09 	"/>
	<polyline fill-rule="evenodd" clip-rule="evenodd" points="352.886,43.07 352.586,43.07 352.406,43.13 352.286,43.19
		352.286,50.39 352.346,50.45 352.406,50.57 352.646,50.63 353.246,50.63 353.426,50.57 353.606,50.39 353.606,45.41 353.726,45.29
		353.906,45.05 354.386,44.57 354.626,44.45 354.686,44.33 353.486,44.27 353.486,43.31 353.426,43.19 353.366,43.13 353.186,43.07
			"/>
	<path fill-rule="evenodd" clip-rule="evenodd" d="M355.826,42.95h-0.24c-0.62,0.055-1.154,0.389-1.62,0.78l-0.24,0.24l1.86,0.12
		h0.36l0.3,0.12l0.24,0.18l0.24,0.24v0.06l0.18,0.24l0.06,0.36l0.06,0.24l0.06,0.36v4.56l0.12,0.12l0.18,0.06h0.66l0.18-0.06
		l0.12-0.12v-5.1l-0.12-0.6v-0.06l-0.12-0.3c-0.135-0.451-0.646-1.021-1.08-1.2l-0.24-0.12l-0.3-0.06l-0.3-0.06"/>
	<path fill-rule="evenodd" clip-rule="evenodd" d="M366.206,49.13l-0.3,0.06c-0.618,0.353-1.337,0.478-2.04,0.48l-2.76,0.06l0.3,0.3
		c0.865,0.656,1.953,0.721,3,0.66l0.3-0.06h0.18l0.3-0.06l0.3-0.12l0.24-0.06l0.3-0.12l0.24-0.12l0.06-0.12l0.06-0.06v-0.18
		l0.06-0.18l-0.06-0.24v-0.12l-0.06-0.12"/>
	<path fill-rule="evenodd" clip-rule="evenodd" d="M365.966,43.91l-2.4,0.06h0.36c0.988,0.287,1.362,0.779,1.5,1.8v0.36h-3.84
		l-1.32,0.06l-0.06,0.36c-0.07,0.861,0.225,2.591,0.9,3.18l2.76-0.06h-0.18c-1.405-0.127-2.045-0.84-2.1-2.22v-0.36h4.68l0.3-0.12
		l0.06-0.12l0.06-0.3v-0.96l-0.12-0.6l-0.12-0.24l-0.12-0.3l-0.18-0.24"/>
	<path fill-rule="evenodd" clip-rule="evenodd" d="M363.626,42.95h-0.18c-1.834,0.116-2.819,1.18-3.18,2.94v0.3l1.32-0.06v-0.18
		c0.053-1.127,0.834-1.983,1.98-1.98l2.4-0.06l-0.12-0.18c-0.465-0.343-0.982-0.659-1.56-0.72l-0.3-0.06"/>
	<path fill-rule="evenodd" clip-rule="evenodd" d="M373.586,48.71l-0.24,0.12c-0.435,0.316-0.893,0.648-1.44,0.72l-0.36,0.06
		l2.22,0.06l0.06-0.12v-0.54l-0.06-0.18l-0.06-0.12"/>
	<path fill-rule="evenodd" clip-rule="evenodd" d="M369.086,44.03l-0.36,0.48c-0.681,1.492-0.693,3.544,0.12,4.98l0.18,0.24
		l0.24,0.24c1.166,1.044,3.117,0.936,4.32,0l0.12-0.18l0.06-0.12l-2.22-0.06c-2.553,0.257-2.605-5.384-0.36-5.52l0.3-0.06"/>
	<path fill-rule="evenodd" clip-rule="evenodd" d="M371.546,42.95h-0.06c-1.056,0.101-1.485,0.153-2.28,0.96l-0.12,0.12h2.4
		c0.753,0.089,1.189,0.238,1.8,0.72l0.24,0.12l0.18-0.12l0.06-0.06v-0.6l-0.06-0.18v-0.12l-0.18-0.12v-0.06l-0.3-0.18l-0.18-0.12
		l-0.3-0.12l-0.24-0.06l-0.3-0.12h-0.06l-0.3-0.06"/>
	<polyline fill-rule="evenodd" clip-rule="evenodd" points="378.986,49.37 378.866,49.43 378.686,49.49 378.446,49.55
		378.386,49.55 378.086,49.61 379.166,49.61 379.106,49.49 379.106,49.37 	"/>
	<path fill-rule="evenodd" clip-rule="evenodd" d="M376.466,41.15l-0.3,0.06h-0.24l-0.12,0.24v1.68h-1.08l-0.12,0.12v0.12l-0.06,0.3
		v0.12l0.06,0.24l0.24,0.18h0.96v4.2c-0.031,0.512,0.159,1.472,0.6,1.8l0.24,0.18l0.3,0.18c0.557,0.161,1.923,0.287,2.22-0.36v-0.6
		h-1.08c-0.907-0.038-0.964-0.782-0.96-1.5v-3.9h1.8l0.24-0.24v-0.6l-0.12-0.24h-1.92v-1.68l-0.06-0.12l-0.12-0.12h-0.18"/>
	<path fill-rule="evenodd" clip-rule="evenodd" d="M386.606,43.97l-2.64,0.06h0.12c0.499,0.059,1.053,0.18,1.38,0.6l0.18,0.24h0.06
		l0.12,0.3c0.671,1.555,0.398,4.589-1.92,4.44l-2.64,0.12h0.06l0.18,0.24c1.12,0.968,3.487,1.011,4.62,0.06l0.24-0.18l0.18-0.24
		c1.088-1.086,1.167-3.521,0.54-4.86l-0.12-0.3l-0.18-0.24"/>
	<path fill-rule="evenodd" clip-rule="evenodd" d="M384.026,42.95h-0.06c-3.468-0.122-4.381,4.086-2.88,6.54l0.18,0.24l2.64-0.12
		h-0.12c-2.771,0.192-2.773-5.859,0.18-5.58l2.64-0.06v-0.06c-0.525-0.511-1.183-0.825-1.92-0.9l-0.3-0.06"/>
	<polyline fill-rule="evenodd" clip-rule="evenodd" points="393.506,44.09 392.366,44.21 392.666,44.21 392.966,44.27
		393.146,44.33 393.326,44.39 393.446,44.27 	"/>
	<polyline fill-rule="evenodd" clip-rule="evenodd" points="389.966,43.07 389.666,43.07 389.486,43.13 389.366,43.19
		389.366,50.39 389.426,50.45 389.486,50.57 389.726,50.63 390.326,50.63 390.506,50.57 390.686,50.39 390.686,45.71 390.806,45.47
		391.166,44.99 391.406,44.75 391.586,44.51 391.706,44.39 390.566,44.33 390.566,43.31 390.506,43.19 390.446,43.13 390.266,43.07
			"/>
	<path fill-rule="evenodd" clip-rule="evenodd" d="M392.486,42.95h-0.18l-0.3,0.06l-0.18,0.06l-0.48,0.36l-0.24,0.24l-0.18,0.12
		l-0.18,0.24l-0.18,0.3l1.14,0.06l0.3-0.12l0.06-0.06h0.3l1.14-0.12v-0.3c0.024-0.512,0.03-0.704-0.54-0.78l-0.24-0.06"/>
</g>
</svg>
