<?xml version="1.0" encoding="utf-8"?>
<!-- Generator: Adobe Illustrator 24.1.2, SVG Export Plug-In . SVG Version: 6.00 Build 0)  -->
<svg version="1.0" id="Layer_1" xmlns="http://www.w3.org/2000/svg" xmlns:xlink="http://www.w3.org/1999/xlink" x="0px" y="0px"
	 width="414px" height="237px" viewBox="0 0 414 237" enable-background="new 0 0 414 237" xml:space="preserve">
<g>

		<line fill="none" stroke="#000000" stroke-width="0.72" stroke-linecap="round" stroke-linejoin="round" stroke-miterlimit="10" x1="25.77" y1="30.69" x2="5.43" y2="63.21"/>

		<line fill="none" stroke="#000000" stroke-width="0.72" stroke-linecap="round" stroke-linejoin="round" stroke-miterlimit="10" x1="84.75" y1="2.13" x2="48.21" y2="13.05"/>

		<line fill="none" stroke="#000000" stroke-width="0.24" stroke-linecap="round" stroke-linejoin="round" stroke-miterlimit="10" x1="99.75" y1="46.71" x2="137.13" y2="66.75"/>

		<polyline fill="none" stroke="#000000" stroke-width="0.72" stroke-linecap="round" stroke-linejoin="bevel" stroke-miterlimit="10" points="
		45.63,15.39 45.27,15.87 45.15,16.41 45.21,16.95 45.51,17.43 45.93,17.79 	"/>

		<line fill="none" stroke="#000000" stroke-width="0.24" stroke-linecap="round" stroke-linejoin="round" stroke-miterlimit="10" x1="43.59" y1="39.75" x2="116.07" y2="83.49"/>

		<polyline fill="none" stroke="#000000" stroke-width="0.72" stroke-linecap="round" stroke-linejoin="bevel" stroke-miterlimit="10" points="
		27.87,30.27 27.33,30.03 26.73,30.09 26.19,30.33 25.83,30.75 	"/>

		<polyline fill="none" stroke="#000000" stroke-width="0.72" stroke-linecap="round" stroke-linejoin="round" stroke-miterlimit="10" points="
		139.77,23.91 129.15,19.05 118.41,14.49 107.55,10.17 96.63,6.03 85.65,2.19 	"/>

		<line fill="none" stroke="#000000" stroke-width="0.72" stroke-linecap="round" stroke-linejoin="bevel" stroke-miterlimit="10" x1="85.65" y1="2.13" x2="84.75" y2="2.13"/>

		<polyline fill="none" stroke="#000000" stroke-width="0.72" stroke-linecap="round" stroke-linejoin="bevel" stroke-miterlimit="10" points="
		172.05,40.29 166.83,37.23 161.55,34.29 156.21,31.47 150.81,28.77 145.29,26.25 139.77,23.85 	"/>

		<path fill="none" stroke="#000000" stroke-width="0.72" stroke-linecap="round" stroke-linejoin="bevel" stroke-miterlimit="10" d="
		M208.59,66.27l-4.92-4.14c-8.124-6.746-17.058-13.028-26.1-18.48l-5.58-3.24"/>

		<path fill="none" stroke="#000000" stroke-width="0.72" stroke-linecap="round" stroke-linejoin="bevel" stroke-miterlimit="10" d="
		M262.53,167.85l-1.56-6.12c-2.691-10.378-5.906-20.17-9.9-30.12l-2.4-5.82"/>

		<path fill="none" stroke="#000000" stroke-width="0.72" stroke-linecap="round" stroke-linejoin="bevel" stroke-miterlimit="10" d="
		M248.67,125.73l-2.16-5.16c-3.665-8.522-8.048-16.699-12.9-24.6l-3-4.62l-3.3-4.5l-3.48-4.38l-3.54-4.26l-3.78-4.14l-3.9-3.96
		l-4.02-3.84"/>

		<path fill="none" stroke="#000000" stroke-width="0.72" stroke-linecap="round" stroke-linejoin="bevel" stroke-miterlimit="10" d="
		M257.49,194.67l1.26-3.24c2.359-6.452,3.593-13.298,3.78-20.16l-0.06-3.42"/>

		<polyline fill="none" stroke="#000000" stroke-width="0.72" stroke-linecap="round" stroke-linejoin="bevel" stroke-miterlimit="10" points="
		251.91,206.61 253.53,203.73 254.97,200.79 256.29,197.73 257.49,194.67 	"/>

		<line fill="none" stroke="#000000" stroke-width="0.72" stroke-linecap="round" stroke-linejoin="bevel" stroke-miterlimit="10" x1="251.67" y1="207.03" x2="251.91" y2="206.67"/>

		<polyline fill="none" stroke="#000000" stroke-width="0.72" stroke-linecap="round" stroke-linejoin="round" stroke-miterlimit="10" points="
		3.27,67.95 13.95,77.13 24.87,86.07 	"/>

		<polyline fill="none" stroke="#000000" stroke-width="0.72" stroke-linecap="round" stroke-linejoin="bevel" stroke-miterlimit="10" points="
		3.15,66.87 3.03,67.23 3.09,67.59 3.33,67.89 	"/>

		<path fill="none" stroke="#000000" stroke-width="0.72" stroke-linecap="round" stroke-linejoin="round" stroke-miterlimit="10" d="
		M24.87,86.07l10.44,8.7c21.186,16.968,42.584,34.589,65.82,48.72l7.98,4.68"/>

		<polyline fill="none" stroke="#000000" stroke-width="0.24" stroke-linecap="round" stroke-linejoin="round" stroke-miterlimit="10" points="
		176.91,125.61 167.07,128.43 157.29,131.49 147.57,134.73 137.91,138.15 128.31,141.75 118.77,145.53 	"/>

		<polyline fill="none" stroke="#000000" stroke-width="0.24" stroke-linecap="round" stroke-linejoin="round" stroke-miterlimit="10" points="
		174.27,111.57 164.37,116.07 154.53,120.87 144.87,125.91 135.27,131.13 125.85,136.59 116.55,142.29 	"/>

		<line fill="none" stroke="#000000" stroke-width="0.24" stroke-linecap="round" stroke-linejoin="round" stroke-miterlimit="10" x1="176.91" y1="125.61" x2="174.27" y2="111.57"/>

		<line fill="none" stroke="#000000" stroke-width="0.24" stroke-linecap="round" stroke-linejoin="round" stroke-miterlimit="10" x1="118.77" y1="145.53" x2="116.55" y2="142.29"/>

		<polyline fill="none" stroke="#000000" stroke-width="0.24" stroke-linecap="round" stroke-linejoin="round" stroke-miterlimit="10" points="
		204.03,62.31 199.17,71.73 194.43,81.27 189.93,90.87 185.61,100.59 	"/>

		<polyline fill="none" stroke="#000000" stroke-width="0.24" stroke-linecap="round" stroke-linejoin="round" stroke-miterlimit="10" points="
		207.33,65.07 202.41,101.25 185.61,100.59 	"/>

		<path fill="none" stroke="#000000" stroke-width="0.24" stroke-linecap="round" stroke-linejoin="bevel" stroke-miterlimit="10" d="
		M164.37,92.01l0.12-1.86c0.132-7.026-2.742-13.717-8.16-18.24l-1.5-1.2"/>

		<path fill="none" stroke="#000000" stroke-width="0.24" stroke-linecap="round" stroke-linejoin="bevel" stroke-miterlimit="10" d="
		M131.91,92.97l3.12,0.78c6.917,1.729,15.006,2.165,22.08,1.32l3.18-0.42"/>

		<polyline fill="none" stroke="#000000" stroke-width="0.24" stroke-linecap="round" stroke-linejoin="round" stroke-miterlimit="10" points="
		116.07,83.49 121.23,86.85 126.57,89.97 131.97,92.97 	"/>

		<line fill="none" stroke="#000000" stroke-width="0.24" stroke-linecap="round" stroke-linejoin="round" stroke-miterlimit="10" x1="139.77" y1="61.83" x2="47.73" y2="13.29"/>

		<polyline fill="none" stroke="#000000" stroke-width="0.24" stroke-linecap="round" stroke-linejoin="bevel" stroke-miterlimit="10" points="
		154.83,70.77 151.23,68.31 147.51,65.97 143.67,63.81 139.71,61.89 	"/>

		<line fill="none" stroke="#000000" stroke-width="0.24" stroke-linecap="round" stroke-linejoin="round" stroke-miterlimit="10" x1="125.19" y1="81.03" x2="101.37" y2="66.51"/>

		<path fill="none" stroke="#000000" stroke-width="0.24" stroke-linecap="round" stroke-linejoin="bevel" stroke-miterlimit="10" d="
		M149.91,78.45l-1.2-1.86c-2.62-3.737-5.693-6.56-9.66-8.82l-1.98-0.96"/>

		<path fill="none" stroke="#000000" stroke-width="0.24" stroke-linecap="round" stroke-linejoin="bevel" stroke-miterlimit="10" d="
		M125.19,81.03l2.04,1.02c4.32,2.165,10.938,3.175,15.72,2.52l2.28-0.36"/>

		<path fill="none" stroke="#000000" stroke-width="0.24" stroke-linecap="round" stroke-linejoin="round" stroke-miterlimit="10" d="
		M145.23,84.21l2.22-0.6c2.479-0.451,3.301-1.509,2.82-4.02l-0.3-1.14"/>

		<line fill="none" stroke="#000000" stroke-width="0.72" stroke-linecap="round" stroke-linejoin="round" stroke-miterlimit="10" x1="47.61" y1="13.47" x2="45.57" y2="15.39"/>

		<line fill="none" stroke="#000000" stroke-width="0.72" stroke-linecap="round" stroke-linejoin="bevel" stroke-miterlimit="10" x1="48.21" y1="13.11" x2="47.61" y2="13.47"/>

		<path fill="none" stroke="#000000" stroke-width="0.24" stroke-linecap="round" stroke-linejoin="bevel" stroke-miterlimit="10" d="
		M215.91,218.13l-3.84-4.74c-23.016-28.178-52.94-51.099-86.1-66.06l-5.52-2.46"/>

		<polyline fill="none" stroke="#000000" stroke-width="0.72" stroke-linecap="round" stroke-linejoin="bevel" stroke-miterlimit="10" points="
		217.35,219.87 217.89,220.47 218.61,220.89 219.39,221.19 220.23,221.31 221.07,221.25 221.85,220.95 	"/>

		<path fill="none" stroke="#000000" stroke-width="0.24" stroke-linecap="round" stroke-linejoin="round" stroke-miterlimit="10" d="
		M5.43,63.21l9.06,8.22c27.441,24.429,57.176,46.78,88.38,66.18l10.44,6.42"/>

		<path fill="none" stroke="#000000" stroke-width="0.72" stroke-linecap="round" stroke-linejoin="round" stroke-miterlimit="10" d="
		M11.55,105.69l7.68,12.84c15.473,25.507,32.279,50.324,50.22,74.16l9.06,11.88"/>

		<line fill="none" stroke="#000000" stroke-width="0.72" stroke-linecap="round" stroke-linejoin="bevel" stroke-miterlimit="10" x1="11.43" y1="105.39" x2="11.55" y2="105.69"/>

		<path fill="none" stroke="#000000" stroke-width="0.72" stroke-linecap="round" stroke-linejoin="bevel" stroke-miterlimit="10" d="
		M78.57,204.51l2.04,2.52c12.644,15.187,31.469,24.387,51.18,25.32l3.3,0.06"/>

		<path fill="none" stroke="#000000" stroke-width="0.72" stroke-linecap="round" stroke-linejoin="round" stroke-miterlimit="10" d="
		M135.09,232.47l7.26-0.06c12.14-0.399,24.274-1.788,36.18-4.2l7.14-1.56"/>

		<line fill="none" stroke="#000000" stroke-width="0.72" stroke-linecap="round" stroke-linejoin="bevel" stroke-miterlimit="10" x1="185.67" y1="226.65" x2="186.15" y2="226.47"/>

		<line fill="none" stroke="#000000" stroke-width="0.72" stroke-linecap="round" stroke-linejoin="round" stroke-miterlimit="10" x1="195.51" y1="219.99" x2="186.21" y2="226.41"/>

		<line fill="none" stroke="#000000" stroke-width="0.72" stroke-linecap="round" stroke-linejoin="round" stroke-miterlimit="10" x1="222.39" y1="220.77" x2="251.67" y2="206.97"/>

		<path fill="none" stroke="#000000" stroke-width="0.72" stroke-linecap="round" stroke-linejoin="bevel" stroke-miterlimit="10" d="
		M197.79,213.21l-4.68-4.56c-18.956-18.012-40.423-33.405-63.72-45.3l-5.82-2.88"/>

		<line fill="none" stroke="#000000" stroke-width="0.72" stroke-linecap="round" stroke-linejoin="round" stroke-miterlimit="10" x1="49.77" y1="112.83" x2="3.75" y2="73.41"/>

		<line fill="none" stroke="#000000" stroke-width="0.72" stroke-linecap="round" stroke-linejoin="round" stroke-miterlimit="10" x1="2.37" y1="78.57" x2="11.43" y2="105.39"/>

		<line fill="none" stroke="#000000" stroke-width="0.24" stroke-linecap="round" stroke-linejoin="round" stroke-miterlimit="10" x1="44.25" y1="114.75" x2="2.37" y2="78.57"/>

		<path fill="none" stroke="#000000" stroke-width="0.24" stroke-linecap="round" stroke-linejoin="bevel" stroke-miterlimit="10" d="
		M192.57,217.11l-4.8-4.68c-19.559-18.588-41.7-34.226-65.76-46.44l-6.06-2.94"/>

		<line fill="none" stroke="#000000" stroke-width="0.24" stroke-linecap="round" stroke-linejoin="round" stroke-miterlimit="10" x1="75.33" y1="138.27" x2="78.75" y2="140.55"/>

		<path fill="none" stroke="#000000" stroke-width="0.24" stroke-linecap="round" stroke-linejoin="bevel" stroke-miterlimit="10" d="
		M116.01,162.99l1.2,0.12c1.87,0.049,4.071-0.66,5.52-1.86l0.84-0.84"/>

		<line fill="none" stroke="#000000" stroke-width="0.24" stroke-linecap="round" stroke-linejoin="round" stroke-miterlimit="10" x1="45.33" y1="116.79" x2="48.93" y2="119.49"/>

		<path fill="none" stroke="#000000" stroke-width="0.42" stroke-linecap="round" stroke-linejoin="bevel" stroke-miterlimit="10" d="
		M49.77,112.89l-0.54,0.9c-0.96,2.29-0.988,3.924-0.06,6.24l0.54,0.96"/>

		<polyline fill="none" stroke="#000000" stroke-width="0.42" stroke-linecap="round" stroke-linejoin="round" stroke-miterlimit="10" points="
		49.77,112.83 59.19,119.67 68.79,126.39 78.45,132.87 	"/>

		<polyline fill="none" stroke="#000000" stroke-width="0.42" stroke-linecap="round" stroke-linejoin="round" stroke-miterlimit="10" points="
		81.21,134.73 91.59,141.39 102.15,147.93 112.83,154.29 123.57,160.41 	"/>

		<path fill="none" stroke="#000000" stroke-width="0.42" stroke-linecap="round" stroke-linejoin="bevel" stroke-miterlimit="10" d="
		M106.11,158.07l1.2,0.18c2.436,0.283,4.939-0.47,6.9-1.92l0.9-0.78"/>

		<polyline fill="none" stroke="#000000" stroke-width="0.24" stroke-linecap="round" stroke-linejoin="bevel" stroke-miterlimit="10" points="
		45.57,109.23 44.97,110.01 44.55,110.91 44.25,111.81 44.07,112.83 44.07,113.79 44.25,114.75 	"/>

		<path fill="none" stroke="#000000" stroke-width="0.42" stroke-linecap="round" stroke-linejoin="bevel" stroke-miterlimit="10" d="
		M78.45,132.87l-0.78,0.6c-1.31,1.022-2.114,2.618-2.28,4.26v0.96"/>

		<path fill="none" stroke="#000000" stroke-width="0.42" stroke-linecap="round" stroke-linejoin="bevel" stroke-miterlimit="10" d="
		M81.21,134.73l-0.72,0.66c-1.184,1.124-1.781,3.011-1.74,4.62l0.12,1.02"/>

		<path fill="none" stroke="#000000" stroke-width="0.24" stroke-linecap="round" stroke-linejoin="bevel" stroke-miterlimit="10" d="
		M90.63,68.19l-0.84-2.28c-2.596-6.196-6.353-11.412-11.52-15.72l-1.92-1.5"/>

		<polyline fill="none" stroke="#000000" stroke-width="0.24" stroke-linecap="round" stroke-linejoin="bevel" stroke-miterlimit="10" points="
		76.41,48.69 74.79,47.49 73.11,46.41 71.37,45.51 69.51,44.73 67.65,44.13 65.67,43.71 	"/>

		<path fill="none" stroke="#000000" stroke-width="0.24" stroke-linecap="round" stroke-linejoin="bevel" stroke-miterlimit="10" d="
		M65.73,43.77l-1.08-0.06c-2.525,0.114-4.925,1.566-6.24,3.72l-0.48,0.96"/>

		<path fill="none" stroke="#000000" stroke-width="0.24" stroke-linecap="round" stroke-linejoin="bevel" stroke-miterlimit="10" d="
		M106.59,60.93l-0.54-2.28c-1.897-6.186-5.002-11.171-9.72-15.6l-1.8-1.5"/>

		<polyline fill="none" stroke="#000000" stroke-width="0.24" stroke-linecap="round" stroke-linejoin="bevel" stroke-miterlimit="10" points="
		94.47,41.55 92.37,39.57 90.15,37.71 87.87,36.03 85.41,34.47 82.89,33.09 	"/>

		<path fill="none" stroke="#000000" stroke-width="0.24" stroke-linecap="round" stroke-linejoin="bevel" stroke-miterlimit="10" d="
		M82.95,33.09l-1.2-0.6c-2.495-1.074-3.939-1.152-6.6-0.72l-1.32,0.42"/>

		<line fill="none" stroke="#000000" stroke-width="0.24" stroke-linecap="round" stroke-linejoin="bevel" stroke-miterlimit="10" x1="73.83" y1="32.13" x2="73.53" y2="32.31"/>

		<line fill="none" stroke="#000000" stroke-width="0.24" stroke-linecap="round" stroke-linejoin="round" stroke-miterlimit="10" x1="60.09" y1="41.67" x2="73.53" y2="32.31"/>

		<polyline fill="none" stroke="#000000" stroke-width="0.24" stroke-linecap="round" stroke-linejoin="bevel" stroke-miterlimit="10" points="
		60.09,41.67 59.19,42.45 58.41,43.29 57.69,44.19 57.15,45.21 56.73,46.35 56.43,47.43 	"/>

		<polyline fill="none" stroke="#000000" stroke-width="0.24" stroke-linecap="round" stroke-linejoin="bevel" stroke-miterlimit="10" points="
		114.45,54.63 111.57,56.73 108.81,58.95 106.23,61.35 103.71,63.93 101.43,66.57 	"/>

		<line fill="none" stroke="#000000" stroke-width="0.24" stroke-linecap="round" stroke-linejoin="round" stroke-miterlimit="10" x1="99.39" y1="73.41" x2="99.57" y2="69.21"/>

		<line fill="none" stroke="#000000" stroke-width="0.24" stroke-linecap="round" stroke-linejoin="round" stroke-miterlimit="10" x1="101.37" y1="66.51" x2="99.93" y2="68.31"/>

		<polyline fill="none" stroke="#000000" stroke-width="0.24" stroke-linecap="round" stroke-linejoin="bevel" stroke-miterlimit="10" points="
		99.93,68.31 99.69,68.73 99.57,69.21 	"/>

		<line fill="none" stroke="#000000" stroke-width="0.24" stroke-linecap="round" stroke-linejoin="round" stroke-miterlimit="10" x1="73.23" y1="32.49" x2="54.87" y2="22.59"/>

		<line fill="none" stroke="#000000" stroke-width="0.24" stroke-linecap="round" stroke-linejoin="round" stroke-miterlimit="10" x1="127.95" y1="80.79" x2="115.53" y2="73.23"/>

		<line fill="none" stroke="#000000" stroke-width="0.24" stroke-linecap="round" stroke-linejoin="round" stroke-miterlimit="10" x1="127.35" y1="62.97" x2="140.37" y2="69.93"/>

		<line fill="none" stroke="#000000" stroke-width="0.24" stroke-linecap="round" stroke-linejoin="round" stroke-miterlimit="10" x1="127.35" y1="66.21" x2="136.47" y2="71.07"/>

		<line fill="none" stroke="#000000" stroke-width="0.24" stroke-linecap="round" stroke-linejoin="round" stroke-miterlimit="10" x1="129.03" y1="77.49" x2="120.39" y2="72.27"/>

		<line fill="none" stroke="#000000" stroke-width="0.24" stroke-linecap="round" stroke-linejoin="round" stroke-miterlimit="10" x1="127.95" y1="80.79" x2="140.37" y2="69.93"/>

		<line fill="none" stroke="#000000" stroke-width="0.24" stroke-linecap="round" stroke-linejoin="round" stroke-miterlimit="10" x1="115.53" y1="73.23" x2="127.35" y2="62.97"/>

		<line fill="none" stroke="#000000" stroke-width="0.24" stroke-linecap="round" stroke-linejoin="round" stroke-miterlimit="10" x1="120.39" y1="72.27" x2="127.35" y2="66.21"/>

		<line fill="none" stroke="#000000" stroke-width="0.24" stroke-linecap="round" stroke-linejoin="round" stroke-miterlimit="10" x1="129.03" y1="77.49" x2="136.47" y2="71.07"/>

		<line fill="none" stroke="#000000" stroke-width="0.24" stroke-linecap="round" stroke-linejoin="round" stroke-miterlimit="10" x1="160.29" y1="94.59" x2="163.05" y2="94.17"/>

		<polyline fill="none" stroke="#000000" stroke-width="0.24" stroke-linecap="round" stroke-linejoin="bevel" stroke-miterlimit="10" points="
		163.05,94.17 163.53,93.99 163.89,93.69 164.19,93.33 164.31,92.85 	"/>

		<line fill="none" stroke="#000000" stroke-width="0.24" stroke-linecap="round" stroke-linejoin="round" stroke-miterlimit="10" x1="164.37" y1="92.01" x2="164.31" y2="92.85"/>

		<line fill="none" stroke="#000000" stroke-width="0.24" stroke-linecap="round" stroke-linejoin="bevel" stroke-miterlimit="10" x1="173.67" y1="100.35" x2="163.83" y2="93.69"/>

		<polyline fill="none" stroke="#000000" stroke-width="0.24" stroke-linecap="round" stroke-linejoin="bevel" stroke-miterlimit="10" points="
		185.61,100.59 179.67,100.29 173.73,100.35 173.61,103.11 173.67,105.93 173.91,108.75 174.27,111.51 	"/>

		<path fill="none" stroke="#000000" stroke-width="0.24" stroke-linecap="round" stroke-linejoin="bevel" stroke-miterlimit="10" d="
		M131.91,90.15l3.12,0.6c5.144,0.813,10.862,1.017,16.02,0.24l3.18-0.48"/>

		<line fill="none" stroke="#000000" stroke-width="0.24" stroke-linecap="round" stroke-linejoin="bevel" stroke-miterlimit="10" x1="131.43" y1="89.97" x2="131.85" y2="90.09"/>

		<line fill="none" stroke="#000000" stroke-width="0.24" stroke-linecap="round" stroke-linejoin="round" stroke-miterlimit="10" x1="131.43" y1="89.97" x2="99.45" y2="71.31"/>

		<path fill="none" stroke="#000000" stroke-width="0.24" stroke-linecap="round" stroke-linejoin="bevel" stroke-miterlimit="10" d="
		M154.17,90.51l0.06-1.86c-0.068-6.029-3.324-12.384-8.22-15.9l-1.56-1.08"/>

		<line fill="none" stroke="#000000" stroke-width="0.24" stroke-linecap="round" stroke-linejoin="round" stroke-miterlimit="10" x1="154.23" y1="90.51" x2="163.89" y2="93.69"/>

		<path fill="none" stroke="#000000" stroke-width="0.24" stroke-linecap="round" stroke-linejoin="bevel" stroke-miterlimit="10" d="
		M87.39,66.21l-0.9-2.22c-1.976-4.393-4.975-8.28-8.52-11.52l-1.8-1.5"/>

		<path fill="none" stroke="#000000" stroke-width="0.24" stroke-linecap="round" stroke-linejoin="bevel" stroke-miterlimit="10" d="
		M76.17,50.91l-1.62-1.2l-1.68-1.08l-1.74-0.9l-1.86-0.78l-1.86-0.6l-1.98-0.42l-1.08-0.06c-2.046,0.117-3.366,0.671-4.74,2.22
		l-0.66,0.9"/>

		<polyline fill="none" stroke="#000000" stroke-width="0.72" stroke-linecap="round" stroke-linejoin="round" stroke-miterlimit="10" points="
		56.31,29.07 43.77,33.33 43.59,39.75 	"/>

		<line fill="none" stroke="#000000" stroke-width="0.24" stroke-linecap="round" stroke-linejoin="round" stroke-miterlimit="10" x1="56.31" y1="29.07" x2="59.37" y2="42.27"/>

		<line fill="none" stroke="#000000" stroke-width="0.24" stroke-linecap="round" stroke-linejoin="round" stroke-miterlimit="10" x1="113.31" y1="73.83" x2="114.75" y2="63.81"/>

		<polyline fill="none" stroke="#000000" stroke-width="0.24" stroke-linecap="round" stroke-linejoin="bevel" stroke-miterlimit="10" points="
		116.13,62.55 115.65,62.67 115.23,62.97 114.93,63.33 114.75,63.81 	"/>

		<line fill="none" stroke="#000000" stroke-width="0.24" stroke-linecap="round" stroke-linejoin="round" stroke-miterlimit="10" x1="116.13" y1="62.55" x2="127.23" y2="61.47"/>

		<line fill="none" stroke="#000000" stroke-width="0.24" stroke-linecap="round" stroke-linejoin="round" stroke-miterlimit="10" x1="115.23" y1="62.97" x2="108.75" y2="59.01"/>

		<line fill="none" stroke="#000000" stroke-width="0.24" stroke-linecap="round" stroke-linejoin="round" stroke-miterlimit="10" x1="239.07" y1="222.15" x2="210.45" y2="234.87"/>

		<line fill="none" stroke="#000000" stroke-width="0.24" stroke-linecap="round" stroke-linejoin="round" stroke-miterlimit="10" x1="192.69" y1="217.11" x2="195.51" y2="219.99"/>

		<polyline fill="none" stroke="#000000" stroke-width="0.24" stroke-linecap="round" stroke-linejoin="round" stroke-miterlimit="10" points="
		188.55,224.79 210.45,234.87 193.41,221.43 	"/>

		<polyline fill="none" stroke="#000000" stroke-width="0.24" stroke-linecap="round" stroke-linejoin="round" stroke-miterlimit="10" points="
		206.97,226.35 196.89,219.03 197.79,213.21 	"/>

		<line fill="none" stroke="#000000" stroke-width="0.72" stroke-linecap="round" stroke-linejoin="round" stroke-miterlimit="10" x1="195.51" y1="219.99" x2="197.79" y2="213.21"/>

		<line fill="none" stroke="#000000" stroke-width="0.24" stroke-linecap="round" stroke-linejoin="round" stroke-miterlimit="10" x1="239.07" y1="222.15" x2="246.57" y2="216.45"/>

		<polyline fill="none" stroke="#000000" stroke-width="0.24" stroke-linecap="round" stroke-linejoin="bevel" stroke-miterlimit="10" points="
		246.57,216.45 246.93,216.09 247.11,215.61 247.17,215.13 	"/>

		<line fill="none" stroke="#000000" stroke-width="0.24" stroke-linecap="round" stroke-linejoin="round" stroke-miterlimit="10" x1="247.17" y1="215.13" x2="246.69" y2="209.31"/>

		<polyline fill="none" stroke="#000000" stroke-width="0.24" stroke-linecap="round" stroke-linejoin="round" stroke-miterlimit="10" points="
		206.97,226.35 220.83,224.19 222.39,220.77 	"/>

		<polyline fill="none" stroke="#000000" stroke-width="0.24" stroke-linecap="round" stroke-linejoin="bevel" stroke-miterlimit="10" points="
		120.93,139.59 118.65,140.61 116.49,141.81 114.45,143.19 112.53,144.69 110.73,146.37 109.11,148.23 	"/>

		<path fill="none" stroke="#000000" stroke-width="0.72" stroke-linecap="round" stroke-linejoin="bevel" stroke-miterlimit="10" d="
		M207.45,218.61l-4.8-4.98c-24.255-24.642-52.721-45.12-83.82-60.24l-6.24-2.94"/>

		<line fill="none" stroke="#000000" stroke-width="0.24" stroke-linecap="round" stroke-linejoin="round" stroke-miterlimit="10" x1="120.45" y1="144.87" x2="112.65" y2="150.39"/>

		<polyline fill="none" stroke="#000000" stroke-width="0.24" stroke-linecap="round" stroke-linejoin="bevel" stroke-miterlimit="10" points="
		207.45,218.55 204.69,219.15 201.99,219.87 199.35,220.89 	"/>

		<polyline fill="none" stroke="#000000" stroke-width="0.72" stroke-linecap="round" stroke-linejoin="round" stroke-miterlimit="10" points="
		3.75,73.41 1.71,75.21 2.37,78.57 	"/>

		<line fill="none" stroke="#000000" stroke-width="0.24" stroke-linecap="round" stroke-linejoin="round" stroke-miterlimit="10" x1="84.75" y1="34.05" x2="70.95" y2="45.27"/>

		<line fill="none" stroke="#000000" stroke-width="0.24" stroke-linecap="round" stroke-linejoin="round" stroke-miterlimit="10" x1="89.07" y1="36.81" x2="75.51" y2="47.91"/>

		<line fill="none" stroke="#000000" stroke-width="0.24" stroke-linecap="round" stroke-linejoin="round" stroke-miterlimit="10" x1="92.91" y1="39.99" x2="79.35" y2="51.03"/>

		<line fill="none" stroke="#000000" stroke-width="0.24" stroke-linecap="round" stroke-linejoin="round" stroke-miterlimit="10" x1="96.51" y1="43.23" x2="82.77" y2="54.45"/>

		<line fill="none" stroke="#000000" stroke-width="0.24" stroke-linecap="round" stroke-linejoin="round" stroke-miterlimit="10" x1="99.75" y1="46.71" x2="85.65" y2="58.17"/>

		<line fill="none" stroke="#000000" stroke-width="0.24" stroke-linecap="round" stroke-linejoin="round" stroke-miterlimit="10" x1="102.21" y1="50.19" x2="87.93" y2="61.83"/>

		<line fill="none" stroke="#000000" stroke-width="0.24" stroke-linecap="round" stroke-linejoin="round" stroke-miterlimit="10" x1="105.21" y1="56.19" x2="90.57" y2="68.07"/>

		<line fill="none" stroke="#000000" stroke-width="0.24" stroke-linecap="round" stroke-linejoin="round" stroke-miterlimit="10" x1="106.35" y1="59.91" x2="93.87" y2="70.11"/>

		<line fill="none" stroke="#000000" stroke-width="0.24" stroke-linecap="round" stroke-linejoin="round" stroke-miterlimit="10" x1="80.49" y1="31.95" x2="65.97" y2="43.71"/>

		<line fill="none" stroke="#000000" stroke-width="0.24" stroke-linecap="round" stroke-linejoin="round" stroke-miterlimit="10" x1="77.61" y1="31.47" x2="61.95" y2="44.25"/>

		<line fill="none" stroke="#000000" stroke-width="0.72" stroke-linecap="round" stroke-linejoin="round" stroke-miterlimit="10" x1="108.09" y1="147.63" x2="112.65" y2="150.39"/>

		<line fill="none" stroke="#000000" stroke-width="0.72" stroke-linecap="round" stroke-linejoin="round" stroke-miterlimit="10" x1="221.91" y1="221.01" x2="222.39" y2="220.77"/>

		<polyline fill="none" stroke="#000000" stroke-width="0.72" stroke-linecap="round" stroke-linejoin="round" stroke-miterlimit="10" points="
		45.93,17.79 54.87,22.59 56.31,29.07 	"/>

		<line fill="none" stroke="#000000" stroke-width="0.72" stroke-linecap="round" stroke-linejoin="round" stroke-miterlimit="10" x1="43.59" y1="39.75" x2="27.81" y2="30.21"/>

		<line fill="none" stroke="#000000" stroke-width="0.72" stroke-linecap="round" stroke-linejoin="round" stroke-miterlimit="10" x1="5.43" y1="63.21" x2="3.15" y2="66.81"/>

		<polyline fill="none" stroke="#000000" stroke-width="0.24" stroke-linecap="round" stroke-linejoin="bevel" stroke-miterlimit="10" points="
		44.31,114.81 44.49,115.53 44.85,116.19 45.33,116.79 	"/>

		<path fill="none" stroke="#000000" stroke-width="0.24" stroke-linecap="round" stroke-linejoin="bevel" stroke-miterlimit="10" d="
		M71.67,159.51l0.78,1.02c1.942,2.326,5.233,3.54,8.22,3.18l1.32-0.24"/>

		<path fill="none" stroke="#000000" stroke-width="0.24" stroke-linecap="round" stroke-linejoin="bevel" stroke-miterlimit="10" d="
		M68.67,148.17l-0.24,1.5c-0.312,3.031,0.516,6.156,2.28,8.64l0.96,1.2"/>

		<line fill="none" stroke="#000000" stroke-width="0.24" stroke-linecap="round" stroke-linejoin="bevel" stroke-miterlimit="10" x1="73.47" y1="146.49" x2="71.55" y2="146.07"/>

		<polyline fill="none" stroke="#000000" stroke-width="0.24" stroke-linecap="round" stroke-linejoin="bevel" stroke-miterlimit="10" points="
		85.05,157.23 84.51,155.73 83.79,154.35 82.89,153.09 	"/>

		<polyline fill="none" stroke="#000000" stroke-width="0.24" stroke-linecap="round" stroke-linejoin="bevel" stroke-miterlimit="10" points="
		71.55,146.13 70.83,146.19 70.11,146.43 69.51,146.85 69.03,147.45 68.67,148.11 	"/>

		<path fill="none" stroke="#000000" stroke-width="0.24" stroke-linecap="round" stroke-linejoin="bevel" stroke-miterlimit="10" d="
		M81.33,163.59l0.78-0.18c2.29-0.831,3.55-2.937,3.18-5.34l-0.24-0.78"/>

		<polyline fill="none" stroke="#000000" stroke-width="0.24" stroke-linecap="round" stroke-linejoin="bevel" stroke-miterlimit="10" points="
		82.89,153.15 80.73,151.11 78.45,149.31 76.05,147.69 	"/>

		<line fill="none" stroke="#000000" stroke-width="0.24" stroke-linecap="round" stroke-linejoin="bevel" stroke-miterlimit="10" x1="76.11" y1="147.75" x2="73.53" y2="146.55"/>

		<polyline fill="none" stroke="#000000" stroke-width="0.42" stroke-linecap="round" stroke-linejoin="bevel" stroke-miterlimit="10" points="
		86.13,167.19 87.03,166.59 87.93,165.87 88.65,165.03 89.25,164.07 89.67,163.05 89.97,161.97 	"/>

		<path fill="none" stroke="#000000" stroke-width="0.42" stroke-linecap="round" stroke-linejoin="bevel" stroke-miterlimit="10" d="
		M89.91,161.97l0.06-1.44c-0.01-2.046-0.929-5.22-2.1-6.9l-0.84-1.2"/>

		<path fill="none" stroke="#000000" stroke-width="0.42" stroke-linecap="round" stroke-linejoin="bevel" stroke-miterlimit="10" d="
		M81.63,146.43l-1.32-1.02c-3.126-2.609-12.673-8.441-15.18-2.22l-0.24,0.84l-0.36,1.8c-0.921,6.737,1.402,13.212,6.12,18.06
		l1.32,1.2"/>

		<path fill="none" stroke="#000000" stroke-width="0.42" stroke-linecap="round" stroke-linejoin="bevel" stroke-miterlimit="10" d="
		M71.91,165.03l1.2,0.9c3.343,2.301,7.708,2.95,11.58,1.74l1.44-0.54"/>

		<polyline fill="none" stroke="#000000" stroke-width="0.42" stroke-linecap="round" stroke-linejoin="bevel" stroke-miterlimit="10" points="
		87.09,152.43 85.95,150.75 84.63,149.19 83.19,147.75 81.63,146.43 	"/>

		<polyline fill="none" stroke="#000000" stroke-width="0.72" stroke-linecap="round" stroke-linejoin="bevel" stroke-miterlimit="10" points="
		215.91,218.13 213.09,218.07 210.27,218.19 207.45,218.55 	"/>

		<line fill="none" stroke="#000000" stroke-width="0.72" stroke-linecap="round" stroke-linejoin="round" stroke-miterlimit="10" x1="215.91" y1="218.13" x2="217.29" y2="219.93"/>

		<polyline fill="none" stroke="#000000" stroke-width="0.42" stroke-linecap="round" stroke-linejoin="round" stroke-miterlimit="10" points="
		49.71,120.93 62.43,129.99 75.39,138.75 	"/>

		<polyline fill="none" stroke="#000000" stroke-width="0.42" stroke-linecap="round" stroke-linejoin="round" stroke-miterlimit="10" points="
		78.81,141.03 92.43,149.67 106.11,158.13 	"/>

		<line fill="none" stroke="#000000" stroke-width="0.24" stroke-linecap="round" stroke-linejoin="round" stroke-miterlimit="10" x1="107.85" y1="158.31" x2="116.01" y2="162.99"/>

		<line fill="none" stroke="#000000" stroke-width="0.24" stroke-linecap="round" stroke-linejoin="round" stroke-miterlimit="10" x1="81.21" y1="134.73" x2="78.45" y2="132.87"/>

		<line fill="none" stroke="#000000" stroke-width="0.24" stroke-linecap="round" stroke-linejoin="round" stroke-miterlimit="10" x1="154.23" y1="90.51" x2="149.61" y2="82.77"/>

		<line fill="none" stroke="#000000" stroke-width="0.72" stroke-linecap="round" stroke-linejoin="round" stroke-miterlimit="10" x1="233.13" y1="219.57" x2="285.63" y2="219.57"/>
	<path fill-rule="evenodd" clip-rule="evenodd" d="M308.19,214.41l-3.42,0.12h0.18l0.36,0.06c2.073,0.093,3.207,1.804,3.12,3.84v0.6
		c-0.215,2.05-1.123,3.351-3.3,3.42h-1.74l4.92,0.06c1.962-1.684,2.079-5.901,0.3-7.74l-0.18-0.18"/>
	<path fill-rule="evenodd" clip-rule="evenodd" d="M304.83,213.45h-2.34l-0.3,0.12l-0.06,0.12l-0.06,0.3v9.24l0.12,0.24h0.06
		l0.3,0.12h2.88l0.36-0.06l0.3-0.06l0.3-0.06l0.3-0.06l0.24-0.06l0.6-0.24l0.24-0.18l0.3-0.18l0.24-0.18l-4.92-0.06v-7.92h1.38
		l3.42-0.12l-0.24-0.18c-0.711-0.503-1.546-0.724-2.4-0.78h-0.36"/>
	<path fill-rule="evenodd" clip-rule="evenodd" d="M317.31,222.15l-0.3,0.06c-0.618,0.353-1.337,0.478-2.04,0.48l-2.76,0.06l0.3,0.3
		c0.865,0.655,1.953,0.721,3,0.66l0.3-0.06h0.18l0.3-0.06l0.3-0.12l0.24-0.06l0.3-0.12l0.24-0.12l0.06-0.12l0.06-0.06v-0.18
		l0.06-0.18l-0.06-0.24v-0.12l-0.06-0.12"/>
	<path fill-rule="evenodd" clip-rule="evenodd" d="M317.07,216.93l-2.4,0.06h0.36c0.988,0.287,1.362,0.779,1.5,1.8v0.36h-3.84
		l-1.32,0.06l-0.06,0.36c-0.07,0.862,0.225,2.591,0.9,3.18l2.76-0.06h-0.18c-1.405-0.127-2.045-0.84-2.1-2.22v-0.36h4.68l0.3-0.12
		l0.06-0.12l0.06-0.3v-0.96l-0.12-0.6l-0.12-0.24l-0.12-0.3l-0.18-0.24"/>
	<path fill-rule="evenodd" clip-rule="evenodd" d="M314.73,215.97h-0.18c-1.834,0.116-2.819,1.18-3.18,2.94v0.3l1.32-0.06v-0.18
		c0.053-1.127,0.834-1.983,1.98-1.98l2.4-0.06l-0.12-0.18c-0.465-0.343-0.982-0.659-1.56-0.72l-0.3-0.06"/>
	<polyline fill-rule="evenodd" clip-rule="evenodd" points="322.41,222.45 320.97,222.51 321.09,222.63 323.19,222.63
		323.01,222.63 322.71,222.57 	"/>
	<polyline fill-rule="evenodd" clip-rule="evenodd" points="321.39,216.93 321.15,217.11 322.71,217.17 322.89,217.11
		323.25,217.11 	"/>
	<path fill-rule="evenodd" clip-rule="evenodd" d="M323.49,215.97h-0.3l-0.6,0.12l-0.3,0.12v0.06l-0.3,0.12l-0.24,0.18l-0.36,0.36
		l1.86,0.18h0.24c0.975,0.138,1.468,1.279,1.44,2.16l0.06,0.3v0.36c-0.013,0.905-0.339,2.571-1.5,2.64l-0.3,0.06h-2.1l0.24,0.24
		l0.24,0.18v0.06l0.3,0.18c4.611,2.584,6.196-6.127,2.28-7.26l-0.36-0.06"/>
	<path fill-rule="evenodd" clip-rule="evenodd" d="M320.49,212.67h-0.3l-0.24,0.06l-0.06,0.06l-0.06,0.12v10.62l0.12,0.06l0.18,0.06
		h0.54l0.18-0.06l0.12-0.06v-1.02l1.44-0.06l-0.24-0.18l-0.12-0.06l-0.24-0.18l-0.24-0.24l-0.18-0.24l-0.24-0.24v-2.82l0.12-0.24
		c0.375-0.389,0.512-0.526,0.96-0.84l0.48-0.24l-1.56-0.06v-4.2l-0.06-0.12l-0.12-0.06l-0.18-0.06"/>
	<polyline fill-rule="evenodd" clip-rule="evenodd" points="331.95,222.33 331.65,222.51 331.35,222.57 331.05,222.63
		332.91,222.69 333.15,222.45 	"/>
	<path fill-rule="evenodd" clip-rule="evenodd" d="M328.89,216.09h-0.3l-0.18,0.06l-0.12,0.06l-0.06,0.12v4.32l0.06,0.36v0.36
		l0.06,0.3l0.06,0.24v0.12l0.24,0.6l0.18,0.24v0.06l0.24,0.24c0.939,0.809,2.389,0.666,3.36,0l0.48-0.48l-1.86-0.06h-0.06l-0.3-0.06
		l-0.3-0.12l-0.24-0.12l-0.24-0.24v-0.06l-0.18-0.3l-0.18-0.9v-4.62l-0.12-0.06l-0.24-0.06"/>
	<polyline fill-rule="evenodd" clip-rule="evenodd" points="333.69,216.09 333.39,216.09 333.15,216.15 333.09,216.21
		333.03,216.33 333.03,221.25 332.91,221.43 332.25,222.09 332.01,222.27 331.95,222.33 333.15,222.45 333.15,223.41 333.21,223.47
		333.27,223.59 333.45,223.65 334.05,223.65 334.23,223.59 334.29,223.47 334.35,223.41 334.35,216.33 334.29,216.21 334.23,216.15
		333.99,216.09 	"/>
	<path fill-rule="evenodd" clip-rule="evenodd" d="M336.75,222.93l-0.18,0.24c-0.584,0.505-0.794,1.46-0.42,2.16l0.06,0.12h3h-0.24
		c-1.547,0.052-2.389-0.949-1.14-2.16l0.24-0.24"/>
	<polyline fill-rule="evenodd" clip-rule="evenodd" points="340.89,220.59 337.71,220.65 338.01,220.83 338.31,220.95
		338.49,221.01 338.79,221.01 339.15,221.07 339.33,221.07 339.63,221.01 340.23,220.89 340.29,220.89 340.59,220.71 	"/>
	<path fill-rule="evenodd" clip-rule="evenodd" d="M336.93,216.93l-0.18,0.24c-0.459,0.72-0.531,1.983,0,2.7l0.18,0.24l2.22-0.06
		h-0.3c-1.642-0.21-1.616-2.702-0.06-3.06h0.3"/>
	<path fill-rule="evenodd" clip-rule="evenodd" d="M339.15,215.97h-0.18c-0.859,0.145-1.111,0.148-1.8,0.72h-0.06l-0.18,0.24
		l2.16,0.06h0.36c1.282,0.147,1.599,2.088,0.6,2.76l-0.24,0.18h-0.06l-0.3,0.12h-0.3l-2.22,0.06l-0.12,0.12l-0.24,0.3l-0.24,0.48
		l-0.12,0.6v0.06l0.06,0.3l0.18,0.3l0.06,0.12l0.18,0.18l0.3,0.18l-0.24,0.18l1.32,0.12l1.8,0.12h0.48l0.3,0.12l0.24,0.12l0.18,0.12
		l0.18,0.24l0.06,0.36l-0.06,0.18l-0.06,0.3l-0.12,0.24l-0.24,0.18l-0.06,0.06l-0.24,0.12l-0.36,0.12l-0.3,0.06l-0.3,0.06h-3.36
		l0.54,0.54c1.14,0.516,2.439,0.576,3.66,0.36l0.24-0.12l0.3-0.06c1.215-0.412,2.035-1.687,1.44-2.94l-0.06-0.12l-0.18-0.24
		l-0.24-0.24l-0.18-0.12l-0.6-0.24l-0.3-0.06l-0.3-0.06h-0.36l-1.86-0.12h-0.06l-0.36-0.06l-0.24-0.12l-0.18-0.18l-0.06-0.3v-0.12
		l0.06-0.3l0.06-0.06l0.18-0.24l3.18-0.06l0.48-0.48l0.18-0.24l0.12-0.3l0.06-0.12c0.161-0.637,0.116-0.772,0.12-1.38l-0.12-0.3
		v-0.06l-0.12-0.3l-0.24-0.24h1.02l0.18-0.12l0.06-0.06v-0.48l-0.06-0.24l-0.18-0.12h-2.16l-0.18-0.06l-0.3-0.06h-0.3"/>
	<polyline fill-rule="evenodd" clip-rule="evenodd" points="350.61,222.45 349.17,222.51 349.29,222.63 351.39,222.63
		351.21,222.63 350.91,222.57 	"/>
	<polyline fill-rule="evenodd" clip-rule="evenodd" points="349.59,216.93 349.35,217.11 350.91,217.17 351.09,217.11
		351.45,217.11 	"/>
	<path fill-rule="evenodd" clip-rule="evenodd" d="M351.69,215.97h-0.3l-0.6,0.12l-0.3,0.12v0.06l-0.3,0.12l-0.24,0.18l-0.36,0.36
		l1.86,0.18h0.24c0.975,0.138,1.468,1.279,1.44,2.16l0.06,0.3v0.36c-0.013,0.905-0.339,2.571-1.5,2.64l-0.3,0.06h-2.1l0.24,0.24
		l0.24,0.18v0.06l0.3,0.18c4.611,2.584,6.196-6.127,2.28-7.26l-0.36-0.06"/>
	<path fill-rule="evenodd" clip-rule="evenodd" d="M348.69,212.67h-0.3l-0.24,0.06l-0.06,0.06l-0.06,0.12v10.62l0.12,0.06l0.18,0.06
		h0.54l0.18-0.06l0.12-0.06v-1.02l1.44-0.06l-0.24-0.18l-0.12-0.06l-0.24-0.18l-0.24-0.24l-0.18-0.24l-0.24-0.24v-2.82l0.12-0.24
		c0.375-0.389,0.512-0.526,0.96-0.84l0.24-0.12l0.24-0.12l-1.56-0.06v-4.2l-0.06-0.12l-0.12-0.06l-0.18-0.06"/>
	<path fill-rule="evenodd" clip-rule="evenodd" d="M362.19,216.99l-2.64,0.06h0.12c0.609,0.05,1.247,0.273,1.56,0.84h0.06l0.12,0.3
		c0.671,1.555,0.398,4.589-1.92,4.44l-2.64,0.12h0.06l0.18,0.24c4.137,2.532,7.315-1.536,5.46-5.52l-0.18-0.24"/>
	<path fill-rule="evenodd" clip-rule="evenodd" d="M359.61,215.97h-0.06c-3.468-0.122-4.381,4.086-2.88,6.54l0.18,0.24l2.64-0.12
		h-0.12c-2.771,0.192-2.773-5.859,0.18-5.58l2.64-0.06v-0.06c-0.525-0.511-1.183-0.825-1.92-0.9l-0.3-0.06"/>
	<polyline fill-rule="evenodd" clip-rule="evenodd" points="367.83,222.63 367.53,222.69 367.17,222.75 368.97,222.93
		369.21,222.69 	"/>
	<path fill-rule="evenodd" clip-rule="evenodd" d="M365.13,220.05l-0.18,0.24c-1.671,2.63,1.713,4.489,3.78,2.82l0.24-0.18
		l-1.8-0.18c-1.368,0.041-1.731-1.68-0.78-2.22v-0.06l0.3-0.12l0.6-0.12l0.3-0.06h1.44"/>
	<polyline fill-rule="evenodd" clip-rule="evenodd" points="364.89,216.93 364.89,217.47 364.95,217.65 365.01,217.71
		365.13,217.77 365.43,217.65 365.61,217.53 365.91,217.41 365.97,217.35 366.57,217.11 366.75,217.11 367.11,217.05 367.41,217.05
			"/>
	<path fill-rule="evenodd" clip-rule="evenodd" d="M367.53,215.97h-0.18c-0.796,0.114-1.681,0.181-2.28,0.78l-0.18,0.18l2.52,0.12
		c1.087-0.139,1.694,0.592,1.62,1.62v0.6h-1.86l-0.6,0.12l-0.24,0.06l-0.6,0.24l-0.24,0.12l-0.06,0.06l-0.3,0.18l3.9,0.12v1.5
		l-0.18,0.24l-0.24,0.18l-0.24,0.24l-0.24,0.12l-0.06,0.06l-0.24,0.12l1.38,0.06v0.72l0.06,0.12l0.18,0.06l0.3,0.06h0.06l0.3-0.06
		l0.18-0.06l0.06-0.12v-4.98l-0.06-0.36l-0.06-0.3c-0.139-0.993-0.73-1.492-1.68-1.68l-0.3-0.06l-0.36-0.06"/>
	<polyline fill-rule="evenodd" clip-rule="evenodd" points="376.83,217.11 375.69,217.23 375.99,217.23 376.29,217.29
		376.47,217.35 376.65,217.41 376.77,217.29 	"/>
	<polyline fill-rule="evenodd" clip-rule="evenodd" points="373.29,216.09 372.99,216.09 372.81,216.15 372.69,216.21
		372.69,223.41 372.75,223.47 372.81,223.59 373.05,223.65 373.65,223.65 373.83,223.59 374.01,223.41 374.01,218.73 374.13,218.49
		374.49,218.01 374.73,217.77 374.91,217.53 375.03,217.41 373.89,217.35 373.89,216.33 373.83,216.21 373.77,216.15 373.59,216.09
			"/>
	<path fill-rule="evenodd" clip-rule="evenodd" d="M375.81,215.97h-0.18l-0.3,0.06l-0.18,0.06l-0.48,0.36l-0.24,0.24l-0.18,0.12
		l-0.18,0.24l-0.18,0.3l1.14,0.06l0.3-0.12l0.06-0.06h0.3l1.14-0.12v-0.3c0.024-0.512,0.03-0.704-0.54-0.78l-0.24-0.06"/>
	<polyline fill-rule="evenodd" clip-rule="evenodd" points="381.69,222.45 381.45,222.57 381.27,222.63 380.91,222.63
		382.95,222.69 383.19,222.45 	"/>
	<path fill-rule="evenodd" clip-rule="evenodd" d="M378.63,217.05l-0.06,0.06c-1.926,3.033-0.095,8.785,4.14,5.82l0.24-0.24
		l-2.04-0.06h-0.3c-1.011-0.243-1.324-1.249-1.44-2.16v-0.66c-0.017-0.789,0.311-2.31,1.2-2.58l0.3-0.12h0.3"/>
	<polyline fill-rule="evenodd" clip-rule="evenodd" points="380.85,215.97 380.43,215.97 380.13,216.03 379.53,216.27
		379.29,216.39 379.05,216.57 378.81,216.81 378.63,217.05 383.01,217.05 382.53,216.57 382.23,216.39 381.99,216.27 381.81,216.15
		381.51,216.03 381.21,215.97 	"/>
	<path fill-rule="evenodd" clip-rule="evenodd" d="M383.67,212.67l-0.3,0.06h-0.24l-0.06,0.12l-0.06,0.06v4.14h-4.38l2.34,0.06h0.18
		c0.468,0.043,0.861,0.297,1.2,0.6l0.42,0.42l0.24,0.3v2.82l-0.12,0.18l-0.72,0.72l-0.24,0.18l-0.24,0.12h1.5v1.08l0.12,0.06
		l0.18,0.06h0.54l0.18-0.06l0.06-0.06l0.06-0.12v-10.5l-0.06-0.06l-0.06-0.12h-0.24"/>
	<path fill-rule="evenodd" clip-rule="evenodd" d="M389.91,222.03h-0.06l-0.06,0.12l-0.06,0.18c-0.138,1.101,0.463,1.084,1.5,1.32
		l0.06,0.06h0.3c0.797,0.031,1.692-0.023,2.34-0.54l0.24-0.24l0.18-0.24h-2.88l-0.3-0.12l-0.3-0.06l-0.24-0.12l-0.18-0.12
		l-0.24-0.12"/>
	<path fill-rule="evenodd" clip-rule="evenodd" d="M394.35,216.81l-1.92,0.18h0.06c0.615-0.034,0.933,0.162,1.44,0.42l0.24,0.12
		l0.12-0.12l0.06-0.18v-0.24"/>
	<path fill-rule="evenodd" clip-rule="evenodd" d="M392.43,215.97h-0.18l-0.36,0.06l-0.3,0.06c-0.689,0.142-1.255,0.563-1.56,1.2
		l-0.06,0.18l-0.06,0.3c-0.128,0.595,0.058,1.279,0.54,1.68l0.06,0.06l0.48,0.36l0.06,0.06c0.461,0.225,1.468,0.454,1.8,0.78
		l0.24,0.12l0.18,0.24l0.12,0.18l0.06,0.3l-0.06,0.24l-0.06,0.3l-0.06,0.12l-0.24,0.24l-0.18,0.06l-0.3,0.12l-0.24,0.06h-0.36h2.4
		l0.18-0.24v-0.06c0.233-0.416,0.218-0.987,0.12-1.44l-0.12-0.24v-0.06l-0.18-0.3l-0.18-0.24l-0.06-0.06l-0.24-0.18l-0.3-0.12
		l-0.06-0.06l-0.6-0.24l-0.06-0.06l-0.3-0.12c-0.443-0.197-1.014-0.31-1.26-0.78l-0.12-0.18l-0.06-0.3v-0.12l0.12-0.3v-0.06
		l0.24-0.24l0.06-0.12l0.3-0.12l0.3-0.06h0.3l1.92-0.18l-0.06-0.18v-0.06l-0.12-0.12l-0.24-0.18h-0.12l-0.3-0.12l-0.18-0.06
		l-0.3-0.06l-0.24-0.06"/>
	<polyline fill-rule="evenodd" clip-rule="evenodd" points="397.83,223.41 397.65,223.59 397.47,223.65 396.87,223.65
		396.63,223.59 396.57,223.47 396.51,223.41 396.51,212.91 396.57,212.79 396.63,212.73 396.87,212.67 397.47,212.67 397.65,212.73
		397.77,212.79 397.83,212.91 397.83,223.41 	"/>
	<path fill-rule="evenodd" clip-rule="evenodd" d="M405.87,216.99l-2.64,0.06h0.12c0.499,0.059,1.053,0.18,1.38,0.6l0.18,0.24h0.06
		l0.12,0.3c0.671,1.555,0.398,4.589-1.92,4.44l-2.64,0.12h0.06l0.18,0.24c4.137,2.532,7.315-1.536,5.46-5.52l-0.18-0.24"/>
	<path fill-rule="evenodd" clip-rule="evenodd" d="M403.29,215.97h-0.06c-3.468-0.122-4.381,4.086-2.88,6.54l0.18,0.24l2.64-0.12
		h-0.12c-2.771,0.192-2.773-5.859,0.18-5.58l2.64-0.06v-0.06c-0.525-0.511-1.183-0.825-1.92-0.9l-0.3-0.06"/>
	<polyline fill-rule="evenodd" clip-rule="evenodd" points="412.11,222.39 411.99,222.45 411.81,222.51 411.57,222.57
		411.51,222.57 411.21,222.63 412.29,222.63 412.23,222.51 412.23,222.39 	"/>
	<path fill-rule="evenodd" clip-rule="evenodd" d="M409.59,214.17l-0.3,0.06h-0.24l-0.12,0.24v1.68h-1.08l-0.12,0.12v0.12l-0.06,0.3
		v0.12l0.06,0.24l0.24,0.18h0.96v4.2c-0.031,0.512,0.159,1.472,0.6,1.8l0.24,0.18l0.3,0.18c0.557,0.161,1.923,0.287,2.22-0.36v-0.6
		h-1.08c-0.907-0.038-0.964-0.782-0.96-1.5v-3.9h1.8l0.24-0.24v-0.6l-0.12-0.24h-1.92v-1.68l-0.06-0.12l-0.12-0.12h-0.18"/>
</g>
</svg>
