<?xml version="1.0" encoding="UTF-8" standalone="no"?>
<!DOCTYPE svg PUBLIC "-//W3C//DTD SVG 1.1//EN" "http://www.w3.org/Graphics/SVG/1.1/DTD/svg11.dtd">
<!-- Generated by Microsoft Visio, SVG Export nrf_desktop_arch.svg Page-1 -->
<svg xmlns="http://www.w3.org/2000/svg" xmlns:xlink="http://www.w3.org/1999/xlink" xmlns:ev="http://www.w3.org/2001/xml-events"
		xmlns:v="http://schemas.microsoft.com/visio/2003/SVGExtensions/" width="7.76757in" height="6.95555in"
		viewBox="0 0 559.265 500.8" xml:space="preserve" color-interpolation-filters="sRGB" class="st17">
	<v:documentProperties v:langID="1035" v:viewMarkup="false"/>

	<style type="text/css">
	<![CDATA[
		.st1 {fill:#d9e1e2;stroke:none;stroke-width:1}
		.st2 {fill:#00a9ce;stroke:none;stroke-width:1}
		.st3 {fill:#ffffff;font-family:Arial;font-size:1.00001em}
		.st4 {font-size:1em}
		.st5 {font-size:0.83333em}
		.st6 {fill:#768692;stroke:none;stroke-width:1}
		.st7 {fill:#ffffff;font-family:Arial;font-size:0.583328em}
		.st8 {fill:#0077c8;stroke:none;stroke-width:1}
		.st9 {marker-end:url(#mrkr13-51);marker-start:url(#mrkr13-49);stroke:#333f48;stroke-linecap:butt;stroke-width:1}
		.st10 {fill:#333f48;fill-opacity:1;stroke:#333f48;stroke-opacity:1;stroke-width:0.40983606557377}
		.st11 {fill:#ffffff;font-family:Arial;font-size:0.833336em}
		.st12 {fill:none;stroke:#768692;stroke-width:1}
		.st13 {fill:none;stroke:none;stroke-width:1}
		.st14 {fill:#333f48;font-family:Arial;font-size:0.833336em}
		.st15 {fill:#768692;font-family:Arial;font-size:0.833336em}
		.st16 {fill:none;stroke:#768692;stroke-dasharray:7,5;stroke-width:1}
		.st17 {fill:none;fill-rule:evenodd;font-size:12px;overflow:visible;stroke-linecap:square;stroke-miterlimit:3}
	]]>
	</style>

	<defs id="Markers">
		<g id="lend13">
			<path d="M 3 1 L 0 0 L 3 -1 L 3 1 " style="stroke:none"/>
		</g>
		<marker id="mrkr13-49" class="st10" v:arrowType="13" v:arrowSize="0" v:setback="6.96" refX="6.96" orient="auto"
				markerUnits="strokeWidth" overflow="visible">
			<use xlink:href="#lend13" transform="scale(2.44) "/>
		</marker>
		<marker id="mrkr13-51" class="st10" v:arrowType="13" v:arrowSize="0" v:setback="7.32" refX="-7.32" orient="auto"
				markerUnits="strokeWidth" overflow="visible">
			<use xlink:href="#lend13" transform="scale(-2.44,-2.44) "/>
		</marker>
	</defs>
	<g v:mID="0" v:index="1" v:groupContext="foregroundPage">
		<title>Page-1</title>
		<v:pageProperties v:drawingScale="0.0393701" v:pageScale="0.0393701" v:drawingUnits="24" v:shadowOffsetX="8.50394"
				v:shadowOffsetY="-8.50394"/>
		<v:layer v:name="Connector" v:index="0"/>
		<g id="shape5-1" v:mID="5" v:groupContext="shape" transform="translate(209.136,-376.515)">
			<title>Nordic Light Grey</title>
			<rect x="0" y="425.682" width="346.25" height="75.1181" class="st1"/>
		</g>
		<g id="shape6-3" v:mID="6" v:groupContext="shape" transform="translate(216.271,-405.899)">
			<title>Nordic Blue.1433</title>
			<desc>Nordic proprietary Bluetooth® LE Link layer</desc>
			<v:textBlock v:margins="rect(4,4,4,4)"/>
			<v:textRect cx="83.3849" cy="482.02" width="166.77" height="37.5591"/>
			<rect x="0" y="463.241" width="166.77" height="37.5591" class="st2"/>
			<text x="35.7" y="478.42" class="st3" v:langID="1033"><v:paragraph v:horizAlign="1" v:bulletSize="0.166667"/><v:tabList/>Nordic proprietary<v:newlineChar/><tspan
						x="17.99" dy="1.2em" class="st4">Bluetooth</tspan><tspan class="st5">®</tspan> LE Link layer</text>		</g>
		<g id="shape7-8" v:mID="7" v:groupContext="shape" transform="translate(389.131,-405.899)">
			<title>Nordic Blue.1434</title>
			<desc>Zephyr SW Bluetooth® LE Link layer</desc>
			<v:textBlock v:margins="rect(4,4,4,4)"/>
			<v:textRect cx="78.7199" cy="482.02" width="157.44" height="37.5591"/>
			<rect x="0" y="463.241" width="157.44" height="37.5591" class="st6"/>
			<text x="48.71" y="478.42" class="st3" v:langID="1033"><v:paragraph v:horizAlign="1" v:bulletSize="0.166667"/><v:tabList/>Zephyr SW<v:newlineChar/><tspan
						x="13.33" dy="1.2em" class="st4">Bluetooth</tspan><tspan class="st5">®</tspan> LE Link layer</text>		</g>
		<g id="shape8-13" v:mID="8" v:groupContext="shape" transform="translate(216.271,-384.689)">
			<title>Nordic Sky</title>
			<desc>Host layer</desc>
			<v:textBlock v:margins="rect(4,4,4,4)"/>
			<v:textRect cx="164.559" cy="492.809" width="329.12" height="15.9815"/>
			<rect x="0" y="484.818" width="329.118" height="15.9815" class="st6"/>
			<text x="137.55" y="496.41" class="st3" v:langID="1033"><v:paragraph v:horizAlign="1" v:bulletSize="0.166667"/><v:tabList/>Host layer</text>		</g>
		<g id="shape9-16" v:mID="9" v:groupContext="shape" transform="translate(326.696,-316.626)">
			<title>Nordic Blue.1439</title>
			<desc>Discovery manager</desc>
			<v:textBlock v:margins="rect(4,4,4,4)"/>
			<v:textRect cx="22.3182" cy="481.871" width="44.64" height="37.8577"/>
			<rect x="0" y="462.942" width="44.6363" height="37.8577" class="st2"/>
			<text x="6.95" y="479.77" class="st7" v:langID="1033"><v:paragraph v:horizAlign="1" v:bulletSize="0.166667"/><v:tabList/>Discovery <tspan
						x="8.5" dy="1.2em" class="st4">manager</tspan></text>		</g>
		<g id="shape10-20" v:mID="10" v:groupContext="shape" transform="translate(288.356,-259.348)">
			<title>Nordic Lake.1449</title>
			<desc>BAS</desc>
			<v:textBlock v:margins="rect(4,4,4,4)"/>
			<v:textRect cx="12.4474" cy="486.627" width="24.9" height="28.3465"/>
			<rect x="0" y="472.453" width="24.8947" height="28.3465" class="st8"/>
			<text x="5.44" y="488.73" class="st7" v:langID="1033"><v:paragraph v:horizAlign="1" v:bulletSize="0.166667"/><v:tabList/>BAS</text>		</g>
		<g id="shape11-23" v:mID="11" v:groupContext="shape" transform="translate(522.927,-259.348)">
			<title>Nordic Lake.1450</title>
			<desc>Device descr.</desc>
			<v:textBlock v:margins="rect(4,4,4,4)"/>
			<v:textRect cx="16.2295" cy="486.627" width="32.46" height="28.3465"/>
			<rect x="0" y="472.453" width="32.459" height="28.3465" class="st8"/>
			<text x="5.53" y="484.53" class="st7" v:langID="1033"><v:paragraph v:horizAlign="1" v:bulletSize="0.166667"/><v:tabList/>Device <tspan
						x="6.7" dy="1.2em" class="st4">descr.</tspan></text>		</g>
		<g id="shape12-27" v:mID="12" v:groupContext="shape" transform="translate(106.894,-376.515)">
			<title>Nordic Blue.1456</title>
			<desc>ADC driver</desc>
			<v:textBlock v:margins="rect(4,4,4,4)"/>
			<v:textRect cx="16.8169" cy="486.627" width="33.64" height="28.3465"/>
			<rect x="0" y="472.453" width="33.6339" height="28.3465" class="st6"/>
			<text x="9.43" y="484.53" class="st7" v:langID="1033"><v:paragraph v:horizAlign="1" v:bulletSize="0.166667"/><v:tabList/>ADC <tspan
						x="8.07" dy="1.2em" class="st4">driver</tspan></text>		</g>
		<g id="shape13-31" v:mID="13" v:groupContext="shape" transform="translate(75.9312,-376.515)">
			<title>Nordic Blue.1457</title>
			<desc>PWM driver</desc>
			<v:textBlock v:margins="rect(4,4,4,4)"/>
			<v:textRect cx="14.47" cy="486.627" width="28.94" height="28.3465"/>
			<rect x="0" y="472.453" width="28.9399" height="28.3465" class="st6"/>
			<text x="5.92" y="484.53" class="st7" v:langID="1033"><v:paragraph v:horizAlign="1" v:bulletSize="0.166667"/><v:tabList/>PWM <tspan
						x="5.72" dy="1.2em" class="st4">driver</tspan></text>		</g>
		<g id="shape14-35" v:mID="14" v:groupContext="shape" transform="translate(41.4496,-376.515)">
			<title>Nordic Blue.1458</title>
			<desc>QDEC driver</desc>
			<v:textBlock v:margins="rect(4,4,4,4)"/>
			<v:textRect cx="16.2295" cy="486.627" width="32.46" height="28.3465"/>
			<rect x="0" y="472.453" width="32.459" height="28.3465" class="st6"/>
			<text x="6.12" y="484.53" class="st7" v:langID="1033"><v:paragraph v:horizAlign="1" v:bulletSize="0.166667"/><v:tabList/>QDEC <tspan
						x="7.48" dy="1.2em" class="st4">driver</tspan></text>		</g>
		<g id="shape15-39" v:mID="15" v:groupContext="shape" transform="translate(3.7705,-377.097)">
			<title>Nordic Blue.1459</title>
			<desc>SPI driver</desc>
			<v:textBlock v:margins="rect(4,4,4,4)"/>
			<v:textRect cx="16.2295" cy="486.627" width="32.46" height="28.3465"/>
			<rect x="0" y="472.453" width="32.459" height="28.3465" class="st6"/>
			<text x="10.59" y="484.53" class="st7" v:langID="1033"><v:paragraph v:horizAlign="1" v:bulletSize="0.166667"/><v:tabList/>SPI <tspan
						x="7.48" dy="1.2em" class="st4">driver</tspan></text>		</g>
		<g id="shape16-43" v:mID="16" v:groupContext="shape" v:layerMember="0" transform="translate(341.928,-375.879)">
			<title>Dynamic connector.1461</title>
			<path d="M7.09 507.76 L7.09 508.12 L7.09 514.87" class="st9"/>
		</g>
		<g id="shape17-52" v:mID="17" v:groupContext="shape" transform="translate(3.7705,-316.626)">
			<title>Nordic Blue.1464</title>
			<desc>Motion sensor driver</desc>
			<v:textBlock v:margins="rect(4,4,4,4)"/>
			<v:textRect cx="17.3826" cy="483.456" width="34.77" height="34.6873"/>
			<rect x="0" y="466.112" width="34.7653" height="34.6873" class="st2"/>
			<text x="6.88" y="477.16" class="st7" v:langID="1033"><v:paragraph v:horizAlign="1" v:bulletSize="0.166667"/><v:tabList/>Motion <tspan
						x="6.88" dy="1.2em" class="st4">sensor </tspan><tspan x="8.63" dy="1.2em" class="st4">driver</tspan></text>		</g>
		<g id="shape18-57" v:mID="18" v:groupContext="shape" v:layerMember="0" transform="translate(12.9134,-377.097)">
			<title>Dynamic connector.1465</title>
			<path d="M7.09 507.76 L7.09 508.12 L7.09 519.26" class="st9"/>
		</g>
		<g id="shape19-64" v:mID="19" v:groupContext="shape" v:layerMember="0" transform="translate(13.5008,-316.626)">
			<title>Dynamic connector.1466</title>
			<path d="M7.09 507.76 L7.09 508.12 L7.09 522.41" class="st9"/>
		</g>
		<g id="shape20-71" v:mID="20" v:groupContext="shape" transform="translate(144.573,-259.348)">
			<title>Nordic Lake.1467</title>
			<desc>Passkey</desc>
			<v:textBlock v:margins="rect(4,4,4,4)"/>
			<v:textRect cx="17.3826" cy="486.627" width="34.77" height="28.3465"/>
			<rect x="0" y="472.453" width="34.7653" height="28.3465" class="st8"/>
			<text x="4.16" y="488.73" class="st7" v:langID="1033"><v:paragraph v:horizAlign="1" v:bulletSize="0.166667"/><v:tabList/>Passkey</text>		</g>
		<g id="shape21-74" v:mID="21" v:groupContext="shape" transform="translate(109.51,-259.348)">
			<title>Nordic Lake.1468</title>
			<desc>Battery meas.</desc>
			<v:textBlock v:margins="rect(4,4,4,4)"/>
			<v:textRect cx="16.8169" cy="486.627" width="33.64" height="28.3465"/>
			<rect x="0" y="472.453" width="33.6339" height="28.3465" class="st8"/>
			<text x="5.73" y="484.53" class="st7" v:langID="1033"><v:paragraph v:horizAlign="1" v:bulletSize="0.166667"/><v:tabList/>Battery <tspan
						x="7.29" dy="1.2em" class="st4">meas.</tspan></text>		</g>
		<g id="shape22-78" v:mID="22" v:groupContext="shape" transform="translate(77.9538,-259.348)">
			<title>Nordic Lake.1469</title>
			<desc>CAF LEDs</desc>
			<v:textBlock v:margins="rect(4,4,4,4)"/>
			<v:textRect cx="14.47" cy="486.627" width="28.94" height="28.3465"/>
			<rect x="0" y="472.453" width="28.9399" height="28.3465" class="st8"/>
			<text x="7.47" y="484.53" class="st7" v:langID="1044"><v:paragraph v:horizAlign="1" v:bulletSize="0.166667"/><v:tabList/>CAF <tspan
						x="5.91" dy="1.2em" class="st4" v:langID="1033">LEDs</tspan></text>		</g>
		<g id="shape23-82" v:mID="23" v:groupContext="shape" transform="translate(41.4496,-259.348)">
			<title>Nordic Lake.1470</title>
			<desc>Wheel</desc>
			<v:textBlock v:margins="rect(4,4,4,4)"/>
			<v:textRect cx="16.2295" cy="486.627" width="32.46" height="28.3465"/>
			<rect x="0" y="472.453" width="32.459" height="28.3465" class="st8"/>
			<text x="6.31" y="488.73" class="st7" v:langID="1033"><v:paragraph v:horizAlign="1" v:bulletSize="0.166667"/><v:tabList/>Wheel</text>		</g>
		<g id="shape24-85" v:mID="24" v:groupContext="shape" transform="translate(182.252,-259.348)">
			<title>Nordic Lake.1471</title>
			<desc>HID state</desc>
			<v:textBlock v:margins="rect(4,4,4,4)"/>
			<v:textRect cx="12.4474" cy="486.627" width="24.9" height="28.3465"/>
			<rect x="0" y="472.453" width="24.8947" height="28.3465" class="st8"/>
			<text x="6.42" y="484.53" class="st7" v:langID="1033"><v:paragraph v:horizAlign="1" v:bulletSize="0.166667"/><v:tabList/>HID <tspan
						x="4.86" dy="1.2em" class="st4">state</tspan></text>		</g>
		<g id="shape25-89" v:mID="25" v:groupContext="shape" transform="translate(3.7705,-259.348)">
			<title>Nordic Lake.1472</title>
			<desc>Motion sensor</desc>
			<v:textBlock v:margins="rect(4,4,4,4)"/>
			<v:textRect cx="16.8169" cy="486.627" width="33.64" height="28.3465"/>
			<rect x="0" y="472.453" width="33.6339" height="28.3465" class="st8"/>
			<text x="6.31" y="484.53" class="st7" v:langID="1033"><v:paragraph v:horizAlign="1" v:bulletSize="0.166667"/><v:tabList/>Motion <tspan
						x="6.31" dy="1.2em" class="st4">sensor</tspan></text>		</g>
		<g id="shape26-93" v:mID="26" v:groupContext="shape" transform="translate(249.909,-316.626)">
			<title>Nordic Blue.1440</title>
			<desc>HID Service</desc>
			<v:textBlock v:margins="rect(4,4,4,4)"/>
			<v:textRect cx="17.1543" cy="481.871" width="34.31" height="37.8577"/>
			<rect x="0" y="462.942" width="34.3085" height="37.8577" class="st2"/>
			<text x="11.13" y="479.77" class="st7" v:langID="1033"><v:paragraph v:horizAlign="1" v:bulletSize="0.166667"/><v:tabList/>HID <tspan
						x="5.48" dy="1.2em" class="st4">Service </tspan> </text>		</g>
		<g id="shape27-97" v:mID="27" v:groupContext="shape" transform="translate(250.002,-259.348)">
			<title>Nordic Lake.1448</title>
			<desc>HID Service</desc>
			<v:textBlock v:margins="rect(4,4,4,4)"/>
			<v:textRect cx="17.1543" cy="486.627" width="34.31" height="28.3465"/>
			<rect x="0" y="472.453" width="34.3085" height="28.3465" class="st8"/>
			<text x="11.13" y="484.53" class="st7" v:langID="1033"><v:paragraph v:horizAlign="1" v:bulletSize="0.166667"/><v:tabList/>HID <tspan
						x="5.48" dy="1.2em" class="st4">Service</tspan></text>		</g>
		<g id="shape28-101" v:mID="28" v:groupContext="shape" v:layerMember="0" transform="translate(260.023,-316.626)">
			<title>Dynamic connector</title>
			<path d="M7.06 507.76 L7.06 508.12 L7.11 522.41" class="st9"/>
		</g>
		<g id="shape29-108" v:mID="29" v:groupContext="shape" transform="translate(211.005,-316.626)">
			<title>Nordic Blue</title>
			<desc>HID Service client</desc>
			<v:textBlock v:margins="rect(4,4,4,4)"/>
			<v:textRect cx="17.3826" cy="481.871" width="34.77" height="37.8577"/>
			<rect x="0" y="462.942" width="34.7653" height="37.8577" class="st2"/>
			<text x="11.36" y="475.57" class="st7" v:langID="1033"><v:paragraph v:horizAlign="1" v:bulletSize="0.166667"/><v:tabList/>HID <tspan
						x="5.71" dy="1.2em" class="st4">Service </tspan><tspan x="9.21" dy="1.2em" class="st4">client</tspan></text>		</g>
		<g id="shape30-113" v:mID="30" v:groupContext="shape" transform="translate(211.192,-259.348)">
			<title>Nordic Lake</title>
			<desc>HID forward</desc>
			<v:textBlock v:margins="rect(4,4,4,4)"/>
			<v:textRect cx="17.3826" cy="486.627" width="34.77" height="28.3465"/>
			<rect x="0" y="472.453" width="34.7653" height="28.3465" class="st8"/>
			<text x="11.36" y="484.53" class="st7" v:langID="1033"><v:paragraph v:horizAlign="1" v:bulletSize="0.166667"/><v:tabList/>HID <tspan
						x="5.71" dy="1.2em" class="st4">forward</tspan></text>		</g>
		<g id="shape31-117" v:mID="31" v:groupContext="shape" v:layerMember="0" transform="translate(221.488,-316.626)">
			<title>Dynamic connector.1463</title>
			<path d="M7.09 507.76 L7.09 508.12 L7.09 522.41" class="st9"/>
		</g>
		<g id="shape32-124" v:mID="32" v:groupContext="shape" transform="translate(222.665,-174.808)">
			<title>Nordic Blue.2143</title>
			<desc>Application Event Manager</desc>
			<v:textBlock v:margins="rect(4,4,4,4)"/>
			<v:textRect cx="40.3609" cy="486.627" width="80.73" height="28.3465"/>
			<rect x="0" y="472.453" width="80.7218" height="28.3465" class="st2"/>
			<text x="6.45" y="489.63" class="st11" v:langID="1033"><v:paragraph v:horizAlign="1" v:bulletSize="0.166667"/><v:tabList/>Application Event Manager</text>		</g>
		<g id="shape33-127" v:mID="33" v:groupContext="shape" v:layerMember="0" transform="translate(300.803,-259.348)">
			<title>Dynamic connector.2145</title>
			<path d="M0 507.76 L0 508.12 L0 513.98 L-37.78 513.98 L-37.78 549.67" class="st9"/>
		</g>
		<g id="shape34-134" v:mID="34" v:groupContext="shape" v:layerMember="0" transform="translate(272.178,-259.348)">
			<title>Dynamic connector.2155</title>
			<path d="M-5.02 507.76 L-5.02 508.12 L-5.02 513.98 L-9.15 513.98 L-9.15 549.67" class="st9"/>
		</g>
		<g id="shape35-141" v:mID="35" v:groupContext="shape" v:layerMember="0" transform="translate(228.574,-259.348)">
			<title>Dynamic connector.2156</title>
			<path d="M0 507.76 L0 508.12 L0 513.98 L34.45 513.98 L34.45 549.67" class="st9"/>
		</g>
		<g id="shape36-148" v:mID="36" v:groupContext="shape" v:layerMember="0" transform="translate(20.5874,-259.348)">
			<title>Dynamic connector.2157</title>
			<path d="M0 507.76 L0 508.12 L0 513.98 L242.44 513.98 L242.44 549.67" class="st9"/>
		</g>
		<g id="shape37-155" v:mID="37" v:groupContext="shape" v:layerMember="0" transform="translate(194.699,-259.348)">
			<title>Dynamic connector.2158</title>
			<path d="M0 507.76 L0 508.12 L0 513.98 L68.33 513.98 L68.33 549.67" class="st9"/>
		</g>
		<g id="shape38-162" v:mID="38" v:groupContext="shape" v:layerMember="0" transform="translate(57.6791,-259.348)">
			<title>Dynamic connector.2159</title>
			<path d="M0 507.76 L0 508.12 L0 513.98 L205.35 513.98 L205.35 549.67" class="st9"/>
		</g>
		<g id="shape39-169" v:mID="39" v:groupContext="shape" v:layerMember="0" transform="translate(92.4237,-259.348)">
			<title>Dynamic connector.2160</title>
			<path d="M0 507.76 L0 508.12 L0 513.98 L170.6 513.98 L170.6 549.67" class="st9"/>
		</g>
		<g id="shape40-176" v:mID="40" v:groupContext="shape" v:layerMember="0" transform="translate(126.327,-259.348)">
			<title>Dynamic connector.2161</title>
			<path d="M0 507.76 L0 508.12 L0 513.98 L136.7 513.98 L136.7 549.67" class="st9"/>
		</g>
		<g id="shape41-183" v:mID="41" v:groupContext="shape" v:layerMember="0" transform="translate(161.955,-259.348)">
			<title>Dynamic connector.2162</title>
			<path d="M0 507.76 L0 508.12 L0 513.98 L101.07 513.98 L101.07 549.67" class="st9"/>
		</g>
		<g id="shape42-190" v:mID="42" v:groupContext="shape" transform="translate(3.7705,-106.776)">
			<title>Nordic Lake.2163</title>
			<desc>USB state</desc>
			<v:textBlock v:margins="rect(4,4,4,4)"/>
			<v:textRect cx="16.8169" cy="486.627" width="33.64" height="28.3465"/>
			<rect x="0" y="472.453" width="33.6339" height="28.3465" class="st8"/>
			<text x="9.62" y="484.53" class="st7" v:langID="1033"><v:paragraph v:horizAlign="1" v:bulletSize="0.166667"/><v:tabList/>USB <tspan
						x="9.23" dy="1.2em" class="st4">state</tspan></text>		</g>
		<g id="shape43-194" v:mID="43" v:groupContext="shape" transform="translate(40.2747,-106.776)">
			<title>Nordic Lake.2164</title>
			<desc>CAF Power mgmt</desc>
			<v:textBlock v:margins="rect(4,4,4,4)"/>
			<v:textRect cx="16.8169" cy="486.627" width="33.64" height="28.3465"/>
			<rect x="0" y="472.453" width="33.6339" height="28.3465" class="st8"/>
			<text x="9.82" y="480.33" class="st7" v:langID="1044"><v:paragraph v:horizAlign="1" v:bulletSize="0.166667"/><v:tabList/>CAF <tspan
						x="6.9" dy="1.2em" class="st4" v:langID="1033">Power </tspan><tspan x="8.07" dy="1.2em" class="st4"
						v:langID="1033">mgmt</tspan></text>		</g>
		<g id="shape44-199" v:mID="44" v:groupContext="shape" transform="translate(76.7789,-106.776)">
			<title>Nordic Lake.2165</title>
			<desc>CAF Settings loader</desc>
			<v:textBlock v:margins="rect(4,4,4,4)"/>
			<v:textRect cx="17.3826" cy="486.627" width="34.77" height="28.3465"/>
			<rect x="0" y="472.453" width="34.7653" height="28.3465" class="st8"/>
			<text x="10.38" y="480.33" class="st7" v:langID="1044"><v:paragraph v:horizAlign="1" v:bulletSize="0.166667"/><v:tabList/>CAF <tspan
						x="4.74" dy="1.2em" class="st4" v:langID="1033">Settings </tspan><tspan x="7.65" dy="1.2em" class="st4"
						v:langID="1033">loader</tspan></text>		</g>
		<g id="shape45-204" v:mID="45" v:groupContext="shape" transform="translate(114.414,-106.776)">
			<title>Nordic Lake.2166</title>
			<desc>Failsafe</desc>
			<v:textBlock v:margins="rect(4,4,4,4)"/>
			<v:textRect cx="16.8169" cy="486.627" width="33.64" height="28.3465"/>
			<rect x="0" y="472.453" width="33.6339" height="28.3465" class="st8"/>
			<text x="4.56" y="488.73" class="st7" v:langID="1033"><v:paragraph v:horizAlign="1" v:bulletSize="0.166667"/><v:tabList/>Failsafe</text>		</g>
		<g id="shape46-207" v:mID="46" v:groupContext="shape" transform="translate(151.069,-106.776)">
			<title>Nordic Lake.2167</title>
			<desc>DFU</desc>
			<v:textBlock v:margins="rect(4,4,4,4)"/>
			<v:textRect cx="12.4474" cy="486.627" width="24.9" height="28.3465"/>
			<rect x="0" y="472.453" width="24.8947" height="28.3465" class="st8"/>
			<text x="5.25" y="488.73" class="st7" v:langID="1033"><v:paragraph v:horizAlign="1" v:bulletSize="0.166667"/><v:tabList/>DFU</text>		</g>
		<g id="shape47-210" v:mID="47" v:groupContext="shape" transform="translate(178.985,-106.776)">
			<title>Nordic Lake.2168</title>
			<desc>Watchdog</desc>
			<v:textBlock v:margins="rect(4,4,4,4)"/>
			<v:textRect cx="21.8466" cy="486.627" width="43.7" height="28.3465"/>
			<rect x="0" y="472.453" width="43.6932" height="28.3465" class="st8"/>
			<text x="6.09" y="488.73" class="st7" v:langID="1033"><v:paragraph v:horizAlign="1" v:bulletSize="0.166667"/><v:tabList/>Watchdog</text>		</g>
		<g id="shape48-213" v:mID="48" v:groupContext="shape" transform="translate(225.699,-106.776)">
			<title>Nordic Lake.2169</title>
			<desc>CAF Buttons</desc>
			<v:textBlock v:margins="rect(4,4,4,4)"/>
			<v:textRect cx="16.8169" cy="486.627" width="33.64" height="28.3465"/>
			<rect x="0" y="472.453" width="33.6339" height="28.3465" class="st8"/>
			<text x="9.82" y="484.53" class="st7" v:langID="1044"><v:paragraph v:horizAlign="1" v:bulletSize="0.166667"/><v:tabList/>CAF <tspan
						x="4.95" dy="1.2em" class="st4" v:langID="1033">Buttons</tspan></text>		</g>
		<g id="shape49-217" v:mID="49" v:groupContext="shape" transform="translate(262.354,-106.776)">
			<title>Nordic Lake.2170</title>
			<desc>Selector</desc>
			<v:textBlock v:margins="rect(4,4,4,4)"/>
			<v:textRect cx="17.3826" cy="486.627" width="34.77" height="28.3465"/>
			<rect x="0" y="472.453" width="34.7653" height="28.3465" class="st8"/>
			<text x="4.54" y="488.73" class="st7" v:langID="1033"><v:paragraph v:horizAlign="1" v:bulletSize="0.166667"/><v:tabList/>Selector</text>		</g>
		<g id="shape50-220" v:mID="50" v:groupContext="shape" transform="translate(300.14,-106.776)">
			<title>Nordic Lake.2171</title>
			<desc>Board</desc>
			<v:textBlock v:margins="rect(4,4,4,4)"/>
			<v:textRect cx="14.9429" cy="486.627" width="29.89" height="28.3465"/>
			<rect x="0" y="472.453" width="29.8859" height="28.3465" class="st8"/>
			<text x="5.6" y="488.73" class="st7" v:langID="1033"><v:paragraph v:horizAlign="1" v:bulletSize="0.166667"/><v:tabList/>Board</text>		</g>
		<g id="shape51-223" v:mID="51" v:groupContext="shape" transform="translate(333.047,-106.776)">
			<title>Nordic Lake.2172</title>
			<desc>Battery charger</desc>
			<v:textBlock v:margins="rect(4,4,4,4)"/>
			<v:textRect cx="16.8169" cy="486.627" width="33.64" height="28.3465"/>
			<rect x="0" y="472.453" width="33.6339" height="28.3465" class="st8"/>
			<text x="5.73" y="484.53" class="st7" v:langID="1033"><v:paragraph v:horizAlign="1" v:bulletSize="0.166667"/><v:tabList/>Battery <tspan
						x="4.95" dy="1.2em" class="st4">charger</tspan></text>		</g>
		<g id="shape52-227" v:mID="52" v:groupContext="shape" transform="translate(369.702,-106.776)">
			<title>Nordic Lake.2173</title>
			<desc>CAF Click detector</desc>
			<v:textBlock v:margins="rect(4,4,4,4)"/>
			<v:textRect cx="19.4294" cy="486.627" width="38.86" height="28.3465"/>
			<rect x="0" y="472.453" width="38.8587" height="28.3465" class="st8"/>
			<text x="12.43" y="480.33" class="st7" v:langID="1044"><v:paragraph v:horizAlign="1" v:bulletSize="0.166667"/><v:tabList/>CAF <tspan
						x="11.85" dy="1.2em" class="st4" v:langID="1033">Click </tspan><tspan x="6.78" dy="1.2em" class="st4"
						v:langID="1033">detector</tspan></text>		</g>
		<g id="shape53-232" v:mID="53" v:groupContext="shape" transform="translate(411.581,-106.776)">
			<title>Nordic Lake.2174</title>
			<desc>LED state</desc>
			<v:textBlock v:margins="rect(4,4,4,4)"/>
			<v:textRect cx="12.4474" cy="486.627" width="24.9" height="28.3465"/>
			<rect x="0" y="472.453" width="24.8947" height="28.3465" class="st8"/>
			<text x="5.64" y="484.53" class="st7" v:langID="1033"><v:paragraph v:horizAlign="1" v:bulletSize="0.166667"/><v:tabList/>LED <tspan
						x="4.86" dy="1.2em" class="st4">state</tspan></text>		</g>
		<g id="shape54-236" v:mID="54" v:groupContext="shape" transform="translate(439.497,-106.776)">
			<title>Nordic Lake.2175</title>
			<desc>LED stream</desc>
			<v:textBlock v:margins="rect(4,4,4,4)"/>
			<v:textRect cx="16.8169" cy="486.627" width="33.64" height="28.3465"/>
			<rect x="0" y="472.453" width="33.6339" height="28.3465" class="st8"/>
			<text x="10.01" y="484.53" class="st7" v:langID="1033"><v:paragraph v:horizAlign="1" v:bulletSize="0.166667"/><v:tabList/>LED <tspan
						x="6.12" dy="1.2em" class="st4">stream</tspan></text>		</g>
		<g id="shape55-240" v:mID="55" v:groupContext="shape" transform="translate(476.152,-106.776)">
			<title>Nordic Lake.2176</title>
			<desc>Info</desc>
			<v:textBlock v:margins="rect(4,4,4,4)"/>
			<v:textRect cx="12.4474" cy="486.627" width="24.9" height="28.3465"/>
			<rect x="0" y="472.453" width="24.8947" height="28.3465" class="st8"/>
			<text x="6.61" y="488.73" class="st7" v:langID="1033"><v:paragraph v:horizAlign="1" v:bulletSize="0.166667"/><v:tabList/>Info</text>		</g>
		<g id="shape56-243" v:mID="56" v:groupContext="shape" v:layerMember="0" transform="translate(20.5874,-135.123)">
			<title>Dynamic connector.2177</title>
			<path d="M0 493.84 L0 493.48 L0 482.92 L242.44 482.92 L242.44 468.43" class="st9"/>
		</g>
		<g id="shape57-250" v:mID="57" v:groupContext="shape" v:layerMember="0" transform="translate(57.0916,-135.123)">
			<title>Dynamic connector.2178</title>
			<path d="M0 493.84 L0 493.48 L0 482.92 L205.93 482.92 L205.93 468.43" class="st9"/>
		</g>
		<g id="shape58-257" v:mID="58" v:groupContext="shape" v:layerMember="0" transform="translate(94.1615,-135.123)">
			<title>Dynamic connector.2179</title>
			<path d="M0 493.84 L0 493.48 L0 482.92 L168.86 482.92 L168.86 468.43" class="st9"/>
		</g>
		<g id="shape59-264" v:mID="59" v:groupContext="shape" v:layerMember="0" transform="translate(131.231,-135.123)">
			<title>Dynamic connector.2180</title>
			<path d="M0 493.84 L0 493.48 L0 482.92 L131.79 482.92 L131.79 468.43" class="st9"/>
		</g>
		<g id="shape60-271" v:mID="60" v:groupContext="shape" v:layerMember="0" transform="translate(163.517,-135.123)">
			<title>Dynamic connector.2181</title>
			<path d="M0 493.84 L0 493.48 L0 482.92 L99.51 482.92 L99.51 468.43" class="st9"/>
		</g>
		<g id="shape61-278" v:mID="61" v:groupContext="shape" v:layerMember="0" transform="translate(200.832,-135.123)">
			<title>Dynamic connector.2182</title>
			<path d="M0 493.84 L0 493.48 L0 482.92 L62.19 482.92 L62.19 468.43" class="st9"/>
		</g>
		<g id="shape62-285" v:mID="62" v:groupContext="shape" v:layerMember="0" transform="translate(242.516,-135.123)">
			<title>Dynamic connector.2183</title>
			<path d="M0 493.84 L0 493.48 L0 482.92 L20.51 482.92 L20.51 468.43" class="st9"/>
		</g>
		<g id="shape63-292" v:mID="63" v:groupContext="shape" v:layerMember="0" transform="translate(263.026,-174.808)">
			<title>Dynamic connector.2185</title>
			<path d="M0 507.76 L0 508.12 L0 522.61 L52.06 522.61 L52.06 533.16" class="st9"/>
		</g>
		<g id="shape64-299" v:mID="64" v:groupContext="shape" v:layerMember="0" transform="translate(263.026,-174.808)">
			<title>Dynamic connector.2186</title>
			<path d="M0 507.76 L0 508.12 L0 522.61 L86.84 522.61 L86.84 533.16" class="st9"/>
		</g>
		<g id="shape65-306" v:mID="65" v:groupContext="shape" v:layerMember="0" transform="translate(263.026,-174.808)">
			<title>Dynamic connector.2187</title>
			<path d="M0 507.76 L0 508.12 L0 522.61 L126.1 522.61 L126.1 533.16" class="st9"/>
		</g>
		<g id="shape66-313" v:mID="66" v:groupContext="shape" v:layerMember="0" transform="translate(263.026,-174.808)">
			<title>Dynamic connector.2188</title>
			<path d="M0 507.76 L0 508.12 L0 522.61 L161 522.61 L161 533.16" class="st9"/>
		</g>
		<g id="shape67-320" v:mID="67" v:groupContext="shape" v:layerMember="0" transform="translate(263.026,-174.808)">
			<title>Dynamic connector.2189</title>
			<path d="M0 507.76 L0 508.12 L0 522.61 L193.29 522.61 L193.29 533.16" class="st9"/>
		</g>
		<g id="shape68-327" v:mID="68" v:groupContext="shape" v:layerMember="0" transform="translate(263.026,-174.808)">
			<title>Dynamic connector.2190</title>
			<path d="M0 507.76 L0 508.12 L0 522.61 L225.57 522.61 L225.57 533.16" class="st9"/>
		</g>
		<g id="shape69-334" v:mID="69" v:groupContext="shape" v:layerMember="0" transform="translate(263.026,-174.808)">
			<title>Dynamic connector.2191</title>
			<path d="M0 507.76 L0 508.12 L0 522.61 L16.71 522.61 L16.71 533.16" class="st9"/>
		</g>
		<g id="shape70-341" v:mID="70" v:groupContext="shape" transform="translate(3.09587,-50.0832)">
			<title>Nordic Blue.2192</title>
			<desc>USB stack</desc>
			<v:textBlock v:margins="rect(4,4,4,4)"/>
			<v:textRect cx="17.1543" cy="484.096" width="34.31" height="33.4083"/>
			<rect x="0" y="467.391" width="34.3085" height="33.4083" class="st6"/>
			<text x="9.96" y="482" class="st7" v:langID="1033"><v:paragraph v:horizAlign="1" v:bulletSize="0.166667"/><v:tabList/>USB <tspan
						x="8.99" dy="1.2em" class="st4">stack</tspan></text>		</g>
		<g id="shape71-345" v:mID="71" v:groupContext="shape" transform="translate(41.8145,-50.0832)">
			<title>Nordic Blue.2193</title>
			<desc>OS power mgmt</desc>
			<v:textBlock v:margins="rect(4,4,4,4)"/>
			<v:textRect cx="16.8169" cy="484.096" width="33.64" height="33.4083"/>
			<rect x="0" y="467.391" width="33.6339" height="33.4083" class="st6"/>
			<text x="11.76" y="477.8" class="st7" v:langID="1033"><v:paragraph v:horizAlign="1" v:bulletSize="0.166667"/><v:tabList/>OS <tspan
						x="7.28" dy="1.2em" class="st4">power </tspan><tspan x="8.07" dy="1.2em" class="st4">mgmt</tspan></text>		</g>
		<g id="shape72-350" v:mID="72" v:groupContext="shape" transform="translate(81.5019,-50.0832)">
			<title>Nordic Blue.2194</title>
			<desc>Settings subsys</desc>
			<v:textBlock v:margins="rect(4,4,4,4)"/>
			<v:textRect cx="17.1543" cy="484.096" width="34.31" height="33.4083"/>
			<rect x="0" y="467.391" width="34.3085" height="33.4083" class="st6"/>
			<text x="4.51" y="482" class="st7" v:langID="1033"><v:paragraph v:horizAlign="1" v:bulletSize="0.166667"/><v:tabList/>Settings <tspan
						x="6.26" dy="1.2em" class="st4">subsys</tspan></text>		</g>
		<g id="shape73-354" v:mID="73" v:groupContext="shape" transform="translate(3.7705,-1)">
			<title>Nordic Blue.2195</title>
			<desc>USB driver</desc>
			<v:textBlock v:margins="rect(4,4,4,4)"/>
			<v:textRect cx="17.1543" cy="486.627" width="34.31" height="28.3465"/>
			<rect x="0" y="472.453" width="34.3085" height="28.3465" class="st6"/>
			<text x="9.96" y="484.53" class="st7" v:langID="1033"><v:paragraph v:horizAlign="1" v:bulletSize="0.166667"/><v:tabList/>USB <tspan
						x="8.4" dy="1.2em" class="st4">driver</tspan></text>		</g>
		<g id="shape74-358" v:mID="74" v:groupContext="shape" transform="translate(81.5019,-1)">
			<title>Nordic Blue.2196</title>
			<desc>FLASH driver</desc>
			<v:textBlock v:margins="rect(4,4,4,4)"/>
			<v:textRect cx="31.5354" cy="486.627" width="63.08" height="28.3465"/>
			<rect x="0" y="472.453" width="63.0708" height="28.3465" class="st6"/>
			<text x="10.53" y="488.73" class="st7" v:langID="1033"><v:paragraph v:horizAlign="1" v:bulletSize="0.166667"/><v:tabList/>FLASH driver</text>		</g>
		<g id="shape75-361" v:mID="75" v:groupContext="shape" v:layerMember="0" transform="translate(13.1635,-83.4915)">
			<title>Dynamic connector.2197</title>
			<path d="M7.09 493.84 L7.09 493.48 L7.09 484.9" class="st9"/>
		</g>
		<g id="shape76-368" v:mID="76" v:groupContext="shape" v:layerMember="0" transform="translate(13.8381,-29.3465)">
			<title>Dynamic connector.2198</title>
			<path d="M7.09 493.84 L7.09 493.48 L7.09 487.38" class="st9"/>
		</g>
		<g id="shape77-375" v:mID="77" v:groupContext="shape" v:layerMember="0" transform="translate(51.8821,-83.5844)">
			<title>Dynamic connector.2199</title>
			<path d="M7.09 493.84 L7.09 493.48 L7.09 485.45" class="st9"/>
		</g>
		<g id="shape78-382" v:mID="78" v:groupContext="shape" v:layerMember="0" transform="translate(90.9762,-83.4915)">
			<title>Dynamic connector.2200</title>
			<path d="M7.09 493.84 L7.09 493.48 L7.09 485.17" class="st9"/>
		</g>
		<g id="shape79-389" v:mID="79" v:groupContext="shape" v:layerMember="0" transform="translate(91.5695,-29.3465)">
			<title>Dynamic connector.2201</title>
			<path d="M7.09 493.84 L7.09 493.48 L7.09 487.38" class="st9"/>
		</g>
		<g id="shape80-396" v:mID="80" v:groupContext="shape" v:layerMember="0" transform="translate(124.145,-29.3465)">
			<title>Dynamic connector.2202</title>
			<path d="M7.09 493.84 L7.09 493.48 L7.09 430.69" class="st9"/>
		</g>
		<g id="shape81-403" v:mID="81" v:groupContext="shape" transform="translate(225.699,-55.1451)">
			<title>Nordic Blue.2203</title>
			<desc>GPIO driver</desc>
			<v:textBlock v:margins="rect(4,4,4,4)"/>
			<v:textRect cx="76.4953" cy="486.627" width="153" height="28.3465"/>
			<rect x="0" y="472.453" width="152.991" height="28.3465" class="st6"/>
			<text x="58.02" y="488.73" class="st7" v:langID="1033"><v:paragraph v:horizAlign="1" v:bulletSize="0.166667"/><v:tabList/>GPIO driver</text>		</g>
		<g id="shape82-406" v:mID="82" v:groupContext="shape" transform="translate(191.736,-21.7368)">
			<title>Nordic Blue.2205</title>
			<desc>Watchdog driver</desc>
			<v:textBlock v:margins="rect(4,4,4,4)"/>
			<v:textRect cx="21.8466" cy="486.627" width="43.7" height="28.3465"/>
			<rect x="0" y="472.453" width="43.6932" height="28.3465" class="st6"/>
			<text x="6.09" y="484.53" class="st7" v:langID="1033"><v:paragraph v:horizAlign="1" v:bulletSize="0.166667"/><v:tabList/>Watchdog <tspan
						x="13.1" dy="1.2em" class="st4">driver</tspan></text>		</g>
		<g id="shape83-410" v:mID="83" v:groupContext="shape" transform="translate(149.547,-21.7368)">
			<title>Nordic Blue.2206</title>
			<desc>Image manager</desc>
			<v:textBlock v:margins="rect(4,4,4,4)"/>
			<v:textRect cx="19.4294" cy="486.627" width="38.86" height="28.3465"/>
			<rect x="0" y="472.453" width="38.8587" height="28.3465" class="st6"/>
			<text x="9.7" y="484.53" class="st7" v:langID="1033"><v:paragraph v:horizAlign="1" v:bulletSize="0.166667"/><v:tabList/>Image <tspan
						x="5.62" dy="1.2em" class="st4">manager</tspan></text>		</g>
		<g id="shape84-414" v:mID="84" v:groupContext="shape" v:layerMember="0" transform="translate(156.43,-50.0832)">
			<title>Dynamic connector.2322</title>
			<path d="M7.09 493.84 L7.09 493.48 L7.09 451.43" class="st9"/>
		</g>
		<g id="shape85-421" v:mID="85" v:groupContext="shape" v:layerMember="0" transform="translate(199.786,-50.0832)">
			<title>Dynamic connector.2323</title>
			<path d="M7.09 493.84 L7.09 493.48 L7.09 451.43" class="st9"/>
		</g>
		<g id="group86-428" transform="translate(3.7705,-432.902)" v:mID="86" v:groupContext="group">
			<title>Sheet.86</title>
			<g id="shape87-429" v:mID="87" v:groupContext="shape">
				<title>Nordic Light Grey.2333</title>
				<rect x="0" y="433.902" width="88.6532" height="66.8976" class="st12"/>
			</g>
			<g id="shape88-431" v:mID="88" v:groupContext="shape" transform="translate(5.39058,-44.3524)">
				<title>Nordic Blue.1617</title>
				<rect x="0" y="485.094" width="17.0333" height="15.7058" class="st8"/>
			</g>
			<g id="shape89-433" v:mID="89" v:groupContext="shape" transform="translate(22.4239,-44.3524)">
				<title>Sheet.89</title>
				<desc>Application</desc>
				<v:textBlock v:margins="rect(4,4,4,4)" v:tabSpace="42.5197"/>
				<v:textRect cx="29.9451" cy="492.947" width="59.9" height="15.7058"/>
				<rect x="0" y="485.094" width="59.8903" height="15.7058" class="st13"/>
				<text x="4" y="495.95" class="st14" v:langID="1044"><v:paragraph/><v:tabList/>Application</text>			</g>
			<g id="shape90-436" v:mID="90" v:groupContext="shape" transform="translate(5.39058,-25.5959)">
				<title>Nordic Blue.1618</title>
				<rect x="0" y="485.094" width="17.0333" height="15.7058" class="st2"/>
			</g>
			<g id="shape91-438" v:mID="91" v:groupContext="shape" transform="translate(22.4239,-25.5959)">
				<title>Sheet.91</title>
				<desc>NCS</desc>
				<v:textBlock v:margins="rect(4,4,4,4)" v:tabSpace="42.5197"/>
				<v:textRect cx="29.9451" cy="492.947" width="59.9" height="15.7058"/>
				<rect x="0" y="485.094" width="59.8903" height="15.7058" class="st13"/>
				<text x="4" y="495.95" class="st14" v:langID="1033"><v:paragraph/><v:tabList/>NCS</text>			</g>
			<g id="shape92-441" v:mID="92" v:groupContext="shape" transform="translate(5.39058,-6.83943)">
				<title>Nordic Blue.2341</title>
				<rect x="0" y="485.094" width="17.0333" height="15.7058" class="st6"/>
			</g>
			<g id="shape93-443" v:mID="93" v:groupContext="shape" transform="translate(22.4239,-6.83943)">
				<title>Sheet.93</title>
				<desc>Zephyr</desc>
				<v:textBlock v:margins="rect(4,4,4,4)" v:tabSpace="42.5197"/>
				<v:textRect cx="29.9451" cy="492.947" width="59.9" height="15.7058"/>
				<rect x="0" y="485.094" width="59.8903" height="15.7058" class="st13"/>
				<text x="4" y="495.95" class="st14" v:langID="1033"><v:paragraph/><v:tabList/>Zephyr</text>			</g>
		</g>
		<g id="shape94-446" v:mID="94" v:groupContext="shape" transform="translate(417.022,-293.356)">
			<title>Sheet.94</title>
			<desc>Bluetooth® LE</desc>
			<v:textBlock v:margins="rect(4,4,4,4)" v:tabSpace="42.5197"/>
			<v:textRect cx="39.2921" cy="492.781" width="78.59" height="16.0377"/>
			<rect x="0" y="484.762" width="78.5842" height="16.0377" class="st13"/>
			<text x="6.97" y="495.78" class="st15" v:langID="1035"><v:paragraph v:horizAlign="1"/><v:tabList/>B<tspan class="st4"
						v:langID="1033">luetooth® </tspan>LE</text>		</g>
		<g id="shape95-450" v:mID="95" v:groupContext="shape" transform="translate(316.742,-222.075)">
			<title>Nordic Blue.2345</title>
			<path d="M0 500.8 L203.92 500.8 L203.92 430.93 L0 430.93 L0 500.8 Z" class="st16"/>
		</g>
		<g id="shape96-452" v:mID="96" v:groupContext="shape" transform="translate(451.103,-228.207)">
			<title>Nordic Lake.1442</title>
			<desc>CAF State</desc>
			<v:textBlock v:margins="rect(4,4,4,4)"/>
			<v:textRect cx="16.2295" cy="486.627" width="32.46" height="28.3465"/>
			<rect x="0" y="472.453" width="32.459" height="28.3465" class="st8"/>
			<text x="9.23" y="484.53" class="st7" v:langID="1044"><v:paragraph v:horizAlign="1" v:bulletSize="0.166667"/><v:tabList/>CAF <tspan
						x="8.06" dy="1.2em" class="st4" v:langID="1033">State</tspan></text>		</g>
		<g id="shape97-456" v:mID="97" v:groupContext="shape" transform="translate(369.481,-259.348)">
			<title>Nordic Lake.1443</title>
			<desc>CAF Advertising</desc>
			<v:textBlock v:margins="rect(4,4,4,4)"/>
			<v:textRect cx="22.3182" cy="486.627" width="44.64" height="28.3465"/>
			<rect x="0" y="472.453" width="44.6363" height="28.3465" class="st8"/>
			<text x="15.32" y="484.53" class="st7" v:langID="1044"><v:paragraph v:horizAlign="1" v:bulletSize="0.166667"/><v:tabList/>CAF <tspan
						x="5" dy="1.2em" class="st4">Advertising</tspan></text>		</g>
		<g id="shape98-460" v:mID="98" v:groupContext="shape" transform="translate(417.689,-259.348)">
			<title>Nordic Lake.1444</title>
			<desc>Bond</desc>
			<v:textBlock v:margins="rect(4,4,4,4)"/>
			<v:textRect cx="14.47" cy="486.627" width="28.94" height="28.3465"/>
			<rect x="0" y="472.453" width="28.9399" height="28.3465" class="st8"/>
			<text x="6.3" y="488.73" class="st7" v:langID="1033"><v:paragraph v:horizAlign="1" v:bulletSize="0.166667"/><v:tabList/>Bond</text>		</g>
		<g id="shape99-463" v:mID="99" v:groupContext="shape" transform="translate(322.22,-259.348)">
			<title>Nordic Lake.1445</title>
			<desc>Discovery</desc>
			<v:textBlock v:margins="rect(4,4,4,4)"/>
			<v:textRect cx="22.3182" cy="486.627" width="44.64" height="28.3465"/>
			<rect x="0" y="472.453" width="44.6363" height="28.3465" class="st8"/>
			<text x="6.95" y="488.73" class="st7" v:langID="1033"><v:paragraph v:horizAlign="1" v:bulletSize="0.166667"/><v:tabList/>Discovery</text>		</g>
		<g id="shape100-466" v:mID="100" v:groupContext="shape" transform="translate(414.13,-228.207)">
			<title>Nordic Lake.1446</title>
			<desc>Scan</desc>
			<v:textBlock v:margins="rect(4,4,4,4)"/>
			<v:textRect cx="16.2295" cy="486.627" width="32.46" height="28.3465"/>
			<rect x="0" y="472.453" width="32.459" height="28.3465" class="st8"/>
			<text x="8.25" y="488.73" class="st7" v:langID="1033"><v:paragraph v:horizAlign="1" v:bulletSize="0.166667"/><v:tabList/>Scan</text>		</g>
		<g id="shape101-469" v:mID="101" v:groupContext="shape" transform="translate(449.254,-259.348)">
			<title>Nordic Lake.1447</title>
			<desc>Latency</desc>
			<v:textBlock v:margins="rect(4,4,4,4)"/>
			<v:textRect cx="19.4727" cy="486.627" width="38.95" height="28.3465"/>
			<rect x="0" y="472.453" width="38.9454" height="28.3465" class="st8"/>
			<text x="7.21" y="488.73" class="st7" v:langID="1033"><v:paragraph v:horizAlign="1" v:bulletSize="0.166667"/><v:tabList/>Latency</text>		</g>
		<g id="shape102-472" v:mID="102" v:groupContext="shape" transform="translate(322.22,-228.207)">
			<title>Nordic Lake.1451</title>
			<desc>Connection parameters</desc>
			<v:textBlock v:margins="rect(4,4,4,4)"/>
			<v:textRect cx="25.7367" cy="486.627" width="51.48" height="28.3465"/>
			<rect x="0" y="472.453" width="51.4735" height="28.3465" class="st8"/>
			<text x="8.03" y="484.53" class="st7" v:langID="1033"><v:paragraph v:horizAlign="1" v:bulletSize="0.166667"/><v:tabList/>Connection <tspan
						x="8.04" dy="1.2em" class="st4">parameters</tspan></text>		</g>
		<g id="shape103-476" v:mID="103" v:groupContext="shape" transform="translate(377.156,-228.207)">
			<title>Nordic Lake.1453</title>
			<desc>QoS</desc>
			<v:textBlock v:margins="rect(4,4,4,4)"/>
			<v:textRect cx="16.2295" cy="486.627" width="32.46" height="28.3465"/>
			<rect x="0" y="472.453" width="32.459" height="28.3465" class="st8"/>
			<text x="9.23" y="488.73" class="st7" v:langID="1033"><v:paragraph v:horizAlign="1" v:bulletSize="0.166667"/><v:tabList/>QoS</text>		</g>
		<g id="shape104-479" v:mID="104" v:groupContext="shape" v:layerMember="0" transform="translate(341.928,-316.626)">
			<title>Dynamic connector.1460</title>
			<path d="M7.09 507.76 L7.09 508.12 L7.09 522.41" class="st9"/>
		</g>
		<g id="shape105-486" v:mID="105" v:groupContext="shape" v:layerMember="0" transform="translate(418.7,-222.075)">
			<title>Dynamic connector.2349</title>
			<path d="M0 507.76 L0 508.12 L0 533.89 L-107.99 533.89" class="st9"/>
		</g>
		<g id="shape107-493" v:mID="107" v:groupContext="shape" v:layerMember="0" transform="translate(50.5925,-376.515)">
			<title>Dynamic connector.2351</title>
			<path d="M7.09 507.76 L7.09 508.12 L7.09 582.3" class="st9"/>
		</g>
		<g id="shape108-500" v:mID="108" v:groupContext="shape" v:layerMember="0" transform="translate(85.3371,-376.515)">
			<title>Dynamic connector.2352</title>
			<path d="M7.09 507.76 L7.09 508.12 L7.09 582.3" class="st9"/>
		</g>
		<g id="shape109-507" v:mID="109" v:groupContext="shape" v:layerMember="0" transform="translate(119.241,-376.515)">
			<title>Dynamic connector.2353</title>
			<path d="M7.09 507.76 L7.09 508.12 L7.09 582.3" class="st9"/>
		</g>
		<g id="shape110-514" v:mID="110" v:groupContext="shape" v:layerMember="0" transform="translate(235.524,-376.596)">
			<title>Dynamic connector.2372</title>
			<path d="M-7.07 507.76 L-7.07 508.12 L-7.1 515.59" class="st9"/>
		</g>
		<g id="shape116-521" v:mID="116" v:groupContext="shape" v:layerMember="0" transform="translate(235.429,-106.776)">
			<title>Dynamic connector.2395</title>
			<path d="M7.09 507.76 L7.09 508.12 L7.09 516.76" class="st9"/>
		</g>
		<g id="shape117-528" v:mID="117" v:groupContext="shape" v:layerMember="0" transform="translate(272.65,-106.776)">
			<title>Dynamic connector.2396</title>
			<path d="M7.09 507.76 L7.09 508.12 L7.09 516.76" class="st9"/>
		</g>
		<g id="shape118-535" v:mID="118" v:groupContext="shape" v:layerMember="0" transform="translate(307.996,-106.776)">
			<title>Dynamic connector.2397</title>
			<path d="M7.09 507.76 L7.09 508.12 L7.09 516.76" class="st9"/>
		</g>
		<g id="shape119-542" v:mID="119" v:groupContext="shape" v:layerMember="0" transform="translate(342.777,-106.776)">
			<title>Dynamic connector.2398</title>
			<path d="M7.09 507.76 L7.09 508.12 L7.09 516.76" class="st9"/>
		</g>
		<g id="shape122-549" v:mID="122" v:groupContext="shape" transform="translate(492.392,-259.348)">
			<title>Nordic Lake.122</title>
			<desc>CAF SMP</desc>
			<v:textBlock v:margins="rect(4,4,4,4)"/>
			<v:textRect cx="12.4474" cy="486.627" width="24.9" height="28.3465"/>
			<rect x="0" y="472.453" width="24.8947" height="28.3465" class="st8"/>
			<text x="5.45" y="484.53" class="st7" v:langID="1044"><v:paragraph v:horizAlign="1" v:bulletSize="0.166667"/><v:tabList/>CAF <tspan
						x="4.86" dy="1.2em" class="st4">SMP </tspan> </text>		</g>
		<g id="shape123-553" v:mID="123" v:groupContext="shape" v:layerMember="0" transform="translate(260.068,-354.484)">
			<title>Dynamic connector.123</title>
			<path d="M7.05 493.84 L7.06 493.48 L7.12 486.09" class="st9"/>
		</g>
		<g id="shape124-560" v:mID="124" v:groupContext="shape" v:layerMember="0" transform="translate(307.694,-287.694)">
			<title>Dynamic connector.124</title>
			<path d="M-6.92 493.84 L-6.92 493.48 L-7.25 419.3" class="st9"/>
		</g>
		<g id="shape126-567" v:mID="126" v:groupContext="shape" v:layerMember="0" transform="translate(546.351,-376.515)">
			<title>Dynamic connector.126</title>
			<path d="M-7 507.76 L-7 508.12 L-7.18 582.3" class="st9"/>
		</g>
		<g id="shape127-574" v:mID="127" v:groupContext="shape" transform="translate(488.619,-326.137)">
			<title>Nordic Blue.2400</title>
			<desc>SMP Bluetooth</desc>
			<v:textBlock v:margins="rect(4,4,4,4)"/>
			<v:textRect cx="19.4727" cy="486.627" width="38.95" height="28.3465"/>
			<rect x="0" y="472.453" width="38.9454" height="28.3465" class="st6"/>
			<text x="11.89" y="484.53" class="st7" v:langID="1044"><v:paragraph v:horizAlign="1" v:bulletSize="0.166667"/><v:tabList/>SMP <tspan
						x="4.68" dy="1.2em" class="st4">Bluetooth</tspan></text>		</g>
		<g id="shape134-578" v:mID="134" v:groupContext="shape" v:layerMember="0" transform="translate(499.615,-326.137)">
			<title>Dynamic connector.134</title>
			<path d="M7.04 507.76 L7.04 508.12 L7.13 532.98" class="st9"/>
		</g>
		<g id="shape137-585" v:mID="137" v:groupContext="shape" v:layerMember="0" transform="translate(499.638,-354.484)">
			<title>Dynamic connector.137</title>
			<path d="M7.07 493.84 L7.07 493.48 L7.1 486.09" class="st9"/>
		</g>
		<g id="shape140-592" v:mID="140" v:groupContext="shape" v:layerMember="0" transform="translate(410.166,-293.356)">
			<title>Dynamic connector.140</title>
			<path d="M6.89 493.84 L6.9 493.48 L7.28 424.96" class="st9"/>
		</g>
	</g>
</svg>
