<?xml version="1.0" encoding="utf-8"?>
<!-- Generator: Adobe Illustrator 24.1.2, SVG Export Plug-In . SVG Version: 6.00 Build 0)  -->
<svg version="1.0" id="Layer_1" xmlns="http://www.w3.org/2000/svg" xmlns:xlink="http://www.w3.org/1999/xlink" x="0px" y="0px"
	 width="116px" height="225px" viewBox="0 0 116 225" enable-background="new 0 0 116 225" xml:space="preserve">
<g>

		<polyline fill="none" stroke="#000000" stroke-width="0.72" stroke-linecap="round" stroke-linejoin="round" stroke-miterlimit="10" points="
		84.096,50.43 31.896,50.43 31.896,87.27 	"/>

		<polyline fill="none" stroke="#000000" stroke-width="0.72" stroke-linecap="round" stroke-linejoin="round" stroke-miterlimit="10" points="
		84.096,50.43 84.096,87.27 92.016,87.27 92.016,211.35 	"/>

		<polyline fill="none" stroke="#000000" stroke-width="0.72" stroke-linecap="round" stroke-linejoin="round" stroke-miterlimit="10" points="
		31.896,87.27 23.976,87.27 23.976,211.35 	"/>

		<line fill="none" stroke="#000000" stroke-width="0.24" stroke-linecap="round" stroke-linejoin="round" stroke-miterlimit="10" x1="38.136" y1="196.23" x2="77.856" y2="196.23"/>

		<line fill="none" stroke="#000000" stroke-width="0.24" stroke-linecap="round" stroke-linejoin="round" stroke-miterlimit="10" x1="38.136" y1="215.79" x2="77.856" y2="215.79"/>

		<path fill="none" stroke="#000000" stroke-width="0.24" stroke-linecap="round" stroke-linejoin="bevel" stroke-miterlimit="10" d="
		M32.496,210.09l0.06,0.96c0.614,2.501,2.119,4.006,4.62,4.62l0.96,0.06"/>

		<path fill="none" stroke="#000000" stroke-width="0.24" stroke-linecap="round" stroke-linejoin="bevel" stroke-miterlimit="10" d="
		M77.856,215.79l0.96-0.06c2.501-0.614,4.006-2.119,4.62-4.62l0.06-0.96"/>

		<line fill="none" stroke="#000000" stroke-width="0.24" stroke-linecap="round" stroke-linejoin="round" stroke-miterlimit="10" x1="83.496" y1="201.87" x2="83.496" y2="210.15"/>

		<path fill="none" stroke="#000000" stroke-width="0.24" stroke-linecap="round" stroke-linejoin="bevel" stroke-miterlimit="10" d="
		M83.496,201.87l-0.06-0.96c-0.614-2.501-2.119-4.006-4.62-4.62l-0.96-0.06"/>

		<line fill="none" stroke="#000000" stroke-width="0.24" stroke-linecap="round" stroke-linejoin="round" stroke-miterlimit="10" x1="32.496" y1="201.87" x2="32.496" y2="210.09"/>

		<path fill="none" stroke="#000000" stroke-width="0.24" stroke-linecap="round" stroke-linejoin="bevel" stroke-miterlimit="10" d="
		M38.136,196.23l-0.96,0.06c-2.501,0.614-4.006,2.119-4.62,4.62l-0.06,0.96"/>

		<rect x="34.776" y="53.31" fill="none" stroke="#000000" stroke-width="0.24" stroke-linecap="round" stroke-linejoin="round" stroke-miterlimit="10" width="3.36" height="18.66"/>

		<path fill="none" stroke="#000000" stroke-width="0.24" stroke-linecap="round" stroke-linejoin="round" stroke-miterlimit="10" d="
		M34.776,53.31"/>

		<rect x="39.276" y="57.81" fill="none" stroke="#000000" stroke-width="0.24" stroke-linecap="round" stroke-linejoin="round" stroke-miterlimit="10" width="3.42" height="14.16"/>

		<path fill="none" stroke="#000000" stroke-width="0.24" stroke-linecap="round" stroke-linejoin="round" stroke-miterlimit="10" d="
		M42.696,71.97"/>

		<rect x="43.836" y="57.81" fill="none" stroke="#000000" stroke-width="0.24" stroke-linecap="round" stroke-linejoin="round" stroke-miterlimit="10" width="3.36" height="14.16"/>

		<path fill="none" stroke="#000000" stroke-width="0.24" stroke-linecap="round" stroke-linejoin="round" stroke-miterlimit="10" d="
		M43.836,57.81"/>

		<rect x="48.336" y="53.31" fill="none" stroke="#000000" stroke-width="0.24" stroke-linecap="round" stroke-linejoin="round" stroke-miterlimit="10" width="3.42" height="18.66"/>

		<path fill="none" stroke="#000000" stroke-width="0.24" stroke-linecap="round" stroke-linejoin="round" stroke-miterlimit="10" d="
		M51.756,71.97"/>

		<rect x="52.896" y="55.53" fill="none" stroke="#000000" stroke-width="0.24" stroke-linecap="round" stroke-linejoin="round" stroke-miterlimit="10" width="3.42" height="16.44"/>

		<path fill="none" stroke="#000000" stroke-width="0.24" stroke-linecap="round" stroke-linejoin="round" stroke-miterlimit="10" d="
		M52.896,55.53"/>

		<rect x="57.456" y="55.53" fill="none" stroke="#000000" stroke-width="0.24" stroke-linecap="round" stroke-linejoin="round" stroke-miterlimit="10" width="3.36" height="16.44"/>

		<path fill="none" stroke="#000000" stroke-width="0.24" stroke-linecap="round" stroke-linejoin="round" stroke-miterlimit="10" d="
		M60.816,71.97"/>

		<rect x="61.956" y="53.31" fill="none" stroke="#000000" stroke-width="0.24" stroke-linecap="round" stroke-linejoin="round" stroke-miterlimit="10" width="3.42" height="18.66"/>

		<path fill="none" stroke="#000000" stroke-width="0.24" stroke-linecap="round" stroke-linejoin="round" stroke-miterlimit="10" d="
		M61.956,53.31"/>

		<rect x="66.516" y="57.81" fill="none" stroke="#000000" stroke-width="0.24" stroke-linecap="round" stroke-linejoin="round" stroke-miterlimit="10" width="3.36" height="14.16"/>

		<path fill="none" stroke="#000000" stroke-width="0.24" stroke-linecap="round" stroke-linejoin="round" stroke-miterlimit="10" d="
		M69.876,71.97"/>

		<rect x="71.016" y="57.81" fill="none" stroke="#000000" stroke-width="0.24" stroke-linecap="round" stroke-linejoin="round" stroke-miterlimit="10" width="3.42" height="14.16"/>

		<path fill="none" stroke="#000000" stroke-width="0.24" stroke-linecap="round" stroke-linejoin="round" stroke-miterlimit="10" d="
		M71.016,57.81"/>

		<rect x="75.576" y="53.31" fill="none" stroke="#000000" stroke-width="0.24" stroke-linecap="round" stroke-linejoin="round" stroke-miterlimit="10" width="3.42" height="18.66"/>

		<path fill="none" stroke="#000000" stroke-width="0.24" stroke-linecap="round" stroke-linejoin="round" stroke-miterlimit="10" d="
		M78.996,71.97"/>

		<line fill="none" stroke="#000000" stroke-width="0.72" stroke-linecap="round" stroke-linejoin="round" stroke-miterlimit="10" x1="35.316" y1="222.69" x2="80.676" y2="222.69"/>

		<path fill="none" stroke="#000000" stroke-width="0.72" stroke-linecap="round" stroke-linejoin="bevel" stroke-miterlimit="10" d="
		M80.676,222.63l1.38-0.06c5.221-0.725,9.115-4.619,9.84-9.84l0.06-1.38"/>

		<path fill="none" stroke="#000000" stroke-width="0.72" stroke-linecap="round" stroke-linejoin="bevel" stroke-miterlimit="10" d="
		M24.036,211.35l0.06,1.38c0.725,5.221,4.619,9.115,9.84,9.84l1.38,0.06"/>
	<path fill-rule="evenodd" clip-rule="evenodd" d="M8.736,4.05l-3.42,0.12h0.18l0.36,0.06c2.073,0.093,3.207,1.804,3.12,3.84v0.6
		c-0.216,2.05-1.123,3.351-3.3,3.42h-1.74l4.92,0.06c1.962-1.684,2.079-5.901,0.3-7.74l-0.18-0.18"/>
	<path fill-rule="evenodd" clip-rule="evenodd" d="M5.376,3.09h-2.34l-0.3,0.12l-0.06,0.12l-0.06,0.3v9.24l0.12,0.24h0.06l0.3,0.12
		h2.88l0.36-0.06l0.3-0.06l0.6-0.12l0.24-0.06l0.6-0.24l0.24-0.18l0.3-0.18l0.24-0.18l-4.92-0.06V4.17h1.38l3.42-0.12l-0.24-0.18
		c-0.711-0.503-1.546-0.724-2.4-0.78h-0.36"/>
	<path fill-rule="evenodd" clip-rule="evenodd" d="M17.856,11.79l-0.3,0.06c-0.618,0.353-1.337,0.478-2.04,0.48l-2.76,0.06l0.3,0.3
		c0.865,0.655,1.953,0.721,3,0.66l0.3-0.06h0.18l0.3-0.06l0.3-0.12l0.24-0.06l0.3-0.12l0.24-0.12l0.06-0.12l0.06-0.06v-0.18
		l0.06-0.18l-0.06-0.24v-0.12l-0.06-0.12"/>
	<path fill-rule="evenodd" clip-rule="evenodd" d="M17.616,6.57l-2.4,0.06h0.36c0.987,0.287,1.362,0.779,1.5,1.8v0.36h-3.84
		l-1.32,0.06l-0.06,0.36c-0.07,0.861,0.225,2.591,0.9,3.18l2.76-0.06h-0.18c-1.405-0.127-2.045-0.84-2.1-2.22V9.75h4.68l0.3-0.12
		l0.06-0.12l0.06-0.3V8.25l-0.12-0.6l-0.12-0.24l-0.12-0.3l-0.18-0.24"/>
	<path fill-rule="evenodd" clip-rule="evenodd" d="M15.276,5.61h-0.18c-1.834,0.116-2.819,1.18-3.18,2.94v0.3l1.32-0.06V8.61
		c0.053-1.127,0.834-1.983,1.98-1.98l2.4-0.06l-0.12-0.18c-0.465-0.343-0.982-0.659-1.56-0.72l-0.3-0.06"/>
	<polyline fill-rule="evenodd" clip-rule="evenodd" points="22.896,12.09 21.456,12.15 21.576,12.27 23.676,12.27 23.496,12.27
		23.196,12.21 	"/>
	<polyline fill-rule="evenodd" clip-rule="evenodd" points="21.876,6.57 21.636,6.75 23.196,6.81 23.376,6.75 23.736,6.75 	"/>
	<path fill-rule="evenodd" clip-rule="evenodd" d="M23.976,5.61h-0.3l-0.3,0.06l-0.3,0.06l-0.3,0.12v0.06l-0.3,0.12l-0.24,0.18
		l-0.36,0.36l1.86,0.18h0.24c0.975,0.138,1.469,1.279,1.44,2.16l0.06,0.3v0.36c-0.013,0.905-0.339,2.571-1.5,2.64l-0.3,0.06h-2.1
		l0.24,0.24l0.24,0.18v0.06l0.3,0.18c4.611,2.584,6.196-6.127,2.28-7.26l-0.36-0.06"/>
	<path fill-rule="evenodd" clip-rule="evenodd" d="M20.976,2.31h-0.3l-0.24,0.06l-0.06,0.06l-0.06,0.12v10.62l0.12,0.06l0.18,0.06
		h0.54l0.18-0.06l0.12-0.06v-1.02l1.44-0.06l-0.24-0.18l-0.12-0.06l-0.24-0.18l-0.24-0.24l-0.18-0.24l-0.24-0.24V8.13l0.12-0.24
		c0.376-0.389,0.512-0.526,0.96-0.84l0.48-0.24l-1.56-0.06v-4.2l-0.06-0.12l-0.12-0.06l-0.18-0.06"/>
	<polyline fill-rule="evenodd" clip-rule="evenodd" points="32.436,11.97 32.136,12.15 31.836,12.21 31.536,12.27 33.396,12.33
		33.636,12.09 	"/>
	<path fill-rule="evenodd" clip-rule="evenodd" d="M29.376,5.73h-0.3l-0.18,0.06l-0.12,0.06l-0.06,0.12v4.32l0.06,0.36v0.36
		l0.06,0.3l0.06,0.24v0.12l0.24,0.6l0.18,0.24v0.06l0.24,0.24c0.938,0.809,2.389,0.666,3.36,0l0.48-0.48l-1.86-0.06h-0.06l-0.3-0.06
		l-0.3-0.12l-0.24-0.12l-0.24-0.24v-0.06l-0.18-0.3l-0.18-0.9V5.85l-0.12-0.06l-0.24-0.06"/>
	<polyline fill-rule="evenodd" clip-rule="evenodd" points="34.176,5.73 33.876,5.73 33.636,5.79 33.576,5.85 33.516,5.97
		33.516,10.89 33.396,11.07 32.736,11.73 32.496,11.91 32.436,11.97 33.636,12.09 33.636,13.05 33.696,13.11 33.756,13.23
		33.936,13.29 34.536,13.29 34.716,13.23 34.776,13.11 34.836,13.05 34.836,5.97 34.776,5.85 34.716,5.79 34.476,5.73 	"/>
	<path fill-rule="evenodd" clip-rule="evenodd" d="M37.176,12.57l-0.18,0.24c-0.584,0.505-0.794,1.46-0.42,2.16l0.06,0.12h3h-0.24
		c-1.547,0.052-2.389-0.949-1.14-2.16l0.24-0.24"/>
	<polyline fill-rule="evenodd" clip-rule="evenodd" points="41.316,10.23 38.136,10.29 38.436,10.47 38.736,10.59 38.916,10.65
		39.216,10.65 39.576,10.71 39.756,10.71 40.656,10.53 40.716,10.53 41.016,10.35 	"/>
	<path fill-rule="evenodd" clip-rule="evenodd" d="M37.356,6.57l-0.18,0.24c-0.459,0.72-0.531,1.983,0,2.7l0.18,0.24l2.22-0.06h-0.3
		c-1.642-0.21-1.616-2.702-0.06-3.06h0.3"/>
	<path fill-rule="evenodd" clip-rule="evenodd" d="M39.576,5.61h-0.18l-0.36,0.06l-0.3,0.06l-0.3,0.06l-0.06,0.06l-0.3,0.12
		l-0.48,0.36h-0.06l-0.18,0.24l2.16,0.06h0.36c1.282,0.147,1.599,2.088,0.6,2.76l-0.24,0.18h-0.06l-0.3,0.12h-0.3l-2.22,0.06
		l-0.12,0.12l-0.24,0.3l-0.24,0.48l-0.12,0.6v0.06l0.06,0.3l0.18,0.3l0.06,0.12l0.18,0.18l0.3,0.18l-0.24,0.18l1.32,0.12l1.8,0.12
		h0.48l0.3,0.12l0.24,0.12l0.18,0.12l0.18,0.24l0.06,0.36l-0.06,0.18l-0.06,0.3l-0.12,0.24l-0.24,0.18l-0.06,0.06l-0.24,0.12
		l-0.36,0.12l-0.6,0.12h-3.36l0.54,0.54c1.139,0.516,2.439,0.576,3.66,0.36l0.24-0.12l0.3-0.06c1.215-0.412,2.035-1.687,1.44-2.94
		l-0.06-0.12l-0.18-0.24l-0.24-0.24l-0.18-0.12l-0.6-0.24l-0.3-0.06l-0.3-0.06h-0.36l-1.86-0.12h-0.06l-0.36-0.06l-0.24-0.12
		l-0.18-0.18l-0.06-0.3v-0.12l0.06-0.3l0.06-0.06l0.18-0.24l3.18-0.06l0.48-0.48l0.18-0.24l0.12-0.3l0.06-0.12
		c0.161-0.638,0.116-0.771,0.12-1.38l-0.12-0.3V7.35l-0.12-0.3l-0.24-0.24h1.02l0.18-0.12l0.06-0.06V6.15l-0.06-0.24l-0.18-0.12
		h-2.16l-0.18-0.06l-0.3-0.06h-0.3"/>
	<path fill-rule="evenodd" clip-rule="evenodd" d="M53.256,11.37l-0.24,0.12c-0.435,0.316-0.893,0.648-1.44,0.72l-0.36,0.06
		l2.22,0.06l0.06-0.12v-0.54l-0.06-0.18l-0.06-0.12"/>
	<path fill-rule="evenodd" clip-rule="evenodd" d="M48.756,6.69l-0.36,0.48c-0.681,1.492-0.693,3.544,0.12,4.98l0.18,0.24l0.24,0.24
		c1.166,1.044,3.117,0.936,4.32,0l0.12-0.18l0.06-0.12l-2.22-0.06c-2.552,0.257-2.606-5.383-0.36-5.52l0.3-0.06"/>
	<path fill-rule="evenodd" clip-rule="evenodd" d="M51.216,5.61h-0.06c-1.056,0.101-1.485,0.153-2.28,0.96l-0.12,0.12h2.4
		c0.753,0.089,1.189,0.237,1.8,0.72l0.24,0.12l0.18-0.12l0.06-0.06v-0.6l-0.06-0.18V6.45l-0.18-0.12V6.27l-0.3-0.18l-0.18-0.12
		l-0.3-0.12l-0.24-0.06l-0.3-0.12h-0.06l-0.3-0.06"/>
	<path fill-rule="evenodd" clip-rule="evenodd" d="M60.936,6.63l-2.64,0.06h0.12c0.609,0.05,1.247,0.273,1.56,0.84h0.06l0.12,0.3
		c0.671,1.555,0.398,4.589-1.92,4.44l-2.64,0.12h0.06l0.18,0.24c1.12,0.968,3.487,1.011,4.62,0.06l0.24-0.18l0.18-0.24
		c1.088-1.086,1.167-3.521,0.54-4.86l-0.12-0.3l-0.18-0.24"/>
	<path fill-rule="evenodd" clip-rule="evenodd" d="M58.356,5.61h-0.06c-3.468-0.122-4.381,4.086-2.88,6.54l0.18,0.24l2.64-0.12
		h-0.12c-2.771,0.192-2.773-5.859,0.18-5.58l2.64-0.06V6.57c-0.525-0.511-1.184-0.825-1.92-0.9l-0.3-0.06"/>
	<polyline fill-rule="evenodd" clip-rule="evenodd" points="65.136,6.63 64.896,6.93 66.096,6.99 66.396,6.87 66.696,6.75
		66.996,6.75 	"/>
	<polyline fill-rule="evenodd" clip-rule="evenodd" points="64.296,5.73 63.996,5.73 63.816,5.79 63.696,5.85 63.696,13.05
		63.756,13.11 63.816,13.23 64.056,13.29 64.656,13.29 64.836,13.23 65.016,13.05 65.016,8.07 65.136,7.95 65.316,7.71 65.796,7.23
		66.036,7.11 66.096,6.99 64.896,6.93 64.896,5.97 64.836,5.85 64.776,5.79 64.596,5.73 	"/>
	<path fill-rule="evenodd" clip-rule="evenodd" d="M67.236,5.61h-0.24c-0.62,0.055-1.154,0.389-1.62,0.78l-0.24,0.24l1.86,0.12h0.36
		l0.3,0.12l0.24,0.18l0.24,0.24v0.06l0.18,0.24l0.06,0.36l0.06,0.24l0.06,0.36v4.56l0.12,0.12l0.18,0.06h0.66l0.18-0.06l0.12-0.12
		v-5.1l-0.12-0.6V7.35l-0.12-0.3c-0.135-0.451-0.646-1.021-1.08-1.2l-0.24-0.12l-0.3-0.06l-0.3-0.06"/>
	<polyline fill-rule="evenodd" clip-rule="evenodd" points="73.596,6.63 73.356,6.93 74.556,6.99 74.856,6.87 75.156,6.75
		75.456,6.75 	"/>
	<polyline fill-rule="evenodd" clip-rule="evenodd" points="72.756,5.73 72.456,5.73 72.276,5.79 72.156,5.85 72.156,13.05
		72.216,13.11 72.276,13.23 72.516,13.29 73.116,13.29 73.296,13.23 73.476,13.05 73.476,8.07 73.596,7.95 73.776,7.71 74.256,7.23
		74.496,7.11 74.556,6.99 73.356,6.93 73.356,5.97 73.296,5.85 73.236,5.79 73.056,5.73 	"/>
	<path fill-rule="evenodd" clip-rule="evenodd" d="M75.696,5.61h-0.24c-0.62,0.055-1.154,0.389-1.62,0.78l-0.24,0.24l1.86,0.12h0.36
		l0.3,0.12l0.24,0.18l0.24,0.24v0.06l0.18,0.24l0.06,0.36l0.06,0.24l0.06,0.36v4.56l0.12,0.12l0.18,0.06h0.66l0.18-0.06l0.12-0.12
		v-5.1l-0.12-0.6V7.35l-0.12-0.3c-0.135-0.451-0.646-1.021-1.08-1.2l-0.24-0.12l-0.3-0.06l-0.3-0.06"/>
	<path fill-rule="evenodd" clip-rule="evenodd" d="M86.076,11.79l-0.3,0.06c-0.618,0.353-1.337,0.478-2.04,0.48l-2.76,0.06l0.3,0.3
		c0.865,0.656,1.953,0.721,3,0.66l0.3-0.06h0.18l0.3-0.06l0.3-0.12l0.24-0.06l0.3-0.12l0.24-0.12l0.06-0.12l0.06-0.06v-0.18
		l0.06-0.18l-0.06-0.24v-0.12l-0.06-0.12"/>
	<path fill-rule="evenodd" clip-rule="evenodd" d="M85.836,6.57l-2.4,0.06h0.36c0.988,0.287,1.362,0.779,1.5,1.8v0.36h-3.84
		l-1.32,0.06l-0.06,0.36c-0.07,0.861,0.225,2.591,0.9,3.18l2.76-0.06h-0.18c-1.405-0.127-2.045-0.84-2.1-2.22V9.75h4.68l0.3-0.12
		l0.06-0.12l0.06-0.3V8.25l-0.12-0.6l-0.12-0.24l-0.12-0.3l-0.18-0.24"/>
	<path fill-rule="evenodd" clip-rule="evenodd" d="M83.496,5.61h-0.18c-1.834,0.116-2.819,1.18-3.18,2.94v0.3l1.32-0.06V8.61
		c0.053-1.127,0.834-1.983,1.98-1.98l2.4-0.06l-0.12-0.18c-0.465-0.343-0.982-0.659-1.56-0.72l-0.3-0.06"/>
	<path fill-rule="evenodd" clip-rule="evenodd" d="M93.456,11.37l-0.24,0.12c-0.435,0.316-0.893,0.648-1.44,0.72l-0.36,0.06
		l2.22,0.06l0.06-0.12v-0.54l-0.06-0.18l-0.06-0.12"/>
	<path fill-rule="evenodd" clip-rule="evenodd" d="M88.956,6.69l-0.36,0.48c-0.681,1.492-0.693,3.544,0.12,4.98l0.18,0.24l0.24,0.24
		c1.166,1.044,3.117,0.936,4.32,0l0.12-0.18l0.06-0.12l-2.22-0.06c-2.553,0.257-2.605-5.384-0.36-5.52l0.3-0.06"/>
	<path fill-rule="evenodd" clip-rule="evenodd" d="M91.416,5.61h-0.06c-1.056,0.101-1.485,0.153-2.28,0.96l-0.12,0.12h2.4
		c0.753,0.089,1.189,0.237,1.8,0.72l0.24,0.12l0.18-0.12l0.06-0.06v-0.6l-0.06-0.18V6.45l-0.18-0.12V6.27l-0.3-0.18l-0.18-0.12
		l-0.3-0.12l-0.24-0.06l-0.3-0.12h-0.06l-0.3-0.06"/>
	<polyline fill-rule="evenodd" clip-rule="evenodd" points="98.856,12.03 98.736,12.09 98.556,12.15 98.316,12.21 98.256,12.21
		97.956,12.27 99.036,12.27 98.976,12.15 98.976,12.03 	"/>
	<path fill-rule="evenodd" clip-rule="evenodd" d="M96.336,3.81l-0.3,0.06h-0.24l-0.12,0.24v1.68h-1.08l-0.12,0.12v0.12l-0.06,0.3
		v0.12l0.06,0.24l0.24,0.18h0.96v4.2c-0.031,0.512,0.159,1.472,0.6,1.8l0.24,0.18l0.3,0.18c0.557,0.161,1.923,0.287,2.22-0.36v-0.6
		h-1.08c-0.907-0.038-0.964-0.782-0.96-1.5v-3.9h1.8l0.18-0.18l0.06-0.06v-0.6l-0.12-0.24h-1.92V4.11l-0.06-0.12l-0.12-0.12h-0.18"
		/>
	<path fill-rule="evenodd" clip-rule="evenodd" d="M106.476,6.63l-2.64,0.06h0.12c0.609,0.05,1.247,0.273,1.56,0.84h0.06l0.12,0.3
		c0.671,1.555,0.398,4.589-1.92,4.44l-2.64,0.12h0.06l0.18,0.24c1.12,0.968,3.487,1.011,4.62,0.06l0.24-0.18l0.18-0.24
		c1.088-1.086,1.167-3.521,0.54-4.86l-0.12-0.3l-0.18-0.24"/>
	<path fill-rule="evenodd" clip-rule="evenodd" d="M103.896,5.61h-0.06c-3.468-0.122-4.381,4.086-2.88,6.54l0.18,0.24l2.64-0.12
		h-0.12c-2.771,0.192-2.773-5.859,0.18-5.58l2.64-0.06V6.57c-0.525-0.511-1.184-0.825-1.92-0.9l-0.3-0.06"/>
	<polyline fill-rule="evenodd" clip-rule="evenodd" points="113.376,6.75 112.236,6.87 112.536,6.87 112.836,6.93 113.016,6.99
		113.196,7.05 113.316,6.93 	"/>
	<polyline fill-rule="evenodd" clip-rule="evenodd" points="109.836,5.73 109.536,5.73 109.356,5.79 109.236,5.85 109.236,13.05
		109.296,13.11 109.356,13.23 109.596,13.29 110.196,13.29 110.376,13.23 110.556,13.05 110.556,8.37 110.676,8.13 111.036,7.65
		111.276,7.41 111.456,7.17 111.576,7.05 110.436,6.99 110.436,5.97 110.376,5.85 110.316,5.79 110.136,5.73 	"/>
	<path fill-rule="evenodd" clip-rule="evenodd" d="M112.356,5.61h-0.18l-0.3,0.06l-0.18,0.06l-0.48,0.36l-0.24,0.24l-0.18,0.12
		l-0.18,0.24l-0.18,0.3l1.14,0.06l0.3-0.12l0.06-0.06h0.3l1.14-0.12v-0.3c0.024-0.512,0.03-0.704-0.54-0.78l-0.24-0.06"/>

		<line fill="none" stroke="#000000" stroke-width="0.72" stroke-linecap="round" stroke-linejoin="round" stroke-miterlimit="10" x1="57.996" y1="25.11" x2="57.996" y2="44.79"/>
</g>
</svg>
