<?xml version="1.0" encoding="UTF-8" standalone="no"?>
<!DOCTYPE svg PUBLIC "-//W3C//DTD SVG 1.1//EN" "http://www.w3.org/Graphics/SVG/1.1/DTD/svg11.dtd">
<!-- Generated by Microsoft Visio, SVG Export nrf_desktop_ble_bond_dongle.svg Page-1 -->
<svg xmlns="http://www.w3.org/2000/svg" xmlns:xlink="http://www.w3.org/1999/xlink" xmlns:ev="http://www.w3.org/2001/xml-events"
		width="7.80478in" height="6.23078in" viewBox="0 0 561.944 448.616" xml:space="preserve" color-interpolation-filters="sRGB"
		class="st23">
	<style type="text/css">
	<![CDATA[
		.st1 {fill:none;stroke:none;stroke-width:1}
		.st2 {fill:#0033a0;font-family:Arial;font-size:0.666664em}
		.st3 {fill:#f58220;font-size:1em}
		.st4 {fill:#ee2f4e;font-size:1em}
		.st5 {fill:#333f48;font-size:1em}
		.st6 {fill:none;stroke:#768692;stroke-dasharray:0.01,3;stroke-width:1}
		.st7 {fill:#d9e1e2;stroke:none;stroke-width:1}
		.st8 {fill:none;stroke:#000000;stroke-width:1}
		.st9 {fill:#000000;font-family:Arial;font-size:0.666664em}
		.st10 {font-size:1em}
		.st11 {fill:#0077c8;font-size:1em}
		.st12 {fill:#0033a0;font-size:1em}
		.st13 {marker-end:url(#mrkr4-32);stroke:#333f48;stroke-linecap:butt;stroke-width:1}
		.st14 {fill:#333f48;fill-opacity:1;stroke:#333f48;stroke-opacity:1;stroke-width:0.28409090909091}
		.st15 {fill:#0077c8;font-family:Arial;font-size:0.666664em}
		.st16 {marker-start:url(#mrkr4-53);stroke:#333f48;stroke-linecap:butt;stroke-width:1}
		.st17 {fill:#00a9ce;stroke:none;stroke-width:1}
		.st18 {fill:#feffff;font-family:Arial;font-size:0.833336em}
		.st19 {fill:#ee2f4e;font-family:Arial;font-size:0.666664em}
		.st20 {font-size:1em;text-decoration:underline}
		.st21 {fill:#333f48;font-family:Arial;font-size:0.666664em}
		.st22 {fill:#768692;font-family:Arial;font-size:0.666664em}
		.st23 {fill:none;fill-rule:evenodd;font-size:12px;overflow:visible;stroke-linecap:square;stroke-miterlimit:3}
	]]>
	</style>

	<defs id="Markers">
		<g id="lend4">
			<path d="M 2 1 L 0 0 L 2 -1 L 2 1 " style="stroke:none"/>
		</g>
		<marker id="mrkr4-32" class="st14" refX="-7.04" orient="auto" markerUnits="strokeWidth" overflow="visible">
			<use xlink:href="#lend4" transform="scale(-3.52,-3.52) "/>
		</marker>
		<marker id="mrkr4-53" class="st14" refX="6.68" orient="auto" markerUnits="strokeWidth" overflow="visible">
			<use xlink:href="#lend4" transform="scale(3.52) "/>
		</marker>
	</defs>
	<g>
		<title>Page-1</title>
		<g id="shape408-1" transform="translate(53.0885,-185.411)">
			<title>Sheet.408</title>
			<desc>CLICK_NONE TIMEOUT DONGLE_PEER_SELECTOR_POS (PEER_OPERATION_E...</desc>
			<rect x="0" y="411.766" width="181.843" height="36.8504" class="st1"/>
			<text x="126.72" y="418.19" class="st2">CLICK_NONE <tspan x="141.85" dy="1.2em" class="st3">TIMEOUT </tspan><tspan
						x="48.91" dy="1.2em" class="st4">DONGLE_PEER_SELECTOR_POS </tspan><tspan x="9.79" dy="1.2em" class="st5">(PEER_OPERATION_ERASE_ADV_CANCEL)</tspan></text>		</g>
		<g id="shape461-7" transform="translate(298.13,-98.9546)">
			<title>Sheet.461</title>
			<path d="M0 448.62 L262.44 448.62 L262.44 265.15 L0 265.15 L0 448.62 Z" class="st6"/>
		</g>
		<g id="shape463-9" transform="translate(301.65,-104.624)">
			<title>Sheet.463</title>
			<desc>CLICK_LONG (PEER_OPERATION_ERASE)</desc>
			<rect x="0" y="422.708" width="119.197" height="25.9077" class="st1"/>
			<text x="4" y="433.26" class="st2">CLICK_LONG <tspan x="4" dy="1.2em" class="st5">(PEER_OPERATION_ERASE)</tspan></text>		</g>
		<g id="shape447-13" transform="translate(1,-54.8583)">
			<title>Nordic Light Grey</title>
			<rect x="0" y="431.289" width="164.728" height="17.3265" class="st7"/>
		</g>
		<g id="shape371-15" transform="translate(1,-1)">
			<title>Sheet.371</title>
			<desc>PEER OPERATION TRIGGERS - ble_peer_event - click_event (prede...</desc>
			<rect x="0" y="377.431" width="164.728" height="71.1848" class="st8"/>
			<text x="4" y="389.62" class="st9">PEER OPERATION TRIGGERS  <tspan x="4" dy="2.4em" class="st10">-</tspan> <tspan
						class="st11">ble_peer_event </tspan><tspan x="4" dy="1.2em" class="st10">-</tspan> <tspan class="st12">click_event</tspan> (predefined button) <tspan
						x="4" dy="1.2em" class="st5">-</tspan><tspan class="st5"> </tspan><tspan class="st3">timeout </tspan><tspan
						x="4" dy="1.538em" class="st10">-</tspan> <tspan class="st4">selector_event</tspan> (predefined selector)</text>		</g>
		<g id="shape386-27" transform="translate(101.364,-164.151)">
			<title>Dynamic connector.386</title>
			<path d="M0 448.62 L0 434.44 L134.03 434.44 L134.03 318.7" class="st13"/>
		</g>
		<g id="shape387-33" transform="translate(128.311,-130.532)">
			<title>Dynamic connector.387</title>
			<path d="M0 448.62 L0 474.52 L140.88 474.52 L140.88 285.08" class="st13"/>
		</g>
		<g id="shape394-38" transform="translate(123.209,-104.624)">
			<title>Sheet.394</title>
			<desc>PEER_STATE_SECURED (PEER_OPERATION_ERASED)</desc>
			<rect x="0" y="426.007" width="145.205" height="22.6092" class="st1"/>
			<text x="45.62" y="434.91" class="st15">PEER_STATE_SECURED <tspan x="25.18" dy="1.2em" class="st5">(PEER_OPERATION_ERASED)</tspan></text>		</g>
		<g id="shape401-42" transform="translate(317.531,-185.411)">
			<title>Sheet.401</title>
			<desc>CLICK_NONE TIMEOUT DONGLE_PEER_SELECTOR_POS (PEER_OPERATION_C...</desc>
			<rect x="0" y="411.766" width="145.205" height="36.8504" class="st1"/>
			<text x="4" y="418.19" class="st2">CLICK_NONE <tspan x="4" dy="1.2em" class="st3">TIMEOUT </tspan><tspan x="4"
						dy="1.2em" class="st4">DONGLE_PEER_SELECTOR_POS </tspan><tspan x="4" dy="1.2em" class="st5">(PEER_OPERATION_CANCEL)</tspan></text>		</g>
		<g id="shape402-48" transform="translate(418.862,-130.532)">
			<title>Dynamic connector.402</title>
			<path d="M0 455.3 L0 455.66 L0 474.52 L-136.35 474.52 L-136.35 278.04" class="st16"/>
		</g>
		<g id="shape404-54" transform="translate(317.098,-301.112)">
			<title>Dynamic connector.404</title>
			<path d="M0 455.3 L0 455.66 L0 571.4 L154.12 571.4 L154.12 585.58" class="st16"/>
		</g>
		<g id="shape423-59" transform="translate(101.364,-123.445)">
			<title>Dynamic connector.423</title>
			<path d="M0 448.21 L0 448.57 L0 481.39 L369.85 481.39 L369.85 441.53" class="st16"/>
		</g>
		<g id="shape441-64" transform="translate(215.335,-301.112)">
			<title>Nordic Blue.441</title>
			<desc>STATE_DONGLE</desc>
			<rect x="0" y="383.289" width="123.732" height="65.3268" class="st17"/>
			<text x="21.86" y="419.25" class="st18">STATE_DONGLE</text>		</g>
		<g id="shape442-67" transform="translate(19,-130.532)">
			<title>Nordic Blue.442</title>
			<desc>STATE_DONGLE_ERASE_ADV</desc>
			<rect x="0" y="414.996" width="164.728" height="33.6199" class="st17"/>
			<text x="9.56" y="435.11" class="st18">STATE_DONGLE_ERASE_ADV</text>		</g>
		<g id="shape451-70" transform="translate(424.673,-399.331)">
			<title>Nordic Blue.451</title>
			<desc>STATE_IDLE</desc>
			<rect x="0" y="414.996" width="123.732" height="33.6199" class="st17"/>
			<text x="31.86" y="435.11" class="st18">STATE_IDLE</text>		</g>
		<g id="shape452-73" transform="translate(279.335,-425.007)">
			<title>Sheet.452</title>
			<desc>DONGLE_PEER_SELECTOR_POS (PEER_OPERATION_SELECTED)</desc>
			<rect x="0" y="426.007" width="145.339" height="22.6092" class="st1"/>
			<text x="8.2" y="434.91" class="st19">DONGLE_PEER_SELECTOR_POS <tspan x="9.99" dy="1.2em" class="st5">(PEER_OPERATION_SELECTED)</tspan></text>		</g>
		<g id="shape453-77" transform="translate(282.516,-366.439)">
			<title>Dynamic connector</title>
			<path d="M0 441.94 L0 441.58 L0 390.66 L142.16 390.66" class="st16"/>
		</g>
		<g id="shape454-82" transform="translate(424.673,-409.81)">
			<title>Dynamic connector.454</title>
			<path d="M-6.68 448.62 L-7.04 448.62 L-108.14 448.62 L-108.14 491.99" class="st16"/>
		</g>
		<g id="shape455-87" transform="translate(316.532,-377.799)">
			<title>Sheet.455</title>
			<desc>not DONGLE_PEER_SELECTOR_POS (PEER_OPERATION_SELECTED)</desc>
			<rect x="0" y="417.172" width="145.339" height="31.4442" class="st1"/>
			<text x="4" y="425.69" class="st19"><tspan class="st20">not</tspan> <tspan x="4" dy="1.2em" class="st10">DONGLE_PEER_SELECTOR_POS </tspan><tspan
						x="4" dy="1.2em" class="st5">(PEER_OPERATION_SELECTED)</tspan></text>		</g>
		<g id="shape458-93" transform="translate(11.9843,-399.331)">
			<title>Nordic Blue.449</title>
			<desc>STATE_DONGLE_STANDBY</desc>
			<rect x="0" y="414.996" width="145.205" height="33.6199" class="st17"/>
			<text x="6.2" y="435.11" class="st18">STATE_DONGLE_STANDBY</text>		</g>
		<g id="shape459-96" transform="translate(269.193,-366.439)">
			<title>Dynamic connector.459</title>
			<path d="M0 448.62 L0 390.65 L-104.96 390.65" class="st13"/>
		</g>
		<g id="shape460-101" transform="translate(157.189,-410.516)">
			<title>Dynamic connector.460</title>
			<path d="M0 448.62 L82.24 448.62 L82.24 485.65" class="st13"/>
		</g>
		<g id="shape462-106" transform="translate(388.85,-130.532)">
			<title>Nordic Blue.462</title>
			<desc>STATE_DONGLE_ERASE_PEER</desc>
			<rect x="0" y="414.996" width="164.728" height="33.6199" class="st17"/>
			<text x="6.23" y="435.11" class="st18">STATE_DONGLE_ERASE_PEER</text>		</g>
		<g id="shape464-109" transform="translate(169.307,-387.907)">
			<title>Sheet.464</title>
			<desc>wake_up_event</desc>
			<rect x="0" y="426.007" width="70.122" height="22.6092" class="st1"/>
			<text x="4" y="439.71" class="st15">wake_up_event</text>		</g>
		<g id="shape465-112" transform="translate(169.307,-424.399)">
			<title>Sheet.465</title>
			<desc>power_down_event</desc>
			<rect x="0" y="426.007" width="78.1732" height="22.6092" class="st1"/>
			<text x="4" y="439.71" class="st15">power_down_event</text>		</g>
		<g id="shape466-115" transform="translate(326.419,-64.9388)">
			<title>Sheet.466</title>
			<desc>CLICK_DOUBLE (PEER_OPERATION_ERASE_ADV)</desc>
			<rect x="0" y="426.007" width="145.205" height="22.6092" class="st1"/>
			<text x="80.29" y="434.91" class="st2">CLICK_DOUBLE <tspan x="10.06" dy="1.2em" class="st5">(PEER_OPERATION_ERASE_ADV)</tspan></text>		</g>
		<g id="shape467-119" transform="translate(483.457,-380.717)">
			<title>Sheet.467</title>
			<desc>See Diagram #1</desc>
			<rect x="0" y="430.002" width="70.122" height="18.6138" class="st1"/>
			<text x="4" y="441.71" class="st21">See Diagram #1</text>		</g>
		<g id="shape377-122" transform="translate(298.503,-263.018)">
			<title>Sheet.377</title>
			<desc>#if CONFIG_DESKTOP_BLE_DONGLE_PEER_ERASE_BOND_BUTTON</desc>
			<rect x="0" y="430.002" width="262.441" height="18.6138" class="st1"/>
			<text x="127" y="436.91" class="st22">#if <tspan x="4.07" dy="1.2em" class="st10">CONFIG_DESKTOP_BLE_DONGLE_PEER_ERASE_BOND_BUTTON</tspan></text>		</g>
	</g>
</svg>
