<?xml version="1.0" encoding="utf-8"?>
<!-- Generator: Adobe Illustrator 24.1.2, SVG Export Plug-In . SVG Version: 6.00 Build 0)  -->
<svg version="1.0" id="Layer_1" xmlns="http://www.w3.org/2000/svg" xmlns:xlink="http://www.w3.org/1999/xlink" x="0px" y="0px"
	 width="269px" height="237px" viewBox="0 0 269 237" enable-background="new 0 0 269 237" xml:space="preserve">
<g>

		<line fill="none" stroke="#000000" stroke-width="0.72" stroke-linecap="round" stroke-linejoin="round" stroke-miterlimit="10" x1="28.15" y1="30.69" x2="7.81" y2="63.15"/>

		<line fill="none" stroke="#000000" stroke-width="0.72" stroke-linecap="round" stroke-linejoin="round" stroke-miterlimit="10" x1="87.07" y1="2.13" x2="50.59" y2="13.05"/>

		<line fill="none" stroke="#000000" stroke-width="0.24" stroke-linecap="round" stroke-linejoin="round" stroke-miterlimit="10" x1="102.13" y1="46.65" x2="139.51" y2="66.75"/>

		<polyline fill="none" stroke="#000000" stroke-width="0.72" stroke-linecap="round" stroke-linejoin="bevel" stroke-miterlimit="10" points="
		47.95,15.39 47.59,15.87 47.47,16.41 47.53,16.95 47.83,17.43 48.25,17.79 	"/>

		<line fill="none" stroke="#000000" stroke-width="0.24" stroke-linecap="round" stroke-linejoin="round" stroke-miterlimit="10" x1="45.97" y1="39.69" x2="118.45" y2="83.43"/>

		<polyline fill="none" stroke="#000000" stroke-width="0.72" stroke-linecap="round" stroke-linejoin="bevel" stroke-miterlimit="10" points="
		30.19,30.21 29.65,29.97 29.05,30.03 28.51,30.27 28.15,30.69 	"/>

		<polyline fill="none" stroke="#000000" stroke-width="0.72" stroke-linecap="round" stroke-linejoin="round" stroke-miterlimit="10" points="
		142.15,23.85 131.53,19.05 120.79,14.43 109.93,10.11 99.01,6.03 88.03,2.13 	"/>

		<line fill="none" stroke="#000000" stroke-width="0.72" stroke-linecap="round" stroke-linejoin="bevel" stroke-miterlimit="10" x1="88.03" y1="2.13" x2="87.13" y2="2.13"/>

		<polyline fill="none" stroke="#000000" stroke-width="0.72" stroke-linecap="round" stroke-linejoin="bevel" stroke-miterlimit="10" points="
		174.43,40.29 169.21,37.23 163.93,34.29 158.59,31.47 153.19,28.77 147.67,26.25 142.15,23.85 	"/>

		<path fill="none" stroke="#000000" stroke-width="0.72" stroke-linecap="round" stroke-linejoin="bevel" stroke-miterlimit="10" d="
		M210.97,66.21l-4.92-4.14c-8.124-6.746-17.058-13.028-26.1-18.48l-5.58-3.24"/>

		<path fill="none" stroke="#000000" stroke-width="0.72" stroke-linecap="round" stroke-linejoin="bevel" stroke-miterlimit="10" d="
		M264.91,167.79l-1.56-6.12c-2.691-10.378-5.906-20.17-9.9-30.12l-2.4-5.82l-2.16-5.16c-3.665-8.522-8.048-16.699-12.9-24.6l-3-4.62
		"/>

		<polyline fill="none" stroke="#000000" stroke-width="0.72" stroke-linecap="round" stroke-linejoin="bevel" stroke-miterlimit="10" points="
		232.99,91.29 229.69,86.79 226.21,82.41 222.67,78.15 218.89,74.01 214.99,70.05 210.97,66.21 	"/>

		<path fill="none" stroke="#000000" stroke-width="0.72" stroke-linecap="round" stroke-linejoin="bevel" stroke-miterlimit="10" d="
		M259.87,194.67l1.26-3.24c2.359-6.452,3.593-13.298,3.78-20.16l-0.06-3.42"/>

		<polyline fill="none" stroke="#000000" stroke-width="0.72" stroke-linecap="round" stroke-linejoin="bevel" stroke-miterlimit="10" points="
		254.29,206.61 255.91,203.73 257.35,200.79 258.67,197.73 259.87,194.67 	"/>

		<line fill="none" stroke="#000000" stroke-width="0.72" stroke-linecap="round" stroke-linejoin="bevel" stroke-miterlimit="10" x1="254.05" y1="206.97" x2="254.29" y2="206.61"/>

		<polyline fill="none" stroke="#000000" stroke-width="0.72" stroke-linecap="round" stroke-linejoin="round" stroke-miterlimit="10" points="
		5.65,67.89 16.33,77.13 27.25,86.07 	"/>

		<polyline fill="none" stroke="#000000" stroke-width="0.72" stroke-linecap="round" stroke-linejoin="bevel" stroke-miterlimit="10" points="
		5.53,66.81 5.41,67.17 5.47,67.53 5.71,67.83 	"/>

		<path fill="none" stroke="#000000" stroke-width="0.72" stroke-linecap="round" stroke-linejoin="round" stroke-miterlimit="10" d="
		M27.25,86.07l10.44,8.64c21.026,16.949,42.657,34.724,65.82,48.72l7.92,4.74"/>

		<polyline fill="none" stroke="#000000" stroke-width="0.24" stroke-linecap="round" stroke-linejoin="round" stroke-miterlimit="10" points="
		179.29,125.55 169.45,128.43 159.67,131.43 149.89,134.67 140.23,138.09 130.69,141.75 121.15,145.53 	"/>

		<polyline fill="none" stroke="#000000" stroke-width="0.24" stroke-linecap="round" stroke-linejoin="round" stroke-miterlimit="10" points="
		176.65,111.51 166.75,116.07 156.91,120.87 147.25,125.85 137.65,131.07 128.23,136.59 118.93,142.23 	"/>

		<line fill="none" stroke="#000000" stroke-width="0.24" stroke-linecap="round" stroke-linejoin="round" stroke-miterlimit="10" x1="179.29" y1="125.55" x2="176.65" y2="111.51"/>

		<line fill="none" stroke="#000000" stroke-width="0.24" stroke-linecap="round" stroke-linejoin="round" stroke-miterlimit="10" x1="121.15" y1="145.53" x2="118.93" y2="142.23"/>

		<polyline fill="none" stroke="#000000" stroke-width="0.24" stroke-linecap="round" stroke-linejoin="round" stroke-miterlimit="10" points="
		206.41,62.25 201.49,71.73 196.81,81.27 192.31,90.87 187.93,100.53 	"/>

		<polyline fill="none" stroke="#000000" stroke-width="0.24" stroke-linecap="round" stroke-linejoin="round" stroke-miterlimit="10" points="
		209.71,65.07 204.73,101.19 187.93,100.53 	"/>

		<path fill="none" stroke="#000000" stroke-width="0.24" stroke-linecap="round" stroke-linejoin="bevel" stroke-miterlimit="10" d="
		M166.75,92.01l0.12-1.86c0.132-7.026-2.742-13.717-8.16-18.24l-1.5-1.2"/>

		<path fill="none" stroke="#000000" stroke-width="0.24" stroke-linecap="round" stroke-linejoin="bevel" stroke-miterlimit="10" d="
		M134.29,92.91l3.12,0.78c6.917,1.729,15.006,2.165,22.08,1.32l3.18-0.42"/>

		<polyline fill="none" stroke="#000000" stroke-width="0.24" stroke-linecap="round" stroke-linejoin="round" stroke-miterlimit="10" points="
		118.45,83.43 123.61,86.79 128.89,89.97 134.29,92.91 	"/>

		<line fill="none" stroke="#000000" stroke-width="0.24" stroke-linecap="round" stroke-linejoin="round" stroke-miterlimit="10" x1="142.09" y1="61.77" x2="50.11" y2="13.29"/>

		<polyline fill="none" stroke="#000000" stroke-width="0.24" stroke-linecap="round" stroke-linejoin="bevel" stroke-miterlimit="10" points="
		157.21,70.71 153.61,68.25 149.89,65.91 146.05,63.75 142.09,61.83 	"/>

		<line fill="none" stroke="#000000" stroke-width="0.24" stroke-linecap="round" stroke-linejoin="round" stroke-miterlimit="10" x1="127.57" y1="81.03" x2="103.75" y2="66.51"/>

		<path fill="none" stroke="#000000" stroke-width="0.24" stroke-linecap="round" stroke-linejoin="bevel" stroke-miterlimit="10" d="
		M152.29,78.45l-1.2-1.86c-2.62-3.737-5.693-6.56-9.66-8.82l-1.98-0.96"/>

		<path fill="none" stroke="#000000" stroke-width="0.24" stroke-linecap="round" stroke-linejoin="bevel" stroke-miterlimit="10" d="
		M127.57,81.03l2.04,1.02c4.321,2.165,10.938,3.175,15.72,2.52l2.28-0.36"/>

		<path fill="none" stroke="#000000" stroke-width="0.24" stroke-linecap="round" stroke-linejoin="round" stroke-miterlimit="10" d="
		M147.61,84.21l2.16-0.6c2.616-0.631,3.244-1.232,2.88-4.08l-0.3-1.08"/>

		<line fill="none" stroke="#000000" stroke-width="0.72" stroke-linecap="round" stroke-linejoin="round" stroke-miterlimit="10" x1="49.93" y1="13.41" x2="47.95" y2="15.39"/>

		<line fill="none" stroke="#000000" stroke-width="0.72" stroke-linecap="round" stroke-linejoin="bevel" stroke-miterlimit="10" x1="50.59" y1="13.05" x2="49.99" y2="13.41"/>

		<path fill="none" stroke="#000000" stroke-width="0.24" stroke-linecap="round" stroke-linejoin="bevel" stroke-miterlimit="10" d="
		M218.29,218.13l-3.84-4.74c-23.016-28.178-52.94-51.099-86.1-66.06l-5.52-2.46"/>

		<polyline fill="none" stroke="#000000" stroke-width="0.72" stroke-linecap="round" stroke-linejoin="bevel" stroke-miterlimit="10" points="
		219.73,219.87 220.27,220.47 220.99,220.89 221.77,221.19 222.61,221.31 223.45,221.25 224.23,220.95 	"/>

		<path fill="none" stroke="#000000" stroke-width="0.24" stroke-linecap="round" stroke-linejoin="round" stroke-miterlimit="10" d="
		M7.81,63.15l9.06,8.28c27.653,24.571,57.006,46.58,88.38,66.18l10.44,6.42"/>

		<path fill="none" stroke="#000000" stroke-width="0.72" stroke-linecap="round" stroke-linejoin="round" stroke-miterlimit="10" d="
		M13.93,105.69l7.62,12.78c15.502,25.542,32.293,50.302,50.28,74.16l9.06,11.88"/>

		<line fill="none" stroke="#000000" stroke-width="0.72" stroke-linecap="round" stroke-linejoin="bevel" stroke-miterlimit="10" x1="13.81" y1="105.39" x2="13.93" y2="105.69"/>

		<path fill="none" stroke="#000000" stroke-width="0.72" stroke-linecap="round" stroke-linejoin="bevel" stroke-miterlimit="10" d="
		M80.95,204.51l2.04,2.52c12.644,15.188,31.469,24.387,51.18,25.32l3.3,0.06"/>

		<path fill="none" stroke="#000000" stroke-width="0.72" stroke-linecap="round" stroke-linejoin="round" stroke-miterlimit="10" d="
		M137.47,232.47l7.26-0.12c12.301-0.392,24.116-1.674,36.18-4.14l7.14-1.62"/>

		<line fill="none" stroke="#000000" stroke-width="0.72" stroke-linecap="round" stroke-linejoin="bevel" stroke-miterlimit="10" x1="188.05" y1="226.59" x2="188.53" y2="226.41"/>

		<line fill="none" stroke="#000000" stroke-width="0.72" stroke-linecap="round" stroke-linejoin="round" stroke-miterlimit="10" x1="197.89" y1="219.93" x2="188.53" y2="226.41"/>

		<line fill="none" stroke="#000000" stroke-width="0.72" stroke-linecap="round" stroke-linejoin="round" stroke-miterlimit="10" x1="224.77" y1="220.77" x2="254.05" y2="206.97"/>

		<path fill="none" stroke="#000000" stroke-width="0.72" stroke-linecap="round" stroke-linejoin="bevel" stroke-miterlimit="10" d="
		M200.17,213.15l-4.68-4.56c-18.956-18.012-40.423-33.405-63.72-45.3l-5.82-2.88"/>

		<line fill="none" stroke="#000000" stroke-width="0.72" stroke-linecap="round" stroke-linejoin="round" stroke-miterlimit="10" x1="52.15" y1="112.77" x2="6.07" y2="73.35"/>

		<line fill="none" stroke="#000000" stroke-width="0.72" stroke-linecap="round" stroke-linejoin="round" stroke-miterlimit="10" x1="4.75" y1="78.51" x2="13.81" y2="105.39"/>

		<line fill="none" stroke="#000000" stroke-width="0.24" stroke-linecap="round" stroke-linejoin="round" stroke-miterlimit="10" x1="46.63" y1="114.75" x2="4.75" y2="78.51"/>

		<path fill="none" stroke="#000000" stroke-width="0.24" stroke-linecap="round" stroke-linejoin="bevel" stroke-miterlimit="10" d="
		M194.95,217.05l-4.8-4.68c-19.559-18.587-41.7-34.226-65.76-46.44l-6.06-2.94"/>

		<line fill="none" stroke="#000000" stroke-width="0.24" stroke-linecap="round" stroke-linejoin="round" stroke-miterlimit="10" x1="77.71" y1="138.27" x2="81.13" y2="140.49"/>

		<path fill="none" stroke="#000000" stroke-width="0.24" stroke-linecap="round" stroke-linejoin="bevel" stroke-miterlimit="10" d="
		M118.39,162.93l1.2,0.12c1.87,0.049,4.071-0.66,5.52-1.86l0.84-0.84"/>

		<line fill="none" stroke="#000000" stroke-width="0.24" stroke-linecap="round" stroke-linejoin="round" stroke-miterlimit="10" x1="47.71" y1="116.73" x2="51.31" y2="119.43"/>

		<path fill="none" stroke="#000000" stroke-width="0.42" stroke-linecap="round" stroke-linejoin="bevel" stroke-miterlimit="10" d="
		M52.15,112.83l-0.54,0.9c-0.96,2.29-0.988,3.924-0.06,6.24l0.54,0.96"/>

		<polyline fill="none" stroke="#000000" stroke-width="0.42" stroke-linecap="round" stroke-linejoin="round" stroke-miterlimit="10" points="
		52.15,112.83 61.57,119.67 71.11,126.33 80.77,132.87 	"/>

		<polyline fill="none" stroke="#000000" stroke-width="0.42" stroke-linecap="round" stroke-linejoin="round" stroke-miterlimit="10" points="
		83.53,134.67 93.97,141.39 104.53,147.93 115.21,154.23 125.95,160.41 	"/>

		<path fill="none" stroke="#000000" stroke-width="0.42" stroke-linecap="round" stroke-linejoin="bevel" stroke-miterlimit="10" d="
		M108.49,158.07l1.2,0.18c2.436,0.283,4.939-0.47,6.9-1.92l0.9-0.78"/>

		<polyline fill="none" stroke="#000000" stroke-width="0.24" stroke-linecap="round" stroke-linejoin="bevel" stroke-miterlimit="10" points="
		47.95,109.17 47.35,109.95 46.93,110.85 46.63,111.75 46.45,112.77 46.45,113.73 46.63,114.69 	"/>

		<path fill="none" stroke="#000000" stroke-width="0.42" stroke-linecap="round" stroke-linejoin="bevel" stroke-miterlimit="10" d="
		M80.83,132.87l-0.78,0.6c-1.31,1.022-2.114,2.618-2.28,4.26v0.96"/>

		<path fill="none" stroke="#000000" stroke-width="0.42" stroke-linecap="round" stroke-linejoin="bevel" stroke-miterlimit="10" d="
		M83.53,134.73l-0.72,0.66c-1.184,1.124-1.781,3.011-1.74,4.62l0.12,1.02"/>

		<path fill="none" stroke="#000000" stroke-width="0.24" stroke-linecap="round" stroke-linejoin="bevel" stroke-miterlimit="10" d="
		M93.01,68.13l-0.84-2.28c-2.596-6.195-6.354-11.412-11.52-15.72l-1.92-1.5"/>

		<polyline fill="none" stroke="#000000" stroke-width="0.24" stroke-linecap="round" stroke-linejoin="bevel" stroke-miterlimit="10" points="
		78.79,48.69 77.17,47.49 75.49,46.41 73.75,45.51 71.89,44.73 70.03,44.13 68.05,43.71 	"/>

		<path fill="none" stroke="#000000" stroke-width="0.24" stroke-linecap="round" stroke-linejoin="bevel" stroke-miterlimit="10" d="
		M68.11,43.71l-1.08-0.06c-2.525,0.114-4.925,1.566-6.24,3.72l-0.48,0.96"/>

		<path fill="none" stroke="#000000" stroke-width="0.24" stroke-linecap="round" stroke-linejoin="bevel" stroke-miterlimit="10" d="
		M108.91,60.93l-0.54-2.28c-1.897-6.186-5.002-11.171-9.72-15.6l-1.8-1.5"/>

		<polyline fill="none" stroke="#000000" stroke-width="0.24" stroke-linecap="round" stroke-linejoin="bevel" stroke-miterlimit="10" points="
		96.85,41.49 94.75,39.51 92.53,37.65 90.25,35.97 87.79,34.41 85.27,33.03 	"/>

		<path fill="none" stroke="#000000" stroke-width="0.24" stroke-linecap="round" stroke-linejoin="bevel" stroke-miterlimit="10" d="
		M85.33,33.03l-1.2-0.6c-2.495-1.074-3.939-1.152-6.6-0.72l-1.32,0.42l-0.3,0.18"/>

		<line fill="none" stroke="#000000" stroke-width="0.24" stroke-linecap="round" stroke-linejoin="round" stroke-miterlimit="10" x1="62.47" y1="41.67" x2="75.91" y2="32.25"/>

		<polyline fill="none" stroke="#000000" stroke-width="0.24" stroke-linecap="round" stroke-linejoin="bevel" stroke-miterlimit="10" points="
		62.47,41.67 61.57,42.45 60.79,43.29 60.07,44.19 59.53,45.21 59.11,46.35 58.81,47.43 	"/>

		<polyline fill="none" stroke="#000000" stroke-width="0.24" stroke-linecap="round" stroke-linejoin="bevel" stroke-miterlimit="10" points="
		116.83,54.57 113.95,56.67 111.19,58.89 108.61,61.29 106.09,63.87 103.81,66.51 	"/>

		<line fill="none" stroke="#000000" stroke-width="0.24" stroke-linecap="round" stroke-linejoin="round" stroke-miterlimit="10" x1="101.71" y1="73.35" x2="101.95" y2="69.15"/>

		<line fill="none" stroke="#000000" stroke-width="0.24" stroke-linecap="round" stroke-linejoin="round" stroke-miterlimit="10" x1="103.75" y1="66.51" x2="102.25" y2="68.31"/>

		<polyline fill="none" stroke="#000000" stroke-width="0.24" stroke-linecap="round" stroke-linejoin="bevel" stroke-miterlimit="10" points="
		102.31,68.31 102.07,68.73 101.95,69.21 	"/>

		<line fill="none" stroke="#000000" stroke-width="0.24" stroke-linecap="round" stroke-linejoin="round" stroke-miterlimit="10" x1="75.61" y1="32.43" x2="57.25" y2="22.59"/>

		<line fill="none" stroke="#000000" stroke-width="0.24" stroke-linecap="round" stroke-linejoin="round" stroke-miterlimit="10" x1="130.27" y1="80.73" x2="117.91" y2="73.17"/>

		<line fill="none" stroke="#000000" stroke-width="0.24" stroke-linecap="round" stroke-linejoin="round" stroke-miterlimit="10" x1="129.73" y1="62.91" x2="142.75" y2="69.93"/>

		<line fill="none" stroke="#000000" stroke-width="0.24" stroke-linecap="round" stroke-linejoin="round" stroke-miterlimit="10" x1="129.73" y1="66.15" x2="138.79" y2="71.01"/>

		<line fill="none" stroke="#000000" stroke-width="0.24" stroke-linecap="round" stroke-linejoin="round" stroke-miterlimit="10" x1="131.41" y1="77.49" x2="122.77" y2="72.21"/>

		<line fill="none" stroke="#000000" stroke-width="0.24" stroke-linecap="round" stroke-linejoin="round" stroke-miterlimit="10" x1="130.27" y1="80.73" x2="142.75" y2="69.93"/>

		<line fill="none" stroke="#000000" stroke-width="0.24" stroke-linecap="round" stroke-linejoin="round" stroke-miterlimit="10" x1="117.91" y1="73.17" x2="129.73" y2="62.91"/>

		<line fill="none" stroke="#000000" stroke-width="0.24" stroke-linecap="round" stroke-linejoin="round" stroke-miterlimit="10" x1="122.77" y1="72.21" x2="129.73" y2="66.15"/>

		<line fill="none" stroke="#000000" stroke-width="0.24" stroke-linecap="round" stroke-linejoin="round" stroke-miterlimit="10" x1="131.41" y1="77.49" x2="138.79" y2="71.01"/>

		<line fill="none" stroke="#000000" stroke-width="0.24" stroke-linecap="round" stroke-linejoin="round" stroke-miterlimit="10" x1="162.67" y1="94.59" x2="165.43" y2="94.11"/>

		<polyline fill="none" stroke="#000000" stroke-width="0.24" stroke-linecap="round" stroke-linejoin="bevel" stroke-miterlimit="10" points="
		165.37,94.11 165.85,93.93 166.21,93.63 166.51,93.27 166.63,92.79 	"/>

		<line fill="none" stroke="#000000" stroke-width="0.24" stroke-linecap="round" stroke-linejoin="round" stroke-miterlimit="10" x1="166.75" y1="92.01" x2="166.63" y2="92.79"/>

		<line fill="none" stroke="#000000" stroke-width="0.24" stroke-linecap="round" stroke-linejoin="bevel" stroke-miterlimit="10" x1="176.05" y1="100.35" x2="166.21" y2="93.69"/>

		<polyline fill="none" stroke="#000000" stroke-width="0.24" stroke-linecap="round" stroke-linejoin="bevel" stroke-miterlimit="10" points="
		187.93,100.59 181.99,100.29 176.05,100.35 	"/>

		<polyline fill="none" stroke="#000000" stroke-width="0.24" stroke-linecap="round" stroke-linejoin="bevel" stroke-miterlimit="10" points="
		176.11,100.35 175.99,103.11 176.05,105.93 176.29,108.75 176.65,111.51 	"/>

		<path fill="none" stroke="#000000" stroke-width="0.24" stroke-linecap="round" stroke-linejoin="bevel" stroke-miterlimit="10" d="
		M134.29,90.15l3.12,0.6c5.144,0.813,10.863,1.017,16.02,0.24l3.18-0.48"/>

		<line fill="none" stroke="#000000" stroke-width="0.24" stroke-linecap="round" stroke-linejoin="bevel" stroke-miterlimit="10" x1="133.81" y1="89.97" x2="134.23" y2="90.09"/>

		<line fill="none" stroke="#000000" stroke-width="0.24" stroke-linecap="round" stroke-linejoin="round" stroke-miterlimit="10" x1="133.81" y1="89.91" x2="101.83" y2="71.25"/>

		<path fill="none" stroke="#000000" stroke-width="0.24" stroke-linecap="round" stroke-linejoin="bevel" stroke-miterlimit="10" d="
		M156.49,90.45l0.06-1.86c-0.068-6.029-3.324-12.384-8.22-15.9l-1.56-1.08"/>

		<line fill="none" stroke="#000000" stroke-width="0.24" stroke-linecap="round" stroke-linejoin="round" stroke-miterlimit="10" x1="156.61" y1="90.45" x2="166.27" y2="93.69"/>

		<path fill="none" stroke="#000000" stroke-width="0.24" stroke-linecap="round" stroke-linejoin="bevel" stroke-miterlimit="10" d="
		M89.77,66.15l-0.9-2.22c-1.976-4.393-4.975-8.28-8.52-11.52l-1.8-1.5l-1.62-1.2l-1.68-1.08l-1.74-0.9l-1.86-0.78l-1.86-0.6
		l-1.98-0.42l-1.08-0.06c-2.046,0.117-3.366,0.671-4.74,2.22l-0.66,0.9"/>

		<polyline fill="none" stroke="#000000" stroke-width="0.72" stroke-linecap="round" stroke-linejoin="round" stroke-miterlimit="10" points="
		58.69,29.01 46.15,33.33 45.97,39.69 	"/>

		<line fill="none" stroke="#000000" stroke-width="0.24" stroke-linecap="round" stroke-linejoin="round" stroke-miterlimit="10" x1="58.69" y1="29.01" x2="61.75" y2="42.27"/>

		<line fill="none" stroke="#000000" stroke-width="0.24" stroke-linecap="round" stroke-linejoin="round" stroke-miterlimit="10" x1="115.69" y1="73.77" x2="117.13" y2="63.81"/>

		<polyline fill="none" stroke="#000000" stroke-width="0.24" stroke-linecap="round" stroke-linejoin="bevel" stroke-miterlimit="10" points="
		118.51,62.49 118.03,62.61 117.61,62.91 117.31,63.27 117.13,63.75 	"/>

		<line fill="none" stroke="#000000" stroke-width="0.24" stroke-linecap="round" stroke-linejoin="round" stroke-miterlimit="10" x1="118.51" y1="62.49" x2="129.61" y2="61.41"/>

		<line fill="none" stroke="#000000" stroke-width="0.24" stroke-linecap="round" stroke-linejoin="round" stroke-miterlimit="10" x1="117.61" y1="62.91" x2="111.13" y2="58.95"/>

		<line fill="none" stroke="#000000" stroke-width="0.24" stroke-linecap="round" stroke-linejoin="round" stroke-miterlimit="10" x1="241.45" y1="222.09" x2="212.83" y2="234.87"/>

		<line fill="none" stroke="#000000" stroke-width="0.24" stroke-linecap="round" stroke-linejoin="round" stroke-miterlimit="10" x1="195.01" y1="217.11" x2="197.89" y2="219.93"/>

		<polyline fill="none" stroke="#000000" stroke-width="0.24" stroke-linecap="round" stroke-linejoin="round" stroke-miterlimit="10" points="
		190.93,224.73 212.83,234.87 195.79,221.43 	"/>

		<polyline fill="none" stroke="#000000" stroke-width="0.24" stroke-linecap="round" stroke-linejoin="round" stroke-miterlimit="10" points="
		209.35,226.35 199.21,219.03 200.17,213.15 	"/>

		<line fill="none" stroke="#000000" stroke-width="0.72" stroke-linecap="round" stroke-linejoin="round" stroke-miterlimit="10" x1="197.89" y1="219.93" x2="200.17" y2="213.15"/>

		<line fill="none" stroke="#000000" stroke-width="0.24" stroke-linecap="round" stroke-linejoin="round" stroke-miterlimit="10" x1="241.45" y1="222.09" x2="248.95" y2="216.39"/>

		<polyline fill="none" stroke="#000000" stroke-width="0.24" stroke-linecap="round" stroke-linejoin="bevel" stroke-miterlimit="10" points="
		248.89,216.39 249.25,216.03 249.43,215.55 249.49,215.07 	"/>

		<line fill="none" stroke="#000000" stroke-width="0.24" stroke-linecap="round" stroke-linejoin="round" stroke-miterlimit="10" x1="249.55" y1="215.07" x2="249.07" y2="209.31"/>

		<polyline fill="none" stroke="#000000" stroke-width="0.24" stroke-linecap="round" stroke-linejoin="round" stroke-miterlimit="10" points="
		209.35,226.35 223.21,224.13 224.77,220.77 	"/>

		<polyline fill="none" stroke="#000000" stroke-width="0.24" stroke-linecap="round" stroke-linejoin="bevel" stroke-miterlimit="10" points="
		123.31,139.59 121.03,140.61 118.87,141.81 116.83,143.19 114.91,144.69 113.11,146.37 111.49,148.23 	"/>

		<path fill="none" stroke="#000000" stroke-width="0.72" stroke-linecap="round" stroke-linejoin="bevel" stroke-miterlimit="10" d="
		M209.83,218.55l-4.8-4.98c-24.255-24.642-52.722-45.12-83.82-60.24l-6.24-2.94"/>

		<line fill="none" stroke="#000000" stroke-width="0.24" stroke-linecap="round" stroke-linejoin="round" stroke-miterlimit="10" x1="122.83" y1="144.87" x2="114.97" y2="150.33"/>

		<polyline fill="none" stroke="#000000" stroke-width="0.24" stroke-linecap="round" stroke-linejoin="bevel" stroke-miterlimit="10" points="
		209.83,218.55 207.07,219.15 204.37,219.87 201.73,220.89 	"/>

		<polyline fill="none" stroke="#000000" stroke-width="0.72" stroke-linecap="round" stroke-linejoin="round" stroke-miterlimit="10" points="
		6.07,73.35 4.09,75.21 4.75,78.51 	"/>

		<line fill="none" stroke="#000000" stroke-width="0.24" stroke-linecap="round" stroke-linejoin="round" stroke-miterlimit="10" x1="87.13" y1="33.99" x2="73.33" y2="45.27"/>

		<line fill="none" stroke="#000000" stroke-width="0.24" stroke-linecap="round" stroke-linejoin="round" stroke-miterlimit="10" x1="91.45" y1="36.81" x2="77.83" y2="47.91"/>

		<line fill="none" stroke="#000000" stroke-width="0.24" stroke-linecap="round" stroke-linejoin="round" stroke-miterlimit="10" x1="95.29" y1="39.93" x2="81.73" y2="50.97"/>

		<line fill="none" stroke="#000000" stroke-width="0.24" stroke-linecap="round" stroke-linejoin="round" stroke-miterlimit="10" x1="98.89" y1="43.23" x2="85.15" y2="54.39"/>

		<line fill="none" stroke="#000000" stroke-width="0.24" stroke-linecap="round" stroke-linejoin="round" stroke-miterlimit="10" x1="102.13" y1="46.65" x2="88.03" y2="58.11"/>

		<line fill="none" stroke="#000000" stroke-width="0.24" stroke-linecap="round" stroke-linejoin="round" stroke-miterlimit="10" x1="104.59" y1="50.13" x2="90.31" y2="61.83"/>

		<line fill="none" stroke="#000000" stroke-width="0.24" stroke-linecap="round" stroke-linejoin="round" stroke-miterlimit="10" x1="107.59" y1="56.19" x2="92.95" y2="68.07"/>

		<line fill="none" stroke="#000000" stroke-width="0.24" stroke-linecap="round" stroke-linejoin="round" stroke-miterlimit="10" x1="108.73" y1="59.91" x2="96.25" y2="70.05"/>

		<line fill="none" stroke="#000000" stroke-width="0.24" stroke-linecap="round" stroke-linejoin="round" stroke-miterlimit="10" x1="82.81" y1="31.89" x2="68.35" y2="43.71"/>

		<line fill="none" stroke="#000000" stroke-width="0.24" stroke-linecap="round" stroke-linejoin="round" stroke-miterlimit="10" x1="79.99" y1="31.47" x2="64.33" y2="44.19"/>

		<line fill="none" stroke="#000000" stroke-width="0.72" stroke-linecap="round" stroke-linejoin="round" stroke-miterlimit="10" x1="110.47" y1="147.63" x2="114.97" y2="150.33"/>

		<line fill="none" stroke="#000000" stroke-width="0.72" stroke-linecap="round" stroke-linejoin="round" stroke-miterlimit="10" x1="224.29" y1="221.01" x2="224.77" y2="220.77"/>

		<polyline fill="none" stroke="#000000" stroke-width="0.72" stroke-linecap="round" stroke-linejoin="round" stroke-miterlimit="10" points="
		48.31,17.79 57.25,22.59 58.69,29.01 	"/>

		<line fill="none" stroke="#000000" stroke-width="0.72" stroke-linecap="round" stroke-linejoin="round" stroke-miterlimit="10" x1="45.97" y1="39.69" x2="30.19" y2="30.15"/>

		<line fill="none" stroke="#000000" stroke-width="0.72" stroke-linecap="round" stroke-linejoin="round" stroke-miterlimit="10" x1="7.81" y1="63.15" x2="5.53" y2="66.81"/>

		<polyline fill="none" stroke="#000000" stroke-width="0.24" stroke-linecap="round" stroke-linejoin="bevel" stroke-miterlimit="10" points="
		46.69,114.75 46.87,115.47 47.23,116.13 47.71,116.73 	"/>

		<path fill="none" stroke="#000000" stroke-width="0.24" stroke-linecap="round" stroke-linejoin="bevel" stroke-miterlimit="10" d="
		M74.05,159.45l0.78,1.02c1.942,2.326,5.233,3.54,8.22,3.18l1.32-0.24"/>

		<path fill="none" stroke="#000000" stroke-width="0.24" stroke-linecap="round" stroke-linejoin="bevel" stroke-miterlimit="10" d="
		M71.05,148.11l-0.24,1.5c-0.312,3.031,0.516,6.156,2.28,8.64l0.96,1.2"/>

		<line fill="none" stroke="#000000" stroke-width="0.24" stroke-linecap="round" stroke-linejoin="bevel" stroke-miterlimit="10" x1="75.85" y1="146.49" x2="73.93" y2="146.07"/>

		<polyline fill="none" stroke="#000000" stroke-width="0.24" stroke-linecap="round" stroke-linejoin="bevel" stroke-miterlimit="10" points="
		87.43,157.23 86.89,155.73 86.17,154.35 85.27,153.09 	"/>

		<polyline fill="none" stroke="#000000" stroke-width="0.24" stroke-linecap="round" stroke-linejoin="bevel" stroke-miterlimit="10" points="
		73.93,146.13 73.21,146.19 72.49,146.43 71.89,146.85 71.41,147.45 71.05,148.11 	"/>

		<path fill="none" stroke="#000000" stroke-width="0.24" stroke-linecap="round" stroke-linejoin="bevel" stroke-miterlimit="10" d="
		M83.71,163.53l0.78-0.18c2.29-0.831,3.55-2.937,3.18-5.34l-0.24-0.78"/>

		<polyline fill="none" stroke="#000000" stroke-width="0.24" stroke-linecap="round" stroke-linejoin="bevel" stroke-miterlimit="10" points="
		85.27,153.15 83.11,151.11 80.83,149.31 78.43,147.69 75.85,146.49 	"/>

		<polyline fill="none" stroke="#000000" stroke-width="0.42" stroke-linecap="round" stroke-linejoin="bevel" stroke-miterlimit="10" points="
		88.51,167.13 89.41,166.53 90.31,165.81 91.03,164.97 91.63,164.01 92.05,162.99 92.35,161.91 	"/>

		<path fill="none" stroke="#000000" stroke-width="0.42" stroke-linecap="round" stroke-linejoin="bevel" stroke-miterlimit="10" d="
		M92.29,161.91l0.06-1.44c-0.01-2.046-0.929-5.22-2.1-6.9l-0.84-1.2"/>

		<path fill="none" stroke="#000000" stroke-width="0.42" stroke-linecap="round" stroke-linejoin="bevel" stroke-miterlimit="10" d="
		M83.95,146.43l-1.32-1.02c-3.126-2.609-12.673-8.441-15.18-2.22l-0.24,0.84"/>

		<path fill="none" stroke="#000000" stroke-width="0.42" stroke-linecap="round" stroke-linejoin="bevel" stroke-miterlimit="10" d="
		M67.27,144.03l-0.36,1.8c-0.921,6.737,1.402,13.212,6.12,18.06l1.32,1.2"/>

		<path fill="none" stroke="#000000" stroke-width="0.42" stroke-linecap="round" stroke-linejoin="bevel" stroke-miterlimit="10" d="
		M74.29,165.03l1.2,0.9c3.343,2.301,7.708,2.95,11.58,1.74l1.44-0.54"/>

		<polyline fill="none" stroke="#000000" stroke-width="0.42" stroke-linecap="round" stroke-linejoin="bevel" stroke-miterlimit="10" points="
		89.41,152.43 88.27,150.75 86.95,149.19 85.51,147.75 83.95,146.43 	"/>

		<polyline fill="none" stroke="#000000" stroke-width="0.72" stroke-linecap="round" stroke-linejoin="bevel" stroke-miterlimit="10" points="
		218.29,218.13 215.47,218.07 212.65,218.19 209.83,218.55 	"/>

		<line fill="none" stroke="#000000" stroke-width="0.72" stroke-linecap="round" stroke-linejoin="round" stroke-miterlimit="10" x1="218.29" y1="218.07" x2="219.67" y2="219.87"/>

		<polyline fill="none" stroke="#000000" stroke-width="0.42" stroke-linecap="round" stroke-linejoin="round" stroke-miterlimit="10" points="
		52.09,120.93 64.81,129.93 77.71,138.69 	"/>

		<polyline fill="none" stroke="#000000" stroke-width="0.42" stroke-linecap="round" stroke-linejoin="round" stroke-miterlimit="10" points="
		81.19,140.97 94.81,149.61 108.49,158.07 	"/>

		<line fill="none" stroke="#000000" stroke-width="0.24" stroke-linecap="round" stroke-linejoin="round" stroke-miterlimit="10" x1="110.23" y1="158.31" x2="118.39" y2="162.99"/>

		<line fill="none" stroke="#000000" stroke-width="0.24" stroke-linecap="round" stroke-linejoin="round" stroke-miterlimit="10" x1="83.53" y1="134.67" x2="80.77" y2="132.87"/>

		<line fill="none" stroke="#000000" stroke-width="0.24" stroke-linecap="round" stroke-linejoin="round" stroke-miterlimit="10" x1="156.61" y1="90.45" x2="151.99" y2="82.77"/>
</g>
</svg>
