<?xml version="1.0" encoding="utf-8"?>
<!-- Generator: Adobe Illustrator 24.1.2, SVG Export Plug-In . SVG Version: 6.00 Build 0)  -->
<svg version="1.0" id="Layer_1" xmlns="http://www.w3.org/2000/svg" xmlns:xlink="http://www.w3.org/1999/xlink" x="0px" y="0px"
	 width="289px" height="180px" viewBox="0 0 289 180" enable-background="new 0 0 289 180" xml:space="preserve">
<g>

		<line fill="none" stroke="#000000" stroke-width="0.72" stroke-linecap="round" stroke-linejoin="round" stroke-miterlimit="10" x1="73.158" y1="115.022" x2="152.779" y2="127.022"/>

		<path fill="none" stroke="#000000" stroke-width="0.72" stroke-linecap="round" stroke-linejoin="bevel" stroke-miterlimit="10" d="
		M49.938,49.862l-2.64,0.72c-9.669,2.82-18.37,8.882-24.36,16.98l-1.56,2.28"/>

		<path fill="none" stroke="#000000" stroke-width="0.72" stroke-linecap="round" stroke-linejoin="bevel" stroke-miterlimit="10" d="
		M80.478,48.122l-3.84-0.36c-7.649-0.661-15.39-0.237-22.92,1.26l-3.78,0.84"/>

		<path fill="none" stroke="#000000" stroke-width="0.72" stroke-linecap="round" stroke-linejoin="bevel" stroke-miterlimit="10" d="
		M106.998,57.122l-2.7-1.56c-6.377-3.611-13.44-6.004-20.7-7.02l-3.12-0.42"/>

		<path fill="none" stroke="#000000" stroke-width="0.72" stroke-linecap="round" stroke-linejoin="bevel" stroke-miterlimit="10" d="
		M142.699,82.922l-4.74-4.14c-8.156-6.694-16.504-12.979-25.56-18.42l-5.4-3.24"/>

		<path fill="none" stroke="#000000" stroke-width="0.72" stroke-linecap="round" stroke-linejoin="round" stroke-miterlimit="10" d="
		M142.758,82.922l5.76,5.52c11.821,10.837,24.334,20.483,37.98,28.92l6.84,4.14"/>

		<path fill="none" stroke="#000000" stroke-width="0.72" stroke-linecap="round" stroke-linejoin="bevel" stroke-miterlimit="10" d="
		M193.338,121.442l2.82,1.5c8.28,4.152,17.969,6.499,27.24,6.42l3.12-0.06"/>

		<path fill="none" stroke="#000000" stroke-width="0.72" stroke-linecap="round" stroke-linejoin="bevel" stroke-miterlimit="10" d="
		M235.878,128.702l3.06-0.3c10.327-1.296,19.92-5.085,28.44-11.04l2.46-1.8l2.22-2.22c5.98-6.34,10.071-13.155,12.84-21.42l0.9-3.06
		l0.36-1.8c1.368-7.225-1.2-14.888-6.54-19.92l-1.38-1.2"/>

		<path fill="none" stroke="#000000" stroke-width="0.72" stroke-linecap="round" stroke-linejoin="bevel" stroke-miterlimit="10" d="
		M278.298,65.942l-6.12-4.8c-16.383-12.553-33.759-23.85-52.02-33.48l-6.9-3.6"/>

		<path fill="none" stroke="#000000" stroke-width="0.72" stroke-linecap="round" stroke-linejoin="bevel" stroke-miterlimit="10" d="
		M213.258,24.122l-4.98-2.4c-11.861-5.419-23.924-9.596-36.6-12.66l-5.4-1.2l-6.42-1.32l-6.42-1.2l-6.42-1.02l-6.48-0.9"/>

		<path fill="none" stroke="#000000" stroke-width="0.72" stroke-linecap="round" stroke-linejoin="bevel" stroke-miterlimit="10" d="
		M140.658,3.482l-4.8-0.6c-18.705-2.151-38.881-0.428-56.94,4.92l-4.56,1.38l-3.84,1.26c-8.976,3.205-17.221,7.656-24.84,13.38
		l-3.18,2.52"/>

		<path fill="none" stroke="#000000" stroke-width="0.72" stroke-linecap="round" stroke-linejoin="bevel" stroke-miterlimit="10" d="
		M42.499,26.402l-2.46,2.1c-7.875,7.043-13.925,16.137-17.28,26.16l-0.96,3"/>

		<polyline fill="none" stroke="#000000" stroke-width="0.72" stroke-linecap="round" stroke-linejoin="bevel" stroke-miterlimit="10" points="
		21.739,57.662 21.319,60.122 20.959,62.642 20.779,65.102 20.779,67.622 20.899,70.082 21.199,72.602 22.039,76.262 23.119,79.922
		24.319,83.462 25.699,87.002 27.259,90.482 28.999,93.842 	"/>

		<polyline fill="none" stroke="#000000" stroke-width="0.72" stroke-linecap="round" stroke-linejoin="bevel" stroke-miterlimit="10" points="
		29.059,93.782 30.379,96.182 31.819,98.582 33.379,100.802 35.119,102.962 	"/>

		<polyline fill="none" stroke="#000000" stroke-width="0.72" stroke-linecap="round" stroke-linejoin="round" stroke-miterlimit="10" points="
		35.058,102.962 35.898,103.922 36.858,104.762 37.878,105.482 38.958,106.142 43.638,108.062 46.038,108.902 48.438,109.682
		53.358,110.942 58.278,112.142 63.198,113.102 73.158,115.022 	"/>

		<polyline fill="none" stroke="#000000" stroke-width="0.72" stroke-linecap="round" stroke-linejoin="round" stroke-miterlimit="10" points="
		190.578,130.082 198.139,130.442 205.639,130.562 213.139,130.382 220.639,129.962 228.139,129.302 	"/>

		<polyline fill="none" stroke="#000000" stroke-width="0.72" stroke-linecap="round" stroke-linejoin="round" stroke-miterlimit="10" points="
		163.758,128.162 172.698,128.942 181.638,129.602 190.578,130.082 	"/>

		<line fill="none" stroke="#000000" stroke-width="0.72" stroke-linecap="round" stroke-linejoin="round" stroke-miterlimit="10" x1="163.758" y1="128.162" x2="152.778" y2="127.022"/>

		<polyline fill="none" stroke="#000000" stroke-width="0.24" stroke-linecap="round" stroke-linejoin="round" stroke-miterlimit="10" points="
		189.678,90.182 166.699,76.142 143.598,62.162 	"/>

		<polyline fill="none" stroke="#000000" stroke-width="0.24" stroke-linecap="round" stroke-linejoin="bevel" stroke-miterlimit="10" points="
		143.598,62.162 138.379,59.042 133.098,56.102 127.758,53.282 122.299,50.582 116.839,48.062 111.258,45.602 	"/>

		<polyline fill="none" stroke="#000000" stroke-width="0.24" stroke-linecap="round" stroke-linejoin="bevel" stroke-miterlimit="10" points="
		111.258,45.662 107.418,43.982 103.459,42.422 99.439,41.042 95.418,39.782 91.339,38.702 87.198,37.742 	"/>

		<path fill="none" stroke="#000000" stroke-width="0.24" stroke-linecap="round" stroke-linejoin="round" stroke-miterlimit="10" d="
		M87.198,37.742l-4.44-0.9l-2.22-0.36c-9.702-0.9-19.839-1.343-29.28,1.5l-2.16,0.78l-2.1,0.78
		c-8.386,3.472-16.22,8.462-22.44,15.12l-1.44,1.74l-1.5,1.74"/>

		<path fill="none" stroke="#000000" stroke-width="0.24" stroke-linecap="round" stroke-linejoin="round" stroke-miterlimit="10" d="
		M189.678,90.182l5.46,3.42l2.76,1.62l2.82,1.56c4.603,2.519,9.817,4.661,14.82,6.24l3.12,0.78l3.12,0.66
		c7.508,1.155,14.952,0.368,22.5,0.06l1.62-0.18l1.56-0.24l3.12-0.66l3.12-0.84c7.971-2.202,16.6-5.612,24.18-8.82l2.82-1.44
		l1.32-0.78c1.531-1.055,2.214-1.325,3.24-2.82l0.3-0.36l0.6-0.96"/>

		<polyline fill="none" stroke="#000000" stroke-width="0.72" stroke-linecap="round" stroke-linejoin="round" stroke-miterlimit="10" points="
		235.818,128.702 231.199,129.122 226.519,129.362 	"/>

		<path fill="none" stroke="#000000" stroke-width="0.24" stroke-linecap="round" stroke-linejoin="bevel" stroke-miterlimit="10" d="
		M201.918,34.142l-5.22-3.18c-15.827-9.535-32.605-16.693-50.34-21.84l-5.88-1.62"/>

		<path fill="none" stroke="#000000" stroke-width="0.24" stroke-linecap="round" stroke-linejoin="bevel" stroke-miterlimit="10" d="
		M236.658,60.902l-0.42-1.98c-3.388-13.734-16.479-22.372-30.42-20.34l-1.98,0.42"/>

		<path fill="none" stroke="#000000" stroke-width="0.24" stroke-linecap="round" stroke-linejoin="bevel" stroke-miterlimit="10" d="
		M245.958,67.142l0.06-2.22c-0.44-21.487-21.928-35.767-41.94-27.96l-1.98,0.9"/>

		<line fill="none" stroke="#000000" stroke-width="0.24" stroke-linecap="round" stroke-linejoin="round" stroke-miterlimit="10" x1="200.178" y1="36.482" x2="252.199" y2="71.222"/>

		<line fill="none" stroke="#000000" stroke-width="0.24" stroke-linecap="round" stroke-linejoin="round" stroke-miterlimit="10" x1="257.238" y1="63.782" x2="243.199" y2="52.322"/>

		<polyline fill="none" stroke="#000000" stroke-width="0.24" stroke-linecap="round" stroke-linejoin="bevel" stroke-miterlimit="10" points="
		274.218,84.242 265.758,77.102 257.118,70.262 	"/>

		<path fill="none" stroke="#000000" stroke-width="0.24" stroke-linecap="round" stroke-linejoin="bevel" stroke-miterlimit="10" d="
		M275.538,94.802l0.36-1.5c0.443-2.551,0.166-5.251-0.9-7.62l-0.72-1.44"/>

		<path fill="none" stroke="#000000" stroke-width="0.24" stroke-linecap="round" stroke-linejoin="round" stroke-miterlimit="10" d="
		M200.178,36.482l-0.12-0.6l0.06-0.54c0.218-0.737,1.096-1.003,1.74-1.2l1.2-0.24l1.08-0.12c3.17-0.171,6.711-0.054,9.84,0.48
		l1.08,0.18l1.08,0.3"/>

		<path fill="none" stroke="#000000" stroke-width="0.24" stroke-linecap="round" stroke-linejoin="round" stroke-miterlimit="10" d="
		M252.198,71.222l0.3,0.06c4.209,1.447,7.773-3.258,5.22-6.9l-0.48-0.6"/>

		<path fill="none" stroke="#000000" stroke-width="0.42" stroke-linecap="round" stroke-linejoin="bevel" stroke-miterlimit="10" d="
		M57.558,63.602l-1.26,0.06l-1.2,0.24c-15.576,4.475-14.963,34.303,1.2,37.2l1.26,0.06l1.26-0.06
		c16.163-2.897,16.776-32.725,1.2-37.2l-1.2-0.24L57.558,63.602z"/>

		<line fill="none" stroke="#000000" stroke-width="0.72" stroke-linecap="round" stroke-linejoin="round" stroke-miterlimit="10" x1="57.558" y1="106.862" x2="57.558" y2="154.502"/>
	<path fill-rule="evenodd" clip-rule="evenodd" d="M8.598,165.962l-3.42,0.12h0.18l0.36,0.06c2.073,0.093,3.207,1.804,3.12,3.84v0.6
		c-0.216,2.05-1.122,3.35-3.3,3.42h-1.74l4.92,0.06c1.962-1.684,2.079-5.901,0.3-7.74l-0.18-0.18"/>
	<path fill-rule="evenodd" clip-rule="evenodd" d="M5.239,165.002h-2.34l-0.3,0.12l-0.06,0.12l-0.06,0.3v9.24l0.12,0.24h0.06
		l0.3,0.12h2.88l0.36-0.06l0.3-0.06l0.6-0.12l0.24-0.06l0.6-0.24l0.24-0.18l0.3-0.18l0.24-0.18l-4.92-0.06v-7.92h1.38l3.42-0.12
		l-0.24-0.18c-0.711-0.503-1.546-0.724-2.4-0.78h-0.36"/>
	<path fill-rule="evenodd" clip-rule="evenodd" d="M17.718,173.702l-0.3,0.06c-0.618,0.353-1.337,0.478-2.04,0.48l-2.76,0.06
		l0.3,0.3c0.865,0.655,1.953,0.721,3,0.66l0.3-0.06h0.18l0.3-0.06l0.3-0.12l0.24-0.06l0.3-0.12l0.24-0.12l0.06-0.12l0.06-0.06v-0.18
		l0.06-0.18l-0.06-0.24v-0.12l-0.06-0.12"/>
	<path fill-rule="evenodd" clip-rule="evenodd" d="M17.478,168.482l-2.4,0.06h0.36c0.988,0.287,1.362,0.779,1.5,1.8v0.36h-3.84
		l-1.32,0.06l-0.06,0.36c-0.07,0.861,0.225,2.591,0.9,3.18l2.76-0.06h-0.18c-1.405-0.127-2.046-0.841-2.1-2.22v-0.36h4.68l0.3-0.12
		l0.06-0.12l0.06-0.3v-0.96l-0.12-0.6l-0.12-0.24l-0.12-0.3l-0.18-0.24"/>
	<path fill-rule="evenodd" clip-rule="evenodd" d="M15.138,167.522h-0.18c-1.834,0.116-2.819,1.18-3.18,2.94v0.3l1.32-0.06v-0.18
		c0.053-1.127,0.834-1.983,1.98-1.98l2.4-0.06l-0.12-0.18c-0.465-0.343-0.982-0.659-1.56-0.72l-0.3-0.06"/>
	<polyline fill-rule="evenodd" clip-rule="evenodd" points="22.818,174.002 21.379,174.062 21.499,174.182 23.598,174.182
		23.418,174.182 23.119,174.122 	"/>
	<polyline fill-rule="evenodd" clip-rule="evenodd" points="21.799,168.482 21.559,168.662 23.119,168.722 23.299,168.662
		23.659,168.662 	"/>
	<path fill-rule="evenodd" clip-rule="evenodd" d="M23.898,167.522h-0.3l-0.3,0.06l-0.3,0.06l-0.3,0.12v0.06l-0.3,0.12l-0.24,0.18
		l-0.36,0.36l1.86,0.18h0.24c0.975,0.138,1.469,1.279,1.44,2.16l0.06,0.3v0.36c-0.013,0.905-0.34,2.571-1.5,2.64l-0.3,0.06h-2.1
		l0.24,0.24l0.24,0.18v0.06l0.3,0.18c4.611,2.584,6.196-6.127,2.28-7.26l-0.36-0.06"/>
	<path fill-rule="evenodd" clip-rule="evenodd" d="M20.898,164.222h-0.3l-0.24,0.06l-0.06,0.06l-0.06,0.12v10.62l0.12,0.06
		l0.18,0.06h0.54l0.18-0.06l0.12-0.06v-1.02l1.44-0.06l-0.24-0.18l-0.12-0.06l-0.24-0.18l-0.24-0.24l-0.18-0.24l-0.24-0.24v-2.82
		l0.12-0.24c0.375-0.389,0.512-0.526,0.96-0.84l0.48-0.24l-1.56-0.06v-4.2l-0.06-0.12l-0.12-0.06l-0.18-0.06"/>
	<polyline fill-rule="evenodd" clip-rule="evenodd" points="32.358,173.882 32.059,174.062 31.459,174.182 33.319,174.242
		33.559,174.002 	"/>
	<path fill-rule="evenodd" clip-rule="evenodd" d="M29.299,167.642h-0.3l-0.18,0.06l-0.12,0.06l-0.06,0.12v4.32l0.06,0.36v0.36
		l0.06,0.3l0.06,0.24v0.12l0.24,0.6l0.18,0.24v0.06l0.24,0.24c0.939,0.809,2.389,0.666,3.36,0l0.48-0.48l-1.86-0.06h-0.06l-0.3-0.06
		l-0.3-0.12l-0.24-0.12l-0.24-0.24v-0.06l-0.18-0.3l-0.18-0.9v-4.62l-0.12-0.06l-0.24-0.06"/>
	<polyline fill-rule="evenodd" clip-rule="evenodd" points="34.098,167.642 33.799,167.642 33.559,167.702 33.499,167.762
		33.439,167.882 33.439,172.802 33.319,172.982 32.659,173.642 32.418,173.822 32.358,173.882 33.559,174.002 33.559,174.962
		33.619,175.022 33.679,175.142 33.858,175.202 34.459,175.202 34.639,175.142 34.699,175.022 34.759,174.962 34.759,167.882
		34.699,167.762 34.639,167.702 34.399,167.642 	"/>
	<path fill-rule="evenodd" clip-rule="evenodd" d="M37.158,174.482l-0.18,0.24c-0.584,0.505-0.795,1.46-0.42,2.16l0.06,0.12h3h-0.24
		c-1.547,0.052-2.389-0.949-1.14-2.16l0.24-0.24"/>
	<polyline fill-rule="evenodd" clip-rule="evenodd" points="41.299,172.142 38.119,172.202 38.419,172.382 38.719,172.502
		38.899,172.562 39.199,172.562 39.559,172.622 39.739,172.622 40.039,172.562 40.639,172.442 40.699,172.442 40.999,172.262 	"/>
	<path fill-rule="evenodd" clip-rule="evenodd" d="M37.338,168.482l-0.18,0.24c-0.459,0.72-0.532,1.984,0,2.7l0.18,0.24l2.22-0.06
		h-0.3c-1.642-0.21-1.616-2.702-0.06-3.06h0.3"/>
	<path fill-rule="evenodd" clip-rule="evenodd" d="M39.558,167.522h-0.18c-0.859,0.145-1.111,0.148-1.8,0.72h-0.06l-0.18,0.24
		l2.16,0.06h0.36c1.282,0.147,1.599,2.088,0.6,2.76l-0.24,0.18h-0.06l-0.3,0.12h-0.3l-2.22,0.06l-0.12,0.12l-0.24,0.3l-0.24,0.48
		l-0.12,0.6v0.06l0.06,0.3l0.18,0.3l0.06,0.12l0.18,0.18l0.3,0.18l-0.24,0.18l1.32,0.12l1.8,0.12h0.48l0.3,0.12l0.24,0.12l0.18,0.12
		l0.18,0.24l0.06,0.36l-0.06,0.18l-0.06,0.3l-0.12,0.24l-0.24,0.18l-0.06,0.06l-0.24,0.12l-0.36,0.12l-0.3,0.06l-0.3,0.06h-3.36
		l0.48,0.48l0.06,0.06c1.14,0.516,2.439,0.576,3.66,0.36l0.24-0.12l0.3-0.06c1.215-0.412,2.035-1.687,1.44-2.94l-0.06-0.12
		l-0.18-0.24l-0.24-0.24l-0.18-0.12l-0.6-0.24l-0.3-0.06l-0.3-0.06h-0.36l-1.86-0.12h-0.06l-0.36-0.06l-0.24-0.12l-0.18-0.18
		l-0.06-0.3v-0.12l0.06-0.3l0.06-0.06l0.18-0.24l3.18-0.06l0.48-0.48l0.18-0.24l0.12-0.3l0.06-0.12
		c0.161-0.637,0.116-0.772,0.12-1.38l-0.12-0.3v-0.06l-0.12-0.3l-0.24-0.24h1.02l0.18-0.12l0.06-0.06v-0.48l-0.06-0.24l-0.18-0.12
		h-2.16l-0.18-0.06l-0.3-0.06h-0.3"/>
	<polyline fill-rule="evenodd" clip-rule="evenodd" points="51.018,174.002 49.578,174.062 49.698,174.182 51.799,174.182
		51.618,174.182 51.318,174.122 	"/>
	<polyline fill-rule="evenodd" clip-rule="evenodd" points="49.998,168.482 49.758,168.662 51.318,168.722 51.498,168.662
		51.858,168.662 	"/>
	<path fill-rule="evenodd" clip-rule="evenodd" d="M52.098,167.522h-0.3l-0.3,0.06l-0.3,0.06l-0.3,0.12v0.06l-0.3,0.12l-0.24,0.18
		l-0.36,0.36l1.86,0.18h0.24c0.975,0.138,1.468,1.279,1.44,2.16l0.06,0.3v0.36c-0.013,0.905-0.339,2.571-1.5,2.64l-0.3,0.06h-2.1
		l0.24,0.24l0.24,0.18v0.06l0.3,0.18c4.611,2.584,6.196-6.127,2.28-7.26l-0.36-0.06"/>
	<path fill-rule="evenodd" clip-rule="evenodd" d="M49.098,164.222h-0.3l-0.24,0.06l-0.06,0.06l-0.06,0.12v10.62l0.12,0.06
		l0.18,0.06h0.54l0.18-0.06l0.12-0.06v-1.02l1.44-0.06l-0.24-0.18l-0.12-0.06l-0.24-0.18l-0.24-0.24l-0.18-0.24l-0.24-0.24v-2.82
		l0.12-0.24c0.375-0.389,0.512-0.526,0.96-0.84l0.48-0.24l-1.56-0.06v-4.2l-0.06-0.12l-0.12-0.06l-0.18-0.06"/>
	<path fill-rule="evenodd" clip-rule="evenodd" d="M62.598,168.542l-2.64,0.06h0.12c0.609,0.05,1.247,0.272,1.56,0.84h0.06l0.12,0.3
		c0.671,1.555,0.398,4.589-1.92,4.44l-2.64,0.12h0.06l0.18,0.24c4.137,2.532,7.315-1.536,5.46-5.52l-0.18-0.24"/>
	<path fill-rule="evenodd" clip-rule="evenodd" d="M60.018,167.522h-0.06c-3.468-0.122-4.381,4.086-2.88,6.54l0.18,0.24l2.64-0.12
		h-0.12c-2.771,0.192-2.773-5.859,0.18-5.58l2.64-0.06v-0.06c-0.525-0.511-1.184-0.825-1.92-0.9l-0.3-0.06"/>
	<polyline fill-rule="evenodd" clip-rule="evenodd" points="68.238,174.182 67.938,174.242 67.578,174.302 69.378,174.482
		69.618,174.242 	"/>
	<path fill-rule="evenodd" clip-rule="evenodd" d="M65.538,171.602l-0.18,0.24c-1.671,2.63,1.713,4.489,3.78,2.82l0.24-0.18
		l-1.8-0.18c-1.368,0.04-1.731-1.68-0.78-2.22v-0.06l0.3-0.12l0.3-0.06l0.6-0.12h1.44"/>
	<polyline fill-rule="evenodd" clip-rule="evenodd" points="65.298,168.482 65.298,169.022 65.358,169.202 65.418,169.262
		65.538,169.322 65.838,169.202 66.018,169.082 66.318,168.962 66.378,168.902 66.978,168.662 67.158,168.662 67.518,168.602
		67.818,168.602 	"/>
	<path fill-rule="evenodd" clip-rule="evenodd" d="M67.938,167.522h-0.18c-0.796,0.114-1.681,0.181-2.28,0.78l-0.18,0.18l2.52,0.12
		c1.087-0.139,1.694,0.592,1.62,1.62v0.6h-1.86l-0.3,0.06l-0.3,0.06l-0.24,0.06l-0.6,0.24l-0.24,0.12l-0.06,0.06l-0.3,0.18l3.9,0.12
		v1.5l-0.18,0.24l-0.24,0.18l-0.24,0.24l-0.24,0.12l-0.06,0.06l-0.24,0.12l1.38,0.06v0.72l0.06,0.12l0.18,0.06l0.3,0.06h0.06
		l0.3-0.06l0.18-0.06l0.06-0.12v-4.98l-0.06-0.36l-0.06-0.3c-0.139-0.993-0.73-1.492-1.68-1.68l-0.3-0.06l-0.36-0.06"/>
	<polyline fill-rule="evenodd" clip-rule="evenodd" points="77.238,168.662 76.098,168.782 76.398,168.782 76.698,168.842
		77.058,168.962 77.178,168.842 	"/>
	<polyline fill-rule="evenodd" clip-rule="evenodd" points="73.698,167.642 73.398,167.642 73.218,167.702 73.098,167.762
		73.098,174.962 73.158,175.022 73.218,175.142 73.458,175.202 74.058,175.202 74.238,175.142 74.418,174.962 74.418,170.282
		74.538,170.042 74.898,169.562 75.138,169.322 75.318,169.082 75.438,168.962 74.298,168.902 74.298,167.882 74.238,167.762
		74.178,167.702 73.998,167.642 	"/>
	<path fill-rule="evenodd" clip-rule="evenodd" d="M76.218,167.522h-0.18l-0.3,0.06l-0.18,0.06l-0.48,0.36l-0.24,0.24l-0.18,0.12
		l-0.18,0.24l-0.18,0.3l1.14,0.06l0.3-0.12l0.06-0.06h0.3l1.14-0.12v-0.3c0.024-0.512,0.03-0.704-0.54-0.78l-0.24-0.06"/>
	<polyline fill-rule="evenodd" clip-rule="evenodd" points="82.098,174.002 81.858,174.122 81.679,174.182 81.318,174.182
		83.358,174.242 83.598,174.002 	"/>
	<path fill-rule="evenodd" clip-rule="evenodd" d="M79.038,168.602l-0.06,0.06c-1.926,3.033-0.095,8.785,4.14,5.82l0.24-0.24
		l-2.04-0.06h-0.3c-1.011-0.243-1.324-1.249-1.44-2.16v-0.66c-0.017-0.79,0.311-2.309,1.2-2.58l0.3-0.12h0.3"/>
	<polyline fill-rule="evenodd" clip-rule="evenodd" points="81.258,167.522 80.839,167.522 80.539,167.582 79.939,167.822
		79.698,167.942 79.459,168.122 79.219,168.362 79.039,168.602 83.418,168.602 82.939,168.122 82.638,167.942 82.399,167.822
		82.219,167.702 81.918,167.582 81.619,167.522 	"/>
	<path fill-rule="evenodd" clip-rule="evenodd" d="M84.078,164.222l-0.3,0.06h-0.24l-0.06,0.12l-0.06,0.06v4.14h-4.38l2.34,0.06
		h0.18c0.468,0.043,0.861,0.297,1.2,0.6l0.42,0.42l0.24,0.3v2.82l-0.12,0.18l-0.72,0.72l-0.24,0.18l-0.24,0.12h1.5v1.08l0.12,0.06
		l0.18,0.06h0.54l0.18-0.06l0.06-0.06l0.06-0.12v-10.5l-0.06-0.06l-0.06-0.12h-0.24"/>
	<path fill-rule="evenodd" clip-rule="evenodd" d="M90.318,173.582h-0.06l-0.06,0.12l-0.06,0.18c-0.138,1.101,0.463,1.084,1.5,1.32
		l0.06,0.06h0.3c0.797,0.031,1.692-0.023,2.34-0.54l0.24-0.24l0.18-0.24h-2.88l-0.3-0.12l-0.3-0.06l-0.24-0.12l-0.18-0.12
		l-0.24-0.12"/>
	<path fill-rule="evenodd" clip-rule="evenodd" d="M94.758,168.362l-1.92,0.18h0.06c0.615-0.034,0.933,0.162,1.44,0.42l0.24,0.12
		l0.06-0.06l0.06-0.06l0.06-0.18v-0.24"/>
	<path fill-rule="evenodd" clip-rule="evenodd" d="M92.838,167.522h-0.18l-0.36,0.06l-0.3,0.06c-0.689,0.142-1.255,0.563-1.56,1.2
		l-0.06,0.18l-0.06,0.3c-0.128,0.595,0.058,1.279,0.54,1.68l0.06,0.06l0.48,0.36l0.06,0.06c0.462,0.225,1.467,0.454,1.8,0.78
		l0.24,0.12l0.18,0.24l0.12,0.18l0.06,0.3l-0.06,0.24l-0.06,0.3l-0.06,0.12l-0.24,0.24l-0.18,0.06l-0.3,0.12l-0.24,0.06h-0.36h2.4
		l0.18-0.24v-0.06c0.233-0.416,0.218-0.987,0.12-1.44l-0.12-0.24v-0.06l-0.18-0.3l-0.18-0.24l-0.06-0.06l-0.24-0.18l-0.3-0.12
		l-0.06-0.06l-0.6-0.24l-0.06-0.06l-0.3-0.12c-0.443-0.197-1.014-0.31-1.26-0.78l-0.12-0.18l-0.06-0.3v-0.12l0.12-0.3v-0.06
		l0.24-0.24l0.06-0.12l0.3-0.12l0.3-0.06h0.3l1.92-0.18l-0.06-0.18v-0.06l-0.12-0.12l-0.24-0.18h-0.12l-0.3-0.12l-0.18-0.06
		l-0.3-0.06l-0.24-0.06"/>
	<polyline fill-rule="evenodd" clip-rule="evenodd" points="98.238,174.962 98.178,175.022 98.058,175.142 97.878,175.202
		97.278,175.202 97.038,175.142 96.978,175.022 96.918,174.962 96.918,164.462 96.978,164.342 97.038,164.282 97.278,164.222
		97.878,164.222 98.058,164.282 98.178,164.342 98.238,164.462 98.238,174.962 	"/>
	<path fill-rule="evenodd" clip-rule="evenodd" d="M106.278,168.542l-2.64,0.06h0.12c0.609,0.05,1.247,0.272,1.56,0.84h0.06
		l0.12,0.3c0.671,1.555,0.398,4.589-1.92,4.44l-2.64,0.12h0.06l0.18,0.24c4.137,2.532,7.315-1.536,5.46-5.52l-0.18-0.24"/>
	<path fill-rule="evenodd" clip-rule="evenodd" d="M103.698,167.522h-0.06c-3.468-0.122-4.381,4.086-2.88,6.54l0.18,0.24l2.64-0.12
		h-0.12c-2.771,0.192-2.773-5.859,0.18-5.58l2.64-0.06v-0.06c-0.525-0.511-1.184-0.825-1.92-0.9l-0.3-0.06"/>
	<polyline fill-rule="evenodd" clip-rule="evenodd" points="112.518,173.942 112.398,174.002 112.218,174.062 111.978,174.122
		111.918,174.122 111.618,174.182 112.698,174.182 112.638,174.062 112.638,173.942 	"/>
	<path fill-rule="evenodd" clip-rule="evenodd" d="M109.998,165.722l-0.3,0.06h-0.24l-0.12,0.24v1.68h-1.08l-0.12,0.12v0.12
		l-0.06,0.3v0.12l0.06,0.24l0.24,0.18h0.96v4.2c-0.031,0.512,0.159,1.472,0.6,1.8l0.24,0.18l0.3,0.18
		c0.557,0.161,1.923,0.287,2.22-0.36v-0.6h-1.08c-0.907-0.038-0.964-0.782-0.96-1.5v-3.9h1.8l0.24-0.24v-0.6l-0.12-0.24h-1.92v-1.68
		l-0.06-0.12l-0.12-0.12h-0.18"/>
</g>
</svg>
