<?xml version="1.0" encoding="UTF-8" standalone="no"?>
<!DOCTYPE svg PUBLIC "-//W3C//DTD SVG 1.1//EN" "http://www.w3.org/Graphics/SVG/1.1/DTD/svg11.dtd">
<!-- Generated by Microsoft Visio, SVG Export nrf_cloud_led_states.svg Page-1 -->
<svg xmlns="http://www.w3.org/2000/svg" xmlns:xlink="http://www.w3.org/1999/xlink" xmlns:ev="http://www.w3.org/2001/xml-events"
		width="6.70392in" height="6.16222in" viewBox="0 0 482.682 443.68" xml:space="preserve" color-interpolation-filters="sRGB"
		class="st15">
	<style type="text/css">
	<![CDATA[
		.st1 {fill:#768692;stroke:#768692;stroke-linecap:round;stroke-linejoin:round;stroke-width:5}
		.st2 {fill:#ffffff;font-family:Calibri;font-size:1.00001em}
		.st3 {fill:#ffcd00;stroke:url(#grad3-7);stroke-linecap:round;stroke-linejoin:round;stroke-width:5}
		.st4 {fill:#333f48;font-family:Calibri;font-size:1.00001em}
		.st5 {fill:#d0df00;stroke:#d0df00;stroke-linecap:round;stroke-linejoin:round;stroke-width:5}
		.st6 {fill:#ffffff;stroke:#00a9ce;stroke-width:1}
		.st7 {marker-end:url(#mrkr13-30);stroke:#00a9ce;stroke-linecap:butt;stroke-width:1}
		.st8 {fill:#00a9ce;fill-opacity:1;stroke:#00a9ce;stroke-opacity:1;stroke-width:0.28409090909091}
		.st9 {fill:none;marker-end:url(#mrkr13-34);stroke:none;stroke-width:1}
		.st10 {fill:#feffff;fill-opacity:1;stroke:#feffff;stroke-opacity:1;stroke-width:0.28409090909091}
		.st11 {fill:#00a9ce;font-family:Calibri;font-size:1.00001em}
		.st12 {marker-start:url(#mrkr13-71);stroke:#00a9ce;stroke-linecap:butt;stroke-width:1}
		.st13 {fill:#ffffff;stroke:none;stroke-linecap:butt;stroke-width:7.2}
		.st14 {fill:#d9e1e2;stroke:none;stroke-width:1}
		.st15 {fill:none;fill-rule:evenodd;font-size:12px;overflow:visible;stroke-linecap:square;stroke-miterlimit:3}
	]]>
	</style>

	<defs id="Patterns_And_Gradients">
		<radialGradient id="grad3-7" cx="0.5" cy="0.5" r="0.73">
			<stop offset="0.82" stop-color="#ffcd00" stop-opacity="1"/>
			<stop offset="1" stop-color="#f58220" stop-opacity="1"/>
			<stop offset="1" stop-color="#ffcd00" stop-opacity="1"/>
		</radialGradient>
	</defs>
	<defs id="Markers">
		<g id="lend13">
			<path d="M 3 1 L 0 0 L 3 -1 L 3 1 " style="stroke:none"/>
		</g>
		<marker id="mrkr13-30" class="st8" refX="-10.56" orient="auto" markerUnits="strokeWidth" overflow="visible">
			<use xlink:href="#lend13" transform="scale(-3.52,-3.52) "/>
		</marker>
		<marker id="mrkr13-34" class="st10" refX="-10.56" orient="auto" markerUnits="strokeWidth" overflow="visible">
			<use xlink:href="#lend13" transform="scale(-3.52,-3.52) "/>
		</marker>
		<marker id="mrkr13-71" class="st8" refX="10.2" orient="auto" markerUnits="strokeWidth" overflow="visible">
			<use xlink:href="#lend13" transform="scale(3.52) "/>
		</marker>
	</defs>
	<g>
		<title>Page-1</title>
		<g id="shape84-1" transform="translate(218.378,-9.5564)">
			<title>Nordic Middle Grey.84</title>
			<desc>LED 3</desc>
			<rect x="0" y="420.089" width="54.6402" height="23.5906" class="st1"/>
			<text x="13.78" y="435.48" class="st2">LED 3</text>		</g>
		<g id="shape87-4" transform="translate(218.378,-146.58)">
			<title>Nordic Middle Grey.87</title>
			<desc>LED 3</desc>
			<rect x="0" y="420.089" width="54.6402" height="23.5906" class="st3"/>
			<text x="13.78" y="435.48" class="st4">LED 3</text>		</g>
		<g id="shape83-9" transform="translate(218.378,-252.879)">
			<title>Nordic Middle Grey.83</title>
			<desc>LED 3</desc>
			<rect x="0" y="420.089" width="54.6402" height="23.5906" class="st1"/>
			<text x="13.78" y="435.48" class="st2">LED 3</text>		</g>
		<g id="shape78-12" transform="translate(218.378,-304.863)">
			<title>Nordic Middle Grey.76</title>
			<desc>LED 3</desc>
			<rect x="0" y="420.089" width="54.6402" height="23.5906" class="st5"/>
			<text x="13.78" y="435.48" class="st4">LED 3</text>		</g>
		<g id="shape86-15" transform="translate(218.378,-359.178)">
			<title>Nordic Middle Grey.75</title>
			<desc>LED 3</desc>
			<rect x="0" y="420.089" width="54.6402" height="23.5906" class="st3"/>
			<text x="13.78" y="435.48" class="st4">LED 3</text>		</g>
		<g id="shape82-19" transform="translate(218.378,-412.67)">
			<title>Nordic Middle Grey.82</title>
			<desc>LED 3</desc>
			<rect x="0" y="420.089" width="54.6402" height="23.5906" class="st1"/>
			<text x="13.78" y="435.48" class="st2">LED 3</text>		</g>
		<g id="shape22-22" transform="translate(117.43,-205.147)">
			<title>Compare 1</title>
			<path d="M0 436.59 L7.09 429.51 L14.17 436.59 L7.09 443.68 L0 436.59 Z" class="st6"/>
		</g>
		<g id="group27-24" transform="translate(97.3219,-385.147)">
			<title>Task.27</title>
			<g id="shape28-25" transform="translate(20.2335,-30.3937)">
				<title>Dynamic connector</title>
				<path d="M7.09 443.68 L7.09 463.51" class="st7"/>
			</g>
			<g id="shape29-31" transform="translate(-86.0657,-30.3937)">
				<title>Sheet.29</title>
				<desc>Startup</desc>
				<rect x="0" y="426.672" width="226.772" height="17.0079" class="st9"/>
				<text x="95.34" y="438.78" class="st11">Startup</text>			</g>
		</g>
		<g id="group30-36" transform="translate(86.2493,-331.289)">
			<title>Task.30</title>
			<g id="shape31-37" transform="translate(31.1811,-30.3937)">
				<title>Dynamic connector</title>
				<path d="M7.09 443.68 L7.09 463.51" class="st7"/>
			</g>
			<g id="shape32-42" transform="translate(-75.1181,-30.3937)">
				<title>Sheet.32</title>
				<desc>LTE connecting</desc>
				<rect x="0" y="426.672" width="226.772" height="17.0079" class="st9"/>
				<text x="76.76" y="438.78" class="st11">LTE connecting</text>			</g>
		</g>
		<g id="group33-46" transform="translate(86.2493,-277.43)">
			<title>Task.33</title>
			<g id="shape34-47" transform="translate(31.1811,-30.3937)">
				<title>Dynamic connector</title>
				<path d="M7.09 443.68 L7.09 463.51" class="st7"/>
			</g>
			<g id="shape35-52" transform="translate(-75.1181,-30.3937)">
				<title>Sheet.35</title>
				<desc>LTE connected</desc>
				<rect x="0" y="426.672" width="226.772" height="17.0079" class="st9"/>
				<text x="77.98" y="438.78" class="st11">LTE connected</text>			</g>
		</g>
		<g id="group36-56" transform="translate(70.6588,-226.407)">
			<title>Task.36</title>
			<g id="shape37-57" transform="translate(46.7717,-30.3937)">
				<title>Dynamic connector</title>
				<path d="M7.09 443.68 L7.09 463.51" class="st7"/>
			</g>
			<g id="shape38-62" transform="translate(-59.5276,-30.3937)">
				<title>Sheet.38</title>
				<desc>nRF Cloud connecting</desc>
				<rect x="0" y="426.672" width="226.772" height="17.0079" class="st9"/>
				<text x="60.57" y="438.78" class="st11">nRF Cloud connecting</text>			</g>
		</g>
		<g id="shape40-66" transform="translate(276.171,-177.084)">
			<title>Dynamic connector</title>
			<desc>Not associated</desc>
			<path d="M0 433.48 L0 433.12 L0 408.53 L-137.48 408.53" class="st12"/>
			<rect x="-109.891" y="401.33" width="74.854" height="14.4001" class="st13"/>
			<text x="-107.18" y="412.13" class="st11">Not associated </text>		</g>
		<g id="shape42-74" transform="translate(127.352,-108.769)">
			<title>Dynamic connector.42</title>
			<desc>Add device on nRF Cloud</desc>
			<path d="M10.2 443.68 L10.56 443.68 L148.82 443.68 L148.82 415.33" class="st12"/>
			<rect x="21.16" y="436.48" width="120.956" height="14.4001" class="st13"/>
			<text x="21.16" y="447.28" class="st11">Add device on nRF Cloud</text>		</g>
		<g id="group47-81" transform="translate(163.493,689.299) rotate(180)">
			<title>Event.218</title>
			<g id="shape48-82" transform="translate(31.8898,-122.52)">
				<title>Dynamic connector</title>
				<path d="M7.09 453.88 L7.09 454.24 L7.09 566.2" class="st12"/>
			</g>
			<g id="shape49-87" transform="translate(77.9528,747.832) rotate(180)">
				<title>Sheet.49</title>
				<desc>Associated</desc>
				<rect x="0" y="426.672" width="77.9528" height="17.0079" class="st9"/>
				<text x="12.71" y="438.78" class="st11">Associated</text>			</g>
		</g>
		<g id="group50-91" transform="translate(180.112,828.827) rotate(180)">
			<title>Event.50</title>
			<g id="shape51-92" transform="translate(48.5079,-30.3937)">
				<title>Dynamic connector</title>
				<path d="M7.09 453.88 L7.09 454.24 L7.09 474.07" class="st12"/>
			</g>
			<g id="shape52-97" transform="translate(113.528,839.958) rotate(180)">
				<title>Sheet.52</title>
				<desc>nRF Cloud connected</desc>
				<rect x="0" y="426.672" width="115.866" height="17.0079" class="st9"/>
				<text x="6.33" y="438.78" class="st11">nRF Cloud connected</text>			</g>
		</g>
		<g id="group77-101" transform="translate(393.808,-337.048)">
			<title>Sheet.77</title>
			<g id="shape73-102" transform="translate(2.83463,20.3893)">
				<title>Nordic Light Grey</title>
				<rect x="0" y="329.504" width="85.0394" height="114.176" class="st14"/>
			</g>
			<g id="shape74-104" transform="translate(18.0342,-57.1068)">
				<title>Nordic Middle Grey</title>
				<desc>Off</desc>
				<rect x="0" y="420.089" width="54.6402" height="23.5906" class="st1"/>
				<text x="19.69" y="435.48" class="st2">Off</text>			</g>
			<g id="shape75-107" transform="translate(18.0342,8.02704)">
				<title>Nordic Middle Grey.75</title>
				<desc>Blink</desc>
				<rect x="0" y="420.089" width="54.6402" height="23.5906" class="st3"/>
				<text x="15.42" y="435.48" class="st4">Blink</text>			</g>
			<g id="shape76-111" transform="translate(18.0342,-24.5084)">
				<title>Nordic Middle Grey.76</title>
				<desc>On</desc>
				<rect x="0" y="420.089" width="54.6402" height="23.5906" class="st5"/>
				<text x="20.2" y="435.48" class="st4">On</text>			</g>
		</g>
		<g id="shape79-114" transform="translate(279.323,-304.863)">
			<title>Nordic Middle Grey</title>
			<desc>LED 4</desc>
			<rect x="0" y="420.089" width="54.6402" height="23.5906" class="st1"/>
			<text x="13.78" y="435.48" class="st2">LED 4</text>		</g>
		<g id="shape80-117" transform="translate(279.323,-359.178)">
			<title>Nordic Middle Grey.80</title>
			<desc>LED 4</desc>
			<rect x="0" y="420.089" width="54.6402" height="23.5906" class="st1"/>
			<text x="13.78" y="435.48" class="st2">LED 4</text>		</g>
		<g id="shape81-120" transform="translate(279.323,-412.67)">
			<title>Nordic Middle Grey.81</title>
			<desc>LED 4</desc>
			<rect x="0" y="420.089" width="54.6402" height="23.5906" class="st1"/>
			<text x="13.78" y="435.48" class="st2">LED 4</text>		</g>
		<g id="shape85-123" transform="translate(279.323,-9.5564)">
			<title>Nordic Middle Grey.85</title>
			<desc>LED 4</desc>
			<rect x="0" y="420.089" width="54.6402" height="23.5906" class="st5"/>
			<text x="13.78" y="435.48" class="st4">LED 4</text>		</g>
		<g id="shape88-126" transform="translate(279.323,-146.58)">
			<title>Nordic Middle Grey.88</title>
			<desc>LED 4</desc>
			<rect x="0" y="420.089" width="54.6402" height="23.5906" class="st3"/>
			<text x="13.78" y="435.48" class="st4">LED 4</text>		</g>
		<g id="shape89-130" transform="translate(279.323,-252.879)">
			<title>Nordic Middle Grey.89</title>
			<desc>LED 4</desc>
			<rect x="0" y="420.089" width="54.6402" height="23.5906" class="st3"/>
			<text x="13.78" y="435.48" class="st4">LED 4</text>		</g>
	</g>
</svg>
