<?xml version="1.0" encoding="utf-8"?>
<!-- Generator: Adobe Illustrator 24.1.2, SVG Export Plug-In . SVG Version: 6.00 Build 0)  -->
<svg version="1.0" id="Layer_1" xmlns="http://www.w3.org/2000/svg" xmlns:xlink="http://www.w3.org/1999/xlink" x="0px" y="0px"
	 width="415px" height="134px" viewBox="0 0 415 134" enable-background="new 0 0 415 134" xml:space="preserve">
<g>

		<line fill="none" stroke="#000000" stroke-width="0.72" stroke-linecap="round" stroke-linejoin="round" stroke-miterlimit="10" x1="54.59" y1="115.781" x2="134.21" y2="127.781"/>

		<path fill="none" stroke="#000000" stroke-width="0.72" stroke-linecap="round" stroke-linejoin="bevel" stroke-miterlimit="10" d="
		M31.43,50.561l-2.64,0.72c-9.669,2.82-18.37,8.882-24.36,16.98l-1.56,2.28"/>

		<path fill="none" stroke="#000000" stroke-width="0.72" stroke-linecap="round" stroke-linejoin="bevel" stroke-miterlimit="10" d="
		M61.97,48.881l-3.84-0.36c-7.649-0.661-15.39-0.237-22.92,1.26l-3.78,0.84"/>

		<path fill="none" stroke="#000000" stroke-width="0.72" stroke-linecap="round" stroke-linejoin="bevel" stroke-miterlimit="10" d="
		M88.49,57.881l-2.7-1.56c-6.377-3.611-13.44-6.004-20.7-7.02l-3.12-0.42"/>

		<path fill="none" stroke="#000000" stroke-width="0.72" stroke-linecap="round" stroke-linejoin="bevel" stroke-miterlimit="10" d="
		M124.13,83.681l-4.74-4.14c-8.156-6.694-16.504-12.979-25.56-18.42l-5.4-3.24"/>

		<path fill="none" stroke="#000000" stroke-width="0.72" stroke-linecap="round" stroke-linejoin="round" stroke-miterlimit="10" d="
		M124.19,83.681l5.76,5.52c11.793,10.79,24.431,20.435,37.98,28.92l6.84,4.14"/>

		<path fill="none" stroke="#000000" stroke-width="0.72" stroke-linecap="round" stroke-linejoin="bevel" stroke-miterlimit="10" d="
		M174.77,122.201l2.82,1.5c8.28,4.152,17.969,6.499,27.24,6.42l3.12-0.06"/>

		<path fill="none" stroke="#000000" stroke-width="0.72" stroke-linecap="round" stroke-linejoin="bevel" stroke-miterlimit="10" d="
		M217.31,129.461l3.06-0.3c10.327-1.296,19.92-5.084,28.44-11.04l2.46-1.8l2.22-2.22c5.98-6.34,10.071-13.155,12.84-21.42l0.9-3.06"
		/>

		<path fill="none" stroke="#000000" stroke-width="0.72" stroke-linecap="round" stroke-linejoin="bevel" stroke-miterlimit="10" d="
		M267.29,89.621l0.36-1.8c1.368-7.225-1.2-14.888-6.54-19.92l-1.38-1.2"/>

		<path fill="none" stroke="#000000" stroke-width="0.72" stroke-linecap="round" stroke-linejoin="bevel" stroke-miterlimit="10" d="
		M259.79,66.701l-6.12-4.8c-16.383-12.553-33.759-23.85-52.02-33.48l-6.9-3.6"/>

		<path fill="none" stroke="#000000" stroke-width="0.72" stroke-linecap="round" stroke-linejoin="bevel" stroke-miterlimit="10" d="
		M194.69,24.881l-4.98-2.4c-11.861-5.419-23.924-9.596-36.6-12.66l-5.4-1.2l-6.42-1.32l-6.42-1.2l-6.42-1.02l-6.48-0.9"/>

		<path fill="none" stroke="#000000" stroke-width="0.72" stroke-linecap="round" stroke-linejoin="bevel" stroke-miterlimit="10" d="
		M122.15,4.241l-4.8-0.6C98.645,1.49,78.469,3.213,60.41,8.561l-4.56,1.38"/>

		<path fill="none" stroke="#000000" stroke-width="0.72" stroke-linecap="round" stroke-linejoin="bevel" stroke-miterlimit="10" d="
		M55.79,9.941l-3.84,1.26c-8.976,3.205-17.22,7.656-24.84,13.38l-3.18,2.52l-2.46,2.1c-7.875,7.043-13.925,16.137-17.28,26.16
		l-0.96,3l-0.42,2.46l-0.36,2.52l-0.18,2.46v2.52l0.12,2.46l0.3,2.52l0.84,3.66l1.08,3.66l1.2,3.54l1.38,3.54l1.56,3.48l1.74,3.36
		l1.32,2.4l1.44,2.4l1.56,2.22l1.74,2.16"/>

		<path fill="none" stroke="#000000" stroke-width="0.72" stroke-linecap="round" stroke-linejoin="round" stroke-miterlimit="10" d="
		M16.49,103.721l0.9,0.9c4.037,4.569,21.961,8.25,27.3,9.24l9.9,1.92"/>

		<polyline fill="none" stroke="#000000" stroke-width="0.72" stroke-linecap="round" stroke-linejoin="round" stroke-miterlimit="10" points="
		172.07,130.781 179.57,131.201 187.07,131.261 194.63,131.141 202.13,130.721 209.57,130.001 	"/>

		<polyline fill="none" stroke="#000000" stroke-width="0.72" stroke-linecap="round" stroke-linejoin="round" stroke-miterlimit="10" points="
		145.19,128.921 154.13,129.701 163.07,130.361 172.07,130.781 	"/>

		<line fill="none" stroke="#000000" stroke-width="0.72" stroke-linecap="round" stroke-linejoin="round" stroke-miterlimit="10" x1="145.19" y1="128.921" x2="134.21" y2="127.781"/>

		<polyline fill="none" stroke="#000000" stroke-width="0.24" stroke-linecap="round" stroke-linejoin="round" stroke-miterlimit="10" points="
		171.11,90.941 148.13,76.841 125.09,62.921 	"/>

		<polyline fill="none" stroke="#000000" stroke-width="0.24" stroke-linecap="round" stroke-linejoin="bevel" stroke-miterlimit="10" points="
		125.03,62.921 119.81,59.801 114.53,56.861 109.19,54.041 103.73,51.341 98.27,48.821 92.69,46.361 	"/>

		<polyline fill="none" stroke="#000000" stroke-width="0.24" stroke-linecap="round" stroke-linejoin="bevel" stroke-miterlimit="10" points="
		92.69,46.421 88.85,44.741 84.89,43.181 80.87,41.801 76.85,40.541 72.77,39.461 68.63,38.501 	"/>

		<path fill="none" stroke="#000000" stroke-width="0.24" stroke-linecap="round" stroke-linejoin="round" stroke-miterlimit="10" d="
		M68.69,38.441l-4.44-0.9l-2.28-0.36c-8.714-0.827-20.79-1.211-29.22,1.56l-2.16,0.72l-2.16,0.84
		c-8.135,3.315-16.429,8.622-22.38,15.12l-1.5,1.74l-1.44,1.74"/>

		<path fill="none" stroke="#000000" stroke-width="0.24" stroke-linecap="round" stroke-linejoin="round" stroke-miterlimit="10" d="
		M171.11,90.941l5.46,3.42l2.82,1.62c17.604,10.028,27.873,10.915,47.94,9.12l1.56-0.24l3.18-0.72l3.12-0.84
		c8.206-2.274,16.284-5.457,24.12-8.76l2.88-1.44l1.32-0.78c1.371-0.947,2.287-1.527,3.24-2.88l0.24-0.36l0.3-0.42l0.36-0.48"/>

		<polyline fill="none" stroke="#000000" stroke-width="0.72" stroke-linecap="round" stroke-linejoin="round" stroke-miterlimit="10" points="
		217.31,129.461 212.63,129.881 207.95,130.061 	"/>

		<path fill="none" stroke="#000000" stroke-width="0.24" stroke-linecap="round" stroke-linejoin="bevel" stroke-miterlimit="10" d="
		M183.41,34.901l-5.22-3.18c-15.827-9.535-32.605-16.693-50.34-21.84l-5.88-1.62"/>

		<path fill="none" stroke="#000000" stroke-width="0.24" stroke-linecap="round" stroke-linejoin="bevel" stroke-miterlimit="10" d="
		M218.15,61.661l-0.42-1.98c-3.388-13.734-16.479-22.372-30.42-20.34l-1.98,0.42"/>

		<path fill="none" stroke="#000000" stroke-width="0.24" stroke-linecap="round" stroke-linejoin="bevel" stroke-miterlimit="10" d="
		M227.45,67.841l0.06-2.22c-0.44-21.487-21.928-35.767-41.94-27.96l-1.98,0.9"/>

		<line fill="none" stroke="#000000" stroke-width="0.24" stroke-linecap="round" stroke-linejoin="round" stroke-miterlimit="10" x1="181.61" y1="37.241" x2="233.69" y2="71.981"/>

		<line fill="none" stroke="#000000" stroke-width="0.24" stroke-linecap="round" stroke-linejoin="round" stroke-miterlimit="10" x1="238.73" y1="64.541" x2="224.63" y2="53.081"/>

		<polyline fill="none" stroke="#000000" stroke-width="0.24" stroke-linecap="round" stroke-linejoin="round" stroke-miterlimit="10" points="
		255.77,85.001 247.31,77.861 238.67,71.021 	"/>

		<path fill="none" stroke="#000000" stroke-width="0.24" stroke-linecap="round" stroke-linejoin="bevel" stroke-miterlimit="10" d="
		M257.03,95.561l0.36-1.5c0.443-2.551,0.166-5.251-0.9-7.62l-0.72-1.44"/>

		<path fill="none" stroke="#000000" stroke-width="0.24" stroke-linecap="round" stroke-linejoin="round" stroke-miterlimit="10" d="
		M181.61,37.241l-0.06-0.6v-0.54c0.332-0.819,1.02-0.973,1.8-1.2l1.14-0.24l1.08-0.18c3.224-0.233,6.69,0.126,9.9,0.48l1.08,0.24
		l1.02,0.3"/>

		<path fill="none" stroke="#000000" stroke-width="0.24" stroke-linecap="round" stroke-linejoin="round" stroke-miterlimit="10" d="
		M233.69,71.981l0.3,0.06c4.38,1.418,7.562-3.333,5.22-6.96l-0.48-0.54"/>

		<path fill="none" stroke="#000000" stroke-width="0.42" stroke-linecap="round" stroke-linejoin="bevel" stroke-miterlimit="10" d="
		M39.05,64.361l-1.26,0.06l-1.2,0.24c-15.576,4.475-14.963,34.303,1.2,37.2l1.26,0.06l1.26-0.06
		c16.163-2.897,16.776-32.725,1.2-37.2l-1.2-0.24L39.05,64.361z"/>

		<line fill="none" stroke="#000000" stroke-width="0.72" stroke-linecap="round" stroke-linejoin="round" stroke-miterlimit="10" x1="223.85" y1="44.081" x2="270.89" y2="44.081"/>
	<path fill-rule="evenodd" clip-rule="evenodd" d="M287.57,47.561h-0.06l-0.12,0.12v0.18l-0.06,0.3v0.06l0.06,0.3l2.82-0.12h-0.12
		c-0.529,0.066-1.778-0.362-2.16-0.72h-0.06"/>
	<path fill-rule="evenodd" clip-rule="evenodd" d="M293.03,40.121l-2.4,0.12h0.24c0.815,0.131,0.977,0.242,1.68,0.6l0.24,0.12
		l0.12-0.06l0.06-0.12l0.06-0.18v-0.24"/>
	<path fill-rule="evenodd" clip-rule="evenodd" d="M290.69,39.101h-0.3l-0.3,0.06c-2.075,0.197-3.064,2.159-2.16,3.96l0.18,0.24
		l0.42,0.42c0.277,0.388,1.455,0.887,1.92,1.08l0.3,0.18l0.18,0.06l0.3,0.18l0.24,0.18l0.12,0.06l0.18,0.24l0.24,0.24l0.06,0.12
		l0.06,0.24l0.06,0.36v0.12l-0.12,0.6h-0.06l-0.12,0.3l-0.24,0.24h-0.06l-0.3,0.18l-0.3,0.12l-0.12,0.06l-0.36,0.06h-0.3l-2.82,0.12
		l0.12,0.24l0.06,0.06c2.314,1.544,6.387,0.741,6-2.7l-0.06-0.3l-0.24-0.6c-0.72-1.041-1.977-1.444-3.06-1.98l-0.24-0.12l-0.3-0.18
		l-0.06-0.12l-0.24-0.18l-0.18-0.24l-0.06-0.12l-0.12-0.3l-0.06-0.36l0.06-0.24l0.06-0.3l0.12-0.18l0.18-0.24l0.24-0.18l0.3-0.12
		l0.06-0.06l0.3-0.06h0.36l2.4-0.12l-0.06-0.18v-0.06l-0.12-0.12v-0.06l-0.3-0.18l-0.24-0.06l-0.3-0.12l-0.3-0.12l-0.72-0.12"/>
	<path fill-rule="evenodd" clip-rule="evenodd" d="M300.29,47.561l-0.24,0.12c-0.435,0.317-0.893,0.647-1.44,0.72l-0.36,0.06
		l2.22,0.06l0.06-0.12v-0.54l-0.06-0.18l-0.06-0.12"/>
	<path fill-rule="evenodd" clip-rule="evenodd" d="M295.79,42.881l-0.36,0.48c-0.681,1.492-0.693,3.544,0.12,4.98l0.18,0.24
		l0.24,0.24c1.166,1.044,3.117,0.936,4.32,0l0.12-0.18l0.06-0.12l-2.22-0.06c-2.553,0.257-2.605-5.384-0.36-5.52l0.3-0.06"/>
	<path fill-rule="evenodd" clip-rule="evenodd" d="M298.25,41.801h-0.06c-1.056,0.101-1.485,0.153-2.28,0.96l-0.12,0.12h2.4
		c0.753,0.089,1.189,0.237,1.8,0.72l0.24,0.12l0.18-0.12l0.06-0.06v-0.6l-0.06-0.18v-0.12l-0.18-0.12v-0.06l-0.3-0.18l-0.18-0.12
		l-0.3-0.12l-0.24-0.06l-0.3-0.12h-0.06l-0.3-0.06"/>
	<polyline fill-rule="evenodd" clip-rule="evenodd" points="306.35,42.941 305.21,43.061 305.51,43.061 305.81,43.121
		305.99,43.181 306.17,43.241 306.23,43.181 306.29,43.121 	"/>
	<polyline fill-rule="evenodd" clip-rule="evenodd" points="302.81,41.921 302.51,41.921 302.33,41.981 302.21,42.041
		302.21,49.241 302.27,49.301 302.33,49.421 302.57,49.481 303.17,49.481 303.35,49.421 303.53,49.241 303.53,44.561 303.65,44.321
		304.01,43.841 304.25,43.601 304.43,43.361 304.55,43.241 303.41,43.181 303.41,42.161 303.35,42.041 303.29,41.981 303.11,41.921
			"/>
	<path fill-rule="evenodd" clip-rule="evenodd" d="M305.33,41.801h-0.18l-0.3,0.06l-0.18,0.06l-0.48,0.36l-0.24,0.24l-0.18,0.12
		l-0.18,0.24l-0.18,0.3l1.14,0.06l0.3-0.12l0.06-0.06h0.3l1.14-0.12v-0.3c0.024-0.512,0.03-0.704-0.54-0.78l-0.24-0.06"/>
	<path fill-rule="evenodd" clip-rule="evenodd" d="M313.55,42.821l-2.64,0.06h0.12c0.609,0.05,1.247,0.273,1.56,0.84h0.06l0.12,0.3
		c0.671,1.555,0.398,4.589-1.92,4.44l-2.64,0.12h0.06l0.18,0.24c1.12,0.968,3.487,1.011,4.62,0.06l0.24-0.18l0.18-0.24
		c1.088-1.086,1.167-3.521,0.54-4.86l-0.12-0.3l-0.18-0.24"/>
	<path fill-rule="evenodd" clip-rule="evenodd" d="M310.97,41.801h-0.06c-3.468-0.122-4.381,4.086-2.88,6.54l0.18,0.24l2.64-0.12
		h-0.12c-2.771,0.192-2.773-5.859,0.18-5.58l2.64-0.06v-0.06c-0.525-0.511-1.183-0.825-1.92-0.9l-0.3-0.06"/>
	<polyline fill-rule="evenodd" clip-rule="evenodd" points="317.63,49.241 317.45,49.421 317.27,49.481 316.67,49.481
		316.43,49.421 316.37,49.301 316.31,49.241 316.31,38.741 316.37,38.621 316.43,38.561 316.67,38.501 317.27,38.501 317.45,38.561
		317.57,38.621 317.63,38.741 317.63,49.241 	"/>
	<polyline fill-rule="evenodd" clip-rule="evenodd" points="321.35,49.241 321.17,49.421 320.99,49.481 320.39,49.481
		320.15,49.421 320.09,49.301 320.03,49.241 320.03,38.741 320.09,38.621 320.15,38.561 320.39,38.501 320.99,38.501 321.17,38.561
		321.29,38.621 321.35,38.741 321.35,49.241 	"/>
	<polyline fill-rule="evenodd" clip-rule="evenodd" points="331.25,42.161 329.63,47.981 329.63,48.041 328.73,49.181
		328.79,49.301 328.91,49.421 329.15,49.481 329.99,49.481 330.23,49.421 330.41,49.301 330.47,49.181 331.85,44.081 331.85,43.961
			"/>
	<polyline fill-rule="evenodd" clip-rule="evenodd" points="331.91,41.921 331.55,41.921 331.37,41.981 331.25,42.041
		331.25,42.161 331.85,43.961 331.85,44.081 333.35,49.181 334.25,48.041 334.25,47.981 332.51,42.161 332.51,42.041 332.39,41.981
		332.21,41.921 	"/>
	<polyline fill-rule="evenodd" clip-rule="evenodd" points="336.65,41.921 336.29,41.921 336.11,41.981 335.99,42.041
		335.93,42.161 334.25,47.981 334.25,48.041 333.35,49.181 333.41,49.301 333.59,49.421 333.83,49.481 334.61,49.481 334.85,49.421
		335.03,49.301 335.09,49.181 337.19,42.461 337.19,42.281 337.25,42.161 337.19,42.041 337.13,41.981 336.95,41.921 	"/>
	<polyline fill-rule="evenodd" clip-rule="evenodd" points="327.23,41.921 326.93,41.921 326.69,41.981 326.57,42.041
		326.57,42.281 326.63,42.461 328.73,49.181 329.63,48.041 329.63,47.981 327.95,42.161 327.89,42.041 327.77,41.981 327.59,41.921
		327.53,41.921 	"/>
	<polyline fill-rule="evenodd" clip-rule="evenodd" points="340.37,42.701 340.13,42.941 341.51,43.061 341.81,42.941
		342.11,42.941 	"/>
	<path fill-rule="evenodd" clip-rule="evenodd" d="M342.35,41.801h-0.18c-0.58,0.065-1.124,0.338-1.56,0.72l-0.24,0.18l1.74,0.24
		h0.36l0.3,0.12l0.24,0.18l0.24,0.24v0.06l0.18,0.24l0.06,0.36l0.06,0.24l0.06,0.36v4.56l0.12,0.12l0.18,0.06h0.66l0.18-0.06
		l0.12-0.12v-5.1l-0.12-0.6v-0.06l-0.12-0.3c-0.135-0.451-0.646-1.021-1.08-1.2l-0.24-0.12l-0.6-0.12"/>
	<polyline fill-rule="evenodd" clip-rule="evenodd" points="339.47,38.501 339.17,38.501 338.93,38.561 338.87,38.621
		338.81,38.741 338.81,49.241 338.87,49.301 338.93,49.421 339.17,49.481 339.77,49.481 339.95,49.421 340.13,49.241 340.13,44.261
		340.25,44.141 340.43,43.901 340.91,43.421 341.15,43.301 341.21,43.181 341.51,43.061 340.13,42.941 340.13,38.741 340.07,38.621
		339.95,38.561 339.77,38.501 	"/>
	<path fill-rule="evenodd" clip-rule="evenodd" d="M352.79,47.981l-0.3,0.06c-0.618,0.353-1.337,0.478-2.04,0.48l-2.76,0.06l0.3,0.3
		c0.865,0.656,1.953,0.721,3,0.66l0.3-0.06h0.18l0.3-0.06l0.3-0.12l0.24-0.06l0.3-0.12l0.24-0.12l0.06-0.12l0.06-0.06v-0.18
		l0.06-0.18l-0.06-0.24v-0.12l-0.06-0.12"/>
	<path fill-rule="evenodd" clip-rule="evenodd" d="M352.55,42.761l-2.4,0.06h0.36c0.988,0.287,1.362,0.779,1.5,1.8v0.36h-3.84
		l-1.32,0.06l-0.06,0.36c-0.07,0.861,0.225,2.591,0.9,3.18l2.76-0.06h-0.18c-1.405-0.127-2.045-0.84-2.1-2.22v-0.36h4.68l0.3-0.12
		l0.06-0.12l0.06-0.3v-0.96l-0.12-0.6l-0.12-0.24l-0.12-0.3l-0.18-0.24"/>
	<path fill-rule="evenodd" clip-rule="evenodd" d="M350.21,41.801h-0.18c-1.834,0.116-2.819,1.18-3.18,2.94v0.3l1.32-0.06v-0.18
		c0.053-1.127,0.834-1.983,1.98-1.98l2.4-0.06l-0.12-0.18c-0.465-0.343-0.982-0.659-1.56-0.72l-0.3-0.06"/>
	<path fill-rule="evenodd" clip-rule="evenodd" d="M360.77,47.981l-0.3,0.06c-0.618,0.353-1.337,0.478-2.04,0.48l-2.76,0.06l0.3,0.3
		c0.865,0.656,1.953,0.721,3,0.66l0.3-0.06h0.18l0.3-0.06l0.3-0.12l0.24-0.06l0.3-0.12l0.24-0.12l0.06-0.12l0.06-0.06v-0.18
		l0.06-0.18l-0.06-0.24v-0.12l-0.06-0.12"/>
	<path fill-rule="evenodd" clip-rule="evenodd" d="M360.53,42.761l-2.4,0.06h0.36c0.988,0.287,1.362,0.779,1.5,1.8v0.36h-3.84
		l-1.32,0.06l-0.06,0.36c-0.07,0.861,0.225,2.591,0.9,3.18l2.76-0.06h-0.18c-1.405-0.127-2.045-0.84-2.1-2.22v-0.36h4.68l0.3-0.12
		l0.06-0.12l0.06-0.3v-0.96l-0.12-0.6l-0.12-0.24l-0.12-0.3l-0.18-0.24"/>
	<path fill-rule="evenodd" clip-rule="evenodd" d="M358.19,41.801h-0.18c-1.834,0.116-2.819,1.18-3.18,2.94v0.3l1.32-0.06v-0.18
		c0.053-1.127,0.834-1.983,1.98-1.98l2.4-0.06l-0.12-0.18c-0.465-0.343-0.982-0.659-1.56-0.72l-0.3-0.06"/>
	<polyline fill-rule="evenodd" clip-rule="evenodd" points="364.61,49.241 364.43,49.421 364.25,49.481 363.65,49.481
		363.41,49.421 363.35,49.301 363.29,49.241 363.29,38.741 363.35,38.621 363.41,38.561 363.65,38.501 364.25,38.501 364.43,38.561
		364.55,38.621 364.61,38.741 364.61,49.241 	"/>
	<polyline fill-rule="evenodd" clip-rule="evenodd" points="373.19,48.281 371.75,48.341 371.87,48.461 373.97,48.461
		373.79,48.461 373.49,48.401 	"/>
	<polyline fill-rule="evenodd" clip-rule="evenodd" points="372.17,42.761 371.93,42.941 373.49,43.001 373.67,42.941
		374.03,42.941 	"/>
	<path fill-rule="evenodd" clip-rule="evenodd" d="M374.27,41.801h-0.3l-0.6,0.12l-0.3,0.12v0.06l-0.3,0.12l-0.24,0.18l-0.36,0.36
		l1.86,0.18h0.24c0.975,0.138,1.468,1.279,1.44,2.16l0.06,0.3v0.36c-0.013,0.905-0.339,2.571-1.5,2.64l-0.3,0.06h-2.1l0.24,0.24
		l0.24,0.18v0.06l0.3,0.18c4.611,2.584,6.196-6.127,2.28-7.26l-0.36-0.06"/>
	<path fill-rule="evenodd" clip-rule="evenodd" d="M371.27,38.501h-0.3l-0.24,0.06l-0.06,0.06l-0.06,0.12v10.62l0.12,0.06l0.18,0.06
		h0.54l0.18-0.06l0.12-0.06v-1.02l1.44-0.06l-0.24-0.18l-0.12-0.06l-0.24-0.18l-0.24-0.24l-0.18-0.24l-0.24-0.24v-2.82l0.12-0.24
		c0.375-0.389,0.512-0.526,0.96-0.84l0.24-0.12l0.24-0.12l-1.56-0.06v-4.2l-0.06-0.12l-0.12-0.06l-0.18-0.06"/>
	<polyline fill-rule="evenodd" clip-rule="evenodd" points="382.67,48.161 382.37,48.341 382.07,48.401 381.77,48.461
		383.63,48.521 383.87,48.281 	"/>
	<path fill-rule="evenodd" clip-rule="evenodd" d="M379.61,41.921h-0.3l-0.18,0.06l-0.12,0.06l-0.06,0.12v4.32l0.06,0.36v0.36
		l0.06,0.3l0.06,0.24v0.12l0.24,0.6l0.18,0.24v0.06l0.24,0.24c0.938,0.809,2.389,0.666,3.36,0l0.48-0.48l-1.86-0.06h-0.06l-0.3-0.06
		l-0.3-0.12l-0.24-0.12l-0.24-0.24v-0.06l-0.18-0.3l-0.18-0.9v-4.62l-0.12-0.06l-0.24-0.06"/>
	<polyline fill-rule="evenodd" clip-rule="evenodd" points="384.41,41.921 384.11,41.921 383.87,41.981 383.81,42.041
		383.75,42.161 383.75,47.081 383.63,47.261 382.97,47.921 382.73,48.101 382.67,48.161 383.87,48.281 383.87,49.241 383.93,49.301
		383.99,49.421 384.17,49.481 384.77,49.481 384.95,49.421 385.01,49.301 385.07,49.241 385.07,42.161 385.01,42.041 384.95,41.981
		384.71,41.921 	"/>
	<polyline fill-rule="evenodd" clip-rule="evenodd" points="390.95,48.221 390.83,48.281 390.65,48.341 390.41,48.401
		390.35,48.401 390.05,48.461 391.13,48.461 391.07,48.341 391.07,48.221 	"/>
	<path fill-rule="evenodd" clip-rule="evenodd" d="M388.43,40.001l-0.3,0.06h-0.24l-0.12,0.24v1.68h-1.08l-0.12,0.12v0.12l-0.06,0.3
		v0.12l0.06,0.24l0.24,0.18h0.96v4.2c-0.031,0.512,0.159,1.472,0.6,1.8l0.24,0.18l0.3,0.18c0.557,0.161,1.924,0.287,2.22-0.36v-0.6
		h-1.08c-0.907-0.038-0.964-0.782-0.96-1.5v-3.9h1.8l0.24-0.24v-0.6l-0.12-0.24h-1.92v-1.68l-0.06-0.12l-0.12-0.12h-0.18"/>
	<polyline fill-rule="evenodd" clip-rule="evenodd" points="396.29,48.221 396.17,48.281 395.99,48.341 395.75,48.401
		395.69,48.401 395.39,48.461 396.47,48.461 396.41,48.341 396.41,48.221 	"/>
	<path fill-rule="evenodd" clip-rule="evenodd" d="M393.77,40.001l-0.3,0.06h-0.24l-0.12,0.24v1.68h-1.08l-0.12,0.12v0.12l-0.06,0.3
		v0.12l0.06,0.24l0.24,0.18h0.96v4.2c-0.031,0.512,0.159,1.472,0.6,1.8l0.24,0.18l0.3,0.18c0.557,0.161,1.924,0.287,2.22-0.36v-0.6
		h-1.08c-0.907-0.038-0.964-0.782-0.96-1.5v-3.9h1.8l0.24-0.24v-0.6l-0.12-0.24h-1.92v-1.68l-0.06-0.12l-0.12-0.12h-0.18"/>
	<path fill-rule="evenodd" clip-rule="evenodd" d="M403.91,42.821l-2.64,0.06h0.12c0.609,0.05,1.247,0.273,1.56,0.84h0.06l0.12,0.3
		c0.671,1.555,0.398,4.589-1.92,4.44l-2.64,0.12h0.06l0.18,0.24c4.137,2.532,7.315-1.536,5.46-5.52l-0.18-0.24"/>
	<path fill-rule="evenodd" clip-rule="evenodd" d="M401.33,41.801h-0.06c-3.468-0.122-4.381,4.086-2.88,6.54l0.18,0.24l2.64-0.12
		h-0.12c-2.771,0.192-2.773-5.859,0.18-5.58l2.64-0.06v-0.06l-0.24-0.18c-0.426-0.458-1.075-0.628-1.68-0.72l-0.3-0.06"/>
	<polyline fill-rule="evenodd" clip-rule="evenodd" points="408.11,42.821 407.87,43.121 409.07,43.181 409.37,43.061
		409.67,42.941 409.97,42.941 	"/>
	<polyline fill-rule="evenodd" clip-rule="evenodd" points="407.27,41.921 406.97,41.921 406.79,41.981 406.67,42.041
		406.67,49.241 406.73,49.301 406.79,49.421 407.03,49.481 407.63,49.481 407.81,49.421 407.99,49.241 407.99,44.261 408.11,44.141
		408.29,43.901 408.77,43.421 409.01,43.301 409.07,43.181 407.87,43.121 407.87,42.161 407.81,42.041 407.75,41.981 407.57,41.921
			"/>
	<path fill-rule="evenodd" clip-rule="evenodd" d="M410.21,41.801h-0.24c-0.62,0.055-1.154,0.389-1.62,0.78l-0.24,0.24l1.86,0.12
		h0.36l0.3,0.12l0.24,0.18l0.24,0.24v0.06l0.18,0.24l0.06,0.36l0.06,0.24l0.06,0.36v4.56l0.12,0.12l0.18,0.06h0.66l0.18-0.06
		l0.12-0.12v-5.1l-0.12-0.6v-0.06l-0.12-0.3c-0.135-0.451-0.646-1.021-1.08-1.2l-0.24-0.12l-0.6-0.12"/>
</g>
</svg>
