<?xml version="1.0" encoding="utf-8"?>
<!-- Generator: Adobe Illustrator 24.1.2, SVG Export Plug-In . SVG Version: 6.00 Build 0)  -->
<svg version="1.0" id="Layer_1" xmlns="http://www.w3.org/2000/svg" xmlns:xlink="http://www.w3.org/1999/xlink" x="0px" y="0px"
	 width="501px" height="193px" viewBox="0 0 501 193" enable-background="new 0 0 501 193" xml:space="preserve">
<g>

		<line fill="none" stroke="#000000" stroke-width="0.72" stroke-linecap="round" stroke-linejoin="round" stroke-miterlimit="10" x1="316.736" y1="41.778" x2="199.196" y2="41.778"/>

		<line fill="none" stroke="#000000" stroke-width="0.72" stroke-linecap="round" stroke-linejoin="round" stroke-miterlimit="10" x1="316.736" y1="105.018" x2="199.196" y2="105.018"/>

		<line fill="none" stroke="#000000" stroke-width="0.72" stroke-linecap="round" stroke-linejoin="round" stroke-miterlimit="10" x1="191.996" y1="10.998" x2="191.996" y2="34.578"/>

		<path fill="none" stroke="#000000" stroke-width="0.72" stroke-linecap="round" stroke-linejoin="bevel" stroke-miterlimit="10" d="
		M192.056,34.578l0.06,1.14c0.628,3.113,2.827,5.312,5.94,5.94l1.14,0.06"/>

		<polyline fill="none" stroke="#000000" stroke-width="0.72" stroke-linecap="round" stroke-linejoin="round" stroke-miterlimit="10" points="
		353.576,46.878 353.576,99.918 316.736,99.918 	"/>

		<line fill="none" stroke="#000000" stroke-width="0.72" stroke-linecap="round" stroke-linejoin="round" stroke-miterlimit="10" x1="316.736" y1="46.878" x2="353.576" y2="46.878"/>

		<line fill="none" stroke="#000000" stroke-width="0.72" stroke-linecap="round" stroke-linejoin="round" stroke-miterlimit="10" x1="316.736" y1="105.018" x2="316.736" y2="99.918"/>

		<line fill="none" stroke="#000000" stroke-width="0.72" stroke-linecap="round" stroke-linejoin="round" stroke-miterlimit="10" x1="316.736" y1="46.878" x2="316.736" y2="41.778"/>

		<line fill="none" stroke="#000000" stroke-width="0.72" stroke-linecap="round" stroke-linejoin="round" stroke-miterlimit="10" x1="183.056" y1="2.058" x2="38.516" y2="2.058"/>

		<path fill="none" stroke="#000000" stroke-width="0.72" stroke-linecap="round" stroke-linejoin="bevel" stroke-miterlimit="10" d="
		M191.936,10.998l-0.06-1.14c-0.531-3.985-3.695-7.149-7.68-7.68l-1.14-0.06"/>

		<line fill="none" stroke="#000000" stroke-width="0.72" stroke-linecap="round" stroke-linejoin="round" stroke-miterlimit="10" x1="183.056" y1="144.738" x2="38.516" y2="144.738"/>

		<path fill="none" stroke="#000000" stroke-width="0.72" stroke-linecap="round" stroke-linejoin="bevel" stroke-miterlimit="10" d="
		M183.056,144.678l1.14-0.06c3.985-0.531,7.149-3.695,7.68-7.68l0.06-1.14"/>

		<line fill="none" stroke="#000000" stroke-width="0.72" stroke-linecap="round" stroke-linejoin="round" stroke-miterlimit="10" x1="29.576" y1="10.998" x2="29.576" y2="135.798"/>

		<path fill="none" stroke="#000000" stroke-width="0.72" stroke-linecap="round" stroke-linejoin="bevel" stroke-miterlimit="10" d="
		M29.636,135.798l0.06,1.14c0.531,3.985,3.695,7.149,7.68,7.68l1.14,0.06"/>

		<path fill="none" stroke="#000000" stroke-width="0.72" stroke-linecap="round" stroke-linejoin="bevel" stroke-miterlimit="10" d="
		M38.516,2.118l-1.14,0.06c-3.985,0.53-7.149,3.695-7.68,7.68l-0.06,1.14"/>

		<line fill="none" stroke="#000000" stroke-width="0.72" stroke-linecap="round" stroke-linejoin="round" stroke-miterlimit="10" x1="191.996" y1="112.218" x2="191.996" y2="135.798"/>

		<path fill="none" stroke="#000000" stroke-width="0.72" stroke-linecap="round" stroke-linejoin="bevel" stroke-miterlimit="10" d="
		M199.196,105.078l-1.14,0.06c-3.112,0.628-5.312,2.828-5.94,5.94l-0.06,1.14"/>

		<rect x="84.596" y="99.138" fill="none" stroke="#000000" stroke-width="0.24" stroke-linecap="round" stroke-linejoin="round" stroke-miterlimit="10" width="72" height="28.8"/>

		<rect x="144.536" y="37.878" fill="none" stroke="#000000" stroke-width="0.24" stroke-linecap="round" stroke-linejoin="round" stroke-miterlimit="10" width="13.26" height="14.4"/>

		<rect x="128.996" y="37.878" fill="none" stroke="#000000" stroke-width="0.24" stroke-linecap="round" stroke-linejoin="round" stroke-miterlimit="10" width="13.26" height="14.4"/>

		<line fill="none" stroke="#000000" stroke-width="0.24" stroke-linecap="round" stroke-linejoin="round" stroke-miterlimit="10" x1="144.536" y1="37.878" x2="142.256" y2="37.878"/>

		<line fill="none" stroke="#000000" stroke-width="0.24" stroke-linecap="round" stroke-linejoin="round" stroke-miterlimit="10" x1="144.536" y1="52.278" x2="142.256" y2="52.278"/>

		<line fill="none" stroke="#000000" stroke-width="0.24" stroke-linecap="round" stroke-linejoin="round" stroke-miterlimit="10" x1="152.276" y1="37.878" x2="152.276" y2="6.198"/>

		<polyline fill="none" stroke="#000000" stroke-width="0.24" stroke-linecap="round" stroke-linejoin="round" stroke-miterlimit="10" points="
		148.916,37.878 148.916,6.198 152.276,6.198 	"/>

		<polyline fill="none" stroke="#000000" stroke-width="0.24" stroke-linecap="round" stroke-linejoin="round" stroke-miterlimit="10" points="
		149.756,5.358 151.436,5.358 152.276,6.198 	"/>

		<line fill="none" stroke="#000000" stroke-width="0.24" stroke-linecap="round" stroke-linejoin="round" stroke-miterlimit="10" x1="149.756" y1="5.358" x2="148.916" y2="6.198"/>

		<line fill="none" stroke="#000000" stroke-width="0.24" stroke-linecap="round" stroke-linejoin="round" stroke-miterlimit="10" x1="137.876" y1="37.878" x2="137.876" y2="6.198"/>

		<polyline fill="none" stroke="#000000" stroke-width="0.24" stroke-linecap="round" stroke-linejoin="round" stroke-miterlimit="10" points="
		134.516,37.878 134.516,6.198 137.876,6.198 	"/>

		<polyline fill="none" stroke="#000000" stroke-width="0.24" stroke-linecap="round" stroke-linejoin="round" stroke-miterlimit="10" points="
		135.356,5.358 137.036,5.358 137.876,6.198 	"/>

		<line fill="none" stroke="#000000" stroke-width="0.24" stroke-linecap="round" stroke-linejoin="round" stroke-miterlimit="10" x1="135.356" y1="5.358" x2="134.516" y2="6.198"/>

		<line fill="none" stroke="#000000" stroke-width="0.24" stroke-linecap="round" stroke-linejoin="round" stroke-miterlimit="10" x1="152.276" y1="52.278" x2="152.276" y2="75.378"/>

		<line fill="none" stroke="#000000" stroke-width="0.24" stroke-linecap="round" stroke-linejoin="round" stroke-miterlimit="10" x1="148.916" y1="52.278" x2="148.916" y2="75.378"/>

		<line fill="none" stroke="#000000" stroke-width="0.24" stroke-linecap="round" stroke-linejoin="round" stroke-miterlimit="10" x1="152.276" y1="56.598" x2="148.916" y2="56.598"/>

		<line fill="none" stroke="#000000" stroke-width="0.24" stroke-linecap="round" stroke-linejoin="round" stroke-miterlimit="10" x1="152.276" y1="67.938" x2="148.916" y2="67.938"/>

		<line fill="none" stroke="#000000" stroke-width="0.24" stroke-linecap="round" stroke-linejoin="round" stroke-miterlimit="10" x1="152.276" y1="75.378" x2="148.916" y2="75.378"/>

		<polyline fill="none" stroke="#000000" stroke-width="0.24" stroke-linecap="round" stroke-linejoin="round" stroke-miterlimit="10" points="
		149.756,76.218 151.436,76.218 152.276,75.378 	"/>

		<line fill="none" stroke="#000000" stroke-width="0.24" stroke-linecap="round" stroke-linejoin="round" stroke-miterlimit="10" x1="149.756" y1="76.218" x2="148.916" y2="75.378"/>

		<line fill="none" stroke="#000000" stroke-width="0.24" stroke-linecap="round" stroke-linejoin="round" stroke-miterlimit="10" x1="137.876" y1="52.278" x2="137.876" y2="75.378"/>

		<line fill="none" stroke="#000000" stroke-width="0.24" stroke-linecap="round" stroke-linejoin="round" stroke-miterlimit="10" x1="134.456" y1="52.278" x2="134.456" y2="75.378"/>

		<line fill="none" stroke="#000000" stroke-width="0.24" stroke-linecap="round" stroke-linejoin="round" stroke-miterlimit="10" x1="137.876" y1="56.598" x2="134.456" y2="56.598"/>

		<line fill="none" stroke="#000000" stroke-width="0.24" stroke-linecap="round" stroke-linejoin="round" stroke-miterlimit="10" x1="137.876" y1="67.938" x2="134.456" y2="67.938"/>

		<line fill="none" stroke="#000000" stroke-width="0.24" stroke-linecap="round" stroke-linejoin="round" stroke-miterlimit="10" x1="137.876" y1="75.378" x2="134.456" y2="75.378"/>

		<polyline fill="none" stroke="#000000" stroke-width="0.24" stroke-linecap="round" stroke-linejoin="round" stroke-miterlimit="10" points="
		135.296,76.218 136.976,76.218 137.876,75.378 	"/>

		<line fill="none" stroke="#000000" stroke-width="0.24" stroke-linecap="round" stroke-linejoin="round" stroke-miterlimit="10" x1="135.296" y1="76.218" x2="134.456" y2="75.378"/>
	<polyline fill-rule="evenodd" clip-rule="evenodd" points="146.576,23.118 145.856,22.338 141.176,22.338 141.176,20.958
		141.116,20.898 140.996,20.838 140.696,20.838 140.576,20.898 140.516,20.958 140.516,24.318 140.576,24.378 140.696,24.378
		140.816,24.438 140.996,24.438 141.116,24.378 141.176,24.318 141.176,23.118 	"/>
	<polyline fill-rule="evenodd" clip-rule="evenodd" points="146.756,22.758 146.756,22.578 146.696,22.518 146.696,22.398
		145.736,20.958 145.736,20.898 145.616,20.838 145.196,20.838 145.136,20.898 145.076,20.958 145.136,21.138 145.856,22.338
		146.576,23.118 146.636,23.118 146.696,23.058 146.696,22.938 	"/>
	<path fill-rule="evenodd" clip-rule="evenodd" d="M145.076,58.638v-1.44v0.06c0.176,1.142-1.401,1.357-1.8,0.54l-0.06-0.12h-0.06
		v-0.18l-0.06-0.12v-0.78l-0.06,1.92l0.18,0.18l0.18,0.06l0.12,0.06l0.06,0.06l0.12,0.06h0.3l0.18,0.06l0.06-0.06h0.3l0.18-0.06
		l0.12-0.06l0.12-0.06"/>
	<polyline fill-rule="evenodd" clip-rule="evenodd" points="145.616,57.258 145.616,56.178 145.556,55.998 145.496,55.938
		140.756,55.938 140.696,55.998 140.696,56.538 140.756,56.598 142.556,56.598 142.556,57.378 142.616,57.498 142.616,57.678
		142.676,57.798 142.676,57.978 142.736,58.098 142.856,58.278 142.916,58.398 143.036,58.518 143.096,56.598 145.076,56.598
		145.076,58.638 145.196,58.578 145.316,58.458 145.436,58.218 145.496,58.038 145.556,57.918 145.556,57.858 145.616,57.678
		145.616,57.438 	"/>
	<path fill-rule="evenodd" clip-rule="evenodd" d="M145.196,59.838h-0.42l-0.06,0.06v0.06l0.12,0.24
		c0.097,0.193,0.278,0.355,0.24,0.6l0.06,0.12v0.18"/>
	<path fill-rule="evenodd" clip-rule="evenodd" d="M145.736,61.158l-0.06-0.12c0.001-0.422-0.13-0.866-0.42-1.2h-0.06l-0.06,1.26
		v0.06l-0.06,0.18v0.12l-0.12,0.12l-0.06,0.12l-0.12,0.12l-0.12,0.06h-0.06l-0.12,0.06h-0.36l-0.12-0.06h-0.12l-0.18-0.06
		l-0.24-0.12l-0.12-0.06l-0.18-0.12l-0.12-0.12l-0.12-0.06l-0.48-0.48l-1.02-0.96l-0.12-0.06l-0.06-0.06l-0.12-0.06h-0.12
		l-0.18,0.06h-0.06l-0.06,0.06v2.88l0.06,0.06l0.12,0.06h0.24l0.06-0.06l0.06-0.06v-2.22l0.9,0.9c0.364,0.353,1.296,1.105,1.8,1.14
		l0.18,0.06h0.18c0.688,0.045,1.157-0.331,1.38-0.96v-0.3"/>

		<rect x="113.276" y="37.878" fill="none" stroke="#000000" stroke-width="0.24" stroke-linecap="round" stroke-linejoin="round" stroke-miterlimit="10" width="13.32" height="14.4"/>

		<rect x="97.796" y="37.878" fill="none" stroke="#000000" stroke-width="0.24" stroke-linecap="round" stroke-linejoin="round" stroke-miterlimit="10" width="13.26" height="14.4"/>

		<line fill="none" stroke="#000000" stroke-width="0.24" stroke-linecap="round" stroke-linejoin="round" stroke-miterlimit="10" x1="113.276" y1="37.878" x2="111.056" y2="37.878"/>

		<line fill="none" stroke="#000000" stroke-width="0.24" stroke-linecap="round" stroke-linejoin="round" stroke-miterlimit="10" x1="113.276" y1="52.278" x2="111.056" y2="52.278"/>

		<line fill="none" stroke="#000000" stroke-width="0.24" stroke-linecap="round" stroke-linejoin="round" stroke-miterlimit="10" x1="121.076" y1="37.878" x2="121.076" y2="6.198"/>

		<polyline fill="none" stroke="#000000" stroke-width="0.24" stroke-linecap="round" stroke-linejoin="round" stroke-miterlimit="10" points="
		117.656,37.878 117.656,6.198 121.076,6.198 	"/>

		<polyline fill="none" stroke="#000000" stroke-width="0.24" stroke-linecap="round" stroke-linejoin="round" stroke-miterlimit="10" points="
		118.496,5.358 120.236,5.358 121.076,6.198 	"/>

		<line fill="none" stroke="#000000" stroke-width="0.24" stroke-linecap="round" stroke-linejoin="round" stroke-miterlimit="10" x1="118.496" y1="5.358" x2="117.656" y2="6.198"/>

		<line fill="none" stroke="#000000" stroke-width="0.24" stroke-linecap="round" stroke-linejoin="round" stroke-miterlimit="10" x1="106.676" y1="37.878" x2="106.676" y2="6.198"/>

		<polyline fill="none" stroke="#000000" stroke-width="0.24" stroke-linecap="round" stroke-linejoin="round" stroke-miterlimit="10" points="
		103.256,37.878 103.256,6.198 106.676,6.198 	"/>

		<polyline fill="none" stroke="#000000" stroke-width="0.24" stroke-linecap="round" stroke-linejoin="round" stroke-miterlimit="10" points="
		104.096,5.358 105.836,5.358 106.676,6.198 	"/>

		<line fill="none" stroke="#000000" stroke-width="0.24" stroke-linecap="round" stroke-linejoin="round" stroke-miterlimit="10" x1="104.096" y1="5.358" x2="103.256" y2="6.198"/>

		<line fill="none" stroke="#000000" stroke-width="0.24" stroke-linecap="round" stroke-linejoin="round" stroke-miterlimit="10" x1="121.076" y1="52.278" x2="121.076" y2="75.378"/>

		<line fill="none" stroke="#000000" stroke-width="0.24" stroke-linecap="round" stroke-linejoin="round" stroke-miterlimit="10" x1="117.656" y1="52.278" x2="117.656" y2="75.378"/>

		<line fill="none" stroke="#000000" stroke-width="0.24" stroke-linecap="round" stroke-linejoin="round" stroke-miterlimit="10" x1="121.076" y1="56.598" x2="117.656" y2="56.598"/>

		<line fill="none" stroke="#000000" stroke-width="0.24" stroke-linecap="round" stroke-linejoin="round" stroke-miterlimit="10" x1="121.076" y1="67.938" x2="117.656" y2="67.938"/>

		<line fill="none" stroke="#000000" stroke-width="0.24" stroke-linecap="round" stroke-linejoin="round" stroke-miterlimit="10" x1="121.076" y1="75.378" x2="117.656" y2="75.378"/>

		<polyline fill="none" stroke="#000000" stroke-width="0.24" stroke-linecap="round" stroke-linejoin="round" stroke-miterlimit="10" points="
		118.496,76.218 120.236,76.218 121.076,75.378 	"/>

		<line fill="none" stroke="#000000" stroke-width="0.24" stroke-linecap="round" stroke-linejoin="round" stroke-miterlimit="10" x1="118.496" y1="76.218" x2="117.656" y2="75.378"/>

		<line fill="none" stroke="#000000" stroke-width="0.24" stroke-linecap="round" stroke-linejoin="round" stroke-miterlimit="10" x1="106.616" y1="52.278" x2="106.616" y2="75.378"/>

		<line fill="none" stroke="#000000" stroke-width="0.24" stroke-linecap="round" stroke-linejoin="round" stroke-miterlimit="10" x1="103.256" y1="52.278" x2="103.256" y2="75.378"/>

		<line fill="none" stroke="#000000" stroke-width="0.24" stroke-linecap="round" stroke-linejoin="round" stroke-miterlimit="10" x1="106.616" y1="56.598" x2="103.256" y2="56.598"/>

		<line fill="none" stroke="#000000" stroke-width="0.24" stroke-linecap="round" stroke-linejoin="round" stroke-miterlimit="10" x1="106.616" y1="67.938" x2="103.256" y2="67.938"/>

		<line fill="none" stroke="#000000" stroke-width="0.24" stroke-linecap="round" stroke-linejoin="round" stroke-miterlimit="10" x1="106.616" y1="75.378" x2="103.256" y2="75.378"/>

		<polyline fill="none" stroke="#000000" stroke-width="0.24" stroke-linecap="round" stroke-linejoin="round" stroke-miterlimit="10" points="
		104.096,76.218 105.776,76.218 106.616,75.378 	"/>

		<line fill="none" stroke="#000000" stroke-width="0.24" stroke-linecap="round" stroke-linejoin="round" stroke-miterlimit="10" x1="104.096" y1="76.218" x2="103.256" y2="75.378"/>
	<path fill-rule="evenodd" clip-rule="evenodd" d="M114.836,20.838h-0.36l-0.12,0.06h-0.06v0.06c0.092,0.388,0.531,0.814,0.48,1.26
		v0.18"/>
	<path fill-rule="evenodd" clip-rule="evenodd" d="M115.496,22.518v-0.12c-0.011-0.498-0.181-1.133-0.54-1.5l-0.12-0.06l-0.06,1.56
		v0.3l-0.06,0.18l-0.12,0.18l-0.24,0.24l-0.18,0.12l-0.18,0.06h-0.48l-0.18-0.06l-0.12-0.06l-0.18-0.06l-0.24-0.06l-0.12-0.06
		l-0.12-0.12l-0.36-0.24h-0.06c-0.294-0.33-0.398-0.291-0.72-0.66l-1.26-1.26l-0.12-0.06l-0.24-0.12h-0.36l-0.12,0.06l-0.06,0.12
		v3.6l0.12,0.06c0.367-0.042,0.5,0.125,0.6-0.18v-2.64l1.02,0.96c1.183,1.306,3.765,2.789,4.5,0.24v-0.18"/>
	<path fill-rule="evenodd" clip-rule="evenodd" d="M113.876,58.638v-1.44v0.06c0.177,1.14-1.399,1.358-1.8,0.54l-0.06-0.12h-0.06
		v-0.18l-0.06-0.12v-0.78l-0.06,1.92l0.18,0.18l0.18,0.06l0.12,0.06l0.06,0.06l0.12,0.06h0.3l0.18,0.06l0.06-0.06h0.3l0.18-0.06
		l0.12-0.06l0.12-0.06"/>
	<polyline fill-rule="evenodd" clip-rule="evenodd" points="114.416,57.258 114.416,56.178 114.356,55.998 114.296,55.938
		109.556,55.938 109.496,55.998 109.496,56.538 109.556,56.598 111.356,56.598 111.356,57.378 111.416,57.498 111.416,57.678
		111.476,57.798 111.476,57.978 111.536,58.098 111.656,58.278 111.716,58.398 111.836,58.518 111.896,56.598 113.876,56.598
		113.876,58.638 113.996,58.578 114.116,58.458 114.236,58.218 114.296,58.038 114.356,57.918 114.356,57.858 114.416,57.678
		114.416,57.438 	"/>
	<path fill-rule="evenodd" clip-rule="evenodd" d="M110.336,59.778l-0.06-0.06h-0.48l-0.06,0.06l-0.12,0.24l-0.06,0.18v0.06
		l-0.06,0.18l-0.06,0.12v0.18c-0.008,1.068-0.042,0.548,0.3,1.5l0.18,0.18l0.06-1.38c-0.038-0.286,0.095-0.714,0.24-0.96l0.06-0.12"
		/>
	<polyline fill-rule="evenodd" clip-rule="evenodd" points="113.996,59.838 113.576,59.838 113.576,59.898 113.516,59.958
		113.636,60.078 113.696,60.138 113.756,60.318 113.756,60.378 113.936,60.738 113.936,61.038 	"/>
	<path fill-rule="evenodd" clip-rule="evenodd" d="M114.536,61.158l-0.06-0.12v-0.3l-0.06-0.12v-0.12l-0.06-0.18l-0.12-0.24
		l-0.06-0.06l-0.06-0.12h-0.06l-0.06-0.06l-0.06,1.2v0.36l-0.12,0.12l-0.06,0.12l-0.12,0.12l-0.12,0.06h-0.18l-0.12,0.06h-0.06
		l-0.18-0.06l-0.12-0.06c-0.451-0.063-0.49-0.631-0.6-0.96v-0.54l-0.12-0.06h-0.24l-0.12,0.12v0.78l-0.06,0.12v0.18l-0.18,0.36
		l-0.3,0.3h-0.06l-0.18,0.06h-0.36l-0.12-0.06h-0.06l-0.24-0.24h-0.06l-0.06-0.12l-0.06-0.18l-0.06-0.12v-0.36l-0.06,1.38
		c0.787,0.655,1.825,0.477,2.16-0.6v-0.18l0.06,0.12l0.06,0.12c0.141,0.315,0.193,0.437,0.54,0.54l0.24,0.12
		c0.359-0.026,0.646,0.081,0.96-0.12l0.12-0.12l0.12-0.06v-0.06l0.12-0.12l0.06-0.12l0.06-0.18l0.06-0.12v-0.3"/>

		<rect x="82.136" y="37.878" fill="none" stroke="#000000" stroke-width="0.24" stroke-linecap="round" stroke-linejoin="round" stroke-miterlimit="10" width="13.26" height="14.4"/>

		<rect x="66.596" y="37.878" fill="none" stroke="#000000" stroke-width="0.24" stroke-linecap="round" stroke-linejoin="round" stroke-miterlimit="10" width="13.26" height="14.4"/>

		<line fill="none" stroke="#000000" stroke-width="0.24" stroke-linecap="round" stroke-linejoin="round" stroke-miterlimit="10" x1="82.136" y1="37.878" x2="79.856" y2="37.878"/>

		<line fill="none" stroke="#000000" stroke-width="0.24" stroke-linecap="round" stroke-linejoin="round" stroke-miterlimit="10" x1="82.136" y1="52.278" x2="79.856" y2="52.278"/>

		<line fill="none" stroke="#000000" stroke-width="0.24" stroke-linecap="round" stroke-linejoin="round" stroke-miterlimit="10" x1="89.876" y1="37.878" x2="89.876" y2="6.198"/>

		<polyline fill="none" stroke="#000000" stroke-width="0.24" stroke-linecap="round" stroke-linejoin="round" stroke-miterlimit="10" points="
		86.516,37.878 86.516,6.198 89.876,6.198 	"/>

		<polyline fill="none" stroke="#000000" stroke-width="0.24" stroke-linecap="round" stroke-linejoin="round" stroke-miterlimit="10" points="
		87.356,5.358 89.036,5.358 89.876,6.198 	"/>

		<line fill="none" stroke="#000000" stroke-width="0.24" stroke-linecap="round" stroke-linejoin="round" stroke-miterlimit="10" x1="87.356" y1="5.358" x2="86.516" y2="6.198"/>

		<line fill="none" stroke="#000000" stroke-width="0.24" stroke-linecap="round" stroke-linejoin="round" stroke-miterlimit="10" x1="75.476" y1="37.878" x2="75.476" y2="6.198"/>

		<polyline fill="none" stroke="#000000" stroke-width="0.24" stroke-linecap="round" stroke-linejoin="round" stroke-miterlimit="10" points="
		72.116,37.878 72.116,6.198 75.476,6.198 	"/>

		<polyline fill="none" stroke="#000000" stroke-width="0.24" stroke-linecap="round" stroke-linejoin="round" stroke-miterlimit="10" points="
		72.956,5.358 74.636,5.358 75.476,6.198 	"/>

		<line fill="none" stroke="#000000" stroke-width="0.24" stroke-linecap="round" stroke-linejoin="round" stroke-miterlimit="10" x1="72.956" y1="5.358" x2="72.116" y2="6.198"/>

		<line fill="none" stroke="#000000" stroke-width="0.24" stroke-linecap="round" stroke-linejoin="round" stroke-miterlimit="10" x1="89.876" y1="52.278" x2="89.876" y2="75.378"/>

		<line fill="none" stroke="#000000" stroke-width="0.24" stroke-linecap="round" stroke-linejoin="round" stroke-miterlimit="10" x1="86.516" y1="52.278" x2="86.516" y2="75.378"/>

		<line fill="none" stroke="#000000" stroke-width="0.24" stroke-linecap="round" stroke-linejoin="round" stroke-miterlimit="10" x1="89.876" y1="56.598" x2="86.516" y2="56.598"/>

		<line fill="none" stroke="#000000" stroke-width="0.24" stroke-linecap="round" stroke-linejoin="round" stroke-miterlimit="10" x1="89.876" y1="67.938" x2="86.516" y2="67.938"/>

		<line fill="none" stroke="#000000" stroke-width="0.24" stroke-linecap="round" stroke-linejoin="round" stroke-miterlimit="10" x1="89.876" y1="75.378" x2="86.516" y2="75.378"/>

		<polyline fill="none" stroke="#000000" stroke-width="0.24" stroke-linecap="round" stroke-linejoin="round" stroke-miterlimit="10" points="
		87.356,76.218 89.036,76.218 89.876,75.378 	"/>

		<line fill="none" stroke="#000000" stroke-width="0.24" stroke-linecap="round" stroke-linejoin="round" stroke-miterlimit="10" x1="87.356" y1="76.218" x2="86.516" y2="75.378"/>

		<line fill="none" stroke="#000000" stroke-width="0.24" stroke-linecap="round" stroke-linejoin="round" stroke-miterlimit="10" x1="75.476" y1="52.278" x2="75.476" y2="75.378"/>

		<line fill="none" stroke="#000000" stroke-width="0.24" stroke-linecap="round" stroke-linejoin="round" stroke-miterlimit="10" x1="72.056" y1="52.278" x2="72.056" y2="75.378"/>

		<line fill="none" stroke="#000000" stroke-width="0.24" stroke-linecap="round" stroke-linejoin="round" stroke-miterlimit="10" x1="75.476" y1="56.598" x2="72.056" y2="56.598"/>

		<line fill="none" stroke="#000000" stroke-width="0.24" stroke-linecap="round" stroke-linejoin="round" stroke-miterlimit="10" x1="75.476" y1="67.938" x2="72.056" y2="67.938"/>

		<line fill="none" stroke="#000000" stroke-width="0.24" stroke-linecap="round" stroke-linejoin="round" stroke-miterlimit="10" x1="75.476" y1="75.378" x2="72.056" y2="75.378"/>

		<polyline fill="none" stroke="#000000" stroke-width="0.24" stroke-linecap="round" stroke-linejoin="round" stroke-miterlimit="10" points="
		72.896,76.218 74.576,76.218 75.476,75.378 	"/>

		<line fill="none" stroke="#000000" stroke-width="0.24" stroke-linecap="round" stroke-linejoin="round" stroke-miterlimit="10" x1="72.896" y1="76.218" x2="72.056" y2="75.378"/>
	<path fill-rule="evenodd" clip-rule="evenodd" d="M79.196,20.838l-0.06-0.06h-0.06l-0.18-0.06h-0.18l-0.12,0.06h-0.06l-0.12,0.06
		l-0.12,0.36l-0.12,0.18v0.06l-0.06,0.18l-0.06,0.24v0.18c-0.078,0.62,0.009,1.309,0.36,1.86l0.24,0.24l0.06-1.68
		c-0.05-0.613,0.144-0.655,0.3-1.26l0.12-0.18"/>
	<polyline fill-rule="evenodd" clip-rule="evenodd" points="83.756,20.898 83.336,20.898 83.216,20.958 83.156,21.018
		83.276,21.198 83.336,21.318 83.456,21.498 83.456,21.558 83.516,21.738 83.636,21.918 83.636,22.038 83.696,22.218 83.696,22.398
			"/>
	<path fill-rule="evenodd" clip-rule="evenodd" d="M84.356,22.578v-0.18c-0.027-0.477-0.192-1.089-0.54-1.44l-0.06-0.06l-0.06,1.5
		v0.12c0.016,0.754-0.788,1.069-1.44,0.84l-0.06-0.06l-0.12-0.06l-0.24-0.24l-0.06-0.18l-0.12-0.18v-0.18l-0.06-0.18v-0.78
		l-0.06-0.06l-0.12-0.06h-0.3l-0.12,0.06v0.06l-0.06,0.06c-0.006,0.771,0.135,1.636-0.66,2.1l-0.06,0.06h-0.24l-0.18,0.06h-0.06
		l-0.36-0.12h-0.06l-0.18-0.12l-0.12-0.12l-0.06-0.06l-0.12-0.18l-0.06-0.18l-0.06-0.12v-0.42l-0.06,1.68
		c0.895,0.847,2.471,0.533,2.64-0.78l0.06-0.18l0.06,0.12l0.06,0.18c0.17,0.578,0.837,0.827,1.38,0.84h0.24
		c0.576-0.111,1.168-0.524,1.2-1.14l0.06-0.18v-0.18"/>
	<path fill-rule="evenodd" clip-rule="evenodd" d="M82.736,58.638v-1.44v0.06c0.177,1.14-1.399,1.358-1.8,0.54l-0.06-0.12h-0.06
		v-0.18l-0.06-0.12v-0.78l-0.06,1.92l0.06,0.06l0.12,0.12l0.18,0.06l0.12,0.06l0.06,0.06l0.12,0.06h0.3l0.18,0.06l0.06-0.06h0.3
		l0.18-0.06l0.24-0.12"/>
	<polyline fill-rule="evenodd" clip-rule="evenodd" points="83.276,57.258 83.276,56.178 83.216,55.998 83.156,55.938
		78.416,55.938 78.356,55.998 78.356,56.538 78.416,56.598 80.216,56.598 80.216,57.378 80.276,57.498 80.276,57.678 80.336,57.798
		80.336,57.978 80.396,58.098 80.516,58.278 80.576,58.398 80.696,58.518 80.756,56.598 82.736,56.598 82.736,58.638 82.856,58.578
		82.976,58.458 83.096,58.218 83.156,58.038 83.216,57.918 83.216,57.858 83.276,57.678 83.276,57.438 	"/>
	<polyline fill-rule="evenodd" clip-rule="evenodd" points="83.156,62.358 82.736,61.698 80.036,61.698 80.036,60.078
		80.036,62.358 	"/>
	<polyline fill-rule="evenodd" clip-rule="evenodd" points="83.336,61.818 83.336,61.638 83.276,61.518 83.276,61.398
		83.216,61.338 80.216,59.598 80.096,59.538 80.036,59.478 79.616,59.478 79.496,59.598 79.496,61.698 78.416,61.698 78.356,61.758
		78.356,62.238 78.476,62.358 79.496,62.358 79.496,62.898 79.556,63.018 79.976,63.018 80.036,62.898 80.036,60.078 82.736,61.638
		82.736,61.698 83.156,62.358 83.276,62.238 83.336,62.058 83.336,61.998 	"/>

		<rect x="50.936" y="37.878" fill="none" stroke="#000000" stroke-width="0.24" stroke-linecap="round" stroke-linejoin="round" stroke-miterlimit="10" width="13.26" height="14.4"/>

		<rect x="35.396" y="37.878" fill="none" stroke="#000000" stroke-width="0.24" stroke-linecap="round" stroke-linejoin="round" stroke-miterlimit="10" width="13.26" height="14.4"/>

		<line fill="none" stroke="#000000" stroke-width="0.24" stroke-linecap="round" stroke-linejoin="round" stroke-miterlimit="10" x1="50.936" y1="37.878" x2="48.656" y2="37.878"/>

		<line fill="none" stroke="#000000" stroke-width="0.24" stroke-linecap="round" stroke-linejoin="round" stroke-miterlimit="10" x1="50.936" y1="52.278" x2="48.656" y2="52.278"/>

		<line fill="none" stroke="#000000" stroke-width="0.24" stroke-linecap="round" stroke-linejoin="round" stroke-miterlimit="10" x1="58.736" y1="37.878" x2="58.736" y2="6.198"/>

		<polyline fill="none" stroke="#000000" stroke-width="0.24" stroke-linecap="round" stroke-linejoin="round" stroke-miterlimit="10" points="
		55.316,37.878 55.316,6.198 58.736,6.198 	"/>

		<polyline fill="none" stroke="#000000" stroke-width="0.24" stroke-linecap="round" stroke-linejoin="round" stroke-miterlimit="10" points="
		56.156,5.358 57.836,5.358 58.736,6.198 	"/>

		<line fill="none" stroke="#000000" stroke-width="0.24" stroke-linecap="round" stroke-linejoin="round" stroke-miterlimit="10" x1="56.156" y1="5.358" x2="55.316" y2="6.198"/>

		<line fill="none" stroke="#000000" stroke-width="0.24" stroke-linecap="round" stroke-linejoin="round" stroke-miterlimit="10" x1="44.336" y1="37.878" x2="44.336" y2="6.198"/>

		<polyline fill="none" stroke="#000000" stroke-width="0.24" stroke-linecap="round" stroke-linejoin="round" stroke-miterlimit="10" points="
		40.916,37.878 40.916,6.198 44.336,6.198 	"/>

		<polyline fill="none" stroke="#000000" stroke-width="0.24" stroke-linecap="round" stroke-linejoin="round" stroke-miterlimit="10" points="
		41.756,5.358 43.496,5.358 44.336,6.198 	"/>

		<line fill="none" stroke="#000000" stroke-width="0.24" stroke-linecap="round" stroke-linejoin="round" stroke-miterlimit="10" x1="41.756" y1="5.358" x2="40.916" y2="6.198"/>

		<line fill="none" stroke="#000000" stroke-width="0.24" stroke-linecap="round" stroke-linejoin="round" stroke-miterlimit="10" x1="58.736" y1="52.278" x2="58.736" y2="75.378"/>

		<line fill="none" stroke="#000000" stroke-width="0.24" stroke-linecap="round" stroke-linejoin="round" stroke-miterlimit="10" x1="55.316" y1="52.278" x2="55.316" y2="75.378"/>

		<line fill="none" stroke="#000000" stroke-width="0.24" stroke-linecap="round" stroke-linejoin="round" stroke-miterlimit="10" x1="58.736" y1="56.598" x2="55.316" y2="56.598"/>

		<line fill="none" stroke="#000000" stroke-width="0.24" stroke-linecap="round" stroke-linejoin="round" stroke-miterlimit="10" x1="58.736" y1="67.938" x2="55.316" y2="67.938"/>

		<line fill="none" stroke="#000000" stroke-width="0.24" stroke-linecap="round" stroke-linejoin="round" stroke-miterlimit="10" x1="58.736" y1="75.378" x2="55.316" y2="75.378"/>

		<polyline fill="none" stroke="#000000" stroke-width="0.24" stroke-linecap="round" stroke-linejoin="round" stroke-miterlimit="10" points="
		56.156,76.218 57.836,76.218 58.736,75.378 	"/>

		<line fill="none" stroke="#000000" stroke-width="0.24" stroke-linecap="round" stroke-linejoin="round" stroke-miterlimit="10" x1="56.156" y1="76.218" x2="55.316" y2="75.378"/>

		<line fill="none" stroke="#000000" stroke-width="0.24" stroke-linecap="round" stroke-linejoin="round" stroke-miterlimit="10" x1="44.276" y1="52.278" x2="44.276" y2="75.378"/>

		<line fill="none" stroke="#000000" stroke-width="0.24" stroke-linecap="round" stroke-linejoin="round" stroke-miterlimit="10" x1="40.856" y1="52.278" x2="40.856" y2="75.378"/>

		<line fill="none" stroke="#000000" stroke-width="0.24" stroke-linecap="round" stroke-linejoin="round" stroke-miterlimit="10" x1="44.276" y1="56.598" x2="40.856" y2="56.598"/>

		<line fill="none" stroke="#000000" stroke-width="0.24" stroke-linecap="round" stroke-linejoin="round" stroke-miterlimit="10" x1="44.276" y1="67.938" x2="40.856" y2="67.938"/>

		<line fill="none" stroke="#000000" stroke-width="0.24" stroke-linecap="round" stroke-linejoin="round" stroke-miterlimit="10" x1="44.276" y1="75.378" x2="40.856" y2="75.378"/>

		<polyline fill="none" stroke="#000000" stroke-width="0.24" stroke-linecap="round" stroke-linejoin="round" stroke-miterlimit="10" points="
		41.696,76.218 43.436,76.218 44.276,75.378 	"/>

		<line fill="none" stroke="#000000" stroke-width="0.24" stroke-linecap="round" stroke-linejoin="round" stroke-miterlimit="10" x1="41.696" y1="76.218" x2="40.856" y2="75.378"/>
	<polyline fill-rule="evenodd" clip-rule="evenodd" points="53.036,23.958 52.436,23.178 49.076,23.178 49.076,21.138
		49.076,23.958 	"/>
	<path fill-rule="evenodd" clip-rule="evenodd" d="M53.156,23.358v-0.42l-0.06-0.12l-0.06-0.12l-3.78-2.16l-0.12-0.06l-0.06-0.06
		c-0.217,0.037-0.504-0.096-0.66,0.12v2.64h-1.38l-0.06,0.06v0.66l0.06,0.06h1.38v0.72l0.06,0.12h0.06l0.18,0.06h0.12l0.18-0.06
		l0.06-0.12v-3.54l3.36,1.98v0.06l0.6,0.78h0.06l0.06-0.12v-0.3"/>
	<path fill-rule="evenodd" clip-rule="evenodd" d="M51.536,58.638v-1.44v0.06c0.177,1.141-1.4,1.358-1.8,0.54l-0.06-0.12h-0.06
		v-0.18l-0.06-0.12v-0.78l-0.06,1.92l0.18,0.18l0.18,0.06l0.12,0.06l0.06,0.06l0.12,0.06h0.3l0.18,0.06l0.06-0.06h0.3l0.18-0.06
		l0.24-0.12"/>
	<polyline fill-rule="evenodd" clip-rule="evenodd" points="52.076,57.258 52.076,56.178 52.016,55.998 51.956,55.938
		47.216,55.938 47.156,55.998 47.156,56.538 47.216,56.598 49.016,56.598 49.016,57.378 49.076,57.498 49.076,57.678 49.136,57.798
		49.136,57.978 49.196,58.098 49.316,58.278 49.376,58.398 49.496,58.518 49.556,56.598 51.536,56.598 51.536,58.638 51.656,58.578
		51.776,58.458 51.836,58.338 51.896,58.218 51.956,58.038 52.016,57.918 52.016,57.858 52.076,57.678 52.076,57.438 	"/>
	<polyline fill-rule="evenodd" clip-rule="evenodd" points="47.936,59.778 47.876,59.718 47.756,59.718 47.696,59.658
		47.576,59.658 47.636,60.918 47.636,60.618 47.756,60.258 47.756,60.138 47.876,59.898 	"/>
	<path fill-rule="evenodd" clip-rule="evenodd" d="M49.616,59.958v0.06c0,0.22,0,0.44,0,0.66v0.18"/>
	<polyline fill-rule="evenodd" clip-rule="evenodd" points="50.156,61.158 50.156,60.618 50.096,61.638 50.156,61.518
		50.156,61.338 	"/>
	<path fill-rule="evenodd" clip-rule="evenodd" d="M52.076,62.358v-2.22l-0.06-0.12v-0.06h-2.4v1.32l-0.06,0.12v0.12l-0.06,0.18
		l-0.12,0.12v0.06l-0.12,0.06l-0.18,0.12h-0.06l-0.18,0.06h-0.36l-0.12-0.06l-0.18-0.06h-0.06l-0.3-0.3l-0.06-0.12l-0.06-0.18
		l-0.06-0.12v-0.36l-0.06-1.26l-0.12,0.06h-0.06l-0.06,0.06l-0.06,0.12v0.12l-0.06,0.12l-0.06,0.06v0.18l-0.06,0.12v0.9l0.06,0.18
		l0.06,0.12v0.06l0.06,0.12l0.06,0.18l0.06,0.12l0.12,0.12l0.24,0.24l0.12,0.06c0.352,0.179,0.735,0.196,1.14,0.18l0.18-0.06h0.12
		c0.455-0.218,0.567-0.365,0.72-0.84l0.06-0.06v-0.18l0.06-1.02h1.38v1.74l0.06,0.12h0.42l0.06-0.06"/>
	<path fill-rule="evenodd" clip-rule="evenodd" d="M162.896,112.698v-1.44v0.06c0.176,1.142-1.401,1.357-1.8,0.54l-0.06-0.12h-0.06
		v-0.18l-0.06-0.12v-0.78l-0.06,1.92l0.18,0.18l0.18,0.06l0.12,0.06l0.06,0.06l0.12,0.06h0.3l0.18,0.06l0.06-0.06h0.3l0.18-0.06
		l0.12-0.06l0.12-0.06"/>
	<polyline fill-rule="evenodd" clip-rule="evenodd" points="163.436,111.318 163.436,110.238 163.376,110.058 163.316,109.998
		158.576,109.998 158.516,110.058 158.516,110.598 158.576,110.658 160.376,110.658 160.376,111.438 160.436,111.558
		160.436,111.738 160.496,111.858 160.496,112.038 160.556,112.158 160.676,112.338 160.736,112.458 160.856,112.578
		160.916,110.658 162.896,110.658 162.896,112.698 163.016,112.638 163.136,112.518 163.256,112.278 163.316,112.098
		163.376,111.978 163.376,111.918 163.436,111.738 163.436,111.498 	"/>
	<path fill-rule="evenodd" clip-rule="evenodd" d="M161.096,113.778h-0.12c-0.666-0.018-1.309,0.007-1.92,0.3l-0.12,0.06l0.06,1.26
		v-0.3l0.12-0.24l0.12-0.06l0.18-0.18l0.12-0.06h0.18l0.18-0.06l0.18-0.06h0.6l0.06,0.06l0.12,0.18v0.06l0.06,0.18l0.06,0.12v0.12
		l0.06,0.12v0.18"/>
	<polyline fill-rule="evenodd" clip-rule="evenodd" points="161.576,115.578 161.516,115.518 161.516,115.218 161.456,115.038
		161.456,114.918 161.396,114.798 161.336,114.618 161.276,114.558 161.216,114.438 161.216,116.658 161.276,116.538
		161.396,116.418 161.456,116.238 161.456,116.178 161.516,116.058 161.516,115.758 	"/>
	<path fill-rule="evenodd" clip-rule="evenodd" d="M163.016,114.438l-0.12-0.12l-0.12-0.06l-0.12-0.12l-0.12-0.06l-0.18-0.06
		l-0.12-0.06l-0.18-0.06h-0.12l-0.18-0.06h-0.18l-0.12-0.06h-0.36l-0.06,1.68v0.12c-0.104,0.564-0.295,0.657-0.84,0.78h-0.24
		l-0.12-0.06h-0.18l-0.06-0.06l-0.18-0.06l-0.12-0.06l-0.06-0.06l-0.06-0.12l-0.12-0.12l-0.06-0.12v-0.3l-0.06-1.26l-0.12,0.12
		l-0.06,0.12l-0.12,0.12l-0.06,0.12l-0.06,0.18v0.06l-0.06,0.18v0.48c0.042,0.244,0.036,0.553,0.24,0.72l0.06,0.12l0.12,0.12
		l0.06,0.12l0.12,0.12c0.369,0.177,0.524,0.21,0.9,0.3h0.3c0.411-0.004,0.469-0.153,0.78-0.24l0.12-0.06l0.06-0.06v-2.22h0.06
		c0.885,0.038,1.509,0.259,1.74,1.2v0.12"/>
	<path fill-rule="evenodd" clip-rule="evenodd" d="M163.496,115.818v-0.12c0.048-0.427-0.138-0.83-0.42-1.14l-0.06-0.12v1.56
		l-0.06,0.12v0.12l-0.06,0.12v0.06l-0.06,0.12v0.18l0.06,0.06h0.36l0.06-0.06l0.06-0.12l0.06-0.06v-0.18l0.06-0.12v-0.24"/>
	<path fill-rule="evenodd" clip-rule="evenodd" d="M115.496,132.198l-0.06-1.44v0.36l-0.06,0.12v0.12l-0.06,0.12v0.06l-0.06,0.12
		l-0.06,0.06l-0.12,0.12l-0.06,0.12h-0.06l-0.12,0.06c-0.299,0.173-0.613,0.27-0.96,0.24h-0.54l-0.12-0.06h-0.12l-0.06-0.06h-0.12
		l-0.12-0.06l-0.18-0.18h-0.06l-0.06-0.12l-0.18-0.18l-0.06-0.18v-0.12l-0.06-0.12v-0.96l-0.06,1.98l0.12,0.12l0.18,0.18l0.48,0.24
		h0.06l0.12,0.06h0.24l0.12,0.06h0.78l0.12-0.06h0.24l0.24-0.12l0.12-0.06l0.24-0.12l0.24-0.24"/>
	<path fill-rule="evenodd" clip-rule="evenodd" d="M115.916,130.818v-1.02l-0.06-0.12h-0.06l-0.12-0.06h-3.84l-0.06,0.06v0.06
		l-0.06,0.12v1.32c0.127,0.313,0.089,0.512,0.3,0.84l0.06,0.12l0.06,0.06l0.06-1.98h3.24v0.54l0.06,1.44l0.12-0.12
		c0.165-0.264,0.256-0.661,0.3-0.96v-0.18"/>
	<polyline fill-rule="evenodd" clip-rule="evenodd" points="112.196,134.718 112.136,134.118 112.076,134.178 112.136,135.018
		112.136,134.838 	"/>
	<polyline fill-rule="evenodd" clip-rule="evenodd" points="114.476,134.298 114.356,134.178 114.356,134.838 114.416,134.898
		114.416,135.078 	"/>
	<path fill-rule="evenodd" clip-rule="evenodd" d="M114.836,135.138v-0.36l-0.06-0.12l-0.12-0.12l-0.06-0.12h-0.06l-0.06-0.12
		l-0.06,0.78v0.12l-0.06,0.12l-0.06,0.06l-0.06,0.12l-0.06,0.06l-0.36,0.18h-0.18l-0.12,0.06h-0.42l-0.12-0.06h-0.24l-0.36-0.18
		l-0.18-0.18l-0.06-0.06v-0.3l-0.06-0.84l-0.06,0.12l-0.06,0.06h-0.06l-0.24,0.48v0.54l0.24,0.48l0.12,0.06l0.06,0.12h0.06
		l0.12,0.06c0.356,0.225,0.726,0.263,1.14,0.24h0.24l0.12-0.06h0.18l0.12-0.06h0.12l0.12-0.06l0.12-0.06l0.06-0.12l0.12-0.06
		l0.12-0.24h0.06v-0.12l0.06-0.12v-0.12"/>
	<polyline fill-rule="evenodd" clip-rule="evenodd" points="116.216,133.938 116.216,133.698 116.156,133.638 111.776,133.638
		111.716,133.698 111.716,134.058 111.776,134.118 112.136,134.118 112.196,134.718 112.256,134.598 112.316,134.598
		112.436,134.358 112.556,134.298 112.676,134.178 113.816,134.178 113.936,134.238 113.996,134.358 114.116,134.418
		114.176,134.538 114.296,134.658 114.296,134.718 114.356,134.838 114.356,134.178 116.156,134.178 116.216,134.118
		116.216,134.058 	"/>
	<polyline fill-rule="evenodd" clip-rule="evenodd" points="111.956,137.118 111.836,136.998 111.716,136.938 111.656,136.878
		111.536,136.818 111.116,136.818 110.996,136.878 110.936,136.938 110.936,138.138 110.936,137.898 110.996,137.778
		110.996,137.658 111.056,137.538 111.236,137.358 111.536,137.358 111.656,137.418 111.836,137.598 111.956,137.658 	"/>
	<polyline fill-rule="evenodd" clip-rule="evenodd" points="112.976,138.858 112.916,137.538 112.796,137.778 112.796,137.958
		112.736,138.138 112.736,138.198 112.796,138.318 112.796,138.438 112.856,138.558 112.856,138.618 112.916,138.738 	"/>
	<path fill-rule="evenodd" clip-rule="evenodd" d="M114.476,137.178l-0.12-0.06c-0.302-0.166-0.791-0.177-1.08,0l-0.12,0.06v0.96
		v-0.12l0.06-0.18l0.06-0.06l0.06-0.12l0.06-0.06l0.24-0.12h0.3l0.12,0.06l0.06,0.06l0.12,0.06l0.12,0.06l0.06,0.12v0.12l0.06,0.12"
		/>
	<path fill-rule="evenodd" clip-rule="evenodd" d="M114.836,138.138v-0.06c0.009-0.461,0.008-0.242-0.18-0.66l-0.06-0.12h-0.06
		l-0.06-0.12v0.9l-0.06,0.18v0.12l-0.06,0.12l-0.06,0.06l-0.12,0.06l-0.06,0.06l-0.18,0.06h-0.24l-0.12-0.06h-0.12l-0.06-0.12
		l-0.12-0.06l-0.06-0.12v-0.12l-0.06-0.12v-0.96h-0.06c-0.192-0.26-0.56-0.323-0.84-0.18h-0.06l-0.06,0.12l-0.06,0.12l-0.12-0.12
		v0.54l-0.06,0.78c0.034,0.206-0.091,0.412-0.24,0.54h-0.36l-0.18-0.18l-0.18-0.36v-1.5l-0.12,0.06l-0.12,0.24l-0.06,0.12
		l-0.06,0.18v0.18l-0.06,0.12v0.54l0.06,0.12v0.12l0.06,0.12v0.12l0.06,0.12l0.12,0.24l0.12,0.12l0.36,0.18h0.48l0.12-0.06
		l0.12-0.12l0.12-0.06v-0.06l0.06-0.12l0.06-0.18l0.06-0.12v-0.24l0.06-0.78v-0.18l0.06-0.12l0.06-0.06h0.3v0.06l0.12,0.06
		l0.06,1.32l0.18,0.18l0.24,0.12v0.06h0.3l0.12,0.06h0.06l0.12-0.06h0.18l0.06-0.06l0.12-0.12v0.42l0.06,0.06v0.06h0.24l0.12-0.06
		v-0.96l0.06-0.06v-0.24"/>
	<path fill-rule="evenodd" clip-rule="evenodd" d="M112.436,140.178l-0.06-0.06h-0.42v0.06c-0.246,0.382-0.413,1.147-0.24,1.56v0.12
		h0.06v0.12l0.12,0.24l0.12,0.12l0.06,0.06l0.06-1.14v-0.3l0.06-0.12v-0.06l0.06-0.12v-0.12l0.12-0.24"/>
	<path fill-rule="evenodd" clip-rule="evenodd" d="M115.556,140.238h-0.36l-0.06,0.06l0.06,0.12c0.173,0.189,0.278,0.423,0.3,0.66
		v0.18"/>
	<path fill-rule="evenodd" clip-rule="evenodd" d="M115.976,141.378v-0.3l-0.06-0.12v-0.06l-0.06-0.12v-0.12l-0.12-0.24l-0.18-0.18
		l-0.06,1.02v0.18l-0.06,0.12v0.12l-0.12,0.06l-0.06,0.12l-0.12,0.06h-0.48l-0.24-0.12l-0.12-0.12
		c-0.308-0.299-0.125-0.643-0.18-1.02l-0.06-0.06v-0.06h-0.36l-0.06,0.06v0.78l-0.06,0.12v0.12l-0.06,0.12l-0.06,0.12
		c-0.223,0.298-0.705,0.414-1.02,0.18l-0.12-0.12v-0.06l-0.12-0.06v-0.18l-0.06-0.06v-0.3l-0.06,1.14l0.18,0.18l0.12,0.06h0.12
		l0.12,0.06h0.54l0.36-0.18l0.06-0.06l0.06-0.12l0.12-0.06l0.06-0.12v-0.06l0.06-0.12v-0.12l0.06-0.12v0.12
		c0.253,0.665,1.094,0.87,1.68,0.48l0.06-0.12h0.06l0.18-0.36v-0.12l0.06-0.12v-0.12"/>
	<path fill-rule="evenodd" clip-rule="evenodd" d="M101.276,132.198l-0.06-1.44v0.36l-0.06,0.12v0.12l-0.06,0.12v0.06l-0.06,0.12
		l-0.06,0.06l-0.12,0.12l-0.06,0.12h-0.06l-0.12,0.06c-0.299,0.173-0.613,0.27-0.96,0.24h-0.54l-0.12-0.06h-0.12l-0.06-0.06h-0.12
		l-0.12-0.06l-0.12-0.12l-0.06-0.06h-0.06l-0.06-0.12l-0.18-0.18l-0.06-0.18v-0.12l-0.06-0.12v-0.96l-0.06,1.98l0.3,0.3l0.12,0.06
		l0.12,0.06l0.24,0.12h0.06l0.12,0.06h0.24l0.12,0.06h0.78l0.12-0.06h0.24l0.6-0.3l0.24-0.24"/>
	<path fill-rule="evenodd" clip-rule="evenodd" d="M101.696,130.818v-1.02l-0.06-0.12h-0.06l-0.12-0.06h-3.84l-0.06,0.06v0.06
		l-0.06,0.12v1.32c0.127,0.313,0.089,0.512,0.3,0.84l0.06,0.12l0.06,0.06l0.06-1.98h3.24v0.54l0.06,1.44l0.12-0.12
		c0.165-0.264,0.256-0.661,0.3-0.96v-0.18"/>
	<polyline fill-rule="evenodd" clip-rule="evenodd" points="97.976,134.718 97.916,134.118 97.856,134.178 97.916,135.018
		97.916,134.838 	"/>
	<polyline fill-rule="evenodd" clip-rule="evenodd" points="100.256,134.298 100.136,134.178 100.136,134.838 100.196,134.898
		100.196,135.078 	"/>
	<path fill-rule="evenodd" clip-rule="evenodd" d="M100.616,135.138v-0.36l-0.06-0.12l-0.12-0.12l-0.06-0.12h-0.06l-0.06-0.12
		l-0.06,0.78v0.12l-0.06,0.12l-0.06,0.06l-0.06,0.12l-0.06,0.06l-0.12,0.06l-0.24,0.12h-0.18l-0.12,0.06h-0.42l-0.12-0.06h-0.24
		l-0.36-0.18l-0.24-0.24v-0.3l-0.06-0.84l-0.06,0.12l-0.06,0.06h-0.06l-0.24,0.48v0.54l0.24,0.48l0.12,0.06l0.06,0.12h0.06
		l0.12,0.06c0.356,0.225,0.726,0.263,1.14,0.24h0.24l0.12-0.06h0.18l0.12-0.06h0.12l0.12-0.06l0.12-0.06l0.06-0.12l0.12-0.06
		l0.12-0.24h0.06v-0.12l0.06-0.12v-0.12"/>
	<polyline fill-rule="evenodd" clip-rule="evenodd" points="101.996,133.938 101.996,133.698 101.936,133.638 97.556,133.638
		97.496,133.698 97.496,134.058 97.556,134.118 97.916,134.118 97.976,134.718 98.036,134.598 98.096,134.598 98.216,134.358
		98.336,134.298 98.456,134.178 99.596,134.178 99.716,134.238 99.776,134.358 99.896,134.418 99.956,134.538 100.076,134.658
		100.076,134.718 100.136,134.838 100.136,134.178 101.936,134.178 101.996,134.118 101.996,134.058 	"/>
	<polyline fill-rule="evenodd" clip-rule="evenodd" points="97.736,137.118 97.616,136.998 97.496,136.938 97.436,136.878
		97.316,136.818 96.896,136.818 96.776,136.878 96.716,136.938 96.716,138.138 96.716,137.898 96.776,137.778 96.776,137.658
		96.836,137.538 96.956,137.418 97.016,137.358 97.316,137.358 97.436,137.418 97.616,137.598 97.736,137.658 	"/>
	<polyline fill-rule="evenodd" clip-rule="evenodd" points="98.756,138.858 98.696,137.538 98.636,137.658 98.576,137.778
		98.576,137.958 98.516,138.138 98.516,138.198 98.576,138.318 98.576,138.438 98.636,138.558 98.636,138.618 98.696,138.738 	"/>
	<path fill-rule="evenodd" clip-rule="evenodd" d="M100.256,137.178l-0.12-0.06c-0.302-0.166-0.791-0.177-1.08,0l-0.12,0.06v0.96
		v-0.12l0.06-0.18l0.06-0.06l0.06-0.12l0.06-0.06l0.24-0.12h0.3l0.12,0.06l0.06,0.06l0.12,0.06l0.12,0.06l0.06,0.12v0.12l0.06,0.12"
		/>
	<path fill-rule="evenodd" clip-rule="evenodd" d="M100.616,138.138v-0.06c0.009-0.461,0.008-0.242-0.18-0.66l-0.06-0.12h-0.06
		l-0.06-0.12v0.9l-0.06,0.18v0.12l-0.06,0.12l-0.06,0.06l-0.12,0.06l-0.06,0.06l-0.18,0.06h-0.24l-0.12-0.06h-0.12l-0.06-0.12
		l-0.12-0.06l-0.06-0.12v-0.12l-0.06-0.12v-0.96h-0.06c-0.192-0.26-0.56-0.323-0.84-0.18h-0.06l-0.12,0.24l-0.12-0.12v0.54
		l-0.06,0.78c0.034,0.206-0.091,0.412-0.24,0.54h-0.36l-0.06-0.06l-0.12-0.12l-0.18-0.36v-1.5l-0.12,0.06l-0.18,0.36l-0.06,0.18
		v0.18l-0.06,0.12v0.54l0.06,0.12v0.12l0.06,0.12v0.12l0.18,0.36l0.12,0.12l0.12,0.06l0.12,0.06l0.12,0.06h0.48l0.12-0.06l0.12-0.12
		l0.12-0.06v-0.06l0.06-0.12l0.06-0.18l0.06-0.12v-0.24l0.06-0.78v-0.18l0.06-0.12l0.06-0.06h0.3v0.06l0.12,0.06l0.06,1.32
		l0.18,0.18l0.24,0.12v0.06h0.3l0.12,0.06h0.06l0.12-0.06h0.18l0.06-0.06l0.12-0.12v0.42l0.06,0.06v0.06h0.24l0.12-0.06v-0.96
		l0.06-0.06v-0.24"/>
	<polyline fill-rule="evenodd" clip-rule="evenodd" points="101.576,142.338 101.216,141.798 98.936,141.798 98.936,140.418
		98.936,142.338 	"/>
	<polyline fill-rule="evenodd" clip-rule="evenodd" points="101.696,141.918 101.696,141.618 101.636,141.558 101.636,141.498
		99.056,139.998 98.996,139.938 98.516,139.938 98.456,139.998 98.456,141.798 97.556,141.798 97.496,141.858 97.496,142.278
		97.556,142.338 98.456,142.338 98.456,142.818 98.516,142.878 98.576,142.938 98.756,142.938 98.876,142.878 98.936,142.818
		98.936,140.418 101.216,141.798 101.576,142.338 101.636,142.338 101.696,142.218 101.696,142.038 	"/>
	<path fill-rule="evenodd" clip-rule="evenodd" d="M115.496,85.038l-0.06-1.44v0.36l-0.06,0.12v0.12l-0.06,0.12v0.06l-0.06,0.12
		l-0.18,0.18l-0.06,0.12h-0.06l-0.12,0.06c-0.299,0.173-0.613,0.27-0.96,0.24h-0.54l-0.12-0.06h-0.12l-0.06-0.06h-0.12l-0.12-0.06
		l-0.18-0.18h-0.06l-0.06-0.12l-0.12-0.12l-0.06-0.06l-0.06-0.18v-0.12l-0.06-0.12v-0.96l-0.06,1.98l0.12,0.12l0.18,0.18l0.48,0.24
		h0.06l0.12,0.06h0.24l0.12,0.06h0.78l0.12-0.06h0.24l0.24-0.12l0.12-0.06l0.24-0.12l0.06-0.06l0.18-0.18"/>
	<path fill-rule="evenodd" clip-rule="evenodd" d="M115.916,83.658v-1.02l-0.06-0.12h-0.06l-0.12-0.06h-3.84l-0.06,0.06v0.06
		l-0.06,0.12v1.32c0.127,0.313,0.089,0.512,0.3,0.84l0.06,0.12l0.06,0.06l0.06-1.98h3.24v0.54l0.06,1.44l0.12-0.12
		c0.165-0.264,0.256-0.661,0.3-0.96v-0.18"/>
	<polyline fill-rule="evenodd" clip-rule="evenodd" points="112.196,87.558 112.136,86.958 112.076,87.018 112.136,87.858
		112.136,87.678 	"/>
	<polyline fill-rule="evenodd" clip-rule="evenodd" points="114.476,87.138 114.356,87.018 114.356,87.678 114.416,87.738
		114.416,87.918 	"/>
	<path fill-rule="evenodd" clip-rule="evenodd" d="M114.836,87.978v-0.36l-0.06-0.12l-0.12-0.12l-0.06-0.12h-0.06l-0.06-0.12
		l-0.06,0.78v0.12l-0.06,0.12l-0.06,0.06l-0.06,0.12l-0.06,0.06l-0.36,0.18h-0.18l-0.12,0.06h-0.42l-0.12-0.06h-0.24l-0.36-0.18
		l-0.18-0.18l-0.06-0.06v-0.3l-0.06-0.84l-0.06,0.12l-0.06,0.06h-0.06l-0.24,0.48v0.54l0.24,0.48l0.12,0.06l0.06,0.12h0.06
		l0.12,0.06c0.356,0.225,0.726,0.263,1.14,0.24h0.24l0.12-0.06h0.18l0.12-0.06h0.12l0.12-0.06l0.12-0.06l0.06-0.12l0.12-0.06
		l0.12-0.24h0.06v-0.12l0.06-0.12v-0.12"/>
	<polyline fill-rule="evenodd" clip-rule="evenodd" points="116.216,86.778 116.216,86.538 116.156,86.478 111.776,86.478
		111.716,86.538 111.716,86.898 111.776,86.958 112.136,86.958 112.196,87.558 112.256,87.438 112.316,87.438 112.436,87.198
		112.556,87.138 112.676,87.018 113.816,87.018 113.936,87.078 113.996,87.198 114.116,87.258 114.176,87.378 114.296,87.498
		114.296,87.558 114.356,87.678 114.356,87.018 116.156,87.018 116.216,86.958 116.216,86.898 	"/>
	<polyline fill-rule="evenodd" clip-rule="evenodd" points="111.956,89.958 111.836,89.838 111.716,89.778 111.656,89.718
		111.536,89.658 111.116,89.658 110.996,89.718 110.936,89.778 110.936,90.978 110.936,90.738 110.996,90.618 110.996,90.498
		111.056,90.378 111.236,90.198 111.536,90.198 111.656,90.258 111.836,90.438 111.956,90.498 	"/>
	<polyline fill-rule="evenodd" clip-rule="evenodd" points="112.976,91.698 112.916,90.378 112.796,90.618 112.796,90.798
		112.736,90.978 112.736,91.038 112.796,91.158 112.796,91.278 112.856,91.398 112.856,91.458 112.916,91.578 	"/>
	<path fill-rule="evenodd" clip-rule="evenodd" d="M114.476,90.018l-0.12-0.06c-0.302-0.166-0.791-0.177-1.08,0l-0.12,0.06v0.96
		v-0.12l0.06-0.18l0.06-0.06l0.06-0.12l0.06-0.06l0.24-0.12h0.3l0.12,0.06l0.06,0.06l0.12,0.06l0.12,0.06l0.06,0.12v0.12l0.06,0.12"
		/>
	<path fill-rule="evenodd" clip-rule="evenodd" d="M114.836,90.978v-0.06c0.009-0.461,0.008-0.242-0.18-0.66l-0.06-0.12h-0.06
		l-0.06-0.12v0.9l-0.06,0.18v0.12l-0.06,0.12l-0.06,0.06l-0.12,0.06l-0.06,0.06l-0.18,0.06h-0.24l-0.12-0.06h-0.12l-0.06-0.12
		l-0.12-0.06l-0.06-0.12v-0.12l-0.06-0.12v-0.96h-0.06c-0.192-0.26-0.56-0.323-0.84-0.18h-0.06l-0.06,0.12l-0.06,0.12l-0.12-0.12
		v0.54l-0.06,0.78c0.034,0.206-0.091,0.412-0.24,0.54h-0.36l-0.18-0.18l-0.18-0.36v-1.5l-0.12,0.06l-0.12,0.24l-0.06,0.12
		l-0.06,0.18v0.18l-0.06,0.12v0.54l0.06,0.12v0.12l0.06,0.12v0.12l0.06,0.12l0.12,0.24l0.12,0.12l0.36,0.18h0.48l0.12-0.06
		l0.12-0.12l0.12-0.06v-0.06l0.06-0.12l0.06-0.18l0.06-0.12v-0.24l0.06-0.78v-0.18l0.06-0.12l0.06-0.06h0.3v0.06l0.12,0.06
		l0.06,1.32l0.18,0.18l0.12,0.06l0.12,0.06v0.06h0.3l0.12,0.06h0.06l0.12-0.06h0.18l0.18-0.18v0.42l0.06,0.06v0.06h0.24l0.12-0.06
		v-0.96l0.06-0.06v-0.24"/>
	<polyline fill-rule="evenodd" clip-rule="evenodd" points="115.856,94.758 115.376,94.158 112.136,94.158 112.136,93.198
		111.776,93.198 111.716,93.258 111.716,95.538 111.776,95.598 112.136,95.598 112.136,94.758 	"/>
	<polyline fill-rule="evenodd" clip-rule="evenodd" points="115.916,94.458 115.916,94.218 115.256,93.258 115.256,93.198
		115.136,93.198 115.016,93.138 114.896,93.198 114.836,93.198 114.836,93.258 114.896,93.378 115.376,94.158 115.856,94.758
		115.916,94.698 115.916,94.578 	"/>
	<path fill-rule="evenodd" clip-rule="evenodd" d="M101.276,85.098l-0.06-1.44v0.36l-0.06,0.12v0.12l-0.06,0.12v0.06l-0.06,0.12
		l-0.18,0.18l-0.06,0.12h-0.06l-0.12,0.06c-0.299,0.173-0.613,0.27-0.96,0.24h-0.54l-0.12-0.06h-0.12l-0.06-0.06h-0.12l-0.12-0.06
		l-0.12-0.12l-0.06-0.06h-0.06l-0.06-0.12l-0.18-0.18l-0.06-0.18v-0.12l-0.06-0.12v-0.96l-0.06,1.98l0.3,0.3l0.12,0.06l0.12,0.06
		l0.24,0.12h0.06l0.12,0.06h0.24l0.12,0.06h0.78l0.12-0.06h0.24l0.6-0.3l0.24-0.24"/>
	<path fill-rule="evenodd" clip-rule="evenodd" d="M101.696,83.718v-1.02l-0.06-0.12h-0.06l-0.12-0.06h-3.84l-0.06,0.06v0.06
		l-0.06,0.12v1.32c0.127,0.313,0.089,0.512,0.3,0.84l0.06,0.12l0.06,0.06l0.06-1.98h3.24v0.54l0.06,1.44l0.12-0.12
		c0.165-0.264,0.256-0.661,0.3-0.96v-0.18"/>
	<polyline fill-rule="evenodd" clip-rule="evenodd" points="97.976,87.618 97.916,87.018 97.856,87.078 97.916,87.918
		97.916,87.738 	"/>
	<polyline fill-rule="evenodd" clip-rule="evenodd" points="100.256,87.198 100.136,87.078 100.136,87.738 100.196,87.798
		100.196,87.978 	"/>
	<path fill-rule="evenodd" clip-rule="evenodd" d="M100.616,88.038v-0.36l-0.06-0.12l-0.12-0.12l-0.06-0.12h-0.06l-0.06-0.12
		l-0.06,0.78v0.12l-0.06,0.12l-0.06,0.06l-0.06,0.12l-0.06,0.06l-0.12,0.06l-0.24,0.12h-0.18l-0.12,0.06h-0.42l-0.12-0.06h-0.24
		l-0.36-0.18l-0.24-0.24v-0.3l-0.06-0.84l-0.06,0.12l-0.06,0.06h-0.06l-0.24,0.48v0.54l0.24,0.48l0.12,0.06l0.06,0.12h0.06
		l0.12,0.06c0.356,0.225,0.726,0.263,1.14,0.24h0.24l0.12-0.06h0.18l0.12-0.06h0.12l0.24-0.12l0.06-0.12l0.12-0.06l0.12-0.24h0.06
		v-0.12l0.06-0.12v-0.12"/>
	<polyline fill-rule="evenodd" clip-rule="evenodd" points="101.996,86.838 101.996,86.598 101.936,86.538 97.556,86.538
		97.496,86.598 97.496,86.958 97.556,87.018 97.916,87.018 97.976,87.618 98.036,87.498 98.096,87.498 98.216,87.258 98.336,87.198
		98.456,87.078 99.596,87.078 99.716,87.138 99.776,87.258 99.896,87.318 99.956,87.438 100.076,87.558 100.076,87.618
		100.136,87.738 100.136,87.078 101.936,87.078 101.996,87.018 101.996,86.958 	"/>
	<polyline fill-rule="evenodd" clip-rule="evenodd" points="97.736,90.018 97.616,89.898 97.496,89.838 97.436,89.778
		97.316,89.718 96.896,89.718 96.776,89.778 96.716,89.838 96.716,91.038 96.716,90.798 96.776,90.678 96.776,90.558 96.836,90.438
		96.956,90.318 97.016,90.258 97.316,90.258 97.436,90.318 97.556,90.438 97.616,90.498 97.736,90.558 	"/>
	<polyline fill-rule="evenodd" clip-rule="evenodd" points="98.756,91.758 98.696,90.438 98.636,90.558 98.576,90.678
		98.576,90.858 98.516,91.038 98.516,91.098 98.576,91.218 98.576,91.338 98.636,91.458 98.636,91.518 98.696,91.638 	"/>
	<path fill-rule="evenodd" clip-rule="evenodd" d="M100.256,90.078l-0.12-0.06c-0.302-0.166-0.791-0.177-1.08,0l-0.12,0.06v0.96
		v-0.12l0.06-0.18l0.06-0.06l0.06-0.12l0.06-0.06l0.12-0.06l0.12-0.06h0.3l0.12,0.06l0.06,0.06l0.24,0.12l0.06,0.12v0.12l0.06,0.12"
		/>
	<path fill-rule="evenodd" clip-rule="evenodd" d="M100.616,91.038v-0.06c0.009-0.461,0.008-0.242-0.18-0.66l-0.06-0.12h-0.06
		l-0.06-0.12v0.9l-0.06,0.18v0.12l-0.06,0.12l-0.06,0.06l-0.12,0.06l-0.06,0.06l-0.18,0.06h-0.24l-0.12-0.06h-0.12l-0.06-0.12
		l-0.12-0.06l-0.06-0.12v-0.12l-0.06-0.12v-0.96h-0.06c-0.192-0.26-0.56-0.323-0.84-0.18h-0.06l-0.12,0.24l-0.12-0.12v0.54
		l-0.06,0.78c0.034,0.206-0.091,0.412-0.24,0.54h-0.36l-0.06-0.06l-0.12-0.12l-0.18-0.36v-1.5l-0.12,0.06l-0.18,0.36l-0.06,0.18
		v0.18l-0.06,0.12v0.54l0.06,0.12v0.12l0.06,0.12v0.12l0.18,0.36l0.12,0.12l0.12,0.06l0.12,0.06l0.12,0.06h0.48l0.12-0.06l0.12-0.12
		l0.12-0.06v-0.06l0.06-0.12l0.06-0.18l0.06-0.12v-0.24l0.06-0.78v-0.18l0.06-0.12l0.06-0.06h0.3v0.06l0.12,0.06l0.06,1.32
		l0.18,0.18l0.12,0.06l0.12,0.06v0.06h0.3l0.12,0.06h0.06l0.12-0.06h0.18l0.06-0.06l0.12-0.12v0.42l0.06,0.06v0.06h0.24l0.12-0.06
		v-0.96l0.06-0.06v-0.24"/>
	<path fill-rule="evenodd" clip-rule="evenodd" d="M101.336,93.138h-0.12l-0.06-0.06l-0.12,0.06h-0.12v0.06
		c0.191,0.299,0.256,0.523,0.36,0.84v0.12"/>
	<path fill-rule="evenodd" clip-rule="evenodd" d="M101.756,94.278v-0.24l-0.06-0.18v-0.06l-0.06-0.12v-0.12l-0.06-0.12l-0.06-0.12
		h-0.06l-0.06-0.12l-0.06-0.06l-0.06,1.02v0.06l-0.06,0.18v0.12l-0.06,0.12l-0.12,0.06l-0.06,0.06l-0.12,0.06v0.06h-0.3
		c-0.543,0.009-0.775-0.192-1.2-0.48l-0.06-0.12l-0.12-0.06l-1.14-1.14h-0.12l-0.06-0.06h-0.24l-0.12,0.12v2.46h0.06l0.06,0.06h0.24
		l0.06-0.06h0.06v-1.92l0.66,0.66l0.12,0.12c0.3,0.257,0.423,0.45,0.78,0.6l0.06,0.12l0.12,0.06c0.399,0.174,0.683,0.279,1.14,0.24
		l0.12-0.06h0.12v-0.06l0.24-0.12l0.12-0.06v-0.06c0.36-0.291,0.149-0.344,0.3-0.6v-0.12"/>
	<polyline fill-rule="evenodd" clip-rule="evenodd" points="86.036,85.818 86.036,85.578 85.916,85.458 82.436,84.318
		81.956,83.898 81.896,83.958 81.836,83.958 81.836,84.558 81.896,84.618 81.956,84.678 85.856,85.998 85.976,86.058 86.036,86.058
		86.036,85.938 	"/>
	<polyline fill-rule="evenodd" clip-rule="evenodd" points="86.036,82.818 86.036,82.518 85.856,82.518 81.956,83.898
		82.436,84.318 85.916,83.118 85.976,83.058 86.036,83.058 86.036,82.938 	"/>
	<polyline fill-rule="evenodd" clip-rule="evenodd" points="82.316,87.738 82.256,87.138 82.196,87.198 82.256,88.038
		82.256,87.858 	"/>
	<polyline fill-rule="evenodd" clip-rule="evenodd" points="84.596,87.318 84.476,87.198 84.476,87.858 84.536,87.918
		84.536,88.098 	"/>
	<path fill-rule="evenodd" clip-rule="evenodd" d="M84.956,88.158v-0.36l-0.06-0.12l-0.12-0.12l-0.06-0.12h-0.06l-0.06-0.12
		l-0.06,0.78v0.12l-0.06,0.12l-0.06,0.06l-0.06,0.12l-0.06,0.06l-0.36,0.18h-0.18l-0.12,0.06h-0.42l-0.12-0.06h-0.24l-0.36-0.18
		l-0.18-0.18l-0.06-0.06v-0.3l-0.06-0.84l-0.06,0.12l-0.06,0.06h-0.06l-0.06,0.12l-0.06,0.12l-0.12,0.24v0.54l0.12,0.24l0.06,0.12
		l0.06,0.12l0.12,0.06l0.06,0.12h0.06l0.12,0.06c0.356,0.224,0.726,0.263,1.14,0.24h0.24l0.12-0.06h0.18l0.12-0.06h0.12l0.24-0.12
		l0.06-0.12l0.12-0.06l0.12-0.24h0.06v-0.12l0.06-0.12v-0.12"/>
	<polyline fill-rule="evenodd" clip-rule="evenodd" points="86.336,86.958 86.336,86.718 86.276,86.658 81.896,86.658
		81.836,86.718 81.836,87.078 81.896,87.138 82.256,87.138 82.316,87.738 82.376,87.618 82.436,87.618 82.556,87.378 82.676,87.318
		82.796,87.198 83.936,87.198 84.056,87.258 84.116,87.378 84.236,87.438 84.296,87.558 84.416,87.678 84.416,87.738 84.476,87.858
		84.476,87.198 86.276,87.198 86.336,87.138 86.336,87.078 	"/>
	<polyline fill-rule="evenodd" clip-rule="evenodd" points="82.256,91.338 82.196,91.158 82.196,91.038 82.136,91.818
		82.196,91.878 	"/>
	<path fill-rule="evenodd" clip-rule="evenodd" d="M83.276,90.198l-0.06-0.06c-1.094-0.66-1.872,0.619-1.2,1.56l0.12,0.12l0.06-0.78
		v-0.18l0.06-0.12l0.06-0.06v-0.06l0.24-0.12h0.24l0.24,0.12l0.18,0.36v0.24l0.06,0.12v0.48"/>
	<path fill-rule="evenodd" clip-rule="evenodd" d="M84.596,90.138l-0.12-0.06h-0.12l-0.06,0.06h-0.06v0.06
		c0.175,0.256,0.282,0.545,0.3,0.84v0.12"/>
	<path fill-rule="evenodd" clip-rule="evenodd" d="M84.956,91.218v-0.42l-0.06-0.12v-0.12l-0.12-0.24l-0.06-0.06l-0.06-0.12h-0.06
		l-0.06,1.02c-0.017,0.516-0.16,0.653-0.66,0.66h-0.24v-0.78l-0.06-0.12v-0.24l-0.06-0.12l-0.06-0.12l-0.06-0.12l-0.12-0.12v1.62
		h-0.66l-0.18-0.18l-0.06-0.12l-0.06-0.06l-0.06-0.12l-0.06,0.54h-0.3l-0.06,0.06v0.36l0.06,0.06h2.22l0.12-0.06h0.12l0.36-0.18
		v-0.06l0.06-0.06l0.12-0.24l0.06-0.12v-0.3"/>
	<polyline fill-rule="evenodd" clip-rule="evenodd" points="82.316,94.758 82.316,94.698 82.256,94.638 82.256,94.398
		82.256,94.818 82.316,94.818 	"/>
	<path fill-rule="evenodd" clip-rule="evenodd" d="M85.736,93.738v-0.12l-0.06-0.12l-0.06-0.06h-0.72v-0.48h-0.36l-0.06,0.12v0.36
		h-1.74l-0.18,0.06h-0.24l-0.06,0.06h-0.12l-0.12,0.12h-0.06l-0.06,0.12c-0.178,0.519-0.141,0.42-0.06,0.9l0.06,0.12h0.12l0.12,0.06
		l0.12-0.06v-0.42c-0.051-0.352,0.349-0.421,0.6-0.42h1.62v0.78l0.06,0.06l0.18,0.06l0.06-0.06h0.12v-0.84h0.78v-0.06l0.06-0.06"/>
	<polyline fill-rule="evenodd" clip-rule="evenodd" points="86.156,134.718 86.156,134.478 86.036,134.358 82.556,133.218
		82.076,132.798 82.016,132.858 81.956,132.858 81.956,133.458 82.016,133.518 82.076,133.578 85.976,134.898 86.096,134.958
		86.156,134.958 86.156,134.838 	"/>
	<polyline fill-rule="evenodd" clip-rule="evenodd" points="86.156,131.718 86.156,131.418 85.976,131.418 82.076,132.798
		82.556,133.218 86.036,132.018 86.096,131.958 86.156,131.958 86.156,131.838 	"/>
	<path fill-rule="evenodd" clip-rule="evenodd" d="M85.736,138.198l-0.06-1.44v0.36l-0.06,0.12v0.12l-0.06,0.12v0.06l-0.06,0.12
		l-0.06,0.06l-0.12,0.12l-0.06,0.12h-0.06l-0.12,0.06c-0.299,0.173-0.613,0.27-0.96,0.24h-0.54l-0.12-0.06h-0.12l-0.06-0.06h-0.12
		l-0.12-0.06l-0.18-0.18h-0.06l-0.06-0.12l-0.18-0.18l-0.06-0.18v-0.12l-0.06-0.12v-0.96l-0.06,1.98l0.3,0.3l0.48,0.24h0.06
		l0.12,0.06h0.24l0.12,0.06h0.78l0.12-0.06h0.24l0.12-0.06l0.48-0.24l0.24-0.24"/>
	<path fill-rule="evenodd" clip-rule="evenodd" d="M86.156,136.818v-1.02l-0.06-0.12h-0.06l-0.12-0.06h-3.84l-0.06,0.06v0.06
		l-0.06,0.12v1.32c0.127,0.313,0.09,0.513,0.3,0.84l0.06,0.12l0.06,0.06l0.06-1.98h3.24v0.54l0.06,1.44l0.12-0.12
		c0.165-0.264,0.256-0.661,0.3-0.96v-0.18"/>
	<path fill-rule="evenodd" clip-rule="evenodd" d="M85.736,142.278l-0.06-1.44v0.36l-0.06,0.12v0.12l-0.06,0.12v0.06l-0.06,0.12
		l-0.18,0.18l-0.06,0.12h-0.06l-0.12,0.06c-0.299,0.173-0.613,0.27-0.96,0.24h-0.54l-0.12-0.06h-0.12l-0.06-0.06h-0.12l-0.12-0.06
		l-0.18-0.18h-0.06l-0.06-0.12l-0.18-0.18l-0.06-0.18v-0.12l-0.06-0.12v-0.96l-0.06,1.98l0.3,0.3l0.48,0.24h0.06l0.12,0.06h0.24
		l0.12,0.06h0.78l0.12-0.06h0.24l0.12-0.06l0.48-0.24l0.24-0.24"/>
	<path fill-rule="evenodd" clip-rule="evenodd" d="M86.156,140.898v-1.02l-0.06-0.12h-0.06l-0.12-0.06h-3.84l-0.06,0.06v0.06
		l-0.06,0.12v1.32c0.127,0.313,0.09,0.513,0.3,0.84l0.06,0.12l0.06,0.06l0.06-1.98h3.24v0.54l0.06,1.44l0.12-0.12
		c0.165-0.264,0.256-0.661,0.3-0.96v-0.18"/>
	<polyline fill-rule="evenodd" clip-rule="evenodd" points="142.376,85.698 142.376,84.318 142.316,84.318 142.256,84.258
		142.136,84.258 142.016,84.318 141.956,84.378 141.956,85.338 140.696,85.338 140.636,85.218 140.636,85.098 140.576,84.978
		140.516,84.858 140.516,84.618 140.456,83.238 140.396,83.358 140.336,83.478 140.216,83.598 140.216,83.718 140.156,83.778
		140.096,83.898 140.096,84.138 140.036,84.318 140.036,84.978 140.096,85.098 140.096,85.218 140.156,85.278 140.156,85.398
		140.336,85.758 140.336,85.818 140.396,85.878 140.456,85.878 140.576,85.938 142.136,85.938 142.256,85.878 142.316,85.878
		142.376,85.818 	"/>
	<polyline fill-rule="evenodd" clip-rule="evenodd" points="143.876,85.938 143.876,84.558 143.876,84.858 143.816,84.978
		143.816,85.098 143.756,85.218 143.756,85.338 143.696,85.458 143.576,85.578 143.516,85.698 143.456,85.818 143.516,85.878
		143.636,85.938 143.756,85.938 	"/>
	<path fill-rule="evenodd" clip-rule="evenodd" d="M144.356,84.618v-0.12c0.025-0.42-0.269-1.099-0.6-1.38v-0.06l-0.24-0.12
		l-0.06-0.12l-0.12-0.06l-0.12-0.06l-0.18-0.06h-0.06l-0.18-0.06h-0.12l-0.12-0.06h-0.78l-0.12,0.06h-0.12l-0.12,0.06h-0.12
		l-0.48,0.24l-0.18,0.18l-0.12,0.06l-0.06,0.12l0.06,1.38v-0.24l0.06-0.12c0.017-0.265,0.142-0.549,0.36-0.72l0.06-0.06l0.12-0.06
		l0.12-0.12l0.12-0.06h0.12l0.06-0.06h0.12l0.12-0.06h0.72c0.269,0.027,0.567,0.113,0.78,0.3l0.12,0.06l0.06,0.06l0.06,0.12
		l0.12,0.06l0.18,0.36v0.12l0.06,0.12v1.62l0.12-0.06v-0.06l0.12-0.12l0.06-0.12l0.06-0.18v-0.06l0.06-0.12v-0.24l0.06-0.12v-0.12"
		/>
	<path fill-rule="evenodd" clip-rule="evenodd" d="M143.936,87.978l-0.24-0.48l-0.06,0.06c-0.237,0.137-0.497,0.209-0.72,0.36
		l-2.4,1.26l0.36,0.42l0.06-0.06c0.382-0.144,0.708-0.363,1.08-0.54l0.12-0.06"/>
	<polyline fill-rule="evenodd" clip-rule="evenodd" points="144.296,87.498 144.296,87.198 144.236,87.078 144.176,87.018
		144.056,86.958 140.156,86.958 140.156,87.018 140.096,87.018 140.096,87.498 140.156,87.498 140.156,87.558 143.276,87.558
		143.396,87.498 143.696,87.498 143.936,87.978 143.996,87.918 144.116,87.858 144.236,87.738 144.296,87.618 	"/>
	<path fill-rule="evenodd" clip-rule="evenodd" d="M144.296,89.898v-0.24l-0.06-0.06h-2.58c-0.22,0-0.44,0-0.66,0h-0.12l-0.36-0.42
		l-0.24,0.12v0.06l-0.12,0.06v0.06l-0.06,0.06v0.48l0.12,0.12h4.02l0.06-0.06v-0.06"/>
	<path fill-rule="evenodd" clip-rule="evenodd" d="M143.876,93.798l-0.06-1.44v0.36l-0.06,0.12v0.12l-0.06,0.12v0.06l-0.06,0.12
		l-0.18,0.18l-0.06,0.12h-0.06l-0.12,0.06c-0.299,0.173-0.613,0.27-0.96,0.24h-0.54l-0.12-0.06h-0.12l-0.06-0.06h-0.12l-0.12-0.06
		l-0.18-0.18h-0.06l-0.06-0.12l-0.18-0.18l-0.06-0.18v-0.12l-0.06-0.12v-0.96l-0.06,1.98l0.12,0.12l0.18,0.18l0.24,0.12l0.12,0.06
		l0.12,0.06h0.06l0.12,0.06h0.24l0.12,0.06h0.78l0.12-0.06h0.24l0.24-0.12l0.12-0.06l0.12-0.06l0.12-0.06l0.24-0.24"/>
	<path fill-rule="evenodd" clip-rule="evenodd" d="M144.296,92.418v-1.02l-0.06-0.12h-0.06l-0.12-0.06h-3.84l-0.06,0.06v0.06
		l-0.06,0.12v1.32c0.127,0.313,0.089,0.512,0.3,0.84l0.06,0.12l0.06,0.06l0.06-1.98h3.24v0.54l0.06,1.44l0.12-0.12
		c0.165-0.264,0.256-0.661,0.3-0.96v-0.18"/>

		<rect x="45.236" y="100.518" fill="none" stroke="#000000" stroke-width="0.24" stroke-linecap="round" stroke-linejoin="round" stroke-miterlimit="10" width="19.86" height="34.08"/>

		<rect x="57.656" y="102.078" fill="none" stroke="#000000" stroke-width="0.24" stroke-linecap="round" stroke-linejoin="round" stroke-miterlimit="10" width="2.28" height="2.28"/>

		<rect x="57.656" y="109.278" fill="none" stroke="#000000" stroke-width="0.24" stroke-linecap="round" stroke-linejoin="round" stroke-miterlimit="10" width="2.28" height="2.28"/>

		<rect x="57.656" y="116.478" fill="none" stroke="#000000" stroke-width="0.24" stroke-linecap="round" stroke-linejoin="round" stroke-miterlimit="10" width="2.28" height="2.28"/>

		<rect x="57.656" y="123.678" fill="none" stroke="#000000" stroke-width="0.24" stroke-linecap="round" stroke-linejoin="round" stroke-miterlimit="10" width="2.28" height="2.28"/>

		<rect x="57.656" y="130.878" fill="none" stroke="#000000" stroke-width="0.24" stroke-linecap="round" stroke-linejoin="round" stroke-miterlimit="10" width="2.28" height="2.28"/>

		<rect x="50.456" y="102.078" fill="none" stroke="#000000" stroke-width="0.24" stroke-linecap="round" stroke-linejoin="round" stroke-miterlimit="10" width="2.28" height="2.28"/>

		<rect x="50.456" y="109.278" fill="none" stroke="#000000" stroke-width="0.24" stroke-linecap="round" stroke-linejoin="round" stroke-miterlimit="10" width="2.28" height="2.28"/>

		<rect x="50.456" y="116.478" fill="none" stroke="#000000" stroke-width="0.24" stroke-linecap="round" stroke-linejoin="round" stroke-miterlimit="10" width="2.28" height="2.28"/>

		<rect x="50.456" y="123.678" fill="none" stroke="#000000" stroke-width="0.24" stroke-linecap="round" stroke-linejoin="round" stroke-miterlimit="10" width="2.28" height="2.28"/>

		<rect x="50.456" y="130.878" fill="none" stroke="#000000" stroke-width="0.24" stroke-linecap="round" stroke-linejoin="round" stroke-miterlimit="10" width="2.28" height="2.28"/>

		<polyline fill="none" stroke="#000000" stroke-width="0.24" stroke-linecap="round" stroke-linejoin="round" stroke-miterlimit="10" points="
		65.096,103.398 67.916,103.398 67.916,131.718 65.096,131.718 	"/>

		<polyline fill="none" stroke="#000000" stroke-width="0.24" stroke-linecap="round" stroke-linejoin="round" stroke-miterlimit="10" points="
		45.236,103.398 42.416,103.398 42.416,131.718 45.236,131.718 	"/>

		<line fill="none" stroke="#000000" stroke-width="0.24" stroke-linecap="round" stroke-linejoin="round" stroke-miterlimit="10" x1="45.236" y1="110.478" x2="42.416" y2="110.478"/>

		<line fill="none" stroke="#000000" stroke-width="0.24" stroke-linecap="round" stroke-linejoin="round" stroke-miterlimit="10" x1="45.236" y1="124.638" x2="42.416" y2="124.638"/>

		<line fill="none" stroke="#000000" stroke-width="0.24" stroke-linecap="round" stroke-linejoin="round" stroke-miterlimit="10" x1="65.096" y1="102.018" x2="69.116" y2="102.018"/>

		<line fill="none" stroke="#000000" stroke-width="0.24" stroke-linecap="round" stroke-linejoin="round" stroke-miterlimit="10" x1="69.116" y1="104.298" x2="67.916" y2="104.298"/>

		<polyline fill="none" stroke="#000000" stroke-width="0.24" stroke-linecap="round" stroke-linejoin="bevel" stroke-miterlimit="10" points="
		69.116,104.238 69.536,104.178 69.896,103.938 70.136,103.578 70.196,103.158 70.136,102.738 69.896,102.378 69.536,102.138
		69.116,102.078 	"/>

		<line fill="none" stroke="#000000" stroke-width="0.24" stroke-linecap="round" stroke-linejoin="round" stroke-miterlimit="10" x1="69.116" y1="111.498" x2="67.916" y2="111.498"/>

		<polyline fill="none" stroke="#000000" stroke-width="0.24" stroke-linecap="round" stroke-linejoin="bevel" stroke-miterlimit="10" points="
		69.116,111.438 69.536,111.378 69.896,111.138 70.136,110.778 70.196,110.358 70.136,109.938 69.896,109.578 69.536,109.338
		69.116,109.278 	"/>

		<line fill="none" stroke="#000000" stroke-width="0.24" stroke-linecap="round" stroke-linejoin="round" stroke-miterlimit="10" x1="69.116" y1="109.218" x2="67.916" y2="109.218"/>

		<line fill="none" stroke="#000000" stroke-width="0.24" stroke-linecap="round" stroke-linejoin="round" stroke-miterlimit="10" x1="69.116" y1="118.698" x2="67.916" y2="118.698"/>

		<polyline fill="none" stroke="#000000" stroke-width="0.24" stroke-linecap="round" stroke-linejoin="bevel" stroke-miterlimit="10" points="
		69.116,118.638 69.536,118.578 69.896,118.338 70.136,117.978 70.196,117.558 70.136,117.138 69.896,116.778 69.536,116.538
		69.116,116.478 	"/>

		<line fill="none" stroke="#000000" stroke-width="0.24" stroke-linecap="round" stroke-linejoin="round" stroke-miterlimit="10" x1="69.116" y1="116.418" x2="67.916" y2="116.418"/>

		<line fill="none" stroke="#000000" stroke-width="0.24" stroke-linecap="round" stroke-linejoin="round" stroke-miterlimit="10" x1="69.116" y1="125.898" x2="67.916" y2="125.898"/>

		<polyline fill="none" stroke="#000000" stroke-width="0.24" stroke-linecap="round" stroke-linejoin="bevel" stroke-miterlimit="10" points="
		69.116,125.838 69.536,125.778 69.896,125.538 70.136,125.178 70.196,124.758 70.136,124.338 69.896,123.978 69.536,123.738
		69.116,123.678 	"/>

		<line fill="none" stroke="#000000" stroke-width="0.24" stroke-linecap="round" stroke-linejoin="round" stroke-miterlimit="10" x1="69.116" y1="123.618" x2="67.916" y2="123.618"/>

		<line fill="none" stroke="#000000" stroke-width="0.24" stroke-linecap="round" stroke-linejoin="round" stroke-miterlimit="10" x1="65.096" y1="133.098" x2="69.116" y2="133.098"/>

		<line fill="none" stroke="#000000" stroke-width="0.24" stroke-linecap="round" stroke-linejoin="round" stroke-miterlimit="10" x1="69.116" y1="130.818" x2="67.916" y2="130.818"/>

		<polyline fill="none" stroke="#000000" stroke-width="0.24" stroke-linecap="round" stroke-linejoin="bevel" stroke-miterlimit="10" points="
		69.116,133.038 69.536,132.978 69.896,132.738 70.136,132.378 70.196,131.958 70.136,131.538 69.896,131.178 69.536,130.938
		69.116,130.878 	"/>

		<rect x="331.616" y="50.178" fill="none" stroke="#000000" stroke-width="0.24" stroke-linecap="round" stroke-linejoin="round" stroke-miterlimit="10" width="18.66" height="3.36"/>

		<rect x="331.616" y="54.678" fill="none" stroke="#000000" stroke-width="0.24" stroke-linecap="round" stroke-linejoin="round" stroke-miterlimit="10" width="14.16" height="3.42"/>

		<rect x="331.616" y="59.238" fill="none" stroke="#000000" stroke-width="0.24" stroke-linecap="round" stroke-linejoin="round" stroke-miterlimit="10" width="14.16" height="3.42"/>

		<rect x="331.616" y="63.738" fill="none" stroke="#000000" stroke-width="0.24" stroke-linecap="round" stroke-linejoin="round" stroke-miterlimit="10" width="18.66" height="3.42"/>

		<rect x="331.616" y="68.298" fill="none" stroke="#000000" stroke-width="0.24" stroke-linecap="round" stroke-linejoin="round" stroke-miterlimit="10" width="16.44" height="3.42"/>

		<rect x="331.616" y="72.858" fill="none" stroke="#000000" stroke-width="0.24" stroke-linecap="round" stroke-linejoin="round" stroke-miterlimit="10" width="16.44" height="3.36"/>

		<rect x="331.616" y="77.358" fill="none" stroke="#000000" stroke-width="0.24" stroke-linecap="round" stroke-linejoin="round" stroke-miterlimit="10" width="18.66" height="3.42"/>

		<rect x="331.616" y="81.918" fill="none" stroke="#000000" stroke-width="0.24" stroke-linecap="round" stroke-linejoin="round" stroke-miterlimit="10" width="14.16" height="3.42"/>

		<rect x="331.616" y="86.418" fill="none" stroke="#000000" stroke-width="0.24" stroke-linecap="round" stroke-linejoin="round" stroke-miterlimit="10" width="14.16" height="3.42"/>

		<rect x="331.616" y="90.978" fill="none" stroke="#000000" stroke-width="0.24" stroke-linecap="round" stroke-linejoin="round" stroke-miterlimit="10" width="18.66" height="3.42"/>
	<path fill-rule="evenodd" clip-rule="evenodd" d="M2.456,189.318l-0.12,0.06l-0.06,0.06l-0.06,0.18v0.54l0.06,0.18v0.12l0.12,0.06
		l0.12,0.12h0.06l0.3,0.12l0.06,0.06l0.3,0.06h0.6c0.463,0.074,1.098-0.173,1.44-0.48l0.36-0.48l-2.04-0.24h-0.12l-0.3-0.06h-0.06
		l-0.48-0.24"/>
	<polyline fill-rule="evenodd" clip-rule="evenodd" points="5.276,180.558 4.976,180.558 4.736,180.618 4.616,180.678
		4.616,188.298 4.556,188.598 4.556,188.898 4.496,189.138 4.376,189.378 4.316,189.438 4.016,189.618 3.896,189.678 3.596,189.678
		5.636,189.918 5.756,189.618 5.816,189.318 5.876,189.138 5.936,188.838 5.936,180.678 5.816,180.618 5.576,180.558 	"/>
	<polyline fill-rule="evenodd" clip-rule="evenodd" points="11.696,186.798 11.636,187.158 11.636,187.218 11.396,187.338
		8.156,187.338 7.916,187.218 7.856,186.918 7.856,186.798 7.916,186.438 7.916,186.378 8.156,186.258 11.516,186.258
		11.636,186.378 11.696,186.558 11.696,186.798 	"/>
	<polyline fill-rule="evenodd" clip-rule="evenodd" points="14.276,180.558 13.916,180.558 13.736,180.618 13.616,180.678
		13.616,190.398 13.736,190.638 13.796,190.638 14.096,190.758 18.596,190.758 18.716,190.698 18.776,190.638 18.836,190.458
		18.836,189.918 18.776,189.738 18.716,189.618 14.936,189.618 14.936,180.798 14.876,180.678 14.816,180.618 14.576,180.558 	"/>
	<polyline fill-rule="evenodd" clip-rule="evenodd" points="20.876,183.258 20.576,183.258 20.336,183.318 20.276,183.378
		20.216,183.498 20.216,190.578 20.276,190.638 20.336,190.758 20.576,190.818 21.176,190.818 21.356,190.758 21.536,190.578
		21.536,183.498 21.476,183.378 21.356,183.318 21.176,183.258 	"/>
	<path fill-rule="evenodd" clip-rule="evenodd" d="M20.876,180.318h-0.06c-0.796-0.005-0.861,0.583-0.72,1.2l0.12,0.24h0.06
		l0.18,0.12h0.78l0.24-0.12l0.06-0.06l0.06-0.24l0.06-0.36l-0.06-0.36l-0.12-0.24l-0.24-0.12"/>
	<polyline fill-rule="evenodd" clip-rule="evenodd" points="25.316,184.158 25.076,184.458 26.276,184.518 26.576,184.398
		26.876,184.278 27.176,184.278 	"/>
	<polyline fill-rule="evenodd" clip-rule="evenodd" points="24.476,183.258 24.176,183.258 23.996,183.318 23.876,183.378
		23.876,190.578 23.936,190.638 23.996,190.758 24.236,190.818 24.836,190.818 25.016,190.758 25.196,190.578 25.196,185.598
		25.316,185.478 25.496,185.238 25.976,184.758 26.216,184.638 26.276,184.518 25.076,184.458 25.076,183.498 25.016,183.378
		24.956,183.318 24.776,183.258 	"/>
	<path fill-rule="evenodd" clip-rule="evenodd" d="M27.416,183.138h-0.24c-0.619,0.055-1.155,0.39-1.62,0.78l-0.24,0.24l1.86,0.12
		h0.36l0.3,0.12l0.24,0.18l0.24,0.24v0.06l0.18,0.24l0.06,0.36l0.06,0.24l0.06,0.36v4.56l0.12,0.12l0.18,0.06h0.66l0.18-0.06
		l0.12-0.12v-5.1l-0.12-0.6v-0.06l-0.12-0.3c-0.135-0.451-0.646-1.021-1.08-1.2l-0.24-0.12l-0.6-0.12"/>
	<polyline fill-rule="evenodd" clip-rule="evenodd" points="37.136,183.258 36.836,183.258 36.596,183.318 36.416,183.378
		36.296,183.558 33.656,186.438 33.656,186.618 36.596,190.578 36.716,190.698 36.896,190.758 37.136,190.818 37.796,190.818
		37.976,190.758 38.096,190.638 38.156,190.578 38.096,190.398 37.976,190.158 35.096,186.438 37.616,183.918 37.796,183.678
		37.856,183.498 37.796,183.378 37.736,183.318 37.496,183.258 	"/>
	<polyline fill-rule="evenodd" clip-rule="evenodd" points="32.996,179.838 32.696,179.838 32.456,179.898 32.396,179.958
		32.336,180.078 32.336,190.578 32.396,190.638 32.456,190.758 32.696,190.818 33.296,190.818 33.476,190.758 33.596,190.638
		33.656,190.578 33.656,180.078 33.596,179.958 33.476,179.898 33.296,179.838 	"/>
	<path fill-rule="evenodd" clip-rule="evenodd" d="M48.116,188.898l-0.24,0.12c-0.435,0.317-0.893,0.648-1.44,0.72l-0.36,0.06
		l2.22,0.06l0.06-0.12v-0.54l-0.06-0.18l-0.06-0.12"/>
	<path fill-rule="evenodd" clip-rule="evenodd" d="M43.616,184.218l-0.36,0.48c-0.681,1.492-0.693,3.544,0.12,4.98l0.18,0.24
		l0.24,0.24c1.166,1.044,3.117,0.936,4.32,0l0.12-0.18l0.06-0.12l-2.22-0.06c-2.553,0.257-2.605-5.385-0.36-5.52l0.3-0.06"/>
	<path fill-rule="evenodd" clip-rule="evenodd" d="M46.076,183.138h-0.06c-1.056,0.101-1.485,0.153-2.28,0.96l-0.12,0.12h2.4
		c0.753,0.089,1.189,0.237,1.8,0.72l0.24,0.12l0.18-0.12l0.06-0.06v-0.6l-0.06-0.18v-0.12l-0.18-0.12v-0.06l-0.3-0.18l-0.18-0.12
		l-0.3-0.12l-0.24-0.06l-0.3-0.12h-0.06l-0.3-0.06"/>
	<path fill-rule="evenodd" clip-rule="evenodd" d="M55.736,184.158l-2.64,0.06h0.12c0.499,0.059,1.054,0.18,1.38,0.6l0.18,0.24h0.06
		l0.12,0.3c0.671,1.555,0.398,4.589-1.92,4.44l-2.64,0.12h0.06l0.18,0.24c4.137,2.532,7.315-1.536,5.46-5.52l-0.18-0.24"/>
	<path fill-rule="evenodd" clip-rule="evenodd" d="M53.156,183.138h-0.06c-3.468-0.122-4.381,4.086-2.88,6.54l0.18,0.24l2.64-0.12
		h-0.12c-2.771,0.192-2.773-5.859,0.18-5.58l2.64-0.06v-0.06c-0.525-0.511-1.183-0.825-1.92-0.9l-0.3-0.06"/>
	<polyline fill-rule="evenodd" clip-rule="evenodd" points="59.996,184.158 59.756,184.458 60.956,184.518 61.556,184.278
		61.856,184.278 	"/>
	<polyline fill-rule="evenodd" clip-rule="evenodd" points="59.156,183.258 58.856,183.258 58.676,183.318 58.556,183.378
		58.556,190.578 58.616,190.638 58.676,190.758 58.916,190.818 59.516,190.818 59.696,190.758 59.876,190.578 59.876,185.598
		59.996,185.478 60.176,185.238 60.656,184.758 60.896,184.638 60.956,184.518 59.756,184.458 59.756,183.498 59.696,183.378
		59.636,183.318 59.456,183.258 	"/>
	<path fill-rule="evenodd" clip-rule="evenodd" d="M62.096,183.138h-0.24c-0.62,0.055-1.154,0.389-1.62,0.78l-0.24,0.24l1.86,0.12
		h0.36l0.3,0.12l0.24,0.18l0.24,0.24v0.06l0.18,0.24l0.06,0.36l0.06,0.24l0.06,0.36v4.56l0.12,0.12l0.18,0.06h0.66l0.18-0.06
		l0.12-0.12v-5.1l-0.12-0.6v-0.06l-0.12-0.3c-0.135-0.451-0.646-1.021-1.08-1.2l-0.24-0.12l-0.3-0.06l-0.3-0.06"/>
	<polyline fill-rule="evenodd" clip-rule="evenodd" points="68.396,184.158 68.156,184.458 69.356,184.518 69.956,184.278
		70.256,184.278 	"/>
	<polyline fill-rule="evenodd" clip-rule="evenodd" points="67.556,183.258 67.256,183.258 67.076,183.318 66.956,183.378
		66.956,190.578 67.016,190.638 67.076,190.758 67.316,190.818 67.916,190.818 68.096,190.758 68.276,190.578 68.276,185.598
		68.396,185.478 68.576,185.238 69.056,184.758 69.296,184.638 69.356,184.518 68.156,184.458 68.156,183.498 68.096,183.378
		68.036,183.318 67.856,183.258 	"/>
	<path fill-rule="evenodd" clip-rule="evenodd" d="M70.496,183.138h-0.24c-0.62,0.055-1.154,0.389-1.62,0.78l-0.24,0.24l1.86,0.12
		h0.36l0.3,0.12l0.24,0.18l0.24,0.24v0.06l0.18,0.24l0.06,0.36l0.06,0.24l0.06,0.36v4.56l0.12,0.12l0.18,0.06h0.66l0.18-0.06
		l0.12-0.12v-5.1l-0.12-0.6v-0.06l-0.12-0.3c-0.135-0.451-0.646-1.021-1.08-1.2l-0.24-0.12l-0.3-0.06l-0.3-0.06"/>
	<path fill-rule="evenodd" clip-rule="evenodd" d="M80.936,189.318l-0.3,0.06c-0.618,0.353-1.337,0.478-2.04,0.48l-2.76,0.06
		l0.3,0.3c0.865,0.655,1.953,0.721,3,0.66l0.3-0.06h0.18l0.3-0.06l0.3-0.12l0.24-0.06l0.3-0.12l0.24-0.12l0.06-0.12l0.06-0.06v-0.18
		l0.06-0.18l-0.06-0.24v-0.12l-0.06-0.12"/>
	<path fill-rule="evenodd" clip-rule="evenodd" d="M80.696,184.098l-2.4,0.06h0.36c0.988,0.287,1.362,0.779,1.5,1.8v0.36h-3.84
		l-1.32,0.06l-0.06,0.36c-0.07,0.862,0.225,2.591,0.9,3.18l2.76-0.06h-0.18c-1.405-0.127-2.045-0.84-2.1-2.22v-0.36h4.68l0.3-0.12
		l0.06-0.12l0.06-0.3v-0.96l-0.12-0.6l-0.12-0.24l-0.12-0.3l-0.18-0.24"/>
	<path fill-rule="evenodd" clip-rule="evenodd" d="M78.356,183.138h-0.18c-1.834,0.116-2.819,1.18-3.18,2.94v0.3l1.32-0.06v-0.18
		c0.053-1.127,0.834-1.983,1.98-1.98l2.4-0.06l-0.12-0.18c-0.465-0.343-0.982-0.659-1.56-0.72l-0.3-0.06"/>
	<path fill-rule="evenodd" clip-rule="evenodd" d="M88.256,188.898l-0.24,0.12c-0.435,0.317-0.893,0.648-1.44,0.72l-0.36,0.06
		l2.22,0.06l0.06-0.12v-0.54l-0.06-0.18l-0.06-0.12"/>
	<path fill-rule="evenodd" clip-rule="evenodd" d="M83.756,184.218l-0.18,0.24l-0.18,0.24c-0.681,1.492-0.693,3.544,0.12,4.98
		l0.18,0.24l0.24,0.24c1.166,1.044,3.117,0.936,4.32,0l0.12-0.18l0.06-0.12l-2.22-0.06c-2.553,0.257-2.605-5.385-0.36-5.52l0.3-0.06
		"/>
	<path fill-rule="evenodd" clip-rule="evenodd" d="M86.216,183.138h-0.06c-1.056,0.101-1.485,0.153-2.28,0.96l-0.12,0.12h2.4
		c0.753,0.089,1.188,0.237,1.8,0.72l0.24,0.12l0.18-0.12l0.06-0.06v-0.6l-0.06-0.18v-0.12l-0.18-0.12v-0.06l-0.3-0.18l-0.18-0.12
		l-0.3-0.12l-0.24-0.06l-0.3-0.12h-0.06l-0.3-0.06"/>
	<polyline fill-rule="evenodd" clip-rule="evenodd" points="93.716,189.558 93.596,189.618 93.416,189.678 93.176,189.738
		92.816,189.798 93.896,189.798 93.836,189.678 93.836,189.558 	"/>
	<path fill-rule="evenodd" clip-rule="evenodd" d="M91.196,181.338l-0.3,0.06h-0.24l-0.12,0.24v1.68h-1.08l-0.12,0.12v0.12
		l-0.06,0.3v0.12l0.06,0.24l0.24,0.18h0.96v4.2c-0.031,0.512,0.159,1.472,0.6,1.8l0.24,0.18l0.3,0.18l0.24,0.06l0.36,0.06h0.72
		l0.3-0.06l0.3-0.12l0.18-0.12l0.12-0.18v-0.6h-1.08c-0.907-0.038-0.964-0.782-0.96-1.5v-3.9h1.8l0.24-0.24v-0.6l-0.12-0.24h-1.92
		v-1.68l-0.06-0.12l-0.12-0.12h-0.18"/>
	<path fill-rule="evenodd" clip-rule="evenodd" d="M101.276,184.158l-2.64,0.06h0.12c0.609,0.05,1.247,0.273,1.56,0.84h0.06
		l0.12,0.3c0.671,1.555,0.398,4.589-1.92,4.44l-2.64,0.12h0.06l0.18,0.24c1.12,0.968,3.487,1.011,4.62,0.06l0.24-0.18l0.18-0.24
		c1.088-1.086,1.167-3.521,0.54-4.86l-0.12-0.3l-0.18-0.24"/>
	<path fill-rule="evenodd" clip-rule="evenodd" d="M98.696,183.138h-0.06c-3.468-0.122-4.381,4.086-2.88,6.54l0.18,0.24l2.64-0.12
		h-0.12c-2.771,0.192-2.773-5.859,0.18-5.58l2.64-0.06v-0.06c-0.525-0.511-1.184-0.825-1.92-0.9l-0.3-0.06"/>
	<polyline fill-rule="evenodd" clip-rule="evenodd" points="108.176,184.278 107.036,184.398 107.336,184.398 107.636,184.458
		107.816,184.518 107.996,184.578 108.116,184.458 	"/>
	<polyline fill-rule="evenodd" clip-rule="evenodd" points="104.636,183.258 104.336,183.258 104.156,183.318 104.036,183.378
		104.036,190.578 104.096,190.638 104.156,190.758 104.396,190.818 104.996,190.818 105.176,190.758 105.356,190.578
		105.356,185.898 105.476,185.658 105.836,185.178 106.076,184.938 106.256,184.698 106.376,184.578 105.236,184.518
		105.236,183.498 105.176,183.378 105.116,183.318 104.936,183.258 	"/>
	<path fill-rule="evenodd" clip-rule="evenodd" d="M107.156,183.138h-0.18l-0.3,0.06l-0.18,0.06l-0.48,0.36l-0.24,0.24l-0.18,0.12
		l-0.18,0.24l-0.18,0.3l1.14,0.06l0.3-0.12l0.06-0.06h0.3l1.14-0.12v-0.3c0.024-0.512,0.03-0.704-0.54-0.78l-0.24-0.06"/>

		<line fill="none" stroke="#000000" stroke-width="0.72" stroke-linecap="round" stroke-linejoin="round" stroke-miterlimit="10" x1="55.196" y1="170.058" x2="55.196" y2="140.238"/>

		<line fill="none" stroke="#000000" stroke-width="0.72" stroke-linecap="round" stroke-linejoin="round" stroke-miterlimit="10" x1="378.896" y1="73.398" x2="359.216" y2="73.398"/>
	<path fill-rule="evenodd" clip-rule="evenodd" d="M394.136,68.238l-3.42,0.12h0.18l0.36,0.06c2.074,0.096,3.212,1.807,3.12,3.84
		v0.54c-0.175,2.037-1.123,3.437-3.3,3.48h-1.74l4.92,0.06c1.95-1.621,2.082-5.932,0.3-7.74l-0.18-0.18"/>
	<path fill-rule="evenodd" clip-rule="evenodd" d="M390.776,67.278h-2.34l-0.3,0.12l-0.06,0.12l-0.06,0.3v9.24l0.12,0.24h0.06
		l0.3,0.12h2.88l0.36-0.06l0.9-0.18l0.24-0.06l0.6-0.24l0.24-0.18l0.3-0.18l0.24-0.18l-4.92-0.06v-7.92h1.38l3.42-0.12l-0.24-0.18
		c-0.819-0.625-1.416-0.568-2.4-0.78h-0.36"/>
	<path fill-rule="evenodd" clip-rule="evenodd" d="M403.256,75.978l-0.3,0.06c-0.618,0.353-1.337,0.478-2.04,0.48l-2.76,0.06
		l0.3,0.3c0.865,0.656,1.953,0.721,3,0.66l0.3-0.06h0.18l0.3-0.06l0.3-0.12l0.24-0.06l0.3-0.12l0.24-0.12l0.06-0.12l0.06-0.06v-0.18
		l0.06-0.18l-0.06-0.24v-0.12l-0.06-0.12"/>
	<path fill-rule="evenodd" clip-rule="evenodd" d="M403.016,70.758l-2.4,0.06h0.36c0.988,0.287,1.362,0.779,1.5,1.8v0.36h-3.84
		l-1.32,0.06l-0.06,0.36c-0.07,0.861,0.225,2.591,0.9,3.18l2.76-0.06h-0.18c-1.405-0.127-2.045-0.84-2.1-2.22v-0.36h4.68l0.3-0.12
		l0.06-0.12l0.06-0.3v-0.96l-0.12-0.6l-0.12-0.24l-0.12-0.3l-0.18-0.24"/>
	<path fill-rule="evenodd" clip-rule="evenodd" d="M400.676,69.798h-0.18c-1.834,0.116-2.819,1.18-3.18,2.94v0.3l1.32-0.06v-0.18
		c0.053-1.127,0.834-1.983,1.98-1.98l2.4-0.06l-0.12-0.18c-0.465-0.343-0.982-0.659-1.56-0.72l-0.3-0.06"/>
	<polyline fill-rule="evenodd" clip-rule="evenodd" points="408.356,76.278 406.856,76.338 406.976,76.458 409.076,76.458
		408.896,76.458 408.596,76.398 	"/>
	<polyline fill-rule="evenodd" clip-rule="evenodd" points="407.276,70.698 407.036,70.938 408.596,70.998 408.776,70.938
		409.136,70.938 	"/>
	<path fill-rule="evenodd" clip-rule="evenodd" d="M409.376,69.798h-0.3l-0.6,0.12l-0.3,0.12v0.06l-0.3,0.12l-0.24,0.18l-0.12,0.12
		l-0.24,0.18l1.86,0.24h0.24c0.975,0.138,1.468,1.279,1.44,2.16l0.06,0.3v0.36c-0.013,0.905-0.339,2.571-1.5,2.64l-0.3,0.06h-2.1
		l0.24,0.24l0.24,0.18v0.06l0.3,0.18l0.24,0.18l0.24,0.12c0.647,0.174,1.332,0.162,1.98,0l0.24-0.12l0.3-0.12
		c0.787-0.669,0.894-0.96,1.26-1.92v-0.06l0.12-0.6c0.239-1.665,0.016-3.971-1.8-4.62l-0.3-0.12l-0.3-0.06"/>
	<path fill-rule="evenodd" clip-rule="evenodd" d="M406.376,66.498h-0.3l-0.24,0.06l-0.06,0.06l-0.06,0.12v10.62l0.12,0.06
		l0.18,0.06h0.54l0.18-0.06l0.12-0.06v-1.02l1.5-0.06l-0.3-0.18l-0.12-0.06l-0.24-0.18l-0.24-0.24l-0.18-0.24l-0.24-0.24v-2.82
		l0.12-0.24c0.376-0.39,0.512-0.526,0.96-0.84l0.48-0.24l-1.56-0.06v-4.2l-0.06-0.12l-0.12-0.06l-0.18-0.06"/>
	<polyline fill-rule="evenodd" clip-rule="evenodd" points="417.836,76.158 417.536,76.338 416.936,76.458 418.796,76.518
		419.036,76.278 	"/>
	<path fill-rule="evenodd" clip-rule="evenodd" d="M414.776,69.918h-0.3l-0.18,0.06l-0.12,0.06l-0.06,0.12v4.32l0.06,0.36v0.36
		l0.06,0.3l0.06,0.24v0.12l0.24,0.6l0.18,0.24v0.06l0.24,0.24c0.939,0.809,2.389,0.666,3.36,0l0.48-0.48l-1.86-0.06h-0.06l-0.3-0.06
		l-0.3-0.12l-0.24-0.12l-0.24-0.24v-0.06l-0.18-0.3l-0.18-0.9v-4.62l-0.12-0.06l-0.24-0.06"/>
	<polyline fill-rule="evenodd" clip-rule="evenodd" points="419.576,69.918 419.276,69.918 419.036,69.978 418.976,70.038
		418.916,70.158 418.916,75.078 418.796,75.258 418.136,75.918 417.896,76.098 417.836,76.158 419.036,76.278 419.036,77.238
		419.096,77.298 419.156,77.418 419.336,77.478 419.936,77.478 420.116,77.418 420.176,77.298 420.236,77.238 420.236,70.158
		420.176,70.038 420.116,69.978 419.876,69.918 	"/>
	<path fill-rule="evenodd" clip-rule="evenodd" d="M422.576,76.758l-0.18,0.24c-0.584,0.505-0.795,1.46-0.42,2.16l0.06,0.12h3h-0.24
		c-1.547,0.052-2.389-0.949-1.14-2.16l0.24-0.24"/>
	<polyline fill-rule="evenodd" clip-rule="evenodd" points="426.716,74.418 423.536,74.478 423.776,74.658 424.136,74.778
		424.316,74.838 424.616,74.838 424.976,74.898 425.156,74.898 425.456,74.838 425.756,74.778 426.056,74.718 426.116,74.718
		426.416,74.538 	"/>
	<path fill-rule="evenodd" clip-rule="evenodd" d="M422.756,70.758l-0.18,0.24c-0.459,0.72-0.531,1.983,0,2.7l0.18,0.24l2.22-0.06
		h-0.3c-1.642-0.21-1.616-2.702-0.06-3.06h0.3"/>
	<path fill-rule="evenodd" clip-rule="evenodd" d="M424.976,69.798h-0.18l-0.36,0.06l-0.6,0.12l-0.06,0.06l-0.3,0.12l-0.48,0.36
		h-0.06l-0.18,0.24l2.16,0.06h0.36c1.282,0.147,1.599,2.088,0.6,2.76l-0.24,0.18h-0.06l-0.3,0.12h-0.3l-2.22,0.06l-0.12,0.12
		l-0.24,0.3l-0.24,0.48l-0.12,0.6v0.06l0.06,0.3l0.18,0.3l0.06,0.12l0.18,0.18l0.3,0.18l-0.24,0.18l1.32,0.12l1.8,0.12h0.48
		l0.3,0.12l0.24,0.12l0.18,0.12l0.18,0.24l0.06,0.36l-0.06,0.18l-0.06,0.3c-0.395,0.673-0.917,0.695-1.62,0.84h-3.36l0.54,0.54
		c1.153,0.52,2.426,0.571,3.66,0.36l0.24-0.12l0.3-0.06c1.202-0.35,2.045-1.754,1.44-2.94l-0.06-0.12l-0.18-0.24l-0.24-0.24
		l-0.18-0.12l-0.3-0.12l-0.3-0.12l-0.6-0.12h-0.36l-1.86-0.12h-0.06l-0.36-0.06l-0.24-0.12l-0.18-0.18l-0.06-0.3v-0.12l0.06-0.3
		l0.06-0.06l0.18-0.24l3.18-0.06l0.48-0.48l0.18-0.24l0.12-0.3l0.06-0.12c0.161-0.637,0.116-0.772,0.12-1.38l-0.12-0.3v-0.06
		l-0.12-0.3l-0.24-0.24h1.02l0.18-0.12l0.06-0.06v-0.42l-0.06-0.3l-0.18-0.12h-2.16l-0.18-0.06l-0.3-0.06h-0.3"/>
	<path fill-rule="evenodd" clip-rule="evenodd" d="M438.656,75.558l-0.24,0.12c-0.435,0.316-0.893,0.647-1.44,0.72l-0.36,0.06
		l2.22,0.06l0.06-0.12v-0.54l-0.06-0.18l-0.06-0.12"/>
	<path fill-rule="evenodd" clip-rule="evenodd" d="M434.156,70.878l-0.36,0.48c-0.681,1.492-0.693,3.544,0.12,4.98l0.18,0.24
		l0.24,0.24c1.166,1.044,3.117,0.936,4.32,0l0.12-0.18l0.06-0.12l-2.22-0.06c-2.553,0.257-2.605-5.384-0.36-5.52l0.3-0.06"/>
	<path fill-rule="evenodd" clip-rule="evenodd" d="M436.616,69.798h-0.06c-1.056,0.101-1.485,0.153-2.28,0.96l-0.12,0.12h2.4
		c0.753,0.089,1.189,0.237,1.8,0.72l0.24,0.12l0.18-0.12l0.06-0.06v-0.6l-0.06-0.18v-0.12l-0.18-0.12v-0.06l-0.3-0.18l-0.18-0.12
		l-0.3-0.12l-0.24-0.06l-0.3-0.12h-0.06l-0.3-0.06"/>
	<path fill-rule="evenodd" clip-rule="evenodd" d="M446.336,70.818l-2.64,0.06h0.12c0.609,0.05,1.247,0.273,1.56,0.84h0.06l0.12,0.3
		c0.671,1.555,0.398,4.589-1.92,4.44l-2.64,0.12h0.06l0.18,0.24c1.12,0.968,3.487,1.011,4.62,0.06l0.24-0.18l0.18-0.24
		c1.088-1.086,1.167-3.521,0.54-4.86l-0.12-0.3l-0.18-0.24"/>
	<path fill-rule="evenodd" clip-rule="evenodd" d="M443.756,69.798h-0.06c-3.468-0.122-4.381,4.086-2.88,6.54l0.18,0.24l2.64-0.12
		h-0.12c-2.771,0.192-2.773-5.859,0.18-5.58l2.64-0.06v-0.06c-0.525-0.511-1.183-0.825-1.92-0.9l-0.3-0.06"/>
	<polyline fill-rule="evenodd" clip-rule="evenodd" points="450.536,70.818 450.296,71.118 451.496,71.178 451.796,71.058
		452.096,70.938 452.396,70.938 	"/>
	<polyline fill-rule="evenodd" clip-rule="evenodd" points="449.696,69.918 449.396,69.918 449.216,69.978 449.096,70.038
		449.096,77.238 449.156,77.298 449.216,77.418 449.456,77.478 450.056,77.478 450.236,77.418 450.416,77.238 450.416,72.258
		450.536,72.138 450.716,71.898 451.196,71.418 451.436,71.298 451.496,71.178 450.296,71.118 450.296,70.158 450.236,70.038
		450.176,69.978 449.996,69.918 	"/>
	<path fill-rule="evenodd" clip-rule="evenodd" d="M452.636,69.798h-0.24c-0.62,0.055-1.154,0.389-1.62,0.78l-0.24,0.24l1.86,0.12
		h0.36l0.3,0.12l0.24,0.18l0.24,0.24v0.06l0.18,0.24l0.06,0.36l0.06,0.24l0.06,0.36v4.56l0.12,0.12l0.18,0.06h0.66l0.18-0.06
		l0.12-0.12v-5.1l-0.12-0.6v-0.06l-0.12-0.3c-0.135-0.451-0.646-1.021-1.08-1.2l-0.24-0.12l-0.6-0.12"/>
	<polyline fill-rule="evenodd" clip-rule="evenodd" points="458.996,70.818 458.756,71.118 459.956,71.178 460.256,71.058
		460.556,70.938 460.856,70.938 	"/>
	<polyline fill-rule="evenodd" clip-rule="evenodd" points="458.156,69.918 457.856,69.918 457.676,69.978 457.556,70.038
		457.556,77.238 457.616,77.298 457.676,77.418 457.916,77.478 458.516,77.478 458.696,77.418 458.876,77.238 458.876,72.258
		458.996,72.138 459.176,71.898 459.656,71.418 459.896,71.298 459.956,71.178 458.756,71.118 458.756,70.158 458.696,70.038
		458.636,69.978 458.456,69.918 	"/>
	<path fill-rule="evenodd" clip-rule="evenodd" d="M461.096,69.798h-0.24c-0.62,0.055-1.154,0.389-1.62,0.78l-0.24,0.24l1.86,0.12
		h0.36l0.3,0.12l0.24,0.18l0.24,0.24v0.06l0.18,0.24l0.06,0.36l0.06,0.24l0.06,0.36v4.56l0.12,0.12l0.18,0.06h0.66l0.18-0.06
		l0.12-0.12v-5.1l-0.12-0.6v-0.06l-0.12-0.3c-0.135-0.451-0.646-1.021-1.08-1.2l-0.24-0.12l-0.6-0.12"/>
	<path fill-rule="evenodd" clip-rule="evenodd" d="M471.476,75.978l-0.3,0.06c-0.618,0.353-1.337,0.478-2.04,0.48l-2.76,0.06
		l0.3,0.3c0.865,0.656,1.953,0.721,3,0.66l0.3-0.06h0.18l0.3-0.06l0.3-0.12l0.24-0.06l0.3-0.12l0.24-0.12l0.06-0.12l0.06-0.06v-0.18
		l0.06-0.18l-0.06-0.24v-0.12l-0.06-0.12"/>
	<path fill-rule="evenodd" clip-rule="evenodd" d="M471.236,70.758l-2.4,0.06h0.36c0.988,0.287,1.362,0.779,1.5,1.8v0.36h-3.84
		l-1.32,0.06l-0.06,0.36c-0.07,0.861,0.225,2.591,0.9,3.18l2.76-0.06h-0.18c-1.405-0.127-2.045-0.84-2.1-2.22v-0.36h4.68l0.3-0.12
		l0.06-0.12l0.06-0.3v-0.96l-0.12-0.6l-0.12-0.24l-0.12-0.3l-0.18-0.24"/>
	<path fill-rule="evenodd" clip-rule="evenodd" d="M468.896,69.798h-0.18c-1.834,0.116-2.819,1.18-3.18,2.94v0.3l1.32-0.06v-0.18
		c0.053-1.127,0.834-1.983,1.98-1.98l2.4-0.06l-0.12-0.18c-0.465-0.343-0.982-0.659-1.56-0.72l-0.3-0.06"/>
	<path fill-rule="evenodd" clip-rule="evenodd" d="M478.856,75.558l-0.24,0.12c-0.435,0.316-0.893,0.648-1.44,0.72l-0.36,0.06
		l2.22,0.06l0.06-0.12v-0.54l-0.06-0.18l-0.06-0.12"/>
	<path fill-rule="evenodd" clip-rule="evenodd" d="M474.356,70.878l-0.36,0.48c-0.681,1.492-0.693,3.544,0.12,4.98l0.18,0.24
		l0.24,0.24c1.166,1.044,3.117,0.936,4.32,0l0.12-0.18l0.06-0.12l-2.22-0.06c-2.553,0.257-2.605-5.384-0.36-5.52l0.3-0.06"/>
	<path fill-rule="evenodd" clip-rule="evenodd" d="M476.816,69.798h-0.06c-1.056,0.101-1.485,0.153-2.28,0.96l-0.12,0.12h2.4
		c0.753,0.089,1.189,0.237,1.8,0.72l0.24,0.12l0.18-0.12l0.06-0.06v-0.6l-0.06-0.18v-0.12l-0.18-0.12v-0.06l-0.3-0.18l-0.18-0.12
		l-0.3-0.12l-0.24-0.06l-0.3-0.12h-0.06l-0.3-0.06"/>
	<polyline fill-rule="evenodd" clip-rule="evenodd" points="484.256,76.218 484.136,76.278 483.956,76.338 483.716,76.398
		483.356,76.458 484.436,76.458 484.376,76.338 484.376,76.218 	"/>
	<path fill-rule="evenodd" clip-rule="evenodd" d="M481.736,67.998l-0.3,0.06h-0.24l-0.12,0.24v1.68h-1.08l-0.12,0.12v0.12
		l-0.06,0.3v0.12l0.06,0.24l0.24,0.18h0.96v4.2c-0.031,0.512,0.159,1.472,0.6,1.8l0.24,0.18l0.3,0.18l0.24,0.06l0.36,0.06h0.72
		l0.3-0.06l0.3-0.12l0.18-0.12l0.12-0.18v-0.6h-1.08c-0.907-0.038-0.964-0.782-0.96-1.5v-3.9h1.8l0.24-0.24v-0.6l-0.12-0.24h-1.92
		v-1.68l-0.06-0.12l-0.12-0.12h-0.18"/>
	<path fill-rule="evenodd" clip-rule="evenodd" d="M491.876,70.818l-2.64,0.06h0.12c0.499,0.059,1.053,0.18,1.38,0.6l0.18,0.24h0.06
		l0.12,0.3c0.671,1.555,0.398,4.589-1.92,4.44l-2.64,0.12h0.06l0.18,0.24c1.12,0.968,3.487,1.011,4.62,0.06l0.24-0.18l0.18-0.24
		c1.088-1.086,1.167-3.521,0.54-4.86l-0.12-0.3l-0.18-0.24"/>
	<path fill-rule="evenodd" clip-rule="evenodd" d="M489.296,69.798h-0.06c-3.468-0.122-4.381,4.086-2.88,6.54l0.18,0.24l2.64-0.12
		h-0.12c-2.771,0.192-2.773-5.859,0.18-5.58l2.64-0.06v-0.06l-0.24-0.18c-0.426-0.458-1.075-0.628-1.68-0.72l-0.3-0.06"/>
	<polyline fill-rule="evenodd" clip-rule="evenodd" points="498.776,70.938 497.636,71.058 497.936,71.058 498.236,71.118
		498.416,71.178 498.596,71.238 498.716,71.118 	"/>
	<polyline fill-rule="evenodd" clip-rule="evenodd" points="495.236,69.918 494.936,69.918 494.756,69.978 494.636,70.038
		494.636,77.238 494.696,77.298 494.756,77.418 494.996,77.478 495.596,77.478 495.776,77.418 495.956,77.238 495.956,72.558
		496.076,72.318 496.436,71.838 496.676,71.598 496.856,71.358 496.976,71.238 495.836,71.178 495.836,70.158 495.776,70.038
		495.716,69.978 495.536,69.918 	"/>
	<path fill-rule="evenodd" clip-rule="evenodd" d="M497.756,69.798h-0.18l-0.3,0.06l-0.18,0.06l-0.48,0.36l-0.24,0.24l-0.18,0.12
		l-0.18,0.24l-0.18,0.3l1.14,0.06l0.3-0.12l0.06-0.06h0.3l1.14-0.12v-0.3c0.024-0.512,0.03-0.704-0.54-0.78l-0.24-0.06"/>
</g>
</svg>
