<?xml version="1.0" encoding="UTF-8" standalone="no"?>
<!DOCTYPE svg PUBLIC "-//W3C//DTD SVG 1.1//EN" "http://www.w3.org/Graphics/SVG/1.1/DTD/svg11.dtd">
<!-- Generated by Microsoft Visio, SVG Export nrf_desktop_arch.svg Page-1 -->
<svg xmlns="http://www.w3.org/2000/svg" xmlns:xlink="http://www.w3.org/1999/xlink" xmlns:ev="http://www.w3.org/2001/xml-events"
		width="7.41085in" height="6.95555in" viewBox="0 0 533.581 500.8" xml:space="preserve" color-interpolation-filters="sRGB"
		class="st17">
	<style type="text/css">
	<![CDATA[
		.st1 {fill:#d9e1e2;stroke:none;stroke-width:1}
		.st2 {fill:#00a9ce;stroke:none;stroke-width:1}
		.st3 {fill:#ffffff;font-family:Calibri;font-size:1.00001em}
		.st4 {font-size:1em}
		.st5 {font-size:0.83333em}
		.st6 {fill:#768692;stroke:none;stroke-width:1}
		.st7 {fill:#ffffff;font-family:Calibri;font-size:0.666664em}
		.st8 {fill:#0077c8;stroke:none;stroke-width:1}
		.st9 {marker-end:url(#mrkr13-51);marker-start:url(#mrkr13-49);stroke:#333f48;stroke-linecap:butt;stroke-width:1}
		.st10 {fill:#333f48;fill-opacity:1;stroke:#333f48;stroke-opacity:1;stroke-width:0.40983606557377}
		.st11 {fill:#ffffff;font-family:Calibri;font-size:0.833336em}
		.st12 {fill:none;stroke:#768692;stroke-width:1}
		.st13 {fill:none;stroke:none;stroke-width:1}
		.st14 {fill:#333f48;font-family:Calibri;font-size:0.833336em}
		.st15 {fill:#768692;font-family:Calibri;font-size:1.00001em}
		.st16 {fill:none;stroke:#768692;stroke-dasharray:7,5;stroke-width:1}
		.st17 {fill:none;fill-rule:evenodd;font-size:12px;overflow:visible;stroke-linecap:square;stroke-miterlimit:3}
	]]>
	</style>

	<defs id="Markers">
		<g id="lend13">
			<path d="M 3 1 L 0 0 L 3 -1 L 3 1 " style="stroke:none"/>
		</g>
		<marker id="mrkr13-49" class="st10" refX="6.96" orient="auto" markerUnits="strokeWidth" overflow="visible">
			<use xlink:href="#lend13" transform="scale(2.44) "/>
		</marker>
		<marker id="mrkr13-51" class="st10" refX="-7.32" orient="auto" markerUnits="strokeWidth" overflow="visible">
			<use xlink:href="#lend13" transform="scale(-2.44,-2.44) "/>
		</marker>
	</defs>
	<g>
		<title>Page-1</title>
		<g id="shape1432-1" transform="translate(206.867,-376.515)">
			<title>Nordic Light Grey</title>
			<rect x="0" y="425.682" width="321.454" height="75.1181" class="st1"/>
		</g>
		<g id="shape1433-3" transform="translate(216.271,-405.899)">
			<title>Nordic Blue.1433</title>
			<desc>Nordic proprietary Bluetooth® LE Link layer</desc>
			<rect x="0" y="463.241" width="153.264" height="37.5591" class="st2"/>
			<text x="31.37" y="478.42" class="st3">Nordic proprietary <tspan x="18.47" dy="1.2em" class="st4">Bluetooth</tspan><tspan
						class="st5">®</tspan> LE Link layer</text>		</g>
		<g id="shape1434-8" transform="translate(377.867,-405.899)">
			<title>Nordic Blue.1434</title>
			<desc>Zephyr SW Bluetooth® LE Link layer</desc>
			<rect x="0" y="463.241" width="141.889" height="37.5591" class="st6"/>
			<text x="44.59" y="478.42" class="st3">Zephyr SW <tspan x="12.79" dy="1.2em" class="st4">Bluetooth</tspan><tspan
						class="st5">®</tspan> LE Link layer</text>		</g>
		<g id="shape1435-13" transform="translate(216.271,-384.689)">
			<title>Nordic Sky</title>
			<desc>Host layer</desc>
			<rect x="0" y="484.818" width="303.485" height="15.9815" class="st6"/>
			<text x="127.08" y="496.41" class="st3">Host layer</text>		</g>
		<g id="shape1439-16" transform="translate(326.696,-316.626)">
			<title>Nordic Blue.1439</title>
			<desc>Discovery manager</desc>
			<rect x="0" y="462.942" width="44.6363" height="37.8577" class="st2"/>
			<text x="6.57" y="479.47" class="st7">Discovery <tspan x="7.92" dy="1.2em" class="st4">manager</tspan></text>		</g>
		<g id="shape1449-20" transform="translate(288.356,-259.348)">
			<title>Nordic Lake.1449</title>
			<desc>BAS</desc>
			<rect x="0" y="472.453" width="21.1383" height="28.3465" class="st8"/>
			<text x="4.24" y="489.03" class="st7">BAS</text>		</g>
		<g id="shape1450-23" transform="translate(498.599,-259.348)">
			<title>Nordic Lake.1450</title>
			<desc>Device descr.</desc>
			<rect x="0" y="472.453" width="29.9636" height="28.3465" class="st8"/>
			<text x="4.12" y="484.23" class="st7">Device <tspan x="5.23" dy="1.2em" class="st4">descr.</tspan></text>		</g>
		<g id="shape1456-27" transform="translate(106.894,-376.515)">
			<title>Nordic Blue.1456</title>
			<desc>ADC driver</desc>
			<rect x="0" y="472.453" width="33.6339" height="28.3465" class="st6"/>
			<text x="9.91" y="484.23" class="st7">ADC <tspan x="7.21" dy="1.2em" class="st4">driver</tspan></text>		</g>
		<g id="shape1457-31" transform="translate(75.9312,-376.515)">
			<title>Nordic Blue.1457</title>
			<desc>PWM driver</desc>
			<rect x="0" y="472.453" width="28.9399" height="28.3465" class="st6"/>
			<text x="5.43" y="484.23" class="st7">PWM <tspan x="4.86" dy="1.2em" class="st4">driver</tspan></text>		</g>
		<g id="shape1458-35" transform="translate(41.4496,-376.515)">
			<title>Nordic Blue.1458</title>
			<desc>QDEC driver</desc>
			<rect x="0" y="472.453" width="32.459" height="28.3465" class="st6"/>
			<text x="6.99" y="484.23" class="st7">QDEC <tspan x="6.62" dy="1.2em" class="st4">driver</tspan></text>		</g>
		<g id="shape1459-39" transform="translate(3.7705,-377.097)">
			<title>Nordic Blue.1459</title>
			<desc>SPI driver</desc>
			<rect x="0" y="472.453" width="32.459" height="28.3465" class="st6"/>
			<text x="11.32" y="484.23" class="st7">SPI <tspan x="6.62" dy="1.2em" class="st4">driver</tspan></text>		</g>
		<g id="shape1461-43" transform="translate(341.928,-375.879)">
			<title>Dynamic connector.1461</title>
			<path d="M7.09 507.76 L7.09 508.12 L7.09 514.87" class="st9"/>
		</g>
		<g id="shape1464-52" transform="translate(3.7705,-316.626)">
			<title>Nordic Blue.1464</title>
			<desc>Motion sensor driver</desc>
			<rect x="0" y="466.112" width="34.7653" height="34.6873" class="st2"/>
			<text x="5.38" y="476.26" class="st7">Motion <tspan x="6.66" dy="1.2em" class="st4">sensor </tspan><tspan x="7.78"
						dy="1.2em" class="st4">driver</tspan></text>		</g>
		<g id="shape1465-57" transform="translate(12.9134,-377.097)">
			<title>Dynamic connector.1465</title>
			<path d="M7.09 507.76 L7.09 508.12 L7.09 519.26" class="st9"/>
		</g>
		<g id="shape1466-64" transform="translate(13.5008,-316.626)">
			<title>Dynamic connector.1466</title>
			<path d="M7.09 507.76 L7.09 508.12 L7.09 522.41" class="st9"/>
		</g>
		<g id="shape1467-71" transform="translate(144.573,-259.348)">
			<title>Nordic Lake.1467</title>
			<desc>Passkey</desc>
			<rect x="0" y="472.453" width="33.6339" height="28.3465" class="st8"/>
			<text x="4.09" y="489.03" class="st7">Passkey</text>		</g>
		<g id="shape1468-74" transform="translate(106.894,-259.348)">
			<title>Nordic Lake.1468</title>
			<desc>Battery meas.</desc>
			<rect x="0" y="472.453" width="33.6339" height="28.3465" class="st8"/>
			<text x="4.85" y="484.23" class="st7">Battery <tspan x="7.14" dy="1.2em" class="st4">meas.</tspan></text>		</g>
		<g id="shape1469-78" transform="translate(77.9538,-259.348)">
			<title>Nordic Lake.1469</title>
			<desc>LEDs</desc>
			<rect x="0" y="472.453" width="24.8947" height="28.3465" class="st8"/>
			<text x="4.79" y="489.03" class="st7">LEDs</text>		</g>
		<g id="shape1470-81" transform="translate(41.4496,-259.348)">
			<title>Nordic Lake.1470</title>
			<desc>Wheel</desc>
			<rect x="0" y="472.453" width="32.459" height="28.3465" class="st8"/>
			<text x="5.67" y="489.03" class="st7">Wheel</text>		</g>
		<g id="shape1471-84" transform="translate(182.252,-259.348)">
			<title>Nordic Lake.1471</title>
			<desc>HID state</desc>
			<rect x="0" y="472.453" width="24.8947" height="28.3465" class="st8"/>
			<text x="6.49" y="484.23" class="st7">HID <tspan x="4.3" dy="1.2em" class="st4">state</tspan></text>		</g>
		<g id="shape1472-88" transform="translate(3.7705,-259.348)">
			<title>Nordic Lake.1472</title>
			<desc>Motion sensor</desc>
			<rect x="0" y="472.453" width="33.6339" height="28.3465" class="st8"/>
			<text x="4.82" y="484.23" class="st7">Motion <tspan x="6.09" dy="1.2em" class="st4">sensor</tspan></text>		</g>
		<g id="shape1440-92" transform="translate(249.909,-316.626)">
			<title>Nordic Blue.1440</title>
			<desc>HID Service</desc>
			<rect x="0" y="462.942" width="34.3085" height="37.8577" class="st2"/>
			<text x="11.19" y="479.47" class="st7">HID <tspan x="5.53" dy="1.2em" class="st4">Service </tspan></text>		</g>
		<g id="shape1448-96" transform="translate(250.002,-259.348)">
			<title>Nordic Lake.1448</title>
			<desc>HID Service</desc>
			<rect x="0" y="472.453" width="34.3085" height="28.3465" class="st8"/>
			<text x="11.19" y="484.23" class="st7">HID <tspan x="5.53" dy="1.2em" class="st4">Service</tspan></text>		</g>
		<g id="shape1454-100" transform="translate(260.023,-316.626)">
			<title>Dynamic connector</title>
			<path d="M7.06 507.76 L7.06 508.12 L7.11 522.41" class="st9"/>
		</g>
		<g id="shape1455-107" transform="translate(259.977,-376.515)">
			<title>Dynamic connector.1455</title>
			<path d="M7.09 507.76 L7.09 508.12 L7.09 515.51" class="st9"/>
		</g>
		<g id="shape1438-114" transform="translate(211.005,-316.626)">
			<title>Nordic Blue</title>
			<desc>HID Service client</desc>
			<rect x="0" y="462.942" width="34.7653" height="37.8577" class="st2"/>
			<text x="11.42" y="474.67" class="st7">HID <tspan x="5.75" dy="1.2em" class="st4">Service </tspan><tspan x="8.42"
						dy="1.2em" class="st4">client</tspan></text>		</g>
		<g id="shape1441-119" transform="translate(211.192,-259.348)">
			<title>Nordic Lake</title>
			<desc>HID forward</desc>
			<rect x="0" y="472.453" width="34.7653" height="28.3465" class="st8"/>
			<text x="11.42" y="484.23" class="st7">HID <tspan x="4.39" dy="1.2em" class="st4">forward</tspan></text>		</g>
		<g id="shape1462-123" transform="translate(221.302,-376.515)">
			<title>Dynamic connector.1462</title>
			<path d="M7.09 507.76 L7.09 508.12 L7.09 515.51" class="st9"/>
		</g>
		<g id="shape1463-130" transform="translate(221.488,-316.626)">
			<title>Dynamic connector.1463</title>
			<path d="M7.09 507.76 L7.09 508.12 L7.09 522.41" class="st9"/>
		</g>
		<g id="shape2140-137" transform="translate(306.012,-377.189)">
			<title>Dynamic connector.2140</title>
			<path d="M-7.09 507.76 L-7.09 508.12 L-7.09 582.98" class="st9"/>
		</g>
		<g id="shape2141-144" transform="translate(506.374,-376.634)">
			<title>Dynamic connector.2141</title>
			<path d="M6.98 507.76 L6.99 508.12 L7.19 582.42" class="st9"/>
		</g>
		<g id="shape2143-151" transform="translate(222.665,-174.808)">
			<title>Nordic Blue.2143</title>
			<desc>Event Manager</desc>
			<rect x="0" y="472.453" width="80.7218" height="28.3465" class="st2"/>
			<text x="9.46" y="489.63" class="st11">Event Manager</text>		</g>
		<g id="shape2145-154" transform="translate(298.925,-259.348)">
			<title>Dynamic connector.2145</title>
			<path d="M0 507.76 L0 508.12 L0 513.98 L-35.9 513.98 L-35.9 549.67" class="st9"/>
		</g>
		<g id="shape2155-161" transform="translate(272.178,-259.348)">
			<title>Dynamic connector.2155</title>
			<path d="M-5.02 507.76 L-5.02 508.12 L-5.02 513.98 L-9.15 513.98 L-9.15 549.67" class="st9"/>
		</g>
		<g id="shape2156-168" transform="translate(228.574,-259.348)">
			<title>Dynamic connector.2156</title>
			<path d="M0 507.76 L0 508.12 L0 513.98 L34.45 513.98 L34.45 549.67" class="st9"/>
		</g>
		<g id="shape2157-175" transform="translate(20.5874,-259.348)">
			<title>Dynamic connector.2157</title>
			<path d="M0 507.76 L0 508.12 L0 513.98 L242.44 513.98 L242.44 549.67" class="st9"/>
		</g>
		<g id="shape2158-182" transform="translate(194.699,-259.348)">
			<title>Dynamic connector.2158</title>
			<path d="M0 507.76 L0 508.12 L0 513.98 L68.33 513.98 L68.33 549.67" class="st9"/>
		</g>
		<g id="shape2159-189" transform="translate(57.6791,-259.348)">
			<title>Dynamic connector.2159</title>
			<path d="M0 507.76 L0 508.12 L0 513.98 L205.35 513.98 L205.35 549.67" class="st9"/>
		</g>
		<g id="shape2160-196" transform="translate(90.4011,-259.348)">
			<title>Dynamic connector.2160</title>
			<path d="M0 507.76 L0 508.12 L0 513.98 L172.62 513.98 L172.62 549.67" class="st9"/>
		</g>
		<g id="shape2161-203" transform="translate(123.711,-259.348)">
			<title>Dynamic connector.2161</title>
			<path d="M0 507.76 L0 508.12 L0 513.98 L139.32 513.98 L139.32 549.67" class="st9"/>
		</g>
		<g id="shape2162-210" transform="translate(161.39,-259.348)">
			<title>Dynamic connector.2162</title>
			<path d="M0 507.76 L0 508.12 L0 513.98 L101.64 513.98 L101.64 549.67" class="st9"/>
		</g>
		<g id="shape2163-217" transform="translate(3.7705,-106.776)">
			<title>Nordic Lake.2163</title>
			<desc>USB state</desc>
			<rect x="0" y="472.453" width="33.6339" height="28.3465" class="st8"/>
			<text x="10.24" y="484.23" class="st7">USB <tspan x="8.67" dy="1.2em" class="st4">state</tspan></text>		</g>
		<g id="shape2164-221" transform="translate(41.8145,-106.776)">
			<title>Nordic Lake.2164</title>
			<desc>Power mgmt</desc>
			<rect x="0" y="472.453" width="33.6339" height="28.3465" class="st8"/>
			<text x="6.4" y="484.23" class="st7">Power <tspan x="7.2" dy="1.2em" class="st4">mgmt</tspan></text>		</g>
		<g id="shape2165-225" transform="translate(79.8584,-106.776)">
			<title>Nordic Lake.2165</title>
			<desc>Settings loader</desc>
			<rect x="0" y="472.453" width="34.7653" height="28.3465" class="st8"/>
			<text x="4.41" y="484.23" class="st7">Settings <tspan x="6.95" dy="1.2em" class="st4">loader</tspan></text>		</g>
		<g id="shape2166-229" transform="translate(119.034,-106.776)">
			<title>Nordic Lake.2166</title>
			<desc>Failsafe</desc>
			<rect x="0" y="472.453" width="33.6339" height="28.3465" class="st8"/>
			<text x="4.54" y="489.03" class="st7">Failsafe</text>		</g>
		<g id="shape2167-232" transform="translate(157.078,-106.776)">
			<title>Nordic Lake.2167</title>
			<desc>DFU</desc>
			<rect x="0" y="472.453" width="24.8947" height="28.3465" class="st8"/>
			<text x="5.58" y="489.03" class="st7">DFU</text>		</g>
		<g id="shape2168-235" transform="translate(186.383,-106.776)">
			<title>Nordic Lake.2168</title>
			<desc>Watchdog</desc>
			<rect x="0" y="472.453" width="44.6363" height="28.3465" class="st8"/>
			<text x="5.62" y="489.03" class="st7">Watchdog</text>		</g>
		<g id="shape2169-238" transform="translate(235.429,-106.776)">
			<title>Nordic Lake.2169</title>
			<desc>Buttons</desc>
			<rect x="0" y="472.453" width="33.6339" height="28.3465" class="st8"/>
			<text x="4.08" y="489.03" class="st7">Buttons</text>		</g>
		<g id="shape2170-241" transform="translate(273.473,-106.776)">
			<title>Nordic Lake.2170</title>
			<desc>Selector</desc>
			<rect x="0" y="472.453" width="38.8587" height="28.3465" class="st8"/>
			<text x="6.16" y="489.03" class="st7">Selector</text>		</g>
		<g id="shape2171-244" transform="translate(316.742,-106.776)">
			<title>Nordic Lake.2171</title>
			<desc>Board</desc>
			<rect x="0" y="472.453" width="33.6339" height="28.3465" class="st8"/>
			<text x="7.12" y="489.03" class="st7">Board</text>		</g>
		<g id="shape2172-247" transform="translate(354.786,-106.776)">
			<title>Nordic Lake.2172</title>
			<desc>Battery charger</desc>
			<rect x="0" y="472.453" width="33.6339" height="28.3465" class="st8"/>
			<text x="4.85" y="484.23" class="st7">Battery <tspan x="4.45" dy="1.2em" class="st4">charger</tspan></text>		</g>
		<g id="shape2173-251" transform="translate(392.83,-106.776)">
			<title>Nordic Lake.2173</title>
			<desc>Click detector</desc>
			<rect x="0" y="472.453" width="38.8587" height="28.3465" class="st8"/>
			<text x="11.95" y="484.23" class="st7">Click <tspan x="5.47" dy="1.2em" class="st4">detector</tspan></text>		</g>
		<g id="shape2174-255" transform="translate(436.099,-106.776)">
			<title>Nordic Lake.2174</title>
			<desc>LED state</desc>
			<rect x="0" y="472.453" width="24.8947" height="28.3465" class="st8"/>
			<text x="6.35" y="484.23" class="st7">LED <tspan x="4.3" dy="1.2em" class="st4">state</tspan></text>		</g>
		<g id="shape2175-259" transform="translate(465.403,-106.776)">
			<title>Nordic Lake.2175</title>
			<desc>LED stream</desc>
			<rect x="0" y="472.453" width="33.6339" height="28.3465" class="st8"/>
			<text x="10.72" y="484.23" class="st7">LED <tspan x="5.42" dy="1.2em" class="st4">stream</tspan></text>		</g>
		<g id="shape2176-263" transform="translate(503.447,-106.776)">
			<title>Nordic Lake.2176</title>
			<desc>Info</desc>
			<rect x="0" y="472.453" width="24.8947" height="28.3465" class="st8"/>
			<text x="6.01" y="489.03" class="st7">Info</text>		</g>
		<g id="shape2177-266" transform="translate(20.5874,-135.123)">
			<title>Dynamic connector.2177</title>
			<path d="M0 493.84 L0 493.48 L0 482.92 L242.44 482.92 L242.44 468.43" class="st9"/>
		</g>
		<g id="shape2178-273" transform="translate(58.6314,-135.123)">
			<title>Dynamic connector.2178</title>
			<path d="M0 493.84 L0 493.48 L0 482.92 L204.39 482.92 L204.39 468.43" class="st9"/>
		</g>
		<g id="shape2179-280" transform="translate(97.2411,-135.123)">
			<title>Dynamic connector.2179</title>
			<path d="M0 493.84 L0 493.48 L0 482.92 L165.78 482.92 L165.78 468.43" class="st9"/>
		</g>
		<g id="shape2180-287" transform="translate(135.851,-135.123)">
			<title>Dynamic connector.2180</title>
			<path d="M0 493.84 L0 493.48 L0 482.92 L127.18 482.92 L127.18 468.43" class="st9"/>
		</g>
		<g id="shape2181-294" transform="translate(169.525,-135.123)">
			<title>Dynamic connector.2181</title>
			<path d="M0 493.84 L0 493.48 L0 482.92 L93.5 482.92 L93.5 468.43" class="st9"/>
		</g>
		<g id="shape2182-301" transform="translate(208.701,-135.123)">
			<title>Dynamic connector.2182</title>
			<path d="M0 493.84 L0 493.48 L0 482.92 L54.33 482.92 L54.33 468.43" class="st9"/>
		</g>
		<g id="shape2183-308" transform="translate(250.549,-135.123)">
			<title>Dynamic connector.2183</title>
			<path d="M1.7 493.84 L1.7 493.48 L1.7 482.92 L12.48 482.92 L12.48 468.43" class="st9"/>
		</g>
		<g id="shape2185-315" transform="translate(263.026,-174.808)">
			<title>Dynamic connector.2185</title>
			<path d="M0 507.76 L0 508.12 L0 522.61 L70.53 522.61 L70.53 533.16" class="st9"/>
		</g>
		<g id="shape2186-322" transform="translate(263.026,-174.808)">
			<title>Dynamic connector.2186</title>
			<path d="M0 507.76 L0 508.12 L0 522.61 L108.58 522.61 L108.58 533.16" class="st9"/>
		</g>
		<g id="shape2187-329" transform="translate(263.026,-174.808)">
			<title>Dynamic connector.2187</title>
			<path d="M0 507.76 L0 508.12 L0 522.61 L149.23 522.61 L149.23 533.16" class="st9"/>
		</g>
		<g id="shape2188-336" transform="translate(263.026,-174.808)">
			<title>Dynamic connector.2188</title>
			<path d="M0 507.76 L0 508.12 L0 522.61 L185.52 522.61 L185.52 533.16" class="st9"/>
		</g>
		<g id="shape2189-343" transform="translate(263.026,-174.808)">
			<title>Dynamic connector.2189</title>
			<path d="M0 507.76 L0 508.12 L0 522.61 L219.19 522.61 L219.19 533.16" class="st9"/>
		</g>
		<g id="shape2190-350" transform="translate(263.026,-174.808)">
			<title>Dynamic connector.2190</title>
			<path d="M0 507.76 L0 508.12 L0 522.61 L252.87 522.61 L252.87 533.16" class="st9"/>
		</g>
		<g id="shape2191-357" transform="translate(263.026,-174.808)">
			<title>Dynamic connector.2191</title>
			<path d="M0 507.76 L0 508.12 L0 522.61 L29.88 522.61 L29.88 533.16" class="st9"/>
		</g>
		<g id="shape2192-364" transform="translate(3.09587,-50.0832)">
			<title>Nordic Blue.2192</title>
			<desc>USB stack</desc>
			<rect x="0" y="467.391" width="34.3085" height="33.4083" class="st6"/>
			<text x="10.57" y="481.7" class="st7">USB <tspan x="8.82" dy="1.2em" class="st4">stack</tspan></text>		</g>
		<g id="shape2193-368" transform="translate(41.8145,-50.0832)">
			<title>Nordic Blue.2193</title>
			<desc>OS power mgmt</desc>
			<rect x="0" y="467.391" width="33.6339" height="33.4083" class="st6"/>
			<text x="12.33" y="476.9" class="st7">OS <tspan x="6.36" dy="1.2em" class="st4">power </tspan><tspan x="7.2" dy="1.2em"
						class="st4">mgmt</tspan></text>		</g>
		<g id="shape2194-373" transform="translate(81.5019,-50.0832)">
			<title>Nordic Blue.2194</title>
			<desc>Settings subsys</desc>
			<rect x="0" y="467.391" width="34.3085" height="33.4083" class="st6"/>
			<text x="4.18" y="481.7" class="st7">Settings <tspan x="6.45" dy="1.2em" class="st4">subsys</tspan></text>		</g>
		<g id="shape2195-377" transform="translate(3.7705,-1)">
			<title>Nordic Blue.2195</title>
			<desc>USB driver</desc>
			<rect x="0" y="472.453" width="34.3085" height="28.3465" class="st6"/>
			<text x="10.57" y="484.23" class="st7">USB <tspan x="7.55" dy="1.2em" class="st4">driver</tspan></text>		</g>
		<g id="shape2196-381" transform="translate(81.5019,-1)">
			<title>Nordic Blue.2196</title>
			<desc>FLASH driver</desc>
			<rect x="0" y="472.453" width="63.0708" height="28.3465" class="st6"/>
			<text x="10.86" y="489.03" class="st7">FLASH driver</text>		</g>
		<g id="shape2197-384" transform="translate(13.1635,-83.4915)">
			<title>Dynamic connector.2197</title>
			<path d="M7.09 493.84 L7.09 493.48 L7.09 484.9" class="st9"/>
		</g>
		<g id="shape2198-391" transform="translate(13.8381,-29.3465)">
			<title>Dynamic connector.2198</title>
			<path d="M7.09 493.84 L7.09 493.48 L7.09 487.38" class="st9"/>
		</g>
		<g id="shape2199-398" transform="translate(51.8821,-83.5844)">
			<title>Dynamic connector.2199</title>
			<path d="M7.09 493.84 L7.09 493.48 L7.09 485.45" class="st9"/>
		</g>
		<g id="shape2200-405" transform="translate(90.9762,-83.4915)">
			<title>Dynamic connector.2200</title>
			<path d="M7.09 493.84 L7.09 493.48 L7.09 485.17" class="st9"/>
		</g>
		<g id="shape2201-412" transform="translate(91.5695,-29.3465)">
			<title>Dynamic connector.2201</title>
			<path d="M7.09 493.84 L7.09 493.48 L7.09 487.38" class="st9"/>
		</g>
		<g id="shape2202-419" transform="translate(128.764,-29.3465)">
			<title>Dynamic connector.2202</title>
			<path d="M7.09 493.84 L7.09 493.48 L7.09 430.69" class="st9"/>
		</g>
		<g id="shape2203-426" transform="translate(235.429,-55.1451)">
			<title>Nordic Blue.2203</title>
			<desc>GPIO driver</desc>
			<rect x="0" y="472.453" width="152.991" height="28.3465" class="st6"/>
			<text x="57.74" y="489.03" class="st7">GPIO driver</text>		</g>
		<g id="shape2205-429" transform="translate(191.736,-21.7368)">
			<title>Nordic Blue.2205</title>
			<desc>Watchdog driver</desc>
			<rect x="0" y="472.453" width="43.6932" height="28.3465" class="st6"/>
			<text x="5.15" y="484.23" class="st7">Watchdog <tspan x="12.24" dy="1.2em" class="st4">driver</tspan></text>		</g>
		<g id="shape2206-433" transform="translate(151.069,-21.7368)">
			<title>Nordic Blue.2206</title>
			<desc>Image manager</desc>
			<rect x="0" y="472.453" width="38.8587" height="28.3465" class="st6"/>
			<text x="9.44" y="484.23" class="st7">Image <tspan x="5.03" dy="1.2em" class="st4">manager</tspan></text>		</g>
		<g id="shape2322-437" transform="translate(162.439,-50.0832)">
			<title>Dynamic connector.2322</title>
			<path d="M7.09 493.84 L7.09 493.48 L7.09 451.43" class="st9"/>
		</g>
		<g id="shape2323-444" transform="translate(201.614,-50.0832)">
			<title>Dynamic connector.2323</title>
			<path d="M7.09 493.84 L7.09 493.48 L7.09 451.43" class="st9"/>
		</g>
		<g id="shape2324-451" transform="translate(245.159,-83.4915)">
			<title>Dynamic connector.2324</title>
			<path d="M7.09 493.84 L7.09 493.48 L7.09 484.84" class="st9"/>
		</g>
		<g id="shape2325-458" transform="translate(285.816,-84.9679)">
			<title>Dynamic connector.2325</title>
			<path d="M7.09 493.84 L7.09 493.48 L7.09 486.31" class="st9"/>
		</g>
		<g id="shape2326-465" transform="translate(326.472,-84.0821)">
			<title>Dynamic connector.2326</title>
			<path d="M7.09 493.84 L7.09 493.48 L7.09 485.43" class="st9"/>
		</g>
		<g id="shape2327-472" transform="translate(364.516,-84.3774)">
			<title>Dynamic connector.2327</title>
			<path d="M7.09 493.84 L7.09 493.48 L7.09 485.72" class="st9"/>
		</g>
		<g id="group2344-479" transform="translate(3.7705,-432.902)">
			<title>Sheet.2344</title>
			<g id="shape2333-480">
				<title>Nordic Light Grey.2333</title>
				<rect x="0" y="433.902" width="80.4521" height="66.8976" class="st12"/>
			</g>
			<g id="shape2335-482" transform="translate(4.89191,-44.3524)">
				<title>Nordic Blue.1617</title>
				<rect x="0" y="485.094" width="15.4576" height="15.7058" class="st8"/>
			</g>
			<g id="shape2336-484" transform="translate(20.3495,-44.3524)">
				<title>Sheet.2336</title>
				<desc>Application</desc>
				<rect x="0" y="485.094" width="54.3499" height="15.7058" class="st13"/>
				<text x="4" y="496.55" class="st14">Application</text>			</g>
			<g id="shape2338-487" transform="translate(4.89191,-25.5959)">
				<title>Nordic Blue.1618</title>
				<rect x="0" y="485.094" width="15.4576" height="15.7058" class="st2"/>
			</g>
			<g id="shape2339-489" transform="translate(20.3495,-25.5959)">
				<title>Sheet.2339</title>
				<desc>NCS</desc>
				<rect x="0" y="485.094" width="54.3499" height="15.7058" class="st13"/>
				<text x="4" y="496.55" class="st14">NCS</text>			</g>
			<g id="shape2341-492" transform="translate(4.89191,-6.83943)">
				<title>Nordic Blue.2341</title>
				<rect x="0" y="485.094" width="15.4576" height="15.7058" class="st6"/>
			</g>
			<g id="shape2342-494" transform="translate(20.3495,-6.83943)">
				<title>Sheet.2342</title>
				<desc>Zephyr</desc>
				<rect x="0" y="485.094" width="54.3499" height="15.7058" class="st13"/>
				<text x="4" y="496.55" class="st14">Zephyr</text>			</g>
		</g>
		<g id="shape2346-497" transform="translate(409.615,-293.534)">
			<title>Sheet.2346</title>
			<desc>Bluetooth® LE</desc>
			<rect x="0" y="484.762" width="78.5842" height="16.0377" class="st13"/>
			<text x="5.16" y="496.38" class="st15">Bluetooth® LE</text>		</g>
		<g id="shape2345-500" transform="translate(316.742,-222.075)">
			<title>Nordic Blue.2345</title>
			<path d="M0 500.8 L171.46 500.8 L171.46 430.93 L0 430.93 L0 500.8 Z" class="st16"/>
		</g>
		<g id="shape1442-502" transform="translate(451.103,-228.207)">
			<title>Nordic Lake.1442</title>
			<desc>State</desc>
			<rect x="0" y="472.453" width="32.459" height="28.3465" class="st8"/>
			<text x="7.81" y="489.03" class="st7">State</text>		</g>
		<g id="shape1443-505" transform="translate(369.481,-259.348)">
			<title>Nordic Lake.1443</title>
			<desc>Advanced</desc>
			<rect x="0" y="472.453" width="44.6363" height="28.3465" class="st8"/>
			<text x="6.29" y="489.03" class="st7">Advanced</text>		</g>
		<g id="shape1444-508" transform="translate(416.743,-259.348)">
			<title>Nordic Lake.1444</title>
			<desc>Bond</desc>
			<rect x="0" y="472.453" width="29.8859" height="28.3465" class="st8"/>
			<text x="6.45" y="489.03" class="st7">Bond</text>		</g>
		<g id="shape1445-511" transform="translate(322.22,-259.348)">
			<title>Nordic Lake.1445</title>
			<desc>Discovery</desc>
			<rect x="0" y="472.453" width="44.6363" height="28.3465" class="st8"/>
			<text x="6.57" y="489.03" class="st7">Discovery</text>		</g>
		<g id="shape1446-514" transform="translate(414.13,-228.207)">
			<title>Nordic Lake.1446</title>
			<desc>Scan</desc>
			<rect x="0" y="472.453" width="32.459" height="28.3465" class="st8"/>
			<text x="8.68" y="489.03" class="st7">Scan</text>		</g>
		<g id="shape1447-517" transform="translate(449.254,-259.348)">
			<title>Nordic Lake.1447</title>
			<desc>Latency</desc>
			<rect x="0" y="472.453" width="34.3085" height="28.3465" class="st8"/>
			<text x="4.62" y="489.03" class="st7">Latency</text>		</g>
		<g id="shape1451-520" transform="translate(322.22,-228.207)">
			<title>Nordic Lake.1451</title>
			<desc>Connection parameters</desc>
			<rect x="0" y="472.453" width="51.4735" height="28.3465" class="st8"/>
			<text x="7.14" y="484.23" class="st7">Connection <tspan x="6.93" dy="1.2em" class="st4">parameters</tspan></text>		</g>
		<g id="shape1453-524" transform="translate(377.156,-228.207)">
			<title>Nordic Lake.1453</title>
			<desc>QoS</desc>
			<rect x="0" y="472.453" width="32.459" height="28.3465" class="st8"/>
			<text x="9.59" y="489.03" class="st7">QoS</text>		</g>
		<g id="shape1460-527" transform="translate(341.928,-316.626)">
			<title>Dynamic connector.1460</title>
			<path d="M7.09 507.76 L7.09 508.12 L7.09 522.41" class="st9"/>
		</g>
		<g id="shape2349-534" transform="translate(402.47,-222.075)">
			<title>Dynamic connector.2349</title>
			<path d="M0 507.76 L0 508.12 L0 533.89 L-91.76 533.89" class="st9"/>
		</g>
		<g id="shape2350-541" transform="translate(395.174,-377.768)">
			<title>Dynamic connector.2350</title>
			<path d="M6.91 507.76 L6.91 508.12 L7.26 579.3" class="st9"/>
		</g>
		<g id="shape2351-548" transform="translate(50.5925,-376.515)">
			<title>Dynamic connector.2351</title>
			<path d="M7.09 507.76 L7.09 508.12 L7.09 582.3" class="st9"/>
		</g>
		<g id="shape2352-555" transform="translate(83.3145,-376.515)">
			<title>Dynamic connector.2352</title>
			<path d="M7.09 507.76 L7.09 508.12 L7.09 582.3" class="st9"/>
		</g>
		<g id="shape2353-562" transform="translate(116.624,-376.515)">
			<title>Dynamic connector.2353</title>
			<path d="M7.09 507.76 L7.09 508.12 L7.09 582.3" class="st9"/>
		</g>
	</g>
</svg>
