<?xml version="1.0" encoding="UTF-8" standalone="no"?>
<!DOCTYPE svg PUBLIC "-//W3C//DTD SVG 1.1//EN" "http://www.w3.org/Graphics/SVG/1.1/DTD/svg11.dtd">
<!-- Generated by Microsoft Visio, SVG Export nrf_desktop_arch_gmouse.svg Page-1 -->
<svg xmlns="http://www.w3.org/2000/svg" xmlns:xlink="http://www.w3.org/1999/xlink" xmlns:ev="http://www.w3.org/2001/xml-events"
		width="7.32286in" height="6.45133in" viewBox="0 0 527.246 464.496" xml:space="preserve" color-interpolation-filters="sRGB"
		class="st17">
	<style type="text/css">
	<![CDATA[
		.st1 {fill:#d9e1e2;stroke:none;stroke-width:1}
		.st2 {fill:#00a9ce;stroke:none;stroke-width:1}
		.st3 {fill:#ffffff;font-family:Calibri;font-size:1.00001em}
		.st4 {font-size:1em}
		.st5 {font-size:0.83333em}
		.st6 {fill:#768692;stroke:none;stroke-width:1}
		.st7 {fill:#0077c8;stroke:none;stroke-width:1}
		.st8 {fill:#ffffff;font-family:Calibri;font-size:0.666664em}
		.st9 {marker-end:url(#mrkr13-46);marker-start:url(#mrkr13-44);stroke:#333f48;stroke-linecap:butt;stroke-width:1}
		.st10 {fill:#333f48;fill-opacity:1;stroke:#333f48;stroke-opacity:1;stroke-width:0.40983606557377}
		.st11 {fill:#ffffff;font-family:Calibri;font-size:0.833336em}
		.st12 {fill:none;stroke:#768692;stroke-width:1}
		.st13 {fill:none;stroke:none;stroke-width:1}
		.st14 {fill:#333f48;font-family:Calibri;font-size:0.833336em}
		.st15 {fill:#768692;font-family:Calibri;font-size:1.00001em}
		.st16 {fill:none;stroke:#768692;stroke-dasharray:7,5;stroke-width:1}
		.st17 {fill:none;fill-rule:evenodd;font-size:12px;overflow:visible;stroke-linecap:square;stroke-miterlimit:3}
	]]>
	</style>

	<defs id="Markers">
		<g id="lend13">
			<path d="M 3 1 L 0 0 L 3 -1 L 3 1 " style="stroke:none"/>
		</g>
		<marker id="mrkr13-44" class="st10" refX="6.96" orient="auto" markerUnits="strokeWidth" overflow="visible">
			<use xlink:href="#lend13" transform="scale(2.44) "/>
		</marker>
		<marker id="mrkr13-46" class="st10" refX="-7.32" orient="auto" markerUnits="strokeWidth" overflow="visible">
			<use xlink:href="#lend13" transform="scale(-2.44,-2.44) "/>
		</marker>
	</defs>
	<g>
		<title>Page-1</title>
		<g id="shape1432-1" transform="translate(194.474,-358.189)">
			<title>Nordic Light Grey</title>
			<rect x="0" y="389.378" width="331.751" height="75.1181" class="st1"/>
		</g>
		<g id="shape1433-3" transform="translate(206.605,-387.573)">
			<title>Nordic Blue.1433</title>
			<desc>Nordic proprietary Bluetooth速 LE Link layer</desc>
			<rect x="0" y="426.937" width="153.745" height="37.5591" class="st2"/>
			<text x="31.61" y="442.12" class="st3">Nordic proprietary <tspan x="18.72" dy="1.2em" class="st4">Bluetooth</tspan><tspan
						class="st5">速</tspan> LE Link layer</text>		</g>
		<g id="shape1435-8" transform="translate(206.605,-366.364)">
			<title>Nordic Sky</title>
			<desc>Host layer</desc>
			<rect x="0" y="448.514" width="307.194" height="15.9815" class="st6"/>
			<text x="128.94" y="460.11" class="st3">Host layer</text>		</g>
		<g id="shape1449-11" transform="translate(262.268,-250.447)">
			<title>Nordic Lake.1449</title>
			<desc>BAS</desc>
			<rect x="0" y="436.149" width="21.1383" height="28.3465" class="st7"/>
			<text x="4.24" y="452.72" class="st8">BAS</text>		</g>
		<g id="shape1450-14" transform="translate(493.376,-250.447)">
			<title>Nordic Lake.1450</title>
			<desc>Device descr.</desc>
			<rect x="0" y="436.149" width="32.8502" height="28.3465" class="st7"/>
			<text x="5.57" y="447.92" class="st8">Device <tspan x="6.67" dy="1.2em" class="st4">descr.</tspan></text>		</g>
		<g id="shape1456-18" transform="translate(142.952,-358.771)">
			<title>Nordic Blue.1456</title>
			<desc>ADC driver</desc>
			<rect x="0" y="436.149" width="33.6339" height="28.3465" class="st6"/>
			<text x="9.91" y="447.92" class="st8">ADC <tspan x="7.21" dy="1.2em" class="st4">driver</tspan></text>		</g>
		<g id="shape1457-22" transform="translate(100.842,-358.105)">
			<title>Nordic Blue.1457</title>
			<desc>PWM driver</desc>
			<rect x="0" y="436.149" width="34.7653" height="28.3465" class="st6"/>
			<text x="8.34" y="447.92" class="st8">PWM <tspan x="7.78" dy="1.2em" class="st4">driver</tspan></text>		</g>
		<g id="shape1458-26" transform="translate(60.673,-358.105)">
			<title>Nordic Blue.1458</title>
			<desc>QDEC driver</desc>
			<rect x="0" y="436.149" width="32.8502" height="28.3465" class="st6"/>
			<text x="7.19" y="447.92" class="st8">QDEC <tspan x="6.82" dy="1.2em" class="st4">driver</tspan></text>		</g>
		<g id="shape1459-30" transform="translate(11.9508,-358.105)">
			<title>Nordic Blue.1459</title>
			<desc>SPI driver</desc>
			<rect x="0" y="436.149" width="34.3085" height="28.3465" class="st6"/>
			<text x="12.24" y="447.92" class="st8">SPI <tspan x="7.55" dy="1.2em" class="st4">driver</tspan></text>		</g>
		<g id="shape1464-34" transform="translate(1.67464,-302.078)">
			<title>Nordic Blue.1464</title>
			<desc>Motion sensor driver</desc>
			<rect x="0" y="436.149" width="54.8609" height="28.3465" class="st2"/>
			<text x="15.43" y="447.92" class="st8">Motion <tspan x="6.2" dy="1.2em" class="st4">sensor driver</tspan></text>		</g>
		<g id="shape1465-38" transform="translate(22.0185,-358.105)">
			<title>Dynamic connector.1465</title>
			<path d="M7.09 471.46 L7.09 471.82 L7.09 484.86" class="st9"/>
		</g>
		<g id="shape1466-47" transform="translate(22.0185,-302.078)">
			<title>Dynamic connector.1466</title>
			<path d="M7.09 471.46 L7.09 471.82 L7.09 480.46" class="st9"/>
		</g>
		<g id="shape1468-54" transform="translate(142.925,-250.447)">
			<title>Nordic Lake.1468</title>
			<desc>Battery meas.</desc>
			<rect x="0" y="436.149" width="33.6339" height="28.3465" class="st7"/>
			<text x="4.85" y="447.92" class="st8">Battery <tspan x="7.14" dy="1.2em" class="st4">meas.</tspan></text>		</g>
		<g id="shape1469-58" transform="translate(100.842,-250.447)">
			<title>Nordic Lake.1469</title>
			<desc>LEDs</desc>
			<rect x="0" y="436.149" width="34.7653" height="28.3465" class="st7"/>
			<text x="9.72" y="452.72" class="st8">LEDs</text>		</g>
		<g id="shape1470-61" transform="translate(60.673,-250.447)">
			<title>Nordic Lake.1470</title>
			<desc>Wheel</desc>
			<rect x="0" y="436.149" width="32.8502" height="28.3465" class="st7"/>
			<text x="5.87" y="452.72" class="st8">Wheel</text>		</g>
		<g id="shape1471-64" transform="translate(183.877,-250.447)">
			<title>Nordic Lake.1471</title>
			<desc>HID state</desc>
			<rect x="0" y="436.149" width="24.8947" height="28.3465" class="st7"/>
			<text x="6.49" y="447.92" class="st8">HID <tspan x="4.3" dy="1.2em" class="st4">state</tspan></text>		</g>
		<g id="shape1472-68" transform="translate(12.2882,-250.447)">
			<title>Nordic Lake.1472</title>
			<desc>Motion sensor</desc>
			<rect x="0" y="436.149" width="33.6339" height="28.3465" class="st7"/>
			<text x="4.82" y="447.92" class="st8">Motion <tspan x="6.09" dy="1.2em" class="st4">sensor</tspan></text>		</g>
		<g id="shape2140-72" transform="translate(265.75,-358.189)">
			<title>Dynamic connector.2140</title>
			<path d="M7.09 471.46 L7.09 471.82 L7.09 536.57" class="st9"/>
		</g>
		<g id="shape2141-79" transform="translate(502.714,-358.189)">
			<title>Dynamic connector.2141</title>
			<path d="M7.09 471.46 L7.09 471.82 L7.09 536.57" class="st9"/>
		</g>
		<g id="shape2143-86" transform="translate(221.925,-175.128)">
			<title>Nordic Blue.2143</title>
			<desc>Application Event Manager</desc>
			<rect x="0" y="436.149" width="80.7218" height="28.3465" class="st2"/>
			<text x="17.32" y="447.32" class="st11">Application <tspan x="9.46" dy="1.2em" class="st4">Event Manager</tspan></text>		</g>
		<g id="shape2145-90" transform="translate(274.648,-250.447)">
			<title>Dynamic connector.2145</title>
			<path d="M-1.81 471.46 L-1.81 471.82 L-1.81 487.37 L-12.36 487.37 L-12.36 504.15" class="st9"/>
		</g>
		<g id="shape2157-97" transform="translate(29.1051,-250.447)">
			<title>Dynamic connector.2157</title>
			<path d="M0 471.46 L0 471.82 L0 487.62 L233.18 487.62 L233.18 504.15" class="st9"/>
		</g>
		<g id="shape2158-104" transform="translate(196.325,-250.447)">
			<title>Dynamic connector.2158</title>
			<path d="M0 471.46 L0 471.82 L0 487.62 L65.96 487.62 L65.96 504.15" class="st9"/>
		</g>
		<g id="shape2159-111" transform="translate(77.0981,-250.447)">
			<title>Dynamic connector.2159</title>
			<path d="M0 471.46 L0 471.82 L0 487.62 L185.19 487.62 L185.19 504.15" class="st9"/>
		</g>
		<g id="shape2160-118" transform="translate(118.224,-250.447)">
			<title>Dynamic connector.2160</title>
			<path d="M0 471.46 L0 471.82 L0 487.62 L144.06 487.62 L144.06 504.15" class="st9"/>
		</g>
		<g id="shape2161-125" transform="translate(159.742,-250.447)">
			<title>Dynamic connector.2161</title>
			<path d="M0 471.46 L0 471.82 L0 487.62 L102.54 487.62 L102.54 504.15" class="st9"/>
		</g>
		<g id="shape2163-132" transform="translate(1.67464,-106.776)">
			<title>Nordic Lake.2163</title>
			<desc>USB state</desc>
			<rect x="0" y="436.149" width="33.6339" height="28.3465" class="st7"/>
			<text x="10.24" y="447.92" class="st8">USB <tspan x="8.67" dy="1.2em" class="st4">state</tspan></text>		</g>
		<g id="shape2164-136" transform="translate(39.7186,-106.776)">
			<title>Nordic Lake.2164</title>
			<desc>Power mgmt</desc>
			<rect x="0" y="436.149" width="33.6339" height="28.3465" class="st7"/>
			<text x="6.4" y="447.92" class="st8">Power <tspan x="7.2" dy="1.2em" class="st4">mgmt</tspan></text>		</g>
		<g id="shape2165-140" transform="translate(77.7626,-106.776)">
			<title>Nordic Lake.2165</title>
			<desc>Settings loader</desc>
			<rect x="0" y="436.149" width="34.7653" height="28.3465" class="st7"/>
			<text x="4.41" y="447.92" class="st8">Settings <tspan x="6.95" dy="1.2em" class="st4">loader</tspan></text>		</g>
		<g id="shape2166-144" transform="translate(116.938,-106.776)">
			<title>Nordic Lake.2166</title>
			<desc>Failsafe</desc>
			<rect x="0" y="436.149" width="33.6339" height="28.3465" class="st7"/>
			<text x="4.54" y="452.72" class="st8">Failsafe</text>		</g>
		<g id="shape2167-147" transform="translate(154.982,-106.776)">
			<title>Nordic Lake.2167</title>
			<desc>DFU</desc>
			<rect x="0" y="436.149" width="24.8947" height="28.3465" class="st7"/>
			<text x="5.58" y="452.72" class="st8">DFU</text>		</g>
		<g id="shape2168-150" transform="translate(184.287,-106.776)">
			<title>Nordic Lake.2168</title>
			<desc>Watchdog</desc>
			<rect x="0" y="436.149" width="44.6363" height="28.3465" class="st7"/>
			<text x="5.62" y="452.72" class="st8">Watchdog</text>		</g>
		<g id="shape2169-153" transform="translate(233.333,-106.776)">
			<title>Nordic Lake.2169</title>
			<desc>Buttons</desc>
			<rect x="0" y="436.149" width="33.6339" height="28.3465" class="st7"/>
			<text x="4.08" y="452.72" class="st8">Buttons</text>		</g>
		<g id="shape2170-156" transform="translate(271.377,-106.776)">
			<title>Nordic Lake.2170</title>
			<desc>Selector</desc>
			<rect x="0" y="436.149" width="38.8587" height="28.3465" class="st7"/>
			<text x="6.16" y="452.72" class="st8">Selector</text>		</g>
		<g id="shape2171-159" transform="translate(314.646,-106.776)">
			<title>Nordic Lake.2171</title>
			<desc>Board</desc>
			<rect x="0" y="436.149" width="33.6339" height="28.3465" class="st7"/>
			<text x="7.12" y="452.72" class="st8">Board</text>		</g>
		<g id="shape2172-162" transform="translate(352.69,-106.776)">
			<title>Nordic Lake.2172</title>
			<desc>Battery charger</desc>
			<rect x="0" y="436.149" width="33.6339" height="28.3465" class="st7"/>
			<text x="4.85" y="447.92" class="st8">Battery <tspan x="4.45" dy="1.2em" class="st4">charger</tspan></text>		</g>
		<g id="shape2173-166" transform="translate(390.734,-106.776)">
			<title>Nordic Lake.2173</title>
			<desc>Click detector</desc>
			<rect x="0" y="436.149" width="38.8587" height="28.3465" class="st7"/>
			<text x="11.95" y="447.92" class="st8">Click <tspan x="5.47" dy="1.2em" class="st4">detector</tspan></text>		</g>
		<g id="shape2174-170" transform="translate(434.003,-106.776)">
			<title>Nordic Lake.2174</title>
			<desc>LED state</desc>
			<rect x="0" y="436.149" width="24.8947" height="28.3465" class="st7"/>
			<text x="6.35" y="447.92" class="st8">LED <tspan x="4.3" dy="1.2em" class="st4">state</tspan></text>		</g>
		<g id="shape2175-174" transform="translate(463.307,-106.776)">
			<title>Nordic Lake.2175</title>
			<desc>LED stream</desc>
			<rect x="0" y="436.149" width="33.6339" height="28.3465" class="st7"/>
			<text x="10.72" y="447.92" class="st8">LED <tspan x="5.42" dy="1.2em" class="st4">stream</tspan></text>		</g>
		<g id="shape2176-178" transform="translate(501.351,-106.776)">
			<title>Nordic Lake.2176</title>
			<desc>Info</desc>
			<rect x="0" y="436.149" width="24.8947" height="28.3465" class="st7"/>
			<text x="6.01" y="452.72" class="st8">Info</text>		</g>
		<g id="shape2177-181" transform="translate(18.4916,-135.123)">
			<title>Dynamic connector.2177</title>
			<path d="M0 457.54 L0 457.18 L0 451.32 L243.79 451.32 L243.79 431.81" class="st9"/>
		</g>
		<g id="shape2178-188" transform="translate(56.5355,-135.123)">
			<title>Dynamic connector.2178</title>
			<path d="M0 457.54 L0 457.18 L0 451.32 L205.75 451.32 L205.75 431.81" class="st9"/>
		</g>
		<g id="shape2179-195" transform="translate(95.1452,-135.123)">
			<title>Dynamic connector.2179</title>
			<path d="M0 457.54 L0 457.18 L0 451.32 L167.14 451.32 L167.14 431.81" class="st9"/>
		</g>
		<g id="shape2180-202" transform="translate(133.755,-135.123)">
			<title>Dynamic connector.2180</title>
			<path d="M0 457.54 L0 457.18 L0 451.32 L128.53 451.32 L128.53 431.81" class="st9"/>
		</g>
		<g id="shape2181-209" transform="translate(167.429,-135.123)">
			<title>Dynamic connector.2181</title>
			<path d="M0 457.54 L0 457.18 L0 451.32 L94.86 451.32 L94.86 431.81" class="st9"/>
		</g>
		<g id="shape2182-216" transform="translate(206.605,-135.123)">
			<title>Dynamic connector.2182</title>
			<path d="M0 457.54 L0 457.18 L0 451.32 L55.68 451.32 L55.68 431.81" class="st9"/>
		</g>
		<g id="shape2183-223" transform="translate(249.131,-135.123)">
			<title>Dynamic connector.2183</title>
			<path d="M1.02 457.54 L1.02 457.18 L1.02 451.32 L13.15 451.32 L13.15 431.81" class="st9"/>
		</g>
		<g id="shape2185-230" transform="translate(262.286,-175.128)">
			<title>Dynamic connector.2185</title>
			<path d="M0 471.46 L0 471.82 L0 491.33 L69.18 491.33 L69.18 497.18" class="st9"/>
		</g>
		<g id="shape2186-237" transform="translate(262.286,-175.128)">
			<title>Dynamic connector.2186</title>
			<path d="M0 471.46 L0 471.82 L0 491.33 L107.22 491.33 L107.22 497.18" class="st9"/>
		</g>
		<g id="shape2187-244" transform="translate(262.286,-175.128)">
			<title>Dynamic connector.2187</title>
			<path d="M0 471.46 L0 471.82 L0 491.33 L147.88 491.33 L147.88 497.18" class="st9"/>
		</g>
		<g id="shape2188-251" transform="translate(262.286,-175.128)">
			<title>Dynamic connector.2188</title>
			<path d="M0 471.46 L0 471.82 L0 491.33 L184.16 491.33 L184.16 497.18" class="st9"/>
		</g>
		<g id="shape2189-258" transform="translate(262.286,-175.128)">
			<title>Dynamic connector.2189</title>
			<path d="M0 471.46 L0 471.82 L0 491.33 L217.84 491.33 L217.84 497.18" class="st9"/>
		</g>
		<g id="shape2190-265" transform="translate(262.286,-175.128)">
			<title>Dynamic connector.2190</title>
			<path d="M0 471.46 L0 471.82 L0 491.33 L251.51 491.33 L251.51 497.18" class="st9"/>
		</g>
		<g id="shape2191-272" transform="translate(262.286,-175.128)">
			<title>Dynamic connector.2191</title>
			<path d="M0 471.46 L0 471.82 L0 491.33 L28.52 491.33 L28.52 497.18" class="st9"/>
		</g>
		<g id="shape2192-279" transform="translate(1,-55.1451)">
			<title>Nordic Blue.2192</title>
			<desc>USB stack</desc>
			<rect x="0" y="436.149" width="34.3085" height="28.3465" class="st6"/>
			<text x="10.57" y="447.92" class="st8">USB <tspan x="8.82" dy="1.2em" class="st4">stack</tspan></text>		</g>
		<g id="shape2193-283" transform="translate(37.2894,-55.1451)">
			<title>Nordic Blue.2193</title>
			<desc>OS power mgmt</desc>
			<rect x="0" y="436.149" width="44.6363" height="28.3465" class="st6"/>
			<text x="6.47" y="447.92" class="st8">OS power <tspan x="12.71" dy="1.2em" class="st4">mgmt</tspan></text>		</g>
		<g id="shape2194-287" transform="translate(83.9563,-55.1451)">
			<title>Nordic Blue.2194</title>
			<desc>Settings subsys</desc>
			<rect x="0" y="436.149" width="34.3085" height="28.3465" class="st6"/>
			<text x="4.18" y="447.92" class="st8">Settings <tspan x="6.45" dy="1.2em" class="st4">subsys</tspan></text>		</g>
		<g id="shape2195-291" transform="translate(1.67464,-1)">
			<title>Nordic Blue.2195</title>
			<desc>USB driver</desc>
			<rect x="0" y="436.149" width="34.3085" height="28.3465" class="st6"/>
			<text x="10.57" y="447.92" class="st8">USB <tspan x="7.55" dy="1.2em" class="st4">driver</tspan></text>		</g>
		<g id="shape2196-295" transform="translate(83.9563,-1)">
			<title>Nordic Blue.2196</title>
			<desc>FLASH driver</desc>
			<rect x="0" y="436.149" width="50.326" height="28.3465" class="st6"/>
			<text x="4.49" y="452.72" class="st8">FLASH driver</text>		</g>
		<g id="shape2197-298" transform="translate(11.0676,-83.4915)">
			<title>Dynamic connector.2197</title>
			<path d="M7.09 457.54 L7.09 457.18 L7.09 448.59" class="st9"/>
		</g>
		<g id="shape2198-305" transform="translate(11.7423,-29.3465)">
			<title>Dynamic connector.2198</title>
			<path d="M7.09 457.54 L7.09 457.18 L7.09 446.02" class="st9"/>
		</g>
		<g id="shape2199-312" transform="translate(49.7862,-83.5844)">
			<title>Dynamic connector.2199</title>
			<path d="M7.09 457.54 L7.09 457.18 L7.09 449.15" class="st9"/>
		</g>
		<g id="shape2200-319" transform="translate(94.0239,-83.4915)">
			<title>Dynamic connector.2200</title>
			<path d="M7.09 457.54 L7.09 457.18 L7.09 448.94" class="st9"/>
		</g>
		<g id="shape2201-326" transform="translate(97.9109,-29.3465)">
			<title>Dynamic connector.2201</title>
			<path d="M7.09 457.54 L7.09 457.18 L7.09 446.18" class="st9"/>
		</g>
		<g id="shape2202-333" transform="translate(118.604,-29.5293)">
			<title>Dynamic connector.2202</title>
			<path d="M7.09 457.54 L7.09 457.18 L7.09 394.35" class="st9"/>
		</g>
		<g id="shape2203-340" transform="translate(233.333,-55.1451)">
			<title>Nordic Blue.2203</title>
			<desc>GPIO driver</desc>
			<rect x="0" y="436.149" width="152.991" height="28.3465" class="st6"/>
			<text x="57.74" y="452.72" class="st8">GPIO driver</text>		</g>
		<g id="shape2205-343" transform="translate(189.64,-1)">
			<title>Nordic Blue.2205</title>
			<desc>Watchdog driver</desc>
			<rect x="0" y="436.149" width="44.6363" height="28.3465" class="st6"/>
			<text x="5.62" y="447.92" class="st8">Watchdog <tspan x="12.71" dy="1.2em" class="st4">driver</tspan></text>		</g>
		<g id="shape2206-347" transform="translate(148.973,-1)">
			<title>Nordic Blue.2206</title>
			<desc>Image manager</desc>
			<rect x="0" y="436.149" width="38.8587" height="28.3465" class="st6"/>
			<text x="9.44" y="447.92" class="st8">Image <tspan x="5.03" dy="1.2em" class="st4">manager</tspan></text>		</g>
		<g id="shape2322-351" transform="translate(160.343,-29.5929)">
			<title>Dynamic connector.2322</title>
			<path d="M7.09 457.54 L7.09 457.18 L7.09 394.63" class="st9"/>
		</g>
		<g id="shape2323-358" transform="translate(199.518,-29.8394)">
			<title>Dynamic connector.2323</title>
			<path d="M7.09 457.54 L7.09 457.18 L7.09 394.88" class="st9"/>
		</g>
		<g id="shape2324-365" transform="translate(243.063,-83.4915)">
			<title>Dynamic connector.2324</title>
			<path d="M7.09 457.54 L7.09 457.18 L7.09 448.53" class="st9"/>
		</g>
		<g id="shape2325-372" transform="translate(283.72,-84.9679)">
			<title>Dynamic connector.2325</title>
			<path d="M7.09 457.54 L7.09 457.18 L7.09 450.01" class="st9"/>
		</g>
		<g id="shape2326-379" transform="translate(324.376,-84.0821)">
			<title>Dynamic connector.2326</title>
			<path d="M7.09 457.54 L7.09 457.18 L7.09 449.12" class="st9"/>
		</g>
		<g id="shape2327-386" transform="translate(362.42,-84.3774)">
			<title>Dynamic connector.2327</title>
			<path d="M7.09 457.54 L7.09 457.18 L7.09 449.42" class="st9"/>
		</g>
		<g id="shape2333-393" transform="translate(216.09,-302.078)">
			<title>Nordic Blue.2333</title>
			<desc>HID service</desc>
			<rect x="0" y="436.149" width="38.8587" height="28.3465" class="st2"/>
			<text x="13.47" y="447.92" class="st8">HID <tspan x="8.07" dy="1.2em" class="st4">service</tspan></text>		</g>
		<g id="shape2334-397" transform="translate(216.09,-250.447)">
			<title>Nordic Lake.2334</title>
			<desc>HID service</desc>
			<rect x="0" y="436.149" width="38.8587" height="28.3465" class="st7"/>
			<text x="13.47" y="447.92" class="st8">HID <tspan x="8.07" dy="1.2em" class="st4">service</tspan></text>		</g>
		<g id="shape2335-401" transform="translate(228.433,-302.078)">
			<title>Dynamic connector.2335</title>
			<path d="M7.09 471.46 L7.09 471.82 L7.09 480.46" class="st9"/>
		</g>
		<g id="shape2336-408" transform="translate(228.433,-358.189)">
			<title>Dynamic connector.2336</title>
			<path d="M7.09 471.46 L7.09 471.82 L7.09 484.94" class="st9"/>
		</g>
		<g id="shape2337-415" transform="translate(235.52,-250.447)">
			<title>Dynamic connector.2337</title>
			<path d="M0 471.46 L0 471.82 L0 487.62 L26.77 487.62 L26.77 504.15" class="st9"/>
		</g>
		<g id="shape2338-422" transform="translate(70.0115,-358.105)">
			<title>Dynamic connector.2338</title>
			<path d="M7.09 471.46 L7.09 471.82 L7.09 536.49" class="st9"/>
		</g>
		<g id="shape2339-429" transform="translate(111.138,-358.105)">
			<title>Dynamic connector.2339</title>
			<path d="M7.09 471.46 L7.09 471.82 L7.09 536.49" class="st9"/>
		</g>
		<g id="shape2340-436" transform="translate(166.842,-358.771)">
			<title>Dynamic connector.2340</title>
			<path d="M-7.08 471.46 L-7.08 471.82 L-7.1 537.15" class="st9"/>
		</g>
		<g id="group2341-443" transform="translate(1.67464,-396.598)">
			<title>Sheet.2341</title>
			<g id="shape2342-444">
				<title>Nordic Light Grey.2333</title>
				<rect x="0" y="397.598" width="80.4521" height="66.8976" class="st12"/>
			</g>
			<g id="shape2343-446" transform="translate(4.89191,-44.3524)">
				<title>Nordic Blue.1617</title>
				<rect x="0" y="448.79" width="15.4576" height="15.7058" class="st7"/>
			</g>
			<g id="shape2344-448" transform="translate(20.3495,-44.3524)">
				<title>Sheet.2344</title>
				<desc>Application</desc>
				<rect x="0" y="448.79" width="54.3499" height="15.7058" class="st13"/>
				<text x="4" y="460.24" class="st14">Application</text>			</g>
			<g id="shape2345-451" transform="translate(4.89191,-25.5959)">
				<title>Nordic Blue.1618</title>
				<rect x="0" y="448.79" width="15.4576" height="15.7058" class="st2"/>
			</g>
			<g id="shape2346-453" transform="translate(20.3495,-25.5959)">
				<title>Sheet.2346</title>
				<desc>NCS</desc>
				<rect x="0" y="448.79" width="54.3499" height="15.7058" class="st13"/>
				<text x="4" y="460.24" class="st14">NCS</text>			</g>
			<g id="shape2347-456" transform="translate(4.89191,-6.83943)">
				<title>Nordic Blue.2341</title>
				<rect x="0" y="448.79" width="15.4576" height="15.7058" class="st6"/>
			</g>
			<g id="shape2348-458" transform="translate(20.3495,-6.83943)">
				<title>Sheet.2348</title>
				<desc>Zephyr</desc>
				<rect x="0" y="448.79" width="54.3499" height="15.7058" class="st13"/>
				<text x="4" y="460.24" class="st14">Zephyr</text>			</g>
		</g>
		<g id="shape2357-461" transform="translate(381.304,-358.189)">
			<title>Dynamic connector.2357</title>
			<path d="M7.09 471.46 L7.09 471.82 L7.09 536.37" class="st9"/>
		</g>
		<g id="shape2358-468" transform="translate(388.391,-241.439)">
			<title>Dynamic connector.2358</title>
			<path d="M0 471.46 L0 471.82 L0 478.37 L-126.1 478.37 L-126.1 495.14" class="st9"/>
		</g>
		<g id="group2359-475" transform="translate(288.758,-241.439)">
			<title>Sheet.2359</title>
			<g id="shape2351-476" transform="translate(154.468,-5.81072)">
				<title>Nordic Lake.1442</title>
				<desc>State</desc>
				<rect x="0" y="436.149" width="38.8587" height="28.3465" class="st7"/>
				<text x="11.01" y="452.72" class="st8">State</text>			</g>
			<g id="shape2352-479" transform="translate(4.57085,-5.81072)">
				<title>Nordic Lake.1443</title>
				<desc>Advanced</desc>
				<rect x="0" y="436.149" width="50.326" height="28.3465" class="st7"/>
				<text x="9.14" y="452.72" class="st8">Advanced</text>			</g>
			<g id="shape2353-482" transform="translate(58.3589,-5.81072)">
				<title>Nordic Lake.1444</title>
				<desc>Bond</desc>
				<rect x="0" y="436.149" width="38.8587" height="28.3465" class="st7"/>
				<text x="10.94" y="452.72" class="st8">Bond</text>			</g>
			<g id="shape2354-485" transform="translate(100.68,-5.81072)">
				<title>Nordic Lake.1447</title>
				<desc>Latency</desc>
				<rect x="0" y="436.149" width="50.326" height="28.3465" class="st7"/>
				<text x="12.63" y="452.72" class="st8">Latency</text>			</g>
			<g id="shape2355-488" transform="translate(126.033,-37.3546)">
				<title>Sheet.2355</title>
				<desc>Bluetooth速 LE</desc>
				<rect x="0" y="448.458" width="76.2849" height="16.0377" class="st13"/>
				<text x="4.01" y="460.08" class="st15">Bluetooth速 LE</text>			</g>
			<g id="shape2356-491">
				<title>Nordic Blue.2345</title>
				<path d="M0 464.5 L199.26 464.5 L199.26 426.94 L0 426.94 L0 464.5 Z" class="st16"/>
			</g>
		</g>
	</g>
</svg>
