<?xml version="1.0" encoding="utf-8"?>
<!-- Generator: Adobe Illustrator 24.1.2, SVG Export Plug-In . SVG Version: 6.00 Build 0)  -->
<svg version="1.0" id="Layer_1" xmlns="http://www.w3.org/2000/svg" xmlns:xlink="http://www.w3.org/1999/xlink" x="0px" y="0px"
	 width="115px" height="139px" viewBox="0 0 115 139" enable-background="new 0 0 115 139" xml:space="preserve">
<g>

		<polyline fill="none" stroke="#000000" stroke-width="0.72" stroke-linecap="round" stroke-linejoin="round" stroke-miterlimit="10" points="
		83.596,50.33 31.456,50.33 31.456,87.17 	"/>

		<polyline fill="none" stroke="#000000" stroke-width="0.72" stroke-linecap="round" stroke-linejoin="round" stroke-miterlimit="10" points="
		83.596,50.33 83.596,87.17 91.516,87.17 91.516,125.57 	"/>

		<polyline fill="none" stroke="#000000" stroke-width="0.72" stroke-linecap="round" stroke-linejoin="round" stroke-miterlimit="10" points="
		31.456,87.17 23.476,87.17 23.476,119.93 	"/>

		<line fill="none" stroke="#000000" stroke-width="0.72" stroke-linecap="round" stroke-linejoin="round" stroke-miterlimit="10" x1="78.796" y1="136.849" x2="33.436" y2="131.15"/>

		<path fill="none" stroke="#000000" stroke-width="0.72" stroke-linecap="round" stroke-linejoin="bevel" stroke-miterlimit="10" d="
		M23.536,119.93l0.06,1.38c0.482,4.52,4.089,8.507,8.46,9.54l1.38,0.3"/>

		<path fill="none" stroke="#000000" stroke-width="0.72" stroke-linecap="round" stroke-linejoin="bevel" stroke-miterlimit="10" d="
		M78.796,136.79l1.32,0.06c5.669,0.074,10.593-4.263,11.28-9.9l0.06-1.38"/>

		<line fill="none" stroke="#000000" stroke-width="0.24" stroke-linecap="round" stroke-linejoin="round" stroke-miterlimit="10" x1="38.476" y1="103.13" x2="78.136" y2="108.83"/>

		<line fill="none" stroke="#000000" stroke-width="0.24" stroke-linecap="round" stroke-linejoin="round" stroke-miterlimit="10" x1="36.856" y1="122.75" x2="76.576" y2="128.39"/>

		<path fill="none" stroke="#000000" stroke-width="0.24" stroke-linecap="round" stroke-linejoin="bevel" stroke-miterlimit="10" d="
		M76.576,128.389l0.96,0.06c2.645-0.049,4.967-2.107,5.4-4.68l0.06-0.96"/>

		<path fill="none" stroke="#000000" stroke-width="0.24" stroke-linecap="round" stroke-linejoin="bevel" stroke-miterlimit="10" d="
		M31.996,117.11l0.06,1.02c0.408,1.958,1.835,3.734,3.78,4.32l1.02,0.24"/>

		<line fill="none" stroke="#000000" stroke-width="0.24" stroke-linecap="round" stroke-linejoin="round" stroke-miterlimit="10" x1="82.996" y1="114.41" x2="82.996" y2="122.81"/>

		<path fill="none" stroke="#000000" stroke-width="0.24" stroke-linecap="round" stroke-linejoin="bevel" stroke-miterlimit="10" d="
		M82.996,114.41l-0.06-1.02c-0.408-1.958-1.835-3.734-3.78-4.32l-1.02-0.24"/>

		<line fill="none" stroke="#000000" stroke-width="0.24" stroke-linecap="round" stroke-linejoin="round" stroke-miterlimit="10" x1="31.996" y1="108.77" x2="31.996" y2="117.11"/>

		<path fill="none" stroke="#000000" stroke-width="0.24" stroke-linecap="round" stroke-linejoin="bevel" stroke-miterlimit="10" d="
		M38.416,103.19l-0.96-0.06c-2.645,0.049-4.967,2.107-5.4,4.68l-0.06,0.96"/>

		<rect x="34.276" y="53.15" fill="none" stroke="#000000" stroke-width="0.24" stroke-linecap="round" stroke-linejoin="round" stroke-miterlimit="10" width="3.36" height="18.72"/>

		<path fill="none" stroke="#000000" stroke-width="0.24" stroke-linecap="round" stroke-linejoin="round" stroke-miterlimit="10" d="
		M34.276,53.15"/>

		<rect x="38.776" y="57.71" fill="none" stroke="#000000" stroke-width="0.24" stroke-linecap="round" stroke-linejoin="round" stroke-miterlimit="10" width="3.42" height="14.16"/>

		<path fill="none" stroke="#000000" stroke-width="0.24" stroke-linecap="round" stroke-linejoin="round" stroke-miterlimit="10" d="
		M42.196,71.87"/>

		<rect x="43.336" y="57.71" fill="none" stroke="#000000" stroke-width="0.24" stroke-linecap="round" stroke-linejoin="round" stroke-miterlimit="10" width="3.42" height="14.16"/>

		<path fill="none" stroke="#000000" stroke-width="0.24" stroke-linecap="round" stroke-linejoin="round" stroke-miterlimit="10" d="
		M43.336,57.71"/>

		<rect x="47.896" y="53.15" fill="none" stroke="#000000" stroke-width="0.24" stroke-linecap="round" stroke-linejoin="round" stroke-miterlimit="10" width="3.36" height="18.72"/>

		<path fill="none" stroke="#000000" stroke-width="0.24" stroke-linecap="round" stroke-linejoin="round" stroke-miterlimit="10" d="
		M51.256,71.87"/>

		<rect x="52.396" y="55.43" fill="none" stroke="#000000" stroke-width="0.24" stroke-linecap="round" stroke-linejoin="round" stroke-miterlimit="10" width="3.42" height="16.44"/>

		<path fill="none" stroke="#000000" stroke-width="0.24" stroke-linecap="round" stroke-linejoin="round" stroke-miterlimit="10" d="
		M52.396,55.43"/>

		<rect x="56.956" y="55.43" fill="none" stroke="#000000" stroke-width="0.24" stroke-linecap="round" stroke-linejoin="round" stroke-miterlimit="10" width="3.36" height="16.44"/>

		<path fill="none" stroke="#000000" stroke-width="0.24" stroke-linecap="round" stroke-linejoin="round" stroke-miterlimit="10" d="
		M60.316,71.87"/>

		<rect x="61.456" y="53.15" fill="none" stroke="#000000" stroke-width="0.24" stroke-linecap="round" stroke-linejoin="round" stroke-miterlimit="10" width="3.42" height="18.72"/>

		<path fill="none" stroke="#000000" stroke-width="0.24" stroke-linecap="round" stroke-linejoin="round" stroke-miterlimit="10" d="
		M61.456,53.15"/>

		<rect x="66.016" y="57.71" fill="none" stroke="#000000" stroke-width="0.24" stroke-linecap="round" stroke-linejoin="round" stroke-miterlimit="10" width="3.42" height="14.16"/>

		<path fill="none" stroke="#000000" stroke-width="0.24" stroke-linecap="round" stroke-linejoin="round" stroke-miterlimit="10" d="
		M69.436,71.87"/>

		<rect x="70.576" y="57.71" fill="none" stroke="#000000" stroke-width="0.24" stroke-linecap="round" stroke-linejoin="round" stroke-miterlimit="10" width="3.36" height="14.16"/>

		<path fill="none" stroke="#000000" stroke-width="0.24" stroke-linecap="round" stroke-linejoin="round" stroke-miterlimit="10" d="
		M70.576,57.71"/>

		<rect x="75.076" y="53.15" fill="none" stroke="#000000" stroke-width="0.24" stroke-linecap="round" stroke-linejoin="round" stroke-miterlimit="10" width="3.42" height="18.72"/>

		<path fill="none" stroke="#000000" stroke-width="0.24" stroke-linecap="round" stroke-linejoin="round" stroke-miterlimit="10" d="
		M78.496,71.87"/>
	<path fill-rule="evenodd" clip-rule="evenodd" d="M8.236,3.89l-3.42,0.12h0.18l0.36,0.06c2.073,0.093,3.207,1.804,3.12,3.84v0.6
		c-0.215,2.049-1.123,3.351-3.3,3.42h-1.74l4.92,0.06c1.962-1.684,2.079-5.901,0.3-7.74l-0.18-0.18"/>
	<path fill-rule="evenodd" clip-rule="evenodd" d="M4.876,2.93h-2.34l-0.3,0.12l-0.06,0.12l-0.06,0.3v9.24l0.12,0.24h0.06l0.3,0.12
		h2.88l0.36-0.06l0.3-0.06l0.3-0.06l0.3-0.06l0.24-0.06l0.3-0.12l0.3-0.12l0.24-0.18l0.3-0.18l0.24-0.18l-4.92-0.06V4.01h1.38
		l3.42-0.12l-0.24-0.18c-0.711-0.503-1.546-0.724-2.4-0.78h-0.36"/>
	<path fill-rule="evenodd" clip-rule="evenodd" d="M17.356,11.63l-0.3,0.06c-0.618,0.353-1.337,0.478-2.04,0.48l-2.76,0.06l0.3,0.3
		c0.865,0.656,1.953,0.721,3,0.66l0.3-0.06h0.18l0.3-0.06l0.3-0.12l0.24-0.06l0.3-0.12l0.24-0.12l0.06-0.12l0.06-0.06v-0.18
		l0.06-0.18l-0.06-0.24v-0.12l-0.06-0.12"/>
	<path fill-rule="evenodd" clip-rule="evenodd" d="M17.116,6.41l-2.4,0.06h0.36c0.988,0.287,1.362,0.779,1.5,1.8v0.36h-3.84
		l-1.32,0.06l-0.06,0.36c-0.07,0.861,0.225,2.591,0.9,3.18l2.76-0.06h-0.18c-1.405-0.127-2.045-0.84-2.1-2.22V9.59h4.68l0.3-0.12
		l0.06-0.12l0.06-0.3V8.09l-0.12-0.6l-0.12-0.24l-0.12-0.3l-0.18-0.24"/>
	<path fill-rule="evenodd" clip-rule="evenodd" d="M14.776,5.45h-0.18c-1.834,0.116-2.819,1.18-3.18,2.94v0.3l1.32-0.06V8.45
		c0.053-1.127,0.834-1.983,1.98-1.98l2.4-0.06l-0.12-0.18c-0.465-0.343-0.982-0.659-1.56-0.72l-0.3-0.06"/>
	<polyline fill-rule="evenodd" clip-rule="evenodd" points="22.396,11.93 20.956,11.99 21.076,12.11 23.176,12.11 22.996,12.11
		22.696,12.05 	"/>
	<polyline fill-rule="evenodd" clip-rule="evenodd" points="21.376,6.41 21.136,6.59 22.696,6.65 22.876,6.59 23.236,6.59 	"/>
	<path fill-rule="evenodd" clip-rule="evenodd" d="M23.476,5.45h-0.3l-0.3,0.06l-0.3,0.06l-0.3,0.12v0.06l-0.3,0.12l-0.24,0.18
		l-0.36,0.36l1.86,0.18h0.24c0.975,0.138,1.468,1.279,1.44,2.16l0.06,0.3v0.36c-0.013,0.905-0.339,2.571-1.5,2.64l-0.3,0.06h-2.1
		l0.24,0.24l0.24,0.18v0.06l0.3,0.18c4.611,2.583,6.196-6.127,2.28-7.26l-0.36-0.06"/>
	<path fill-rule="evenodd" clip-rule="evenodd" d="M20.476,2.15h-0.3l-0.24,0.06l-0.06,0.06l-0.06,0.12v10.62l0.12,0.06l0.18,0.06
		h0.54l0.18-0.06l0.12-0.06v-1.02l1.44-0.06l-0.24-0.18l-0.12-0.06l-0.24-0.18l-0.24-0.24l-0.18-0.24l-0.24-0.24V7.97l0.12-0.24
		c0.375-0.389,0.512-0.526,0.96-0.84l0.48-0.24l-1.56-0.06v-4.2l-0.06-0.12l-0.12-0.06l-0.18-0.06"/>
	<polyline fill-rule="evenodd" clip-rule="evenodd" points="31.936,11.81 31.636,11.99 31.336,12.05 31.036,12.11 32.896,12.17
		33.136,11.93 	"/>
	<path fill-rule="evenodd" clip-rule="evenodd" d="M28.876,5.57h-0.3l-0.18,0.06l-0.12,0.06l-0.06,0.12v4.32l0.06,0.36v0.36
		l0.06,0.3l0.06,0.24v0.12l0.24,0.6l0.18,0.24v0.06l0.24,0.24c0.938,0.809,2.389,0.666,3.36,0l0.48-0.48l-1.86-0.06h-0.06l-0.3-0.06
		l-0.3-0.12l-0.24-0.12l-0.24-0.24v-0.06l-0.18-0.3l-0.18-0.9V5.69l-0.12-0.06l-0.24-0.06"/>
	<polyline fill-rule="evenodd" clip-rule="evenodd" points="33.676,5.57 33.376,5.57 33.136,5.63 33.076,5.69 33.016,5.81
		33.016,10.73 32.896,10.91 32.236,11.57 31.996,11.75 31.936,11.81 33.136,11.93 33.136,12.89 33.196,12.95 33.256,13.07
		33.436,13.13 34.036,13.13 34.216,13.07 34.276,12.95 34.336,12.89 34.336,5.81 34.276,5.69 34.216,5.63 33.976,5.57 	"/>
	<path fill-rule="evenodd" clip-rule="evenodd" d="M36.676,12.41l-0.18,0.24c-0.584,0.505-0.794,1.46-0.42,2.16l0.06,0.12h3h-0.24
		c-1.547,0.052-2.389-0.949-1.14-2.16l0.24-0.24"/>
	<polyline fill-rule="evenodd" clip-rule="evenodd" points="40.816,10.07 37.636,10.13 37.936,10.31 38.236,10.43 38.416,10.49
		38.716,10.49 39.076,10.55 39.256,10.55 39.556,10.49 39.856,10.43 40.156,10.37 40.216,10.37 40.516,10.19 	"/>
	<path fill-rule="evenodd" clip-rule="evenodd" d="M36.856,6.41l-0.18,0.24c-0.459,0.72-0.531,1.983,0,2.7l0.18,0.24l2.22-0.06h-0.3
		c-1.643-0.21-1.616-2.702-0.06-3.06h0.3"/>
	<path fill-rule="evenodd" clip-rule="evenodd" d="M39.076,5.45h-0.18l-0.36,0.06l-0.3,0.06l-0.3,0.06l-0.06,0.06l-0.3,0.12
		l-0.48,0.36h-0.06l-0.18,0.24l2.16,0.06h0.36c1.282,0.147,1.599,2.088,0.6,2.76l-0.24,0.18h-0.06l-0.3,0.12h-0.3l-2.22,0.06
		l-0.12,0.12l-0.24,0.3l-0.24,0.48l-0.12,0.6v0.06l0.06,0.3l0.18,0.3l0.06,0.12l0.18,0.18l0.3,0.18l-0.24,0.18l1.32,0.12l1.8,0.12
		h0.48l0.3,0.12l0.24,0.12l0.18,0.12l0.18,0.24l0.06,0.36l-0.06,0.18l-0.06,0.3l-0.12,0.24l-0.24,0.18l-0.06,0.06l-0.24,0.12
		l-0.36,0.12l-0.3,0.06l-0.3,0.06h-3.36l0.54,0.54c1.14,0.516,2.439,0.576,3.66,0.36l0.24-0.12l0.3-0.06
		c1.215-0.412,2.035-1.687,1.44-2.94l-0.06-0.12l-0.18-0.24l-0.24-0.24l-0.18-0.12l-0.6-0.24l-0.3-0.06l-0.3-0.06h-0.36l-1.86-0.12
		h-0.06l-0.36-0.06l-0.24-0.12l-0.18-0.18l-0.06-0.3v-0.12l0.06-0.3l0.06-0.06l0.18-0.24l3.18-0.06l0.48-0.48l0.18-0.24l0.12-0.3
		l0.06-0.12c0.161-0.637,0.116-0.772,0.12-1.38l-0.12-0.3V7.19l-0.12-0.3l-0.24-0.24h1.02l0.18-0.12l0.06-0.06V5.99l-0.06-0.24
		l-0.18-0.12h-2.16l-0.18-0.06l-0.3-0.06h-0.3"/>
	<path fill-rule="evenodd" clip-rule="evenodd" d="M52.756,11.21l-0.24,0.12c-0.435,0.316-0.893,0.648-1.44,0.72l-0.36,0.06
		l2.22,0.06l0.06-0.12v-0.54l-0.06-0.18l-0.06-0.12"/>
	<path fill-rule="evenodd" clip-rule="evenodd" d="M48.256,6.53l-0.36,0.48c-0.681,1.492-0.693,3.544,0.12,4.98l0.18,0.24l0.24,0.24
		c1.166,1.044,3.117,0.936,4.32,0l0.12-0.18l0.06-0.12l-2.22-0.06c-2.553,0.257-2.605-5.384-0.36-5.52l0.3-0.06"/>
	<path fill-rule="evenodd" clip-rule="evenodd" d="M50.716,5.45h-0.06c-1.056,0.101-1.485,0.153-2.28,0.96l-0.12,0.12h2.4
		c0.753,0.089,1.189,0.238,1.8,0.72l0.24,0.12l0.18-0.12l0.06-0.06v-0.6l-0.06-0.18V6.29l-0.18-0.12V6.11l-0.3-0.18l-0.18-0.12
		l-0.3-0.12l-0.24-0.06l-0.3-0.12h-0.06l-0.3-0.06"/>
	<path fill-rule="evenodd" clip-rule="evenodd" d="M60.436,6.47l-2.64,0.06h0.12c0.499,0.059,1.053,0.18,1.38,0.6l0.18,0.24h0.06
		l0.12,0.3c0.671,1.555,0.398,4.589-1.92,4.44l-2.64,0.12h0.06l0.18,0.24c1.12,0.968,3.487,1.011,4.62,0.06l0.24-0.18l0.18-0.24
		c1.088-1.086,1.167-3.521,0.54-4.86l-0.12-0.3l-0.18-0.24"/>
	<path fill-rule="evenodd" clip-rule="evenodd" d="M57.856,5.45h-0.06c-3.468-0.122-4.381,4.086-2.88,6.54l0.18,0.24l2.64-0.12
		h-0.12c-2.771,0.192-2.773-5.859,0.18-5.58l2.64-0.06V6.41c-0.525-0.511-1.184-0.825-1.92-0.9l-0.3-0.06"/>
	<polyline fill-rule="evenodd" clip-rule="evenodd" points="64.636,6.47 64.396,6.77 65.596,6.83 66.196,6.59 66.496,6.59 	"/>
	<polyline fill-rule="evenodd" clip-rule="evenodd" points="63.796,5.57 63.496,5.57 63.316,5.63 63.196,5.69 63.196,12.89
		63.256,12.95 63.316,13.07 63.556,13.13 64.156,13.13 64.336,13.07 64.516,12.89 64.516,7.91 64.636,7.79 64.816,7.55 65.296,7.07
		65.536,6.95 65.596,6.83 64.396,6.77 64.396,5.81 64.336,5.69 64.276,5.63 64.096,5.57 	"/>
	<path fill-rule="evenodd" clip-rule="evenodd" d="M66.736,5.45h-0.24c-0.62,0.055-1.154,0.389-1.62,0.78l-0.24,0.24l1.86,0.12h0.36
		l0.3,0.12l0.24,0.18l0.24,0.24v0.06l0.18,0.24l0.06,0.36l0.06,0.24l0.06,0.36v4.56l0.12,0.12l0.18,0.06h0.66l0.18-0.06l0.12-0.12
		v-5.1l-0.12-0.6V7.19l-0.12-0.3c-0.135-0.451-0.646-1.021-1.08-1.2l-0.24-0.12l-0.3-0.06l-0.3-0.06"/>
	<polyline fill-rule="evenodd" clip-rule="evenodd" points="73.096,6.47 72.856,6.77 74.056,6.83 74.356,6.71 74.656,6.59
		74.956,6.59 	"/>
	<polyline fill-rule="evenodd" clip-rule="evenodd" points="72.256,5.57 71.956,5.57 71.776,5.63 71.656,5.69 71.656,12.89
		71.716,12.95 71.776,13.07 72.016,13.13 72.616,13.13 72.796,13.07 72.976,12.89 72.976,7.91 73.096,7.79 73.276,7.55 73.756,7.07
		73.996,6.95 74.056,6.83 72.856,6.77 72.856,5.81 72.796,5.69 72.736,5.63 72.556,5.57 	"/>
	<path fill-rule="evenodd" clip-rule="evenodd" d="M75.196,5.45h-0.24c-0.62,0.055-1.154,0.389-1.62,0.78l-0.24,0.24l1.86,0.12h0.36
		l0.3,0.12l0.24,0.18l0.24,0.24v0.06l0.18,0.24l0.06,0.36l0.06,0.24l0.06,0.36v4.56l0.12,0.12l0.18,0.06h0.66l0.18-0.06l0.12-0.12
		v-5.1l-0.12-0.6V7.19l-0.12-0.3c-0.135-0.451-0.646-1.021-1.08-1.2l-0.24-0.12l-0.3-0.06l-0.3-0.06"/>
	<path fill-rule="evenodd" clip-rule="evenodd" d="M85.576,11.63l-0.3,0.06c-0.618,0.353-1.337,0.478-2.04,0.48l-2.76,0.06l0.3,0.3
		c0.865,0.656,1.953,0.721,3,0.66l0.3-0.06h0.18l0.3-0.06l0.3-0.12l0.24-0.06l0.3-0.12l0.24-0.12l0.06-0.12l0.06-0.06v-0.18
		l0.06-0.18l-0.06-0.24v-0.12l-0.06-0.12"/>
	<path fill-rule="evenodd" clip-rule="evenodd" d="M85.336,6.41l-2.4,0.06h0.36c0.988,0.287,1.362,0.779,1.5,1.8v0.36h-3.84
		l-1.32,0.06l-0.06,0.36c-0.07,0.861,0.225,2.591,0.9,3.18l2.76-0.06h-0.18c-1.405-0.127-2.045-0.84-2.1-2.22V9.59h4.68l0.3-0.12
		l0.06-0.12l0.06-0.3V8.09l-0.12-0.6l-0.12-0.24l-0.12-0.3l-0.18-0.24"/>
	<path fill-rule="evenodd" clip-rule="evenodd" d="M82.996,5.45h-0.18c-1.834,0.116-2.819,1.18-3.18,2.94v0.3l1.32-0.06V8.45
		c0.053-1.127,0.834-1.983,1.98-1.98l2.4-0.06l-0.12-0.18c-0.465-0.343-0.982-0.659-1.56-0.72l-0.3-0.06"/>
	<path fill-rule="evenodd" clip-rule="evenodd" d="M92.956,11.21l-0.24,0.12c-0.435,0.317-0.893,0.648-1.44,0.72l-0.36,0.06
		l2.22,0.06l0.06-0.12v-0.54l-0.06-0.18l-0.06-0.12"/>
	<path fill-rule="evenodd" clip-rule="evenodd" d="M88.456,6.53l-0.36,0.48c-0.681,1.492-0.693,3.544,0.12,4.98l0.18,0.24l0.24,0.24
		c1.166,1.044,3.117,0.936,4.32,0l0.12-0.18l0.06-0.12l-2.22-0.06c-2.553,0.257-2.605-5.384-0.36-5.52l0.3-0.06"/>
	<path fill-rule="evenodd" clip-rule="evenodd" d="M90.916,5.45h-0.06c-1.056,0.101-1.485,0.153-2.28,0.96l-0.12,0.12h2.4
		c0.753,0.089,1.189,0.238,1.8,0.72l0.24,0.12l0.18-0.12l0.06-0.06v-0.6l-0.06-0.18V6.29l-0.18-0.12V6.11l-0.3-0.18l-0.18-0.12
		l-0.3-0.12l-0.24-0.06l-0.3-0.12h-0.06l-0.3-0.06"/>
	<polyline fill-rule="evenodd" clip-rule="evenodd" points="98.356,11.87 98.236,11.93 98.056,11.99 97.816,12.05 97.756,12.05
		97.456,12.11 98.536,12.11 98.476,11.99 98.476,11.87 	"/>
	<path fill-rule="evenodd" clip-rule="evenodd" d="M95.836,3.65l-0.3,0.06h-0.24l-0.12,0.24v1.68h-1.08l-0.12,0.12v0.12l-0.06,0.3
		v0.12l0.06,0.24l0.24,0.18h0.96v4.2c-0.031,0.512,0.159,1.472,0.6,1.8l0.24,0.18l0.3,0.18c0.557,0.161,1.923,0.287,2.22-0.36v-0.6
		h-1.08c-0.907-0.038-0.964-0.782-0.96-1.5v-3.9h1.8l0.24-0.24v-0.6l-0.12-0.24h-1.92V3.95l-0.06-0.12l-0.12-0.12h-0.18"/>
	<path fill-rule="evenodd" clip-rule="evenodd" d="M105.976,6.47l-2.64,0.06h0.12c0.609,0.05,1.247,0.273,1.56,0.84h0.06l0.12,0.3
		c0.671,1.555,0.398,4.589-1.92,4.44l-2.64,0.12h0.06l0.18,0.24c1.12,0.968,3.487,1.011,4.62,0.06l0.24-0.18l0.18-0.24
		c1.088-1.086,1.167-3.521,0.54-4.86l-0.12-0.3l-0.18-0.24"/>
	<path fill-rule="evenodd" clip-rule="evenodd" d="M103.396,5.45h-0.06c-3.468-0.122-4.381,4.086-2.88,6.54l0.18,0.24l2.64-0.12
		h-0.12c-2.771,0.192-2.773-5.859,0.18-5.58l2.64-0.06V6.41l-0.24-0.18c-0.426-0.458-1.075-0.628-1.68-0.72l-0.3-0.06"/>
	<polyline fill-rule="evenodd" clip-rule="evenodd" points="112.876,6.59 111.736,6.71 112.036,6.71 112.336,6.77 112.516,6.83
		112.696,6.89 112.816,6.77 	"/>
	<polyline fill-rule="evenodd" clip-rule="evenodd" points="109.336,5.57 109.036,5.57 108.856,5.63 108.736,5.69 108.736,12.89
		108.796,12.95 108.856,13.07 109.096,13.13 109.696,13.13 109.876,13.07 110.056,12.89 110.056,8.21 110.176,7.97 110.536,7.49
		110.776,7.25 110.956,7.01 111.076,6.89 109.936,6.83 109.936,5.81 109.876,5.69 109.816,5.63 109.636,5.57 	"/>
	<path fill-rule="evenodd" clip-rule="evenodd" d="M111.856,5.45h-0.18l-0.3,0.06l-0.18,0.06l-0.48,0.36l-0.24,0.24l-0.18,0.12
		l-0.18,0.24l-0.18,0.3l1.14,0.06l0.3-0.12l0.06-0.06h0.3l1.14-0.12v-0.3c0.024-0.512,0.03-0.704-0.54-0.78l-0.24-0.06"/>

		<line fill="none" stroke="#000000" stroke-width="0.72" stroke-linecap="round" stroke-linejoin="round" stroke-miterlimit="10" x1="57.496" y1="25.009" x2="57.496" y2="44.63"/>
</g>
</svg>
