<?xml version="1.0" encoding="utf-8"?>
<!-- Generator: Adobe Illustrator 24.1.2, SVG Export Plug-In . SVG Version: 6.00 Build 0)  -->
<svg version="1.0" id="Layer_1" xmlns="http://www.w3.org/2000/svg" xmlns:xlink="http://www.w3.org/1999/xlink" x="0px" y="0px"
	 width="504px" height="66px" viewBox="0 0 504 66" enable-background="new 0 0 504 66" xml:space="preserve">
<g>

		<path fill="none" stroke="#000000" stroke-width="0.72" stroke-linecap="round" stroke-linejoin="bevel" stroke-miterlimit="10" d="
		M2.28,8.251l0.06,0.72c0.667,1.693,0.887,1.913,2.58,2.58l0.72,0.06"/>

		<line fill="none" stroke="#000000" stroke-width="0.24" stroke-linecap="round" stroke-linejoin="round" stroke-miterlimit="10" x1="5.64" y1="11.671" x2="498.3" y2="11.671"/>

		<path fill="none" stroke="#000000" stroke-width="0.72" stroke-linecap="round" stroke-linejoin="bevel" stroke-miterlimit="10" d="
		M498.3,11.611l0.72-0.06c1.693-0.667,1.913-0.887,2.58-2.58l0.06-0.72"/>

		<polyline fill="none" stroke="#000000" stroke-width="0.72" stroke-linecap="round" stroke-linejoin="round" stroke-miterlimit="10" points="
		487.8,30.511 16.2,30.511 5.64,11.671 	"/>

		<line fill="none" stroke="#000000" stroke-width="0.72" stroke-linecap="round" stroke-linejoin="round" stroke-miterlimit="10" x1="498.3" y1="11.671" x2="487.8" y2="30.511"/>

		<line fill="none" stroke="#000000" stroke-width="0.72" stroke-linecap="round" stroke-linejoin="round" stroke-miterlimit="10" x1="2.28" y1="5.371" x2="501.72" y2="5.371"/>

		<line fill="none" stroke="#000000" stroke-width="0.72" stroke-linecap="round" stroke-linejoin="round" stroke-miterlimit="10" x1="492.96" y1="2.311" x2="475.38" y2="2.311"/>

		<line fill="none" stroke="#000000" stroke-width="0.72" stroke-linecap="round" stroke-linejoin="round" stroke-miterlimit="10" x1="461.82" y1="2.311" x2="444.3" y2="2.311"/>

		<line fill="none" stroke="#000000" stroke-width="0.72" stroke-linecap="round" stroke-linejoin="round" stroke-miterlimit="10" x1="438.6" y1="2.311" x2="421.08" y2="2.311"/>

		<line fill="none" stroke="#000000" stroke-width="0.72" stroke-linecap="round" stroke-linejoin="round" stroke-miterlimit="10" x1="415.38" y1="2.311" x2="397.86" y2="2.311"/>

		<line fill="none" stroke="#000000" stroke-width="0.72" stroke-linecap="round" stroke-linejoin="round" stroke-miterlimit="10" x1="392.16" y1="2.311" x2="374.64" y2="2.311"/>

		<line fill="none" stroke="#000000" stroke-width="0.72" stroke-linecap="round" stroke-linejoin="round" stroke-miterlimit="10" x1="361.44" y1="2.311" x2="343.86" y2="2.311"/>

		<line fill="none" stroke="#000000" stroke-width="0.72" stroke-linecap="round" stroke-linejoin="round" stroke-miterlimit="10" x1="338.16" y1="2.311" x2="320.64" y2="2.311"/>

		<line fill="none" stroke="#000000" stroke-width="0.72" stroke-linecap="round" stroke-linejoin="round" stroke-miterlimit="10" x1="314.94" y1="2.311" x2="297.42" y2="2.311"/>

		<line fill="none" stroke="#000000" stroke-width="0.72" stroke-linecap="round" stroke-linejoin="round" stroke-miterlimit="10" x1="291.72" y1="2.311" x2="274.2" y2="2.311"/>

		<line fill="none" stroke="#000000" stroke-width="0.72" stroke-linecap="round" stroke-linejoin="round" stroke-miterlimit="10" x1="261" y1="2.311" x2="243.48" y2="2.311"/>

		<line fill="none" stroke="#000000" stroke-width="0.72" stroke-linecap="round" stroke-linejoin="round" stroke-miterlimit="10" x1="237.78" y1="2.311" x2="220.26" y2="2.311"/>

		<line fill="none" stroke="#000000" stroke-width="0.72" stroke-linecap="round" stroke-linejoin="round" stroke-miterlimit="10" x1="214.56" y1="2.311" x2="197.04" y2="2.311"/>

		<line fill="none" stroke="#000000" stroke-width="0.72" stroke-linecap="round" stroke-linejoin="round" stroke-miterlimit="10" x1="191.34" y1="2.071" x2="173.82" y2="2.071"/>

		<line fill="none" stroke="#000000" stroke-width="0.72" stroke-linecap="round" stroke-linejoin="round" stroke-miterlimit="10" x1="162.6" y1="2.071" x2="145.08" y2="2.071"/>

		<line fill="none" stroke="#000000" stroke-width="0.72" stroke-linecap="round" stroke-linejoin="round" stroke-miterlimit="10" x1="141.66" y1="2.071" x2="124.08" y2="2.071"/>

		<polyline fill="none" stroke="#000000" stroke-width="0.72" stroke-linecap="round" stroke-linejoin="round" stroke-miterlimit="10" points="
		120.66,2.071 103.14,2.071 103.14,5.371 	"/>

		<line fill="none" stroke="#000000" stroke-width="0.72" stroke-linecap="round" stroke-linejoin="round" stroke-miterlimit="10" x1="120.66" y1="2.071" x2="120.66" y2="5.371"/>

		<line fill="none" stroke="#000000" stroke-width="0.72" stroke-linecap="round" stroke-linejoin="round" stroke-miterlimit="10" x1="197.04" y1="5.371" x2="214.56" y2="5.371"/>

		<line fill="none" stroke="#000000" stroke-width="0.72" stroke-linecap="round" stroke-linejoin="round" stroke-miterlimit="10" x1="124.08" y1="2.071" x2="124.08" y2="5.371"/>

		<line fill="none" stroke="#000000" stroke-width="0.72" stroke-linecap="round" stroke-linejoin="round" stroke-miterlimit="10" x1="141.66" y1="2.071" x2="141.66" y2="5.371"/>

		<line fill="none" stroke="#000000" stroke-width="0.72" stroke-linecap="round" stroke-linejoin="round" stroke-miterlimit="10" x1="145.08" y1="2.071" x2="145.08" y2="5.371"/>

		<line fill="none" stroke="#000000" stroke-width="0.72" stroke-linecap="round" stroke-linejoin="round" stroke-miterlimit="10" x1="162.6" y1="2.071" x2="162.6" y2="5.371"/>

		<line fill="none" stroke="#000000" stroke-width="0.72" stroke-linecap="round" stroke-linejoin="round" stroke-miterlimit="10" x1="173.82" y1="2.071" x2="173.82" y2="5.371"/>

		<line fill="none" stroke="#000000" stroke-width="0.72" stroke-linecap="round" stroke-linejoin="round" stroke-miterlimit="10" x1="191.34" y1="2.071" x2="191.34" y2="5.371"/>

		<line fill="none" stroke="#000000" stroke-width="0.72" stroke-linecap="round" stroke-linejoin="round" stroke-miterlimit="10" x1="197.04" y1="2.311" x2="197.04" y2="5.371"/>

		<line fill="none" stroke="#000000" stroke-width="0.72" stroke-linecap="round" stroke-linejoin="round" stroke-miterlimit="10" x1="214.56" y1="2.311" x2="214.56" y2="5.371"/>

		<line fill="none" stroke="#000000" stroke-width="0.72" stroke-linecap="round" stroke-linejoin="round" stroke-miterlimit="10" x1="220.26" y1="2.311" x2="220.26" y2="5.371"/>

		<line fill="none" stroke="#000000" stroke-width="0.72" stroke-linecap="round" stroke-linejoin="round" stroke-miterlimit="10" x1="237.78" y1="2.311" x2="237.78" y2="5.371"/>

		<line fill="none" stroke="#000000" stroke-width="0.72" stroke-linecap="round" stroke-linejoin="round" stroke-miterlimit="10" x1="243.48" y1="2.311" x2="243.48" y2="5.371"/>

		<line fill="none" stroke="#000000" stroke-width="0.72" stroke-linecap="round" stroke-linejoin="round" stroke-miterlimit="10" x1="261" y1="2.311" x2="261" y2="5.371"/>

		<line fill="none" stroke="#000000" stroke-width="0.72" stroke-linecap="round" stroke-linejoin="round" stroke-miterlimit="10" x1="274.2" y1="2.311" x2="274.2" y2="5.371"/>

		<line fill="none" stroke="#000000" stroke-width="0.72" stroke-linecap="round" stroke-linejoin="round" stroke-miterlimit="10" x1="291.72" y1="2.311" x2="291.72" y2="5.371"/>

		<line fill="none" stroke="#000000" stroke-width="0.72" stroke-linecap="round" stroke-linejoin="round" stroke-miterlimit="10" x1="297.42" y1="2.311" x2="297.42" y2="5.371"/>

		<line fill="none" stroke="#000000" stroke-width="0.72" stroke-linecap="round" stroke-linejoin="round" stroke-miterlimit="10" x1="314.94" y1="2.311" x2="314.94" y2="5.371"/>

		<line fill="none" stroke="#000000" stroke-width="0.72" stroke-linecap="round" stroke-linejoin="round" stroke-miterlimit="10" x1="320.64" y1="2.311" x2="320.64" y2="5.371"/>

		<line fill="none" stroke="#000000" stroke-width="0.72" stroke-linecap="round" stroke-linejoin="round" stroke-miterlimit="10" x1="338.16" y1="2.311" x2="338.16" y2="5.371"/>

		<line fill="none" stroke="#000000" stroke-width="0.72" stroke-linecap="round" stroke-linejoin="round" stroke-miterlimit="10" x1="343.86" y1="2.311" x2="343.86" y2="5.371"/>

		<line fill="none" stroke="#000000" stroke-width="0.72" stroke-linecap="round" stroke-linejoin="round" stroke-miterlimit="10" x1="361.44" y1="2.311" x2="361.44" y2="5.371"/>

		<line fill="none" stroke="#000000" stroke-width="0.72" stroke-linecap="round" stroke-linejoin="round" stroke-miterlimit="10" x1="374.64" y1="2.311" x2="374.64" y2="5.371"/>

		<line fill="none" stroke="#000000" stroke-width="0.72" stroke-linecap="round" stroke-linejoin="round" stroke-miterlimit="10" x1="392.16" y1="2.311" x2="392.16" y2="5.371"/>

		<line fill="none" stroke="#000000" stroke-width="0.72" stroke-linecap="round" stroke-linejoin="round" stroke-miterlimit="10" x1="397.86" y1="2.311" x2="397.86" y2="5.371"/>

		<line fill="none" stroke="#000000" stroke-width="0.72" stroke-linecap="round" stroke-linejoin="round" stroke-miterlimit="10" x1="415.38" y1="2.311" x2="415.38" y2="5.371"/>

		<line fill="none" stroke="#000000" stroke-width="0.72" stroke-linecap="round" stroke-linejoin="round" stroke-miterlimit="10" x1="421.08" y1="2.311" x2="421.08" y2="5.371"/>

		<line fill="none" stroke="#000000" stroke-width="0.72" stroke-linecap="round" stroke-linejoin="round" stroke-miterlimit="10" x1="438.6" y1="2.311" x2="438.6" y2="5.371"/>

		<line fill="none" stroke="#000000" stroke-width="0.72" stroke-linecap="round" stroke-linejoin="round" stroke-miterlimit="10" x1="444.3" y1="2.311" x2="444.3" y2="5.371"/>

		<line fill="none" stroke="#000000" stroke-width="0.72" stroke-linecap="round" stroke-linejoin="round" stroke-miterlimit="10" x1="461.82" y1="2.311" x2="461.82" y2="5.371"/>

		<line fill="none" stroke="#000000" stroke-width="0.72" stroke-linecap="round" stroke-linejoin="round" stroke-miterlimit="10" x1="475.38" y1="2.311" x2="475.38" y2="5.371"/>

		<line fill="none" stroke="#000000" stroke-width="0.72" stroke-linecap="round" stroke-linejoin="round" stroke-miterlimit="10" x1="492.96" y1="2.311" x2="492.96" y2="5.371"/>

		<line fill="none" stroke="#000000" stroke-width="0.72" stroke-linecap="round" stroke-linejoin="round" stroke-miterlimit="10" x1="501.72" y1="8.251" x2="501.72" y2="5.371"/>

		<line fill="none" stroke="#000000" stroke-width="0.72" stroke-linecap="round" stroke-linejoin="round" stroke-miterlimit="10" x1="2.28" y1="8.251" x2="2.28" y2="5.371"/>

		<rect x="55.38" y="13.531" fill="none" stroke="#000000" stroke-width="0.24" stroke-linecap="round" stroke-linejoin="round" stroke-miterlimit="10" width="18.84" height="3.96"/>

		<path fill="none" stroke="#000000" stroke-width="0.24" stroke-linecap="round" stroke-linejoin="round" stroke-miterlimit="10" d="
		M55.38,13.531"/>

		<rect x="75.84" y="13.531" fill="none" stroke="#000000" stroke-width="0.24" stroke-linecap="round" stroke-linejoin="round" stroke-miterlimit="10" width="18.84" height="3.96"/>

		<path fill="none" stroke="#000000" stroke-width="0.24" stroke-linecap="round" stroke-linejoin="round" stroke-miterlimit="10" d="
		M75.84,13.531"/>

		<line fill="none" stroke="#000000" stroke-width="0.72" stroke-linecap="round" stroke-linejoin="round" stroke-miterlimit="10" x1="85.26" y1="20.851" x2="85.26" y2="47.491"/>
	<path fill-rule="evenodd" clip-rule="evenodd" d="M36.24,51.871l-3.42,0.12H33l0.36,0.06c2.073,0.093,3.207,1.804,3.12,3.84v0.6
		c-0.216,2.05-1.123,3.351-3.3,3.42h-1.74l4.92,0.06c1.962-1.684,2.079-5.901,0.3-7.74l-0.18-0.18"/>
	<path fill-rule="evenodd" clip-rule="evenodd" d="M32.88,50.911h-2.34l-0.3,0.12l-0.06,0.12l-0.06,0.3v9.24l0.12,0.24h0.06
		l0.3,0.12h2.88l0.36-0.06l0.9-0.18l0.24-0.06l0.3-0.12l0.3-0.12l0.24-0.18l0.3-0.18l0.24-0.18l-4.92-0.06v-7.92h1.38l3.42-0.12
		L36,51.691c-0.711-0.503-1.546-0.724-2.4-0.78h-0.36"/>
	<path fill-rule="evenodd" clip-rule="evenodd" d="M45.36,59.611l-0.3,0.06c-0.618,0.353-1.337,0.478-2.04,0.48l-2.76,0.06l0.3,0.3
		c0.865,0.655,1.953,0.721,3,0.66l0.3-0.06h0.18l0.3-0.06l0.3-0.12l0.24-0.06l0.3-0.12l0.24-0.12l0.06-0.12l0.06-0.06v-0.18
		l0.06-0.18l-0.06-0.24v-0.12l-0.06-0.12"/>
	<path fill-rule="evenodd" clip-rule="evenodd" d="M45.12,54.391l-2.4,0.06h0.36c0.988,0.287,1.362,0.779,1.5,1.8v0.36h-3.84
		l-1.32,0.06l-0.06,0.36c-0.07,0.862,0.225,2.591,0.9,3.18l2.76-0.06h-0.18c-1.405-0.127-2.045-0.84-2.1-2.22v-0.36h4.68l0.3-0.12
		l0.06-0.12l0.06-0.3v-0.96l-0.12-0.6l-0.12-0.24l-0.12-0.3l-0.18-0.24"/>
	<path fill-rule="evenodd" clip-rule="evenodd" d="M42.78,53.431H42.6c-1.834,0.116-2.819,1.18-3.18,2.94v0.3l1.32-0.06v-0.18
		c0.053-1.127,0.834-1.983,1.98-1.98l2.4-0.06L45,54.211c-0.465-0.343-0.982-0.659-1.56-0.72l-0.3-0.06"/>
	<polyline fill-rule="evenodd" clip-rule="evenodd" points="50.46,59.911 49.02,59.971 49.14,60.091 51.24,60.091 51.06,60.091
		50.76,60.031 	"/>
	<polyline fill-rule="evenodd" clip-rule="evenodd" points="49.44,54.391 49.2,54.571 50.76,54.631 50.94,54.571 51.3,54.571 	"/>
	<path fill-rule="evenodd" clip-rule="evenodd" d="M51.54,53.431h-0.3l-0.6,0.12l-0.3,0.12v0.06l-0.3,0.12l-0.24,0.18l-0.36,0.36
		l1.86,0.18h0.24c0.975,0.138,1.468,1.279,1.44,2.16l0.06,0.3v0.36c-0.013,0.905-0.339,2.571-1.5,2.64l-0.3,0.06h-2.1l0.24,0.24
		l0.24,0.18v0.06l0.3,0.18c4.611,2.584,6.196-6.127,2.28-7.26l-0.36-0.06"/>
	<path fill-rule="evenodd" clip-rule="evenodd" d="M48.54,50.131h-0.3L48,50.191l-0.06,0.06l-0.06,0.12v10.62l0.12,0.06l0.18,0.06
		h0.54l0.18-0.06l0.12-0.06v-1.02l1.44-0.06l-0.24-0.18l-0.12-0.06l-0.24-0.18l-0.24-0.24l-0.18-0.24l-0.24-0.24v-2.82l0.12-0.24
		c0.375-0.389,0.512-0.526,0.96-0.84l0.48-0.24l-1.56-0.06v-4.2l-0.06-0.12l-0.12-0.06l-0.18-0.06"/>
	<polyline fill-rule="evenodd" clip-rule="evenodd" points="60,59.791 59.7,59.971 59.1,60.091 60.96,60.151 61.2,59.911 	"/>
	<path fill-rule="evenodd" clip-rule="evenodd" d="M56.94,53.551h-0.3l-0.18,0.06l-0.12,0.06l-0.06,0.12v4.32l0.06,0.36v0.36
		l0.06,0.3l0.06,0.24v0.12l0.24,0.6l0.18,0.24v0.06l0.24,0.24c0.939,0.809,2.389,0.666,3.36,0l0.48-0.48l-1.86-0.06h-0.06l-0.3-0.06
		l-0.3-0.12l-0.24-0.12l-0.24-0.24v-0.06l-0.18-0.3l-0.18-0.9v-4.62l-0.12-0.06l-0.24-0.06"/>
	<polyline fill-rule="evenodd" clip-rule="evenodd" points="61.74,53.551 61.44,53.551 61.2,53.611 61.14,53.671 61.08,53.791
		61.08,58.711 60.96,58.891 60.3,59.551 60.06,59.731 60,59.791 61.2,59.911 61.2,60.871 61.26,60.931 61.32,61.051 61.5,61.111
		62.1,61.111 62.28,61.051 62.34,60.931 62.4,60.871 62.4,53.791 62.34,53.671 62.28,53.611 62.04,53.551 	"/>
	<path fill-rule="evenodd" clip-rule="evenodd" d="M64.8,60.391l-0.18,0.24c-0.584,0.505-0.794,1.46-0.42,2.16l0.06,0.12h3h-0.24
		c-1.547,0.052-2.389-0.949-1.14-2.16l0.24-0.24"/>
	<polyline fill-rule="evenodd" clip-rule="evenodd" points="68.94,58.051 65.76,58.111 66.06,58.291 66.36,58.411 66.54,58.471
		66.84,58.471 67.2,58.531 67.38,58.531 67.98,58.411 68.28,58.351 68.34,58.351 68.64,58.171 	"/>
	<path fill-rule="evenodd" clip-rule="evenodd" d="M64.98,54.391l-0.18,0.24c-0.459,0.72-0.531,1.983,0,2.7l0.18,0.24l2.22-0.06
		h-0.3c-1.642-0.21-1.616-2.702-0.06-3.06h0.3"/>
	<path fill-rule="evenodd" clip-rule="evenodd" d="M67.2,53.431h-0.18c-0.859,0.145-1.111,0.148-1.8,0.72h-0.06l-0.18,0.24
		l2.16,0.06h0.36c1.282,0.147,1.599,2.088,0.6,2.76l-0.24,0.18H67.8l-0.3,0.12h-0.3l-2.22,0.06l-0.12,0.12l-0.24,0.3l-0.24,0.48
		l-0.12,0.6v0.06l0.06,0.3l0.18,0.3l0.06,0.12l0.18,0.18l0.3,0.18l-0.24,0.18l1.32,0.12l1.8,0.12h0.48l0.3,0.12l0.24,0.12l0.18,0.12
		l0.18,0.24l0.06,0.36l-0.06,0.18l-0.06,0.3l-0.12,0.24l-0.24,0.18l-0.06,0.06l-0.24,0.12l-0.36,0.12l-0.3,0.06l-0.3,0.06h-3.36
		l0.54,0.54c1.14,0.516,2.439,0.576,3.66,0.36l0.24-0.12l0.3-0.06c1.215-0.412,2.035-1.687,1.44-2.94l-0.06-0.12l-0.18-0.24
		l-0.24-0.24l-0.18-0.12l-0.3-0.12l-0.3-0.12l-0.6-0.12h-0.36l-1.86-0.12H66.3l-0.36-0.06l-0.24-0.12l-0.18-0.18l-0.06-0.3v-0.12
		l0.06-0.3l0.06-0.06l0.18-0.24l3.18-0.06l0.48-0.48l0.18-0.24l0.12-0.3l0.06-0.12c0.161-0.637,0.116-0.772,0.12-1.38l-0.12-0.3
		v-0.06l-0.12-0.3l-0.24-0.24h1.02l0.18-0.12l0.06-0.06v-0.48l-0.06-0.24l-0.18-0.12h-2.16l-0.18-0.06l-0.3-0.06h-0.3"/>
	<polyline fill-rule="evenodd" clip-rule="evenodd" points="78.66,59.911 77.22,59.971 77.34,60.091 79.44,60.091 79.26,60.091
		78.96,60.031 	"/>
	<polyline fill-rule="evenodd" clip-rule="evenodd" points="77.64,54.391 77.4,54.571 78.96,54.631 79.14,54.571 79.5,54.571 	"/>
	<path fill-rule="evenodd" clip-rule="evenodd" d="M79.74,53.431h-0.3l-0.3,0.06l-0.3,0.06l-0.3,0.12v0.06l-0.3,0.12L78,54.031
		l-0.36,0.36l1.86,0.18h0.24c0.975,0.138,1.468,1.279,1.44,2.16l0.06,0.3v0.36c-0.013,0.905-0.339,2.571-1.5,2.64l-0.3,0.06h-2.1
		l0.24,0.24l0.24,0.18v0.06l0.3,0.18c4.611,2.584,6.196-6.127,2.28-7.26l-0.36-0.06"/>
	<path fill-rule="evenodd" clip-rule="evenodd" d="M76.74,50.131h-0.3l-0.24,0.06l-0.06,0.06l-0.06,0.12v10.62l0.12,0.06l0.18,0.06
		h0.54l0.18-0.06l0.12-0.06v-1.02l1.44-0.06l-0.24-0.18l-0.12-0.06l-0.24-0.18l-0.24-0.24l-0.18-0.24l-0.24-0.24v-2.82l0.12-0.24
		c0.375-0.389,0.512-0.526,0.96-0.84l0.48-0.24l-1.56-0.06v-4.2l-0.06-0.12l-0.12-0.06l-0.18-0.06"/>
	<path fill-rule="evenodd" clip-rule="evenodd" d="M90.24,54.451l-2.64,0.06h0.12c0.609,0.05,1.247,0.272,1.56,0.84h0.06l0.12,0.3
		c0.671,1.555,0.398,4.589-1.92,4.44l-2.64,0.12h0.06l0.18,0.24c4.137,2.532,7.315-1.536,5.46-5.52l-0.18-0.24"/>
	<path fill-rule="evenodd" clip-rule="evenodd" d="M87.66,53.431H87.6c-3.468-0.122-4.381,4.086-2.88,6.54l0.18,0.24l2.64-0.12
		h-0.12c-2.771,0.192-2.773-5.859,0.18-5.58l2.64-0.06v-0.06c-0.525-0.511-1.184-0.825-1.92-0.9l-0.3-0.06"/>
	<polyline fill-rule="evenodd" clip-rule="evenodd" points="95.88,60.091 95.58,60.151 95.22,60.211 97.02,60.391 97.26,60.151 	"/>
	<path fill-rule="evenodd" clip-rule="evenodd" d="M93.18,57.511L93,57.751c-1.671,2.63,1.713,4.489,3.78,2.82l0.24-0.18l-1.8-0.18
		c-1.368,0.04-1.731-1.68-0.78-2.22v-0.06l0.3-0.12l0.3-0.06l0.3-0.06l0.3-0.06h1.44"/>
	<polyline fill-rule="evenodd" clip-rule="evenodd" points="92.94,54.391 92.94,54.931 93,55.111 93.06,55.171 93.18,55.231
		93.48,55.111 93.66,54.991 93.96,54.871 94.02,54.811 94.62,54.571 94.8,54.571 95.16,54.511 95.46,54.511 	"/>
	<path fill-rule="evenodd" clip-rule="evenodd" d="M95.58,53.431H95.4c-0.796,0.114-1.681,0.181-2.28,0.78l-0.18,0.18l2.52,0.12
		c1.087-0.139,1.694,0.592,1.62,1.62v0.6h-1.86l-0.3,0.06l-0.3,0.06l-0.24,0.06l-0.6,0.24l-0.24,0.12l-0.06,0.06l-0.3,0.18l3.9,0.12
		v1.5l-0.18,0.24l-0.24,0.18l-0.24,0.24l-0.24,0.12l-0.06,0.06l-0.24,0.12l1.38,0.06v0.72l0.06,0.12l0.18,0.06l0.3,0.06h0.06
		l0.3-0.06l0.18-0.06l0.06-0.12v-4.98l-0.06-0.36l-0.06-0.3c-0.139-0.993-0.73-1.492-1.68-1.68l-0.3-0.06l-0.36-0.06"/>
	<polyline fill-rule="evenodd" clip-rule="evenodd" points="104.88,54.571 103.74,54.691 104.04,54.691 104.34,54.751
		104.52,54.811 104.7,54.871 104.82,54.751 	"/>
	<polyline fill-rule="evenodd" clip-rule="evenodd" points="101.34,53.551 101.04,53.551 100.86,53.611 100.74,53.671
		100.74,60.871 100.8,60.931 100.86,61.051 101.1,61.111 101.7,61.111 101.88,61.051 102.06,60.871 102.06,56.191 102.18,55.951
		102.54,55.471 102.78,55.231 102.96,54.991 103.08,54.871 101.94,54.811 101.94,53.791 101.88,53.671 101.82,53.611 101.64,53.551
			"/>
	<path fill-rule="evenodd" clip-rule="evenodd" d="M103.86,53.431h-0.18l-0.3,0.06l-0.18,0.06l-0.48,0.36l-0.24,0.24l-0.18,0.12
		l-0.18,0.24l-0.18,0.3l1.14,0.06l0.3-0.12l0.06-0.06h0.3l1.14-0.12v-0.3c0.024-0.512,0.03-0.704-0.54-0.78l-0.24-0.06"/>
	<polyline fill-rule="evenodd" clip-rule="evenodd" points="109.74,59.911 109.5,60.031 109.32,60.091 108.96,60.091 111,60.151
		111.24,59.911 	"/>
	<path fill-rule="evenodd" clip-rule="evenodd" d="M106.68,54.511l-0.06,0.06c-1.926,3.033-0.095,8.785,4.14,5.82l0.24-0.24
		l-2.04-0.06h-0.3c-1.011-0.243-1.324-1.249-1.44-2.16v-0.66c-0.017-0.789,0.311-2.31,1.2-2.58l0.3-0.12h0.3"/>
	<polyline fill-rule="evenodd" clip-rule="evenodd" points="108.9,53.431 108.48,53.431 108.18,53.491 107.88,53.611 107.58,53.731
		107.34,53.851 107.1,54.031 106.86,54.271 106.68,54.511 111.06,54.511 110.58,54.031 110.28,53.851 110.04,53.731 109.86,53.611
		109.56,53.491 109.26,53.431 	"/>
	<path fill-rule="evenodd" clip-rule="evenodd" d="M111.72,50.131l-0.3,0.06h-0.24l-0.06,0.12l-0.06,0.06v4.14h-4.38l2.34,0.06h0.18
		c0.468,0.043,0.861,0.297,1.2,0.6l0.42,0.42l0.24,0.3v2.82l-0.12,0.18l-0.72,0.72l-0.24,0.18l-0.24,0.12h1.5v1.08l0.12,0.06
		l0.18,0.06h0.54l0.18-0.06l0.06-0.06l0.06-0.12v-10.5l-0.06-0.06l-0.06-0.12h-0.24"/>
	<path fill-rule="evenodd" clip-rule="evenodd" d="M117.96,59.491h-0.06l-0.06,0.12l-0.06,0.18c-0.138,1.101,0.463,1.083,1.5,1.32
		l0.06,0.06h0.3c0.797,0.031,1.692-0.023,2.34-0.54l0.24-0.24l0.18-0.24h-2.88l-0.3-0.12l-0.3-0.06l-0.24-0.12l-0.18-0.12
		l-0.24-0.12"/>
	<path fill-rule="evenodd" clip-rule="evenodd" d="M122.4,54.271l-1.92,0.18h0.06c0.615-0.034,0.933,0.162,1.44,0.42l0.24,0.12
		l0.12-0.12l0.06-0.18v-0.24"/>
	<path fill-rule="evenodd" clip-rule="evenodd" d="M120.48,53.431h-0.18l-0.36,0.06l-0.3,0.06c-0.689,0.142-1.255,0.563-1.56,1.2
		l-0.06,0.18l-0.06,0.3c-0.128,0.595,0.058,1.279,0.54,1.68l0.06,0.06l0.48,0.36l0.06,0.06c0.461,0.225,1.468,0.454,1.8,0.78
		l0.24,0.12l0.18,0.24l0.12,0.18l0.06,0.3l-0.06,0.24l-0.06,0.3l-0.06,0.12l-0.24,0.24l-0.18,0.06l-0.3,0.12l-0.24,0.06H120h2.4
		l0.18-0.24v-0.06c0.233-0.416,0.218-0.987,0.12-1.44l-0.12-0.24v-0.06l-0.18-0.3l-0.18-0.24l-0.06-0.06l-0.24-0.18l-0.3-0.12
		l-0.06-0.06l-0.6-0.24l-0.06-0.06l-0.3-0.12c-0.443-0.197-1.014-0.31-1.26-0.78l-0.12-0.18l-0.06-0.3v-0.12l0.12-0.3v-0.06
		l0.24-0.24l0.06-0.12l0.3-0.12l0.3-0.06h0.3l1.92-0.18l-0.06-0.18v-0.06l-0.12-0.12l-0.24-0.18h-0.12l-0.3-0.12l-0.18-0.06
		l-0.3-0.06l-0.24-0.06"/>
	<polyline fill-rule="evenodd" clip-rule="evenodd" points="125.88,60.871 125.7,61.051 125.52,61.111 124.92,61.111 124.68,61.051
		124.62,60.931 124.56,60.871 124.56,50.371 124.62,50.251 124.68,50.191 124.92,50.131 125.52,50.131 125.7,50.191 125.82,50.251
		125.88,50.371 125.88,60.871 	"/>
	<path fill-rule="evenodd" clip-rule="evenodd" d="M133.92,54.451l-2.64,0.06h0.12c0.609,0.05,1.247,0.272,1.56,0.84h0.06l0.12,0.3
		c0.671,1.555,0.398,4.589-1.92,4.44l-2.64,0.12h0.06l0.18,0.24c4.137,2.532,7.315-1.536,5.46-5.52l-0.18-0.24"/>
	<path fill-rule="evenodd" clip-rule="evenodd" d="M131.34,53.431h-0.06c-3.468-0.122-4.381,4.086-2.88,6.54l0.18,0.24l2.64-0.12
		h-0.12c-2.771,0.192-2.773-5.859,0.18-5.58l2.64-0.06v-0.06c-0.525-0.511-1.183-0.825-1.92-0.9l-0.3-0.06"/>
	<polyline fill-rule="evenodd" clip-rule="evenodd" points="140.16,59.851 140.04,59.911 139.86,59.971 139.62,60.031
		139.56,60.031 139.26,60.091 140.34,60.091 140.28,59.971 140.28,59.851 	"/>
	<path fill-rule="evenodd" clip-rule="evenodd" d="M137.64,51.631l-0.3,0.06h-0.24l-0.12,0.24v1.68h-1.08l-0.12,0.12v0.12l-0.06,0.3
		v0.12l0.06,0.24l0.24,0.18h0.96v4.2c-0.031,0.512,0.159,1.472,0.6,1.8l0.24,0.18l0.3,0.18c0.557,0.161,1.923,0.287,2.22-0.36v-0.6
		h-1.08c-0.907-0.038-0.964-0.782-0.96-1.5v-3.9h1.8l0.24-0.24v-0.6l-0.12-0.24h-1.92v-1.68l-0.06-0.12l-0.12-0.12h-0.18"/>
</g>
</svg>
