<?xml version="1.0" encoding="utf-8"?>
<!-- Generator: Adobe Illustrator 24.1.2, SVG Export Plug-In . SVG Version: 6.00 Build 0)  -->
<svg version="1.0" id="Layer_1" xmlns="http://www.w3.org/2000/svg" xmlns:xlink="http://www.w3.org/1999/xlink" x="0px" y="0px"
	 width="335px" height="237px" viewBox="0 0 335 237" enable-background="new 0 0 335 237" xml:space="preserve">
<g>

		<line fill="none" stroke="#000000" stroke-width="0.72" stroke-linecap="round" stroke-linejoin="round" stroke-miterlimit="10" x1="26.2" y1="30.63" x2="5.8" y2="63.15"/>

		<line fill="none" stroke="#000000" stroke-width="0.72" stroke-linecap="round" stroke-linejoin="round" stroke-miterlimit="10" x1="85.12" y1="2.13" x2="48.58" y2="13.05"/>

		<line fill="none" stroke="#000000" stroke-width="0.24" stroke-linecap="round" stroke-linejoin="round" stroke-miterlimit="10" x1="100.12" y1="46.65" x2="137.56" y2="66.75"/>

		<polyline fill="none" stroke="#000000" stroke-width="0.72" stroke-linecap="round" stroke-linejoin="bevel" stroke-miterlimit="10" points="
		46,15.39 45.64,15.87 45.52,16.41 45.58,16.95 45.88,17.43 46.3,17.79 	"/>

		<line fill="none" stroke="#000000" stroke-width="0.24" stroke-linecap="round" stroke-linejoin="round" stroke-miterlimit="10" x1="44.02" y1="39.69" x2="116.5" y2="83.43"/>

		<polyline fill="none" stroke="#000000" stroke-width="0.72" stroke-linecap="round" stroke-linejoin="bevel" stroke-miterlimit="10" points="
		28.24,30.21 27.7,29.97 27.1,30.03 26.56,30.27 26.2,30.69 	"/>

		<polyline fill="none" stroke="#000000" stroke-width="0.72" stroke-linecap="round" stroke-linejoin="round" stroke-miterlimit="10" points="
		140.14,23.85 129.52,19.05 118.78,14.43 107.98,10.11 97.06,5.97 86.02,2.13 	"/>

		<line fill="none" stroke="#000000" stroke-width="0.72" stroke-linecap="round" stroke-linejoin="bevel" stroke-miterlimit="10" x1="86.02" y1="2.13" x2="85.12" y2="2.13"/>

		<polyline fill="none" stroke="#000000" stroke-width="0.72" stroke-linecap="round" stroke-linejoin="bevel" stroke-miterlimit="10" points="
		172.42,40.29 167.2,37.23 161.92,34.29 156.58,31.47 151.18,28.77 145.66,26.25 140.14,23.85 	"/>

		<path fill="none" stroke="#000000" stroke-width="0.72" stroke-linecap="round" stroke-linejoin="bevel" stroke-miterlimit="10" d="
		M209.02,66.21l-4.92-4.14c-8.124-6.746-17.058-13.028-26.1-18.48l-5.58-3.24"/>

		<path fill="none" stroke="#000000" stroke-width="0.72" stroke-linecap="round" stroke-linejoin="bevel" stroke-miterlimit="10" d="
		M262.9,167.79l-1.56-6.12c-2.691-10.378-5.906-20.17-9.9-30.12l-2.4-5.82"/>

		<path fill="none" stroke="#000000" stroke-width="0.72" stroke-linecap="round" stroke-linejoin="bevel" stroke-miterlimit="10" d="
		M249.04,125.67l-2.16-5.16c-3.665-8.522-8.048-16.699-12.9-24.6l-3-4.62"/>

		<polyline fill="none" stroke="#000000" stroke-width="0.72" stroke-linecap="round" stroke-linejoin="bevel" stroke-miterlimit="10" points="
		231.04,91.29 227.74,86.79 224.26,82.41 220.72,78.15 216.94,74.01 213.04,70.05 209.02,66.21 	"/>

		<path fill="none" stroke="#000000" stroke-width="0.72" stroke-linecap="round" stroke-linejoin="bevel" stroke-miterlimit="10" d="
		M257.92,194.67l1.26-3.24c2.359-6.452,3.593-13.298,3.78-20.16l-0.06-3.42"/>

		<polyline fill="none" stroke="#000000" stroke-width="0.72" stroke-linecap="round" stroke-linejoin="bevel" stroke-miterlimit="10" points="
		252.34,206.61 253.96,203.73 255.4,200.79 256.72,197.73 257.92,194.67 	"/>

		<line fill="none" stroke="#000000" stroke-width="0.72" stroke-linecap="round" stroke-linejoin="bevel" stroke-miterlimit="10" x1="252.04" y1="206.97" x2="252.28" y2="206.61"/>

		<polyline fill="none" stroke="#000000" stroke-width="0.72" stroke-linecap="round" stroke-linejoin="round" stroke-miterlimit="10" points="
		3.7,67.89 14.38,77.07 25.3,86.07 	"/>

		<polyline fill="none" stroke="#000000" stroke-width="0.72" stroke-linecap="round" stroke-linejoin="bevel" stroke-miterlimit="10" points="
		3.52,66.81 3.4,67.17 3.46,67.53 3.7,67.83 	"/>

		<path fill="none" stroke="#000000" stroke-width="0.72" stroke-linecap="round" stroke-linejoin="round" stroke-miterlimit="10" d="
		M25.3,86.07l10.38,8.64c21.36,17.042,42.395,34.532,65.82,48.72l7.98,4.74"/>

		<polyline fill="none" stroke="#000000" stroke-width="0.24" stroke-linecap="round" stroke-linejoin="round" stroke-miterlimit="10" points="
		177.28,125.55 167.44,128.43 157.66,131.43 147.94,134.67 138.28,138.09 128.68,141.69 119.14,145.53 	"/>

		<polyline fill="none" stroke="#000000" stroke-width="0.24" stroke-linecap="round" stroke-linejoin="round" stroke-miterlimit="10" points="
		174.64,111.51 164.74,116.07 154.96,120.81 145.24,125.85 135.7,131.07 126.22,136.53 116.92,142.23 	"/>

		<line fill="none" stroke="#000000" stroke-width="0.24" stroke-linecap="round" stroke-linejoin="round" stroke-miterlimit="10" x1="177.28" y1="125.55" x2="174.64" y2="111.51"/>

		<line fill="none" stroke="#000000" stroke-width="0.24" stroke-linecap="round" stroke-linejoin="round" stroke-miterlimit="10" x1="119.14" y1="145.53" x2="116.92" y2="142.23"/>

		<polyline fill="none" stroke="#000000" stroke-width="0.24" stroke-linecap="round" stroke-linejoin="round" stroke-miterlimit="10" points="
		204.4,62.25 199.54,71.73 194.86,81.21 190.3,90.87 185.98,100.53 	"/>

		<polyline fill="none" stroke="#000000" stroke-width="0.24" stroke-linecap="round" stroke-linejoin="round" stroke-miterlimit="10" points="
		207.7,65.07 202.78,101.19 185.98,100.53 	"/>

		<path fill="none" stroke="#000000" stroke-width="0.24" stroke-linecap="round" stroke-linejoin="bevel" stroke-miterlimit="10" d="
		M164.74,91.95l0.12-1.86c0.132-7.026-2.742-13.717-8.16-18.24l-1.5-1.2"/>

		<path fill="none" stroke="#000000" stroke-width="0.24" stroke-linecap="round" stroke-linejoin="bevel" stroke-miterlimit="10" d="
		M132.34,92.91l3.12,0.78c6.917,1.729,15.006,2.165,22.08,1.32l3.18-0.42"/>

		<polyline fill="none" stroke="#000000" stroke-width="0.24" stroke-linecap="round" stroke-linejoin="round" stroke-miterlimit="10" points="
		116.5,83.43 121.66,86.79 126.94,89.91 132.34,92.91 	"/>

		<line fill="none" stroke="#000000" stroke-width="0.24" stroke-linecap="round" stroke-linejoin="round" stroke-miterlimit="10" x1="140.14" y1="61.77" x2="48.1" y2="13.29"/>

		<polyline fill="none" stroke="#000000" stroke-width="0.24" stroke-linecap="round" stroke-linejoin="bevel" stroke-miterlimit="10" points="
		155.2,70.71 151.6,68.25 147.88,65.91 144.04,63.75 140.08,61.83 	"/>

		<line fill="none" stroke="#000000" stroke-width="0.24" stroke-linecap="round" stroke-linejoin="round" stroke-miterlimit="10" x1="125.56" y1="81.03" x2="101.8" y2="66.51"/>

		<path fill="none" stroke="#000000" stroke-width="0.24" stroke-linecap="round" stroke-linejoin="bevel" stroke-miterlimit="10" d="
		M150.34,78.45l-1.2-1.86c-2.62-3.737-5.693-6.56-9.66-8.82l-1.98-0.96"/>

		<path fill="none" stroke="#000000" stroke-width="0.24" stroke-linecap="round" stroke-linejoin="bevel" stroke-miterlimit="10" d="
		M125.62,81.03l2.04,1.02c4.32,2.165,10.938,3.175,15.72,2.52l2.28-0.36"/>

		<path fill="none" stroke="#000000" stroke-width="0.24" stroke-linecap="round" stroke-linejoin="round" stroke-miterlimit="10" d="
		M145.66,84.21l2.16-0.6c2.52-0.654,3.365-1.357,2.82-4.08l-0.3-1.14"/>

		<line fill="none" stroke="#000000" stroke-width="0.72" stroke-linecap="round" stroke-linejoin="round" stroke-miterlimit="10" x1="47.98" y1="13.41" x2="45.94" y2="15.39"/>

		<line fill="none" stroke="#000000" stroke-width="0.72" stroke-linecap="round" stroke-linejoin="bevel" stroke-miterlimit="10" x1="48.58" y1="13.05" x2="47.98" y2="13.41"/>

		<path fill="none" stroke="#000000" stroke-width="0.24" stroke-linecap="round" stroke-linejoin="bevel" stroke-miterlimit="10" d="
		M216.28,218.07l-3.84-4.74c-23.016-28.178-52.94-51.098-86.1-66.06l-5.52-2.46"/>

		<polyline fill="none" stroke="#000000" stroke-width="0.72" stroke-linecap="round" stroke-linejoin="bevel" stroke-miterlimit="10" points="
		217.72,219.87 218.26,220.47 218.98,220.89 219.76,221.19 220.6,221.31 221.44,221.25 222.22,220.95 	"/>

		<path fill="none" stroke="#000000" stroke-width="0.24" stroke-linecap="round" stroke-linejoin="round" stroke-miterlimit="10" d="
		M5.8,63.15l9.12,8.28c27.507,24.492,57.11,46.629,88.32,66.18l10.5,6.36"/>

		<path fill="none" stroke="#000000" stroke-width="0.72" stroke-linecap="round" stroke-linejoin="round" stroke-miterlimit="10" d="
		M11.92,105.63l7.68,12.84c15.5,25.572,32.228,50.276,50.22,74.16l9.06,11.88"/>

		<line fill="none" stroke="#000000" stroke-width="0.72" stroke-linecap="round" stroke-linejoin="bevel" stroke-miterlimit="10" x1="11.8" y1="105.39" x2="11.92" y2="105.69"/>

		<path fill="none" stroke="#000000" stroke-width="0.72" stroke-linecap="round" stroke-linejoin="bevel" stroke-miterlimit="10" d="
		M78.94,204.45l2.04,2.52c12.644,15.187,31.469,24.387,51.18,25.32l3.3,0.06"/>

		<path fill="none" stroke="#000000" stroke-width="0.72" stroke-linecap="round" stroke-linejoin="round" stroke-miterlimit="10" d="
		M135.46,232.41l7.32-0.06c12.238-0.415,24.192-1.64,36.18-4.2l7.08-1.56"/>

		<line fill="none" stroke="#000000" stroke-width="0.72" stroke-linecap="round" stroke-linejoin="bevel" stroke-miterlimit="10" x1="186.1" y1="226.59" x2="186.58" y2="226.41"/>

		<line fill="none" stroke="#000000" stroke-width="0.72" stroke-linecap="round" stroke-linejoin="round" stroke-miterlimit="10" x1="195.88" y1="219.93" x2="186.58" y2="226.35"/>

		<line fill="none" stroke="#000000" stroke-width="0.72" stroke-linecap="round" stroke-linejoin="round" stroke-miterlimit="10" x1="222.76" y1="220.77" x2="252.04" y2="206.97"/>

		<path fill="none" stroke="#000000" stroke-width="0.72" stroke-linecap="round" stroke-linejoin="round" stroke-miterlimit="10" d="
		M198.22,213.15l-6-5.82c-18.132-17.037-38.73-31.675-60.78-43.2l-7.44-3.78"/>

		<line fill="none" stroke="#000000" stroke-width="0.72" stroke-linecap="round" stroke-linejoin="round" stroke-miterlimit="10" x1="50.14" y1="112.77" x2="4.12" y2="73.35"/>

		<line fill="none" stroke="#000000" stroke-width="0.72" stroke-linecap="round" stroke-linejoin="round" stroke-miterlimit="10" x1="2.74" y1="78.51" x2="11.8" y2="105.39"/>

		<line fill="none" stroke="#000000" stroke-width="0.24" stroke-linecap="round" stroke-linejoin="round" stroke-miterlimit="10" x1="44.62" y1="114.69" x2="2.74" y2="78.51"/>

		<path fill="none" stroke="#000000" stroke-width="0.24" stroke-linecap="round" stroke-linejoin="round" stroke-miterlimit="10" d="
		M193.06,217.05l-5.64-5.46c-19.203-18.016-40.512-33.127-63.96-45.12l-7.02-3.48"/>

		<line fill="none" stroke="#000000" stroke-width="0.24" stroke-linecap="round" stroke-linejoin="round" stroke-miterlimit="10" x1="75.76" y1="138.27" x2="79.12" y2="140.49"/>

		<path fill="none" stroke="#000000" stroke-width="0.24" stroke-linecap="round" stroke-linejoin="bevel" stroke-miterlimit="10" d="
		M116.38,162.93l1.2,0.12c1.87,0.049,4.071-0.66,5.52-1.86l0.84-0.84"/>

		<line fill="none" stroke="#000000" stroke-width="0.24" stroke-linecap="round" stroke-linejoin="round" stroke-miterlimit="10" x1="45.7" y1="116.73" x2="49.36" y2="119.43"/>

		<path fill="none" stroke="#000000" stroke-width="0.42" stroke-linecap="round" stroke-linejoin="bevel" stroke-miterlimit="10" d="
		M50.14,112.83l-0.54,0.9c-0.96,2.29-0.988,3.924-0.06,6.24l0.54,0.96"/>

		<polyline fill="none" stroke="#000000" stroke-width="0.42" stroke-linecap="round" stroke-linejoin="round" stroke-miterlimit="10" points="
		50.14,112.83 59.62,119.67 69.16,126.33 78.82,132.87 	"/>

		<polyline fill="none" stroke="#000000" stroke-width="0.42" stroke-linecap="round" stroke-linejoin="round" stroke-miterlimit="10" points="
		81.58,134.67 92.02,141.39 102.58,147.87 113.2,154.23 124,160.35 	"/>

		<path fill="none" stroke="#000000" stroke-width="0.42" stroke-linecap="round" stroke-linejoin="bevel" stroke-miterlimit="10" d="
		M106.48,158.07l1.2,0.18c2.436,0.283,4.939-0.47,6.9-1.92l0.9-0.78"/>

		<polyline fill="none" stroke="#000000" stroke-width="0.24" stroke-linecap="round" stroke-linejoin="bevel" stroke-miterlimit="10" points="
		46,109.17 45.4,109.95 44.98,110.85 44.68,111.75 44.5,112.77 44.5,113.73 44.68,114.69 	"/>

		<path fill="none" stroke="#000000" stroke-width="0.42" stroke-linecap="round" stroke-linejoin="bevel" stroke-miterlimit="10" d="
		M78.82,132.87l-0.78,0.6c-1.31,1.022-2.114,2.618-2.28,4.26v0.96"/>

		<path fill="none" stroke="#000000" stroke-width="0.42" stroke-linecap="round" stroke-linejoin="bevel" stroke-miterlimit="10" d="
		M81.58,134.67l-0.72,0.66c-1.184,1.124-1.781,3.011-1.74,4.62l0.12,1.02"/>

		<path fill="none" stroke="#000000" stroke-width="0.24" stroke-linecap="round" stroke-linejoin="bevel" stroke-miterlimit="10" d="
		M91.06,68.13l-0.84-2.28c-2.595-6.195-6.354-11.412-11.52-15.72l-1.92-1.5"/>

		<polyline fill="none" stroke="#000000" stroke-width="0.24" stroke-linecap="round" stroke-linejoin="bevel" stroke-miterlimit="10" points="
		76.84,48.63 75.22,47.43 73.54,46.35 71.8,45.45 69.94,44.67 68.08,44.07 66.1,43.65 	"/>

		<path fill="none" stroke="#000000" stroke-width="0.24" stroke-linecap="round" stroke-linejoin="bevel" stroke-miterlimit="10" d="
		M66.1,43.71l-1.08-0.06c-2.525,0.114-4.925,1.566-6.24,3.72l-0.48,0.96"/>

		<path fill="none" stroke="#000000" stroke-width="0.24" stroke-linecap="round" stroke-linejoin="bevel" stroke-miterlimit="10" d="
		M106.96,60.87l-0.54-2.28c-1.897-6.186-5.002-11.171-9.72-15.6l-1.8-1.5l-2.1-1.98l-2.22-1.86l-2.28-1.68l-2.46-1.56l-2.52-1.38"/>

		<path fill="none" stroke="#000000" stroke-width="0.24" stroke-linecap="round" stroke-linejoin="bevel" stroke-miterlimit="10" d="
		M83.38,33.03l-1.2-0.6c-2.495-1.074-3.939-1.152-6.6-0.72l-1.32,0.42l-0.3,0.18"/>

		<line fill="none" stroke="#000000" stroke-width="0.24" stroke-linecap="round" stroke-linejoin="round" stroke-miterlimit="10" x1="60.46" y1="41.67" x2="73.9" y2="32.25"/>

		<polyline fill="none" stroke="#000000" stroke-width="0.24" stroke-linecap="round" stroke-linejoin="bevel" stroke-miterlimit="10" points="
		60.46,41.67 59.56,42.45 58.78,43.29 58.06,44.19 57.52,45.21 57.1,46.35 56.8,47.43 	"/>

		<polyline fill="none" stroke="#000000" stroke-width="0.24" stroke-linecap="round" stroke-linejoin="bevel" stroke-miterlimit="10" points="
		114.88,54.57 112,56.67 109.24,58.89 106.66,61.29 104.14,63.87 101.86,66.51 	"/>

		<line fill="none" stroke="#000000" stroke-width="0.24" stroke-linecap="round" stroke-linejoin="round" stroke-miterlimit="10" x1="99.76" y1="73.35" x2="99.94" y2="69.15"/>

		<line fill="none" stroke="#000000" stroke-width="0.24" stroke-linecap="round" stroke-linejoin="round" stroke-miterlimit="10" x1="101.8" y1="66.51" x2="100.3" y2="68.25"/>

		<polyline fill="none" stroke="#000000" stroke-width="0.24" stroke-linecap="round" stroke-linejoin="bevel" stroke-miterlimit="10" points="
		100.3,68.25 100.06,68.67 99.94,69.15 	"/>

		<line fill="none" stroke="#000000" stroke-width="0.24" stroke-linecap="round" stroke-linejoin="round" stroke-miterlimit="10" x1="73.66" y1="32.43" x2="55.24" y2="22.59"/>

		<line fill="none" stroke="#000000" stroke-width="0.24" stroke-linecap="round" stroke-linejoin="round" stroke-miterlimit="10" x1="128.32" y1="80.73" x2="115.96" y2="73.17"/>

		<line fill="none" stroke="#000000" stroke-width="0.24" stroke-linecap="round" stroke-linejoin="round" stroke-miterlimit="10" x1="127.72" y1="62.91" x2="140.74" y2="69.93"/>

		<line fill="none" stroke="#000000" stroke-width="0.24" stroke-linecap="round" stroke-linejoin="round" stroke-miterlimit="10" x1="127.72" y1="66.15" x2="136.84" y2="71.01"/>

		<line fill="none" stroke="#000000" stroke-width="0.24" stroke-linecap="round" stroke-linejoin="round" stroke-miterlimit="10" x1="129.4" y1="77.49" x2="120.76" y2="72.21"/>

		<line fill="none" stroke="#000000" stroke-width="0.24" stroke-linecap="round" stroke-linejoin="round" stroke-miterlimit="10" x1="128.32" y1="80.73" x2="140.74" y2="69.93"/>

		<line fill="none" stroke="#000000" stroke-width="0.24" stroke-linecap="round" stroke-linejoin="round" stroke-miterlimit="10" x1="115.96" y1="73.17" x2="127.72" y2="62.91"/>

		<line fill="none" stroke="#000000" stroke-width="0.24" stroke-linecap="round" stroke-linejoin="round" stroke-miterlimit="10" x1="120.76" y1="72.21" x2="127.72" y2="66.15"/>

		<line fill="none" stroke="#000000" stroke-width="0.24" stroke-linecap="round" stroke-linejoin="round" stroke-miterlimit="10" x1="129.4" y1="77.49" x2="136.84" y2="71.01"/>

		<line fill="none" stroke="#000000" stroke-width="0.24" stroke-linecap="round" stroke-linejoin="round" stroke-miterlimit="10" x1="160.66" y1="94.59" x2="163.42" y2="94.11"/>

		<polyline fill="none" stroke="#000000" stroke-width="0.24" stroke-linecap="round" stroke-linejoin="bevel" stroke-miterlimit="10" points="
		163.42,94.11 163.9,93.93 164.26,93.63 164.56,93.27 164.68,92.79 	"/>

		<line fill="none" stroke="#000000" stroke-width="0.24" stroke-linecap="round" stroke-linejoin="round" stroke-miterlimit="10" x1="164.74" y1="91.95" x2="164.68" y2="92.79"/>

		<line fill="none" stroke="#000000" stroke-width="0.24" stroke-linecap="round" stroke-linejoin="bevel" stroke-miterlimit="10" x1="174.1" y1="100.35" x2="164.26" y2="93.69"/>

		<polyline fill="none" stroke="#000000" stroke-width="0.24" stroke-linecap="round" stroke-linejoin="bevel" stroke-miterlimit="10" points="
		185.98,100.59 180.04,100.29 174.1,100.35 	"/>

		<polyline fill="none" stroke="#000000" stroke-width="0.24" stroke-linecap="round" stroke-linejoin="bevel" stroke-miterlimit="10" points="
		174.16,100.35 174.04,103.11 174.1,105.93 174.34,108.75 174.7,111.51 	"/>

		<path fill="none" stroke="#000000" stroke-width="0.24" stroke-linecap="round" stroke-linejoin="bevel" stroke-miterlimit="10" d="
		M132.28,90.09l3.12,0.6c5.144,0.813,10.863,1.017,16.02,0.24l3.18-0.48"/>

		<line fill="none" stroke="#000000" stroke-width="0.24" stroke-linecap="round" stroke-linejoin="bevel" stroke-miterlimit="10" x1="131.8" y1="89.91" x2="132.22" y2="90.03"/>

		<line fill="none" stroke="#000000" stroke-width="0.24" stroke-linecap="round" stroke-linejoin="round" stroke-miterlimit="10" x1="131.86" y1="89.91" x2="99.88" y2="71.25"/>

		<path fill="none" stroke="#000000" stroke-width="0.24" stroke-linecap="round" stroke-linejoin="bevel" stroke-miterlimit="10" d="
		M154.54,90.45l0.06-1.86c-0.068-6.029-3.324-12.384-8.22-15.9l-1.56-1.08"/>

		<line fill="none" stroke="#000000" stroke-width="0.24" stroke-linecap="round" stroke-linejoin="round" stroke-miterlimit="10" x1="154.6" y1="90.45" x2="164.26" y2="93.69"/>

		<path fill="none" stroke="#000000" stroke-width="0.24" stroke-linecap="round" stroke-linejoin="bevel" stroke-miterlimit="10" d="
		M87.76,66.15l-0.9-2.22c-1.976-4.393-4.975-8.28-8.52-11.52l-1.8-1.5l-1.62-1.2l-1.68-1.08l-1.74-0.9l-1.86-0.78l-1.86-0.6
		l-1.98-0.42l-1.08-0.06c-2.045,0.117-3.366,0.671-4.74,2.22l-0.66,0.9"/>

		<polyline fill="none" stroke="#000000" stroke-width="0.72" stroke-linecap="round" stroke-linejoin="round" stroke-miterlimit="10" points="
		56.74,29.01 44.2,33.33 44.02,39.69 	"/>

		<line fill="none" stroke="#000000" stroke-width="0.24" stroke-linecap="round" stroke-linejoin="round" stroke-miterlimit="10" x1="56.74" y1="29.01" x2="59.74" y2="42.21"/>

		<line fill="none" stroke="#000000" stroke-width="0.24" stroke-linecap="round" stroke-linejoin="round" stroke-miterlimit="10" x1="113.68" y1="73.77" x2="115.18" y2="63.81"/>

		<polyline fill="none" stroke="#000000" stroke-width="0.24" stroke-linecap="round" stroke-linejoin="bevel" stroke-miterlimit="10" points="
		116.56,62.49 116.08,62.61 115.66,62.91 115.36,63.27 115.18,63.75 	"/>

		<line fill="none" stroke="#000000" stroke-width="0.24" stroke-linecap="round" stroke-linejoin="round" stroke-miterlimit="10" x1="116.5" y1="62.49" x2="127.66" y2="61.41"/>

		<line fill="none" stroke="#000000" stroke-width="0.24" stroke-linecap="round" stroke-linejoin="round" stroke-miterlimit="10" x1="115.6" y1="62.91" x2="109.12" y2="58.95"/>

		<line fill="none" stroke="#000000" stroke-width="0.24" stroke-linecap="round" stroke-linejoin="round" stroke-miterlimit="10" x1="239.44" y1="222.09" x2="210.82" y2="234.87"/>

		<line fill="none" stroke="#000000" stroke-width="0.24" stroke-linecap="round" stroke-linejoin="round" stroke-miterlimit="10" x1="193.06" y1="217.05" x2="195.88" y2="219.93"/>

		<polyline fill="none" stroke="#000000" stroke-width="0.24" stroke-linecap="round" stroke-linejoin="round" stroke-miterlimit="10" points="
		188.98,224.73 210.82,234.87 193.78,221.37 	"/>

		<polyline fill="none" stroke="#000000" stroke-width="0.24" stroke-linecap="round" stroke-linejoin="round" stroke-miterlimit="10" points="
		207.34,226.35 197.26,218.97 198.22,213.15 	"/>

		<line fill="none" stroke="#000000" stroke-width="0.72" stroke-linecap="round" stroke-linejoin="round" stroke-miterlimit="10" x1="195.88" y1="219.93" x2="198.22" y2="213.15"/>

		<line fill="none" stroke="#000000" stroke-width="0.24" stroke-linecap="round" stroke-linejoin="round" stroke-miterlimit="10" x1="239.44" y1="222.09" x2="246.94" y2="216.39"/>

		<polyline fill="none" stroke="#000000" stroke-width="0.24" stroke-linecap="round" stroke-linejoin="bevel" stroke-miterlimit="10" points="
		246.94,216.39 247.3,216.03 247.48,215.55 247.54,215.07 	"/>

		<line fill="none" stroke="#000000" stroke-width="0.24" stroke-linecap="round" stroke-linejoin="round" stroke-miterlimit="10" x1="247.54" y1="215.07" x2="247.06" y2="209.31"/>

		<polyline fill="none" stroke="#000000" stroke-width="0.24" stroke-linecap="round" stroke-linejoin="round" stroke-miterlimit="10" points="
		207.34,226.35 221.2,224.13 222.76,220.77 	"/>

		<polyline fill="none" stroke="#000000" stroke-width="0.24" stroke-linecap="round" stroke-linejoin="bevel" stroke-miterlimit="10" points="
		121.36,139.53 119.08,140.55 116.92,141.75 114.88,143.13 112.96,144.63 111.16,146.31 109.54,148.17 	"/>

		<path fill="none" stroke="#000000" stroke-width="0.72" stroke-linecap="round" stroke-linejoin="round" stroke-miterlimit="10" d="
		M207.88,218.49l-5.88-6c-23.654-23.84-51.306-43.699-81.42-58.56l-7.56-3.6"/>

		<line fill="none" stroke="#000000" stroke-width="0.24" stroke-linecap="round" stroke-linejoin="round" stroke-miterlimit="10" x1="120.82" y1="144.81" x2="113.02" y2="150.33"/>

		<polyline fill="none" stroke="#000000" stroke-width="0.24" stroke-linecap="round" stroke-linejoin="bevel" stroke-miterlimit="10" points="
		207.82,218.49 205.06,219.09 202.36,219.81 199.72,220.83 	"/>

		<polyline fill="none" stroke="#000000" stroke-width="0.72" stroke-linecap="round" stroke-linejoin="round" stroke-miterlimit="10" points="
		4.12,73.35 2.08,75.21 2.74,78.51 	"/>

		<line fill="none" stroke="#000000" stroke-width="0.24" stroke-linecap="round" stroke-linejoin="round" stroke-miterlimit="10" x1="85.12" y1="33.99" x2="71.38" y2="45.21"/>

		<line fill="none" stroke="#000000" stroke-width="0.24" stroke-linecap="round" stroke-linejoin="round" stroke-miterlimit="10" x1="89.44" y1="36.81" x2="75.88" y2="47.85"/>

		<line fill="none" stroke="#000000" stroke-width="0.24" stroke-linecap="round" stroke-linejoin="round" stroke-miterlimit="10" x1="93.28" y1="39.93" x2="79.72" y2="50.97"/>

		<line fill="none" stroke="#000000" stroke-width="0.24" stroke-linecap="round" stroke-linejoin="round" stroke-miterlimit="10" x1="96.88" y1="43.17" x2="83.14" y2="54.39"/>

		<line fill="none" stroke="#000000" stroke-width="0.24" stroke-linecap="round" stroke-linejoin="round" stroke-miterlimit="10" x1="100.12" y1="46.65" x2="86.08" y2="58.11"/>

		<line fill="none" stroke="#000000" stroke-width="0.24" stroke-linecap="round" stroke-linejoin="round" stroke-miterlimit="10" x1="102.64" y1="50.13" x2="88.36" y2="61.77"/>

		<line fill="none" stroke="#000000" stroke-width="0.24" stroke-linecap="round" stroke-linejoin="round" stroke-miterlimit="10" x1="105.58" y1="56.13" x2="91" y2="68.07"/>

		<line fill="none" stroke="#000000" stroke-width="0.24" stroke-linecap="round" stroke-linejoin="round" stroke-miterlimit="10" x1="106.72" y1="59.85" x2="94.3" y2="70.05"/>

		<line fill="none" stroke="#000000" stroke-width="0.24" stroke-linecap="round" stroke-linejoin="round" stroke-miterlimit="10" x1="80.86" y1="31.89" x2="66.4" y2="43.71"/>

		<line fill="none" stroke="#000000" stroke-width="0.24" stroke-linecap="round" stroke-linejoin="round" stroke-miterlimit="10" x1="78.04" y1="31.47" x2="62.38" y2="44.19"/>

		<line fill="none" stroke="#000000" stroke-width="0.72" stroke-linecap="round" stroke-linejoin="round" stroke-miterlimit="10" x1="108.52" y1="147.57" x2="113.02" y2="150.33"/>

		<line fill="none" stroke="#000000" stroke-width="0.72" stroke-linecap="round" stroke-linejoin="round" stroke-miterlimit="10" x1="222.28" y1="220.95" x2="222.76" y2="220.77"/>

		<polyline fill="none" stroke="#000000" stroke-width="0.72" stroke-linecap="round" stroke-linejoin="round" stroke-miterlimit="10" points="
		46.3,17.79 55.24,22.59 56.74,29.01 	"/>

		<line fill="none" stroke="#000000" stroke-width="0.72" stroke-linecap="round" stroke-linejoin="round" stroke-miterlimit="10" x1="44.02" y1="39.69" x2="28.24" y2="30.15"/>

		<line fill="none" stroke="#000000" stroke-width="0.72" stroke-linecap="round" stroke-linejoin="round" stroke-miterlimit="10" x1="5.8" y1="63.15" x2="3.52" y2="66.81"/>

		<polyline fill="none" stroke="#000000" stroke-width="0.24" stroke-linecap="round" stroke-linejoin="bevel" stroke-miterlimit="10" points="
		44.68,114.75 44.86,115.47 45.22,116.13 45.7,116.73 	"/>

		<path fill="none" stroke="#000000" stroke-width="0.24" stroke-linecap="round" stroke-linejoin="bevel" stroke-miterlimit="10" d="
		M72.04,159.45l0.78,1.02c1.942,2.326,5.233,3.54,8.22,3.18l1.32-0.24"/>

		<path fill="none" stroke="#000000" stroke-width="0.24" stroke-linecap="round" stroke-linejoin="bevel" stroke-miterlimit="10" d="
		M69.04,148.11l-0.24,1.5c-0.312,3.031,0.516,6.156,2.28,8.64l0.96,1.2"/>

		<line fill="none" stroke="#000000" stroke-width="0.24" stroke-linecap="round" stroke-linejoin="bevel" stroke-miterlimit="10" x1="73.9" y1="146.49" x2="71.98" y2="146.07"/>

		<polyline fill="none" stroke="#000000" stroke-width="0.24" stroke-linecap="round" stroke-linejoin="bevel" stroke-miterlimit="10" points="
		85.48,157.17 84.94,155.67 84.22,154.29 83.32,153.03 	"/>

		<polyline fill="none" stroke="#000000" stroke-width="0.24" stroke-linecap="round" stroke-linejoin="bevel" stroke-miterlimit="10" points="
		71.92,146.13 71.2,146.19 70.48,146.43 69.88,146.85 69.4,147.45 69.04,148.11 	"/>

		<path fill="none" stroke="#000000" stroke-width="0.24" stroke-linecap="round" stroke-linejoin="bevel" stroke-miterlimit="10" d="
		M81.7,163.53l0.78-0.18c2.29-0.831,3.55-2.937,3.18-5.34l-0.24-0.78"/>

		<polyline fill="none" stroke="#000000" stroke-width="0.24" stroke-linecap="round" stroke-linejoin="bevel" stroke-miterlimit="10" points="
		83.26,153.15 81.1,151.11 78.82,149.31 76.42,147.69 	"/>

		<line fill="none" stroke="#000000" stroke-width="0.24" stroke-linecap="round" stroke-linejoin="bevel" stroke-miterlimit="10" x1="76.48" y1="147.69" x2="73.9" y2="146.49"/>

		<polyline fill="none" stroke="#000000" stroke-width="0.42" stroke-linecap="round" stroke-linejoin="bevel" stroke-miterlimit="10" points="
		86.56,167.13 87.46,166.53 88.36,165.81 89.08,164.97 89.68,164.01 90.1,162.99 90.4,161.91 	"/>

		<path fill="none" stroke="#000000" stroke-width="0.42" stroke-linecap="round" stroke-linejoin="bevel" stroke-miterlimit="10" d="
		M90.34,161.91l0.06-1.44c-0.01-2.046-0.929-5.22-2.1-6.9l-0.84-1.2"/>

		<path fill="none" stroke="#000000" stroke-width="0.42" stroke-linecap="round" stroke-linejoin="bevel" stroke-miterlimit="10" d="
		M82,146.43l-1.32-1.02c-3.126-2.609-12.673-8.441-15.18-2.22l-0.24,0.84"/>

		<path fill="none" stroke="#000000" stroke-width="0.42" stroke-linecap="round" stroke-linejoin="bevel" stroke-miterlimit="10" d="
		M65.26,143.97l-0.36,1.8c-0.921,6.737,1.402,13.212,6.12,18.06l1.32,1.2"/>

		<path fill="none" stroke="#000000" stroke-width="0.42" stroke-linecap="round" stroke-linejoin="bevel" stroke-miterlimit="10" d="
		M72.28,165.03l1.2,0.9c3.343,2.301,7.708,2.95,11.58,1.74l1.44-0.54"/>

		<polyline fill="none" stroke="#000000" stroke-width="0.42" stroke-linecap="round" stroke-linejoin="bevel" stroke-miterlimit="10" points="
		87.46,152.37 86.32,150.69 85,149.13 83.56,147.69 82,146.37 	"/>

		<polyline fill="none" stroke="#000000" stroke-width="0.72" stroke-linecap="round" stroke-linejoin="bevel" stroke-miterlimit="10" points="
		216.28,218.07 213.46,218.01 210.64,218.13 207.82,218.49 	"/>

		<line fill="none" stroke="#000000" stroke-width="0.72" stroke-linecap="round" stroke-linejoin="round" stroke-miterlimit="10" x1="216.34" y1="218.07" x2="217.66" y2="219.87"/>

		<polyline fill="none" stroke="#000000" stroke-width="0.42" stroke-linecap="round" stroke-linejoin="round" stroke-miterlimit="10" points="
		50.08,120.93 62.8,129.93 75.76,138.69 	"/>

		<polyline fill="none" stroke="#000000" stroke-width="0.42" stroke-linecap="round" stroke-linejoin="round" stroke-miterlimit="10" points="
		79.24,140.97 92.8,149.61 106.48,158.07 	"/>

		<line fill="none" stroke="#000000" stroke-width="0.24" stroke-linecap="round" stroke-linejoin="round" stroke-miterlimit="10" x1="108.22" y1="158.31" x2="116.44" y2="162.99"/>

		<line fill="none" stroke="#000000" stroke-width="0.24" stroke-linecap="round" stroke-linejoin="round" stroke-miterlimit="10" x1="81.58" y1="134.67" x2="78.82" y2="132.87"/>

		<line fill="none" stroke="#000000" stroke-width="0.24" stroke-linecap="round" stroke-linejoin="round" stroke-miterlimit="10" x1="154.6" y1="90.45" x2="149.98" y2="82.77"/>

		<line fill="none" stroke="#000000" stroke-width="0.72" stroke-linecap="round" stroke-linejoin="round" stroke-miterlimit="10" x1="203.98" y1="127.47" x2="286" y2="127.47"/>
	<polyline fill-rule="evenodd" clip-rule="evenodd" points="303.16,122.43 302.8,122.43 302.62,122.49 302.5,122.55 302.5,132.27
		302.62,132.51 302.68,132.51 302.98,132.63 307.48,132.63 307.6,132.57 307.66,132.51 307.72,132.33 307.72,131.79 307.66,131.61
		307.6,131.49 303.82,131.49 303.82,122.67 303.76,122.55 303.7,122.49 303.46,122.43 	"/>
	<polyline fill-rule="evenodd" clip-rule="evenodd" points="314.56,122.49 309.7,122.49 309.4,122.61 309.34,122.73 309.28,123.03
		309.28,132.27 309.4,132.51 309.46,132.51 309.76,132.63 314.62,132.63 314.74,132.57 314.86,132.51 314.86,132.33 314.92,132.09
		314.86,131.79 314.86,131.61 314.74,131.55 314.62,131.49 310.6,131.49 310.6,127.89 314.02,127.89 314.14,127.83 314.2,127.77
		314.26,127.59 314.26,127.11 314.2,126.93 314.14,126.81 310.6,126.81 310.6,123.57 314.68,123.57 314.74,123.45 314.8,123.27
		314.86,123.03 314.8,122.79 314.74,122.61 314.68,122.49 	"/>
	<path fill-rule="evenodd" clip-rule="evenodd" d="M323.26,123.45l-3.42,0.12h0.18l0.36,0.06c2.073,0.093,3.207,1.804,3.12,3.84v0.6
		c-0.216,2.05-1.123,3.351-3.3,3.42h-1.74l4.92,0.06c1.962-1.684,2.079-5.901,0.3-7.74l-0.18-0.18"/>
	<path fill-rule="evenodd" clip-rule="evenodd" d="M319.9,122.49h-2.34l-0.3,0.12l-0.06,0.12l-0.06,0.3v9.24l0.12,0.24h0.06
		l0.3,0.12h2.88l0.36-0.06l0.3-0.06l0.3-0.06l0.3-0.06l0.24-0.06l0.6-0.24l0.24-0.18l0.3-0.18l0.24-0.18l-4.92-0.06v-7.92h1.38
		l3.42-0.12l-0.24-0.18c-0.711-0.503-1.546-0.724-2.4-0.78h-0.36"/>
	<path fill-rule="evenodd" clip-rule="evenodd" d="M326.8,123.39l-0.06,0.18v0.48l0.06,0.18l0.06,0.12h0.12
		c0.87-0.374,0.933-0.667,2.04-0.84h0.3"/>
	<path fill-rule="evenodd" clip-rule="evenodd" d="M329.5,122.31h-0.24c-0.793,0.135-1.65,0.304-2.28,0.84l-0.18,0.12v0.12
		l2.52,0.12h0.18c2.425,0.3,1.599,3.061,0.48,4.38l-0.18,0.24l-0.18,0.18l-0.24,0.3l-0.48,0.48l-2.04,2.1l-0.24,0.36l-0.06,0.24
		v0.54l0.12,0.18l0.12,0.06l0.18,0.06h5.64l0.12-0.06l0.12-0.06l0.06-0.18v-0.54l-0.06-0.18l-0.12-0.12h-4.56l1.62-1.68
		c2.3-1.983,4.501-6.454,0.36-7.44l-0.3-0.06"/>
</g>
</svg>
