<?xml version="1.0" encoding="utf-8"?>
<!-- Generator: Adobe Illustrator 24.1.2, SVG Export Plug-In . SVG Version: 6.00 Build 0)  -->
<svg version="1.0" id="Layer_1" xmlns="http://www.w3.org/2000/svg" xmlns:xlink="http://www.w3.org/1999/xlink" x="0px" y="0px"
	 width="504px" height="64px" viewBox="0 0 504 64" enable-background="new 0 0 504 64" xml:space="preserve">
<g>

		<path fill="none" stroke="#000000" stroke-width="0.72" stroke-linecap="round" stroke-linejoin="bevel" stroke-miterlimit="10" d="
		M2.34,8.645l0.06,0.72c0.667,1.693,0.887,1.913,2.58,2.58l0.72,0.06"/>

		<line fill="none" stroke="#000000" stroke-width="0.24" stroke-linecap="round" stroke-linejoin="round" stroke-miterlimit="10" x1="5.7" y1="12.065" x2="498.3" y2="12.065"/>

		<path fill="none" stroke="#000000" stroke-width="0.72" stroke-linecap="round" stroke-linejoin="bevel" stroke-miterlimit="10" d="
		M498.3,12.005l0.72-0.06c1.693-0.667,1.913-0.887,2.58-2.58l0.06-0.72"/>

		<polyline fill="none" stroke="#000000" stroke-width="0.72" stroke-linecap="round" stroke-linejoin="round" stroke-miterlimit="10" points="
		487.8,30.845 16.2,30.845 5.7,12.065 	"/>

		<line fill="none" stroke="#000000" stroke-width="0.72" stroke-linecap="round" stroke-linejoin="round" stroke-miterlimit="10" x1="498.3" y1="12.065" x2="487.8" y2="30.845"/>

		<line fill="none" stroke="#000000" stroke-width="0.72" stroke-linecap="round" stroke-linejoin="round" stroke-miterlimit="10" x1="2.28" y1="5.765" x2="501.72" y2="5.765"/>

		<line fill="none" stroke="#000000" stroke-width="0.72" stroke-linecap="round" stroke-linejoin="round" stroke-miterlimit="10" x1="492.96" y1="2.645" x2="475.44" y2="2.645"/>

		<line fill="none" stroke="#000000" stroke-width="0.72" stroke-linecap="round" stroke-linejoin="round" stroke-miterlimit="10" x1="461.82" y1="2.645" x2="444.3" y2="2.645"/>

		<line fill="none" stroke="#000000" stroke-width="0.72" stroke-linecap="round" stroke-linejoin="round" stroke-miterlimit="10" x1="438.6" y1="2.645" x2="421.08" y2="2.645"/>

		<line fill="none" stroke="#000000" stroke-width="0.72" stroke-linecap="round" stroke-linejoin="round" stroke-miterlimit="10" x1="415.38" y1="2.645" x2="397.86" y2="2.645"/>

		<line fill="none" stroke="#000000" stroke-width="0.72" stroke-linecap="round" stroke-linejoin="round" stroke-miterlimit="10" x1="392.16" y1="2.645" x2="374.64" y2="2.645"/>

		<line fill="none" stroke="#000000" stroke-width="0.72" stroke-linecap="round" stroke-linejoin="round" stroke-miterlimit="10" x1="361.44" y1="2.645" x2="343.92" y2="2.645"/>

		<line fill="none" stroke="#000000" stroke-width="0.72" stroke-linecap="round" stroke-linejoin="round" stroke-miterlimit="10" x1="338.22" y1="2.645" x2="320.7" y2="2.645"/>

		<line fill="none" stroke="#000000" stroke-width="0.72" stroke-linecap="round" stroke-linejoin="round" stroke-miterlimit="10" x1="315" y1="2.645" x2="297.48" y2="2.645"/>

		<line fill="none" stroke="#000000" stroke-width="0.72" stroke-linecap="round" stroke-linejoin="round" stroke-miterlimit="10" x1="291.78" y1="2.645" x2="274.26" y2="2.645"/>

		<line fill="none" stroke="#000000" stroke-width="0.72" stroke-linecap="round" stroke-linejoin="round" stroke-miterlimit="10" x1="261" y1="2.645" x2="243.48" y2="2.645"/>

		<line fill="none" stroke="#000000" stroke-width="0.72" stroke-linecap="round" stroke-linejoin="round" stroke-miterlimit="10" x1="237.78" y1="2.645" x2="220.26" y2="2.645"/>

		<line fill="none" stroke="#000000" stroke-width="0.72" stroke-linecap="round" stroke-linejoin="round" stroke-miterlimit="10" x1="214.56" y1="2.645" x2="197.04" y2="2.645"/>

		<line fill="none" stroke="#000000" stroke-width="0.72" stroke-linecap="round" stroke-linejoin="round" stroke-miterlimit="10" x1="191.34" y1="2.465" x2="173.82" y2="2.465"/>

		<line fill="none" stroke="#000000" stroke-width="0.72" stroke-linecap="round" stroke-linejoin="round" stroke-miterlimit="10" x1="162.6" y1="2.465" x2="145.08" y2="2.465"/>

		<line fill="none" stroke="#000000" stroke-width="0.72" stroke-linecap="round" stroke-linejoin="round" stroke-miterlimit="10" x1="141.66" y1="2.465" x2="124.14" y2="2.465"/>

		<polyline fill="none" stroke="#000000" stroke-width="0.72" stroke-linecap="round" stroke-linejoin="round" stroke-miterlimit="10" points="
		120.72,2.465 103.2,2.465 103.2,5.765 	"/>

		<line fill="none" stroke="#000000" stroke-width="0.72" stroke-linecap="round" stroke-linejoin="round" stroke-miterlimit="10" x1="120.72" y1="2.465" x2="120.72" y2="5.765"/>

		<line fill="none" stroke="#000000" stroke-width="0.72" stroke-linecap="round" stroke-linejoin="round" stroke-miterlimit="10" x1="197.04" y1="5.765" x2="214.56" y2="5.765"/>

		<line fill="none" stroke="#000000" stroke-width="0.72" stroke-linecap="round" stroke-linejoin="round" stroke-miterlimit="10" x1="124.14" y1="2.465" x2="124.14" y2="5.765"/>

		<line fill="none" stroke="#000000" stroke-width="0.72" stroke-linecap="round" stroke-linejoin="round" stroke-miterlimit="10" x1="141.66" y1="2.465" x2="141.66" y2="5.765"/>

		<line fill="none" stroke="#000000" stroke-width="0.72" stroke-linecap="round" stroke-linejoin="round" stroke-miterlimit="10" x1="145.08" y1="2.465" x2="145.08" y2="5.765"/>

		<line fill="none" stroke="#000000" stroke-width="0.72" stroke-linecap="round" stroke-linejoin="round" stroke-miterlimit="10" x1="162.6" y1="2.465" x2="162.6" y2="5.765"/>

		<line fill="none" stroke="#000000" stroke-width="0.72" stroke-linecap="round" stroke-linejoin="round" stroke-miterlimit="10" x1="173.82" y1="2.465" x2="173.82" y2="5.765"/>

		<line fill="none" stroke="#000000" stroke-width="0.72" stroke-linecap="round" stroke-linejoin="round" stroke-miterlimit="10" x1="191.34" y1="2.465" x2="191.34" y2="5.765"/>

		<line fill="none" stroke="#000000" stroke-width="0.72" stroke-linecap="round" stroke-linejoin="round" stroke-miterlimit="10" x1="197.04" y1="2.645" x2="197.04" y2="5.765"/>

		<line fill="none" stroke="#000000" stroke-width="0.72" stroke-linecap="round" stroke-linejoin="round" stroke-miterlimit="10" x1="214.56" y1="2.645" x2="214.56" y2="5.765"/>

		<line fill="none" stroke="#000000" stroke-width="0.72" stroke-linecap="round" stroke-linejoin="round" stroke-miterlimit="10" x1="220.26" y1="2.645" x2="220.26" y2="5.765"/>

		<line fill="none" stroke="#000000" stroke-width="0.72" stroke-linecap="round" stroke-linejoin="round" stroke-miterlimit="10" x1="237.78" y1="2.645" x2="237.78" y2="5.765"/>

		<line fill="none" stroke="#000000" stroke-width="0.72" stroke-linecap="round" stroke-linejoin="round" stroke-miterlimit="10" x1="243.48" y1="2.645" x2="243.48" y2="5.765"/>

		<line fill="none" stroke="#000000" stroke-width="0.72" stroke-linecap="round" stroke-linejoin="round" stroke-miterlimit="10" x1="261" y1="2.645" x2="261" y2="5.765"/>

		<line fill="none" stroke="#000000" stroke-width="0.72" stroke-linecap="round" stroke-linejoin="round" stroke-miterlimit="10" x1="274.26" y1="2.645" x2="274.26" y2="5.765"/>

		<line fill="none" stroke="#000000" stroke-width="0.72" stroke-linecap="round" stroke-linejoin="round" stroke-miterlimit="10" x1="291.78" y1="2.645" x2="291.78" y2="5.765"/>

		<line fill="none" stroke="#000000" stroke-width="0.72" stroke-linecap="round" stroke-linejoin="round" stroke-miterlimit="10" x1="297.48" y1="2.645" x2="297.48" y2="5.765"/>

		<line fill="none" stroke="#000000" stroke-width="0.72" stroke-linecap="round" stroke-linejoin="round" stroke-miterlimit="10" x1="315" y1="2.645" x2="315" y2="5.765"/>

		<line fill="none" stroke="#000000" stroke-width="0.72" stroke-linecap="round" stroke-linejoin="round" stroke-miterlimit="10" x1="320.7" y1="2.645" x2="320.7" y2="5.765"/>

		<line fill="none" stroke="#000000" stroke-width="0.72" stroke-linecap="round" stroke-linejoin="round" stroke-miterlimit="10" x1="338.22" y1="2.645" x2="338.22" y2="5.765"/>

		<line fill="none" stroke="#000000" stroke-width="0.72" stroke-linecap="round" stroke-linejoin="round" stroke-miterlimit="10" x1="343.92" y1="2.645" x2="343.92" y2="5.765"/>

		<line fill="none" stroke="#000000" stroke-width="0.72" stroke-linecap="round" stroke-linejoin="round" stroke-miterlimit="10" x1="361.44" y1="2.645" x2="361.44" y2="5.765"/>

		<line fill="none" stroke="#000000" stroke-width="0.72" stroke-linecap="round" stroke-linejoin="round" stroke-miterlimit="10" x1="374.64" y1="2.645" x2="374.64" y2="5.765"/>

		<line fill="none" stroke="#000000" stroke-width="0.72" stroke-linecap="round" stroke-linejoin="round" stroke-miterlimit="10" x1="392.16" y1="2.645" x2="392.16" y2="5.765"/>

		<line fill="none" stroke="#000000" stroke-width="0.72" stroke-linecap="round" stroke-linejoin="round" stroke-miterlimit="10" x1="397.86" y1="2.645" x2="397.86" y2="5.765"/>

		<line fill="none" stroke="#000000" stroke-width="0.72" stroke-linecap="round" stroke-linejoin="round" stroke-miterlimit="10" x1="415.38" y1="2.645" x2="415.38" y2="5.765"/>

		<line fill="none" stroke="#000000" stroke-width="0.72" stroke-linecap="round" stroke-linejoin="round" stroke-miterlimit="10" x1="421.08" y1="2.645" x2="421.08" y2="5.765"/>

		<line fill="none" stroke="#000000" stroke-width="0.72" stroke-linecap="round" stroke-linejoin="round" stroke-miterlimit="10" x1="438.6" y1="2.645" x2="438.6" y2="5.765"/>

		<line fill="none" stroke="#000000" stroke-width="0.72" stroke-linecap="round" stroke-linejoin="round" stroke-miterlimit="10" x1="444.3" y1="2.645" x2="444.3" y2="5.765"/>

		<line fill="none" stroke="#000000" stroke-width="0.72" stroke-linecap="round" stroke-linejoin="round" stroke-miterlimit="10" x1="461.82" y1="2.645" x2="461.82" y2="5.765"/>

		<line fill="none" stroke="#000000" stroke-width="0.72" stroke-linecap="round" stroke-linejoin="round" stroke-miterlimit="10" x1="475.44" y1="2.645" x2="475.44" y2="5.765"/>

		<line fill="none" stroke="#000000" stroke-width="0.72" stroke-linecap="round" stroke-linejoin="round" stroke-miterlimit="10" x1="492.96" y1="2.645" x2="492.96" y2="5.765"/>

		<line fill="none" stroke="#000000" stroke-width="0.72" stroke-linecap="round" stroke-linejoin="round" stroke-miterlimit="10" x1="501.72" y1="8.645" x2="501.72" y2="5.765"/>

		<line fill="none" stroke="#000000" stroke-width="0.72" stroke-linecap="round" stroke-linejoin="round" stroke-miterlimit="10" x1="2.28" y1="8.645" x2="2.28" y2="5.765"/>

		<rect x="55.38" y="13.925" fill="none" stroke="#000000" stroke-width="0.24" stroke-linecap="round" stroke-linejoin="round" stroke-miterlimit="10" width="18.9" height="3.9"/>

		<path fill="none" stroke="#000000" stroke-width="0.24" stroke-linecap="round" stroke-linejoin="round" stroke-miterlimit="10" d="
		M55.38,13.925"/>

		<rect x="75.84" y="13.925" fill="none" stroke="#000000" stroke-width="0.24" stroke-linecap="round" stroke-linejoin="round" stroke-miterlimit="10" width="18.9" height="3.9"/>

		<path fill="none" stroke="#000000" stroke-width="0.24" stroke-linecap="round" stroke-linejoin="round" stroke-miterlimit="10" d="
		M75.84,13.925"/>

		<line fill="none" stroke="#000000" stroke-width="0.72" stroke-linecap="round" stroke-linejoin="round" stroke-miterlimit="10" x1="64.8" y1="21.245" x2="64.8" y2="47.885"/>
	<path fill-rule="evenodd" clip-rule="evenodd" d="M27.9,52.325h-3h0.06l0.3,0.06c0.835-0.058,1.846,0.662,1.8,1.56l0.06,0.36v0.24
		c-0.178,1.084-0.804,1.772-1.92,1.86h-1.56l3.9,0.24c1.03-0.955,1.236-2.524,0.72-3.78l-0.18-0.3"/>
	<path fill-rule="evenodd" clip-rule="evenodd" d="M25.02,51.245h-2.28l-0.3,0.12l-0.06,0.12l-0.06,0.3v9.48l0.12,0.12h0.18
		l0.36,0.06l0.3-0.06h0.24l0.06-0.12l0.06-0.06v-3.66h1.14c0.997-0.086,1.666-0.125,2.52-0.72l0.24-0.18l-3.9-0.24v-4.08h4.26
		l-0.18-0.24c-1.125-0.806-0.855-0.6-2.1-0.84h-0.3"/>
	<path fill-rule="evenodd" clip-rule="evenodd" d="M36.18,54.785l-2.64,0.06h0.12c0.499,0.059,1.053,0.18,1.38,0.6l0.18,0.24h0.06
		l0.12,0.3c0.671,1.555,0.398,4.589-1.92,4.44l-2.64,0.12h0.06l0.18,0.24c1.12,0.968,3.487,1.011,4.62,0.06l0.24-0.18l0.18-0.24
		c1.088-1.086,1.167-3.521,0.54-4.86l-0.12-0.3l-0.18-0.24"/>
	<path fill-rule="evenodd" clip-rule="evenodd" d="M33.6,53.765h-0.06c-3.468-0.122-4.381,4.086-2.88,6.54l0.18,0.24l2.64-0.12
		h-0.12c-2.771,0.192-2.773-5.859,0.18-5.58l2.64-0.06v-0.06c-0.525-0.511-1.184-0.825-1.92-0.9l-0.3-0.06"/>
	<polyline fill-rule="evenodd" clip-rule="evenodd" points="42.9,54.125 41.28,59.945 41.28,60.005 40.38,61.145 40.44,61.265
		40.56,61.385 40.8,61.445 41.64,61.445 41.88,61.385 42.06,61.265 42.12,61.145 43.5,56.045 43.5,55.925 	"/>
	<polyline fill-rule="evenodd" clip-rule="evenodd" points="43.56,53.885 43.2,53.885 43.02,53.945 42.9,54.005 42.9,54.125
		43.5,55.925 43.5,56.045 45,61.145 45.9,60.005 45.9,59.945 44.16,54.125 44.16,54.005 44.04,53.945 43.86,53.885 	"/>
	<path fill-rule="evenodd" clip-rule="evenodd" d="M48.3,53.885h-0.36l-0.18,0.06l-0.12,0.06l-0.06,0.12l-1.68,5.82v0.06l-0.9,1.14
		l0.06,0.12l0.18,0.12c0.305,0.123,0.697,0.034,1.02,0.06l0.24-0.06l0.18-0.12l0.06-0.12l2.1-6.72v-0.18l0.06-0.12l-0.06-0.12
		l-0.06-0.06l-0.18-0.06"/>
	<polyline fill-rule="evenodd" clip-rule="evenodd" points="38.88,53.885 38.58,53.885 38.34,53.945 38.22,54.005 38.22,54.245
		38.28,54.425 40.38,61.145 41.28,60.005 41.28,59.945 39.6,54.125 39.54,54.005 39.42,53.945 39.24,53.885 39.18,53.885 	"/>
	<path fill-rule="evenodd" clip-rule="evenodd" d="M56.04,59.945l-0.3,0.06c-0.618,0.353-1.337,0.478-2.04,0.48l-2.76,0.06l0.3,0.3
		c0.865,0.656,1.953,0.721,3,0.66l0.3-0.06h0.18l0.3-0.06l0.3-0.12l0.24-0.06l0.3-0.12l0.24-0.12l0.06-0.12l0.06-0.06v-0.18
		l0.06-0.18l-0.06-0.24v-0.12l-0.06-0.12"/>
	<path fill-rule="evenodd" clip-rule="evenodd" d="M55.8,54.725l-2.4,0.06h0.36c0.987,0.287,1.362,0.779,1.5,1.8v0.36h-3.84
		l-1.32,0.06l-0.06,0.36c-0.07,0.861,0.225,2.591,0.9,3.18l2.76-0.06h-0.18c-1.405-0.127-2.045-0.84-2.1-2.22v-0.36h4.68l0.3-0.12
		l0.06-0.12l0.06-0.3v-0.96l-0.12-0.6l-0.12-0.24l-0.12-0.3l-0.18-0.24"/>
	<path fill-rule="evenodd" clip-rule="evenodd" d="M53.46,53.765h-0.18c-1.833,0.116-2.819,1.18-3.18,2.94v0.3l1.32-0.06v-0.18
		c0.053-1.127,0.834-1.983,1.98-1.98l2.4-0.06l-0.12-0.18c-0.465-0.343-0.982-0.659-1.56-0.72l-0.3-0.06"/>
	<polyline fill-rule="evenodd" clip-rule="evenodd" points="62.7,54.905 61.56,55.025 61.86,55.025 62.16,55.085 62.34,55.145
		62.52,55.205 62.64,55.085 	"/>
	<polyline fill-rule="evenodd" clip-rule="evenodd" points="59.16,53.885 58.86,53.885 58.68,53.945 58.56,54.005 58.56,61.205
		58.62,61.265 58.68,61.385 58.92,61.445 59.52,61.445 59.7,61.385 59.88,61.205 59.88,56.525 60,56.285 60.36,55.805 60.6,55.565
		60.78,55.325 60.9,55.205 59.76,55.145 59.76,54.125 59.7,54.005 59.64,53.945 59.46,53.885 	"/>
	<path fill-rule="evenodd" clip-rule="evenodd" d="M61.68,53.765H61.5l-0.3,0.06l-0.18,0.06l-0.48,0.36l-0.24,0.24l-0.18,0.12
		l-0.18,0.24l-0.18,0.3l1.14,0.06l0.3-0.12l0.06-0.06h0.3l1.14-0.12v-0.3c0.024-0.512,0.03-0.704-0.54-0.78l-0.24-0.06"/>
	<path fill-rule="evenodd" clip-rule="evenodd" d="M67.5,59.825h-0.06l-0.06,0.12l-0.06,0.18c-0.138,1.101,0.463,1.084,1.5,1.32
		l0.06,0.06h0.3c0.797,0.031,1.692-0.023,2.34-0.54l0.24-0.24l0.18-0.24h-2.88l-0.3-0.12l-0.3-0.06l-0.24-0.12l-0.18-0.12
		l-0.24-0.12"/>
	<path fill-rule="evenodd" clip-rule="evenodd" d="M71.94,54.605l-1.92,0.18h0.06c0.615-0.034,0.933,0.162,1.44,0.42l0.24,0.12
		l0.12-0.12l0.06-0.18v-0.24"/>
	<path fill-rule="evenodd" clip-rule="evenodd" d="M70.02,53.765h-0.18l-0.36,0.06l-0.3,0.06c-0.689,0.142-1.255,0.563-1.56,1.2
		l-0.06,0.18l-0.06,0.3c-0.128,0.595,0.058,1.278,0.54,1.68l0.06,0.06l0.48,0.36l0.06,0.06c0.461,0.225,1.468,0.454,1.8,0.78
		l0.24,0.12l0.18,0.24l0.12,0.18l0.06,0.3l-0.06,0.24l-0.06,0.3l-0.06,0.12l-0.24,0.24l-0.18,0.06l-0.3,0.12l-0.24,0.06h-0.36h2.4
		l0.18-0.24v-0.06c0.233-0.416,0.218-0.987,0.12-1.44l-0.12-0.24v-0.06l-0.18-0.3l-0.18-0.24l-0.06-0.06l-0.24-0.18l-0.3-0.12
		l-0.06-0.06l-0.6-0.24l-0.06-0.06l-0.3-0.12c-0.443-0.197-1.014-0.31-1.26-0.78l-0.12-0.18l-0.06-0.3v-0.12l0.12-0.3v-0.06
		l0.24-0.24l0.06-0.12l0.3-0.12l0.3-0.06h0.3l1.92-0.18l-0.06-0.18v-0.06l-0.12-0.12l-0.24-0.18H71.4l-0.3-0.12l-0.18-0.06
		l-0.3-0.06l-0.24-0.06"/>
	<polyline fill-rule="evenodd" clip-rule="evenodd" points="78,54.125 76.38,59.945 76.38,60.005 75.48,61.145 75.54,61.265
		75.66,61.385 75.9,61.445 76.74,61.445 76.98,61.385 77.16,61.265 77.22,61.145 78.6,56.045 78.6,55.925 	"/>
	<polyline fill-rule="evenodd" clip-rule="evenodd" points="78.66,53.885 78.3,53.885 78.12,53.945 78,54.005 78,54.125
		78.6,55.925 78.6,56.045 80.1,61.145 81,60.005 81,59.945 79.26,54.125 79.26,54.005 79.14,53.945 78.96,53.885 	"/>
	<path fill-rule="evenodd" clip-rule="evenodd" d="M83.4,53.885h-0.36l-0.18,0.06l-0.12,0.06l-0.06,0.12L81,59.945v0.06l-0.9,1.14
		l0.06,0.12l0.18,0.12c0.305,0.123,0.697,0.034,1.02,0.06l0.24-0.06l0.18-0.12l0.06-0.12l2.1-6.72v-0.18l0.06-0.12l-0.06-0.12
		l-0.06-0.06l-0.18-0.06"/>
	<polyline fill-rule="evenodd" clip-rule="evenodd" points="73.98,53.885 73.68,53.885 73.44,53.945 73.32,54.005 73.32,54.245
		73.38,54.425 75.48,61.145 76.38,60.005 76.38,59.945 74.7,54.125 74.64,54.005 74.52,53.945 74.34,53.885 74.28,53.885 	"/>
	<polyline fill-rule="evenodd" clip-rule="evenodd" points="86.22,53.885 85.92,53.885 85.68,53.945 85.62,54.005 85.56,54.125
		85.56,61.205 85.62,61.265 85.68,61.385 85.92,61.445 86.52,61.445 86.7,61.385 86.88,61.205 86.88,54.125 86.82,54.005
		86.7,53.945 86.52,53.885 	"/>
	<path fill-rule="evenodd" clip-rule="evenodd" d="M86.22,50.945h-0.06c-0.796-0.004-0.861,0.583-0.72,1.2l0.12,0.24h0.06l0.18,0.12
		h0.78l0.24-0.12l0.06-0.06l0.06-0.24l0.06-0.36l-0.06-0.36l-0.12-0.24l-0.24-0.12"/>
	<polyline fill-rule="evenodd" clip-rule="evenodd" points="92.7,60.185 92.58,60.245 92.4,60.305 92.16,60.365 92.1,60.365
		91.8,60.425 92.88,60.425 92.82,60.305 92.82,60.185 	"/>
	<path fill-rule="evenodd" clip-rule="evenodd" d="M90.18,51.965l-0.3,0.06h-0.24l-0.12,0.24v1.68h-1.08l-0.12,0.12v0.12l-0.06,0.3
		v0.12l0.06,0.24l0.24,0.18h0.96v4.2c-0.031,0.512,0.159,1.472,0.6,1.8l0.24,0.18l0.3,0.18c0.557,0.161,1.923,0.287,2.22-0.36v-0.6
		H91.8c-0.907-0.038-0.964-0.782-0.96-1.5v-3.9h1.8l0.24-0.24v-0.6l-0.12-0.24h-1.92v-1.68l-0.06-0.12l-0.12-0.12h-0.18"/>
	<path fill-rule="evenodd" clip-rule="evenodd" d="M99.42,59.525l-0.24,0.12c-0.435,0.317-0.893,0.648-1.44,0.72l-0.36,0.06
		l2.22,0.06l0.06-0.12v-0.54l-0.06-0.18l-0.06-0.12"/>
	<path fill-rule="evenodd" clip-rule="evenodd" d="M94.92,54.845l-0.36,0.48c-0.681,1.492-0.693,3.544,0.12,4.98l0.18,0.24
		l0.24,0.24c1.166,1.044,3.117,0.936,4.32,0l0.12-0.18l0.06-0.12l-2.22-0.06c-2.553,0.257-2.605-5.384-0.36-5.52l0.3-0.06"/>
	<path fill-rule="evenodd" clip-rule="evenodd" d="M97.38,53.765h-0.06c-1.056,0.101-1.485,0.153-2.28,0.96l-0.12,0.12h2.4
		c0.753,0.089,1.189,0.237,1.8,0.72l0.24,0.12l0.18-0.12l0.06-0.06v-0.6l-0.06-0.18v-0.12l-0.18-0.12v-0.06l-0.3-0.18l-0.18-0.12
		l-0.3-0.12l-0.24-0.06l-0.3-0.12h-0.06l-0.3-0.06"/>
	<polyline fill-rule="evenodd" clip-rule="evenodd" points="102.9,54.665 102.66,54.905 104.04,55.025 104.34,54.905 104.64,54.905
			"/>
	<path fill-rule="evenodd" clip-rule="evenodd" d="M104.88,53.765h-0.18c-0.58,0.065-1.124,0.338-1.56,0.72l-0.24,0.18l1.74,0.24
		H105l0.3,0.12l0.24,0.18l0.24,0.24v0.06l0.18,0.24l0.06,0.36l0.06,0.24l0.06,0.36v4.56l0.12,0.12l0.18,0.06h0.66l0.18-0.06
		l0.12-0.12v-5.1l-0.12-0.6v-0.06l-0.12-0.3c-0.135-0.451-0.646-1.021-1.08-1.2l-0.24-0.12l-0.6-0.12"/>
	<polyline fill-rule="evenodd" clip-rule="evenodd" points="102,50.465 101.7,50.465 101.46,50.525 101.4,50.585 101.34,50.705
		101.34,61.205 101.4,61.265 101.46,61.385 101.7,61.445 102.3,61.445 102.48,61.385 102.66,61.205 102.66,56.225 102.78,56.105
		102.96,55.865 103.44,55.385 103.68,55.265 103.74,55.145 104.04,55.025 102.66,54.905 102.66,50.705 102.6,50.585 102.48,50.525
		102.3,50.465 	"/>
</g>
</svg>
