<?xml version="1.0" encoding="UTF-8" standalone="no"?>
<!DOCTYPE svg PUBLIC "-//W3C//DTD SVG 1.1//EN" "http://www.w3.org/Graphics/SVG/1.1/DTD/svg11.dtd">
<!-- Generated by Microsoft Visio, SVG Export nrf_desktop_arch.svg Page-1 -->
<svg xmlns="http://www.w3.org/2000/svg" xmlns:xlink="http://www.w3.org/1999/xlink" xmlns:ev="http://www.w3.org/2001/xml-events"
		width="7.73846in" height="6.95555in" viewBox="0 0 557.169 500.8" xml:space="preserve" color-interpolation-filters="sRGB"
		class="st17">
	<style type="text/css">
	<![CDATA[
		.st1 {fill:#d9e1e2;stroke:none;stroke-width:1}
		.st2 {fill:#00a9ce;stroke:none;stroke-width:1}
		.st3 {fill:#ffffff;font-family:Arial;font-size:1.00001em}
		.st4 {font-size:1em}
		.st5 {font-size:0.83333em}
		.st6 {fill:#768692;stroke:none;stroke-width:1}
		.st7 {fill:#ffffff;font-family:Arial;font-size:0.583328em}
		.st8 {fill:#0077c8;stroke:none;stroke-width:1}
		.st9 {marker-end:url(#mrkr13-51);marker-start:url(#mrkr13-49);stroke:#333f48;stroke-linecap:butt;stroke-width:1}
		.st10 {fill:#333f48;fill-opacity:1;stroke:#333f48;stroke-opacity:1;stroke-width:0.40983606557377}
		.st11 {fill:#ffffff;font-family:Arial;font-size:0.833336em}
		.st12 {fill:none;stroke:#768692;stroke-width:1}
		.st13 {fill:none;stroke:none;stroke-width:1}
		.st14 {fill:#333f48;font-family:Arial;font-size:0.833336em}
		.st15 {fill:#768692;font-family:Arial;font-size:0.833336em}
		.st16 {fill:none;stroke:#768692;stroke-dasharray:7,5;stroke-width:1}
		.st17 {fill:none;fill-rule:evenodd;font-size:12px;overflow:visible;stroke-linecap:square;stroke-miterlimit:3}
	]]>
	</style>

	<defs id="Markers">
		<g id="lend13">
			<path d="M 3 1 L 0 0 L 3 -1 L 3 1 " style="stroke:none"/>
		</g>
		<marker id="mrkr13-49" class="st10" refX="6.96" orient="auto" markerUnits="strokeWidth" overflow="visible">
			<use xlink:href="#lend13" transform="scale(2.44) "/>
		</marker>
		<marker id="mrkr13-51" class="st10" refX="-7.32" orient="auto" markerUnits="strokeWidth" overflow="visible">
			<use xlink:href="#lend13" transform="scale(-2.44,-2.44) "/>
		</marker>
	</defs>
	<g>
		<title>Page-1</title>
		<g id="shape5-1" transform="translate(207.041,-376.515)">
			<title>Nordic Light Grey</title>
			<rect x="0" y="425.682" width="346.25" height="75.1181" class="st1"/>
		</g>
		<g id="shape6-3" transform="translate(214.175,-405.899)">
			<title>Nordic Blue.1433</title>
			<desc>Nordic proprietary Bluetooth® LE Link layer</desc>
			<rect x="0" y="463.241" width="166.77" height="37.5591" class="st2"/>
			<text x="35.7" y="478.42" class="st3">Nordic proprietary <tspan x="17.99" dy="1.2em" class="st4">Bluetooth</tspan><tspan
						class="st5">®</tspan> LE Link layer</text>		</g>
		<g id="shape7-8" transform="translate(387.035,-405.899)">
			<title>Nordic Blue.1434</title>
			<desc>Zephyr SW Bluetooth® LE Link layer</desc>
			<rect x="0" y="463.241" width="157.44" height="37.5591" class="st6"/>
			<text x="48.71" y="478.42" class="st3">Zephyr SW <tspan x="13.33" dy="1.2em" class="st4">Bluetooth</tspan><tspan
						class="st5">®</tspan> LE Link layer</text>		</g>
		<g id="shape8-13" transform="translate(214.175,-384.689)">
			<title>Nordic Sky</title>
			<desc>Host layer</desc>
			<rect x="0" y="484.818" width="329.118" height="15.9815" class="st6"/>
			<text x="137.55" y="496.41" class="st3">Host layer</text>		</g>
		<g id="shape9-16" transform="translate(324.6,-316.626)">
			<title>Nordic Blue.1439</title>
			<desc>Discovery manager</desc>
			<rect x="0" y="462.942" width="44.6363" height="37.8577" class="st2"/>
			<text x="6.95" y="479.77" class="st7">Discovery <tspan x="8.5" dy="1.2em" class="st4">manager</tspan></text>		</g>
		<g id="shape10-20" transform="translate(286.26,-259.348)">
			<title>Nordic Lake.1449</title>
			<desc>BAS</desc>
			<rect x="0" y="472.453" width="24.8947" height="28.3465" class="st8"/>
			<text x="5.44" y="488.73" class="st7">BAS</text>		</g>
		<g id="shape11-23" transform="translate(520.832,-259.348)">
			<title>Nordic Lake.1450</title>
			<desc>Device descr.</desc>
			<rect x="0" y="472.453" width="32.459" height="28.3465" class="st8"/>
			<text x="5.53" y="484.53" class="st7">Device <tspan x="6.7" dy="1.2em" class="st4">descr.</tspan></text>		</g>
		<g id="shape12-27" transform="translate(104.798,-376.515)">
			<title>Nordic Blue.1456</title>
			<desc>ADC driver</desc>
			<rect x="0" y="472.453" width="33.6339" height="28.3465" class="st6"/>
			<text x="9.43" y="484.53" class="st7">ADC <tspan x="8.07" dy="1.2em" class="st4">driver</tspan></text>		</g>
		<g id="shape13-31" transform="translate(73.8353,-376.515)">
			<title>Nordic Blue.1457</title>
			<desc>PWM driver</desc>
			<rect x="0" y="472.453" width="28.9399" height="28.3465" class="st6"/>
			<text x="5.92" y="484.53" class="st7">PWM <tspan x="5.72" dy="1.2em" class="st4">driver</tspan></text>		</g>
		<g id="shape14-35" transform="translate(39.3537,-376.515)">
			<title>Nordic Blue.1458</title>
			<desc>QDEC driver</desc>
			<rect x="0" y="472.453" width="32.459" height="28.3465" class="st6"/>
			<text x="6.12" y="484.53" class="st7">QDEC <tspan x="7.48" dy="1.2em" class="st4">driver</tspan></text>		</g>
		<g id="shape15-39" transform="translate(1.67464,-377.097)">
			<title>Nordic Blue.1459</title>
			<desc>SPI driver</desc>
			<rect x="0" y="472.453" width="32.459" height="28.3465" class="st6"/>
			<text x="10.59" y="484.53" class="st7">SPI <tspan x="7.48" dy="1.2em" class="st4">driver</tspan></text>		</g>
		<g id="shape16-43" transform="translate(339.832,-375.879)">
			<title>Dynamic connector.1461</title>
			<path d="M7.09 507.76 L7.09 508.12 L7.09 514.87" class="st9"/>
		</g>
		<g id="shape17-52" transform="translate(1.67464,-316.626)">
			<title>Nordic Blue.1464</title>
			<desc>Motion sensor driver</desc>
			<rect x="0" y="466.112" width="34.7653" height="34.6873" class="st2"/>
			<text x="6.88" y="477.16" class="st7">Motion <tspan x="6.88" dy="1.2em" class="st4">sensor </tspan><tspan x="8.63"
						dy="1.2em" class="st4">driver</tspan></text>		</g>
		<g id="shape18-57" transform="translate(10.8175,-377.097)">
			<title>Dynamic connector.1465</title>
			<path d="M7.09 507.76 L7.09 508.12 L7.09 519.26" class="st9"/>
		</g>
		<g id="shape19-64" transform="translate(11.405,-316.626)">
			<title>Dynamic connector.1466</title>
			<path d="M7.09 507.76 L7.09 508.12 L7.09 522.41" class="st9"/>
		</g>
		<g id="shape20-71" transform="translate(142.477,-259.348)">
			<title>Nordic Lake.1467</title>
			<desc>Passkey</desc>
			<rect x="0" y="472.453" width="34.7653" height="28.3465" class="st8"/>
			<text x="4.16" y="488.73" class="st7">Passkey</text>		</g>
		<g id="shape21-74" transform="translate(107.414,-259.348)">
			<title>Nordic Lake.1468</title>
			<desc>Battery meas.</desc>
			<rect x="0" y="472.453" width="33.6339" height="28.3465" class="st8"/>
			<text x="5.73" y="484.53" class="st7">Battery <tspan x="7.29" dy="1.2em" class="st4">meas.</tspan></text>		</g>
		<g id="shape22-78" transform="translate(75.8579,-259.348)">
			<title>Nordic Lake.1469</title>
			<desc>CAF LEDs</desc>
			<rect x="0" y="472.453" width="28.9399" height="28.3465" class="st8"/>
			<text x="7.47" y="484.53" class="st7">CAF <tspan x="5.91" dy="1.2em" class="st4">LEDs</tspan></text>		</g>
		<g id="shape23-82" transform="translate(39.3537,-259.348)">
			<title>Nordic Lake.1470</title>
			<desc>Wheel</desc>
			<rect x="0" y="472.453" width="32.459" height="28.3465" class="st8"/>
			<text x="6.31" y="488.73" class="st7">Wheel</text>		</g>
		<g id="shape24-85" transform="translate(180.156,-259.348)">
			<title>Nordic Lake.1471</title>
			<desc>HID state</desc>
			<rect x="0" y="472.453" width="24.8947" height="28.3465" class="st8"/>
			<text x="6.42" y="484.53" class="st7">HID <tspan x="4.86" dy="1.2em" class="st4">state</tspan></text>		</g>
		<g id="shape25-89" transform="translate(1.67464,-259.348)">
			<title>Nordic Lake.1472</title>
			<desc>Motion sensor</desc>
			<rect x="0" y="472.453" width="33.6339" height="28.3465" class="st8"/>
			<text x="6.31" y="484.53" class="st7">Motion <tspan x="6.31" dy="1.2em" class="st4">sensor</tspan></text>		</g>
		<g id="shape26-93" transform="translate(247.813,-316.626)">
			<title>Nordic Blue.1440</title>
			<desc>HID Service</desc>
			<rect x="0" y="462.942" width="34.3085" height="37.8577" class="st2"/>
			<text x="11.13" y="479.77" class="st7">HID <tspan x="5.48" dy="1.2em" class="st4">Service </tspan></text>		</g>
		<g id="shape27-97" transform="translate(247.906,-259.348)">
			<title>Nordic Lake.1448</title>
			<desc>HID Service</desc>
			<rect x="0" y="472.453" width="34.3085" height="28.3465" class="st8"/>
			<text x="11.13" y="484.53" class="st7">HID <tspan x="5.48" dy="1.2em" class="st4">Service</tspan></text>		</g>
		<g id="shape28-101" transform="translate(257.927,-316.626)">
			<title>Dynamic connector</title>
			<path d="M7.06 507.76 L7.06 508.12 L7.11 522.41" class="st9"/>
		</g>
		<g id="shape29-108" transform="translate(208.91,-316.626)">
			<title>Nordic Blue</title>
			<desc>HID Service client</desc>
			<rect x="0" y="462.942" width="34.7653" height="37.8577" class="st2"/>
			<text x="11.36" y="475.57" class="st7">HID <tspan x="5.71" dy="1.2em" class="st4">Service </tspan><tspan x="9.21"
						dy="1.2em" class="st4">client</tspan></text>		</g>
		<g id="shape30-113" transform="translate(209.096,-259.348)">
			<title>Nordic Lake</title>
			<desc>HID forward</desc>
			<rect x="0" y="472.453" width="34.7653" height="28.3465" class="st8"/>
			<text x="11.36" y="484.53" class="st7">HID <tspan x="5.71" dy="1.2em" class="st4">forward</tspan></text>		</g>
		<g id="shape31-117" transform="translate(219.392,-316.626)">
			<title>Dynamic connector.1463</title>
			<path d="M7.09 507.76 L7.09 508.12 L7.09 522.41" class="st9"/>
		</g>
		<g id="shape32-124" transform="translate(220.569,-174.808)">
			<title>Nordic Blue.2143</title>
			<desc>Application Event Manager</desc>
			<rect x="0" y="472.453" width="80.7218" height="28.3465" class="st2"/>
			<text x="15.9" y="483.63" class="st11">Application <tspan x="6.45" dy="1.2em" class="st4">Event Manager</tspan></text>		</g>
		<g id="shape33-128" transform="translate(298.707,-259.348)">
			<title>Dynamic connector.2145</title>
			<path d="M0 507.76 L0 508.12 L0 513.98 L-37.78 513.98 L-37.78 549.67" class="st9"/>
		</g>
		<g id="shape34-135" transform="translate(270.082,-259.348)">
			<title>Dynamic connector.2155</title>
			<path d="M-5.02 507.76 L-5.02 508.12 L-5.02 513.98 L-9.15 513.98 L-9.15 549.67" class="st9"/>
		</g>
		<g id="shape35-142" transform="translate(226.478,-259.348)">
			<title>Dynamic connector.2156</title>
			<path d="M0 507.76 L0 508.12 L0 513.98 L34.45 513.98 L34.45 549.67" class="st9"/>
		</g>
		<g id="shape36-149" transform="translate(18.4916,-259.348)">
			<title>Dynamic connector.2157</title>
			<path d="M0 507.76 L0 508.12 L0 513.98 L242.44 513.98 L242.44 549.67" class="st9"/>
		</g>
		<g id="shape37-156" transform="translate(192.603,-259.348)">
			<title>Dynamic connector.2158</title>
			<path d="M0 507.76 L0 508.12 L0 513.98 L68.33 513.98 L68.33 549.67" class="st9"/>
		</g>
		<g id="shape38-163" transform="translate(55.5832,-259.348)">
			<title>Dynamic connector.2159</title>
			<path d="M0 507.76 L0 508.12 L0 513.98 L205.35 513.98 L205.35 549.67" class="st9"/>
		</g>
		<g id="shape39-170" transform="translate(90.3278,-259.348)">
			<title>Dynamic connector.2160</title>
			<path d="M0 507.76 L0 508.12 L0 513.98 L170.6 513.98 L170.6 549.67" class="st9"/>
		</g>
		<g id="shape40-177" transform="translate(124.231,-259.348)">
			<title>Dynamic connector.2161</title>
			<path d="M0 507.76 L0 508.12 L0 513.98 L136.7 513.98 L136.7 549.67" class="st9"/>
		</g>
		<g id="shape41-184" transform="translate(159.859,-259.348)">
			<title>Dynamic connector.2162</title>
			<path d="M0 507.76 L0 508.12 L0 513.98 L101.07 513.98 L101.07 549.67" class="st9"/>
		</g>
		<g id="shape42-191" transform="translate(1.67464,-106.776)">
			<title>Nordic Lake.2163</title>
			<desc>USB state</desc>
			<rect x="0" y="472.453" width="33.6339" height="28.3465" class="st8"/>
			<text x="9.62" y="484.53" class="st7">USB <tspan x="9.23" dy="1.2em" class="st4">state</tspan></text>		</g>
		<g id="shape43-195" transform="translate(38.1788,-106.776)">
			<title>Nordic Lake.2164</title>
			<desc>CAF Power mgmt</desc>
			<rect x="0" y="472.453" width="33.6339" height="28.3465" class="st8"/>
			<text x="9.82" y="480.33" class="st7">CAF <tspan x="6.9" dy="1.2em" class="st4">Power </tspan><tspan x="8.07"
						dy="1.2em" class="st4">mgmt</tspan></text>		</g>
		<g id="shape44-200" transform="translate(74.683,-106.776)">
			<title>Nordic Lake.2165</title>
			<desc>CAF Settings loader</desc>
			<rect x="0" y="472.453" width="34.7653" height="28.3465" class="st8"/>
			<text x="10.38" y="480.33" class="st7">CAF <tspan x="4.74" dy="1.2em" class="st4">Settings </tspan><tspan x="7.65"
						dy="1.2em" class="st4">loader</tspan></text>		</g>
		<g id="shape45-205" transform="translate(112.319,-106.776)">
			<title>Nordic Lake.2166</title>
			<desc>Failsafe</desc>
			<rect x="0" y="472.453" width="33.6339" height="28.3465" class="st8"/>
			<text x="4.56" y="488.73" class="st7">Failsafe</text>		</g>
		<g id="shape46-208" transform="translate(148.973,-106.776)">
			<title>Nordic Lake.2167</title>
			<desc>DFU</desc>
			<rect x="0" y="472.453" width="24.8947" height="28.3465" class="st8"/>
			<text x="5.25" y="488.73" class="st7">DFU</text>		</g>
		<g id="shape47-211" transform="translate(176.889,-106.776)">
			<title>Nordic Lake.2168</title>
			<desc>Watchdog</desc>
			<rect x="0" y="472.453" width="43.6932" height="28.3465" class="st8"/>
			<text x="6.09" y="488.73" class="st7">Watchdog</text>		</g>
		<g id="shape48-214" transform="translate(223.603,-106.776)">
			<title>Nordic Lake.2169</title>
			<desc>CAF Buttons</desc>
			<rect x="0" y="472.453" width="33.6339" height="28.3465" class="st8"/>
			<text x="9.82" y="484.53" class="st7">CAF <tspan x="4.95" dy="1.2em" class="st4">Buttons</tspan></text>		</g>
		<g id="shape49-218" transform="translate(260.258,-106.776)">
			<title>Nordic Lake.2170</title>
			<desc>Selector</desc>
			<rect x="0" y="472.453" width="34.7653" height="28.3465" class="st8"/>
			<text x="4.54" y="488.73" class="st7">Selector</text>		</g>
		<g id="shape50-221" transform="translate(298.044,-106.776)">
			<title>Nordic Lake.2171</title>
			<desc>Board</desc>
			<rect x="0" y="472.453" width="29.8859" height="28.3465" class="st8"/>
			<text x="5.6" y="488.73" class="st7">Board</text>		</g>
		<g id="shape51-224" transform="translate(330.951,-106.776)">
			<title>Nordic Lake.2172</title>
			<desc>Battery charger</desc>
			<rect x="0" y="472.453" width="33.6339" height="28.3465" class="st8"/>
			<text x="5.73" y="484.53" class="st7">Battery <tspan x="4.95" dy="1.2em" class="st4">charger</tspan></text>		</g>
		<g id="shape52-228" transform="translate(367.606,-106.776)">
			<title>Nordic Lake.2173</title>
			<desc>CAF Click detector</desc>
			<rect x="0" y="472.453" width="38.8587" height="28.3465" class="st8"/>
			<text x="12.43" y="480.33" class="st7">CAF <tspan x="11.85" dy="1.2em" class="st4">Click </tspan><tspan x="6.78"
						dy="1.2em" class="st4">detector</tspan></text>		</g>
		<g id="shape53-233" transform="translate(409.485,-106.776)">
			<title>Nordic Lake.2174</title>
			<desc>LED state</desc>
			<rect x="0" y="472.453" width="24.8947" height="28.3465" class="st8"/>
			<text x="5.64" y="484.53" class="st7">LED <tspan x="4.86" dy="1.2em" class="st4">state</tspan></text>		</g>
		<g id="shape54-237" transform="translate(437.401,-106.776)">
			<title>Nordic Lake.2175</title>
			<desc>LED stream</desc>
			<rect x="0" y="472.453" width="33.6339" height="28.3465" class="st8"/>
			<text x="10.01" y="484.53" class="st7">LED <tspan x="6.12" dy="1.2em" class="st4">stream</tspan></text>		</g>
		<g id="shape55-241" transform="translate(474.056,-106.776)">
			<title>Nordic Lake.2176</title>
			<desc>Info</desc>
			<rect x="0" y="472.453" width="24.8947" height="28.3465" class="st8"/>
			<text x="6.61" y="488.73" class="st7">Info</text>		</g>
		<g id="shape56-244" transform="translate(18.4916,-135.123)">
			<title>Dynamic connector.2177</title>
			<path d="M0 493.84 L0 493.48 L0 482.92 L242.44 482.92 L242.44 468.43" class="st9"/>
		</g>
		<g id="shape57-251" transform="translate(54.9958,-135.123)">
			<title>Dynamic connector.2178</title>
			<path d="M0 493.84 L0 493.48 L0 482.92 L205.93 482.92 L205.93 468.43" class="st9"/>
		</g>
		<g id="shape58-258" transform="translate(92.0656,-135.123)">
			<title>Dynamic connector.2179</title>
			<path d="M0 493.84 L0 493.48 L0 482.92 L168.86 482.92 L168.86 468.43" class="st9"/>
		</g>
		<g id="shape59-265" transform="translate(129.136,-135.123)">
			<title>Dynamic connector.2180</title>
			<path d="M0 493.84 L0 493.48 L0 482.92 L131.79 482.92 L131.79 468.43" class="st9"/>
		</g>
		<g id="shape60-272" transform="translate(161.421,-135.123)">
			<title>Dynamic connector.2181</title>
			<path d="M0 493.84 L0 493.48 L0 482.92 L99.51 482.92 L99.51 468.43" class="st9"/>
		</g>
		<g id="shape61-279" transform="translate(198.736,-135.123)">
			<title>Dynamic connector.2182</title>
			<path d="M0 493.84 L0 493.48 L0 482.92 L62.19 482.92 L62.19 468.43" class="st9"/>
		</g>
		<g id="shape62-286" transform="translate(240.42,-135.123)">
			<title>Dynamic connector.2183</title>
			<path d="M0 493.84 L0 493.48 L0 482.92 L20.51 482.92 L20.51 468.43" class="st9"/>
		</g>
		<g id="shape63-293" transform="translate(260.93,-174.808)">
			<title>Dynamic connector.2185</title>
			<path d="M0 507.76 L0 508.12 L0 522.61 L52.06 522.61 L52.06 533.16" class="st9"/>
		</g>
		<g id="shape64-300" transform="translate(260.93,-174.808)">
			<title>Dynamic connector.2186</title>
			<path d="M0 507.76 L0 508.12 L0 522.61 L86.84 522.61 L86.84 533.16" class="st9"/>
		</g>
		<g id="shape65-307" transform="translate(260.93,-174.808)">
			<title>Dynamic connector.2187</title>
			<path d="M0 507.76 L0 508.12 L0 522.61 L126.1 522.61 L126.1 533.16" class="st9"/>
		</g>
		<g id="shape66-314" transform="translate(260.93,-174.808)">
			<title>Dynamic connector.2188</title>
			<path d="M0 507.76 L0 508.12 L0 522.61 L161 522.61 L161 533.16" class="st9"/>
		</g>
		<g id="shape67-321" transform="translate(260.93,-174.808)">
			<title>Dynamic connector.2189</title>
			<path d="M0 507.76 L0 508.12 L0 522.61 L193.29 522.61 L193.29 533.16" class="st9"/>
		</g>
		<g id="shape68-328" transform="translate(260.93,-174.808)">
			<title>Dynamic connector.2190</title>
			<path d="M0 507.76 L0 508.12 L0 522.61 L225.57 522.61 L225.57 533.16" class="st9"/>
		</g>
		<g id="shape69-335" transform="translate(260.93,-174.808)">
			<title>Dynamic connector.2191</title>
			<path d="M0 507.76 L0 508.12 L0 522.61 L16.71 522.61 L16.71 533.16" class="st9"/>
		</g>
		<g id="shape70-342" transform="translate(1,-50.0832)">
			<title>Nordic Blue.2192</title>
			<desc>USB stack</desc>
			<rect x="0" y="467.391" width="34.3085" height="33.4083" class="st6"/>
			<text x="9.96" y="482" class="st7">USB <tspan x="8.99" dy="1.2em" class="st4">stack</tspan></text>		</g>
		<g id="shape71-346" transform="translate(39.7186,-50.0832)">
			<title>Nordic Blue.2193</title>
			<desc>OS power mgmt</desc>
			<rect x="0" y="467.391" width="33.6339" height="33.4083" class="st6"/>
			<text x="11.76" y="477.8" class="st7">OS <tspan x="7.28" dy="1.2em" class="st4">power </tspan><tspan x="8.07"
						dy="1.2em" class="st4">mgmt</tspan></text>		</g>
		<g id="shape72-351" transform="translate(79.406,-50.0832)">
			<title>Nordic Blue.2194</title>
			<desc>Settings subsys</desc>
			<rect x="0" y="467.391" width="34.3085" height="33.4083" class="st6"/>
			<text x="4.51" y="482" class="st7">Settings <tspan x="6.26" dy="1.2em" class="st4">subsys</tspan></text>		</g>
		<g id="shape73-355" transform="translate(1.67464,-1)">
			<title>Nordic Blue.2195</title>
			<desc>USB driver</desc>
			<rect x="0" y="472.453" width="34.3085" height="28.3465" class="st6"/>
			<text x="9.96" y="484.53" class="st7">USB <tspan x="8.4" dy="1.2em" class="st4">driver</tspan></text>		</g>
		<g id="shape74-359" transform="translate(79.406,-1)">
			<title>Nordic Blue.2196</title>
			<desc>FLASH driver</desc>
			<rect x="0" y="472.453" width="63.0708" height="28.3465" class="st6"/>
			<text x="10.53" y="488.73" class="st7">FLASH driver</text>		</g>
		<g id="shape75-362" transform="translate(11.0676,-83.4915)">
			<title>Dynamic connector.2197</title>
			<path d="M7.09 493.84 L7.09 493.48 L7.09 484.9" class="st9"/>
		</g>
		<g id="shape76-369" transform="translate(11.7423,-29.3465)">
			<title>Dynamic connector.2198</title>
			<path d="M7.09 493.84 L7.09 493.48 L7.09 487.38" class="st9"/>
		</g>
		<g id="shape77-376" transform="translate(49.7862,-83.5844)">
			<title>Dynamic connector.2199</title>
			<path d="M7.09 493.84 L7.09 493.48 L7.09 485.45" class="st9"/>
		</g>
		<g id="shape78-383" transform="translate(88.8803,-83.4915)">
			<title>Dynamic connector.2200</title>
			<path d="M7.09 493.84 L7.09 493.48 L7.09 485.17" class="st9"/>
		</g>
		<g id="shape79-390" transform="translate(89.4737,-29.3465)">
			<title>Dynamic connector.2201</title>
			<path d="M7.09 493.84 L7.09 493.48 L7.09 487.38" class="st9"/>
		</g>
		<g id="shape80-397" transform="translate(122.049,-29.3465)">
			<title>Dynamic connector.2202</title>
			<path d="M7.09 493.84 L7.09 493.48 L7.09 430.69" class="st9"/>
		</g>
		<g id="shape81-404" transform="translate(223.603,-55.1451)">
			<title>Nordic Blue.2203</title>
			<desc>GPIO driver</desc>
			<rect x="0" y="472.453" width="152.991" height="28.3465" class="st6"/>
			<text x="58.02" y="488.73" class="st7">GPIO driver</text>		</g>
		<g id="shape82-407" transform="translate(189.64,-21.7368)">
			<title>Nordic Blue.2205</title>
			<desc>Watchdog driver</desc>
			<rect x="0" y="472.453" width="43.6932" height="28.3465" class="st6"/>
			<text x="6.09" y="484.53" class="st7">Watchdog <tspan x="13.1" dy="1.2em" class="st4">driver</tspan></text>		</g>
		<g id="shape83-411" transform="translate(147.451,-21.7368)">
			<title>Nordic Blue.2206</title>
			<desc>Image manager</desc>
			<rect x="0" y="472.453" width="38.8587" height="28.3465" class="st6"/>
			<text x="9.7" y="484.53" class="st7">Image <tspan x="5.62" dy="1.2em" class="st4">manager</tspan></text>		</g>
		<g id="shape84-415" transform="translate(154.334,-50.0832)">
			<title>Dynamic connector.2322</title>
			<path d="M7.09 493.84 L7.09 493.48 L7.09 451.43" class="st9"/>
		</g>
		<g id="shape85-422" transform="translate(197.69,-50.0832)">
			<title>Dynamic connector.2323</title>
			<path d="M7.09 493.84 L7.09 493.48 L7.09 451.43" class="st9"/>
		</g>
		<g id="group86-429" transform="translate(1.67464,-432.902)">
			<title>Sheet.86</title>
			<g id="shape87-430">
				<title>Nordic Light Grey.2333</title>
				<rect x="0" y="433.902" width="88.6532" height="66.8976" class="st12"/>
			</g>
			<g id="shape88-432" transform="translate(5.39058,-44.3524)">
				<title>Nordic Blue.1617</title>
				<rect x="0" y="485.094" width="17.0333" height="15.7058" class="st8"/>
			</g>
			<g id="shape89-434" transform="translate(22.4239,-44.3524)">
				<title>Sheet.89</title>
				<desc>Application</desc>
				<rect x="0" y="485.094" width="59.8903" height="15.7058" class="st13"/>
				<text x="4" y="495.95" class="st14">Application</text>			</g>
			<g id="shape90-437" transform="translate(5.39058,-25.5959)">
				<title>Nordic Blue.1618</title>
				<rect x="0" y="485.094" width="17.0333" height="15.7058" class="st2"/>
			</g>
			<g id="shape91-439" transform="translate(22.4239,-25.5959)">
				<title>Sheet.91</title>
				<desc>NCS</desc>
				<rect x="0" y="485.094" width="59.8903" height="15.7058" class="st13"/>
				<text x="4" y="495.95" class="st14">NCS</text>			</g>
			<g id="shape92-442" transform="translate(5.39058,-6.83943)">
				<title>Nordic Blue.2341</title>
				<rect x="0" y="485.094" width="17.0333" height="15.7058" class="st6"/>
			</g>
			<g id="shape93-444" transform="translate(22.4239,-6.83943)">
				<title>Sheet.93</title>
				<desc>Zephyr</desc>
				<rect x="0" y="485.094" width="59.8903" height="15.7058" class="st13"/>
				<text x="4" y="495.95" class="st14">Zephyr</text>			</g>
		</g>
		<g id="shape94-447" transform="translate(414.926,-293.356)">
			<title>Sheet.94</title>
			<desc>Bluetooth® LE</desc>
			<rect x="0" y="484.762" width="78.5842" height="16.0377" class="st13"/>
			<text x="6.97" y="495.78" class="st15">Bluetooth® LE</text>		</g>
		<g id="shape95-450" transform="translate(314.646,-222.075)">
			<title>Nordic Blue.2345</title>
			<path d="M0 500.8 L203.92 500.8 L203.92 430.93 L0 430.93 L0 500.8 Z" class="st16"/>
		</g>
		<g id="shape96-452" transform="translate(449.007,-228.207)">
			<title>Nordic Lake.1442</title>
			<desc>CAF State</desc>
			<rect x="0" y="472.453" width="32.459" height="28.3465" class="st8"/>
			<text x="9.23" y="484.53" class="st7">CAF <tspan x="8.06" dy="1.2em" class="st4">State</tspan></text>		</g>
		<g id="shape97-456" transform="translate(367.385,-259.348)">
			<title>Nordic Lake.1443</title>
			<desc>CAF Advertising</desc>
			<rect x="0" y="472.453" width="44.6363" height="28.3465" class="st8"/>
			<text x="15.32" y="484.53" class="st7">CAF <tspan x="5" dy="1.2em" class="st4">Advertising</tspan></text>		</g>
		<g id="shape98-460" transform="translate(415.593,-259.348)">
			<title>Nordic Lake.1444</title>
			<desc>Bond</desc>
			<rect x="0" y="472.453" width="28.9399" height="28.3465" class="st8"/>
			<text x="6.3" y="488.73" class="st7">Bond</text>		</g>
		<g id="shape99-463" transform="translate(320.124,-259.348)">
			<title>Nordic Lake.1445</title>
			<desc>Discovery</desc>
			<rect x="0" y="472.453" width="44.6363" height="28.3465" class="st8"/>
			<text x="6.95" y="488.73" class="st7">Discovery</text>		</g>
		<g id="shape100-466" transform="translate(412.034,-228.207)">
			<title>Nordic Lake.1446</title>
			<desc>Scan</desc>
			<rect x="0" y="472.453" width="32.459" height="28.3465" class="st8"/>
			<text x="8.25" y="488.73" class="st7">Scan</text>		</g>
		<g id="shape101-469" transform="translate(447.158,-259.348)">
			<title>Nordic Lake.1447</title>
			<desc>Latency</desc>
			<rect x="0" y="472.453" width="38.9454" height="28.3465" class="st8"/>
			<text x="7.21" y="488.73" class="st7">Latency</text>		</g>
		<g id="shape102-472" transform="translate(320.124,-228.207)">
			<title>Nordic Lake.1451</title>
			<desc>Connection parameters</desc>
			<rect x="0" y="472.453" width="51.4735" height="28.3465" class="st8"/>
			<text x="8.03" y="484.53" class="st7">Connection <tspan x="8.04" dy="1.2em" class="st4">parameters</tspan></text>		</g>
		<g id="shape103-476" transform="translate(375.06,-228.207)">
			<title>Nordic Lake.1453</title>
			<desc>QoS</desc>
			<rect x="0" y="472.453" width="32.459" height="28.3465" class="st8"/>
			<text x="9.23" y="488.73" class="st7">QoS</text>		</g>
		<g id="shape104-479" transform="translate(339.832,-316.626)">
			<title>Dynamic connector.1460</title>
			<path d="M7.09 507.76 L7.09 508.12 L7.09 522.41" class="st9"/>
		</g>
		<g id="shape105-486" transform="translate(416.604,-222.075)">
			<title>Dynamic connector.2349</title>
			<path d="M0 507.76 L0 508.12 L0 533.89 L-107.99 533.89" class="st9"/>
		</g>
		<g id="shape107-493" transform="translate(48.4966,-376.515)">
			<title>Dynamic connector.2351</title>
			<path d="M7.09 507.76 L7.09 508.12 L7.09 582.3" class="st9"/>
		</g>
		<g id="shape108-500" transform="translate(83.2412,-376.515)">
			<title>Dynamic connector.2352</title>
			<path d="M7.09 507.76 L7.09 508.12 L7.09 582.3" class="st9"/>
		</g>
		<g id="shape109-507" transform="translate(117.145,-376.515)">
			<title>Dynamic connector.2353</title>
			<path d="M7.09 507.76 L7.09 508.12 L7.09 582.3" class="st9"/>
		</g>
		<g id="shape110-514" transform="translate(233.428,-376.596)">
			<title>Dynamic connector.2372</title>
			<path d="M-7.07 507.76 L-7.07 508.12 L-7.1 515.59" class="st9"/>
		</g>
		<g id="shape116-521" transform="translate(233.334,-106.776)">
			<title>Dynamic connector.2395</title>
			<path d="M7.09 507.76 L7.09 508.12 L7.09 516.76" class="st9"/>
		</g>
		<g id="shape117-528" transform="translate(270.554,-106.776)">
			<title>Dynamic connector.2396</title>
			<path d="M7.09 507.76 L7.09 508.12 L7.09 516.76" class="st9"/>
		</g>
		<g id="shape118-535" transform="translate(305.901,-106.776)">
			<title>Dynamic connector.2397</title>
			<path d="M7.09 507.76 L7.09 508.12 L7.09 516.76" class="st9"/>
		</g>
		<g id="shape119-542" transform="translate(340.681,-106.776)">
			<title>Dynamic connector.2398</title>
			<path d="M7.09 507.76 L7.09 508.12 L7.09 516.76" class="st9"/>
		</g>
		<g id="shape122-549" transform="translate(490.296,-259.348)">
			<title>Nordic Lake.122</title>
			<desc>CAF SMP</desc>
			<rect x="0" y="472.453" width="24.8947" height="28.3465" class="st8"/>
			<text x="5.45" y="484.53" class="st7">CAF <tspan x="4.86" dy="1.2em" class="st4">SMP </tspan></text>		</g>
		<g id="shape123-553" transform="translate(257.973,-354.484)">
			<title>Dynamic connector.123</title>
			<path d="M7.05 493.84 L7.06 493.48 L7.12 486.09" class="st9"/>
		</g>
		<g id="shape124-560" transform="translate(305.598,-287.694)">
			<title>Dynamic connector.124</title>
			<path d="M-6.92 493.84 L-6.92 493.48 L-7.25 419.3" class="st9"/>
		</g>
		<g id="shape126-567" transform="translate(544.256,-376.515)">
			<title>Dynamic connector.126</title>
			<path d="M-7 507.76 L-7 508.12 L-7.18 582.3" class="st9"/>
		</g>
		<g id="shape127-574" transform="translate(486.523,-326.137)">
			<title>Nordic Blue.2400</title>
			<desc>SMP Bluetooth</desc>
			<rect x="0" y="472.453" width="38.9454" height="28.3465" class="st6"/>
			<text x="11.89" y="484.53" class="st7">SMP <tspan x="4.68" dy="1.2em" class="st4">Bluetooth</tspan></text>		</g>
		<g id="shape134-578" transform="translate(497.519,-326.137)">
			<title>Dynamic connector.134</title>
			<path d="M7.04 507.76 L7.04 508.12 L7.13 532.98" class="st9"/>
		</g>
		<g id="shape137-585" transform="translate(497.542,-354.484)">
			<title>Dynamic connector.137</title>
			<path d="M7.07 493.84 L7.07 493.48 L7.1 486.09" class="st9"/>
		</g>
		<g id="shape140-592" transform="translate(408.07,-293.356)">
			<title>Dynamic connector.140</title>
			<path d="M6.89 493.84 L6.9 493.48 L7.28 424.96" class="st9"/>
		</g>
	</g>
</svg>
