<?xml version="1.0" encoding="utf-8"?>
<!-- Generator: Adobe Illustrator 24.1.2, SVG Export Plug-In . SVG Version: 6.00 Build 0)  -->
<svg version="1.0" id="Layer_1" xmlns="http://www.w3.org/2000/svg" xmlns:xlink="http://www.w3.org/1999/xlink" x="0px" y="0px"
	 width="478px" height="238px" viewBox="0 0 478 238" enable-background="new 0 0 478 238" xml:space="preserve">
<g>

		<line fill="none" stroke="#000000" stroke-width="0.72" stroke-linecap="round" stroke-linejoin="round" stroke-miterlimit="10" x1="169.73" y1="31.19" x2="149.39" y2="63.65"/>

		<line fill="none" stroke="#000000" stroke-width="0.72" stroke-linecap="round" stroke-linejoin="round" stroke-miterlimit="10" x1="228.71" y1="2.63" x2="192.17" y2="13.55"/>

		<line fill="none" stroke="#000000" stroke-width="0.24" stroke-linecap="round" stroke-linejoin="round" stroke-miterlimit="10" x1="243.71" y1="47.15" x2="281.09" y2="67.25"/>

		<polyline fill="none" stroke="#000000" stroke-width="0.72" stroke-linecap="round" stroke-linejoin="bevel" stroke-miterlimit="10" points="
		189.59,15.89 189.23,16.37 189.11,16.91 189.17,17.45 189.47,17.93 189.89,18.29 	"/>

		<line fill="none" stroke="#000000" stroke-width="0.24" stroke-linecap="round" stroke-linejoin="round" stroke-miterlimit="10" x1="187.55" y1="40.19" x2="260.03" y2="83.99"/>

		<polyline fill="none" stroke="#000000" stroke-width="0.72" stroke-linecap="round" stroke-linejoin="bevel" stroke-miterlimit="10" points="
		171.83,30.71 171.29,30.47 170.69,30.53 170.15,30.77 169.79,31.19 	"/>

		<polyline fill="none" stroke="#000000" stroke-width="0.72" stroke-linecap="round" stroke-linejoin="round" stroke-miterlimit="10" points="
		283.73,24.35 273.11,19.55 262.37,14.99 251.57,10.61 240.65,6.53 229.61,2.63 	"/>

		<line fill="none" stroke="#000000" stroke-width="0.72" stroke-linecap="round" stroke-linejoin="bevel" stroke-miterlimit="10" x1="229.61" y1="2.63" x2="228.71" y2="2.63"/>

		<polyline fill="none" stroke="#000000" stroke-width="0.72" stroke-linecap="round" stroke-linejoin="bevel" stroke-miterlimit="10" points="
		316.01,40.79 310.79,37.73 305.51,34.79 300.17,31.97 294.77,29.27 289.25,26.75 283.73,24.35 	"/>

		<path fill="none" stroke="#000000" stroke-width="0.72" stroke-linecap="round" stroke-linejoin="bevel" stroke-miterlimit="10" d="
		M352.61,66.71l-4.92-4.14c-8.123-6.746-17.058-13.028-26.1-18.48l-5.58-3.24"/>

		<path fill="none" stroke="#000000" stroke-width="0.72" stroke-linecap="round" stroke-linejoin="bevel" stroke-miterlimit="10" d="
		M406.49,168.35l-1.56-6.12c-2.691-10.378-5.906-20.17-9.9-30.12l-2.4-5.82"/>

		<path fill="none" stroke="#000000" stroke-width="0.72" stroke-linecap="round" stroke-linejoin="bevel" stroke-miterlimit="10" d="
		M392.63,126.23l-2.16-5.16c-3.665-8.522-8.048-16.699-12.9-24.6l-3-4.62"/>

		<polyline fill="none" stroke="#000000" stroke-width="0.72" stroke-linecap="round" stroke-linejoin="bevel" stroke-miterlimit="10" points="
		374.63,91.85 371.33,87.35 367.85,82.97 364.31,78.71 360.53,74.57 356.63,70.61 352.61,66.77 	"/>

		<path fill="none" stroke="#000000" stroke-width="0.72" stroke-linecap="round" stroke-linejoin="bevel" stroke-miterlimit="10" d="
		M401.45,195.17l1.26-3.24c2.359-6.452,3.593-13.298,3.78-20.16l-0.06-3.42"/>

		<polyline fill="none" stroke="#000000" stroke-width="0.72" stroke-linecap="round" stroke-linejoin="bevel" stroke-miterlimit="10" points="
		395.87,207.11 397.49,204.23 398.93,201.29 400.25,198.23 401.45,195.17 	"/>

		<line fill="none" stroke="#000000" stroke-width="0.72" stroke-linecap="round" stroke-linejoin="bevel" stroke-miterlimit="10" x1="395.63" y1="207.47" x2="395.87" y2="207.11"/>

		<polyline fill="none" stroke="#000000" stroke-width="0.72" stroke-linecap="round" stroke-linejoin="round" stroke-miterlimit="10" points="
		147.29,68.39 157.97,77.63 168.83,86.57 	"/>

		<polyline fill="none" stroke="#000000" stroke-width="0.72" stroke-linecap="round" stroke-linejoin="bevel" stroke-miterlimit="10" points="
		147.11,67.37 146.99,67.73 147.05,68.09 147.29,68.39 	"/>

		<path fill="none" stroke="#000000" stroke-width="0.72" stroke-linecap="round" stroke-linejoin="round" stroke-miterlimit="10" d="
		M168.83,86.57l10.44,8.64c21.078,17.052,42.62,34.587,65.82,48.72l7.98,4.74"/>

		<polyline fill="none" stroke="#000000" stroke-width="0.24" stroke-linecap="round" stroke-linejoin="round" stroke-miterlimit="10" points="
		320.87,126.05 311.03,128.93 301.25,131.99 291.53,135.17 281.87,138.65 272.27,142.25 262.73,146.03 	"/>

		<polyline fill="none" stroke="#000000" stroke-width="0.24" stroke-linecap="round" stroke-linejoin="round" stroke-miterlimit="10" points="
		318.23,112.01 308.33,116.57 298.49,121.37 288.83,126.35 279.29,131.63 269.81,137.09 260.51,142.79 	"/>

		<line fill="none" stroke="#000000" stroke-width="0.24" stroke-linecap="round" stroke-linejoin="round" stroke-miterlimit="10" x1="320.87" y1="126.05" x2="318.23" y2="112.01"/>

		<line fill="none" stroke="#000000" stroke-width="0.24" stroke-linecap="round" stroke-linejoin="round" stroke-miterlimit="10" x1="262.73" y1="146.03" x2="260.51" y2="142.79"/>

		<polyline fill="none" stroke="#000000" stroke-width="0.24" stroke-linecap="round" stroke-linejoin="round" stroke-miterlimit="10" points="
		347.99,62.81 343.13,72.23 338.39,81.77 333.89,91.37 329.57,101.09 	"/>

		<polyline fill="none" stroke="#000000" stroke-width="0.24" stroke-linecap="round" stroke-linejoin="round" stroke-miterlimit="10" points="
		351.29,65.57 346.37,101.69 329.57,101.09 	"/>

		<path fill="none" stroke="#000000" stroke-width="0.24" stroke-linecap="round" stroke-linejoin="bevel" stroke-miterlimit="10" d="
		M308.33,92.51l0.12-1.86c0.132-7.026-2.742-13.717-8.16-18.24l-1.5-1.2"/>

		<path fill="none" stroke="#000000" stroke-width="0.24" stroke-linecap="round" stroke-linejoin="bevel" stroke-miterlimit="10" d="
		M275.87,93.41l3.12,0.78c6.917,1.729,15.006,2.165,22.08,1.32l3.18-0.42"/>

		<polyline fill="none" stroke="#000000" stroke-width="0.24" stroke-linecap="round" stroke-linejoin="round" stroke-miterlimit="10" points="
		260.03,83.99 265.25,87.29 270.53,90.47 275.93,93.41 	"/>

		<line fill="none" stroke="#000000" stroke-width="0.24" stroke-linecap="round" stroke-linejoin="round" stroke-miterlimit="10" x1="283.73" y1="62.27" x2="191.69" y2="13.79"/>

		<polyline fill="none" stroke="#000000" stroke-width="0.24" stroke-linecap="round" stroke-linejoin="bevel" stroke-miterlimit="10" points="
		298.79,71.21 295.19,68.75 291.47,66.41 287.63,64.25 283.67,62.33 	"/>

		<line fill="none" stroke="#000000" stroke-width="0.24" stroke-linecap="round" stroke-linejoin="round" stroke-miterlimit="10" x1="269.15" y1="81.53" x2="245.33" y2="67.01"/>

		<path fill="none" stroke="#000000" stroke-width="0.24" stroke-linecap="round" stroke-linejoin="bevel" stroke-miterlimit="10" d="
		M293.93,78.95l-1.2-1.86c-2.62-3.737-5.693-6.56-9.66-8.82l-1.98-0.96"/>

		<path fill="none" stroke="#000000" stroke-width="0.24" stroke-linecap="round" stroke-linejoin="bevel" stroke-miterlimit="10" d="
		M269.21,81.53l2.04,1.02c4.32,2.165,10.938,3.175,15.72,2.52l2.28-0.36"/>

		<path fill="none" stroke="#000000" stroke-width="0.24" stroke-linecap="round" stroke-linejoin="round" stroke-miterlimit="10" d="
		M289.19,84.71l2.22-0.6c2.573-0.624,3.289-1.368,2.82-4.08l-0.3-1.08"/>

		<line fill="none" stroke="#000000" stroke-width="0.72" stroke-linecap="round" stroke-linejoin="round" stroke-miterlimit="10" x1="191.57" y1="13.91" x2="189.53" y2="15.89"/>

		<line fill="none" stroke="#000000" stroke-width="0.72" stroke-linecap="round" stroke-linejoin="bevel" stroke-miterlimit="10" x1="192.17" y1="13.55" x2="191.57" y2="13.91"/>

		<path fill="none" stroke="#000000" stroke-width="0.24" stroke-linecap="round" stroke-linejoin="bevel" stroke-miterlimit="10" d="
		M359.87,218.63l-3.84-4.74c-23.016-28.178-52.94-51.099-86.1-66.06l-5.52-2.46"/>

		<polyline fill="none" stroke="#000000" stroke-width="0.72" stroke-linecap="round" stroke-linejoin="bevel" stroke-miterlimit="10" points="
		361.31,220.37 361.85,220.97 362.57,221.39 363.35,221.69 364.19,221.81 365.03,221.75 365.81,221.45 	"/>

		<path fill="none" stroke="#000000" stroke-width="0.24" stroke-linecap="round" stroke-linejoin="round" stroke-miterlimit="10" d="
		M149.39,63.65l9.06,8.28c27.556,24.462,57.101,46.695,88.38,66.18l10.44,6.42"/>

		<path fill="none" stroke="#000000" stroke-width="0.72" stroke-linecap="round" stroke-linejoin="round" stroke-miterlimit="10" d="
		M155.51,106.19l7.68,12.78c15.508,25.663,32.224,50.241,50.22,74.22l9.06,11.82"/>

		<line fill="none" stroke="#000000" stroke-width="0.72" stroke-linecap="round" stroke-linejoin="bevel" stroke-miterlimit="10" x1="155.39" y1="105.89" x2="155.51" y2="106.19"/>

		<path fill="none" stroke="#000000" stroke-width="0.72" stroke-linecap="round" stroke-linejoin="bevel" stroke-miterlimit="10" d="
		M222.53,205.01l2.04,2.52c12.644,15.187,31.469,24.387,51.18,25.32l3.3,0.06"/>

		<path fill="none" stroke="#000000" stroke-width="0.72" stroke-linecap="round" stroke-linejoin="round" stroke-miterlimit="10" d="
		M279.05,232.97l7.26-0.12c12.098-0.261,24.376-1.784,36.24-4.14l7.08-1.56"/>

		<line fill="none" stroke="#000000" stroke-width="0.72" stroke-linecap="round" stroke-linejoin="bevel" stroke-miterlimit="10" x1="329.63" y1="227.09" x2="330.11" y2="226.91"/>

		<line fill="none" stroke="#000000" stroke-width="0.72" stroke-linecap="round" stroke-linejoin="round" stroke-miterlimit="10" x1="339.47" y1="220.43" x2="330.17" y2="226.91"/>

		<line fill="none" stroke="#000000" stroke-width="0.72" stroke-linecap="round" stroke-linejoin="round" stroke-miterlimit="10" x1="366.35" y1="221.27" x2="395.63" y2="207.47"/>

		<path fill="none" stroke="#000000" stroke-width="0.72" stroke-linecap="round" stroke-linejoin="bevel" stroke-miterlimit="10" d="
		M341.75,213.65l-4.68-4.56c-18.956-18.012-40.423-33.405-63.72-45.3l-5.82-2.88"/>

		<line fill="none" stroke="#000000" stroke-width="0.72" stroke-linecap="round" stroke-linejoin="round" stroke-miterlimit="10" x1="193.73" y1="113.27" x2="147.71" y2="73.85"/>

		<line fill="none" stroke="#000000" stroke-width="0.72" stroke-linecap="round" stroke-linejoin="round" stroke-miterlimit="10" x1="146.33" y1="79.01" x2="155.39" y2="105.89"/>

		<line fill="none" stroke="#000000" stroke-width="0.24" stroke-linecap="round" stroke-linejoin="round" stroke-miterlimit="10" x1="188.21" y1="115.25" x2="146.33" y2="79.01"/>

		<path fill="none" stroke="#000000" stroke-width="0.24" stroke-linecap="round" stroke-linejoin="bevel" stroke-miterlimit="10" d="
		M336.59,217.55l-4.8-4.68c-19.559-18.587-41.7-34.226-65.76-46.44l-6.06-2.94"/>

		<line fill="none" stroke="#000000" stroke-width="0.24" stroke-linecap="round" stroke-linejoin="round" stroke-miterlimit="10" x1="219.29" y1="138.77" x2="222.71" y2="140.99"/>

		<path fill="none" stroke="#000000" stroke-width="0.24" stroke-linecap="round" stroke-linejoin="bevel" stroke-miterlimit="10" d="
		M259.97,163.43l1.2,0.12c1.87,0.049,4.071-0.66,5.52-1.86l0.84-0.84"/>

		<line fill="none" stroke="#000000" stroke-width="0.24" stroke-linecap="round" stroke-linejoin="round" stroke-miterlimit="10" x1="189.29" y1="117.23" x2="192.89" y2="119.93"/>

		<path fill="none" stroke="#000000" stroke-width="0.42" stroke-linecap="round" stroke-linejoin="bevel" stroke-miterlimit="10" d="
		M193.73,113.33l-0.54,0.9c-0.959,2.29-0.988,3.924-0.06,6.24l0.54,0.96"/>

		<polyline fill="none" stroke="#000000" stroke-width="0.42" stroke-linecap="round" stroke-linejoin="round" stroke-miterlimit="10" points="
		193.73,113.33 203.15,120.17 212.75,126.83 222.41,133.37 	"/>

		<polyline fill="none" stroke="#000000" stroke-width="0.42" stroke-linecap="round" stroke-linejoin="round" stroke-miterlimit="10" points="
		225.17,135.17 235.61,141.89 246.11,148.43 256.79,154.73 267.59,160.91 	"/>

		<path fill="none" stroke="#000000" stroke-width="0.42" stroke-linecap="round" stroke-linejoin="bevel" stroke-miterlimit="10" d="
		M250.07,158.57l1.2,0.18c2.436,0.283,4.939-0.47,6.9-1.92l0.9-0.78"/>

		<polyline fill="none" stroke="#000000" stroke-width="0.24" stroke-linecap="round" stroke-linejoin="bevel" stroke-miterlimit="10" points="
		189.59,109.73 188.99,110.51 188.57,111.41 188.27,112.31 188.09,113.33 188.09,114.29 188.27,115.25 	"/>

		<path fill="none" stroke="#000000" stroke-width="0.42" stroke-linecap="round" stroke-linejoin="bevel" stroke-miterlimit="10" d="
		M222.41,133.37l-0.78,0.6c-1.31,1.022-2.114,2.618-2.28,4.26v0.96"/>

		<path fill="none" stroke="#000000" stroke-width="0.42" stroke-linecap="round" stroke-linejoin="bevel" stroke-miterlimit="10" d="
		M225.17,135.23l-0.72,0.66c-1.184,1.124-1.781,3.011-1.74,4.62l0.12,1.02"/>

		<path fill="none" stroke="#000000" stroke-width="0.24" stroke-linecap="round" stroke-linejoin="bevel" stroke-miterlimit="10" d="
		M234.65,68.69l-0.84-2.28c-2.596-6.195-6.354-11.412-11.52-15.72l-1.92-1.5l-1.62-1.2l-1.68-1.08l-1.74-0.9l-1.86-0.78l-1.86-0.6
		l-1.98-0.42"/>

		<path fill="none" stroke="#000000" stroke-width="0.24" stroke-linecap="round" stroke-linejoin="bevel" stroke-miterlimit="10" d="
		M209.69,44.21l-1.08-0.06c-2.525,0.114-4.925,1.566-6.24,3.72l-0.48,0.96"/>

		<path fill="none" stroke="#000000" stroke-width="0.24" stroke-linecap="round" stroke-linejoin="bevel" stroke-miterlimit="10" d="
		M250.55,61.43l-0.54-2.28c-1.897-6.186-5.002-11.171-9.72-15.6l-1.8-1.5l-2.1-1.98l-2.22-1.86l-2.28-1.68l-2.46-1.56l-2.52-1.38"/>

		<path fill="none" stroke="#000000" stroke-width="0.24" stroke-linecap="round" stroke-linejoin="bevel" stroke-miterlimit="10" d="
		M226.91,33.53l-1.2-0.6c-2.495-1.074-3.939-1.152-6.6-0.72l-1.32,0.42l-0.3,0.18"/>

		<line fill="none" stroke="#000000" stroke-width="0.24" stroke-linecap="round" stroke-linejoin="round" stroke-miterlimit="10" x1="204.05" y1="42.17" x2="217.49" y2="32.75"/>

		<polyline fill="none" stroke="#000000" stroke-width="0.24" stroke-linecap="round" stroke-linejoin="bevel" stroke-miterlimit="10" points="
		204.05,42.17 203.15,42.95 202.37,43.79 201.65,44.69 201.11,45.71 200.69,46.85 200.39,47.93 	"/>

		<polyline fill="none" stroke="#000000" stroke-width="0.24" stroke-linecap="round" stroke-linejoin="bevel" stroke-miterlimit="10" points="
		258.41,55.07 255.53,57.17 252.77,59.39 250.19,61.79 247.67,64.37 245.39,67.01 	"/>

		<line fill="none" stroke="#000000" stroke-width="0.24" stroke-linecap="round" stroke-linejoin="round" stroke-miterlimit="10" x1="243.35" y1="73.85" x2="243.53" y2="69.71"/>

		<line fill="none" stroke="#000000" stroke-width="0.24" stroke-linecap="round" stroke-linejoin="round" stroke-miterlimit="10" x1="245.33" y1="67.01" x2="243.89" y2="68.81"/>

		<polyline fill="none" stroke="#000000" stroke-width="0.24" stroke-linecap="round" stroke-linejoin="bevel" stroke-miterlimit="10" points="
		243.89,68.81 243.65,69.23 243.53,69.71 	"/>

		<line fill="none" stroke="#000000" stroke-width="0.24" stroke-linecap="round" stroke-linejoin="round" stroke-miterlimit="10" x1="217.25" y1="32.99" x2="198.83" y2="23.09"/>

		<line fill="none" stroke="#000000" stroke-width="0.24" stroke-linecap="round" stroke-linejoin="round" stroke-miterlimit="10" x1="271.91" y1="81.23" x2="259.49" y2="73.67"/>

		<line fill="none" stroke="#000000" stroke-width="0.24" stroke-linecap="round" stroke-linejoin="round" stroke-miterlimit="10" x1="271.31" y1="63.41" x2="284.33" y2="70.43"/>

		<line fill="none" stroke="#000000" stroke-width="0.24" stroke-linecap="round" stroke-linejoin="round" stroke-miterlimit="10" x1="271.31" y1="66.65" x2="280.43" y2="71.57"/>

		<line fill="none" stroke="#000000" stroke-width="0.24" stroke-linecap="round" stroke-linejoin="round" stroke-miterlimit="10" x1="272.99" y1="77.99" x2="264.35" y2="72.71"/>

		<line fill="none" stroke="#000000" stroke-width="0.24" stroke-linecap="round" stroke-linejoin="round" stroke-miterlimit="10" x1="271.91" y1="81.23" x2="284.33" y2="70.43"/>

		<line fill="none" stroke="#000000" stroke-width="0.24" stroke-linecap="round" stroke-linejoin="round" stroke-miterlimit="10" x1="259.49" y1="73.67" x2="271.31" y2="63.41"/>

		<line fill="none" stroke="#000000" stroke-width="0.24" stroke-linecap="round" stroke-linejoin="round" stroke-miterlimit="10" x1="264.35" y1="72.71" x2="271.31" y2="66.65"/>

		<line fill="none" stroke="#000000" stroke-width="0.24" stroke-linecap="round" stroke-linejoin="round" stroke-miterlimit="10" x1="272.99" y1="77.99" x2="280.43" y2="71.57"/>

		<line fill="none" stroke="#000000" stroke-width="0.24" stroke-linecap="round" stroke-linejoin="round" stroke-miterlimit="10" x1="304.25" y1="95.09" x2="307.01" y2="94.61"/>

		<polyline fill="none" stroke="#000000" stroke-width="0.24" stroke-linecap="round" stroke-linejoin="bevel" stroke-miterlimit="10" points="
		307.01,94.67 307.49,94.49 307.85,94.19 308.15,93.83 308.27,93.35 	"/>

		<line fill="none" stroke="#000000" stroke-width="0.24" stroke-linecap="round" stroke-linejoin="round" stroke-miterlimit="10" x1="308.33" y1="92.51" x2="308.27" y2="93.29"/>

		<line fill="none" stroke="#000000" stroke-width="0.24" stroke-linecap="round" stroke-linejoin="bevel" stroke-miterlimit="10" x1="317.63" y1="100.85" x2="307.79" y2="94.19"/>

		<polyline fill="none" stroke="#000000" stroke-width="0.24" stroke-linecap="round" stroke-linejoin="bevel" stroke-miterlimit="10" points="
		329.57,101.09 323.63,100.79 317.69,100.85 	"/>

		<polyline fill="none" stroke="#000000" stroke-width="0.24" stroke-linecap="round" stroke-linejoin="bevel" stroke-miterlimit="10" points="
		317.75,100.85 317.63,103.61 317.69,106.43 317.93,109.25 318.29,112.01 	"/>

		<path fill="none" stroke="#000000" stroke-width="0.24" stroke-linecap="round" stroke-linejoin="bevel" stroke-miterlimit="10" d="
		M275.87,90.65l3.12,0.6c5.144,0.813,10.862,1.017,16.02,0.24l3.18-0.48"/>

		<line fill="none" stroke="#000000" stroke-width="0.24" stroke-linecap="round" stroke-linejoin="bevel" stroke-miterlimit="10" x1="275.39" y1="90.47" x2="275.81" y2="90.59"/>

		<line fill="none" stroke="#000000" stroke-width="0.24" stroke-linecap="round" stroke-linejoin="round" stroke-miterlimit="10" x1="275.45" y1="90.47" x2="243.41" y2="71.75"/>

		<path fill="none" stroke="#000000" stroke-width="0.24" stroke-linecap="round" stroke-linejoin="bevel" stroke-miterlimit="10" d="
		M298.13,90.95l0.06-1.86c-0.068-6.029-3.324-12.384-8.22-15.9l-1.56-1.08"/>

		<line fill="none" stroke="#000000" stroke-width="0.24" stroke-linecap="round" stroke-linejoin="round" stroke-miterlimit="10" x1="298.19" y1="90.95" x2="307.85" y2="94.19"/>

		<path fill="none" stroke="#000000" stroke-width="0.24" stroke-linecap="round" stroke-linejoin="bevel" stroke-miterlimit="10" d="
		M231.35,66.65l-0.9-2.22c-1.976-4.393-4.975-8.28-8.52-11.52l-1.8-1.5l-1.62-1.2l-1.68-1.08l-1.74-0.9l-1.86-0.78l-1.86-0.6
		l-1.98-0.42l-1.08-0.06c-2.046,0.117-3.366,0.671-4.74,2.22l-0.66,0.9"/>

		<polyline fill="none" stroke="#000000" stroke-width="0.72" stroke-linecap="round" stroke-linejoin="round" stroke-miterlimit="10" points="
		200.33,29.51 187.79,33.83 187.55,40.19 	"/>

		<line fill="none" stroke="#000000" stroke-width="0.24" stroke-linecap="round" stroke-linejoin="round" stroke-miterlimit="10" x1="200.33" y1="29.51" x2="203.33" y2="42.77"/>

		<line fill="none" stroke="#000000" stroke-width="0.24" stroke-linecap="round" stroke-linejoin="round" stroke-miterlimit="10" x1="257.27" y1="74.27" x2="258.77" y2="64.31"/>

		<polyline fill="none" stroke="#000000" stroke-width="0.24" stroke-linecap="round" stroke-linejoin="bevel" stroke-miterlimit="10" points="
		260.09,63.05 259.61,63.17 259.19,63.47 258.89,63.83 258.71,64.31 	"/>

		<line fill="none" stroke="#000000" stroke-width="0.24" stroke-linecap="round" stroke-linejoin="round" stroke-miterlimit="10" x1="260.09" y1="63.05" x2="271.19" y2="61.91"/>

		<line fill="none" stroke="#000000" stroke-width="0.24" stroke-linecap="round" stroke-linejoin="round" stroke-miterlimit="10" x1="259.19" y1="63.41" x2="252.71" y2="59.45"/>

		<line fill="none" stroke="#000000" stroke-width="0.24" stroke-linecap="round" stroke-linejoin="round" stroke-miterlimit="10" x1="383.03" y1="222.59" x2="354.41" y2="235.37"/>

		<line fill="none" stroke="#000000" stroke-width="0.24" stroke-linecap="round" stroke-linejoin="round" stroke-miterlimit="10" x1="336.65" y1="217.61" x2="339.47" y2="220.43"/>

		<polyline fill="none" stroke="#000000" stroke-width="0.24" stroke-linecap="round" stroke-linejoin="round" stroke-miterlimit="10" points="
		332.51,225.23 354.41,235.37 337.37,221.93 	"/>

		<polyline fill="none" stroke="#000000" stroke-width="0.24" stroke-linecap="round" stroke-linejoin="round" stroke-miterlimit="10" points="
		350.93,226.85 340.85,219.53 341.75,213.65 	"/>

		<line fill="none" stroke="#000000" stroke-width="0.72" stroke-linecap="round" stroke-linejoin="round" stroke-miterlimit="10" x1="339.47" y1="220.43" x2="341.75" y2="213.65"/>

		<line fill="none" stroke="#000000" stroke-width="0.24" stroke-linecap="round" stroke-linejoin="round" stroke-miterlimit="10" x1="383.03" y1="222.59" x2="390.53" y2="216.89"/>

		<polyline fill="none" stroke="#000000" stroke-width="0.24" stroke-linecap="round" stroke-linejoin="bevel" stroke-miterlimit="10" points="
		390.53,216.89 390.89,216.53 391.07,216.05 391.13,215.57 	"/>

		<line fill="none" stroke="#000000" stroke-width="0.24" stroke-linecap="round" stroke-linejoin="round" stroke-miterlimit="10" x1="391.13" y1="215.57" x2="390.65" y2="209.81"/>

		<polyline fill="none" stroke="#000000" stroke-width="0.24" stroke-linecap="round" stroke-linejoin="round" stroke-miterlimit="10" points="
		350.93,226.85 364.79,224.63 366.35,221.27 	"/>

		<polyline fill="none" stroke="#000000" stroke-width="0.24" stroke-linecap="round" stroke-linejoin="bevel" stroke-miterlimit="10" points="
		264.89,140.09 262.61,141.11 260.45,142.31 258.41,143.69 256.49,145.19 254.69,146.87 253.07,148.73 	"/>

		<path fill="none" stroke="#000000" stroke-width="0.72" stroke-linecap="round" stroke-linejoin="bevel" stroke-miterlimit="10" d="
		M351.41,219.05l-4.8-4.98c-24.255-24.642-52.722-45.12-83.82-60.24l-6.24-2.94"/>

		<line fill="none" stroke="#000000" stroke-width="0.24" stroke-linecap="round" stroke-linejoin="round" stroke-miterlimit="10" x1="264.41" y1="145.37" x2="256.61" y2="150.89"/>

		<polyline fill="none" stroke="#000000" stroke-width="0.24" stroke-linecap="round" stroke-linejoin="bevel" stroke-miterlimit="10" points="
		351.41,219.05 348.65,219.65 345.95,220.37 343.31,221.39 	"/>

		<polyline fill="none" stroke="#000000" stroke-width="0.72" stroke-linecap="round" stroke-linejoin="round" stroke-miterlimit="10" points="
		147.71,73.85 145.67,75.71 146.33,79.01 	"/>

		<line fill="none" stroke="#000000" stroke-width="0.24" stroke-linecap="round" stroke-linejoin="round" stroke-miterlimit="10" x1="228.71" y1="34.49" x2="214.91" y2="45.77"/>

		<line fill="none" stroke="#000000" stroke-width="0.24" stroke-linecap="round" stroke-linejoin="round" stroke-miterlimit="10" x1="233.03" y1="37.31" x2="219.47" y2="48.41"/>

		<line fill="none" stroke="#000000" stroke-width="0.24" stroke-linecap="round" stroke-linejoin="round" stroke-miterlimit="10" x1="236.87" y1="40.43" x2="223.31" y2="51.47"/>

		<line fill="none" stroke="#000000" stroke-width="0.24" stroke-linecap="round" stroke-linejoin="round" stroke-miterlimit="10" x1="240.47" y1="43.73" x2="226.73" y2="54.89"/>

		<line fill="none" stroke="#000000" stroke-width="0.24" stroke-linecap="round" stroke-linejoin="round" stroke-miterlimit="10" x1="243.71" y1="47.15" x2="229.67" y2="58.67"/>

		<line fill="none" stroke="#000000" stroke-width="0.24" stroke-linecap="round" stroke-linejoin="round" stroke-miterlimit="10" x1="246.23" y1="50.69" x2="231.89" y2="62.33"/>

		<line fill="none" stroke="#000000" stroke-width="0.24" stroke-linecap="round" stroke-linejoin="round" stroke-miterlimit="10" x1="249.17" y1="56.69" x2="234.59" y2="68.57"/>

		<line fill="none" stroke="#000000" stroke-width="0.24" stroke-linecap="round" stroke-linejoin="round" stroke-miterlimit="10" x1="250.31" y1="60.41" x2="237.83" y2="70.55"/>

		<line fill="none" stroke="#000000" stroke-width="0.24" stroke-linecap="round" stroke-linejoin="round" stroke-miterlimit="10" x1="224.45" y1="32.39" x2="209.99" y2="44.21"/>

		<line fill="none" stroke="#000000" stroke-width="0.24" stroke-linecap="round" stroke-linejoin="round" stroke-miterlimit="10" x1="221.57" y1="31.97" x2="205.97" y2="44.69"/>

		<line fill="none" stroke="#000000" stroke-width="0.72" stroke-linecap="round" stroke-linejoin="round" stroke-miterlimit="10" x1="252.05" y1="148.13" x2="256.61" y2="150.89"/>

		<line fill="none" stroke="#000000" stroke-width="0.72" stroke-linecap="round" stroke-linejoin="round" stroke-miterlimit="10" x1="365.87" y1="221.51" x2="366.35" y2="221.27"/>

		<polyline fill="none" stroke="#000000" stroke-width="0.72" stroke-linecap="round" stroke-linejoin="round" stroke-miterlimit="10" points="
		189.89,18.29 198.83,23.09 200.33,29.51 	"/>

		<line fill="none" stroke="#000000" stroke-width="0.72" stroke-linecap="round" stroke-linejoin="round" stroke-miterlimit="10" x1="187.55" y1="40.19" x2="171.83" y2="30.71"/>

		<line fill="none" stroke="#000000" stroke-width="0.72" stroke-linecap="round" stroke-linejoin="round" stroke-miterlimit="10" x1="149.39" y1="63.65" x2="147.11" y2="67.31"/>

		<polyline fill="none" stroke="#000000" stroke-width="0.24" stroke-linecap="round" stroke-linejoin="bevel" stroke-miterlimit="10" points="
		188.27,115.25 188.45,115.97 188.81,116.63 189.29,117.23 	"/>

		<path fill="none" stroke="#000000" stroke-width="0.24" stroke-linecap="round" stroke-linejoin="bevel" stroke-miterlimit="10" d="
		M215.63,159.95l0.78,1.02c1.942,2.326,5.233,3.54,8.22,3.18l1.32-0.24"/>

		<path fill="none" stroke="#000000" stroke-width="0.24" stroke-linecap="round" stroke-linejoin="bevel" stroke-miterlimit="10" d="
		M212.63,148.61l-0.24,1.5c-0.312,3.031,0.516,6.156,2.28,8.64l0.96,1.2"/>

		<line fill="none" stroke="#000000" stroke-width="0.24" stroke-linecap="round" stroke-linejoin="bevel" stroke-miterlimit="10" x1="217.49" y1="146.99" x2="215.57" y2="146.57"/>

		<polyline fill="none" stroke="#000000" stroke-width="0.24" stroke-linecap="round" stroke-linejoin="bevel" stroke-miterlimit="10" points="
		229.07,157.73 228.53,156.23 227.81,154.85 226.91,153.59 	"/>

		<polyline fill="none" stroke="#000000" stroke-width="0.24" stroke-linecap="round" stroke-linejoin="bevel" stroke-miterlimit="10" points="
		215.51,146.63 214.79,146.69 214.07,146.93 213.47,147.35 212.99,147.95 212.63,148.61 	"/>

		<path fill="none" stroke="#000000" stroke-width="0.24" stroke-linecap="round" stroke-linejoin="bevel" stroke-miterlimit="10" d="
		M225.29,164.03l0.78-0.18c2.29-0.831,3.55-2.937,3.18-5.34l-0.24-0.78"/>

		<polyline fill="none" stroke="#000000" stroke-width="0.24" stroke-linecap="round" stroke-linejoin="bevel" stroke-miterlimit="10" points="
		226.85,153.65 224.69,151.61 222.41,149.81 220.01,148.19 	"/>

		<line fill="none" stroke="#000000" stroke-width="0.24" stroke-linecap="round" stroke-linejoin="bevel" stroke-miterlimit="10" x1="220.07" y1="148.19" x2="217.49" y2="146.99"/>

		<polyline fill="none" stroke="#000000" stroke-width="0.42" stroke-linecap="round" stroke-linejoin="bevel" stroke-miterlimit="10" points="
		230.15,167.63 231.05,167.03 231.95,166.31 232.67,165.47 233.27,164.51 233.69,163.49 233.99,162.41 	"/>

		<path fill="none" stroke="#000000" stroke-width="0.42" stroke-linecap="round" stroke-linejoin="bevel" stroke-miterlimit="10" d="
		M233.93,162.41l0.06-1.44c-0.01-2.046-0.929-5.22-2.1-6.9l-0.84-1.2"/>

		<path fill="none" stroke="#000000" stroke-width="0.42" stroke-linecap="round" stroke-linejoin="bevel" stroke-miterlimit="10" d="
		M225.59,146.93l-1.32-1.02c-3.126-2.609-12.673-8.441-15.18-2.22l-0.24,0.84l-0.36,1.8c-0.921,6.737,1.402,13.212,6.12,18.06
		l1.32,1.2"/>

		<path fill="none" stroke="#000000" stroke-width="0.42" stroke-linecap="round" stroke-linejoin="bevel" stroke-miterlimit="10" d="
		M215.87,165.53l1.2,0.9c3.343,2.301,7.708,2.95,11.58,1.74l1.44-0.54"/>

		<polyline fill="none" stroke="#000000" stroke-width="0.42" stroke-linecap="round" stroke-linejoin="bevel" stroke-miterlimit="10" points="
		231.05,152.93 229.91,151.25 228.59,149.69 227.15,148.25 225.59,146.93 	"/>

		<polyline fill="none" stroke="#000000" stroke-width="0.72" stroke-linecap="round" stroke-linejoin="bevel" stroke-miterlimit="10" points="
		359.87,218.63 357.05,218.57 354.23,218.69 351.41,219.05 	"/>

		<line fill="none" stroke="#000000" stroke-width="0.72" stroke-linecap="round" stroke-linejoin="round" stroke-miterlimit="10" x1="359.87" y1="218.63" x2="361.25" y2="220.37"/>

		<polyline fill="none" stroke="#000000" stroke-width="0.42" stroke-linecap="round" stroke-linejoin="round" stroke-miterlimit="10" points="
		193.67,121.43 206.39,130.49 219.35,139.19 	"/>

		<polyline fill="none" stroke="#000000" stroke-width="0.42" stroke-linecap="round" stroke-linejoin="round" stroke-miterlimit="10" points="
		222.77,141.47 236.39,150.11 250.07,158.57 	"/>

		<line fill="none" stroke="#000000" stroke-width="0.24" stroke-linecap="round" stroke-linejoin="round" stroke-miterlimit="10" x1="251.81" y1="158.81" x2="259.97" y2="163.49"/>

		<line fill="none" stroke="#000000" stroke-width="0.24" stroke-linecap="round" stroke-linejoin="round" stroke-miterlimit="10" x1="225.17" y1="135.17" x2="222.41" y2="133.37"/>

		<line fill="none" stroke="#000000" stroke-width="0.24" stroke-linecap="round" stroke-linejoin="round" stroke-miterlimit="10" x1="298.19" y1="90.95" x2="293.57" y2="83.27"/>

		<line fill="none" stroke="#000000" stroke-width="0.72" stroke-linecap="round" stroke-linejoin="round" stroke-miterlimit="10" x1="278.81" y1="69.11" x2="429.59" y2="69.11"/>
	<polyline fill-rule="evenodd" clip-rule="evenodd" points="446.69,64.01 446.33,64.01 446.15,64.07 446.03,64.13 446.03,73.85
		446.15,74.09 446.21,74.09 446.51,74.21 451.01,74.21 451.13,74.15 451.19,74.09 451.25,73.91 451.25,73.37 451.19,73.19
		451.13,73.07 447.35,73.07 447.35,64.25 447.29,64.13 447.23,64.07 446.99,64.01 	"/>
	<polyline fill-rule="evenodd" clip-rule="evenodd" points="458.09,64.07 453.23,64.07 452.93,64.19 452.87,64.31 452.81,64.61
		452.81,73.85 452.93,74.09 452.99,74.09 453.29,74.21 458.15,74.21 458.39,74.09 458.39,73.91 458.45,73.67 458.39,73.37
		458.39,73.19 458.15,73.07 454.13,73.07 454.13,69.47 457.55,69.47 457.67,69.41 457.73,69.35 457.79,69.17 457.79,68.69
		457.73,68.51 457.67,68.39 454.13,68.39 454.13,65.15 458.21,65.15 458.27,65.03 458.33,64.85 458.39,64.61 458.33,64.37
		458.27,64.19 458.21,64.07 	"/>
	<path fill-rule="evenodd" clip-rule="evenodd" d="M466.79,65.03l-3.42,0.12h0.18l0.36,0.06c2.073,0.093,3.207,1.804,3.12,3.84v0.6
		c-0.216,2.05-1.123,3.35-3.3,3.42h-1.74l4.92,0.06c1.962-1.684,2.079-5.901,0.3-7.74l-0.18-0.18"/>
	<path fill-rule="evenodd" clip-rule="evenodd" d="M463.43,64.07h-2.34l-0.3,0.12l-0.06,0.12l-0.06,0.3v9.24l0.12,0.24h0.06
		l0.3,0.12h2.88l0.36-0.06l0.9-0.18l0.24-0.06l0.3-0.12l0.3-0.12l0.24-0.18l0.3-0.18l0.24-0.18l-4.92-0.06v-7.92h1.38l3.42-0.12
		l-0.24-0.18c-0.711-0.503-1.546-0.724-2.4-0.78h-0.36"/>
	<polyline fill-rule="evenodd" clip-rule="evenodd" points="474.35,64.19 472.97,65.39 472.97,73.13 470.75,73.13 470.69,73.25
		470.63,73.43 470.57,73.67 470.63,73.91 470.69,74.09 470.75,74.15 470.87,74.21 476.21,74.21 476.27,74.15 476.39,74.09
		476.45,73.91 476.45,73.43 476.39,73.25 476.33,73.13 474.35,73.13 	"/>
	<polyline fill-rule="evenodd" clip-rule="evenodd" points="473.69,64.01 473.21,64.01 473.15,64.07 470.81,65.57 470.63,65.75
		470.57,65.93 470.57,66.47 470.63,66.65 470.81,66.65 471.05,66.59 472.97,65.39 474.35,64.19 474.35,64.13 474.23,64.01
		474.05,64.01 	"/>

		<line fill="none" stroke="#000000" stroke-width="0.72" stroke-linecap="round" stroke-linejoin="round" stroke-miterlimit="10" x1="144.05" y1="155.81" x2="219.35" y2="155.81"/>
	<path fill-rule="evenodd" clip-rule="evenodd" d="M7.13,152.15h-3h0.06l0.3,0.06c0.835-0.058,1.846,0.662,1.8,1.56l0.06,0.36v0.24
		c-0.179,1.084-0.804,1.772-1.92,1.86H2.87l3.9,0.24c1.03-0.955,1.235-2.524,0.72-3.78l-0.18-0.3"/>
	<path fill-rule="evenodd" clip-rule="evenodd" d="M4.25,151.07H1.97l-0.3,0.12l-0.06,0.12l-0.06,0.3v9.48l0.12,0.12h0.18l0.36,0.06
		l0.3-0.06h0.24l0.06-0.12l0.06-0.06v-3.66h1.14c0.997-0.086,1.666-0.125,2.52-0.72l0.24-0.18l-3.9-0.24v-4.08h4.26l-0.18-0.24
		c-1.125-0.806-0.855-0.599-2.1-0.84h-0.3"/>
	<path fill-rule="evenodd" clip-rule="evenodd" d="M15.23,159.77l-0.3,0.06c-0.618,0.353-1.337,0.478-2.04,0.48l-2.76,0.06l0.3,0.3
		c0.865,0.656,1.953,0.721,3,0.66l0.3-0.06h0.18l0.3-0.06l0.3-0.12l0.24-0.06l0.3-0.12l0.24-0.12l0.06-0.12l0.06-0.06v-0.18
		l0.06-0.18l-0.06-0.24v-0.12l-0.06-0.12"/>
	<path fill-rule="evenodd" clip-rule="evenodd" d="M14.99,154.55l-2.4,0.06h0.36c0.988,0.287,1.362,0.779,1.5,1.8v0.36h-3.84
		l-1.32,0.06l-0.06,0.36c-0.07,0.862,0.225,2.591,0.9,3.18l2.76-0.06h-0.18c-1.405-0.127-2.045-0.84-2.1-2.22v-0.36h4.68l0.3-0.12
		l0.06-0.12l0.06-0.3v-0.96l-0.12-0.6l-0.12-0.24l-0.12-0.3l-0.18-0.24"/>
	<path fill-rule="evenodd" clip-rule="evenodd" d="M12.65,153.59h-0.18c-1.834,0.116-2.819,1.18-3.18,2.94v0.3l1.32-0.06v-0.18
		c0.053-1.127,0.835-1.983,1.98-1.98l2.4-0.06l-0.12-0.18c-0.465-0.343-0.982-0.659-1.56-0.72l-0.3-0.06"/>
	<path fill-rule="evenodd" clip-rule="evenodd" d="M23.27,159.77l-0.3,0.06c-0.618,0.353-1.337,0.478-2.04,0.48l-2.76,0.06
		l0.06,0.06l0.24,0.24c0.865,0.656,1.953,0.721,3,0.66l0.3-0.06h0.18l0.3-0.06l0.3-0.12l0.24-0.06l0.3-0.12l0.24-0.12l0.06-0.12
		l0.06-0.06v-0.18l0.06-0.18l-0.06-0.24v-0.12l-0.06-0.12"/>
	<path fill-rule="evenodd" clip-rule="evenodd" d="M23.03,154.55l-2.4,0.06h0.36c0.988,0.287,1.362,0.779,1.5,1.8v0.36h-3.84
		l-1.32,0.06l-0.06,0.36c-0.07,0.862,0.225,2.591,0.9,3.18l2.76-0.06h-0.18c-1.405-0.127-2.045-0.84-2.1-2.22v-0.36h4.68l0.3-0.12
		l0.06-0.12l0.06-0.3v-0.96l-0.12-0.6l-0.12-0.24l-0.12-0.3l-0.18-0.24"/>
	<path fill-rule="evenodd" clip-rule="evenodd" d="M20.69,153.59h-0.18c-1.834,0.116-2.819,1.18-3.18,2.94v0.3l1.32-0.06v-0.18
		c0.053-1.127,0.834-1.983,1.98-1.98l2.4-0.06l-0.12-0.18c-0.465-0.343-0.982-0.659-1.56-0.72l-0.3-0.06"/>
	<polyline fill-rule="evenodd" clip-rule="evenodd" points="29.93,154.73 28.79,154.85 29.09,154.85 29.39,154.91 29.75,155.03
		29.87,154.91 	"/>
	<polyline fill-rule="evenodd" clip-rule="evenodd" points="26.39,153.71 26.09,153.71 25.91,153.77 25.79,153.83 25.79,161.03
		25.85,161.09 25.91,161.21 26.15,161.27 26.75,161.27 26.93,161.21 27.05,161.09 27.11,161.03 27.11,156.35 27.23,156.11
		27.41,155.87 27.59,155.63 27.83,155.39 28.01,155.15 28.13,155.03 26.99,154.97 26.99,153.95 26.93,153.83 26.87,153.77
		26.69,153.71 	"/>
	<path fill-rule="evenodd" clip-rule="evenodd" d="M28.91,153.59h-0.18l-0.3,0.06l-0.18,0.06l-0.48,0.36l-0.24,0.24l-0.18,0.12
		l-0.18,0.24l-0.18,0.3l1.14,0.06l0.3-0.12l0.06-0.06h0.3l1.14-0.12v-0.3c0.024-0.512,0.03-0.704-0.54-0.78l-0.24-0.06"/>
	<path fill-rule="evenodd" clip-rule="evenodd" d="M39.95,159.35l-0.24,0.12c-0.435,0.316-0.893,0.647-1.44,0.72l-0.36,0.06
		l2.22,0.06l0.06-0.12v-0.54l-0.06-0.18l-0.06-0.12"/>
	<path fill-rule="evenodd" clip-rule="evenodd" d="M35.45,154.67l-0.36,0.48c-0.681,1.492-0.693,3.544,0.12,4.98l0.18,0.24
		l0.24,0.24c1.166,1.044,3.117,0.936,4.32,0l0.12-0.18l0.06-0.12l-2.22-0.06c-2.553,0.257-2.605-5.384-0.36-5.52l0.3-0.06"/>
	<path fill-rule="evenodd" clip-rule="evenodd" d="M37.91,153.59h-0.06c-1.056,0.101-1.485,0.153-2.28,0.96l-0.12,0.12h2.4
		c0.753,0.089,1.189,0.238,1.8,0.72l0.24,0.12l0.18-0.12l0.06-0.06v-0.6l-0.06-0.18v-0.12l-0.18-0.12v-0.06l-0.3-0.18l-0.18-0.12
		l-0.3-0.12l-0.24-0.06l-0.3-0.12h-0.06l-0.3-0.06"/>
	<path fill-rule="evenodd" clip-rule="evenodd" d="M47.63,154.61l-2.64,0.06h0.12c0.609,0.05,1.247,0.273,1.56,0.84h0.06l0.12,0.3
		c0.671,1.555,0.398,4.589-1.92,4.44l-2.64,0.12h0.06l0.18,0.24c1.12,0.968,3.487,1.011,4.62,0.06l0.24-0.18l0.18-0.24
		c1.088-1.086,1.167-3.521,0.54-4.86l-0.12-0.3l-0.18-0.24"/>
	<path fill-rule="evenodd" clip-rule="evenodd" d="M45.05,153.59h-0.06c-3.468-0.122-4.381,4.086-2.88,6.54l0.18,0.24l2.64-0.12
		h-0.12c-2.771,0.192-2.773-5.859,0.18-5.58l2.64-0.06v-0.06c-0.525-0.511-1.183-0.825-1.92-0.9l-0.3-0.06"/>
	<polyline fill-rule="evenodd" clip-rule="evenodd" points="51.89,154.61 51.65,154.91 52.85,154.97 53.45,154.73 53.75,154.73 	"/>
	<polyline fill-rule="evenodd" clip-rule="evenodd" points="51.05,153.71 50.75,153.71 50.57,153.77 50.45,153.83 50.45,161.03
		50.51,161.09 50.57,161.21 50.81,161.27 51.41,161.27 51.59,161.21 51.77,161.03 51.77,156.05 51.89,155.93 52.07,155.69
		52.55,155.21 52.79,155.09 52.85,154.97 51.65,154.91 51.65,153.95 51.59,153.83 51.53,153.77 51.35,153.71 	"/>
	<path fill-rule="evenodd" clip-rule="evenodd" d="M53.99,153.59h-0.24c-0.62,0.055-1.154,0.389-1.62,0.78l-0.24,0.24l1.86,0.12
		h0.36l0.3,0.12l0.24,0.18l0.24,0.24v0.06l0.18,0.24l0.06,0.36l0.06,0.24l0.06,0.36v4.56l0.12,0.12l0.18,0.06h0.66l0.18-0.06
		l0.12-0.12v-5.1l-0.12-0.6v-0.06l-0.12-0.3c-0.135-0.451-0.646-1.021-1.08-1.2l-0.24-0.12l-0.3-0.06l-0.3-0.06"/>
	<polyline fill-rule="evenodd" clip-rule="evenodd" points="62.39,160.01 62.27,160.07 62.09,160.13 61.85,160.19 61.79,160.19
		61.49,160.25 62.57,160.25 62.51,160.13 62.51,160.01 	"/>
	<path fill-rule="evenodd" clip-rule="evenodd" d="M59.87,151.79l-0.3,0.06h-0.24l-0.12,0.24v1.68h-1.08l-0.12,0.12v0.12l-0.06,0.3
		v0.12l0.06,0.24l0.24,0.18h0.96v4.2c-0.031,0.512,0.159,1.472,0.6,1.8l0.24,0.18l0.3,0.18c0.557,0.161,1.924,0.287,2.22-0.36v-0.6
		h-1.08c-0.907-0.038-0.964-0.782-0.96-1.5v-3.9h1.8l0.24-0.24v-0.6l-0.12-0.24h-1.92v-1.68l-0.06-0.12l-0.12-0.12h-0.18"/>
	<polyline fill-rule="evenodd" clip-rule="evenodd" points="68.45,154.73 67.31,154.85 67.61,154.85 67.91,154.91 68.09,154.97
		68.27,155.03 68.39,154.91 	"/>
	<polyline fill-rule="evenodd" clip-rule="evenodd" points="64.91,153.71 64.61,153.71 64.43,153.77 64.31,153.83 64.31,161.03
		64.37,161.09 64.43,161.21 64.67,161.27 65.27,161.27 65.45,161.21 65.63,161.03 65.63,156.35 65.75,156.11 66.11,155.63
		66.35,155.39 66.53,155.15 66.65,155.03 65.51,154.97 65.51,153.95 65.45,153.83 65.39,153.77 65.21,153.71 	"/>
	<path fill-rule="evenodd" clip-rule="evenodd" d="M67.43,153.59h-0.18l-0.3,0.06l-0.18,0.06l-0.48,0.36l-0.24,0.24l-0.18,0.12
		l-0.18,0.24l-0.18,0.3l1.14,0.06l0.3-0.12l0.06-0.06h0.3l1.14-0.12v-0.3c0.024-0.512,0.03-0.704-0.54-0.78l-0.24-0.06"/>
	<path fill-rule="evenodd" clip-rule="evenodd" d="M75.65,154.61l-2.64,0.06h0.12c0.609,0.05,1.247,0.273,1.56,0.84h0.06l0.12,0.3
		c0.671,1.555,0.398,4.589-1.92,4.44l-2.64,0.12h0.06l0.18,0.24c1.12,0.968,3.487,1.011,4.62,0.06l0.24-0.18l0.18-0.24
		c1.088-1.086,1.167-3.521,0.54-4.86l-0.12-0.3l-0.18-0.24"/>
	<path fill-rule="evenodd" clip-rule="evenodd" d="M73.07,153.59h-0.06c-3.468-0.122-4.381,4.086-2.88,6.54l0.18,0.24l2.64-0.12
		h-0.12c-2.773,0.19-2.771-5.86,0.18-5.58l2.64-0.06v-0.06c-0.525-0.511-1.184-0.825-1.92-0.9l-0.3-0.06"/>
	<polyline fill-rule="evenodd" clip-rule="evenodd" points="79.73,161.03 79.55,161.21 79.37,161.27 78.77,161.27 78.53,161.21
		78.47,161.09 78.41,161.03 78.41,150.53 78.47,150.41 78.53,150.35 78.77,150.29 79.37,150.29 79.55,150.35 79.67,150.41
		79.73,150.53 79.73,161.03 	"/>
	<polyline fill-rule="evenodd" clip-rule="evenodd" points="88.25,160.07 86.81,160.13 86.93,160.25 89.03,160.25 88.85,160.25
		88.55,160.19 	"/>
	<polyline fill-rule="evenodd" clip-rule="evenodd" points="87.23,154.55 86.99,154.73 88.55,154.79 88.73,154.73 89.09,154.73 	"/>
	<path fill-rule="evenodd" clip-rule="evenodd" d="M89.33,153.59h-0.3l-0.6,0.12l-0.3,0.12v0.06l-0.3,0.12l-0.24,0.18l-0.36,0.36
		l1.86,0.18h0.24c0.975,0.138,1.468,1.279,1.44,2.16l0.06,0.3v0.36c-0.013,0.905-0.34,2.571-1.5,2.64l-0.3,0.06h-2.1l0.24,0.24
		l0.24,0.18v0.06l0.3,0.18c4.611,2.583,6.196-6.127,2.28-7.26l-0.36-0.06"/>
	<path fill-rule="evenodd" clip-rule="evenodd" d="M86.33,150.29h-0.3l-0.24,0.06l-0.06,0.06l-0.06,0.12v10.62l0.12,0.06l0.18,0.06
		h0.54l0.18-0.06l0.12-0.06v-1.02l1.44-0.06l-0.24-0.18l-0.12-0.06l-0.24-0.18l-0.24-0.24l-0.18-0.24l-0.24-0.24v-2.82l0.12-0.24
		c0.376-0.39,0.511-0.526,0.96-0.84l0.24-0.12l0.24-0.12l-1.56-0.06v-4.2l-0.06-0.12l-0.12-0.06l-0.18-0.06"/>
	<polyline fill-rule="evenodd" clip-rule="evenodd" points="97.73,159.95 97.43,160.13 96.83,160.25 98.69,160.31 98.93,160.07 	"/>
	<path fill-rule="evenodd" clip-rule="evenodd" d="M94.67,153.71h-0.3l-0.18,0.06l-0.12,0.06l-0.06,0.12v4.32l0.06,0.36v0.36
		l0.06,0.3l0.06,0.24v0.12l0.24,0.6l0.18,0.24v0.06l0.24,0.24c0.939,0.809,2.389,0.666,3.36,0l0.48-0.48l-1.86-0.06h-0.06l-0.3-0.06
		l-0.3-0.12l-0.24-0.12l-0.24-0.24v-0.06l-0.18-0.3l-0.18-0.9v-4.62l-0.12-0.06l-0.24-0.06"/>
	<polyline fill-rule="evenodd" clip-rule="evenodd" points="99.47,153.71 99.17,153.71 98.93,153.77 98.87,153.83 98.81,153.95
		98.81,158.87 98.69,159.05 98.03,159.71 97.79,159.89 97.73,159.95 98.93,160.07 98.93,161.03 98.99,161.09 99.05,161.21
		99.23,161.27 99.83,161.27 100.01,161.21 100.07,161.09 100.13,161.03 100.13,153.95 100.07,153.83 100.01,153.77 99.77,153.71
		"/>
	<polyline fill-rule="evenodd" clip-rule="evenodd" points="105.95,160.01 105.83,160.07 105.65,160.13 105.41,160.19
		105.35,160.19 105.05,160.25 106.13,160.25 106.07,160.13 106.07,160.01 	"/>
	<path fill-rule="evenodd" clip-rule="evenodd" d="M103.43,151.79l-0.3,0.06h-0.24l-0.12,0.24v1.68h-1.08l-0.12,0.12v0.12l-0.06,0.3
		v0.12l0.06,0.24l0.24,0.18h0.96v4.2c-0.031,0.512,0.159,1.472,0.6,1.8l0.24,0.18l0.3,0.18c0.557,0.161,1.924,0.287,2.22-0.36v-0.6
		h-1.08c-0.907-0.038-0.964-0.782-0.96-1.5v-3.9h1.8l0.24-0.24v-0.6l-0.12-0.24h-1.92v-1.68l-0.06-0.12l-0.12-0.12h-0.18"/>
	<polyline fill-rule="evenodd" clip-rule="evenodd" points="111.29,160.01 111.17,160.07 110.99,160.13 110.75,160.19
		110.69,160.19 110.39,160.25 111.47,160.25 111.41,160.13 111.41,160.01 	"/>
	<path fill-rule="evenodd" clip-rule="evenodd" d="M108.77,151.79l-0.3,0.06h-0.24l-0.12,0.24v1.68h-1.08l-0.12,0.12v0.12l-0.06,0.3
		v0.12l0.06,0.24l0.24,0.18h0.96v4.2c-0.031,0.512,0.159,1.472,0.6,1.8l0.24,0.18l0.3,0.18c0.557,0.161,1.923,0.287,2.22-0.36v-0.6
		h-1.08c-0.907-0.038-0.964-0.782-0.96-1.5v-3.9h1.8l0.24-0.24v-0.6l-0.12-0.24h-1.92v-1.68l-0.06-0.12l-0.12-0.12h-0.18"/>
	<path fill-rule="evenodd" clip-rule="evenodd" d="M118.85,154.61l-2.64,0.06h0.12c0.499,0.059,1.053,0.181,1.38,0.6l0.18,0.24h0.06
		l0.12,0.3c0.671,1.555,0.398,4.589-1.92,4.44l-2.64,0.12h0.06l0.18,0.24c4.137,2.532,7.315-1.536,5.46-5.52l-0.18-0.24"/>
	<path fill-rule="evenodd" clip-rule="evenodd" d="M116.27,153.59h-0.06c-3.468-0.122-4.381,4.086-2.88,6.54l0.18,0.24l2.64-0.12
		h-0.12c-2.771,0.192-2.773-5.859,0.18-5.58l2.64-0.06v-0.06c-0.525-0.511-1.183-0.825-1.92-0.9l-0.3-0.06"/>
	<polyline fill-rule="evenodd" clip-rule="evenodd" points="123.05,154.61 122.81,154.91 124.01,154.97 124.31,154.85
		124.61,154.73 124.91,154.73 	"/>
	<polyline fill-rule="evenodd" clip-rule="evenodd" points="122.21,153.71 121.91,153.71 121.73,153.77 121.61,153.83
		121.61,161.03 121.67,161.09 121.73,161.21 121.97,161.27 122.57,161.27 122.75,161.21 122.93,161.03 122.93,156.05 123.05,155.93
		123.23,155.69 123.71,155.21 123.95,155.09 124.01,154.97 122.81,154.91 122.81,153.95 122.75,153.83 122.69,153.77 122.51,153.71
			"/>
	<path fill-rule="evenodd" clip-rule="evenodd" d="M125.15,153.59h-0.24c-0.619,0.055-1.155,0.39-1.62,0.78l-0.24,0.24l1.86,0.12
		h0.36l0.3,0.12l0.24,0.18l0.24,0.24v0.06l0.18,0.24l0.06,0.36l0.06,0.24l0.06,0.36v4.56l0.12,0.12l0.18,0.06h0.66l0.18-0.06
		l0.12-0.12v-5.1l-0.12-0.6v-0.06l-0.12-0.3c-0.135-0.451-0.646-1.021-1.08-1.2l-0.24-0.12l-0.3-0.06l-0.3-0.06"/>
</g>
</svg>
