<?xml version="1.0" encoding="UTF-8" standalone="no"?>
<!DOCTYPE svg PUBLIC "-//W3C//DTD SVG 1.1//EN" "http://www.w3.org/Graphics/SVG/1.1/DTD/svg11.dtd">
<!-- Generated by Microsoft Visio, SVG Export nrf_desktop_arch_kbd.svg Page-1 -->
<svg xmlns="http://www.w3.org/2000/svg" xmlns:xlink="http://www.w3.org/1999/xlink" xmlns:ev="http://www.w3.org/2001/xml-events"
		width="7.31321in" height="6.29974in" viewBox="0 0 526.551 453.581" xml:space="preserve" color-interpolation-filters="sRGB"
		class="st17">
	<style type="text/css">
	<![CDATA[
		.st1 {fill:#0077c8;stroke:none;stroke-width:1}
		.st2 {fill:#ffffff;font-family:Calibri;font-size:0.666664em}
		.st3 {font-size:1em}
		.st4 {fill:#768692;stroke:none;stroke-width:1}
		.st5 {marker-end:url(#mrkr13-33);marker-start:url(#mrkr13-31);stroke:#333f48;stroke-linecap:butt;stroke-width:1}
		.st6 {fill:#333f48;fill-opacity:1;stroke:#333f48;stroke-opacity:1;stroke-width:0.40983606557377}
		.st7 {fill:#00a9ce;stroke:none;stroke-width:1}
		.st8 {fill:#ffffff;font-family:Calibri;font-size:0.833336em}
		.st9 {fill:none;stroke:#768692;stroke-width:1}
		.st10 {fill:none;stroke:none;stroke-width:1}
		.st11 {fill:#333f48;font-family:Calibri;font-size:0.833336em}
		.st12 {fill:#768692;font-family:Calibri;font-size:1.00001em}
		.st13 {fill:none;stroke:#768692;stroke-dasharray:7,5;stroke-width:1}
		.st14 {fill:#d9e1e2;stroke:none;stroke-width:1}
		.st15 {fill:#ffffff;font-family:Calibri;font-size:1.00001em}
		.st16 {font-size:0.83333em}
		.st17 {fill:none;fill-rule:evenodd;font-size:12px;overflow:visible;stroke-linecap:square;stroke-miterlimit:3}
	]]>
	</style>

	<defs id="Markers">
		<g id="lend13">
			<path d="M 3 1 L 0 0 L 3 -1 L 3 1 " style="stroke:none"/>
		</g>
		<marker id="mrkr13-31" class="st6" refX="6.96" orient="auto" markerUnits="strokeWidth" overflow="visible">
			<use xlink:href="#lend13" transform="scale(2.44) "/>
		</marker>
		<marker id="mrkr13-33" class="st6" refX="-7.32" orient="auto" markerUnits="strokeWidth" overflow="visible">
			<use xlink:href="#lend13" transform="scale(-2.44,-2.44) "/>
		</marker>
	</defs>
	<g>
		<title>Page-1</title>
		<g id="shape1449-1" transform="translate(252.736,-238.95)">
			<title>Nordic Lake.1449</title>
			<desc>BAS</desc>
			<rect x="0" y="425.235" width="21.1383" height="28.3465" class="st1"/>
			<text x="4.24" y="441.81" class="st2">BAS</text>		</g>
		<g id="shape1450-4" transform="translate(490.786,-238.95)">
			<title>Nordic Lake.1450</title>
			<desc>Device descr.</desc>
			<rect x="0" y="425.235" width="34.7653" height="28.3465" class="st1"/>
			<text x="6.53" y="437.01" class="st2">Device <tspan x="7.63" dy="1.2em" class="st3">descr.</tspan></text>		</g>
		<g id="shape1456-8" transform="translate(59.7244,-347.274)">
			<title>Nordic Blue.1456</title>
			<desc>ADC driver</desc>
			<rect x="0" y="425.235" width="44.6363" height="28.3465" class="st4"/>
			<text x="4.9" y="441.81" class="st2">ADC driver</text>		</g>
		<g id="shape1458-11" transform="translate(1,-347.274)">
			<title>Nordic Blue.1458</title>
			<desc>PWM driver</desc>
			<rect x="0" y="425.235" width="50.5421" height="28.3465" class="st4"/>
			<text x="5.72" y="441.81" class="st2">PWM driver</text>		</g>
		<g id="shape1468-14" transform="translate(65.2256,-238.95)">
			<title>Nordic Lake.1468</title>
			<desc>Battery meas.</desc>
			<rect x="0" y="425.235" width="33.6339" height="28.3465" class="st1"/>
			<text x="4.85" y="437.01" class="st2">Battery <tspan x="7.14" dy="1.2em" class="st3">meas.</tspan></text>		</g>
		<g id="shape1470-18" transform="translate(9.84592,-238.95)">
			<title>Nordic Lake.1470</title>
			<desc>LEDs</desc>
			<rect x="0" y="425.235" width="32.8502" height="28.3465" class="st1"/>
			<text x="8.77" y="441.81" class="st2">LEDs</text>		</g>
		<g id="shape1471-21" transform="translate(166.343,-238.95)">
			<title>Nordic Lake.1471</title>
			<desc>HID state</desc>
			<rect x="0" y="425.235" width="24.8947" height="28.3465" class="st1"/>
			<text x="6.49" y="437.01" class="st2">HID <tspan x="4.3" dy="1.2em" class="st3">state</tspan></text>		</g>
		<g id="shape2141-25" transform="translate(501.082,-347.274)">
			<title>Dynamic connector.2141</title>
			<path d="M7.09 460.54 L7.09 460.9 L7.09 526.24" class="st5"/>
		</g>
		<g id="shape2143-34" transform="translate(222.944,-173.854)">
			<title>Nordic Blue.2143</title>
			<desc>Application Event Manager</desc>
			<rect x="0" y="425.235" width="80.7218" height="28.3465" class="st7"/>
			<text x="17.32" y="436.41" class="st8">Application <tspan x="9.46" dy="1.2em" class="st3">Event Manager</tspan></text>		</g>
		<g id="shape2145-38" transform="translate(256.219,-238.95)">
			<title>Dynamic connector.2145</title>
			<path d="M7.09 460.54 L7.09 460.9 L7.09 483.01" class="st5"/>
		</g>
		<g id="shape2158-45" transform="translate(178.79,-238.95)">
			<title>Dynamic connector.2158</title>
			<path d="M0 460.54 L0 460.9 L0 470.87 L84.52 470.87 L84.52 483.01" class="st5"/>
		</g>
		<g id="shape2159-52" transform="translate(138.206,-238.95)">
			<title>Dynamic connector.2159</title>
			<path d="M0 460.54 L0 460.9 L0 470.87 L125.1 470.87 L125.1 483.01" class="st5"/>
		</g>
		<g id="shape2161-59" transform="translate(82.0426,-238.95)">
			<title>Dynamic connector.2161</title>
			<path d="M0 460.54 L0 460.9 L0 470.87 L181.26 470.87 L181.26 483.01" class="st5"/>
		</g>
		<g id="shape2164-66" transform="translate(11.828,-106.776)">
			<title>Nordic Lake.2164</title>
			<desc>Power mgmt</desc>
			<rect x="0" y="425.235" width="33.6339" height="28.3465" class="st1"/>
			<text x="6.4" y="437.01" class="st2">Power <tspan x="7.2" dy="1.2em" class="st3">mgmt</tspan></text>		</g>
		<g id="shape2165-70" transform="translate(51.2091,-106.776)">
			<title>Nordic Lake.2165</title>
			<desc>Settings loader</desc>
			<rect x="0" y="425.235" width="34.7653" height="28.3465" class="st1"/>
			<text x="4.41" y="437.01" class="st2">Settings <tspan x="6.95" dy="1.2em" class="st3">loader</tspan></text>		</g>
		<g id="shape2166-74" transform="translate(91.7216,-106.776)">
			<title>Nordic Lake.2166</title>
			<desc>Failsafe</desc>
			<rect x="0" y="425.235" width="33.6339" height="28.3465" class="st1"/>
			<text x="4.54" y="441.81" class="st2">Failsafe</text>		</g>
		<g id="shape2168-77" transform="translate(230.418,-106.776)">
			<title>Nordic Lake.2168</title>
			<desc>Watchdog</desc>
			<rect x="0" y="425.235" width="44.6363" height="28.3465" class="st1"/>
			<text x="5.62" y="441.81" class="st2">Watchdog</text>		</g>
		<g id="shape2169-80" transform="translate(285.758,-106.776)">
			<title>Nordic Lake.2169</title>
			<desc>Buttons</desc>
			<rect x="0" y="425.235" width="33.6339" height="28.3465" class="st1"/>
			<text x="4.08" y="441.81" class="st2">Buttons</text>		</g>
		<g id="shape2171-83" transform="translate(350.254,-106.776)">
			<title>Nordic Lake.2171</title>
			<desc>Board</desc>
			<rect x="0" y="425.235" width="33.6339" height="28.3465" class="st1"/>
			<text x="7.12" y="441.81" class="st2">Board</text>		</g>
		<g id="shape2173-86" transform="translate(402.652,-106.776)">
			<title>Nordic Lake.2173</title>
			<desc>Click detector</desc>
			<rect x="0" y="425.235" width="38.8587" height="28.3465" class="st1"/>
			<text x="11.95" y="437.01" class="st2">Click <tspan x="5.47" dy="1.2em" class="st3">detector</tspan></text>		</g>
		<g id="shape2178-90" transform="translate(28.6449,-135.123)">
			<title>Dynamic connector.2178</title>
			<path d="M0 446.62 L0 446.26 L0 439.7 L234.66 439.7 L234.66 422.17" class="st5"/>
		</g>
		<g id="shape2179-97" transform="translate(68.5917,-135.123)">
			<title>Dynamic connector.2179</title>
			<path d="M0 446.62 L0 446.26 L0 439.7 L194.71 439.7 L194.71 422.17" class="st5"/>
		</g>
		<g id="shape2180-104" transform="translate(108.539,-135.123)">
			<title>Dynamic connector.2180</title>
			<path d="M0 446.62 L0 446.26 L0 439.7 L154.77 439.7 L154.77 422.17" class="st5"/>
		</g>
		<g id="shape2182-111" transform="translate(250.934,-135.123)">
			<title>Dynamic connector.2182</title>
			<path d="M1.8 446.62 L1.8 446.26 L1.8 439.7 L12.37 439.7 L12.37 422.17" class="st5"/>
		</g>
		<g id="shape2183-118" transform="translate(302.575,-135.123)">
			<title>Dynamic connector.2183</title>
			<path d="M0 446.62 L0 446.26 L0 439.76 L-39.27 439.76 L-39.27 422.17" class="st5"/>
		</g>
		<g id="shape2185-125" transform="translate(263.305,-173.854)">
			<title>Dynamic connector.2185</title>
			<path d="M0 460.54 L0 460.9 L0 478.59 L103.77 478.59 L103.77 484.99" class="st5"/>
		</g>
		<g id="shape2187-132" transform="translate(263.305,-173.854)">
			<title>Dynamic connector.2187</title>
			<path d="M0 460.54 L0 460.9 L0 478.59 L158.78 478.59 L158.78 484.99" class="st5"/>
		</g>
		<g id="shape2193-139" transform="translate(6.32677,-55.1451)">
			<title>Nordic Blue.2193</title>
			<desc>OS power mgmt</desc>
			<rect x="0" y="425.235" width="44.6363" height="28.3465" class="st4"/>
			<text x="6.47" y="437.01" class="st2">OS power <tspan x="12.71" dy="1.2em" class="st3">mgmt</tspan></text>		</g>
		<g id="shape2194-143" transform="translate(54.7441,-55.1451)">
			<title>Nordic Blue.2194</title>
			<desc>Settings subsys</desc>
			<rect x="0" y="425.235" width="34.3085" height="28.3465" class="st4"/>
			<text x="4.18" y="437.01" class="st2">Settings <tspan x="6.45" dy="1.2em" class="st3">subsys</tspan></text>		</g>
		<g id="shape2196-147" transform="translate(75.0294,-1)">
			<title>Nordic Blue.2196</title>
			<desc>FLASH driver</desc>
			<rect x="0" y="425.235" width="50.326" height="28.3465" class="st4"/>
			<text x="4.49" y="441.81" class="st2">FLASH driver</text>		</g>
		<g id="shape2199-150" transform="translate(21.5583,-83.4915)">
			<title>Dynamic connector.2199</title>
			<path d="M7.09 446.62 L7.09 446.26 L7.09 437.62" class="st5"/>
		</g>
		<g id="shape2200-157" transform="translate(61.5051,-82.9599)">
			<title>Dynamic connector.2200</title>
			<path d="M7.09 446.62 L7.09 446.26 L7.09 437.08" class="st5"/>
		</g>
		<g id="shape2201-164" transform="translate(77.9606,-29.4351)">
			<title>Dynamic connector.2201</title>
			<path d="M7.09 446.62 L7.09 446.26 L7.09 435.19" class="st5"/>
		</g>
		<g id="shape2202-171" transform="translate(101.452,-29.1016)">
			<title>Dynamic connector.2202</title>
			<path d="M7.09 446.62 L7.09 446.26 L7.09 383.23" class="st5"/>
		</g>
		<g id="shape2203-178" transform="translate(285.758,-55.1451)">
			<title>Nordic Blue.2203</title>
			<desc>GPIO driver</desc>
			<rect x="0" y="425.235" width="100.809" height="28.3465" class="st4"/>
			<text x="31.65" y="441.81" class="st2">GPIO driver</text>		</g>
		<g id="shape2205-181" transform="translate(230.418,-55.1451)">
			<title>Nordic Blue.2205</title>
			<desc>Watchdog driver</desc>
			<rect x="0" y="425.235" width="44.6363" height="28.3465" class="st4"/>
			<text x="5.62" y="437.01" class="st2">Watchdog <tspan x="12.71" dy="1.2em" class="st3">driver</tspan></text>		</g>
		<g id="shape2323-185" transform="translate(245.649,-83.4915)">
			<title>Dynamic connector.2323</title>
			<path d="M7.09 446.62 L7.09 446.26 L7.09 437.62" class="st5"/>
		</g>
		<g id="shape2324-192" transform="translate(295.488,-83.4915)">
			<title>Dynamic connector.2324</title>
			<path d="M7.09 446.62 L7.09 446.26 L7.09 437.62" class="st5"/>
		</g>
		<g id="shape2326-199" transform="translate(359.984,-84.0821)">
			<title>Dynamic connector.2326</title>
			<path d="M7.09 446.62 L7.09 446.26 L7.09 438.21" class="st5"/>
		</g>
		<g id="shape2333-206" transform="translate(202.557,-290.282)">
			<title>Nordic Blue.2333</title>
			<desc>HID service</desc>
			<rect x="0" y="425.235" width="38.8587" height="28.3465" class="st7"/>
			<text x="13.47" y="437.01" class="st2">HID <tspan x="8.07" dy="1.2em" class="st3">service</tspan></text>		</g>
		<g id="shape2334-210" transform="translate(202.557,-238.95)">
			<title>Nordic Lake.2334</title>
			<desc>HID service</desc>
			<rect x="0" y="425.235" width="38.8587" height="28.3465" class="st1"/>
			<text x="13.47" y="437.01" class="st2">HID <tspan x="8.07" dy="1.2em" class="st3">service</tspan></text>		</g>
		<g id="shape2335-214" transform="translate(214.9,-290.282)">
			<title>Dynamic connector.2335</title>
			<path d="M7.09 460.54 L7.09 460.9 L7.09 469.25" class="st5"/>
		</g>
		<g id="shape2337-221" transform="translate(221.987,-238.95)">
			<title>Dynamic connector.2337</title>
			<path d="M0 460.54 L0 460.9 L0 470.87 L41.32 470.87 L41.32 483.01" class="st5"/>
		</g>
		<g id="shape2338-228" transform="translate(19.1844,-347.274)">
			<title>Dynamic connector.2338</title>
			<path d="M7.09 460.54 L7.09 460.9 L7.09 526.24" class="st5"/>
		</g>
		<g id="shape2340-235" transform="translate(74.956,-347.274)">
			<title>Dynamic connector.2340</title>
			<path d="M7.09 460.54 L7.09 460.9 L7.09 526.24" class="st5"/>
		</g>
		<g id="shape2342-242" transform="translate(121.389,-238.95)">
			<title>Nordic Lake.2342</title>
			<desc>Passkey</desc>
			<rect x="0" y="425.235" width="33.6339" height="28.3465" class="st1"/>
			<text x="4.09" y="441.81" class="st2">Passkey</text>		</g>
		<g id="shape2343-245" transform="translate(26.271,-238.95)">
			<title>Dynamic connector.2343</title>
			<path d="M0 460.54 L0 460.9 L0 470.87 L237.03 470.87 L237.03 483.01" class="st5"/>
		</g>
		<g id="shape2344-252" transform="translate(131.103,-106.776)">
			<title>Nordic Lake.2344</title>
			<desc>Fn keys</desc>
			<rect x="0" y="425.235" width="33.6339" height="28.3465" class="st1"/>
			<text x="4.79" y="441.81" class="st2">Fn keys</text>		</g>
		<g id="shape2345-255" transform="translate(147.92,-135.123)">
			<title>Dynamic connector.2345</title>
			<path d="M0 446.62 L0 446.26 L0 439.7 L115.39 439.7 L115.39 422.17" class="st5"/>
		</g>
		<g id="shape2346-262" transform="translate(500.656,-106.776)">
			<title>Nordic Lake.2346</title>
			<desc>Info</desc>
			<rect x="0" y="425.235" width="24.8947" height="28.3465" class="st1"/>
			<text x="6.01" y="441.81" class="st2">Info</text>		</g>
		<g id="shape2347-265" transform="translate(451.654,-106.776)">
			<title>Nordic Lake.2347</title>
			<desc>LED state</desc>
			<rect x="0" y="425.235" width="38.8587" height="28.3465" class="st1"/>
			<text x="4.28" y="441.81" class="st2">LED state</text>		</g>
		<g id="shape2348-268" transform="translate(178.148,-106.776)">
			<title>Nordic Lake.2348</title>
			<desc>DFU</desc>
			<rect x="0" y="425.235" width="38.8587" height="28.3465" class="st1"/>
			<text x="12.56" y="441.81" class="st2">DFU</text>		</g>
		<g id="shape2349-271" transform="translate(178.148,-55.1451)">
			<title>Nordic Blue.2349</title>
			<desc>Image manager</desc>
			<rect x="0" y="425.235" width="38.8587" height="28.3465" class="st4"/>
			<text x="9.44" y="437.01" class="st2">Image <tspan x="5.03" dy="1.2em" class="st3">manager</tspan></text>		</g>
		<g id="shape2350-275" transform="translate(197.577,-135.123)">
			<title>Dynamic connector.2350</title>
			<path d="M0 446.62 L0 446.26 L0 439.7 L65.73 439.7 L65.73 422.17" class="st5"/>
		</g>
		<g id="shape2351-282" transform="translate(190.491,-83.4915)">
			<title>Dynamic connector.2351</title>
			<path d="M7.09 446.62 L7.09 446.26 L7.09 437.62" class="st5"/>
		</g>
		<g id="shape2352-289" transform="translate(263.305,-173.854)">
			<title>Dynamic connector.2352</title>
			<path d="M0 460.54 L0 460.9 L0 478.59 L207.78 478.59 L207.78 484.99" class="st5"/>
		</g>
		<g id="shape2353-296" transform="translate(263.305,-173.854)">
			<title>Dynamic connector.2353</title>
			<path d="M0 460.54 L0 460.9 L0 478.59 L249.8 478.59 L249.8 484.99" class="st5"/>
		</g>
		<g id="group2355-303" transform="translate(1,-385.683)">
			<title>Sheet.2355</title>
			<g id="shape2356-304">
				<title>Nordic Light Grey.2333</title>
				<rect x="0" y="386.683" width="80.4521" height="66.8976" class="st9"/>
			</g>
			<g id="shape2357-306" transform="translate(4.89191,-44.3524)">
				<title>Nordic Blue.1617</title>
				<rect x="0" y="437.875" width="15.4576" height="15.7058" class="st1"/>
			</g>
			<g id="shape2358-308" transform="translate(20.3495,-44.3524)">
				<title>Sheet.2358</title>
				<desc>Application</desc>
				<rect x="0" y="437.875" width="54.3499" height="15.7058" class="st10"/>
				<text x="4" y="449.33" class="st11">Application</text>			</g>
			<g id="shape2359-311" transform="translate(4.89191,-25.5959)">
				<title>Nordic Blue.1618</title>
				<rect x="0" y="437.875" width="15.4576" height="15.7058" class="st7"/>
			</g>
			<g id="shape2360-313" transform="translate(20.3495,-25.5959)">
				<title>Sheet.2360</title>
				<desc>NCS</desc>
				<rect x="0" y="437.875" width="54.3499" height="15.7058" class="st10"/>
				<text x="4" y="449.33" class="st11">NCS</text>			</g>
			<g id="shape2361-316" transform="translate(4.89191,-6.83943)">
				<title>Nordic Blue.2341</title>
				<rect x="0" y="437.875" width="15.4576" height="15.7058" class="st4"/>
			</g>
			<g id="shape2362-318" transform="translate(20.3495,-6.83943)">
				<title>Sheet.2362</title>
				<desc>Zephyr</desc>
				<rect x="0" y="437.875" width="54.3499" height="15.7058" class="st10"/>
				<text x="4" y="449.33" class="st11">Zephyr</text>			</g>
		</g>
		<g id="group2363-321" transform="translate(285.887,-234.751)">
			<title>Sheet.2363</title>
			<g id="shape2364-322" transform="translate(154.468,-5.81072)">
				<title>Nordic Lake.1442</title>
				<desc>State</desc>
				<rect x="0" y="425.235" width="38.8587" height="28.3465" class="st1"/>
				<text x="11.01" y="441.81" class="st2">State</text>			</g>
			<g id="shape2365-325" transform="translate(4.57085,-5.81072)">
				<title>Nordic Lake.1443</title>
				<desc>Advanced</desc>
				<rect x="0" y="425.235" width="50.326" height="28.3465" class="st1"/>
				<text x="9.14" y="441.81" class="st2">Advanced</text>			</g>
			<g id="shape2366-328" transform="translate(58.3589,-5.81072)">
				<title>Nordic Lake.1444</title>
				<desc>Bond</desc>
				<rect x="0" y="425.235" width="38.8587" height="28.3465" class="st1"/>
				<text x="10.94" y="441.81" class="st2">Bond</text>			</g>
			<g id="shape2367-331" transform="translate(100.68,-5.81072)">
				<title>Nordic Lake.1447</title>
				<desc>Latency</desc>
				<rect x="0" y="425.235" width="50.326" height="28.3465" class="st1"/>
				<text x="12.63" y="441.81" class="st2">Latency</text>			</g>
			<g id="shape2368-334" transform="translate(120.681,-37.5591)">
				<title>Sheet.2368</title>
				<desc>Bluetooth速 LE</desc>
				<rect x="0" y="437.543" width="78.5842" height="16.0377" class="st10"/>
				<text x="5.16" y="449.16" class="st12">Bluetooth速 LE</text>			</g>
			<g id="shape2369-337">
				<title>Nordic Blue.2345</title>
				<path d="M0 453.58 L199.26 453.58 L199.26 416.02 L0 416.02 L0 453.58 Z" class="st13"/>
			</g>
		</g>
		<g id="group2373-339" transform="translate(193.8,-347.274)">
			<title>Sheet.2373</title>
			<g id="shape2370-340">
				<title>Nordic Light Grey.2370</title>
				<rect x="0" y="378.463" width="331.751" height="75.1181" class="st14"/>
			</g>
			<g id="shape2371-342" transform="translate(12.1305,-29.3841)">
				<title>Nordic Blue.2371</title>
				<desc>Nordic proprietary Bluetooth速 LE Link layer</desc>
				<rect x="0" y="416.022" width="153.745" height="37.5591" class="st7"/>
				<text x="31.61" y="431.2" class="st15">Nordic proprietary <tspan x="18.72" dy="1.2em" class="st3">Bluetooth</tspan><tspan
							class="st16">速</tspan> LE Link layer</text>			</g>
			<g id="shape2372-347" transform="translate(12.1305,-8.17492)">
				<title>Nordic Sky.2372</title>
				<desc>Host layer</desc>
				<rect x="0" y="437.599" width="307.194" height="15.9815" class="st4"/>
				<text x="128.94" y="449.19" class="st15">Host layer</text>			</g>
		</g>
		<g id="shape2374-350" transform="translate(214.9,-347.274)">
			<title>Dynamic connector.2374</title>
			<path d="M7.09 460.54 L7.09 460.9 L7.09 474.91" class="st5"/>
		</g>
		<g id="shape2375-357" transform="translate(256.219,-347.274)">
			<title>Dynamic connector.2375</title>
			<path d="M7.09 460.54 L7.09 460.9 L7.09 526.24" class="st5"/>
		</g>
		<g id="shape2376-364" transform="translate(378.433,-347.274)">
			<title>Dynamic connector.2376</title>
			<path d="M7.09 460.54 L7.09 460.9 L7.09 521.22" class="st5"/>
		</g>
		<g id="shape2377-371" transform="translate(385.52,-234.751)">
			<title>Dynamic connector.2377</title>
			<path d="M0 460.54 L0 460.9 L0 466.76 L-122.21 466.76 L-122.21 478.81" class="st5"/>
		</g>
	</g>
</svg>
