<?xml version="1.0" encoding="UTF-8" standalone="no"?>
<!DOCTYPE svg PUBLIC "-//W3C//DTD SVG 1.1//EN" "http://www.w3.org/Graphics/SVG/1.1/DTD/svg11.dtd">
<!-- Generated by Microsoft Visio, SVG Export nrf_desktop_ble_bond.svg Page-1 -->
<svg xmlns="http://www.w3.org/2000/svg" xmlns:xlink="http://www.w3.org/1999/xlink" xmlns:ev="http://www.w3.org/2001/xml-events"
		width="7.97364in" height="8.09864in" viewBox="0 0 574.102 583.102" xml:space="preserve" color-interpolation-filters="sRGB"
		class="st25">
	<style type="text/css">
	<![CDATA[
		.st1 {fill:none;stroke:#768692;stroke-dasharray:0.01,3;stroke-width:1}
		.st2 {marker-end:url(#mrkr4-16);stroke:#333f48;stroke-linecap:butt;stroke-width:1}
		.st3 {fill:#333f48;fill-opacity:1;stroke:#333f48;stroke-opacity:1;stroke-width:0.28409090909091}
		.st4 {fill:none;stroke:none;stroke-width:1}
		.st5 {fill:#0033a0;font-family:Arial;font-size:0.666664em}
		.st6 {fill:#333f48;font-size:1em}
		.st7 {fill:#768692;font-family:Arial;font-size:0.541672em}
		.st8 {fill:#768692;font-family:Arial;font-size:0.666664em}
		.st9 {fill:#0077c8;font-family:Arial;font-size:0.666664em}
		.st10 {fill:#f58220;font-size:1em}
		.st11 {fill:#ee2f4e;font-size:1em}
		.st12 {marker-start:url(#mrkr4-101);stroke:#333f48;stroke-linecap:butt;stroke-width:1}
		.st13 {fill:#ee2f4e;font-family:Arial;font-size:0.666664em}
		.st14 {font-size:1em;text-decoration:underline}
		.st15 {font-size:1em}
		.st16 {fill:#00a9ce;stroke:none;stroke-width:1}
		.st17 {fill:#feffff;font-family:Arial;font-size:0.833336em}
		.st18 {fill:#333f48;stroke:#333f48;stroke-width:1.5}
		.st19 {fill:#d9e1e2;stroke:none;stroke-width:1}
		.st20 {fill:none;stroke:#000000;stroke-width:1}
		.st21 {fill:#000000;font-family:Arial;font-size:0.666664em}
		.st22 {fill:#0077c8;font-size:1em}
		.st23 {fill:#0033a0;font-size:1em}
		.st24 {fill:#333f48;font-family:Arial;font-size:0.666664em}
		.st25 {fill:none;fill-rule:evenodd;font-size:12px;overflow:visible;stroke-linecap:square;stroke-miterlimit:3}
	]]>
	</style>

	<defs id="Markers">
		<g id="lend4">
			<path d="M 2 1 L 0 0 L 2 -1 L 2 1 " style="stroke:none"/>
		</g>
		<marker id="mrkr4-16" class="st3" refX="-7.04" orient="auto" markerUnits="strokeWidth" overflow="visible">
			<use xlink:href="#lend4" transform="scale(-3.52,-3.52) "/>
		</marker>
		<marker id="mrkr4-101" class="st3" refX="6.68" orient="auto" markerUnits="strokeWidth" overflow="visible">
			<use xlink:href="#lend4" transform="scale(3.52) "/>
		</marker>
	</defs>
	<g>
		<title>Page-1</title>
		<g id="shape366-1" transform="translate(17.3346,-210.634)">
			<title>Sheet.366</title>
			<path d="M0 583.1 L250.82 583.1 L250.82 517.78 L0 517.78 L0 583.1 Z" class="st1"/>
		</g>
		<g id="shape367-3" transform="translate(290.559,-84.4627)">
			<title>Sheet.367</title>
			<path d="M0 583.1 L279.21 583.1 L279.21 482.31 L0 482.31 L0 583.1 Z" class="st1"/>
		</g>
		<g id="shape368-5" transform="translate(291.551,-379.582)">
			<title>Sheet.368</title>
			<path d="M0 583.1 L278.22 583.1 L278.22 380.58 L0 380.58 L0 583.1 Z" class="st1"/>
		</g>
		<g id="shape369-7" transform="translate(4.82677,-379.582)">
			<title>Sheet.369</title>
			<path d="M0 583.1 L262.44 583.1 L262.44 380.58 L0 380.58 L0 583.1 Z" class="st1"/>
		</g>
		<g id="shape370-9" transform="translate(17.3346,-292.318)">
			<title>Sheet.370</title>
			<path d="M0 583.1 L194.17 583.1 L194.17 517.78 L0 517.78 L0 583.1 Z" class="st1"/>
		</g>
		<g id="shape372-11" transform="translate(227.772,-310.165)">
			<title>Dynamic connector.372</title>
			<path d="M-7.09 583.1 L-19.76 583.1 L-19.76 547.51 L-14.13 547.51" class="st2"/>
		</g>
		<g id="shape373-17" transform="translate(25.3388,-306.14)">
			<title>Sheet.373</title>
			<desc>CLICK_SHORT (PEER_OPERATION_SCAN_REQUEST)</desc>
			<rect x="0" y="549.482" width="181.843" height="33.6199" class="st4"/>
			<text x="121.83" y="563.89" class="st5">CLICK_SHORT <tspan x="29.37" dy="1.2em" class="st6">(PEER_OPERATION_SCAN_REQUEST)</tspan></text>		</g>
		<g id="shape375-21" transform="translate(15.1732,-339.032)">
			<title>Sheet.375</title>
			<desc>#if CONFIG_DESKTOP_BLE_NEW_PEER_SCAN_REQUEST</desc>
			<rect x="0" y="564.489" width="196.335" height="18.6138" class="st4"/>
			<text x="7.5" y="575.75" class="st7">#if CONFIG_DESKTOP_BLE_NEW_PEER_SCAN_REQUEST</text>		</g>
		<g id="shape376-24" transform="translate(310.779,-563.489)">
			<title>Sheet.376</title>
			<desc>#if CONFIG_DESKTOP_BLE_PEER_SELECT</desc>
			<rect x="0" y="564.489" width="254.741" height="18.6138" class="st4"/>
			<text x="44.45" y="576.2" class="st8">#if CONFIG_DESKTOP_BLE_PEER_SELECT</text>		</g>
		<g id="shape377-27" transform="translate(1,-563.489)">
			<title>Sheet.377</title>
			<desc>#if CONFIG_DESKTOP_BLE_PEER_ERASE</desc>
			<rect x="0" y="564.489" width="254.741" height="18.6138" class="st4"/>
			<text x="46.45" y="576.2" class="st8">#if CONFIG_DESKTOP_BLE_PEER_ERASE</text>		</g>
		<g id="shape378-30" transform="translate(28.6732,-257.347)">
			<title>Sheet.378</title>
			<desc>#if CONFIG_DESKTOP_BLE_PEER_ERASE_ON_START</desc>
			<rect x="0" y="564.489" width="231.639" height="18.6138" class="st4"/>
			<text x="11.34" y="576.2" class="st8">#if CONFIG_DESKTOP_BLE_PEER_ERASE_ON_START</text>		</g>
		<g id="shape379-33" transform="translate(347.252,-166.479)">
			<title>Sheet.379</title>
			<desc>#if CONFIG_DESKTOP_BLE_DONGLE_PEER_ENABLE</desc>
			<rect x="0" y="564.489" width="222.52" height="18.6138" class="st4"/>
			<text x="9" y="576.2" class="st8">#if CONFIG_DESKTOP_BLE_DONGLE_PEER_ENABLE</text>		</g>
		<g id="shape381-36" transform="translate(12.5271,-379.547)">
			<title>Sheet.381</title>
			<desc>CLICK_DOUBLE (BT peripheral) (PEER_OPERATION_ERASE_ADV)</desc>
			<rect x="0" y="551.213" width="164.728" height="31.8898" class="st4"/>
			<text x="4" y="564.76" class="st5">CLICK_DOUBLE (BT peripheral) <tspan x="4" dy="1.2em" class="st6">(PEER_OPERATION_ERASE_ADV)</tspan></text>		</g>
		<g id="shape383-40" transform="translate(260.689,-293.866)">
			<title>Dynamic connector.383</title>
			<path d="M0 583.1 L0 656.28 L-174.47 656.28 L-174.47 713.49" class="st2"/>
		</g>
		<g id="shape384-45" transform="translate(495.539,-119.641)">
			<title>Dynamic connector.384</title>
			<path d="M0 583.1 L0 606.18 L-195.48 606.18 L-195.48 415.92" class="st2"/>
		</g>
		<g id="shape385-50" transform="translate(310.295,-293.866)">
			<title>Dynamic connector.385</title>
			<path d="M0 583.1 L0 740.52 L125.87 740.52" class="st2"/>
		</g>
		<g id="shape386-55" transform="translate(148.083,-152.899)">
			<title>Dynamic connector.386</title>
			<path d="M0 583.1 L126.5 583.1 L126.5 449.18" class="st2"/>
		</g>
		<g id="shape387-60" transform="translate(86.2165,-122.822)">
			<title>Dynamic connector.387</title>
			<path d="M0 583.1 L0 608.55 L196.33 608.55 L196.33 419.1" class="st2"/>
		</g>
		<g id="shape388-65" transform="translate(552.197,-510.215)">
			<title>Dynamic connector.388</title>
			<path d="M0 576.02 L0 589.09 L-80.65 589.09 L-80.65 583.06" class="st2"/>
		</g>
		<g id="shape389-70" transform="translate(449.37,-471.977)">
			<title>Sheet.389</title>
			<desc>CLICK_SHORT (PEER_OPERATION_SELECT)</desc>
			<rect x="0" y="551.658" width="123.732" height="31.4442" class="st4"/>
			<text x="33.86" y="564.98" class="st5">CLICK_SHORT <tspan x="4.74" dy="1.2em" class="st6">(PEER_OPERATION_SELECT)</tspan></text>		</g>
		<g id="shape392-74" transform="translate(86.2165,-225.924)">
			<title>Sheet.392</title>
			<desc>ON_START_CLICK(CLICK_LONG) (PEER_OPERATION_ERASE_ADV)</desc>
			<rect x="0" y="551.658" width="174.095" height="31.4442" class="st4"/>
			<text x="43.4" y="564.98" class="st5">ON_START_CLICK(CLICK_LONG) <tspan x="38.95" dy="1.2em" class="st6">(PEER_OPERATION_ERASE_ADV)</tspan></text>		</g>
		<g id="shape394-78" transform="translate(144.715,-107.275)">
			<title>Sheet.394</title>
			<desc>PEER_STATE_SECURED (PEER_OPERATION_ERASED)</desc>
			<rect x="0" y="560.493" width="135.817" height="22.6092" class="st4"/>
			<text x="36.24" y="569.4" class="st9">PEER_STATE_SECURED <tspan x="15.79" dy="1.2em" class="st6">(PEER_OPERATION_ERASED)</tspan></text>		</g>
		<g id="shape396-82" transform="translate(149.189,-530.169)">
			<title>Sheet.396</title>
			<desc>CLICK_LONG (PEER_OPERATION_ERASE)</desc>
			<rect x="0" y="551.213" width="123.732" height="31.8898" class="st4"/>
			<text x="4" y="564.76" class="st5">CLICK_LONG <tspan x="4" dy="1.2em" class="st6">(PEER_OPERATION_ERASE)</tspan></text>		</g>
		<g id="shape398-86" transform="translate(82.0236,-478.672)">
			<title>Sheet.398</title>
			<desc>CLICK_DOUBLE (BT central) (PEER_OPERATION_ERASED)</desc>
			<rect x="0" y="560.493" width="133.354" height="22.6092" class="st4"/>
			<text x="4" y="569.4" class="st5">CLICK_DOUBLE (BT central) <tspan x="4" dy="1.2em" class="st6">(PEER_OPERATION_ERASED)</tspan></text>		</g>
		<g id="shape401-90" transform="translate(52.3898,-417.642)">
			<title>Sheet.401</title>
			<desc>CLICK_NONE TIMEOUT DONGLE_PEER_SELECTOR_POS (PEER_OPERATION_E...</desc>
			<rect x="0" y="537.198" width="145.205" height="45.904" class="st4"/>
			<text x="4" y="548.15" class="st5">CLICK_NONE <tspan x="4" dy="1.2em" class="st10">TIMEOUT </tspan><tspan x="4"
						dy="1.2em" class="st11">DONGLE_PEER_SELECTOR_POS </tspan><tspan x="4" dy="1.2em" class="st6">(PEER_OPERATION_ERASE_ADV)</tspan></text>		</g>
		<g id="shape402-96" transform="translate(143.512,-534.111)">
			<title>Dynamic connector.402</title>
			<path d="M6.68 583.1 L7.04 583.1 L133.62 583.1 L133.62 758.02" class="st12"/>
		</g>
		<g id="shape403-102" transform="translate(81.6457,-517.301)">
			<title>Dynamic connector.403</title>
			<path d="M0 583.1 L0 624.95 L172.24 624.95 L172.24 734.17" class="st2"/>
		</g>
		<g id="shape404-107" transform="translate(52.0119,-517.472)">
			<title>Dynamic connector.404</title>
			<path d="M0 583.1 L0 686.66 L185.15 686.66 L185.15 734.34" class="st2"/>
		</g>
		<g id="shape405-112" transform="translate(300.355,-530.614)">
			<title>Sheet.405</title>
			<desc>CLICK_SHORT (PEER_OPERATION_SELECT)</desc>
			<rect x="0" y="551.658" width="130.307" height="31.4442" class="st4"/>
			<text x="70.3" y="564.98" class="st5">CLICK_SHORT <tspan x="12.06" dy="1.2em" class="st6">(PEER_OPERATION_SELECT)</tspan></text>		</g>
		<g id="shape407-116" transform="translate(282.551,-359.193)">
			<title>Dynamic connector.407</title>
			<path d="M0 583.1 L0 408.18 L148.37 408.18" class="st2"/>
		</g>
		<g id="shape408-121" transform="translate(93.0197,-156.906)">
			<title>Sheet.408</title>
			<desc>CLICK_NONE TIMEOUT DONGLE_PEER_SELECTOR_POS (PEER_OPERATION_E...</desc>
			<rect x="0" y="537.198" width="181.843" height="45.904" class="st4"/>
			<text x="126.72" y="548.15" class="st5">CLICK_NONE <tspan x="141.85" dy="1.2em" class="st10">TIMEOUT </tspan><tspan
						x="48.91" dy="1.2em" class="st11">DONGLE_PEER_SELECTOR_POS </tspan><tspan x="9.79" dy="1.2em" class="st6">(PEER_OPERATION_ERASE_ADV_CANCEL)</tspan></text>		</g>
		<g id="shape409-127" transform="translate(309.693,-144.028)">
			<title>Sheet.409</title>
			<desc>DONGLE_PEER_SELECTOR_POS (PEER_OPERATION_SELECTED)</desc>
			<rect x="0" y="564.489" width="145.339" height="18.6138" class="st4"/>
			<text x="4" y="571.4" class="st13">DONGLE_PEER_SELECTOR_POS <tspan x="4" dy="1.2em" class="st6">(PEER_OPERATION_SELECTED)</tspan></text>		</g>
		<g id="shape411-131" transform="translate(301.976,-99.6758)">
			<title>Sheet.411</title>
			<desc>not DONGLE_PEER_SELECTOR_POS (PEER_OPERATION_SELECTED)</desc>
			<rect x="0" y="551.658" width="145.339" height="31.4442" class="st4"/>
			<text x="4" y="560.18" class="st13"><tspan class="st14">not </tspan><tspan x="4" dy="1.2em" class="st15">DONGLE_PEER_SELECTOR_POS </tspan><tspan
						x="4" dy="1.2em" class="st6">(PEER_OPERATION_SELECTED)</tspan></text>		</g>
		<g id="shape413-137" transform="translate(451.709,-517.301)">
			<title>Dynamic connector.413</title>
			<path d="M0 583.1 L0 688.38 L-128.37 688.38 L-128.37 734.17" class="st2"/>
		</g>
		<g id="shape414-142" transform="translate(444.622,-517.301)">
			<title>Dynamic connector.414</title>
			<path d="M0 583.1 L0 625.6 L-132.34 625.6 L-132.34 734.17" class="st2"/>
		</g>
		<g id="shape417-147" transform="translate(307.234,-478.672)">
			<title>Sheet.417</title>
			<desc>CLICK_DOUBLE (PEER_OPERATION_SELECTED)</desc>
			<rect x="0" y="560.493" width="136.807" height="22.6092" class="st4"/>
			<text x="71.9" y="569.4" class="st5">CLICK_DOUBLE <tspan x="7.44" dy="1.2em" class="st6">(PEER_OPERATION_SELECTED)</tspan></text>		</g>
		<g id="shape420-151" transform="translate(305.994,-417.642)">
			<title>Sheet.420</title>
			<desc>CLICK_NONE TIMEOUT DONGLE_PEER_SELECTOR_POS (PEER_OPERATION_C...</desc>
			<rect x="0" y="537.198" width="145.205" height="45.904" class="st4"/>
			<text x="90.08" y="548.15" class="st5">CLICK_NONE <tspan x="105.21" dy="1.2em" class="st10">TIMEOUT </tspan><tspan
						x="12.27" dy="1.2em" class="st11">DONGLE_PEER_SELECTOR_POS </tspan><tspan x="25.62" dy="1.2em" class="st6">(PEER_OPERATION_CANCEL)</tspan></text>		</g>
		<g id="shape423-157" transform="translate(14.9783,-534.111)">
			<title>Dynamic connector.423</title>
			<path d="M4.8 583.1 L-4.28 583.1 L-4.28 977.58 L2.33 977.58" class="st2"/>
		</g>
		<g id="shape428-162" transform="translate(19.7795,-517.301)">
			<title>Nordic Blue</title>
			<desc>STATE_ERASE_PEER</desc>
			<rect x="0" y="549.482" width="123.732" height="33.6199" class="st16"/>
			<text x="9.62" y="569.59" class="st17">STATE_ERASE_PEER</text>		</g>
		<g id="shape435-165" transform="translate(437.961,-517.301)">
			<title>Nordic Blue.435</title>
			<desc>STATE_SELECT_PEER</desc>
			<rect x="0" y="549.482" width="123.732" height="33.6199" class="st16"/>
			<text x="7.12" y="569.59" class="st17">STATE_SELECT_PEER</text>		</g>
		<g id="shape441-168" transform="translate(220.685,-293.866)">
			<title>Nordic Blue.441</title>
			<desc>STATE_IDLE</desc>
			<rect x="0" y="517.776" width="123.732" height="65.3268" class="st16"/>
			<text x="31.86" y="553.74" class="st17">STATE_IDLE</text>		</g>
		<g id="shape442-171" transform="translate(24.3504,-122.822)">
			<title>Nordic Blue.442</title>
			<desc>STATE_ERASE_ADV</desc>
			<rect x="0" y="549.482" width="123.732" height="33.6199" class="st16"/>
			<text x="12.96" y="569.59" class="st17">STATE_ERASE_ADV</text>		</g>
		<g id="shape446-174" transform="translate(443.205,-119.641)">
			<title>Nordic Blue.446</title>
			<desc>STATE_DONGLE</desc>
			<rect x="0" y="549.482" width="123.732" height="33.6199" class="st16"/>
			<text x="21.86" y="569.59" class="st17">STATE_DONGLE</text>		</g>
		<g id="shape448-177" transform="translate(394.591,-332.851)">
			<title>Nordic Blue.448</title>
			<desc>STATE_DISABLED</desc>
			<rect x="0" y="549.482" width="123.732" height="33.6199" class="st16"/>
			<text x="18.24" y="569.59" class="st17">STATE_DISABLED</text>		</g>
		<g id="shape449-180" transform="translate(394.591,-208.325)">
			<title>Nordic Blue.449</title>
			<desc>STATE_STANDBY</desc>
			<rect x="0" y="549.482" width="123.732" height="33.6199" class="st16"/>
			<text x="19.36" y="569.59" class="st17">STATE_STANDBY</text>		</g>
		<g id="shape451-183" transform="translate(394.591,-342.575)">
			<title>Dynamic connector</title>
			<path d="M0 576.02 L-43.13 576.02" class="st2"/>
		</g>
		<g id="shape452-188" transform="translate(394.591,-225.135)">
			<title>Dynamic connector.452</title>
			<path d="M-6.68 583.1 L-7.04 583.1 L-67.61 583.1 L-67.61 514.37" class="st12"/>
		</g>
		<g id="shape454-193" transform="translate(551.811,-342.575)">
			<title>Sheet.454</title>
			<ellipse cx="6.64177" cy="576.016" rx="6.64177" ry="7.08661" class="st18"/>
		</g>
		<g id="shape455-195" transform="translate(551.811,-342.575)">
			<title>Dynamic connector.455</title>
			<path d="M0 576.02 L-26.45 576.02" class="st2"/>
		</g>
		<g id="shape447-200" transform="translate(24.8707,-54.8583)">
			<title>Nordic Light Grey</title>
			<rect x="0" y="565.776" width="164.728" height="17.3265" class="st19"/>
		</g>
		<g id="shape371-202" transform="translate(24.8707,-1)">
			<title>Sheet.371</title>
			<desc>PEER OPERATION TRIGGERS - ble_peer_event - click_event (prede...</desc>
			<rect x="0" y="511.918" width="164.728" height="71.1848" class="st20"/>
			<text x="4" y="524.11" class="st21">PEER OPERATION TRIGGERS  <tspan x="4" dy="2.4em" class="st15">-</tspan> <tspan
						class="st22">ble_peer_event </tspan><tspan x="4" dy="1.2em" class="st15">-</tspan> <tspan class="st23">click_event</tspan> (predefined button) <tspan
						x="4" dy="1.2em" class="st6">-</tspan><tspan class="st6"> </tspan><tspan class="st10">timeout </tspan><tspan
						x="4" dy="1.538em" class="st15">-</tspan> <tspan class="st11">selector_event</tspan> (predefined selector)</text>		</g>
		<g id="shape457-214" transform="translate(519.394,-208.325)">
			<title>Sheet.457</title>
			<desc>See Diagram #3</desc>
			<rect x="0" y="549.482" width="50.3779" height="33.6199" class="st4"/>
			<text x="4" y="563.89" class="st24">See <tspan x="4" dy="1.2em" class="st15">Diagram #3</tspan></text>		</g>
		<g id="shape458-218" transform="translate(502.165,-100.213)">
			<title>Sheet.458</title>
			<desc>See Diagram #2</desc>
			<rect x="0" y="564.489" width="67.6063" height="18.6138" class="st4"/>
			<text x="4" y="576.2" class="st24">See Diagram #2</text>		</g>
		<g id="shape459-221" transform="translate(374.093,-267.655)">
			<title>Nordic Blue.459</title>
			<desc>STATE_DISABLED_STANDBY</desc>
			<rect x="0" y="549.482" width="164.728" height="33.6199" class="st16"/>
			<text x="12.34" y="569.59" class="st17">STATE_DISABLED_STANDBY</text>		</g>
		<g id="shape460-224" transform="translate(449.37,-332.851)">
			<title>Dynamic connector.460</title>
			<path d="M7.09 583.1 L7.09 607.64" class="st2"/>
		</g>
		<g id="shape462-229" transform="translate(456.945,-301.407)">
			<title>Sheet.462</title>
			<desc>power_down_event</desc>
			<rect x="0" y="551.658" width="81.9706" height="31.4442" class="st4"/>
			<text x="4" y="569.78" class="st9">power_down_event</text>		</g>
		<g id="shape463-232" transform="translate(449.37,-267.655)">
			<title>Dynamic connector.463</title>
			<path d="M7.09 583.1 L7.09 601.77" class="st2"/>
		</g>
		<g id="shape464-237" transform="translate(428.181,-301.275)">
			<title>Dynamic connector.464</title>
			<path d="M7.09 583.1 L7.09 558.57" class="st2"/>
		</g>
		<g id="shape465-242" transform="translate(394.591,-233.441)">
			<title>Dynamic connector.465</title>
			<path d="M0 583.1 L-56.27 583.1 L-56.27 529.72" class="st2"/>
		</g>
		<g id="shape466-247" transform="translate(457.378,-243.362)">
			<title>Sheet.466</title>
			<desc>(on initialization)</desc>
			<rect x="0" y="560.493" width="89.819" height="22.6092" class="st4"/>
			<text x="4" y="574.2" class="st24">(on initialization)</text>		</g>
		<g id="shape467-250" transform="translate(310.295,-206.719)">
			<title>Sheet.467</title>
			<desc>power_down_event</desc>
			<rect x="0" y="564.489" width="89.819" height="18.6138" class="st4"/>
			<text x="4" y="576.2" class="st9">power_down_event</text>		</g>
		<g id="shape468-253" transform="translate(338.323,-239.442)">
			<title>Sheet.468</title>
			<desc>wake_up_event</desc>
			<rect x="0" y="564.489" width="89.819" height="18.6138" class="st4"/>
			<text x="4" y="576.2" class="st9">wake_up_event</text>		</g>
		<g id="shape469-256" transform="translate(368.937,-301.275)">
			<title>Sheet.469</title>
			<desc>wake_up_event</desc>
			<rect x="0" y="551.525" width="65.7638" height="31.577" class="st4"/>
			<text x="5.72" y="569.71" class="st9">wake_up_event</text>		</g>
	</g>
</svg>
