<?xml version="1.0" encoding="UTF-8" standalone="no"?>
<!DOCTYPE svg PUBLIC "-//W3C//DTD SVG 1.1//EN" "http://www.w3.org/Graphics/SVG/1.1/DTD/svg11.dtd">
<!-- Generated by Microsoft Visio, SVG Export octave_application_structure.svg Page-1 -->
<svg xmlns="http://www.w3.org/2000/svg" xmlns:xlink="http://www.w3.org/1999/xlink" xmlns:ev="http://www.w3.org/2001/xml-events"
		width="7.72078in" height="8.24932in" viewBox="0 0 555.896 593.951" xml:space="preserve" color-interpolation-filters="sRGB"
		class="st39">
	<style type="text/css">
	<![CDATA[
		.st1 {fill:#d9e1e2;stroke:none;stroke-width:1}
		.st2 {fill:#333f48;font-family:Arial;font-size:0.75em}
		.st3 {fill:#768692;stroke:none;stroke-width:1}
		.st4 {fill:#ffffff;font-family:Arial;font-size:0.666664em}
		.st5 {fill:#333f48;stroke:none;stroke-width:1}
		.st6 {fill:#ffffff;font-family:Arial;font-size:0.916672em}
		.st7 {font-size:1em}
		.st8 {fill:#6ad1e3;stroke:#333f48;stroke-dasharray:7,5;stroke-width:1}
		.st9 {fill:#333f48;font-family:Arial;font-size:0.916672em}
		.st10 {fill:#6ad1e3;stroke:none;stroke-width:1}
		.st11 {marker-end:url(#mrkr4-61);marker-start:url(#mrkr4-59);stroke:#6ad1e3;stroke-linecap:butt;stroke-width:1}
		.st12 {fill:#6ad1e3;fill-opacity:1;stroke:#6ad1e3;stroke-opacity:1;stroke-width:0.28409090909091}
		.st13 {fill:#0033a0;stroke:#0033a0;stroke-width:1}
		.st14 {fill:#feffff;font-family:Arial;font-size:0.916672em}
		.st15 {fill:#00a9ce;stroke:none;stroke-width:1}
		.st16 {fill:none;stroke:#768692;stroke-dasharray:3,3;stroke-width:1}
		.st17 {fill:#00a9ce;stroke:#333f48;stroke-dasharray:7,5;stroke-width:1}
		.st18 {fill:#feffff;font-family:Arial;font-size:0.666664em}
		.st19 {fill:none;stroke:#333f48;stroke-dasharray:0.01,5;stroke-width:1}
		.st20 {fill:none;stroke:none;stroke-width:1}
		.st21 {fill:#d0df00;stroke:none;stroke-width:1}
		.st22 {fill:#333f48;font-family:Arial;font-size:0.833336em}
		.st23 {fill:#333f48;font-family:Arial;font-size:0.666664em}
		.st24 {marker-end:url(#mrkr4-119);stroke:#768692;stroke-linecap:butt;stroke-width:1}
		.st25 {fill:#768692;fill-opacity:1;stroke:#768692;stroke-opacity:1;stroke-width:0.28409090909091}
		.st26 {marker-start:url(#mrkr4-140);stroke:#768692;stroke-linecap:butt;stroke-width:1}
		.st27 {marker-start:url(#mrkr4-146);stroke:#00a9ce;stroke-linecap:butt;stroke-width:1}
		.st28 {fill:#00a9ce;fill-opacity:1;stroke:#00a9ce;stroke-opacity:1;stroke-width:0.28409090909091}
		.st29 {marker-end:url(#mrkr4-152);stroke:#00a9ce;stroke-linecap:butt;stroke-width:1}
		.st30 {fill:#768692;font-family:Arial;font-size:0.75em}
		.st31 {marker-end:url(#mrkr4-167);stroke:#d0df00;stroke-linecap:butt;stroke-width:1}
		.st32 {fill:#d0df00;fill-opacity:1;stroke:#d0df00;stroke-opacity:1;stroke-width:0.28409090909091}
		.st33 {fill:#768692;font-family:Arial;font-size:0.666664em}
		.st34 {marker-end:url(#mrkr4-152);marker-start:url(#mrkr4-146);stroke:#00a9ce;stroke-linecap:butt;stroke-width:1}
		.st35 {marker-end:url(#mrkr4-119);marker-start:url(#mrkr4-140);stroke:#768692;stroke-linecap:butt;stroke-width:1}
		.st36 {fill:none;stroke:#333f48;stroke-width:1}
		.st37 {fill:#ffffff;stroke:#333f48;stroke-dasharray:3,3;stroke-width:1}
		.st38 {marker-end:url(#mrkr4-167);marker-start:url(#mrkr4-317);stroke:#d0df00;stroke-linecap:butt;stroke-width:1}
		.st39 {fill:none;fill-rule:evenodd;font-size:12px;overflow:visible;stroke-linecap:square;stroke-miterlimit:3}
	]]>
	</style>

	<defs id="Markers">
		<g id="lend4">
			<path d="M 2 1 L 0 0 L 2 -1 L 2 1 " style="stroke:none"/>
		</g>
		<marker id="mrkr4-59" class="st12" refX="6.68" orient="auto" markerUnits="strokeWidth" overflow="visible">
			<use xlink:href="#lend4" transform="scale(3.52) "/>
		</marker>
		<marker id="mrkr4-61" class="st12" refX="-7.04" orient="auto" markerUnits="strokeWidth" overflow="visible">
			<use xlink:href="#lend4" transform="scale(-3.52,-3.52) "/>
		</marker>
		<marker id="mrkr4-119" class="st25" refX="-7.04" orient="auto" markerUnits="strokeWidth" overflow="visible">
			<use xlink:href="#lend4" transform="scale(-3.52,-3.52) "/>
		</marker>
		<marker id="mrkr4-140" class="st25" refX="6.68" orient="auto" markerUnits="strokeWidth" overflow="visible">
			<use xlink:href="#lend4" transform="scale(3.52) "/>
		</marker>
		<marker id="mrkr4-146" class="st28" refX="6.68" orient="auto" markerUnits="strokeWidth" overflow="visible">
			<use xlink:href="#lend4" transform="scale(3.52) "/>
		</marker>
		<marker id="mrkr4-152" class="st28" refX="-7.04" orient="auto" markerUnits="strokeWidth" overflow="visible">
			<use xlink:href="#lend4" transform="scale(-3.52,-3.52) "/>
		</marker>
		<marker id="mrkr4-167" class="st32" refX="-7.04" orient="auto" markerUnits="strokeWidth" overflow="visible">
			<use xlink:href="#lend4" transform="scale(-3.52,-3.52) "/>
		</marker>
		<marker id="mrkr4-317" class="st32" refX="6.68" orient="auto" markerUnits="strokeWidth" overflow="visible">
			<use xlink:href="#lend4" transform="scale(3.52) "/>
		</marker>
	</defs>
	<g>
		<title>Page-1</title>
		<g id="shape41-1" transform="translate(288.049,-338.641)">
			<title>Nordic Middle Grey</title>
			<desc>audio_codec.c</desc>
			<rect x="0" y="464.193" width="91.8083" height="129.758" class="st1"/>
			<text x="29.77" y="587.25" class="st2">audio_codec.c</text>		</g>
		<g id="shape40-4" transform="translate(292.408,-403.52)">
			<title>Nordic Light Grey</title>
			<desc>sw_codec_select.c</desc>
			<rect x="0" y="533.986" width="84.189" height="59.9648" class="st3"/>
			<text x="13.04" y="587.55" class="st4">sw_codec_select.c</text>		</g>
		<g id="shape5-7" transform="translate(150.251,-512.654)">
			<title>Nordic Blue</title>
			<desc>Bluetooth LE Host</desc>
			<rect x="0" y="551.431" width="202.677" height="42.5197" class="st5"/>
			<text x="57.01" y="575.99" class="st6">Bluetooth LE Host</text>		</g>
		<g id="shape6-10" transform="translate(425.211,-512.654)">
			<title>Nordic Blue.6</title>
			<desc>LE Audio Controller Subsystem for nRF53</desc>
			<rect x="0" y="551.431" width="129.685" height="42.5197" class="st5"/>
			<text x="17.15" y="569.39" class="st6">LE Audio Controller <tspan x="11.66" dy="1.2em" class="st7">S</tspan>ubsystem for nRF53</text>		</g>
		<g id="shape7-14" transform="translate(425.211,-9.50394)">
			<title>Nordic Blue.7</title>
			<desc>Radio</desc>
			<path d="M0 593.95 L53.15 593.95 L53.15 551.43 L0 551.43 L0 593.95 Z" class="st8"/>
			<text x="12.2" y="575.99" class="st9">Radio</text>		</g>
		<g id="shape8-17" transform="translate(501.747,-9.50394)">
			<title>Nordic Blue.8</title>
			<desc>UART (debug)</desc>
			<path d="M0 593.95 L53.15 593.95 L53.15 551.43 L0 551.43 L0 593.95 Z" class="st8"/>
			<text x="11.6" y="569.39" class="st9">UART <tspan x="7.62" dy="1.2em" class="st7">(debug)</tspan></text>		</g>
		<g id="shape9-21" transform="translate(44.1469,-9.50394)">
			<title>Nordic Blue.9</title>
			<desc>UART (debug)</desc>
			<path d="M0 593.95 L53.15 593.95 L53.15 551.43 L0 551.43 L0 593.95 Z" class="st8"/>
			<text x="11.6" y="569.39" class="st9">UART <tspan x="7.62" dy="1.2em" class="st7">(debug)</tspan></text>		</g>
		<g id="shape10-25" transform="translate(14.1876,-66.1969)">
			<title>Nordic Blue.10</title>
			<desc>TWI/I2C</desc>
			<path d="M0 593.95 L53.15 593.95 L53.15 551.43 L0 551.43 L0 593.95 Z" class="st8"/>
			<text x="6.41" y="575.99" class="st9">TWI/I2C</text>		</g>
		<g id="shape11-28" transform="translate(77.9671,-66.1969)">
			<title>Nordic Blue.11</title>
			<desc>SPI4</desc>
			<path d="M0 593.95 L53.15 593.95 L53.15 551.43 L0 551.43 L0 593.95 Z" class="st8"/>
			<text x="14.65" y="575.99" class="st9">SPI4</text>		</g>
		<g id="shape12-31" transform="translate(77.9671,-151.236)">
			<title>Nordic Blue.12</title>
			<desc>SD card</desc>
			<rect x="0" y="551.431" width="53.1496" height="42.5197" class="st10"/>
			<text x="6.71" y="575.99" class="st9">SD card</text>		</g>
		<g id="shape13-34" transform="translate(40.6915,-196.926)">
			<title>Nordic Blue.13</title>
			<desc>HW codec (CS47L63)</desc>
			<rect x="0" y="551.431" width="63.7795" height="42.5197" class="st10"/>
			<text x="6.52" y="569.39" class="st9">HW codec <tspan x="5.29" dy="1.2em" class="st7">(CS47L63)</tspan></text>		</g>
		<g id="shape14-38" transform="translate(14.1876,-151.236)">
			<title>Nordic Blue.14</title>
			<desc>Power module (INA231)</desc>
			<rect x="0" y="551.431" width="53.1496" height="42.5197" class="st10"/>
			<text x="10.99" y="562.79" class="st9">Power <tspan x="8.54" dy="1.2em" class="st7">module </tspan><tspan x="4.57"
						dy="1.2em" class="st7">(INA231)</tspan></text>		</g>
		<g id="shape15-43" transform="translate(44.1469,-300.055)">
			<title>Nordic Blue.15</title>
			<desc>Error handler</desc>
			<rect x="0" y="551.431" width="53.1496" height="42.5197" class="st10"/>
			<text x="14.35" y="569.39" class="st9">Error <tspan x="8.23" dy="1.2em" class="st7">handler</tspan></text>		</g>
		<g id="shape16-47" transform="translate(74.4238,-250.449)">
			<title>Nordic Blue.16</title>
			<desc>Buttons</desc>
			<rect x="0" y="551.431" width="53.1496" height="42.5197" class="st10"/>
			<text x="7.92" y="575.99" class="st9">Buttons</text>		</g>
		<g id="shape17-50" transform="translate(10.6443,-250.449)">
			<title>Nordic Blue.17</title>
			<desc>LEDs</desc>
			<rect x="0" y="551.431" width="53.1496" height="42.5197" class="st10"/>
			<text x="13.13" y="575.99" class="st9">LEDs</text>		</g>
		<g id="shape18-53" transform="translate(33.6758,-108.717)">
			<title>Dynamic connector</title>
			<path d="M7.09 587.27 L7.09 586.91 L7.09 558.47" class="st11"/>
		</g>
		<g id="shape22-62" transform="translate(155.37,-184.806)">
			<title>Nordic Blueslate</title>
			<desc>Synchronization module (audio_datapath.c)</desc>
			<rect x="0" y="539.311" width="220.802" height="54.6402" class="st13"/>
			<text x="51.7" y="563.33" class="st14">Synchronization module <tspan x="64.53" dy="1.2em" class="st7">(audio_datapath.c)</tspan></text>		</g>
		<g id="shape23-66" transform="translate(155.37,-109.034)">
			<title>Nordic Lake</title>
			<desc>audio_i2s.c</desc>
			<rect x="0" y="560.57" width="220.802" height="33.3804" class="st15"/>
			<text x="82.58" y="580.56" class="st14">audio_i2s.c</text>		</g>
		<g id="shape25-69" transform="translate(149.55,-2.03534)">
			<title>Nordic Blue.25</title>
			<path d="M0 593.95 L232.44 593.95 L232.44 119.13 L0 119.13 L0 593.95 Z" class="st16"/>
		</g>
		<g id="shape26-71" transform="translate(97.4553,-108.717)">
			<title>Dynamic connector.26</title>
			<path d="M7.09 587.27 L7.09 586.91 L7.09 558.47" class="st11"/>
		</g>
		<g id="shape29-78" transform="translate(72.5813,-196.926)">
			<title>Dynamic connector.29</title>
			<path d="M0 600.63 L0 600.99 L0 659.48 L20.41 659.48 L20.41 675.12" class="st11"/>
		</g>
		<g id="shape30-85" transform="translate(239.196,-9.50394)">
			<title>Nordic Lake.30</title>
			<desc>I2S (audio)</desc>
			<path d="M0 593.95 L53.15 593.95 L53.15 551.43 L0 551.43 L0 593.95 Z" class="st17"/>
			<text x="18.32" y="569.39" class="st14">I2S <tspan x="9.45" dy="1.2em" class="st7">(audio)</tspan></text>		</g>
		<g id="shape31-89" transform="translate(295.526,-363.835)">
			<title>Nordic Lake.31</title>
			<desc>I2S RX FIFO</desc>
			<rect x="0" y="560.57" width="53.1496" height="33.3804" class="st15"/>
			<text x="20.57" y="574.86" class="st18">I2S <tspan x="10.8" dy="1.2em" class="st7">RX FIFO</tspan></text>		</g>
		<g id="shape32-93" transform="translate(155.37,-420.528)">
			<title>Nordic Sky</title>
			<desc>audio_sync_timer.c</desc>
			<rect x="0" y="569.838" width="78.5026" height="24.1125" class="st3"/>
			<text x="4.79" y="584.29" class="st4">audio_sync_timer.c</text>		</g>
		<g id="shape33-96" transform="translate(396.865,-1)">
			<title>Nordic Blue.33</title>
			<path d="M0 593.95 L0.28 593.95 L0.28 4.34 L0 4.34 L0 593.95 Z" class="st19"/>
		</g>
		<g id="shape34-98" transform="translate(396.865,-570.055)">
			<title>Sheet.34</title>
			<desc>Network core</desc>
			<rect x="0" y="575.526" width="85.0394" height="18.4252" class="st20"/>
			<text x="10.12" y="588.04" class="st9">Network core</text>		</g>
		<g id="shape36-101" transform="translate(304.739,-570.055)">
			<title>Sheet.36</title>
			<desc>Application core</desc>
			<rect x="0" y="575.526" width="92.4095" height="18.4252" class="st20"/>
			<text x="7.07" y="588.04" class="st9">Application core</text>		</g>
		<g id="shape37-104" transform="translate(295.526,-420.845)">
			<title>Nordic Lake.37</title>
			<desc>Encoder</desc>
			<rect x="0" y="560.57" width="53.1496" height="33.3804" class="st21"/>
			<text x="7.95" y="580.26" class="st22">Encoder</text>		</g>
		<g id="shape42-107" transform="translate(181.352,-331.758)">
			<title>Nordic Middle Grey.42</title>
			<desc>streamctrl.c</desc>
			<rect x="0" y="529.798" width="99.4961" height="64.1525" class="st1"/>
			<text x="48.99" y="587.25" class="st2">streamctrl.c</text>		</g>
		<g id="shape43-110" transform="translate(199.211,-347.144)">
			<title>Nordic Lake.43</title>
			<desc>Bluetooth LE RX FIFO</desc>
			<rect x="0" y="560.57" width="63.7795" height="33.3804" class="st21"/>
			<text x="8.98" y="574.86" class="st23">Bluetooth LE <tspan x="16.11" dy="1.2em" class="st7">RX FIFO</tspan></text>		</g>
		<g id="shape44-114" transform="translate(156.841,-420.528)">
			<title>Dynamic connector.44</title>
			<path d="M6.59 593.95 L7.54 767.99" class="st24"/>
		</g>
		<g id="shape45-120" transform="translate(253.715,-512.654)">
			<title>Dynamic connector.45</title>
			<path d="M7.09 593.95 L7.09 719.04" class="st24"/>
		</g>
		<g id="shape46-125" transform="translate(231.038,-512.654)">
			<title>Dynamic connector.46</title>
			<path d="M7.09 593.95 L7.09 719.04" class="st24"/>
		</g>
		<g id="shape47-130" transform="translate(197.022,-347.144)">
			<title>Dynamic connector.47</title>
			<path d="M7.09 593.95 L7.09 694.61" class="st24"/>
		</g>
		<g id="shape48-135" transform="translate(214.03,-239.446)">
			<title>Dynamic connector.48</title>
			<path d="M7.09 587.27 L7.09 586.91 L7.09 486.25" class="st26"/>
		</g>
		<g id="shape49-141" transform="translate(293.4,-363.835)">
			<title>Dynamic connector.49</title>
			<path d="M7.09 600.63 L7.09 600.99 L7.09 718.34" class="st27"/>
		</g>
		<g id="shape50-147" transform="translate(293.4,-397.215)">
			<title>Dynamic connector.50</title>
			<path d="M7.09 593.95 L7.09 577.36" class="st29"/>
		</g>
		<g id="shape58-153" transform="translate(219.699,-268.165)">
			<title>Sheet.58</title>
			<desc>bad_frame</desc>
			<rect x="0" y="572.691" width="53.1496" height="21.2598" class="st20"/>
			<text x="4" y="586.02" class="st30">bad_frame</text>		</g>
		<g id="shape65-156" transform="translate(165.535,-268.165)">
			<title>Sheet.65</title>
			<desc>sdu_ref</desc>
			<rect x="0" y="572.691" width="39.2315" height="21.2598" class="st20"/>
			<text x="5.21" y="586.02" class="st30">sdu_ref</text>		</g>
		<g id="shape66-159" transform="translate(260.802,-486.433)">
			<title>Sheet.66</title>
			<desc>bad_frame</desc>
			<rect x="0" y="572.691" width="53.1496" height="21.2598" class="st20"/>
			<text x="4" y="586.02" class="st30">bad_frame</text>		</g>
		<g id="shape68-162" transform="translate(315.262,-454.226)">
			<title>Dynamic connector.68</title>
			<path d="M6.84 593.95 L7.27 542.56" class="st31"/>
		</g>
		<g id="shape71-168" transform="translate(198.893,-486.433)">
			<title>Sheet.71</title>
			<desc>sdu_ref</desc>
			<rect x="0" y="572.691" width="39.2315" height="21.2598" class="st20"/>
			<text x="5.21" y="586.02" class="st30">sdu_ref</text>		</g>
		<g id="shape72-171" transform="translate(242.377,-512.654)">
			<title>Dynamic connector.72</title>
			<path d="M7.09 593.95 L7.09 719.04" class="st31"/>
		</g>
		<g id="shape73-176" transform="translate(219.912,-347.144)">
			<title>Dynamic connector.73</title>
			<path d="M-6.87 593.95 L-7.27 694.61" class="st31"/>
		</g>
		<g id="shape74-181" transform="translate(214.03,-184.806)">
			<title>Dynamic connector.74</title>
			<path d="M-7.09 593.95 L-7.09 629.3" class="st29"/>
		</g>
		<g id="shape75-186" transform="translate(293.4,-184.806)">
			<title>Dynamic connector.75</title>
			<path d="M7.09 600.63 L7.09 600.99 L7.09 636.34" class="st27"/>
		</g>
		<g id="shape76-191" transform="translate(163.006,-398.895)">
			<title>Sheet.76</title>
			<desc>cur_time</desc>
			<rect x="0" y="572.691" width="42.5197" height="21.2598" class="st20"/>
			<text x="4" y="586.02" class="st30">cur_time</text>		</g>
		<g id="shape77-194" transform="translate(226.786,-184.806)">
			<title>Dynamic connector.77</title>
			<path d="M7.09 600.63 L7.09 600.99 L7.09 636.34" class="st26"/>
		</g>
		<g id="shape79-199" transform="translate(233.873,-154.071)">
			<title>Sheet.79</title>
			<desc>frame_start_ts</desc>
			<rect x="0" y="576.943" width="63.7795" height="17.0079" class="st20"/>
			<text x="4" y="587.85" class="st33">frame_start_ts</text>		</g>
		<g id="shape80-202" transform="translate(243.794,-52.0236)">
			<title>Dynamic connector.80</title>
			<path d="M7.09 593.95 L7.09 543.98" class="st24"/>
		</g>
		<g id="shape81-207" transform="translate(270.156,-52.0236)">
			<title>Dynamic connector.81</title>
			<path d="M7.09 587.27 L7.09 586.91 L7.09 543.98" class="st34"/>
		</g>
		<g id="shape82-214" transform="translate(352.928,-526.827)">
			<title>Dynamic connector.82</title>
			<path d="M6.68 586.86 L7.04 586.86 L65.24 586.86" class="st35"/>
		</g>
		<g id="shape83-221" transform="translate(355.337,-533.913)">
			<title>Sheet.83</title>
			<desc>HCI RPMSG</desc>
			<rect x="0" y="572.691" width="42.5197" height="21.2598" class="st20"/>
			<text x="13.51" y="580.62" class="st30">HCI <tspan x="4.76" dy="1.2em" class="st7">RPMSG</tspan></text>		</g>
		<g id="shape84-225" transform="translate(149.55,-455.597)">
			<title>Sheet.84</title>
			<desc>Audio modules</desc>
			<rect x="0" y="572.691" width="71.5663" height="21.2598" class="st20"/>
			<text x="4" y="586.02" class="st30">Audio modules</text>		</g>
		<g id="shape86-228" transform="translate(137.145,-285.72)">
			<title>Dynamic connector.86</title>
			<path d="M1.77 587.03 L5.37 586.92" class="st24"/>
		</g>
		<g id="shape87-233" transform="translate(151.318,-275.961)">
			<title>Dynamic connector.87</title>
			<path d="M-1.77 586.86 L-5.37 586.86" class="st24"/>
		</g>
		<g id="group102-238" transform="translate(2.53133,-1)">
			<title>Sheet.102</title>
			<g id="shape24-239">
				<title>Nordic Blue.24</title>
				<path d="M0 593.95 L136.38 593.95 L136.38 214.43 L0 214.43 L0 593.95 Z" class="st16"/>
			</g>
			<g id="shape85-241" transform="translate(0,-362.569)">
				<title>Sheet.85</title>
				<desc>Peripheral modules</desc>
				<rect x="0" y="576.995" width="136.381" height="16.956" class="st20"/>
				<text x="4" y="588.17" class="st30">Peripheral modules</text>			</g>
		</g>
		<g id="shape103-244" transform="translate(2.88994,-403.52)">
			<title>Nordic Blue.103</title>
			<rect x="0" y="404.52" width="127.877" height="189.431" class="st36"/>
		</g>
		<g id="shape104-246" transform="translate(12.7002,-536.678)">
			<title>Nordic Lake.104</title>
			<rect x="0" y="583.89" width="16.0192" height="10.0608" class="st21"/>
		</g>
		<g id="shape105-248" transform="translate(29.8533,-587.717)">
			<title>Dynamic connector.105</title>
			<path d="M0 601.02 L-12.71 601.04" class="st24"/>
		</g>
		<g id="shape106-253" transform="translate(33.6886,-575.578)">
			<title>Sheet.106</title>
			<desc>Control data</desc>
			<rect x="0" y="583.89" width="71.5663" height="10.0608" class="st20"/>
			<text x="4" y="591.62" class="st2">Control data</text>		</g>
		<g id="shape107-256" transform="translate(29.8533,-575.528)">
			<title>Dynamic connector.107</title>
			<path d="M0 601.02 L-12.71 601.04" class="st31"/>
		</g>
		<g id="shape108-261" transform="translate(33.6886,-563.389)">
			<title>Sheet.108</title>
			<desc>Compressed audio</desc>
			<rect x="0" y="583.89" width="97.0781" height="10.0608" class="st20"/>
			<text x="4" y="591.62" class="st2">Compressed audio</text>		</g>
		<g id="shape109-264" transform="translate(29.8533,-563.339)">
			<title>Dynamic connector.109</title>
			<path d="M0 601.02 L-12.71 601.04" class="st29"/>
		</g>
		<g id="shape110-269" transform="translate(33.6886,-551.2)">
			<title>Sheet.110</title>
			<desc>Uncompressed audio</desc>
			<rect x="0" y="583.89" width="97.0781" height="10.0608" class="st20"/>
			<text x="4" y="591.62" class="st2">Uncompressed audio</text>		</g>
		<g id="shape111-272" transform="translate(12.7002,-513.287)">
			<title>Nordic Lake.111</title>
			<rect x="0" y="583.89" width="16.0192" height="10.0608" class="st15"/>
		</g>
		<g id="shape112-274" transform="translate(33.4717,-531.357)">
			<title>Sheet.112</title>
			<desc>Block working on compressed audio</desc>
			<rect x="0" y="583.89" width="97.0781" height="10.0608" class="st20"/>
			<text x="4" y="586.22" class="st2">Block working on <tspan x="4" dy="1.2em" class="st7">compressed audio</tspan></text>		</g>
		<g id="shape113-278" transform="translate(33.6886,-508.113)">
			<title>Sheet.113</title>
			<desc>Block working on uncompressed audio</desc>
			<rect x="0" y="583.89" width="97.0781" height="10.0608" class="st20"/>
			<text x="4" y="586.22" class="st2">Block working on <tspan x="4" dy="1.2em" class="st7">uncompressed audio</tspan></text>		</g>
		<g id="shape114-282" transform="translate(12.7002,-409.189)">
			<title>Nordic Lake.114</title>
			<path d="M0 593.95 L16.02 593.95 L16.02 583.89 L0 583.89 L0 593.95 Z" class="st37"/>
		</g>
		<g id="shape115-284" transform="translate(33.6886,-409.189)">
			<title>Sheet.115</title>
			<desc>HW layer element</desc>
			<rect x="0" y="583.89" width="97.0781" height="10.0608" class="st20"/>
			<text x="4" y="591.62" class="st2">HW layer element</text>		</g>
		<g id="shape116-287" transform="translate(12.7002,-490.466)">
			<title>Nordic Lake.115</title>
			<rect x="0" y="583.89" width="16.0192" height="10.0608" class="st10"/>
		</g>
		<g id="shape117-289" transform="translate(33.6886,-490.466)">
			<title>Sheet.117</title>
			<desc>Peripheral module</desc>
			<rect x="0" y="583.89" width="97.0781" height="10.0608" class="st20"/>
			<text x="4" y="591.62" class="st2">Peripheral module</text>		</g>
		<g id="shape118-292" transform="translate(12.7002,-473.459)">
			<title>Nordic Lake.117</title>
			<rect x="0" y="583.89" width="16.0192" height="10.0608" class="st5"/>
		</g>
		<g id="shape119-294" transform="translate(34.0387,-473.459)">
			<title>Sheet.119</title>
			<desc>Large main module</desc>
			<rect x="0" y="583.89" width="97.0781" height="10.0608" class="st20"/>
			<text x="4" y="591.62" class="st2">Large main module</text>		</g>
		<g id="shape120-297" transform="translate(33.6886,-452.059)">
			<title>Sheet.120</title>
			<desc>Application source files</desc>
			<rect x="0" y="583.89" width="97.0781" height="10.0608" class="st20"/>
			<text x="4" y="586.22" class="st2">Application <tspan x="4" dy="1.2em" class="st7">source files</tspan></text>		</g>
		<g id="shape121-301" transform="translate(12.7002,-456.451)">
			<title>Nordic Lake.120</title>
			<rect x="0" y="583.89" width="16.0192" height="10.0608" class="st3"/>
		</g>
		<g id="shape122-303" transform="translate(12.7002,-446.39)">
			<title>Nordic Lake.121</title>
			<rect x="0" y="583.89" width="16.0192" height="10.0608" class="st1"/>
		</g>
		<g id="shape123-305" transform="translate(12.7002,-431.727)">
			<title>Nordic Lake.123</title>
			<rect x="0" y="583.89" width="16.0192" height="10.0608" class="st13"/>
		</g>
		<g id="shape124-307" transform="translate(33.33,-421.236)">
			<title>Sheet.124</title>
			<desc>Synchronization module</desc>
			<rect x="0" y="572.691" width="97.0781" height="21.2598" class="st20"/>
			<text x="4" y="580.62" class="st2">Synchronization <tspan x="4" dy="1.2em" class="st7">module</tspan></text>		</g>
		<g id="shape126-311" transform="translate(444.522,-512.654)">
			<title>Dynamic connector.126</title>
			<path d="M6.91 600.63 L6.91 600.99 L7.26 1047.54" class="st38"/>
		</g>
	</g>
</svg>
