<?xml version="1.0" encoding="UTF-8" standalone="no"?>
<!DOCTYPE svg PUBLIC "-//W3C//DTD SVG 1.1//EN" "http://www.w3.org/Graphics/SVG/1.1/DTD/svg11.dtd">
<!-- Generated by Microsoft Visio, SVG Export octave_application_structure_gateway.svg Page-1 -->
<svg xmlns="http://www.w3.org/2000/svg" xmlns:xlink="http://www.w3.org/1999/xlink" xmlns:ev="http://www.w3.org/2001/xml-events"
		width="7.72576in" height="8.2622in" viewBox="0 0 556.255 594.878" xml:space="preserve" color-interpolation-filters="sRGB"
		class="st34">
	<style type="text/css">
	<![CDATA[
		.st1 {fill:#333f48;stroke:none;stroke-width:1}
		.st2 {fill:#ffffff;font-family:Arial;font-size:0.916672em}
		.st3 {font-size:1em}
		.st4 {fill:#6ad1e3;stroke:#333f48;stroke-dasharray:7,5;stroke-width:1}
		.st5 {fill:#333f48;font-family:Arial;font-size:0.916672em}
		.st6 {fill:#6ad1e3;stroke:none;stroke-width:1}
		.st7 {marker-end:url(#mrkr4-55);marker-start:url(#mrkr4-53);stroke:#6ad1e3;stroke-linecap:butt;stroke-width:1}
		.st8 {fill:#6ad1e3;fill-opacity:1;stroke:#6ad1e3;stroke-opacity:1;stroke-width:0.28409090909091}
		.st9 {fill:#d9e1e2;stroke:none;stroke-width:1}
		.st10 {fill:#333f48;font-family:Arial;font-size:0.75em}
		.st11 {fill:#00a9ce;stroke:none;stroke-width:1}
		.st12 {fill:none;stroke:#768692;stroke-dasharray:3,3;stroke-width:1}
		.st13 {fill:#00a9ce;stroke:#333f48;stroke-dasharray:7,5;stroke-width:1}
		.st14 {fill:none;stroke:#333f48;stroke-dasharray:0.01,5;stroke-width:1}
		.st15 {fill:none;stroke:none;stroke-width:1}
		.st16 {fill:#d0df00;stroke:none;stroke-width:1}
		.st17 {fill:#333f48;font-family:Arial;font-size:0.666664em}
		.st18 {marker-end:url(#mrkr4-102);stroke:#768692;stroke-linecap:butt;stroke-width:1}
		.st19 {fill:#768692;fill-opacity:1;stroke:#768692;stroke-opacity:1;stroke-width:0.28409090909091}
		.st20 {fill:#768692;font-family:Arial;font-size:0.75em}
		.st21 {marker-end:url(#mrkr4-119);stroke:#d0df00;stroke-linecap:butt;stroke-width:1}
		.st22 {fill:#d0df00;fill-opacity:1;stroke:#d0df00;stroke-opacity:1;stroke-width:0.28409090909091}
		.st23 {marker-end:url(#mrkr4-125);stroke:#00a9ce;stroke-linecap:butt;stroke-width:1}
		.st24 {fill:#00a9ce;fill-opacity:1;stroke:#00a9ce;stroke-opacity:1;stroke-width:0.28409090909091}
		.st25 {marker-start:url(#mrkr4-131);stroke:#00a9ce;stroke-linecap:butt;stroke-width:1}
		.st26 {marker-end:url(#mrkr4-102);marker-start:url(#mrkr4-138);stroke:#768692;stroke-linecap:butt;stroke-width:1}
		.st27 {marker-end:url(#mrkr4-125);marker-start:url(#mrkr4-131);stroke:#00a9ce;stroke-linecap:butt;stroke-width:1}
		.st28 {fill:none;stroke:#333f48;stroke-width:1}
		.st29 {fill:#ffffff;stroke:#333f48;stroke-dasharray:3,3;stroke-width:1}
		.st30 {fill:#ffffff;font-family:Arial;font-size:0.666664em}
		.st31 {fill:#768692;stroke:none;stroke-width:1}
		.st32 {fill:#333f48;font-family:Arial;font-size:0.833336em}
		.st33 {marker-end:url(#mrkr4-119);marker-start:url(#mrkr4-289);stroke:#d0df00;stroke-linecap:butt;stroke-width:1}
		.st34 {fill:none;fill-rule:evenodd;font-size:12px;overflow:visible;stroke-linecap:square;stroke-miterlimit:3}
	]]>
	</style>

	<defs id="Markers">
		<g id="lend4">
			<path d="M 2 1 L 0 0 L 2 -1 L 2 1 " style="stroke:none"/>
		</g>
		<marker id="mrkr4-53" class="st8" refX="6.68" orient="auto" markerUnits="strokeWidth" overflow="visible">
			<use xlink:href="#lend4" transform="scale(3.52) "/>
		</marker>
		<marker id="mrkr4-55" class="st8" refX="-7.04" orient="auto" markerUnits="strokeWidth" overflow="visible">
			<use xlink:href="#lend4" transform="scale(-3.52,-3.52) "/>
		</marker>
		<marker id="mrkr4-102" class="st19" refX="-7.04" orient="auto" markerUnits="strokeWidth" overflow="visible">
			<use xlink:href="#lend4" transform="scale(-3.52,-3.52) "/>
		</marker>
		<marker id="mrkr4-119" class="st22" refX="-7.04" orient="auto" markerUnits="strokeWidth" overflow="visible">
			<use xlink:href="#lend4" transform="scale(-3.52,-3.52) "/>
		</marker>
		<marker id="mrkr4-125" class="st24" refX="-7.04" orient="auto" markerUnits="strokeWidth" overflow="visible">
			<use xlink:href="#lend4" transform="scale(-3.52,-3.52) "/>
		</marker>
		<marker id="mrkr4-131" class="st24" refX="6.68" orient="auto" markerUnits="strokeWidth" overflow="visible">
			<use xlink:href="#lend4" transform="scale(3.52) "/>
		</marker>
		<marker id="mrkr4-138" class="st19" refX="6.68" orient="auto" markerUnits="strokeWidth" overflow="visible">
			<use xlink:href="#lend4" transform="scale(3.52) "/>
		</marker>
		<marker id="mrkr4-289" class="st22" refX="6.68" orient="auto" markerUnits="strokeWidth" overflow="visible">
			<use xlink:href="#lend4" transform="scale(3.52) "/>
		</marker>
	</defs>
	<g>
		<title>Page-1</title>
		<g id="shape5-1" transform="translate(150.609,-512.654)">
			<title>Nordic Blue</title>
			<desc>Bluetooth LE Host</desc>
			<rect x="0" y="552.359" width="202.677" height="42.5197" class="st1"/>
			<text x="57.01" y="576.92" class="st2">Bluetooth LE Host</text>		</g>
		<g id="shape6-4" transform="translate(425.57,-512.654)">
			<title>Nordic Blue.6</title>
			<desc>LE Audio Controller Subsystem for nRF53</desc>
			<rect x="0" y="552.359" width="129.685" height="42.5197" class="st1"/>
			<text x="17.15" y="570.32" class="st2">LE Audio Controller <tspan x="11.66" dy="1.2em" class="st3">S</tspan>ubsystem for nRF53</text>		</g>
		<g id="shape7-8" transform="translate(425.57,-9.50394)">
			<title>Nordic Blue.7</title>
			<desc>Radio</desc>
			<path d="M0 594.88 L53.15 594.88 L53.15 552.36 L0 552.36 L0 594.88 Z" class="st4"/>
			<text x="12.2" y="576.92" class="st5">Radio</text>		</g>
		<g id="shape8-11" transform="translate(502.105,-9.50394)">
			<title>Nordic Blue.8</title>
			<desc>UART (debug)</desc>
			<path d="M0 594.88 L53.15 594.88 L53.15 552.36 L0 552.36 L0 594.88 Z" class="st4"/>
			<text x="11.6" y="570.32" class="st5">UART <tspan x="7.62" dy="1.2em" class="st3">(debug)</tspan></text>		</g>
		<g id="shape9-15" transform="translate(44.5055,-9.50394)">
			<title>Nordic Blue.9</title>
			<desc>UART (debug)</desc>
			<path d="M0 594.88 L53.15 594.88 L53.15 552.36 L0 552.36 L0 594.88 Z" class="st4"/>
			<text x="11.6" y="570.32" class="st5">UART <tspan x="7.62" dy="1.2em" class="st3">(debug)</tspan></text>		</g>
		<g id="shape10-19" transform="translate(14.5462,-66.1969)">
			<title>Nordic Blue.10</title>
			<desc>TWI/I2C</desc>
			<path d="M0 594.88 L53.15 594.88 L53.15 552.36 L0 552.36 L0 594.88 Z" class="st4"/>
			<text x="6.41" y="576.92" class="st5">TWI/I2C</text>		</g>
		<g id="shape11-22" transform="translate(78.3257,-66.1969)">
			<title>Nordic Blue.11</title>
			<desc>SPI4</desc>
			<path d="M0 594.88 L53.15 594.88 L53.15 552.36 L0 552.36 L0 594.88 Z" class="st4"/>
			<text x="14.65" y="576.92" class="st5">SPI4</text>		</g>
		<g id="shape12-25" transform="translate(78.3257,-151.236)">
			<title>Nordic Blue.12</title>
			<desc>SD card</desc>
			<rect x="0" y="552.359" width="53.1496" height="42.5197" class="st6"/>
			<text x="6.71" y="576.92" class="st5">SD card</text>		</g>
		<g id="shape13-28" transform="translate(41.0501,-196.926)">
			<title>Nordic Blue.13</title>
			<desc>HW codec (CS47L63)</desc>
			<rect x="0" y="552.359" width="63.7795" height="42.5197" class="st6"/>
			<text x="6.52" y="570.32" class="st5">HW codec <tspan x="5.29" dy="1.2em" class="st3">(CS47L63)</tspan></text>		</g>
		<g id="shape14-32" transform="translate(14.5462,-151.236)">
			<title>Nordic Blue.14</title>
			<desc>Power module (INA231)</desc>
			<rect x="0" y="552.359" width="53.1496" height="42.5197" class="st6"/>
			<text x="10.99" y="563.72" class="st5">Power <tspan x="8.54" dy="1.2em" class="st3">module </tspan><tspan x="4.57"
						dy="1.2em" class="st3">(INA231)</tspan></text>		</g>
		<g id="shape15-37" transform="translate(44.5055,-300.055)">
			<title>Nordic Blue.15</title>
			<desc>Error handler</desc>
			<rect x="0" y="552.359" width="53.1496" height="42.5197" class="st6"/>
			<text x="14.35" y="570.32" class="st5">Error <tspan x="8.23" dy="1.2em" class="st3">handler</tspan></text>		</g>
		<g id="shape16-41" transform="translate(74.7824,-250.449)">
			<title>Nordic Blue.16</title>
			<desc>Buttons</desc>
			<rect x="0" y="552.359" width="53.1496" height="42.5197" class="st6"/>
			<text x="7.92" y="576.92" class="st5">Buttons</text>		</g>
		<g id="shape17-44" transform="translate(11.0029,-250.449)">
			<title>Nordic Blue.17</title>
			<desc>LEDs</desc>
			<rect x="0" y="552.359" width="53.1496" height="42.5197" class="st6"/>
			<text x="13.13" y="576.92" class="st5">LEDs</text>		</g>
		<g id="shape18-47" transform="translate(34.0344,-108.717)">
			<title>Dynamic connector</title>
			<path d="M7.09 588.2 L7.09 587.84 L7.09 559.4" class="st7"/>
		</g>
		<g id="shape22-56" transform="translate(155.729,-184.806)">
			<title>Nordic Blueslate</title>
			<desc>audio_codec.c</desc>
			<rect x="0" y="465.12" width="220.802" height="129.758" class="st9"/>
			<text x="158.76" y="588.18" class="st10">audio_codec.c</text>		</g>
		<g id="shape23-59" transform="translate(155.729,-109.034)">
			<title>Nordic Lake</title>
			<desc>audio_usb.c</desc>
			<rect x="0" y="561.498" width="220.802" height="33.3804" class="st11"/>
			<text x="80.74" y="581.49" class="st2">audio_usb.c</text>		</g>
		<g id="shape25-62" transform="translate(149.909,-2.03534)">
			<title>Nordic Blue.25</title>
			<path d="M0 594.88 L232.44 594.88 L232.44 120.06 L0 120.06 L0 594.88 Z" class="st12"/>
		</g>
		<g id="shape26-64" transform="translate(97.8139,-108.717)">
			<title>Dynamic connector.26</title>
			<path d="M7.09 588.2 L7.09 587.84 L7.09 559.4" class="st7"/>
		</g>
		<g id="shape29-71" transform="translate(72.9399,-196.926)">
			<title>Dynamic connector.29</title>
			<path d="M0 601.56 L0 601.92 L0 660.41 L20.41 660.41 L20.41 676.05" class="st7"/>
		</g>
		<g id="shape30-78" transform="translate(239.555,-9.50394)">
			<title>Nordic Lake.30</title>
			<desc>USB (audio)</desc>
			<path d="M0 594.88 L53.15 594.88 L53.15 552.36 L0 552.36 L0 594.88 Z" class="st13"/>
			<text x="15.27" y="570.32" class="st2">USB <tspan x="9.45" dy="1.2em" class="st3">(audio)</tspan></text>		</g>
		<g id="shape33-82" transform="translate(397.223,-1)">
			<title>Nordic Blue.33</title>
			<path d="M0 594.88 L0.28 594.88 L0.28 5.27 L0 5.27 L0 594.88 Z" class="st14"/>
		</g>
		<g id="shape34-84" transform="translate(397.223,-570.055)">
			<title>Sheet.34</title>
			<desc>Network core</desc>
			<rect x="0" y="576.453" width="85.0394" height="18.4252" class="st15"/>
			<text x="10.12" y="588.97" class="st5">Network core</text>		</g>
		<g id="shape36-87" transform="translate(305.097,-570.055)">
			<title>Sheet.36</title>
			<desc>Application core</desc>
			<rect x="0" y="576.453" width="92.4095" height="18.4252" class="st15"/>
			<text x="7.07" y="588.97" class="st5">Application core</text>		</g>
		<g id="shape42-90" transform="translate(155.729,-331.758)">
			<title>Nordic Middle Grey.42</title>
			<desc>streamctrl.c</desc>
			<rect x="0" y="483.89" width="220.802" height="110.988" class="st9"/>
			<text x="170.3" y="588.18" class="st10">streamctrl.c</text>		</g>
		<g id="shape43-93" transform="translate(175.775,-375.173)">
			<title>Nordic Lake.43</title>
			<desc>Bluetooth LE RX FIFO</desc>
			<rect x="0" y="561.498" width="63.7795" height="33.3804" class="st16"/>
			<text x="8.98" y="575.79" class="st17">Bluetooth LE <tspan x="16.11" dy="1.2em" class="st3">RX FIFO</tspan></text>		</g>
		<g id="shape45-97" transform="translate(212.155,-512.654)">
			<title>Dynamic connector.45</title>
			<path d="M7.09 594.88 L7.09 691.94" class="st18"/>
		</g>
		<g id="shape46-103" transform="translate(202.699,-512.654)">
			<title>Dynamic connector.46</title>
			<path d="M-6.98 594.88 L-7.17 691.94" class="st18"/>
		</g>
		<g id="shape66-108" transform="translate(219.596,-484.125)">
			<title>Sheet.66</title>
			<desc>bad_frame</desc>
			<rect x="0" y="573.618" width="53.1496" height="21.2598" class="st15"/>
			<text x="4" y="586.95" class="st20">bad_frame</text>		</g>
		<g id="shape71-111" transform="translate(156.278,-484.125)">
			<title>Sheet.71</title>
			<desc>sdu_ref</desc>
			<rect x="0" y="573.618" width="39.2315" height="21.2598" class="st15"/>
			<text x="5.21" y="586.95" class="st20">sdu_ref</text>		</g>
		<g id="shape72-114" transform="translate(199.966,-512.654)">
			<title>Dynamic connector.72</title>
			<path d="M7.09 594.88 L7.09 691.94" class="st21"/>
		</g>
		<g id="shape74-120" transform="translate(200.215,-205.094)">
			<title>Dynamic connector.74</title>
			<path d="M7.09 594.88 L7.09 650.52" class="st23"/>
		</g>
		<g id="shape75-126" transform="translate(307.932,-205.094)">
			<title>Dynamic connector.75</title>
			<path d="M-7.09 601.56 L-7.09 601.92 L-7.09 657.56" class="st25"/>
		</g>
		<g id="shape80-132" transform="translate(244.152,-52.0236)">
			<title>Dynamic connector.80</title>
			<path d="M7.09 588.2 L7.09 587.84 L7.09 544.91" class="st26"/>
		</g>
		<g id="shape81-140" transform="translate(270.515,-52.0236)">
			<title>Dynamic connector.81</title>
			<path d="M7.09 588.2 L7.09 587.84 L7.09 544.91" class="st27"/>
		</g>
		<g id="shape82-147" transform="translate(353.286,-526.827)">
			<title>Dynamic connector.82</title>
			<path d="M6.68 587.79 L7.04 587.79 L65.24 587.79" class="st26"/>
		</g>
		<g id="shape83-154" transform="translate(355.696,-533.913)">
			<title>Sheet.83</title>
			<desc>HCI RPMSG</desc>
			<rect x="0" y="573.618" width="42.5197" height="21.2598" class="st15"/>
			<text x="13.51" y="581.55" class="st20">HCI <tspan x="4.76" dy="1.2em" class="st3">RPMSG</tspan></text>		</g>
		<g id="shape84-158" transform="translate(310.784,-455.597)">
			<title>Sheet.84</title>
			<desc>Audio modules</desc>
			<rect x="0" y="573.618" width="71.5663" height="21.2598" class="st15"/>
			<text x="4" y="586.95" class="st20">Audio modules</text>		</g>
		<g id="shape86-161" transform="translate(137.503,-285.72)">
			<title>Dynamic connector.86</title>
			<path d="M1.77 587.95 L5.37 587.84" class="st18"/>
		</g>
		<g id="shape87-166" transform="translate(151.676,-275.961)">
			<title>Dynamic connector.87</title>
			<path d="M-1.77 587.79 L-5.37 587.79" class="st18"/>
		</g>
		<g id="shape88-171" transform="translate(2.88994,-423.362)">
			<title>Nordic Blue.88</title>
			<rect x="0" y="424.362" width="127.877" height="170.516" class="st28"/>
		</g>
		<g id="shape89-173" transform="translate(12.7002,-537.606)">
			<title>Nordic Lake.89</title>
			<rect x="0" y="584.817" width="16.0192" height="10.0608" class="st16"/>
		</g>
		<g id="shape90-175" transform="translate(29.8533,-588.644)">
			<title>Dynamic connector.90</title>
			<path d="M0 601.94 L-12.71 601.97" class="st18"/>
		</g>
		<g id="shape91-180" transform="translate(33.6886,-576.505)">
			<title>Sheet.91</title>
			<desc>Control data</desc>
			<rect x="0" y="584.817" width="71.5663" height="10.0608" class="st15"/>
			<text x="4" y="592.55" class="st10">Control data</text>		</g>
		<g id="shape93-183" transform="translate(29.8533,-576.455)">
			<title>Dynamic connector.93</title>
			<path d="M0 601.94 L-12.71 601.97" class="st21"/>
		</g>
		<g id="shape94-188" transform="translate(33.6886,-564.316)">
			<title>Sheet.94</title>
			<desc>Compressed audio</desc>
			<rect x="0" y="584.817" width="97.0781" height="10.0608" class="st15"/>
			<text x="4" y="592.55" class="st10">Compressed audio</text>		</g>
		<g id="shape95-191" transform="translate(29.8533,-564.266)">
			<title>Dynamic connector.95</title>
			<path d="M0 601.94 L-12.71 601.97" class="st23"/>
		</g>
		<g id="shape96-196" transform="translate(33.6886,-552.127)">
			<title>Sheet.96</title>
			<desc>Uncompressed audio</desc>
			<rect x="0" y="584.817" width="97.0781" height="10.0608" class="st15"/>
			<text x="4" y="592.55" class="st10">Uncompressed audio</text>		</g>
		<g id="shape97-199" transform="translate(12.7002,-514.215)">
			<title>Nordic Lake.97</title>
			<rect x="0" y="584.817" width="16.0192" height="10.0608" class="st11"/>
		</g>
		<g id="shape98-201" transform="translate(33.4717,-532.285)">
			<title>Sheet.98</title>
			<desc>Block working on compressed audio</desc>
			<rect x="0" y="584.817" width="97.0781" height="10.0608" class="st15"/>
			<text x="4" y="587.15" class="st10">Block working on <tspan x="4" dy="1.2em" class="st3">compressed audio</tspan></text>		</g>
		<g id="shape99-205" transform="translate(33.6886,-509.04)">
			<title>Sheet.99</title>
			<desc>Block working on uncompressed audio</desc>
			<rect x="0" y="584.817" width="97.0781" height="10.0608" class="st15"/>
			<text x="4" y="587.15" class="st10">Block working on <tspan x="4" dy="1.2em" class="st3">uncompressed audio</tspan></text>		</g>
		<g id="shape100-209" transform="translate(12.7002,-431.866)">
			<title>Nordic Lake.100</title>
			<path d="M0 594.88 L16.02 594.88 L16.02 584.82 L0 584.82 L0 594.88 Z" class="st29"/>
		</g>
		<g id="shape101-211" transform="translate(33.6886,-431.866)">
			<title>Sheet.101</title>
			<desc>HW layer element</desc>
			<rect x="0" y="584.817" width="97.0781" height="10.0608" class="st15"/>
			<text x="4" y="592.55" class="st10">HW layer element</text>		</g>
		<g id="group102-214" transform="translate(2.88994,-1)">
			<title>Sheet.102</title>
			<g id="shape24-215">
				<title>Nordic Blue.24</title>
				<path d="M0 594.88 L136.38 594.88 L136.38 215.35 L0 215.35 L0 594.88 Z" class="st12"/>
			</g>
			<g id="shape85-217" transform="translate(0,-362.569)">
				<title>Sheet.85</title>
				<desc>Peripheral modules</desc>
				<rect x="0" y="577.922" width="136.381" height="16.956" class="st15"/>
				<text x="4" y="589.1" class="st20">Peripheral modules</text>			</g>
		</g>
		<g id="shape103-220" transform="translate(179.664,-205.094)">
			<title>Nordic Lake.103</title>
			<desc>USB TX FIFO</desc>
			<rect x="0" y="561.498" width="53.1496" height="33.3804" class="st11"/>
			<text x="18.35" y="575.79" class="st30">USB <tspan x="11.24" dy="1.2em" class="st3">TX FIFO</tspan></text>		</g>
		<g id="shape104-224" transform="translate(274.271,-205.094)">
			<title>Nordic Lake.104</title>
			<desc>USB RX FIFO</desc>
			<rect x="0" y="561.498" width="53.1496" height="33.3804" class="st11"/>
			<text x="18.35" y="575.79" class="st30">USB  <tspan x="10.8" dy="1.2em" class="st3">RX FIFO</tspan></text>		</g>
		<g id="shape40-228" transform="translate(167.901,-249.685)">
			<title>Nordic Light Grey</title>
			<desc>sw_codec_select.c</desc>
			<rect x="0" y="537.421" width="202.677" height="57.4569" class="st31"/>
			<text x="131.53" y="588.48" class="st30">sw_codec_select.c</text>		</g>
		<g id="shape105-231" transform="translate(272.499,-271.992)">
			<title>Nordic Lake.105</title>
			<desc>Encoder</desc>
			<rect x="0" y="561.498" width="53.1496" height="33.3804" class="st16"/>
			<text x="7.95" y="581.19" class="st32">Encoder</text>		</g>
		<g id="shape106-234" transform="translate(180.727,-271.989)">
			<title>Nordic Lake.106</title>
			<desc>Decoder</desc>
			<rect x="0" y="561.498" width="53.1496" height="33.3804" class="st16"/>
			<text x="7.68" y="581.19" class="st32">Decoder</text>		</g>
		<g id="shape107-237" transform="translate(200.215,-375.173)">
			<title>Dynamic connector.107</title>
			<path d="M7.09 594.88 L7.09 657.64" class="st21"/>
		</g>
		<g id="shape109-242" transform="translate(305.629,-305.373)">
			<title>Dynamic connector.109</title>
			<path d="M-6.56 594.88 L-7.58 394.64" class="st21"/>
		</g>
		<g id="shape111-247" transform="translate(211.301,-375.173)">
			<title>Dynamic connector.111</title>
			<path d="M7.09 594.88 L7.09 657.64" class="st18"/>
		</g>
		<g id="shape112-252" transform="translate(218.388,-314.564)">
			<title>Sheet.112</title>
			<desc>bad_frame</desc>
			<rect x="0" y="573.618" width="53.1496" height="21.2598" class="st15"/>
			<text x="4" y="586.95" class="st20">bad_frame</text>		</g>
		<g id="shape113-255" transform="translate(213.857,-271.989)">
			<title>Dynamic connector.113</title>
			<path d="M-6.82 594.88 L-7.24 621.35" class="st23"/>
		</g>
		<g id="shape114-260" transform="translate(290.037,-238.475)">
			<title>Dynamic connector.114</title>
			<path d="M7.09 594.88 L7.09 568.4" class="st23"/>
		</g>
		<g id="shape115-265" transform="translate(12.7002,-491.394)">
			<title>Nordic Lake.115</title>
			<rect x="0" y="584.817" width="16.0192" height="10.0608" class="st6"/>
		</g>
		<g id="shape116-267" transform="translate(33.6886,-491.394)">
			<title>Sheet.116</title>
			<desc>Peripheral module</desc>
			<rect x="0" y="584.817" width="97.0781" height="10.0608" class="st15"/>
			<text x="4" y="592.55" class="st10">Peripheral module</text>		</g>
		<g id="shape117-270" transform="translate(12.7002,-474.386)">
			<title>Nordic Lake.117</title>
			<rect x="0" y="584.817" width="16.0192" height="10.0608" class="st1"/>
		</g>
		<g id="shape118-272" transform="translate(34.0387,-474.386)">
			<title>Sheet.118</title>
			<desc>Large main module</desc>
			<rect x="0" y="584.817" width="97.0781" height="10.0608" class="st15"/>
			<text x="4" y="592.55" class="st10">Large main module</text>		</g>
		<g id="shape119-275" transform="translate(33.6886,-452.986)">
			<title>Sheet.119</title>
			<desc>Application source files</desc>
			<rect x="0" y="584.817" width="97.0781" height="10.0608" class="st15"/>
			<text x="4" y="587.15" class="st10">Application <tspan x="4" dy="1.2em" class="st3">source files</tspan></text>		</g>
		<g id="shape120-279" transform="translate(12.7002,-457.378)">
			<title>Nordic Lake.120</title>
			<rect x="0" y="584.817" width="16.0192" height="10.0608" class="st31"/>
		</g>
		<g id="shape121-281" transform="translate(12.7002,-447.317)">
			<title>Nordic Lake.121</title>
			<rect x="0" y="584.817" width="16.0192" height="10.0608" class="st9"/>
		</g>
		<g id="shape122-283" transform="translate(445.049,-512.654)">
			<title>Dynamic connector.122</title>
			<path d="M7.08 601.56 L7.08 601.92 L7.1 1048.47" class="st33"/>
		</g>
	</g>
</svg>
