<?xml version="1.0" encoding="UTF-8" standalone="no"?>
<!DOCTYPE svg PUBLIC "-//W3C//DTD SVG 1.1//EN" "http://www.w3.org/Graphics/SVG/1.1/DTD/svg11.dtd">
<!-- Generated by Microsoft Visio, SVG Export octave_application_structure_gateway.svg Page-1 -->
<svg xmlns="http://www.w3.org/2000/svg" xmlns:xlink="http://www.w3.org/1999/xlink" xmlns:ev="http://www.w3.org/2001/xml-events"
		width="7.72576in" height="8.2622in" viewBox="0 0 556.255 594.878" xml:space="preserve" color-interpolation-filters="sRGB"
		class="st35">
	<style type="text/css">
	<![CDATA[
		.st1 {fill:#333f48;stroke:none;stroke-width:1}
		.st2 {fill:#ffffff;font-family:Arial;font-size:0.916672em}
		.st3 {font-size:1em}
		.st4 {fill:#6ad1e3;stroke:#333f48;stroke-dasharray:7,5;stroke-width:1}
		.st5 {fill:#333f48;font-family:Arial;font-size:0.916672em}
		.st6 {fill:#6ad1e3;stroke:none;stroke-width:1}
		.st7 {marker-end:url(#mrkr4-55);marker-start:url(#mrkr4-53);stroke:#6ad1e3;stroke-linecap:butt;stroke-width:1}
		.st8 {fill:#6ad1e3;fill-opacity:1;stroke:#6ad1e3;stroke-opacity:1;stroke-width:0.28409090909091}
		.st9 {fill:#d9e1e2;stroke:none;stroke-width:1}
		.st10 {fill:#333f48;font-family:Arial;font-size:0.75em}
		.st11 {fill:#00a9ce;stroke:none;stroke-width:1}
		.st12 {fill:none;stroke:#768692;stroke-dasharray:3,3;stroke-width:1}
		.st13 {fill:#00a9ce;stroke:#333f48;stroke-dasharray:7,5;stroke-width:1}
		.st14 {fill:none;stroke:#333f48;stroke-dasharray:0.01,5;stroke-width:1}
		.st15 {fill:none;stroke:none;stroke-width:1}
		.st16 {fill:#d0df00;stroke:none;stroke-width:1}
		.st17 {fill:#333f48;font-family:Arial;font-size:0.666664em}
		.st18 {marker-end:url(#mrkr4-101);stroke:#768692;stroke-linecap:butt;stroke-width:1}
		.st19 {fill:#768692;fill-opacity:1;stroke:#768692;stroke-opacity:1;stroke-width:0.28409090909091}
		.st20 {fill:#768692;font-family:Arial;font-size:0.75em}
		.st21 {marker-end:url(#mrkr4-118);stroke:#d0df00;stroke-linecap:butt;stroke-width:1}
		.st22 {fill:#d0df00;fill-opacity:1;stroke:#d0df00;stroke-opacity:1;stroke-width:0.28409090909091}
		.st23 {marker-end:url(#mrkr4-124);stroke:#00a9ce;stroke-linecap:butt;stroke-width:1}
		.st24 {fill:#00a9ce;fill-opacity:1;stroke:#00a9ce;stroke-opacity:1;stroke-width:0.28409090909091}
		.st25 {marker-start:url(#mrkr4-130);stroke:#00a9ce;stroke-linecap:butt;stroke-width:1}
		.st26 {marker-end:url(#mrkr4-101);marker-start:url(#mrkr4-137);stroke:#768692;stroke-linecap:butt;stroke-width:1}
		.st27 {marker-end:url(#mrkr4-124);marker-start:url(#mrkr4-130);stroke:#00a9ce;stroke-linecap:butt;stroke-width:1}
		.st28 {fill:none;stroke:#333f48;stroke-width:1}
		.st29 {fill:#ffffff;stroke:#333f48;stroke-dasharray:3,3;stroke-width:1}
		.st30 {fill:#ffffff;font-family:Arial;font-size:0.666664em}
		.st31 {fill:#768692;stroke:none;stroke-width:1}
		.st32 {fill:#333f48;font-family:Arial;font-size:0.833336em}
		.st33 {marker-end:url(#mrkr4-118);marker-start:url(#mrkr4-288);stroke:#d0df00;stroke-linecap:butt;stroke-width:1}
		.st34 {fill:#d9e1e2;fill-opacity:0.58;stroke:none;stroke-width:1}
		.st35 {fill:none;fill-rule:evenodd;font-size:12px;overflow:visible;stroke-linecap:square;stroke-miterlimit:3}
	]]>
	</style>

	<defs id="Markers">
		<g id="lend4">
			<path d="M 2 1 L 0 0 L 2 -1 L 2 1 " style="stroke:none"/>
		</g>
		<marker id="mrkr4-53" class="st8" refX="6.68" orient="auto" markerUnits="strokeWidth" overflow="visible">
			<use xlink:href="#lend4" transform="scale(3.52) "/>
		</marker>
		<marker id="mrkr4-55" class="st8" refX="-7.04" orient="auto" markerUnits="strokeWidth" overflow="visible">
			<use xlink:href="#lend4" transform="scale(-3.52,-3.52) "/>
		</marker>
		<marker id="mrkr4-101" class="st19" refX="-7.04" orient="auto" markerUnits="strokeWidth" overflow="visible">
			<use xlink:href="#lend4" transform="scale(-3.52,-3.52) "/>
		</marker>
		<marker id="mrkr4-118" class="st22" refX="-7.04" orient="auto" markerUnits="strokeWidth" overflow="visible">
			<use xlink:href="#lend4" transform="scale(-3.52,-3.52) "/>
		</marker>
		<marker id="mrkr4-124" class="st24" refX="-7.04" orient="auto" markerUnits="strokeWidth" overflow="visible">
			<use xlink:href="#lend4" transform="scale(-3.52,-3.52) "/>
		</marker>
		<marker id="mrkr4-130" class="st24" refX="6.68" orient="auto" markerUnits="strokeWidth" overflow="visible">
			<use xlink:href="#lend4" transform="scale(3.52) "/>
		</marker>
		<marker id="mrkr4-137" class="st19" refX="6.68" orient="auto" markerUnits="strokeWidth" overflow="visible">
			<use xlink:href="#lend4" transform="scale(3.52) "/>
		</marker>
		<marker id="mrkr4-288" class="st22" refX="6.68" orient="auto" markerUnits="strokeWidth" overflow="visible">
			<use xlink:href="#lend4" transform="scale(3.52) "/>
		</marker>
	</defs>
	<g>
		<title>Page-1</title>
		<g id="shape5-1" transform="translate(162.467,-531.496)">
			<title>Nordic Blue</title>
			<desc>Bluetooth LE Host</desc>
			<rect x="0" y="552.359" width="191.864" height="42.5197" class="st1"/>
			<text x="51.6" y="576.92" class="st2">Bluetooth LE Host</text>		</g>
		<g id="shape6-4" transform="translate(425.57,-531.496)">
			<title>Nordic Blue.6</title>
			<desc>LE Audio Controller Subsystem for nRF53</desc>
			<rect x="0" y="552.359" width="129.685" height="42.5197" class="st1"/>
			<text x="17.15" y="570.32" class="st2">LE Audio Controller <tspan x="11.66" dy="1.2em" class="st3">S</tspan>ubsystem for nRF53</text>		</g>
		<g id="shape7-8" transform="translate(425.57,-9.50394)">
			<title>Nordic Blue.7</title>
			<desc>Radio</desc>
			<path d="M0 594.88 L53.15 594.88 L53.15 552.36 L0 552.36 L0 594.88 Z" class="st4"/>
			<text x="12.2" y="576.92" class="st5">Radio</text>		</g>
		<g id="shape8-11" transform="translate(502.105,-9.50394)">
			<title>Nordic Blue.8</title>
			<desc>UART (debug)</desc>
			<path d="M0 594.88 L53.15 594.88 L53.15 552.36 L0 552.36 L0 594.88 Z" class="st4"/>
			<text x="11.6" y="570.32" class="st5">UART <tspan x="7.62" dy="1.2em" class="st3">(debug)</tspan></text>		</g>
		<g id="shape9-15" transform="translate(44.5055,-9.50394)">
			<title>Nordic Blue.9</title>
			<desc>UART (debug)</desc>
			<path d="M0 594.88 L53.15 594.88 L53.15 552.36 L0 552.36 L0 594.88 Z" class="st4"/>
			<text x="11.6" y="570.32" class="st5">UART <tspan x="7.62" dy="1.2em" class="st3">(debug)</tspan></text>		</g>
		<g id="shape10-19" transform="translate(14.5462,-66.1969)">
			<title>Nordic Blue.10</title>
			<desc>TWI/I2C</desc>
			<path d="M0 594.88 L53.15 594.88 L53.15 552.36 L0 552.36 L0 594.88 Z" class="st4"/>
			<text x="6.41" y="576.92" class="st5">TWI/I2C</text>		</g>
		<g id="shape11-22" transform="translate(78.3257,-66.1969)">
			<title>Nordic Blue.11</title>
			<desc>SPI4</desc>
			<path d="M0 594.88 L53.15 594.88 L53.15 552.36 L0 552.36 L0 594.88 Z" class="st4"/>
			<text x="14.65" y="576.92" class="st5">SPI4</text>		</g>
		<g id="shape12-25" transform="translate(78.3257,-151.236)">
			<title>Nordic Blue.12</title>
			<desc>SD card</desc>
			<rect x="0" y="552.359" width="53.1496" height="42.5197" class="st6"/>
			<text x="6.71" y="576.92" class="st5">SD card</text>		</g>
		<g id="shape13-28" transform="translate(41.0501,-196.926)">
			<title>Nordic Blue.13</title>
			<desc>HW codec (CS47L63)</desc>
			<rect x="0" y="552.359" width="63.7795" height="42.5197" class="st6"/>
			<text x="6.52" y="570.32" class="st5">HW codec <tspan x="5.29" dy="1.2em" class="st3">(CS47L63)</tspan></text>		</g>
		<g id="shape14-32" transform="translate(14.5462,-151.236)">
			<title>Nordic Blue.14</title>
			<desc>Power module (INA231)</desc>
			<rect x="0" y="552.359" width="53.1496" height="42.5197" class="st6"/>
			<text x="10.99" y="563.72" class="st5">Power <tspan x="8.54" dy="1.2em" class="st3">module </tspan><tspan x="4.57"
						dy="1.2em" class="st3">(INA231)</tspan></text>		</g>
		<g id="shape15-37" transform="translate(44.5055,-300.055)">
			<title>Nordic Blue.15</title>
			<desc>Error handler</desc>
			<rect x="0" y="552.359" width="53.1496" height="42.5197" class="st6"/>
			<text x="14.35" y="570.32" class="st5">Error <tspan x="8.23" dy="1.2em" class="st3">handler</tspan></text>		</g>
		<g id="shape16-41" transform="translate(74.7824,-250.449)">
			<title>Nordic Blue.16</title>
			<desc>Buttons</desc>
			<rect x="0" y="552.359" width="53.1496" height="42.5197" class="st6"/>
			<text x="7.92" y="576.92" class="st5">Buttons</text>		</g>
		<g id="shape17-44" transform="translate(11.0029,-250.449)">
			<title>Nordic Blue.17</title>
			<desc>LEDs</desc>
			<rect x="0" y="552.359" width="53.1496" height="42.5197" class="st6"/>
			<text x="13.13" y="576.92" class="st5">LEDs</text>		</g>
		<g id="shape18-47" transform="translate(34.0344,-108.717)">
			<title>Dynamic connector</title>
			<path d="M7.09 588.2 L7.09 587.84 L7.09 559.4" class="st7"/>
		</g>
		<g id="shape22-56" transform="translate(155.729,-174.567)">
			<title>Nordic Blueslate</title>
			<desc>audio_system.c</desc>
			<rect x="0" y="465.12" width="220.802" height="129.758" class="st9"/>
			<text x="154.27" y="588.18" class="st10">audio_system.c</text>		</g>
		<g id="shape23-59" transform="translate(155.729,-94.1787)">
			<title>Nordic Lake</title>
			<desc>audio_usb.c</desc>
			<rect x="0" y="561.498" width="220.802" height="33.3804" class="st11"/>
			<text x="80.74" y="581.49" class="st2">audio_usb.c</text>		</g>
		<g id="shape25-62" transform="translate(149.909,-2.03534)">
			<title>Nordic Blue.25</title>
			<path d="M0 594.88 L235.6 594.88 L235.6 191.94 L0 191.94 L0 594.88 Z" class="st12"/>
		</g>
		<g id="shape26-64" transform="translate(97.8139,-108.717)">
			<title>Dynamic connector.26</title>
			<path d="M7.09 588.2 L7.09 587.84 L7.09 559.4" class="st7"/>
		</g>
		<g id="shape29-71" transform="translate(72.9399,-196.926)">
			<title>Dynamic connector.29</title>
			<path d="M0 601.56 L0 601.92 L0 660.41 L20.41 660.41 L20.41 676.05" class="st7"/>
		</g>
		<g id="shape30-78" transform="translate(239.555,-9.50394)">
			<title>Nordic Lake.30</title>
			<desc>USB (audio)</desc>
			<path d="M0 594.88 L53.15 594.88 L53.15 552.36 L0 552.36 L0 594.88 Z" class="st13"/>
			<text x="15.27" y="570.32" class="st2">USB <tspan x="9.45" dy="1.2em" class="st3">(audio)</tspan></text>		</g>
		<g id="shape33-82" transform="translate(397.223,-1)">
			<title>Nordic Blue.33</title>
			<path d="M0 594.88 L0.28 594.88 L0.28 5.27 L0 5.27 L0 594.88 Z" class="st14"/>
		</g>
		<g id="shape34-84" transform="translate(397.223,-575.453)">
			<title>Sheet.34</title>
			<desc>Network core</desc>
			<rect x="0" y="576.453" width="85.0394" height="18.4252" class="st15"/>
			<text x="10.12" y="588.97" class="st5">Network core</text>		</g>
		<g id="shape36-87" transform="translate(305.097,-574.724)">
			<title>Sheet.36</title>
			<desc>Application core</desc>
			<rect x="0" y="576.453" width="92.4095" height="18.4252" class="st15"/>
			<text x="7.07" y="588.97" class="st5">Application core</text>		</g>
		<g id="shape42-90" transform="translate(155.729,-320.397)">
			<title>Nordic Middle Grey.42</title>
			<rect x="0" y="537.421" width="220.802" height="57.4569" class="st9"/>
		</g>
		<g id="shape43-92" transform="translate(175.775,-327.483)">
			<title>Nordic Lake.43</title>
			<desc>Bluetooth LE RX FIFO</desc>
			<rect x="0" y="561.498" width="63.7795" height="33.3804" class="st16"/>
			<text x="8.98" y="575.79" class="st17">Bluetooth LE <tspan x="16.11" dy="1.2em" class="st3">RX FIFO</tspan></text>		</g>
		<g id="shape45-96" transform="translate(209.764,-441.927)">
			<title>Dynamic connector.45</title>
			<path d="M7.09 594.88 L7.09 668.9" class="st18"/>
		</g>
		<g id="shape46-102" transform="translate(187.087,-441.927)">
			<title>Dynamic connector.46</title>
			<path d="M7.09 594.88 L7.09 668.9" class="st18"/>
		</g>
		<g id="shape66-107" transform="translate(218.268,-514.488)">
			<title>Sheet.66</title>
			<desc>bad_frame</desc>
			<rect x="0" y="582.122" width="52.1575" height="12.7559" class="st15"/>
			<text x="4" y="591.2" class="st20">bad_frame</text>		</g>
		<g id="shape71-110" transform="translate(156.278,-510.236)">
			<title>Sheet.71</title>
			<desc>sdu_ref</desc>
			<rect x="0" y="573.618" width="39.2315" height="21.2598" class="st15"/>
			<text x="5.21" y="586.95" class="st20">sdu_ref</text>		</g>
		<g id="shape72-113" transform="translate(212.628,-441.927)">
			<title>Dynamic connector.72</title>
			<path d="M-7.06 594.88 L-7.11 668.9" class="st21"/>
		</g>
		<g id="shape74-119" transform="translate(200.215,-194.856)">
			<title>Dynamic connector.74</title>
			<path d="M7.09 594.88 L7.09 655.13" class="st23"/>
		</g>
		<g id="shape75-125" transform="translate(307.932,-194.856)">
			<title>Dynamic connector.75</title>
			<path d="M-7.09 601.56 L-7.09 601.92 L-7.09 662.17" class="st25"/>
		</g>
		<g id="shape80-131" transform="translate(244.152,-52.0236)">
			<title>Dynamic connector.80</title>
			<path d="M7.09 588.2 L7.09 587.84 L7.09 559.76" class="st26"/>
		</g>
		<g id="shape81-139" transform="translate(270.515,-52.0236)">
			<title>Dynamic connector.81</title>
			<path d="M7.09 588.2 L7.09 587.84 L7.09 559.76" class="st27"/>
		</g>
		<g id="shape82-146" transform="translate(354.331,-545.669)">
			<title>Dynamic connector.82</title>
			<path d="M6.68 587.79 L7.04 587.79 L64.2 587.79" class="st26"/>
		</g>
		<g id="shape83-153" transform="translate(357.165,-552.756)">
			<title>Sheet.83</title>
			<desc>HCI RPMSG</desc>
			<rect x="0" y="573.618" width="42.5197" height="21.2598" class="st15"/>
			<text x="13.51" y="581.55" class="st20">HCI <tspan x="4.76" dy="1.2em" class="st3">RPMSG</tspan></text>		</g>
		<g id="shape84-157" transform="translate(304.964,-383.712)">
			<title>Sheet.84</title>
			<desc>Audio modules</desc>
			<rect x="0" y="573.618" width="80.5476" height="21.2598" class="st15"/>
			<text x="17.01" y="586.95" class="st20">Audio modules</text>		</g>
		<g id="shape86-160" transform="translate(137.503,-303.569)">
			<title>Dynamic connector.86</title>
			<path d="M1.77 587.81 L5.37 587.8" class="st18"/>
		</g>
		<g id="shape87-165" transform="translate(151.676,-307.546)">
			<title>Dynamic connector.87</title>
			<path d="M-1.77 601.95 L-5.37 601.96" class="st18"/>
		</g>
		<g id="shape88-170" transform="translate(2.88994,-423.362)">
			<title>Nordic Blue.88</title>
			<rect x="0" y="424.362" width="127.877" height="170.516" class="st28"/>
		</g>
		<g id="shape89-172" transform="translate(12.7002,-537.606)">
			<title>Nordic Lake.89</title>
			<rect x="0" y="584.817" width="16.0192" height="10.0608" class="st16"/>
		</g>
		<g id="shape90-174" transform="translate(29.8533,-588.644)">
			<title>Dynamic connector.90</title>
			<path d="M0 601.94 L-12.71 601.97" class="st18"/>
		</g>
		<g id="shape91-179" transform="translate(33.6886,-576.505)">
			<title>Sheet.91</title>
			<desc>Control data</desc>
			<rect x="0" y="584.817" width="71.5663" height="10.0608" class="st15"/>
			<text x="4" y="592.55" class="st10">Control data</text>		</g>
		<g id="shape93-182" transform="translate(29.8533,-576.455)">
			<title>Dynamic connector.93</title>
			<path d="M0 601.94 L-12.71 601.97" class="st21"/>
		</g>
		<g id="shape94-187" transform="translate(33.6886,-564.316)">
			<title>Sheet.94</title>
			<desc>Compressed audio</desc>
			<rect x="0" y="584.817" width="97.0781" height="10.0608" class="st15"/>
			<text x="4" y="592.55" class="st10">Compressed audio</text>		</g>
		<g id="shape95-190" transform="translate(29.8533,-564.266)">
			<title>Dynamic connector.95</title>
			<path d="M0 601.94 L-12.71 601.97" class="st23"/>
		</g>
		<g id="shape96-195" transform="translate(33.6886,-552.127)">
			<title>Sheet.96</title>
			<desc>Uncompressed audio</desc>
			<rect x="0" y="584.817" width="97.0781" height="10.0608" class="st15"/>
			<text x="4" y="592.55" class="st10">Uncompressed audio</text>		</g>
		<g id="shape97-198" transform="translate(12.7002,-514.215)">
			<title>Nordic Lake.97</title>
			<rect x="0" y="584.817" width="16.0192" height="10.0608" class="st11"/>
		</g>
		<g id="shape98-200" transform="translate(33.4717,-532.285)">
			<title>Sheet.98</title>
			<desc>Block working on compressed audio</desc>
			<rect x="0" y="584.817" width="97.0781" height="10.0608" class="st15"/>
			<text x="4" y="587.15" class="st10">Block working on <tspan x="4" dy="1.2em" class="st3">compressed audio</tspan></text>		</g>
		<g id="shape99-204" transform="translate(33.6886,-509.04)">
			<title>Sheet.99</title>
			<desc>Block working on uncompressed audio</desc>
			<rect x="0" y="584.817" width="97.0781" height="10.0608" class="st15"/>
			<text x="4" y="587.15" class="st10">Block working on <tspan x="4" dy="1.2em" class="st3">uncompressed audio</tspan></text>		</g>
		<g id="shape100-208" transform="translate(12.7002,-431.866)">
			<title>Nordic Lake.100</title>
			<path d="M0 594.88 L16.02 594.88 L16.02 584.82 L0 584.82 L0 594.88 Z" class="st29"/>
		</g>
		<g id="shape101-210" transform="translate(33.6886,-431.866)">
			<title>Sheet.101</title>
			<desc>HW layer element</desc>
			<rect x="0" y="584.817" width="97.0781" height="10.0608" class="st15"/>
			<text x="4" y="592.55" class="st10">HW layer element</text>		</g>
		<g id="group102-213" transform="translate(2.88994,-1)">
			<title>Sheet.102</title>
			<g id="shape24-214">
				<title>Nordic Blue.24</title>
				<path d="M0 594.88 L136.38 594.88 L136.38 191.94 L0 191.94 L0 594.88 Z" class="st12"/>
			</g>
			<g id="shape85-216" transform="translate(0,-384.935)">
				<title>Sheet.85</title>
				<desc>Peripheral modules</desc>
				<rect x="0" y="576.876" width="136.381" height="18.002" class="st15"/>
				<text x="4" y="588.58" class="st20">Peripheral modules</text>			</g>
		</g>
		<g id="shape103-219" transform="translate(179.664,-194.856)">
			<title>Nordic Lake.103</title>
			<desc>USB TX FIFO</desc>
			<rect x="0" y="561.498" width="53.1496" height="33.3804" class="st11"/>
			<text x="18.35" y="575.79" class="st30">USB <tspan x="11.24" dy="1.2em" class="st3">TX FIFO</tspan></text>		</g>
		<g id="shape104-223" transform="translate(274.271,-194.856)">
			<title>Nordic Lake.104</title>
			<desc>USB RX FIFO</desc>
			<rect x="0" y="561.498" width="53.1496" height="33.3804" class="st11"/>
			<text x="18.35" y="575.79" class="st30">USB  <tspan x="10.8" dy="1.2em" class="st3">RX FIFO</tspan></text>		</g>
		<g id="shape40-227" transform="translate(167.901,-239.528)">
			<title>Nordic Light Grey</title>
			<desc>sw_codec_select.c</desc>
			<rect x="0" y="537.421" width="202.677" height="57.4569" class="st31"/>
			<text x="131.53" y="588.48" class="st30">sw_codec_select.c</text>		</g>
		<g id="shape105-230" transform="translate(272.499,-261.753)">
			<title>Nordic Lake.105</title>
			<desc>Encoder</desc>
			<rect x="0" y="561.498" width="53.1496" height="33.3804" class="st16"/>
			<text x="7.95" y="581.19" class="st32">Encoder</text>		</g>
		<g id="shape106-233" transform="translate(180.727,-261.75)">
			<title>Nordic Lake.106</title>
			<desc>Decoder</desc>
			<rect x="0" y="561.498" width="53.1496" height="33.3804" class="st16"/>
			<text x="7.68" y="581.19" class="st32">Decoder</text>		</g>
		<g id="shape107-236" transform="translate(200.215,-327.483)">
			<title>Dynamic connector.107</title>
			<path d="M7.09 594.88 L7.09 620.19" class="st21"/>
		</g>
		<g id="shape109-241" transform="translate(306.151,-295.134)">
			<title>Dynamic connector.109</title>
			<path d="M-7.08 594.88 L-7.1 455.12" class="st21"/>
		</g>
		<g id="shape111-246" transform="translate(211.301,-327.483)">
			<title>Dynamic connector.111</title>
			<path d="M7.09 594.88 L7.09 620.52" class="st18"/>
		</g>
		<g id="shape112-251" transform="translate(218.388,-301.89)">
			<title>Sheet.112</title>
			<desc>bad_frame</desc>
			<rect x="0" y="573.618" width="53.1496" height="21.2598" class="st15"/>
			<text x="4" y="586.95" class="st20">bad_frame</text>		</g>
		<g id="shape113-254" transform="translate(213.857,-261.75)">
			<title>Dynamic connector.113</title>
			<path d="M-6.82 594.88 L-7.24 621.35" class="st23"/>
		</g>
		<g id="shape114-259" transform="translate(290.551,-228.236)">
			<title>Dynamic connector.114</title>
			<path d="M7.09 594.88 L7.09 568.4" class="st23"/>
		</g>
		<g id="shape115-264" transform="translate(12.7002,-491.394)">
			<title>Nordic Lake.115</title>
			<rect x="0" y="584.817" width="16.0192" height="10.0608" class="st6"/>
		</g>
		<g id="shape116-266" transform="translate(33.6886,-491.394)">
			<title>Sheet.116</title>
			<desc>Peripheral module</desc>
			<rect x="0" y="584.817" width="97.0781" height="10.0608" class="st15"/>
			<text x="4" y="592.55" class="st10">Peripheral module</text>		</g>
		<g id="shape117-269" transform="translate(12.7002,-474.386)">
			<title>Nordic Lake.117</title>
			<rect x="0" y="584.817" width="16.0192" height="10.0608" class="st1"/>
		</g>
		<g id="shape118-271" transform="translate(34.0387,-474.386)">
			<title>Sheet.118</title>
			<desc>Large main module</desc>
			<rect x="0" y="584.817" width="97.0781" height="10.0608" class="st15"/>
			<text x="4" y="592.55" class="st10">Large main module</text>		</g>
		<g id="shape119-274" transform="translate(33.6886,-452.986)">
			<title>Sheet.119</title>
			<desc>Application source files</desc>
			<rect x="0" y="584.817" width="97.0781" height="10.0608" class="st15"/>
			<text x="4" y="587.15" class="st10">Application <tspan x="4" dy="1.2em" class="st3">source files</tspan></text>		</g>
		<g id="shape120-278" transform="translate(12.7002,-457.378)">
			<title>Nordic Lake.120</title>
			<rect x="0" y="584.817" width="16.0192" height="10.0608" class="st31"/>
		</g>
		<g id="shape121-280" transform="translate(12.7002,-447.317)">
			<title>Nordic Lake.121</title>
			<rect x="0" y="584.817" width="16.0192" height="10.0608" class="st9"/>
		</g>
		<g id="shape122-282" transform="translate(445.049,-531.496)">
			<title>Dynamic connector.122</title>
			<path d="M7.08 601.56 L7.08 601.92 L7.1 1067.31" class="st33"/>
		</g>
		<g id="shape129-290" transform="translate(149.909,-418.11)">
			<title>Nordic Blue.129</title>
			<path d="M0 594.88 L235.6 594.88 L235.6 502.75 L0 502.75 L0 594.88 Z" class="st12"/>
		</g>
		<g id="shape131-292" transform="translate(187.087,-531.496)">
			<title>Dynamic connector.131</title>
			<path d="M7.09 594.88 L7.09 634.89" class="st18"/>
		</g>
		<g id="shape132-297" transform="translate(198.425,-531.496)">
			<title>Dynamic connector.132</title>
			<path d="M7.09 594.88 L7.09 634.89" class="st21"/>
		</g>
		<g id="shape133-302" transform="translate(209.764,-531.72)">
			<title>Dynamic connector.133</title>
			<path d="M7.09 594.88 L7.09 635.04" class="st18"/>
		</g>
		<g id="shape134-307" transform="translate(291.969,-484.447)">
			<title>Dynamic connector.134</title>
			<path d="M7.09 594.88 L7.09 556.08" class="st21"/>
		</g>
		<g id="shape135-312" transform="translate(300.472,-488.976)">
			<title>Sheet.135</title>
			<desc>Bluetooth modules</desc>
			<rect x="0" y="573.618" width="85.0394" height="21.2598" class="st15"/>
			<text x="6.49" y="586.95" class="st20">Bluetooth modules</text>		</g>
		<g id="shape136-315" transform="translate(243.78,-334.488)">
			<title>Sheet.136</title>
			<desc>streamctrl_unicast_client.c</desc>
			<rect x="0" y="586.374" width="128.976" height="8.50394" class="st31"/>
			<text x="17.36" y="593.03" class="st30">streamctrl_unicast_client.c</text>		</g>
		<g id="shape137-318" transform="translate(243.78,-323.15)">
			<title>Sheet.137</title>
			<desc>streamctrl_broadcast_source.c</desc>
			<rect x="0" y="586.374" width="128.976" height="8.50394" class="st31"/>
			<text x="9.8" y="593.03" class="st30">streamctrl_broadcast_source.c</text>		</g>
		<g id="group138-321" transform="translate(159.36,-441.927)">
			<title>Sheet.138</title>
			<g id="shape124-322">
				<title>Nordic Blue.124</title>
				<desc>One of the following:</desc>
				<rect x="0" y="552.359" width="205.689" height="42.5197" class="st9"/>
				<text x="57.26" y="565.36" class="st32">One of the following:</text>			</g>
			<g id="shape125-325" transform="translate(6.73799,-8.92863)">
				<title>Nordic Light Grey.125</title>
				<desc>broadcast_source.c</desc>
				<rect x="0" y="576.878" width="94.615" height="18.0005" class="st31"/>
				<text x="12.4" y="588.28" class="st30">broadcast_source.c</text>			</g>
			<g id="shape126-328" transform="translate(106.476,-8.92863)">
				<title>Nordic Light Grey.126</title>
				<desc>unicast_client.c</desc>
				<rect x="0" y="576.878" width="94.615" height="18.0005" class="st31"/>
				<text x="19.96" y="588.28" class="st30">unicast_client.c</text>			</g>
		</g>
		<g id="shape139-331" transform="translate(243.78,-344.409)">
			<title>Sheet.139</title>
			<desc>One of the following:</desc>
			<rect x="0" y="582.122" width="128.976" height="12.7559" class="st34"/>
			<text x="23.46" y="591.2" class="st10">One of the following:</text>		</g>
	</g>
</svg>
