<?xml version="1.0" encoding="UTF-8" standalone="no"?>
<!DOCTYPE svg PUBLIC "-//W3C//DTD SVG 1.1//EN" "http://www.w3.org/Graphics/SVG/1.1/DTD/svg11.dtd">
<!-- Generated by Microsoft Visio, SVG Export octave_application_structure_sync_module.svg Page-1 -->
<svg xmlns="http://www.w3.org/2000/svg" xmlns:xlink="http://www.w3.org/1999/xlink" xmlns:ev="http://www.w3.org/2001/xml-events"
		width="7.97263in" height="8.36633in" viewBox="0 0 574.029 602.376" xml:space="preserve" color-interpolation-filters="sRGB"
		class="st43">
	<style type="text/css">
	<![CDATA[
		.st1 {fill:#d9e1e2;stroke:none;stroke-width:1}
		.st2 {stroke:#c8ced3;stroke-dasharray:4,2;stroke-linecap:butt;stroke-width:0.5}
		.st3 {fill:#ffffff;stroke:none;stroke-linecap:butt;stroke-width:7.2}
		.st4 {fill:#c8ced3;font-family:Arial;font-size:0.916672em}
		.st5 {fill:#00a9ce;stroke:none;stroke-width:1}
		.st6 {fill:#ffffff;font-family:Arial;font-size:0.916672em}
		.st7 {fill:none;stroke:#0033a0;stroke-width:1.25}
		.st8 {fill:#ffffff;font-family:Arial;font-size:0.833336em}
		.st9 {font-size:1em}
		.st10 {fill:#768692;stroke:none;stroke-width:1}
		.st11 {fill:#ffffff;font-family:Arial;font-size:0.75em}
		.st12 {fill:none;stroke:#333f48;stroke-dasharray:0.01,5;stroke-width:1}
		.st13 {fill:none;stroke:none;stroke-width:1}
		.st14 {fill:#333f48;font-family:Arial;font-size:0.916672em}
		.st15 {fill:#768692;font-family:Arial;font-size:0.833336em}
		.st16 {fill:#00a9ce;font-family:Arial;font-size:0.833336em}
		.st17 {fill:#0033a0;font-family:Arial;font-size:0.833336em;font-weight:bold}
		.st18 {fill:#d0df00;stroke:none;stroke-width:1}
		.st19 {fill:#333f48;font-family:Arial;font-size:0.833336em}
		.st20 {fill:#ffcd00;stroke:none;stroke-width:1}
		.st21 {fill:#333f48;font-family:Arial;font-size:0.666664em;font-weight:bold}
		.st22 {font-size:1em;font-weight:normal}
		.st23 {fill:#f58220;stroke:none;stroke-width:1}
		.st24 {fill:#333f48;font-family:Arial;font-size:0.75em;font-weight:bold}
		.st25 {marker-end:url(#mrkr4-98);stroke:#00a9ce;stroke-linecap:butt;stroke-width:1}
		.st26 {fill:#00a9ce;fill-opacity:1;stroke:#00a9ce;stroke-opacity:1;stroke-width:0.28409090909091}
		.st27 {marker-start:url(#mrkr4-114);stroke:#00a9ce;stroke-linecap:butt;stroke-width:1}
		.st28 {marker-start:url(#mrkr4-130);stroke:#768692;stroke-linecap:butt;stroke-width:1}
		.st29 {fill:#768692;fill-opacity:1;stroke:#768692;stroke-opacity:1;stroke-width:0.28409090909091}
		.st30 {marker-start:url(#mrkr4-136);stroke:#333f48;stroke-linecap:butt;stroke-width:1}
		.st31 {fill:#333f48;fill-opacity:1;stroke:#333f48;stroke-opacity:1;stroke-width:0.28409090909091}
		.st32 {marker-end:url(#mrkr4-142);stroke:#768692;stroke-linecap:butt;stroke-width:1}
		.st33 {fill:#768692;font-family:Arial;font-size:0.75em}
		.st34 {fill:none;stroke:#333f48;stroke-width:1}
		.st35 {fill:#333f48;font-family:Arial;font-size:0.75em}
		.st36 {marker-end:url(#mrkr4-98);marker-start:url(#mrkr4-114);stroke:#00a9ce;stroke-linecap:butt;stroke-width:1}
		.st37 {marker-end:url(#mrkr4-175);stroke:#333f48;stroke-linecap:butt;stroke-width:1}
		.st38 {marker-end:url(#mrkr4-222);stroke:#d0df00;stroke-linecap:butt;stroke-width:1}
		.st39 {fill:#d0df00;fill-opacity:1;stroke:#d0df00;stroke-opacity:1;stroke-width:0.28409090909091}
		.st40 {fill:#d9e1e2;fill-opacity:0.58;stroke:none;stroke-width:1}
		.st41 {fill:#ffffff;font-family:Arial;font-size:0.666664em}
		.st42 {fill:#ffffff;font-family:Arial;font-size:0.625008em}
		.st43 {fill:none;fill-rule:evenodd;font-size:12px;overflow:visible;stroke-linecap:square;stroke-miterlimit:3}
	]]>
	</style>

	<defs id="Markers">
		<g id="lend4">
			<path d="M 2 1 L 0 0 L 2 -1 L 2 1 " style="stroke:none"/>
		</g>
		<marker id="mrkr4-98" class="st26" refX="-7.04" orient="auto" markerUnits="strokeWidth" overflow="visible">
			<use xlink:href="#lend4" transform="scale(-3.52,-3.52) "/>
		</marker>
		<marker id="mrkr4-114" class="st26" refX="6.68" orient="auto" markerUnits="strokeWidth" overflow="visible">
			<use xlink:href="#lend4" transform="scale(3.52) "/>
		</marker>
		<marker id="mrkr4-130" class="st29" refX="6.68" orient="auto" markerUnits="strokeWidth" overflow="visible">
			<use xlink:href="#lend4" transform="scale(3.52) "/>
		</marker>
		<marker id="mrkr4-136" class="st31" refX="6.68" orient="auto" markerUnits="strokeWidth" overflow="visible">
			<use xlink:href="#lend4" transform="scale(3.52) "/>
		</marker>
		<marker id="mrkr4-142" class="st29" refX="-7.04" orient="auto" markerUnits="strokeWidth" overflow="visible">
			<use xlink:href="#lend4" transform="scale(-3.52,-3.52) "/>
		</marker>
		<marker id="mrkr4-175" class="st31" refX="-7.04" orient="auto" markerUnits="strokeWidth" overflow="visible">
			<use xlink:href="#lend4" transform="scale(-3.52,-3.52) "/>
		</marker>
		<marker id="mrkr4-222" class="st39" refX="-7.04" orient="auto" markerUnits="strokeWidth" overflow="visible">
			<use xlink:href="#lend4" transform="scale(-3.52,-3.52) "/>
		</marker>
	</defs>
	<g>
		<title>Page-1</title>
		<g id="shape41-1" transform="translate(442.036,-463.592)">
			<title>Nordic Middle Grey</title>
			<rect x="0" y="538.223" width="91.8083" height="64.1525" class="st1"/>
		</g>
		<g id="shape1-3" transform="translate(608.976,6.60004) rotate(90)">
			<title>Sheet.1</title>
			<desc>Max 800 px</desc>
			<path d="M0 602.38 L595.28 602.38" class="st2"/>
			<rect x="269.206" y="595.776" width="56.8641" height="13.2001" class="st3"/>
			<text x="269.21" y="605.68" class="st4">Max 800 px</text>		</g>
		<g id="shape2-8" transform="translate(6.60004,-595.776)">
			<title>Sheet.2</title>
			<desc>Max 780 px</desc>
			<path d="M0 602.38 L566.93 602.38" class="st2"/>
			<rect x="255.033" y="595.776" width="56.8641" height="13.2001" class="st3"/>
			<text x="255.03" y="605.68" class="st4">Max 780 px</text>		</g>
		<g id="shape3-13" transform="translate(1175.74,6.60006) rotate(90)">
			<title>Sheet.3</title>
			<path d="M0 602.38 L595.28 602.38" class="st2"/>
		</g>
		<g id="shape4-16" transform="translate(6.60004,-0.500009)">
			<title>Sheet.4</title>
			<path d="M0 602.38 L566.93 602.38" class="st2"/>
		</g>
		<g id="shape23-19" transform="translate(13.6866,-17.5079)">
			<title>Nordic Lake</title>
			<desc>audio_i2s.c</desc>
			<rect x="0" y="568.995" width="554.173" height="33.3804" class="st5"/>
			<text x="249.26" y="588.99" class="st6">audio_i2s.c</text>		</g>
		<g id="shape25-22" transform="translate(13.6866,-62.8622)">
			<title>Nordic Blue.25</title>
			<rect x="0" y="216.705" width="554.173" height="385.671" class="st7"/>
		</g>
		<g id="shape31-24" transform="translate(450.222,-488.694)">
			<title>Nordic Lake.31</title>
			<desc>I2S RX FIFO</desc>
			<rect x="0" y="568.995" width="75.1181" height="33.3804" class="st5"/>
			<text x="30.05" y="582.69" class="st8">I2S <tspan x="17.84" dy="1.2em" class="st9">RX FIFO</tspan></text>		</g>
		<g id="shape32-28" transform="translate(194.271,-456.55)">
			<title>Nordic Sky</title>
			<desc>audio_sync_timer.c</desc>
			<rect x="0" y="586.457" width="91.8083" height="15.9188" class="st10"/>
			<text x="7.14" y="597.12" class="st11">audio_sync_timer.c</text>		</g>
		<g id="shape33-31" transform="translate(428.679,-62.8622)">
			<title>Nordic Blue.33</title>
			<path d="M0 602.38 L0.28 602.38 L0.28 72.3 L0 72.3 L0 602.38 Z" class="st12"/>
		</g>
		<g id="shape34-33" transform="translate(428.962,-557.508)">
			<title>Sheet.34</title>
			<desc>RX (HW codec to nRF5340)</desc>
			<rect x="0" y="565.525" width="127.877" height="36.8504" class="st13"/>
			<text x="4" y="580.65" class="st14">RX <tspan x="4" dy="1.2em" class="st9">(HW codec to nRF5340)</tspan></text>		</g>
		<g id="shape36-37" transform="translate(300.802,-556.091)">
			<title>Sheet.36</title>
			<desc>TX (nRF5340 to HW codec)</desc>
			<rect x="0" y="562.691" width="127.877" height="39.685" class="st13"/>
			<text x="109.82" y="579.23" class="st14">TX <tspan x="5.28" dy="1.2em" class="st9">(nRF5340 to HW codec)</tspan></text>		</g>
		<g id="shape58-41" transform="translate(10.852,-427.273)">
			<title>Sheet.58</title>
			<desc>bad_frame</desc>
			<rect x="0" y="581.116" width="56.6929" height="21.2598" class="st13"/>
			<text x="4" y="594.75" class="st15">bad_frame</text>		</g>
		<g id="shape65-44" transform="translate(124.238,-426.406)">
			<title>Sheet.65</title>
			<desc>sdu_ref</desc>
			<rect x="0" y="581.116" width="42.5197" height="21.2598" class="st13"/>
			<text x="5.16" y="594.75" class="st15">sdu_ref</text>		</g>
		<g id="shape76-47" transform="translate(240.175,-427.273)">
			<title>Sheet.76</title>
			<desc>cur_time</desc>
			<rect x="0" y="581.116" width="53.1496" height="21.2598" class="st13"/>
			<text x="4" y="594.75" class="st15">cur_time</text>		</g>
		<g id="shape79-50" transform="translate(335.419,-68.5315)">
			<title>Sheet.79</title>
			<desc>frame_start_ts</desc>
			<rect x="0" y="585.368" width="76.9606" height="17.0079" class="st13"/>
			<text x="4" y="596.87" class="st16">frame_start_ts</text>		</g>
		<g id="shape84-53" transform="translate(469.71,-410.106)">
			<title>Sheet.84</title>
			<desc>Synchronization module (audio_datapath.c)</desc>
			<rect x="0" y="565.525" width="98.1496" height="36.8504" class="st13"/>
			<text x="10.18" y="574.95" class="st17">Synchronization <tspan x="31.3" dy="1.2em" class="st9">module </tspan><tspan
						x="4.63" dy="1.2em" class="st9">(audio_datapath.c)</tspan></text>		</g>
		<g id="shape102-58" transform="translate(24.8664,-462.706)">
			<title>Nordic Middle Grey.102</title>
			<rect x="0" y="505.448" width="127.877" height="96.9278" class="st1"/>
		</g>
		<g id="shape103-60" transform="translate(32.6959,-525.219)">
			<title>Nordic Lake.103</title>
			<desc>Bluetooth LE RX FIFO</desc>
			<rect x="0" y="572.328" width="112.677" height="30.0472" class="st18"/>
			<text x="27.71" y="584.35" class="st19">Bluetooth LE <tspan x="36.62" dy="1.2em" class="st9">RX FIFO</tspan></text>		</g>
		<g id="shape107-64" transform="translate(64.6394,-205.457)">
			<title>Nordic Lake.107</title>
			<desc>I2S TX FIFO</desc>
			<rect x="0" y="568.995" width="53.1496" height="33.3804" class="st5"/>
			<text x="19.07" y="582.69" class="st8">I2S <tspan x="7.41" dy="1.2em" class="st9">T</tspan>X FIFO</text>		</g>
		<g id="shape108-68" transform="translate(174.553,-156.089)">
			<title>Nordic Lake.108</title>
			<desc>I2S block complete</desc>
			<rect x="0" y="568.995" width="53.1496" height="33.3804" class="st5"/>
			<text x="6.01" y="582.69" class="st8">I2S block <tspan x="6.29" dy="1.2em" class="st9">complete</tspan></text>		</g>
		<g id="shape110-72" transform="translate(174.553,-87.6563)">
			<title>Nordic Sky.110</title>
			<desc>pcm_mix.c</desc>
			<rect x="0" y="578.263" width="53.1496" height="24.1125" class="st10"/>
			<text x="5.07" y="593.02" class="st11">pcm_mix.c</text>		</g>
		<g id="shape112-75" transform="translate(196.946,-277.4)">
			<title>Nordic Light Grey.112</title>
			<desc>Presentation compensation (Executed every time a new package ...</desc>
			<rect x="0" y="538.223" width="84.189" height="64.1525" class="st20"/>
			<text x="17.87" y="548.7" class="st21">Presentation <tspan x="14.98" dy="1.2em" class="st9">compensation  </tspan><tspan
						x="4.52" dy="2.4em" class="st22">(Executed every time </tspan><tspan x="11.19" dy="1.2em" class="st22">a new package is </tspan><tspan
						x="25.64" dy="1.2em" class="st22">received)</tspan></text>		</g>
		<g id="shape113-82" transform="translate(293.324,-371.997)">
			<title>Nordic Light Grey.113</title>
			<desc>Drift compensation (Executed every time an I2S block is compl...</desc>
			<rect x="0" y="538.223" width="84.189" height="64.1525" class="st23"/>
			<text x="32.85" y="546" class="st24">Drift <tspan x="11.59" dy="1.2em" class="st9">compensation  </tspan><tspan
						x="9.58" dy="2.4em" class="st22">(Executed every </tspan><tspan x="7.58" dy="1.2em" class="st22">time an I2S block </tspan><tspan
						x="15.33" dy="1.2em" class="st22">is completed)</tspan></text>		</g>
		<g id="shape118-89" transform="translate(443.135,-153.571)">
			<title>Nordic Lake.118</title>
			<desc>I2S block complete</desc>
			<rect x="0" y="568.995" width="53.1496" height="33.3804" class="st5"/>
			<text x="6.01" y="582.69" class="st8">I2S block <tspan x="6.29" dy="1.2em" class="st9">complete</tspan></text>		</g>
		<g id="shape126-93" transform="translate(91.2142,-205.457)">
			<title>Dynamic connector.126</title>
			<path d="M0 602.38 L0 635.05 L76.3 635.05" class="st25"/>
		</g>
		<g id="shape127-99" transform="translate(194.041,-156.089)">
			<title>Dynamic connector.127</title>
			<path d="M7.09 602.38 L7.09 639.66" class="st25"/>
		</g>
		<g id="shape129-104" transform="translate(110.405,-133.206)">
			<title>Dynamic connector.129</title>
			<path d="M0 602.38 L90.72 602.38 L90.72 616.77" class="st25"/>
		</g>
		<g id="shape131-109" transform="translate(462.624,-153.571)">
			<title>Dynamic connector.131</title>
			<path d="M7.09 609.06 L7.09 609.42 L7.09 705.06" class="st27"/>
		</g>
		<g id="shape132-115" transform="translate(328.332,-50.8883)">
			<title>Dynamic connector.132</title>
			<path d="M7.09 602.38 L7.09 288.31" class="st25"/>
		</g>
		<g id="shape133-120" transform="translate(281.135,-309.476)">
			<title>Dynamic connector.133</title>
			<path d="M6.68 602.38 L7.04 602.38 L54.28 602.38 L54.28 860.96" class="st27"/>
		</g>
		<g id="shape134-125" transform="translate(233.088,-341.553)">
			<title>Dynamic connector.134</title>
			<path d="M7.09 595.7 L7.09 595.34 L7.09 487.38" class="st28"/>
		</g>
		<g id="shape136-131" transform="translate(231.954,-247.948)">
			<title>Dynamic connector.136</title>
			<path d="M7.09 595.7 L7.09 595.34 L7.09 572.92" class="st30"/>
		</g>
		<g id="shape137-137" transform="translate(124.238,-462.706)">
			<title>Dynamic connector.137</title>
			<path d="M0 602.38 L0 649.31 L113.57 649.31 A2.3622 2.3622 0 0 1 118.3 649.31 L131.24 649.31 L131.24 661.01 L162.05 661.01"
					class="st32"/>
		</g>
		<g id="shape140-143" transform="translate(124.238,-351.623)">
			<title>Sheet.140</title>
			<desc>Estimate current sdu_ref if the delta between the current and...</desc>
			<rect x="0" y="538.223" width="112.677" height="64.1525" class="st13"/>
			<text x="4" y="551.4" class="st33">Estimate current sdu_ref <tspan x="4" dy="1.2em" class="st9">if the delta between the </tspan><tspan
						x="4" dy="1.2em" class="st9">current and the previous </tspan><tspan x="4" dy="1.2em" class="st9">incoming sdu_ref is over </tspan><tspan
						x="4" dy="1.2em" class="st9">or under a threshold</tspan></text>		</g>
		<g id="shape142-150" transform="translate(196.946,-196.346)">
			<title>Sheet.142</title>
			<desc>Adjust placement of audio blocks in FIFO to synchronize audio</desc>
			<rect x="0" y="550.775" width="84.189" height="51.6011" class="st34"/>
			<text x="7.58" y="563.08" class="st35">Adjust placement <tspan x="7.32" dy="1.2em" class="st9">of audio blocks in </tspan><tspan
						x="26.84" dy="1.2em" class="st9">FIFO to </tspan><tspan x="5.82" dy="1.2em" class="st9">synchronize audio</tspan></text>		</g>
		<g id="shape143-156" transform="translate(462.624,-186.951)">
			<title>Dynamic connector.143</title>
			<path d="M7.09 595.7 L7.09 595.34 L7.09 307.67" class="st36"/>
		</g>
		<g id="shape144-163" transform="translate(352.427,-281.293)">
			<title>Nordic Lake.144</title>
			<desc>Audio clock (PLL) fine adjustment for synchronizing audio</desc>
			<rect x="0" y="545.846" width="68.0315" height="56.5296" class="st34"/>
			<text x="11" y="555.21" class="st35">Audio clock <tspan x="14.51" dy="1.2em" class="st9">(PLL) fine </tspan><tspan
						x="5.5" dy="1.2em" class="st9">adjustment for </tspan><tspan x="6.5" dy="1.2em" class="st9">synchronizing </tspan><tspan
						x="23.01" dy="1.2em" class="st9">audio</tspan></text>		</g>
		<g id="shape145-170" transform="translate(196.946,-215.06)">
			<title>Dynamic connector.145</title>
			<path d="M0 595.29 L-72.12 595.29" class="st37"/>
		</g>
		<g id="shape146-176" transform="translate(374.891,-404.073)">
			<title>Dynamic connector.146</title>
			<path d="M2.62 602.38 L11.55 602.38 L11.55 661.59" class="st37"/>
		</g>
		<g id="shape147-181" transform="translate(194.041,-87.6563)">
			<title>Dynamic connector.147</title>
			<path d="M7.09 602.38 L7.09 632.1" class="st25"/>
		</g>
		<g id="group169-186" transform="translate(67.5449,-101.97)">
			<title>Sheet.169</title>
			<g id="shape111-187">
				<title>Nordic Light Grey.111</title>
				<desc>tone.c</desc>
				<rect x="0" y="550.775" width="46.2047" height="51.6011" class="st1"/>
				<text x="10.84" y="595.68" class="st35">tone.c</text>			</g>
			<g id="shape109-190" transform="translate(3.62835,-14.5462)">
				<title>Nordic Lake.109</title>
				<desc>Tone</desc>
				<rect x="0" y="568.995" width="39.2315" height="33.3804" class="st5"/>
				<text x="8.22" y="588.69" class="st8">Tone</text>			</g>
		</g>
		<g id="group172-193" transform="translate(46.2851,-277.4)">
			<title>Sheet.172</title>
			<g id="shape105-194">
				<title>Nordic Light Grey</title>
				<rect x="0" y="538.223" width="84.189" height="64.1525" class="st1"/>
			</g>
			<g id="shape104-196" transform="translate(15.5197,-17.4799)">
				<title>Nordic Lake.37</title>
				<desc>Decoder</desc>
				<rect x="0" y="568.995" width="53.1496" height="33.3804" class="st18"/>
				<text x="7.68" y="588.69" class="st19">Decoder</text>			</g>
		</g>
		<g id="shape121-199" transform="translate(82.7103,-294.88)">
			<title>Dynamic connector.121</title>
			<path d="M7.09 602.38 L7.09 651.38" class="st25"/>
		</g>
		<g id="group180-204" transform="translate(170.46,-481.608)">
			<title>Sheet.180</title>
			<g id="shape148-205">
				<title>Nordic Blue.88</title>
				<rect x="0" y="525.007" width="247.533" height="77.3683" class="st34"/>
			</g>
			<g id="shape149-207" transform="translate(9.8103,-62.1805)">
				<title>Nordic Lake.89</title>
				<rect x="0" y="592.315" width="16.0192" height="10.0608" class="st18"/>
			</g>
			<g id="shape150-209" transform="translate(146.62,-72.8551)">
				<title>Dynamic connector.90</title>
				<path d="M0 609.44 L-12.71 609.47" class="st32"/>
			</g>
			<g id="shape151-214" transform="translate(150.455,-60.7159)">
				<title>Sheet.151</title>
				<desc>Control data</desc>
				<rect x="0" y="592.315" width="71.5663" height="10.0608" class="st13"/>
				<text x="4" y="600.05" class="st35">Control data</text>			</g>
			<g id="shape152-217" transform="translate(146.62,-60.6661)">
				<title>Dynamic connector.93</title>
				<path d="M0 609.44 L-12.71 609.47" class="st38"/>
			</g>
			<g id="shape153-223" transform="translate(150.455,-48.5269)">
				<title>Sheet.153</title>
				<desc>Compressed audio</desc>
				<rect x="0" y="592.315" width="97.0781" height="10.0608" class="st13"/>
				<text x="4" y="600.05" class="st35">Compressed audio</text>			</g>
			<g id="shape154-226" transform="translate(146.62,-48.4772)">
				<title>Dynamic connector.95</title>
				<path d="M0 609.44 L-12.71 609.47" class="st25"/>
			</g>
			<g id="shape155-231" transform="translate(150.455,-36.3379)">
				<title>Sheet.155</title>
				<desc>Uncompressed audio</desc>
				<rect x="0" y="592.315" width="97.0781" height="10.0608" class="st13"/>
				<text x="4" y="600.05" class="st35">Uncompressed audio</text>			</g>
			<g id="shape156-234" transform="translate(9.8103,-37.8674)">
				<title>Nordic Lake.97</title>
				<rect x="0" y="592.315" width="16.0192" height="10.0608" class="st5"/>
			</g>
			<g id="shape157-236" transform="translate(30.5818,-49.9125)">
				<title>Sheet.157</title>
				<desc>Block working on compressed audio</desc>
				<rect x="0" y="581.116" width="97.0781" height="21.2598" class="st13"/>
				<text x="4" y="589.05" class="st35">Block working on <tspan x="4" dy="1.2em" class="st9">compressed audio</tspan></text>			</g>
			<g id="shape158-240" transform="translate(30.7987,-26.6684)">
				<title>Sheet.158</title>
				<desc>Block working on uncompressed audio</desc>
				<rect x="0" y="581.116" width="97.0781" height="21.2598" class="st13"/>
				<text x="4" y="589.05" class="st35">Block working on <tspan x="4" dy="1.2em" class="st9">uncompressed audio</tspan></text>			</g>
			<g id="shape165-244" transform="translate(30.7987,-2.81661)">
				<title>Sheet.165</title>
				<desc>Application source files</desc>
				<rect x="0" y="578.263" width="97.0781" height="24.1125" class="st13"/>
				<text x="4" y="587.62" class="st35">Application <tspan x="4" dy="1.2em" class="st9">source files</tspan></text>			</g>
			<g id="shape166-248" transform="translate(9.81029,-14.3497)">
				<title>Nordic Lake.120</title>
				<rect x="0" y="596.229" width="16.0192" height="6.14675" class="st10"/>
			</g>
			<g id="shape167-250" transform="translate(9.81029,-8.20295)">
				<title>Nordic Lake.121</title>
				<rect x="0" y="596.229" width="16.0192" height="6.14675" class="st1"/>
			</g>
			<g id="shape173-252" transform="translate(130.6,-23.0151)">
				<title>Nordic Lake.173</title>
				<rect x="0" y="592.315" width="16.0192" height="10.0608" class="st34"/>
			</g>
			<g id="shape174-254" transform="translate(149.738,-23.0151)">
				<title>Sheet.174</title>
				<desc>Adjustments</desc>
				<rect x="0" y="592.315" width="97.0781" height="10.0608" class="st13"/>
				<text x="4" y="600.05" class="st35">Adjustments</text>			</g>
			<g id="shape177-257" transform="translate(130.6,-13.3948)">
				<title>Nordic Lake.177</title>
				<rect x="0" y="596.229" width="16.0192" height="6.14675" class="st23"/>
			</g>
			<g id="shape178-259" transform="translate(130.6,-7.24803)">
				<title>Nordic Lake.178</title>
				<rect x="0" y="596.229" width="16.0192" height="6.14675" class="st20"/>
			</g>
			<g id="shape179-261" transform="translate(149.876,-8.20295)">
				<title>Sheet.179</title>
				<desc>Compensations</desc>
				<rect x="0" y="592.315" width="97.0781" height="10.0608" class="st13"/>
				<text x="4" y="600.05" class="st35">Compensations</text>			</g>
		</g>
		<g id="shape119-264" transform="translate(59.041,-462.706)">
			<title>Dynamic connector</title>
			<path d="M7.09 602.38 L7.09 729.78" class="st32"/>
		</g>
		<g id="shape120-269" transform="translate(117.151,-462.706)">
			<title>Dynamic connector.120</title>
			<path d="M-7.09 602.38 L-7.09 729.78" class="st38"/>
		</g>
		<g id="shape182-274" transform="translate(124.238,-462.706)">
			<title>Dynamic connector.182</title>
			<path d="M0 602.38 L0 649.31 L113.57 649.31 A2.3622 2.3622 0 1 1 118.3 649.31 L131.24 649.31 L131.24 716.49"
					class="st32"/>
		</g>
		<g id="shape183-279" transform="translate(442.036,-468.217)">
			<title>Sheet.183</title>
			<desc>audio_system.c</desc>
			<rect x="0" y="593.872" width="91.8083" height="8.50394" class="st40"/>
			<text x="25.28" y="600.82" class="st35">audio_system.c</text>		</g>
		<g id="shape184-282" transform="translate(32.2365,-501.762)">
			<title>Sheet.184</title>
			<desc>streamctrl_unicast_client.c</desc>
			<rect x="0" y="592.931" width="112.677" height="9.44466" class="st10"/>
			<text x="9.21" y="600.05" class="st41">streamctrl_unicast_client.c</text>		</g>
		<g id="shape185-285" transform="translate(32.6959,-489.811)">
			<title>Sheet.185</title>
			<desc>streamctrl_unicast_server.c</desc>
			<rect x="0" y="592.931" width="112.677" height="9.44466" class="st10"/>
			<text x="7.43" y="600.05" class="st41">streamctrl_unicast_server.c</text>		</g>
		<g id="shape186-288" transform="translate(32.6959,-478.138)">
			<title>Sheet.186</title>
			<desc>streamctrl_broadcast_source.c</desc>
			<rect x="0" y="592.931" width="112.677" height="9.44466" class="st10"/>
			<text x="5.07" y="599.9" class="st42">streamctrl_broadcast_source.c</text>		</g>
		<g id="shape187-291" transform="translate(32.6959,-466.799)">
			<title>Sheet.187</title>
			<desc>streamctrl_broadcast_sink.c</desc>
			<rect x="0" y="592.931" width="112.677" height="9.44466" class="st10"/>
			<text x="6.54" y="600.05" class="st41">streamctrl_broadcast_sink.c</text>		</g>
		<g id="shape188-294" transform="translate(46.2851,-281.13)">
			<title>Sheet.188</title>
			<desc>sw_codec_select.c</desc>
			<rect x="0" y="593.872" width="84.189" height="8.50394" class="st40"/>
			<text x="4.65" y="601.12" class="st35">sw_codec_select.c</text>		</g>
		<g id="shape190-297" transform="translate(32.6959,-513.163)">
			<title>Sheet.190</title>
			<desc>One of the following:</desc>
			<rect x="0" y="590.629" width="112.677" height="11.7467" class="st40"/>
			<text x="15.31" y="599.2" class="st35">One of the following:</text>		</g>
	</g>
</svg>
