<?xml version="1.0" encoding="UTF-8" standalone="no"?>
<!DOCTYPE svg PUBLIC "-//W3C//DTD SVG 1.1//EN" "http://www.w3.org/Graphics/SVG/1.1/DTD/svg11.dtd">
<!-- Generated by Microsoft Visio, SVG Export pelion_client_architecture.svg Drawing -->
<svg xmlns="http://www.w3.org/2000/svg" xmlns:xlink="http://www.w3.org/1999/xlink" xmlns:ev="http://www.w3.org/2001/xml-events"
		width="8.00809in" height="7.15365in" viewBox="0 0 576.583 515.063" xml:space="preserve" color-interpolation-filters="sRGB"
		class="st18">
	<style type="text/css">
	<![CDATA[
		.st1 {fill:#00a9ce;stroke:none;stroke-width:1}
		.st2 {fill:#ffffff;font-family:Calibri;font-size:1.00001em}
		.st3 {font-size:1em}
		.st4 {fill:#ffffff;font-family:Calibri;font-size:0.833336em}
		.st5 {fill:#ee2f4e;stroke:none;stroke-width:1}
		.st6 {fill:#ffffff;font-family:Calibri;font-size:0.916672em}
		.st7 {fill:#ffffff;font-family:Calibri;font-size:1.16666em}
		.st8 {marker-end:url(#mrkr13-40);marker-start:url(#mrkr13-38);stroke:#00a9ce;stroke-linecap:butt;stroke-width:1}
		.st9 {fill:#00a9ce;fill-opacity:1;stroke:#00a9ce;stroke-opacity:1;stroke-width:0.28409090909091}
		.st10 {fill:#333f48;stroke:none;stroke-width:1}
		.st11 {fill:#768692;stroke:none;stroke-width:1}
		.st12 {fill:#00a9ce;stroke:#feffff;stroke-width:1}
		.st13 {fill:#000000;font-family:Calibri;font-size:1.00001em}
		.st14 {fill:#768692;stroke:#feffff;stroke-width:1}
		.st15 {fill:none;stroke:#333f48;stroke-width:1}
		.st16 {fill:#333f48;stroke:#feffff;stroke-width:1}
		.st17 {fill:#ee2f4e;stroke:#feffff;stroke-width:1}
		.st18 {fill:none;fill-rule:evenodd;font-size:12px;overflow:visible;stroke-linecap:square;stroke-miterlimit:3}
	]]>
	</style>

	<defs id="Markers">
		<g id="lend13">
			<path d="M 3 1 L 0 0 L 3 -1 L 3 1 " style="stroke:none"/>
		</g>
		<marker id="mrkr13-38" class="st9" refX="10.2" orient="auto" markerUnits="strokeWidth" overflow="visible">
			<use xlink:href="#lend13" transform="scale(3.52) "/>
		</marker>
		<marker id="mrkr13-40" class="st9" refX="-10.56" orient="auto" markerUnits="strokeWidth" overflow="visible">
			<use xlink:href="#lend13" transform="scale(-3.52,-3.52) "/>
		</marker>
	</defs>
	<g>
		<title>Drawing</title>
		<g id="shape132-1" transform="translate(210.339,-405.056)">
			<title>Nordic Blue</title>
			<desc>CAF buttons</desc>
			<rect x="0" y="488.134" width="56.315" height="26.9291" class="st1"/>
			<text x="18.73" y="498" class="st2">CAF <tspan x="9.17" dy="1.2em" class="st3">buttons</tspan></text>		</g>
		<g id="shape136-5" transform="translate(338.276,-405.056)">
			<title>Nordic Blue.136</title>
			<desc>Power manager</desc>
			<rect x="0" y="488.134" width="56.315" height="26.9291" class="st1"/>
			<text x="12.53" y="498" class="st2">Power <tspan x="6.56" dy="1.2em" class="st3">manager</tspan></text>		</g>
		<g id="shape137-9" transform="translate(19,-191.274)">
			<title>Nordic Blue.137</title>
			<desc>Network LTE module</desc>
			<rect x="0" y="488.134" width="56.315" height="26.9291" class="st1"/>
			<text x="10.54" y="498.6" class="st4">Network <tspan x="4.53" dy="1.2em" class="st3">LTE module</tspan></text>		</g>
		<g id="shape138-13" transform="translate(133.19,-191.274)">
			<title>Nordic Blue.138</title>
			<desc>Network OT module</desc>
			<rect x="0" y="488.134" width="56.315" height="26.9291" class="st1"/>
			<text x="10.54" y="498.6" class="st4">Network <tspan x="5.76" dy="1.2em" class="st3">OT module</tspan></text>		</g>
		<g id="shape139-17" transform="translate(245.394,-233.173)">
			<title>Nordic Blue.139</title>
			<desc>Pelion module</desc>
			<rect x="0" y="488.134" width="56.315" height="26.9291" class="st1"/>
			<text x="13" y="498" class="st2">Pelion <tspan x="9.53" dy="1.2em" class="st3">module</tspan></text>		</g>
		<g id="shape140-21" transform="translate(335.912,-110.616)">
			<title>Nordic Middle Grey</title>
			<desc>Pelion Device Management library (pelion-dm)</desc>
			<rect x="0" y="471.867" width="93.9223" height="43.1959" class="st5"/>
			<text x="16.9" y="483.56" class="st6">Pelion Device <tspan x="16.91" dy="1.2em" class="st3">Management</tspan> <tspan
						x="5.1" dy="1.2em" class="st3">library </tspan>(pelion-dm)</text>		</g>
		<g id="shape141-26" transform="translate(274.307,-405.056)">
			<title>Nordic Blue.141</title>
			<desc>CAF LEDs</desc>
			<rect x="0" y="488.134" width="56.315" height="26.9291" class="st1"/>
			<text x="5.88" y="505.2" class="st2">CAF LEDs</text>		</g>
		<g id="shape142-29" transform="translate(234.433,-301.516)">
			<title>Nordic Blueslate.142</title>
			<desc>Event Manager</desc>
			<rect x="0" y="460.423" width="136.063" height="54.6402" class="st1"/>
			<text x="24.78" y="491.94" class="st7">Event Manager</text>		</g>
		<g id="shape143-32" transform="translate(273.551,-233.173)">
			<title>Dynamic connector</title>
			<path d="M-0 525.26 L-0 525.62 L-0 534.24 L109.32 534.24 L109.32 583.86" class="st8"/>
		</g>
		<g id="shape145-41" transform="translate(273.551,-260.102)">
			<title>Dynamic connector.145</title>
			<path d="M0 504.86 L0 504.5 L0 494.96 L28.91 494.96 L28.91 484.21" class="st8"/>
		</g>
		<g id="shape148-48" transform="translate(103.473,-260.102)">
			<title>Dynamic connector.148</title>
			<path d="M0 504.86 L0 504.5 L0 494.96 L198.99 494.96 L198.99 484.21" class="st8"/>
		</g>
		<g id="shape149-55" transform="translate(47.1575,-218.203)">
			<title>Dynamic connector.149</title>
			<path d="M0 504.86 L0 504.5 L0 486.63 L17.6 486.63" class="st8"/>
		</g>
		<g id="shape150-62" transform="translate(366.433,-405.056)">
			<title>Dynamic connector.150</title>
			<path d="M0 525.26 L0 525.62 L0 534.07 L-63.97 534.07 L-63.97 553.4" class="st8"/>
		</g>
		<g id="shape151-69" transform="translate(295.378,-405.056)">
			<title>Dynamic connector.151</title>
			<path d="M7.09 525.26 L7.09 525.62 L7.09 534.07 L7.09 553.4" class="st8"/>
		</g>
		<g id="shape152-76" transform="translate(238.496,-405.056)">
			<title>Dynamic connector.152</title>
			<path d="M0 525.26 L0 525.62 L0 534.07 L63.97 534.07 L63.97 553.4" class="st8"/>
		</g>
		<g id="shape154-83" transform="translate(122.678,-114.219)">
			<title>Nordic Middle Grey.154</title>
			<desc>OpenThread library</desc>
			<rect x="0" y="479.072" width="77.3397" height="35.991" class="st10"/>
			<text x="8.23" y="493.47" class="st2">OpenThread <tspan x="22.99" dy="1.2em" class="st3">library</tspan></text>		</g>
		<g id="shape155-87" transform="translate(19,-123.281)">
			<title>Nordic Middle Grey.155</title>
			<desc>LTE Link Control</desc>
			<rect x="0" y="488.134" width="56.315" height="26.9291" class="st1"/>
			<text x="8.65" y="498" class="st2">LTE Link <tspan x="10" dy="1.2em" class="st3">Control</tspan></text>		</g>
		<g id="shape156-91" transform="translate(40.0709,-191.274)">
			<title>Dynamic connector.156</title>
			<path d="M7.09 525.26 L7.09 525.62 L7.09 545.57" class="st8"/>
		</g>
		<g id="shape157-98" transform="translate(154.261,-191.274)">
			<title>Dynamic connector.157</title>
			<path d="M7.09 525.26 L7.09 525.62 L7.09 545.57" class="st8"/>
		</g>
		<g id="shape158-105" transform="translate(75.315,-233.173)">
			<title>Nordic Blue.158</title>
			<desc>Net module</desc>
			<rect x="0" y="488.134" width="56.315" height="26.9291" class="st1"/>
			<text x="19.29" y="498" class="st2">Net <tspan x="9.53" dy="1.2em" class="st3">module</tspan></text>		</g>
		<g id="shape159-109" transform="translate(131.63,-246.638)">
			<title>Dynamic connector.159</title>
			<path d="M10.2 515.06 L10.56 515.06 L29.72 515.06 L29.72 532.94" class="st8"/>
		</g>
		<g id="shape160-116" transform="translate(181.425,-233.173)">
			<title>Nordic Blue.160</title>
			<desc>Factory reset</desc>
			<rect x="0" y="488.134" width="56.315" height="26.9291" class="st1"/>
			<text x="10.01" y="498" class="st2">Factory <tspan x="15.74" dy="1.2em" class="st3">reset</tspan></text>		</g>
		<g id="shape161-120" transform="translate(309.362,-233.173)">
			<title>Nordic Blue.161</title>
			<desc>Pelion FCC</desc>
			<rect x="0" y="488.134" width="56.315" height="26.9291" class="st1"/>
			<text x="13" y="498" class="st2">Pelion <tspan x="19" dy="1.2em" class="st3">FCC</tspan></text>		</g>
		<g id="shape162-124" transform="translate(337.52,-233.173)">
			<title>Dynamic connector.162</title>
			<path d="M-0 525.26 L-0 525.62 L-0 534.07 L45.35 534.07 L45.35 583.86" class="st8"/>
		</g>
		<g id="shape163-131" transform="translate(209.583,-260.102)">
			<title>Dynamic connector.163</title>
			<path d="M0 504.86 L0 504.5 L0 494.96 L92.88 494.96 L92.88 484.21" class="st8"/>
		</g>
		<g id="shape167-138" transform="translate(240.202,-48.1392)">
			<title>Nordic Blue.167</title>
			<desc>OS network subsys</desc>
			<rect x="0" y="488.134" width="56.315" height="26.9291" class="st11"/>
			<text x="4.4" y="498.6" class="st4">OS network <tspan x="14.77" dy="1.2em" class="st3">subsys</tspan></text>		</g>
		<g id="shape168-142" transform="translate(343.586,-110.616)">
			<title>Dynamic connector.168</title>
			<path d="M0 525.26 L0 525.62 L0 564.08 L-36.51 564.08" class="st8"/>
		</g>
		<g id="shape169-149" transform="translate(190.165,-114.219)">
			<title>Dynamic connector.169</title>
			<path d="M0 525.26 L0 525.62 L0 567.68 L39.48 567.68" class="st8"/>
		</g>
		<g id="shape170-156" transform="translate(26.2756,-48.1392)">
			<title>Nordic Blue.170</title>
			<desc>Settings subsys</desc>
			<rect x="0" y="488.134" width="56.315" height="26.9291" class="st11"/>
			<text x="8.7" y="498" class="st2">Settings <tspan x="12.1" dy="1.2em" class="st3">subsys</tspan></text>		</g>
		<g id="shape171-160" transform="translate(122.678,-48.1392)">
			<title>Nordic Blue.171</title>
			<desc>Flash driver</desc>
			<rect x="0" y="488.134" width="56.315" height="26.9291" class="st11"/>
			<text x="15.65" y="498" class="st2">Flash <tspan x="13.75" dy="1.2em" class="st3">driver</tspan></text>		</g>
		<g id="shape172-164" transform="translate(382.874,-110.616)">
			<title>Dynamic connector.172</title>
			<path d="M0 525.26 L0 525.62 L0 596.55 L-232.04 596.55 L-232.04 588.1" class="st8"/>
		</g>
		<g id="shape173-171" transform="translate(82.5906,-54.5172)">
			<title>Dynamic connector.173</title>
			<path d="M10.2 507.98 L10.56 507.98 L29.53 507.98" class="st8"/>
		</g>
		<g id="shape174-178" transform="translate(54.4331,-75.0683)">
			<title>Dynamic connector.174</title>
			<path d="M0 504.86 L0 504.5 L0 496.06 L79.15 496.06 L79.15 486.47" class="st8"/>
		</g>
		<g id="shape175-185" transform="translate(373.331,-233.173)">
			<title>Nordic Blue.175</title>
			<desc>Pelion trace</desc>
			<rect x="0" y="488.134" width="56.315" height="26.9291" class="st1"/>
			<text x="13" y="498" class="st2">Pelion <tspan x="15.66" dy="1.2em" class="st3">trace</tspan></text>		</g>
		<g id="shape176-189" transform="translate(236.515,-114.219)">
			<title>Nordic Middle Grey.176</title>
			<desc>Mbed TLS</desc>
			<rect x="0" y="479.072" width="63.6884" height="35.9911" class="st10"/>
			<text x="7.86" y="500.67" class="st2">Mbed TLS</text>		</g>
		<g id="shape177-192" transform="translate(200.018,-125.128)">
			<title>Dynamic connector.177</title>
			<path d="M10.2 507.98 L10.56 507.98 L25.94 507.98" class="st8"/>
		</g>
		<g id="shape178-199" transform="translate(335.912,-125.128)">
			<title>Dynamic connector.178</title>
			<path d="M-10.2 507.98 L-10.56 507.98 L-25.15 507.98" class="st8"/>
		</g>
		<g id="shape183-206" transform="translate(401.488,-260.102)">
			<title>Dynamic connector.183</title>
			<path d="M0 504.86 L0 504.5 L0 494.96 L-99.02 494.96 L-99.02 484.21" class="st8"/>
		</g>
		<g id="shape186-213" transform="translate(210.339,-469.134)">
			<title>Nordic Blue.186</title>
			<desc>GPIO driver</desc>
			<rect x="0" y="488.134" width="56.315" height="26.9291" class="st11"/>
			<text x="15.79" y="498" class="st2">GPIO <tspan x="13.75" dy="1.2em" class="st3">driver</tspan></text>		</g>
		<g id="shape187-217" transform="translate(274.307,-469.134)">
			<title>Nordic Blue.187</title>
			<desc>PWM driver</desc>
			<rect x="0" y="488.134" width="56.315" height="26.9291" class="st11"/>
			<text x="14.59" y="498" class="st2">PWM <tspan x="13.75" dy="1.2em" class="st3">driver</tspan></text>		</g>
		<g id="shape188-221" transform="translate(338.276,-469.134)">
			<title>Nordic Blue.188</title>
			<desc>OS power mgmt</desc>
			<rect x="0" y="488.134" width="56.315" height="26.9291" class="st11"/>
			<text x="4.39" y="498" class="st2">OS power <tspan x="13.74" dy="1.2em" class="st3">mgmt</tspan></text>		</g>
		<g id="shape192-225" transform="translate(231.409,-431.985)">
			<title>Dynamic connector.192</title>
			<path d="M7.09 504.86 L7.09 504.5 L7.09 488.47" class="st8"/>
		</g>
		<g id="shape193-232" transform="translate(295.378,-431.985)">
			<title>Dynamic connector.193</title>
			<path d="M7.09 504.86 L7.09 504.5 L7.09 488.47" class="st8"/>
		</g>
		<g id="shape194-239" transform="translate(359.346,-431.985)">
			<title>Dynamic connector.194</title>
			<path d="M7.09 504.86 L7.09 504.5 L7.09 488.47" class="st8"/>
		</g>
		<g id="shape198-246" transform="translate(437.299,-233.173)">
			<title>Nordic Blue.198</title>
			<desc>OMA Stopwatch</desc>
			<rect x="0" y="488.134" width="56.315" height="26.9291" class="st1"/>
			<text x="16.63" y="498.3" class="st6">OMA <tspan x="4.37" dy="1.2em" class="st3">Stopwatch</tspan></text>		</g>
		<g id="shape199-250" transform="translate(402.244,-405.056)">
			<title>Nordic Blue.199</title>
			<desc>DFU module</desc>
			<rect x="0" y="488.134" width="56.315" height="26.9291" class="st1"/>
			<text x="17.86" y="498" class="st2">DFU <tspan x="9.53" dy="1.2em" class="st3">module</tspan></text>		</g>
		<g id="shape200-254" transform="translate(302.465,-301.516)">
			<title>Dynamic connector.200</title>
			<path d="M-0 525.26 L-0 525.62 L-0 536.37 L162.99 536.37 L162.99 545.92" class="st8"/>
		</g>
		<g id="shape201-261" transform="translate(430.402,-405.056)">
			<title>Dynamic connector.201</title>
			<path d="M0 525.26 L0 525.62 L0 534.07 L-127.94 534.07 L-127.94 553.4" class="st8"/>
		</g>
		<g id="shape202-268" transform="translate(382.874,-153.812)">
			<title>Dynamic connector.202</title>
			<path d="M0 504.86 L0 504.5 L0 454.91 L18.61 454.91 L18.61 446.26" class="st8"/>
		</g>
		<g id="shape203-275" transform="translate(209.583,-233.173)">
			<title>Dynamic connector.203</title>
			<path d="M0 525.26 L0 525.62 L0 565.12 L-19 565.12 L-19 587.47" class="st8"/>
		</g>
		<g id="shape204-282" transform="translate(209.583,-233.173)">
			<title>Dynamic connector.204</title>
			<path d="M0 525.26 L0 525.62 L0 565.12 L134.92 565.12 L134.92 583.86" class="st8"/>
		</g>
		<g id="shape205-289" transform="translate(146.37,-405.056)">
			<title>Nordic Blue.205</title>
			<desc>LED state</desc>
			<rect x="0" y="488.134" width="56.315" height="26.9291" class="st1"/>
			<text x="5.43" y="505.2" class="st2">LED state</text>		</g>
		<g id="shape207-292" transform="translate(174.528,-405.056)">
			<title>Dynamic connector.207</title>
			<path d="M0 525.26 L0 525.62 L0 534.07 L127.94 534.07 L127.94 553.4" class="st8"/>
		</g>
		<g id="shape209-299" transform="translate(501.268,-233.173)">
			<title>Nordic Blue.209</title>
			<desc>OMA Dig. Input</desc>
			<rect x="0" y="488.134" width="56.315" height="26.9291" class="st1"/>
			<text x="16.63" y="498.3" class="st6">OMA <tspan x="6.39" dy="1.2em" class="st3">Dig. Input</tspan></text>		</g>
		<g id="shape210-303" transform="translate(302.465,-301.516)">
			<title>Dynamic connector.210</title>
			<path d="M-0 525.26 L-0 525.62 L-0 536.37 L226.96 536.37 L226.96 545.92" class="st8"/>
		</g>
		<g id="shape211-310" transform="translate(465.457,-233.173)">
			<title>Dynamic connector.211</title>
			<path d="M-0 525.26 L-0 525.62 L-0 534.41 L-82.58 534.41 L-82.58 583.86" class="st8"/>
		</g>
		<g id="shape212-317" transform="translate(529.425,-233.173)">
			<title>Dynamic connector.212</title>
			<path d="M-0 525.26 L-0 525.62 L-0 534.41 L-146.55 534.41 L-146.55 583.86" class="st8"/>
		</g>
		<g id="shape213-324" transform="translate(337.52,-260.102)">
			<title>Dynamic connector.213</title>
			<path d="M0 504.86 L0 504.5 L0 494.96 L-35.06 494.96 L-35.06 484.21" class="st8"/>
		</g>
		<g id="group214-331" transform="translate(475.811,-304.107)">
			<title>Sheet.214</title>
			<g id="shape88-332" transform="translate(4.252,-42.1979)">
				<title>Box.29</title>
				<desc>NCS</desc>
				<rect x="0" y="509.252" width="25.2284" height="5.81109" class="st12"/>
				<text x="39.49" y="515.76" class="st13">NCS</text>			</g>
			<g id="shape108-335" transform="translate(4.15247,-31.0719)">
				<title>Box.31</title>
				<desc>Zephyr</desc>
				<rect x="0" y="509.252" width="25.2284" height="5.81109" class="st14"/>
				<text x="32.46" y="515.76" class="st13">Zephyr</text>			</g>
			<g id="shape131-338">
				<title>Box.34</title>
				<rect x="0" y="463.014" width="77.6565" height="52.049" class="st15"/>
			</g>
			<g id="shape196-340" transform="translate(4.252,-5.38583)">
				<title>Box.196</title>
				<desc>Other</desc>
				<rect x="0" y="509.252" width="25.2284" height="5.81109" class="st16"/>
				<text x="35.1" y="515.76" class="st13">Other</text>			</g>
			<g id="shape197-343" transform="translate(4.252,-18.5669)">
				<title>Box.197</title>
				<desc>Pelion</desc>
				<rect x="0" y="509.252" width="25.2284" height="5.81109" class="st17"/>
				<text x="34.16" y="515.76" class="st13">Pelion</text>			</g>
		</g>
		<g id="shape215-346" transform="translate(146.37,-469.134)">
			<title>Nordic Blue.215</title>
			<desc>LED driver</desc>
			<rect x="0" y="488.134" width="56.315" height="26.9291" class="st11"/>
			<text x="19.01" y="498" class="st2">LED <tspan x="13.75" dy="1.2em" class="st3">driver</tspan></text>		</g>
		<g id="shape216-350" transform="translate(167.441,-469.134)">
			<title>Dynamic connector.216</title>
			<path d="M7.09 525.26 L7.09 525.62 L7.09 541.65" class="st8"/>
		</g>
	</g>
</svg>
