<?xml version="1.0" encoding="UTF-8" standalone="no"?>
<!DOCTYPE svg PUBLIC "-//W3C//DTD SVG 1.1//EN" "http://www.w3.org/Graphics/SVG/1.1/DTD/svg11.dtd">
<!-- Generated by Microsoft Visio, SVG Export pelion_client_architecture.svg Page-1 -->
<svg xmlns="http://www.w3.org/2000/svg" xmlns:xlink="http://www.w3.org/1999/xlink" xmlns:ev="http://www.w3.org/2001/xml-events"
		width="7.31715in" height="6.67945in" viewBox="0 0 526.835 480.921" xml:space="preserve" color-interpolation-filters="sRGB"
		class="st13">
	<style type="text/css">
	<![CDATA[
		.st1 {fill:#00a9ce;stroke:none;stroke-width:1}
		.st2 {fill:#ffffff;font-family:Calibri;font-size:0.833336em}
		.st3 {font-size:1em}
		.st4 {fill:#ee2f4e;stroke:none;stroke-width:1}
		.st5 {marker-end:url(#mrkr13-40);marker-start:url(#mrkr13-38);stroke:#333f48;stroke-linecap:butt;stroke-width:1}
		.st6 {fill:#333f48;fill-opacity:1;stroke:#333f48;stroke-opacity:1;stroke-width:0.28409090909091}
		.st7 {fill:#333f48;stroke:none;stroke-width:1}
		.st8 {fill:#768692;stroke:none;stroke-width:1}
		.st9 {font-size:0.899997em}
		.st10 {fill:none;stroke:#768692;stroke-width:1}
		.st11 {fill:none;stroke:none;stroke-width:1}
		.st12 {fill:#333f48;font-family:Calibri;font-size:0.833336em}
		.st13 {fill:none;fill-rule:evenodd;font-size:12px;overflow:visible;stroke-linecap:square;stroke-miterlimit:3}
	]]>
	</style>

	<defs id="Markers">
		<g id="lend13">
			<path d="M 3 1 L 0 0 L 3 -1 L 3 1 " style="stroke:none"/>
		</g>
		<marker id="mrkr13-38" class="st6" refX="10.2" orient="auto" markerUnits="strokeWidth" overflow="visible">
			<use xlink:href="#lend13" transform="scale(3.52) "/>
		</marker>
		<marker id="mrkr13-40" class="st6" refX="-10.56" orient="auto" markerUnits="strokeWidth" overflow="visible">
			<use xlink:href="#lend13" transform="scale(-3.52,-3.52) "/>
		</marker>
	</defs>
	<g>
		<title>Page-1</title>
		<g id="shape75-1" transform="translate(193.923,-371.297)">
			<title>Nordic Blue</title>
			<desc>CAF buttons</desc>
			<rect x="0" y="455.18" width="53.8285" height="25.7401" class="st1"/>
			<text x="19.06" y="465.05" class="st2">CAF <tspan x="11.09" dy="1.2em" class="st3">buttons</tspan></text>		</g>
		<g id="shape76-5" transform="translate(316.211,-371.297)">
			<title>Nordic Blue.76</title>
			<desc>Power manager</desc>
			<rect x="0" y="455.18" width="53.8285" height="25.7401" class="st1"/>
			<text x="13.89" y="465.05" class="st2">Power <tspan x="8.92" dy="1.2em" class="st3">manager</tspan></text>		</g>
		<g id="shape77-9" transform="translate(1,-166.954)">
			<title>Nordic Blue.137</title>
			<desc>Network LTE module</desc>
			<rect x="0" y="455.18" width="78.378" height="25.7401" class="st1"/>
			<text x="13.46" y="465.05" class="st2">Network LTE <tspan x="23.67" dy="1.2em" class="st3">module</tspan></text>		</g>
		<g id="shape78-13" transform="translate(120.181,-166.954)">
			<title>Nordic Blue.78</title>
			<desc>Network OT module</desc>
			<rect x="0" y="455.18" width="53.8285" height="25.7401" class="st1"/>
			<text x="9.3" y="465.05" class="st2">Network <tspan x="4.52" dy="1.2em" class="st3">OT module</tspan></text>		</g>
		<g id="shape79-17" transform="translate(227.43,-207.003)">
			<title>Nordic Blue.139</title>
			<desc>Pelion module</desc>
			<rect x="0" y="450.791" width="53.8285" height="30.1299" class="st1"/>
			<text x="14.28" y="462.86" class="st2">Pelion <tspan x="11.39" dy="1.2em" class="st3">module</tspan></text>		</g>
		<g id="shape80-21" transform="translate(313.952,-89.8578)">
			<title>Nordic Middle Grey</title>
			<desc>Pelion Device Management library (pelion-dm)</desc>
			<rect x="0" y="439.632" width="123.824" height="41.2887" class="st4"/>
			<text x="6.13" y="457.28" class="st2">Pelion Device Management <tspan x="23.86" dy="1.2em" class="st3">library </tspan>(pelion-dm)</text>		</g>
		<g id="shape81-25" transform="translate(255.067,-371.297)">
			<title>Nordic Blue.141</title>
			<desc>CAF LEDs</desc>
			<rect x="0" y="455.18" width="53.8285" height="25.7401" class="st1"/>
			<text x="8.35" y="471.05" class="st2">CAF LEDs</text>		</g>
		<g id="shape82-28" transform="translate(247.751,-290.154)">
			<title>Nordic Blueslate.142</title>
			<desc>Event Manager</desc>
			<rect x="0" y="446.519" width="68.4595" height="34.4019" class="st1"/>
			<text x="22.74" y="460.72" class="st2">Event <tspan x="15.95" dy="1.2em" class="st3">Manager</tspan></text>		</g>
		<g id="shape83-32" transform="translate(254.344,-207.003)">
			<title>Dynamic connector</title>
			<path d="M0 491.12 L0 491.48 L0 511.7 L121.52 511.7 L121.52 546.22" class="st5"/>
		</g>
		<g id="shape84-41" transform="translate(254.344,-237.133)">
			<title>Dynamic connector.145</title>
			<path d="M0 470.72 L0 470.36 L0 452.57 L27.64 452.57 L27.64 438.46" class="st5"/>
		</g>
		<g id="shape85-48" transform="translate(91.7753,-237.133)">
			<title>Dynamic connector.148</title>
			<path d="M0 470.72 L0 470.36 L0 452.57 L190.21 452.57 L190.21 438.46" class="st5"/>
		</g>
		<g id="shape86-55" transform="translate(40.189,-192.694)">
			<title>Dynamic connector.149</title>
			<path d="M0 470.72 L0 470.36 L0 451.55 L14.11 451.55" class="st5"/>
		</g>
		<g id="shape87-62" transform="translate(343.125,-371.297)">
			<title>Dynamic connector.150</title>
			<path d="M0 491.12 L0 491.48 L0 508.65 L-61.14 508.65 L-61.14 517.1" class="st5"/>
		</g>
		<g id="shape88-69" transform="translate(274.894,-371.297)">
			<title>Dynamic connector.151</title>
			<path d="M7.09 491.12 L7.09 491.48 L7.09 517.1" class="st5"/>
		</g>
		<g id="shape89-76" transform="translate(220.837,-371.297)">
			<title>Dynamic connector.152</title>
			<path d="M0 491.12 L0 491.48 L0 508.65 L61.14 508.65 L61.14 517.1" class="st5"/>
		</g>
		<g id="shape90-83" transform="translate(110.133,-93.3012)">
			<title>Nordic Middle Grey.154</title>
			<desc>OpenThread library</desc>
			<rect x="0" y="446.519" width="73.9248" height="34.4019" class="st7"/>
			<text x="11.59" y="460.72" class="st2">OpenThread <tspan x="23.9" dy="1.2em" class="st3">library</tspan></text>		</g>
		<g id="shape91-87" transform="translate(1,-93.3012)">
			<title>Nordic Middle Grey.155</title>
			<desc>Modem library integration layer</desc>
			<rect x="0" y="446.519" width="78.378" height="34.4019" class="st1"/>
			<text x="8.97" y="460.72" class="st2">Modem library <tspan x="5.51" dy="1.2em" class="st3">integration layer</tspan></text>		</g>
		<g id="shape92-91" transform="translate(33.1024,-166.954)">
			<title>Dynamic connector.156</title>
			<path d="M7.09 491.12 L7.09 491.48 L7.09 509.61" class="st5"/>
		</g>
		<g id="shape93-98" transform="translate(140.008,-166.954)">
			<title>Dynamic connector.157</title>
			<path d="M7.09 491.12 L7.09 491.48 L7.09 509.61" class="st5"/>
		</g>
		<g id="shape94-105" transform="translate(64.8611,-207.003)">
			<title>Nordic Blue.158</title>
			<desc>Net module</desc>
			<rect x="0" y="450.791" width="53.8285" height="30.1299" class="st1"/>
			<text x="19.52" y="462.86" class="st2">Net <tspan x="11.39" dy="1.2em" class="st3">module</tspan></text>		</g>
		<g id="shape95-109" transform="translate(118.69,-222.068)">
			<title>Dynamic connector.159</title>
			<path d="M10.2 480.92 L10.56 480.92 L28.41 480.92 L28.41 499.73" class="st5"/>
		</g>
		<g id="shape96-116" transform="translate(166.286,-207.003)">
			<title>Nordic Blue.160</title>
			<desc>Factory reset</desc>
			<rect x="0" y="450.791" width="53.8285" height="30.1299" class="st1"/>
			<text x="11.79" y="462.86" class="st2">Factory <tspan x="16.56" dy="1.2em" class="st3">reset</tspan></text>		</g>
		<g id="shape97-120" transform="translate(288.574,-207.003)">
			<title>Nordic Blue.161</title>
			<desc>Pelion FCC</desc>
			<rect x="0" y="450.791" width="53.8285" height="30.1299" class="st1"/>
			<text x="5.53" y="468.86" class="st2">Pelion FCC</text>		</g>
		<g id="shape98-123" transform="translate(315.488,-207.003)">
			<title>Dynamic connector.162</title>
			<path d="M0 491.12 L0 491.48 L0 511.54 L60.38 511.54 L60.38 546.22" class="st5"/>
		</g>
		<g id="shape99-130" transform="translate(193.2,-237.133)">
			<title>Dynamic connector.163</title>
			<path d="M0 470.72 L0 470.36 L0 452.57 L88.78 452.57 L88.78 438.46" class="st5"/>
		</g>
		<g id="shape100-137" transform="translate(218.944,-30.1392)">
			<title>Nordic Blue.167</title>
			<desc>OS network subsys</desc>
			<rect x="0" y="455.18" width="64.4003" height="25.7401" class="st8"/>
			<text x="8.45" y="465.05" class="st2">OS network <tspan x="18.82" dy="1.2em" class="st3">subsys</tspan></text>		</g>
		<g id="shape101-141" transform="translate(324.069,-89.8578)">
			<title>Dynamic connector.168</title>
			<path d="M0 491.12 L0 491.48 L0 527.77 L-30.17 527.77" class="st5"/>
		</g>
		<g id="shape102-148" transform="translate(174.64,-93.3012)">
			<title>Dynamic connector.169</title>
			<path d="M0 491.12 L0 491.48 L0 531.21 L33.74 531.21" class="st5"/>
		</g>
		<g id="shape103-155" transform="translate(17.9869,-30.1392)">
			<title>Nordic Blue.170</title>
			<desc>Settings subsys</desc>
			<rect x="0" y="455.18" width="53.8285" height="25.7401" class="st8"/>
			<text x="10.7" y="465.05" class="st2">Settings <tspan x="13.53" dy="1.2em" class="st3">subsys</tspan></text>		</g>
		<g id="shape104-159" transform="translate(110.133,-30.1392)">
			<title>Nordic Blue.171</title>
			<desc>Flash driver</desc>
			<rect x="0" y="455.18" width="53.8285" height="25.7401" class="st8"/>
			<text x="16.49" y="465.05" class="st2">Flash <tspan x="14.91" dy="1.2em" class="st3">driver</tspan></text>		</g>
		<g id="shape105-163" transform="translate(375.864,-89.8578)">
			<title>Dynamic connector.172</title>
			<path d="M0 491.12 L0 491.48 L0 559.65 L-238.82 559.65 L-238.82 551.2" class="st5"/>
		</g>
		<g id="shape106-170" transform="translate(71.8154,-35.9226)">
			<title>Dynamic connector.173</title>
			<path d="M10.2 473.83 L10.56 473.83 L27.76 473.83" class="st5"/>
		</g>
		<g id="shape107-177" transform="translate(44.9012,-55.8793)">
			<title>Dynamic connector.174</title>
			<path d="M0 470.72 L0 470.36 L0 461.91 L75.65 461.91 L75.65 454.06" class="st5"/>
		</g>
		<g id="shape108-184" transform="translate(349.718,-207.003)">
			<title>Nordic Blue.175</title>
			<desc>Pelion trace</desc>
			<rect x="0" y="450.791" width="53.8285" height="30.1299" class="st1"/>
			<text x="14.28" y="462.86" class="st2">Pelion <tspan x="16.5" dy="1.2em" class="st3">trace</tspan></text>		</g>
		<g id="shape109-188" transform="translate(218.944,-93.3012)">
			<title>Nordic Middle Grey.176</title>
			<desc>Mbed TLS</desc>
			<rect x="0" y="446.519" width="60.8763" height="34.402" class="st7"/>
			<text x="10.46" y="466.72" class="st2">Mbed TLS</text>		</g>
		<g id="shape110-191" transform="translate(184.057,-103.416)">
			<title>Dynamic connector.177</title>
			<path d="M10.2 473.83 L10.56 473.83 L24.33 473.83" class="st5"/>
		</g>
		<g id="shape111-198" transform="translate(313.952,-103.416)">
			<title>Dynamic connector.178</title>
			<path d="M-10.2 473.83 L-10.56 473.83 L-23.57 473.83" class="st5"/>
		</g>
		<g id="shape112-205" transform="translate(376.632,-237.133)">
			<title>Dynamic connector.183</title>
			<path d="M0 470.72 L0 470.36 L0 452.57 L-94.65 452.57 L-94.65 438.46" class="st5"/>
		</g>
		<g id="shape113-212" transform="translate(193.923,-440.999)">
			<title>Nordic Blue.186</title>
			<desc>GPIO driver</desc>
			<rect x="0" y="455.18" width="53.8285" height="25.7401" class="st8"/>
			<text x="16.61" y="465.05" class="st2">GPIO <tspan x="14.91" dy="1.2em" class="st3">driver</tspan></text>		</g>
		<g id="shape114-216" transform="translate(255.067,-440.999)">
			<title>Nordic Blue.187</title>
			<desc>PWM driver</desc>
			<rect x="0" y="455.18" width="53.8285" height="25.7401" class="st8"/>
			<text x="15.61" y="465.05" class="st2">PWM <tspan x="14.91" dy="1.2em" class="st3">driver</tspan></text>		</g>
		<g id="shape115-220" transform="translate(316.211,-440.999)">
			<title>Nordic Blue.188</title>
			<desc>OS power mgmt</desc>
			<rect x="0" y="455.18" width="53.8285" height="25.7401" class="st8"/>
			<text x="7.11" y="465.05" class="st2">OS power <tspan x="14.9" dy="1.2em" class="st3">mgmt</tspan></text>		</g>
		<g id="shape116-224" transform="translate(213.75,-397.037)">
			<title>Dynamic connector.192</title>
			<path d="M7.09 470.72 L7.09 470.36 L7.09 447.52" class="st5"/>
		</g>
		<g id="shape117-231" transform="translate(274.894,-397.037)">
			<title>Dynamic connector.193</title>
			<path d="M7.09 470.72 L7.09 470.36 L7.09 447.52" class="st5"/>
		</g>
		<g id="shape118-238" transform="translate(336.038,-397.037)">
			<title>Dynamic connector.194</title>
			<path d="M7.09 470.72 L7.09 470.36 L7.09 447.52" class="st5"/>
		</g>
		<g id="shape119-245" transform="translate(410.862,-207.003)">
			<title>Nordic Blue.198</title>
			<desc>OMA stopwatch</desc>
			<rect x="0" y="450.791" width="53.8285" height="30.1299" class="st1"/>
			<text x="16.44" y="462.86" class="st2">OMA <tspan x="5.63" dy="1.2em" class="st3">stopwatch</tspan></text>		</g>
		<g id="shape120-249" transform="translate(377.355,-371.297)">
			<title>Nordic Blue.199</title>
			<desc>DFU module</desc>
			<rect x="0" y="455.18" width="53.8285" height="25.7401" class="st1"/>
			<text x="18.33" y="465.05" class="st2">DFU <tspan x="11.39" dy="1.2em" class="st3">module</tspan></text>		</g>
		<g id="shape121-253" transform="translate(281.981,-290.154)">
			<title>Dynamic connector.200</title>
			<path d="M0 491.12 L0 491.48 L0 505.59 L155.8 505.59 L155.8 523.38" class="st5"/>
		</g>
		<g id="shape122-260" transform="translate(404.269,-371.297)">
			<title>Dynamic connector.201</title>
			<path d="M0 491.12 L0 491.48 L0 508.65 L-122.29 508.65 L-122.29 517.1" class="st5"/>
		</g>
		<g id="shape123-267" transform="translate(369.162,-131.146)">
			<title>Dynamic connector.202</title>
			<path d="M6.81 470.72 L6.81 470.36 L7.36 415.62" class="st5"/>
		</g>
		<g id="shape124-274" transform="translate(193.2,-207.003)">
			<title>Dynamic connector.203</title>
			<path d="M0 491.12 L0 491.48 L0 542.58 L-18.16 542.58 L-18.16 549.66" class="st5"/>
		</g>
		<g id="shape125-281" transform="translate(193.2,-207.003)">
			<title>Dynamic connector.204</title>
			<path d="M0 491.12 L0 491.48 L0 542.58 L132.08 542.58 L132.08 546.22" class="st5"/>
		</g>
		<g id="shape126-288" transform="translate(132.779,-371.297)">
			<title>Nordic Blue.205</title>
			<desc>LED state</desc>
			<rect x="0" y="455.18" width="53.8285" height="25.7401" class="st1"/>
			<text x="7.98" y="471.05" class="st2">LED state</text>		</g>
		<g id="shape127-291" transform="translate(159.693,-371.297)">
			<title>Dynamic connector.207</title>
			<path d="M0 491.12 L0 491.48 L0 508.65 L122.29 508.65 L122.29 517.1" class="st5"/>
		</g>
		<g id="shape128-298" transform="translate(472.006,-207.003)">
			<title>Nordic Blue.209</title>
			<desc>OMA digital input</desc>
			<rect x="0" y="450.791" width="53.8285" height="30.1299" class="st1"/>
			<text x="16.44" y="462.86" class="st2">OMA <tspan x="5.02" dy="1.333em" class="st9">digital input</tspan></text>		</g>
		<g id="shape129-302" transform="translate(281.981,-290.154)">
			<title>Dynamic connector.210</title>
			<path d="M0 491.12 L0 491.48 L0 505.59 L216.94 505.59 L216.94 523.38" class="st5"/>
		</g>
		<g id="shape130-309" transform="translate(437.776,-207.003)">
			<title>Dynamic connector.211</title>
			<path d="M0 491.12 L0 491.48 L0 511.67 L-61.91 511.67 L-61.91 546.22" class="st5"/>
		</g>
		<g id="shape131-316" transform="translate(498.92,-207.003)">
			<title>Dynamic connector.212</title>
			<path d="M0 491.12 L0 491.48 L0 511.67 L-123.06 511.67 L-123.06 546.22" class="st5"/>
		</g>
		<g id="shape132-323" transform="translate(315.488,-237.133)">
			<title>Dynamic connector.213</title>
			<path d="M0 470.72 L0 470.36 L0 452.57 L-33.51 452.57 L-33.51 438.46" class="st5"/>
		</g>
		<g id="shape133-330" transform="translate(132.779,-440.999)">
			<title>Nordic Blue.215</title>
			<desc>LED driver</desc>
			<rect x="0" y="455.18" width="53.8285" height="25.7401" class="st8"/>
			<text x="19.29" y="465.05" class="st2">LED <tspan x="14.91" dy="1.2em" class="st3">driver</tspan></text>		</g>
		<g id="shape134-334" transform="translate(152.606,-440.999)">
			<title>Dynamic connector.216</title>
			<path d="M7.09 491.12 L7.09 491.48 L7.09 514.32" class="st5"/>
		</g>
		<g id="shape135-341" transform="translate(1,-389.903)">
			<title>Nordic Light Grey.2333</title>
			<rect x="0" y="390.903" width="78.378" height="90.018" class="st10"/>
		</g>
		<g id="shape136-343" transform="translate(5.89191,-457.375)">
			<title>Nordic Blue.1617</title>
			<rect x="0" y="465.215" width="15.4576" height="15.7058" class="st1"/>
		</g>
		<g id="shape137-345" transform="translate(21.3495,-457.375)">
			<title>Sheet.137</title>
			<desc>NCS</desc>
			<rect x="0" y="465.215" width="57.4615" height="15.7058" class="st11"/>
			<text x="4" y="476.67" class="st12">NCS</text>		</g>
		<g id="shape138-348" transform="translate(5.89191,-438.619)">
			<title>Nordic Blue.1618</title>
			<rect x="0" y="465.215" width="15.4576" height="15.7058" class="st8"/>
		</g>
		<g id="shape139-350" transform="translate(21.3495,-438.619)">
			<title>Sheet.139</title>
			<desc>Zephyr</desc>
			<rect x="0" y="465.215" width="57.4615" height="15.7058" class="st11"/>
			<text x="4" y="476.67" class="st12">Zephyr</text>		</g>
		<g id="shape140-353" transform="translate(5.89191,-419.862)">
			<title>Nordic Blue.2341</title>
			<rect x="0" y="465.215" width="15.4576" height="15.7058" class="st4"/>
		</g>
		<g id="shape141-355" transform="translate(21.3495,-419.862)">
			<title>Sheet.141</title>
			<desc>Pelion</desc>
			<rect x="0" y="465.215" width="57.4615" height="15.7058" class="st11"/>
			<text x="4" y="476.67" class="st12">Pelion</text>		</g>
		<g id="shape142-358" transform="translate(5.89191,-397.317)">
			<title>Nordic Blue.226</title>
			<rect x="0" y="465.215" width="15.4576" height="15.7058" class="st7"/>
		</g>
		<g id="shape143-360" transform="translate(21.3495,-397.317)">
			<title>Sheet.143</title>
			<desc>Other</desc>
			<rect x="0" y="465.215" width="57.4615" height="15.7058" class="st11"/>
			<text x="4" y="476.67" class="st12">Other</text>		</g>
	</g>
</svg>
