<?xml version="1.0" encoding="UTF-8" standalone="no"?>
<!DOCTYPE svg PUBLIC "-//W3C//DTD SVG 1.1//EN" "http://www.w3.org/Graphics/SVG/1.1/DTD/svg11.dtd">
<!-- Generated by Microsoft Visio, SVG Export pelion_client_states.svg Page-1 -->
<svg xmlns="http://www.w3.org/2000/svg" xmlns:xlink="http://www.w3.org/1999/xlink" xmlns:ev="http://www.w3.org/2001/xml-events"
		width="6.41535in" height="7.89983in" viewBox="0 0 461.905 568.787" xml:space="preserve" color-interpolation-filters="sRGB"
		class="st26">
	<style type="text/css">
	<![CDATA[
		.st1 {marker-end:url(#mrkr13-9);marker-start:url(#mrkr13-7);stroke:#f58220;stroke-linecap:butt;stroke-width:1}
		.st2 {fill:#f58220;fill-opacity:1;stroke:#f58220;stroke-opacity:1;stroke-width:0.28409090909091}
		.st3 {marker-end:url(#mrkr13-15);stroke:#333f48;stroke-linecap:butt;stroke-width:1}
		.st4 {fill:#333f48;fill-opacity:1;stroke:#333f48;stroke-opacity:1;stroke-width:0.28409090909091}
		.st5 {fill:#d9e1e2;stroke:none;stroke-width:1}
		.st6 {fill:#333f48;font-family:Calibri;font-size:0.75em}
		.st7 {font-size:1em}
		.st8 {marker-end:url(#mrkr13-9);stroke:#f58220;stroke-dasharray:8,4,1,4;stroke-linecap:butt;stroke-width:1}
		.st9 {marker-end:url(#mrkr13-9);stroke:#f58220;stroke-dasharray:8,4;stroke-linecap:butt;stroke-width:1}
		.st10 {marker-end:url(#mrkr13-9);stroke:#f58220;stroke-linecap:butt;stroke-width:1}
		.st11 {marker-end:url(#mrkr13-15);marker-start:url(#mrkr13-79);stroke:#333f48;stroke-linecap:butt;stroke-width:1}
		.st12 {fill:#768692;stroke:none;stroke-width:1}
		.st13 {fill:#ffffff;font-family:Calibri;font-size:1.00001em}
		.st14 {fill:#00a9ce;stroke:none;stroke-width:1}
		.st15 {fill:#feffff;font-family:Calibri;font-size:0.916672em}
		.st16 {fill:#0033a0;stroke:none;stroke-width:1}
		.st17 {fill:#feffff;font-family:Calibri;font-size:0.833336em}
		.st18 {fill:#f58220;stroke:none;stroke-width:1}
		.st19 {fill:#feffff;font-family:Calibri;font-size:1.00001em}
		.st20 {fill:#ffffff;font-family:Calibri;font-size:0.916672em}
		.st21 {marker-start:url(#mrkr13-79);stroke:#333f48;stroke-linecap:butt;stroke-width:1}
		.st22 {fill:none;stroke:none;stroke-width:1}
		.st23 {fill:#333f48;font-family:Calibri;font-size:0.666664em}
		.st24 {fill:none;stroke:#768692;stroke-width:1}
		.st25 {fill:#333f48;font-family:Calibri;font-size:0.833336em}
		.st26 {fill:none;fill-rule:evenodd;font-size:12px;overflow:visible;stroke-linecap:square;stroke-miterlimit:3}
	]]>
	</style>

	<defs id="Markers">
		<g id="lend13">
			<path d="M 3 1 L 0 0 L 3 -1 L 3 1 " style="stroke:none"/>
		</g>
		<marker id="mrkr13-7" class="st2" refX="10.2" orient="auto" markerUnits="strokeWidth" overflow="visible">
			<use xlink:href="#lend13" transform="scale(3.52) "/>
		</marker>
		<marker id="mrkr13-9" class="st2" refX="-10.56" orient="auto" markerUnits="strokeWidth" overflow="visible">
			<use xlink:href="#lend13" transform="scale(-3.52,-3.52) "/>
		</marker>
		<marker id="mrkr13-15" class="st4" refX="-10.56" orient="auto" markerUnits="strokeWidth" overflow="visible">
			<use xlink:href="#lend13" transform="scale(-3.52,-3.52) "/>
		</marker>
		<marker id="mrkr13-79" class="st4" refX="10.2" orient="auto" markerUnits="strokeWidth" overflow="visible">
			<use xlink:href="#lend13" transform="scale(3.52) "/>
		</marker>
	</defs>
	<g>
		<title>Page-1</title>
		<g id="shape40-1" transform="translate(96.3591,-364.792)">
			<title>Dynamic connector.72</title>
			<path d="M7.09 578.99 L7.09 579.35 L7.09 683.23" class="st1"/>
		</g>
		<g id="shape41-10" transform="translate(320.909,-530.703)">
			<title>Dynamic connector.73</title>
			<path d="M7.09 568.79 L7.09 602.64" class="st3"/>
		</g>
		<g id="shape42-16" transform="translate(300.988,-364.393)">
			<title>Nordic Blue.92</title>
			<desc>Setup procedure</desc>
			<rect x="0" y="530.907" width="54.0153" height="37.8808" class="st5"/>
			<text x="16.47" y="547.15" class="st6">Setup <tspan x="8.02" dy="1.2em" class="st7">procedure</tspan></text>		</g>
		<g id="shape43-20" transform="translate(360.092,-202.302)">
			<title>Nordic Blue.43</title>
			<desc>Pause procedure</desc>
			<rect x="0" y="530.907" width="54.0153" height="37.8808" class="st5"/>
			<text x="16.16" y="547.15" class="st6">Pause <tspan x="8.02" dy="1.2em" class="st7">procedure</tspan></text>		</g>
		<g id="shape44-24" transform="translate(254.689,-174.01)">
			<title>Nordic Blue.91</title>
			<desc>Resume procedure</desc>
			<rect x="0" y="530.907" width="54.0153" height="37.8808" class="st5"/>
			<text x="12.37" y="547.15" class="st6">Resume <tspan x="8.02" dy="1.2em" class="st7">procedure</tspan></text>		</g>
		<g id="shape45-28" transform="translate(320.909,-449.202)">
			<title>Dynamic connector.78</title>
			<path d="M7.09 568.79 L7.09 605.16" class="st3"/>
		</g>
		<g id="shape46-33" transform="translate(320.909,-364.393)">
			<title>Dynamic connector.79</title>
			<path d="M7.09 568.79 L7.09 609.46" class="st3"/>
		</g>
		<g id="shape47-38" transform="translate(176.752,-376.247)">
			<title>Dynamic connector.81</title>
			<path d="M0 561.7 L113.68 561.7" class="st8"/>
		</g>
		<g id="shape48-43" transform="translate(176.752,-214.156)">
			<title>Dynamic connector.82</title>
			<path d="M0 561.7 L16.65 561.7 A2.3622 2.3622 0 1 1 21.37 561.7 L102.58 561.7 A2.3622 2.3622 0 0 1 107.31 561.7 L148.88
						 561.7 A2.3622 2.3622 0 0 1 153.61 561.7 L172.78 561.7" class="st9"/>
		</g>
		<g id="shape49-48" transform="translate(176.752,-383.334)">
			<title>Dynamic connector.83</title>
			<path d="M0 568.79 L19.01 568.79 L19.01 759.17 L67.38 759.17" class="st8"/>
		</g>
		<g id="shape50-53" transform="translate(380.013,-275.677)">
			<title>Dynamic connector.86</title>
			<path d="M7.09 568.79 L7.09 593.72" class="st3"/>
		</g>
		<g id="shape52-58" transform="translate(288.788,-123.291)">
			<title>Dynamic connector.89</title>
			<path d="M-7.08 568.79 L-7.09 528.63" class="st3"/>
		</g>
		<g id="shape55-63" transform="translate(37.2258,-532.226)">
			<title>Dynamic connector.55</title>
			<path d="M-7.09 568.79 L-26.09 568.79 L-26.09 717.68 L-17.65 717.68" class="st10"/>
		</g>
		<g id="shape56-68" transform="translate(23.0526,-532.226)">
			<title>Dynamic connector.109</title>
			<path d="M7.09 568.79 L-11.92 568.79 L-11.92 879.77 L-3.47 879.77" class="st10"/>
		</g>
		<g id="shape59-73" transform="translate(408.388,-294.614)">
			<title>Dynamic connector.111</title>
			<path d="M3.11 568.79 L3.47 568.79 L42.39 568.79 L42.39 833.83 L3.47 833.83" class="st11"/>
		</g>
		<g id="shape65-81" transform="translate(254.689,-530.703)">
			<title>Nordic Light Grey</title>
			<desc>PELION_STATE_DISABLED</desc>
			<rect x="0" y="531.703" width="146.613" height="37.084" class="st12"/>
			<text x="10.58" y="553.85" class="st13">PELION_STATE_DISABLED</text>		</g>
		<g id="shape67-84" transform="translate(254.689,-449.202)">
			<title>Nordic Sky</title>
			<desc>PELION_STATE_INITIALIZED</desc>
			<rect x="0" y="531.703" width="146.613" height="37.084" class="st14"/>
			<text x="11.74" y="553.85" class="st15">PELION_STATE_INITIALIZED</text>		</g>
		<g id="shape69-87" transform="translate(254.689,-276.072)">
			<title>Nordic Blue</title>
			<desc>PELION_STATE_REGISTERED</desc>
			<rect x="0" y="531.703" width="146.613" height="37.084" class="st16"/>
			<text x="10.18" y="553.85" class="st15">PELION_STATE_REGISTERED</text>		</g>
		<g id="shape71-90" transform="translate(254.689,-86.2066)">
			<title>Nordic Blue.71</title>
			<desc>PELION_STATE_UNREGISTERED</desc>
			<rect x="0" y="531.703" width="146.613" height="37.084" class="st14"/>
			<text x="9.48" y="553.85" class="st17">PELION_STATE_UNREGISTERED</text>		</g>
		<g id="shape110-93" transform="translate(254.689,-1)">
			<title>Nordic Blue.110</title>
			<desc>PELION_STATE_SUSPENDED</desc>
			<rect x="0" y="531.703" width="146.613" height="37.084" class="st14"/>
			<text x="10.54" y="553.85" class="st15">PELION_STATE_SUSPENDED</text>		</g>
		<g id="shape112-96" transform="translate(320.909,-38.084)">
			<title>Dynamic connector.112</title>
			<path d="M7.09 558.59 L7.09 558.23 L7.09 531.22" class="st11"/>
		</g>
		<g id="shape113-103" transform="translate(30.1392,-513.683)">
			<title>Nordic Light Grey.113</title>
			<desc>NET_STATE_DISABLED</desc>
			<rect x="0" y="531.703" width="146.613" height="37.084" class="st18"/>
			<text x="18.76" y="553.85" class="st19">NET_STATE_DISABLED</text>		</g>
		<g id="shape115-106" transform="translate(30.1392,-364.792)">
			<title>Nordic Light Grey.115</title>
			<desc>NET_STATE_CONNECTED</desc>
			<rect x="0" y="531.703" width="146.613" height="37.084" class="st18"/>
			<text x="12.01" y="553.85" class="st13">NET_STATE_CONNECTED</text>		</g>
		<g id="shape154-109" transform="translate(30.1392,-202.7)">
			<title>Nordic Light Grey.154</title>
			<desc>NET_STATE_DISCONNECTED</desc>
			<rect x="0" y="531.703" width="146.613" height="37.084" class="st18"/>
			<text x="9.82" y="553.85" class="st20">NET_STATE_DISCONNECTED</text>		</g>
		<g id="shape51-112" transform="translate(274.61,-275.677)">
			<title>Dynamic connector.88</title>
			<path d="M7.09 578.99 L7.09 579.35 L7.09 632.57" class="st21"/>
		</g>
		<g id="shape53-117" transform="translate(320.909,-123.291)">
			<title>Dynamic connector.85</title>
			<path d="M7.09 558.59 L7.09 558.23 L7.09 426.57" class="st11"/>
		</g>
		<g id="shape54-124" transform="translate(380.091,-202.302)">
			<title>Dynamic connector.87</title>
			<path d="M7.01 568.79 L7.14 637.24" class="st3"/>
		</g>
		<g id="shape156-129" transform="translate(330.385,-42.8841)">
			<title>Sheet.156</title>
			<desc>Device suspended on Pelion Device Management Portal</desc>
			<rect x="0" y="530.907" width="120.472" height="37.8808" class="st22"/>
			<text x="4" y="547.45" class="st23">Device suspended on <tspan x="4" dy="1.2em" class="st7">Pelion Device Management Portal</tspan></text>		</g>
		<g id="shape158-133" transform="translate(390.39,-252.233)">
			<title>Sheet.158</title>
			<desc>Network disconnected</desc>
			<rect x="0" y="548.787" width="59.5524" height="20" class="st22"/>
			<text x="4" y="555.04" class="st6">Network <tspan x="4" dy="1.25em" class="st7">disconnected</tspan></text>		</g>
		<g id="shape161-137" transform="translate(49.7597,-1)">
			<title>Nordic Light Grey.2333</title>
			<rect x="0" y="501.89" width="107.372" height="66.8976" class="st24"/>
		</g>
		<g id="shape162-139" transform="translate(54.6516,-45.3524)">
			<title>Nordic Blue.1617</title>
			<rect x="0" y="553.082" width="7.29706" height="15.7058" class="st14"/>
		</g>
		<g id="shape163-141" transform="translate(70.1092,-45.3524)">
			<title>Sheet.163</title>
			<desc>Pelion state</desc>
			<rect x="0" y="553.082" width="87.0226" height="15.7058" class="st22"/>
			<text x="4" y="564.53" class="st25">Pelion state</text>		</g>
		<g id="shape164-144" transform="translate(54.6516,-26.5959)">
			<title>Nordic Blue.1618</title>
			<rect x="0" y="553.082" width="15.4576" height="15.7058" class="st18"/>
		</g>
		<g id="shape165-146" transform="translate(70.1092,-26.5959)">
			<title>Sheet.165</title>
			<desc>Network state</desc>
			<rect x="0" y="553.082" width="87.0226" height="15.7058" class="st22"/>
			<text x="4" y="564.53" class="st25">Network state</text>		</g>
		<g id="shape166-149" transform="translate(54.6516,-7.83943)">
			<title>Nordic Blue.2341</title>
			<rect x="0" y="553.082" width="15.4576" height="15.7058" class="st5"/>
		</g>
		<g id="shape167-151" transform="translate(70.1092,-7.83943)">
			<title>Sheet.167</title>
			<desc>Internal procedure</desc>
			<rect x="0" y="553.082" width="87.0226" height="15.7058" class="st22"/>
			<text x="4" y="564.53" class="st25">Internal procedure</text>		</g>
		<g id="shape168-154" transform="translate(61.9486,-45.3524)">
			<title>Nordic Blue.168</title>
			<rect x="0" y="553.082" width="8.16053" height="15.7058" class="st16"/>
		</g>
		<g id="shape170-156" transform="translate(337.365,-494.321)">
			<title>Sheet.170</title>
			<desc>fcc_init() cloud_client-&#62;init()</desc>
			<rect x="0" y="540.441" width="79.3701" height="28.3465" class="st22"/>
			<text x="4" y="550.11" class="st6">fcc_init()<tspan x="4" dy="1.5em" class="st7">cloud_client</tspan>-&#62;init()</text>		</g>
		<g id="shape172-160" transform="translate(337.365,-412.82)">
			<title>Sheet.172</title>
			<desc>Resources created, network connected</desc>
			<rect x="0" y="540.441" width="90.7087" height="28.3465" class="st22"/>
			<text x="4" y="550.11" class="st6">Resources created, <tspan x="4" dy="1.5em" class="st7">network connected</tspan></text>		</g>
		<g id="shape175-164" transform="translate(337.365,-327.835)">
			<title>Sheet.175</title>
			<desc>Connected to Pelion DM Portal and recognized</desc>
			<rect x="0" y="540.441" width="122.457" height="28.3465" class="st22"/>
			<text x="4" y="550.11" class="st6">Connected to Pelion DM Portal <tspan x="4" dy="1.5em" class="st7">and recognized</tspan></text>		</g>
		<g id="shape180-168" transform="translate(281.696,-230.217)">
			<title>Sheet.180</title>
			<desc>Connection to Portal restored</desc>
			<rect x="0" y="540.441" width="46.2989" height="28.3465" class="st22"/>
			<text x="4.55" y="546.21" class="st23">Connection <tspan x="9.05" dy="1.2em" class="st7">to Portal </tspan><tspan
						x="9.26" dy="1.425em" class="st7">restored</tspan></text>		</g>
		<g id="shape182-173" transform="translate(327.995,-150.552)">
			<title>Sheet.182</title>
			<desc>Cannot contact Portal server Rejected by Portal</desc>
			<rect x="0" y="531.703" width="58.5539" height="37.084" class="st22"/>
			<text x="4.48" y="532.85" class="st23">Cannot contact  <tspan x="8.49" dy="1.2em" class="st7">Portal server  </tspan><tspan
						x="10.23" dy="2.4em" class="st7">Rejected by </tspan><tspan x="19.53" dy="1.312em" class="st7">Portal</tspan></text>		</g>
		<g id="shape184-179" transform="translate(188.83,-128.67)">
			<title>Sheet.184</title>
			<desc>Reconnection attempt</desc>
			<rect x="0" y="540.441" width="92.8668" height="28.3465" class="st22"/>
			<text x="4" y="557.31" class="st6">Reconnection attempt</text>		</g>
	</g>
</svg>
