<?xml version="1.0" encoding="UTF-8" standalone="no"?>
<!DOCTYPE svg PUBLIC "-//W3C//DTD SVG 1.1//EN" "http://www.w3.org/Graphics/SVG/1.1/DTD/svg11.dtd">
<!-- Generated by Microsoft Visio, SVG Export sequence_diagram.svg Page-1 -->
<svg xmlns="http://www.w3.org/2000/svg" xmlns:xlink="http://www.w3.org/1999/xlink" xmlns:ev="http://www.w3.org/2001/xml-events"
		width="7.76315in" height="6.52384in" viewBox="0 0 558.947 469.717" xml:space="preserve" color-interpolation-filters="sRGB"
		class="st16">
	<style type="text/css">
	<![CDATA[
		.st1 {fill:#d9e1e2;stroke:none;stroke-width:1}
		.st2 {fill:#00a9ce;stroke:none;stroke-width:1}
		.st3 {fill:#ffffff;font-family:Arial;font-size:0.916672em}
		.st4 {font-size:1em}
		.st5 {stroke:#00a9ce;stroke-dasharray:8,4;stroke-linecap:butt;stroke-width:1}
		.st6 {fill:#0077c8;stroke:none;stroke-width:1}
		.st7 {fill:#feffff;font-family:Arial;font-size:0.833336em}
		.st8 {fill:#feffff;stroke:#0077c8;stroke-dasharray:0.5,1;stroke-width:0.5}
		.st9 {fill:#00a9ce;font-family:Arial;font-size:0.583328em}
		.st10 {fill:#caffff;stroke:#0077c8;stroke-dasharray:0.5,1;stroke-width:0.5}
		.st11 {marker-end:url(#mrkr4-46);stroke:#00a9ce;stroke-linecap:butt;stroke-width:1}
		.st12 {fill:#00a9ce;fill-opacity:1;stroke:#00a9ce;stroke-opacity:1;stroke-width:0.28409090909091}
		.st13 {fill:none;stroke:none;stroke-width:1}
		.st14 {fill:#00a9ce;font-family:Arial;font-size:0.666664em}
		.st15 {stroke:#00a9ce;stroke-linecap:butt;stroke-width:1}
		.st16 {fill:none;fill-rule:evenodd;font-size:12px;overflow:visible;stroke-linecap:square;stroke-miterlimit:3}
	]]>
	</style>

	<defs id="Markers">
		<g id="lend4">
			<path d="M 2 1 L 0 0 L 2 -1 L 2 1 " style="stroke:none"/>
		</g>
		<marker id="mrkr4-46" class="st12" refX="-7.04" orient="auto" markerUnits="strokeWidth" overflow="visible">
			<use xlink:href="#lend4" transform="scale(-3.52,-3.52) "/>
		</marker>
	</defs>
	<g>
		<title>Page-1</title>
		<g id="shape10-1" transform="translate(118.753,-40.1181)">
			<title>Nordic Light Grey</title>
			<rect x="0" y="239.745" width="439.194" height="229.971" class="st1"/>
		</g>
		<g id="shape5-3" transform="translate(1,-413.05)">
			<title>Nordic Blue</title>
			<desc>Network module</desc>
			<rect x="0" y="415.076" width="80.934" height="54.6402" class="st2"/>
			<text x="20.3" y="439.1" class="st3">Network <tspan x="22.43" dy="1.2em" class="st4">module</tspan></text>		</g>
		<g id="shape6-7" transform="translate(133.806,-413.05)">
			<title>Nordic Blue.6</title>
			<desc>Transport module</desc>
			<rect x="0" y="415.076" width="80.934" height="54.6402" class="st2"/>
			<text x="16.93" y="439.1" class="st3">Transport <tspan x="22.43" dy="1.2em" class="st4">module</tspan></text>		</g>
		<g id="shape7-11" transform="translate(235.364,-414.076)">
			<title>Nordic Blue.7</title>
			<desc>Sampler module</desc>
			<rect x="0" y="415.076" width="80.934" height="54.6402" class="st2"/>
			<text x="19.99" y="439.1" class="st3">Sampler <tspan x="22.43" dy="1.2em" class="st4">module</tspan></text>		</g>
		<g id="shape8-15" transform="translate(336.923,-414.076)">
			<title>Nordic Blue.8</title>
			<desc>Trigger module</desc>
			<rect x="0" y="415.076" width="80.934" height="54.6402" class="st2"/>
			<text x="23.05" y="439.1" class="st3">Trigger <tspan x="22.43" dy="1.2em" class="st4">module</tspan></text>		</g>
		<g id="shape13-19" transform="translate(34.9512,-413.05)">
			<title>Dynamic connector</title>
			<path d="M6.52 469.72 L7.66 881.77" class="st5"/>
		</g>
		<g id="shape14-22" transform="translate(167.968,-413.05)">
			<title>Dynamic connector.14</title>
			<path d="M6.3 469.72 L7.87 881.77" class="st5"/>
		</g>
		<g id="shape12-25" transform="translate(118.753,-242.971)">
			<title>Snip Corner Rectangle</title>
			<desc>loop</desc>
			<path d="M0 469.72 L55.67 469.72 L68.81 456.57 L68.81 443.42 L68.81 443.42 L0 443.42 L0 469.72 Z" class="st6"/>
			<text x="24.95" y="459.57" class="st7">loop</text>		</g>
		<g id="shape15-28" transform="translate(271.189,-414.076)">
			<title>Dynamic connector.15</title>
			<path d="M4.64 469.72 L9.53 882.79" class="st5"/>
		</g>
		<g id="shape16-31" transform="translate(375.309,-414.076)">
			<title>Dynamic connector.16</title>
			<path d="M5.3 469.72 L8.87 882.79" class="st5"/>
		</g>
		<g id="group18-34" transform="translate(184.693,604.712) scale(1,-1)">
			<title>Folded Corner</title>
			<desc>mqtt_helper_connect() mqtt_helper_subscribe()</desc>
			<g id="shape18-35">
				<path d="M0 469.72 L83.97 469.72 L90 463.55 L90 441.8 L0 441.8 L0 469.72 Z" class="st8"/>
				<text x="4" y="-459.42" transform="scale(1,-1)" class="st9">mqtt_helper_connect() <tspan x="4" dy="1.2em"
							class="st4">mqtt_helper_subscribe()</tspan></text>			</g>
			<g id="shape19-39" transform="translate(83.8371,0)">
				<title>Sheet.19</title>
				<path d="M0.13 469.72 L6.17 463.55 L0 463.68 L0.13 469.72 Z" class="st10"/>
			</g>
		</g>
		<g id="shape20-41" transform="translate(41.6243,-349.71)">
			<title>Dynamic connector.20</title>
			<path d="M0 463.17 L125.82 462.15" class="st11"/>
		</g>
		<g id="shape22-47" transform="translate(39.4423,-350.254)">
			<title>Sheet.22</title>
			<desc>Channel: Network Payload: NETWORK_CONNECTED</desc>
			<rect x="0" y="422.12" width="146.099" height="47.5961" class="st13"/>
			<text x="4" y="443.52" class="st14">Channel: Network <tspan x="4" dy="1.2em" class="st4">Payload: NETWORK_CONNECTED</tspan></text>		</g>
		<g id="shape23-51" transform="translate(167.394,-351.251)">
			<title>Dynamic connector.23</title>
		</g>
		<g id="shape25-52" transform="translate(172.572,-313.583)">
			<title>Dynamic connector.25</title>
			<path d="M2.05 462.72 L12.12 462.54" class="st15"/>
		</g>
		<g id="group27-55" transform="translate(393.802,683.748) scale(1,-1)">
			<title>Folded Corner.27</title>
			<desc>Timeout trigger or button press</desc>
			<g id="shape27-56">
				<path d="M0 469.72 L104.38 469.72 L110.48 464.03 L110.48 451.72 L0 451.72 L0 469.72 Z" class="st8"/>
				<text x="4" y="-459.42" transform="scale(1,-1)" class="st9">Timeout trigger or button press</text>			</g>
			<g id="shape28-59" transform="translate(104.381,0)">
				<title>Sheet.28</title>
				<path d="M0 469.72 L6.1 464.03 L0.43 463.63 L0 469.72 Z" class="st10"/>
			</g>
		</g>
		<g id="shape29-61" transform="translate(381.706,-237.925)">
			<title>Dynamic connector.29</title>
			<path d="M2.37 462.72 L11.8 462.54" class="st15"/>
		</g>
		<g id="shape31-64" transform="translate(293.084,-185.252)">
			<title>Sheet.31</title>
			<desc>Channel: Trigger Payload: None</desc>
			<rect x="0" y="441.804" width="68.8135" height="27.913" class="st13"/>
			<text x="4" y="453.36" class="st14">Channel: Trigger <tspan x="4" dy="1.2em" class="st4">Payload: None</tspan></text>		</g>
		<g id="shape33-68" transform="translate(382.591,-192.055)">
			<title>Dynamic connector.33</title>
			<path d="M0 476.8 L-97.01 476.81" class="st11"/>
		</g>
		<g id="shape35-73" transform="translate(192.607,-114.819)">
			<title>Sheet.35</title>
			<desc>Channel: Payload Payload: String</desc>
			<rect x="0" y="441.804" width="85.2772" height="27.913" class="st13"/>
			<text x="4" y="453.36" class="st14">Channel: Payload  <tspan x="4" dy="1.2em" class="st4">Payload: String</tspan></text>		</g>
		<g id="shape36-77" transform="translate(280.366,-117.908)">
			<title>Dynamic connector.36</title>
			<path d="M0 476.7 L-97.91 476.9" class="st11"/>
		</g>
		<g id="group1000-82" transform="translate(185.827,865.441) scale(1,-1)">
			<title>Folded Corner.1000</title>
			<desc>mqtt_helper_publish()</desc>
			<g id="shape1000-83">
				<path d="M0 469.72 L73.73 469.72 L77.88 464.15 L77.88 451.29 L0 451.29 L0 469.72 Z" class="st8"/>
				<text x="4" y="-459.42" transform="scale(1,-1)" class="st9">mqtt_helper_publish()</text>			</g>
			<g id="shape1001-86" transform="translate(72.5471,0)">
				<title>Sheet.1001</title>
				<path d="M1.18 469.72 L5.34 464.15 L0 465.73 L1.18 469.72 Z" class="st10"/>
			</g>
		</g>
		<g id="shape1002-88" transform="translate(174.899,-57.6929)">
			<title>Dynamic connector.1002</title>
			<path d="M3.25 462.63 L10.93 462.63" class="st15"/>
		</g>
	</g>
</svg>
