<?xml version="1.0" encoding="utf-8"?>
<!-- Generator: Adobe Illustrator 25.2.3, SVG Export Plug-In . SVG Version: 6.00 Build 0)  -->
<svg version="1.0" id="Layer_1" xmlns="http://www.w3.org/2000/svg" xmlns:xlink="http://www.w3.org/1999/xlink" x="0px" y="0px"
	 width="352px" height="265px" viewBox="0 0 352 265" enable-background="new 0 0 352 265" xml:space="preserve">
<g>
	
		<line fill="none" stroke="#000000" stroke-width="0.24" stroke-linecap="round" stroke-linejoin="round" stroke-miterlimit="10" x1="118.674" y1="81.71" x2="154.194" y2="81.71"/>
	
		<polyline fill="none" stroke="#000000" stroke-width="0.24" stroke-linecap="round" stroke-linejoin="bevel" stroke-miterlimit="10" points="
		154.194,81.71 154.434,81.65 154.674,81.59 155.034,81.23 155.154,80.75 	"/>
	
		<line fill="none" stroke="#000000" stroke-width="0.24" stroke-linecap="round" stroke-linejoin="round" stroke-miterlimit="10" x1="166.674" y1="81.71" x2="228.294" y2="81.71"/>
	
		<polyline fill="none" stroke="#000000" stroke-width="0.24" stroke-linecap="round" stroke-linejoin="bevel" stroke-miterlimit="10" points="
		165.714,80.75 165.834,81.23 166.194,81.59 166.434,81.65 166.674,81.71 	"/>
	
		<line fill="none" stroke="#000000" stroke-width="0.24" stroke-linecap="round" stroke-linejoin="round" stroke-miterlimit="10" x1="113.874" y1="86.57" x2="113.874" y2="138.77"/>
	
		<path fill="none" stroke="#000000" stroke-width="0.24" stroke-linecap="round" stroke-linejoin="bevel" stroke-miterlimit="10" d="
		M118.674,81.77l-0.78,0.06c-2.231,0.496-3.464,1.729-3.96,3.96l-0.06,0.78"/>
	
		<line fill="none" stroke="#000000" stroke-width="0.24" stroke-linecap="round" stroke-linejoin="round" stroke-miterlimit="10" x1="128.634" y1="153.59" x2="154.194" y2="153.59"/>
	
		<path fill="none" stroke="#000000" stroke-width="0.24" stroke-linecap="round" stroke-linejoin="bevel" stroke-miterlimit="10" d="
		M228.294,153.53l0.78-0.06c2.231-0.496,3.464-1.729,3.96-3.96l0.06-0.78"/>
	
		<line fill="none" stroke="#000000" stroke-width="0.24" stroke-linecap="round" stroke-linejoin="round" stroke-miterlimit="10" x1="233.094" y1="86.57" x2="233.094" y2="91.73"/>
	
		<line fill="none" stroke="#000000" stroke-width="0.24" stroke-linecap="round" stroke-linejoin="round" stroke-miterlimit="10" x1="233.094" y1="143.57" x2="233.094" y2="148.73"/>
	
		<path fill="none" stroke="#000000" stroke-width="0.24" stroke-linecap="round" stroke-linejoin="bevel" stroke-miterlimit="10" d="
		M233.094,86.57l-0.06-0.78c-0.496-2.231-1.729-3.464-3.96-3.96l-0.78-0.06"/>
	
		<line fill="none" stroke="#000000" stroke-width="0.24" stroke-linecap="round" stroke-linejoin="round" stroke-miterlimit="10" x1="117.594" y1="75.41" x2="151.794" y2="75.41"/>
	
		<line fill="none" stroke="#000000" stroke-width="0.24" stroke-linecap="round" stroke-linejoin="round" stroke-miterlimit="10" x1="127.374" y1="159.95" x2="151.794" y2="159.95"/>
	
		<polyline fill="none" stroke="#000000" stroke-width="0.24" stroke-linecap="round" stroke-linejoin="bevel" stroke-miterlimit="10" points="
		124.974,158.99 125.694,159.47 126.114,159.71 126.954,159.95 127.374,159.95 	"/>
	
		<path fill="none" stroke="#000000" stroke-width="0.24" stroke-linecap="round" stroke-linejoin="bevel" stroke-miterlimit="10" d="
		M229.374,159.89l1.14-0.06c4.638-0.531,8.348-4.242,8.88-8.88l0.06-1.14"/>
	
		<line fill="none" stroke="#000000" stroke-width="0.24" stroke-linecap="round" stroke-linejoin="round" stroke-miterlimit="10" x1="107.514" y1="85.49" x2="107.514" y2="140.03"/>
	
		<path fill="none" stroke="#000000" stroke-width="0.24" stroke-linecap="round" stroke-linejoin="bevel" stroke-miterlimit="10" d="
		M117.594,75.41l-1.14,0.06c-4.638,0.531-8.349,4.242-8.88,8.88l-0.06,1.14"/>
	
		<line fill="none" stroke="#000000" stroke-width="0.24" stroke-linecap="round" stroke-linejoin="round" stroke-miterlimit="10" x1="239.454" y1="85.49" x2="239.454" y2="89.33"/>
	
		<path fill="none" stroke="#000000" stroke-width="0.24" stroke-linecap="round" stroke-linejoin="bevel" stroke-miterlimit="10" d="
		M239.454,85.49l-0.06-1.14c-0.532-4.638-4.242-8.348-8.88-8.88l-1.14-0.06"/>
	
		<line fill="none" stroke="#000000" stroke-width="0.24" stroke-linecap="round" stroke-linejoin="round" stroke-miterlimit="10" x1="239.454" y1="145.97" x2="239.454" y2="149.81"/>
	
		<path fill="none" stroke="#000000" stroke-width="0.24" stroke-linecap="round" stroke-linejoin="bevel" stroke-miterlimit="10" d="
		M239.454,145.97l-0.06-0.66c-0.335-1.448-1.191-2.305-2.64-2.64l-0.66-0.06"/>
	
		<line fill="none" stroke="#000000" stroke-width="0.24" stroke-linecap="round" stroke-linejoin="round" stroke-miterlimit="10" x1="113.874" y1="138.77" x2="128.634" y2="153.59"/>
	
		<line fill="none" stroke="#000000" stroke-width="0.24" stroke-linecap="round" stroke-linejoin="round" stroke-miterlimit="10" x1="108.474" y1="142.43" x2="125.034" y2="158.93"/>
	
		<polyline fill="none" stroke="#000000" stroke-width="0.24" stroke-linecap="round" stroke-linejoin="bevel" stroke-miterlimit="10" points="
		107.514,140.03 107.514,140.45 107.754,141.29 107.934,141.71 108.234,142.07 108.474,142.43 	"/>
	
		<line fill="none" stroke="#000000" stroke-width="0.24" stroke-linecap="round" stroke-linejoin="round" stroke-miterlimit="10" x1="155.154" y1="78.77" x2="155.154" y2="80.75"/>
	
		<path fill="none" stroke="#000000" stroke-width="0.24" stroke-linecap="round" stroke-linejoin="bevel" stroke-miterlimit="10" d="
		M155.154,78.77l-0.06-0.66c-0.335-1.449-1.191-2.305-2.64-2.64l-0.66-0.06"/>
	
		<line fill="none" stroke="#000000" stroke-width="0.24" stroke-linecap="round" stroke-linejoin="round" stroke-miterlimit="10" x1="155.154" y1="154.55" x2="155.154" y2="156.59"/>
	
		<polyline fill="none" stroke="#000000" stroke-width="0.24" stroke-linecap="round" stroke-linejoin="bevel" stroke-miterlimit="10" points="
		155.154,154.55 155.034,154.07 154.674,153.71 154.434,153.65 154.194,153.59 	"/>
	
		<path fill="none" stroke="#000000" stroke-width="0.24" stroke-linecap="round" stroke-linejoin="bevel" stroke-miterlimit="10" d="
		M151.794,159.95l0.66-0.06c1.448-0.334,2.306-1.192,2.64-2.64l0.06-0.66"/>
	
		<line fill="none" stroke="#000000" stroke-width="0.24" stroke-linecap="round" stroke-linejoin="round" stroke-miterlimit="10" x1="165.714" y1="78.77" x2="165.714" y2="80.75"/>
	
		<path fill="none" stroke="#000000" stroke-width="0.24" stroke-linecap="round" stroke-linejoin="bevel" stroke-miterlimit="10" d="
		M169.074,75.41l-0.66,0.06c-1.448,0.335-2.306,1.191-2.64,2.64l-0.06,0.66"/>
	
		<line fill="none" stroke="#000000" stroke-width="0.24" stroke-linecap="round" stroke-linejoin="round" stroke-miterlimit="10" x1="165.714" y1="154.55" x2="165.714" y2="156.59"/>
	
		<polyline fill="none" stroke="#000000" stroke-width="0.24" stroke-linecap="round" stroke-linejoin="bevel" stroke-miterlimit="10" points="
		166.674,153.59 166.434,153.65 166.194,153.71 165.834,154.07 165.714,154.55 	"/>
	
		<path fill="none" stroke="#000000" stroke-width="0.24" stroke-linecap="round" stroke-linejoin="bevel" stroke-miterlimit="10" d="
		M165.714,156.59l0.06,0.66c0.334,1.448,1.192,2.306,2.64,2.64l0.66,0.06"/>
	
		<line fill="none" stroke="#000000" stroke-width="0.24" stroke-linecap="round" stroke-linejoin="round" stroke-miterlimit="10" x1="236.094" y1="92.69" x2="234.114" y2="92.69"/>
	
		<path fill="none" stroke="#000000" stroke-width="0.24" stroke-linecap="round" stroke-linejoin="bevel" stroke-miterlimit="10" d="
		M236.094,92.69l0.66-0.06c1.449-0.334,2.305-1.192,2.64-2.64l0.06-0.66"/>
	
		<polyline fill="none" stroke="#000000" stroke-width="0.24" stroke-linecap="round" stroke-linejoin="bevel" stroke-miterlimit="10" points="
		233.154,91.73 233.274,92.21 233.634,92.57 233.874,92.63 234.114,92.69 	"/>
	
		<line fill="none" stroke="#000000" stroke-width="0.24" stroke-linecap="round" stroke-linejoin="round" stroke-miterlimit="10" x1="236.094" y1="142.61" x2="234.114" y2="142.61"/>
	
		<polyline fill="none" stroke="#000000" stroke-width="0.24" stroke-linecap="round" stroke-linejoin="bevel" stroke-miterlimit="10" points="
		234.114,142.61 233.874,142.67 233.634,142.73 233.274,143.09 233.154,143.57 	"/>
	
		<line fill="none" stroke="#000000" stroke-width="0.24" stroke-linecap="round" stroke-linejoin="round" stroke-miterlimit="10" x1="169.074" y1="75.41" x2="229.374" y2="75.41"/>
	
		<line fill="none" stroke="#000000" stroke-width="0.24" stroke-linecap="round" stroke-linejoin="round" stroke-miterlimit="10" x1="169.074" y1="159.95" x2="229.374" y2="159.95"/>
	
		<line fill="none" stroke="#000000" stroke-width="0.24" stroke-linecap="round" stroke-linejoin="round" stroke-miterlimit="10" x1="166.674" y1="153.59" x2="228.294" y2="153.59"/>
	
		<line fill="none" stroke="#000000" stroke-width="0.72" stroke-linecap="round" stroke-linejoin="round" stroke-miterlimit="10" x1="2.214" y1="1.97" x2="243.714" y2="1.97"/>
	
		<line fill="none" stroke="#000000" stroke-width="0.72" stroke-linecap="round" stroke-linejoin="round" stroke-miterlimit="10" x1="262.974" y1="21.23" x2="262.974" y2="243.71"/>
	
		<path fill="none" stroke="#000000" stroke-width="0.72" stroke-linecap="round" stroke-linejoin="bevel" stroke-miterlimit="10" d="
		M243.714,262.97l1.5-0.06c9.446-0.72,16.98-8.254,17.7-17.7l0.06-1.5"/>
	
		<path fill="none" stroke="#000000" stroke-width="0.72" stroke-linecap="round" stroke-linejoin="bevel" stroke-miterlimit="10" d="
		M262.974,21.23l-0.06-1.5c-0.72-9.446-8.254-16.98-17.7-17.7l-1.5-0.06"/>
	
		<polyline fill="none" stroke="#000000" stroke-width="0.72" stroke-linecap="round" stroke-linejoin="round" stroke-miterlimit="10" points="
		243.714,263.03 2.214,263.03 2.214,1.97 	"/>
	
		<line fill="none" stroke="#000000" stroke-width="0.24" stroke-linecap="round" stroke-linejoin="round" stroke-miterlimit="10" x1="221.514" y1="145.37" x2="164.994" y2="145.37"/>
	
		<polyline fill="none" stroke="#000000" stroke-width="0.24" stroke-linecap="round" stroke-linejoin="bevel" stroke-miterlimit="10" points="
		163.974,144.95 164.214,145.13 164.454,145.25 164.694,145.37 164.994,145.37 	"/>
	
		<path fill="none" stroke="#000000" stroke-width="0.24" stroke-linecap="round" stroke-linejoin="bevel" stroke-miterlimit="10" d="
		M221.514,145.37l0.78-0.06c2.231-0.496,3.464-1.729,3.96-3.96l0.06-0.78"/>
	
		<line fill="none" stroke="#000000" stroke-width="0.24" stroke-linecap="round" stroke-linejoin="round" stroke-miterlimit="10" x1="152.874" y1="92.57" x2="152.874" y2="133.25"/>
	
		<path fill="none" stroke="#000000" stroke-width="0.24" stroke-linecap="round" stroke-linejoin="bevel" stroke-miterlimit="10" d="
		M157.674,87.77l-0.78,0.06c-2.231,0.496-3.464,1.729-3.96,3.96l-0.06,0.78"/>
	
		<line fill="none" stroke="#000000" stroke-width="0.24" stroke-linecap="round" stroke-linejoin="round" stroke-miterlimit="10" x1="157.674" y1="87.71" x2="221.514" y2="87.71"/>
	
		<line fill="none" stroke="#000000" stroke-width="0.24" stroke-linecap="round" stroke-linejoin="round" stroke-miterlimit="10" x1="226.314" y1="140.57" x2="226.314" y2="92.57"/>
	
		<path fill="none" stroke="#000000" stroke-width="0.24" stroke-linecap="round" stroke-linejoin="bevel" stroke-miterlimit="10" d="
		M226.314,92.57l-0.06-0.78c-0.496-2.231-1.729-3.464-3.96-3.96l-0.78-0.06"/>
	
		<line fill="none" stroke="#000000" stroke-width="0.24" stroke-linecap="round" stroke-linejoin="round" stroke-miterlimit="10" x1="160.254" y1="124.73" x2="160.254" y2="94.79"/>
	
		<path fill="none" stroke="#000000" stroke-width="0.24" stroke-linecap="round" stroke-linejoin="bevel" stroke-miterlimit="10" d="
		M165.054,89.99l-0.78,0.06c-2.231,0.496-3.464,1.729-3.96,3.96l-0.06,0.78"/>
	
		<line fill="none" stroke="#000000" stroke-width="0.24" stroke-linecap="round" stroke-linejoin="round" stroke-miterlimit="10" x1="167.994" y1="132.41" x2="217.914" y2="132.41"/>
	
		<path fill="none" stroke="#000000" stroke-width="0.24" stroke-linecap="round" stroke-linejoin="bevel" stroke-miterlimit="10" d="
		M217.914,132.41l0.48-0.06c0.836-0.119,1.741-1.024,1.86-1.86l0.06-0.48"/>
	
		<line fill="none" stroke="#000000" stroke-width="0.24" stroke-linecap="round" stroke-linejoin="round" stroke-miterlimit="10" x1="220.314" y1="130.01" x2="220.314" y2="92.39"/>
	
		<path fill="none" stroke="#000000" stroke-width="0.24" stroke-linecap="round" stroke-linejoin="bevel" stroke-miterlimit="10" d="
		M220.314,92.39l-0.06-0.48c-0.119-0.836-1.024-1.741-1.86-1.86l-0.48-0.06"/>
	
		<line fill="none" stroke="#000000" stroke-width="0.24" stroke-linecap="round" stroke-linejoin="round" stroke-miterlimit="10" x1="165.054" y1="89.99" x2="217.914" y2="89.99"/>
	
		<line fill="none" stroke="#000000" stroke-width="0.24" stroke-linecap="round" stroke-linejoin="round" stroke-miterlimit="10" x1="160.254" y1="124.73" x2="167.994" y2="132.41"/>
	
		<line fill="none" stroke="#000000" stroke-width="0.24" stroke-linecap="round" stroke-linejoin="round" stroke-miterlimit="10" x1="153.294" y1="134.27" x2="163.974" y2="144.95"/>
	
		<polyline fill="none" stroke="#000000" stroke-width="0.24" stroke-linecap="round" stroke-linejoin="bevel" stroke-miterlimit="10" points="
		152.874,133.25 152.874,133.55 153.114,134.03 153.294,134.27 	"/>
	<path fill-rule="evenodd" clip-rule="evenodd" d="M186.294,104.57h-0.12l-0.06,0.06l-0.18,0.06l-0.18,0.06h-0.12l-0.12,0.06h-0.36
		l-1.26,0.06l0.12,0.12c0.676,0.405,1.456,0.377,2.16,0.12l0.18-0.06v-0.18l0.06-0.06l-0.06-0.12v-0.12"/>
	<polyline fill-rule="evenodd" clip-rule="evenodd" points="186.174,102.11 185.034,102.11 185.214,102.11 185.334,102.17 
		185.514,102.23 185.694,102.41 185.754,102.41 185.874,102.65 185.874,102.83 185.934,102.95 185.934,103.13 184.074,103.13 
		183.474,103.19 183.474,104.03 183.594,104.27 183.594,104.33 183.654,104.45 183.714,104.63 183.774,104.75 183.894,104.87 
		185.154,104.81 184.974,104.81 184.794,104.75 184.674,104.69 184.554,104.69 184.254,104.39 184.194,104.27 184.134,104.09 
		184.134,103.91 184.074,103.73 184.074,103.61 186.294,103.61 186.474,103.55 186.474,103.49 186.534,103.31 186.534,102.89 
		186.474,102.77 186.474,102.59 186.294,102.23 	"/>
	<path fill-rule="evenodd" clip-rule="evenodd" d="M185.034,101.63h-0.24l-0.12,0.06h-0.12l-0.18,0.06l-0.12,0.12l-0.12,0.06
		l-0.12,0.06l-0.18,0.18l-0.12,0.24l-0.06,0.18l-0.06,0.12h-0.06v0.18l-0.06,0.12v0.18l0.6-0.06v-0.06l0.06-0.18v-0.12l0.06-0.06
		l0.06-0.18l0.06-0.12l0.06-0.06l0.12-0.06l0.12-0.12h0.12l0.12-0.06h1.32l-0.06-0.12c-0.663-0.481-0.134-0.038-0.72-0.36h-0.18"/>
	<path fill-rule="evenodd" clip-rule="evenodd" d="M187.254,104.33l-0.06,0.06v0.12l-0.06,0.12v0.06l0.06,0.12l1.32-0.06h-0.06
		c-0.325,0.026-0.619-0.081-0.9-0.24l-0.12-0.12"/>
	<polyline fill-rule="evenodd" clip-rule="evenodd" points="189.834,100.85 188.694,100.91 188.934,100.91 189.114,100.97 
		189.294,101.03 189.414,101.09 189.474,101.09 189.594,101.21 189.774,101.21 189.834,101.15 189.834,100.97 	"/>
	<path fill-rule="evenodd" clip-rule="evenodd" d="M188.754,100.37h-0.18c-0.288,0.003-0.524,0.12-0.78,0.24l-0.12,0.06v0.06
		l-0.24,0.24l-0.06,0.12v0.06l-0.06,0.18v0.12l-0.06,0.18v0.06l0.06,0.18v0.12l0.18,0.36l0.12,0.12
		c0.474,0.457,0.833,0.49,1.38,0.78l0.12,0.12h0.06l0.06,0.12c0.437,0.465,0.109,1.336-0.72,1.26l-1.32,0.06l0.06,0.12l0.12,0.12
		l0.12,0.06l0.18,0.06h0.06l0.12,0.06h0.18l0.12,0.06h0.66l0.18-0.06h0.12l0.12-0.06l0.18-0.06l0.12-0.12l0.12-0.06l0.18-0.18
		l0.06-0.12l0.12-0.12v-0.18l0.06-0.12v-0.18l0.06-0.12v-0.06l-0.06-0.18v-0.18l-0.12-0.24c-0.33-0.486-0.931-0.689-1.44-0.96
		l-0.24-0.12l-0.06-0.06l-0.12-0.06l-0.06-0.12l-0.06-0.06l-0.06-0.18v-0.24c0.215-0.363,0.031-0.306,0.42-0.48l0.06-0.06h0.3
		l1.14-0.06v-0.06l-0.06-0.06v-0.06l-0.18-0.12l-0.06-0.06h-0.18l-0.12-0.06l-0.18-0.06h-0.18"/>
	<polyline fill-rule="evenodd" clip-rule="evenodd" points="191.694,105.11 191.694,105.17 191.634,105.23 191.154,105.23 
		191.094,105.17 191.094,100.49 191.154,100.43 191.634,100.43 191.694,100.49 191.694,105.11 	"/>
	<polyline fill-rule="evenodd" clip-rule="evenodd" points="196.974,100.85 195.534,104.27 195.174,105.17 195.234,105.17 
		195.294,105.23 195.714,105.23 195.774,105.17 195.834,105.17 197.514,100.97 	"/>
	<polyline fill-rule="evenodd" clip-rule="evenodd" points="194.154,100.85 193.554,100.97 195.174,105.17 195.534,104.27 	"/>
	<polyline fill-rule="evenodd" clip-rule="evenodd" points="193.614,100.43 193.134,100.43 193.014,100.49 192.954,100.55 
		192.954,105.17 193.014,105.23 193.494,105.23 193.554,105.17 193.554,100.97 194.154,100.85 194.154,100.79 194.094,100.67 
		193.914,100.49 193.794,100.43 193.734,100.43 	"/>
	<polyline fill-rule="evenodd" clip-rule="evenodd" points="197.874,100.43 197.274,100.43 197.154,100.49 197.154,100.55 
		197.034,100.67 196.974,100.85 197.514,100.97 197.514,105.17 197.574,105.23 198.054,105.23 198.174,105.11 198.174,100.73 
		198.054,100.49 197.994,100.43 	"/>
	<polyline fill-rule="evenodd" clip-rule="evenodd" points="185.094,109.61 184.494,110.15 184.494,113.39 183.594,113.39 
		183.474,113.51 183.474,113.75 183.534,113.81 183.534,113.87 185.874,113.87 185.934,113.81 185.934,113.75 185.994,113.63 
		185.934,113.51 185.934,113.45 185.874,113.45 185.874,113.39 185.094,113.39 	"/>
	<polyline fill-rule="evenodd" clip-rule="evenodd" points="184.794,109.55 184.554,109.55 183.534,110.21 183.534,110.27 
		183.474,110.27 183.474,110.63 183.534,110.69 183.654,110.63 184.494,110.15 185.094,109.61 185.034,109.55 184.914,109.55 	"/>
	<polyline fill-rule="evenodd" clip-rule="evenodd" points="186.834,109.97 186.834,110.33 187.014,110.33 187.134,110.27 
		187.254,110.15 187.314,110.15 187.554,110.03 187.794,110.03 187.914,109.97 	"/>
	<path fill-rule="evenodd" clip-rule="evenodd" d="M187.974,109.49h-0.24l-0.12,0.06h-0.06l-0.12,0.06h-0.12l-0.18,0.06l-0.12,0.12
		l-0.12,0.06l-0.06,0.06v0.06h1.14l0.12,0.06h0.12l0.18,0.12l0.06,0.06l0.06,0.12l0.12,0.12v0.42c-0.034,0.335-0.174,0.71-0.42,0.96
		l-0.12,0.12l-0.06,0.12l-0.12,0.06l-0.06,0.12l-0.12,0.12l-0.84,0.9l-0.12,0.12l-0.06,0.12v0.12l0.06,0.12v0.06l0.06,0.06h2.52
		l0.06-0.06v-0.36l-0.06-0.06h-1.92l0.66-0.72l0.48-0.48l0.06-0.12l0.06-0.06l0.06-0.12l0.18-0.18l0.12-0.24v-0.06l0.12-0.24v-0.18
		l0.06-0.12v-0.42l-0.06-0.12v-0.18l-0.06-0.12l-0.12-0.12l-0.06-0.12h-0.06c-0.284-0.359-0.328-0.147-0.6-0.3h-0.12"/>
	<path fill-rule="evenodd" clip-rule="evenodd" d="M190.254,113.15h-0.06v0.42l0.06,0.06l0.24,0.12l0.12,0.06h0.06l0.12,0.06h0.18
		l0.12,0.06h0.66l0.12-0.06l0.12-0.06h0.12l0.18-0.06l0.06-0.12l0.12-0.06l0.06-0.06l-1.14-0.06c-0.325,0.026-0.619-0.081-0.9-0.24
		l-0.12-0.06"/>
	<polyline fill-rule="evenodd" clip-rule="evenodd" points="190.314,109.97 190.314,110.27 190.374,110.33 190.494,110.27 
		190.614,110.21 190.854,110.09 191.034,110.03 191.094,109.97 191.334,109.97 	"/>
	<path fill-rule="evenodd" clip-rule="evenodd" d="M191.454,109.49h-0.12c-0.084-0.001-0.654,0.144-0.72,0.18l-0.12,0.06v0.06
		l-0.12,0.06l-0.06,0.06v0.06h1.08c0.555-0.006,0.81,0.474,0.6,0.96v0.06l-0.06,0.12l-0.12,0.12h-0.06l-0.12,0.12h-0.12l-0.12,0.06
		h-0.66l-0.06,0.06l-0.06,0.06v0.24l0.06,0.06v0.06h0.84l0.24,0.12h0.12l0.12,0.12h0.06l0.12,0.12l0.06,0.12v0.06l0.06,0.12
		c0.045,0.523-0.181,0.753-0.66,0.9h-0.24l1.14,0.06l0.12-0.12c0.159-0.281,0.266-0.575,0.24-0.9l-0.06-0.12v-0.12l-0.06-0.12
		l-0.36-0.36l-0.12-0.06l-0.18-0.06h-0.12l-0.12-0.06h0.12l0.12-0.06l0.12-0.06l0.06-0.06l0.24-0.24l0.12-0.24v-0.66l-0.06-0.18
		l-0.06-0.12l-0.06-0.06l-0.24-0.24l-0.12-0.06l-0.12-0.06h-0.12l-0.12-0.06h-0.12"/>
	<polyline fill-rule="evenodd" clip-rule="evenodd" points="195.954,109.67 195.414,110.03 195.414,112.43 193.974,112.43 
		195.954,112.43 	"/>
	<polyline fill-rule="evenodd" clip-rule="evenodd" points="195.534,109.55 195.234,109.55 195.174,109.61 195.114,109.61 
		193.554,112.25 193.494,112.31 193.494,112.85 195.414,112.85 195.414,113.81 195.474,113.87 195.894,113.87 195.954,113.81 
		195.954,112.85 196.434,112.85 196.554,112.79 196.554,112.49 196.434,112.43 193.974,112.43 195.414,110.03 195.954,109.67 
		195.954,109.61 195.834,109.55 195.654,109.55 	"/>
	<polyline fill-rule="evenodd" clip-rule="evenodd" points="197.214,113.21 197.154,113.27 197.154,113.51 198.234,113.45 
		197.934,113.45 197.814,113.39 197.634,113.39 197.514,113.33 197.454,113.27 197.334,113.21 	"/>
	<line fill-rule="evenodd" clip-rule="evenodd" x1="197.394" y1="111.71" x2="198.174" y2="111.71"/>
	<polyline fill-rule="evenodd" clip-rule="evenodd" points="198.414,111.23 198.054,111.23 197.934,111.29 198.834,111.29 
		198.714,111.23 198.594,111.23 	"/>
	<path fill-rule="evenodd" clip-rule="evenodd" d="M199.434,109.55h-1.92l-0.12,0.06l-0.06,0.18v1.8l0.06,0.12h0.78
		c0.255-0.023,0.494,0.024,0.72,0.12l0.12,0.06v0.06c0.581,0.617,0.107,1.56-0.78,1.5l-1.08,0.06v0.12l0.06,0.06l0.12,0.06
		l0.06,0.06h0.18v0.06h0.12c0.543,0.157,1.138,0.037,1.62-0.24l0.12-0.06v-0.06c0.702-0.641,0.601-2.062-0.6-2.22h-0.9v-1.26h1.56
		l0.06-0.06l0.06-0.18l-0.06-0.12v-0.06l-0.06-0.06"/>
	<polyline fill-rule="evenodd" clip-rule="evenodd" points="200.574,111.59 200.574,112.43 200.634,112.55 200.634,112.85 
		200.694,112.97 200.754,113.15 200.934,113.51 202.014,113.45 201.774,113.45 201.534,113.33 201.354,113.15 201.354,113.09 
		201.234,112.85 201.234,112.67 201.174,112.67 201.174,111.95 201.234,111.89 201.354,111.83 201.414,111.83 201.594,111.77 
		201.654,111.71 201.894,111.71 202.074,111.65 	"/>
	<path fill-rule="evenodd" clip-rule="evenodd" d="M202.134,111.23h-0.3l-0.12,0.06h-0.12l-0.24,0.12h-0.12l-0.12,0.12h1.98
		l-0.12-0.06c-0.297-0.343-0.287-0.06-0.54-0.24h-0.12"/>
	<path fill-rule="evenodd" clip-rule="evenodd" d="M201.174,109.97l-0.12,0.06l-0.36,0.72v0.18l-0.06,0.12v0.12l-0.06,0.12v0.3
		l1.5,0.06h0.12l0.12,0.06h0.12v0.06l0.24,0.12v0.06l0.06,0.06l0.06,0.18v0.18l0.06,0.18v0.06l-0.06,0.12v0.12l-0.06,0.06
		l-0.06,0.18l-0.12,0.12l-0.06,0.12l-0.12,0.06l-0.12,0.06h-0.24l-1.08,0.06l0.18,0.18c0.546,0.35,1.191,0.316,1.74,0l0.3-0.3
		c0.325-0.561,0.068-0.347,0.24-0.66v-0.24c0.006-0.413,0.022-0.397-0.18-0.78l-0.06-0.12l-0.06-0.06h-1.98v-0.06l0.06-0.18v-0.24
		l0.06-0.12v-0.18l0.18-0.36l0.06-0.06c0.16-0.216,0.361-0.253,0.6-0.36h0.24"/>
	<path fill-rule="evenodd" clip-rule="evenodd" d="M202.374,109.49h-0.12c-0.371-0.011-0.69,0.201-1.02,0.36l-0.06,0.12h1.14
		c0.702-0.046,0.399,0.122,0.78,0.12h0.06v-0.06l0.06-0.06v-0.18l-0.06-0.06v-0.06l-0.12-0.06h-0.06l-0.12-0.06h-0.12l-0.12-0.06
		h-0.12"/>
	<polyline fill-rule="evenodd" clip-rule="evenodd" points="185.094,116.93 184.494,117.47 184.494,120.71 183.594,120.71 
		183.474,120.83 183.474,121.07 183.534,121.13 183.534,121.19 185.874,121.19 185.934,121.13 185.934,121.07 185.994,120.95 
		185.934,120.83 185.934,120.77 185.874,120.77 185.874,120.71 185.094,120.71 	"/>
	<polyline fill-rule="evenodd" clip-rule="evenodd" points="184.794,116.87 184.554,116.87 183.534,117.53 183.534,117.59 
		183.474,117.59 183.474,117.95 183.534,118.01 183.654,117.95 184.494,117.47 185.094,116.93 185.034,116.87 184.914,116.87 	"/>
	<polyline fill-rule="evenodd" clip-rule="evenodd" points="186.834,117.29 186.834,117.65 187.014,117.65 187.134,117.59 
		187.254,117.47 187.314,117.47 187.434,117.41 187.554,117.35 187.794,117.35 187.914,117.29 	"/>
	<path fill-rule="evenodd" clip-rule="evenodd" d="M187.974,116.81h-0.24l-0.12,0.06h-0.06l-0.12,0.06h-0.12l-0.18,0.06l-0.12,0.12
		l-0.12,0.06l-0.06,0.06v0.06h1.14l0.12,0.06h0.12l0.18,0.12l0.06,0.06l0.06,0.12l0.12,0.12v0.42c-0.034,0.335-0.174,0.71-0.42,0.96
		l-0.12,0.12l-0.06,0.12l-0.12,0.06l-0.06,0.12l-0.12,0.12l-0.84,0.9l-0.12,0.12l-0.06,0.12v0.12l0.06,0.12v0.06l0.06,0.06h2.52
		l0.06-0.06v-0.36l-0.06-0.06h-1.92l0.66-0.72l0.48-0.48l0.06-0.12l0.06-0.06l0.06-0.12l0.18-0.18l0.12-0.24v-0.06l0.12-0.24v-0.18
		l0.06-0.12v-0.42l-0.06-0.12v-0.18l-0.06-0.12l-0.12-0.12l-0.06-0.12h-0.06c-0.284-0.359-0.328-0.147-0.6-0.3h-0.12"/>
	<path fill-rule="evenodd" clip-rule="evenodd" d="M190.254,120.47h-0.06v0.42l0.06,0.06l0.24,0.12l0.12,0.06h0.06l0.12,0.06h0.18
		l0.12,0.06h0.66l0.24-0.12h0.12l0.18-0.06l0.06-0.12l0.12-0.06l0.06-0.06l-1.14-0.06c-0.325,0.026-0.619-0.081-0.9-0.24l-0.12-0.06
		"/>
	<polyline fill-rule="evenodd" clip-rule="evenodd" points="190.314,117.29 190.314,117.59 190.374,117.65 190.494,117.59 
		190.614,117.53 190.734,117.47 190.854,117.41 191.034,117.35 191.094,117.29 191.334,117.29 	"/>
	<path fill-rule="evenodd" clip-rule="evenodd" d="M191.454,116.81h-0.12c-0.084-0.001-0.654,0.144-0.72,0.18l-0.12,0.06v0.06
		l-0.12,0.06l-0.06,0.06v0.06h1.08c0.555-0.006,0.81,0.474,0.6,0.96v0.06l-0.06,0.12l-0.12,0.12h-0.06l-0.12,0.12h-0.12l-0.12,0.06
		h-0.66l-0.12,0.12v0.24l0.06,0.06v0.06h0.84l0.24,0.12h0.12l0.12,0.12h0.06l0.12,0.12l0.06,0.12v0.06l0.06,0.12
		c0.045,0.523-0.182,0.753-0.66,0.9h-0.24l1.14,0.06l0.12-0.12c0.159-0.281,0.266-0.575,0.24-0.9l-0.06-0.12v-0.12l-0.06-0.12
		l-0.36-0.36l-0.12-0.06l-0.18-0.06h-0.12l-0.12-0.06h0.12l0.12-0.06l0.12-0.06l0.3-0.3l0.12-0.24v-0.66l-0.06-0.18l-0.06-0.12
		l-0.3-0.3l-0.12-0.06l-0.12-0.06h-0.12l-0.12-0.06h-0.12"/>
	<polyline fill-rule="evenodd" clip-rule="evenodd" points="195.954,116.99 195.414,117.35 195.414,119.75 193.974,119.75 
		195.954,119.75 	"/>
	<polyline fill-rule="evenodd" clip-rule="evenodd" points="195.534,116.87 195.234,116.87 195.174,116.93 195.114,116.93 
		193.554,119.57 193.494,119.63 193.494,120.17 195.414,120.17 195.414,121.13 195.474,121.19 195.894,121.19 195.954,121.13 
		195.954,120.17 196.434,120.17 196.554,120.11 196.554,119.81 196.434,119.75 193.974,119.75 195.414,117.35 195.954,116.99 
		195.954,116.93 195.834,116.87 195.654,116.87 	"/>
	<polyline fill-rule="evenodd" clip-rule="evenodd" points="197.214,120.53 197.154,120.59 197.154,120.83 198.234,120.77 
		197.934,120.77 197.814,120.71 197.634,120.71 197.514,120.65 197.454,120.59 197.334,120.53 	"/>
	<line fill-rule="evenodd" clip-rule="evenodd" x1="197.394" y1="119.03" x2="198.174" y2="119.03"/>
	<polyline fill-rule="evenodd" clip-rule="evenodd" points="198.414,118.55 198.054,118.55 197.934,118.61 198.834,118.61 
		198.714,118.55 198.594,118.55 	"/>
	<path fill-rule="evenodd" clip-rule="evenodd" d="M199.434,116.87h-1.92l-0.12,0.06l-0.06,0.18v1.8l0.06,0.12h0.78
		c0.255-0.023,0.494,0.024,0.72,0.12l0.12,0.06v0.06c0.581,0.617,0.107,1.56-0.78,1.5l-1.08,0.06v0.12l0.06,0.06l0.12,0.06
		l0.06,0.06h0.18v0.06h0.12c0.543,0.156,1.138,0.037,1.62-0.24l0.12-0.06v-0.06c0.702-0.641,0.601-2.062-0.6-2.22h-0.9v-1.26h1.56
		l0.06-0.06l0.06-0.18l-0.06-0.12v-0.06l-0.06-0.06"/>
	<polyline fill-rule="evenodd" clip-rule="evenodd" points="200.574,118.91 200.574,119.75 200.634,119.87 200.634,120.17 
		200.694,120.29 200.754,120.47 200.934,120.83 202.014,120.77 201.774,120.77 201.534,120.65 201.354,120.47 201.354,120.41 
		201.234,120.17 201.234,119.99 201.174,119.99 201.174,119.27 201.234,119.21 201.354,119.15 201.414,119.15 201.594,119.09 
		201.654,119.03 201.894,119.03 202.074,118.97 	"/>
	<path fill-rule="evenodd" clip-rule="evenodd" d="M202.134,118.55h-0.3l-0.12,0.06h-0.12l-0.24,0.12h-0.12l-0.12,0.12h1.98
		l-0.12-0.06c-0.297-0.343-0.287-0.06-0.54-0.24h-0.12"/>
	<path fill-rule="evenodd" clip-rule="evenodd" d="M201.174,117.29l-0.12,0.06l-0.36,0.72v0.18l-0.06,0.12v0.12l-0.06,0.12v0.3
		l1.5,0.06h0.12l0.12,0.06h0.12v0.06l0.24,0.12v0.06l0.06,0.06l0.06,0.18v0.18l0.06,0.18v0.06l-0.06,0.12v0.12l-0.06,0.06
		l-0.06,0.18l-0.06,0.06l-0.06,0.06l-0.06,0.12l-0.12,0.06l-0.12,0.06h-0.24l-1.08,0.06l0.18,0.18c0.546,0.35,1.191,0.316,1.74,0
		l0.3-0.3c0.325-0.56,0.068-0.347,0.24-0.66v-0.24c0.006-0.413,0.022-0.397-0.18-0.78l-0.06-0.12l-0.06-0.06h-1.98v-0.06l0.06-0.18
		v-0.24l0.06-0.12v-0.18l0.18-0.36l0.06-0.06c0.16-0.216,0.361-0.253,0.6-0.36h0.24"/>
	<path fill-rule="evenodd" clip-rule="evenodd" d="M202.374,116.81h-0.12c-0.371-0.011-0.69,0.201-1.02,0.36l-0.06,0.12h1.14
		c0.702-0.046,0.399,0.122,0.78,0.12h0.06v-0.06l0.06-0.06v-0.18l-0.06-0.06v-0.06l-0.12-0.06h-0.06l-0.12-0.06h-0.12l-0.12-0.06
		h-0.12"/>
	<polyline fill-rule="evenodd" clip-rule="evenodd" points="185.094,124.19 184.494,124.73 184.494,127.97 183.594,127.97 
		183.534,128.03 183.474,128.09 183.474,128.33 183.534,128.39 183.534,128.45 185.874,128.45 185.934,128.39 185.934,128.33 
		185.994,128.21 185.934,128.09 185.934,128.03 185.874,128.03 185.874,127.97 185.094,127.97 	"/>
	<polyline fill-rule="evenodd" clip-rule="evenodd" points="184.794,124.13 184.554,124.13 183.534,124.79 183.534,124.85 
		183.474,124.85 183.474,125.21 183.534,125.27 183.654,125.21 184.494,124.73 185.094,124.19 185.034,124.13 184.914,124.13 	"/>
	<polyline fill-rule="evenodd" clip-rule="evenodd" points="186.834,124.55 186.834,124.91 187.014,124.91 187.134,124.85 
		187.254,124.73 187.314,124.73 187.554,124.61 187.794,124.61 187.914,124.55 	"/>
	<path fill-rule="evenodd" clip-rule="evenodd" d="M187.974,124.07h-0.24l-0.12,0.06h-0.06l-0.12,0.06h-0.12l-0.18,0.06l-0.06,0.06
		l-0.06,0.06l-0.12,0.06l-0.06,0.06v0.06h1.14l0.12,0.06h0.12l0.18,0.12l0.06,0.06l0.06,0.12l0.12,0.12v0.42
		c-0.034,0.335-0.174,0.71-0.42,0.96l-0.12,0.12l-0.06,0.12l-0.12,0.06l-0.06,0.12l-0.12,0.12l-0.84,0.9l-0.12,0.12l-0.06,0.12v0.12
		l0.06,0.12v0.06l0.06,0.06h2.52l0.06-0.06v-0.36l-0.06-0.06h-1.92l0.66-0.72l0.48-0.48l0.06-0.12l0.06-0.06l0.06-0.12l0.18-0.18
		l0.12-0.24v-0.06l0.12-0.24v-0.18l0.06-0.12v-0.42l-0.06-0.12v-0.18l-0.06-0.12l-0.12-0.12l-0.06-0.12h-0.06
		c-0.284-0.359-0.328-0.147-0.6-0.3h-0.12"/>
	<path fill-rule="evenodd" clip-rule="evenodd" d="M190.254,127.73h-0.06v0.42l0.06,0.06l0.24,0.12l0.12,0.06h0.06l0.12,0.06h0.18
		l0.12,0.06h0.66l0.24-0.12h0.12l0.18-0.06l0.06-0.12l0.12-0.06l0.06-0.06l-1.14-0.06c-0.325,0.026-0.619-0.081-0.9-0.24l-0.12-0.06
		"/>
	<polyline fill-rule="evenodd" clip-rule="evenodd" points="190.314,124.55 190.314,124.85 190.374,124.91 190.494,124.85 
		190.614,124.79 190.854,124.67 191.034,124.61 191.094,124.55 191.334,124.55 	"/>
	<path fill-rule="evenodd" clip-rule="evenodd" d="M191.454,124.07h-0.12c-0.084-0.001-0.654,0.144-0.72,0.18l-0.12,0.06v0.06
		l-0.12,0.06l-0.06,0.06v0.06h1.08c0.555-0.006,0.81,0.474,0.6,0.96v0.06l-0.06,0.12l-0.12,0.12h-0.06l-0.12,0.12h-0.12l-0.12,0.06
		h-0.66l-0.12,0.12v0.24l0.06,0.06v0.06h0.84l0.12,0.06l0.12,0.06h0.12l0.12,0.12h0.06l0.12,0.12l0.06,0.12v0.06l0.06,0.12
		c0.045,0.523-0.182,0.753-0.66,0.9h-0.24l1.14,0.06l0.12-0.12c0.159-0.281,0.266-0.575,0.24-0.9l-0.06-0.12v-0.12l-0.06-0.12
		l-0.18-0.18l-0.06-0.06l-0.12-0.12l-0.12-0.06l-0.18-0.06h-0.12l-0.12-0.06h0.12l0.12-0.06l0.12-0.06l0.3-0.3l0.12-0.24v-0.66
		l-0.06-0.18l-0.06-0.12l-0.3-0.3l-0.12-0.06l-0.12-0.06h-0.12l-0.12-0.06h-0.12"/>
	<polyline fill-rule="evenodd" clip-rule="evenodd" points="195.954,124.25 195.414,124.61 195.414,127.01 193.974,127.01 
		195.954,127.01 	"/>
	<polyline fill-rule="evenodd" clip-rule="evenodd" points="195.534,124.13 195.234,124.13 195.174,124.19 195.114,124.19 
		193.554,126.83 193.494,126.89 193.494,127.43 195.414,127.43 195.414,128.39 195.474,128.45 195.894,128.45 195.954,128.39 
		195.954,127.43 196.434,127.43 196.554,127.37 196.554,127.07 196.434,127.01 193.974,127.01 195.414,124.61 195.954,124.25 
		195.954,124.19 195.834,124.13 195.654,124.13 	"/>
	<polyline fill-rule="evenodd" clip-rule="evenodd" points="197.214,127.79 197.154,127.85 197.154,128.09 198.234,128.03 
		197.934,128.03 197.814,127.97 197.634,127.97 197.514,127.91 197.454,127.85 197.334,127.79 	"/>
	<line fill-rule="evenodd" clip-rule="evenodd" x1="197.394" y1="126.29" x2="198.174" y2="126.29"/>
	<polyline fill-rule="evenodd" clip-rule="evenodd" points="198.414,125.81 198.054,125.81 197.934,125.87 198.834,125.87 
		198.714,125.81 198.594,125.81 	"/>
	<path fill-rule="evenodd" clip-rule="evenodd" d="M199.434,124.13h-1.92l-0.12,0.06l-0.06,0.18v1.8l0.06,0.12h0.78
		c0.255-0.023,0.494,0.024,0.72,0.12l0.12,0.06v0.06c0.581,0.617,0.107,1.56-0.78,1.5l-1.08,0.06v0.12l0.06,0.06l0.12,0.06
		l0.06,0.06h0.18v0.06h0.12c0.543,0.156,1.138,0.037,1.62-0.24l0.12-0.06v-0.06c0.702-0.641,0.601-2.062-0.6-2.22h-0.9v-1.26h1.56
		l0.06-0.06l0.06-0.18l-0.06-0.12v-0.06l-0.06-0.06"/>
	<polyline fill-rule="evenodd" clip-rule="evenodd" points="200.574,126.17 200.574,127.01 200.634,127.13 200.634,127.43 
		200.694,127.55 200.754,127.73 200.934,128.09 202.014,128.03 201.774,128.03 201.654,127.97 201.534,127.91 201.354,127.73 
		201.354,127.67 201.234,127.43 201.234,127.25 201.174,127.25 201.174,126.53 201.234,126.47 201.354,126.41 201.414,126.41 
		201.594,126.35 201.654,126.29 201.894,126.29 202.074,126.23 	"/>
	<path fill-rule="evenodd" clip-rule="evenodd" d="M202.134,125.81h-0.3l-0.12,0.06h-0.12l-0.24,0.12h-0.12l-0.12,0.12h1.98
		l-0.12-0.06c-0.297-0.343-0.287-0.06-0.54-0.24h-0.12"/>
	<path fill-rule="evenodd" clip-rule="evenodd" d="M201.174,124.55l-0.12,0.06l-0.36,0.72v0.18l-0.06,0.12v0.12l-0.06,0.12v0.3
		l1.5,0.06h0.12l0.12,0.06h0.12v0.06l0.24,0.12v0.06l0.06,0.06l0.06,0.18v0.18l0.06,0.18v0.06l-0.06,0.12v0.12l-0.06,0.06
		l-0.06,0.18l-0.12,0.12l-0.06,0.12l-0.12,0.06l-0.12,0.06h-0.24l-1.08,0.06l0.18,0.18c0.546,0.35,1.191,0.316,1.74,0l0.3-0.3
		c0.325-0.561,0.068-0.347,0.24-0.66v-0.24c0.006-0.413,0.022-0.397-0.18-0.78l-0.06-0.12l-0.06-0.06h-1.98v-0.06l0.06-0.18v-0.24
		l0.06-0.12v-0.18l0.18-0.36l0.06-0.06c0.16-0.216,0.361-0.253,0.6-0.36h0.24"/>
	<path fill-rule="evenodd" clip-rule="evenodd" d="M202.374,124.07h-0.12c-0.371-0.011-0.69,0.201-1.02,0.36l-0.06,0.12h1.14
		c0.702-0.046,0.399,0.122,0.78,0.12h0.06v-0.06l0.06-0.06v-0.18l-0.06-0.06v-0.06l-0.12-0.06h-0.06l-0.12-0.06h-0.12l-0.12-0.06
		h-0.12"/>
	<path fill-rule="evenodd" clip-rule="evenodd" d="M51.354,34.85h-2.58h0.3c0.867,0.062,1.474,0.473,1.56,1.38v0.48
		c0.037,0.838-0.742,1.576-1.56,1.56l-0.36,0.06h-1.02l3.36,0.12l0.36-0.36l0.3-0.6l0.12-0.48v-0.3l0.06-0.3v-0.06l-0.06-0.3
		l-0.06-0.24l-0.06-0.3l-0.06-0.24l-0.18-0.24"/>
	<path fill-rule="evenodd" clip-rule="evenodd" d="M48.834,33.89h-1.92l-0.24,0.12l-0.06,0.12l-0.06,0.24v7.98l0.06,0.12l0.06,0.06
		h0.18l0.3,0.06l0.24-0.06h0.18l0.12-0.06v-3.24h1.02c0.747,0.035,1.564-0.122,2.16-0.6l0.18-0.18l-3.36-0.12v-3.48h3.66l-0.18-0.24
		c-0.761-0.589-0.902-0.522-1.74-0.72h-0.3"/>
	<polyline fill-rule="evenodd" clip-rule="evenodd" points="54.774,42.35 54.774,42.47 54.654,42.53 54.474,42.53 54.234,42.59 
		53.934,42.53 53.754,42.53 53.694,42.47 53.634,42.35 53.634,34.07 53.694,33.95 53.754,33.89 53.934,33.89 54.234,33.83 
		54.474,33.89 54.654,33.89 54.774,33.95 54.774,42.35 	"/>
	<path fill-rule="evenodd" clip-rule="evenodd" d="M59.154,34.61l-0.9,0.54l0.06,0.12c0.05,0.358,0.554,1.03,0.72,1.5l2.64,4.92
		l0.84-0.72l-0.06-0.12c-0.376-0.745-0.741-1.483-1.14-2.22l-0.12-0.24"/>
	<path fill-rule="evenodd" clip-rule="evenodd" d="M58.194,33.89h-0.66l-0.24,0.12l-0.12,0.12l-0.06,0.24v7.98l0.06,0.12l0.06,0.06
		h0.18l0.3,0.06l0.24-0.06h0.18l0.12-0.06v-0.12c0-2.3,0-4.6,0-6.9v-0.3l0.9-0.54l-0.18-0.36h-0.06l-0.18-0.24l-0.24-0.06
		l-0.06-0.06"/>
	<path fill-rule="evenodd" clip-rule="evenodd" d="M63.114,33.89h-0.3l-0.18,0.06l-0.12,0.06v0.06c0,2.3,0,4.6,0,6.9l-0.84,0.72
		l0.12,0.24l0.42,0.42v0.06l0.24,0.12h0.84l0.18-0.12l0.12-0.12l0.06-0.24v-7.98l-0.12-0.12l-0.18-0.06"/>
	<polyline fill-rule="evenodd" clip-rule="evenodd" points="66.714,41.03 66.654,41.03 66.414,41.09 66.174,41.21 66.054,41.45 
		66.054,42.17 66.174,42.41 66.414,42.53 66.474,42.59 66.834,42.59 67.074,42.53 67.314,42.41 67.434,42.17 67.434,41.45 
		67.314,41.21 67.074,41.09 67.014,41.09 	"/>
	<polyline fill-rule="evenodd" clip-rule="evenodd" points="66.714,36.41 66.654,36.41 66.414,36.47 66.174,36.59 66.054,36.83 
		66.054,37.55 66.174,37.79 66.414,37.91 66.474,37.91 66.714,37.97 66.834,37.97 67.074,37.91 67.314,37.79 67.434,37.55 
		67.434,36.83 67.314,36.59 67.074,36.47 67.014,36.41 	"/>
	<path fill-rule="evenodd" clip-rule="evenodd" d="M51.354,49.31h-2.58h0.3c0.867,0.062,1.474,0.473,1.56,1.38v0.48
		c0.037,0.838-0.742,1.576-1.56,1.56l-0.36,0.06h-1.02l3.36,0.12l0.36-0.36l0.3-0.6l0.12-0.48v-0.3l0.06-0.3v-0.06l-0.06-0.3
		l-0.06-0.24l-0.06-0.3l-0.06-0.24l-0.18-0.24"/>
	<path fill-rule="evenodd" clip-rule="evenodd" d="M48.834,48.35h-1.92l-0.24,0.12l-0.06,0.12l-0.06,0.24v7.98l0.06,0.12l0.06,0.06
		h0.18l0.3,0.06l0.24-0.06h0.18l0.12-0.06v-3.24h1.02c0.747,0.035,1.564-0.122,2.16-0.6l0.18-0.18l-3.36-0.12v-3.48h3.66l-0.18-0.24
		c-0.761-0.589-0.902-0.522-1.74-0.72h-0.3"/>
	<path fill-rule="evenodd" clip-rule="evenodd" d="M54.174,48.29l-0.24,0.06h-0.18l-0.12,0.06v5.46
		c-0.046,1.084,0.397,2.258,1.38,2.82l0.48,0.24c0.977,0.33,2.52,0.238,3.36-0.36l0.18-0.12l0.24-0.18l-2.4-0.12
		c-0.621-0.076-0.739-0.06-1.32-0.42l-0.24-0.18v-0.06l-0.18-0.18l-0.12-0.24l-0.12-0.3l-0.06-0.18v-0.24l-0.06-0.3v-5.52
		l-0.06-0.12l-0.06-0.06h-0.18"/>
	<polyline fill-rule="evenodd" clip-rule="evenodd" points="59.574,48.29 59.274,48.35 59.094,48.35 59.034,48.41 58.974,48.53 
		58.974,54.35 58.854,54.83 58.734,55.13 58.614,55.37 58.254,55.73 57.774,55.97 57.714,56.03 57.414,56.09 57.174,56.15 
		56.874,56.15 59.274,56.27 59.334,56.15 59.514,55.91 59.694,55.73 59.814,55.49 59.934,55.19 59.934,55.13 60.054,54.65 
		60.114,54.35 60.114,48.41 59.994,48.35 59.814,48.35 	"/>
	<polyline fill-rule="evenodd" clip-rule="evenodd" points="63.054,48.29 62.754,48.35 62.574,48.35 62.514,48.41 62.454,48.53 
		62.454,56.81 62.514,56.93 62.574,56.99 62.754,56.99 63.054,57.05 63.294,56.99 63.474,56.99 63.594,56.93 63.594,48.41 
		63.474,48.35 63.294,48.35 	"/>
	<polyline fill-rule="evenodd" clip-rule="evenodd" points="67.374,48.29 67.074,48.35 66.894,48.35 66.774,48.41 66.654,48.53 
		63.594,52.37 63.594,52.49 66.774,56.81 66.894,56.93 67.134,56.99 67.194,56.99 67.494,57.05 67.554,57.05 67.794,56.99 
		67.974,56.99 68.094,56.87 68.094,56.69 64.854,52.37 67.734,48.95 67.854,48.71 67.914,48.53 67.914,48.47 67.794,48.35 
		67.614,48.35 	"/>
	<polyline fill-rule="evenodd" clip-rule="evenodd" points="70.314,55.49 70.254,55.49 70.014,55.55 69.774,55.67 69.654,55.91 
		69.654,56.63 69.774,56.87 70.014,56.99 70.074,57.05 70.434,57.05 70.674,56.99 70.914,56.87 71.034,56.63 71.034,55.91 
		70.914,55.67 70.674,55.55 70.614,55.55 	"/>
	<polyline fill-rule="evenodd" clip-rule="evenodd" points="70.314,50.87 70.254,50.87 70.014,50.93 69.774,51.05 69.654,51.29 
		69.654,52.01 69.774,52.25 70.014,52.37 70.074,52.37 70.314,52.43 70.434,52.43 70.674,52.37 70.914,52.25 71.034,52.01 
		71.034,51.29 70.914,51.05 70.674,50.93 70.614,50.87 	"/>
	
		<line fill="none" stroke="#000000" stroke-width="0.24" stroke-linecap="round" stroke-linejoin="round" stroke-miterlimit="10" x1="131.514" y1="65.09" x2="113.214" y2="46.79"/>
	
		<line fill="none" stroke="#000000" stroke-width="0.24" stroke-linecap="round" stroke-linejoin="round" stroke-miterlimit="10" x1="144.654" y1="65.09" x2="113.394" y2="33.83"/>
	
		<line fill="none" stroke="#000000" stroke-width="0.24" stroke-linecap="round" stroke-linejoin="round" stroke-miterlimit="10" x1="157.794" y1="65.09" x2="119.334" y2="26.63"/>
	
		<line fill="none" stroke="#000000" stroke-width="0.24" stroke-linecap="round" stroke-linejoin="round" stroke-miterlimit="10" x1="170.874" y1="65.09" x2="131.754" y2="25.97"/>
	
		<line fill="none" stroke="#000000" stroke-width="0.24" stroke-linecap="round" stroke-linejoin="round" stroke-miterlimit="10" x1="184.014" y1="65.09" x2="144.894" y2="25.97"/>
	
		<line fill="none" stroke="#000000" stroke-width="0.24" stroke-linecap="round" stroke-linejoin="round" stroke-miterlimit="10" x1="197.154" y1="65.09" x2="158.034" y2="25.97"/>
	
		<line fill="none" stroke="#000000" stroke-width="0.24" stroke-linecap="round" stroke-linejoin="round" stroke-miterlimit="10" x1="205.914" y1="60.77" x2="171.114" y2="25.97"/>
	
		<line fill="none" stroke="#000000" stroke-width="0.24" stroke-linecap="round" stroke-linejoin="round" stroke-miterlimit="10" x1="207.474" y1="49.19" x2="184.254" y2="25.97"/>
	
		<line fill="none" stroke="#000000" stroke-width="0.24" stroke-linecap="round" stroke-linejoin="round" stroke-miterlimit="10" x1="207.474" y1="36.05" x2="197.394" y2="25.97"/>
	
		<line fill="none" stroke="#000000" stroke-width="0.24" stroke-linecap="round" stroke-linejoin="round" stroke-miterlimit="10" x1="124.614" y1="64.73" x2="121.494" y2="61.61"/>
	
		<line fill="none" stroke="#000000" stroke-width="0.24" stroke-linecap="round" stroke-linejoin="round" stroke-miterlimit="10" x1="120.174" y1="60.29" x2="116.994" y2="57.11"/>
	
		<line fill="none" stroke="#000000" stroke-width="0.24" stroke-linecap="round" stroke-linejoin="round" stroke-miterlimit="10" x1="115.674" y1="55.85" x2="113.214" y2="53.33"/>
	
		<line fill="none" stroke="#000000" stroke-width="0.24" stroke-linecap="round" stroke-linejoin="round" stroke-miterlimit="10" x1="138.114" y1="65.09" x2="136.974" y2="63.95"/>
	
		<line fill="none" stroke="#000000" stroke-width="0.24" stroke-linecap="round" stroke-linejoin="round" stroke-miterlimit="10" x1="135.654" y1="62.63" x2="132.474" y2="59.51"/>
	
		<line fill="none" stroke="#000000" stroke-width="0.24" stroke-linecap="round" stroke-linejoin="round" stroke-miterlimit="10" x1="131.154" y1="58.19" x2="128.034" y2="55.01"/>
	
		<line fill="none" stroke="#000000" stroke-width="0.24" stroke-linecap="round" stroke-linejoin="round" stroke-miterlimit="10" x1="126.714" y1="53.75" x2="123.594" y2="50.57"/>
	
		<line fill="none" stroke="#000000" stroke-width="0.24" stroke-linecap="round" stroke-linejoin="round" stroke-miterlimit="10" x1="122.274" y1="49.25" x2="119.094" y2="46.13"/>
	
		<line fill="none" stroke="#000000" stroke-width="0.24" stroke-linecap="round" stroke-linejoin="round" stroke-miterlimit="10" x1="117.774" y1="44.81" x2="114.654" y2="41.63"/>
	
		<line fill="none" stroke="#000000" stroke-width="0.24" stroke-linecap="round" stroke-linejoin="round" stroke-miterlimit="10" x1="113.334" y1="40.37" x2="113.214" y2="40.25"/>
	
		<line fill="none" stroke="#000000" stroke-width="0.24" stroke-linecap="round" stroke-linejoin="round" stroke-miterlimit="10" x1="151.134" y1="65.03" x2="147.954" y2="61.85"/>
	
		<line fill="none" stroke="#000000" stroke-width="0.24" stroke-linecap="round" stroke-linejoin="round" stroke-miterlimit="10" x1="146.634" y1="60.53" x2="143.514" y2="57.41"/>
	
		<line fill="none" stroke="#000000" stroke-width="0.24" stroke-linecap="round" stroke-linejoin="round" stroke-miterlimit="10" x1="142.194" y1="56.09" x2="139.074" y2="52.97"/>
	
		<line fill="none" stroke="#000000" stroke-width="0.24" stroke-linecap="round" stroke-linejoin="round" stroke-miterlimit="10" x1="137.754" y1="51.65" x2="134.574" y2="48.47"/>
	
		<line fill="none" stroke="#000000" stroke-width="0.24" stroke-linecap="round" stroke-linejoin="round" stroke-miterlimit="10" x1="133.254" y1="47.15" x2="130.134" y2="44.03"/>
	
		<line fill="none" stroke="#000000" stroke-width="0.24" stroke-linecap="round" stroke-linejoin="round" stroke-miterlimit="10" x1="128.814" y1="42.71" x2="125.634" y2="39.53"/>
	
		<line fill="none" stroke="#000000" stroke-width="0.24" stroke-linecap="round" stroke-linejoin="round" stroke-miterlimit="10" x1="124.374" y1="38.27" x2="121.194" y2="35.09"/>
	
		<line fill="none" stroke="#000000" stroke-width="0.24" stroke-linecap="round" stroke-linejoin="round" stroke-miterlimit="10" x1="119.874" y1="33.77" x2="116.754" y2="30.65"/>
	
		<line fill="none" stroke="#000000" stroke-width="0.24" stroke-linecap="round" stroke-linejoin="round" stroke-miterlimit="10" x1="164.334" y1="65.09" x2="163.434" y2="64.25"/>
	
		<line fill="none" stroke="#000000" stroke-width="0.24" stroke-linecap="round" stroke-linejoin="round" stroke-miterlimit="10" x1="162.114" y1="62.93" x2="158.994" y2="59.75"/>
	
		<line fill="none" stroke="#000000" stroke-width="0.24" stroke-linecap="round" stroke-linejoin="round" stroke-miterlimit="10" x1="157.674" y1="58.43" x2="154.554" y2="55.31"/>
	
		<line fill="none" stroke="#000000" stroke-width="0.24" stroke-linecap="round" stroke-linejoin="round" stroke-miterlimit="10" x1="153.234" y1="53.99" x2="150.054" y2="50.87"/>
	
		<line fill="none" stroke="#000000" stroke-width="0.24" stroke-linecap="round" stroke-linejoin="round" stroke-miterlimit="10" x1="148.734" y1="49.55" x2="145.614" y2="46.37"/>
	
		<line fill="none" stroke="#000000" stroke-width="0.24" stroke-linecap="round" stroke-linejoin="round" stroke-miterlimit="10" x1="144.294" y1="45.05" x2="141.174" y2="41.93"/>
	
		<line fill="none" stroke="#000000" stroke-width="0.24" stroke-linecap="round" stroke-linejoin="round" stroke-miterlimit="10" x1="139.854" y1="40.61" x2="136.674" y2="37.43"/>
	
		<line fill="none" stroke="#000000" stroke-width="0.24" stroke-linecap="round" stroke-linejoin="round" stroke-miterlimit="10" x1="135.354" y1="36.17" x2="132.234" y2="32.99"/>
	
		<line fill="none" stroke="#000000" stroke-width="0.24" stroke-linecap="round" stroke-linejoin="round" stroke-miterlimit="10" x1="130.914" y1="31.67" x2="127.734" y2="28.55"/>
	
		<line fill="none" stroke="#000000" stroke-width="0.24" stroke-linecap="round" stroke-linejoin="round" stroke-miterlimit="10" x1="126.474" y1="27.23" x2="125.214" y2="25.97"/>
	
		<line fill="none" stroke="#000000" stroke-width="0.24" stroke-linecap="round" stroke-linejoin="round" stroke-miterlimit="10" x1="177.474" y1="65.09" x2="174.474" y2="62.15"/>
	
		<line fill="none" stroke="#000000" stroke-width="0.24" stroke-linecap="round" stroke-linejoin="round" stroke-miterlimit="10" x1="173.154" y1="60.83" x2="170.034" y2="57.65"/>
	
		<line fill="none" stroke="#000000" stroke-width="0.24" stroke-linecap="round" stroke-linejoin="round" stroke-miterlimit="10" x1="168.714" y1="56.33" x2="165.534" y2="53.21"/>
	
		<line fill="none" stroke="#000000" stroke-width="0.24" stroke-linecap="round" stroke-linejoin="round" stroke-miterlimit="10" x1="164.214" y1="51.89" x2="161.094" y2="48.77"/>
	
		<line fill="none" stroke="#000000" stroke-width="0.24" stroke-linecap="round" stroke-linejoin="round" stroke-miterlimit="10" x1="159.774" y1="47.45" x2="156.654" y2="44.27"/>
	
		<line fill="none" stroke="#000000" stroke-width="0.24" stroke-linecap="round" stroke-linejoin="round" stroke-miterlimit="10" x1="155.334" y1="42.95" x2="152.154" y2="39.83"/>
	
		<line fill="none" stroke="#000000" stroke-width="0.24" stroke-linecap="round" stroke-linejoin="round" stroke-miterlimit="10" x1="150.834" y1="38.51" x2="147.714" y2="35.39"/>
	
		<line fill="none" stroke="#000000" stroke-width="0.24" stroke-linecap="round" stroke-linejoin="round" stroke-miterlimit="10" x1="146.394" y1="34.07" x2="143.214" y2="30.89"/>
	
		<line fill="none" stroke="#000000" stroke-width="0.24" stroke-linecap="round" stroke-linejoin="round" stroke-miterlimit="10" x1="141.954" y1="29.57" x2="138.774" y2="26.45"/>
	
		<line fill="none" stroke="#000000" stroke-width="0.24" stroke-linecap="round" stroke-linejoin="round" stroke-miterlimit="10" x1="190.554" y1="65.09" x2="189.954" y2="64.49"/>
	
		<line fill="none" stroke="#000000" stroke-width="0.24" stroke-linecap="round" stroke-linejoin="round" stroke-miterlimit="10" x1="188.634" y1="63.17" x2="185.514" y2="60.05"/>
	
		<line fill="none" stroke="#000000" stroke-width="0.24" stroke-linecap="round" stroke-linejoin="round" stroke-miterlimit="10" x1="184.194" y1="58.73" x2="181.014" y2="55.55"/>
	
		<line fill="none" stroke="#000000" stroke-width="0.24" stroke-linecap="round" stroke-linejoin="round" stroke-miterlimit="10" x1="179.694" y1="54.23" x2="176.574" y2="51.11"/>
	
		<line fill="none" stroke="#000000" stroke-width="0.24" stroke-linecap="round" stroke-linejoin="round" stroke-miterlimit="10" x1="175.254" y1="49.79" x2="172.134" y2="46.67"/>
	
		<line fill="none" stroke="#000000" stroke-width="0.24" stroke-linecap="round" stroke-linejoin="round" stroke-miterlimit="10" x1="170.814" y1="45.35" x2="167.634" y2="42.17"/>
	
		<line fill="none" stroke="#000000" stroke-width="0.24" stroke-linecap="round" stroke-linejoin="round" stroke-miterlimit="10" x1="166.314" y1="40.85" x2="163.194" y2="37.73"/>
	
		<line fill="none" stroke="#000000" stroke-width="0.24" stroke-linecap="round" stroke-linejoin="round" stroke-miterlimit="10" x1="161.874" y1="36.41" x2="158.754" y2="33.29"/>
	
		<line fill="none" stroke="#000000" stroke-width="0.24" stroke-linecap="round" stroke-linejoin="round" stroke-miterlimit="10" x1="157.434" y1="31.97" x2="154.254" y2="28.79"/>
	
		<line fill="none" stroke="#000000" stroke-width="0.24" stroke-linecap="round" stroke-linejoin="round" stroke-miterlimit="10" x1="152.934" y1="27.47" x2="151.434" y2="25.97"/>
	
		<line fill="none" stroke="#000000" stroke-width="0.24" stroke-linecap="round" stroke-linejoin="round" stroke-miterlimit="10" x1="202.494" y1="63.89" x2="200.994" y2="62.39"/>
	
		<line fill="none" stroke="#000000" stroke-width="0.24" stroke-linecap="round" stroke-linejoin="round" stroke-miterlimit="10" x1="199.674" y1="61.07" x2="196.494" y2="57.95"/>
	
		<line fill="none" stroke="#000000" stroke-width="0.24" stroke-linecap="round" stroke-linejoin="round" stroke-miterlimit="10" x1="195.174" y1="56.63" x2="192.054" y2="53.45"/>
	
		<line fill="none" stroke="#000000" stroke-width="0.24" stroke-linecap="round" stroke-linejoin="round" stroke-miterlimit="10" x1="190.734" y1="52.13" x2="187.614" y2="49.01"/>
	
		<line fill="none" stroke="#000000" stroke-width="0.24" stroke-linecap="round" stroke-linejoin="round" stroke-miterlimit="10" x1="186.294" y1="47.69" x2="183.114" y2="44.57"/>
	
		<line fill="none" stroke="#000000" stroke-width="0.24" stroke-linecap="round" stroke-linejoin="round" stroke-miterlimit="10" x1="181.794" y1="43.25" x2="178.674" y2="40.07"/>
	
		<line fill="none" stroke="#000000" stroke-width="0.24" stroke-linecap="round" stroke-linejoin="round" stroke-miterlimit="10" x1="177.354" y1="38.75" x2="174.234" y2="35.63"/>
	
		<line fill="none" stroke="#000000" stroke-width="0.24" stroke-linecap="round" stroke-linejoin="round" stroke-miterlimit="10" x1="172.914" y1="34.31" x2="169.734" y2="31.19"/>
	
		<line fill="none" stroke="#000000" stroke-width="0.24" stroke-linecap="round" stroke-linejoin="round" stroke-miterlimit="10" x1="168.414" y1="29.87" x2="165.294" y2="26.69"/>
	
		<line fill="none" stroke="#000000" stroke-width="0.24" stroke-linecap="round" stroke-linejoin="round" stroke-miterlimit="10" x1="206.214" y1="54.53" x2="203.094" y2="51.35"/>
	
		<line fill="none" stroke="#000000" stroke-width="0.24" stroke-linecap="round" stroke-linejoin="round" stroke-miterlimit="10" x1="201.774" y1="50.03" x2="198.594" y2="46.91"/>
	
		<line fill="none" stroke="#000000" stroke-width="0.24" stroke-linecap="round" stroke-linejoin="round" stroke-miterlimit="10" x1="197.274" y1="45.59" x2="194.154" y2="42.47"/>
	
		<line fill="none" stroke="#000000" stroke-width="0.24" stroke-linecap="round" stroke-linejoin="round" stroke-miterlimit="10" x1="192.834" y1="41.15" x2="189.714" y2="37.97"/>
	
		<line fill="none" stroke="#000000" stroke-width="0.24" stroke-linecap="round" stroke-linejoin="round" stroke-miterlimit="10" x1="188.394" y1="36.65" x2="185.214" y2="33.53"/>
	
		<line fill="none" stroke="#000000" stroke-width="0.24" stroke-linecap="round" stroke-linejoin="round" stroke-miterlimit="10" x1="183.894" y1="32.21" x2="180.774" y2="29.09"/>
	
		<line fill="none" stroke="#000000" stroke-width="0.24" stroke-linecap="round" stroke-linejoin="round" stroke-miterlimit="10" x1="179.454" y1="27.77" x2="177.654" y2="25.97"/>
	
		<line fill="none" stroke="#000000" stroke-width="0.24" stroke-linecap="round" stroke-linejoin="round" stroke-miterlimit="10" x1="207.474" y1="42.65" x2="205.194" y2="40.37"/>
	
		<line fill="none" stroke="#000000" stroke-width="0.24" stroke-linecap="round" stroke-linejoin="round" stroke-miterlimit="10" x1="203.874" y1="39.05" x2="200.694" y2="35.87"/>
	
		<line fill="none" stroke="#000000" stroke-width="0.24" stroke-linecap="round" stroke-linejoin="round" stroke-miterlimit="10" x1="199.374" y1="34.55" x2="196.254" y2="31.43"/>
	
		<line fill="none" stroke="#000000" stroke-width="0.24" stroke-linecap="round" stroke-linejoin="round" stroke-miterlimit="10" x1="194.934" y1="30.11" x2="191.814" y2="26.99"/>
	
		<line fill="none" stroke="#000000" stroke-width="0.24" stroke-linecap="round" stroke-linejoin="round" stroke-miterlimit="10" x1="197.814" y1="25.97" x2="122.874" y2="25.97"/>
	
		<path fill="none" stroke="#000000" stroke-width="0.24" stroke-linecap="round" stroke-linejoin="bevel" stroke-miterlimit="10" d="
		M122.874,26.03l-1.08,0.06c-4.432,0.515-7.945,4.028-8.46,8.46l-0.06,1.08"/>
	
		<line fill="none" stroke="#000000" stroke-width="0.24" stroke-linecap="round" stroke-linejoin="round" stroke-miterlimit="10" x1="113.214" y1="35.63" x2="113.214" y2="55.49"/>
	
		<path fill="none" stroke="#000000" stroke-width="0.24" stroke-linecap="round" stroke-linejoin="bevel" stroke-miterlimit="10" d="
		M113.274,55.49l0.06,1.08c0.516,4.432,4.028,7.945,8.46,8.46l1.08,0.06"/>
	
		<line fill="none" stroke="#000000" stroke-width="0.24" stroke-linecap="round" stroke-linejoin="round" stroke-miterlimit="10" x1="122.874" y1="65.09" x2="197.814" y2="65.09"/>
	
		<path fill="none" stroke="#000000" stroke-width="0.24" stroke-linecap="round" stroke-linejoin="bevel" stroke-miterlimit="10" d="
		M197.814,65.09l1.08-0.06c4.432-0.515,7.945-4.028,8.46-8.46l0.06-1.08"/>
	
		<line fill="none" stroke="#000000" stroke-width="0.24" stroke-linecap="round" stroke-linejoin="round" stroke-miterlimit="10" x1="207.474" y1="55.49" x2="207.474" y2="35.63"/>
	
		<path fill="none" stroke="#000000" stroke-width="0.24" stroke-linecap="round" stroke-linejoin="bevel" stroke-miterlimit="10" d="
		M207.414,35.63l-0.06-1.08c-0.515-4.432-4.028-7.945-8.46-8.46l-1.08-0.06"/>
	
		<line fill="none" stroke="#000000" stroke-width="0.72" stroke-linecap="round" stroke-linejoin="round" stroke-miterlimit="10" x1="211.614" y1="119.15" x2="282.234" y2="119.15"/>
	<path fill-rule="evenodd" clip-rule="evenodd" d="M284.934,122.51h-0.12l-0.06,0.12l-0.06,0.18v0.72l2.94-0.12h-0.06
		c-0.883-0.129-1.235-0.194-2.04-0.6l-0.3-0.18"/>
	<path fill-rule="evenodd" clip-rule="evenodd" d="M290.574,114.77l-2.46,0.12h0.18c1.163,0.129,1.202,0.413,2.04,0.72h0.12
		l0.06-0.12l0.06-0.18v-0.3"/>
	<path fill-rule="evenodd" clip-rule="evenodd" d="M288.114,113.75h-0.6c-2.699,0.313-3.506,3.382-1.38,5.04l0.9,0.54
		c0.769,0.365,2.025,0.757,2.46,1.5l0.06,0.12l0.12,0.3c0.138,1.061-0.314,1.853-1.38,2.04l-0.3,0.06l-0.36,0.06l-2.94,0.12
		l0.18,0.24v0.06l0.3,0.18l0.3,0.12c2.669,1.254,6.374-0.066,5.58-3.48l-0.12-0.3l-0.12-0.24l-0.18-0.3
		c-0.907-1.074-2.129-1.237-3.24-1.98l-0.3-0.18l-0.06-0.06l-0.3-0.24l-0.18-0.24l-0.06-0.12l-0.12-0.3v-0.6l0.12-0.3l0.06-0.24
		l0.24-0.24l0.24-0.18l0.3-0.12l0.06-0.06l0.36-0.06h0.36l2.46-0.12l-0.06-0.18v-0.12l-0.12-0.12l-0.3-0.18l-0.24-0.12l-0.36-0.12
		l-0.3-0.06l-0.36-0.12h-0.36"/>
	<polyline fill-rule="evenodd" clip-rule="evenodd" points="294.594,124.19 294.534,124.31 294.414,124.43 294.234,124.43 
		293.874,124.49 293.574,124.43 293.334,124.43 293.214,124.31 293.154,124.19 293.154,114.11 293.214,113.99 293.334,113.87 
		293.574,113.87 293.874,113.81 294.234,113.87 294.414,113.87 294.534,113.99 294.594,114.11 294.594,124.19 	"/>
	<polyline fill-rule="evenodd" clip-rule="evenodd" points="306.234,114.77 303.114,122.39 303.054,122.39 302.334,124.25 
		302.394,124.37 302.514,124.43 302.754,124.49 303.294,124.49 303.534,124.43 303.654,124.37 303.714,124.25 307.434,115.01 	"/>
	<polyline fill-rule="evenodd" clip-rule="evenodd" points="300.054,114.71 298.794,115.01 302.334,124.25 303.054,122.39 	"/>
	<path fill-rule="evenodd" clip-rule="evenodd" d="M298.854,113.87h-1.02l-0.3,0.18l-0.12,0.12l-0.06,0.36v9.66l0.06,0.12l0.12,0.12
		c0.379,0.001,0.904,0.169,1.2-0.12l0.06-0.12v-9.18l1.26-0.3v-0.06l-0.18-0.3v-0.06l-0.24-0.18l-0.06-0.06l-0.3-0.12h-0.12"/>
	<path fill-rule="evenodd" clip-rule="evenodd" d="M308.274,113.87h-0.96c-0.481,0.03-0.7,0.173-0.9,0.6l-0.18,0.3l1.2,0.24v9.18
		l0.06,0.12l0.12,0.12h0.18l0.36,0.06l0.36-0.06h0.18l0.12-0.12l0.06-0.12v-9.66l-0.06-0.3l-0.12-0.18l-0.18-0.12"/>
	<polyline fill-rule="evenodd" clip-rule="evenodd" points="316.794,124.19 316.734,124.31 316.614,124.43 316.434,124.43 
		316.074,124.49 315.774,124.43 315.534,124.43 315.414,124.31 315.354,124.19 315.354,114.11 315.414,113.99 315.534,113.87 
		315.774,113.87 316.074,113.81 316.434,113.87 316.614,113.87 316.734,113.99 316.794,114.11 316.794,124.19 	"/>
	<path fill-rule="evenodd" clip-rule="evenodd" d="M326.454,122.33l-0.3,0.12c-0.565,0.474-1.377,0.807-2.1,0.84l-0.36,0.06h2.94
		l0.06-0.18v-0.54l-0.06-0.18l-0.06-0.12"/>
	<path fill-rule="evenodd" clip-rule="evenodd" d="M320.514,114.95l-0.18,0.24l-0.24,0.3c-1.349,1.83-1.429,5.326-0.24,7.2l0.18,0.3
		l0.18,0.24l0.12,0.06c0.574,0.726,1.892,1.229,2.82,1.26h0.48c0.874-0.027,1.878-0.24,2.58-0.78l0.24-0.18l0.12-0.12l0.06-0.12
		h-2.94c-4.202,0.157-4.251-7.943-0.42-8.34l0.36-0.06"/>
	<path fill-rule="evenodd" clip-rule="evenodd" d="M323.694,113.75h-0.3c-0.957,0.055-1.916,0.362-2.64,1.02l-0.24,0.18h3.12
		c1.723,0.155,1.435,0.385,2.76,1.02h0.12l0.06-0.12l0.06-0.18v-0.54l-0.06-0.18v-0.18l-0.18-0.12
		c-0.179-0.363-1.643-0.85-2.04-0.84l-0.36-0.06"/>
	<path fill-rule="evenodd" clip-rule="evenodd" d="M335.334,122.33l-0.3,0.12c-0.566,0.474-1.377,0.807-2.1,0.84l-0.36,0.06h2.94
		l0.06-0.18v-0.54l-0.06-0.18l-0.06-0.12"/>
	<path fill-rule="evenodd" clip-rule="evenodd" d="M329.394,114.95l-0.18,0.24l-0.24,0.3c-1.349,1.83-1.429,5.326-0.24,7.2l0.18,0.3
		l0.18,0.24l0.12,0.06c0.574,0.726,1.892,1.229,2.82,1.26h0.48c0.874-0.027,1.878-0.24,2.58-0.78l0.24-0.18l0.12-0.12l0.06-0.12
		h-2.94c-4.202,0.157-4.251-7.943-0.42-8.34l0.36-0.06"/>
	<path fill-rule="evenodd" clip-rule="evenodd" d="M332.574,113.75h-0.3c-0.957,0.055-1.916,0.362-2.64,1.02l-0.24,0.18h3.12
		c1.723,0.155,1.435,0.385,2.76,1.02h0.12l0.06-0.12l0.06-0.18v-0.54l-0.06-0.18v-0.18l-0.18-0.12
		c-0.179-0.363-1.643-0.85-2.04-0.84l-0.36-0.06"/>
	<polyline fill-rule="evenodd" clip-rule="evenodd" points="338.874,124.19 338.814,124.31 338.694,124.43 338.514,124.43 
		338.154,124.49 337.854,124.43 337.614,124.43 337.494,124.31 337.434,124.19 337.434,114.11 337.494,113.99 337.614,113.87 
		337.854,113.87 338.154,113.81 338.514,113.87 338.694,113.87 338.814,113.99 338.874,114.11 338.874,124.19 	"/>
	<path fill-rule="evenodd" clip-rule="evenodd" d="M348.054,114.89l-3.54,0.18h0.18c4.904-0.38,4.88,8.786-0.18,8.16h-1.44l5.1,0.06
		l0.24-0.18v-0.06c1.786-1.608,1.85-6.127,0.06-7.8l-0.18-0.18"/>
	<path fill-rule="evenodd" clip-rule="evenodd" d="M344.574,113.87h-2.46l-0.3,0.12l-0.06,0.12l-0.12,0.36v9.36l0.06,0.24l0.12,0.24
		h0.06c1.434,0.304,4.688,0.244,6.06-0.78l0.24-0.24l-5.1-0.06v-8.16h1.44l3.54-0.18l-0.24-0.18c-0.675-0.483-1.696-0.798-2.52-0.78
		l-0.36-0.06"/>
	
		<line fill="none" stroke="#000000" stroke-width="0.72" stroke-linecap="round" stroke-linejoin="round" stroke-miterlimit="10" x1="209.874" y1="52.19" x2="282.234" y2="52.19"/>
	<path fill-rule="evenodd" clip-rule="evenodd" d="M290.514,47.99h-3.18h0.12l0.3,0.06c0.941-0.049,1.817,0.646,1.86,1.62l0.06,0.42
		v0.18c-0.217,1.245-0.734,1.805-1.98,1.98h-1.62l4.08,0.18c1.048-0.86,1.184-2.693,0.72-3.9l-0.18-0.3"/>
	<path fill-rule="evenodd" clip-rule="evenodd" d="M287.454,46.85h-2.34l-0.3,0.12l-0.06,0.18l-0.12,0.3v9.72l0.06,0.12l0.12,0.12
		h0.24l0.3,0.06l0.36-0.06h0.18l0.12-0.12l0.06-0.12v-3.78h1.62l0.36-0.06h0.3l0.3-0.12l0.3-0.06h0.06l0.3-0.18l0.3-0.12l0.3-0.18
		l0.24-0.24l-4.08-0.18v-4.26h4.44l-0.24-0.24c-0.581-0.551-1.369-0.841-2.16-0.84l-0.3-0.06"/>
	<path fill-rule="evenodd" clip-rule="evenodd" d="M293.994,46.79l-0.36,0.06h-0.18l-0.12,0.12l-0.06,0.12v6.96l0.06,0.36l0.12,0.6
		c0.265,0.668,0.319,1.032,0.9,1.56l0.06,0.06l0.3,0.24l0.24,0.18c1.415,0.717,3.322,0.72,4.68-0.12l0.3-0.18l0.24-0.24l-2.94-0.12
		c-0.541-0.023-1.536-0.321-1.86-0.78h-0.06l-0.18-0.3l-0.18-0.24l-0.12-0.36l-0.06-0.24l-0.06-0.3v-0.36l-0.06-0.36v-6.48
		l-0.12-0.12h-0.24"/>
	<path fill-rule="evenodd" clip-rule="evenodd" d="M300.534,46.79l-0.3,0.06h-0.24l-0.12,0.12l-0.06,0.12v7.08l-0.12,0.6h-0.06
		l-0.12,0.36c-0.343,0.699-1.136,1.246-1.92,1.2l-0.36,0.06l2.94,0.12l0.12-0.12c0.15-0.341,0.703-0.863,0.66-1.26l0.12-0.3
		l0.12-0.6v-0.36l0.06-0.36v-6.42l-0.06-0.12l-0.12-0.12h-0.18"/>
	<polyline fill-rule="evenodd" clip-rule="evenodd" points="304.734,46.79 304.374,46.85 304.194,46.85 304.074,46.97 
		304.014,47.09 304.014,57.17 304.074,57.29 304.194,57.41 304.434,57.41 304.734,57.47 305.094,57.41 305.274,57.41 305.394,57.29 
		305.454,57.17 305.454,47.09 305.394,46.97 305.274,46.85 305.094,46.85 	"/>
	<polyline fill-rule="evenodd" clip-rule="evenodd" points="310.014,46.79 309.654,46.85 309.474,46.85 309.294,46.97 
		309.174,47.09 305.454,51.77 305.454,51.95 309.294,57.17 309.474,57.35 309.714,57.41 309.834,57.47 310.254,57.47 310.554,57.41 
		310.794,57.41 310.914,57.29 310.914,57.05 310.734,56.75 306.954,51.77 310.434,47.57 310.494,47.57 310.674,47.27 310.734,47.09 
		310.674,46.97 310.554,46.91 310.374,46.85 	"/>
	
		<path fill="none" stroke="#000000" stroke-width="0.72" stroke-linecap="round" stroke-linejoin="bevel" stroke-miterlimit="10" d="
		M206.694,115.79l0.06,0.66c0.335,1.449,1.191,2.305,2.64,2.64l0.66,0.06"/>
	
		<line fill="none" stroke="#000000" stroke-width="0.72" stroke-linecap="round" stroke-linejoin="round" stroke-miterlimit="10" x1="206.634" y1="111.71" x2="206.634" y2="113.45"/>
	
		<path fill="none" stroke="#000000" stroke-width="0.72" stroke-linecap="round" stroke-linejoin="bevel" stroke-miterlimit="10" d="
		M206.634,111.71l-0.06-0.66c-0.335-1.449-1.191-2.305-2.64-2.64l-0.66-0.06"/>
	
		<path fill="none" stroke="#000000" stroke-width="0.72" stroke-linecap="round" stroke-linejoin="bevel" stroke-miterlimit="10" d="
		M210.054,119.15l-0.66,0.06c-1.449,0.334-2.305,1.192-2.64,2.64l-0.06,0.66"/>
	
		<line fill="none" stroke="#000000" stroke-width="0.72" stroke-linecap="round" stroke-linejoin="round" stroke-miterlimit="10" x1="206.634" y1="126.53" x2="206.634" y2="124.79"/>
	
		<path fill="none" stroke="#000000" stroke-width="0.72" stroke-linecap="round" stroke-linejoin="bevel" stroke-miterlimit="10" d="
		M203.274,129.89l0.66-0.06c1.448-0.334,2.306-1.192,2.64-2.64l0.06-0.66"/>
	
		<line fill="none" stroke="#000000" stroke-width="0.72" stroke-linecap="round" stroke-linejoin="round" stroke-miterlimit="10" x1="206.634" y1="115.79" x2="206.634" y2="113.45"/>
	
		<line fill="none" stroke="#000000" stroke-width="0.72" stroke-linecap="round" stroke-linejoin="round" stroke-miterlimit="10" x1="206.634" y1="122.51" x2="206.634" y2="124.79"/>
</g>
</svg>
