<?xml version="1.0" encoding="UTF-8" standalone="no"?>
<!DOCTYPE svg PUBLIC "-//W3C//DTD SVG 1.1//EN" "http://www.w3.org/Graphics/SVG/1.1/DTD/svg11.dtd">
<!-- Generated by Microsoft Visio, SVG Export Thread_on-mesh_commissioning.svg Page-1 -->
<svg xmlns="http://www.w3.org/2000/svg" xmlns:xlink="http://www.w3.org/1999/xlink" xmlns:ev="http://www.w3.org/2001/xml-events"
		xmlns:v="http://schemas.microsoft.com/visio/2003/SVGExtensions/" width="5.03089in" height="5.03089in"
		viewBox="0 0 362.224 362.224" xml:space="preserve" color-interpolation-filters="sRGB" class="st11">
	<v:documentProperties v:langID="1033" v:metric="true" v:viewMarkup="false">
		<v:userDefs>
			<v:ud v:nameU="msvNoAutoConnect" v:val="VT0(1):26"/>
		</v:userDefs>
	</v:documentProperties>

	<style type="text/css">
	<![CDATA[
		.st1 {fill:#f2f2f2;stroke:#d8d8d8;stroke-linecap:round;stroke-linejoin:round;stroke-width:0.24}
		.st2 {stroke:#0070c0;stroke-linecap:round;stroke-linejoin:round;stroke-width:2}
		.st3 {fill:#dbeef3;stroke:#31859b;stroke-linecap:round;stroke-linejoin:round;stroke-width:1}
		.st4 {fill:none;stroke:none;stroke-linecap:round;stroke-linejoin:round;stroke-width:0.75}
		.st5 {fill:#000000;font-family:Calibri;font-size:1.00001em}
		.st6 {font-size:1em}
		.st7 {fill:#f2dcda;stroke:#923931;stroke-linecap:round;stroke-linejoin:round;stroke-width:0.24}
		.st8 {fill:#fff2cc;stroke:#bf9000;stroke-linecap:round;stroke-linejoin:round;stroke-width:0.24}
		.st9 {fill:#ebf1df;stroke:#789440;stroke-linecap:round;stroke-linejoin:round;stroke-width:0.24}
		.st10 {fill:#a5a5a5;font-family:Calibri;font-size:1.00001em}
		.st11 {fill:none;fill-rule:evenodd;font-size:12px;overflow:visible;stroke-linecap:square;stroke-miterlimit:3}
	]]>
	</style>

	<g v:mID="0" v:index="1" v:groupContext="foregroundPage">
		<title>Page-1</title>
		<v:pageProperties v:drawingScale="0.0393701" v:pageScale="0.0393701" v:drawingUnits="24" v:shadowOffsetX="8.50394"
				v:shadowOffsetY="-8.50394"/>
		<v:layer v:name="Connector" v:index="0"/>
		<g id="shape66-1" v:mID="66" v:groupContext="shape" transform="translate(18.12,-18.12)">
			<title>Circle</title>
			<v:userDefs>
				<v:ud v:nameU="visVersion" v:val="VT0(15):26"/>
			</v:userDefs>
			<path d="M0 199.23 A162.992 162.992 0 1 1 325.98 199.23 A162.992 162.992 0 0 1 0 199.23 Z" class="st1"/>
		</g>
		<g id="shape61-3" v:mID="61" v:groupContext="shape" v:layerMember="0" transform="translate(145.934,-137.267)">
			<title>Dynamic connector.61</title>
			<path d="M0 362.22 L-32.23 393.44" class="st2"/>
		</g>
		<g id="shape53-6" v:mID="53" v:groupContext="shape" v:layerMember="0" transform="translate(117.29,-173.902)">
			<title>Dynamic connector</title>
			<path d="M0 363.68 L20.87 374.95" class="st2"/>
		</g>
		<g id="shape55-9" v:mID="55" v:groupContext="shape" v:layerMember="0" transform="translate(120.773,-186.272)">
			<title>Dynamic connector.55</title>
			<path d="M0 362.22 L77.63 341.71" class="st2"/>
		</g>
		<g id="shape56-12" v:mID="56" v:groupContext="shape" v:layerMember="0" transform="translate(203.194,-192.026)">
			<title>Dynamic connector.56</title>
			<path d="M0 362.22 L-31.95 387.54" class="st2"/>
		</g>
		<g id="shape57-15" v:mID="57" v:groupContext="shape" v:layerMember="0" transform="translate(218.163,-164.248)">
			<title>Dynamic connector.57</title>
			<path d="M4 362.22 L10.17 334.45" class="st2"/>
		</g>
		<g id="shape54-18" v:mID="54" v:groupContext="shape" v:layerMember="0" transform="translate(176.699,-160.45)">
			<title>Dynamic connector.54</title>
			<path d="M0 368.11 L21.42 370.52" class="st2"/>
		</g>
		<g id="shape62-21" v:mID="62" v:groupContext="shape" v:layerMember="0" transform="translate(214.835,-128.246)">
			<title>Dynamic connector.62</title>
			<path d="M5.52 362.22 L8.65 394.11" class="st2"/>
		</g>
		<g id="shape29-24" v:mID="29" v:groupContext="shape" transform="translate(209.168,-67.7263)">
			<title>Circle.29</title>
			<v:userDefs>
				<v:ud v:nameU="visVersion" v:val="VT0(15):26"/>
			</v:userDefs>
			<path d="M0 347.91 A14.3185 14.3185 0 1 1 28.64 347.91 A14.3185 14.3185 0 0 1 0 347.91 Z" class="st3"/>
		</g>
		<g id="shape33-26" v:mID="33" v:groupContext="shape" transform="translate(223.632,-188.199)">
			<title>Sheet.33</title>
			<desc>Leader</desc>
			<v:textBlock v:margins="rect(4,4,4,4)" v:tabSpace="42.5197"/>
			<v:textRect cx="28.3465" cy="355.138" width="56.7" height="14.1732"/>
			<rect x="0" y="348.051" width="56.6929" height="14.1732" class="st4"/>
			<text x="11.74" y="358.74" class="st5" v:langID="1033"><v:paragraph v:horizAlign="1"/><v:tabList/>Leader</text>		</g>
		<g id="shape37-29" v:mID="37" v:groupContext="shape" transform="translate(230.718,-67.7263)">
			<title>Sheet.37</title>
			<desc>Joiner</desc>
			<v:textBlock v:margins="rect(4,4,4,4)" v:tabSpace="42.5197"/>
			<v:textRect cx="28.3465" cy="355.138" width="56.7" height="14.1732"/>
			<rect x="0" y="348.051" width="56.6929" height="14.1732" class="st4"/>
			<text x="13.66" y="358.74" class="st5" v:langID="1033"><v:paragraph v:horizAlign="1"/><v:tabList/>Joiner</text>		</g>
		<g id="shape41-32" v:mID="41" v:groupContext="shape" transform="translate(141.732,-257.953)">
			<title>Sheet.41</title>
			<desc>On-mesh Commissioner</desc>
			<v:textBlock v:margins="rect(4,4,4,4)" v:tabSpace="42.5197"/>
			<v:textRect cx="43.2283" cy="350.886" width="86.46" height="22.6772"/>
			<rect x="0" y="339.547" width="86.4567" height="22.6772" class="st4"/>
			<text x="20.99" y="347.29" class="st5" v:langID="1033"><v:paragraph v:horizAlign="1"/><v:tabList/>On-mesh <tspan
						x="8.44" dy="1.2em" class="st6">Commissioner</tspan></text>		</g>
		<g id="shape69-36" v:mID="69" v:groupContext="shape" v:layerMember="0" transform="translate(219.233,-227.422)">
			<title>Dynamic connector.69</title>
			<path d="M1.07 362.22 L13.1 319.67" class="st2"/>
		</g>
		<g id="shape44-39" v:mID="44" v:groupContext="shape" transform="translate(196.419,-192.026)">
			<title>Pentagon</title>
			<v:userDefs>
				<v:ud v:nameU="visVersion" v:val="VT0(15):26"/>
			</v:userDefs>
			<path d="M19.35 323.53 L-1 338.31 L6.77 362.22 L31.92 362.22 L39.69 338.31 L19.35 323.53 Z" class="st7"/>
		</g>
		<g id="shape45-41" v:mID="45" v:groupContext="shape" transform="translate(199.112,-128.246)">
			<title>Pentagon.45</title>
			<v:userDefs>
				<v:ud v:nameU="visVersion" v:val="VT0(15):26"/>
			</v:userDefs>
			<path d="M19.35 323.53 L-1 338.31 L6.77 362.22 L31.92 362.22 L39.69 338.31 L19.35 323.53 Z" class="st8"/>
		</g>
		<g id="shape46-43" v:mID="46" v:groupContext="shape" transform="translate(139.159,-137.267)">
			<title>Pentagon.46</title>
			<v:userDefs>
				<v:ud v:nameU="visVersion" v:val="VT0(15):26"/>
			</v:userDefs>
			<path d="M19.35 323.53 L-1 338.31 L6.77 362.22 L31.92 362.22 L39.69 338.31 L19.35 323.53 Z" class="st8"/>
		</g>
		<g id="shape47-45" v:mID="47" v:groupContext="shape" transform="translate(81.8995,-161.766)">
			<title>Pentagon.47</title>
			<v:userDefs>
				<v:ud v:nameU="visVersion" v:val="VT0(15):26"/>
			</v:userDefs>
			<path d="M19.35 323.53 L-1 338.31 L6.77 362.22 L31.92 362.22 L39.69 338.31 L19.35 323.53 Z" class="st8"/>
		</g>
		<g id="shape49-47" v:mID="49" v:groupContext="shape" transform="translate(89.2625,-81.609)">
			<title>Circle.49</title>
			<v:userDefs>
				<v:ud v:nameU="visVersion" v:val="VT0(15):26"/>
			</v:userDefs>
			<path d="M0 347.91 A14.3185 14.3185 0 1 1 28.64 347.91 A14.3185 14.3185 0 0 1 0 347.91 Z" class="st3"/>
		</g>
		<g id="shape51-49" v:mID="51" v:groupContext="shape" transform="translate(223.632,-114.498)">
			<title>Sheet.51</title>
			<desc>Joiner Router</desc>
			<v:textBlock v:margins="rect(4,4,4,4)" v:tabSpace="42.5197"/>
			<v:textRect cx="28.3465" cy="353.72" width="56.7" height="17.0079"/>
			<rect x="0" y="345.216" width="56.6929" height="17.0079" class="st4"/>
			<text x="13.66" y="350.12" class="st5" v:langID="1033"><v:paragraph v:horizAlign="1"/><v:tabList/>Joiner <tspan
						x="11.69" dy="1.2em" class="st6">Router</tspan></text>		</g>
		<g id="shape60-53" v:mID="60" v:groupContext="shape" transform="translate(39.3798,-81.609)">
			<title>Sheet.60</title>
			<desc>Joiner</desc>
			<v:textBlock v:margins="rect(4,4,4,4)" v:tabSpace="42.5197"/>
			<v:textRect cx="28.3465" cy="355.138" width="56.7" height="14.1732"/>
			<rect x="0" y="348.051" width="56.6929" height="14.1732" class="st4"/>
			<text x="13.66" y="358.74" class="st5" v:langID="1033"><v:paragraph v:horizAlign="1"/><v:tabList/>Joiner</text>		</g>
		<g id="shape63-56" v:mID="63" v:groupContext="shape" transform="translate(142.419,-114.498)">
			<title>Sheet.63</title>
			<desc>Joiner Router</desc>
			<v:textBlock v:margins="rect(4,4,4,4)" v:tabSpace="42.5197"/>
			<v:textRect cx="28.3465" cy="353.72" width="56.7" height="17.0079"/>
			<rect x="0" y="345.216" width="56.6929" height="17.0079" class="st4"/>
			<text x="13.66" y="350.12" class="st5" v:langID="1033"><v:paragraph v:horizAlign="1"/><v:tabList/>Joiner <tspan
						x="11.69" dy="1.2em" class="st6">Router</tspan></text>		</g>
		<g id="shape64-60" v:mID="64" v:groupContext="shape" transform="translate(39.3798,-157.018)">
			<title>Sheet.64</title>
			<desc>Router</desc>
			<v:textBlock v:margins="rect(4,4,4,4)" v:tabSpace="42.5197"/>
			<v:textRect cx="28.3465" cy="353.72" width="56.7" height="17.0079"/>
			<rect x="0" y="345.216" width="56.6929" height="17.0079" class="st4"/>
			<text x="11.69" y="357.32" class="st5" v:langID="1033"><v:paragraph v:horizAlign="1"/><v:tabList/>Router</text>		</g>
		<g id="shape67-63" v:mID="67" v:groupContext="shape" transform="translate(218.459,-269.978)">
			<title>Pentagon.67</title>
			<v:userDefs>
				<v:ud v:nameU="visVersion" v:val="VT0(15):26"/>
			</v:userDefs>
			<path d="M19.35 323.53 L-1 338.31 L6.77 362.22 L31.92 362.22 L39.69 338.31 L19.35 323.53 Z" class="st9"/>
		</g>
		<g id="shape70-65" v:mID="70" v:groupContext="shape" transform="translate(56.6929,-237.543)">
			<title>Sheet.70</title>
			<desc>Thread network</desc>
			<v:textBlock v:margins="rect(4,4,4,4)" v:tabSpace="42.5197"/>
			<v:textRect cx="31.8898" cy="346.35" width="63.78" height="31.748"/>
			<rect x="0" y="330.476" width="63.7795" height="31.748" class="st4"/>
			<text x="14.71" y="342.75" class="st10" v:langID="1033"><v:paragraph v:horizAlign="1"/><v:tabList/>Thread<v:lf/><tspan
						x="11.47" dy="1.2em" class="st6">network</tspan></text>		</g>
	</g>
</svg>
