<?xml version="1.0" encoding="UTF-8" standalone="no"?>
<!DOCTYPE svg PUBLIC "-//W3C//DTD SVG 1.1//EN" "http://www.w3.org/Graphics/SVG/1.1/DTD/svg11.dtd">
<!-- Generated by Microsoft Visio, SVG Export thread_platform_design_rcp.svg Page-1 -->
<svg xmlns="http://www.w3.org/2000/svg" xmlns:xlink="http://www.w3.org/1999/xlink" xmlns:ev="http://www.w3.org/2001/xml-events"
		xmlns:v="http://schemas.microsoft.com/visio/2003/SVGExtensions/" width="9.75031in" height="7.21821in"
		viewBox="0 0 702.022 519.711" xml:space="preserve" color-interpolation-filters="sRGB" class="st21">
	<v:documentProperties v:langID="1033" v:metric="true" v:viewMarkup="false">
		<v:userDefs>
			<v:ud v:nameU="msvNoAutoConnect" v:val="VT0(1):26"/>
		</v:userDefs>
	</v:documentProperties>

	<style type="text/css">
	<![CDATA[
		.st1 {fill:#0077c8;fill-opacity:0.58;stroke:none;stroke-linecap:round;stroke-linejoin:round;stroke-width:0.75}
		.st2 {stroke:none;stroke-linecap:round;stroke-linejoin:round;stroke-width:0.75}
		.st3 {fill:#ffffff;font-family:Gotham Light;font-size:1.81764em}
		.st4 {fill:#0033a0;stroke:none;stroke-width:1}
		.st5 {fill:#ffffff;font-family:Gotham Light;font-size:1.12521em}
		.st6 {fill:#6ad1e3;stroke:none;stroke-width:1}
		.st7 {fill:#ffffff;font-family:Gotham Light;font-size:1.29833em}
		.st8 {fill:#00a9ce;stroke:#feffff;stroke-width:1}
		.st9 {fill:#ffffff;font-family:Gotham Light;font-size:0.778999em}
		.st10 {fill:#ffffff;font-family:Gotham Light;font-size:0.778381em}
		.st11 {fill:#ffffff;font-family:Gotham Light;font-size:0.69191em}
		.st12 {fill:#ffffff;font-family:Gotham Light;font-size:1.01919em}
		.st13 {fill:#ff0000;stroke:none;stroke-linecap:round;stroke-linejoin:round;stroke-width:0.75}
		.st14 {fill:#333f48;font-family:Gotham Light;font-size:1.29044em}
		.st15 {fill:#ffffff;font-family:Gotham Light;font-size:1.69368em}
		.st16 {fill:#ffffff;font-family:Gotham Light;font-size:0.887169em}
		.st17 {fill:#ffffff;font-family:Gotham Light;font-size:1.04846em}
		.st18 {fill:#0075c8;stroke:#0075c8;stroke-linecap:round;stroke-linejoin:round;stroke-width:0.0604654}
		.st19 {fill:#ffffff;font-family:Gotham Light;font-size:0.833336em}
		.st20 {font-size:1em}
		.st21 {fill:none;fill-rule:evenodd;font-size:12px;overflow:visible;stroke-linecap:square;stroke-miterlimit:3}
	]]>
	</style>

	<g v:mID="0" v:index="1" v:groupContext="foregroundPage">
		<title>Page-1</title>
		<v:pageProperties v:drawingScale="0.0393701" v:pageScale="0.0393701" v:drawingUnits="24" v:shadowOffsetX="8.50394"
				v:shadowOffsetY="-8.50394"/>
		<v:layer v:name="Connector" v:index="0"/>
		<g id="shape55-1" v:mID="55" v:groupContext="shape" transform="translate(414.731,-173.48)">
			<title>Sheet.55</title>
			<path d="M269.29 191.48 L0 191.48 L0 519.71 L269.29 519.71 L269.29 191.48 Z" class="st1"/>
		</g>
		<g id="shape56-3" v:mID="56" v:groupContext="shape" transform="translate(414.731,-180.379)">
			<title>Sheet.56</title>
			<desc>Host processor</desc>
			<v:textBlock v:margins="rect(0,0,0,0)" v:tabSpace="42.5197"/>
			<v:textRect cx="134.646" cy="509.696" width="269.3" height="20.0302"/>
			<path d="M269.29 499.68 L0 499.68 L0 519.71 L269.29 519.71 L269.29 499.68" class="st2"/>
			<text x="53" y="516.24" class="st3" v:langID="1033"><v:paragraph v:horizAlign="1"/><v:tabList/>Host processor</text>		</g>
		<g id="shape59-7" v:mID="59" v:groupContext="shape" transform="translate(421.817,-447.853)">
			<title>Sheet.59</title>
			<path d="M0 471.32 L0 519.71 L255.12 519.71 L255.12 471.32 L0 471.32 L0 471.32 Z" class="st4"/>
		</g>
		<g id="shape60-9" v:mID="60" v:groupContext="shape" transform="translate(422.62,-463.47)">
			<title>Sheet.60</title>
			<desc>Application</desc>
			<v:textBlock v:margins="rect(0,0,0,0)" v:tabSpace="42.5197"/>
			<v:textRect cx="126.938" cy="511.131" width="253.88" height="17.1619"/>
			<path d="M253.88 502.55 L0 502.55 L0 519.71 L253.88 519.71 L253.88 502.55" class="st2"/>
			<text x="88.76" y="515.18" class="st5" v:langID="1033"><v:paragraph v:horizAlign="1"/><v:tabList/>Application</text>		</g>
		<g id="shape67-13" v:mID="67" v:groupContext="shape" transform="translate(421.817,-249.091)">
			<title>Sheet.67</title>
			<path d="M0 354.73 L0 519.71 L255.12 519.71 L255.12 354.73 L0 354.73 L0 354.73 Z" class="st6"/>
		</g>
		<g id="shape71-15" v:mID="71" v:groupContext="shape" transform="translate(437.108,-388.149)">
			<title>Sheet.71</title>
			<desc>Thread stack (OpenThread)</desc>
			<v:textBlock v:margins="rect(0,0,0,0)" v:tabSpace="42.5197"/>
			<v:textRect cx="115.395" cy="509.811" width="230.79" height="19.8018"/>
			<path d="M230.79 499.91 L0 499.91 L0 519.71 L230.79 519.71 L230.79 499.91" class="st2"/>
			<text x="8.62" y="514.48" class="st7" v:langID="1033"><v:paragraph v:horizAlign="1"/><v:tabList/>Thread stack (OpenThread)</text>		</g>
		<g id="shape72-19" v:mID="72" v:groupContext="shape" transform="translate(455.189,-252.263)">
			<title>Sheet.72</title>
			<path d="M192.33 496.61 L0 496.61 L0 519.71 L192.33 519.71 L192.33 496.61 Z" class="st8"/>
		</g>
		<g id="shape73-21" v:mID="73" v:groupContext="shape" transform="translate(502.997,-257.87)">
			<title>Sheet.73</title>
			<desc>IEEE 802.15.4 MAC</desc>
			<v:textBlock v:margins="rect(0,0,0,0)" v:tabSpace="42.5197"/>
			<v:textRect cx="48.3574" cy="513.77" width="96.72" height="11.8826"/>
			<path d="M96.71 507.83 L0 507.83 L0 519.71 L96.71 519.71 L96.71 507.83" class="st2"/>
			<text x="4.99" y="516.57" class="st9" v:langID="1033"><v:paragraph v:horizAlign="1"/><v:tabList/>IEEE 802.15.4 MAC</text>		</g>
		<g id="shape76-25" v:mID="76" v:groupContext="shape" transform="translate(455.189,-303.286)">
			<title>Sheet.76</title>
			<path d="M192.33 496.61 L0 496.61 L0 519.71 L192.33 519.71 L192.33 496.61 Z" class="st8"/>
		</g>
		<g id="shape77-27" v:mID="77" v:groupContext="shape" transform="translate(537.065,-308.956)">
			<title>Sheet.77</title>
			<desc>UDP</desc>
			<v:textBlock v:margins="rect(0,0,0,0)" v:tabSpace="42.5197"/>
			<v:textRect cx="14.289" cy="513.77" width="28.58" height="11.8826"/>
			<path d="M28.58 507.83 L0 507.83 L0 519.71 L28.58 519.71 L28.58 507.83" class="st2"/>
			<text x="3.96" y="516.57" class="st9" v:langID="1033"><v:paragraph v:horizAlign="1"/><v:tabList/>UDP</text>		</g>
		<g id="shape90-31" v:mID="90" v:groupContext="shape" transform="translate(455.189,-277.774)">
			<title>Sheet.90</title>
			<path d="M192.33 496.61 L0 496.61 L0 519.71 L192.33 519.71 L192.33 496.61 Z" class="st8"/>
		</g>
		<g id="shape91-33" v:mID="91" v:groupContext="shape" transform="translate(501.194,-283.382)">
			<title>Sheet.91</title>
			<desc>6LoWPAN / IPv6</desc>
			<v:textBlock v:margins="rect(0,0,0,0)" v:tabSpace="42.5197"/>
			<v:textRect cx="50.1596" cy="513.77" width="100.32" height="11.8826"/>
			<path d="M100.32 507.83 L0 507.83 L0 519.71 L100.32 519.71 L100.32 507.83" class="st2"/>
			<text x="10.37" y="516.57" class="st9" v:langID="1033"><v:paragraph v:horizAlign="1"/><v:tabList/>6LoWPAN / IPv6</text>		</g>
		<g id="shape92-37" v:mID="92" v:groupContext="shape" transform="translate(455.189,-328.283)">
			<title>Sheet.92</title>
			<path d="M96.71 491.11 L0 491.11 L0 519.71 L96.71 519.71 L96.71 491.11 Z" class="st8"/>
		</g>
		<g id="shape93-39" v:mID="93" v:groupContext="shape" transform="translate(485.665,-336.64)">
			<title>Sheet.93</title>
			<desc>CoAP</desc>
			<v:textBlock v:margins="rect(0,0,0,0)" v:tabSpace="42.5197"/>
			<v:textRect cx="17.8806" cy="513.77" width="35.77" height="11.8826"/>
			<path d="M35.76 507.83 L0 507.83 L0 519.71 L35.76 519.71 L35.76 507.83" class="st2"/>
			<text x="4.6" y="516.57" class="st9" v:langID="1033"><v:paragraph v:horizAlign="1"/><v:tabList/>CoAP</text>		</g>
		<g id="shape94-43" v:mID="94" v:groupContext="shape" transform="translate(455.189,-359.079)">
			<title>Sheet.94</title>
			<path d="M96.71 491.11 L0 491.11 L0 519.71 L96.71 519.71 L96.71 491.11 Z" class="st8"/>
		</g>
		<g id="shape95-45" v:mID="95" v:groupContext="shape" transform="translate(475.58,-367.436)">
			<title>Sheet.95</title>
			<desc>MeshCoP</desc>
			<v:textBlock v:margins="rect(0,0,0,0)" v:tabSpace="42.5197"/>
			<v:textRect cx="27.9663" cy="513.77" width="55.94" height="11.8826"/>
			<path d="M55.93 507.83 L0 507.83 L0 519.71 L55.93 519.71 L55.93 507.83" class="st2"/>
			<text x="6.41" y="516.57" class="st9" v:langID="1033"><v:paragraph v:horizAlign="1"/><v:tabList/>MeshCoP</text>		</g>
		<g id="shape96-49" v:mID="96" v:groupContext="shape" transform="translate(554.102,-328.283)">
			<title>Sheet.96</title>
			<path d="M0 519.71 L0 460.32 L47.26 460.32 L47.26 519.71 L0 519.71 Z" class="st8"/>
		</g>
		<g id="shape97-51" v:mID="97" v:groupContext="shape" transform="translate(563.783,-352.043)">
			<title>Sheet.97</title>
			<desc>MLE</desc>
			<v:textBlock v:margins="rect(0,0,0,0)" v:tabSpace="42.5197"/>
			<v:textRect cx="13.9476" cy="513.775" width="27.9" height="11.8732"/>
			<path d="M27.9 519.71 L27.9 507.84 L0 507.84 L0 519.71 L27.9 519.71" class="st2"/>
			<text x="3.9" y="516.58" class="st10" v:langID="1033"><v:paragraph v:horizAlign="1"/><v:tabList/>MLE</text>		</g>
		<g id="shape98-55" v:mID="98" v:groupContext="shape" transform="translate(603.66,-328.283)">
			<title>Sheet.98</title>
			<path d="M0 519.71 L0 460.32 L43.86 460.32 L43.86 519.71 L0 519.71 Z" class="st8"/>
		</g>
		<g id="shape99-57" v:mID="99" v:groupContext="shape" transform="translate(603.452,-352.702)">
			<title>Sheet.99</title>
			<desc>DHCPv6</desc>
			<v:textBlock v:margins="rect(0,0,0,0)" v:tabSpace="42.5197"/>
			<v:textRect cx="22.6363" cy="514.434" width="45.28" height="10.5546"/>
			<path d="M45.27 519.71 L45.27 509.16 L0 509.16 L0 519.71 L45.27 519.71" class="st2"/>
			<text x="5.3" y="516.93" class="st11" v:langID="1033"><v:paragraph v:horizAlign="1"/><v:tabList/>DHCPv6</text>		</g>
		<g id="shape185-61" v:mID="185" v:groupContext="shape" transform="translate(421.817,-419.507)">
			<title>Sheet.185</title>
			<path d="M0 497.03 L0 519.71 L255.12 519.71 L255.12 497.03 L0 497.03 L0 497.03 Z" class="st6"/>
		</g>
		<g id="shape186-63" v:mID="186" v:groupContext="shape" transform="translate(421.968,-426.958)">
			<title>Sheet.186</title>
			<desc>Third-party IPv6 stack</desc>
			<v:textBlock v:margins="rect(0,0,0,0)" v:tabSpace="42.5197"/>
			<v:textRect cx="126.938" cy="515.691" width="253.88" height="8.04183"/>
			<path d="M253.88 511.67 L0 511.67 L0 519.71 L253.88 519.71 L253.88 511.67" class="st2"/>
			<text x="59.93" y="519.74" class="st12" v:langID="1033"><v:paragraph v:horizAlign="1"/><v:tabList/>Third-party IPv6 stack</text>		</g>
		<g id="shape215-67" v:mID="215" v:groupContext="shape" transform="translate(421.817,-206.079)">
			<title>Sheet.215</title>
			<path d="M0 483.02 L0 519.71 L255.12 519.71 L255.12 483.02 L0 483.02 L0 483.02 Z" class="st13"/>
		</g>
		<g id="shape216-69" v:mID="216" v:groupContext="shape" transform="translate(414.731,-206.079)">
			<title>Sheet.216</title>
			<desc>Spinel</desc>
			<v:textBlock v:margins="rect(0,0,0,0)" v:tabSpace="42.5197"/>
			<v:textRect cx="131.031" cy="501.366" width="262.07" height="36.6908"/>
			<path d="M262.06 483.02 L0 483.02 L0 519.71 L262.06 519.71 L262.06 483.02" class="st2"/>
			<text x="112.72" y="505.04" class="st12" v:langID="1033"><v:paragraph v:horizAlign="1"/><v:tabList/>Spinel</text>		</g>
		<g id="shape246-73" v:mID="246" v:groupContext="shape" transform="translate(250.367,-224.962)">
			<title>Sheet.246</title>
			<desc>UART/SPI/USB</desc>
			<v:textBlock v:margins="rect(0,0,0,0)" v:tabSpace="42.5197"/>
			<v:textRect cx="82.182" cy="510.249" width="164.37" height="18.9254"/>
			<path d="M164.36 500.79 L0 500.79 L0 519.71 L164.36 519.71 L164.36 500.79" class="st2"/>
			<text x="23.22" y="514.89" class="st14" v:langID="1033"><v:paragraph v:horizAlign="1"/><v:tabList/>UART/SPI/USB</text>		</g>
		<g id="shape249-77" v:mID="249" v:groupContext="shape" transform="translate(18,-18)">
			<title>Sheet.249</title>
			<path d="M237.12 289.11 L0 289.11 L0 519.71 L237.12 519.71 L237.12 289.11 Z" class="st1"/>
		</g>
		<g id="shape250-79" v:mID="250" v:groupContext="shape" transform="translate(155.906,-30.9465)">
			<title>Sheet.250</title>
			<desc>nRF SoC</desc>
			<v:textBlock v:margins="rect(0,0,0,0)" v:tabSpace="42.5197"/>
			<v:textRect cx="49.6063" cy="507.387" width="99.22" height="24.6482"/>
			<path d="M99.21 495.06 L0 495.06 L0 519.71 L99.21 519.71 L99.21 495.06" class="st2"/>
			<text x="5.76" y="513.48" class="st15" v:langID="1033"><v:paragraph v:horizAlign="1"/><v:tabList/>nRF SoC</text>		</g>
		<g id="shape251-83" v:mID="251" v:groupContext="shape" transform="translate(25.0866,-63.8034)">
			<title>Sheet.251</title>
			<path d="M223.14 470.44 L0 470.44 L0 519.71 L223.14 519.71 L223.14 470.44 Z" class="st6"/>
		</g>
		<g id="shape252-85" v:mID="252" v:groupContext="shape" transform="translate(25.9887,-91.6983)">
			<title>Sheet.252</title>
			<desc>nRF IEEE 802.15.4 radio driver</desc>
			<v:textBlock v:margins="rect(0,0,0,0)" v:tabSpace="42.5197"/>
			<v:textRect cx="111.117" cy="509.364" width="222.24" height="20.6955"/>
			<path d="M222.23 499.02 L0 499.02 L0 519.71 L222.23 519.71 L222.23 499.02" class="st2"/>
			<text x="31.98" y="512.56" class="st16" v:langID="1033"><v:paragraph v:horizAlign="1"/><v:tabList/>nRF IEEE 802.15.4 radio driver</text>		</g>
		<g id="shape253-89" v:mID="253" v:groupContext="shape" transform="translate(37.4695,-67.7454)">
			<title>Sheet.253</title>
			<path d="M199.27 499.02 L0 499.02 L0 519.71 L199.27 519.71 L199.27 499.02 Z" class="st8"/>
		</g>
		<g id="shape254-91" v:mID="254" v:groupContext="shape" transform="translate(37.2141,-67.7454)">
			<title>Sheet.254</title>
			<desc>IEEE 802.15.4 PHY</desc>
			<v:textBlock v:margins="rect(0,0,0,0)" v:tabSpace="42.5197"/>
			<v:textRect cx="99.6367" cy="509.364" width="199.28" height="20.6955"/>
			<path d="M199.27 499.02 L0 499.02 L0 519.71 L199.27 519.71 L199.27 499.02" class="st2"/>
			<text x="51.61" y="512.56" class="st16" v:langID="1033"><v:paragraph v:horizAlign="1"/><v:tabList/>IEEE 802.15.4 PHY</text>		</g>
		<g id="shape255-95" v:mID="255" v:groupContext="shape" transform="translate(25.0866,-204.659)">
			<title>Sheet.255</title>
			<path d="M0 482.26 L0 519.71 L223.14 519.71 L223.14 482.26 L0 482.26 L0 482.26 Z" class="st13"/>
		</g>
		<g id="shape256-97" v:mID="256" v:groupContext="shape" transform="translate(114.279,-215.552)">
			<title>Sheet.256</title>
			<desc>Spinel</desc>
			<v:textBlock v:margins="rect(0,0,0,0)" v:tabSpace="42.5197"/>
			<v:textRect cx="20.3884" cy="512.023" width="40.78" height="15.3773"/>
			<path d="M40.78 504.33 L0 504.33 L0 519.71 L40.78 519.71 L40.78 504.33" class="st2"/>
			<text x="1.55" y="515.8" class="st17" v:langID="1033"><v:paragraph v:horizAlign="1"/><v:tabList/>Spinel</text>		</g>
		<g id="shape257-101" v:mID="257" v:groupContext="shape" transform="translate(25.0866,-146.983)">
			<title>Sheet.257</title>
			<path d="M223.14 495.06 L0 495.06 L0 519.71 L223.14 519.71 L223.14 495.06 Z" class="st6"/>
		</g>
		<g id="shape258-103" v:mID="258" v:groupContext="shape" transform="translate(25.0866,-146.983)">
			<title>Sheet.258</title>
			<desc>OpenThread Controller</desc>
			<v:textBlock v:margins="rect(0,0,0,0)" v:tabSpace="42.5197"/>
			<v:textRect cx="111.568" cy="507.387" width="223.14" height="24.6482"/>
			<path d="M223.14 495.06 L0 495.06 L0 519.71 L223.14 519.71 L223.14 495.06" class="st2"/>
			<text x="39.89" y="511.16" class="st17" v:langID="1033"><v:paragraph v:horizAlign="1"/><v:tabList/>OpenThread Controller</text>		</g>
		<g id="shape259-107" v:mID="259" v:groupContext="shape" transform="translate(248.315,-220.162)">
			<title>Sheet.259</title>
			<path d="M5.61 516.26 L167.73 515.46 L167.73 514.48 L5.61 515.28 L5.61 516.26 L5.61 516.26 ZM6.71 511.83 L0 515.83 L6.77
						 519.71 L6.71 511.83 L6.71 511.83 ZM166.63 518.91 L173.34 514.91 L166.58 511.03 L166.63 518.91 L166.63 518.91
						 Z" class="st18"/>
		</g>
		<g id="group261-109" transform="translate(25.0866,-176.911)" v:mID="261" v:groupContext="group">
			<v:userDefs/>
			<title>Sheet.261</title>
			<desc>Secure boot</desc>
			<g id="shape262-110" v:mID="262" v:groupContext="shape">
				<title>Sheet.262</title>
				<rect x="0" y="497.034" width="223.137" height="22.6772" class="st6"/>
			</g>
			<g id="shape261-112" v:mID="261" v:groupContext="groupContent">
				<v:textBlock v:margins="rect(0,0,0,0)" v:tabSpace="42.5197"/>
				<v:textRect cx="107.08" cy="508.373" width="215.94" height="22.6772"/>
				<text x="61" y="511.37" class="st19" v:langID="1033"><v:paragraph v:horizAlign="1"/><v:tabList/>Zephyr integration</text>			</g>
		</g>
		<g id="group263-114" transform="translate(24.9308,-119.1)" v:mID="263" v:groupContext="group">
			<v:userDefs/>
			<title>Sheet.263</title>
			<desc>Secure boot</desc>
			<g id="shape264-115" v:mID="264" v:groupContext="shape">
				<title>Sheet.264</title>
				<rect x="0" y="497.034" width="223.137" height="22.6772" class="st6"/>
			</g>
			<g id="shape263-117" v:mID="263" v:groupContext="groupContent">
				<v:textBlock v:margins="rect(0,0,0,0)" v:tabSpace="42.5197"/>
				<v:textRect cx="107.08" cy="508.373" width="215.94" height="22.6772"/>
				<text x="61" y="511.37" class="st19" v:langID="1033"><v:paragraph v:horizAlign="1"/><v:tabList/>Zephyr integration</text>			</g>
		</g>
		<g id="group265-119" transform="translate(25.1937,-28.7717)" v:mID="265" v:groupContext="group">
			<v:userDefs/>
			<title>Sheet.265</title>
			<desc>Secure boot</desc>
			<g id="shape266-120" v:mID="266" v:groupContext="shape">
				<title>Sheet.266</title>
				<rect x="0" y="490.714" width="130.159" height="28.9978" class="st6"/>
			</g>
			<g id="shape265-122" v:mID="265" v:groupContext="groupContent">
				<v:textBlock v:margins="rect(0,0,0,0)" v:tabSpace="42.5197"/>
				<v:textRect cx="66.2063" cy="505.213" width="132.42" height="28.9978"/>
				<text x="13.76" y="502.21" class="st19" v:langID="1033"><v:paragraph v:horizAlign="1"/><v:tabList/>Multiprotocol Service <tspan
							x="32.66" dy="1.2em" class="st20">Layer (MPSL)</tspan></text>			</g>
		</g>
	</g>
</svg>
