<?xml version="1.0" encoding="UTF-8" standalone="no"?>
<!DOCTYPE svg PUBLIC "-//W3C//DTD SVG 1.1//EN" "http://www.w3.org/Graphics/SVG/1.1/DTD/svg11.dtd">
<!-- Generated by Microsoft Visio, SVG Export Thread_external_commissioning.svg Page-1 -->
<svg xmlns="http://www.w3.org/2000/svg" xmlns:xlink="http://www.w3.org/1999/xlink" xmlns:ev="http://www.w3.org/2001/xml-events"
		width="7.31491in" height="3.5296in" viewBox="0 0 526.673 254.131" xml:space="preserve" color-interpolation-filters="sRGB"
		class="st15">
	<style type="text/css">
	<![CDATA[
		.st1 {fill:#d9e1e2;stroke:#d8d8d8;stroke-width:1}
		.st2 {stroke:#333f48;stroke-linecap:butt;stroke-width:2}
		.st3 {fill:none;stroke:none;stroke-width:1}
		.st4 {fill:#768692;font-family:Calibri;font-size:1.00001em}
		.st5 {fill:#0033a0;stroke:none;stroke-width:1}
		.st6 {fill:#333f48;font-family:Calibri;font-size:1.00001em}
		.st7 {fill:#0077c8;stroke:none;stroke-width:1}
		.st8 {font-size:1em}
		.st9 {fill:#00a9ce;stroke:none;stroke-width:1}
		.st10 {fill:#d9e1e2;stroke:none;stroke-width:1}
		.st11 {fill:#a5a5a5;font-family:Calibri;font-size:1.00001em}
		.st12 {fill:#6ad1e3;stroke:none;stroke-width:1}
		.st13 {fill:#333f48;font-family:Calibri;font-size:0.833336em}
		.st14 {fill:#feffff;font-family:Calibri;font-size:0.666664em}
		.st15 {fill:none;fill-rule:evenodd;font-size:12px;overflow:visible;stroke-linecap:square;stroke-miterlimit:3}
	]]>
	</style>

	<g>
		<title>Page-1</title>
		<g id="shape1415-1" transform="translate(1,-1)">
			<title>Circle</title>
			<path d="M0 128.07 A126.066 126.066 0 1 1 252.13 128.07 A126.066 126.066 0 0 1 0 128.07 Z" class="st1"/>
		</g>
		<g id="shape1416-3" transform="translate(120.697,-119.402)">
			<title>Dynamic connector.61</title>
			<path d="M0 254.13 L-24.26 318.89" class="st2"/>
		</g>
		<g id="shape1417-6" transform="translate(69.283,-112.315)">
			<title>Dynamic connector</title>
			<path d="M0 247.04 L51.41 247.04" class="st2"/>
		</g>
		<g id="shape1418-9" transform="translate(69.283,-119.402)">
			<title>Dynamic connector.55</title>
			<path d="M0 254.13 L61.96 199.79" class="st2"/>
		</g>
		<g id="shape1419-12" transform="translate(133.054,-173.743)">
			<title>Dynamic connector.56</title>
			<path d="M-1.82 254.13 L-12.36 308.47" class="st2"/>
		</g>
		<g id="shape1420-15" transform="translate(174.528,-119.402)">
			<title>Dynamic connector.57</title>
			<path d="M0 254.13 L-43.29 199.79" class="st2"/>
		</g>
		<g id="shape1421-18" transform="translate(120.697,-126.489)">
			<title>Dynamic connector.54</title>
			<path d="M0 261.22 L53.83 261.22" class="st2"/>
		</g>
		<g id="shape1422-21" transform="translate(172.845,-119.402)">
			<title>Dynamic connector.62</title>
			<path d="M1.68 254.13 L12.49 318.89" class="st2"/>
		</g>
		<g id="shape1438-24" transform="translate(83.2342,-211.644)">
			<title>Sheet.1438</title>
			<desc>Thread network</desc>
			<rect x="0" y="238.86" width="87.6629" height="15.2714" class="st3"/>
			<text x="4.88" y="250.1" class="st4">Thread network</text>		</g>
		<g id="group1439-27" transform="translate(160.012,-23.8693)">
			<title>Sheet.1439</title>
			<g id="shape1423-28" transform="translate(12.4653,-17.9194)">
				<title>Circle.29</title>
				<path d="M0 241.27 A12.8566 12.8566 0 0 1 25.71 241.27 A12.8566 12.8566 0 1 1 0 241.27 Z" class="st5"/>
			</g>
			<g id="shape1425-30">
				<title>Sheet.1425</title>
				<desc>Joiner</desc>
				<rect x="0" y="241.405" width="50.9047" height="12.7262" class="st3"/>
				<text x="10.77" y="251.37" class="st6">Joiner</text>			</g>
		</g>
		<g id="group1440-33" transform="translate(71.0592,-23.8693)">
			<title>Sheet.1440</title>
			<g id="shape1432-34" transform="translate(12.5198,-17.9194)">
				<title>Circle.49</title>
				<path d="M0 241.27 A12.8566 12.8566 0 0 1 25.71 241.27 A12.8566 12.8566 0 1 1 0 241.27 Z" class="st5"/>
			</g>
			<g id="shape1434-36">
				<title>Sheet.1434</title>
				<desc>Joiner</desc>
				<rect x="0" y="241.405" width="50.9047" height="12.7262" class="st3"/>
				<text x="10.77" y="251.37" class="st6">Joiner</text>			</g>
		</g>
		<g id="group1441-39" transform="translate(103.318,-79.8645)">
			<title>Sheet.1441</title>
			<g id="shape1430-40" transform="translate(7.99361E-15,-23.9979)">
				<title>Pentagon.46</title>
				<path d="M17.37 219.39 L-0.89 232.66 L6.08 254.13 L28.66 254.13 L35.64 232.66 L17.37 219.39 Z" class="st7"/>
			</g>
			<g id="shape1435-42" transform="translate(6.08272,2.84217E-14)">
				<title>Sheet.1435</title>
				<desc>Joiner router</desc>
				<rect x="0" y="238.86" width="50.9047" height="15.2714" class="st3"/>
				<text x="10.77" y="242.9" class="st6">Joiner <tspan x="9.96" dy="1.2em" class="st8">r</tspan>outer</text>			</g>
		</g>
		<g id="group1442-46" transform="translate(157.15,-103.862)">
			<title>Sheet.1442</title>
			<g id="shape1429-47">
				<title>Pentagon.45</title>
				<path d="M17.37 219.39 L-0.89 232.66 L6.08 254.13 L28.66 254.13 L35.64 232.66 L17.37 219.39 Z" class="st7"/>
			</g>
			<g id="shape1433-49" transform="translate(32.3063,-2.09982)">
				<title>Sheet.1433</title>
				<desc>Joiner router</desc>
				<rect x="0" y="238.86" width="43.9311" height="15.2714" class="st3"/>
				<text x="7.28" y="242.9" class="st6">Joiner <tspan x="6.47" dy="1.2em" class="st8">r</tspan>outer</text>			</g>
		</g>
		<g id="group1443-53" transform="translate(1,-103.862)">
			<title>Sheet.1443</title>
			<g id="shape1431-54" transform="translate(50.9047,0)">
				<title>Pentagon.47</title>
				<path d="M17.37 219.39 L-0.89 232.66 L6.08 254.13 L28.66 254.13 L35.64 232.66 L17.37 219.39 Z" class="st7"/>
			</g>
			<g id="shape1436-56" transform="translate(-7.99361E-15,-9.73552)">
				<title>Sheet.1436</title>
				<desc>Router</desc>
				<rect x="0" y="238.86" width="50.9047" height="15.2714" class="st3"/>
				<text x="8.79" y="250.1" class="st6">Router</text>			</g>
		</g>
		<g id="group1444-59" transform="translate(113.86,-158.203)">
			<title>Sheet.1444</title>
			<g id="shape1424-60" transform="translate(46.6569,-25.2692)">
				<title>Sheet.1424</title>
				<desc>Leader</desc>
				<rect x="0" y="241.405" width="44.102" height="12.7262" class="st3"/>
				<text x="5.44" y="251.37" class="st6">Leader</text>			</g>
			<g id="shape1428-63">
				<title>Pentagon</title>
				<path d="M17.37 219.39 L-0.89 232.66 L6.08 254.13 L28.66 254.13 L35.64 232.66 L17.37 219.39 Z" class="st9"/>
			</g>
		</g>
		<g id="shape1474-65" transform="translate(309.745,-19.1013)">
			<title>Circle.1474</title>
			<desc>External network (WLAN etc.)</desc>
			<path d="M0 146.17 A107.964 107.964 0 0 1 215.93 146.17 A107.964 107.964 0 1 1 -0 146.17 Z" class="st10"/>
			<text x="66.17" y="142.57" class="st11">External network <tspan x="78.72" dy="1.2em" class="st8">(WLAN etc.)</tspan></text>		</g>
		<g id="shape1476-69" transform="translate(446.87,-19.1013)">
			<title>Pentagon.1476</title>
			<desc>External commissioner</desc>
			<path d="M35.72 190.02 L-1.84 214.51 L12.51 254.13 L58.93 254.13 L73.27 214.51 L35.72 190.02 Z" class="st12"/>
			<text x="19.03" y="219.07" class="st13">External <tspan x="7.28" dy="1.2em" class="st8">commissioner</tspan></text>		</g>
		<g id="shape1478-73" transform="translate(146.564,-170.651)">
			<title>Dynamic connector.1478</title>
			<path d="M0 254.13 L135.73 297.72" class="st2"/>
		</g>
		<g id="shape1479-76" transform="translate(244.117,-88.8871)">
			<title>Diamond</title>
			<desc>Border router</desc>
			<path d="M0 215.95 L38.18 177.77 L76.36 215.95 L38.18 254.13 L0 215.95 Z" class="st7"/>
			<text x="27.01" y="213.55" class="st14">Border <tspan x="27.85" dy="1.2em" class="st8">router</tspan></text>		</g>
	</g>
</svg>
