<?xml version="1.0" encoding="UTF-8" standalone="no"?>
<!DOCTYPE svg PUBLIC "-//W3C//DTD SVG 1.1//EN" "http://www.w3.org/Graphics/SVG/1.1/DTD/svg11.dtd">
<!-- Generated by Microsoft Visio, SVG Export thread_platform_design_ncp.svg Page-1 -->
<svg xmlns="http://www.w3.org/2000/svg" xmlns:xlink="http://www.w3.org/1999/xlink" xmlns:ev="http://www.w3.org/2001/xml-events"
		xmlns:v="http://schemas.microsoft.com/visio/2003/SVGExtensions/" width="9.02953in" height="6.70079in"
		viewBox="0 0 650.126 482.457" xml:space="preserve" color-interpolation-filters="sRGB" class="st22">
	<v:documentProperties v:langID="1033" v:metric="true" v:viewMarkup="false">
		<v:userDefs>
			<v:ud v:nameU="msvNoAutoConnect" v:val="VT0(1):26"/>
		</v:userDefs>
	</v:documentProperties>

	<style type="text/css">
	<![CDATA[
		.st1 {fill:#0077c8;fill-opacity:0.58;stroke:none;stroke-linecap:round;stroke-linejoin:round;stroke-width:0.75}
		.st2 {stroke:none;stroke-linecap:round;stroke-linejoin:round;stroke-width:0.75}
		.st3 {fill:#ffffff;font-family:Gotham Light;font-size:1.81764em}
		.st4 {fill:#ff0000;stroke:none;stroke-linecap:round;stroke-linejoin:round;stroke-width:0.75}
		.st5 {fill:#ffffff;font-family:Gotham Light;font-size:1.12521em}
		.st6 {fill:#6ad1e3;stroke:none;stroke-width:1}
		.st7 {fill:#ffffff;font-family:Gotham Light;font-size:1.29833em}
		.st8 {fill:#00a9ce;stroke:#feffff;stroke-width:1}
		.st9 {fill:#ffffff;font-family:Gotham Light;font-size:0.778999em}
		.st10 {fill:#ffffff;font-family:Gotham Light;font-size:0.778381em}
		.st11 {fill:#ffffff;font-family:Gotham Light;font-size:0.69191em}
		.st12 {fill:#ffffff;font-family:Gotham Light;font-size:0.666664em}
		.st13 {font-size:1em}
		.st14 {fill:#ffffff;font-family:Gotham Light;font-size:0.75em}
		.st15 {fill:#ffffff;font-family:Gotham Light;font-size:0.833336em}
		.st16 {fill:#0077c8;fill-opacity:0.52;stroke:none;stroke-linecap:round;stroke-linejoin:round;stroke-width:0.75}
		.st17 {fill:#ffffff;font-family:Gotham Light;font-size:1.64637em}
		.st18 {fill:#ffffff;font-family:Gotham Light;font-size:1.01919em}
		.st19 {fill:#0033a0;stroke:none;stroke-width:1}
		.st20 {fill:#0075c8;stroke:#0075c8;stroke-linecap:round;stroke-linejoin:round;stroke-width:0.0587766}
		.st21 {fill:#333f48;font-family:Gotham Light;font-size:1.25439em}
		.st22 {fill:none;fill-rule:evenodd;font-size:12px;overflow:visible;stroke-linecap:square;stroke-miterlimit:3}
	]]>
	</style>

	<g v:mID="0" v:index="1" v:groupContext="foregroundPage">
		<title>Page-1</title>
		<v:pageProperties v:drawingScale="0.0393701" v:pageScale="0.0393701" v:drawingUnits="24" v:shadowOffsetX="8.50394"
				v:shadowOffsetY="-8.50394"/>
		<v:layer v:name="Connector" v:index="0"/>
		<g id="shape55-1" v:mID="55" v:groupContext="shape" transform="translate(18,-18)">
			<title>Sheet.55</title>
			<path d="M269.29 107.45 L0 107.45 L0 482.46 L269.29 482.46 L269.29 107.45 Z" class="st1"/>
		</g>
		<g id="shape56-3" v:mID="56" v:groupContext="shape" transform="translate(174.012,-26.6194)">
			<title>Sheet.56</title>
			<desc>nRF SoC</desc>
			<v:textBlock v:margins="rect(0,0,0,0)" v:tabSpace="42.5197"/>
			<v:textRect cx="52.7598" cy="470.908" width="105.52" height="23.0975"/>
			<path d="M105.52 459.36 L0 459.36 L0 482.46 L105.52 482.46 L105.52 459.36" class="st2"/>
			<text x="5.7" y="477.45" class="st3" v:langID="1033"><v:paragraph v:horizAlign="1"/><v:tabList/>nRF SoC</text>		</g>
		<g id="shape59-7" v:mID="59" v:groupContext="shape" transform="translate(25.0866,-339.145)">
			<title>Sheet.59</title>
			<path d="M0 434.06 L0 482.46 L255.12 482.46 L255.12 434.06 L0 434.06 L0 434.06 Z" class="st4"/>
		</g>
		<g id="shape60-9" v:mID="60" v:groupContext="shape" transform="translate(25.8896,-354.761)">
			<title>Sheet.60</title>
			<desc>Spinel</desc>
			<v:textBlock v:margins="rect(0,0,0,0)" v:tabSpace="42.5197"/>
			<v:textRect cx="126.938" cy="473.876" width="253.88" height="17.1619"/>
			<path d="M253.88 465.29 L0 465.29 L0 482.46 L253.88 482.46 L253.88 465.29" class="st2"/>
			<text x="106.72" y="477.93" class="st5" v:langID="1033"><v:paragraph v:horizAlign="1"/><v:tabList/>Spinel</text>		</g>
		<g id="shape67-13" v:mID="67" v:groupContext="shape" transform="translate(25.0866,-140.382)">
			<title>Sheet.67</title>
			<path d="M0 317.47 L0 482.46 L255.12 482.46 L255.12 317.47 L0 317.47 L0 317.47 Z" class="st6"/>
		</g>
		<g id="shape71-15" v:mID="71" v:groupContext="shape" transform="translate(40.3773,-279.441)">
			<title>Sheet.71</title>
			<desc>Thread stack (OpenThread)</desc>
			<v:textBlock v:margins="rect(0,0,0,0)" v:tabSpace="42.5197"/>
			<v:textRect cx="115.395" cy="472.556" width="230.79" height="19.8018"/>
			<path d="M230.79 462.65 L0 462.65 L0 482.46 L230.79 482.46 L230.79 462.65" class="st2"/>
			<text x="8.62" y="477.23" class="st7" v:langID="1033"><v:paragraph v:horizAlign="1"/><v:tabList/>Thread stack (OpenThread)</text>		</g>
		<g id="shape72-19" v:mID="72" v:groupContext="shape" transform="translate(58.4577,-143.554)">
			<title>Sheet.72</title>
			<path d="M192.33 459.36 L0 459.36 L0 482.46 L192.33 482.46 L192.33 459.36 Z" class="st8"/>
		</g>
		<g id="shape73-21" v:mID="73" v:groupContext="shape" transform="translate(106.266,-149.161)">
			<title>Sheet.73</title>
			<desc>IEEE 802.15.4 MAC</desc>
			<v:textBlock v:margins="rect(0,0,0,0)" v:tabSpace="42.5197"/>
			<v:textRect cx="48.3574" cy="476.515" width="96.72" height="11.8826"/>
			<path d="M96.71 470.57 L0 470.57 L0 482.46 L96.71 482.46 L96.71 470.57" class="st2"/>
			<text x="4.99" y="479.32" class="st9" v:langID="1033"><v:paragraph v:horizAlign="1"/><v:tabList/>IEEE 802.15.4 MAC</text>		</g>
		<g id="shape76-25" v:mID="76" v:groupContext="shape" transform="translate(58.4577,-194.578)">
			<title>Sheet.76</title>
			<path d="M192.33 459.36 L0 459.36 L0 482.46 L192.33 482.46 L192.33 459.36 Z" class="st8"/>
		</g>
		<g id="shape77-27" v:mID="77" v:groupContext="shape" transform="translate(140.334,-200.247)">
			<title>Sheet.77</title>
			<desc>UDP</desc>
			<v:textBlock v:margins="rect(0,0,0,0)" v:tabSpace="42.5197"/>
			<v:textRect cx="14.289" cy="476.515" width="28.58" height="11.8826"/>
			<path d="M28.58 470.57 L0 470.57 L0 482.46 L28.58 482.46 L28.58 470.57" class="st2"/>
			<text x="3.96" y="479.32" class="st9" v:langID="1033"><v:paragraph v:horizAlign="1"/><v:tabList/>UDP</text>		</g>
		<g id="shape90-31" v:mID="90" v:groupContext="shape" transform="translate(58.4577,-169.066)">
			<title>Sheet.90</title>
			<path d="M192.33 459.36 L0 459.36 L0 482.46 L192.33 482.46 L192.33 459.36 Z" class="st8"/>
		</g>
		<g id="shape91-33" v:mID="91" v:groupContext="shape" transform="translate(104.464,-174.673)">
			<title>Sheet.91</title>
			<desc>6LoWPAN / IPv6</desc>
			<v:textBlock v:margins="rect(0,0,0,0)" v:tabSpace="42.5197"/>
			<v:textRect cx="50.1596" cy="476.515" width="100.32" height="11.8826"/>
			<path d="M100.32 470.57 L0 470.57 L0 482.46 L100.32 482.46 L100.32 470.57" class="st2"/>
			<text x="10.37" y="479.32" class="st9" v:langID="1033"><v:paragraph v:horizAlign="1"/><v:tabList/>6LoWPAN / IPv6</text>		</g>
		<g id="shape92-37" v:mID="92" v:groupContext="shape" transform="translate(58.4577,-219.574)">
			<title>Sheet.92</title>
			<path d="M96.71 453.86 L0 453.86 L0 482.46 L96.71 482.46 L96.71 453.86 Z" class="st8"/>
		</g>
		<g id="shape93-39" v:mID="93" v:groupContext="shape" transform="translate(88.9346,-227.931)">
			<title>Sheet.93</title>
			<desc>CoAP</desc>
			<v:textBlock v:margins="rect(0,0,0,0)" v:tabSpace="42.5197"/>
			<v:textRect cx="17.8806" cy="476.515" width="35.77" height="11.8826"/>
			<path d="M35.76 470.57 L0 470.57 L0 482.46 L35.76 482.46 L35.76 470.57" class="st2"/>
			<text x="4.6" y="479.32" class="st9" v:langID="1033"><v:paragraph v:horizAlign="1"/><v:tabList/>CoAP</text>		</g>
		<g id="shape94-43" v:mID="94" v:groupContext="shape" transform="translate(58.4577,-250.371)">
			<title>Sheet.94</title>
			<path d="M96.71 453.86 L0 453.86 L0 482.46 L96.71 482.46 L96.71 453.86 Z" class="st8"/>
		</g>
		<g id="shape95-45" v:mID="95" v:groupContext="shape" transform="translate(78.8488,-258.728)">
			<title>Sheet.95</title>
			<desc>MeshCoP</desc>
			<v:textBlock v:margins="rect(0,0,0,0)" v:tabSpace="42.5197"/>
			<v:textRect cx="27.9663" cy="476.515" width="55.94" height="11.8826"/>
			<path d="M55.93 470.57 L0 470.57 L0 482.46 L55.93 482.46 L55.93 470.57" class="st2"/>
			<text x="6.41" y="479.32" class="st9" v:langID="1033"><v:paragraph v:horizAlign="1"/><v:tabList/>MeshCoP</text>		</g>
		<g id="shape96-49" v:mID="96" v:groupContext="shape" transform="translate(157.371,-219.574)">
			<title>Sheet.96</title>
			<path d="M0 482.46 L0 423.06 L47.26 423.06 L47.26 482.46 L0 482.46 Z" class="st8"/>
		</g>
		<g id="shape97-51" v:mID="97" v:groupContext="shape" transform="translate(167.052,-243.334)">
			<title>Sheet.97</title>
			<desc>MLE</desc>
			<v:textBlock v:margins="rect(0,0,0,0)" v:tabSpace="42.5197"/>
			<v:textRect cx="13.9476" cy="476.52" width="27.9" height="11.8732"/>
			<path d="M27.9 482.46 L27.9 470.58 L0 470.58 L0 482.46 L27.9 482.46" class="st2"/>
			<text x="3.9" y="479.32" class="st10" v:langID="1033"><v:paragraph v:horizAlign="1"/><v:tabList/>MLE</text>		</g>
		<g id="shape98-55" v:mID="98" v:groupContext="shape" transform="translate(206.929,-219.574)">
			<title>Sheet.98</title>
			<path d="M0 482.46 L0 423.06 L43.86 423.06 L43.86 482.46 L0 482.46 Z" class="st8"/>
		</g>
		<g id="shape99-57" v:mID="99" v:groupContext="shape" transform="translate(206.721,-243.993)">
			<title>Sheet.99</title>
			<desc>DHCPv6</desc>
			<v:textBlock v:margins="rect(0,0,0,0)" v:tabSpace="42.5197"/>
			<v:textRect cx="22.6363" cy="477.179" width="45.28" height="10.5546"/>
			<path d="M45.27 482.46 L45.27 471.9 L0 471.9 L0 482.46 L45.27 482.46" class="st2"/>
			<text x="5.3" y="479.67" class="st11" v:langID="1033"><v:paragraph v:horizAlign="1"/><v:tabList/>DHCPv6</text>		</g>
		<g id="shape100-61" v:mID="100" v:groupContext="shape" transform="translate(109.134,-58.5146)">
			<title>Sheet.100</title>
			<path d="M171.21 434.27 L0 434.27 L0 482.46 L171.21 482.46 L171.21 434.27 Z" class="st6"/>
		</g>
		<g id="shape102-63" v:mID="102" v:groupContext="shape" transform="translate(109.134,-90.6667)">
			<title>Sheet.102</title>
			<desc>nRF IEEE 802.15.4 radio driver</desc>
			<v:textBlock v:margins="rect(0,0,0,0)" v:tabSpace="42.5197"/>
			<v:textRect cx="85.6063" cy="475.856" width="171.22" height="13.2023"/>
			<path d="M171.21 469.25 L0 469.25 L0 482.46 L171.21 482.46 L171.21 469.25" class="st2"/>
			<text x="50.13" y="473.46" class="st12" v:langID="1033"><v:paragraph v:horizAlign="1"/><v:tabList/>nRF IEEE 802.15.4<v:newlineChar/><tspan
						x="62.81" dy="1.2em" class="st13">radio driver</tspan></text>		</g>
		<g id="shape103-68" v:mID="103" v:groupContext="shape" transform="translate(115.792,-63.9737)">
			<title>Sheet.103</title>
			<path d="M156.18 459.36 L0 459.36 L0 482.46 L156.18 482.46 L156.18 459.36 Z" class="st8"/>
		</g>
		<g id="shape104-70" v:mID="104" v:groupContext="shape" transform="translate(115.792,-68.2614)">
			<title>Sheet.104</title>
			<desc>IEEE 802.15.4 PHY</desc>
			<v:textBlock v:margins="rect(0,0,0,0)" v:tabSpace="42.5197"/>
			<v:textRect cx="78.092" cy="475.196" width="156.19" height="14.5223"/>
			<path d="M156.18 467.93 L0 467.93 L0 482.46 L156.18 482.46 L156.18 467.93" class="st2"/>
			<text x="37.49" y="477.9" class="st14" v:langID="1033"><v:paragraph v:horizAlign="1"/><v:tabList/>IEEE 802.15.4 PHY</text>		</g>
		<g id="group107-74" transform="translate(24.9102,-23.6693)" v:mID="107" v:groupContext="group">
			<v:userDefs/>
			<title>Sheet.107</title>
			<desc>Secure boot</desc>
			<g id="shape108-75" v:mID="108" v:groupContext="shape">
				<title>Sheet.108</title>
				<rect x="0" y="453.459" width="130.159" height="28.9978" class="st6"/>
			</g>
			<g id="shape107-77" v:mID="107" v:groupContext="groupContent">
				<v:textBlock v:margins="rect(0,0,0,0)" v:tabSpace="42.5197"/>
				<v:textRect cx="66.2063" cy="467.958" width="132.42" height="28.9978"/>
				<text x="13.76" y="464.96" class="st15" v:langID="1033"><v:paragraph v:horizAlign="1"/><v:tabList/>Multiprotocol Service <tspan
							x="32.66" dy="1.2em" class="st13">Layer (MPSL)</tspan></text>			</g>
		</g>
		<g id="shape185-80" v:mID="185" v:groupContext="shape" transform="translate(25.0866,-310.798)">
			<title>Sheet.185</title>
			<path d="M0 459.78 L0 482.46 L255.12 482.46 L255.12 459.78 L0 459.78 L0 459.78 Z" class="st6"/>
		</g>
		<g id="shape186-82" v:mID="186" v:groupContext="shape" transform="translate(25.2373,-318.249)">
			<title>Sheet.186</title>
			<desc>Zephyr integration</desc>
			<v:textBlock v:margins="rect(0,0,0,0)" v:tabSpace="42.5197"/>
			<v:textRect cx="126.938" cy="478.436" width="253.88" height="8.04183"/>
			<path d="M253.88 474.41 L0 474.41 L0 482.46 L253.88 482.46 L253.88 474.41" class="st2"/>
			<text x="64.73" y="482.49" class="st5" v:langID="1033"><v:paragraph v:horizAlign="1"/><v:tabList/>Zephyr integration</text>		</g>
		<g id="group187-86" transform="translate(109.134,-112.373)" v:mID="187" v:groupContext="group">
			<v:userDefs/>
			<title>Sheet.187</title>
			<desc>Secure boot</desc>
			<g id="shape188-87" v:mID="188" v:groupContext="shape">
				<title>Sheet.188</title>
				<rect x="0" y="459.78" width="171.071" height="22.6772" class="st6"/>
			</g>
			<g id="shape187-89" v:mID="187" v:groupContext="groupContent">
				<v:textBlock v:margins="rect(0,0,0,0)" v:tabSpace="42.5197"/>
				<v:textRect cx="82.0943" cy="471.118" width="165.55" height="22.6772"/>
				<text x="36.02" y="474.12" class="st15" v:langID="1033"><v:paragraph v:horizAlign="1"/><v:tabList/>Zephyr integration</text>			</g>
		</g>
		<g id="shape213-91" v:mID="213" v:groupContext="shape" transform="translate(435.378,-312.599)">
			<title>Sheet.213</title>
			<path d="M196.75 330.6 L0 330.6 L0 482.46 L196.75 482.46 L196.75 330.6 Z" class="st16"/>
		</g>
		<g id="shape214-93" v:mID="214" v:groupContext="shape" transform="translate(435.415,-319.472)">
			<title>Sheet.214</title>
			<desc>Host processor</desc>
			<v:textBlock v:margins="rect(0,0,0,0)" v:tabSpace="42.5197"/>
			<v:textRect cx="94.1036" cy="470.601" width="188.21" height="23.7113"/>
			<path d="M188.21 458.75 L0 458.75 L0 482.46 L188.21 482.46 L188.21 458.75" class="st2"/>
			<text x="20.15" y="476.53" class="st17" v:langID="1033"><v:paragraph v:horizAlign="1"/><v:tabList/>Host processor</text>		</g>
		<g id="shape215-97" v:mID="215" v:groupContext="shape" transform="translate(442.63,-346.819)">
			<title>Sheet.215</title>
			<path d="M0 445.77 L0 482.46 L182.69 482.46 L182.69 445.77 L0 445.77 L0 445.77 Z" class="st4"/>
		</g>
		<g id="shape216-99" v:mID="216" v:groupContext="shape" transform="translate(442.63,-346.819)">
			<title>Sheet.216</title>
			<desc>Spinel</desc>
			<v:textBlock v:margins="rect(0,0,0,0)" v:tabSpace="42.5197"/>
			<v:textRect cx="88.7953" cy="464.111" width="177.6" height="36.6908"/>
			<path d="M177.59 445.77 L0 445.77 L0 482.46 L177.59 482.46 L177.59 445.77" class="st2"/>
			<text x="70.48" y="467.78" class="st18" v:langID="1033"><v:paragraph v:horizAlign="1"/><v:tabList/>Spinel</text>		</g>
		<g id="shape217-103" v:mID="217" v:groupContext="shape" transform="translate(442.63,-389.339)">
			<title>Sheet.217</title>
			<path d="M182.69 456.94 L0 456.94 L0 482.46 L182.69 482.46 L182.69 456.94 Z" class="st6"/>
		</g>
		<g id="shape218-105" v:mID="218" v:groupContext="shape" transform="translate(443.339,-389.339)">
			<title>Sheet.218</title>
			<desc>Third-party IPv6 stack</desc>
			<v:textBlock v:margins="rect(0,0,0,0)" v:tabSpace="42.5197"/>
			<v:textRect cx="88.7953" cy="469.701" width="177.6" height="25.5118"/>
			<path d="M177.59 456.94 L0 456.94 L0 482.46 L177.59 482.46 L177.59 456.94" class="st2"/>
			<text x="21.79" y="473.37" class="st18" v:langID="1033"><v:paragraph v:horizAlign="1"/><v:tabList/>Third-party IPv6 stack</text>		</g>
		<g id="shape219-109" v:mID="219" v:groupContext="shape" transform="translate(442.63,-420.52)">
			<title>Sheet.219</title>
			<path d="M0 445.61 L0 482.46 L182.69 482.46 L182.69 445.61 L0 445.61 L0 445.61 Z" class="st19"/>
		</g>
		<g id="shape220-111" v:mID="220" v:groupContext="shape" transform="translate(442.772,-420.52)">
			<title>Sheet.220</title>
			<desc>Application</desc>
			<v:textBlock v:margins="rect(0,0,0,0)" v:tabSpace="42.5197"/>
			<v:textRect cx="91.3465" cy="464.158" width="182.7" height="36.5971"/>
			<path d="M182.69 445.86 L0 445.86 L0 482.46 L182.69 482.46 L182.69 445.86" class="st2"/>
			<text x="56.77" y="467.83" class="st18" v:langID="1033"><v:paragraph v:horizAlign="1"/><v:tabList/>Application</text>		</g>
		<g id="shape221-115" v:mID="221" v:groupContext="shape" transform="translate(280.161,-360.572)">
			<title>Sheet.221</title>
			<path d="M5.26 479.16 L157.21 478.4 L157.21 477.46 L5.26 478.22 L5.26 479.16 L5.26 479.16 ZM6.29 474.93 L0 478.75 L6.34
						 482.46 L6.29 474.93 L6.29 474.93 ZM156.18 481.69 L162.47 477.87 L156.13 474.17 L156.18 481.69 L156.18 481.69
						 Z" class="st20"/>
		</g>
		<g id="shape222-117" v:mID="222" v:groupContext="shape" transform="translate(296.217,-364.996)">
			<title>Sheet.222</title>
			<desc>UART/SPI/USB</desc>
			<v:textBlock v:margins="rect(0,0,0,0)" v:tabSpace="42.5197"/>
			<v:textRect cx="68.5089" cy="473.423" width="137.02" height="18.0668"/>
			<path d="M137.02 464.39 L0 464.39 L0 482.46 L137.02 482.46 L137.02 464.39" class="st2"/>
			<text x="11.2" y="477.94" class="st21" v:langID="1033"><v:paragraph v:horizAlign="1"/><v:tabList/>UART/SPI/USB</text>		</g>
	</g>
</svg>
