<?xml version="1.0" encoding="UTF-8" standalone="no"?>
<!DOCTYPE svg PUBLIC "-//W3C//DTD SVG 1.1//EN" "http://www.w3.org/Graphics/SVG/1.1/DTD/svg11.dtd">
<!-- Generated by Microsoft Visio, SVG Export Thread_external_commissioning.svg Page-1 -->
<svg xmlns="http://www.w3.org/2000/svg" xmlns:xlink="http://www.w3.org/1999/xlink" xmlns:ev="http://www.w3.org/2001/xml-events"
		xmlns:v="http://schemas.microsoft.com/visio/2003/SVGExtensions/" width="8.68671in" height="4.6808in"
		viewBox="0 0 625.443 337.018" xml:space="preserve" color-interpolation-filters="sRGB" class="st13">
	<v:documentProperties v:langID="1033" v:metric="true" v:viewMarkup="false">
		<v:userDefs>
			<v:ud v:nameU="msvNoAutoConnect" v:val="VT0(1):26"/>
		</v:userDefs>
	</v:documentProperties>

	<style type="text/css">
	<![CDATA[
		.st1 {fill:#f2f2f2;stroke:#bfbfbf;stroke-linecap:round;stroke-linejoin:round;stroke-width:0.24}
		.st2 {fill:#a5a5a5;font-family:Calibri;font-size:1.00001em}
		.st3 {font-size:1em}
		.st4 {fill:#f2f2f2;stroke:#d8d8d8;stroke-linecap:round;stroke-linejoin:round;stroke-width:0.24}
		.st5 {stroke:#0070c0;stroke-linecap:round;stroke-linejoin:round;stroke-width:2}
		.st6 {fill:#dbeef3;stroke:#31859b;stroke-linecap:round;stroke-linejoin:round;stroke-width:1}
		.st7 {fill:none;stroke:none;stroke-linecap:round;stroke-linejoin:round;stroke-width:0.75}
		.st8 {fill:#000000;font-family:Calibri;font-size:1.00001em}
		.st9 {fill:#f2dcda;stroke:#923931;stroke-linecap:round;stroke-linejoin:round;stroke-width:0.24}
		.st10 {fill:#fff2cc;stroke:#bf9000;stroke-linecap:round;stroke-linejoin:round;stroke-width:0.24}
		.st11 {fill:#ebf1df;stroke:#789440;stroke-linecap:round;stroke-linejoin:round;stroke-width:0.24}
		.st12 {fill:#d8d8d8;stroke:#000000;stroke-linecap:round;stroke-linejoin:round;stroke-width:0.24}
		.st13 {fill:none;fill-rule:evenodd;font-size:12px;overflow:visible;stroke-linecap:square;stroke-miterlimit:3}
	]]>
	</style>

	<g v:mID="0" v:index="1" v:groupContext="foregroundPage">
		<title>Page-1</title>
		<v:pageProperties v:drawingScale="0.0393701" v:pageScale="0.0393701" v:drawingUnits="24" v:shadowOffsetX="8.50394"
				v:shadowOffsetY="-8.50394"/>
		<v:layer v:name="Connector" v:index="0"/>
		<g id="shape73-1" v:mID="73" v:groupContext="shape" transform="translate(370.63,-56.6929)">
			<title>Circle.73</title>
			<desc>External network (WLAN etc.)</desc>
			<v:userDefs>
				<v:ud v:nameU="visVersion" v:val="VT0(15):26"/>
			</v:userDefs>
			<v:textBlock v:margins="rect(4,4,4,4)" v:tabSpace="42.5197"/>
			<v:textRect cx="118.346" cy="218.671" width="207.11" height="177.52"/>
			<path d="M0 218.67 A118.346 118.346 0 0 1 236.69 218.67 A118.346 118.346 0 1 1 0 218.67 Z" class="st1"/>
			<text x="76.55" y="215.07" class="st2" v:langID="1033"><v:paragraph v:horizAlign="1"/><v:tabList/>External network<v:newlineChar/><tspan
						x="89.1" dy="1.2em" class="st3">(WLAN etc.)</tspan></text>		</g>
		<g id="shape66-5" v:mID="66" v:groupContext="shape" transform="translate(18.12,-18.12)">
			<title>Circle</title>
			<v:userDefs>
				<v:ud v:nameU="visVersion" v:val="VT0(15):26"/>
			</v:userDefs>
			<path d="M0 186.63 A150.389 150.389 0 0 1 300.78 186.63 A150.389 150.389 0 0 1 0 186.63 Z" class="st4"/>
		</g>
		<g id="shape61-7" v:mID="61" v:groupContext="shape" v:layerMember="0" transform="translate(133.33,-137.267)">
			<title>Dynamic connector.61</title>
			<path d="M0 337.02 L-32.23 368.23" class="st5"/>
		</g>
		<g id="shape53-10" v:mID="53" v:groupContext="shape" v:layerMember="0" transform="translate(104.686,-173.902)">
			<title>Dynamic connector</title>
			<path d="M0 338.47 L20.87 349.74" class="st5"/>
		</g>
		<g id="shape55-13" v:mID="55" v:groupContext="shape" v:layerMember="0" transform="translate(108.169,-186.272)">
			<title>Dynamic connector.55</title>
			<path d="M0 337.02 L77.63 316.51" class="st5"/>
		</g>
		<g id="shape56-16" v:mID="56" v:groupContext="shape" v:layerMember="0" transform="translate(190.59,-192.026)">
			<title>Dynamic connector.56</title>
			<path d="M0 337.02 L-31.95 362.34" class="st5"/>
		</g>
		<g id="shape57-19" v:mID="57" v:groupContext="shape" v:layerMember="0" transform="translate(205.56,-164.248)">
			<title>Dynamic connector.57</title>
			<path d="M4 337.02 L10.17 309.24" class="st5"/>
		</g>
		<g id="shape54-22" v:mID="54" v:groupContext="shape" v:layerMember="0" transform="translate(164.096,-160.45)">
			<title>Dynamic connector.54</title>
			<path d="M0 342.9 L21.42 345.31" class="st5"/>
		</g>
		<g id="shape62-25" v:mID="62" v:groupContext="shape" v:layerMember="0" transform="translate(202.232,-128.246)">
			<title>Dynamic connector.62</title>
			<path d="M5.52 337.02 L8.65 368.9" class="st5"/>
		</g>
		<g id="shape29-28" v:mID="29" v:groupContext="shape" transform="translate(196.565,-67.7263)">
			<title>Circle.29</title>
			<v:userDefs>
				<v:ud v:nameU="visVersion" v:val="VT0(15):26"/>
			</v:userDefs>
			<path d="M0 322.7 A14.3185 14.3185 0 1 1 28.64 322.7 A14.3185 14.3185 0 0 1 0 322.7 Z" class="st6"/>
		</g>
		<g id="shape33-30" v:mID="33" v:groupContext="shape" transform="translate(225.507,-216.545)">
			<title>Sheet.33</title>
			<desc>Leader</desc>
			<v:textBlock v:margins="rect(4,4,4,4)" v:tabSpace="42.5197"/>
			<v:textRect cx="28.3465" cy="329.931" width="56.7" height="14.1732"/>
			<rect x="0" y="322.844" width="56.6929" height="14.1732" class="st7"/>
			<text x="11.74" y="333.53" class="st8" v:langID="1033"><v:paragraph v:horizAlign="1"/><v:tabList/>Leader</text>		</g>
		<g id="shape37-33" v:mID="37" v:groupContext="shape" transform="translate(205.512,-56.6929)">
			<title>Sheet.37</title>
			<desc>Joiner</desc>
			<v:textBlock v:margins="rect(4,4,4,4)" v:tabSpace="42.5197"/>
			<v:textRect cx="28.3465" cy="329.931" width="56.7" height="14.1732"/>
			<rect x="0" y="322.844" width="56.6929" height="14.1732" class="st7"/>
			<text x="13.66" y="333.53" class="st8" v:langID="1033"><v:paragraph v:horizAlign="1"/><v:tabList/>Joiner</text>		</g>
		<g id="shape41-36" v:mID="41" v:groupContext="shape" transform="translate(509.528,-28.3465)">
			<title>Sheet.41</title>
			<desc>External Commissioner</desc>
			<v:textBlock v:margins="rect(4,4,4,4)" v:tabSpace="42.5197"/>
			<v:textRect cx="43.2283" cy="325.679" width="86.46" height="22.6772"/>
			<rect x="0" y="314.34" width="86.4567" height="22.6772" class="st7"/>
			<text x="23.21" y="322.08" class="st8" v:langID="1033"><v:paragraph v:horizAlign="1"/><v:tabList/>External <tspan
						x="8.44" dy="1.2em" class="st3">Commissioner</tspan></text>		</g>
		<g id="shape74-40" v:mID="74" v:groupContext="shape" v:layerMember="0" transform="translate(220.667,-207.206)">
			<title>Dynamic connector.74</title>
			<path d="M0 337.02 L96.46 359.97" class="st5"/>
		</g>
		<g id="shape44-43" v:mID="44" v:groupContext="shape" transform="translate(183.816,-192.026)">
			<title>Pentagon</title>
			<v:userDefs>
				<v:ud v:nameU="visVersion" v:val="VT0(15):26"/>
			</v:userDefs>
			<path d="M19.35 298.32 L-1 313.1 L6.77 337.02 L31.92 337.02 L39.69 313.1 L19.35 298.32 Z" class="st9"/>
		</g>
		<g id="shape45-45" v:mID="45" v:groupContext="shape" transform="translate(186.509,-128.246)">
			<title>Pentagon.45</title>
			<v:userDefs>
				<v:ud v:nameU="visVersion" v:val="VT0(15):26"/>
			</v:userDefs>
			<path d="M19.35 298.32 L-1 313.1 L6.77 337.02 L31.92 337.02 L39.69 313.1 L19.35 298.32 Z" class="st10"/>
		</g>
		<g id="shape46-47" v:mID="46" v:groupContext="shape" transform="translate(126.556,-137.267)">
			<title>Pentagon.46</title>
			<v:userDefs>
				<v:ud v:nameU="visVersion" v:val="VT0(15):26"/>
			</v:userDefs>
			<path d="M19.35 298.32 L-1 313.1 L6.77 337.02 L31.92 337.02 L39.69 313.1 L19.35 298.32 Z" class="st10"/>
		</g>
		<g id="shape47-49" v:mID="47" v:groupContext="shape" transform="translate(69.2962,-161.766)">
			<title>Pentagon.47</title>
			<v:userDefs>
				<v:ud v:nameU="visVersion" v:val="VT0(15):26"/>
			</v:userDefs>
			<path d="M19.35 298.32 L-1 313.1 L6.77 337.02 L31.92 337.02 L39.69 313.1 L19.35 298.32 Z" class="st10"/>
		</g>
		<g id="shape49-51" v:mID="49" v:groupContext="shape" transform="translate(76.6592,-81.609)">
			<title>Circle.49</title>
			<v:userDefs>
				<v:ud v:nameU="visVersion" v:val="VT0(15):26"/>
			</v:userDefs>
			<path d="M0 322.7 A14.3185 14.3185 0 1 1 28.64 322.7 A14.3185 14.3185 0 0 1 0 322.7 Z" class="st6"/>
		</g>
		<g id="shape51-53" v:mID="51" v:groupContext="shape" transform="translate(211.029,-114.498)">
			<title>Sheet.51</title>
			<desc>Joiner Router</desc>
			<v:textBlock v:margins="rect(4,4,4,4)" v:tabSpace="42.5197"/>
			<v:textRect cx="28.3465" cy="328.514" width="56.7" height="17.0079"/>
			<rect x="0" y="320.01" width="56.6929" height="17.0079" class="st7"/>
			<text x="13.66" y="324.91" class="st8" v:langID="1033"><v:paragraph v:horizAlign="1"/><v:tabList/>Joiner <tspan
						x="11.69" dy="1.2em" class="st3">Router</tspan></text>		</g>
		<g id="shape60-57" v:mID="60" v:groupContext="shape" transform="translate(46.1773,-67.7263)">
			<title>Sheet.60</title>
			<desc>Joiner</desc>
			<v:textBlock v:margins="rect(4,4,4,4)" v:tabSpace="42.5197"/>
			<v:textRect cx="28.3465" cy="329.931" width="56.7" height="14.1732"/>
			<rect x="0" y="322.844" width="56.6929" height="14.1732" class="st7"/>
			<text x="13.66" y="333.53" class="st8" v:langID="1033"><v:paragraph v:horizAlign="1"/><v:tabList/>Joiner</text>		</g>
		<g id="shape63-60" v:mID="63" v:groupContext="shape" transform="translate(129.816,-114.498)">
			<title>Sheet.63</title>
			<desc>Joiner Router</desc>
			<v:textBlock v:margins="rect(4,4,4,4)" v:tabSpace="42.5197"/>
			<v:textRect cx="28.3465" cy="328.514" width="56.7" height="17.0079"/>
			<rect x="0" y="320.01" width="56.6929" height="17.0079" class="st7"/>
			<text x="13.66" y="324.91" class="st8" v:langID="1033"><v:paragraph v:horizAlign="1"/><v:tabList/>Joiner <tspan
						x="11.69" dy="1.2em" class="st3">Router</tspan></text>		</g>
		<g id="shape64-64" v:mID="64" v:groupContext="shape" transform="translate(26.7765,-157.018)">
			<title>Sheet.64</title>
			<desc>Router</desc>
			<v:textBlock v:margins="rect(4,4,4,4)" v:tabSpace="42.5197"/>
			<v:textRect cx="28.3465" cy="328.514" width="56.7" height="17.0079"/>
			<rect x="0" y="320.01" width="56.6929" height="17.0079" class="st7"/>
			<text x="11.69" y="332.11" class="st8" v:langID="1033"><v:paragraph v:horizAlign="1"/><v:tabList/>Router</text>		</g>
		<g id="shape67-67" v:mID="67" v:groupContext="shape" transform="translate(524.409,-56.6929)">
			<title>Pentagon.67</title>
			<v:userDefs>
				<v:ud v:nameU="visVersion" v:val="VT0(15):26"/>
			</v:userDefs>
			<path d="M28.35 280.32 L-1.46 301.98 L9.93 337.02 L46.77 337.02 L58.15 301.98 L28.35 280.32 Z" class="st11"/>
		</g>
		<g id="shape70-69" v:mID="70" v:groupContext="shape" transform="translate(136.619,-261.638)">
			<title>Sheet.70</title>
			<desc>Thread network</desc>
			<v:textBlock v:margins="rect(4,4,4,4)" v:tabSpace="42.5197"/>
			<v:textRect cx="31.8898" cy="321.144" width="63.78" height="31.748"/>
			<rect x="0" y="305.27" width="63.7795" height="31.748" class="st7"/>
			<text x="14.71" y="317.54" class="st2" v:langID="1033"><v:paragraph v:horizAlign="1"/><v:tabList/>Thread<v:lf/><tspan
						x="11.47" dy="1.2em" class="st3">network</tspan></text>		</g>
		<g id="shape72-73" v:mID="72" v:groupContext="shape" transform="translate(313.937,-160.335)">
			<title>Trapezoid</title>
			<desc>Border Router</desc>
			<v:userDefs>
				<v:ud v:nameU="visVersion" v:prompt="" v:val="VT0(15):26"/>
			</v:userDefs>
			<v:textBlock v:margins="rect(4,4,4,4)" v:tabSpace="42.5197"/>
			<v:textRect cx="31.8898" cy="313.1" width="63.78" height="47.8346"/>
			<path d="M0 337.02 L63.78 337.02 L57.4 289.18 L6.38 289.18 L0 337.02 Z" class="st12"/>
			<text x="15.14" y="309.5" class="st8" v:langID="1033"><v:paragraph v:horizAlign="1"/><v:tabList/>Border <tspan
						x="15.23" dy="1.2em" class="st3">Router</tspan></text>		</g>
	</g>
</svg>
