<?xml version="1.0" encoding="UTF-8" standalone="no"?>
<!DOCTYPE svg PUBLIC "-//W3C//DTD SVG 1.1//EN" "http://www.w3.org/Graphics/SVG/1.1/DTD/svg11.dtd">
<!-- Generated by Microsoft Visio, SVG Export transport_module_states.svg Page-1 -->
<svg xmlns="http://www.w3.org/2000/svg" xmlns:xlink="http://www.w3.org/1999/xlink" xmlns:ev="http://www.w3.org/2001/xml-events"
		width="7.70318in" height="4.17067in" viewBox="0 0 554.629 300.288" xml:space="preserve" color-interpolation-filters="sRGB"
		class="st11">
	<style type="text/css">
	<![CDATA[
		.st1 {fill:#d9e1e2;stroke:none;stroke-width:1}
		.st2 {fill:#00a9ce;stroke:none;stroke-width:1}
		.st3 {fill:#feffff;font-family:Arial;font-size:0.666664em}
		.st4 {fill:none;stroke:none;stroke-width:1}
		.st5 {fill:#00a9ce;font-family:Arial;font-size:0.499992em}
		.st6 {marker-end:url(#mrkr4-23);stroke:#008bab;stroke-linecap:butt;stroke-width:0.5}
		.st7 {fill:#008bab;fill-opacity:1;stroke:#008bab;stroke-opacity:1;stroke-width:0.16556291390728}
		.st8 {fill:#00a9ce;font-family:Arial;font-size:0.583328em}
		.st9 {fill:#00a9ce;font-family:Arial;font-size:0.666664em}
		.st10 {marker-start:url(#mrkr4-61);stroke:#008bab;stroke-linecap:butt;stroke-width:0.5}
		.st11 {fill:none;fill-rule:evenodd;font-size:12px;overflow:visible;stroke-linecap:square;stroke-miterlimit:3}
	]]>
	</style>

	<defs id="Markers">
		<g id="lend4">
			<path d="M 2 1 L 0 0 L 2 -1 L 2 1 " style="stroke:none"/>
		</g>
		<marker id="mrkr4-23" class="st7" refX="-11.36" orient="auto" markerUnits="strokeWidth" overflow="visible">
			<use xlink:href="#lend4" transform="scale(-6.04,-6.04) "/>
		</marker>
		<marker id="mrkr4-61" class="st7" refX="11.36" orient="auto" markerUnits="strokeWidth" overflow="visible">
			<use xlink:href="#lend4" transform="scale(6.04) "/>
		</marker>
	</defs>
	<g>
		<title>Page-1</title>
		<g id="shape21-1" transform="translate(86.2259,-173.863)">
			<title>Ellipse</title>
			<path d="M0 250.68 A85.0394 49.6063 0 0 1 170.08 250.68 A85.0394 49.6063 0 0 1 0 250.68 Z" class="st1"/>
		</g>
		<g id="group5-3" transform="translate(125.911,-213.598)">
			<title>Oval process</title>
			<g id="shape6-4" transform="translate(0,-14.1732)">
				<title>Sheet.6</title>
			</g>
			<g id="shape7-6" transform="translate(0,-14.1732)">
				<title>Sheet.7</title>
			</g>
			<g id="shape8-8" transform="translate(0,-14.1732)">
				<title>Sheet.8</title>
			</g>
			<g id="shape9-10" transform="translate(0,-14.1732)">
				<title>Sheet.9</title>
			</g>
			<g id="shape10-12">
				<title>Sheet.10</title>
				<desc>mqtt_helper_connect()</desc>
				<path d="M0 286.12 A45.3543 14.1732 0 0 1 90.71 286.12 A45.3543 14.1732 0 1 1 0 286.12 Z" class="st2"/>
				<text x="5.33" y="288.52" class="st3">mqtt_helper_connect()</text>			</g>
		</g>
		<g id="shape15-15" transform="translate(176.1,-195.882)">
			<title>Sheet.15</title>
			<desc>connect_work()</desc>
			<rect x="0" y="286.115" width="61.1968" height="14.1732" class="st4"/>
			<text x="10.09" y="295" class="st5">connect_work()</text>		</g>
		<g id="shape43-18" transform="translate(151.241,-230.184) rotate(30.242)">
			<title>Sheet.43</title>
			<path d="M0 274.26 A111.319 73.6987 -36.51 0 0 125.53 277.58 L125.83 277.39" class="st6"/>
		</g>
		<g id="shape22-24" transform="translate(123.376,-241.945)">
			<title>Sheet.22</title>
			<desc>MQTT_DISCONNECTED</desc>
			<rect x="0" y="286.115" width="95.7795" height="14.1732" class="st4"/>
			<text x="8.03" y="295.3" class="st8">MQTT_DISCONNECTED</text>		</g>
		<g id="shape44-27" transform="translate(267.927,-1)">
			<title>Ellipse.44</title>
			<path d="M0 250.68 A85.0394 49.6063 0 0 1 170.08 250.68 A85.0394 49.6063 0 0 1 0 250.68 Z" class="st1"/>
		</g>
		<g id="group45-29" transform="translate(307.612,-40.7357)">
			<title>Oval process.45</title>
			<g id="shape46-30" transform="translate(0,-14.1732)">
				<title>Sheet.46</title>
			</g>
			<g id="shape47-32" transform="translate(0,-14.1732)">
				<title>Sheet.47</title>
			</g>
			<g id="shape48-34" transform="translate(0,-14.1732)">
				<title>Sheet.48</title>
			</g>
			<g id="shape49-36" transform="translate(0,-14.1732)">
				<title>Sheet.49</title>
			</g>
			<g id="shape50-38">
				<title>Sheet.50</title>
				<desc>mqtt_helper_disconnect()</desc>
				<path d="M0 286.12 A47.8898 14.1732 0 1 1 95.78 286.12 A47.8898 14.1732 0 1 1 0 286.12 Z" class="st2"/>
				<text x="2.76" y="288.52" class="st3">mqtt_helper_disconnect()</text>			</g>
		</g>
		<g id="shape72-41" transform="translate(286.651,-173.863)">
			<title>Sheet.72</title>
			<desc>on_mqtt_connack()</desc>
			<rect x="0" y="286.115" width="77.9528" height="14.1732" class="st4"/>
			<text x="4.74" y="293.89" class="st9">on_mqtt_connack()</text>		</g>
		<g id="shape85-44" transform="translate(152.005,-93.126)">
			<title>Sheet.85</title>
			<desc>on_mqtt_disconnect()</desc>
			<rect x="0" y="286.115" width="90.7087" height="14.1732" class="st4"/>
			<text x="6.89" y="293.89" class="st9">on_mqtt_disconnect()</text>		</g>
		<g id="shape116-47" transform="translate(22.2101,-254.701)">
			<title>Sheet.116</title>
			<desc>NETWORK_CONNECTED</desc>
			<rect x="0" y="286.115" width="95.7795" height="14.1732" class="st4"/>
			<text x="5.89" y="295.3" class="st8">NETWORK_CONNECTED</text>		</g>
		<g id="shape118-50" transform="translate(444.055,-100.213)">
			<title>Sheet.118</title>
			<desc>NETWORK_DISCONNECTED</desc>
			<rect x="0" y="286.115" width="95.7795" height="14.1732" class="st4"/>
			<text x="6.89" y="295" class="st5">NETWORK_DISCONNECTED</text>		</g>
		<g id="shape51-53" transform="translate(315.864,-71.8662)">
			<title>Sheet.51</title>
			<desc>MQTT_CONNECTED</desc>
			<rect x="0" y="286.115" width="72.8347" height="14.1732" class="st4"/>
			<text x="7.25" y="295" class="st5">MQTT_CONNECTED</text>		</g>
		<g id="shape149-56" transform="translate(164.067,344.358) rotate(-126.856)">
			<title>Sheet.149</title>
			<path d="M1.46 243.2 L1.55 243.55 C12.32 278.49 45.12 296.56 77.83 299.77 C101.99 302.14 126.11 296.41 147.01 284.07
						 C156.83 278.27 165.94 271.01 174.08 262.56 C180.97 255.42 187.17 247.41 195.47 237.71" class="st10"/>
		</g>
		<g id="shape153-62" transform="translate(678.885,442.443) rotate(153.135)">
			<title>Sheet.153</title>
			<path d="M-0 300.29 A121.969 78.5403 22.78 0 1 151.45 297.31 L151.77 297.49" class="st6"/>
		</g>
		<g id="shape1001-67" transform="translate(9.49034,402.856) rotate(-120.67)">
			<title>Sheet.1001</title>
			<path d="M0 300.29 C-0.66 293.06 3.28 284.96 8.05 277.26 C14.35 267.1 22.1 257.64 30.96 250.41 C35.66 246.57 40.68 243.36
						 46.01 240.49 C57.65 234.24 70.81 229.62 84.86 228.74 C105.92 227.42 128.98 234.51 147.88 246.65 C160.31
						 254.64 170.95 264.82 178.4 275.61 C182.55 281.63 185.72 287.84 187.88 294.47 L187.98 294.82" class="st6"/>
		</g>
		<g id="shape1002-72" transform="translate(306.188,359.136) rotate(162.646)">
			<title>Sheet.1002</title>
			<path d="M0 300.29 C-1.71 298.32 -2.5 297.58 -3.2 296.8 C-9.75 289.59 -9.12 279.24 -5.65 272.3 C-3.4 267.79 0.05 264.72
						 3.85 262.62 C9.86 259.3 16.75 258.44 23.96 259.43 C29.28 260.17 34.77 261.91 38.82 265.11 C46.82 271.42
						 49.19 283.37 48.32 294.3 L48.28 294.66" class="st6"/>
		</g>
	</g>
</svg>
