<?xml version="1.0" encoding="UTF-8" standalone="no"?>
<!DOCTYPE svg PUBLIC "-//W3C//DTD SVG 1.1//EN" "http://www.w3.org/Graphics/SVG/1.1/DTD/svg11.dtd">
<!-- Generated by Microsoft Visio, SVG Export wifi_provisioning_state_diagram.svg Page-1 -->
<svg xmlns="http://www.w3.org/2000/svg" xmlns:xlink="http://www.w3.org/1999/xlink" xmlns:ev="http://www.w3.org/2001/xml-events"
		xmlns:v="http://schemas.microsoft.com/visio/2003/SVGExtensions/" width="7.75392in" height="5.76597in"
		viewBox="0 0 558.282 415.15" xml:space="preserve" color-interpolation-filters="sRGB" class="st12">
	<v:documentProperties v:langID="1035" v:viewMarkup="false"/>

	<style type="text/css">
	<![CDATA[
		.st1 {marker-start:url(#mrkr4-6);stroke:#333f48;stroke-linecap:butt;stroke-width:1}
		.st2 {fill:#333f48;fill-opacity:1;stroke:#333f48;stroke-opacity:1;stroke-width:0.28409090909091}
		.st3 {fill:none;stroke:none;stroke-width:1}
		.st4 {fill:#333f48;font-family:Arial;font-size:0.666664em}
		.st5 {font-size:1em}
		.st6 {marker-end:url(#mrkr4-28);stroke:#333f48;stroke-linecap:butt;stroke-width:1}
		.st7 {fill:#00a9ce;stroke:none;stroke-width:1}
		.st8 {fill:#ffffff;font-family:Arial;font-size:0.833336em}
		.st9 {fill:#feffff;font-size:1em}
		.st10 {fill:#0077c8;stroke:none;stroke-width:1}
		.st11 {fill:#ffffff;font-family:Arial;font-size:0.916672em}
		.st12 {fill:none;fill-rule:evenodd;font-size:12px;overflow:visible;stroke-linecap:square;stroke-miterlimit:3}
	]]>
	</style>

	<defs id="Markers">
		<g id="lend4">
			<path d="M 2 1 L 0 0 L 2 -1 L 2 1 " style="stroke:none"/>
		</g>
		<marker id="mrkr4-6" class="st2" v:arrowType="4" v:arrowSize="2" v:setback="6.68" refX="6.68" orient="auto"
				markerUnits="strokeWidth" overflow="visible">
			<use xlink:href="#lend4" transform="scale(3.52) "/>
		</marker>
		<marker id="mrkr4-28" class="st2" v:arrowType="4" v:arrowSize="2" v:setback="7.04" refX="-7.04" orient="auto"
				markerUnits="strokeWidth" overflow="visible">
			<use xlink:href="#lend4" transform="scale(-3.52,-3.52) "/>
		</marker>
	</defs>
	<g v:mID="0" v:index="1" v:groupContext="foregroundPage">
		<title>Page-1</title>
		<v:pageProperties v:drawingScale="0.0393701" v:pageScale="0.0393701" v:drawingUnits="24" v:shadowOffsetX="8.50394"
				v:shadowOffsetY="-8.50394"/>
		<v:layer v:name="Connector" v:index="0"/>
		<g id="shape1146-1" v:mID="1146" v:groupContext="shape" v:layerMember="0" transform="translate(457.378,-249.031)">
			<title>Dynamic connector.1068</title>
			<path d="M6.26 412.83 L6.6 412.7 C24.7 405.59 27.18 400.84 27.82 395.95 C28.52 390.62 27.02 385.13 24.83 380.49 C21.92
						 374.35 17.79 369.69 11.8 366.39 C4.51 362.37 -5.54 360.36 -18.83 362.14 C-30.78 363.73 -45.35 368.38 -45.84
						 389.29" class="st1"/>
		</g>
		<g id="shape1159-7" v:mID="1159" v:groupContext="shape" transform="translate(357.777,-331.668)">
			<title>Sheet.1159</title>
			<desc>EVENT_SCAN_DONE/dhcp_server_start()</desc>
			<v:textBlock v:margins="rect(4,4,4,4)" v:tabSpace="42.5197"/>
			<v:textRect cx="79.5812" cy="400.134" width="159.17" height="30.0317"/>
			<rect x="0" y="385.118" width="159.162" height="30.0317" class="st3"/>
			<text x="38.02" y="397.73" class="st4" v:langID="1044"><v:paragraph v:horizAlign="1"/><v:tabList/>EVENT_SCAN_DONE/<tspan
						x="44.9" dy="1.2em" class="st5">dhcp_server_start()</tspan></text>		</g>
		<g id="shape1161-11" v:mID="1161" v:groupContext="shape" v:layerMember="0" transform="translate(199.425,-386.512)">
			<title>Dynamic connector.1161</title>
			<path d="M-6.68 415.25 L-7.04 415.26 C-17.68 415.74 -29.68 418.29 -36.87 431.96 C-47.61 452.36 -47.61 497.53 -47.61 524.99"
					class="st1"/>
		</g>
		<g id="shape1162-16" v:mID="1162" v:groupContext="shape" transform="translate(1,-331.668)">
			<title>Sheet.1162</title>
			<desc>EVENT_PROVISIONING_START/wifi_scan()</desc>
			<v:textBlock v:margins="rect(4,4,4,4)" v:tabSpace="42.5197"/>
			<v:textRect cx="70.8661" cy="400.134" width="141.74" height="30.0317"/>
			<rect x="0" y="385.118" width="141.732" height="30.0317" class="st3"/>
			<text x="9.52" y="397.73" class="st4" v:langID="1044"><v:paragraph v:horizAlign="1"/><v:tabList/>EVENT_PROVISIONING_START/<tspan
						x="51.75" dy="1.2em" class="st5">wifi_scan()</tspan></text>		</g>
		<g id="shape1163-20" v:mID="1163" v:groupContext="shape" transform="translate(465.19,-276.393)">
			<title>Sheet.1163</title>
			<desc>EVENT_AP_ENABLE</desc>
			<v:textBlock v:margins="rect(4,4,4,4)" v:tabSpace="42.5197"/>
			<v:textRect cx="46.0458" cy="387.512" width="92.1" height="55.2756"/>
			<rect x="0" y="359.874" width="92.0917" height="55.2756" class="st3"/>
			<text x="7.14" y="389.91" class="st4" v:langID="1044"><v:paragraph v:horizAlign="1"/><v:tabList/>EVENT_AP_ENABLE</text>		</g>
		<g id="shape1164-23" v:mID="1164" v:groupContext="shape" v:layerMember="0" transform="translate(10.0836,-241.505)">
			<title>Dynamic connector</title>
			<path d="M0 408.5 L63.83 407.71" class="st6"/>
		</g>
		<g id="shape1166-29" v:mID="1166" v:groupContext="shape" transform="translate(10.0836,-248.151)">
			<title>Sheet.1166</title>
			<desc>EVENT_INIT</desc>
			<v:textBlock v:margins="rect(4,4,4,4)" v:tabSpace="42.5197"/>
			<v:textRect cx="35.4331" cy="407.182" width="70.87" height="15.9346"/>
			<rect x="0" y="399.215" width="70.8661" height="15.9346" class="st3"/>
			<text x="12.32" y="409.58" class="st4" v:langID="1044"><v:paragraph v:horizAlign="1"/><v:tabList/>EVENT_INIT</text>		</g>
		<g id="shape1169-32" v:mID="1169" v:groupContext="shape" transform="translate(389.135,-182.047)">
			<title>Sheet.1169</title>
			<desc>EVENT_CREDENTIALS_RECIEVED/ap_disable()</desc>
			<v:textBlock v:margins="rect(4,4,4,4)" v:tabSpace="42.5197"/>
			<v:textRect cx="79.5812" cy="400.134" width="159.17" height="30.0317"/>
			<rect x="0" y="385.118" width="159.162" height="30.0317" class="st3"/>
			<text x="12.23" y="397.73" class="st4" v:langID="1044"><v:paragraph v:horizAlign="1"/><v:tabList/>EVENT_CREDENTIALS_RECIEVED/<tspan
						x="57.57" dy="1.2em" class="st5">ap_disable()</tspan></text>		</g>
		<g id="shape1172-36" v:mID="1172" v:groupContext="shape" transform="translate(390.764,-78.0721)">
			<title>Sheet.1172</title>
			<desc>EVENT_AP_DISABLE()</desc>
			<v:textBlock v:margins="rect(4,4,4,4)" v:tabSpace="42.5197"/>
			<v:textRect cx="49.6063" cy="407.182" width="99.22" height="15.9346"/>
			<rect x="0" y="399.215" width="99.2126" height="15.9346" class="st3"/>
			<text x="6.93" y="409.58" class="st4" v:langID="1044"><v:paragraph v:horizAlign="1"/><v:tabList/>EVENT_AP_DISABLE()</text>		</g>
		<g id="shape1173-39" v:mID="1173" v:groupContext="shape" transform="translate(80.9497,-111.015)">
			<title>Ellipse.1173</title>
			<desc>STATE_RESET Reboot needed</desc>
			<v:userDefs>
				<v:ud v:nameU="visVersion" v:val="VT0(15):26"/>
			</v:userDefs>
			<v:textBlock v:margins="rect(4,4,4,4)"/>
			<v:textRect cx="70.8661" cy="387.512" width="124.02" height="48.3661"/>
			<path d="M0 387.51 A70.8661 27.6378 0 1 1 141.73 387.51 A70.8661 27.6378 0 1 1 -0 387.51 Z" class="st7"/>
			<text x="35.3" y="384.51" class="st8" v:langID="1044"><v:paragraph v:horizAlign="1" v:bulletSize="0.166667"/><v:tabList/>STATE_RESET<v:newlineChar/><tspan
						x="36.67" dy="1.2em" class="st9">Reboot needed</tspan></text>		</g>
		<g id="shape1174-43" v:mID="1174" v:groupContext="shape" transform="translate(80.9497,-1)">
			<title>Ellipse.1174</title>
			<desc>All states</desc>
			<v:userDefs>
				<v:ud v:nameU="visVersion" v:val="VT0(15):26"/>
			</v:userDefs>
			<v:textBlock v:margins="rect(4,4,4,4)"/>
			<v:textRect cx="70.8661" cy="387.512" width="124.02" height="48.3661"/>
			<path d="M0 387.51 A70.8661 27.6378 0 1 1 141.73 387.51 A70.8661 27.6378 0 1 1 -0 387.51 Z" class="st10"/>
			<text x="48.55" y="390.81" class="st11" v:langID="1035"><v:paragraph v:horizAlign="1" v:bulletSize="0.166667"/><v:tabList/>All states</text>		</g>
		<g id="shape1177-46" v:mID="1177" v:groupContext="shape" transform="translate(29.3465,-77.5354)">
			<title>Sheet.1177</title>
			<desc>EVENT_RESET/wifi_credentials_delete_all()</desc>
			<v:textBlock v:margins="rect(4,4,4,4)" v:tabSpace="42.5197"/>
			<v:textRect cx="70.8661" cy="407.182" width="141.74" height="15.9346"/>
			<rect x="0" y="399.215" width="141.732" height="15.9346" class="st3"/>
			<text x="40.86" y="404.78" class="st4" v:langID="1044"><v:paragraph v:horizAlign="1"/><v:tabList/>EVENT_RESET/<tspan
						x="21.51" dy="1.2em" class="st5">wifi_credentials_delete_all()</tspan></text>		</g>
		<g id="shape1179-50" v:mID="1179" v:groupContext="shape" transform="translate(199.425,-358.874)">
			<title>Sheet.1179</title>
			<desc>STATE_UNPROVISIONED</desc>
			<v:textBlock v:margins="rect(4,4,4,4)" v:tabSpace="42.5197"/>
			<v:textRect cx="70.8661" cy="387.512" width="141.74" height="55.2756"/>
			<ellipse cx="70.8661" cy="387.512" rx="70.8661" ry="27.6378" class="st7"/>
			<text x="10.02" y="390.51" class="st8" v:langID="1044"><v:paragraph v:horizAlign="1"/><v:tabList/>STATE_UNPROVISIONED</text>		</g>
		<g id="shape1182-53" v:mID="1182" v:groupContext="shape" transform="translate(315.646,-221.394)">
			<title>Sheet.1182</title>
			<desc>STATE_PROVISIONING</desc>
			<v:textBlock v:margins="rect(4,4,4,4)" v:tabSpace="42.5197"/>
			<v:textRect cx="70.8661" cy="387.512" width="141.74" height="55.2756"/>
			<ellipse cx="70.8661" cy="387.512" rx="70.8661" ry="27.6378" class="st7"/>
			<text x="15.3" y="390.51" class="st8" v:langID="1044"><v:paragraph v:horizAlign="1"/><v:tabList/>STATE_PROVISIONING</text>		</g>
		<g id="shape1183-56" v:mID="1183" v:groupContext="shape" transform="translate(80.9497,-221.394)">
			<title>Sheet.1183</title>
			<desc>STATE_INIT</desc>
			<v:textBlock v:margins="rect(4,4,4,4)" v:tabSpace="42.5197"/>
			<v:textRect cx="70.8661" cy="387.512" width="141.74" height="55.2756"/>
			<ellipse cx="70.8661" cy="387.512" rx="70.8661" ry="27.6378" class="st7"/>
			<text x="42.53" y="390.51" class="st8" v:langID="1044"><v:paragraph v:horizAlign="1"/><v:tabList/>STATE_INIT</text>		</g>
		<g id="shape1185-59" v:mID="1185" v:groupContext="shape" transform="translate(315.646,-1)">
			<title>Sheet.1185</title>
			<desc>STATE_FINISHED</desc>
			<v:textBlock v:margins="rect(4,4,4,4)" v:tabSpace="42.5197"/>
			<v:textRect cx="70.8661" cy="387.512" width="141.74" height="55.2756"/>
			<ellipse cx="70.8661" cy="387.512" rx="70.8661" ry="27.6378" class="st7"/>
			<text x="28.64" y="390.51" class="st8" v:langID="1044"><v:paragraph v:horizAlign="1"/><v:tabList/>STATE_FINISHED</text>		</g>
		<g id="shape1186-62" v:mID="1186" v:groupContext="shape" transform="translate(315.646,-111.015)">
			<title>Sheet.1186</title>
			<desc>STATE_PROVISIONED</desc>
			<v:textBlock v:margins="rect(4,4,4,4)" v:tabSpace="42.5197"/>
			<v:textRect cx="70.8661" cy="387.512" width="141.74" height="55.2756"/>
			<ellipse cx="70.8661" cy="387.512" rx="70.8661" ry="27.6378" class="st7"/>
			<text x="17.24" y="390.51" class="st8" v:langID="1044"><v:paragraph v:horizAlign="1"/><v:tabList/>STATE_PROVISIONED</text>		</g>
		<g id="shape1190-65" v:mID="1190" v:groupContext="shape" v:layerMember="0" transform="translate(386.512,-276.669)">
			<title>Dynamic connector.1190</title>
			<path d="M-0.13 408.47 L-0.14 408.11 C-0.59 380.06 0.61 379.14 -0.14 357.46 C-0.78 338.95 -2.83 305.31 -45.35 305.31"
					class="st1"/>
		</g>
		<g id="shape1191-70" v:mID="1191" v:groupContext="shape" v:layerMember="0" transform="translate(144.729,-56.2756)">
			<title>Dynamic connector.1191</title>
			<path d="M7.09 415.15 C7.09 403.53 7.09 382.05 7.09 367.45" class="st6"/>
		</g>
		<g id="shape1192-75" v:mID="1192" v:groupContext="shape" v:layerMember="0" transform="translate(393.598,-166.29)">
			<title>Dynamic connector.1192</title>
			<path d="M-7.09 408.47 L-7.09 408.11 C-7.09 393.41 -7.09 371.75 -7.09 360.05" class="st1"/>
		</g>
		<g id="shape1194-80" v:mID="1194" v:groupContext="shape" v:layerMember="0" transform="translate(393.598,-55.911)">
			<title>Dynamic connector.1194</title>
			<path d="M-7.09 408.47 L-7.09 408.11 C-7.09 393.41 -7.09 371.75 -7.09 360.05" class="st1"/>
		</g>
	</g>
</svg>
