<?xml version="1.0" encoding="UTF-8" standalone="no"?>
<!DOCTYPE svg PUBLIC "-//W3C//DTD SVG 1.1//EN" "http://www.w3.org/Graphics/SVG/1.1/DTD/svg11.dtd">
<!-- Generated by Microsoft Visio, SVG Export wifi_coex.svg Page-1 -->
<svg xmlns="http://www.w3.org/2000/svg" xmlns:xlink="http://www.w3.org/1999/xlink" xmlns:ev="http://www.w3.org/2001/xml-events"
		width="6.61865in" height="4.63408in" viewBox="0 0 476.543 333.654" xml:space="preserve" color-interpolation-filters="sRGB"
		class="st9">
	<style type="text/css">
	<![CDATA[
		.st1 {fill:#00a9ce;stroke:none;stroke-width:1}
		.st2 {fill:#ffffff;font-family:Arial;font-size:0.916672em}
		.st3 {font-size:1em}
		.st4 {fill:#00a9ce;stroke:#feffff;stroke-width:1}
		.st5 {stroke:#00a9ce;stroke-linecap:butt;stroke-width:1.5}
		.st6 {stroke:#00a9ce;stroke-linecap:butt;stroke-width:1}
		.st7 {fill:none;stroke:none;stroke-width:1}
		.st8 {fill:#00a9ce;font-family:Arial;font-size:0.916672em}
		.st9 {fill:none;fill-rule:evenodd;font-size:12px;overflow:visible;stroke-linecap:square;stroke-miterlimit:3}
	]]>
	</style>

	<g>
		<title>Page-1</title>
		<g id="shape5-1" transform="translate(1,-185.252)">
			<title>Nordic Blue</title>
			<desc>Bluetooth LE peer nRF5340 DK (Bluetooth LE throughput sample)</desc>
			<rect x="0" y="220.268" width="113.386" height="113.386" class="st1"/>
			<text x="12.66" y="253.86" class="st2">Bluetooth LE peer <tspan x="24.9" dy="1.2em" class="st3">nRF5340 DK  </tspan><tspan
						x="23.37" dy="2.4em" class="st3">(Bluetooth LE </tspan><tspan x="9.3" dy="1.2em" class="st3">throughput sample)</tspan></text>		</g>
		<g id="shape6-7" transform="translate(1,-1)">
			<title>Nordic Blue.6</title>
			<desc>Wi-Fi access point</desc>
			<rect x="0" y="220.268" width="113.386" height="113.386" class="st1"/>
			<text x="11.77" y="280.26" class="st2">Wi-Fi access point</text>		</g>
		<g id="shape7-10" transform="translate(178.71,-1)">
			<title>Nordic Blue.7</title>
			<desc>Test PC (WLAN iperf server)</desc>
			<rect x="0" y="220.268" width="113.386" height="113.386" class="st1"/>
			<text x="36.83" y="267.06" class="st2">Test PC  <tspan x="8.1" dy="2.4em" class="st3">(WLAN iperf server)</tspan></text>		</g>
		<g id="shape8-14" transform="translate(356.421,-1)">
			<title>Nordic Blue.8</title>
			<desc>DUT nRF7002 DK (Coexistence sample)</desc>
			<rect x="0" y="220.268" width="113.386" height="113.386" class="st1"/>
			<text x="45.39" y="253.86" class="st2">DUT <tspan x="24.9" dy="1.2em" class="st3">nRF7002 DK  </tspan><tspan x="24.6"
						dy="2.4em" class="st3">(Coexistence </tspan><tspan x="37.13" dy="1.2em" class="st3">sample)</tspan></text>		</g>
		<g id="group13-20" transform="translate(13.7968,-298.638)">
			<title>Sheet.13</title>
			<g id="shape9-21" transform="translate(31.0993,633.291) rotate(180)">
				<title>Triangle</title>
				<path d="M31.1 333.65 L15.55 321.5 L0 333.65 L31.1 333.65 Z" class="st4"/>
			</g>
			<g id="shape12-23" transform="translate(8.46305,-24.297)">
				<title>Dynamic connector</title>
				<path d="M7.09 333.65 L7.09 357.95" class="st5"/>
			</g>
		</g>
		<g id="group14-26" transform="translate(9.58572,-114.386)">
			<title>Sheet.14</title>
			<g id="shape15-27" transform="translate(31.0993,633.291) rotate(180)">
				<title>Triangle</title>
				<path d="M31.1 333.65 L15.55 321.5 L0 333.65 L31.1 333.65 Z" class="st4"/>
			</g>
			<g id="shape16-29" transform="translate(8.46305,-24.297)">
				<title>Dynamic connector</title>
				<path d="M7.09 333.65 L7.09 357.95" class="st5"/>
			</g>
		</g>
		<g id="group17-32" transform="translate(412.024,-114.386)">
			<title>Sheet.17</title>
			<g id="shape18-33" transform="translate(31.0993,633.291) rotate(180)">
				<title>Triangle</title>
				<path d="M31.1 333.65 L15.55 321.5 L0 333.65 L31.1 333.65 Z" class="st4"/>
			</g>
			<g id="shape19-35" transform="translate(22.6363,-24.297)">
				<title>Dynamic connector</title>
				<path d="M-7.09 333.65 L-7.09 357.95" class="st5"/>
			</g>
		</g>
		<g id="group20-38" transform="translate(440.993,-114.386)">
			<title>Sheet.20</title>
			<g id="shape21-39" transform="translate(31.0993,633.291) rotate(180)">
				<title>Triangle</title>
				<path d="M31.1 333.65 L15.55 321.5 L0 333.65 L31.1 333.65 Z" class="st4"/>
			</g>
			<g id="shape22-41" transform="translate(22.6363,-24.297)">
				<title>Dynamic connector</title>
				<path d="M-7.09 333.65 L-7.09 357.95" class="st5"/>
			</g>
		</g>
		<g id="shape24-44" transform="translate(114.386,-208.496)">
			<title>Dynamic connector</title>
			<path d="M0 333.65 L125.29 333.65 L125.29 427.76" class="st6"/>
		</g>
		<g id="shape25-47" transform="translate(145.567,-208.496)">
			<title>Sheet.25</title>
			<desc>USB</desc>
			<rect x="0" y="314.654" width="49.8898" height="19" class="st7"/>
			<text x="13.64" y="327.45" class="st8">USB</text>		</g>
		<g id="shape27-50" transform="translate(114.386,-46.3543)">
			<title>Dynamic connector.27</title>
			<path d="M0 326.57 L64.32 326.57" class="st6"/>
		</g>
		<g id="shape28-53" transform="translate(292.096,-44.3701)">
			<title>Dynamic connector.28</title>
			<path d="M0 326.57 L64.32 326.57" class="st6"/>
		</g>
		<g id="shape29-56" transform="translate(298.354,-51.4567)">
			<title>Sheet.29</title>
			<desc>USB</desc>
			<rect x="0" y="314.654" width="49.8898" height="19" class="st7"/>
			<text x="13.64" y="327.45" class="st8">USB</text>		</g>
		<g id="shape30-59" transform="translate(122.563,-53.441)">
			<title>Sheet.30</title>
			<desc>RJ45</desc>
			<rect x="0" y="314.654" width="49.8898" height="19" class="st7"/>
			<text x="12.11" y="327.45" class="st8">RJ45</text>		</g>
	</g>
</svg>
