<?xml version="1.0" encoding="UTF-8" standalone="no"?>
<!DOCTYPE svg PUBLIC "-//W3C//DTD SVG 1.1//EN" "http://www.w3.org/Graphics/SVG/1.1/DTD/svg11.dtd">
<!-- Generated by Microsoft Visio, SVG Export zigbee_platform_design_nRF53.svg Page-1 -->
<svg xmlns="http://www.w3.org/2000/svg" xmlns:xlink="http://www.w3.org/1999/xlink" xmlns:ev="http://www.w3.org/2001/xml-events"
		width="9.60827in" height="4.6122in" viewBox="0 0 691.795 332.079" xml:space="preserve" color-interpolation-filters="sRGB"
		class="st17">
	<style type="text/css">
	<![CDATA[
		.st1 {fill:#0077c8;fill-opacity:0.58;stroke:none;stroke-linecap:round;stroke-linejoin:round;stroke-width:0.75}
		.st2 {stroke:none;stroke-linecap:round;stroke-linejoin:round;stroke-width:0.75}
		.st3 {fill:#ffffff;font-family:Gotham Light;font-size:1.81764em}
		.st4 {fill:#0033a0;stroke:none;stroke-width:1}
		.st5 {fill:#ffffff;font-family:Gotham Light;font-size:1.12521em}
		.st6 {fill:#6ad1e3;stroke:none;stroke-width:1}
		.st7 {fill:#ffffff;font-family:Gotham Light;font-size:1.29833em}
		.st8 {fill:#00a9ce;stroke:#feffff;stroke-width:1}
		.st9 {fill:#ffffff;font-family:Gotham Light;font-size:0.778999em}
		.st10 {fill:#ffffff;font-family:Gotham Light;font-size:0.833336em}
		.st11 {fill:#ffffff;font-family:Gotham Light;font-size:1.00001em}
		.st12 {fill:#ffffff;font-family:Gotham Light;font-size:0.75em}
		.st13 {marker-end:url(#mrkr13-76);marker-start:url(#mrkr13-74);stroke:#0033a0;stroke-linecap:round;stroke-linejoin:round;stroke-width:1}
		.st14 {fill:#0033a0;fill-opacity:1;stroke:#0033a0;stroke-opacity:1;stroke-width:0.28409090909091}
		.st15 {fill:#ffffff;stroke:none;stroke-linecap:butt;stroke-width:7.2}
		.st16 {fill:#000000;font-family:Gotham Light;font-size:1.00001em}
		.st17 {fill:none;fill-rule:evenodd;font-size:12px;overflow:visible;stroke-linecap:square;stroke-miterlimit:3}
	]]>
	</style>

	<defs id="Markers">
		<g id="lend13">
			<path d="M 3 1 L 0 0 L 3 -1 L 3 1 " style="stroke:none"/>
		</g>
		<marker id="mrkr13-74" class="st14" refX="10.2" orient="auto" markerUnits="strokeWidth" overflow="visible">
			<use xlink:href="#lend13" transform="scale(3.52) "/>
		</marker>
		<marker id="mrkr13-76" class="st14" refX="-10.56" orient="auto" markerUnits="strokeWidth" overflow="visible">
			<use xlink:href="#lend13" transform="scale(-3.52,-3.52) "/>
		</marker>
	</defs>
	<g>
		<title>Page-1</title>
		<g id="shape55-1" transform="translate(404.504,-53.4331)">
			<title>Sheet.55</title>
			<path d="M269.29 71.43 L0 71.43 L0 332.08 L269.29 332.08 L269.29 71.43 Z" class="st1"/>
		</g>
		<g id="shape56-3" transform="translate(404.504,-56.2677)">
			<title>Sheet.56</title>
			<desc>nRF53 application core</desc>
			<path d="M269.29 303.08 L0 303.08 L0 332.08 L269.29 332.08 L269.29 303.08" class="st2"/>
			<text x="9.87" y="324.12" class="st3">nRF53 application core</text>		</g>
		<g id="shape59-7" transform="translate(411.591,-259.267)">
			<title>Sheet.59</title>
			<path d="M0 283.68 L0 332.08 L255.12 332.08 L255.12 283.68 L0 283.68 L0 283.68 Z" class="st4"/>
		</g>
		<g id="shape60-9" transform="translate(412.394,-274.884)">
			<title>Sheet.60</title>
			<desc>Application</desc>
			<path d="M253.88 314.92 L0 314.92 L0 332.08 L253.88 332.08 L253.88 314.92" class="st2"/>
			<text x="88.76" y="327.55" class="st5">Application</text>		</g>
		<g id="shape67-13" transform="translate(411.591,-142.299)">
			<title>Sheet.67</title>
			<path d="M0 220.89 L0 332.08 L255.12 332.08 L255.12 220.89 L0 220.89 L0 220.89 Z" class="st6"/>
		</g>
		<g id="shape71-15" transform="translate(426.881,-227.567)">
			<title>Sheet.71</title>
			<desc>Zigbee stack (ZBOSS)</desc>
			<path d="M230.79 312.28 L0 312.28 L0 332.08 L230.79 332.08 L230.79 312.28" class="st2"/>
			<text x="29.49" y="326.85" class="st7">Zigbee stack (ZBOSS)</text>		</g>
		<g id="shape72-19" transform="translate(444.962,-152.01)">
			<title>Sheet.72</title>
			<path d="M192.33 308.98 L0 308.98 L0 332.08 L192.33 332.08 L192.33 308.98 Z" class="st8"/>
		</g>
		<g id="shape73-21" transform="translate(492.77,-157.618)">
			<title>Sheet.73</title>
			<desc>IEEE 802.15.4 MAC</desc>
			<path d="M96.71 320.2 L0 320.2 L0 332.08 L96.71 332.08 L96.71 320.2" class="st2"/>
			<text x="4.99" y="328.94" class="st9">IEEE 802.15.4 MAC</text>		</g>
		<g id="shape76-25" transform="translate(444.962,-203.034)">
			<title>Sheet.76</title>
			<path d="M192.33 308.98 L0 308.98 L0 332.08 L192.33 332.08 L192.33 308.98 Z" class="st8"/>
		</g>
		<g id="shape77-27" transform="translate(444.756,-203.034)">
			<title>Sheet.77</title>
			<desc>Zigbee App Layer (ZCL)</desc>
			<path d="M192.33 308.98 L0 308.98 L0 332.08 L192.33 332.08 L192.33 308.98" class="st2"/>
			<text x="39.61" y="323.33" class="st9">Zigbee App Layer (ZCL)</text>		</g>
		<g id="shape90-31" transform="translate(444.962,-177.522)">
			<title>Sheet.90</title>
			<path d="M192.33 308.98 L0 308.98 L0 332.08 L192.33 332.08 L192.33 308.98 Z" class="st8"/>
		</g>
		<g id="shape91-33" transform="translate(444.962,-177.522)">
			<title>Sheet.91</title>
			<desc>Zigbee PRO + Green Power</desc>
			<path d="M192.33 308.98 L0 308.98 L0 332.08 L192.33 332.08 L192.33 308.98" class="st2"/>
			<text x="32.58" y="323.33" class="st9">Zigbee PRO + Green Power</text>		</g>
		<g id="group187-37" transform="translate(411.591,-113.953)">
			<title>Sheet.187</title>
			<desc>Secure boot</desc>
			<g id="shape188-38">
				<title>Sheet.188</title>
				<rect x="0" y="309.402" width="255.118" height="22.6772" class="st6"/>
			</g>
			<g id="shape187-40">
				<text x="76.35" y="323.74" class="st10">Zephyr integration</text>			</g>
		</g>
		<g id="shape189-42" transform="translate(18,-18)">
			<title>Sheet.189</title>
			<path d="M269.29 210.63 L0 210.63 L0 332.08 L269.29 332.08 L269.29 210.63 Z" class="st1"/>
		</g>
		<g id="group190-44" transform="translate(25.3701,-47.7638)">
			<title>Sheet.190</title>
			<desc>Secure boot</desc>
			<g id="shape191-45">
				<title>Sheet.191</title>
				<rect x="0" y="303.081" width="250.775" height="28.9978" class="st6"/>
			</g>
			<g id="shape190-47">
				<text x="40.06" y="320.58" class="st10">Multiprotocol Service Layer (MPSL)</text>			</g>
		</g>
		<g id="shape192-49" transform="translate(18,-18)">
			<title>Sheet.192</title>
			<desc>nRF53 network core</desc>
			<path d="M269.29 303.73 L0 303.73 L0 332.08 L269.29 332.08 L269.29 303.73" class="st2"/>
			<text x="24.93" y="324.45" class="st3">nRF53 network core</text>		</g>
		<g id="shape193-53" transform="translate(25.3701,-81.7795)">
			<title>Sheet.193</title>
			<path d="M251.57 283.89 L0 283.89 L0 332.08 L251.57 332.08 L251.57 283.89 Z" class="st6"/>
		</g>
		<g id="shape194-55" transform="translate(25.3701,-113.932)">
			<title>Sheet.194</title>
			<desc>nRF IEEE 802.15.4 radio driver</desc>
			<path d="M251.57 318.88 L0 318.88 L0 332.08 L251.57 332.08 L251.57 318.88" class="st2"/>
			<text x="36.58" y="329.08" class="st11">nRF IEEE 802.15.4 radio driver</text>		</g>
		<g id="shape195-59" transform="translate(35.1535,-87.2386)">
			<title>Sheet.195</title>
			<path d="M229.49 308.98 L0 308.98 L0 332.08 L229.49 332.08 L229.49 308.98 Z" class="st8"/>
		</g>
		<g id="shape196-61" transform="translate(35.1535,-91.5263)">
			<title>Sheet.196</title>
			<desc>IEEE 802.15.4 PHY</desc>
			<path d="M229.49 317.56 L0 317.56 L0 332.08 L229.49 332.08 L229.49 317.56" class="st2"/>
			<text x="74.15" y="327.52" class="st12">IEEE 802.15.4 PHY</text>		</g>
		<g id="shape197-65" transform="translate(411.591,-87.4488)">
			<title>Sheet.197</title>
			<desc>nRF IEEE 802.15.4 radio driver</desc>
			<path d="M255.12 309.4 L0 309.4 L0 332.08 L255.12 332.08 L255.12 309.4 Z" class="st6"/>
			<text x="53.22" y="323.89" class="st10">nRF IEEE 802.15.4 radio driver</text>		</g>
		<g id="shape199-68" transform="translate(411.591,-91.7008)">
			<title>Dynamic connector</title>
			<desc>OpenAMP (Spinel)</desc>
			<path d="M-10.2 324.99 L-10.56 324.99 L-124.09 324.99" class="st13"/>
			<rect x="-122.451" y="309.425" width="110.257" height="14.4001" class="st15"/>
			<text x="-122.45" y="320.23" class="st16">OpenAMP (Spinel)</text>		</g>
	</g>
</svg>
