<?xml version="1.0" encoding="UTF-8" standalone="no"?>
<!DOCTYPE svg PUBLIC "-//W3C//DTD SVG 1.1//EN" "http://www.w3.org/Graphics/SVG/1.1/DTD/svg11.dtd">
<!-- Generated by Microsoft Visio, SVG Export zigbee_platform_design_ncp.svg Page-1 -->
<svg xmlns="http://www.w3.org/2000/svg" xmlns:xlink="http://www.w3.org/1999/xlink" xmlns:ev="http://www.w3.org/2001/xml-events"
		width="9.02953in" height="6.73425in" viewBox="0 0 650.126 484.866" xml:space="preserve" color-interpolation-filters="sRGB"
		class="st20">
	<style type="text/css">
	<![CDATA[
		.st1 {fill:#0077c8;fill-opacity:0.58;stroke:none;stroke-linecap:round;stroke-linejoin:round;stroke-width:0.75}
		.st2 {fill:#ff0000;stroke:none;stroke-linecap:round;stroke-linejoin:round;stroke-width:0.75}
		.st3 {stroke:none;stroke-linecap:round;stroke-linejoin:round;stroke-width:0.75}
		.st4 {fill:#ffffff;font-family:Gotham Light;font-size:1.12521em}
		.st5 {fill:#0077c8;fill-opacity:0.52;stroke:none;stroke-linecap:round;stroke-linejoin:round;stroke-width:0.75}
		.st6 {fill:#ffffff;font-family:Gotham Light;font-size:1.64637em}
		.st7 {fill:#ffffff;font-family:Gotham Light;font-size:1.01919em}
		.st8 {fill:#6ad1e3;stroke:none;stroke-width:1}
		.st9 {fill:#0033a0;stroke:none;stroke-width:1}
		.st10 {fill:#0075c8;stroke:#0075c8;stroke-linecap:round;stroke-linejoin:round;stroke-width:0.0587766}
		.st11 {fill:#333f48;font-family:Gotham Light;font-size:1.25439em}
		.st12 {fill:#ffffff;font-family:Gotham Light;font-size:1.81764em}
		.st13 {fill:#ffffff;font-family:Gotham Light;font-size:1.29833em}
		.st14 {fill:#00a9ce;stroke:#feffff;stroke-width:1}
		.st15 {fill:#ffffff;font-family:Gotham Light;font-size:0.778999em}
		.st16 {fill:#ffffff;font-family:Gotham Light;font-size:0.833336em}
		.st17 {fill:#ffffff;font-family:Gotham Light;font-size:0.75em}
		.st18 {font-size:1em}
		.st19 {fill:#00a9ce;stroke:none;stroke-width:1}
		.st20 {fill:none;fill-rule:evenodd;font-size:12px;overflow:visible;stroke-linecap:square;stroke-miterlimit:3}
	]]>
	</style>

	<g>
		<title>Page-1</title>
		<g id="shape55-1" transform="translate(18,-18)">
			<title>Sheet.55</title>
			<path d="M293.81 159.89 L0 159.89 L0 484.87 L293.81 484.87 L293.81 159.89 Z" class="st1"/>
		</g>
		<g id="shape59-3" transform="translate(25.0866,-289.113)">
			<title>Sheet.59</title>
			<path d="M0 436.47 L0 484.87 L278.22 484.87 L278.22 436.47 L0 436.47 L0 436.47 Z" class="st2"/>
		</g>
		<g id="shape60-5" transform="translate(25.8896,-304.729)">
			<title>Sheet.60</title>
			<desc>ZBOSS NCP protocol</desc>
			<path d="M277.42 467.7 L0 467.7 L0 484.87 L277.42 484.87 L277.42 467.7" class="st3"/>
			<text x="67.54" y="480.34" class="st4">ZBOSS NCP protocol</text>		</g>
		<g id="shape213-9" transform="translate(435.378,-263.197)">
			<title>Sheet.213</title>
			<path d="M196.75 281.2 L0 281.2 L0 484.87 L196.75 484.87 L196.75 281.2 Z" class="st5"/>
		</g>
		<g id="shape214-11" transform="translate(435.415,-269.44)">
			<title>Sheet.214</title>
			<desc>Host processor</desc>
			<path d="M188.21 461.15 L0 461.15 L0 484.87 L188.21 484.87 L188.21 461.15" class="st3"/>
			<text x="20.15" y="478.94" class="st6">Host processor</text>		</g>
		<g id="shape215-15" transform="translate(442.63,-296.787)">
			<title>Sheet.215</title>
			<path d="M0 448.18 L0 484.87 L182.69 484.87 L182.69 448.18 L0 448.18 L0 448.18 Z" class="st2"/>
		</g>
		<g id="shape216-17" transform="translate(442.63,-296.787)">
			<title>Sheet.216</title>
			<desc>ZBOSS NCP protocol</desc>
			<path d="M182.69 448.18 L0 448.18 L0 484.87 L182.69 484.87 L182.69 448.18" class="st3"/>
			<text x="26.89" y="470.19" class="st7">ZBOSS NCP protocol</text>		</g>
		<g id="shape217-21" transform="translate(442.63,-339.307)">
			<title>Sheet.217</title>
			<path d="M182.69 411.17 L0 411.17 L0 484.87 L182.69 484.87 L182.69 411.17 Z" class="st8"/>
		</g>
		<g id="shape218-23" transform="translate(442.205,-394.941)">
			<title>Sheet.218</title>
			<desc>Zigbee stack (ZBOSS)</desc>
			<path d="M182.69 467.42 L0 467.42 L0 484.87 L182.69 484.87 L182.69 467.42" class="st3"/>
			<text x="23.91" y="479.81" class="st7">Zigbee stack (ZBOSS)</text>		</g>
		<g id="shape219-27" transform="translate(442.63,-418.677)">
			<title>Sheet.219</title>
			<path d="M0 448.02 L0 484.87 L182.69 484.87 L182.69 448.02 L0 448.02 L0 448.02 Z" class="st9"/>
		</g>
		<g id="shape220-29" transform="translate(442.772,-418.804)">
			<title>Sheet.220</title>
			<desc>Application</desc>
			<path d="M182.69 448.27 L0 448.27 L0 484.87 L182.69 484.87 L182.69 448.27" class="st3"/>
			<text x="56.77" y="470.24" class="st7">Application</text>		</g>
		<g id="shape221-33" transform="translate(303.307,-310.541)">
			<title>Sheet.221</title>
			<path d="M4.51 481.57 L134.81 480.81 L134.81 479.87 L4.51 480.63 L4.51 481.57 L4.51 481.57 ZM5.4 477.34 L0 481.16 L5.44
						 484.87 L5.4 477.34 L5.4 477.34 ZM133.93 484.1 L139.32 480.28 L133.88 476.58 L133.93 484.1 L133.93 484.1
						 Z" class="st10"/>
		</g>
		<g id="shape222-35" transform="translate(311.811,-314.965)">
			<title>Sheet.222</title>
			<desc>UART/USB</desc>
			<path d="M123.57 466.8 L0 466.8 L0 484.87 L123.57 484.87 L123.57 466.8" class="st3"/>
			<text x="20.14" y="480.35" class="st11">UART/USB</text>		</g>
		<g id="shape242-39" transform="translate(182.664,-27.5798)">
			<title>Sheet.242</title>
			<desc>nRF SoC</desc>
			<path d="M118.37 461.77 L0 461.77 L0 484.87 L118.37 484.87 L118.37 461.77" class="st3"/>
			<text x="12.12" y="479.86" class="st12">nRF SoC</text>		</g>
		<g id="shape243-43" transform="translate(25.1213,-141.113)">
			<title>Sheet.243</title>
			<path d="M0 342.94 L0 484.87 L277.42 484.87 L277.42 342.94 L0 342.94 L0 342.94 Z" class="st8"/>
		</g>
		<g id="shape244-45" transform="translate(25.1213,-257.115)">
			<title>Sheet.244</title>
			<desc>Zigbee stack (ZBOSS)</desc>
			<path d="M277.42 465.06 L0 465.06 L0 484.87 L277.42 484.87 L277.42 465.06" class="st3"/>
			<text x="52.81" y="479.64" class="st13">Zigbee stack (ZBOSS)</text>		</g>
		<g id="shape245-49" transform="translate(35.7867,-178.11)">
			<title>Sheet.245</title>
			<path d="M224.38 461.77 L0 461.77 L0 484.87 L224.38 484.87 L224.38 461.77 Z" class="st14"/>
		</g>
		<g id="shape246-51" transform="translate(36.3423,-183.717)">
			<title>Sheet.246</title>
			<desc>Network layer (NWK)</desc>
			<path d="M223.88 472.98 L0 472.98 L0 484.87 L223.88 484.87 L223.88 472.98" class="st3"/>
			<text x="61.94" y="481.73" class="st15">Network layer (NWK)</text>		</g>
		<g id="shape249-55" transform="translate(35.7867,-205.039)">
			<title>Sheet.249</title>
			<path d="M224.38 461.77 L0 461.77 L0 484.87 L224.38 484.87 L224.38 461.77 Z" class="st14"/>
		</g>
		<g id="shape250-57" transform="translate(35.7867,-205.039)">
			<title>Sheet.250</title>
			<desc>Application support sublayer (APS)</desc>
			<path d="M224.38 461.77 L0 461.77 L0 484.87 L224.38 484.87 L224.38 461.77" class="st3"/>
			<text x="30.17" y="476.12" class="st15">Application support sublayer (APS)</text>		</g>
		<g id="shape251-61" transform="translate(109.887,-59.475)">
			<title>Sheet.251</title>
			<path d="M192.06 436.68 L0 436.68 L0 484.87 L192.06 484.87 L192.06 436.68 Z" class="st8"/>
		</g>
		<g id="shape252-63" transform="translate(109.887,-91.6271)">
			<title>Sheet.252</title>
			<desc>nRF IEEE 802.15.4 radio driver</desc>
			<path d="M192.06 471.66 L0 471.66 L0 484.87 L192.06 484.87 L192.06 471.66" class="st3"/>
			<text x="21.69" y="481.27" class="st16">nRF IEEE 802.15.4 radio driver</text>		</g>
		<g id="shape253-67" transform="translate(117.356,-64.9341)">
			<title>Sheet.253</title>
			<path d="M175.2 461.77 L0 461.77 L0 484.87 L175.2 484.87 L175.2 461.77 Z" class="st14"/>
		</g>
		<g id="shape254-69" transform="translate(117.356,-69.2217)">
			<title>Sheet.254</title>
			<desc>IEEE 802.15.4 PHY</desc>
			<path d="M175.2 470.34 L0 470.34 L0 484.87 L175.2 484.87 L175.2 470.34" class="st3"/>
			<text x="47" y="480.3" class="st17">IEEE 802.15.4 PHY</text>		</g>
		<g id="group255-73" transform="translate(24.9449,-24.6297)">
			<title>Sheet.255</title>
			<desc>Secure boot</desc>
			<g id="shape256-74">
				<title>Sheet.256</title>
				<rect x="0" y="455.868" width="130.159" height="28.9978" class="st8"/>
			</g>
			<g id="shape255-76">
				<text x="13.76" y="467.37" class="st16">Multiprotocol Service <tspan x="32.66" dy="1.2em" class="st18">Layer (MPSL)</tspan></text>			</g>
		</g>
		<g id="group259-79" transform="translate(109.887,-113.333)">
			<title>Sheet.259</title>
			<desc>Secure boot</desc>
			<g id="shape260-80">
				<title>Sheet.260</title>
				<rect x="0" y="462.189" width="191.898" height="22.6772" class="st8"/>
			</g>
			<g id="shape259-82">
				<text x="46.01" y="476.53" class="st16">Zephyr integration</text>			</g>
		</g>
		<g id="shape265-84" transform="translate(538.583,-349.228)">
			<title>Sheet.265</title>
			<path d="M75.4 440.93 L0 440.93 L0 484.87 L75.4 484.87 L75.4 440.93 Z" class="st14"/>
		</g>
		<g id="shape266-86" transform="translate(538.583,-349.228)">
			<title>Sheet.266</title>
			<desc>Zigbee Commissioning</desc>
			<path d="M75.4 440.93 L0 440.93 L0 484.87 L75.4 484.87 L75.4 440.93" class="st3"/>
			<text x="22.29" y="460.2" class="st17">Zigbee <tspan x="3.75" dy="1.2em" class="st18">Commissioning</tspan></text>		</g>
		<g id="shape267-91" transform="translate(456.1,-349.228)">
			<title>Sheet.267</title>
			<path d="M75.4 440.93 L0 440.93 L0 484.87 L75.4 484.87 L75.4 440.93 Z" class="st14"/>
		</g>
		<g id="shape268-93" transform="translate(456.1,-349.228)">
			<title>Sheet.268</title>
			<desc>Zigbee App layer (ZCL)</desc>
			<path d="M75.4 440.93 L0 440.93 L0 484.87 L75.4 484.87 L75.4 440.93" class="st3"/>
			<text x="22.29" y="454.8" class="st17">Zigbee <tspan x="16.08" dy="1.2em" class="st18">App layer </tspan><tspan
						x="24.63" dy="1.2em" class="st18">(ZCL)</tspan></text>		</g>
		<g id="shape270-99" transform="translate(35.8369,-151.181)">
			<title>Sheet.270</title>
			<path d="M224.38 461.77 L0 461.77 L0 484.87 L224.38 484.87 L224.38 461.77 Z" class="st14"/>
		</g>
		<g id="shape271-101" transform="translate(36.3424,-156.788)">
			<title>Sheet.271</title>
			<desc>IEEE 802.15.4 MAC</desc>
			<path d="M223.88 472.98 L0 472.98 L0 484.87 L223.88 484.87 L223.88 472.98" class="st3"/>
			<text x="68.57" y="481.73" class="st15">IEEE 802.15.4 MAC</text>		</g>
		<g id="shape281-105" transform="translate(35.5672,-232.178)">
			<title>Sheet.281</title>
			<path d="M125.32 461.77 L0 461.77 L0 484.87 L125.32 484.87 L125.32 461.77 Z" class="st14"/>
		</g>
		<g id="shape282-107" transform="translate(35.4331,-232.178)">
			<title>Sheet.282</title>
			<desc>Application Framework</desc>
			<path d="M125.32 461.77 L0 461.77 L0 484.87 L125.32 484.87 L125.32 461.77" class="st3"/>
			<text x="8.55" y="476.12" class="st15">Application Framework</text>		</g>
		<g id="shape283-111" transform="translate(750.815,229.59) rotate(90)">
			<title>Sheet.283</title>
			<path d="M78.16 457.43 L0 457.43 L0 484.87 L78.16 484.87 L78.16 457.43 Z" class="st14"/>
		</g>
		<g id="shape247-113" transform="translate(167.211,-232.178)">
			<title>Sheet.247</title>
			<path d="M126.17 461.77 L0 461.77 L0 484.87 L126.17 484.87 L126.17 461.77 Z" class="st14"/>
		</g>
		<g id="shape248-115" transform="translate(167.077,-232.178)">
			<title>Sheet.248</title>
			<desc>Zigbee Device Object (ZDO)</desc>
			<path d="M125.32 461.77 L0 461.77 L0 484.87 L125.32 484.87 L125.32 461.77" class="st3"/>
			<text x="12.69" y="470.51" class="st15">Zigbee Device Object <tspan x="47.8" dy="1.2em" class="st18">(ZDO)</tspan></text>		</g>
		<g id="shape284-120" transform="translate(751.323,251.911) rotate(90)">
			<title>Sheet.284</title>
			<path d="M1.98 458.43 L0 458.43 L0 484.87 L1.98 484.87 L1.98 458.43 Z" class="st19"/>
		</g>
	</g>
</svg>
