<?xml version="1.0" encoding="UTF-8" standalone="no"?>
<!DOCTYPE svg PUBLIC "-//W3C//DTD SVG 1.1//EN" "http://www.w3.org/Graphics/SVG/1.1/DTD/svg11.dtd">
<!-- Generated by Microsoft Visio, SVG Export zigbee_platform_design_nRF5340_multi.svg Page-1 -->
<svg xmlns="http://www.w3.org/2000/svg" xmlns:xlink="http://www.w3.org/1999/xlink" xmlns:ev="http://www.w3.org/2001/xml-events"
		width="6.8374in" height="5.95785in" viewBox="0 0 492.292 428.965" xml:space="preserve" color-interpolation-filters="sRGB"
		class="st21">
	<style type="text/css">
	<![CDATA[
		.st1 {fill:#0077c8;fill-opacity:0.58;stroke:none;stroke-linecap:round;stroke-linejoin:round;stroke-width:0.75}
		.st2 {stroke:none;stroke-linecap:round;stroke-linejoin:round;stroke-width:0.75}
		.st3 {fill:#ffffff;font-family:Gotham Light;font-size:1.5em}
		.st4 {fill:#0033a0;stroke:none;stroke-width:1}
		.st5 {fill:#ffffff;font-family:Gotham Light;font-size:1.12521em}
		.st6 {fill:#6ad1e3;stroke:none;stroke-width:1}
		.st7 {fill:#ffffff;font-family:Gotham Light;font-size:1.29833em}
		.st8 {fill:#00a9ce;stroke:#feffff;stroke-width:1}
		.st9 {fill:#ffffff;font-family:Gotham Light;font-size:1.00001em}
		.st10 {fill:#a4e6ff;fill-opacity:0.55;stroke:none;stroke-linecap:round;stroke-linejoin:round;stroke-width:0.75}
		.st11 {fill:#ffffff;font-family:Gotham Light;font-size:0.952103em}
		.st12 {fill:#ffffff;font-family:Gotham Light;font-size:0.833336em}
		.st13 {fill:#ffffff;font-family:Gotham Light;font-size:0.778999em}
		.st14 {font-size:1em}
		.st15 {marker-end:url(#mrkr13-107);marker-start:url(#mrkr13-105);stroke:#0033a0;stroke-linecap:round;stroke-linejoin:round;stroke-width:1}
		.st16 {fill:#0033a0;fill-opacity:1;stroke:#0033a0;stroke-opacity:1;stroke-width:0.28409090909091}
		.st17 {fill:#ffffff;stroke:none;stroke-linecap:butt}
		.st18 {fill:#000000;font-family:Gotham Light;font-size:1.00001em}
		.st19 {fill:#ffffff;font-family:Gotham Light;font-size:0.75em}
		.st20 {fill:#ffffff;font-family:Gotham Light;font-size:0.666664em}
		.st21 {fill:none;fill-rule:evenodd;font-size:12px;overflow:visible;stroke-linecap:square;stroke-miterlimit:3}
	]]>
	</style>

	<defs id="Markers">
		<g id="lend13">
			<path d="M 3 1 L 0 0 L 3 -1 L 3 1 " style="stroke:none"/>
		</g>
		<marker id="mrkr13-105" class="st16" refX="10.2" orient="auto" markerUnits="strokeWidth" overflow="visible">
			<use xlink:href="#lend13" transform="scale(3.52) "/>
		</marker>
		<marker id="mrkr13-107" class="st16" refX="-10.56" orient="auto" markerUnits="strokeWidth" overflow="visible">
			<use xlink:href="#lend13" transform="scale(-3.52,-3.52) "/>
		</marker>
	</defs>
	<g>
		<title>Page-1</title>
		<g id="shape55-1" transform="translate(18.326,-158.711)">
			<title>Sheet.55</title>
			<path d="M451.7 176.71 L0 176.71 L0 428.96 L451.7 428.96 L451.7 176.71 Z" class="st1"/>
		</g>
		<g id="shape56-3" transform="translate(18.326,-162.963)">
			<title>Sheet.56</title>
			<desc>nRF53 application core</desc>
			<path d="M451.38 407.3 L0 407.3 L0 428.96 L451.38 428.96 L451.38 407.3" class="st2"/>
			<text x="122.72" y="423.53" class="st3">nRF53 application core</text>		</g>
		<g id="shape59-7" transform="translate(22.6703,-354.272)">
			<title>Sheet.59</title>
			<path d="M0 377.74 L0 428.96 L439.38 428.96 L439.38 377.74 L0 377.74 L0 377.74 Z" class="st4"/>
		</g>
		<g id="shape60-9" transform="translate(200.05,-370.803)">
			<title>Sheet.60</title>
			<desc>Application</desc>
			<path d="M97.89 410.8 L0 410.8 L0 428.96 L97.89 428.96 L97.89 410.8" class="st2"/>
			<text x="10.77" y="423.93" class="st5">Application</text>		</g>
		<g id="shape61-13" transform="translate(22.6703,-186.49)">
			<title>Sheet.61</title>
			<path d="M0 267.47 L0 428.96 L192.33 428.96 L192.33 267.47 L0 267.47 L0 267.47 Z" class="st6"/>
		</g>
		<g id="shape62-15" transform="translate(35.4325,-321.006)">
			<title>Sheet.62</title>
			<desc>Bluetooth LE stack</desc>
			<path d="M159.59 409.16 L0 409.16 L0 428.96 L159.59 428.96 L159.59 409.16" class="st2"/>
			<text x="6.98" y="423.74" class="st7">Bluetooth LE stack</text>		</g>
		<g id="shape67-19" transform="translate(220.496,-236.303)">
			<title>Sheet.67</title>
			<path d="M0 317.28 L0 428.96 L241.55 428.96 L241.55 317.28 L0 317.28 L0 317.28 Z" class="st6"/>
		</g>
		<g id="shape71-21" transform="translate(235.387,-322.24)">
			<title>Sheet.71</title>
			<desc>Zigbee stack (ZBOSS)</desc>
			<path d="M230.79 409.16 L0 409.16 L0 428.96 L230.79 428.96 L230.79 409.16" class="st2"/>
			<text x="29.49" y="423.74" class="st7">Zigbee stack (ZBOSS)</text>		</g>
		<g id="shape117-25" transform="translate(36.2925,-213.248)">
			<title>Sheet.117</title>
			<desc>Zephyr host</desc>
			<rect x="0" y="322.949" width="159.591" height="106.016" class="st8"/>
			<text x="43.9" y="337.01" class="st9">Zephyr host</text>		</g>
		<g id="shape82-28" transform="translate(44.0998,-224.587)">
			<title>Sheet.82</title>
			<path d="M66.44 406.25 L0 406.25 L0 428.96 L66.44 428.96 L66.44 406.25 Z" class="st10"/>
		</g>
		<g id="shape83-30" transform="translate(50.7446,-231.108)">
			<title>Sheet.83</title>
			<desc>L2CAP</desc>
			<path d="M51.55 419.29 L0 419.29 L0 428.96 L51.55 428.96 L51.55 419.29" class="st2"/>
			<text x="6.33" y="427.55" class="st11">L2CAP</text>		</g>
		<g id="shape78-34" transform="translate(44.0998,-275.611)">
			<title>Sheet.78</title>
			<path d="M66.44 406.29 L0 406.29 L0 428.96 L66.44 428.96 L66.44 406.29 Z" class="st10"/>
		</g>
		<g id="shape79-36" transform="translate(54.6052,-282.12)">
			<title>Sheet.79</title>
			<desc>GATT</desc>
			<path d="M43.83 419.31 L0 419.31 L0 428.96 L43.83 428.96 L43.83 419.31" class="st2"/>
			<text x="5.63" y="427.56" class="st11">GATT</text>		</g>
		<g id="shape80-40" transform="translate(44.0998,-249.824)">
			<title>Sheet.80</title>
			<path d="M66.44 406.29 L0 406.29 L0 428.96 L66.44 428.96 L66.44 406.29 Z" class="st10"/>
		</g>
		<g id="shape81-42" transform="translate(60.2363,-256.001)">
			<title>Sheet.81</title>
			<desc>ATT</desc>
			<path d="M32.92 418.64 L0 418.64 L0 428.96 L32.92 428.96 L32.92 418.64" class="st2"/>
			<text x="4.66" y="427.23" class="st11">ATT</text>		</g>
		<g id="shape88-46" transform="translate(113.404,-275.611)">
			<title>Sheet.88</title>
			<path d="M73.64 406.21 L0 406.21 L0 428.96 L73.64 428.96 L73.64 406.21 Z" class="st10"/>
		</g>
		<g id="shape89-48" transform="translate(132.536,-282.143)">
			<title>Sheet.89</title>
			<desc>GAP</desc>
			<path d="M35.37 419.27 L0 419.27 L0 428.96 L35.37 428.96 L35.37 419.27" class="st2"/>
			<text x="4.88" y="427.55" class="st11">GAP</text>		</g>
		<g id="shape84-52" transform="translate(113.404,-224.587)">
			<title>Sheet.84</title>
			<path d="M73.64 380.78 L0 380.78 L0 428.96 L73.64 428.96 L73.64 380.78 Z" class="st10"/>
		</g>
		<g id="shape85-54" transform="translate(137.499,-243.478)">
			<title>Sheet.85</title>
			<desc>SM</desc>
			<path d="M25.16 418.56 L0 418.56 L0 428.96 L25.16 428.96 L25.16 418.56" class="st2"/>
			<text x="3.97" y="427.19" class="st11">SM</text>		</g>
		<g id="group187-58" transform="translate(220.416,-210.718)">
			<title>Sheet.187</title>
			<desc>Secure boot</desc>
			<g id="shape188-59" transform="translate(2.44604E-12,-2.16822)">
				<title>Sheet.188</title>
				<rect x="0" y="409.469" width="241.551" height="19.4959" class="st6"/>
			</g>
			<g id="shape187-61">
				<text x="69.84" y="421.13" class="st12">Zephyr integration</text>			</g>
		</g>
		<g id="shape100-63" transform="translate(220.496,-186.624)">
			<title>Sheet.100</title>
			<path d="M241.55 407.3 L0 407.3 L0 428.96 L241.55 428.96 L241.55 407.3 Z" class="st6"/>
		</g>
		<g id="shape102-65" transform="translate(220.416,-185.64)">
			<title>Sheet.102</title>
			<desc>nRF IEEE 802.15.4 radio driver</desc>
			<path d="M253.88 406.32 L0 406.32 L0 428.96 L253.88 428.96 L253.88 406.32" class="st2"/>
			<text x="52.6" y="420.64" class="st12">nRF IEEE 802.15.4 radio driver</text>		</g>
		<g id="shape191-69" transform="translate(252.107,-242.87)">
			<title>Sheet.191</title>
			<path d="M192.33 405.87 L0 405.87 L0 428.96 L192.33 428.96 L192.33 405.87 Z" class="st8"/>
		</g>
		<g id="shape192-71" transform="translate(299.915,-248.478)">
			<title>Sheet.192</title>
			<desc>IEEE 802.15.4 MAC</desc>
			<path d="M96.71 417.08 L0 417.08 L0 428.96 L96.71 428.96 L96.71 417.08" class="st2"/>
			<text x="4.99" y="425.83" class="st13">IEEE 802.15.4 MAC</text>		</g>
		<g id="shape193-75" transform="translate(252.107,-293.894)">
			<title>Sheet.193</title>
			<path d="M192.33 405.87 L0 405.87 L0 428.96 L192.33 428.96 L192.33 405.87 Z" class="st8"/>
		</g>
		<g id="shape194-77" transform="translate(251.901,-293.894)">
			<title>Sheet.194</title>
			<desc>Zigbee App Layer (ZCL)</desc>
			<path d="M192.33 405.87 L0 405.87 L0 428.96 L192.33 428.96 L192.33 405.87" class="st2"/>
			<text x="39.61" y="420.22" class="st13">Zigbee App Layer (ZCL)</text>		</g>
		<g id="shape195-81" transform="translate(252.107,-268.382)">
			<title>Sheet.195</title>
			<path d="M192.33 405.87 L0 405.87 L0 428.96 L192.33 428.96 L192.33 405.87 Z" class="st8"/>
		</g>
		<g id="shape196-83" transform="translate(252.107,-268.382)">
			<title>Sheet.196</title>
			<desc>Zigbee PRO + Green Power</desc>
			<path d="M192.33 405.87 L0 405.87 L0 428.96 L192.33 428.96 L192.33 405.87" class="st2"/>
			<text x="32.58" y="420.22" class="st13">Zigbee PRO + Green Power</text>		</g>
		<g id="shape197-87" transform="translate(18,-19.2462)">
			<title>Sheet.197</title>
			<path d="M451.7 320.68 L0 320.68 L0 428.96 L451.7 428.96 L451.7 320.68 Z" class="st1"/>
		</g>
		<g id="shape201-89" transform="translate(23.2157,-80.8055)">
			<title>Sheet.201</title>
			<path d="M0 389.04 L0 428.96 L224.29 428.96 L224.29 389.04 L0 389.04 L0 389.04 Z" class="st6"/>
		</g>
		<g id="shape118-91" transform="translate(28.6724,-86.4675)">
			<title>Sheet.118</title>
			<desc>nRF Bluetooth LE Controller</desc>
			<rect x="0" y="400.368" width="212.598" height="28.5969" class="st8"/>
			<text x="22.57" y="418.27" class="st9">nRF Bluetooth LE Controller</text>		</g>
		<g id="shape108-94" transform="translate(23.0032,-47.7343)">
			<title>Sheet.108</title>
			<rect x="0" y="402.036" width="441.879" height="26.9293" class="st6"/>
		</g>
		<g id="shape107-96" transform="translate(23.0032,-47.7343)">
			<title>Sheet.107</title>
			<desc>Secure boot</desc>
			<text x="153.19" y="412.5" class="st12">Multiprotocol Service Layer <tspan x="202.69" dy="1.2em" class="st14">(MPSL)</tspan></text>		</g>
		<g id="shape205-99" transform="translate(109.001,-115.064)">
			<title>Dynamic connector</title>
			<desc>OpenAMP (HCI)</desc>
			<path d="M7.09 418.76 L7.09 418.4 L7.09 341.34" class="st15"/>
			<rect x="13.2571" y="392.429" width="95.6407" height="14.4001" class="st17"/>
			<text x="13.26" y="403.23" class="st18">OpenAMP (HCI)</text>		</g>
		<g id="shape206-110" transform="translate(350.065,-186.624)">
			<title>Dynamic connector.206</title>
			<desc>OpenAMP (Spinel)</desc>
			<path d="M7.09 439.16 L7.09 439.52 L7.09 484.3" class="st15"/>
			<rect x="-109.411" y="463.988" width="110.257" height="14.4001" class="st17"/>
			<text x="-109.41" y="474.79" class="st18">OpenAMP (Spinel)</text>		</g>
		<g id="shape208-119" transform="translate(18,-18)">
			<title>Sheet.208</title>
			<desc>nRF53 network core</desc>
			<path d="M451.7 401.24 L0 401.24 L0 428.96 L451.7 428.96 L451.7 401.24" class="st2"/>
			<text x="135.31" y="420.5" class="st3">nRF53 network core</text>		</g>
		<g id="group213-123" transform="translate(252.255,-80.8055)">
			<title>Sheet.213</title>
			<g id="shape198-124">
				<title>Sheet.198</title>
				<path d="M212.26 389.04 L0 389.04 L0 428.96 L212.26 428.96 L212.26 389.04 Z" class="st6"/>
			</g>
			<g id="shape199-126" transform="translate(6.02254,-7.40578)">
				<title>Sheet.199</title>
				<desc>IEEE 802.15.4 PHY</desc>
				<path d="M199.62 410.62 L0 410.62 L0 428.96 L199.62 428.96 L199.62 410.62 Z" class="st8"/>
				<text x="59.21" y="423.39" class="st19">IEEE 802.15.4 PHY</text>			</g>
			<g id="shape203-129" transform="translate(0.335362,-25.7479)">
				<title>Sheet.203</title>
				<desc>nRF IEEE 802.15.4 radio driver</desc>
				<path d="M212.26 414.79 L0 414.79 L0 428.96 L212.26 428.96 L212.26 414.79" class="st2"/>
				<text x="46.66" y="424.28" class="st20">nRF IEEE 802.15.4 radio driver</text>			</g>
		</g>
	</g>
</svg>
