<?xml version="1.0" encoding="UTF-8" standalone="no"?>
<!DOCTYPE svg PUBLIC "-//W3C//DTD SVG 1.1//EN" "http://www.w3.org/Graphics/SVG/1.1/DTD/svg11.dtd">
<!-- Generated by Microsoft Visio, SVG Export zigbee_platform_design_soc.svg Page-1 -->
<svg xmlns="http://www.w3.org/2000/svg" xmlns:xlink="http://www.w3.org/1999/xlink" xmlns:ev="http://www.w3.org/2001/xml-events"
		xmlns:v="http://schemas.microsoft.com/visio/2003/SVGExtensions/" width="4.24016in" height="5.03318in"
		viewBox="0 0 305.291 362.389" xml:space="preserve" color-interpolation-filters="sRGB" class="st14">
	<v:documentProperties v:langID="1033" v:metric="true" v:viewMarkup="false">
		<v:userDefs>
			<v:ud v:nameU="msvNoAutoConnect" v:val="VT0(1):26"/>
		</v:userDefs>
	</v:documentProperties>

	<style type="text/css">
	<![CDATA[
		.st1 {fill:#0077c8;fill-opacity:0.58;stroke:none;stroke-linecap:round;stroke-linejoin:round;stroke-width:0.75}
		.st2 {stroke:none;stroke-linecap:round;stroke-linejoin:round;stroke-width:0.75}
		.st3 {fill:#ffffff;font-family:Gotham Light;font-size:1.81764em}
		.st4 {fill:#0033a0;stroke:none;stroke-width:1}
		.st5 {fill:#ffffff;font-family:Gotham Light;font-size:1.12521em}
		.st6 {fill:#6ad1e3;stroke:none;stroke-width:1}
		.st7 {fill:#ffffff;font-family:Gotham Light;font-size:1.29833em}
		.st8 {fill:#00a9ce;stroke:#feffff;stroke-width:1}
		.st9 {fill:#ffffff;font-family:Gotham Light;font-size:0.778999em}
		.st10 {fill:#ffffff;font-family:Gotham Light;font-size:0.666664em}
		.st11 {font-size:1em}
		.st12 {fill:#ffffff;font-family:Gotham Light;font-size:0.75em}
		.st13 {fill:#ffffff;font-family:Gotham Light;font-size:0.833336em}
		.st14 {fill:none;fill-rule:evenodd;font-size:12px;overflow:visible;stroke-linecap:square;stroke-miterlimit:3}
	]]>
	</style>

	<g v:mID="0" v:index="1" v:groupContext="foregroundPage">
		<title>Page-1</title>
		<v:pageProperties v:drawingScale="0.0393701" v:pageScale="0.0393701" v:drawingUnits="24" v:shadowOffsetX="8.50394"
				v:shadowOffsetY="-8.50394"/>
		<v:layer v:name="Connector" v:index="0"/>
		<g id="shape55-1" v:mID="55" v:groupContext="shape" transform="translate(18,-18)">
			<title>Sheet.55</title>
			<path d="M269.29 36 L0 36 L0 362.39 L269.29 362.39 L269.29 36 Z" class="st1"/>
		</g>
		<g id="shape56-3" v:mID="56" v:groupContext="shape" transform="translate(174.012,-31.4592)">
			<title>Sheet.56</title>
			<desc>nRF SoC</desc>
			<v:textBlock v:margins="rect(0,0,0,0)" v:tabSpace="42.5197"/>
			<v:textRect cx="52.7598" cy="350.84" width="105.52" height="23.0975"/>
			<path d="M105.52 339.29 L0 339.29 L0 362.39 L105.52 362.39 L105.52 339.29" class="st2"/>
			<text x="5.7" y="357.38" class="st3" v:langID="1033"><v:paragraph v:horizAlign="1"/><v:tabList/>nRF SoC</text>		</g>
		<g id="shape59-7" v:mID="59" v:groupContext="shape" transform="translate(25.0866,-290.53)">
			<title>Sheet.59</title>
			<path d="M0 313.99 L0 362.39 L255.12 362.39 L255.12 313.99 L0 313.99 L0 313.99 Z" class="st4"/>
		</g>
		<g id="shape60-9" v:mID="60" v:groupContext="shape" transform="translate(25.8896,-306.147)">
			<title>Sheet.60</title>
			<desc>Application</desc>
			<v:textBlock v:margins="rect(0,0,0,0)" v:tabSpace="42.5197"/>
			<v:textRect cx="126.938" cy="353.808" width="253.88" height="17.1619"/>
			<path d="M253.88 345.23 L0 345.23 L0 362.39 L253.88 362.39 L253.88 345.23" class="st2"/>
			<text x="88.76" y="357.86" class="st5" v:langID="1033"><v:paragraph v:horizAlign="1"/><v:tabList/>Application</text>		</g>
		<g id="shape67-13" v:mID="67" v:groupContext="shape" transform="translate(25.0866,-145.559)">
			<title>Sheet.67</title>
			<path d="M0 251.2 L0 362.39 L255.12 362.39 L255.12 251.2 L0 251.2 L0 251.2 Z" class="st6"/>
		</g>
		<g id="shape71-15" v:mID="71" v:groupContext="shape" transform="translate(40.3773,-230.826)">
			<title>Sheet.71</title>
			<desc>Zigbee stack (ZBOSS)</desc>
			<v:textBlock v:margins="rect(0,0,0,0)" v:tabSpace="42.5197"/>
			<v:textRect cx="115.395" cy="352.488" width="230.79" height="19.8018"/>
			<path d="M230.79 342.59 L0 342.59 L0 362.39 L230.79 362.39 L230.79 342.59" class="st2"/>
			<text x="29.49" y="357.16" class="st7" v:langID="1033"><v:paragraph v:horizAlign="1"/><v:tabList/>Zigbee stack (ZBOSS)</text>		</g>
		<g id="shape72-19" v:mID="72" v:groupContext="shape" transform="translate(58.4577,-155.27)">
			<title>Sheet.72</title>
			<path d="M192.33 339.29 L0 339.29 L0 362.39 L192.33 362.39 L192.33 339.29 Z" class="st8"/>
		</g>
		<g id="shape73-21" v:mID="73" v:groupContext="shape" transform="translate(106.266,-160.878)">
			<title>Sheet.73</title>
			<desc>IEEE 802.15.4 MAC</desc>
			<v:textBlock v:margins="rect(0,0,0,0)" v:tabSpace="42.5197"/>
			<v:textRect cx="48.3574" cy="356.447" width="96.72" height="11.8826"/>
			<path d="M96.71 350.51 L0 350.51 L0 362.39 L96.71 362.39 L96.71 350.51" class="st2"/>
			<text x="4.99" y="359.25" class="st9" v:langID="1033"><v:paragraph v:horizAlign="1"/><v:tabList/>IEEE 802.15.4 MAC</text>		</g>
		<g id="shape76-25" v:mID="76" v:groupContext="shape" transform="translate(58.4577,-206.294)">
			<title>Sheet.76</title>
			<path d="M192.33 339.29 L0 339.29 L0 362.39 L192.33 362.39 L192.33 339.29 Z" class="st8"/>
		</g>
		<g id="shape77-27" v:mID="77" v:groupContext="shape" transform="translate(58.2519,-206.294)">
			<title>Sheet.77</title>
			<desc>Zigbee App Layer (ZCL)</desc>
			<v:textBlock v:margins="rect(0,0,0,0)" v:tabSpace="42.5197"/>
			<v:textRect cx="96.1654" cy="350.84" width="192.34" height="23.0975"/>
			<path d="M192.33 339.29 L0 339.29 L0 362.39 L192.33 362.39 L192.33 339.29" class="st2"/>
			<text x="39.61" y="353.64" class="st9" v:langID="1033"><v:paragraph v:horizAlign="1"/><v:tabList/>Zigbee App Layer (ZCL)</text>		</g>
		<g id="shape90-31" v:mID="90" v:groupContext="shape" transform="translate(58.4577,-180.782)">
			<title>Sheet.90</title>
			<path d="M192.33 339.29 L0 339.29 L0 362.39 L192.33 362.39 L192.33 339.29 Z" class="st8"/>
		</g>
		<g id="shape91-33" v:mID="91" v:groupContext="shape" transform="translate(58.4577,-180.782)">
			<title>Sheet.91</title>
			<desc>Zigbee PRO + Green Power</desc>
			<v:textBlock v:margins="rect(0,0,0,0)" v:tabSpace="42.5197"/>
			<v:textRect cx="96.1654" cy="350.84" width="192.34" height="23.0975"/>
			<path d="M192.33 339.29 L0 339.29 L0 362.39 L192.33 362.39 L192.33 339.29" class="st2"/>
			<text x="32.58" y="353.64" class="st9" v:langID="1033"><v:paragraph v:horizAlign="1"/><v:tabList/>Zigbee PRO + Green Power</text>		</g>
		<g id="shape100-37" v:mID="100" v:groupContext="shape" transform="translate(109.134,-63.3543)">
			<title>Sheet.100</title>
			<path d="M171.21 314.2 L0 314.2 L0 362.39 L171.21 362.39 L171.21 314.2 Z" class="st6"/>
		</g>
		<g id="shape102-39" v:mID="102" v:groupContext="shape" transform="translate(109.134,-95.5064)">
			<title>Sheet.102</title>
			<desc>nRF IEEE 802.15.4 radio driver</desc>
			<v:textBlock v:margins="rect(0,0,0,0)" v:tabSpace="42.5197"/>
			<v:textRect cx="85.6063" cy="355.788" width="171.22" height="13.2023"/>
			<path d="M171.21 349.19 L0 349.19 L0 362.39 L171.21 362.39 L171.21 349.19" class="st2"/>
			<text x="50.13" y="353.39" class="st10" v:langID="1033"><v:paragraph v:horizAlign="1"/><v:tabList/>nRF IEEE 802.15.4<v:newlineChar/><tspan
						x="62.81" dy="1.2em" class="st11">radio driver</tspan></text>		</g>
		<g id="shape103-44" v:mID="103" v:groupContext="shape" transform="translate(115.792,-68.8134)">
			<title>Sheet.103</title>
			<path d="M156.18 339.29 L0 339.29 L0 362.39 L156.18 362.39 L156.18 339.29 Z" class="st8"/>
		</g>
		<g id="shape104-46" v:mID="104" v:groupContext="shape" transform="translate(115.792,-73.1011)">
			<title>Sheet.104</title>
			<desc>IEEE 802.15.4 PHY</desc>
			<v:textBlock v:margins="rect(0,0,0,0)" v:tabSpace="42.5197"/>
			<v:textRect cx="78.092" cy="355.128" width="156.19" height="14.5223"/>
			<path d="M156.18 347.87 L0 347.87 L0 362.39 L156.18 362.39 L156.18 347.87" class="st2"/>
			<text x="37.49" y="357.83" class="st12" v:langID="1033"><v:paragraph v:horizAlign="1"/><v:tabList/>IEEE 802.15.4 PHY</text>		</g>
		<g id="group107-50" transform="translate(24.9102,-28.509)" v:mID="107" v:groupContext="group">
			<v:userDefs/>
			<title>Sheet.107</title>
			<desc>Secure boot</desc>
			<g id="shape108-51" v:mID="108" v:groupContext="shape">
				<title>Sheet.108</title>
				<rect x="0" y="333.391" width="130.159" height="28.9978" class="st6"/>
			</g>
			<g id="shape107-53" v:mID="107" v:groupContext="groupContent">
				<v:textBlock v:margins="rect(0,0,0,0)" v:tabSpace="42.5197"/>
				<v:textRect cx="66.2063" cy="347.89" width="132.42" height="28.9978"/>
				<text x="13.76" y="344.89" class="st13" v:langID="1033"><v:paragraph v:horizAlign="1"/><v:tabList/>Multiprotocol Service <tspan
							x="32.66" dy="1.2em" class="st11">Layer (MPSL)</tspan></text>			</g>
		</g>
		<g id="shape185-56" v:mID="185" v:groupContext="shape" transform="translate(25.0866,-262.184)">
			<title>Sheet.185</title>
			<path d="M0 339.71 L0 362.39 L255.12 362.39 L255.12 339.71 L0 339.71 L0 339.71 Z" class="st6"/>
		</g>
		<g id="shape186-58" v:mID="186" v:groupContext="shape" transform="translate(25.2373,-269.635)">
			<title>Sheet.186</title>
			<desc>Zephyr integration</desc>
			<v:textBlock v:margins="rect(0,0,0,0)" v:tabSpace="42.5197"/>
			<v:textRect cx="126.938" cy="358.368" width="253.88" height="8.04183"/>
			<path d="M253.88 354.35 L0 354.35 L0 362.39 L253.88 362.39 L253.88 354.35" class="st2"/>
			<text x="64.73" y="362.42" class="st5" v:langID="1033"><v:paragraph v:horizAlign="1"/><v:tabList/>Zephyr integration</text>		</g>
		<g id="group187-62" transform="translate(109.134,-117.213)" v:mID="187" v:groupContext="group">
			<v:userDefs/>
			<title>Sheet.187</title>
			<desc>Secure boot</desc>
			<g id="shape188-63" v:mID="188" v:groupContext="shape">
				<title>Sheet.188</title>
				<rect x="0" y="339.711" width="171.071" height="22.6772" class="st6"/>
			</g>
			<g id="shape187-65" v:mID="187" v:groupContext="groupContent">
				<v:textBlock v:margins="rect(0,0,0,0)" v:tabSpace="42.5197"/>
				<v:textRect cx="82.0943" cy="351.05" width="165.55" height="22.6772"/>
				<text x="36.02" y="354.05" class="st13" v:langID="1033"><v:paragraph v:horizAlign="1"/><v:tabList/>Zephyr integration</text>			</g>
		</g>
	</g>
</svg>
