<?xml version="1.0" encoding="UTF-8" standalone="no"?>
<!DOCTYPE svg PUBLIC "-//W3C//DTD SVG 1.1//EN" "http://www.w3.org/Graphics/SVG/1.1/DTD/svg11.dtd">
<!-- Generated by Microsoft Visio, SVG Export zigbee_platform_design_multi.svg Page-1 -->
<svg xmlns="http://www.w3.org/2000/svg" xmlns:xlink="http://www.w3.org/1999/xlink" xmlns:ev="http://www.w3.org/2001/xml-events"
		xmlns:v="http://schemas.microsoft.com/visio/2003/SVGExtensions/" width="6.93819in" height="5.50456in"
		viewBox="0 0 499.55 396.328" xml:space="preserve" color-interpolation-filters="sRGB" class="st18">
	<v:documentProperties v:langID="1033" v:metric="true" v:viewMarkup="false">
		<v:userDefs>
			<v:ud v:nameU="msvNoAutoConnect" v:val="VT0(1):26"/>
		</v:userDefs>
	</v:documentProperties>

	<style type="text/css">
	<![CDATA[
		.st1 {fill:#0077c8;fill-opacity:0.58;stroke:none;stroke-linecap:round;stroke-linejoin:round;stroke-width:0.75}
		.st2 {stroke:none;stroke-linecap:round;stroke-linejoin:round;stroke-width:0.75}
		.st3 {fill:#ffffff;font-family:Gotham Light;font-size:1.81764em}
		.st4 {fill:#0033a0;stroke:none;stroke-width:1}
		.st5 {fill:#ffffff;font-family:Gotham Light;font-size:1.12521em}
		.st6 {fill:#6ad1e3;stroke:none;stroke-width:1}
		.st7 {fill:#ffffff;font-family:Gotham Light;font-size:1.29833em}
		.st8 {fill:#00a9ce;stroke:#feffff;stroke-width:1}
		.st9 {fill:#ffffff;font-family:Gotham Light;font-size:1.00001em}
		.st10 {fill:#ffffff;font-family:Gotham Light;font-size:0.833336em}
		.st11 {font-size:1em}
		.st12 {fill:#a4e6ff;fill-opacity:0.55;stroke:none;stroke-linecap:round;stroke-linejoin:round;stroke-width:0.75}
		.st13 {fill:#ffffff;font-family:Gotham Light;font-size:0.952103em}
		.st14 {fill:#0075c8;stroke:#0075c8;stroke-linecap:round;stroke-linejoin:round;stroke-width:0.064891}
		.st15 {fill:#ffffff;font-family:Gotham Light;font-size:0.778999em}
		.st16 {fill:#ffffff;font-family:Gotham Light;font-size:0.666664em}
		.st17 {fill:#ffffff;font-family:Gotham Light;font-size:0.75em}
		.st18 {fill:none;fill-rule:evenodd;font-size:12px;overflow:visible;stroke-linecap:square;stroke-miterlimit:3}
	]]>
	</style>

	<g v:mID="0" v:index="1" v:groupContext="foregroundPage">
		<title>Page-1</title>
		<v:pageProperties v:drawingScale="0.0393701" v:pageScale="0.0393701" v:drawingUnits="24" v:shadowOffsetX="8.50394"
				v:shadowOffsetY="-8.50394"/>
		<v:layer v:name="Connector" v:index="0"/>
		<g id="shape55-1" v:mID="55" v:groupContext="shape" transform="translate(18,-18)">
			<title>Sheet.55</title>
			<path d="M463.55 36 L0 36 L0 396.33 L463.55 396.33 L463.55 36 Z" class="st1"/>
		</g>
		<g id="shape56-3" v:mID="56" v:groupContext="shape" transform="translate(360,-20.864)">
			<title>Sheet.56</title>
			<desc>nRF SoC</desc>
			<v:textBlock v:margins="rect(0,0,0,0)" v:tabSpace="42.5197"/>
			<v:textRect cx="60.7748" cy="382.468" width="121.55" height="27.7207"/>
			<path d="M121.55 368.61 L0 368.61 L0 396.33 L121.55 396.33 L121.55 368.61" class="st2"/>
			<text x="13.72" y="389.01" class="st3" v:langID="1033"><v:paragraph v:horizAlign="1"/><v:tabList/>nRF SoC</text>		</g>
		<g id="shape59-7" v:mID="59" v:groupContext="shape" transform="translate(22.3443,-327.337)">
			<title>Sheet.59</title>
			<path d="M0 347.93 L0 396.33 L451.55 396.33 L451.55 347.93 L0 347.93 L0 347.93 Z" class="st4"/>
		</g>
		<g id="shape60-9" v:mID="60" v:groupContext="shape" transform="translate(199.724,-342.954)">
			<title>Sheet.60</title>
			<desc>Application</desc>
			<v:textBlock v:margins="rect(0,0,0,0)" v:tabSpace="42.5197"/>
			<v:textRect cx="48.945" cy="387.747" width="97.9" height="17.1619"/>
			<path d="M97.89 379.17 L0 379.17 L0 396.33 L97.89 396.33 L97.89 379.17" class="st2"/>
			<text x="10.77" y="391.8" class="st5" v:langID="1033"><v:paragraph v:horizAlign="1"/><v:tabList/>Application</text>		</g>
		<g id="shape61-13" v:mID="61" v:groupContext="shape" transform="translate(22.3443,-53.8583)">
			<title>Sheet.61</title>
			<path d="M0 160.82 L0 396.33 L192.33 396.33 L192.33 160.82 L0 160.82 L0 160.82 Z" class="st6"/>
		</g>
		<g id="shape62-15" v:mID="62" v:groupContext="shape" transform="translate(62.5259,-262.387)">
			<title>Sheet.62</title>
			<desc>BLE stack</desc>
			<v:textBlock v:margins="rect(0,0,0,0)" v:tabSpace="42.5197"/>
			<v:textRect cx="52.7389" cy="386.427" width="105.48" height="19.8018"/>
			<path d="M105.48 376.53 L0 376.53 L0 396.33 L105.48 396.33 L105.48 376.53" class="st2"/>
			<text x="14.51" y="391.1" class="st7" v:langID="1033"><v:paragraph v:horizAlign="1"/><v:tabList/>BLE stack</text>		</g>
		<g id="shape67-19" v:mID="67" v:groupContext="shape" transform="translate(220.17,-121.89)">
			<title>Sheet.67</title>
			<path d="M0 228.85 L0 396.33 L253.88 396.33 L253.88 228.85 L0 228.85 L0 228.85 Z" class="st6"/>
		</g>
		<g id="shape71-21" v:mID="71" v:groupContext="shape" transform="translate(235.061,-263.622)">
			<title>Sheet.71</title>
			<desc>Zigbee stack (ZBOSS)</desc>
			<v:textBlock v:margins="rect(0,0,0,0)" v:tabSpace="42.5197"/>
			<v:textRect cx="115.395" cy="386.427" width="230.79" height="19.8018"/>
			<path d="M230.79 376.53 L0 376.53 L0 396.33 L230.79 396.33 L230.79 376.53" class="st2"/>
			<text x="29.49" y="391.1" class="st7" v:langID="1033"><v:paragraph v:horizAlign="1"/><v:tabList/>Zigbee stack (ZBOSS)</text>		</g>
		<g id="shape117-25" v:mID="117" v:groupContext="shape" transform="translate(35.9665,-154.63)">
			<title>Sheet.117</title>
			<desc>Zephyr host</desc>
			<v:textBlock v:margins="rect(0,0,0,0)" v:tabSpace="42.5197" v:verticalAlign="0"/>
			<v:textRect cx="79.7955" cy="343.32" width="159.6" height="106.016"/>
			<rect x="0" y="290.312" width="159.591" height="106.016" class="st8"/>
			<text x="43.9" y="301.11" class="st9" v:langID="1033"><v:paragraph v:horizAlign="1"/><v:tabList/>Zephyr host</text>		</g>
		<g id="group107-28" transform="translate(178.668,-21.2597)" v:mID="107" v:groupContext="group">
			<v:userDefs/>
			<title>Sheet.107</title>
			<desc>Secure boot</desc>
			<g id="shape108-29" v:mID="108" v:groupContext="shape">
				<title>Sheet.108</title>
				<rect x="0" y="369.399" width="154.623" height="26.9293" class="st6"/>
			</g>
			<g id="shape107-31" v:mID="107" v:groupContext="groupContent">
				<v:textBlock v:margins="rect(0,0,0,0)" v:tabSpace="42.5197"/>
				<v:textRect cx="78.6505" cy="382.864" width="157.31" height="26.9293"/>
				<text x="10.9" y="379.86" class="st10" v:langID="1033"><v:paragraph v:horizAlign="1"/><v:tabList/>Multiprotocol Service Layer<v:newlineChar/><tspan
							x="60.4" dy="1.2em" class="st11">(MPSL)</tspan></text>			</g>
		</g>
		<g id="shape118-34" v:mID="118" v:groupContext="shape" transform="translate(35.6593,-73.4503)">
			<title>Sheet.118</title>
			<desc>nRF Bluetooth LE Controller</desc>
			<v:textBlock v:margins="rect(0,0,0,0)" v:tabSpace="42.5197"/>
			<v:textRect cx="79.7955" cy="382.03" width="159.6" height="28.5969"/>
			<rect x="0" y="367.731" width="159.591" height="28.5969" class="st8"/>
			<text x="27.37" y="378.43" class="st9" v:langID="1033"><v:paragraph v:horizAlign="1"/><v:tabList/>nRF Bluetooth LE <tspan
						x="50.29" dy="1.2em" class="st11">Controller</tspan></text>		</g>
		<g id="shape82-38" v:mID="82" v:groupContext="shape" transform="translate(43.7738,-165.969)">
			<title>Sheet.82</title>
			<path d="M66.44 373.61 L0 373.61 L0 396.33 L66.44 396.33 L66.44 373.61 Z" class="st12"/>
		</g>
		<g id="shape83-40" v:mID="83" v:groupContext="shape" transform="translate(50.4186,-172.489)">
			<title>Sheet.83</title>
			<desc>L2CAP</desc>
			<v:textBlock v:margins="rect(0,0,0,0)" v:tabSpace="42.5197"/>
			<v:textRect cx="25.7767" cy="391.49" width="51.56" height="9.67578"/>
			<path d="M51.55 386.65 L0 386.65 L0 396.33 L51.55 396.33 L51.55 386.65" class="st2"/>
			<text x="6.33" y="394.92" class="st13" v:langID="1033"><v:paragraph v:horizAlign="1"/><v:tabList/>L2CAP</text>		</g>
		<g id="shape78-44" v:mID="78" v:groupContext="shape" transform="translate(43.7738,-216.992)">
			<title>Sheet.78</title>
			<path d="M66.44 373.65 L0 373.65 L0 396.33 L66.44 396.33 L66.44 373.65 Z" class="st12"/>
		</g>
		<g id="shape79-46" v:mID="79" v:groupContext="shape" transform="translate(54.2792,-223.501)">
			<title>Sheet.79</title>
			<desc>GATT</desc>
			<v:textBlock v:margins="rect(0,0,0,0)" v:tabSpace="42.5197"/>
			<v:textRect cx="21.916" cy="391.499" width="43.84" height="9.65862"/>
			<path d="M43.83 386.67 L0 386.67 L0 396.33 L43.83 396.33 L43.83 386.67" class="st2"/>
			<text x="5.63" y="394.93" class="st13" v:langID="1033"><v:paragraph v:horizAlign="1"/><v:tabList/>GATT</text>		</g>
		<g id="shape80-50" v:mID="80" v:groupContext="shape" transform="translate(43.7738,-191.206)">
			<title>Sheet.80</title>
			<path d="M66.44 373.65 L0 373.65 L0 396.33 L66.44 396.33 L66.44 373.65 Z" class="st12"/>
		</g>
		<g id="shape81-52" v:mID="81" v:groupContext="shape" transform="translate(59.9103,-197.382)">
			<title>Sheet.81</title>
			<desc>ATT</desc>
			<v:textBlock v:margins="rect(0,0,0,0)" v:tabSpace="42.5197"/>
			<v:textRect cx="16.4619" cy="391.166" width="32.93" height="10.3247"/>
			<path d="M32.92 386 L0 386 L0 396.33 L32.92 396.33 L32.92 386" class="st2"/>
			<text x="4.66" y="394.59" class="st13" v:langID="1033"><v:paragraph v:horizAlign="1"/><v:tabList/>ATT</text>		</g>
		<g id="shape88-56" v:mID="88" v:groupContext="shape" transform="translate(113.078,-216.992)">
			<title>Sheet.88</title>
			<path d="M73.64 373.57 L0 373.57 L0 396.33 L73.64 396.33 L73.64 373.57 Z" class="st12"/>
		</g>
		<g id="shape89-58" v:mID="89" v:groupContext="shape" transform="translate(132.21,-223.525)">
			<title>Sheet.89</title>
			<desc>GAP</desc>
			<v:textBlock v:margins="rect(0,0,0,0)" v:tabSpace="42.5197"/>
			<v:textRect cx="17.6861" cy="391.482" width="35.38" height="9.69294"/>
			<path d="M35.37 386.64 L0 386.64 L0 396.33 L35.37 396.33 L35.37 386.64" class="st2"/>
			<text x="4.88" y="394.91" class="st13" v:langID="1033"><v:paragraph v:horizAlign="1"/><v:tabList/>GAP</text>		</g>
		<g id="shape84-62" v:mID="84" v:groupContext="shape" transform="translate(113.078,-165.969)">
			<title>Sheet.84</title>
			<path d="M73.64 348.14 L0 348.14 L0 396.33 L73.64 396.33 L73.64 348.14 Z" class="st12"/>
		</g>
		<g id="shape85-64" v:mID="85" v:groupContext="shape" transform="translate(137.173,-184.859)">
			<title>Sheet.85</title>
			<desc>SM</desc>
			<v:textBlock v:margins="rect(0,0,0,0)" v:tabSpace="42.5197"/>
			<v:textRect cx="12.58" cy="391.124" width="25.16" height="10.4076"/>
			<path d="M25.16 385.92 L0 385.92 L0 396.33 L25.16 396.33 L25.16 385.92" class="st2"/>
			<text x="3.97" y="394.55" class="st13" v:langID="1033"><v:paragraph v:horizAlign="1"/><v:tabList/>SM</text>		</g>
		<g id="shape119-68" v:mID="119" v:groupContext="shape" transform="translate(507.384,243.399) rotate(90)">
			<title>Sheet.119</title>
			<path d="M4.6 391.38 L43.63 391.38 L43.63 392.48 L4.6 392.48 L4.6 391.38 L4.6 391.38 ZM5.5 396.33 L0 391.93 L5.5 387.53
						 L5.5 396.33 L5.5 396.33 ZM42.69 387.53 L48.19 391.93 L42.69 396.33 L42.69 387.53 L42.69 387.53 Z"
					class="st14"/>
		</g>
		<g id="shape120-70" v:mID="120" v:groupContext="shape" transform="translate(116.641,-122.893)">
			<title>Sheet.120</title>
			<desc>HCI (RAM)</desc>
			<v:textBlock v:margins="rect(0,0,0,0)" v:tabSpace="42.5197"/>
			<v:textRect cx="27.9663" cy="390.387" width="55.94" height="11.8826"/>
			<path d="M55.93 384.45 L0 384.45 L0 396.33 L55.93 396.33 L55.93 384.45" class="st2"/>
			<text x="3.11" y="393.19" class="st15" v:langID="1033"><v:paragraph v:horizAlign="1"/><v:tabList/>HCI (RAM)</text>		</g>
		<g id="shape185-74" v:mID="185" v:groupContext="shape" transform="translate(22.337,-294.803)">
			<title>Sheet.185</title>
			<path d="M0 369.4 L0 396.33 L451.7 396.33 L451.7 369.4 L0 369.4 L0 369.4 Z" class="st6"/>
		</g>
		<g id="shape186-76" v:mID="186" v:groupContext="shape" transform="translate(22.3443,-303.493)">
			<title>Sheet.186</title>
			<desc>Zephyr integration</desc>
			<v:textBlock v:margins="rect(0,0,0,0)" v:tabSpace="42.5197"/>
			<v:textRect cx="225.851" cy="391.553" width="451.71" height="9.54967"/>
			<path d="M451.7 386.78 L0 386.78 L0 396.33 L451.7 396.33 L451.7 386.78" class="st2"/>
			<text x="163.64" y="395.6" class="st5" v:langID="1033"><v:paragraph v:horizAlign="1"/><v:tabList/>Zephyr integration</text>		</g>
		<g id="group187-80" transform="translate(302.967,-94.1712)" v:mID="187" v:groupContext="group">
			<v:userDefs/>
			<title>Sheet.187</title>
			<desc>Secure boot</desc>
			<g id="shape188-81" v:mID="188" v:groupContext="shape" transform="translate(1.74261E-12,-2.20677)">
				<title>Sheet.188</title>
				<rect x="0" y="376.486" width="171" height="19.8425" class="st6"/>
			</g>
			<g id="shape187-83" v:mID="187" v:groupContext="groupContent">
				<v:textBlock v:margins="rect(0,0,0,0)" v:tabSpace="42.5197"/>
				<v:textRect cx="82.0601" cy="385.304" width="165.48" height="22.0493"/>
				<text x="35.98" y="388.3" class="st10" v:langID="1033"><v:paragraph v:horizAlign="1"/><v:tabList/>Zephyr integration</text>			</g>
		</g>
		<g id="shape100-85" v:mID="100" v:groupContext="shape" transform="translate(302.967,-53.8583)">
			<title>Sheet.100</title>
			<path d="M171 359.48 L0 359.48 L0 396.33 L171 396.33 L171 359.48 Z" class="st6"/>
		</g>
		<g id="shape102-87" v:mID="102" v:groupContext="shape" transform="translate(302.967,-79.3908)">
			<title>Sheet.102</title>
			<desc>nRF IEEE 802.15.4 radio driver</desc>
			<v:textBlock v:margins="rect(0,0,0,0)" v:tabSpace="42.5197"/>
			<v:textRect cx="84.5418" cy="391.086" width="169.09" height="10.4842"/>
			<path d="M169.08 385.84 L0 385.84 L0 396.33 L169.08 396.33 L169.08 385.84" class="st2"/>
			<text x="25.07" y="393.49" class="st16" v:langID="1033"><v:paragraph v:horizAlign="1"/><v:tabList/>nRF IEEE 802.15.4 radio driver</text>		</g>
		<g id="shape103-91" v:mID="103" v:groupContext="shape" transform="translate(309.673,-58.1935)">
			<title>Sheet.103</title>
			<path d="M157.3 377.99 L0 377.99 L0 396.33 L157.3 396.33 L157.3 377.99 Z" class="st8"/>
		</g>
		<g id="shape104-93" v:mID="104" v:groupContext="shape" transform="translate(309.673,-61.5983)">
			<title>Sheet.104</title>
			<desc>IEEE 802.15.4 PHY</desc>
			<v:textBlock v:margins="rect(0,0,0,0)" v:tabSpace="42.5197"/>
			<v:textRect cx="78.6505" cy="390.562" width="157.31" height="11.5324"/>
			<path d="M157.3 384.8 L0 384.8 L0 396.33 L157.3 396.33 L157.3 384.8" class="st2"/>
			<text x="38.05" y="393.26" class="st17" v:langID="1033"><v:paragraph v:horizAlign="1"/><v:tabList/>IEEE 802.15.4 PHY</text>		</g>
		<g id="shape191-97" v:mID="191" v:groupContext="shape" transform="translate(251.781,-184.252)">
			<title>Sheet.191</title>
			<path d="M192.33 373.23 L0 373.23 L0 396.33 L192.33 396.33 L192.33 373.23 Z" class="st8"/>
		</g>
		<g id="shape192-99" v:mID="192" v:groupContext="shape" transform="translate(299.589,-189.859)">
			<title>Sheet.192</title>
			<desc>IEEE 802.15.4 MAC</desc>
			<v:textBlock v:margins="rect(0,0,0,0)" v:tabSpace="42.5197"/>
			<v:textRect cx="48.3574" cy="390.387" width="96.72" height="11.8826"/>
			<path d="M96.71 384.45 L0 384.45 L0 396.33 L96.71 396.33 L96.71 384.45" class="st2"/>
			<text x="4.99" y="393.19" class="st15" v:langID="1033"><v:paragraph v:horizAlign="1"/><v:tabList/>IEEE 802.15.4 MAC</text>		</g>
		<g id="shape193-103" v:mID="193" v:groupContext="shape" transform="translate(251.781,-235.276)">
			<title>Sheet.193</title>
			<path d="M192.33 373.23 L0 373.23 L0 396.33 L192.33 396.33 L192.33 373.23 Z" class="st8"/>
		</g>
		<g id="shape194-105" v:mID="194" v:groupContext="shape" transform="translate(251.575,-235.276)">
			<title>Sheet.194</title>
			<desc>Zigbee App Layer (ZCL)</desc>
			<v:textBlock v:margins="rect(0,0,0,0)" v:tabSpace="42.5197"/>
			<v:textRect cx="96.1654" cy="384.779" width="192.34" height="23.0975"/>
			<path d="M192.33 373.23 L0 373.23 L0 396.33 L192.33 396.33 L192.33 373.23" class="st2"/>
			<text x="39.61" y="387.58" class="st15" v:langID="1033"><v:paragraph v:horizAlign="1"/><v:tabList/>Zigbee App Layer (ZCL)</text>		</g>
		<g id="shape195-109" v:mID="195" v:groupContext="shape" transform="translate(251.781,-209.764)">
			<title>Sheet.195</title>
			<path d="M192.33 373.23 L0 373.23 L0 396.33 L192.33 396.33 L192.33 373.23 Z" class="st8"/>
		</g>
		<g id="shape196-111" v:mID="196" v:groupContext="shape" transform="translate(251.781,-209.764)">
			<title>Sheet.196</title>
			<desc>Zigbee PRO + Green Power</desc>
			<v:textBlock v:margins="rect(0,0,0,0)" v:tabSpace="42.5197"/>
			<v:textRect cx="96.1654" cy="384.779" width="192.34" height="23.0975"/>
			<path d="M192.33 373.23 L0 373.23 L0 396.33 L192.33 396.33 L192.33 373.23" class="st2"/>
			<text x="32.58" y="387.58" class="st15" v:langID="1033"><v:paragraph v:horizAlign="1"/><v:tabList/>Zigbee PRO + Green Power</text>		</g>
	</g>
</svg>
