<?xml version="1.0" encoding="UTF-8" standalone="no"?>
<!DOCTYPE svg PUBLIC "-//W3C//DTD SVG 1.1//EN" "http://www.w3.org/Graphics/SVG/1.1/DTD/svg11.dtd">
<!-- Generated by Microsoft Visio, SVG Export zigbee_platform_design_ncp.svg Page-1 -->
<svg xmlns="http://www.w3.org/2000/svg" xmlns:xlink="http://www.w3.org/1999/xlink" xmlns:ev="http://www.w3.org/2001/xml-events"
		xmlns:v="http://schemas.microsoft.com/visio/2003/SVGExtensions/" width="9.02953in" height="7.13386in"
		viewBox="0 0 650.126 513.638" xml:space="preserve" color-interpolation-filters="sRGB" class="st20">
	<v:documentProperties v:langID="1033" v:metric="true" v:viewMarkup="false">
		<v:userDefs>
			<v:ud v:nameU="msvNoAutoConnect" v:val="VT0(1):26"/>
		</v:userDefs>
	</v:documentProperties>

	<style type="text/css">
	<![CDATA[
		.st1 {fill:#0077c8;fill-opacity:0.58;stroke:none;stroke-linecap:round;stroke-linejoin:round;stroke-width:0.75}
		.st2 {fill:#ff0000;stroke:none;stroke-linecap:round;stroke-linejoin:round;stroke-width:0.75}
		.st3 {stroke:none;stroke-linecap:round;stroke-linejoin:round;stroke-width:0.75}
		.st4 {fill:#ffffff;font-family:Gotham Light;font-size:1.12521em}
		.st5 {fill:#0077c8;fill-opacity:0.52;stroke:none;stroke-linecap:round;stroke-linejoin:round;stroke-width:0.75}
		.st6 {fill:#ffffff;font-family:Gotham Light;font-size:1.64637em}
		.st7 {fill:#ffffff;font-family:Gotham Light;font-size:1.01919em}
		.st8 {fill:#6ad1e3;stroke:none;stroke-width:1}
		.st9 {fill:#0033a0;stroke:none;stroke-width:1}
		.st10 {fill:#0075c8;stroke:#0075c8;stroke-linecap:round;stroke-linejoin:round;stroke-width:0.0587766}
		.st11 {fill:#333f48;font-family:Gotham Light;font-size:1.25439em}
		.st12 {fill:#ffffff;font-family:Gotham Light;font-size:1.81764em}
		.st13 {fill:#ffffff;font-family:Gotham Light;font-size:1.29833em}
		.st14 {fill:#00a9ce;stroke:#feffff;stroke-width:1}
		.st15 {fill:#ffffff;font-family:Gotham Light;font-size:0.778999em}
		.st16 {fill:#ffffff;font-family:Gotham Light;font-size:0.833336em}
		.st17 {fill:#ffffff;font-family:Gotham Light;font-size:0.75em}
		.st18 {font-size:1em}
		.st19 {fill:#00a9ce;stroke:none;stroke-width:1}
		.st20 {fill:none;fill-rule:evenodd;font-size:12px;overflow:visible;stroke-linecap:square;stroke-miterlimit:3}
	]]>
	</style>

	<g v:mID="0" v:index="1" v:groupContext="foregroundPage">
		<title>Page-1</title>
		<v:pageProperties v:drawingScale="0.0393701" v:pageScale="0.0393701" v:drawingUnits="24" v:shadowOffsetX="8.50394"
				v:shadowOffsetY="-8.50394"/>
		<v:layer v:name="Connector" v:index="0"/>
		<g id="shape55-1" v:mID="55" v:groupContext="shape" transform="translate(18,-18)">
			<title>Sheet.55</title>
			<path d="M293.81 159.89 L0 159.89 L0 513.64 L293.81 513.64 L293.81 159.89 Z" class="st1"/>
		</g>
		<g id="shape59-3" v:mID="59" v:groupContext="shape" transform="translate(25.0866,-317.885)">
			<title>Sheet.59</title>
			<path d="M0 465.24 L0 513.64 L278.22 513.64 L278.22 465.24 L0 465.24 L0 465.24 Z" class="st2"/>
		</g>
		<g id="shape60-5" v:mID="60" v:groupContext="shape" transform="translate(25.8896,-333.501)">
			<title>Sheet.60</title>
			<desc>ZBOSS NCP protocol</desc>
			<v:textBlock v:margins="rect(0,0,0,0)" v:tabSpace="42.5197"/>
			<v:textRect cx="138.709" cy="505.057" width="277.42" height="17.1619"/>
			<path d="M277.42 496.48 L0 496.48 L0 513.64 L277.42 513.64 L277.42 496.48" class="st3"/>
			<text x="67.54" y="509.11" class="st4" v:langID="1033"><v:paragraph v:horizAlign="1"/><v:tabList/>ZBOSS NCP protocol</text>		</g>
		<g id="shape213-9" v:mID="213" v:groupContext="shape" transform="translate(435.378,-291.968)">
			<title>Sheet.213</title>
			<path d="M196.75 309.97 L0 309.97 L0 513.64 L196.75 513.64 L196.75 309.97 Z" class="st5"/>
		</g>
		<g id="shape214-11" v:mID="214" v:groupContext="shape" transform="translate(435.415,-298.212)">
			<title>Sheet.214</title>
			<desc>Host processor</desc>
			<v:textBlock v:margins="rect(0,0,0,0)" v:tabSpace="42.5197"/>
			<v:textRect cx="94.1036" cy="501.782" width="188.21" height="23.7113"/>
			<path d="M188.21 489.93 L0 489.93 L0 513.64 L188.21 513.64 L188.21 489.93" class="st3"/>
			<text x="20.15" y="507.71" class="st6" v:langID="1033"><v:paragraph v:horizAlign="1"/><v:tabList/>Host processor</text>		</g>
		<g id="shape215-15" v:mID="215" v:groupContext="shape" transform="translate(442.63,-325.559)">
			<title>Sheet.215</title>
			<path d="M0 476.95 L0 513.64 L182.69 513.64 L182.69 476.95 L0 476.95 L0 476.95 Z" class="st2"/>
		</g>
		<g id="shape216-17" v:mID="216" v:groupContext="shape" transform="translate(442.63,-325.559)">
			<title>Sheet.216</title>
			<desc>ZBOSS NCP protocol</desc>
			<v:textBlock v:margins="rect(0,0,0,0)" v:tabSpace="42.5197"/>
			<v:textRect cx="91.3465" cy="495.292" width="182.7" height="36.6908"/>
			<path d="M182.69 476.95 L0 476.95 L0 513.64 L182.69 513.64 L182.69 476.95" class="st3"/>
			<text x="26.89" y="498.96" class="st7" v:langID="1033"><v:paragraph v:horizAlign="1"/><v:tabList/>ZBOSS NCP protocol</text>		</g>
		<g id="shape217-21" v:mID="217" v:groupContext="shape" transform="translate(442.63,-368.079)">
			<title>Sheet.217</title>
			<path d="M182.69 439.94 L0 439.94 L0 513.64 L182.69 513.64 L182.69 439.94 Z" class="st8"/>
		</g>
		<g id="shape218-23" v:mID="218" v:groupContext="shape" transform="translate(442.205,-423.713)">
			<title>Sheet.218</title>
			<desc>Zigbee stack (ZBOSS)</desc>
			<v:textBlock v:margins="rect(0,0,0,0)" v:tabSpace="42.5197"/>
			<v:textRect cx="91.3465" cy="504.916" width="182.7" height="17.4432"/>
			<path d="M182.69 496.19 L0 496.19 L0 513.64 L182.69 513.64 L182.69 496.19" class="st3"/>
			<text x="23.91" y="508.59" class="st7" v:langID="1033"><v:paragraph v:horizAlign="1"/><v:tabList/>Zigbee stack (ZBOSS)</text>		</g>
		<g id="shape219-27" v:mID="219" v:groupContext="shape" transform="translate(442.63,-447.449)">
			<title>Sheet.219</title>
			<path d="M0 476.79 L0 513.64 L182.69 513.64 L182.69 476.79 L0 476.79 L0 476.79 Z" class="st9"/>
		</g>
		<g id="shape220-29" v:mID="220" v:groupContext="shape" transform="translate(442.772,-447.575)">
			<title>Sheet.220</title>
			<desc>Application</desc>
			<v:textBlock v:margins="rect(0,0,0,0)" v:tabSpace="42.5197"/>
			<v:textRect cx="91.3465" cy="495.339" width="182.7" height="36.5971"/>
			<path d="M182.69 477.04 L0 477.04 L0 513.64 L182.69 513.64 L182.69 477.04" class="st3"/>
			<text x="56.77" y="499.01" class="st7" v:langID="1033"><v:paragraph v:horizAlign="1"/><v:tabList/>Application</text>		</g>
		<g id="shape221-33" v:mID="221" v:groupContext="shape" transform="translate(303.307,-339.312)">
			<title>Sheet.221</title>
			<path d="M4.51 510.35 L134.81 509.58 L134.81 508.64 L4.51 509.4 L4.51 510.35 L4.51 510.35 ZM5.4 506.11 L0 509.93 L5.44
						 513.64 L5.4 506.11 L5.4 506.11 ZM133.93 512.87 L139.32 509.05 L133.88 505.35 L133.93 512.87 L133.93 512.87
						 Z" class="st10"/>
		</g>
		<g id="shape222-35" v:mID="222" v:groupContext="shape" transform="translate(311.811,-343.736)">
			<title>Sheet.222</title>
			<desc>UART/USB</desc>
			<v:textBlock v:margins="rect(0,0,0,0)" v:tabSpace="42.5197"/>
			<v:textRect cx="61.7835" cy="504.604" width="123.57" height="18.0668"/>
			<path d="M123.57 495.57 L0 495.57 L0 513.64 L123.57 513.64 L123.57 495.57" class="st3"/>
			<text x="20.14" y="509.12" class="st11" v:langID="1033"><v:paragraph v:horizAlign="1"/><v:tabList/>UART/USB</text>		</g>
		<g id="shape242-39" v:mID="242" v:groupContext="shape" transform="translate(182.664,-28.6245)">
			<title>Sheet.242</title>
			<desc>nRF SoC</desc>
			<v:textBlock v:margins="rect(0,0,0,0)" v:tabSpace="42.5197"/>
			<v:textRect cx="59.183" cy="502.089" width="118.37" height="23.0975"/>
			<path d="M118.37 490.54 L0 490.54 L0 513.64 L118.37 513.64 L118.37 490.54" class="st3"/>
			<text x="12.12" y="508.63" class="st12" v:langID="1033"><v:paragraph v:horizAlign="1"/><v:tabList/>nRF SoC</text>		</g>
		<g id="shape243-43" v:mID="243" v:groupContext="shape" transform="translate(25.1213,-142.157)">
			<title>Sheet.243</title>
			<path d="M0 371.71 L0 513.64 L277.42 513.64 L277.42 371.71 L0 371.71 L0 371.71 Z" class="st8"/>
		</g>
		<g id="shape244-45" v:mID="244" v:groupContext="shape" transform="translate(25.1213,-258.16)">
			<title>Sheet.244</title>
			<desc>Zigbee stack (ZBOSS)</desc>
			<v:textBlock v:margins="rect(0,0,0,0)" v:tabSpace="42.5197"/>
			<v:textRect cx="138.709" cy="503.737" width="277.42" height="19.8018"/>
			<path d="M277.42 493.84 L0 493.84 L0 513.64 L277.42 513.64 L277.42 493.84" class="st3"/>
			<text x="52.81" y="508.41" class="st13" v:langID="1033"><v:paragraph v:horizAlign="1"/><v:tabList/>Zigbee stack (ZBOSS)</text>		</g>
		<g id="shape245-49" v:mID="245" v:groupContext="shape" transform="translate(35.7867,-179.154)">
			<title>Sheet.245</title>
			<path d="M224.38 490.54 L0 490.54 L0 513.64 L224.38 513.64 L224.38 490.54 Z" class="st14"/>
		</g>
		<g id="shape246-51" v:mID="246" v:groupContext="shape" transform="translate(36.3423,-184.762)">
			<title>Sheet.246</title>
			<desc>Network layer (NWK)</desc>
			<v:textBlock v:margins="rect(0,0,0,0)" v:tabSpace="42.5197"/>
			<v:textRect cx="111.939" cy="507.696" width="223.88" height="11.8826"/>
			<path d="M223.88 501.76 L0 501.76 L0 513.64 L223.88 513.64 L223.88 501.76" class="st3"/>
			<text x="61.94" y="510.5" class="st15" v:langID="1033"><v:paragraph v:horizAlign="1"/><v:tabList/>Network layer (NWK)</text>		</g>
		<g id="shape249-55" v:mID="249" v:groupContext="shape" transform="translate(35.7867,-206.084)">
			<title>Sheet.249</title>
			<path d="M224.38 490.54 L0 490.54 L0 513.64 L224.38 513.64 L224.38 490.54 Z" class="st14"/>
		</g>
		<g id="shape250-57" v:mID="250" v:groupContext="shape" transform="translate(35.7867,-206.084)">
			<title>Sheet.250</title>
			<desc>Application support sublayer (APS)</desc>
			<v:textBlock v:margins="rect(0,0,0,0)" v:tabSpace="42.5197"/>
			<v:textRect cx="112.192" cy="502.089" width="224.39" height="23.0975"/>
			<path d="M224.38 490.54 L0 490.54 L0 513.64 L224.38 513.64 L224.38 490.54" class="st3"/>
			<text x="30.17" y="504.89" class="st15" v:langID="1033"><v:paragraph v:horizAlign="1"/><v:tabList/>Application support sublayer (APS)</text>		</g>
		<g id="shape251-61" v:mID="251" v:groupContext="shape" transform="translate(109.887,-60.5197)">
			<title>Sheet.251</title>
			<path d="M192.06 465.45 L0 465.45 L0 513.64 L192.06 513.64 L192.06 465.45 Z" class="st8"/>
		</g>
		<g id="shape252-63" v:mID="252" v:groupContext="shape" transform="translate(109.887,-92.6717)">
			<title>Sheet.252</title>
			<desc>nRF IEEE 802.15.4 radio driver</desc>
			<v:textBlock v:margins="rect(0,0,0,0)" v:tabSpace="42.5197"/>
			<v:textRect cx="96.0282" cy="507.037" width="192.06" height="13.2023"/>
			<path d="M192.06 500.44 L0 500.44 L0 513.64 L192.06 513.64 L192.06 500.44" class="st3"/>
			<text x="21.69" y="510.04" class="st16" v:langID="1033"><v:paragraph v:horizAlign="1"/><v:tabList/>nRF IEEE 802.15.4 radio driver</text>		</g>
		<g id="shape253-67" v:mID="253" v:groupContext="shape" transform="translate(117.356,-65.9788)">
			<title>Sheet.253</title>
			<path d="M175.2 490.54 L0 490.54 L0 513.64 L175.2 513.64 L175.2 490.54 Z" class="st14"/>
		</g>
		<g id="shape254-69" v:mID="254" v:groupContext="shape" transform="translate(117.356,-70.2664)">
			<title>Sheet.254</title>
			<desc>IEEE 802.15.4 PHY</desc>
			<v:textBlock v:margins="rect(0,0,0,0)" v:tabSpace="42.5197"/>
			<v:textRect cx="87.5991" cy="506.377" width="175.2" height="14.5223"/>
			<path d="M175.2 499.12 L0 499.12 L0 513.64 L175.2 513.64 L175.2 499.12" class="st3"/>
			<text x="47" y="509.08" class="st17" v:langID="1033"><v:paragraph v:horizAlign="1"/><v:tabList/>IEEE 802.15.4 PHY</text>		</g>
		<g id="group255-73" transform="translate(24.9449,-25.6744)" v:mID="255" v:groupContext="group">
			<v:userDefs/>
			<title>Sheet.255</title>
			<desc>Secure boot</desc>
			<g id="shape256-74" v:mID="256" v:groupContext="shape">
				<title>Sheet.256</title>
				<rect x="0" y="484.64" width="130.159" height="28.9978" class="st8"/>
			</g>
			<g id="shape255-76" v:mID="255" v:groupContext="groupContent">
				<v:textBlock v:margins="rect(0,0,0,0)" v:tabSpace="42.5197"/>
				<v:textRect cx="66.2063" cy="499.139" width="132.42" height="28.9978"/>
				<text x="13.76" y="496.14" class="st16" v:langID="1033"><v:paragraph v:horizAlign="1"/><v:tabList/>Multiprotocol Service <tspan
							x="32.66" dy="1.2em" class="st18">Layer (MPSL)</tspan></text>			</g>
		</g>
		<g id="shape257-79" v:mID="257" v:groupContext="shape" transform="translate(25.1213,-289.517)">
			<title>Sheet.257</title>
			<path d="M0 490.96 L0 513.64 L278.22 513.64 L278.22 490.96 L0 490.96 L0 490.96 Z" class="st8"/>
		</g>
		<g id="shape258-81" v:mID="258" v:groupContext="shape" transform="translate(25.272,-296.968)">
			<title>Sheet.258</title>
			<desc>Zephyr integration</desc>
			<v:textBlock v:margins="rect(0,0,0,0)" v:tabSpace="42.5197"/>
			<v:textRect cx="139.11" cy="509.617" width="278.23" height="8.04183"/>
			<path d="M278.22 505.6 L0 505.6 L0 513.64 L278.22 513.64 L278.22 505.6" class="st3"/>
			<text x="76.9" y="513.67" class="st4" v:langID="1033"><v:paragraph v:horizAlign="1"/><v:tabList/>Zephyr integration</text>		</g>
		<g id="group259-85" transform="translate(109.887,-114.378)" v:mID="259" v:groupContext="group">
			<v:userDefs/>
			<title>Sheet.259</title>
			<desc>Secure boot</desc>
			<g id="shape260-86" v:mID="260" v:groupContext="shape">
				<title>Sheet.260</title>
				<rect x="0" y="490.961" width="191.898" height="22.6772" class="st8"/>
			</g>
			<g id="shape259-88" v:mID="259" v:groupContext="groupContent">
				<v:textBlock v:margins="rect(0,0,0,0)" v:tabSpace="42.5197"/>
				<v:textRect cx="92.0887" cy="502.299" width="185.71" height="22.6772"/>
				<text x="46.01" y="505.3" class="st16" v:langID="1033"><v:paragraph v:horizAlign="1"/><v:tabList/>Zephyr integration</text>			</g>
		</g>
		<g id="shape265-90" v:mID="265" v:groupContext="shape" transform="translate(538.583,-378)">
			<title>Sheet.265</title>
			<path d="M75.4 469.7 L0 469.7 L0 513.64 L75.4 513.64 L75.4 469.7 Z" class="st14"/>
		</g>
		<g id="shape266-92" v:mID="266" v:groupContext="shape" transform="translate(538.583,-378)">
			<title>Sheet.266</title>
			<desc>Zigbee Commissioning</desc>
			<v:textBlock v:margins="rect(0,0,0,0)" v:tabSpace="42.5197"/>
			<v:textRect cx="37.6983" cy="491.669" width="75.4" height="43.937"/>
			<path d="M75.4 469.7 L0 469.7 L0 513.64 L75.4 513.64 L75.4 469.7" class="st3"/>
			<text x="22.29" y="488.97" class="st17" v:langID="1033"><v:paragraph v:horizAlign="1"/><v:tabList/>Zigbee<v:newlineChar/><tspan
						x="3.75" dy="1.2em" class="st18">Commissioning</tspan></text>		</g>
		<g id="shape267-97" v:mID="267" v:groupContext="shape" transform="translate(456.1,-378)">
			<title>Sheet.267</title>
			<path d="M75.4 469.7 L0 469.7 L0 513.64 L75.4 513.64 L75.4 469.7 Z" class="st14"/>
		</g>
		<g id="shape268-99" v:mID="268" v:groupContext="shape" transform="translate(456.1,-378)">
			<title>Sheet.268</title>
			<desc>Zigbee App layer (ZCL)</desc>
			<v:textBlock v:margins="rect(0,0,0,0)" v:tabSpace="42.5197"/>
			<v:textRect cx="37.6983" cy="491.669" width="75.4" height="43.937"/>
			<path d="M75.4 469.7 L0 469.7 L0 513.64 L75.4 513.64 L75.4 469.7" class="st3"/>
			<text x="22.29" y="483.57" class="st17" v:langID="1033"><v:paragraph v:horizAlign="1"/><v:tabList/>Zigbee<v:newlineChar/><tspan
						x="16.08" dy="1.2em" class="st18">App layer<v:newlineChar/></tspan><tspan x="24.63" dy="1.2em" class="st18">(ZCL)</tspan></text>		</g>
		<g id="shape270-105" v:mID="270" v:groupContext="shape" transform="translate(35.8369,-152.225)">
			<title>Sheet.270</title>
			<path d="M224.38 490.54 L0 490.54 L0 513.64 L224.38 513.64 L224.38 490.54 Z" class="st14"/>
		</g>
		<g id="shape271-107" v:mID="271" v:groupContext="shape" transform="translate(36.3424,-157.833)">
			<title>Sheet.271</title>
			<desc>IEEE 802.15.4 MAC</desc>
			<v:textBlock v:margins="rect(0,0,0,0)" v:tabSpace="42.5197"/>
			<v:textRect cx="111.939" cy="507.696" width="223.88" height="11.8826"/>
			<path d="M223.88 501.76 L0 501.76 L0 513.64 L223.88 513.64 L223.88 501.76" class="st3"/>
			<text x="68.57" y="510.5" class="st15" v:langID="1033"><v:paragraph v:horizAlign="1"/><v:tabList/>IEEE 802.15.4 MAC</text>		</g>
		<g id="shape281-111" v:mID="281" v:groupContext="shape" transform="translate(35.5672,-233.223)">
			<title>Sheet.281</title>
			<path d="M125.32 490.54 L0 490.54 L0 513.64 L125.32 513.64 L125.32 490.54 Z" class="st14"/>
		</g>
		<g id="shape282-113" v:mID="282" v:groupContext="shape" transform="translate(35.4331,-233.223)">
			<title>Sheet.282</title>
			<desc>Application Framework</desc>
			<v:textBlock v:margins="rect(0,0,0,0)" v:tabSpace="42.5197"/>
			<v:textRect cx="62.6623" cy="502.089" width="125.33" height="23.0975"/>
			<path d="M125.32 490.54 L0 490.54 L0 513.64 L125.32 513.64 L125.32 490.54" class="st3"/>
			<text x="8.55" y="504.89" class="st15" v:langID="1033"><v:paragraph v:horizAlign="1"/><v:tabList/>Application Framework</text>		</g>
		<g id="shape283-117" v:mID="283" v:groupContext="shape" transform="translate(779.586,257.317) rotate(90)">
			<title>Sheet.283</title>
			<path d="M78.16 486.2 L0 486.2 L0 513.64 L78.16 513.64 L78.16 486.2 Z" class="st14"/>
		</g>
		<g id="shape247-119" v:mID="247" v:groupContext="shape" transform="translate(167.211,-233.223)">
			<title>Sheet.247</title>
			<path d="M126.17 490.54 L0 490.54 L0 513.64 L126.17 513.64 L126.17 490.54 Z" class="st14"/>
		</g>
		<g id="shape248-121" v:mID="248" v:groupContext="shape" transform="translate(167.077,-233.223)">
			<title>Sheet.248</title>
			<desc>Zigbee Device Object (ZDO)</desc>
			<v:textBlock v:margins="rect(0,0,0,0)" v:tabSpace="42.5197"/>
			<v:textRect cx="62.6623" cy="502.089" width="125.33" height="23.0975"/>
			<path d="M125.32 490.54 L0 490.54 L0 513.64 L125.32 513.64 L125.32 490.54" class="st3"/>
			<text x="12.69" y="499.28" class="st15" v:langID="1033"><v:paragraph v:horizAlign="1"/><v:tabList/>Zigbee Device Object <tspan
						x="47.8" dy="1.2em" class="st18">(ZDO)</tspan></text>		</g>
		<g id="shape284-126" v:mID="284" v:groupContext="shape" transform="translate(780.094,279.638) rotate(90)">
			<title>Sheet.284</title>
			<path d="M1.98 487.2 L0 487.2 L0 513.64 L1.98 513.64 L1.98 487.2 Z" class="st19"/>
		</g>
	</g>
</svg>
