<?xml version="1.0" encoding="UTF-8" standalone="no"?>
<!DOCTYPE svg PUBLIC "-//W3C//DTD SVG 1.1//EN" "http://www.w3.org/Graphics/SVG/1.1/DTD/svg11.dtd">
<!-- Generated by Microsoft Visio, SVG Export zigbee_platform_design_ncp.svg Page-1 -->
<svg xmlns="http://www.w3.org/2000/svg" xmlns:xlink="http://www.w3.org/1999/xlink" xmlns:ev="http://www.w3.org/2001/xml-events"
		width="7.31755in" height="5.31841in" viewBox="0 0 526.863 382.926" xml:space="preserve" color-interpolation-filters="sRGB"
		class="st15">
	<style type="text/css">
	<![CDATA[
		.st1 {fill:#6ad1e3;stroke:#feffff;stroke-width:1}
		.st2 {stroke:none;stroke-linecap:round;stroke-linejoin:round;stroke-width:0.75}
		.st3 {fill:#333f48;font-family:Calibri;font-size:1.5em}
		.st4 {fill:#00a9ce;stroke:none;stroke-width:1}
		.st5 {fill:#ffffff;font-family:Calibri;font-size:1.00001em}
		.st6 {fill:#0033a0;stroke:none;stroke-width:1}
		.st7 {fill:#333f48;font-family:Calibri;font-size:1.00001em}
		.st8 {fill:#0077c8;stroke:none;stroke-width:1}
		.st9 {fill:#ffffff;font-family:Calibri;font-size:0.833336em}
		.st10 {fill:#768692;stroke:none;stroke-width:1}
		.st11 {font-size:1em}
		.st12 {fill:#d0df00;stroke:none;stroke-width:1}
		.st13 {marker-end:url(#mrkr13-84);marker-start:url(#mrkr13-82);stroke:#333f48;stroke-linecap:butt;stroke-width:1}
		.st14 {fill:#333f48;fill-opacity:1;stroke:#333f48;stroke-opacity:1;stroke-width:0.28409090909091}
		.st15 {fill:none;fill-rule:evenodd;font-size:12px;overflow:visible;stroke-linecap:square;stroke-miterlimit:3}
	]]>
	</style>

	<defs id="Markers">
		<g id="lend13">
			<path d="M 3 1 L 0 0 L 3 -1 L 3 1 " style="stroke:none"/>
		</g>
		<marker id="mrkr13-82" class="st14" refX="10.2" orient="auto" markerUnits="strokeWidth" overflow="visible">
			<use xlink:href="#lend13" transform="scale(3.52) "/>
		</marker>
		<marker id="mrkr13-84" class="st14" refX="-10.56" orient="auto" markerUnits="strokeWidth" overflow="visible">
			<use xlink:href="#lend13" transform="scale(-3.52,-3.52) "/>
		</marker>
	</defs>
	<g>
		<title>Page-1</title>
		<g id="shape130-1" transform="translate(1,-1)">
			<title>Sheet.130</title>
			<path d="M265.46 107.14 L0 107.14 L0 382.93 L265.46 382.93 L265.46 107.14 Z" class="st1"/>
		</g>
		<g id="shape133-3" transform="translate(341.022,-209.084)">
			<title>Sheet.133</title>
			<path d="M184.84 210.08 L0 210.08 L0 382.93 L184.84 382.93 L184.84 210.08 Z" class="st1"/>
		</g>
		<g id="shape134-5" transform="translate(353.583,-214.117)">
			<title>Sheet.134</title>
			<desc>Host processor</desc>
			<path d="M159.72 362.8 L0 362.8 L0 382.93 L159.72 382.93 L159.72 362.8" class="st2"/>
			<text x="25.12" y="378.26" class="st3">Host processor</text>		</g>
		<g id="shape137-9" transform="translate(350.996,-273.674)">
			<title>Sheet.137</title>
			<path d="M164.89 320.38 L0 320.38 L0 382.93 L164.89 382.93 L164.89 320.38 Z" class="st4"/>
		</g>
		<g id="shape138-11" transform="translate(360.997,-320.887)">
			<title>Sheet.138</title>
			<desc>Zigbee stack (ZBOSS)</desc>
			<path d="M155.04 368.12 L0 368.12 L0 382.93 L155.04 382.93 L155.04 368.12" class="st2"/>
			<text x="26.98" y="379.12" class="st5">Zigbee stack (ZBOSS)</text>		</g>
		<g id="shape139-15" transform="translate(350.996,-341.031)">
			<title>Sheet.139</title>
			<path d="M0 351.65 L0 382.93 L164.89 382.93 L164.89 351.65 L0 351.65 L0 351.65 Z" class="st6"/>
		</g>
		<g id="shape140-17" transform="translate(361.478,-341.138)">
			<title>Sheet.140</title>
			<desc>Application</desc>
			<path d="M155.04 351.87 L0 351.87 L0 382.93 L155.04 382.93 L155.04 351.87" class="st2"/>
			<text x="49.88" y="371" class="st5">Application</text>		</g>
		<g id="shape142-21" transform="translate(266.465,-253.691)">
			<title>Sheet.142</title>
			<desc>UART/USB</desc>
			<path d="M74.56 367.59 L0 367.59 L0 382.93 L74.56 382.93 L74.56 367.59" class="st2"/>
			<text x="11.59" y="378.86" class="st7">UART/USB</text>		</g>
		<g id="shape143-25" transform="translate(191.953,-9.12982)">
			<title>Sheet.143</title>
			<desc>nRF SoC</desc>
			<path d="M63.98 363.32 L0 363.32 L0 382.93 L63.98 382.93 L63.98 363.32" class="st2"/>
			<text x="2.53" y="378.52" class="st3">nRF SoC</text>		</g>
		<g id="shape144-29" transform="translate(7.43421,-110.792)">
			<title>Sheet.144</title>
			<path d="M0 262.48 L0 382.93 L250.65 382.93 L250.65 262.48 L0 262.48 L0 262.48 Z" class="st4"/>
		</g>
		<g id="shape145-31" transform="translate(7.04338,-211.028)">
			<title>Sheet.145</title>
			<desc>Zigbee stack (ZBOSS)</desc>
			<path d="M250.65 366.12 L0 366.12 L0 382.93 L250.65 382.93 L250.65 366.12" class="st2"/>
			<text x="74.79" y="378.12" class="st5">Zigbee stack (ZBOSS)</text>		</g>
		<g id="shape146-35" transform="translate(16.0945,-142.189)">
			<title>Sheet.146</title>
			<desc>Network layer (NWK)</desc>
			<path d="M212.57 363.32 L0 363.32 L0 382.93 L212.57 382.93 L212.57 363.32 Z" class="st8"/>
			<text x="63.07" y="376.12" class="st9">Network layer (NWK)</text>		</g>
		<g id="shape148-38" transform="translate(16.0945,-165.042)">
			<title>Sheet.148</title>
			<desc>Application support sublayer (APS)</desc>
			<path d="M212.57 363.32 L0 363.32 L0 382.93 L212.57 382.93 L212.57 363.32 Z" class="st8"/>
			<text x="35.91" y="376.12" class="st9">Application support sublayer (APS)</text>		</g>
		<g id="group154-41" transform="translate(6.8937,-9.12982)">
			<title>Sheet.154</title>
			<desc>Secure boot</desc>
			<g id="shape155-42">
				<title>Sheet.155</title>
				<rect x="0" y="358.317" width="152.625" height="24.6087" class="st4"/>
			</g>
			<g id="shape154-44">
				<text x="6.34" y="373.62" class="st9">Multiprotocol Service Layer (MPSL)</text>			</g>
		</g>
		<g id="group156-46" transform="translate(84.0223,-85.632)">
			<title>Sheet.156</title>
			<desc>Secure boot</desc>
			<g id="shape157-47">
				<title>Sheet.157</title>
				<rect x="0" y="363.681" width="173.384" height="19.2447" class="st10"/>
			</g>
			<g id="shape156-49">
				<text x="45.47" y="376.3" class="st9">Zephyr integration</text>			</g>
		</g>
		<g id="shape159-51" transform="translate(442.787,-282.094)">
			<title>Sheet.159</title>
			<path d="M63.98 345.64 L0 345.64 L0 382.93 L63.98 382.93 L63.98 345.64" class="st2"/>
		</g>
		<g id="shape162-54" transform="translate(16.1421,-119.336)">
			<title>Sheet.162</title>
			<desc>IEEE 802.15.4 MAC</desc>
			<path d="M212.57 363.32 L0 363.32 L0 382.93 L212.57 382.93 L212.57 363.32 Z" class="st8"/>
			<text x="67.88" y="376.12" class="st9">IEEE 802.15.4 MAC</text>		</g>
		<g id="shape164-57" transform="translate(15.9082,-188.074)">
			<title>Sheet.164</title>
			<desc>Application framework</desc>
			<path d="M106.36 363.32 L0 363.32 L0 382.93 L106.36 382.93 L106.36 363.32 Z" class="st8"/>
			<text x="6.64" y="376.12" class="st9">Application framework</text>		</g>
		<g id="shape169-60" transform="translate(594.776,194.193) rotate(90)">
			<title>Sheet.169</title>
			<path d="M1.68 360.49 L0 360.49 L0 382.93 L1.68 382.93 L1.68 360.49 Z" class="st4"/>
		</g>
		<g id="shape158-62" transform="translate(438.256,-279.542)">
			<title>Sheet.158</title>
			<desc>Zigbee commissioning</desc>
			<path d="M72.82 345.64 L0 345.64 L0 382.93 L72.82 382.93 L72.82 345.64 Z" class="st8"/>
			<text x="22.97" y="361.28" class="st9">Zigbee <tspan x="6.07" dy="1.2em" class="st11">c</tspan>ommissioning</text>		</g>
		<g id="shape160-66" transform="translate(355.809,-279.542)">
			<title>Sheet.160</title>
			<desc>Zigbee app layer (ZCL)</desc>
			<path d="M75.42 345.64 L0 345.64 L0 382.93 L75.42 382.93 L75.42 345.64 Z" class="st8"/>
			<text x="4.32" y="361.28" class="st9">Zigbee app layer <tspan x="27.57" dy="1.2em" class="st11">(ZCL)</tspan></text>		</g>
		<g id="shape174-70" transform="translate(351.95,-237.75)">
			<title>Nordic Grass</title>
			<desc>ZBOSS NCP protocol</desc>
			<rect x="0" y="351.653" width="162.987" height="31.2727" class="st12"/>
			<text x="32.39" y="370.89" class="st7">ZBOSS NCP protocol</text>		</g>
		<g id="shape175-73" transform="translate(7.43421,-237.143)">
			<title>Nordic Grass.175</title>
			<desc>ZBOSS NCP protocol</desc>
			<rect x="0" y="351.653" width="250.653" height="31.2727" class="st12"/>
			<text x="76.22" y="370.89" class="st7">ZBOSS NCP protocol</text>		</g>
		<g id="shape176-76" transform="translate(258.087,-245.996)">
			<title>Dynamic connector</title>
			<path d="M10.2 375.84 L10.56 375.84 L83.3 375.84" class="st13"/>
		</g>
		<g id="group178-85" transform="translate(127.626,-141.343)">
			<title>Sheet.178</title>
			<g id="shape166-86" transform="translate(489.582,316.594) rotate(90)">
				<title>Sheet.166</title>
				<path d="M66.33 366.87 L0 366.87 L0 382.93 L66.33 382.93 L66.33 366.87 Z" class="st8"/>
			</g>
			<g id="shape167-88" transform="translate(-1.59872E-14,-46.7307)">
				<title>Sheet.167</title>
				<desc>Zigbee Device Object (ZDO)</desc>
				<path d="M122.71 363.32 L0 363.32 L0 382.93 L122.71 382.93 L122.71 363.32 Z" class="st8"/>
				<text x="5.78" y="376.12" class="st9">Zigbee Device Object (ZDO)</text>			</g>
		</g>
		<g id="group184-91" transform="translate(84.0223,-39.9258)">
			<title>Sheet.184</title>
			<g id="shape150-92">
				<title>Sheet.150</title>
				<path d="M173.53 342.03 L0 342.03 L0 382.93 L173.53 382.93 L173.53 342.03 Z" class="st4"/>
			</g>
			<g id="shape151-94" transform="translate(-7.99361E-14,-25.3)">
				<title>Sheet.151</title>
				<desc>nRF IEEE 802.15.4 radio driver</desc>
				<path d="M173.53 371.72 L0 371.72 L0 382.93 L173.53 382.93 L173.53 371.72" class="st2"/>
				<text x="25.73" y="380.32" class="st9">nRF IEEE 802.15.4 radio driver</text>			</g>
			<g id="shape152-98" transform="translate(6.74827,-4.61425)">
				<title>Sheet.152</title>
				<desc>IEEE 802.15.4 PHY</desc>
				<path d="M158.3 366.12 L0 366.12 L0 382.93 L158.3 382.93 L158.3 366.12 Z" class="st8"/>
				<text x="42.44" y="377.52" class="st9">IEEE 802.15.4 PHY</text>			</g>
		</g>
	</g>
</svg>
