<?xml version="1.0" encoding="UTF-8" standalone="no"?>
<!DOCTYPE svg PUBLIC "-//W3C//DTD SVG 1.1//EN" "http://www.w3.org/Graphics/SVG/1.1/DTD/svg11.dtd">
<!-- Generated by Microsoft Visio, SVG Export zigbee_signal_handler_10_rejoin_user_input.svg Drawing -->
<svg xmlns="http://www.w3.org/2000/svg" xmlns:xlink="http://www.w3.org/1999/xlink" xmlns:ev="http://www.w3.org/2001/xml-events"
		width="4.25117in" height="5.82885in" viewBox="0 0 306.084 419.677" xml:space="preserve" color-interpolation-filters="sRGB"
		class="st13">
	<style type="text/css">
	<![CDATA[
		.st1 {fill:#00a9ce;stroke:none;stroke-width:1}
		.st2 {fill:#feffff;font-family:Calibri;font-size:0.833336em}
		.st3 {fill:#ffffff;stroke:#333f48;stroke-width:2.5}
		.st4 {fill:#000000;font-family:Calibri;font-size:0.833336em}
		.st5 {fill:#0077c8;stroke:none;stroke-width:1}
		.st6 {fill:#feffff;font-family:Calibri;font-size:0.75em}
		.st7 {marker-start:url(#mrkr13-15);stroke:#333f48;stroke-linecap:butt;stroke-width:1}
		.st8 {fill:#333f48;fill-opacity:1;stroke:#333f48;stroke-opacity:1;stroke-width:0.28409090909091}
		.st9 {fill:#333f48;font-family:Calibri;font-size:1.00001em}
		.st10 {marker-end:url(#mrkr13-22);stroke:#333f48;stroke-linecap:butt;stroke-width:1}
		.st11 {fill:#0033a0;stroke:none;stroke-width:1}
		.st12 {fill:#333f48;stroke:none;stroke-width:1}
		.st13 {fill:none;fill-rule:evenodd;font-size:12px;overflow:visible;stroke-linecap:square;stroke-miterlimit:3}
	]]>
	</style>

	<defs id="Markers">
		<g id="lend13">
			<path d="M 3 1 L 0 0 L 3 -1 L 3 1 " style="stroke:none"/>
		</g>
		<marker id="mrkr13-15" class="st8" refX="10.2" orient="auto" markerUnits="strokeWidth" overflow="visible">
			<use xlink:href="#lend13" transform="scale(3.52) "/>
		</marker>
		<marker id="mrkr13-22" class="st8" refX="-10.56" orient="auto" markerUnits="strokeWidth" overflow="visible">
			<use xlink:href="#lend13" transform="scale(-3.52,-3.52) "/>
		</marker>
	</defs>
	<g>
		<title>Drawing</title>
		<g id="shape1375-1" transform="translate(117.008,-285.244)">
			<title>Nordic Blue.1375</title>
			<desc>user_input_indicate()</desc>
			<rect x="0" y="385.236" width="113.386" height="34.4409" class="st1"/>
			<text x="12.94" y="406.06" class="st2">user_input_indicate()</text>		</g>
		<g id="shape1470-4" transform="translate(166.614,-359.158)">
			<title>Circle.1470</title>
			<desc>User action (e.g. button press)</desc>
			<path d="M0 412.59 A7.08661 7.08661 0 0 1 14.17 412.59 A7.08661 7.08661 0 1 1 0 412.59 Z" class="st3"/>
			<text x="-51.16" y="394.33" class="st4">User action (e.g. button press)</text>		</g>
		<g id="shape1474-7" transform="translate(117.008,-232.859)">
			<title>Hexagon.1474</title>
			<desc>wait_for_user_input</desc>
			<path d="M89.42 385.24 L23.96 385.24 L-8.77 402.46 L23.96 419.68 L89.42 419.68 L122.16 402.46 L89.42 385.24 Z"
					class="st5"/>
			<text x="19.18" y="405.16" class="st6">wait_for_user_input</text>		</g>
		<g id="shape1475-10" transform="translate(75.6929,-212.657)">
			<title>Dynamic connector.1475</title>
			<desc>true</desc>
			<path d="M0 409.48 L0 409.12 L0 382.26 L32.54 382.26" class="st7"/>
			<text x="28.31" y="404.26" class="st9">true</text>		</g>
		<g id="shape1476-17" transform="translate(166.614,-285.244)">
			<title>Dynamic connector.1476</title>
			<path d="M7.09 419.68 L7.09 427.06" class="st10"/>
		</g>
		<g id="shape1477-23" transform="translate(166.614,-359.158)">
			<title>Dynamic connector.1477</title>
			<path d="M7.09 419.68 L7.09 448.59" class="st10"/>
		</g>
		<g id="shape1479-28" transform="translate(239.164,-250.079)">
			<title>Dynamic connector.1479</title>
			<desc>false</desc>
			<path d="M0 419.68 L37.79 419.68 L37.79 592.8 L-41.52 592.8" class="st10"/>
			<text x="-2.37" y="441.76" class="st9">false</text>		</g>
		<g id="shape1502-34" transform="translate(19,-178.217)">
			<title>Nordic Blue.1502</title>
			<desc>wait_for_user_input=false</desc>
			<rect x="0" y="385.236" width="113.386" height="34.4409" class="st1"/>
			<text x="8.38" y="406.06" class="st6">wait_for_user_input=false</text>		</g>
		<g id="shape1503-37" transform="translate(162.722,-67.8174)">
			<title>Diamond.1428</title>
			<path d="M12.18 419.68 L24.37 410.54 L12.18 401.4 L0 410.54 L12.18 419.68 Z" class="st11"/>
		</g>
		<g id="shape1504-39" transform="translate(167.819,-19)">
			<title>Circle.1430</title>
			<path d="M0 412.59 A7.08661 7.08661 0 0 1 14.17 412.59 A7.08661 7.08661 0 1 1 0 412.59 Z" class="st12"/>
		</g>
		<g id="shape1505-41" transform="translate(167.819,-67.8174)">
			<title>Dynamic connector.1431</title>
			<path d="M7.09 419.68 L7.09 443.76" class="st10"/>
		</g>
		<g id="shape1506-46" transform="translate(68.6063,-178.217)">
			<title>Dynamic connector</title>
			<path d="M7.09 419.68 L7.09 452.63" class="st10"/>
		</g>
		<g id="shape1508-51" transform="translate(19,-100.265)">
			<title>Nordic Blue.1508</title>
			<desc>start_network_rejoin()</desc>
			<rect x="0" y="385.236" width="113.386" height="34.4409" class="st1"/>
			<text x="10.38" y="406.06" class="st2">start_network_rejoin()</text>		</g>
		<g id="shape1509-54" transform="translate(75.6929,-100.265)">
			<title>Dynamic connector.1509</title>
			<path d="M0 419.68 L0 442.99 L76.47 442.99" class="st10"/>
		</g>
	</g>
</svg>
