<?xml version="1.0" encoding="UTF-8" standalone="no"?>
<!DOCTYPE svg PUBLIC "-//W3C//DTD SVG 1.1//EN" "http://www.w3.org/Graphics/SVG/1.1/DTD/svg11.dtd">
<!-- Generated by Microsoft Visio, SVG Export zigbee_signal_handler_05_formation.svg Page-1 -->
<svg xmlns="http://www.w3.org/2000/svg" xmlns:xlink="http://www.w3.org/1999/xlink" xmlns:ev="http://www.w3.org/2001/xml-events"
		width="7.31065in" height="3.59668in" viewBox="0 0 526.367 258.961" xml:space="preserve" color-interpolation-filters="sRGB"
		class="st10">
	<style type="text/css">
	<![CDATA[
		.st1 {fill:#00a9ce;stroke:none;stroke-width:1}
		.st2 {fill:#feffff;font-family:Calibri;font-size:0.833336em}
		.st3 {marker-end:url(#mrkr13-12);stroke:#333f48;stroke-linecap:butt;stroke-width:1}
		.st4 {fill:#333f48;fill-opacity:1;stroke:#333f48;stroke-opacity:1;stroke-width:0.28409090909091}
		.st5 {fill:#333f48;stroke:none;stroke-width:1}
		.st6 {fill:#0077c8;stroke:none;stroke-width:1}
		.st7 {fill:#0033a0;stroke:none;stroke-width:1}
		.st8 {fill:none;stroke:none;stroke-width:1}
		.st9 {fill:#333f48;font-family:Calibri;font-size:1.00001em}
		.st10 {fill:none;fill-rule:evenodd;font-size:12px;overflow:visible;stroke-linecap:square;stroke-miterlimit:3}
	]]>
	</style>

	<defs id="Markers">
		<g id="lend13">
			<path d="M 3 1 L 0 0 L 3 -1 L 3 1 " style="stroke:none"/>
		</g>
		<marker id="mrkr13-12" class="st4" refX="-10.56" orient="auto" markerUnits="strokeWidth" overflow="visible">
			<use xlink:href="#lend13" transform="scale(-3.52,-3.52) "/>
		</marker>
	</defs>
	<g>
		<title>Page-1</title>
		<g id="shape1340-1" transform="translate(198.045,-223.52)">
			<title>Nordic Blue</title>
			<desc>ZB_BDB_SIGNAL_FORMATION</desc>
			<rect x="0" y="224.52" width="144.665" height="34.4409" class="st1"/>
			<text x="10.63" y="245.34" class="st2">ZB_BDB_SIGNAL_FORMATION</text>		</g>
		<g id="shape1342-4" transform="translate(1,-119.588)">
			<title>Nordic Blue.1342</title>
			<desc>bdb_start_top_level_commissioning(ZB_BDB_NETWORK_STEERING)</desc>
			<rect x="0" y="224.52" width="291.291" height="34.4409" class="st1"/>
			<text x="6.33" y="245.34" class="st2">bdb_start_top_level_commissioning(ZB_BDB_NETWORK_STEERING)</text>		</g>
		<g id="shape1343-7" transform="translate(124.732,-119.588)">
			<title>Dynamic connector.1343</title>
			<path d="M0 258.96 L0 334.81 L122.9 334.81" class="st3"/>
		</g>
		<g id="shape1344-13" transform="translate(263.291,-1)">
			<title>Circle.1344</title>
			<path d="M0 251.87 A7.08661 7.08661 0 0 1 14.17 251.87 A7.08661 7.08661 0 1 1 0 251.87 Z" class="st5"/>
		</g>
		<g id="shape1345-15" transform="translate(263.291,-223.52)">
			<title>Dynamic connector.1345</title>
			<path d="M7.09 258.96 L7.09 267.32" class="st3"/>
		</g>
		<g id="shape1346-20" transform="translate(213.685,-170.164)">
			<title>Hexagon</title>
			<desc>status == RET_OK</desc>
			<path d="M89.42 224.52 L23.96 224.52 L-8.77 241.74 L23.96 258.96 L89.42 258.96 L122.16 241.74 L89.42 224.52 Z"
					class="st6"/>
			<text x="21.18" y="244.74" class="st2">status == RET_OK</text>		</g>
		<g id="shape1349-23" transform="translate(258.195,-34.6029)">
			<title>Diamond.1349</title>
			<path d="M12.18 258.96 L24.37 249.82 L12.18 240.69 L0 249.82 L12.18 258.96 Z" class="st7"/>
		</g>
		<g id="shape1350-25" transform="translate(221.444,-69.0124)">
			<title>Nordic Blue.1350</title>
			<desc>bdb_start_top_level_commissioning(ZB_BDB_NETWORK_FORMATION)</desc>
			<rect x="0" y="224.52" width="303.923" height="34.4409" class="st1"/>
			<text x="6.89" y="245.34" class="st2">bdb_start_top_level_commissioning(ZB_BDB_NETWORK_FORMATION)</text>		</g>
		<g id="shape1353-28" transform="translate(263.291,-34.6029)">
			<title>Dynamic connector.1353</title>
			<path d="M7.09 258.96 L7.09 267.83" class="st3"/>
		</g>
		<g id="shape1355-33" transform="translate(335.841,-187.385)">
			<title>Dynamic connector.1355</title>
			<path d="M0 258.96 L79.44 258.96 L79.44 332.33" class="st3"/>
		</g>
		<g id="shape1357-38" transform="translate(204.915,-187.385)">
			<title>Dynamic connector.1357</title>
			<path d="M0 258.96 L-80.18 258.96 L-80.18 281.76" class="st3"/>
		</g>
		<g id="shape1358-43" transform="translate(340.132,-187.385)">
			<title>Sheet.1358</title>
			<desc>no</desc>
			<rect x="0" y="238.961" width="31.9785" height="20" class="st8"/>
			<text x="4" y="252.56" class="st9">no</text>		</g>
		<g id="shape1362-46" transform="translate(170.053,-187.385)">
			<title>Sheet.1362</title>
			<desc>yes</desc>
			<rect x="0" y="238.961" width="31.9785" height="20" class="st8"/>
			<text x="4" y="252.56" class="st9">yes</text>		</g>
		<g id="shape1365-49" transform="translate(415.283,-69.0124)">
			<title>Dynamic connector.1365</title>
			<path d="M0 258.96 L0 284.23 L-122.16 284.23" class="st3"/>
		</g>
	</g>
</svg>
