<?xml version="1.0" encoding="UTF-8" standalone="no"?>
<!DOCTYPE svg PUBLIC "-//W3C//DTD SVG 1.1//EN" "http://www.w3.org/Graphics/SVG/1.1/DTD/svg11.dtd">
<!-- Generated by Microsoft Visio, SVG Export zigbee_commissioning_steering.svg Page-1 -->
<svg xmlns="http://www.w3.org/2000/svg" xmlns:xlink="http://www.w3.org/1999/xlink" xmlns:ev="http://www.w3.org/2001/xml-events"
		width="7.83166in" height="8.28577in" viewBox="0 0 563.88 596.576" xml:space="preserve" color-interpolation-filters="sRGB"
		class="st10">
	<style type="text/css">
	<![CDATA[
		.st1 {fill:#0033a0;stroke:none;stroke-width:1}
		.st2 {fill:#feffff;font-family:Arial;font-size:0.916672em}
		.st3 {font-size:1em}
		.st4 {fill:none;stroke:none;stroke-width:1}
		.st5 {fill:#333f48;font-family:Arial;font-size:0.75em}
		.st6 {fill:none;stroke:#768692;stroke-dasharray:3,3;stroke-width:1}
		.st7 {fill:#768692;font-family:Arial;font-size:0.916672em}
		.st8 {marker-end:url(#mrkr5-123);stroke:#008bab;stroke-linecap:butt;stroke-width:1}
		.st9 {fill:#008bab;fill-opacity:1;stroke:#008bab;stroke-opacity:1;stroke-width:0.28409090909091}
		.st10 {fill:none;fill-rule:evenodd;font-size:12px;overflow:visible;stroke-linecap:square;stroke-miterlimit:3}
	]]>
	</style>

	<defs id="Markers">
		<g id="lend5">
			<path d="M 2 1 L 0 0 L 1.98117 -0.993387 C 1.67173 -0.364515 1.67301 0.372641 1.98465 1.00043 " style="stroke:none"/>
		</g>
		<marker id="mrkr5-123" class="st9" refX="-6.16" orient="auto" markerUnits="strokeWidth" overflow="visible">
			<use xlink:href="#lend5" transform="scale(-3.52,-3.52) "/>
		</marker>
	</defs>
	<g>
		<title>Page-1</title>
		<g id="shape5-1" transform="translate(241.661,-534.91)">
			<title>Sheet.5</title>
			<desc>Scan for network on 1ry channels</desc>
			<rect x="0" y="555.473" width="95.2441" height="41.1024" class="st1"/>
			<text x="6.35" y="572.72" class="st2">Scan for network <tspan x="8.79" dy="1.2em" class="st3">on 1ry channels</tspan></text>		</g>
		<g id="shape6-5" transform="translate(161.629,-538.165)">
			<title>Sheet.6</title>
			<desc>No</desc>
			<rect x="0" y="578.569" width="24.3323" height="18.0063" class="st4"/>
			<text x="4" y="590.27" class="st5">No</text>		</g>
		<g id="shape7-8" transform="translate(1,-534.91)">
			<title>Sheet.7</title>
			<desc>Network Steering (start)</desc>
			<rect x="0" y="555.473" width="106.583" height="41.1024" class="st1"/>
			<text x="11.11" y="572.72" class="st2">Network Steering <tspan x="38.93" dy="1.2em" class="st3">(start)</tspan></text>		</g>
		<g id="shape8-12" transform="translate(-277.509,-363.432) rotate(-45)">
			<title>Sheet.8</title>
			<rect x="0" y="572.116" width="24.4598" height="24.4598" class="st1"/>
		</g>
		<g id="shape9-14" transform="translate(29.6299,-63.3622)">
			<title>Sheet.9</title>
			<desc>Broadcast permit join</desc>
			<rect x="0" y="555.473" width="106.583" height="41.1024" class="st1"/>
			<text x="28.53" y="572.72" class="st2">Broadcast <tspan x="27.92" dy="1.2em" class="st3">permit join</tspan></text>		</g>
		<g id="shape10-18" transform="translate(121.039,-566.512)">
			<title>Sheet.10</title>
			<desc>Node in network?</desc>
			<rect x="0" y="567.512" width="58.1275" height="29.0638" class="st4"/>
			<text x="4" y="579.34" class="st5">Node in <tspan x="4" dy="1.2em" class="st3">network?</tspan></text>		</g>
		<g id="shape11-22" transform="translate(120.851,-520.159)">
			<title>Sheet.11</title>
			<desc>Yes</desc>
			<rect x="0" y="578.569" width="24.3323" height="18.0063" class="st4"/>
			<text x="4" y="590.27" class="st5">Yes</text>		</g>
		<g id="shape12-25" transform="translate(22.5916,-56.6256)">
			<title>Sheet.12</title>
			<path d="M0 596.58 L147.92 596.58 L147.92 193.36 L0 193.36 L0 596.58 Z" class="st6"/>
		</g>
		<g id="shape13-27" transform="translate(22.5916,-424.78)">
			<title>Sheet.13</title>
			<desc>Node in the network</desc>
			<rect x="0" y="567.512" width="60.8068" height="29.0638" class="st4"/>
			<text x="4" y="572.14" class="st7">Node <tspan x="4" dy="1.2em" class="st3">in the </tspan><tspan x="4" dy="1.2em"
						class="st3">network</tspan></text>		</g>
		<g id="shape14-32" transform="translate(179.166,-77.5354)">
			<title>Sheet.14</title>
			<path d="M0 596.58 L371.32 596.58 L371.32 78.54 L0 78.54 L0 596.58 Z" class="st6"/>
		</g>
		<g id="shape15-34" transform="translate(361.747,-578.992)">
			<title>Sheet.15</title>
			<desc>Node not in the network</desc>
			<rect x="0" y="579.992" width="188.742" height="16.584" class="st4"/>
			<text x="68.56" y="591.58" class="st7">Node not in the network</text>		</g>
		<g id="shape16-37" transform="translate(2.88392,-299.653) rotate(-45)">
			<title>Sheet.16</title>
			<rect x="0" y="570.518" width="26.0572" height="26.0572" class="st1"/>
		</g>
		<g id="shape17-39" transform="translate(361.237,-494.928)">
			<title>Sheet.17</title>
			<desc>Discovery successful?</desc>
			<rect x="0" y="567.512" width="74.576" height="29.0638" class="st4"/>
			<text x="4" y="579.34" class="st5">Discovery <tspan x="4" dy="1.2em" class="st3">successful?</tspan></text>		</g>
		<g id="shape18-43" transform="translate(307.708,-376.622)">
			<title>Sheet.18</title>
			<desc>No</desc>
			<rect x="0" y="584.431" width="24.3323" height="12.1448" class="st4"/>
			<text x="4" y="593.2" class="st5">No</text>		</g>
		<g id="shape19-46" transform="translate(264.95,-342.913)">
			<title>Sheet.19</title>
			<desc>Yes</desc>
			<rect x="0" y="578.569" width="24.3323" height="18.0063" class="st4"/>
			<text x="4" y="590.27" class="st5">Yes</text>		</g>
		<g id="shape20-49" transform="translate(456.297,-1)">
			<title>Sheet.20</title>
			<desc>Network Steering (end)</desc>
			<rect x="0" y="555.473" width="106.583" height="41.1024" class="st1"/>
			<text x="11.11" y="572.72" class="st2">Network Steering <tspan x="40.45" dy="1.2em" class="st3">(end)</tspan></text>		</g>
		<g id="shape21-53" transform="translate(382.284,-534.91)">
			<title>Sheet.21</title>
			<desc>Scan for network on 2ry channels</desc>
			<rect x="0" y="555.473" width="95.2441" height="41.1024" class="st1"/>
			<text x="6.35" y="572.72" class="st2">Scan for network <tspan x="8.79" dy="1.2em" class="st3">on 2ry channels</tspan></text>		</g>
		<g id="shape22-57" transform="translate(-132.56,-297.875) rotate(-45)">
			<title>Sheet.22</title>
			<rect x="0" y="570.518" width="26.0572" height="26.0572" class="st1"/>
		</g>
		<g id="shape23-59" transform="translate(296.345,-494.928)">
			<title>Sheet.23</title>
			<desc>Discovery successful?</desc>
			<rect x="0" y="567.512" width="74.576" height="29.0638" class="st4"/>
			<text x="4" y="579.34" class="st5">Discovery <tspan x="4" dy="1.2em" class="st3">successful?</tspan></text>		</g>
		<g id="shape24-63" transform="translate(264.95,-455.961)">
			<title>Sheet.24</title>
			<desc>Yes</desc>
			<rect x="0" y="578.569" width="24.3323" height="18.0063" class="st4"/>
			<text x="4" y="590.27" class="st5">Yes</text>		</g>
		<g id="shape25-66" transform="translate(307.708,-477.22)">
			<title>Sheet.25</title>
			<desc>No</desc>
			<rect x="0" y="584.431" width="24.3323" height="12.1448" class="st4"/>
			<text x="4" y="593.2" class="st5">No</text>		</g>
		<g id="shape26-69" transform="translate(241.661,-403.176)">
			<title>Sheet.26</title>
			<desc>Prepare list of networks</desc>
			<rect x="0" y="555.473" width="95.2441" height="41.1024" class="st1"/>
			<text x="13.69" y="572.72" class="st2">Prepare list of <tspan x="25.61" dy="1.2em" class="st3">networks</tspan></text>		</g>
		<g id="shape27-73" transform="translate(241.661,-294.386)">
			<title>Sheet.27</title>
			<desc>Join the network (first available)</desc>
			<rect x="0" y="555.473" width="95.2441" height="41.1024" class="st1"/>
			<text x="7.57" y="572.72" class="st2">Join the network <tspan x="11.86" dy="1.2em" class="st3">(first available)</tspan></text>		</g>
		<g id="shape28-77" transform="translate(-132.56,-65.0772) rotate(-45)">
			<title>Sheet.28</title>
			<rect x="0" y="570.518" width="26.0572" height="26.0572" class="st1"/>
		</g>
		<g id="shape29-79" transform="translate(225.998,-257.897)">
			<title>Sheet.29</title>
			<desc>Join successful?</desc>
			<rect x="0" y="567.512" width="60.8068" height="29.0638" class="st4"/>
			<text x="4" y="579.34" class="st5">Join <tspan x="4" dy="1.2em" class="st3">successful?</tspan></text>		</g>
		<g id="shape30-83" transform="translate(246.525,-239.81)">
			<title>Sheet.30</title>
			<desc>Yes</desc>
			<rect x="0" y="578.569" width="24.3323" height="18.0063" class="st4"/>
			<text x="4" y="590.27" class="st5">Yes</text>		</g>
		<g id="shape31-86" transform="translate(474.172,-266.039)">
			<title>Sheet.31</title>
			<desc>No</desc>
			<rect x="0" y="578.569" width="24.3323" height="18.0063" class="st4"/>
			<text x="4" y="590.27" class="st5">No</text>		</g>
		<g id="shape32-89" transform="translate(-132.56,-177.183) rotate(-45)">
			<title>Sheet.32</title>
			<rect x="0" y="570.518" width="26.0572" height="26.0572" class="st1"/>
		</g>
		<g id="shape33-91" transform="translate(241.661,-370.341)">
			<title>Sheet.33</title>
			<desc>Suitable network found?</desc>
			<rect x="0" y="567.512" width="60.8068" height="29.0638" class="st4"/>
			<text x="4" y="573.94" class="st5">Suitable <tspan x="4" dy="1.2em" class="st3">network </tspan><tspan x="4" dy="1.2em"
						class="st3">found?</tspan></text>		</g>
		<g id="shape35-96" transform="translate(40.0708,-61.9616) rotate(-45)">
			<title>Sheet.35</title>
			<rect x="0" y="570.518" width="26.0572" height="26.0572" class="st1"/>
		</g>
		<g id="shape36-98" transform="translate(393.674,-259.013)">
			<title>Sheet.36</title>
			<desc>More networks available?</desc>
			<rect x="0" y="567.512" width="74.576" height="29.0638" class="st4"/>
			<text x="4" y="579.34" class="st5">More networks <tspan x="4" dy="1.2em" class="st3">available?</tspan></text>		</g>
		<g id="shape37-102" transform="translate(-0.748853,27.7487) rotate(-45)">
			<title>Sheet.37</title>
			<rect x="0" y="570.518" width="26.0572" height="26.0572" class="st1"/>
		</g>
		<g id="shape38-104" transform="translate(424.423,-176.748)">
			<title>Sheet.38</title>
			<desc>Trust Center present?</desc>
			<rect x="0" y="567.512" width="60.8068" height="29.0638" class="st4"/>
			<text x="4" y="579.34" class="st5">Trust Center <tspan x="4" dy="1.2em" class="st3">present?</tspan></text>		</g>
		<g id="shape39-108" transform="translate(373.472,-93.8346)">
			<title>Sheet.39</title>
			<desc>Get Trust Center link key</desc>
			<rect x="0" y="555.473" width="95.2441" height="41.1024" class="st1"/>
			<text x="6.66" y="572.72" class="st2">Get Trust Center <tspan x="29.28" dy="1.2em" class="st3">link key</tspan></text>		</g>
		<g id="shape40-112" transform="translate(393.882,-139.556)">
			<title>Sheet.40</title>
			<desc>Yes</desc>
			<rect x="0" y="584.896" width="24.3323" height="11.6799" class="st4"/>
			<text x="4" y="593.44" class="st5">Yes</text>		</g>
		<g id="shape41-115" transform="translate(479.215,-161.166)">
			<title>Sheet.41</title>
			<desc>No</desc>
			<rect x="0" y="578.569" width="24.3323" height="18.0063" class="st4"/>
			<text x="4" y="590.27" class="st5">No</text>		</g>
		<g id="shape42-118" transform="translate(282.196,-534.91)">
			<title>Dynamic connector.214</title>
			<path d="M7.09 596.58 L7.09 615.87" class="st8"/>
		</g>
		<g id="shape43-124" transform="translate(282.196,-472.607)">
			<title>Dynamic connector.215</title>
			<path d="M7.09 596.58 L7.09 618.74" class="st8"/>
		</g>
		<g id="shape44-129" transform="translate(307.708,-491.033)">
			<title>Dynamic connector.216</title>
			<path d="M0 596.58 L46.49 596.58 L46.49 532.15 L68.42 532.15" class="st8"/>
		</g>
		<g id="shape45-134" transform="translate(282.196,-403.176)">
			<title>Dynamic connector.219</title>
			<path d="M7.09 596.58 L7.09 604.83" class="st8"/>
		</g>
		<g id="shape46-139" transform="translate(282.196,-351.916)">
			<title>Dynamic connector.220</title>
			<path d="M7.09 596.58 L7.09 606.84" class="st8"/>
		</g>
		<g id="shape47-144" transform="translate(406.301,-492.811)">
			<title>Dynamic connector.222</title>
			<path d="M0 596.58 L-32.63 596.58 L-32.63 665.66 L-63.24 665.66" class="st8"/>
		</g>
		<g id="shape48-149" transform="translate(307.708,-363.255)">
			<title>Dynamic connector.223</title>
			<path d="M0 589.49 L129.28 589.49" class="st8"/>
		</g>
		<g id="shape49-154" transform="translate(417.64,-534.91)">
			<title>Dynamic connector.224</title>
			<path d="M7.09 596.58 L7.09 614.09" class="st8"/>
		</g>
		<g id="shape50-159" transform="translate(443.152,-492.811)">
			<title>Dynamic connector.225</title>
			<path d="M0 596.58 L16.2 596.58 A2.3622 2.3622 0 1 1 20.93 596.58 L93.94 596.58 L93.94 1041.12" class="st8"/>
		</g>
		<g id="shape51-164" transform="translate(282.196,-294.386)">
			<title>Dynamic connector.226</title>
			<path d="M7.09 596.58 L7.09 608.14" class="st8"/>
		</g>
		<g id="shape52-169" transform="translate(307.708,-251.149)">
			<title>Dynamic connector.227</title>
			<path d="M0 589.49 L132.74 589.49" class="st8"/>
		</g>
		<g id="shape53-174" transform="translate(461.913,-273.545)">
			<title>Dynamic connector.228</title>
			<path d="M0 596.58 L0 555.18 L-118.85 555.18" class="st8"/>
		</g>
		<g id="shape54-179" transform="translate(480.339,-255.12)">
			<title>Dynamic connector.229</title>
			<path d="M0 596.58 L15.59 596.58 L15.59 516.2 L-18.76 516.2 L-18.76 505.94" class="st8"/>
		</g>
		<g id="shape55-184" transform="translate(373.472,-107.299)">
			<title>Dynamic connector.230</title>
			<path d="M0 589.49 L-51.53 589.49" class="st8"/>
		</g>
		<g id="shape56-189" transform="translate(82.9213,-63.3622)">
			<title>Dynamic connector.231</title>
			<path d="M0 596.58 L0 638.39 L367.22 638.39" class="st8"/>
		</g>
		<g id="shape57-194" transform="translate(144.333,-538.165)">
			<title>Dynamic connector.232</title>
			<path d="M0 596.58 L0 626.89 L-61.41 626.89 L-61.41 1024.12" class="st8"/>
		</g>
		<g id="shape58-199" transform="translate(161.629,-548.374)">
			<title>Dynamic connector.233</title>
			<path d="M0 589.49 L73.87 589.49" class="st8"/>
		</g>
		<g id="shape59-204" transform="translate(270.858,-258.235)">
			<title>Dynamic connector.234</title>
			<path d="M0 596.58 L-42.66 596.58 L-42.66 626.85" class="st8"/>
		</g>
		<g id="shape61-209" transform="translate(439.519,-165.409)">
			<title>Dynamic connector.238</title>
			<path d="M0 596.58 L58.11 596.58 L58.11 678.07 L-139.8 678.07 A2.3622 2.3622 -180 0 0 -144.52 678.07 L-297.15 678.07"
					class="st8"/>
		</g>
		<g id="shape62-214" transform="translate(428.18,-148.047)">
			<title>Dynamic connector.239</title>
			<path d="M-7.09 597.64 L-7.09 603.53" class="st8"/>
		</g>
		<g id="shape63-219" transform="translate(439.948,-293.815)">
			<title>Sheet.63</title>
			<desc>Yes</desc>
			<rect x="0" y="578.569" width="24.3323" height="18.0063" class="st4"/>
			<text x="4" y="590.27" class="st5">Yes</text>		</g>
		<g id="shape64-222" transform="translate(307.708,-239.81)">
			<title>Sheet.64</title>
			<desc>No</desc>
			<rect x="0" y="578.569" width="24.3323" height="18.0063" class="st4"/>
			<text x="4" y="590.27" class="st5">No</text>		</g>
		<g id="shape66-225" transform="translate(443.152,-477.832)">
			<title>Sheet.66</title>
			<desc>No</desc>
			<rect x="0" y="584.431" width="24.3323" height="12.1448" class="st4"/>
			<text x="4" y="593.2" class="st5">No</text>		</g>
		<g id="shape67-228" transform="translate(381.969,-474.386)">
			<title>Sheet.67</title>
			<desc>Yes</desc>
			<rect x="0" y="578.569" width="24.3323" height="18.0063" class="st4"/>
			<text x="4" y="590.27" class="st5">Yes</text>		</g>
		<g id="shape68-231" transform="translate(107.583,-548.374)">
			<title>Dynamic connector</title>
			<path d="M0 589.49 L13.29 589.49" class="st8"/>
		</g>
		<g id="shape69-236" transform="translate(39.7343,-177.183) rotate(-45)">
			<title>Sheet.69</title>
			<rect x="0" y="570.518" width="26.0572" height="26.0572" class="st1"/>
		</g>
		<g id="shape70-238" transform="translate(400.582,-370.341)">
			<title>Sheet.70</title>
			<desc>2ry channels scanned?</desc>
			<rect x="0" y="567.512" width="60.8068" height="29.0638" class="st4"/>
			<text x="4" y="579.34" class="st5">2ry channels <tspan x="4" dy="1.2em" class="st3">scanned?</tspan></text>		</g>
		<g id="shape71-242" transform="translate(454.588,-388.766)">
			<title>Dynamic connector.71</title>
			<path d="M6.99 596.58 L7.18 456.59" class="st8"/>
		</g>
		<g id="shape72-247" transform="translate(480.002,-370.341)">
			<title>Dynamic connector.72</title>
			<path d="M0 596.58 L43.7 596.58 L43.7 918.65" class="st8"/>
		</g>
		<g id="shape73-252" transform="translate(473.966,-351.916)">
			<title>Sheet.73</title>
			<desc>Yes</desc>
			<rect x="0" y="578.569" width="24.3323" height="18.0063" class="st4"/>
			<text x="4" y="590.27" class="st5">Yes</text>		</g>
		<g id="shape74-255" transform="translate(443.152,-399.405)">
			<title>Sheet.74</title>
			<desc>No</desc>
			<rect x="0" y="584.431" width="24.3323" height="12.1448" class="st4"/>
			<text x="4" y="593.2" class="st5">No</text>		</g>
		<g id="shape75-258" transform="translate(185.535,-180.702)">
			<title>Sheet.75</title>
			<desc>Get network key</desc>
			<rect x="0" y="555.473" width="95.2441" height="41.1024" class="st1"/>
			<text x="7.88" y="579.32" class="st2">Get network key</text>		</g>
		<g id="shape77-261" transform="translate(257.532,-35.3745)">
			<title>Sheet.77</title>
			<desc>Leave network (end)</desc>
			<rect x="0" y="567.512" width="79.6536" height="29.0638" class="st1"/>
			<text x="4.06" y="578.74" class="st2">Leave network <tspan x="26.99" dy="1.2em" class="st3">(end)</tspan></text>		</g>
		<g id="shape78-265" transform="translate(-66.2285,-8.0946) rotate(-45)">
			<title>Sheet.78</title>
			<rect x="0" y="570.518" width="26.0572" height="26.0572" class="st1"/>
		</g>
		<g id="shape79-267" transform="translate(291.835,-206.093)">
			<title>Sheet.79</title>
			<desc>Got the key?</desc>
			<rect x="0" y="577.39" width="60.8068" height="19.1854" class="st4"/>
			<text x="4" y="589.68" class="st5">Got the key?</text>		</g>
		<g id="shape80-270" transform="translate(280.78,-194.166)">
			<title>Dynamic connector.80</title>
			<path d="M0 589.49 L50.25 589.49" class="st8"/>
		</g>
		<g id="shape81-275" transform="translate(374.039,-201.253)">
			<title>Dynamic connector.81</title>
			<path d="M0 596.58 L47.05 596.58 L47.05 607.83" class="st8"/>
		</g>
		<g id="shape82-280" transform="translate(370.118,-183.835)">
			<title>Sheet.82</title>
			<desc>Yes</desc>
			<rect x="0" y="584.896" width="24.3323" height="11.6799" class="st4"/>
			<text x="4" y="593.44" class="st5">Yes</text>		</g>
		<g id="shape83-283" transform="translate(355.614,-219.678)">
			<title>Dynamic connector.83</title>
			<path d="M0 596.58 L0 589.9 L106.3 589.9 L106.3 585.72" class="st8"/>
		</g>
		<g id="shape84-288" transform="translate(352.641,-227.691)">
			<title>Sheet.84</title>
			<desc>No</desc>
			<rect x="0" y="578.569" width="24.3323" height="18.0063" class="st4"/>
			<text x="4" y="590.27" class="st5">No</text>		</g>
		<g id="shape85-291" transform="translate(-124.484,78.7723) rotate(-45)">
			<title>Sheet.85</title>
			<rect x="0" y="570.518" width="26.0572" height="26.0572" class="st1"/>
		</g>
		<g id="shape86-293" transform="translate(304.162,-115.752)">
			<title>Sheet.86</title>
			<desc>Got the key?</desc>
			<rect x="0" y="577.39" width="60.8068" height="19.1854" class="st4"/>
			<text x="4" y="589.68" class="st5">Got the key?</text>		</g>
		<g id="shape87-296" transform="translate(278.933,-116.512)">
			<title>Dynamic connector.87</title>
			<path d="M0 598.7 L-196.01 598.7 L-196.01 602.46" class="st8"/>
		</g>
		<g id="shape88-301" transform="translate(290.272,-95.9606)">
			<title>Dynamic connector.88</title>
			<path d="M7.09 596.58 L7.09 621.94" class="st8"/>
		</g>
		<g id="shape89-306" transform="translate(254.601,-101.289)">
			<title>Sheet.89</title>
			<desc>Yes</desc>
			<rect x="0" y="584.896" width="24.3323" height="11.6799" class="st4"/>
			<text x="4" y="593.44" class="st5">Yes</text>		</g>
		<g id="shape90-309" transform="translate(300.339,-85.6981)">
			<title>Sheet.90</title>
			<desc>No</desc>
			<rect x="0" y="584.896" width="24.3323" height="11.6799" class="st4"/>
			<text x="4" y="593.44" class="st5">No</text>		</g>
	</g>
</svg>
