<?xml version="1.0" encoding="UTF-8" standalone="no"?>
<!DOCTYPE svg PUBLIC "-//W3C//DTD SVG 1.1//EN" "http://www.w3.org/Graphics/SVG/1.1/DTD/svg11.dtd">
<!-- Generated by Microsoft Visio, SVG Export zigbee_platform_design_soc.svg Page-1 -->
<svg xmlns="http://www.w3.org/2000/svg" xmlns:xlink="http://www.w3.org/1999/xlink" xmlns:ev="http://www.w3.org/2001/xml-events"
		width="3.76794in" height="3.91164in" viewBox="0 0 271.291 281.638" xml:space="preserve" color-interpolation-filters="sRGB"
		class="st13">
	<style type="text/css">
	<![CDATA[
		.st1 {fill:#6ad1e3;stroke:#feffff;stroke-width:1}
		.st2 {stroke:none;stroke-linecap:round;stroke-linejoin:round;stroke-width:0.75}
		.st3 {fill:#333f48;font-family:Calibri;font-size:1.5em}
		.st4 {fill:#0033a0;stroke:none;stroke-width:1}
		.st5 {fill:#feffff;font-family:Calibri;font-size:1.16666em}
		.st6 {fill:#00a9ce;stroke:none;stroke-width:1}
		.st7 {fill:#ffffff;font-family:Calibri;font-size:1.16666em}
		.st8 {fill:#0077c8;stroke:none;stroke-width:1}
		.st9 {fill:#ffffff;font-family:Calibri;font-size:1.00001em}
		.st10 {fill:#ffffff;font-family:Calibri;font-size:0.833336em}
		.st11 {fill:#ffffff;font-family:Calibri;font-size:0.916672em}
		.st12 {fill:#768692;stroke:none;stroke-width:1}
		.st13 {fill:none;fill-rule:evenodd;font-size:12px;overflow:visible;stroke-linecap:square;stroke-miterlimit:3}
	]]>
	</style>

	<g>
		<title>Page-1</title>
		<g id="shape144-1" transform="translate(1,-1)">
			<title>Sheet.144</title>
			<path d="M269.29 2 L0 2 L0 281.64 L269.29 281.64 L269.29 2 Z" class="st1"/>
		</g>
		<g id="shape145-3" transform="translate(198.433,-13.1546)">
			<title>Sheet.145</title>
			<desc>nRF SoC</desc>
			<path d="M64.1 258.54 L0 258.54 L0 281.64 L64.1 281.64 L64.1 258.54" class="st2"/>
			<text x="2.58" y="275.49" class="st3">nRF SoC</text>		</g>
		<g id="shape146-7" transform="translate(8.08662,-245.971)">
			<title>Sheet.146</title>
			<desc>Application</desc>
			<path d="M0 252.64 L0 281.64 L255.12 281.64 L255.12 252.64 L0 252.64 L0 252.64 Z" class="st4"/>
			<text x="95.31" y="271.34" class="st5">Application</text>		</g>
		<g id="shape148-10" transform="translate(8.08662,-127.919)">
			<title>Sheet.148</title>
			<path d="M0 170.45 L0 281.64 L255.12 281.64 L255.12 170.45 L0 170.45 L0 170.45 Z" class="st6"/>
		</g>
		<g id="shape149-12" transform="translate(23.3773,-213.639)">
			<title>Sheet.149</title>
			<desc>Zigbee stack (ZBOSS)</desc>
			<path d="M230.79 261.84 L0 261.84 L0 281.64 L230.79 281.64 L230.79 261.84" class="st2"/>
			<text x="56.43" y="275.94" class="st7">Zigbee stack (ZBOSS)</text>		</g>
		<g id="shape150-16" transform="translate(41.4577,-136.966)">
			<title>Sheet.150</title>
			<path d="M192.33 258.54 L0 258.54 L0 281.64 L192.33 281.64 L192.33 258.54 Z" class="st8"/>
		</g>
		<g id="shape151-18" transform="translate(89.2657,-142.573)">
			<title>Sheet.151</title>
			<desc>IEEE 802.15.4 MAC</desc>
			<path d="M96.71 269.76 L0 269.76 L0 281.64 L96.71 281.64 L96.71 269.76" class="st2"/>
			<text x="2.27" y="279.3" class="st9">IEEE 802.15.4 MAC</text>		</g>
		<g id="shape152-22" transform="translate(41.4577,-187.989)">
			<title>Sheet.152</title>
			<path d="M192.33 258.54 L0 258.54 L0 281.64 L192.33 281.64 L192.33 258.54 Z" class="st8"/>
		</g>
		<g id="shape153-24" transform="translate(41.2519,-187.989)">
			<title>Sheet.153</title>
			<desc>Zigbee app layer (ZCL)</desc>
			<path d="M192.33 258.54 L0 258.54 L0 281.64 L192.33 281.64 L192.33 258.54" class="st2"/>
			<text x="42.57" y="273.69" class="st9">Zigbee app layer (ZCL)</text>		</g>
		<g id="shape154-28" transform="translate(41.4577,-162.477)">
			<title>Sheet.154</title>
			<path d="M192.33 258.54 L0 258.54 L0 281.64 L192.33 281.64 L192.33 258.54 Z" class="st8"/>
		</g>
		<g id="shape155-30" transform="translate(41.4577,-162.477)">
			<title>Sheet.155</title>
			<desc>Zigbee PRO + Green Power</desc>
			<path d="M192.33 258.54 L0 258.54 L0 281.64 L192.33 281.64 L192.33 258.54" class="st2"/>
			<text x="30.66" y="273.69" class="st9">Zigbee PRO + Green Power</text>		</g>
		<g id="shape156-34" transform="translate(92.1339,-45.0498)">
			<title>Sheet.156</title>
			<path d="M171.21 233.45 L0 233.45 L0 281.64 L171.21 281.64 L171.21 233.45 Z" class="st6"/>
		</g>
		<g id="shape157-36" transform="translate(92.1339,-74.3672)">
			<title>Sheet.157</title>
			<desc>nRF IEEE 802.15.4 radio driver</desc>
			<path d="M171.21 268.44 L0 268.44 L0 281.64 L171.21 281.64 L171.21 268.44" class="st2"/>
			<text x="12.37" y="278.64" class="st9">nRF IEEE 802.15.4 radio driver</text>		</g>
		<g id="shape158-40" transform="translate(98.7921,-50.5089)">
			<title>Sheet.158</title>
			<desc>IEEE 802.15.4 PHY</desc>
			<path d="M156.18 261.84 L0 261.84 L0 281.64 L156.18 281.64 L156.18 261.84 Z" class="st8"/>
			<text x="41.38" y="274.74" class="st10">IEEE 802.15.4 PHY</text>		</g>
		<g id="group160-43" transform="translate(7.91024,-10.2044)">
			<title>Sheet.160</title>
			<desc>Secure boot</desc>
			<g id="shape161-44">
				<title>Sheet.161</title>
				<rect x="0" y="252.64" width="175.039" height="28.9978" class="st8"/>
			</g>
			<g id="shape160-46">
				<text x="10.61" y="270.44" class="st11">Multiprotocol Service Layer (MPSL)</text>			</g>
		</g>
		<g id="group162-48" transform="translate(92.1339,-99.2402)">
			<title>Sheet.162</title>
			<desc>Secure boot</desc>
			<g id="shape163-49">
				<title>Sheet.163</title>
				<rect x="0" y="258.961" width="171.071" height="22.6772" class="st12"/>
			</g>
			<g id="shape162-51">
				<text x="36.81" y="273.9" class="st9">Zephyr integration</text>			</g>
		</g>
	</g>
</svg>
