<?xml version="1.0" encoding="UTF-8" standalone="no"?>
<!DOCTYPE svg PUBLIC "-//W3C//DTD SVG 1.1//EN" "http://www.w3.org/Graphics/SVG/1.1/DTD/svg11.dtd">
<!-- Generated by Microsoft Visio, SVG Export zigbee_platform_design_multi.svg Page-1 -->
<svg xmlns="http://www.w3.org/2000/svg" xmlns:xlink="http://www.w3.org/1999/xlink" xmlns:ev="http://www.w3.org/2001/xml-events"
		width="6.93819in" height="5.09252in" viewBox="0 0 499.55 366.661" xml:space="preserve" color-interpolation-filters="sRGB"
		class="st18">
	<style type="text/css">
	<![CDATA[
		.st1 {fill:#0077c8;fill-opacity:0.58;stroke:none;stroke-linecap:round;stroke-linejoin:round;stroke-width:0.75}
		.st2 {stroke:none;stroke-linecap:round;stroke-linejoin:round;stroke-width:0.75}
		.st3 {fill:#ffffff;font-family:Gotham Light;font-size:1.81764em}
		.st4 {fill:#0033a0;stroke:none;stroke-width:1}
		.st5 {fill:#ffffff;font-family:Gotham Light;font-size:1.12521em}
		.st6 {fill:#6ad1e3;stroke:none;stroke-width:1}
		.st7 {fill:#ffffff;font-family:Gotham Light;font-size:1.29833em}
		.st8 {fill:#00a9ce;stroke:#feffff;stroke-width:1}
		.st9 {fill:#ffffff;font-family:Gotham Light;font-size:1.00001em}
		.st10 {fill:#ffffff;font-family:Gotham Light;font-size:0.833336em}
		.st11 {font-size:1em}
		.st12 {fill:#a4e6ff;fill-opacity:0.55;stroke:none;stroke-linecap:round;stroke-linejoin:round;stroke-width:0.75}
		.st13 {fill:#ffffff;font-family:Gotham Light;font-size:0.952103em}
		.st14 {fill:#0075c8;stroke:#0075c8;stroke-linecap:round;stroke-linejoin:round;stroke-width:0.064891}
		.st15 {fill:#ffffff;font-family:Gotham Light;font-size:0.778999em}
		.st16 {fill:#ffffff;font-family:Gotham Light;font-size:0.666664em}
		.st17 {fill:#ffffff;font-family:Gotham Light;font-size:0.75em}
		.st18 {fill:none;fill-rule:evenodd;font-size:12px;overflow:visible;stroke-linecap:square;stroke-miterlimit:3}
	]]>
	</style>

	<g>
		<title>Page-1</title>
		<g id="shape55-1" transform="translate(18,-18)">
			<title>Sheet.55</title>
			<path d="M463.55 36 L0 36 L0 366.66 L463.55 366.66 L463.55 36 Z" class="st1"/>
		</g>
		<g id="shape56-3" transform="translate(360,-20.864)">
			<title>Sheet.56</title>
			<desc>nRF SoC</desc>
			<path d="M121.55 338.94 L0 338.94 L0 366.66 L121.55 366.66 L121.55 338.94" class="st2"/>
			<text x="13.72" y="359.34" class="st3">nRF SoC</text>		</g>
		<g id="shape59-7" transform="translate(22.3443,-294.803)">
			<title>Sheet.59</title>
			<path d="M0 318.27 L0 366.66 L451.55 366.66 L451.55 318.27 L0 318.27 L0 318.27 Z" class="st4"/>
		</g>
		<g id="shape60-9" transform="translate(199.724,-310.42)">
			<title>Sheet.60</title>
			<desc>Application</desc>
			<path d="M97.89 349.5 L0 349.5 L0 366.66 L97.89 366.66 L97.89 349.5" class="st2"/>
			<text x="10.77" y="362.13" class="st5">Application</text>		</g>
		<g id="shape61-13" transform="translate(22.3443,-53.8583)">
			<title>Sheet.61</title>
			<path d="M0 131.15 L0 366.66 L192.33 366.66 L192.33 131.15 L0 131.15 L0 131.15 Z" class="st6"/>
		</g>
		<g id="shape62-15" transform="translate(22.337,-262.387)">
			<title>Sheet.62</title>
			<desc>Bluetooth LE stack</desc>
			<path d="M192.33 346.86 L0 346.86 L0 366.66 L192.33 366.66 L192.33 346.86" class="st2"/>
			<text x="23.35" y="361.43" class="st7">Bluetooth LE stack</text>		</g>
		<g id="shape67-19" transform="translate(220.17,-121.89)">
			<title>Sheet.67</title>
			<path d="M0 199.18 L0 366.66 L253.88 366.66 L253.88 199.18 L0 199.18 L0 199.18 Z" class="st6"/>
		</g>
		<g id="shape71-21" transform="translate(235.061,-263.622)">
			<title>Sheet.71</title>
			<desc>Zigbee stack (ZBOSS)</desc>
			<path d="M230.79 346.86 L0 346.86 L0 366.66 L230.79 366.66 L230.79 346.86" class="st2"/>
			<text x="29.49" y="361.43" class="st7">Zigbee stack (ZBOSS)</text>		</g>
		<g id="shape117-25" transform="translate(35.9665,-154.63)">
			<title>Sheet.117</title>
			<desc>Zephyr host</desc>
			<rect x="0" y="260.646" width="159.591" height="106.016" class="st8"/>
			<text x="43.9" y="271.45" class="st9">Zephyr host</text>		</g>
		<g id="group107-28" transform="translate(178.668,-21.2597)">
			<title>Sheet.107</title>
			<desc>Secure boot</desc>
			<g id="shape108-29">
				<title>Sheet.108</title>
				<rect x="0" y="339.732" width="154.623" height="26.9293" class="st6"/>
			</g>
			<g id="shape107-31">
				<text x="10.9" y="350.2" class="st10">Multiprotocol Service Layer <tspan x="60.4" dy="1.2em" class="st11">(MPSL)</tspan></text>			</g>
		</g>
		<g id="shape118-34" transform="translate(35.6593,-73.4503)">
			<title>Sheet.118</title>
			<desc>nRF Bluetooth LE Controller</desc>
			<rect x="0" y="338.064" width="159.591" height="28.5969" class="st8"/>
			<text x="27.37" y="348.76" class="st9">nRF Bluetooth LE <tspan x="50.29" dy="1.2em" class="st11">Controller</tspan></text>		</g>
		<g id="shape82-38" transform="translate(43.7738,-165.969)">
			<title>Sheet.82</title>
			<path d="M66.44 343.94 L0 343.94 L0 366.66 L66.44 366.66 L66.44 343.94 Z" class="st12"/>
		</g>
		<g id="shape83-40" transform="translate(50.4186,-172.489)">
			<title>Sheet.83</title>
			<desc>L2CAP</desc>
			<path d="M51.55 356.99 L0 356.99 L0 366.66 L51.55 366.66 L51.55 356.99" class="st2"/>
			<text x="6.33" y="365.25" class="st13">L2CAP</text>		</g>
		<g id="shape78-44" transform="translate(43.7738,-216.992)">
			<title>Sheet.78</title>
			<path d="M66.44 343.98 L0 343.98 L0 366.66 L66.44 366.66 L66.44 343.98 Z" class="st12"/>
		</g>
		<g id="shape79-46" transform="translate(54.2792,-223.501)">
			<title>Sheet.79</title>
			<desc>GATT</desc>
			<path d="M43.83 357 L0 357 L0 366.66 L43.83 366.66 L43.83 357" class="st2"/>
			<text x="5.63" y="365.26" class="st13">GATT</text>		</g>
		<g id="shape80-50" transform="translate(43.7738,-191.206)">
			<title>Sheet.80</title>
			<path d="M66.44 343.98 L0 343.98 L0 366.66 L66.44 366.66 L66.44 343.98 Z" class="st12"/>
		</g>
		<g id="shape81-52" transform="translate(59.9103,-197.382)">
			<title>Sheet.81</title>
			<desc>ATT</desc>
			<path d="M32.92 356.34 L0 356.34 L0 366.66 L32.92 366.66 L32.92 356.34" class="st2"/>
			<text x="4.66" y="364.93" class="st13">ATT</text>		</g>
		<g id="shape88-56" transform="translate(113.078,-216.992)">
			<title>Sheet.88</title>
			<path d="M73.64 343.9 L0 343.9 L0 366.66 L73.64 366.66 L73.64 343.9 Z" class="st12"/>
		</g>
		<g id="shape89-58" transform="translate(132.21,-223.525)">
			<title>Sheet.89</title>
			<desc>GAP</desc>
			<path d="M35.37 356.97 L0 356.97 L0 366.66 L35.37 366.66 L35.37 356.97" class="st2"/>
			<text x="4.88" y="365.24" class="st13">GAP</text>		</g>
		<g id="shape84-62" transform="translate(113.078,-165.969)">
			<title>Sheet.84</title>
			<path d="M73.64 318.47 L0 318.47 L0 366.66 L73.64 366.66 L73.64 318.47 Z" class="st12"/>
		</g>
		<g id="shape85-64" transform="translate(137.173,-184.859)">
			<title>Sheet.85</title>
			<desc>SM</desc>
			<path d="M25.16 356.25 L0 356.25 L0 366.66 L25.16 366.66 L25.16 356.25" class="st2"/>
			<text x="3.97" y="364.89" class="st13">SM</text>		</g>
		<g id="shape119-68" transform="translate(477.717,213.732) rotate(90)">
			<title>Sheet.119</title>
			<path d="M4.6 361.71 L43.63 361.71 L43.63 362.81 L4.6 362.81 L4.6 361.71 L4.6 361.71 ZM5.5 366.66 L0 362.26 L5.5 357.86
						 L5.5 366.66 L5.5 366.66 ZM42.69 357.86 L48.19 362.26 L42.69 366.66 L42.69 357.86 L42.69 357.86 Z"
					class="st14"/>
		</g>
		<g id="shape120-70" transform="translate(116.641,-122.893)">
			<title>Sheet.120</title>
			<desc>HCI (RAM)</desc>
			<path d="M55.93 354.78 L0 354.78 L0 366.66 L55.93 366.66 L55.93 354.78" class="st2"/>
			<text x="3.11" y="363.52" class="st15">HCI (RAM)</text>		</g>
		<g id="group187-74" transform="translate(302.967,-94.1712)">
			<title>Sheet.187</title>
			<desc>Secure boot</desc>
			<g id="shape188-75" transform="translate(1.74261E-12,-2.20677)">
				<title>Sheet.188</title>
				<rect x="0" y="346.819" width="171" height="19.8425" class="st6"/>
			</g>
			<g id="shape187-77">
				<text x="35.98" y="358.64" class="st10">Zephyr integration</text>			</g>
		</g>
		<g id="shape100-79" transform="translate(302.967,-53.8583)">
			<title>Sheet.100</title>
			<path d="M171 329.81 L0 329.81 L0 366.66 L171 366.66 L171 329.81 Z" class="st6"/>
		</g>
		<g id="shape102-81" transform="translate(302.967,-79.3908)">
			<title>Sheet.102</title>
			<desc>nRF IEEE 802.15.4 radio driver</desc>
			<path d="M169.08 356.18 L0 356.18 L0 366.66 L169.08 366.66 L169.08 356.18" class="st2"/>
			<text x="25.07" y="363.82" class="st16">nRF IEEE 802.15.4 radio driver</text>		</g>
		<g id="shape103-85" transform="translate(309.673,-58.1935)">
			<title>Sheet.103</title>
			<path d="M157.3 348.32 L0 348.32 L0 366.66 L157.3 366.66 L157.3 348.32 Z" class="st8"/>
		</g>
		<g id="shape104-87" transform="translate(309.673,-61.5983)">
			<title>Sheet.104</title>
			<desc>IEEE 802.15.4 PHY</desc>
			<path d="M157.3 355.13 L0 355.13 L0 366.66 L157.3 366.66 L157.3 355.13" class="st2"/>
			<text x="38.05" y="363.6" class="st17">IEEE 802.15.4 PHY</text>		</g>
		<g id="shape191-91" transform="translate(251.781,-184.252)">
			<title>Sheet.191</title>
			<path d="M192.33 343.56 L0 343.56 L0 366.66 L192.33 366.66 L192.33 343.56 Z" class="st8"/>
		</g>
		<g id="shape192-93" transform="translate(299.589,-189.859)">
			<title>Sheet.192</title>
			<desc>IEEE 802.15.4 MAC</desc>
			<path d="M96.71 354.78 L0 354.78 L0 366.66 L96.71 366.66 L96.71 354.78" class="st2"/>
			<text x="4.99" y="363.52" class="st15">IEEE 802.15.4 MAC</text>		</g>
		<g id="shape193-97" transform="translate(251.781,-235.276)">
			<title>Sheet.193</title>
			<path d="M192.33 343.56 L0 343.56 L0 366.66 L192.33 366.66 L192.33 343.56 Z" class="st8"/>
		</g>
		<g id="shape194-99" transform="translate(251.575,-235.276)">
			<title>Sheet.194</title>
			<desc>Zigbee App Layer (ZCL)</desc>
			<path d="M192.33 343.56 L0 343.56 L0 366.66 L192.33 366.66 L192.33 343.56" class="st2"/>
			<text x="39.61" y="357.92" class="st15">Zigbee App Layer (ZCL)</text>		</g>
		<g id="shape195-103" transform="translate(251.781,-209.764)">
			<title>Sheet.195</title>
			<path d="M192.33 343.56 L0 343.56 L0 366.66 L192.33 366.66 L192.33 343.56 Z" class="st8"/>
		</g>
		<g id="shape196-105" transform="translate(251.781,-209.764)">
			<title>Sheet.196</title>
			<desc>Zigbee PRO + Green Power</desc>
			<path d="M192.33 343.56 L0 343.56 L0 366.66 L192.33 366.66 L192.33 343.56" class="st2"/>
			<text x="32.58" y="357.92" class="st15">Zigbee PRO + Green Power</text>		</g>
	</g>
</svg>
