<?xml version="1.0" encoding="UTF-8" standalone="no"?>
<!DOCTYPE svg PUBLIC "-//W3C//DTD SVG 1.1//EN" "http://www.w3.org/Graphics/SVG/1.1/DTD/svg11.dtd">
<!-- Generated by Microsoft Visio, SVG Export zigbee_platform_design_soc.svg Page-1 -->
<svg xmlns="http://www.w3.org/2000/svg" xmlns:xlink="http://www.w3.org/1999/xlink" xmlns:ev="http://www.w3.org/2001/xml-events"
		width="4.24016in" height="4.65945in" viewBox="0 0 305.291 335.48" xml:space="preserve" color-interpolation-filters="sRGB"
		class="st14">
	<style type="text/css">
	<![CDATA[
		.st1 {fill:#0077c8;fill-opacity:0.58;stroke:none;stroke-linecap:round;stroke-linejoin:round;stroke-width:0.75}
		.st2 {stroke:none;stroke-linecap:round;stroke-linejoin:round;stroke-width:0.75}
		.st3 {fill:#ffffff;font-family:Gotham Light;font-size:1.81764em}
		.st4 {fill:#0033a0;stroke:none;stroke-width:1}
		.st5 {fill:#ffffff;font-family:Gotham Light;font-size:1.12521em}
		.st6 {fill:#6ad1e3;stroke:none;stroke-width:1}
		.st7 {fill:#ffffff;font-family:Gotham Light;font-size:1.29833em}
		.st8 {fill:#00a9ce;stroke:#feffff;stroke-width:1}
		.st9 {fill:#ffffff;font-family:Gotham Light;font-size:0.778999em}
		.st10 {fill:#ffffff;font-family:Gotham Light;font-size:0.666664em}
		.st11 {font-size:1em}
		.st12 {fill:#ffffff;font-family:Gotham Light;font-size:0.75em}
		.st13 {fill:#ffffff;font-family:Gotham Light;font-size:0.833336em}
		.st14 {fill:none;fill-rule:evenodd;font-size:12px;overflow:visible;stroke-linecap:square;stroke-miterlimit:3}
	]]>
	</style>

	<g>
		<title>Page-1</title>
		<g id="shape55-1" transform="translate(18,-18)">
			<title>Sheet.55</title>
			<path d="M269.29 36 L0 36 L0 335.48 L269.29 335.48 L269.29 36 Z" class="st1"/>
		</g>
		<g id="shape56-3" transform="translate(174.012,-31.4592)">
			<title>Sheet.56</title>
			<desc>nRF SoC</desc>
			<path d="M105.52 312.38 L0 312.38 L0 335.48 L105.52 335.48 L105.52 312.38" class="st2"/>
			<text x="5.7" y="330.48" class="st3">nRF SoC</text>		</g>
		<g id="shape59-7" transform="translate(25.0866,-263.416)">
			<title>Sheet.59</title>
			<path d="M0 287.09 L0 335.48 L255.12 335.48 L255.12 287.09 L0 287.09 L0 287.09 Z" class="st4"/>
		</g>
		<g id="shape60-9" transform="translate(25.8896,-279.033)">
			<title>Sheet.60</title>
			<desc>Application</desc>
			<path d="M253.88 318.32 L0 318.32 L0 335.48 L253.88 335.48 L253.88 318.32" class="st2"/>
			<text x="88.76" y="330.95" class="st5">Application</text>		</g>
		<g id="shape67-13" transform="translate(25.0866,-145.559)">
			<title>Sheet.67</title>
			<path d="M0 224.29 L0 335.48 L255.12 335.48 L255.12 224.29 L0 224.29 L0 224.29 Z" class="st6"/>
		</g>
		<g id="shape71-15" transform="translate(40.3773,-230.826)">
			<title>Sheet.71</title>
			<desc>Zigbee stack (ZBOSS)</desc>
			<path d="M230.79 315.68 L0 315.68 L0 335.48 L230.79 335.48 L230.79 315.68" class="st2"/>
			<text x="29.49" y="330.25" class="st7">Zigbee stack (ZBOSS)</text>		</g>
		<g id="shape72-19" transform="translate(58.4577,-155.27)">
			<title>Sheet.72</title>
			<path d="M192.33 312.38 L0 312.38 L0 335.48 L192.33 335.48 L192.33 312.38 Z" class="st8"/>
		</g>
		<g id="shape73-21" transform="translate(106.266,-160.878)">
			<title>Sheet.73</title>
			<desc>IEEE 802.15.4 MAC</desc>
			<path d="M96.71 323.6 L0 323.6 L0 335.48 L96.71 335.48 L96.71 323.6" class="st2"/>
			<text x="4.99" y="332.34" class="st9">IEEE 802.15.4 MAC</text>		</g>
		<g id="shape76-25" transform="translate(58.4577,-206.294)">
			<title>Sheet.76</title>
			<path d="M192.33 312.38 L0 312.38 L0 335.48 L192.33 335.48 L192.33 312.38 Z" class="st8"/>
		</g>
		<g id="shape77-27" transform="translate(58.2519,-206.294)">
			<title>Sheet.77</title>
			<desc>Zigbee App Layer (ZCL)</desc>
			<path d="M192.33 312.38 L0 312.38 L0 335.48 L192.33 335.48 L192.33 312.38" class="st2"/>
			<text x="39.61" y="326.74" class="st9">Zigbee App Layer (ZCL)</text>		</g>
		<g id="shape90-31" transform="translate(58.4577,-180.782)">
			<title>Sheet.90</title>
			<path d="M192.33 312.38 L0 312.38 L0 335.48 L192.33 335.48 L192.33 312.38 Z" class="st8"/>
		</g>
		<g id="shape91-33" transform="translate(58.4577,-180.782)">
			<title>Sheet.91</title>
			<desc>Zigbee PRO + Green Power</desc>
			<path d="M192.33 312.38 L0 312.38 L0 335.48 L192.33 335.48 L192.33 312.38" class="st2"/>
			<text x="32.58" y="326.74" class="st9">Zigbee PRO + Green Power</text>		</g>
		<g id="shape100-37" transform="translate(109.134,-63.3543)">
			<title>Sheet.100</title>
			<path d="M171.21 287.29 L0 287.29 L0 335.48 L171.21 335.48 L171.21 287.29 Z" class="st6"/>
		</g>
		<g id="shape102-39" transform="translate(109.134,-95.5064)">
			<title>Sheet.102</title>
			<desc>nRF IEEE 802.15.4 radio driver</desc>
			<path d="M171.21 322.28 L0 322.28 L0 335.48 L171.21 335.48 L171.21 322.28" class="st2"/>
			<text x="50.13" y="326.48" class="st10">nRF IEEE 802.15.4 <tspan x="62.81" dy="1.2em" class="st11">radio driver</tspan></text>		</g>
		<g id="shape103-44" transform="translate(115.792,-68.8134)">
			<title>Sheet.103</title>
			<path d="M156.18 312.38 L0 312.38 L0 335.48 L156.18 335.48 L156.18 312.38 Z" class="st8"/>
		</g>
		<g id="shape104-46" transform="translate(115.792,-73.1011)">
			<title>Sheet.104</title>
			<desc>IEEE 802.15.4 PHY</desc>
			<path d="M156.18 320.96 L0 320.96 L0 335.48 L156.18 335.48 L156.18 320.96" class="st2"/>
			<text x="37.49" y="330.92" class="st12">IEEE 802.15.4 PHY</text>		</g>
		<g id="group107-50" transform="translate(24.9102,-28.509)">
			<title>Sheet.107</title>
			<desc>Secure boot</desc>
			<g id="shape108-51">
				<title>Sheet.108</title>
				<rect x="0" y="306.483" width="130.159" height="28.9978" class="st6"/>
			</g>
			<g id="shape107-53">
				<text x="13.76" y="317.98" class="st13">Multiprotocol Service <tspan x="32.66" dy="1.2em" class="st11">Layer (MPSL)</tspan></text>			</g>
		</g>
		<g id="group187-56" transform="translate(109.134,-117.213)">
			<title>Sheet.187</title>
			<desc>Secure boot</desc>
			<g id="shape188-57">
				<title>Sheet.188</title>
				<rect x="0" y="312.803" width="171.071" height="22.6772" class="st6"/>
			</g>
			<g id="shape187-59">
				<text x="36.02" y="327.14" class="st13">Zephyr integration</text>			</g>
		</g>
	</g>
</svg>
