<?xml version="1.0" encoding="UTF-8" standalone="no"?>
<!DOCTYPE svg PUBLIC "-//W3C//DTD SVG 1.1//EN" "http://www.w3.org/Graphics/SVG/1.1/DTD/svg11.dtd">
<!-- Generated by Microsoft Visio, SVG Export zigbee_platform_design_nRF5340_multi.svg Page-1 -->
<svg xmlns="http://www.w3.org/2000/svg" xmlns:xlink="http://www.w3.org/1999/xlink" xmlns:ev="http://www.w3.org/2001/xml-events"
		width="6.46585in" height="5.61074in" viewBox="0 0 465.541 403.973" xml:space="preserve" color-interpolation-filters="sRGB"
		class="st20">
	<style type="text/css">
	<![CDATA[
		.st1 {fill:#6ad1e3;stroke:#feffff;stroke-width:1}
		.st2 {stroke:none;stroke-linecap:round;stroke-linejoin:round;stroke-width:0.75}
		.st3 {fill:#333f48;font-family:Calibri;font-size:1.5em}
		.st4 {fill:#0033a0;stroke:none;stroke-width:1}
		.st5 {fill:#feffff;font-family:Calibri;font-size:1.5em}
		.st6 {fill:#00a9ce;stroke:none;stroke-width:1}
		.st7 {fill:#ffffff;font-family:Calibri;font-size:1.16666em}
		.st8 {fill:#768692;stroke:none;stroke-width:1}
		.st9 {fill:#ffffff;font-family:Calibri;font-size:1.00001em}
		.st10 {fill:#333f48;fill-opacity:0.55;stroke:none;stroke-linecap:round;stroke-linejoin:round;stroke-width:0.75}
		.st11 {fill:#feffff;font-family:Calibri;font-size:1.00001em}
		.st12 {fill:#0077c8;stroke:none;stroke-width:1}
		.st13 {font-size:0.83333em}
		.st14 {marker-end:url(#mrkr13-83);marker-start:url(#mrkr13-81);stroke:#333f48;stroke-linecap:butt;stroke-width:1}
		.st15 {fill:#333f48;fill-opacity:1;stroke:#333f48;stroke-opacity:1;stroke-width:0.35714285714286}
		.st16 {fill:#333f48;fill-opacity:1;stroke:#333f48;stroke-opacity:1;stroke-width:0.28409090909091}
		.st17 {fill:#ffffff;font-family:Calibri;font-size:0.833336em}
		.st18 {fill:none;stroke:none;stroke-width:1}
		.st19 {fill:#333f48;font-family:Calibri;font-size:1.00001em}
		.st20 {fill:none;fill-rule:evenodd;font-size:12px;overflow:visible;stroke-linecap:square;stroke-miterlimit:3}
	]]>
	</style>

	<defs id="Markers">
		<g id="lend13">
			<path d="M 3 1 L 0 0 L 3 -1 L 3 1 " style="stroke:none"/>
		</g>
		<marker id="mrkr13-81" class="st15" refX="8.04" orient="auto" markerUnits="strokeWidth" overflow="visible">
			<use xlink:href="#lend13" transform="scale(2.8) "/>
		</marker>
		<marker id="mrkr13-83" class="st16" refX="-10.56" orient="auto" markerUnits="strokeWidth" overflow="visible">
			<use xlink:href="#lend13" transform="scale(-3.52,-3.52) "/>
		</marker>
	</defs>
	<g>
		<title>Page-1</title>
		<g id="shape99-1" transform="translate(1.33429,-144.294)">
			<title>Sheet.99</title>
			<path d="M463.21 145.29 L0 145.29 L0 403.97 L463.21 403.97 L463.21 145.29 Z" class="st1"/>
		</g>
		<g id="shape100-3" transform="translate(1.33429,-148.655)">
			<title>Sheet.100</title>
			<desc>nRF53 application core</desc>
			<path d="M462.87 381.76 L0 381.76 L0 403.97 L462.87 403.97 L462.87 381.76" class="st2"/>
			<text x="147.76" y="398.27" class="st3">nRF53 application core</text>		</g>
		<g id="shape101-7" transform="translate(5.78923,-344.836)">
			<title>Sheet.101</title>
			<desc>Application</desc>
			<path d="M0 351.44 L0 403.97 L450.57 403.97 L450.57 351.44 L0 351.44 L0 351.44 Z" class="st4"/>
			<text x="183.82" y="383.11" class="st5">Application</text>		</g>
		<g id="shape103-10" transform="translate(5.78923,-172.782)">
			<title>Sheet.103</title>
			<path d="M0 238.36 L0 403.97 L197.23 403.97 L197.23 238.36 L0 238.36 L0 238.36 Z" class="st6"/>
		</g>
		<g id="shape104-12" transform="translate(18.8765,-310.723)">
			<title>Sheet.104</title>
			<desc>Bluetooth速 LE stack</desc>
			<path d="M163.66 383.67 L0 383.67 L0 403.97 L163.66 403.97 L163.66 383.67" class="st2"/>
			<text x="25.85" y="398.02" class="st7">Bluetooth速 LE stack</text>		</g>
		<g id="shape105-16" transform="translate(208.653,-223.863)">
			<title>Sheet.105</title>
			<path d="M0 289.44 L0 403.97 L247.7 403.97 L247.7 289.44 L0 289.44 L0 289.44 Z" class="st6"/>
		</g>
		<g id="shape106-18" transform="translate(223.923,-311.989)">
			<title>Sheet.106</title>
			<desc>Zigbee stack (ZBOSS)</desc>
			<path d="M236.67 383.67 L0 383.67 L0 403.97 L236.67 403.97 L236.67 383.67" class="st2"/>
			<text x="59.37" y="398.02" class="st7">Zigbee stack (ZBOSS)</text>		</g>
		<g id="shape107-22" transform="translate(19.7584,-200.221)">
			<title>Sheet.107</title>
			<desc>Zephyr host</desc>
			<rect x="0" y="295.257" width="163.656" height="108.716" class="st8"/>
			<text x="52.89" y="309.4" class="st9">Zephyr host</text>		</g>
		<g id="shape108-25" transform="translate(27.7645,-211.848)">
			<title>Sheet.108</title>
			<desc>L2CAP</desc>
			<path d="M68.13 380.68 L0 380.68 L0 403.97 L68.13 403.97 L68.13 380.68 Z" class="st10"/>
			<text x="18.73" y="395.93" class="st11">L2CAP</text>		</g>
		<g id="shape110-28" transform="translate(27.7645,-264.172)">
			<title>Sheet.110</title>
			<desc>GATT</desc>
			<path d="M68.13 380.72 L0 380.72 L0 403.97 L68.13 403.97 L68.13 380.72 Z" class="st10"/>
			<text x="20.96" y="395.95" class="st11">GATT</text>		</g>
		<g id="shape112-31" transform="translate(27.7645,-237.729)">
			<title>Sheet.112</title>
			<desc>ATT</desc>
			<path d="M68.13 380.72 L0 380.72 L0 403.97 L68.13 403.97 L68.13 380.72 Z" class="st10"/>
			<text x="24.75" y="395.95" class="st11">ATT</text>		</g>
		<g id="shape114-34" transform="translate(98.8343,-264.172)">
			<title>Sheet.114</title>
			<desc>GAP</desc>
			<path d="M75.51 380.64 L0 380.64 L0 403.97 L75.51 403.97 L75.51 380.64 Z" class="st10"/>
			<text x="27.4" y="395.9" class="st11">GAP</text>		</g>
		<g id="shape116-37" transform="translate(98.8343,-211.848)">
			<title>Sheet.116</title>
			<desc>SM</desc>
			<path d="M75.51 354.56 L0 354.56 L0 403.97 L75.51 403.97 L75.51 354.56 Z" class="st10"/>
			<text x="29.87" y="382.87" class="st11">SM</text>		</g>
		<g id="group118-40" transform="translate(208.174,-197.626)">
			<title>Sheet.118</title>
			<desc>Secure boot</desc>
			<g id="shape119-41" transform="translate(2.52598E-12,-2.22344)">
				<title>Sheet.119</title>
				<rect x="0" y="383.981" width="248.607" height="19.9924" class="st8"/>
			</g>
			<g id="shape118-43">
				<text x="74.02" y="396.47" class="st9">Zephyr integration</text>			</g>
		</g>
		<g id="shape120-45" transform="translate(208.174,-172.918)">
			<title>Sheet.120</title>
			<desc>nRF IEEE 802.15.4 radio driver</desc>
			<path d="M248.69 381.76 L0 381.76 L0 403.97 L248.69 403.97 L248.69 381.76 Z" class="st6"/>
			<text x="51.11" y="396.47" class="st9">nRF IEEE 802.15.4 radio driver</text>		</g>
		<g id="shape122-48" transform="translate(241.069,-230.598)">
			<title>Sheet.122</title>
			<desc>IEEE 802.15.4 MAC</desc>
			<path d="M197.23 380.29 L0 380.29 L0 403.97 L197.23 403.97 L197.23 380.29 Z" class="st12"/>
			<text x="52.52" y="395.73" class="st9">IEEE 802.15.4 MAC</text>		</g>
		<g id="shape124-51" transform="translate(241.069,-282.921)">
			<title>Sheet.124</title>
			<path d="M197.23 380.29 L0 380.29 L0 403.97 L197.23 403.97 L197.23 380.29 Z" class="st12"/>
		</g>
		<g id="shape125-53" transform="translate(240.858,-282.921)">
			<title>Sheet.125</title>
			<desc>Zigbee app layer (ZCL)</desc>
			<path d="M197.23 380.29 L0 380.29 L0 403.97 L197.23 403.97 L197.23 380.29" class="st2"/>
			<text x="45.02" y="395.73" class="st9">Zigbee app layer (ZCL)</text>		</g>
		<g id="shape126-57" transform="translate(241.069,-256.759)">
			<title>Sheet.126</title>
			<path d="M197.23 380.29 L0 380.29 L0 403.97 L197.23 403.97 L197.23 380.29 Z" class="st12"/>
		</g>
		<g id="shape127-59" transform="translate(241.069,-256.759)">
			<title>Sheet.127</title>
			<desc>Zigbee PRO + Green Power</desc>
			<path d="M197.23 380.29 L0 380.29 L0 403.97 L197.23 403.97 L197.23 380.29" class="st2"/>
			<text x="33.11" y="395.73" class="st9">Zigbee PRO + Green Power</text>		</g>
		<g id="shape128-63" transform="translate(1,-1.27796)">
			<title>Sheet.128</title>
			<path d="M463.21 292.93 L0 292.93 L0 403.97 L463.21 403.97 L463.21 292.93 Z" class="st1"/>
		</g>
		<g id="shape129-65" transform="translate(6.34857,-64.4051)">
			<title>Sheet.129</title>
			<path d="M0 363.04 L0 403.97 L230 403.97 L230 363.04 L0 363.04 L0 363.04 Z" class="st6"/>
		</g>
		<g id="shape130-67" transform="translate(11.9443,-70.2113)">
			<title>Sheet.130</title>
			<desc>nRF Bluetooth速 LE Controller</desc>
			<rect x="0" y="374.648" width="218.013" height="29.3252" class="st12"/>
			<text x="38.89" y="392.91" class="st9">nRF Bluetooth<tspan class="st13">速</tspan> LE Controller</text>		</g>
		<g id="shape131-71" transform="translate(6.13058,-30.4916)">
			<title>Sheet.131</title>
			<rect x="0" y="376.358" width="453.133" height="27.6151" class="st6"/>
		</g>
		<g id="shape132-73" transform="translate(6.13058,-30.4916)">
			<title>Sheet.132</title>
			<desc>Secure boot</desc>
			<text x="141.01" y="393.77" class="st9">Multiprotocol Service Layer (MPSL)</text>		</g>
		<g id="shape133-75" transform="translate(94.4996,-99.5366)">
			<title>Dynamic connector</title>
			<path d="M7.09 395.93 L7.09 395.57 L7.09 313.85" class="st14"/>
		</g>
		<g id="shape134-84" transform="translate(341.956,-172.918)">
			<title>Dynamic connector.206</title>
			<path d="M7.09 412.01 L7.09 412.37 L7.09 460.99" class="st14"/>
		</g>
		<g id="shape135-91" transform="translate(1,-5.68434E-14)">
			<title>Sheet.135</title>
			<desc>nRF53 network core</desc>
			<path d="M463.21 375.55 L0 375.55 L0 403.97 L463.21 403.97 L463.21 375.55" class="st2"/>
			<text x="157.86" y="395.16" class="st3">nRF53 network core</text>		</g>
		<g id="group136-95" transform="translate(241.221,-64.4051)">
			<title>Sheet.136</title>
			<g id="shape137-96">
				<title>Sheet.137</title>
				<path d="M217.67 363.04 L0 363.04 L0 403.97 L217.67 403.97 L217.67 363.04 Z" class="st6"/>
			</g>
			<g id="shape138-98" transform="translate(6.17593,-5.80624)">
				<title>Sheet.138</title>
				<desc>IEEE 802.15.4 PHY</desc>
				<path d="M204.71 385.16 L0 385.16 L0 403.97 L204.71 403.97 L204.71 385.16 Z" class="st12"/>
				<text x="65.64" y="397.57" class="st17">IEEE 802.15.4 PHY</text>			</g>
			<g id="shape139-101" transform="translate(0.343903,-24.9145)">
				<title>Sheet.139</title>
				<desc>nRF IEEE 802.15.4 radio driver</desc>
				<path d="M217.67 389.44 L0 389.44 L0 403.97 L217.67 403.97 L217.67 389.44" class="st2"/>
				<text x="35.6" y="400.31" class="st9">nRF IEEE 802.15.4 radio driver</text>			</g>
		</g>
		<g id="shape140-105" transform="translate(101.586,-118.257)">
			<title>Sheet.140</title>
			<desc>OpenAMP (HCI)</desc>
			<rect x="0" y="383.667" width="86.1463" height="20.3062" class="st18"/>
			<text x="4.66" y="397.42" class="st19">OpenAMP (HCI)</text>		</g>
		<g id="shape142-108" transform="translate(349.042,-118.257)">
			<title>Sheet.142</title>
			<desc>OpenAMP (Spinel)</desc>
			<rect x="0" y="383.667" width="99.5771" height="20.3062" class="st18"/>
			<text x="5.03" y="397.42" class="st19">OpenAMP (Spinel)</text>		</g>
	</g>
</svg>
