<?xml version="1.0" encoding="UTF-8" standalone="no"?>
<!DOCTYPE svg PUBLIC "-//W3C//DTD SVG 1.1//EN" "http://www.w3.org/Graphics/SVG/1.1/DTD/svg11.dtd">
<!-- Generated by Microsoft Visio, SVG Export zigbee_commissioning_fb.svg Page-1 -->
<svg xmlns="http://www.w3.org/2000/svg" xmlns:xlink="http://www.w3.org/1999/xlink" xmlns:ev="http://www.w3.org/2001/xml-events"
		width="7.41531in" height="8.03473in" viewBox="0 0 533.902 578.5" xml:space="preserve" color-interpolation-filters="sRGB"
		class="st10">
	<style type="text/css">
	<![CDATA[
		.st1 {fill:#d0df00;stroke:none;stroke-width:1}
		.st2 {fill:#333f48;font-family:Arial;font-size:0.833336em}
		.st3 {font-size:1em}
		.st4 {fill:none;stroke:none;stroke-width:1}
		.st5 {fill:#333f48;font-family:Arial;font-size:0.75em}
		.st6 {marker-end:url(#mrkr5-78);stroke:#008bab;stroke-linecap:butt;stroke-width:1}
		.st7 {fill:#008bab;fill-opacity:1;stroke:#008bab;stroke-opacity:1;stroke-width:0.28409090909091}
		.st8 {fill:none;stroke:#768692;stroke-dasharray:3,3;stroke-width:1}
		.st9 {marker-end:url(#mrkr5-78);stroke:#008bab;stroke-dasharray:1,4;stroke-linecap:butt;stroke-width:1}
		.st10 {fill:none;fill-rule:evenodd;font-size:12px;overflow:visible;stroke-linecap:square;stroke-miterlimit:3}
	]]>
	</style>

	<defs id="Markers">
		<g id="lend5">
			<path d="M 2 1 L 0 0 L 1.98117 -0.993387 C 1.67173 -0.364515 1.67301 0.372641 1.98465 1.00043 " style="stroke:none"/>
		</g>
		<marker id="mrkr5-78" class="st7" refX="-6.16" orient="auto" markerUnits="strokeWidth" overflow="visible">
			<use xlink:href="#lend5" transform="scale(-3.52,-3.52) "/>
		</marker>
	</defs>
	<g>
		<title>Page-1</title>
		<g id="shape79-1" transform="translate(1,-536.398)">
			<title>Sheet.79</title>
			<desc>(Optional) Finding and Binding</desc>
			<rect x="0" y="537.398" width="106.583" height="41.1024" class="st1"/>
			<text x="31.34" y="554.95" class="st2">(Optional) <tspan x="9.09" dy="1.2em" class="st3">Finding and Binding</tspan></text>		</g>
		<g id="shape80-5" transform="translate(-128.061,-369.444) rotate(-45)">
			<title>Sheet.80</title>
			<rect x="0" y="552.95" width="25.55" height="25.55" class="st1"/>
		</g>
		<g id="shape81-7" transform="translate(288.087,-512.654)">
			<title>Sheet.81</title>
			<desc>Is the node initiator or target?</desc>
			<rect x="0" y="537.398" width="65.9842" height="41.1024" class="st4"/>
			<text x="4" y="549.85" class="st5">Is the node <tspan x="4" dy="1.2em" class="st3">initiator or </tspan><tspan x="4"
						dy="1.2em" class="st3">target?</tspan></text>		</g>
		<g id="shape82-12" transform="translate(406.777,-446.739)">
			<title>Sheet.82</title>
			<desc>Handle identify query from initiator</desc>
			<rect x="0" y="537.398" width="106.583" height="41.1024" class="st1"/>
			<text x="6.32" y="554.95" class="st2">Handle identify query <tspan x="25.78" dy="1.2em" class="st3">from initiator</tspan></text>		</g>
		<g id="shape83-16" transform="translate(51.0066,-57.6328) rotate(-45)">
			<title>Sheet.83</title>
			<rect x="0" y="552.95" width="25.55" height="25.55" class="st1"/>
		</g>
		<g id="shape84-18" transform="translate(400.213,-242.654)">
			<title>Sheet.84</title>
			<desc>Query timer expired?</desc>
			<rect x="0" y="537.398" width="65.9842" height="41.1024" class="st4"/>
			<text x="4" y="555.25" class="st5">Query timer <tspan x="4" dy="1.2em" class="st3">expired?</tspan></text>		</g>
		<g id="shape85-22" transform="translate(406.777,-127.142)">
			<title>Sheet.85</title>
			<desc>Binding successful</desc>
			<rect x="0" y="537.398" width="106.583" height="41.1024" class="st1"/>
			<text x="11.88" y="560.95" class="st2">Binding successful</text>		</g>
		<g id="shape86-25" transform="translate(153.378,-449.228)">
			<title>Sheet.86</title>
			<desc>Broadcast identify query</desc>
			<rect x="0" y="537.398" width="106.583" height="41.1024" class="st1"/>
			<text x="30.78" y="554.95" class="st2">Broadcast <tspan x="23.55" dy="1.2em" class="st3">identify query</tspan></text>		</g>
		<g id="shape87-29" transform="translate(153.378,-378.008)">
			<title>Sheet.87</title>
			<desc>Request simple descriptor for the next endpoint</desc>
			<rect x="0" y="537.398" width="106.583" height="41.1024" class="st1"/>
			<text x="18.83" y="548.95" class="st2">Request simple <tspan x="4.93" dy="1.2em" class="st3">descriptor for the next </tspan><tspan
						x="34.11" dy="1.2em" class="st3">endpoint</tspan></text>		</g>
		<g id="shape88-34" transform="translate(406.777,-1)">
			<title>Sheet.88</title>
			<desc>Finding and Binding (end)</desc>
			<rect x="0" y="537.398" width="106.583" height="41.1024" class="st1"/>
			<text x="9.09" y="554.95" class="st2">Finding and Binding <tspan x="41.62" dy="1.2em" class="st3">(end)</tspan></text>		</g>
		<g id="shape89-38" transform="translate(-340.873,-282.274) rotate(-45)">
			<title>Sheet.89</title>
			<rect x="0" y="552.95" width="25.55" height="25.55" class="st1"/>
		</g>
		<g id="shape90-40" transform="translate(13.1434,-468.717)">
			<title>Sheet.90</title>
			<desc>Query response received?</desc>
			<rect x="0" y="537.398" width="65.9842" height="41.1024" class="st4"/>
			<text x="4" y="549.85" class="st5">Query <tspan x="4" dy="1.2em" class="st3">response </tspan><tspan x="4" dy="1.2em"
						class="st3">received?</tspan></text>		</g>
		<g id="shape91-45" transform="translate(-202.392,-146.565) rotate(-45)">
			<title>Sheet.91</title>
			<rect x="0" y="552.95" width="25.55" height="25.55" class="st1"/>
		</g>
		<g id="shape92-47" transform="translate(153.378,-336.906)">
			<title>Sheet.92</title>
			<desc>Valid descriptor received?</desc>
			<rect x="0" y="537.398" width="65.9842" height="41.1024" class="st4"/>
			<text x="4" y="549.85" class="st5">Valid <tspan x="4" dy="1.2em" class="st3">descriptor </tspan><tspan x="4" dy="1.2em"
						class="st3">received?</tspan></text>		</g>
		<g id="shape93-52" transform="translate(-276.522,37.3278) rotate(-45)">
			<title>Sheet.93</title>
			<rect x="0" y="552.95" width="25.55" height="25.55" class="st1"/>
		</g>
		<g id="shape94-54" transform="translate(79.7405,-107.299)">
			<title>Sheet.94</title>
			<desc>Other endpoints to try?</desc>
			<rect x="0" y="537.398" width="48.1888" height="41.1024" class="st4"/>
			<text x="4" y="549.85" class="st5">Other <tspan x="4" dy="1.2em" class="st3">endpoints </tspan><tspan x="4" dy="1.2em"
						class="st3">to try?</tspan></text>		</g>
		<g id="shape95-59" transform="translate(-128.061,-64.7108) rotate(-45)">
			<title>Sheet.95</title>
			<rect x="0" y="552.95" width="25.55" height="25.55" class="st1"/>
		</g>
		<g id="shape96-61" transform="translate(286.04,-193.047)">
			<title>Sheet.96</title>
			<desc>Does the next cluster match?</desc>
			<rect x="0" y="537.398" width="48.1888" height="41.1024" class="st4"/>
			<text x="4" y="544.45" class="st5">Does <tspan x="4" dy="1.2em" class="st3">the next </tspan><tspan x="4" dy="1.2em"
						class="st3">cluster </tspan><tspan x="4" dy="1.2em" class="st3">match?</tspan></text>		</g>
		<g id="shape97-67" transform="translate(-276.66,-64.7108) rotate(-45)">
			<title>Sheet.97</title>
			<rect x="0" y="552.95" width="25.55" height="25.55" class="st1"/>
		</g>
		<g id="shape98-69" transform="translate(139.268,-249.732)">
			<title>Sheet.98</title>
			<desc>Other clusters to try?</desc>
			<rect x="0" y="537.398" width="65.9842" height="41.1024" class="st4"/>
			<text x="4" y="555.25" class="st5">Other clusters <tspan x="4" dy="1.2em" class="st3">to try?</tspan></text>		</g>
		<g id="shape99-73" transform="translate(224.736,-334.071)">
			<title>Dynamic connector.294</title>
			<path d="M0 578.5 L87 578.5 L87 660.36 L80.49 660.36" class="st6"/>
		</g>
		<g id="shape100-79" transform="translate(132.402,-263.196)">
			<title>Dynamic connector.295</title>
			<path d="M0 571.41 L0 546.24 L148.6 546.24 L148.6 565.25" class="st6"/>
		</g>
		<g id="shape101-84" transform="translate(262.934,-245.13)">
			<title>Dynamic connector.296</title>
			<path d="M0 571.41 L-106.31 571.41" class="st6"/>
		</g>
		<g id="shape102-89" transform="translate(125.384,-234.15)">
			<title>Dynamic connector.297</title>
			<path d="M7.02 578.5 L7.14 638.25" class="st6"/>
		</g>
		<g id="shape103-94" transform="translate(188.603,-334.071)">
			<title>Dynamic connector.298</title>
			<path d="M0 578.5 L-88.45 578.5 L-88.45 762.39 L-80.29 762.39" class="st6"/>
		</g>
		<g id="shape104-99" transform="translate(132.54,-132.111)">
			<title>Dynamic connector.299</title>
			<path d="M0 578.5 L0 608.98 L-64.14 608.98 L-64.14 312.05 L14.68 312.05" class="st6"/>
		</g>
		<g id="shape105-104" transform="translate(199.299,-127.142)">
			<title>Sheet.105</title>
			<desc>Create entry in the binding table with the next matching clus...</desc>
			<rect x="0" y="537.398" width="106.583" height="41.1024" class="st1"/>
			<text x="12.16" y="548.95" class="st2">Create entry in the <tspan x="6.31" dy="1.2em" class="st3">binding table with the </tspan><tspan
						x="6.05" dy="1.2em" class="st3">next matching cluster</tspan></text>		</g>
		<g id="shape106-109" transform="translate(-156.471,105.359) rotate(-45)">
			<title>Sheet.106</title>
			<rect x="0" y="552.95" width="25.55" height="25.55" class="st1"/>
		</g>
		<g id="shape107-111" transform="translate(259.74,-80.7287)">
			<title>Sheet.107</title>
			<desc>Binding table full?</desc>
			<rect x="0" y="537.398" width="48.1888" height="41.1024" class="st4"/>
			<text x="4" y="555.25" class="st5">Binding <tspan x="4" dy="1.2em" class="st3">table full?</tspan></text>		</g>
		<g id="shape108-115" transform="translate(234.524,-82.1461)">
			<title>Dynamic connector.303</title>
			<path d="M0 578.5 L-56.2 578.5 L-56.2 408.43 L-77.9 408.43" class="st6"/>
		</g>
		<g id="shape109-120" transform="translate(252.591,-64.0795)">
			<title>Dynamic connector.304</title>
			<path d="M0 578.5 L0 621.03 L148.03 621.03" class="st6"/>
		</g>
		<g id="shape110-125" transform="translate(68.1881,-451.713)">
			<title>Dynamic connector.306</title>
			<path d="M0 578.5 L0 631.65 L79.03 631.65" class="st6"/>
		</g>
		<g id="shape111-130" transform="translate(50.1215,-469.78)">
			<title>Dynamic connector.307</title>
			<path d="M0 578.5 L-16.57 578.5 L-16.57 1026.73 L350.5 1026.73" class="st6"/>
		</g>
		<g id="shape112-135" transform="translate(1,-42.811)">
			<title>Sheet.112</title>
			<path d="M0 578.5 L333.23 578.5 L333.23 114.84 L0 114.84 L0 578.5 Z" class="st8"/>
		</g>
		<g id="shape113-137" transform="translate(370.362,-107.299)">
			<title>Sheet.113</title>
			<path d="M0 578.5 L162.29 578.5 L162.29 179.33 L0 179.33 L0 578.5 Z" class="st8"/>
		</g>
		<g id="shape114-139" transform="translate(150.606,-150.178)">
			<title>Dynamic connector.310</title>
			<path d="M0 578.5 L12.67 578.5 L12.67 707.13 L250.01 707.13" class="st6"/>
		</g>
		<g id="shape115-144" transform="translate(452.982,-446.739)">
			<title>Dynamic connector.311</title>
			<path d="M7.09 578.5 L7.09 755.88" class="st6"/>
		</g>
		<g id="shape116-149" transform="translate(467.155,-227.072)">
			<title>Dynamic connector.312</title>
			<path d="M-7.09 578.5 L-7.09 631.17" class="st6"/>
		</g>
		<g id="shape117-154" transform="translate(478.135,-245.138)">
			<title>Dynamic connector.313</title>
			<path d="M0 578.5 L47.9 578.5 L47.9 356.35 L41.38 356.35" class="st6"/>
		</g>
		<g id="shape118-159" transform="translate(259.961,-466.449)">
			<title>Dynamic connector.314</title>
			<path d="M0 571.41 L104.24 571.41" class="st9"/>
		</g>
		<g id="shape119-164" transform="translate(259.961,-405.646)">
			<title>Dynamic connector.315</title>
			<path d="M0 585.59 L104.24 585.59" class="st9"/>
		</g>
		<g id="shape120-169" transform="translate(370.362,-467.547)">
			<title>Dynamic connector.317</title>
			<path d="M0 585.55 L-104.24 585.62" class="st9"/>
		</g>
		<g id="shape121-174" transform="translate(370.362,-392.252)">
			<title>Dynamic connector.318</title>
			<path d="M0 585.52 L-104.24 585.65" class="st9"/>
		</g>
		<g id="shape124-179" transform="translate(452.982,-127.142)">
			<title>Dynamic connector.322</title>
			<path d="M7.09 578.5 L7.09 657.38" class="st6"/>
		</g>
		<g id="shape125-184" transform="translate(199.583,-378.008)">
			<title>Dynamic connector.323</title>
			<path d="M7.09 578.5 L7.09 598.21" class="st6"/>
		</g>
		<g id="shape126-189" transform="translate(108.208,-98.2961)">
			<title>Sheet.126</title>
			<desc>Yes</desc>
			<rect x="0" y="560.494" width="24.3323" height="18.0063" class="st4"/>
			<text x="4" y="572.2" class="st5">Yes</text>		</g>
		<g id="shape128-192" transform="translate(150.606,-150.238)">
			<title>Sheet.128</title>
			<desc>No</desc>
			<rect x="0" y="560.494" width="24.3323" height="18.0063" class="st4"/>
			<text x="4" y="572.2" class="st5">No</text>		</g>
		<g id="shape129-195" transform="translate(246.984,-252.276)">
			<title>Sheet.129</title>
			<desc>No</desc>
			<rect x="0" y="560.494" width="24.3323" height="18.0063" class="st4"/>
			<text x="4" y="572.2" class="st5">No</text>		</g>
		<g id="shape130-198" transform="translate(288.087,-234.15)">
			<title>Dynamic connector</title>
			<path d="M-7.09 578.5 L-7.09 638.25" class="st6"/>
		</g>
		<g id="shape131-203" transform="translate(245.504,-127.142)">
			<title>Dynamic connector.131</title>
			<path d="M7.09 578.5 L7.09 599.27" class="st6"/>
		</g>
		<g id="shape132-208" transform="translate(110.094,-270.283)">
			<title>Sheet.132</title>
			<desc>Yes</desc>
			<rect x="0" y="560.494" width="24.3323" height="18.0063" class="st4"/>
			<text x="4" y="572.2" class="st5">Yes</text>		</g>
		<g id="shape133-211" transform="translate(110.921,-216.143)">
			<title>Sheet.133</title>
			<desc>No</desc>
			<rect x="0" y="560.494" width="20.6701" height="18.0063" class="st4"/>
			<text x="4" y="572.2" class="st5">No</text>		</g>
		<g id="shape134-214" transform="translate(256.668,-218.068)">
			<title>Sheet.134</title>
			<desc>Yes</desc>
			<rect x="0" y="560.494" width="24.3323" height="18.0063" class="st4"/>
			<text x="4" y="572.2" class="st5">Yes</text>		</g>
		<g id="shape135-217" transform="translate(252.654,-46.0732)">
			<title>Sheet.135</title>
			<desc>Yes</desc>
			<rect x="0" y="560.494" width="24.3323" height="18.0063" class="st4"/>
			<text x="4" y="572.2" class="st5">Yes</text>		</g>
		<g id="shape136-220" transform="translate(216.983,-82.2063)">
			<title>Sheet.136</title>
			<desc>No</desc>
			<rect x="0" y="560.494" width="24.3323" height="18.0063" class="st4"/>
			<text x="4" y="572.2" class="st5">No</text>		</g>
		<g id="shape137-223" transform="translate(164.271,-316.004)">
			<title>Sheet.137</title>
			<desc>No</desc>
			<rect x="0" y="560.494" width="24.3323" height="18.0063" class="st4"/>
			<text x="4" y="572.2" class="st5">No</text>		</g>
		<g id="shape138-226" transform="translate(224.736,-316.004)">
			<title>Sheet.138</title>
			<desc>Yes</desc>
			<rect x="0" y="560.494" width="24.3323" height="18.0063" class="st4"/>
			<text x="4" y="572.2" class="st5">Yes</text>		</g>
		<g id="shape139-229" transform="translate(9.74739,-448.091)">
			<title>Sheet.139</title>
			<desc>No</desc>
			<rect x="0" y="560.494" width="24.3323" height="18.0063" class="st4"/>
			<text x="4" y="572.2" class="st5">No</text>		</g>
		<g id="shape140-232" transform="translate(70.4088,-433.707)">
			<title>Sheet.140</title>
			<desc>Yes</desc>
			<rect x="0" y="560.494" width="24.3323" height="18.0063" class="st4"/>
			<text x="4" y="572.2" class="st5">Yes</text>		</g>
		<g id="shape141-235" transform="translate(107.583,-549.863)">
			<title>Dynamic connector.141</title>
			<path d="M0 571.41 L149.19 571.41" class="st6"/>
		</g>
		<g id="shape142-240" transform="translate(153.378,-462.693)">
			<title>Dynamic connector.142</title>
			<path d="M0 571.41 L-60.96 571.41" class="st6"/>
		</g>
		<g id="shape143-245" transform="translate(299.067,-556.949)">
			<title>Dynamic connector.143</title>
			<path d="M0 578.5 L161 578.5 L161 641.45" class="st6"/>
		</g>
		<g id="shape144-250" transform="translate(281,-538.883)">
			<title>Dynamic connector.144</title>
			<path d="M0 578.5 L0 587.47 L-74.33 587.47 L-74.33 620.89" class="st6"/>
		</g>
		<g id="shape145-255" transform="translate(423.935,-504.15)">
			<title>Sheet.145</title>
			<desc>Target</desc>
			<rect x="0" y="560.494" width="36.1331" height="18.0063" class="st4"/>
			<text x="4" y="572.2" class="st5">Target</text>		</g>
		<g id="shape146-258" transform="translate(206.67,-506.471)">
			<title>Sheet.146</title>
			<desc>Initiator</desc>
			<rect x="0" y="560.494" width="42.3989" height="18.0063" class="st4"/>
			<text x="4" y="572.2" class="st5">Initiator</text>		</g>
		<g id="shape147-261" transform="translate(268.244,-408.126)">
			<title>Sheet.147</title>
			<desc>Message exchange with target</desc>
			<rect x="0" y="537.398" width="65.9842" height="41.1024" class="st4"/>
			<text x="4" y="549.85" class="st5">Message <tspan x="4" dy="1.2em" class="st3">exchange with </tspan><tspan x="4"
						dy="1.2em" class="st3">target</tspan></text>		</g>
		<g id="shape148-266" transform="translate(429.835,-209.065)">
			<title>Sheet.148</title>
			<desc>Yes</desc>
			<rect x="0" y="560.494" width="24.3323" height="18.0063" class="st4"/>
			<text x="4" y="572.2" class="st5">Yes</text>		</g>
		<g id="shape149-269" transform="translate(478.135,-245.198)">
			<title>Sheet.149</title>
			<desc>No</desc>
			<rect x="0" y="560.494" width="24.3323" height="18.0063" class="st4"/>
			<text x="4" y="572.2" class="st5">No</text>		</g>
	</g>
</svg>
