<?xml version="1.0" encoding="UTF-8" standalone="no"?>
<!DOCTYPE svg PUBLIC "-//W3C//DTD SVG 1.1//EN" "http://www.w3.org/Graphics/SVG/1.1/DTD/svg11.dtd">
<!-- Generated by Microsoft Visio, SVG Export caf_overview.svg Drawing -->
<svg xmlns="http://www.w3.org/2000/svg" xmlns:xlink="http://www.w3.org/1999/xlink" xmlns:ev="http://www.w3.org/2001/xml-events"
		width="6.88075in" height="4.97255in" viewBox="0 0 495.414 358.024" xml:space="preserve" color-interpolation-filters="sRGB"
		class="st20">
	<style type="text/css">
	<![CDATA[
		.st1 {fill:#00a9ce;stroke:none;stroke-width:1}
		.st2 {fill:#ffffff;font-family:Arial;font-size:1.16666em}
		.st3 {fill:#0033a0;stroke:none;stroke-width:1}
		.st4 {fill:#feffff;font-family:Arial;font-size:1.00001em}
		.st5 {font-size:1em}
		.st6 {fill:#ffffff;font-family:Arial;font-size:1.00001em}
		.st7 {fill:#f58220;stroke:none;stroke-width:1}
		.st8 {fill:#768692;stroke:none;stroke-width:1}
		.st9 {marker-end:url(#mrkr13-33);stroke:#333f48;stroke-linecap:butt;stroke-width:1}
		.st10 {fill:#333f48;fill-opacity:1;stroke:#333f48;stroke-opacity:1;stroke-width:0.28409090909091}
		.st11 {marker-end:url(#mrkr13-59);stroke:#f58220;stroke-linecap:butt;stroke-width:1}
		.st12 {fill:#f58220;fill-opacity:1;stroke:#f58220;stroke-opacity:1;stroke-width:0.28409090909091}
		.st13 {stroke:#00a9ce;stroke-linecap:butt;stroke-width:1}
		.st14 {marker-start:url(#mrkr13-92);stroke:#333f48;stroke-linecap:butt;stroke-width:1}
		.st15 {fill:none;stroke:#f58220;stroke-dasharray:7,5;stroke-width:1}
		.st16 {fill:#f58220;font-family:Calibri;font-size:1.00001em}
		.st17 {fill:#ffffff;stroke:#000000;stroke-width:1}
		.st18 {fill:none;stroke:none;stroke-width:1}
		.st19 {fill:#000000;font-family:Arial;font-size:0.666664em}
		.st20 {fill:none;fill-rule:evenodd;font-size:12px;overflow:visible;stroke-linecap:square;stroke-miterlimit:3}
	]]>
	</style>

	<defs id="Markers">
		<g id="lend13">
			<path d="M 3 1 L 0 0 L 3 -1 L 3 1 " style="stroke:none"/>
		</g>
		<marker id="mrkr13-33" class="st10" refX="-10.56" orient="auto" markerUnits="strokeWidth" overflow="visible">
			<use xlink:href="#lend13" transform="scale(-3.52,-3.52) "/>
		</marker>
		<marker id="mrkr13-59" class="st12" refX="-10.56" orient="auto" markerUnits="strokeWidth" overflow="visible">
			<use xlink:href="#lend13" transform="scale(-3.52,-3.52) "/>
		</marker>
		<marker id="mrkr13-92" class="st10" refX="10.2" orient="auto" markerUnits="strokeWidth" overflow="visible">
			<use xlink:href="#lend13" transform="scale(3.52) "/>
		</marker>
	</defs>
	<g>
		<title>Drawing</title>
		<g id="shape6-1" transform="translate(19,-219.073)">
			<title>Nordic Blue</title>
			<desc>Event manager</desc>
			<rect x="0" y="303.383" width="453.543" height="54.6402" class="st1"/>
			<text x="179.3" y="334.9" class="st2">Event manager</text>		</g>
		<g id="shape7-4" transform="translate(20.673,-111.733)">
			<title>Nordic Blue.7</title>
			<desc>CAF module 0</desc>
			<rect x="0" y="303.383" width="72.8643" height="54.6402" class="st3"/>
			<text x="24.43" y="327.1" class="st4">CAF <tspan x="11.75" dy="1.2em" class="st5">module 0</tspan></text>		</g>
		<g id="shape8-8" transform="translate(110.963,-111.733)">
			<title>Nordic Blue.8</title>
			<desc>CAF module 1</desc>
			<rect x="0" y="303.383" width="72.8643" height="54.6402" class="st3"/>
			<text x="24.43" y="327.1" class="st4">CAF <tspan x="11.75" dy="1.2em" class="st5">module 1</tspan></text>		</g>
		<g id="shape9-12" transform="translate(201.254,-111.733)">
			<title>Nordic Blue.9</title>
			<desc>CAF module 2</desc>
			<rect x="0" y="303.383" width="72.8643" height="54.6402" class="st3"/>
			<text x="24.43" y="327.1" class="st6">CAF <tspan x="11.75" dy="1.2em" class="st5">module 2</tspan></text>		</g>
		<g id="shape10-16" transform="translate(381.835,-111.733)">
			<title>Nordic Blue.10</title>
			<desc>User module 0</desc>
			<rect x="0" y="303.383" width="87.874" height="54.6402" class="st7"/>
			<text x="4.92" y="334.3" class="st6">User module 0</text>		</g>
		<g id="shape11-19" transform="translate(20.673,-64.9757)">
			<title>Nordic Blue.11</title>
			<desc>Driver 0</desc>
			<rect x="0" y="326.061" width="163.155" height="31.9631" class="st1"/>
			<text x="60.57" y="345.64" class="st6">Driver 0</text>		</g>
		<g id="shape12-22" transform="translate(201.254,-64.9757)">
			<title>Nordic Blue.12</title>
			<desc>Driver 1</desc>
			<rect x="0" y="326.061" width="72.8643" height="31.9631" class="st1"/>
			<text x="15.43" y="345.64" class="st6">Driver 1</text>		</g>
		<g id="shape13-25" transform="translate(20.673,-19)">
			<title>Nordic Blue.13</title>
			<desc>Hardware</desc>
			<rect x="0" y="326.061" width="453.543" height="31.9631" class="st8"/>
			<text x="196.43" y="346.24" class="st2">Hardware</text>		</g>
		<g id="shape24-28" transform="translate(221.399,-166.374)">
			<title>Dynamic connector.24</title>
			<path d="M-7.08 358.02 L-7.08 339.02 L-7.09 339.02 L-7.09 315.88" class="st9"/>
		</g>
		<g id="shape25-34" transform="translate(235.072,-166.374)">
			<title>Dynamic connector.25</title>
			<path d="M-7.01 358.02 L-7.13 315.88" class="st9"/>
		</g>
		<g id="shape26-39" transform="translate(248.045,-166.374)">
			<title>Dynamic connector.26</title>
			<path d="M-7.08 358.02 L-7.08 339.02 L-7.09 339.02 L-7.09 315.88" class="st9"/>
		</g>
		<g id="shape27-44" transform="translate(251.12,-219.073)">
			<title>Dynamic connector.27</title>
			<path d="M6.84 358.02 L7.23 400.16" class="st9"/>
		</g>
		<g id="shape28-49" transform="translate(396.34,-219.073)">
			<title>Dynamic connector.28</title>
			<path d="M7.09 358.02 L7.09 400.16" class="st9"/>
		</g>
		<g id="shape29-54" transform="translate(438.017,-166.374)">
			<title>Dynamic connector.29</title>
			<path d="M7.09 358.02 L7.09 315.88" class="st11"/>
		</g>
		<g id="shape32-60" transform="translate(153.945,-111.733)">
			<title>Dynamic connector.32</title>
			<path d="M-7.07 358.02 L-7.07 364.36 L-7.1 364.36 L-7.1 372.82" class="st13"/>
		</g>
		<g id="shape33-63" transform="translate(230.599,-111.733)">
			<title>Dynamic connector.33</title>
			<path d="M7.09 358.02 L7.09 372.82" class="st13"/>
		</g>
		<g id="shape39-66" transform="translate(50.0289,-111.733)">
			<title>Dynamic connector.39</title>
			<path d="M7.08 358.02 L7.08 364.36 L7.1 364.36 L7.1 372.82" class="st13"/>
		</g>
		<g id="shape45-69" transform="translate(291.544,-111.733)">
			<title>Nordic Blue.45</title>
			<desc>CAF module 3</desc>
			<rect x="0" y="303.383" width="72.8643" height="54.6402" class="st3"/>
			<text x="24.43" y="327.1" class="st6">CAF <tspan x="11.75" dy="1.2em" class="st5">module 3</tspan></text>		</g>
		<g id="shape48-73" transform="translate(50.4646,-65.056)">
			<title>Dynamic connector.48</title>
			<path d="M7.09 358.1 L7.09 372.12" class="st13"/>
		</g>
		<g id="shape50-76" transform="translate(139.756,-65.056)">
			<title>Dynamic connector.50</title>
			<path d="M7.09 358.1 L7.09 372.12" class="st13"/>
		</g>
		<g id="shape54-79" transform="translate(230.603,-65.056)">
			<title>Dynamic connector.54</title>
			<path d="M7.08 358.1 L7.08 364.44 L7.09 364.44 L7.09 372.12" class="st13"/>
		</g>
		<g id="shape57-82" transform="translate(140.316,-166.374)">
			<title>Dynamic connector.57</title>
			<path d="M7.08 358.02 L7.08 339.02 L7.09 339.02 L7.09 315.88" class="st9"/>
		</g>
		<g id="shape58-87" transform="translate(160.165,-166.374)">
			<title>Dynamic connector.58</title>
			<path d="M7.09 347.82 L7.09 347.46 L7.09 305.32" class="st14"/>
		</g>
		<g id="shape59-93" transform="translate(121.331,-166.374)">
			<title>Dynamic connector.59</title>
			<path d="M7.09 358.02 L7.09 315.88" class="st9"/>
		</g>
		<g id="shape60-98" transform="translate(308.984,-166.374)">
			<title>Dynamic connector.60</title>
			<path d="M7.09 358.02 L7.09 315.88" class="st9"/>
		</g>
		<g id="shape61-103" transform="translate(335.63,-219.073)">
			<title>Dynamic connector.61</title>
			<path d="M7.09 368.22 L7.09 368.58 L7.09 410.72" class="st14"/>
		</g>
		<g id="shape62-108" transform="translate(67.189,-166.374)">
			<title>Dynamic connector</title>
			<path d="M7.09 347.82 L7.09 347.46 L7.09 305.32" class="st14"/>
		</g>
		<g id="shape63-113" transform="translate(33.4567,-166.374)">
			<title>Dynamic connector.63</title>
			<path d="M7.09 358.02 L7.09 315.88" class="st9"/>
		</g>
		<g id="shape71-118" transform="translate(282.437,-59.5276)">
			<title>Nordic Fall</title>
			<desc>User application</desc>
			<path d="M0 358.02 L193.98 358.02 L193.98 238.47 L0 238.47 L0 358.02 Z" class="st15"/>
			<text x="110.62" y="350.42" class="st16">User application</text>		</g>
		<g id="shape72-121" transform="translate(291.544,-64.9757)">
			<title>Nordic Blue.72</title>
			<desc>Library 0</desc>
			<rect x="0" y="326.061" width="72.8643" height="31.9631" class="st1"/>
			<text x="13.09" y="345.64" class="st6">Library 0</text>		</g>
		<g id="shape73-124" transform="translate(320.89,-96.9387)">
			<title>Dynamic connector.73</title>
			<path d="M7.09 358.02 L7.09 343.23" class="st13"/>
		</g>
		<g id="shape74-127" transform="translate(340.157,-284.032)">
			<title>Sheet.74</title>
			<rect x="0" y="303.383" width="136.063" height="54.6402" class="st17"/>
		</g>
		<g id="shape75-129" transform="translate(344.409,-313.702)">
			<title>Nordic Blue.75</title>
			<rect x="0" y="350.155" width="25.5118" height="7.86858" class="st7"/>
		</g>
		<g id="shape76-131" transform="translate(344.409,-301.039)">
			<title>Nordic Blue.76</title>
			<rect x="0" y="350.155" width="25.5118" height="7.86858" class="st1"/>
		</g>
		<g id="shape79-133" transform="translate(369.921,-297.037)">
			<title>Sheet.79</title>
			<desc>Other NCS components</desc>
			<rect x="0" y="342.15" width="106.299" height="15.874" class="st18"/>
			<text x="4" y="352.49" class="st19">Other NCS components</text>		</g>
		<g id="shape82-136" transform="translate(364.677,-284.882)">
			<title>Dynamic connector.82</title>
			<path d="M0 350.94 L-4.75 350.94" class="st9"/>
		</g>
		<g id="shape83-141" transform="translate(369.921,-310.11)">
			<title>Sheet.83</title>
			<desc>User modules and events</desc>
			<rect x="0" y="342.15" width="106.299" height="15.874" class="st18"/>
			<text x="4" y="352.49" class="st19">User modules and events</text>		</g>
		<g id="shape84-144" transform="translate(369.921,-284.032)">
			<title>Sheet.84</title>
			<desc>Events</desc>
			<rect x="0" y="342.15" width="106.299" height="15.874" class="st18"/>
			<text x="4" y="352.49" class="st19">Events</text>		</g>
		<g id="shape86-147" transform="translate(344.409,-326.741)">
			<title>Nordic Blue.86</title>
			<rect x="0" y="350.155" width="25.5118" height="7.86858" class="st3"/>
		</g>
		<g id="shape87-149" transform="translate(369.921,-323.15)">
			<title>Sheet.87</title>
			<desc>CAF modules and events</desc>
			<rect x="0" y="342.15" width="106.299" height="15.874" class="st18"/>
			<text x="4" y="352.49" class="st19">CAF modules and events</text>		</g>
	</g>
</svg>
