<?xml version="1.0" encoding="UTF-8" standalone="no"?>
<!DOCTYPE svg PUBLIC "-//W3C//DTD SVG 1.1//EN" "http://www.w3.org/Graphics/SVG/1.1/DTD/svg11.dtd">
<!-- Generated by Microsoft Visio, SVG Export caf_ble_state_transitions.svg Page-1 -->
<svg xmlns="http://www.w3.org/2000/svg" xmlns:xlink="http://www.w3.org/1999/xlink" xmlns:ev="http://www.w3.org/2001/xml-events"
		width="6.07745in" height="6.96256in" viewBox="0 0 437.577 501.304" xml:space="preserve" color-interpolation-filters="sRGB"
		class="st20">
	<style type="text/css">
	<![CDATA[
		.st1 {stroke:#333f48;stroke-linecap:butt;stroke-width:1}
		.st2 {fill:#333f48;font-family:Calibri;font-size:1.16666em}
		.st3 {font-size:1em}
		.st4 {fill:#0077c8;stroke:none;stroke-width:1}
		.st5 {fill:#feffff;font-family:Calibri;font-size:1.00001em}
		.st6 {fill:#768692;stroke:none;stroke-width:1}
		.st7 {fill:#ffffff;font-family:Calibri;font-size:1.00001em}
		.st8 {fill:#0033a0;stroke:none;stroke-width:1}
		.st9 {fill:#333f48;stroke:none;stroke-width:1}
		.st10 {marker-end:url(#mrkr13-26);stroke:#333f48;stroke-linecap:butt;stroke-width:1}
		.st11 {fill:#333f48;fill-opacity:1;stroke:#333f48;stroke-opacity:1;stroke-width:0.28409090909091}
		.st12 {fill:#ffffff;stroke:none;stroke-linecap:butt;stroke-width:7.2}
		.st13 {fill:#333f48;font-family:Calibri;font-size:0.833336em}
		.st14 {marker-start:url(#mrkr13-66);stroke:#333f48;stroke-linecap:butt;stroke-width:1}
		.st15 {fill:none;marker-end:url(#mrkr13-80);stroke:none;stroke-width:1}
		.st16 {fill:#00a9ce;fill-opacity:1;stroke:#00a9ce;stroke-opacity:1;stroke-width:0.28409090909091}
		.st17 {fill:none;stroke:none;stroke-width:1}
		.st18 {fill:#00a9ce;stroke:none;stroke-width:1}
		.st19 {fill:#feffff;font-family:Calibri;font-size:0.833336em}
		.st20 {fill:none;fill-rule:evenodd;font-size:12px;overflow:visible;stroke-linecap:square;stroke-miterlimit:3}
	]]>
	</style>

	<defs id="Markers">
		<g id="lend13">
			<path d="M 3 1 L 0 0 L 3 -1 L 3 1 " style="stroke:none"/>
		</g>
		<marker id="mrkr13-26" class="st11" refX="-10.56" orient="auto" markerUnits="strokeWidth" overflow="visible">
			<use xlink:href="#lend13" transform="scale(-3.52,-3.52) "/>
		</marker>
		<marker id="mrkr13-66" class="st11" refX="10.2" orient="auto" markerUnits="strokeWidth" overflow="visible">
			<use xlink:href="#lend13" transform="scale(3.52) "/>
		</marker>
		<marker id="mrkr13-80" class="st16" refX="-10.56" orient="auto" markerUnits="strokeWidth" overflow="visible">
			<use xlink:href="#lend13" transform="scale(-3.52,-3.52) "/>
		</marker>
	</defs>
	<g>
		<title>Page-1</title>
		<g id="shape27-1" transform="translate(1.1121,-34.9136)">
			<title>Sheet.27</title>
			<desc>Bluetooth LE peer disconnected Bluetooth connection can be re...</desc>
			<path d="M0 501.3 L417.89 501.3" class="st1"/>
			<text x="118.45" y="515.22" class="st2">Bluetooth LE peer disconnected <tspan x="105.87" dy="1.2em" class="st3">Bluetooth connection can be reused</tspan></text>		</g>
		<g id="shape29-6" transform="translate(60.4422,-344.889)">
			<title>Sheet.29</title>
			<desc>CONNECTED</desc>
			<ellipse cx="48.2455" cy="481.211" rx="48.2455" ry="20.0933" class="st4"/>
			<text x="17.65" y="484.81" class="st5">CONNECTED</text>		</g>
		<g id="shape30-9" transform="translate(161.81,-190.167)">
			<title>Sheet.30</title>
			<desc>DISCONNECTING</desc>
			<ellipse cx="48.2455" cy="481.211" rx="48.2455" ry="20.0933" class="st6"/>
			<text x="7.14" y="484.81" class="st7">DISCONNECTING</text>		</g>
		<g id="shape31-12" transform="translate(60.4422,-276.587)">
			<title>Sheet.31</title>
			<desc>SECURED</desc>
			<ellipse cx="48.2455" cy="481.211" rx="48.2455" ry="20.0933" class="st8"/>
			<text x="25.63" y="484.81" class="st5">SECURED</text>		</g>
		<g id="shape32-15" transform="translate(318.402,-344.889)">
			<title>Sheet.32</title>
			<desc>CONN_FAILED</desc>
			<ellipse cx="48.2455" cy="481.211" rx="48.2455" ry="20.0933" class="st9"/>
			<text x="13.46" y="484.81" class="st7">CONN_FAILED</text>		</g>
		<g id="shape33-18" transform="translate(161.81,-106.779)">
			<title>Sheet.33</title>
			<desc>DISCONNECTED</desc>
			<ellipse cx="48.2455" cy="481.211" rx="48.2455" ry="20.0933" class="st9"/>
			<text x="9.69" y="484.81" class="st7">DISCONNECTED</text>		</g>
		<g id="shape34-21" transform="translate(202.968,-480.45)">
			<title>Dynamic connector</title>
			<path d="M7.09 501.3 L7.09 529.43" class="st10"/>
		</g>
		<g id="shape35-27" transform="translate(253.346,-421.675)">
			<title>Dynamic connector.23</title>
			<desc>YES</desc>
			<path d="M0 501.3 L113.3 501.3 L113.3 527.34" class="st10"/>
			<rect x="2.18846" y="484.995" width="14.3506" height="12.0001" class="st12"/>
			<text x="2.19" y="494" class="st13">YES</text>		</g>
		<g id="shape36-34" transform="translate(166.764,-421.675)">
			<title>Dynamic connector.24</title>
			<desc>NO</desc>
			<path d="M0 501.3 L-58.08 501.3 L-58.08 527.34" class="st10"/>
			<rect x="-18.9556" y="484.632" width="13.0762" height="12.0001" class="st12"/>
			<text x="-18.96" y="493.63" class="st13">NO</text>		</g>
		<g id="shape37-41" transform="translate(101.601,-344.889)">
			<title>Dynamic connector.25</title>
			<path d="M7.09 501.3 L7.09 518.86" class="st10"/>
		</g>
		<g id="shape38-46" transform="translate(202.968,-106.779)">
			<title>Dynamic connector.28</title>
			<path d="M7.09 501.3 L7.09 563.86" class="st10"/>
		</g>
		<g id="shape40-51" transform="translate(60.4422,-364.982)">
			<title>Dynamic connector.32</title>
			<path d="M0 501.3 L-39.74 501.3 L-39.74 747.32 L94.7 747.32" class="st10"/>
		</g>
		<g id="shape41-56" transform="translate(109.716,-276.591)">
			<title>Dynamic connector.33</title>
			<path d="M0 501.3 L0 567.63 L41.53 567.63" class="st10"/>
		</g>
		<g id="shape42-61" transform="translate(202.968,-146.965)">
			<title>Dynamic connector.38</title>
			<path d="M7.09 491.1 L7.09 490.74 L7.09 458.1" class="st14"/>
		</g>
		<g id="shape43-67" transform="translate(156.933,-364.982)">
			<title>Dynamic connector.50</title>
			<path d="M0 501.3 L152.97 501.3 L152.97 656.03 L111.93 656.03" class="st10"/>
		</g>
		<g id="shape44-72" transform="translate(60.4422,-296.68)">
			<title>Dynamic connector.63</title>
			<path d="M0 501.3 L-25.31 501.3 L-25.31 663.02 L94.89 663.02" class="st10"/>
		</g>
		<g id="shape45-77" transform="translate(118.275,-236.4)">
			<title>Nordic Blue.67</title>
			<desc>Application module requests disconnection (bt_conn_disconnect...</desc>
			<rect x="0" y="461.117" width="183.317" height="40.1866" class="st15"/>
			<text x="33.28" y="474.12" class="st13">Application module requests <tspan x="17.77" dy="1.2em" class="st3">disconnection (bt_conn_disconnect) </tspan><tspan
						x="22.27" dy="1.2em" class="st3">and sends event (ble_peer_event)</tspan></text>		</g>
		<g id="shape46-84" transform="translate(1,-481.832)">
			<title>Sheet.46</title>
			<path d="M0 501.3 L418.11 501.3" class="st1"/>
		</g>
		<g id="shape53-87" transform="translate(132.386,-314.275)">
			<title>Sheet.53</title>
			<desc>Connection encrypted (security_level &#62;= BT_SECURITY_L2)</desc>
			<rect x="0" y="470.69" width="155.339" height="30.6142" class="st17"/>
			<text x="4" y="481.8" class="st13">Connection encrypted <tspan x="4" dy="1.38em" class="st3">(security_level &#62;= BT_SECURITY_L2)</tspan></text>		</g>
		<g id="shape55-91" transform="translate(215.009,-162.264)">
			<title>Sheet.55</title>
			<desc>Peer disconnected</desc>
			<rect x="0" y="481.304" width="86.5827" height="20" class="st17"/>
			<text x="5.73" y="494.9" class="st13">Peer disconnected</text>		</g>
		<g id="shape59-94" transform="translate(361.045,-344.889)">
			<title>Dynamic connector.59</title>
			<path d="M5.6 501.3 L8.47 800.72" class="st10"/>
		</g>
		<g id="shape62-99" transform="translate(166.764,-401.582)">
			<title>Rectangle.216</title>
			<desc>Connection error?</desc>
			<rect x="0" y="461.117" width="86.5827" height="40.1866" class="st18"/>
			<text x="6.25" y="484.21" class="st19">Connection error?</text>		</g>
		<g id="shape64-102" transform="translate(118.397,-480.304)">
			<title>Sheet.64</title>
			<desc>Bluetooth LE peer connects</desc>
			<rect x="0" y="481.304" width="183.317" height="20" class="st17"/>
			<text x="13.61" y="495.5" class="st2">Bluetooth LE peer connects</text>		</g>
		<g id="shape65-105" transform="translate(44.8101,-138.304)">
			<title>Sheet.65</title>
			<desc>Peer disconnected</desc>
			<rect x="0" y="481.304" width="86.5827" height="20" class="st17"/>
			<text x="5.73" y="494.9" class="st13">Peer disconnected</text>		</g>
		<g id="shape66-108" transform="translate(44.8101,-96.7789)">
			<title>Sheet.66</title>
			<desc>Peer disconnected</desc>
			<rect x="0" y="481.304" width="86.5827" height="20" class="st17"/>
			<text x="5.73" y="494.9" class="st13">Peer disconnected</text>		</g>
		<g id="shape70-111" transform="translate(215.009,-68.2647)">
			<title>Sheet.70</title>
			<desc>bt_conn_unref</desc>
			<rect x="0" y="491.304" width="69.9296" height="10" class="st17"/>
			<text x="4.67" y="499.9" class="st13">bt_conn_unref</text>		</g>
		<g id="shape72-114" transform="translate(366.647,-276.591)">
			<title>Sheet.72</title>
			<desc>bt_conn_unref</desc>
			<rect x="0" y="491.304" width="69.9296" height="10" class="st17"/>
			<text x="4.67" y="499.9" class="st13">bt_conn_unref</text>		</g>
		<g id="shape73-117" transform="translate(210.055,-462.612)">
			<title>Sheet.73</title>
			<desc>bt_conn_unref</desc>
			<rect x="0" y="491.304" width="69.9296" height="10" class="st17"/>
			<text x="4.67" y="499.9" class="st13">bt_conn_unref</text>		</g>
	</g>
</svg>
