<?xml version="1.0" encoding="UTF-8" standalone="no"?>
<!DOCTYPE svg PUBLIC "-//W3C//DTD SVG 1.1//EN" "http://www.w3.org/Graphics/SVG/1.1/DTD/svg11.dtd">
<!-- Generated by Microsoft Visio, SVG Export caf_power_manager_states.svg Page-1 -->
<svg xmlns="http://www.w3.org/2000/svg" xmlns:xlink="http://www.w3.org/1999/xlink" xmlns:ev="http://www.w3.org/2001/xml-events"
		xmlns:v="http://schemas.microsoft.com/visio/2003/SVGExtensions/" width="7.96294in" height="8.14239in"
		viewBox="0 0 573.332 586.252" xml:space="preserve" color-interpolation-filters="sRGB" class="st23">
	<v:documentProperties v:langID="1035" v:viewMarkup="false"/>

	<style type="text/css">
	<![CDATA[
		.st1 {fill:#d9e1e2;stroke:none;stroke-width:1}
		.st2 {fill:#0033a0;stroke:none;stroke-width:1}
		.st3 {fill:#ffffff;font-family:Arial;font-size:0.916672em}
		.st4 {fill:none;stroke:none;stroke-width:1}
		.st5 {fill:#333f48;font-family:Arial;font-size:1.16666em}
		.st6 {fill:#768692;font-family:Arial;font-size:0.833336em}
		.st7 {font-size:1em}
		.st8 {fill:#333f48;font-family:Arial;font-size:0.833336em}
		.st9 {fill:#333f48;font-family:Arial;font-size:0.666664em}
		.st10 {fill:#768692;font-family:Arial;font-size:0.75em}
		.st11 {marker-end:url(#mrkr13-60);stroke:#333f48;stroke-linecap:butt;stroke-width:1}
		.st12 {fill:#333f48;fill-opacity:1;stroke:#333f48;stroke-opacity:1;stroke-width:0.28409090909091}
		.st13 {fill:#333f48;stroke:none;stroke-width:1}
		.st14 {fill:#0077c8;stroke:none;stroke-width:1}
		.st15 {fill:#feffff;font-size:1.09091em}
		.st16 {fill:#768692;stroke:none;stroke-width:1}
		.st17 {marker-end:url(#mrkr13-110);stroke:#768692;stroke-linecap:butt;stroke-width:1}
		.st18 {fill:#768692;fill-opacity:1;stroke:#768692;stroke-opacity:1;stroke-width:0.28409090909091}
		.st19 {fill:#feffff;font-family:Arial;font-size:0.916672em}
		.st20 {marker-end:url(#mrkr13-149);stroke:#768692;stroke-linecap:butt;stroke-width:1}
		.st21 {stroke:#768692;stroke-dasharray:1,4;stroke-linecap:butt;stroke-width:1}
		.st22 {marker-end:url(#mrkr13-60);marker-start:url(#mrkr13-178);stroke:#333f48;stroke-linecap:butt;stroke-width:1}
		.st23 {fill:none;fill-rule:evenodd;font-size:12px;overflow:visible;stroke-linecap:square;stroke-miterlimit:3}
	]]>
	</style>

	<defs id="Markers">
		<g id="lend13">
			<path d="M 3 1 L 0 0 L 3 -1 L 3 1 " style="stroke:none"/>
		</g>
		<marker id="mrkr13-60" class="st12" v:arrowType="13" v:arrowSize="2" v:setback="10.2" refX="-10.2" orient="auto"
				markerUnits="strokeWidth" overflow="visible">
			<use xlink:href="#lend13" transform="scale(-3.52,-3.52) "/>
		</marker>
		<marker id="mrkr13-110" class="st18" v:arrowType="13" v:arrowSize="2" v:setback="10.2" refX="-10.2" orient="auto"
				markerUnits="strokeWidth" overflow="visible">
			<use xlink:href="#lend13" transform="scale(-3.52,-3.52) "/>
		</marker>
		<marker id="mrkr13-149" class="st18" v:arrowType="13" v:arrowSize="2" v:setback="10.56" refX="-10.56" orient="auto"
				markerUnits="strokeWidth" overflow="visible">
			<use xlink:href="#lend13" transform="scale(-3.52,-3.52) "/>
		</marker>
		<marker id="mrkr13-178" class="st12" v:arrowType="13" v:arrowSize="2" v:setback="10.2" refX="10.2" orient="auto"
				markerUnits="strokeWidth" overflow="visible">
			<use xlink:href="#lend13" transform="scale(3.52) "/>
		</marker>
	</defs>
	<g v:mID="0" v:index="1" v:groupContext="foregroundPage">
		<title>Page-1</title>
		<v:pageProperties v:drawingScale="0.0393701" v:pageScale="0.0393701" v:drawingUnits="24" v:shadowOffsetX="8.50394"
				v:shadowOffsetY="-8.50394"/>
		<v:layer v:name="design" v:index="0"/>
		<v:layer v:name="Connector" v:index="1"/>
		<g id="shape247-1" v:mID="247" v:groupContext="shape" transform="translate(1,-44.2194)">
			<title>Sheet.247</title>
			<rect x="0" y="120.246" width="274.398" height="466.006" class="st1"/>
		</g>
		<g id="shape75-3" v:mID="75" v:groupContext="shape" v:layerMember="0" transform="translate(85.4107,-175.22)">
			<title>Sheet.75</title>
			<desc>STATE_SUSPENDED</desc>
			<v:textBlock v:margins="rect(4,4,4,4)" v:tabSpace="42.5197"/>
			<v:textRect cx="71.5748" cy="558.997" width="143.15" height="54.5109"/>
			<ellipse cx="71.5748" cy="558.997" rx="71.5748" ry="27.2555" class="st2"/>
			<text x="16.56" y="562.3" class="st3" v:langID="1035"><v:paragraph v:horizAlign="1"/><v:tabList/>STATE_SUSPENDED</text>		</g>
		<g id="shape7-6" v:mID="7" v:groupContext="shape" transform="translate(11.3952,-565.252)">
			<title>Sheet.7</title>
			<desc>START</desc>
			<v:textBlock v:margins="rect(4,4,4,4)" v:tabSpace="42.5197"/>
			<v:textRect cx="255.118" cy="576.252" width="510.24" height="20"/>
			<rect x="0" y="566.252" width="510.236" height="20" class="st4"/>
			<text x="232.17" y="580.45" class="st5" v:langID="1033"><v:paragraph v:horizAlign="1"/><v:tabList/>START</text>		</g>
		<g id="shape8-9" v:mID="8" v:groupContext="shape" transform="translate(436.764,-261.018)">
			<title>Sheet.8</title>
			<desc>wake_up_event (consumed)</desc>
			<v:textBlock v:margins="rect(4,4,4,4)" v:tabSpace="42.5197"/>
			<v:textRect cx="43.2913" cy="574.422" width="86.59" height="23.6601"/>
			<rect x="0" y="562.592" width="86.5827" height="23.6601" class="st4"/>
			<text x="8.26" y="571.42" class="st6" v:langID="1033"><v:paragraph v:horizAlign="1"/><v:tabList/>wake_up_event <tspan
						x="16.89" dy="1.2em" class="st7">(consumed)</tspan></text>		</g>
		<g id="shape34-13" v:mID="34" v:groupContext="shape" transform="translate(36.4582,-416.989)">
			<title>Sheet.34</title>
			<desc>power_state_allowed(SUSPENDED)</desc>
			<v:textBlock v:margins="rect(4,4,4,4)" v:tabSpace="42.5197"/>
			<v:textRect cx="96.3529" cy="579.005" width="192.71" height="14.4931"/>
			<rect x="0" y="571.759" width="192.706" height="14.4931" class="st4"/>
			<text x="14.93" y="582.61" class="st8" v:langID="1033"><v:paragraph v:horizAlign="1"/><v:tabList/>power_state_allowed(SUSPENDED)</text>		</g>
		<g id="shape35-16" v:mID="35" v:groupContext="shape" transform="translate(829.535,144.881) rotate(90)">
			<title>Sheet.35</title>
			<desc>!power_state_allowed (SUSPENDED)</desc>
			<v:textBlock v:margins="rect(4,4,4,4)" v:tabSpace="42.5197"/>
			<v:textRect cx="46.063" cy="581.252" width="92.13" height="10"/>
			<rect x="0" y="576.252" width="92.126" height="10" class="st4"/>
			<text x="7.37" y="578.85" class="st9" v:langID="1044"><v:paragraph v:horizAlign="1"/><v:tabList/>!<tspan class="st7"
						v:langID="1033">power_state_allowed</tspan> <tspan x="18.5" dy="1.2em" class="st7" v:langID="1033">(SUSPENDED)</tspan></text>		</g>
		<g id="shape36-21" v:mID="36" v:groupContext="shape" transform="translate(47.063,-325.023)">
			<title>Sheet.36</title>
			<desc>force_power_down_event || power_down_timer</desc>
			<v:textBlock v:margins="rect(4,4,4,4)" v:tabSpace="42.5197"/>
			<v:textRect cx="71.5748" cy="571.236" width="143.15" height="30.0317"/>
			<rect x="0" y="556.22" width="143.15" height="30.0317" class="st4"/>
			<text x="10.33" y="567.04" class="st8" v:langID="1033"><v:paragraph v:horizAlign="1"/><v:tabList/>force_power_down_event || <tspan
						x="29.33" dy="1.38em" class="st7">power_down_timer</tspan></text>		</g>
		<g id="shape37-25" v:mID="37" v:groupContext="shape" transform="translate(298.323,-395.308)">
			<title>Sheet.37</title>
			<desc>power_down_event</desc>
			<v:textBlock v:margins="rect(4,4,4,4)" v:tabSpace="42.5197"/>
			<v:textRect cx="49.9206" cy="558.997" width="99.85" height="54.5109"/>
			<rect x="0" y="531.741" width="99.8413" height="54.5109" class="st4"/>
			<text x="6.56" y="562" class="st6" v:langID="1033"><v:paragraph v:horizAlign="1"/><v:tabList/>power_down_event</text>		</g>
		<g id="shape38-28" v:mID="38" v:groupContext="shape" transform="translate(303.678,-268.476)">
			<title>Sheet.38</title>
			<desc>error_trigger_timer</desc>
			<v:textBlock v:margins="rect(4,4,4,4)" v:tabSpace="42.5197"/>
			<v:textRect cx="46.3773" cy="548.315" width="92.76" height="75.8741"/>
			<rect x="0" y="510.378" width="92.7547" height="75.8741" class="st4"/>
			<text x="4.98" y="551.32" class="st6" v:langID="1033"><v:paragraph v:horizAlign="1"/><v:tabList/>error_trigger_timer</text>		</g>
		<g id="shape39-31" v:mID="39" v:groupContext="shape" transform="translate(298.323,-158.011)">
			<title>Sheet.39</title>
			<desc>power_down_event</desc>
			<v:textBlock v:margins="rect(4,4,4,4)" v:tabSpace="42.5197"/>
			<v:textRect cx="49.9206" cy="551.113" width="99.85" height="70.2779"/>
			<rect x="0" y="515.974" width="99.8413" height="70.2779" class="st4"/>
			<text x="6.56" y="554.11" class="st6" v:langID="1033"><v:paragraph v:horizAlign="1"/><v:tabList/>power_down_event</text>		</g>
		<g id="shape41-34" v:mID="41" v:groupContext="shape" transform="translate(-568.913,251.308) rotate(-90)">
			<title>Sheet.41</title>
			<desc>force_power_down_event</desc>
			<v:textBlock v:margins="rect(4,4,4,4)" v:tabSpace="42.5197"/>
			<v:textRect cx="64.8665" cy="581.252" width="129.74" height="10"/>
			<rect x="0" y="576.252" width="129.733" height="10" class="st4"/>
			<text x="7.61" y="584.25" class="st8" v:langID="1033"><v:paragraph v:horizAlign="1"/><v:tabList/>force_power_down_event</text>		</g>
		<g id="shape42-37" v:mID="42" v:groupContext="shape" transform="translate(-557.154,426.495) rotate(-90)">
			<title>Sheet.42</title>
			<desc>power_down_event &#38;&#38; power_state_allowed(OFF)</desc>
			<v:textBlock v:margins="rect(4,4,4,4)" v:tabSpace="42.5197"/>
			<v:textRect cx="65.3377" cy="574.492" width="130.68" height="23.5197"/>
			<rect x="0" y="562.732" width="130.675" height="23.5197" class="st4"/>
			<text x="13.91" y="571.49" class="st8" v:langID="1033"><v:paragraph v:horizAlign="1"/><v:tabList/>power_down_event &#38;&#38; <tspan
						x="5.03" dy="1.2em" class="st7">power_state_allowed(OFF)</tspan></text>		</g>
		<g id="shape44-41" v:mID="44" v:groupContext="shape" transform="translate(62.857,-140.055)">
			<title>Sheet.44</title>
			<desc>power_manager_restrict_event &#38;&#38; power_state_allowed(OFF)</desc>
			<v:textBlock v:margins="rect(4,4,4,4)" v:tabSpace="42.5197"/>
			<v:textRect cx="85.2669" cy="571.236" width="170.54" height="30.0317"/>
			<rect x="0" y="556.22" width="170.534" height="30.0317" class="st4"/>
			<text x="8.28" y="567.04" class="st8" v:langID="1033"><v:paragraph v:horizAlign="1"/><v:tabList/>power_manager_restrict_event &#38;&#38; <tspan
						x="24.96" dy="1.38em" class="st7">power_state_allowed(OFF)</tspan></text>		</g>
		<g id="shape45-45" v:mID="45" v:groupContext="shape" transform="translate(5.25197,-37.2923)">
			<title>Sheet.45</title>
			<desc>(power_manager_restrict_event &#38;&#38; !power_state_allowed(OFF)) |...</desc>
			<v:textBlock v:margins="rect(4,4,4,4)" v:tabSpace="42.5197"/>
			<v:textRect cx="84.2039" cy="563.61" width="168.41" height="45.2842"/>
			<rect x="0" y="540.968" width="168.408" height="45.2842" class="st4"/>
			<text x="21.28" y="556.41" class="st9" v:langID="1033"><v:paragraph v:horizAlign="1"/><v:tabList/>(power_manager_restrict_event &#38;&#38; <tspan
						x="30.33" dy="1.2em" class="st7">!power_state_allowed(OFF)) || </tspan><tspan x="56.18" dy="1.2em"
						class="st7">wake_up_event</tspan></text>		</g>
		<g id="shape46-50" v:mID="46" v:groupContext="shape" transform="translate(275.398,-491.765)">
			<title>Sheet.46</title>
			<desc>(any state) module_state_event &#38;&#38; event-&#62;state == ERROR</desc>
			<v:textBlock v:margins="rect(4,4,4,4)" v:tabSpace="42.5197"/>
			<v:textRect cx="61.4229" cy="566.159" width="122.85" height="40.1866"/>
			<rect x="0" y="546.065" width="122.846" height="40.1866" class="st4"/>
			<text x="4" y="558.06" class="st10" v:langID="1033"><v:paragraph/><v:tabList/>(any state)<v:newlineChar/><tspan x="4"
						dy="1.2em" class="st7">module_state_event <v:newlineChar/></tspan><tspan x="4" dy="1.2em" class="st7">&#38;&#38; event</tspan>-&#62;state == ERROR</text>		</g>
		<g id="shape51-55" v:mID="51" v:groupContext="shape" v:layerMember="0" transform="translate(66.2567,-469.815)">
			<title>Dynamic connector.144</title>
			<path d="M5.54 586.25 C-24.38 583.15 -43.87 632.64 -45.34 671.04 C-46.89 711.75 -28.19 740 0.14 762.19 L0.43 762.4"
					class="st11"/>
		</g>
		<g id="shape52-61" v:mID="52" v:groupContext="shape" transform="translate(1,-1)">
			<title>Sheet.52</title>
			<desc>MCU RESET</desc>
			<v:textBlock v:margins="rect(4,4,4,4)" v:tabSpace="42.5197"/>
			<v:textRect cx="255.118" cy="576.252" width="510.24" height="20"/>
			<rect x="0" y="566.252" width="510.236" height="20" class="st4"/>
			<text x="213.89" y="580.45" class="st5" v:langID="1033"><v:paragraph v:horizAlign="1"/><v:tabList/>MCU RESET</text>		</g>
		<g id="shape53-64" v:mID="53" v:groupContext="shape" transform="translate(420.132,-398.903)">
			<title>Sheet.53</title>
			<desc>wake_up_event (consumed)</desc>
			<v:textBlock v:margins="rect(4,4,4,4)" v:tabSpace="42.5197"/>
			<v:textRect cx="43.2913" cy="574.422" width="86.59" height="23.6601"/>
			<rect x="0" y="562.592" width="86.5827" height="23.6601" class="st4"/>
			<text x="8.26" y="571.42" class="st6" v:langID="1033"><v:paragraph v:horizAlign="1"/><v:tabList/>wake_up_event <tspan
						x="16.89" dy="1.2em" class="st7">(consumed)</tspan></text>		</g>
		<g id="shape55-68" v:mID="55" v:groupContext="shape" transform="translate(259.313,-555.9)">
			<title>Circle.1344</title>
			<v:userDefs>
				<v:ud v:nameU="visVersion" v:val="VT0(15):26"/>
				<v:ud v:nameU="visMasterStencil" v:prompt="" v:val="VT4(Basic_M.vssx)"/>
			</v:userDefs>
			<path d="M0 579.17 A7.08661 7.08661 0 0 1 14.17 579.17 A7.08661 7.08661 0 1 1 0 579.17 Z" class="st13"/>
		</g>
		<g id="shape57-70" v:mID="57" v:groupContext="shape" v:layerMember="1" transform="translate(259.313,-562.987)">
			<title>Dynamic connector.57</title>
			<path d="M0 586.25 C-29.31 586.25 -76.12 586.25 -98.01 601.36 C-113.64 612.16 -116.56 630.66 -117.1 646.75 L-117.1 647.11"
					class="st11"/>
		</g>
		<g id="shape58-75" v:mID="58" v:groupContext="shape" v:layerMember="0" transform="translate(70.5139,-437.421)">
			<title>Sheet.58</title>
			<desc>STATE_IDLE</desc>
			<v:textBlock v:margins="rect(4,4,4,4)"/>
			<v:textRect cx="71.5748" cy="558.997" width="143.15" height="54.5109"/>
			<ellipse cx="71.5748" cy="558.997" rx="71.5748" ry="27.2555" class="st14"/>
			<text x="37.17" y="562.6" class="st3" v:langID="1035"><v:paragraph v:horizAlign="1" v:bulletSize="0.166667"/><v:tabList/>STATE<tspan
						class="st15" v:langID="1033">_</tspan><tspan class="st15" v:langID="1044">IDLE</tspan></text>		</g>
		<g id="shape59-80" v:mID="59" v:groupContext="shape" v:layerMember="0" transform="translate(73.9921,-356.547)">
			<title>Sheet.59</title>
			<desc>STATE_IDLE power_down_timer started</desc>
			<v:textBlock v:margins="rect(4,4,4,4)"/>
			<v:textRect cx="71.5748" cy="558.997" width="143.15" height="54.5109"/>
			<ellipse cx="71.5748" cy="558.997" rx="71.5748" ry="27.2555" class="st16"/>
			<text x="38.56" y="555.7" class="st3" v:langID="1035"><v:paragraph v:horizAlign="1" v:bulletSize="0.166667"/><v:tabList/>STATE_IDLE<v:newlineChar/><v:paragraph
						v:horizAlign="1" v:bulletSize="0.166667"/><tspan x="5.24" dy="1.2em" class="st7" v:langID="1044"> </tspan>power_down_timer started</text>		</g>
		<g id="shape62-84" v:mID="62" v:groupContext="shape" v:layerMember="1" transform="translate(65.1664,-464.677)">
			<title>Dynamic connector.62</title>
			<path d="M5.35 586.25 C-7.32 586.25 -15.91 612.12 -15.98 632.03 C-16.03 647.48 -10.97 659.35 -1.39 664.44 L-1.04 664.53"
					class="st11"/>
		</g>
		<g id="shape70-89" v:mID="70" v:groupContext="shape" v:layerMember="0" transform="translate(71.7971,-268.271)">
			<title>Sheet.70</title>
			<desc>STATE_SUSPENDING</desc>
			<v:textBlock v:margins="rect(4,4,4,4)"/>
			<v:textRect cx="71.5748" cy="558.997" width="143.15" height="54.5109"/>
			<ellipse cx="71.5748" cy="558.997" rx="71.5748" ry="27.2555" class="st13"/>
			<text x="14.42" y="562.3" class="st3" v:langID="1035"><v:paragraph v:horizAlign="1" v:bulletSize="0.166667"/><v:tabList/>STATE_SUSPENDING</text>		</g>
		<g id="shape84-92" v:mID="84" v:groupContext="shape" v:layerMember="0" transform="translate(83.2047,-77.0403)">
			<title>Sheet.84</title>
			<desc>STATE_OFF</desc>
			<v:textBlock v:margins="rect(4,4,4,4)"/>
			<v:textRect cx="71.5748" cy="558.997" width="143.15" height="54.5109"/>
			<ellipse cx="71.5748" cy="558.997" rx="71.5748" ry="27.2555" class="st14"/>
			<text x="39.79" y="562.3" class="st3" v:langID="1035"><v:paragraph v:horizAlign="1" v:bulletSize="0.166667"/><v:tabList/>STATE_OFF</text>		</g>
		<g id="shape86-95" v:mID="86" v:groupContext="shape" v:layerMember="0" transform="translate(324.07,-437.693)">
			<title>Sheet.86</title>
			<desc>STATE_ERROR</desc>
			<v:textBlock v:margins="rect(4,4,4,4)"/>
			<v:textRect cx="71.5748" cy="558.997" width="143.15" height="54.5109"/>
			<ellipse cx="71.5748" cy="558.997" rx="71.5748" ry="27.2555" class="st13"/>
			<text x="30.93" y="562.3" class="st3" v:langID="1035"><v:paragraph v:horizAlign="1" v:bulletSize="0.166667"/><v:tabList/>STATE_<tspan
						class="st7" v:langID="1044">ERROR</tspan></text>		</g>
		<g id="shape87-99" v:mID="87" v:groupContext="shape" transform="translate(261.225,-23.1191)">
			<title>Circle.87</title>
			<v:userDefs>
				<v:ud v:nameU="visVersion" v:val="VT0(15):26"/>
				<v:ud v:nameU="visMasterStencil" v:prompt="" v:val="VT4(Basic_M.vssx)"/>
			</v:userDefs>
			<path d="M0 579.17 A7.08661 7.08661 0 0 1 14.17 579.17 A7.08661 7.08661 0 1 1 0 579.17 Z" class="st13"/>
		</g>
		<g id="shape93-101" v:mID="93" v:groupContext="shape" v:layerMember="0" transform="translate(324.07,-115.259)">
			<title>Sheet.93</title>
			<desc>STATE_ERROR_OFF</desc>
			<v:textBlock v:margins="rect(4,4,4,4)"/>
			<v:textRect cx="71.5748" cy="558.997" width="143.15" height="54.5109"/>
			<ellipse cx="71.5748" cy="558.997" rx="71.5748" ry="27.2555" class="st14"/>
			<text x="16.87" y="562.3" class="st3" v:langID="1035"><v:paragraph v:horizAlign="1" v:bulletSize="0.166667"/><v:tabList/>STATE_<tspan
						class="st7" v:langID="1044">ERROR_</tspan>OFF</text>		</g>
		<g id="shape96-105" v:mID="96" v:groupContext="shape" v:layerMember="1" transform="translate(395.644,-115.259)">
			<title>Dynamic connector.96</title>
			<path d="M0 586.25 C-0 607.52 0 637.92 -20.49 653.83 C-40.49 669.37 -80.03 671.09 -109.69 671.28 L-110.05 671.28"
					class="st17"/>
		</g>
		<g id="shape97-111" v:mID="97" v:groupContext="shape" transform="translate(311.268,-43.9556)">
			<title>Sheet.97</title>
			<desc>wake_up_event</desc>
			<v:textBlock v:margins="rect(4,4,4,4)" v:tabSpace="42.5197"/>
			<v:textRect cx="43.2913" cy="548.315" width="86.59" height="75.8741"/>
			<rect x="0" y="510.378" width="86.5827" height="75.8741" class="st4"/>
			<text x="8.26" y="551.32" class="st6" v:langID="1033"><v:paragraph v:horizAlign="1"/><v:tabList/>wake_up_event</text>		</g>
		<g id="shape105-114" v:mID="105" v:groupContext="shape" v:layerMember="0" transform="translate(317.063,-206.507)">
			<title>Sheet.105</title>
			<desc>STATE_ERROR_SUSPENDED</desc>
			<v:textBlock v:margins="rect(4,4,4,4)" v:tabSpace="42.5197"/>
			<v:textRect cx="84.2039" cy="558.997" width="168.41" height="54.5109"/>
			<ellipse cx="84.2039" cy="558.997" rx="84.2039" ry="27.2555" class="st2"/>
			<text x="6.27" y="562.3" class="st19" v:langID="1033"><v:paragraph v:horizAlign="1"/><v:tabList/>STATE_ERROR_SUSPENDED</text>		</g>
		<g id="shape107-117" v:mID="107" v:groupContext="shape" v:layerMember="0" transform="translate(323.441,-344.35)">
			<title>Sheet.107</title>
			<desc>STATE_ERROR error_trigger started</desc>
			<v:textBlock v:margins="rect(4,4,4,4)"/>
			<v:textRect cx="71.5748" cy="558.997" width="143.15" height="54.5109"/>
			<ellipse cx="71.5748" cy="558.997" rx="71.5748" ry="27.2555" class="st16"/>
			<text x="30.93" y="555.7" class="st3" v:langID="1033"><v:paragraph v:horizAlign="1"/><v:tabList/>STATE_ERROR<v:newlineChar/><v:paragraph
						v:horizAlign="1" v:bulletSize="0.166667"/><tspan x="22.97" dy="1.2em" class="st7">error_trigger started</tspan></text>		</g>
		<g id="shape115-121" v:mID="115" v:groupContext="shape" v:layerMember="1" transform="translate(154.78,-77.0403)">
			<title>Dynamic connector</title>
			<path d="M0 586.25 C0 597.96 0 613.85 16.33 622.55 C33.67 631.79 69.4 632.93 95.89 633.07 L96.25 633.07" class="st11"/>
		</g>
		<g id="shape124-126" v:mID="124" v:groupContext="shape" v:layerMember="1" transform="translate(222.489,-383.802)">
			<title>Dynamic connector.124</title>
			<path d="M-5.35 586.25 C5.59 584.83 16.68 572.7 16.62 552.69 C16.58 537.64 10.22 518.12 0.84 509.63 L0.51 509.49"
					class="st11"/>
		</g>
		<g id="shape125-131" v:mID="125" v:groupContext="shape" v:layerMember="1" transform="translate(219.823,-295.527)">
			<title>Dynamic connector.125</title>
			<path d="M-4.88 586.25 C13.53 576.6 54.85 538.53 53.47 494.38 C52.36 458.89 23.67 419.47 1.13 410.77 L0.78 410.71"
					class="st11"/>
		</g>
		<g id="shape228-136" v:mID="228" v:groupContext="shape" v:layerMember="1" transform="translate(226.49,-205.85)">
			<title>Dynamic connector.228</title>
			<path d="M0 586.25 C26.79 581.18 31.96 547.27 31.15 519.49 C30.44 495.1 25.13 475.42 29.33 460.24 L29.48 459.92"
					class="st11"/>
		</g>
		<g id="shape230-141" v:mID="230" v:groupContext="shape" transform="translate(845.205,247.772) rotate(90)">
			<title>Sheet.230</title>
			<desc>wake_up_event</desc>
			<v:textBlock v:margins="rect(4,4,4,4)" v:tabSpace="42.5197"/>
			<v:textRect cx="46.063" cy="579.396" width="92.13" height="13.712"/>
			<rect x="0" y="572.54" width="92.126" height="13.712" class="st4"/>
			<text x="11.04" y="582.4" class="st8" v:langID="1033"><v:paragraph v:horizAlign="1"/><v:tabList/>wake_up_event</text>		</g>
		<g id="shape231-144" v:mID="231" v:groupContext="shape" v:layerMember="1" transform="translate(387.929,-438.514)">
			<title>Dynamic connector.231</title>
			<path d="M7.09 586.25 L7.09 615.35" class="st20"/>
		</g>
		<g id="shape233-150" v:mID="233" v:groupContext="shape" v:layerMember="1" transform="translate(389.346,-206.507)">
			<title>Dynamic connector.233</title>
			<path d="M7.09 586.25 L7.09 613.11" class="st20"/>
		</g>
		<g id="shape235-155" v:mID="235" v:groupContext="shape" v:layerMember="1" transform="translate(387.878,-344.35)">
			<title>Dynamic connector.235</title>
			<path d="M6.41 586.25 L7.59 659.07" class="st20"/>
		</g>
		<g id="shape248-160" v:mID="248" v:groupContext="shape" transform="translate(54.8583,-230.986)">
			<title>Sheet.248</title>
			<desc>power_down_event &#38;&#38; !power_state_allowed(OFF)</desc>
			<v:textBlock v:margins="rect(4,4,4,4)" v:tabSpace="42.5197"/>
			<v:textRect cx="73.6723" cy="571.236" width="147.35" height="30.0317"/>
			<rect x="0" y="556.22" width="147.345" height="30.0317" class="st4"/>
			<text x="22.25" y="567.04" class="st8" v:langID="1033"><v:paragraph v:horizAlign="1"/><v:tabList/>power_down_event &#38;&#38; <tspan
						x="11.98" dy="1.38em" class="st7">!power_state_allowed(OFF)</tspan></text>		</g>
		<g id="shape249-164" v:mID="249" v:groupContext="shape" v:layerMember="0" transform="translate(275.398,-457.435)">
			<title>Dynamic connector.81</title>
			<path d="M0 579.32 L38.45 579.08" class="st20"/>
		</g>
		<g id="shape250-169" v:mID="250" v:groupContext="shape" v:layerMember="1" transform="translate(288.717,-491.765)">
			<title>Dynamic connector.183</title>
			<path d="M7.09 586.25 L7.09 611.69" class="st21"/>
		</g>
		<g id="shape255-172" v:mID="255" v:groupContext="shape" v:layerMember="1" transform="translate(266.318,-25.1941)">
			<title>Dynamic connector.255</title>
			<path d="M16.85 588.93 L17.2 589.02 C55.35 596.73 159.97 596.78 223.12 506.92 C284.53 419.53 306.73 247.12 250.13 154.81
						 C193.46 62.39 57.79 50.27 17.73 48.69 L17.37 48.68" class="st22"/>
		</g>
		<g id="shape256-180" v:mID="256" v:groupContext="shape" v:layerMember="1" transform="translate(443.556,-356.547)">
			<title>Dynamic connector.256</title>
			<path d="M6 586.25 C10.38 596.08 24.14 599.13 31.79 592.8 C40.15 585.89 41.23 567.8 34.97 556.33 C30.35 547.86 21.73
						 543 14.72 547.39 L14.5 547.67" class="st17"/>
		</g>
		<g id="shape259-185" v:mID="259" v:groupContext="shape" v:layerMember="1" transform="translate(67.9898,-381)">
			<title>Dynamic connector.259</title>
			<path d="M6.21 586.25 C-6.46 586.25 -15.1 612.28 -15.11 632.29 C-15.12 647.06 -10.44 658.54 -2.22 663.58 L-1.88 663.68"
					class="st11"/>
		</g>
		<g id="shape260-190" v:mID="260" v:groupContext="shape" v:layerMember="1" transform="translate(78.0556,-279.709)">
			<title>Dynamic connector.260</title>
			<path d="M6.21 586.25 C-6.46 586.25 -15.1 612.28 -15.11 632.29 C-15.12 647.06 -10.44 658.54 -2.22 663.58 L-1.88 663.68"
					class="st11"/>
		</g>
		<g id="shape262-195" v:mID="262" v:groupContext="shape" v:layerMember="0" transform="translate(76.7778,-281.787)">
			<title>Dynamic connector.262</title>
			<path d="M5.54 586.25 C-24.38 583.15 -43.87 632.64 -45.34 671.04 C-46.89 711.75 -28.19 740 0.14 762.19 L0.43 762.4"
					class="st11"/>
		</g>
		<g id="shape263-200" v:mID="263" v:groupContext="shape" v:layerMember="1" transform="translate(82.1964,-194.67)">
			<title>Dynamic connector.263</title>
			<path d="M6.21 586.25 C-6.46 586.25 -15.1 612.28 -15.11 632.29 C-15.12 647.06 -10.44 658.54 -2.22 663.58 L-1.88 663.68"
					class="st11"/>
		</g>
		<g id="shape267-205" v:mID="267" v:groupContext="shape" v:layerMember="1" transform="translate(464.579,-218.287)">
			<title>Dynamic connector.267</title>
			<path d="M6 586.25 C10.38 596.08 24.14 599.13 31.79 592.8 C40.15 585.89 41.23 567.8 34.97 556.33 C30.35 547.86 21.73
						 543 14.72 547.39 L14.5 547.67" class="st17"/>
		</g>
	</g>
</svg>
