<?xml version="1.0" encoding="UTF-8" standalone="no"?>
<!DOCTYPE svg PUBLIC "-//W3C//DTD SVG 1.1//EN" "http://www.w3.org/Graphics/SVG/1.1/DTD/svg11.dtd">
<!-- Generated by Microsoft Visio, SVG Export caf_ble_state_transitions.svg Page-1 -->
<svg xmlns="http://www.w3.org/2000/svg" xmlns:xlink="http://www.w3.org/1999/xlink" xmlns:ev="http://www.w3.org/2001/xml-events"
		width="6.07745in" height="7.18046in" viewBox="0 0 437.577 516.993" xml:space="preserve" color-interpolation-filters="sRGB"
		class="st20">
	<style type="text/css">
	<![CDATA[
		.st1 {stroke:#333f48;stroke-linecap:butt;stroke-width:1}
		.st2 {fill:#333f48;font-family:Calibri;font-size:1.16666em}
		.st3 {font-size:1em}
		.st4 {fill:#0077c8;stroke:none;stroke-width:1}
		.st5 {fill:#feffff;font-family:Calibri;font-size:1.00001em}
		.st6 {fill:#768692;stroke:none;stroke-width:1}
		.st7 {fill:#ffffff;font-family:Calibri;font-size:1.00001em}
		.st8 {fill:#0033a0;stroke:none;stroke-width:1}
		.st9 {fill:#333f48;stroke:none;stroke-width:1}
		.st10 {marker-end:url(#mrkr13-26);stroke:#333f48;stroke-linecap:butt;stroke-width:1}
		.st11 {fill:#333f48;fill-opacity:1;stroke:#333f48;stroke-opacity:1;stroke-width:0.28409090909091}
		.st12 {marker-end:url(#mrkr13-32);stroke:#333f48;stroke-linecap:butt;stroke-width:1}
		.st13 {fill:#ffffff;stroke:none;stroke-linecap:butt;stroke-width:7.2}
		.st14 {fill:#333f48;font-family:Calibri;font-size:0.833336em}
		.st15 {marker-start:url(#mrkr13-67);stroke:#333f48;stroke-linecap:butt;stroke-width:1}
		.st16 {fill:none;marker-end:url(#mrkr13-81);stroke:none;stroke-width:1}
		.st17 {fill:#00a9ce;fill-opacity:1;stroke:#00a9ce;stroke-opacity:1;stroke-width:0.28409090909091}
		.st18 {fill:none;stroke:none;stroke-width:1}
		.st19 {fill:#00a9ce;stroke:none;stroke-width:1}
		.st20 {fill:none;fill-rule:evenodd;font-size:12px;overflow:visible;stroke-linecap:square;stroke-miterlimit:3}
	]]>
	</style>

	<defs id="Markers">
		<g id="lend13">
			<path d="M 3 1 L 0 0 L 3 -1 L 3 1 " style="stroke:none"/>
		</g>
		<marker id="mrkr13-26" class="st11" refX="-10.56" orient="auto" markerUnits="strokeWidth" overflow="visible">
			<use xlink:href="#lend13" transform="scale(-3.52,-3.52) "/>
		</marker>
		<marker id="mrkr13-32" class="st11" refX="-10.2" orient="auto" markerUnits="strokeWidth" overflow="visible">
			<use xlink:href="#lend13" transform="scale(-3.52,-3.52) "/>
		</marker>
		<marker id="mrkr13-67" class="st11" refX="10.2" orient="auto" markerUnits="strokeWidth" overflow="visible">
			<use xlink:href="#lend13" transform="scale(3.52) "/>
		</marker>
		<marker id="mrkr13-81" class="st17" refX="-10.56" orient="auto" markerUnits="strokeWidth" overflow="visible">
			<use xlink:href="#lend13" transform="scale(-3.52,-3.52) "/>
		</marker>
	</defs>
	<g>
		<title>Page-1</title>
		<g id="shape27-1" transform="translate(1.1121,-50.6028)">
			<title>Sheet.27</title>
			<desc>Bluetooth LE peer disconnected Bluetooth connection can be re...</desc>
			<path d="M0 516.99 L417.89 516.99" class="st1"/>
			<text x="118.45" y="530.91" class="st2">Bluetooth LE peer disconnected <tspan x="105.87" dy="1.2em" class="st3">Bluetooth connection can be reused</tspan></text>		</g>
		<g id="shape29-6" transform="translate(60.4422,-360.578)">
			<title>Sheet.29</title>
			<desc>CONNECTED</desc>
			<ellipse cx="48.2455" cy="496.9" rx="48.2455" ry="20.0933" class="st4"/>
			<text x="17.65" y="500.5" class="st5">CONNECTED</text>		</g>
		<g id="shape30-9" transform="translate(161.81,-205.857)">
			<title>Sheet.30</title>
			<desc>DISCONNECTING</desc>
			<ellipse cx="48.2455" cy="496.9" rx="48.2455" ry="20.0933" class="st6"/>
			<text x="7.14" y="500.5" class="st7">DISCONNECTING</text>		</g>
		<g id="shape31-12" transform="translate(60.4422,-283.487)">
			<title>Sheet.31</title>
			<desc>SECURED</desc>
			<ellipse cx="48.2455" cy="496.9" rx="48.2455" ry="20.0933" class="st8"/>
			<text x="25.63" y="500.5" class="st5">SECURED</text>		</g>
		<g id="shape32-15" transform="translate(318.402,-360.578)">
			<title>Sheet.32</title>
			<desc>CONN_FAILED</desc>
			<ellipse cx="48.2455" cy="496.9" rx="48.2455" ry="20.0933" class="st9"/>
			<text x="13.46" y="500.5" class="st7">CONN_FAILED</text>		</g>
		<g id="shape33-18" transform="translate(161.81,-122.468)">
			<title>Sheet.33</title>
			<desc>DISCONNECTED</desc>
			<ellipse cx="48.2455" cy="496.9" rx="48.2455" ry="20.0933" class="st9"/>
			<text x="9.69" y="500.5" class="st7">DISCONNECTED</text>		</g>
		<g id="shape34-21" transform="translate(217.142,-496.139)">
			<title>Dynamic connector</title>
			<path d="M-7.09 516.99 L-7.09 540" class="st10"/>
		</g>
		<g id="shape35-27" transform="translate(232.103,-440.523)">
			<title>Dynamic connector.23</title>
			<desc>YES</desc>
			<path d="M0 516.99 C33.64 516.99 90.1 516.99 114.97 526.33 C128.1 531.26 132.42 538.79 133.84 546.21 L133.87 546.57"
					class="st12"/>
			<rect x="6.96975" y="499.961" width="14.3506" height="12.0001" class="st13"/>
			<text x="6.97" y="508.96" class="st14">YES</text>		</g>
		<g id="shape36-35" transform="translate(188.007,-440.523)">
			<title>Dynamic connector.24</title>
			<desc>NO</desc>
			<path d="M0 516.99 C-19.83 516.99 -52.08 516.99 -66.85 525.76 C-75.26 530.75 -78 538.58 -78.89 546.2 L-78.9 546.56"
					class="st12"/>
			<rect x="-20.2502" y="500.399" width="13.0762" height="12.0001" class="st13"/>
			<text x="-20.25" y="509.4" class="st14">NO</text>		</g>
		<g id="shape37-42" transform="translate(101.601,-360.578)">
			<title>Dynamic connector.25</title>
			<path d="M7.09 516.99 L7.09 543.34" class="st10"/>
		</g>
		<g id="shape38-47" transform="translate(202.968,-122.468)">
			<title>Dynamic connector.28</title>
			<path d="M7.09 516.99 L7.09 579.55" class="st10"/>
		</g>
		<g id="shape40-52" transform="translate(60.4422,-380.672)">
			<title>Dynamic connector.32</title>
			<path d="M0 516.99 C-19.01 516.99 -20.27 585.01 -20.33 644.44 C-20.39 705.63 -19.18 757.7 0.12 779.16 C13.71 794.27 36.25
						 794.21 70.01 794.2 C89.68 794.19 113.14 794.2 121.2 782.31 L121.29 781.96" class="st12"/>
		</g>
		<g id="shape41-57" transform="translate(109.716,-283.492)">
			<title>Dynamic connector.33</title>
			<path d="M0 516.99 C0 531.38 -0 553.26 10.04 564.04 C17.39 571.94 30.13 573.89 41.53 574.38 L41.89 574.38" class="st12"/>
		</g>
		<g id="shape42-62" transform="translate(202.968,-162.655)">
			<title>Dynamic connector.38</title>
			<path d="M7.09 506.79 L7.09 506.43 L7.09 473.79" class="st15"/>
		</g>
		<g id="shape43-68" transform="translate(156.933,-380.672)">
			<title>Dynamic connector.50</title>
			<path d="M0 516.99 C214.84 523.84 156.75 650.86 111.68 669.45 L111.33 669.53" class="st12"/>
		</g>
		<g id="shape44-73" transform="translate(60.4422,-303.58)">
			<title>Dynamic connector.63</title>
			<path d="M0 516.99 C-19.01 516.99 -17.7 544.01 -17.51 567.45 C-17.3 594 -18.51 615.97 -8.05 627.23 C3.33 639.48 28.54
						 639.04 59.54 638.9 C83.44 638.8 110.79 638.87 119.92 651.15 L120.02 651.5" class="st12"/>
		</g>
		<g id="shape45-78" transform="translate(118.275,-252.089)">
			<title>Nordic Blue.67</title>
			<desc>Application module requests disconnection (bt_conn_disconnect...</desc>
			<rect x="0" y="476.807" width="183.317" height="40.1866" class="st16"/>
			<text x="33.28" y="489.81" class="st14">Application module requests <tspan x="17.77" dy="1.2em" class="st3">disconnection (bt_conn_disconnect) </tspan><tspan
						x="22.27" dy="1.2em" class="st3">and sends event (ble_peer_event)</tspan></text>		</g>
		<g id="shape46-85" transform="translate(1,-497.521)">
			<title>Sheet.46</title>
			<path d="M0 516.99 L420.37 516.99" class="st1"/>
		</g>
		<g id="shape53-88" transform="translate(110.126,-328.492)">
			<title>Sheet.53</title>
			<desc>Connection encrypted (security_level &#62;= BT_SECURITY_L2)</desc>
			<rect x="0" y="486.379" width="155.339" height="30.6142" class="st18"/>
			<text x="4" y="497.49" class="st14">Connection encrypted <tspan x="4" dy="1.38em" class="st3">(security_level &#62;= BT_SECURITY_L2)</tspan></text>		</g>
		<g id="shape55-92" transform="translate(215.009,-177.954)">
			<title>Sheet.55</title>
			<desc>Peer disconnected</desc>
			<rect x="0" y="496.993" width="86.5827" height="20" class="st18"/>
			<text x="5.73" y="510.59" class="st14">Peer disconnected</text>		</g>
		<g id="shape59-95" transform="translate(359.993,-360.578)">
			<title>Dynamic connector.59</title>
			<path d="M6.65 516.99 L7.49 816.41" class="st10"/>
		</g>
		<g id="shape64-100" transform="translate(118.397,-495.993)">
			<title>Sheet.64</title>
			<desc>Bluetooth LE peer connects</desc>
			<rect x="0" y="496.993" width="183.317" height="20" class="st18"/>
			<text x="13.61" y="511.19" class="st2">Bluetooth LE peer connects</text>		</g>
		<g id="shape65-103" transform="translate(69.6502,-132.561)">
			<title>Sheet.65</title>
			<desc>Peer disconnected</desc>
			<rect x="0" y="496.993" width="86.5827" height="20" class="st18"/>
			<text x="5.73" y="510.59" class="st14">Peer disconnected</text>		</g>
		<g id="shape70-106" transform="translate(215.009,-83.9539)">
			<title>Sheet.70</title>
			<desc>bt_conn_unref</desc>
			<rect x="0" y="506.993" width="69.9296" height="10" class="st18"/>
			<text x="4.67" y="515.59" class="st14">bt_conn_unref</text>		</g>
		<g id="shape72-109" transform="translate(366.647,-292.281)">
			<title>Sheet.72</title>
			<desc>bt_conn_unref</desc>
			<rect x="0" y="506.993" width="69.9296" height="10" class="st18"/>
			<text x="4.67" y="515.59" class="st14">bt_conn_unref</text>		</g>
		<g id="shape73-112" transform="translate(210.055,-478.301)">
			<title>Sheet.73</title>
			<desc>bt_conn_ref</desc>
			<rect x="0" y="506.993" width="69.9296" height="10" class="st18"/>
			<text x="9.92" y="515.59" class="st14">bt_conn_ref</text>		</g>
		<g id="shape77-115" transform="translate(553.576,-289.099) rotate(45)">
			<title>Sheet.77</title>
			<rect x="0" y="485.812" width="31.1811" height="31.1811" class="st19"/>
		</g>
		<g id="shape78-117" transform="translate(175.09,-395.323)">
			<title>Sheet.78</title>
			<desc>Connection error?</desc>
			<rect x="0" y="499.284" width="69.9296" height="17.7095" class="st18"/>
			<text x="11.72" y="505.14" class="st14">Connection <tspan x="22.29" dy="1.2em" class="st3">error?</tspan></text>		</g>
	</g>
</svg>
