<?xml version="1.0" encoding="UTF-8" standalone="no"?>
<!DOCTYPE svg PUBLIC "-//W3C//DTD SVG 1.1//EN" "http://www.w3.org/Graphics/SVG/1.1/DTD/svg11.dtd">
<!-- Generated by Microsoft Visio, SVG Export caf_power_manager_states.svg Drawing -->
<svg xmlns="http://www.w3.org/2000/svg" xmlns:xlink="http://www.w3.org/1999/xlink" xmlns:ev="http://www.w3.org/2001/xml-events"
		width="8.11113in" height="8.27809in" viewBox="0 0 584.002 596.022" xml:space="preserve" color-interpolation-filters="sRGB"
		class="st21">
	<style type="text/css">
	<![CDATA[
		.st1 {stroke:#333f48;stroke-linecap:butt;stroke-width:1}
		.st2 {fill:none;stroke:none;stroke-width:1}
		.st3 {fill:#333f48;font-family:Calibri;font-size:1.16666em}
		.st4 {fill:#768692;font-family:Calibri;font-size:0.833336em}
		.st5 {font-size:1em}
		.st6 {marker-end:url(#mrkr13-19);stroke:#333f48;stroke-linecap:butt;stroke-width:1}
		.st7 {fill:#333f48;fill-opacity:1;stroke:#333f48;stroke-opacity:1;stroke-width:0.28409090909091}
		.st8 {fill:#d9e1e2;stroke:#768692;stroke-width:1}
		.st9 {marker-end:url(#mrkr13-27);stroke:#768692;stroke-linecap:butt;stroke-width:1}
		.st10 {fill:#768692;fill-opacity:1;stroke:#768692;stroke-opacity:1;stroke-width:0.28409090909091}
		.st11 {marker-start:url(#mrkr13-81);stroke:#333f48;stroke-linecap:butt;stroke-width:1}
		.st12 {fill:#0077c8;stroke:none;stroke-width:1}
		.st13 {fill:#feffff;font-family:Calibri;font-size:1.00001em}
		.st14 {fill:#768692;stroke:none;stroke-width:1}
		.st15 {fill:#ffffff;font-family:Calibri;font-size:1.00001em}
		.st16 {fill:#333f48;stroke:none;stroke-width:1}
		.st17 {fill:#0033a0;stroke:none;stroke-width:1}
		.st18 {fill:#333f48;font-family:Calibri;font-size:0.833336em}
		.st19 {fill:#768692;font-family:Calibri;font-size:0.75em}
		.st20 {stroke:#768692;stroke-dasharray:1,4;stroke-linecap:butt;stroke-width:1}
		.st21 {fill:none;fill-rule:evenodd;font-size:12px;overflow:visible;stroke-linecap:square;stroke-miterlimit:3}
	]]>
	</style>

	<defs id="Markers">
		<g id="lend13">
			<path d="M 3 1 L 0 0 L 3 -1 L 3 1 " style="stroke:none"/>
		</g>
		<marker id="mrkr13-19" class="st7" refX="-10.56" orient="auto" markerUnits="strokeWidth" overflow="visible">
			<use xlink:href="#lend13" transform="scale(-3.52,-3.52) "/>
		</marker>
		<marker id="mrkr13-27" class="st10" refX="-10.56" orient="auto" markerUnits="strokeWidth" overflow="visible">
			<use xlink:href="#lend13" transform="scale(-3.52,-3.52) "/>
		</marker>
		<marker id="mrkr13-81" class="st7" refX="10.2" orient="auto" markerUnits="strokeWidth" overflow="visible">
			<use xlink:href="#lend13" transform="scale(3.52) "/>
		</marker>
	</defs>
	<g>
		<title>Drawing</title>
		<g id="shape27-1" transform="translate(19,-44.5137)">
			<title>Sheet.27</title>
			<path d="M0 596.02 L510.24 596.02" class="st1"/>
		</g>
		<g id="shape46-4" transform="translate(19,-554.778)">
			<title>Sheet.46</title>
			<path d="M0 596.02 L510.24 596.02" class="st1"/>
		</g>
		<g id="shape64-7" transform="translate(19,-554.778)">
			<title>Sheet.64</title>
			<desc>START</desc>
			<rect x="0" y="576.022" width="510.236" height="20" class="st2"/>
			<text x="237.23" y="590.22" class="st3">START</text>		</g>
		<g id="shape70-10" transform="translate(425.197,-305.159)">
			<title>Sheet.70</title>
			<desc>wake_up_event (consumed)</desc>
			<rect x="0" y="572.362" width="74.2907" height="23.6601" class="st2"/>
			<text x="4.65" y="581.19" class="st4">wake_up_event <tspan x="13.04" dy="1.2em" class="st5">(consumed)</tspan></text>		</g>
		<g id="shape74-14" transform="translate(524.418,-44.5137)">
			<title>Dynamic connector.74</title>
			<path d="M-7.02 596.02 L-7.15 96.32" class="st6"/>
		</g>
		<g id="shape75-20" transform="translate(19,-72.8602)">
			<title>Sheet.75</title>
			<rect x="0" y="138.861" width="262.091" height="457.161" class="st8"/>
		</g>
		<g id="shape81-22" transform="translate(281.091,-466.299)">
			<title>Dynamic connector.81</title>
			<path d="M0 588.94 L22.1 588.94" class="st9"/>
		</g>
		<g id="shape82-28" transform="translate(380.332,-242.597)">
			<title>Dynamic connector.82</title>
			<path d="M7.09 596.02 L7.09 655.74" class="st9"/>
		</g>
		<g id="shape83-33" transform="translate(380.332,-358.658)">
			<title>Dynamic connector.83</title>
			<path d="M7.09 596.02 L7.09 661.34" class="st9"/>
		</g>
		<g id="shape84-38" transform="translate(380.332,-453.355)">
			<title>Dynamic connector.84</title>
			<path d="M7.09 596.02 L7.09 639.97" class="st9"/>
		</g>
		<g id="shape85-43" transform="translate(453.154,-358.658)">
			<title>Dynamic connector</title>
			<path d="M-7.09 596.02 L-7.09 607.94 L29.2 607.94 L29.2 536.83 L-7.09 536.83 L-7.09 545.28" class="st9"/>
		</g>
		<g id="shape86-48" transform="translate(452.587,-242.597)">
			<title>Dynamic connector.86</title>
			<path d="M-7.09 596.02 L-7.09 608.45 L29.76 608.45 L29.76 536.83 L-7.09 536.83 L-7.09 545.28" class="st9"/>
		</g>
		<g id="shape91-53" transform="translate(61.4061,-214.592)">
			<title>Dynamic connector.91</title>
			<path d="M7.09 596.02 L7.09 627.98" class="st6"/>
		</g>
		<g id="shape92-58" transform="translate(300.808,-56.2586)">
			<title>Sheet.92</title>
			<desc>wake_up_event</desc>
			<rect x="0" y="520.148" width="86.5827" height="75.8741" class="st2"/>
			<text x="10.79" y="561.09" class="st4">wake_up_event</text>		</g>
		<g id="shape94-61" transform="translate(203.422,-234.686)">
			<title>Dynamic connector.94</title>
			<path d="M7.09 596.02 L49.32 596.02 L49.32 347.06 L17.65 347.06" class="st6"/>
		</g>
		<g id="shape95-66" transform="translate(203.422,-400.011)">
			<title>Dynamic connector.95</title>
			<path d="M7.09 596.02 L46.96 596.02 A2.36221 2.36221 0 0 1 51.69 596.02 L53.89 596.02 L53.89 504.5 L17.65 504.5"
					class="st6"/>
		</g>
		<g id="shape96-71" transform="translate(394.491,-132.133)">
			<title>Dynamic connector.96</title>
			<path d="M-7.07 596.02 L-7.1 673.08" class="st9"/>
		</g>
		<g id="shape97-76" transform="translate(203.422,-483.643)">
			<title>Dynamic connector.97</title>
			<path d="M17.29 596.02 L17.65 596.02 L49.32 596.02 L49.32 764.69 L7.09 764.69" class="st11"/>
		</g>
		<g id="shape98-82" transform="translate(56.0773,-314.972)">
			<title>Dynamic connector.98</title>
			<path d="M7.09 596.02 L-11.1 596.02 L-11.1 760.18 L-3.47 760.18" class="st6"/>
		</g>
		<g id="shape102-87" transform="translate(63.164,-466.054)">
			<title>Sheet.102</title>
			<desc>STATE_IDLE</desc>
			<rect x="0" y="555.836" width="147.345" height="40.1866" class="st12"/>
			<text x="45.02" y="579.53" class="st13">STATE_IDLE</text>		</g>
		<g id="shape104-90" transform="translate(63.164,-379.918)">
			<title>Sheet.104</title>
			<desc>STATE_IDLE power_down_timer started</desc>
			<rect x="0" y="555.836" width="147.345" height="40.1866" class="st14"/>
			<text x="45.02" y="572.33" class="st15">STATE_IDLE <tspan x="6.17" dy="1.2em" class="st5">power_down_timer started</tspan></text>		</g>
		<g id="shape106-94" transform="translate(63.164,-294.878)">
			<title>Sheet.106</title>
			<desc>STATE_SUSPENDING</desc>
			<rect x="0" y="555.836" width="147.345" height="40.1866" class="st16"/>
			<text x="23.55" y="579.53" class="st15">STATE_SUSPENDING</text>		</g>
		<g id="shape108-97" transform="translate(63.164,-214.592)">
			<title>Sheet.108</title>
			<desc>STATE_SUSPENDED</desc>
			<rect x="0" y="555.836" width="147.345" height="40.1866" class="st17"/>
			<text x="26.1" y="579.53" class="st13">STATE_SUSPENDED</text>		</g>
		<g id="shape109-100" transform="translate(75.5794,-294.878)">
			<title>Dynamic connector.109</title>
			<path d="M-7.09 596.02 L-7.09 625.56" class="st6"/>
		</g>
		<g id="shape110-105" transform="translate(63.164,-131.886)">
			<title>Sheet.110</title>
			<desc>STATE_OFF</desc>
			<rect x="0" y="555.836" width="147.345" height="40.1866" class="st12"/>
			<text x="46.19" y="579.53" class="st13">STATE_OFF</text>		</g>
		<g id="shape113-108" transform="translate(313.747,-453.355)">
			<title>Sheet.113</title>
			<desc>STATE_ERROR</desc>
			<rect x="0" y="555.836" width="147.345" height="40.1866" class="st16"/>
			<text x="39" y="579.53" class="st15">STATE_ERROR</text>		</g>
		<g id="shape115-111" transform="translate(313.747,-358.658)">
			<title>Sheet.115</title>
			<desc>STATE_ERROR error_trigger started</desc>
			<rect x="0" y="555.836" width="147.345" height="40.1866" class="st14"/>
			<text x="39" y="572.33" class="st15">STATE_ERROR <tspan x="23.23" dy="1.2em" class="st5">error_trigger started</tspan></text>		</g>
		<g id="shape117-115" transform="translate(313.747,-242.597)">
			<title>Sheet.117</title>
			<desc>STATE_ERROR_SUSPENDED</desc>
			<rect x="0" y="555.836" width="147.345" height="40.1866" class="st17"/>
			<text x="6.44" y="579.53" class="st13">STATE_ERROR_SUSPENDED</text>		</g>
		<g id="shape119-118" transform="translate(313.747,-132.133)">
			<title>Sheet.119</title>
			<desc>STATE_ERROR_OFF</desc>
			<rect x="0" y="555.836" width="147.345" height="40.1866" class="st12"/>
			<text x="26.53" y="579.53" class="st13">STATE_ERROR_OFF</text>		</g>
		<g id="shape123-121" transform="translate(69.4281,-437.191)">
			<title>Sheet.123</title>
			<desc>power_state_allowed(SUSPENDED)</desc>
			<rect x="0" y="581.849" width="157.344" height="14.1732" class="st2"/>
			<text x="6.74" y="592.54" class="st18">power_state_allowed(SUSPENDED)</text>		</g>
		<g id="shape125-124" transform="translate(861.68,66.0007) rotate(90)">
			<title>Sheet.125</title>
			<desc>!power_state_allowed(SUSPENDED)</desc>
			<rect x="0" y="586.022" width="159.167" height="10" class="st2"/>
			<text x="6.02" y="594.62" class="st18">!power_state_allowed(SUSPENDED)</text>		</g>
		<g id="shape126-127" transform="translate(68.4927,-342.992)">
			<title>Sheet.126</title>
			<desc>force_power_down_event || power_down_timer</desc>
			<rect x="0" y="565.991" width="143.15" height="30.0317" class="st2"/>
			<text x="11.79" y="576.81" class="st18">force_power_down_event || <tspan x="31.01" dy="1.38em" class="st5">power_down_timer</tspan></text>		</g>
		<g id="shape127-131" transform="translate(294.664,-398.844)">
			<title>Sheet.127</title>
			<desc>power_down_event</desc>
			<rect x="0" y="541.511" width="92.7547" height="54.5109" class="st2"/>
			<text x="5.33" y="571.77" class="st4">power_down_event</text>		</g>
		<g id="shape128-134" transform="translate(294.664,-282.784)">
			<title>Sheet.128</title>
			<desc>error_trigger_timer</desc>
			<rect x="0" y="520.148" width="92.7547" height="75.8741" class="st2"/>
			<text x="6.49" y="561.09" class="st4">error_trigger_timer</text>		</g>
		<g id="shape129-137" transform="translate(294.664,-172.319)">
			<title>Sheet.129</title>
			<desc>power_down_event</desc>
			<rect x="0" y="525.744" width="92.7547" height="70.2779" class="st2"/>
			<text x="5.33" y="563.88" class="st4">power_down_event</text>		</g>
		<g id="shape131-140" transform="translate(851.14,229.068) rotate(90)">
			<title>Sheet.131</title>
			<desc>wake_up_event</desc>
			<rect x="0" y="582.31" width="92.126" height="13.712" class="st2"/>
			<text x="13.56" y="592.77" class="st18">wake_up_event</text>		</g>
		<g id="shape132-143" transform="translate(-553.503,238.296) rotate(-90)">
			<title>Sheet.132</title>
			<desc>force_power_down_event</desc>
			<rect x="0" y="586.022" width="118.056" height="10" class="st2"/>
			<text x="4.98" y="594.62" class="st18">force_power_down_event</text>		</g>
		<g id="shape134-146" transform="translate(-552.66,416.863) rotate(-90)">
			<title>Sheet.134</title>
			<desc>power_down_event &#38;&#38; power_state_allowed(OFF)</desc>
			<rect x="0" y="572.503" width="121.744" height="23.5197" class="st2"/>
			<text x="11.87" y="580.06" class="st18">power_down_event &#38;&#38; <tspan x="5.68" dy="1.38em" class="st5">power_state_allowed(OFF)</tspan></text>		</g>
		<g id="shape135-150" transform="translate(68.4928,-261.937)">
			<title>Sheet.135</title>
			<desc>power_down_event &#38;&#38; !power_state_allowed(OFF)</desc>
			<rect x="0" y="565.991" width="147.345" height="30.0317" class="st2"/>
			<text x="24.67" y="576.81" class="st18">power_down_event &#38;&#38; <tspan x="16.85" dy="1.38em" class="st5">!power_state_allowed(OFF)</tspan></text>		</g>
		<g id="shape136-154" transform="translate(68.4927,-179.732)">
			<title>Sheet.136</title>
			<desc>power_manager_restrict_event &#38;&#38; power_state_allowed(OFF)</desc>
			<rect x="0" y="565.991" width="170.534" height="30.0317" class="st2"/>
			<text x="12.7" y="576.81" class="st18">power_manager_restrict_event &#38;&#38; <tspan x="30.08" dy="1.38em" class="st5">power_state_allowed(OFF)</tspan></text>		</g>
		<g id="shape137-158" transform="translate(68.4927,-81.7032)">
			<title>Sheet.137</title>
			<desc>(power_manager_restrict_event &#38;&#38; !power_state_allowed(OFF)) |...</desc>
			<rect x="0" y="550.166" width="170.534" height="45.8559" class="st2"/>
			<text x="11.19" y="562.89" class="st18">(power_manager_restrict_event &#38;&#38; <tspan x="21.2" dy="1.2em" class="st5">!power_state_allowed(OFF)) || </tspan><tspan
						x="52.77" dy="1.38em" class="st5">wake_up_event</tspan></text>		</g>
		<g id="shape138-163" transform="translate(281.091,-493.542)">
			<title>Sheet.138</title>
			<desc>(any state) module_state_event &#38;&#38; event-&#62;state == ERROR</desc>
			<rect x="0" y="555.836" width="122.846" height="40.1866" class="st2"/>
			<text x="4" y="567.83" class="st19">(any state) <tspan x="4" dy="1.2em" class="st5">module_state_event  </tspan><tspan
						x="4" dy="1.2em" class="st5">&#38;&#38; event</tspan>-&#62;state == ERROR</text>		</g>
		<g id="shape140-168" transform="translate(62.3415,-466.054)">
			<title>Dynamic connector.140</title>
			<path d="M7.09 596.02 L7.09 631.41" class="st6"/>
		</g>
		<g id="shape141-173" transform="translate(75.5794,-379.918)">
			<title>Dynamic connector.141</title>
			<path d="M-7.09 596.02 L-7.09 630.32" class="st6"/>
		</g>
		<g id="shape142-178" transform="translate(61.4061,-131.886)">
			<title>Dynamic connector.142</title>
			<path d="M7.09 596.02 L7.09 672.83" class="st6"/>
		</g>
		<g id="shape143-183" transform="translate(61.4061,-554.778)">
			<title>Dynamic connector.143</title>
			<path d="M7.09 596.02 L7.09 634" class="st6"/>
		</g>
		<g id="shape144-188" transform="translate(70.2506,-486.147)">
			<title>Dynamic connector.144</title>
			<path d="M-7.09 596.02 L-25.12 596.02 L-25.12 760.24 L-17.65 760.24" class="st6"/>
		</g>
		<g id="shape161-193" transform="translate(20.8869,-24.5137)">
			<title>Sheet.161</title>
			<desc>MCU RESET</desc>
			<rect x="0" y="576.022" width="510.236" height="20" class="st2"/>
			<text x="222.06" y="590.22" class="st3">MCU RESET</text>		</g>
		<g id="shape181-196" transform="translate(427.737,-419.528)">
			<title>Sheet.181</title>
			<desc>wake_up_event (consumed)</desc>
			<rect x="0" y="572.362" width="74.2907" height="23.6601" class="st2"/>
			<text x="4.65" y="581.19" class="st4">wake_up_event <tspan x="13.04" dy="1.2em" class="st5">(consumed)</tspan></text>		</g>
		<g id="shape183-200" transform="translate(287.717,-493.542)">
			<title>Dynamic connector.183</title>
			<path d="M7.09 596.02 L7.09 616.18" class="st20"/>
		</g>
	</g>
</svg>
