<?xml version="1.0" encoding="UTF-8" standalone="no"?>
<!DOCTYPE svg PUBLIC "-//W3C//DTD SVG 1.1//EN" "http://www.w3.org/Graphics/SVG/1.1/DTD/svg11.dtd">
<!-- Generated by Microsoft Visio, SVG Export caf_buttons_states.svg Page-1 -->
<svg xmlns="http://www.w3.org/2000/svg" xmlns:xlink="http://www.w3.org/1999/xlink" xmlns:ev="http://www.w3.org/2001/xml-events"
		width="7.34187in" height="5.61208in" viewBox="0 0 528.615 404.069" xml:space="preserve" color-interpolation-filters="sRGB"
		class="st21">
	<style type="text/css">
	<![CDATA[
		.st1 {marker-end:url(#mrkr13-6);stroke:#333f48;stroke-linecap:butt;stroke-width:1}
		.st2 {fill:#333f48;fill-opacity:1;stroke:#333f48;stroke-opacity:1;stroke-width:0.28409090909091}
		.st3 {fill:none;stroke:#f58220;stroke-dasharray:5.25,3.75;stroke-width:0.75}
		.st4 {marker-end:url(#mrkr13-14);stroke:#f58220;stroke-linecap:butt;stroke-width:1}
		.st5 {fill:#f58220;fill-opacity:1;stroke:#f58220;stroke-opacity:1;stroke-width:0.28409090909091}
		.st6 {marker-end:url(#mrkr13-20);stroke:#f58220;stroke-linecap:butt;stroke-opacity:0.77;stroke-width:1}
		.st7 {fill:#f58220;fill-opacity:0.77;stroke:#f58220;stroke-opacity:0.77;stroke-width:0.28409090909091}
		.st8 {marker-start:url(#mrkr13-26);stroke:#333f48;stroke-linecap:butt;stroke-width:1}
		.st9 {stroke:#333f48;stroke-linecap:butt;stroke-width:1}
		.st10 {fill:none;stroke:none;stroke-width:1}
		.st11 {fill:#ed7d31;font-family:Calibri;font-size:1.00001em}
		.st12 {marker-end:url(#mrkr13-50);stroke:#333f48;stroke-linecap:butt;stroke-width:1}
		.st13 {fill:#0077c8;stroke:none;stroke-width:1}
		.st14 {fill:#feffff;font-family:Calibri;font-size:1.00001em}
		.st15 {fill:#768692;stroke:none;stroke-width:1}
		.st16 {fill:#00a9ce;stroke:none;stroke-width:1}
		.st17 {fill:#3a4349;font-family:Calibri;font-size:1.00001em}
		.st18 {font-size:1em}
		.st19 {fill:#333f48;font-family:Calibri;font-size:1.00001em}
		.st20 {fill:#f58220;font-family:Calibri;font-size:1.00001em}
		.st21 {fill:none;fill-rule:evenodd;font-size:12px;overflow:visible;stroke-linecap:square;stroke-miterlimit:3}
	]]>
	</style>

	<defs id="Markers">
		<g id="lend13">
			<path d="M 3 1 L 0 0 L 3 -1 L 3 1 " style="stroke:none"/>
		</g>
		<marker id="mrkr13-6" class="st2" refX="-10.56" orient="auto" markerUnits="strokeWidth" overflow="visible">
			<use xlink:href="#lend13" transform="scale(-3.52,-3.52) "/>
		</marker>
		<marker id="mrkr13-14" class="st5" refX="-10.56" orient="auto" markerUnits="strokeWidth" overflow="visible">
			<use xlink:href="#lend13" transform="scale(-3.52,-3.52) "/>
		</marker>
		<marker id="mrkr13-20" class="st7" refX="-10.56" orient="auto" markerUnits="strokeWidth" overflow="visible">
			<use xlink:href="#lend13" transform="scale(-3.52,-3.52) "/>
		</marker>
		<marker id="mrkr13-26" class="st2" refX="10.2" orient="auto" markerUnits="strokeWidth" overflow="visible">
			<use xlink:href="#lend13" transform="scale(3.52) "/>
		</marker>
		<marker id="mrkr13-50" class="st2" refX="-10.2" orient="auto" markerUnits="strokeWidth" overflow="visible">
			<use xlink:href="#lend13" transform="scale(-3.52,-3.52) "/>
		</marker>
	</defs>
	<g>
		<title>Page-1</title>
		<g id="shape6-1" transform="translate(186.841,-303.64)">
			<title>Dynamic connector</title>
			<path d="M0 396.98 L155.06 396.98" class="st1"/>
		</g>
		<g id="shape7-7" transform="translate(121.061,403.319) rotate(-90)">
			<title>Right Triangle.41</title>
			<path d="M0 404.07 L316.7 404.07 L0.43 -27.59 L0 404.07 Z" class="st3"/>
		</g>
		<g id="shape8-9" transform="translate(415.033,-288.168)">
			<title>Dynamic connector.43</title>
			<path d="M7.09 404.07 L7.09 547.94" class="st4"/>
		</g>
		<g id="shape9-15" transform="translate(109.095,-133.82)">
			<title>Dynamic connector.44</title>
			<path d="M7.09 404.07 L7.09 263.25" class="st6"/>
		</g>
		<g id="shape10-21" transform="translate(45.3158,-312.836)">
			<title>Dynamic connector.45</title>
			<path d="M-10.2 404.07 L-10.56 404.07 L-24.57 404.07 L-24.57 672.32" class="st8"/>
		</g>
		<g id="shape11-27" transform="translate(422.12,-78.4585)">
			<title>Dynamic connector.46</title>
			<path d="M0 404.07 L0 437.94 L-401.37 437.94" class="st9"/>
		</g>
		<g id="shape12-30" transform="translate(41.1279,-196.091)">
			<title>Sheet.12</title>
			<rect x="0" y="384.069" width="152" height="20" class="st10"/>
		</g>
		<g id="shape13-32" transform="translate(404.819,1) rotate(90)">
			<title>Right Triangle.77</title>
			<path d="M0 404.07 L306.03 404.07 L-0.07 -27.59 L0 404.07 Z" class="st3"/>
		</g>
		<g id="shape14-34" transform="translate(792.424,299.114) rotate(132.179)">
			<title>Sheet.14</title>
			<path d="M0 404.07 L38.08 404.07" class="st1"/>
		</g>
		<g id="shape15-39" transform="translate(3.74212,-373.406)">
			<title>Sheet.15</title>
			<desc>CONFIG_CAF_BUTTONS_PM_EVENTS</desc>
			<rect x="0" y="377.266" width="234.126" height="26.8031" class="st10"/>
			<text x="25.97" y="394.27" class="st11">CONFIG_CAF_BUTTONS_PM_EVENTS</text>		</g>
		<g id="shape16-42" transform="translate(286.306,-3.26733)">
			<title>Sheet.16</title>
			<desc>CONFIG_CAF_BUTTONS_PM_EVENTS</desc>
			<rect x="0" y="377.266" width="234.126" height="26.8031" class="st10"/>
			<text x="25.97" y="394.27" class="st11">CONFIG_CAF_BUTTONS_PM_EVENTS</text>		</g>
		<g id="shape17-45" transform="translate(645.05,410.403) rotate(138.204)">
			<title>Sheet.17</title>
			<path d="M-0 404.07 A216.56 150.811 34.83 0 1 255.17 398.18 L255.47 398.38" class="st12"/>
		</g>
		<g id="shape18-51" transform="translate(-100.489,-23.8817) rotate(-41.5031)">
			<title>Sheet.18</title>
			<path d="M-0 404.07 A224.592 158.03 41.96 0 1 254.69 397.85 L254.99 398.06" class="st12"/>
		</g>
		<g id="shape19-56" transform="translate(351.254,-288.168)">
			<title>Sheet.19</title>
			<desc>STATE_SCANNING</desc>
			<ellipse cx="70.8661" cy="376.432" rx="70.8661" ry="27.6378" class="st13"/>
			<text x="26.53" y="380.03" class="st14">STATE_SCANNING</text>		</g>
		<g id="shape20-59" transform="translate(351.254,-78.4585)">
			<title>Sheet.20</title>
			<desc>STATE_SUSPENDING</desc>
			<ellipse cx="70.8661" cy="376.432" rx="70.8661" ry="27.6378" class="st15"/>
			<text x="20.74" y="380.03" class="st14">STATE_SUSPENDING</text>		</g>
		<g id="shape21-62" transform="translate(45.3158,-78.5449)">
			<title>Sheet.21</title>
			<desc>STATE_ACTIVE</desc>
			<ellipse cx="70.8661" cy="376.432" rx="70.8661" ry="27.6378" class="st16"/>
			<text x="35.43" y="380.03" class="st14">STATE_ACTIVE</text>		</g>
		<g id="shape22-65" transform="translate(45.3158,-285.199)">
			<title>Sheet.22</title>
			<desc>STATE_IDLE</desc>
			<ellipse cx="70.8661" cy="376.432" rx="70.8661" ry="27.6378" class="st15"/>
			<text x="42.22" y="380.03" class="st14">STATE_IDLE</text>		</g>
		<g id="shape23-68" transform="translate(151.357,-329.743)">
			<title>Dynamic connector.32</title>
			<path d="M0 396.98 L214.2 396.98" class="st4"/>
		</g>
		<g id="shape24-73" transform="translate(259.128,-163.572)">
			<title>Sheet.24</title>
			<desc>No button pressed</desc>
			<rect x="0" y="359.849" width="66.8976" height="44.2205" class="st10"/>
			<text x="4" y="378.36" class="st17">No button <tspan x="4" dy="1.2em" class="st18">pressed</tspan></text>		</g>
		<g id="shape25-77" transform="translate(229.59,-45.2539)">
			<title>Sheet.25</title>
			<desc>No button pressed</desc>
			<rect x="0" y="391.314" width="101.595" height="12.7559" class="st10"/>
			<text x="5.35" y="401.29" class="st19">No button pressed</text>		</g>
		<g id="shape26-80" transform="translate(422.12,-189.288)">
			<title>Sheet.26</title>
			<desc>Power-down event</desc>
			<rect x="0" y="377.266" width="70.8661" height="26.8031" class="st10"/>
			<text x="4" y="387.07" class="st20">Power-down <tspan x="4" dy="1.2em" class="st18">event</tspan></text>		</g>
		<g id="shape28-84" transform="translate(213.107,-213.432)">
			<title>Sheet.28</title>
			<desc>Button pressed</desc>
			<rect x="0" y="377.266" width="49.5219" height="26.8031" class="st10"/>
			<text x="4" y="387.07" class="st19">Button <tspan x="4" dy="1.2em" class="st18">pressed</tspan></text>		</g>
		<g id="shape30-88" transform="translate(45.3158,-189.288)">
			<title>Sheet.30</title>
			<desc>Power-down event</desc>
			<rect x="0" y="377.266" width="70.8661" height="26.8031" class="st10"/>
			<text x="4" y="387.07" class="st20">Power-down <tspan x="4" dy="1.2em" class="st18">event</tspan></text>		</g>
		<g id="shape31-92" transform="translate(211.04,-312.358)">
			<title>Sheet.31</title>
			<desc>Button pressed</desc>
			<rect x="0" y="391.314" width="83.5208" height="12.7559" class="st10"/>
			<text x="4.59" y="401.29" class="st19">Button pressed</text>		</g>
		<g id="shape32-95" transform="translate(211.04,-338.918)">
			<title>Sheet.32</title>
			<desc>Wake-up event</desc>
			<rect x="0" y="391.314" width="83.5208" height="12.7559" class="st10"/>
			<text x="4.49" y="401.29" class="st20">Wake-up event</text>		</g>
		<g id="shape34-98" transform="translate(488.734,-376.266)">
			<title>Sheet.34</title>
			<desc>Initial scan</desc>
			<rect x="0" y="377.266" width="36.3964" height="26.8031" class="st10"/>
			<text x="4.52" y="387.07" class="st19">Initial <tspan x="7.29" dy="1.2em" class="st18">scan</tspan></text>		</g>
	</g>
</svg>
