<?xml version="1.0" encoding="UTF-8" standalone="no"?>
<!DOCTYPE svg PUBLIC "-//W3C//DTD SVG 1.1//EN" "http://www.w3.org/Graphics/SVG/1.1/DTD/svg11.dtd">
<!-- Generated by Microsoft Visio, SVG Export caf_sensor_states.svg SDK test -->
<svg xmlns="http://www.w3.org/2000/svg" xmlns:xlink="http://www.w3.org/1999/xlink" xmlns:ev="http://www.w3.org/2001/xml-events"
		width="7.86443in" height="6.96637in" viewBox="0 0 566.239 501.579" xml:space="preserve" color-interpolation-filters="sRGB"
		class="st24">
	<style type="text/css">
	<![CDATA[
		.st1 {stroke:#f58220;stroke-linecap:butt;stroke-width:1}
		.st2 {fill:none;stroke:#f58220;stroke-dasharray:7,5;stroke-width:1}
		.st3 {fill:#768692;stroke:none;stroke-width:1}
		.st4 {fill:#feffff;font-family:Arial;font-size:0.916672em}
		.st5 {fill:#0033a0;stroke:none;stroke-width:1}
		.st6 {fill:#00a9ce;stroke:none;stroke-width:1}
		.st7 {fill:#0077c8;stroke:none;stroke-width:1}
		.st8 {fill:none;stroke:#768692;stroke-dasharray:7,5;stroke-width:1}
		.st9 {fill:none;stroke:#ee2f4e;stroke-dasharray:7,5;stroke-width:1}
		.st10 {fill:none;stroke:none;stroke-width:1}
		.st11 {fill:#768692;font-family:Arial;font-size:0.916672em}
		.st12 {fill:#333f48;font-family:Arial;font-size:0.916672em}
		.st13 {font-size:1em}
		.st14 {fill:#f58220;font-family:Arial;font-size:0.916672em}
		.st15 {fill:#ee2f4e;font-family:Arial;font-size:0.916672em}
		.st16 {fill:none;stroke:#f58220;stroke-width:1}
		.st17 {fill:#333f48;stroke:#333f48;stroke-width:1}
		.st18 {marker-end:url(#mrkr4-67);stroke:#333f48;stroke-linecap:butt;stroke-width:1}
		.st19 {fill:#333f48;fill-opacity:1;stroke:#333f48;stroke-opacity:1;stroke-width:0.28409090909091}
		.st20 {marker-start:url(#mrkr4-93);stroke:#333f48;stroke-linecap:butt;stroke-width:1}
		.st21 {marker-end:url(#mrkr4-99);stroke:#ee2f4e;stroke-linecap:butt;stroke-width:1}
		.st22 {fill:#ee2f4e;fill-opacity:1;stroke:#ee2f4e;stroke-opacity:1;stroke-width:0.28409090909091}
		.st23 {marker-start:url(#mrkr4-105);stroke:#ee2f4e;stroke-linecap:butt;stroke-width:1}
		.st24 {fill:none;fill-rule:evenodd;font-size:12px;overflow:visible;stroke-linecap:square;stroke-miterlimit:3}
	]]>
	</style>

	<defs id="Markers">
		<g id="lend4">
			<path d="M 2 1 L 0 0 L 2 -1 L 2 1 " style="stroke:none"/>
		</g>
		<marker id="mrkr4-67" class="st19" refX="-7.04" orient="auto" markerUnits="strokeWidth" overflow="visible">
			<use xlink:href="#lend4" transform="scale(-3.52,-3.52) "/>
		</marker>
		<marker id="mrkr4-93" class="st19" refX="6.68" orient="auto" markerUnits="strokeWidth" overflow="visible">
			<use xlink:href="#lend4" transform="scale(3.52) "/>
		</marker>
		<marker id="mrkr4-99" class="st22" refX="-7.04" orient="auto" markerUnits="strokeWidth" overflow="visible">
			<use xlink:href="#lend4" transform="scale(-3.52,-3.52) "/>
		</marker>
		<marker id="mrkr4-105" class="st22" refX="6.68" orient="auto" markerUnits="strokeWidth" overflow="visible">
			<use xlink:href="#lend4" transform="scale(3.52) "/>
		</marker>
	</defs>
	<g>
		<title>nRF Connect SDK diagram</title>
		<g id="shape33-1" transform="translate(165.773,-226.354)">
			<title>Dynamic connector.33</title>
			<path d="M0 501.58 L23.58 518.12" class="st1"/>
		</g>
		<g id="shape17-4" transform="translate(78.7829,-206.157)">
			<title>Nordic Middle Grey.17</title>
			<path d="M0 501.58 L424.94 501.58 L424.94 430.36 L0 430.36 L0 501.58 Z" class="st2"/>
		</g>
		<g id="shape6-6" transform="translate(140.249,-445.303)">
			<title>Sheet.6</title>
			<desc>SENSOR_STATE_DISABLED</desc>
			<ellipse cx="95.4069" cy="473.941" rx="95.4069" ry="27.6378" class="st3"/>
			<text x="21.13" y="477.24" class="st4">SENSOR_STATE_DISABLED</text>		</g>
		<g id="shape7-9" transform="translate(140.249,-1)">
			<title>Sheet.7</title>
			<desc>SENSOR_STATE_ERROR</desc>
			<ellipse cx="95.4069" cy="473.941" rx="95.4069" ry="27.6378" class="st5"/>
			<text x="28.47" y="477.24" class="st4">SENSOR_STATE_ERROR</text>		</g>
		<g id="shape8-12" transform="translate(140.249,-339.74)">
			<title>Sheet.8</title>
			<desc>SENSOR_STATE_ACTIVE</desc>
			<ellipse cx="95.4069" cy="473.941" rx="95.4069" ry="27.6378" class="st6"/>
			<text x="28.47" y="477.24" class="st4">SENSOR_STATE_ACTIVE</text>		</g>
		<g id="shape9-15" transform="translate(140.249,-120.428)">
			<title>Sheet.9</title>
			<desc>SENSOR_STATE_SLEEP</desc>
			<ellipse cx="95.4069" cy="473.941" rx="95.4069" ry="27.6378" class="st7"/>
			<text x="30.6" y="477.24" class="st4">SENSOR_STATE_SLEEP</text>		</g>
		<g id="shape16-18" transform="translate(64.3493,-70.4488)">
			<title>Nordic Middle Grey</title>
			<path d="M0 501.58 L331.61 501.58 L331.61 268.78 L0 268.78 L0 501.58 Z" class="st8"/>
		</g>
		<g id="shape19-20" transform="translate(78.7829,-87.438)">
			<title>Nordic Middle Grey.19</title>
			<path d="M0 501.58 L481.63 501.58 L481.63 404.49 L0 404.49 L0 501.58 Z" class="st9"/>
		</g>
		<g id="shape21-22" transform="translate(64.3493,-280.921)">
			<title>Sheet.21</title>
			<desc>Sensor trigger enabled</desc>
			<rect x="0" y="479.256" width="126.277" height="22.3228" class="st10"/>
			<text x="7.49" y="493.72" class="st11">Sensor trigger enabled</text>		</g>
		<g id="shape22-25" transform="translate(235.656,-98.7953)">
			<title>Sheet.22</title>
			<desc>Sensor error</desc>
			<rect x="0" y="479.946" width="75.2679" height="21.6328" class="st10"/>
			<text x="7.07" y="494.06" class="st12">Sensor error</text>		</g>
		<g id="shape24-28" transform="translate(101.185,-184.525)">
			<title>Sheet.24</title>
			<desc>Sensor trigger</desc>
			<rect x="0" y="479.946" width="89.4411" height="21.6328" class="st10"/>
			<text x="10.18" y="494.06" class="st12">Sensor trigger</text>		</g>
		<g id="shape25-31" transform="translate(235.656,-315.273)">
			<title>Sheet.25</title>
			<desc>Sensor sleep conditions met</desc>
			<rect x="0" y="479.946" width="89.4411" height="21.6328" class="st10"/>
			<text x="12.62" y="487.46" class="st12">Sensor sleep <tspan x="9.26" dy="1.2em" class="st13">conditions met</tspan></text>		</g>
		<g id="shape26-35" transform="translate(235.656,-423.671)">
			<title>Sheet.26</title>
			<desc>Sensor initialized</desc>
			<rect x="0" y="479.946" width="95.4069" height="21.6328" class="st10"/>
			<text x="6.13" y="494.06" class="st12">Sensor initialized</text>		</g>
		<g id="shape27-38" transform="translate(234.428,-255.055)">
			<title>Sheet.27</title>
			<desc>CONFIG_CAF_SENSOR_MANAGER_ACTIVE_PM</desc>
			<rect x="0" y="479.256" width="269.291" height="22.3228" class="st10"/>
			<text x="7.81" y="493.72" class="st14">CONFIG_CAF_SENSOR_MANAGER_ACTIVE_PM</text>		</g>
		<g id="shape28-41" transform="translate(342.145,-87.438)">
			<title>Sheet.28</title>
			<desc>CONFIG_CAF_SENSOR_MANAGER_PM</desc>
			<rect x="0" y="479.256" width="218.268" height="22.3228" class="st10"/>
			<text x="5.22" y="493.72" class="st15">CONFIG_CAF_SENSOR_MANAGER_PM</text>		</g>
		<g id="shape29-44" transform="translate(95.5288,-226.354)">
			<title>Sheet.29</title>
			<desc>New wake_up_event</desc>
			<rect x="0" y="465.773" width="89.4411" height="35.8061" class="st16"/>
			<text x="33.72" y="480.38" class="st14">New <tspan x="6.19" dy="1.2em" class="st13">wake_up_event</tspan></text>		</g>
		<g id="shape32-48" transform="translate(189.067,-207.362)">
			<title>Sheet.32</title>
			<ellipse cx="1.55906" cy="500.02" rx="1.55906" ry="1.55906" class="st17"/>
		</g>
		<g id="shape36-50" transform="translate(64.3493,-367.378)">
			<title>Sheet.36</title>
			<desc>Sensor error</desc>
			<rect x="0" y="479.946" width="75.2679" height="21.6328" class="st10"/>
			<text x="7.07" y="494.06" class="st12">Sensor error</text>		</g>
		<g id="shape37-53" transform="translate(64.9814,-472.941)">
			<title>Sheet.37</title>
			<desc>Sensor error</desc>
			<rect x="0" y="479.946" width="75.2679" height="21.6328" class="st10"/>
			<text x="7.07" y="494.06" class="st12">Sensor error</text>		</g>
		<g id="shape38-56" transform="translate(395.964,-155.488)">
			<title>Sheet.38</title>
			<desc>wake_up_event</desc>
			<rect x="0" y="479.946" width="107.756" height="21.6328" class="st10"/>
			<text x="15.35" y="494.06" class="st15">wake_up_event</text>		</g>
		<g id="shape39-59" transform="translate(331.063,-376.923)">
			<title>Sheet.39</title>
			<desc>power_down_event</desc>
			<rect x="0" y="479.946" width="107.756" height="21.6328" class="st10"/>
			<text x="6.18" y="494.06" class="st15">power_down_event</text>		</g>
		<g id="shape10-62" transform="translate(228.57,-445.303)">
			<title>Dynamic connector</title>
			<path d="M7.09 501.58 L7.09 544.83" class="st18"/>
		</g>
		<g id="shape13-68" transform="translate(228.57,-120.428)">
			<title>Dynamic connector.13</title>
			<path d="M7.09 501.58 L7.09 558.69" class="st18"/>
		</g>
		<g id="shape14-73" transform="translate(133.163,-472.941)">
			<title>Dynamic connector.14</title>
			<path d="M7.09 501.58 L-113.16 501.58 L-113.16 945.88 L0.05 945.88" class="st18"/>
		</g>
		<g id="shape15-78" transform="translate(147.336,-367.378)">
			<title>Dynamic connector.15</title>
			<path d="M-7.09 501.58 L-127.34 501.58 L-127.34 840.32 L-14.13 840.32" class="st18"/>
		</g>
		<g id="shape12-83" transform="translate(228.57,-339.74)">
			<title>Dynamic connector.12</title>
			<path d="M7.09 501.58 L7.09 658.58" class="st18"/>
		</g>
		<g id="shape11-88" transform="translate(197.749,-343.001)">
			<title>Dynamic connector.11</title>
			<path d="M-7.05 508.26 L-7.05 508.62 L-7.12 672.15" class="st20"/>
		</g>
		<g id="shape34-94" transform="translate(333.056,-156.784)">
			<title>Dynamic connector.34</title>
			<path d="M-6.86 501.58 L184.84 501.58 L184.84 300.08 L-0.27 300.08" class="st21"/>
		</g>
		<g id="shape35-100" transform="translate(332.391,-138.698)">
			<title>Dynamic connector.35</title>
			<path d="M-0.3 501.58 L0.06 501.58 L213.85 501.58 L213.85 263.35 L-7.2 263.35" class="st23"/>
		</g>
	</g>
</svg>
