<?xml version="1.0" encoding="UTF-8" standalone="no"?>
<!DOCTYPE svg PUBLIC "-//W3C//DTD SVG 1.1//EN" "http://www.w3.org/Graphics/SVG/1.1/DTD/svg11.dtd">
<!-- Generated by Microsoft Visio, SVG Export bt_mesh_le_pair_resp.svg Page-1 -->
<svg xmlns="http://www.w3.org/2000/svg" xmlns:xlink="http://www.w3.org/1999/xlink" xmlns:ev="http://www.w3.org/2001/xml-events"
		xmlns:v="http://schemas.microsoft.com/visio/2003/SVGExtensions/" width="7.94496in" height="8.20466in"
		viewBox="0 0 572.037 590.736" xml:space="preserve" color-interpolation-filters="sRGB" class="st11">
	<v:documentProperties v:langID="1035" v:viewMarkup="false"/>

	<style type="text/css">
	<![CDATA[
		.st1 {stroke:#00a9ce;stroke-linecap:butt;stroke-width:1}
		.st2 {fill:#00a9ce}
		.st3 {fill:#00a9ce;font-family:Arial;font-size:0.75em}
		.st4 {fill:none;stroke:none;stroke-width:1}
		.st5 {font-size:1em}
		.st6 {fill:#0077c8;stroke:none;stroke-width:1}
		.st7 {fill:#ffffff;font-family:Arial;font-size:0.75em}
		.st8 {fill:#768692;stroke:none;stroke-width:1}
		.st9 {stroke:#00a9ce;stroke-dasharray:4,2;stroke-linecap:butt;stroke-width:0.5}
		.st10 {stroke:#00a9ce;stroke-dasharray:2,1;stroke-linecap:butt;stroke-width:0.25}
		.st11 {fill:none;fill-rule:evenodd;font-size:12px;overflow:visible;stroke-linecap:square;stroke-miterlimit:3}
	]]>
	</style>

	<g v:mID="0" v:index="1" v:groupContext="foregroundPage">
		<title>Page-1</title>
		<v:pageProperties v:drawingScale="0.0393701" v:pageScale="0.0393701" v:drawingUnits="24" v:shadowOffsetX="8.50394"
				v:shadowOffsetY="-8.50394"/>
		<v:layer v:name="Connector" v:index="0"/>
		<g id="shape1016-1" v:mID="1016" v:groupContext="shape" transform="translate(1117.66,20.2047) rotate(90)">
			<title>Straight Line.1016</title>
			<v:userDefs>
				<v:ud v:nameU="visVersion" v:prompt="" v:val="VT0(17):26"/>
			</v:userDefs>
			<path d="M0 590.74 L568.35 590.74" class="st1"/>
		</g>
		<g id="shape1013-4" v:mID="1013" v:groupContext="shape" transform="translate(958.022,20.2047) rotate(90)">
			<title>Straight Line.1013</title>
			<v:userDefs>
				<v:ud v:nameU="visVersion" v:prompt="" v:val="VT0(17):26"/>
			</v:userDefs>
			<path d="M0 590.74 L568.35 590.74" class="st1"/>
		</g>
		<g id="shape5-7" v:mID="5" v:groupContext="shape" transform="translate(640.126,20.2047) rotate(90)">
			<title>Straight Line</title>
			<v:userDefs>
				<v:ud v:nameU="visVersion" v:prompt="" v:val="VT0(17):26"/>
			</v:userDefs>
			<path d="M0 590.74 L569.53 590.74" class="st1"/>
		</g>
		<g id="shape6-10" v:mID="6" v:groupContext="shape" transform="translate(773.701,20.2047) rotate(90)">
			<title>Straight Line.15</title>
			<v:userDefs>
				<v:ud v:nameU="visVersion" v:prompt="" v:val="VT0(17):26"/>
			</v:userDefs>
			<path d="M0 590.74 L569.06 590.74" class="st1"/>
		</g>
		<g id="shape7-13" v:mID="7" v:groupContext="shape" transform="translate(53.4342,-488.515) rotate(0.392204)">
			<title>Line Arrow</title>
			<desc>Passkey Reset</desc>
			<v:userDefs>
				<v:ud v:nameU="Scale" v:val="VT0(1):26"/>
				<v:ud v:nameU="AntiScale" v:val="VT0(1):26"/>
				<v:ud v:nameU="visVersion" v:val="VT0(17):26"/>
			</v:userDefs>
			<v:textBlock v:margins="rect(4,4,4,4)" v:tabSpace="42.5197" v:verticalAlign="2"/>
			<v:textRect cx="66.7891" cy="590.736" width="133.58" height="0"/>
			<path d="M127.19 587.54 L127.19 593.93 L133.58 590.74 L127.19 587.54 Z" class="st2"/>
			<path d="M127.19 587.54 L127.19 593.93 L133.58 590.74 L127.19 587.54" class="st1"/>
			<path d="M0 590.74 L127.19 590.74" class="st1"/>
			<text x="36.78" y="584.04" class="st3" v:langID="1033"><v:paragraph v:horizAlign="1"/><v:tabList/>Passkey Reset</text>		</g>
		<g id="shape8-18" v:mID="8" v:groupContext="shape" transform="translate(738.923,-52.6922) rotate(72.084)">
			<title>Arced Line Double Arrow</title>
			<v:userDefs>
				<v:ud v:nameU="Scale" v:val="VT0(1):26"/>
				<v:ud v:nameU="AntiScale" v:val="VT0(1):26"/>
				<v:ud v:nameU="visVersion" v:val="VT0(17):26"/>
			</v:userDefs>
			<path d="M21.44 582.71 L17.42 581.96 L19.94 590.74 L25.45 583.46 L21.44 582.71 Z" class="st2"/>
			<path d="M-1.5 582.71 A11.6425 11.6425 0 0 1 21.44 582.71" class="st1"/>
			<path d="M21.44 582.71 L17.42 581.96 L19.94 590.74 L25.45 583.46 L21.44 582.71" class="st1"/>
		</g>
		<g id="shape9-22" v:mID="9" v:groupContext="shape" transform="translate(188.087,-449.681)">
			<title>Box</title>
			<desc>bt_rand()</desc>
			<v:userDefs>
				<v:ud v:nameU="visVersion" v:val="VT0(15):26"/>
			</v:userDefs>
			<v:textBlock v:margins="rect(4,4,4,4)" v:tabSpace="42.5197"/>
			<v:textRect cx="31.4005" cy="584.724" width="62.81" height="12.0227"/>
			<rect x="0" y="578.713" width="62.801" height="12.0227" class="st4"/>
			<text x="13.14" y="587.42" class="st3" v:langID="1044"><v:paragraph v:horizAlign="1"/><v:tabList/>bt_rand()</text>		</g>
		<g id="shape16-25" v:mID="16" v:groupContext="shape" transform="translate(50.9473,-400.801) rotate(0.151)">
			<title>Line Arrow.47</title>
			<desc>Passkey Status (new passkey)</desc>
			<v:userDefs>
				<v:ud v:nameU="Scale" v:val="VT0(1):26"/>
				<v:ud v:nameU="AntiScale" v:val="VT0(1):26"/>
				<v:ud v:nameU="visVersion" v:val="VT0(17):26"/>
			</v:userDefs>
			<v:textBlock v:margins="rect(4,4,4,4)" v:tabSpace="42.5197" v:verticalAlign="2"/>
			<v:textRect cx="67.2223" cy="590.736" width="134.45" height="0"/>
			<path d="M6.39 587.54 L6.39 593.93 L0 590.74 L6.39 587.54 Z" class="st2"/>
			<path d="M6.39 587.54 L6.39 593.93 L0 590.74 L6.39 587.54" class="st1"/>
			<path d="M6.39 590.74 L134.44 590.74" class="st1"/>
			<text x="5.95" y="584.04" class="st3" v:langID="1033"><v:paragraph v:horizAlign="1"/><v:tabList/>Passkey Status (<tspan
						class="st5" v:langID="1044">new </tspan>passkey)</text>		</g>
		<g id="shape29-31" v:mID="29" v:groupContext="shape" transform="translate(10.5056,-551.326)">
			<title>Nordic Lake</title>
			<desc>Initiator (Mobile App)</desc>
			<v:textBlock v:margins="rect(4,4,4,4)"/>
			<v:textRect cx="44.1142" cy="571.531" width="88.23" height="38.4094"/>
			<rect x="0" y="552.326" width="88.2283" height="38.4094" class="st6"/>
			<text x="29.36" y="568.83" class="st7" v:langID="1033"><v:paragraph v:horizAlign="1" v:bulletSize="0.166667"/><v:tabList/>Initiator<v:newlineChar/><tspan
						x="18.6" dy="1.2em" class="st5" v:langID="1044">(Mobile App)</tspan></text>		</g>
		<g id="shape30-35" v:mID="30" v:groupContext="shape" transform="translate(140.345,-551.326)">
			<title>Nordic Lake.77</title>
			<desc>LE Pairing Responder model (Mesh node)</desc>
			<v:textBlock v:margins="rect(4,4,4,4)"/>
			<v:textRect cx="44.1142" cy="571.531" width="88.23" height="38.4094"/>
			<rect x="0" y="552.326" width="88.2283" height="38.4094" class="st6"/>
			<text x="23.35" y="563.43" class="st7" v:langID="1044"><v:paragraph v:horizAlign="1" v:bulletSize="0.166667"/><v:tabList/>LE Pairing <tspan
						x="8.59" dy="1.2em" class="st5">Responder model<v:newlineChar/></tspan><tspan x="18.85" dy="1.2em"
						class="st5">(Mesh node)</tspan></text>		</g>
		<g id="shape31-40" v:mID="31" v:groupContext="shape" transform="translate(18.7209,-526.591)">
			<title>Nordic Middle Grey</title>
			<desc>The initiator is ready for pairing</desc>
			<v:textBlock v:margins="rect(4,4,4,4)"/>
			<v:textRect cx="265.391" cy="583.649" width="530.79" height="14.1732"/>
			<rect x="0" y="576.563" width="530.783" height="14.1732" class="st8"/>
			<text x="203.61" y="586.35" class="st7" v:langID="1044"><v:paragraph v:horizAlign="1" v:bulletSize="0.166667"/><v:tabList/>The initiator is ready for pairing</text>		</g>
		<g id="shape32-43" v:mID="32" v:groupContext="shape" transform="translate(18.7209,-503.559)">
			<title>Nordic Middle Grey.82</title>
			<desc>The Initiator requests the passkey</desc>
			<v:textBlock v:margins="rect(4,4,4,4)"/>
			<v:textRect cx="265.391" cy="583.649" width="530.79" height="14.1732"/>
			<rect x="0" y="576.563" width="530.783" height="14.1732" class="st8"/>
			<text x="197.86" y="586.35" class="st7" v:langID="1044"><v:paragraph v:horizAlign="1" v:bulletSize="0.166667"/><v:tabList/>The <tspan
						class="st5" v:langID="1033">Initiator requests the passkey</tspan></text>		</g>
		<g id="shape33-47" v:mID="33" v:groupContext="shape" transform="translate(22.2598,-381.669)">
			<title>Nordic Middle Grey.84</title>
			<desc>The Initiator initiates the pairing</desc>
			<v:textBlock v:margins="rect(4,4,4,4)"/>
			<v:textRect cx="265.391" cy="583.649" width="530.79" height="14.1732"/>
			<rect x="0" y="576.563" width="530.783" height="14.1732" class="st8"/>
			<text x="202.86" y="586.35" class="st7" v:langID="1044"><v:paragraph v:horizAlign="1" v:bulletSize="0.166667"/><v:tabList/>The Initiator initiates the pairing</text>		</g>
		<g id="shape34-50" v:mID="34" v:groupContext="shape" transform="translate(17.3036,-206.984)">
			<title>Nordic Middle Grey.86</title>
			<desc>Pairing completed / failed</desc>
			<v:textBlock v:margins="rect(4,4,4,4)"/>
			<v:textRect cx="267.161" cy="583.649" width="534.33" height="14.1732"/>
			<rect x="0" y="576.563" width="534.322" height="14.1732" class="st8"/>
			<text x="216.63" y="586.35" class="st7" v:langID="1033"><v:paragraph v:horizAlign="1" v:bulletSize="0.166667"/><v:tabList/>Pairing completed / failed</text>		</g>
		<g id="group37-53" transform="translate(293.039,-315.947)" v:mID="37" v:groupContext="group">
			<title>Signal, right-to-left.37</title>
			<g id="shape39-54" v:mID="39" v:groupContext="shape" transform="translate(86.6262,-3.54326)">
				<title>Sheet.39</title>
				<rect x="0" y="583.649" width="97.4318" height="7.08661" class="st4"/>
			</g>
		</g>
		<g id="shape1006-56" v:mID="1006" v:groupContext="shape" transform="translate(321.99,-551.326)">
			<title>Nordic Lake.1006</title>
			<desc>Application (Mesh node)</desc>
			<v:textBlock v:margins="rect(4,4,4,4)"/>
			<v:textRect cx="44.1142" cy="571.531" width="88.23" height="38.4094"/>
			<rect x="0" y="552.326" width="88.2283" height="38.4094" class="st6"/>
			<text x="22.1" y="568.83" class="st7" v:langID="1044"><v:paragraph v:horizAlign="1" v:bulletSize="0.166667"/><v:tabList/>Application<v:newlineChar/><tspan
						x="18.85" dy="1.2em" class="st5">(Mesh node)</tspan></text>		</g>
		<g id="shape1007-60" v:mID="1007" v:groupContext="shape" transform="translate(482.809,-551.326)">
			<title>Nordic Lake.1007</title>
			<desc>Bluetooth Host (Mesh node)</desc>
			<v:textBlock v:margins="rect(4,4,4,4)"/>
			<v:textRect cx="44.1142" cy="571.531" width="88.23" height="38.4094"/>
			<rect x="0" y="552.326" width="88.2283" height="38.4094" class="st6"/>
			<text x="14.6" y="568.83" class="st7" v:langID="1044"><v:paragraph v:horizAlign="1" v:bulletSize="0.166667"/><v:tabList/>Bluetooth Host<v:newlineChar/><tspan
						x="18.85" dy="1.2em" class="st5">(Mesh node)</tspan></text>		</g>
		<g id="shape1009-64" v:mID="1009" v:groupContext="shape" transform="translate(116.689,-422.417)">
			<title>Nordic Lake.1009</title>
			<rect x="0" y="578.713" width="140.315" height="12.0227" class="st4"/>
		</g>
		<g id="shape1011-66" v:mID="1011" v:groupContext="shape" transform="translate(1,-334.071)">
			<title>Line Arrow.1011</title>
			<desc>A passkey is requested</desc>
			<v:userDefs>
				<v:ud v:nameU="Scale" v:val="VT0(1):26"/>
				<v:ud v:nameU="AntiScale" v:val="VT0(1):26"/>
				<v:ud v:nameU="visVersion" v:val="VT0(17):26"/>
			</v:userDefs>
			<v:textBlock v:margins="rect(4,4,4,4)" v:tabSpace="42.5197" v:verticalAlign="2"/>
			<v:textRect cx="24.1952" cy="590.736" width="48.4" height="0"/>
			<path d="M42 587.54 L42 593.93 L48.39 590.74 L42 587.54 Z" class="st2"/>
			<path d="M42 587.54 L42 593.93 L48.39 590.74 L42 587.54" class="st1"/>
			<path d="M0 590.74 L42 590.74" class="st1"/>
			<text x="21.19" y="551.64" class="st3" v:langID="1044"><v:paragraph v:horizAlign="1"/><v:tabList/>A <tspan x="7.69"
						dy="1.2em" class="st5">passkey </tspan><tspan x="20.95" dy="1.2em" class="st5">is </tspan><tspan x="4.18"
						dy="1.2em" class="st5">requested</tspan></text>		</g>
		<g id="shape1012-74" v:mID="1012" v:groupContext="shape" transform="translate(22.2598,-307.614)">
			<title>Nordic Lake.1012</title>
			<rect x="0" y="576.563" width="127.559" height="14.1732" class="st4"/>
		</g>
		<g id="shape1017-76" v:mID="1017" v:groupContext="shape" transform="translate(366.129,-325.726) rotate(-0.112181)">
			<title>Line Arrow.1017</title>
			<desc>bt_conn_auth_cb. app_passkey()</desc>
			<v:userDefs>
				<v:ud v:nameU="Scale" v:val="VT0(1):26"/>
				<v:ud v:nameU="AntiScale" v:val="VT0(1):26"/>
				<v:ud v:nameU="visVersion" v:val="VT0(17):26"/>
			</v:userDefs>
			<v:textBlock v:margins="rect(4,4,4,4)" v:tabSpace="42.5197" v:verticalAlign="2"/>
			<v:textRect cx="79.8189" cy="590.736" width="159.64" height="0"/>
			<path d="M6.39 587.54 L6.39 593.93 L0 590.74 L6.39 587.54 Z" class="st2"/>
			<path d="M6.39 587.54 L6.39 593.93 L0 590.74 L6.39 587.54" class="st1"/>
			<path d="M6.39 590.74 L159.64 590.74" class="st1"/>
			<text x="13.27" y="584.04" class="st3" v:langID="1033"><v:paragraph v:horizAlign="1"/><v:tabList/>bt_conn_auth_cb<tspan
						class="st5" v:langID="1044">. app_passkey()</tspan></text>		</g>
		<g id="shape1018-82" v:mID="1018" v:groupContext="shape" transform="translate(179.386,-318.369) rotate(-0.347227)">
			<title>Line Arrow.1018</title>
			<desc>bt_mesh_le_pair_resp_passkey_get()</desc>
			<v:userDefs>
				<v:ud v:nameU="Scale" v:val="VT0(1):26"/>
				<v:ud v:nameU="AntiScale" v:val="VT0(1):26"/>
				<v:ud v:nameU="visVersion" v:val="VT0(17):26"/>
			</v:userDefs>
			<v:textBlock v:margins="rect(4,4,4,4)" v:tabSpace="42.5197" v:verticalAlign="2"/>
			<v:textRect cx="92.1618" cy="590.736" width="184.33" height="0"/>
			<path d="M6.39 587.54 L6.39 593.93 L0 590.74 L6.39 587.54 Z" class="st2"/>
			<path d="M6.39 587.54 L6.39 593.93 L0 590.74 L6.39 587.54" class="st1"/>
			<path d="M6.39 590.74 L184.32 590.74" class="st1"/>
			<text x="16.87" y="584.04" class="st3" v:langID="1044"><v:paragraph v:horizAlign="1"/><v:tabList/>bt_mesh_le_pair_resp_passkey_get()</text>		</g>
		<g id="shape1019-87" v:mID="1019" v:groupContext="shape" transform="translate(179.995,-302.705) rotate(-0.288158)">
			<title>Line Arrow.1019</title>
			<desc>Returns generated passkey</desc>
			<v:userDefs>
				<v:ud v:nameU="Scale" v:val="VT0(1):26"/>
				<v:ud v:nameU="AntiScale" v:val="VT0(1):26"/>
				<v:ud v:nameU="visVersion" v:val="VT0(17):26"/>
			</v:userDefs>
			<v:textBlock v:margins="rect(4,4,4,4)" v:tabSpace="42.5197" v:verticalAlign="2"/>
			<v:textRect cx="92.1612" cy="590.736" width="184.33" height="0"/>
			<path d="M177.93 587.54 L177.93 593.93 L184.32 590.74 L177.93 587.54 Z" class="st2"/>
			<path d="M177.93 587.54 L177.93 593.93 L184.32 590.74 L177.93 587.54" class="st1"/>
			<path d="M0 590.74 L177.93 590.74" class="st1"/>
			<text x="37.13" y="584.04" class="st3" v:langID="1044"><v:paragraph v:horizAlign="1"/><v:tabList/>Returns generated passkey</text>		</g>
		<g id="shape1021-92" v:mID="1021" v:groupContext="shape" transform="translate(367.286,-275.016) rotate(2.04638E-06)">
			<title>Line Arrow.1021</title>
			<desc>bt_conn_auth_cb. passkey_display()</desc>
			<v:userDefs>
				<v:ud v:nameU="Scale" v:val="VT0(1):26"/>
				<v:ud v:nameU="AntiScale" v:val="VT0(1):26"/>
				<v:ud v:nameU="visVersion" v:val="VT0(17):26"/>
			</v:userDefs>
			<v:textBlock v:margins="rect(4,4,4,4)" v:tabSpace="42.5197" v:verticalAlign="2"/>
			<v:textRect cx="79.8187" cy="590.736" width="159.64" height="0"/>
			<path d="M6.39 587.54 L6.39 593.93 L0 590.74 L6.39 587.54 Z" class="st2"/>
			<path d="M6.39 587.54 L6.39 593.93 L0 590.74 L6.39 587.54" class="st1"/>
			<path d="M6.39 590.74 L159.64 590.74" class="st1"/>
			<text x="6.77" y="584.04" class="st3" v:langID="1033"><v:paragraph v:horizAlign="1"/><v:tabList/>bt_conn_auth_cb<tspan
						class="st5" v:langID="1044">. passkey_display()</tspan></text>		</g>
		<g id="shape1022-98" v:mID="1022" v:groupContext="shape" transform="translate(362.041,-252.315) rotate(-0.508679)">
			<title>Line Arrow.1022</title>
			<desc>bt_conn_auth_cb. pairing_confirm()</desc>
			<v:userDefs>
				<v:ud v:nameU="Scale" v:val="VT0(1):26"/>
				<v:ud v:nameU="AntiScale" v:val="VT0(1):26"/>
				<v:ud v:nameU="visVersion" v:val="VT0(17):26"/>
			</v:userDefs>
			<v:textBlock v:margins="rect(4,4,4,4)" v:tabSpace="42.5197" v:verticalAlign="2"/>
			<v:textRect cx="79.8219" cy="590.736" width="159.65" height="0"/>
			<path d="M6.39 587.54 L6.39 593.93 L0 590.74 L6.39 587.54 Z" class="st2"/>
			<path d="M6.39 587.54 L6.39 593.93 L0 590.74 L6.39 587.54" class="st1"/>
			<path d="M6.39 590.74 L159.64 590.74" class="st1"/>
			<text x="9.03" y="584.04" class="st3" v:langID="1044"><v:paragraph v:horizAlign="1"/><v:tabList/>bt_conn_auth_cb. pairing_confirm()</text>		</g>
		<g id="shape1023-103" v:mID="1023" v:groupContext="shape" transform="translate(367.286,-232.496) rotate(1.73942E-06)">
			<title>Line Arrow.1023</title>
			<desc>bt_conn_auth_pairing_confirm()</desc>
			<v:userDefs>
				<v:ud v:nameU="Scale" v:val="VT0(1):26"/>
				<v:ud v:nameU="AntiScale" v:val="VT0(1):26"/>
				<v:ud v:nameU="visVersion" v:val="VT0(17):26"/>
			</v:userDefs>
			<v:textBlock v:margins="rect(4,4,4,4)" v:tabSpace="42.5197" v:verticalAlign="2"/>
			<v:textRect cx="79.8187" cy="590.736" width="159.64" height="0"/>
			<path d="M153.25 587.54 L153.25 593.93 L159.64 590.74 L153.25 587.54 Z" class="st2"/>
			<path d="M153.25 587.54 L153.25 593.93 L159.64 590.74 L153.25 587.54" class="st1"/>
			<path d="M0 590.74 L153.25 590.74" class="st1"/>
			<text x="16.28" y="584.04" class="st3" v:langID="1044"><v:paragraph v:horizAlign="1"/><v:tabList/>bt_conn_auth_pairing_confirm()</text>		</g>
		<g id="shape1025-108" v:mID="1025" v:groupContext="shape" transform="translate(367.286,-296.276) rotate(2.19986E-06)">
			<title>Line Arrow.1025</title>
			<desc>Returns generated passkey</desc>
			<v:userDefs>
				<v:ud v:nameU="Scale" v:val="VT0(1):26"/>
				<v:ud v:nameU="AntiScale" v:val="VT0(1):26"/>
				<v:ud v:nameU="visVersion" v:val="VT0(17):26"/>
			</v:userDefs>
			<v:textBlock v:margins="rect(4,4,4,4)" v:tabSpace="42.5197" v:verticalAlign="2"/>
			<v:textRect cx="79.8187" cy="590.736" width="159.64" height="0"/>
			<path d="M153.25 587.54 L153.25 593.93 L159.64 590.74 L153.25 587.54 Z" class="st2"/>
			<path d="M153.25 587.54 L153.25 593.93 L159.64 590.74 L153.25 587.54" class="st1"/>
			<path d="M0 590.74 L153.25 590.74" class="st1"/>
			<text x="24.79" y="584.04" class="st3" v:langID="1044"><v:paragraph v:horizAlign="1"/><v:tabList/>Returns generated passkey</text>		</g>
		<g id="shape1026-113" v:mID="1026" v:groupContext="shape" transform="translate(369.384,-165.028) rotate(0.203477)">
			<title>Line Arrow.1026</title>
			<desc>bt_conn_auth_info_cb. pairing_complete() /bt_conn_auth_info_c...</desc>
			<v:userDefs>
				<v:ud v:nameU="Scale" v:val="VT0(1):26"/>
				<v:ud v:nameU="AntiScale" v:val="VT0(1):26"/>
				<v:ud v:nameU="visVersion" v:val="VT0(17):26"/>
			</v:userDefs>
			<v:textBlock v:margins="rect(4,4,4,4)" v:tabSpace="42.5197" v:verticalAlign="2"/>
			<v:textRect cx="79.8192" cy="590.736" width="159.64" height="0"/>
			<path d="M6.39 587.54 L6.39 593.93 L0 590.74 L6.39 587.54 Z" class="st2"/>
			<path d="M6.39 587.54 L6.39 593.93 L0 590.74 L6.39 587.54" class="st1"/>
			<path d="M6.39 590.74 L159.64 590.74" class="st1"/>
			<text x="34.28" y="562.44" class="st3" v:langID="1033"><v:paragraph v:horizAlign="1"/><v:tabList/>bt_conn_auth_<tspan
						class="st5" v:langID="1044">info_cb. </tspan><tspan x="40.05" dy="1.2em" class="st5" v:langID="1044">pairing_complete() /</tspan><tspan
						x="4.51" dy="1.2em" class="st5" v:langID="1044">bt_conn_auth_info_cb.pairing_failed()</tspan></text>		</g>
		<g id="shape1027-121" v:mID="1027" v:groupContext="shape" transform="translate(182.966,-154.543)">
			<title>Line Arrow.1027</title>
			<desc>bt_mesh_le_pair_resp_passkey_invalidate()</desc>
			<v:userDefs>
				<v:ud v:nameU="Scale" v:val="VT0(1):26"/>
				<v:ud v:nameU="AntiScale" v:val="VT0(1):26"/>
				<v:ud v:nameU="visVersion" v:val="VT0(17):26"/>
			</v:userDefs>
			<v:textBlock v:margins="rect(4,4,4,4)" v:tabSpace="42.5197" v:verticalAlign="2"/>
			<v:textRect cx="92.1601" cy="590.736" width="184.33" height="0"/>
			<path d="M6.39 587.54 L6.39 593.93 L0 590.74 L6.39 587.54 Z" class="st2"/>
			<path d="M6.39 587.54 L6.39 593.93 L0 590.74 L6.39 587.54" class="st1"/>
			<path d="M6.39 590.74 L184.32 590.74" class="st1"/>
			<text x="4.11" y="584.04" class="st3" v:langID="1044"><v:paragraph v:horizAlign="1"/><v:tabList/>bt_mesh_le_pair_resp_passkey_invalidate()</text>		</g>
		<g id="shape1028-126" v:mID="1028" v:groupContext="shape" transform="translate(49.0762,-70.9212) rotate(-0.0304845)">
			<title>Line Arrow.1028</title>
			<desc>Passkey reset</desc>
			<v:userDefs>
				<v:ud v:nameU="Scale" v:val="VT0(1):26"/>
				<v:ud v:nameU="AntiScale" v:val="VT0(1):26"/>
				<v:ud v:nameU="visVersion" v:val="VT0(17):26"/>
			</v:userDefs>
			<v:textBlock v:margins="rect(4,4,4,4)" v:tabSpace="42.5197" v:verticalAlign="2"/>
			<v:textRect cx="66.7876" cy="590.736" width="133.58" height="0"/>
			<path d="M127.18 587.54 L127.18 593.93 L133.58 590.74 L127.18 587.54 Z" class="st2"/>
			<path d="M127.18 587.54 L127.18 593.93 L133.58 590.74 L127.18 587.54" class="st1"/>
			<path d="M0 590.74 L127.18 590.74" class="st1"/>
			<text x="38.53" y="584.04" class="st3" v:langID="1044"><v:paragraph v:horizAlign="1"/><v:tabList/>Passkey reset</text>		</g>
		<g id="shape1029-131" v:mID="1029" v:groupContext="shape" transform="translate(108.717,-46.8268)">
			<title>Nordic Lake.1029</title>
			<rect x="0" y="576.563" width="161.836" height="14.1732" class="st4"/>
		</g>
		<g id="shape1030-133" v:mID="1030" v:groupContext="shape" transform="translate(49.8715,-19.8975) rotate(0.0466561)">
			<title>Line Arrow.1030</title>
			<desc>Passkey status (app defined passkey)</desc>
			<v:userDefs>
				<v:ud v:nameU="Scale" v:val="VT0(1):26"/>
				<v:ud v:nameU="AntiScale" v:val="VT0(1):26"/>
				<v:ud v:nameU="visVersion" v:val="VT0(17):26"/>
			</v:userDefs>
			<v:textBlock v:margins="rect(4,4,4,4)" v:tabSpace="42.5197" v:verticalAlign="2"/>
			<v:textRect cx="66.7876" cy="590.736" width="133.58" height="0"/>
			<path d="M6.39 587.54 L6.39 593.93 L0 590.74 L6.39 587.54 Z" class="st2"/>
			<path d="M6.39 587.54 L6.39 593.93 L0 590.74 L6.39 587.54" class="st1"/>
			<path d="M6.39 590.74 L133.58 590.74" class="st1"/>
			<text x="10.25" y="573.24" class="st3" v:langID="1044"><v:paragraph v:horizAlign="1"/><v:tabList/>Passkey status (app defined <tspan
						x="48.78" dy="1.2em" class="st5">passkey)</tspan></text>		</g>
		<g id="shape1031-139" v:mID="1031" v:groupContext="shape" transform="translate(17.3036,-133.283)">
			<title>Nordic Middle Grey.1031</title>
			<desc>The initiator requests the passkey which is set by the applic...</desc>
			<v:textBlock v:margins="rect(4,4,4,4)"/>
			<v:textRect cx="267.161" cy="583.649" width="534.33" height="14.1732"/>
			<rect x="0" y="576.563" width="534.322" height="14.1732" class="st8"/>
			<text x="139.09" y="586.35" class="st7" v:langID="1044"><v:paragraph v:horizAlign="1" v:bulletSize="0.166667"/><v:tabList/>The initiator requests the passkey which is set by the application</text>		</g>
		<g id="shape1033-142" v:mID="1033" v:groupContext="shape" transform="translate(183.624,-80.5257) rotate(0.121823)">
			<title>Line Arrow.1033</title>
			<desc>bt_mesh_le_pair_resp_passkey_set (app defined passkey)</desc>
			<v:userDefs>
				<v:ud v:nameU="Scale" v:val="VT0(1):26"/>
				<v:ud v:nameU="AntiScale" v:val="VT0(1):26"/>
				<v:ud v:nameU="visVersion" v:val="VT0(17):26"/>
			</v:userDefs>
			<v:textBlock v:margins="rect(4,4,4,4)" v:tabSpace="42.5197" v:verticalAlign="2"/>
			<v:textRect cx="92.4592" cy="590.736" width="184.92" height="0"/>
			<path d="M6.39 587.54 L6.39 593.93 L0 590.74 L6.39 587.54 Z" class="st2"/>
			<path d="M6.39 587.54 L6.39 593.93 L0 590.74 L6.39 587.54" class="st1"/>
			<path d="M6.39 590.74 L184.92 590.74" class="st1"/>
			<text x="10.16" y="573.24" class="st3" v:langID="1044"><v:paragraph v:horizAlign="1"/><v:tabList/>bt_mesh_le_pair_resp_passkey_set (app <tspan
						x="58.44" dy="1.2em" class="st5">defined passkey)</tspan></text>		</g>
		<g id="shape1034-148" v:mID="1034" v:groupContext="shape" v:layerMember="0" transform="translate(148.402,-107.772)">
			<title>Dynamic connector.1034</title>
			<path d="M0 583.65 L249.45 583.65" class="st9"/>
		</g>
		<g id="shape1036-151" v:mID="1036" v:groupContext="shape" v:layerMember="0" transform="translate(78.9528,-307.614)">
			<title>Dynamic connector.1036</title>
		</g>
		<g id="shape1037-152" v:mID="1037" v:groupContext="shape" v:layerMember="0" transform="translate(3.12598,-307.614)">
			<title>Dynamic connector.1037</title>
			<path d="M0 583.65 L143.15 583.65" class="st10"/>
		</g>
		<g id="shape1038-155" v:mID="1038" v:groupContext="shape" v:layerMember="0" transform="translate(108.717,-46.6496)">
			<title>Dynamic connector.1038</title>
			<path d="M0 583.83 L221.1 583.47" class="st9"/>
		</g>
		<g id="shape1039-158" v:mID="1039" v:groupContext="shape" v:layerMember="0" transform="translate(107.299,-431.092)">
			<title>Dynamic connector.1039</title>
			<path d="M0 597.65 L162.99 597.99" class="st9"/>
		</g>
		<g id="shape1041-161" v:mID="1041" v:groupContext="shape" v:layerMember="0" transform="translate(137.063,-480.528)">
			<title>Dynamic connector.1041</title>
			<path d="M0 597.82 L253.7 597.82" class="st10"/>
		</g>
		<g id="shape1042-164" v:mID="1042" v:groupContext="shape" transform="translate(136.002,-478.768)">
			<title>Sheet.1042</title>
			<desc>Application did not set passkey through bt_mesh_le_pair_resp_...</desc>
			<v:textBlock v:margins="rect(4,4,4,4)" v:tabSpace="42.5197"/>
			<v:textRect cx="148.11" cy="584.724" width="296.23" height="12.0227"/>
			<rect x="0" y="578.713" width="296.22" height="12.0227" class="st4"/>
			<text x="69.81" y="582.02" class="st3" v:langID="1044"><v:paragraph v:horizAlign="1"/><v:tabList/>Application did not set passkey through <tspan
						x="73.07" dy="1.2em" class="st5">bt_mesh_le_pair_resp_passkey_set()</tspan></text>		</g>
		<g id="shape1043-168" v:mID="1043" v:groupContext="shape" transform="translate(119.186,-425.252)">
			<title>Sheet.1043</title>
			<desc>The passkey is generated</desc>
			<v:textBlock v:margins="rect(4,4,4,4)" v:tabSpace="42.5197"/>
			<v:textRect cx="63.7795" cy="585.775" width="127.56" height="9.92126"/>
			<rect x="0" y="580.815" width="127.559" height="9.92126" class="st4"/>
			<text x="12.25" y="588.48" class="st3" v:langID="1044"><v:paragraph v:horizAlign="1"/><v:tabList/>The passkey is generated</text>		</g>
		<g id="shape1044-171" v:mID="1044" v:groupContext="shape" transform="translate(13.7559,-318.073)">
			<title>Sheet.1044</title>
			<desc>Setting the received passkey</desc>
			<v:textBlock v:margins="rect(4,4,4,4)" v:tabSpace="42.5197"/>
			<v:textRect cx="63.7795" cy="585.775" width="127.56" height="9.92126"/>
			<rect x="0" y="580.815" width="127.559" height="9.92126" class="st4"/>
			<text x="6.25" y="588.48" class="st3" v:langID="1044"><v:paragraph v:horizAlign="1"/><v:tabList/>Setting the received passkey</text>		</g>
		<g id="shape1045-174" v:mID="1045" v:groupContext="shape" transform="translate(199.425,-114.858)">
			<title>Sheet.1045</title>
			<desc>The application sets its own passkey</desc>
			<v:textBlock v:margins="rect(4,4,4,4)" v:tabSpace="42.5197"/>
			<v:textRect cx="80.9182" cy="585.775" width="161.84" height="9.92126"/>
			<rect x="0" y="580.815" width="161.836" height="9.92126" class="st4"/>
			<text x="7.88" y="588.48" class="st3" v:langID="1044"><v:paragraph v:horizAlign="1"/><v:tabList/>The application sets its own passkey</text>		</g>
		<g id="shape1046-177" v:mID="1046" v:groupContext="shape" transform="translate(142.471,-54.6221)">
			<title>Sheet.1046</title>
			<desc>Returns application defined passkey</desc>
			<v:textBlock v:margins="rect(4,4,4,4)" v:tabSpace="42.5197"/>
			<v:textRect cx="80.9182" cy="585.775" width="161.84" height="9.92126"/>
			<rect x="0" y="580.815" width="161.836" height="9.92126" class="st4"/>
			<text x="8.62" y="588.48" class="st3" v:langID="1044"><v:paragraph v:horizAlign="1"/><v:tabList/>Returns application defined passkey</text>		</g>
	</g>
</svg>
