<?xml version="1.0" encoding="UTF-8" standalone="no"?>
<!DOCTYPE svg PUBLIC "-//W3C//DTD SVG 1.1//EN" "http://www.w3.org/Graphics/SVG/1.1/DTD/svg11.dtd">
<!-- Generated by Microsoft Visio, SVG Export esb_packet_format.svg Page-1 -->
<svg xmlns="http://www.w3.org/2000/svg" xmlns:xlink="http://www.w3.org/1999/xlink" xmlns:ev="http://www.w3.org/2001/xml-events"
		width="4.51195in" height="1.46984in" viewBox="0 0 324.861 105.828" xml:space="preserve" color-interpolation-filters="sRGB"
		class="st12">
	<style type="text/css">
	<![CDATA[
		.st1 {stroke:#000000;stroke-width:0.5}
		.st2 {fill:#0077c8;stroke:none;stroke-linecap:round;stroke-linejoin:round;stroke-width:0.72}
		.st3 {fill:#feffff;font-family:Calibri;font-size:1.00001em}
		.st4 {fill:none;stroke:none;stroke-width:1}
		.st5 {fill:#333f48;font-family:Calibri;font-size:1.00001em}
		.st6 {fill:#333f48;font-family:Calibri;font-size:1.16666em}
		.st7 {fill:#feffff;font-family:Calibri;font-size:0.833336em}
		.st8 {fill:#00a9ce;stroke:none;stroke-linecap:round;stroke-linejoin:round;stroke-width:0.72}
		.st9 {fill:#000000;font-family:Calibri;font-size:1.00001em}
		.st10 {fill:#6ad1e3;stroke:none;stroke-linecap:round;stroke-linejoin:round;stroke-width:0.72}
		.st11 {stroke:#000000;stroke-linecap:butt;stroke-width:0.5}
		.st12 {fill:none;fill-rule:evenodd;font-size:12px;overflow:visible;stroke-linecap:square;stroke-miterlimit:3}
	]]>
	</style>

	<g>
		<title>Page-1</title>
		<g id="shape489-1" transform="translate(165.363,41.7777) rotate(-90)">
			<title>Right Brace.31</title>
			<path d="M-0 105.83 A36.2425 34.4566 -180 0 0 13.54 85.24 L13.54 2.88 L27.07 2.88 L13.54 2.88 L13.54 -79.48 A36.2425
						 34.4566 -180 0 0 0 -100.07" class="st1"/>
		</g>
		<g id="shape485-4" transform="translate(65.3279,-21.5311)">
			<title>s.3</title>
			<desc>Base address</desc>
			<rect x="0" y="63.3088" width="153.94" height="42.5197" class="st2"/>
			<text x="45.19" y="88.17" class="st3">Base address</text>		</g>
		<g id="shape486-7" transform="translate(1,-1.53112)">
			<title>Sheet.486</title>
			<desc>1 byte</desc>
			<rect x="0" y="85.8285" width="64.3424" height="20" class="st4"/>
			<text x="16.91" y="99.43" class="st5">1 byte</text>		</g>
		<g id="shape487-10" transform="translate(65.3279,-1.53112)">
			<title>Sheet.487</title>
			<desc>2-4 bytes</desc>
			<rect x="0" y="85.8285" width="153.94" height="20" class="st4"/>
			<text x="54.48" y="99.43" class="st5">2-4 bytes</text>		</g>
		<g id="shape488-13" transform="translate(219.268,-1)">
			<title>Sheet.488</title>
			<desc>1 byte</desc>
			<rect x="0" y="85.2973" width="51.4307" height="20.5311" class="st4"/>
			<text x="10.45" y="99.16" class="st5">1 byte</text>		</g>
		<g id="shape490-16" transform="translate(64.7113,-91.1217)">
			<title>Sheet.490</title>
			<desc>Address</desc>
			<rect x="0" y="93.2143" width="207.53" height="12.6142" class="st4"/>
			<text x="80.96" y="103.72" class="st6">Address</text>		</g>
		<g id="shape491-19" transform="translate(65.2962,-43.7358)">
			<title>Sheet.491</title>
			<desc>MSB</desc>
			<rect x="0" y="85.8285" width="28.9315" height="20" class="st4"/>
			<text x="5.17" y="98.83" class="st7">MSB</text>		</g>
		<g id="shape494-22" transform="translate(219.268,-21.5311)">
			<title>s.1</title>
			<desc>Prefix</desc>
			<rect x="0" y="63.3088" width="51.4307" height="42.5197" class="st8"/>
			<text x="11.73" y="88.17" class="st9">Prefix</text>		</g>
		<g id="shape495-25" transform="translate(1,-21.5311)">
			<title>s.2</title>
			<desc>Preamble</desc>
			<rect x="0" y="63.3088" width="64.3424" height="42.5197" class="st10"/>
			<text x="8.81" y="88.17" class="st9">Preamble</text>		</g>
		<g id="shape496-28" transform="translate(282.243,-32.791)">
			<title>Sheet.496</title>
			<desc>...</desc>
			<rect x="0" y="85.8285" width="34.6142" height="20" class="st4"/>
			<text x="12.76" y="99.43" class="st5">...</text>		</g>
		<g id="shape497-31" transform="translate(270.698,-56.7752)">
			<title>Dynamic connector</title>
			<path d="M0 98.74 L53.66 98.74" class="st11"/>
		</g>
		<g id="shape498-34" transform="translate(270.698,-14.6335)">
			<title>Dynamic connector.498</title>
			<path d="M0 98.74 L53.66 98.74" class="st11"/>
		</g>
	</g>
</svg>
