<?xml version="1.0" encoding="UTF-8" standalone="no"?>
<!DOCTYPE svg PUBLIC "-//W3C//DTD SVG 1.1//EN" "http://www.w3.org/Graphics/SVG/1.1/DTD/svg11.dtd">
<!-- Generated by Microsoft Visio, SVG Export esb_fig3_prx_ptx_trans_fail.svg Page-1 -->
<svg xmlns="http://www.w3.org/2000/svg" xmlns:xlink="http://www.w3.org/1999/xlink" xmlns:ev="http://www.w3.org/2001/xml-events"
		width="7.14945in" height="4.32751in" viewBox="0 0 514.761 311.581" xml:space="preserve" color-interpolation-filters="sRGB"
		class="st22">
	<style type="text/css">
	<![CDATA[
		.st1 {fill:none;stroke:none;stroke-linecap:round;stroke-linejoin:round;stroke-width:0.72}
		.st2 {fill:#000000;font-family:Calibri;font-size:1.00001em}
		.st3 {fill:#000000;stroke:none;stroke-linecap:round;stroke-linejoin:round;stroke-width:0.24}
		.st4 {fill:#d9e1e2;stroke:none;stroke-linecap:round;stroke-linejoin:round;stroke-width:0.72}
		.st5 {fill:#000000;font-family:Calibri;font-size:0.833336em}
		.st6 {marker-end:url(#mrkr13-24);stroke:#333f48;stroke-linecap:butt;stroke-width:1}
		.st7 {fill:#333f48;fill-opacity:1;stroke:#333f48;stroke-opacity:1;stroke-width:0.35714285714286}
		.st8 {fill:#d0df00;stroke:none;stroke-linecap:round;stroke-linejoin:round;stroke-width:0.72}
		.st9 {font-size:1em}
		.st10 {fill:#009cde;stroke:none;stroke-linecap:round;stroke-linejoin:round;stroke-width:0.72}
		.st11 {fill:#ffffff;font-family:Calibri;font-size:0.833336em}
		.st12 {fill:#000000;stroke:#000000;stroke-linecap:round;stroke-linejoin:round;stroke-width:0.24}
		.st13 {fill:#6ad1e3;stroke:none;stroke-linecap:round;stroke-linejoin:round;stroke-width:0.72}
		.st14 {fill:#00a9ce}
		.st15 {stroke:#ff0000;stroke-width:1.5}
		.st16 {marker-end:url(#mrkr13-120);marker-start:url(#mrkr13-118);stroke:#000000;stroke-linecap:round;stroke-linejoin:round;stroke-width:1}
		.st17 {fill:#000000;fill-opacity:1;stroke:#000000;stroke-opacity:1;stroke-width:0.35714285714286}
		.st18 {stroke:#000000;stroke-linecap:round;stroke-linejoin:round;stroke-width:0.75}
		.st19 {fill:#00a9ce;stroke:none;stroke-width:1}
		.st20 {marker-start:url(#mrkr13-140);stroke:#333f48;stroke-dasharray:8,4;stroke-linecap:butt;stroke-width:1}
		.st21 {fill:none;stroke:none;stroke-width:1}
		.st22 {fill:none;fill-rule:evenodd;font-size:12px;overflow:visible;stroke-linecap:square;stroke-miterlimit:3}
	]]>
	</style>

	<defs id="Markers">
		<g id="lend13">
			<path d="M 3 1 L 0 0 L 3 -1 L 3 1 " style="stroke:none"/>
		</g>
		<marker id="mrkr13-24" class="st7" refX="-8.4" orient="auto" markerUnits="strokeWidth" overflow="visible">
			<use xlink:href="#lend13" transform="scale(-2.8,-2.8) "/>
		</marker>
		<marker id="mrkr13-118" class="st17" refX="8.04" orient="auto" markerUnits="strokeWidth" overflow="visible">
			<use xlink:href="#lend13" transform="scale(2.8) "/>
		</marker>
		<marker id="mrkr13-120" class="st17" refX="-8.4" orient="auto" markerUnits="strokeWidth" overflow="visible">
			<use xlink:href="#lend13" transform="scale(-2.8,-2.8) "/>
		</marker>
		<marker id="mrkr13-140" class="st7" refX="8.04" orient="auto" markerUnits="strokeWidth" overflow="visible">
			<use xlink:href="#lend13" transform="scale(2.8) "/>
		</marker>
	</defs>
	<g>
		<title>Page-1</title>
		<g id="shape335-1" transform="translate(1.21956,-156.432)">
			<title>Sheet.335</title>
			<desc>PTX operation</desc>
			<rect x="0" y="293.874" width="80.9206" height="17.7061" class="st1"/>
			<text x="4" y="306.33" class="st2">PTX operation</text>		</g>
		<g id="shape336-4" transform="translate(202.509,-155.64)">
			<title>Rectangle.336</title>
			<rect x="0" y="281.962" width="1.86571" height="29.6182" class="st3"/>
		</g>
		<g id="shape337-6" transform="translate(157.442,-155.652)">
			<title>Rectangle.337</title>
			<rect x="0" y="281.962" width="1.86571" height="29.6182" class="st3"/>
		</g>
		<g id="shape339-8" transform="translate(1.21956,-91.8421)">
			<title>Sheet.339</title>
			<desc>PRX operation</desc>
			<rect x="0" y="298.825" width="80.9206" height="12.7559" class="st1"/>
			<text x="4" y="308.8" class="st2">PRX operation</text>		</g>
		<g id="shape340-11" transform="translate(201.4,-87.2139)">
			<title>Rectangle.340</title>
			<rect x="0" y="281.962" width="1.86571" height="29.6182" class="st3"/>
		</g>
		<g id="shape431-13" transform="translate(84.0059,-87.2139)">
			<title>s.free.431</title>
			<desc>Listen</desc>
			<rect x="0" y="281.962" width="73.4366" height="29.6182" class="st4"/>
			<text x="24.72" y="299.77" class="st5">Listen</text>		</g>
		<g id="shape432-16" transform="translate(248.743,-87.2139)">
			<title>s.free.432</title>
			<desc>Listen</desc>
			<rect x="0" y="281.962" width="37.0859" height="29.6182" class="st4"/>
			<text x="6.55" y="299.77" class="st5">Listen</text>		</g>
		<g id="shape433-19" transform="translate(490.867,156.27) rotate(90)">
			<title>Sheet.433</title>
			<path d="M0 311.58 L30.13 311.58" class="st6"/>
		</g>
		<g id="shape434-25" transform="translate(-86.5089,194.748) rotate(-90)">
			<title>Sheet.434</title>
			<path d="M0 311.58 L30.62 311.58" class="st6"/>
		</g>
		<g id="shape435-30" transform="translate(158.898,-155.311)">
			<title>s.435</title>
			<desc>Send packet</desc>
			<rect x="0" y="281.962" width="43.6111" height="29.6182" class="st8"/>
			<text x="11.77" y="293.77" class="st5">Send <tspan x="8.23" dy="1.2em" class="st9">packet</tspan></text>		</g>
		<g id="shape436-34" transform="translate(203.266,-87.2139)">
			<title>s.331</title>
			<desc>Send ACK</desc>
			<rect x="0" y="281.962" width="43.6111" height="29.6182" class="st8"/>
			<text x="11.77" y="293.77" class="st5">Send <tspan x="13.65" dy="1.2em" class="st9">ACK</tspan></text>		</g>
		<g id="shape437-38" transform="translate(157.442,-87.2139)">
			<title>s.437</title>
			<desc>Receive packet</desc>
			<rect x="0" y="281.962" width="43.9579" height="29.6182" class="st10"/>
			<text x="6.28" y="293.77" class="st11">Receive <tspan x="8.41" dy="1.2em" class="st9">packet</tspan></text>		</g>
		<g id="shape438-42" transform="translate(329.625,-155.311)">
			<title>Rectangle.391</title>
			<rect x="0" y="281.962" width="1.86571" height="29.6182" class="st3"/>
		</g>
		<g id="shape439-44" transform="translate(283.819,-155.311)">
			<title>Rectangle.392</title>
			<rect x="0" y="281.962" width="1.86571" height="29.6182" class="st3"/>
		</g>
		<g id="shape440-46" transform="translate(285.685,-155.311)">
			<title>s.394</title>
			<desc>Resend packet</desc>
			<rect x="0" y="281.962" width="43.9579" height="29.6182" class="st8"/>
			<text x="7.08" y="293.77" class="st5">Resend <tspan x="8.41" dy="1.2em" class="st9">packet</tspan></text>		</g>
		<g id="shape441-50" transform="translate(452.409,-155.311)">
			<title>Rectangle.395</title>
			<rect x="0" y="281.962" width="1.86571" height="29.6182" class="st3"/>
		</g>
		<g id="shape442-52" transform="translate(406.932,-155.311)">
			<title>Rectangle.396</title>
			<rect x="0" y="281.962" width="1.86571" height="29.6182" class="st3"/>
		</g>
		<g id="shape443-54" transform="translate(408.798,-155.311)">
			<title>s.398</title>
			<desc>Resend packet</desc>
			<rect x="0" y="281.962" width="43.9579" height="29.6182" class="st8"/>
			<text x="7.08" y="293.77" class="st5">Resend <tspan x="8.41" dy="1.2em" class="st9">packet</tspan></text>		</g>
		<g id="shape444-58" transform="translate(329.44,-87.2139)">
			<title>Rectangle.399</title>
			<rect x="0" y="281.962" width="1.86571" height="29.6182" class="st3"/>
		</g>
		<g id="shape445-60" transform="translate(376.782,-87.2139)">
			<title>s.free.401</title>
			<desc>Listen</desc>
			<rect x="0" y="281.962" width="121.45" height="29.6182" class="st4"/>
			<text x="48.73" y="299.77" class="st5">Listen</text>		</g>
		<g id="shape446-63" transform="translate(331.306,-87.2139)">
			<title>s.402</title>
			<desc>Send ACK</desc>
			<rect x="0" y="281.962" width="43.6111" height="29.6182" class="st8"/>
			<text x="11.77" y="293.77" class="st5">Send <tspan x="13.65" dy="1.2em" class="st9">ACK</tspan></text>		</g>
		<g id="shape447-67" transform="translate(285.829,-87.2139)">
			<title>s.447</title>
			<desc>Receive packet</desc>
			<rect x="0" y="281.962" width="43.6111" height="29.6182" class="st10"/>
			<text x="6.11" y="293.77" class="st11">Receive <tspan x="8.23" dy="1.2em" class="st9">packet</tspan></text>		</g>
		<g id="shape448-71" transform="translate(620.35,156.27) rotate(90)">
			<title>Sheet.448</title>
			<path d="M0 311.58 L30.08 311.58" class="st6"/>
		</g>
		<g id="shape449-76" transform="translate(744.417,156.27) rotate(90)">
			<title>Sheet.449</title>
			<path d="M0 311.58 L30.08 311.58" class="st6"/>
		</g>
		<g id="shape450-81" transform="translate(82.1401,-87.2139)">
			<title>Rectangle.450</title>
			<rect x="0" y="281.962" width="1.86571" height="29.6182" class="st12"/>
		</g>
		<g id="shape451-83" transform="translate(246.877,-87.2139)">
			<title>Rectangle.400</title>
			<rect x="0" y="281.962" width="1.86571" height="29.6182" class="st3"/>
		</g>
		<g id="shape452-85" transform="translate(374.917,-87.2139)">
			<title>Rectangle.410</title>
			<rect x="0" y="281.962" width="1.86571" height="29.6182" class="st3"/>
		</g>
		<g id="shape453-87" transform="translate(204.375,-155.311)">
			<title>s.free.411</title>
			<desc>Wait for ACK</desc>
			<rect x="0" y="281.962" width="43.6111" height="29.6182" class="st13"/>
			<text x="5.1" y="293.77" class="st5">Wait for <tspan x="13.65" dy="1.2em" class="st9">ACK</tspan></text>		</g>
		<g id="shape454-91" transform="translate(331.509,-155.311)">
			<title>s.free.412</title>
			<desc>Wait for ACK</desc>
			<rect x="0" y="281.962" width="43.6111" height="29.6182" class="st13"/>
			<text x="5.1" y="293.77" class="st5">Wait for <tspan x="13.65" dy="1.2em" class="st9">ACK</tspan></text>		</g>
		<g id="group455-95" transform="translate(225.072,-135.639)">
			<title>Deletion</title>
			<g id="shape456-96" transform="translate(-4.5,5.6232)">
				<title>Sheet.456</title>
				<path d="M0 311.58 L9 300.33 L0 311.58 ZM9 311.58 L0 300.33 L9 311.58 Z" class="st14"/>
				<path d="M0 311.58 L9 300.33M9 311.58 L0 300.33" class="st15"/>
			</g>
		</g>
		<g id="shape457-99" transform="translate(41.5349,193.105) rotate(-89.6977)">
			<title>Sheet.457</title>
			<path d="M0 311.58 L30.08 311.58" class="st6"/>
		</g>
		<g id="group458-104" transform="translate(353.855,-135.925)">
			<title>Deletion.418</title>
			<g id="shape459-105" transform="translate(-5.14724,6.43199)">
				<title>Sheet.459</title>
				<path d="M0 311.58 L9 300.33 L0 311.58 ZM9 311.58 L0 300.33 L9 311.58 Z" class="st14"/>
				<path d="M0 311.58 L9 300.33M9 311.58 L0 300.33" class="st15"/>
			</g>
		</g>
		<g id="group460-108" transform="translate(432.837,-138.581)">
			<title>Deletion.422</title>
			<g id="shape461-109" transform="translate(-4.5,5.6232)">
				<title>Sheet.461</title>
				<path d="M0 311.58 L9 300.33 L0 311.58 ZM9 311.58 L0 300.33 L9 311.58 Z" class="st14"/>
				<path d="M0 311.58 L9 300.33M9 311.58 L0 300.33" class="st15"/>
			</g>
		</g>
		<g id="shape462-112" transform="translate(160.031,-198.318)">
			<title>Sheet.462</title>
			<path d="M8.04 311.58 L8.4 311.58 L114.48 311.58" class="st16"/>
		</g>
		<g id="shape465-121" transform="translate(454.274,-155.311)">
			<title>s.free.450</title>
			<desc>Wait for ACK</desc>
			<rect x="0" y="281.962" width="43.9579" height="29.6182" class="st13"/>
			<text x="5.28" y="293.77" class="st5">Wait for <tspan x="13.82" dy="1.2em" class="st9">ACK</tspan></text>		</g>
		<g id="shape334-125" transform="translate(0.375,-155.311)">
			<title>Sheet.334</title>
			<path d="M0 311.58 L513.39 311.58" class="st18"/>
		</g>
		<g id="shape338-128" transform="translate(0.375,-87.2139)">
			<title>Sheet.338</title>
			<path d="M0 311.58 L513.39 311.58" class="st18"/>
		</g>
		<g id="shape466-131" transform="translate(133.817,-1.14113)">
			<title>Nordic Middle Grey.466</title>
			<desc>Event with event ID NRF_ESB_EVENT_RX_RECEIVED</desc>
			<rect x="0" y="268.752" width="138.898" height="42.8282" class="st19"/>
			<text x="29.67" y="285.97" class="st11">Event with event ID <tspan x="5.22" dy="1.38em" class="st9">NRF_ESB_EVENT_RX_RECEIVED</tspan></text>		</g>
		<g id="shape467-135" transform="translate(196.179,-87.2139)">
			<title>Dynamic connector.467</title>
			<path d="M7.09 319.62 L7.09 319.98 L7.09 354.83" class="st20"/>
		</g>
		<g id="shape469-141" transform="translate(281.78,-1)">
			<title>Nordic Middle Grey.469</title>
			<desc>Packet recognized as retransmit attempt and discarded by PRX.</desc>
			<rect x="0" y="268.752" width="138.898" height="42.8282" class="st19"/>
			<text x="4.54" y="285.97" class="st11">Packet recognized as retransmit <tspan x="6.98" dy="1.38em" class="st9">attempt and discarded by PRX.</tspan></text>		</g>
		<g id="shape470-145" transform="translate(324.259,-87.2139)">
			<title>Dynamic connector.470</title>
			<path d="M7.06 319.62 L7.06 319.98 L7.13 354.97" class="st20"/>
		</g>
		<g id="shape472-150" transform="translate(121.657,-227.911)">
			<title>Nordic Middle Grey.472</title>
			<desc>Initial packet</desc>
			<rect x="0" y="281.962" width="73.4366" height="29.6182" class="st19"/>
			<text x="10.62" y="300.37" class="st11">Initial packet</text>		</g>
		<g id="shape473-153" transform="translate(165.723,-184.929)">
			<title>Dynamic connector.473</title>
			<path d="M-6.92 303.54 L-6.93 303.18 L-7.35 268.6" class="st20"/>
		</g>
		<g id="shape475-158" transform="translate(248.034,-227.911)">
			<title>Nordic Middle Grey.475</title>
			<desc>Retransmit attempt 1</desc>
			<rect x="0" y="281.962" width="103.195" height="29.6182" class="st19"/>
			<text x="7.86" y="300.37" class="st11">Retransmit attempt 1</text>		</g>
		<g id="shape478-161" transform="translate(291.77,-184.929)">
			<title>Dynamic connector.478</title>
			<path d="M-7.04 303.54 L-7.04 303.18 L-7.16 268.6" class="st20"/>
		</g>
		<g id="shape479-166" transform="translate(369.654,-227.911)">
			<title>Nordic Middle Grey.479</title>
			<desc>Retransmit attempt 2</desc>
			<rect x="0" y="281.962" width="103.195" height="29.6182" class="st19"/>
			<text x="7.86" y="300.37" class="st11">Retransmit attempt 2</text>		</g>
		<g id="shape481-169" transform="translate(384.954,-273.025)">
			<title>Nordic Middle Grey.481</title>
			<desc>Event with event ID NRF_ESB_EVENT_TX_FAILED</desc>
			<rect x="0" y="274.025" width="128.807" height="37.5552" class="st19"/>
			<text x="24.63" y="288.6" class="st11">Event with event ID <tspan x="6.26" dy="1.38em" class="st9">NRF_ESB_EVENT_TX_FAILED</tspan></text>		</g>
		<g id="shape483-173" transform="translate(400.778,-184.929)">
			<title>Dynamic connector.483</title>
			<path d="M7.09 303.54 L7.09 303.18 L7.09 268.6" class="st20"/>
		</g>
		<g id="shape484-178" transform="translate(491.146,-184.929)">
			<title>Dynamic connector.484</title>
			<path d="M7.09 303.54 L7.09 303.18 L7.09 222.73" class="st20"/>
		</g>
		<g id="shape485-183" transform="translate(169.52,-202.254)">
			<title>Sheet.485</title>
			<desc>Retransmission delay</desc>
			<rect x="0" y="302.51" width="103.195" height="9.07087" class="st21"/>
			<text x="8.48" y="310.65" class="st5">Retransmission delay</text>		</g>
	</g>
</svg>
