<?xml version="1.0" encoding="UTF-8" standalone="no"?>
<!DOCTYPE svg PUBLIC "-//W3C//DTD SVG 1.1//EN" "http://www.w3.org/Graphics/SVG/1.1/DTD/svg11.dtd">
<!-- Generated by Microsoft Visio, SVG Export esb_fig2_ptx_trans_ok.svg Page-1 -->
<svg xmlns="http://www.w3.org/2000/svg" xmlns:xlink="http://www.w3.org/1999/xlink" xmlns:ev="http://www.w3.org/2001/xml-events"
		width="7.29862in" height="5.88519in" viewBox="0 0 525.501 423.734" xml:space="preserve" color-interpolation-filters="sRGB"
		class="st15">
	<style type="text/css">
	<![CDATA[
		.st1 {fill:none;stroke:none;stroke-linecap:round;stroke-linejoin:round;stroke-width:0.72}
		.st2 {fill:#000000;font-family:Arial;font-size:0.833336em}
		.st3 {fill:#000000;stroke:none;stroke-linecap:round;stroke-linejoin:round;stroke-width:0.24}
		.st4 {fill:#0077c8;stroke:none;stroke-linecap:round;stroke-linejoin:round;stroke-width:0.72}
		.st5 {fill:#ffffff;font-family:Arial;font-size:0.666664em}
		.st6 {font-size:1em}
		.st7 {fill:#d9e1e2;stroke:none;stroke-linecap:round;stroke-linejoin:round;stroke-width:0.72}
		.st8 {fill:#000000;font-family:Arial;font-size:0.666664em}
		.st9 {marker-end:url(#mrkr13-31);stroke:#333f48;stroke-linecap:butt;stroke-width:1}
		.st10 {fill:#333f48;fill-opacity:1;stroke:#333f48;stroke-opacity:1;stroke-width:0.28409090909091}
		.st11 {fill:#d0df00;stroke:none;stroke-linecap:round;stroke-linejoin:round;stroke-width:0.72}
		.st12 {fill:#00a9ce;stroke:none;stroke-width:1}
		.st13 {marker-start:url(#mrkr13-73);stroke:#333f48;stroke-dasharray:8,4;stroke-linecap:butt;stroke-width:1}
		.st14 {stroke:#000000;stroke-linecap:round;stroke-linejoin:round;stroke-width:0.75}
		.st15 {fill:none;fill-rule:evenodd;font-size:12px;overflow:visible;stroke-linecap:square;stroke-miterlimit:3}
	]]>
	</style>

	<defs id="Markers">
		<g id="lend13">
			<path d="M 3 1 L 0 0 L 3 -1 L 3 1 " style="stroke:none"/>
		</g>
		<marker id="mrkr13-31" class="st10" refX="-10.56" orient="auto" markerUnits="strokeWidth" overflow="visible">
			<use xlink:href="#lend13" transform="scale(-3.52,-3.52) "/>
		</marker>
		<marker id="mrkr13-73" class="st10" refX="10.2" orient="auto" markerUnits="strokeWidth" overflow="visible">
			<use xlink:href="#lend13" transform="scale(3.52) "/>
		</marker>
	</defs>
	<g>
		<title>Page-1</title>
		<g id="group197-1" transform="translate(1,-1)">
			<title>Sheet.197</title>
			<g id="shape26-2" transform="translate(10.2165,-221.188)">
				<title>Sheet.26</title>
				<desc>PTX operation</desc>
				<rect x="0" y="410.978" width="82.2835" height="12.7559" class="st1"/>
				<text x="4" y="420.36" class="st2">PTX operation</text>			</g>
			<g id="shape27-5" transform="translate(273.43,-214.102)">
				<title>Rectangle.260</title>
				<rect x="0" y="378.734" width="2.83465" height="45" class="st3"/>
			</g>
			<g id="shape28-7" transform="translate(204.835,-214.102)">
				<title>Rectangle.261</title>
				<rect x="0" y="378.734" width="2.83465" height="45" class="st3"/>
			</g>
			<g id="shape30-9" transform="translate(10.2165,-117.727)">
				<title>Sheet.30</title>
				<desc>PRX operation</desc>
				<rect x="0" y="410.978" width="82.2835" height="12.7559" class="st1"/>
				<text x="4" y="420.36" class="st2">PRX operation</text>			</g>
			<g id="shape31-12" transform="translate(273.43,-110.64)">
				<title>Rectangle.272</title>
				<rect x="0" y="378.734" width="2.83465" height="45" class="st3"/>
			</g>
			<g id="shape32-14" transform="translate(204.335,-110.64)">
				<title>Rectangle.273</title>
				<rect x="0" y="378.734" width="2.83465" height="45" class="st3"/>
			</g>
			<g id="shape123-16" transform="translate(276.334,-214.102)">
				<title>s.384</title>
				<desc>Receive ACK with payload</desc>
				<rect x="0" y="378.734" width="66.2598" height="45" class="st4"/>
				<text x="9.34" y="398.83" class="st5">Receive ACK <tspan x="10.89" dy="1.2em" class="st6">with </tspan>payload</text>			</g>
			<g id="shape124-20" transform="translate(93.7839,-110.64)">
				<title>s.free</title>
				<desc>Listen</desc>
				<rect x="0" y="378.734" width="110.551" height="45" class="st7"/>
				<text x="44.6" y="403.63" class="st8">Listen</text>			</g>
			<g id="shape125-23" transform="translate(342.524,-110.64)">
				<title>s.free.389</title>
				<desc>Listen</desc>
				<rect x="0" y="378.734" width="168.461" height="45" class="st7"/>
				<text x="73.56" y="403.63" class="st8">Listen</text>			</g>
			<g id="shape126-26" transform="translate(664.551,189.89) rotate(90.3729)">
				<title>Sheet.126</title>
				<path d="M0 423.73 L70.4 423.73" class="st9"/>
			</g>
			<g id="shape127-32" transform="translate(-114.34,290.226) rotate(-89.9503)">
				<title>Sheet.127</title>
				<path d="M0 423.73 L70.4 423.73" class="st9"/>
			</g>
			<g id="shape128-37" transform="translate(207.697,-214.102)">
				<title>s.3</title>
				<desc>Send packet</desc>
				<rect x="0" y="378.734" width="66.2598" height="45" class="st11"/>
				<text x="10.89" y="403.63" class="st8">Send packet</text>			</g>
			<g id="shape129-40" transform="translate(276.264,-110.64)">
				<title>s.403</title>
				<desc>Send ACK with payload</desc>
				<rect x="0" y="378.734" width="66.2598" height="45" class="st11"/>
				<text x="14.45" y="398.83" class="st8">Send ACK <tspan x="10.89" dy="1.2em" class="st6">with </tspan>payload</text>			</g>
			<g id="shape130-44" transform="translate(207.17,-110.64)">
				<title>s.405</title>
				<desc>Receive packet</desc>
				<rect x="0" y="378.734" width="66.2598" height="45" class="st4"/>
				<text x="5.78" y="403.63" class="st5">Receive packet</text>			</g>
			<g id="shape131-47" transform="translate(7.99361E-14,-285.778)">
				<title>Nordic Middle Grey</title>
				<desc>Start the transaction by adding a payload to the TX FIFO usin...</desc>
				<rect x="0" y="369.094" width="154.5" height="54.6402" class="st12"/>
				<text x="4.54" y="389.21" class="st5">Start the transaction by adding a payload <tspan x="40.13" dy="1.2em"
							class="st6">to the TX FIFO using </tspan><tspan x="34.34" dy="1.2em" class="st6">nrf_esb_write_payload()</tspan></text>			</g>
			<g id="shape133-52" transform="translate(126.055,-367.094)">
				<title>Nordic Middle Grey.133</title>
				<desc>Event with event ID NRF_ESB_EVENT_TX_SUCCESS</desc>
				<rect x="0" y="369.094" width="138.898" height="54.6402" class="st12"/>
				<text x="34.99" y="394.01" class="st5">Event with event ID <tspan x="6.54" dy="1.2em" class="st6">NRF_ESB_EVENT_TX_SUCCESS</tspan></text>			</g>
			<g id="shape136-56" transform="translate(309.921,-367.094)">
				<title>Nordic Middle Grey.136</title>
				<desc>Event with event ID NRF_ESB_EVENT_RX_RECEIVED (A payload is r...</desc>
				<rect x="0" y="369.094" width="179.669" height="54.6402" class="st12"/>
				<text x="55.37" y="384.41" class="st5">Event with event ID <tspan x="25.37" dy="1.2em" class="st6">NRF_ESB_EVENT_RX_RECEIVED </tspan><tspan
							x="5.57" dy="1.2em" class="st6">(</tspan>A payload is received in the ACK packet and is <tspan
							x="59.37" dy="1.2em" class="st6">ready to be read)</tspan></text>			</g>
			<g id="shape138-62" transform="translate(343.051,-267.229)">
				<title>Nordic Middle Grey.138</title>
				<desc>If both events occur, the NRF_ESB_EVENT_TX_SUCCESS event alwa...</desc>
				<rect x="0" y="350.545" width="179.669" height="73.1891" class="st12"/>
				<text x="47.14" y="375.14" class="st5">If both events occur, the <tspan x="16.03" dy="1.2em" class="st6">NRF_ESB_EVENT_TX_SUCCESS event </tspan><tspan
							x="45.59" dy="1.2em" class="st6">always occurs before the </tspan><tspan x="14.47" dy="1.2em"
							class="st6">NRF_ESB_EVENT_RX_RECEIVED event</tspan></text>			</g>
			<g id="shape141-68" transform="translate(342.594,-236.602)">
				<title>Dynamic connector</title>
				<path d="M10.2 423.73 L10.56 423.73 L90.29 423.73 L90.29 393.11" class="st13"/>
			</g>
			<g id="shape142-74" transform="translate(309.464,-259.102)">
				<title>Dynamic connector.142</title>
				<path d="M0 413.53 L0 413.17 L0 333.81 L90.29 333.81 L90.29 315.74" class="st13"/>
			</g>
			<g id="shape143-79" transform="translate(309.464,-259.102)">
				<title>Dynamic connector.143</title>
				<path d="M0 413.53 L0 413.17 L0 334.75 L-113.96 334.75 L-113.96 315.74" class="st13"/>
			</g>
			<g id="shape144-84" transform="translate(204.835,-236.602)">
				<title>Dynamic connector.144</title>
				<path d="M-10.2 423.73 L-10.56 423.73 L-127.59 423.73 L-127.59 374.56" class="st13"/>
			</g>
			<g id="shape145-89">
				<title>Nordic Middle Grey.145</title>
				<desc>Preload a TX payload using nrf_esb_write_payload() (Optional)</desc>
				<rect x="0" y="369.094" width="138.898" height="54.6402" class="st12"/>
				<text x="20.31" y="384.41" class="st5">Preload a TX payload using <tspan x="26.54" dy="1.2em" class="st6">nrf_esb_write_payload()  </tspan><tspan
							x="51.89" dy="2.4em" class="st6">(Optional)</tspan></text>			</g>
			<g id="shape147-94" transform="translate(149.059,-110.64)">
				<title>Dynamic connector.147</title>
				<path d="M0 433.93 L0 434.29 L0 459.08 L-79.61 459.08 L-79.61 479.73" class="st13"/>
			</g>
			<g id="shape195-99" transform="translate(171.061,5.68434E-14)">
				<title>Nordic Middle Grey.195</title>
				<desc>Event with event ID NRF_ESB_EVENT_RX_RECEIVED</desc>
				<rect x="0" y="369.094" width="138.898" height="54.6402" class="st12"/>
				<text x="34.99" y="394.01" class="st5">Event with event ID <tspan x="4.98" dy="1.2em" class="st6">NRF_ESB_EVENT_RX_RECEIVED</tspan></text>			</g>
			<g id="shape196-103" transform="translate(233.318,-110.64)">
				<title>Dynamic connector.196</title>
				<path d="M7.02 433.93 L7.02 434.29 L7.19 479.73" class="st13"/>
			</g>
			<g id="shape29-108" transform="translate(11.6339,-110.64)">
				<title>Sheet.29</title>
				<path d="M0 423.73 L512.49 423.73" class="st14"/>
			</g>
			<g id="shape25-111" transform="translate(11.6339,-214.102)">
				<title>Sheet.25</title>
				<path d="M0 423.73 L511.99 423.73" class="st14"/>
			</g>
		</g>
	</g>
</svg>
