<?xml version="1.0" encoding="UTF-8" standalone="no"?>
<!DOCTYPE svg PUBLIC "-//W3C//DTD SVG 1.1//EN" "http://www.w3.org/Graphics/SVG/1.1/DTD/svg11.dtd">
<!-- Generated by Microsoft Visio, SVG Export Drawing4.vsdx.svg Page-1 -->
<svg xmlns="http://www.w3.org/2000/svg" xmlns:xlink="http://www.w3.org/1999/xlink" xmlns:ev="http://www.w3.org/2001/xml-events"
		width="7.56598in" height="4.65919in" viewBox="0 0 544.75 335.462" xml:space="preserve" color-interpolation-filters="sRGB"
		class="st10">
	<style type="text/css">
	<![CDATA[
		.st1 {fill:#d9e1e2;stroke:none;stroke-width:1}
		.st2 {fill:none;stroke:none;stroke-width:1}
		.st3 {fill:#00a9ce;font-family:Arial;font-size:0.916672em}
		.st4 {fill:#00a9ce;stroke:none;stroke-width:1}
		.st5 {fill:#ffffff;font-family:Arial;font-size:0.916672em}
		.st6 {marker-end:url(#mrkr4-30);marker-start:url(#mrkr4-28);stroke:#00a9ce;stroke-dasharray:2,1;stroke-linecap:butt;stroke-width:0.25}
		.st7 {fill:#00a9ce;fill-opacity:1;stroke:#00a9ce;stroke-opacity:1;stroke-width:0.090252707581227}
		.st8 {fill:#00a9ce;font-family:Arial;font-size:0.833336em}
		.st9 {stroke:#00a9ce;stroke-dasharray:2,1;stroke-linecap:butt;stroke-width:0.25}
		.st10 {fill:none;fill-rule:evenodd;font-size:12px;overflow:visible;stroke-linecap:square;stroke-miterlimit:3}
	]]>
	</style>

	<defs id="Markers">
		<g id="lend4">
			<path d="M 2 1 L 0 0 L 2 -1 L 2 1 " style="stroke:none"/>
		</g>
		<marker id="mrkr4-28" class="st7" refX="20.72" orient="auto" markerUnits="strokeWidth" overflow="visible">
			<use xlink:href="#lend4" transform="scale(11.08) "/>
		</marker>
		<marker id="mrkr4-30" class="st7" refX="-22.16" orient="auto" markerUnits="strokeWidth" overflow="visible">
			<use xlink:href="#lend4" transform="scale(-11.08,-11.08) "/>
		</marker>
	</defs>
	<g>
		<title>Page-1</title>
		<g id="shape5-1" transform="translate(59.1102,-172.105)">
			<title>Nordic Light Grey</title>
			<rect x="0" y="280.822" width="479.446" height="54.6402" class="st1"/>
		</g>
		<g id="shape6-3" transform="translate(1.39099,-184.226)">
			<title>Sheet.6</title>
			<desc>AP</desc>
			<rect x="0" y="304.281" width="36.8504" height="31.1811" class="st2"/>
			<text x="11.09" y="323.17" class="st3">AP</text>		</g>
		<g id="shape7-6" transform="translate(59.1102,-96.205)">
			<title>Nordic Light Grey.7</title>
			<rect x="0" y="280.822" width="479.446" height="54.6402" class="st1"/>
		</g>
		<g id="shape8-8" transform="translate(59.1102,-1)">
			<title>Nordic Light Grey.8</title>
			<rect x="0" y="280.822" width="479.446" height="54.6402" class="st1"/>
		</g>
		<g id="shape9-10" transform="translate(1,-107.935)">
			<title>Sheet.9</title>
			<desc>Device 1</desc>
			<rect x="0" y="304.281" width="51.4146" height="31.1811" class="st2"/>
			<text x="4.31" y="323.17" class="st3">Device 1</text>		</g>
		<g id="shape10-13" transform="translate(1,-12.7296)">
			<title>Sheet.10</title>
			<desc>Device 2</desc>
			<rect x="0" y="304.281" width="51.4146" height="31.1811" class="st2"/>
			<text x="4.31" y="323.17" class="st3">Device 2</text>		</g>
		<g id="shape11-16" transform="translate(89.265,-172.105)">
			<title>Nordic Blue</title>
			<desc>Beacon</desc>
			<rect x="0" y="304.281" width="58.9606" height="31.1811" class="st4"/>
			<text x="10.83" y="323.17" class="st5">Beacon</text>		</g>
		<g id="shape12-19" transform="translate(216.824,-172.105)">
			<title>Nordic Blue.12</title>
			<desc>Trigger</desc>
			<rect x="0" y="304.281" width="58.9606" height="31.1811" class="st4"/>
			<text x="12.06" y="323.17" class="st5">Trigger</text>		</g>
		<g id="shape13-22" transform="translate(148.958,-319.58)">
			<title>Dynamic connector</title>
			<path d="M5.18 341.87 L5.54 341.88 L214.83 343.22" class="st6"/>
		</g>
		<g id="shape14-31" transform="translate(369.045,-172.105)">
			<title>Nordic Blue.14</title>
			<desc>Trigger</desc>
			<rect x="0" y="304.281" width="58.9606" height="31.1811" class="st4"/>
			<text x="12.06" y="323.17" class="st5">Trigger</text>		</g>
		<g id="shape15-34" transform="translate(222.493,-313.202)">
			<title>Sheet.15</title>
			<desc>TWT 2</desc>
			<rect x="0" y="314.202" width="99.2126" height="21.2598" class="st2"/>
			<text x="34.61" y="327.83" class="st8">TWT 2</text>		</g>
		<g id="shape16-37" transform="translate(149.602,-266.997)">
			<title>Dynamic connector.16</title>
			<path d="M5.18 342.07 L5.54 342.07 L62.25 343.02" class="st6"/>
		</g>
		<g id="shape17-44" transform="translate(141.564,-172.105)">
			<title>Dynamic connector.17</title>
			<path d="M6.66 335.46 L7.51 192.88" class="st9"/>
		</g>
		<g id="shape18-47" transform="translate(362.1,-172.105)">
			<title>Dynamic connector.20</title>
			<path d="M6.94 335.46 L7.23 195.78" class="st9"/>
		</g>
		<g id="shape19-50" transform="translate(210.021,-172.105)">
			<title>Dynamic connector.21</title>
			<path d="M6.8 335.46 L7.37 248.22" class="st9"/>
		</g>
		<g id="shape20-53" transform="translate(149.602,-270.682)">
			<title>Sheet.20</title>
			<desc>TWT 1</desc>
			<rect x="0" y="314.202" width="51.4146" height="21.2598" class="st2"/>
			<text x="10.71" y="327.83" class="st8">TWT 1</text>		</g>
		<g id="shape21-56" transform="translate(217.431,-96.205)">
			<title>Nordic Blue.24</title>
			<desc>Active</desc>
			<rect x="0" y="304.281" width="122.7" height="31.1811" class="st4"/>
			<text x="46.37" y="323.17" class="st5">Active</text>		</g>
		<g id="shape22-59" transform="translate(59.1102,-104.621)">
			<title>Dynamic connector.25</title>
			<path d="M5.18 328.42 L5.54 328.42 L152.78 328.33" class="st6"/>
		</g>
		<g id="shape23-66" transform="translate(102.021,-114.777)">
			<title>Sheet.23</title>
			<desc>Sleep</desc>
			<rect x="0" y="314.202" width="51.4146" height="21.2598" class="st2"/>
			<text x="12.92" y="327.83" class="st8">Sleep</text>		</g>
		<g id="shape24-69" transform="translate(340.131,-105.15)">
			<title>Dynamic connector.24</title>
			<path d="M5.18 328.63 L5.54 328.63 L192.89 328.12" class="st6"/>
		</g>
		<g id="shape25-76" transform="translate(404.937,-116.548)">
			<title>Sheet.25</title>
			<desc>Sleep</desc>
			<rect x="0" y="314.202" width="51.4146" height="21.2598" class="st2"/>
			<text x="12.92" y="327.83" class="st8">Sleep</text>		</g>
		<g id="shape26-79" transform="translate(369.085,-1)">
			<title>Nordic Blue.34</title>
			<desc>Active</desc>
			<rect x="0" y="304.281" width="122.7" height="31.1811" class="st4"/>
			<text x="46.37" y="323.17" class="st5">Active</text>		</g>
		<g id="shape27-82" transform="translate(59.1102,-9.42421)">
			<title>Dynamic connector.35</title>
			<path d="M5.18 328.43 L5.54 328.43 L304.43 328.32" class="st6"/>
		</g>
		<g id="shape28-89" transform="translate(102.021,-19.5718)">
			<title>Sheet.28</title>
			<desc>Sleep</desc>
			<rect x="0" y="314.202" width="51.4146" height="21.2598" class="st2"/>
			<text x="12.92" y="327.83" class="st8">Sleep</text>		</g>
		<g id="shape29-92" transform="translate(491.785,-10.0632)">
			<title>Dynamic connector.37</title>
			<path d="M5.18 328.5 L5.54 328.49 L41.23 328.26" class="st6"/>
		</g>
		<g id="shape30-99" transform="translate(487.142,-21.5512)">
			<title>Sheet.30</title>
			<desc>Sleep</desc>
			<rect x="0" y="314.202" width="51.4146" height="21.2598" class="st2"/>
			<text x="12.92" y="327.83" class="st8">Sleep</text>		</g>
	</g>
</svg>
