<?xml version="1.0" encoding="UTF-8" standalone="no"?>
<!DOCTYPE svg PUBLIC "-//W3C//DTD SVG 1.1//EN" "http://www.w3.org/Graphics/SVG/1.1/DTD/svg11.dtd">
<!-- Generated by Microsoft Visio, SVG Export gzll_fig9_gzll_config_example.svg Page-1 -->
<svg xmlns="http://www.w3.org/2000/svg" xmlns:xlink="http://www.w3.org/1999/xlink" xmlns:ev="http://www.w3.org/2001/xml-events"
		width="7.40667in" height="5.72266in" viewBox="0 0 533.28 412.031" xml:space="preserve" color-interpolation-filters="sRGB"
		class="st36">
	<style type="text/css">
	<![CDATA[
		.st1 {fill:#0033a0;stroke:none;stroke-width:1}
		.st2 {fill:#0077c8;stroke:none;stroke-width:1}
		.st3 {stroke:#333f48;stroke-linecap:butt;stroke-width:1}
		.st4 {fill:none;stroke:none;stroke-width:1}
		.st5 {fill:#333f48;font-family:Calibri;font-size:0.75em}
		.st6 {stroke:#333f48;stroke-dasharray:1,2;stroke-linecap:butt;stroke-width:1}
		.st7 {fill:#d0df00;stroke:none;stroke-width:1}
		.st8 {fill:#768692;stroke:none;stroke-width:1}
		.st9 {fill:#ffffff;font-family:Calibri;font-size:0.833336em}
		.st10 {fill:#00a9ce;stroke:none;stroke-width:1}
		.st11 {fill:#feffff;font-family:Calibri;font-size:0.833336em}
		.st12 {fill:#d9e1e2;stroke:none;stroke-width:1}
		.st13 {fill:#333f48;font-family:Calibri;font-size:0.833336em}
		.st14 {fill:#333f48;stroke:none;stroke-width:1}
		.st15 {stroke:#333f48;stroke-dasharray:8,4;stroke-linecap:butt;stroke-width:1}
		.st16 {font-size:1em}
		.st17 {marker-end:url(#mrkr4-219);marker-start:url(#mrkr4-217);stroke:#333f48;stroke-linecap:butt;stroke-width:0.5}
		.st18 {fill:#333f48;fill-opacity:1;stroke:#333f48;stroke-opacity:1;stroke-width:0.25773195876289}
		.st19 {marker-end:url(#mrkr4-228);marker-start:url(#mrkr4-226);stroke:#333f48;stroke-linecap:butt;stroke-width:0.25}
		.st20 {fill:#333f48;fill-opacity:1;stroke:#333f48;stroke-opacity:1;stroke-width:0.14792899408284}
		.st21 {marker-end:url(#mrkr4-253);marker-start:url(#mrkr4-251);stroke:#333f48;stroke-linecap:butt;stroke-width:1}
		.st22 {fill:#333f48;fill-opacity:1;stroke:#333f48;stroke-opacity:1;stroke-width:0.28409090909091}
		.st23 {fill:#ffffff;stroke:none;stroke-linecap:butt;stroke-width:7.2}
		.st24 {fill:none;stroke:#768692;stroke-width:1}
		.st25 {marker-end:url(#mrkr4-288);stroke:#768692;stroke-linecap:butt;stroke-width:1}
		.st26 {fill:#768692;fill-opacity:1;stroke:#768692;stroke-opacity:1;stroke-width:0.35714285714286}
		.st27 {stroke:#c00000;stroke-linecap:butt;stroke-width:1}
		.st28 {marker-end:url(#mrkr4-354);stroke:#333f48;stroke-linecap:butt;stroke-width:1}
		.st29 {fill:#333f48;fill-opacity:1;stroke:#333f48;stroke-opacity:1;stroke-width:0.35714285714286}
		.st30 {marker-start:url(#mrkr4-360);stroke:#333f48;stroke-linecap:butt;stroke-width:1}
		.st31 {marker-start:url(#mrkr13-403);stroke:#333f48;stroke-dasharray:8,4;stroke-linecap:butt;stroke-width:1}
		.st32 {fill:#feffff;font-family:Calibri;font-size:0.666664em}
		.st33 {fill:#333f48;font-family:Calibri;font-size:0.666664em}
		.st34 {fill:#f58220;stroke:none;stroke-width:1}
		.st35 {marker-end:url(#mrkr13-499);stroke:#333f48;stroke-dasharray:8,4;stroke-linecap:butt;stroke-width:1}
		.st36 {fill:none;fill-rule:evenodd;font-size:12px;overflow:visible;stroke-linecap:square;stroke-miterlimit:3}
	]]>
	</style>

	<defs id="Markers">
		<g id="lend4">
			<path d="M 2 1 L 0 0 L 2 -1 L 2 1 " style="stroke:none"/>
		</g>
		<marker id="mrkr4-217" class="st18" refX="7.04" orient="auto" markerUnits="strokeWidth" overflow="visible">
			<use xlink:href="#lend4" transform="scale(3.88) "/>
		</marker>
		<marker id="mrkr4-219" class="st18" refX="-7.76" orient="auto" markerUnits="strokeWidth" overflow="visible">
			<use xlink:href="#lend4" transform="scale(-3.88,-3.88) "/>
		</marker>
		<marker id="mrkr4-226" class="st20" refX="12.08" orient="auto" markerUnits="strokeWidth" overflow="visible">
			<use xlink:href="#lend4" transform="scale(6.76) "/>
		</marker>
		<marker id="mrkr4-228" class="st20" refX="-13.52" orient="auto" markerUnits="strokeWidth" overflow="visible">
			<use xlink:href="#lend4" transform="scale(-6.76,-6.76) "/>
		</marker>
		<marker id="mrkr4-251" class="st22" refX="6.68" orient="auto" markerUnits="strokeWidth" overflow="visible">
			<use xlink:href="#lend4" transform="scale(3.52) "/>
		</marker>
		<marker id="mrkr4-253" class="st22" refX="-7.04" orient="auto" markerUnits="strokeWidth" overflow="visible">
			<use xlink:href="#lend4" transform="scale(-3.52,-3.52) "/>
		</marker>
		<marker id="mrkr4-288" class="st26" refX="-5.6" orient="auto" markerUnits="strokeWidth" overflow="visible">
			<use xlink:href="#lend4" transform="scale(-2.8,-2.8) "/>
		</marker>
		<marker id="mrkr4-354" class="st29" refX="-5.6" orient="auto" markerUnits="strokeWidth" overflow="visible">
			<use xlink:href="#lend4" transform="scale(-2.8,-2.8) "/>
		</marker>
		<marker id="mrkr4-360" class="st29" refX="5.24" orient="auto" markerUnits="strokeWidth" overflow="visible">
			<use xlink:href="#lend4" transform="scale(2.8) "/>
		</marker>
		<g id="lend13">
			<path d="M 3 1 L 0 0 L 3 -1 L 3 1 " style="stroke:none"/>
		</g>
		<marker id="mrkr13-403" class="st22" refX="10.2" orient="auto" markerUnits="strokeWidth" overflow="visible">
			<use xlink:href="#lend13" transform="scale(3.52) "/>
		</marker>
		<marker id="mrkr13-499" class="st22" refX="-10.56" orient="auto" markerUnits="strokeWidth" overflow="visible">
			<use xlink:href="#lend13" transform="scale(-3.52,-3.52) "/>
		</marker>
	</defs>
	<g>
		<title>Page-1</title>
		<g id="shape425-1" transform="translate(80.3439,-184.395)">
			<title>Rectangle.425</title>
			<rect x="0" y="403.817" width="9.59296" height="8.21426" class="st1"/>
		</g>
		<g id="shape426-3" transform="translate(89.9369,-184.395)">
			<title>Rectangle.426</title>
			<rect x="0" y="403.817" width="9.59296" height="8.21426" class="st2"/>
		</g>
		<g id="shape427-5" transform="translate(112.32,-184.395)">
			<title>Rectangle.427</title>
			<rect x="0" y="403.817" width="9.59296" height="8.21426" class="st1"/>
		</g>
		<g id="shape428-7" transform="translate(121.913,-184.395)">
			<title>Rectangle.6</title>
			<rect x="0" y="403.817" width="9.59296" height="8.21426" class="st2"/>
		</g>
		<g id="shape429-9" transform="translate(12.8079,-184.395)">
			<title>Sheet.429</title>
			<path d="M0 412.03 L519.47 412.03" class="st3"/>
		</g>
		<g id="shape430-12" transform="translate(14.0201,-186.996)">
			<title>Sheet.430</title>
			<desc>Operation</desc>
			<rect x="0" y="403.817" width="51.9727" height="8.21426" class="st4"/>
			<text x="4" y="410.62" class="st5">Operation</text>		</g>
		<g id="shape431-15" transform="translate(-299.711,234.731) rotate(-90)">
			<title>Sheet.431</title>
			<path d="M0 412.03 L70.09 412.03" class="st6"/>
		</g>
		<g id="shape432-18" transform="translate(-331.688,234.731) rotate(-90)">
			<title>Sheet.432</title>
			<path d="M0 412.03 L70.86 412.03" class="st6"/>
		</g>
		<g id="shape433-21" transform="translate(12.8079,-201.366)">
			<title>Sheet.433</title>
			<path d="M0 412.03 L519.47 412.03" class="st3"/>
		</g>
		<g id="shape434-24" transform="translate(14.0201,-204.004)">
			<title>Sheet.434</title>
			<desc>Sync state</desc>
			<rect x="0" y="403.817" width="51.9727" height="8.21426" class="st4"/>
			<text x="4" y="410.62" class="st5">Sync state</text>		</g>
		<g id="shape435-27" transform="translate(144.282,-184.401)">
			<title>Rectangle.8</title>
			<rect x="0" y="403.817" width="9.59296" height="8.21426" class="st1"/>
		</g>
		<g id="shape436-29" transform="translate(153.875,-184.401)">
			<title>Rectangle.436</title>
			<rect x="0" y="403.817" width="9.59296" height="8.21426" class="st2"/>
		</g>
		<g id="shape437-31" transform="translate(176.258,-184.401)">
			<title>Rectangle.437</title>
			<rect x="0" y="403.817" width="9.59296" height="8.21426" class="st1"/>
		</g>
		<g id="shape438-33" transform="translate(185.851,-184.401)">
			<title>Rectangle.438</title>
			<rect x="0" y="403.817" width="9.59296" height="8.21426" class="st2"/>
		</g>
		<g id="shape439-35" transform="translate(-235.773,234.723) rotate(-90)">
			<title>Sheet.439</title>
			<path d="M0 412.03 L70.09 412.03" class="st6"/>
		</g>
		<g id="shape440-38" transform="translate(-267.75,234.723) rotate(-90)">
			<title>Sheet.440</title>
			<path d="M0 412.03 L70.86 412.03" class="st6"/>
		</g>
		<g id="shape441-41" transform="translate(208.235,-184.401)">
			<title>Rectangle.441</title>
			<rect x="0" y="403.817" width="9.59296" height="8.21426" class="st1"/>
		</g>
		<g id="shape442-43" transform="translate(217.828,-184.401)">
			<title>Rectangle.19</title>
			<rect x="0" y="403.817" width="9.59296" height="8.21426" class="st2"/>
		</g>
		<g id="shape443-45" transform="translate(240.211,-184.401)">
			<title>Rectangle.28</title>
			<rect x="0" y="403.817" width="9.59296" height="8.21426" class="st1"/>
		</g>
		<g id="shape444-47" transform="translate(249.804,-184.401)">
			<title>Rectangle.33</title>
			<rect x="0" y="403.817" width="9.59296" height="8.21426" class="st7"/>
		</g>
		<g id="shape445-49" transform="translate(-171.82,234.723) rotate(-90)">
			<title>Sheet.445</title>
			<path d="M0 412.03 L70.09 412.03" class="st6"/>
		</g>
		<g id="shape446-52" transform="translate(-203.797,234.723) rotate(-90)">
			<title>Sheet.446</title>
			<path d="M0 412.03 L70.86 412.03" class="st6"/>
		</g>
		<g id="shape447-55" transform="translate(-107.934,234.731) rotate(-90)">
			<title>Sheet.447</title>
			<path d="M0 412.03 L70.09 412.03" class="st6"/>
		</g>
		<g id="shape448-58" transform="translate(-139.911,234.731) rotate(-90)">
			<title>Sheet.448</title>
			<path d="M0 412.03 L70.86 412.03" class="st6"/>
		</g>
		<g id="shape449-61" transform="translate(-43.9963,234.723) rotate(-90)">
			<title>Sheet.449</title>
			<path d="M0 412.03 L70.09 412.03" class="st6"/>
		</g>
		<g id="shape450-64" transform="translate(-75.9317,234.723) rotate(-90)">
			<title>Sheet.450</title>
			<path d="M0 412.03 L70.86 412.03" class="st6"/>
		</g>
		<g id="shape451-67" transform="translate(19.9568,234.723) rotate(-90)">
			<title>Sheet.451</title>
			<path d="M0 412.03 L70.09 412.03" class="st6"/>
		</g>
		<g id="shape452-70" transform="translate(-12.0198,234.723) rotate(-90)">
			<title>Sheet.452</title>
			<path d="M0 412.03 L70.86 412.03" class="st6"/>
		</g>
		<g id="shape453-73" transform="translate(463.983,-184.401)">
			<title>Rectangle.453</title>
			<rect x="0" y="403.817" width="9.59296" height="8.21426" class="st1"/>
		</g>
		<g id="shape454-75" transform="translate(473.576,-184.401)">
			<title>Rectangle.60</title>
			<rect x="0" y="403.817" width="9.59296" height="8.21426" class="st2"/>
		</g>
		<g id="shape455-77" transform="translate(495.96,-184.401)">
			<title>Rectangle.61</title>
			<rect x="0" y="403.817" width="9.59296" height="8.21426" class="st1"/>
		</g>
		<g id="shape456-79" transform="translate(83.9281,234.723) rotate(-90)">
			<title>Sheet.456</title>
			<path d="M0 412.03 L70.09 412.03" class="st6"/>
		</g>
		<g id="shape457-82" transform="translate(51.9516,234.723) rotate(-90)">
			<title>Sheet.457</title>
			<path d="M0 412.03 L70.86 412.03" class="st6"/>
		</g>
		<g id="shape458-85" transform="translate(12.8079,-235.44)">
			<title>Sheet.458</title>
			<path d="M0 412.03 L519.47 412.03" class="st3"/>
		</g>
		<g id="shape459-88" transform="translate(14.0201,-238.019)">
			<title>Sheet.459</title>
			<desc>Heartbeat</desc>
			<rect x="0" y="403.817" width="51.9727" height="8.21426" class="st4"/>
			<text x="4" y="410.62" class="st5">Heartbeat</text>		</g>
		<g id="shape460-91" transform="translate(80.1215,-201.395)">
			<title>Rectangle.67</title>
			<desc>Out of sync</desc>
			<rect x="0" y="395.024" width="180.004" height="17.0079" class="st8"/>
			<text x="67.01" y="406.53" class="st9">Out of sync</text>		</g>
		<g id="shape461-94" transform="translate(260.126,-201.395)">
			<title>Rectangle.68</title>
			<desc>In sync</desc>
			<rect x="0" y="395.024" width="266.903" height="17.0079" class="st10"/>
			<text x="119.47" y="406.53" class="st11">In sync</text>		</g>
		<g id="shape462-97" transform="translate(12.8079,-218.402)">
			<title>Sheet.462</title>
			<path d="M0 412.03 L518.79 412.03" class="st3"/>
		</g>
		<g id="shape463-100" transform="translate(14.0201,-221.237)">
			<title>Sheet.463</title>
			<desc>Channel index</desc>
			<rect x="0" y="403.817" width="65.0875" height="8.21426" class="st4"/>
			<text x="4" y="410.62" class="st5">Channel index</text>		</g>
		<g id="shape464-103" transform="translate(80.1215,-218.402)">
			<title>Rectangle.37</title>
			<desc>0</desc>
			<rect x="0" y="395.007" width="225.246" height="17.0249" class="st12"/>
			<text x="110.09" y="406.52" class="st13">0</text>		</g>
		<g id="shape465-106" transform="translate(304.071,-218.415)">
			<title>Rectangle.38</title>
			<desc>1</desc>
			<rect x="0" y="395.007" width="64.2531" height="17.0249" class="st8"/>
			<text x="29.59" y="406.52" class="st11">1</text>		</g>
		<g id="shape466-109" transform="translate(368.128,-218.402)">
			<title>Rectangle.39</title>
			<desc>2</desc>
			<rect x="0" y="395.007" width="63.9531" height="17.0249" class="st14"/>
			<text x="29.44" y="406.52" class="st11">2</text>		</g>
		<g id="shape467-112" transform="translate(431.988,-218.402)">
			<title>Rectangle.46</title>
			<desc>0</desc>
			<rect x="0" y="395.007" width="64.2531" height="17.0249" class="st12"/>
			<text x="29.59" y="406.52" class="st13">0</text>		</g>
		<g id="shape468-115" transform="translate(-295.457,331.393) rotate(-90)">
			<title>Sheet.468</title>
			<path d="M0 412.03 L55.75 412.03" class="st6"/>
		</g>
		<g id="shape469-118" transform="translate(-327.375,334.381) rotate(-90)">
			<title>Sheet.469</title>
			<path d="M0 412.03 L57.55 412.03" class="st6"/>
		</g>
		<g id="shape470-121" transform="translate(-231.518,332.015) rotate(-90.0865)">
			<title>Sheet.470</title>
			<path d="M0 412.03 L55.75 412.03" class="st6"/>
		</g>
		<g id="shape471-124" transform="translate(-263.495,352.369) rotate(-90)">
			<title>Sheet.471</title>
			<path d="M0 412.03 L76.72 412.03" class="st15"/>
		</g>
		<g id="shape472-127" transform="translate(-167.566,331.393) rotate(-90)">
			<title>Sheet.472</title>
			<path d="M0 412.03 L55.75 412.03" class="st6"/>
		</g>
		<g id="shape473-130" transform="translate(-199.542,352.369) rotate(-90)">
			<title>Sheet.473</title>
			<path d="M0 412.03 L76.72 412.03" class="st15"/>
		</g>
		<g id="shape474-133" transform="translate(-103.68,331.393) rotate(-90)">
			<title>Sheet.474</title>
			<path d="M0 412.03 L55.75 412.03" class="st6"/>
		</g>
		<g id="shape475-136" transform="translate(-135.656,331.393) rotate(-90)">
			<title>Sheet.475</title>
			<path d="M0 412.03 L55.75 412.03" class="st6"/>
		</g>
		<g id="shape476-139" transform="translate(-39.742,331.393) rotate(-90)">
			<title>Sheet.476</title>
			<path d="M0 412.03 L55.75 412.03" class="st6"/>
		</g>
		<g id="shape477-142" transform="translate(-71.6774,331.393) rotate(-90)">
			<title>Sheet.477</title>
			<path d="M0 412.03 L55.75 412.03" class="st6"/>
		</g>
		<g id="shape478-145" transform="translate(24.2111,331.393) rotate(-90)">
			<title>Sheet.478</title>
			<path d="M0 412.03 L55.75 412.03" class="st6"/>
		</g>
		<g id="shape479-148" transform="translate(-7.76545,331.393) rotate(-90)">
			<title>Sheet.479</title>
			<path d="M0 412.03 L55.75 412.03" class="st6"/>
		</g>
		<g id="shape480-151" transform="translate(88.1824,331.393) rotate(-90)">
			<title>Sheet.480</title>
			<path d="M0 412.03 L55.75 412.03" class="st6"/>
		</g>
		<g id="shape481-154" transform="translate(56.2059,331.393) rotate(-90)">
			<title>Sheet.481</title>
			<path d="M0 412.03 L55.75 412.03" class="st6"/>
		</g>
		<g id="shape482-157" transform="translate(12.8302,-85.2021) rotate(0.00309316)">
			<title>Sheet.482</title>
			<path d="M0 412.03 L519.47 412.03" class="st3"/>
		</g>
		<g id="shape483-160" transform="translate(12.8079,-102.182)">
			<title>Sheet.483</title>
			<path d="M0 412.03 L519.45 412.03" class="st3"/>
		</g>
		<g id="shape484-163" transform="translate(85.682,-119.7)">
			<title>Rectangle.17</title>
			<desc>Listen</desc>
			<rect x="0" y="400.371" width="62.3622" height="11.6602" class="st12"/>
			<text x="19.19" y="409.2" class="st13">Listen</text>		</g>
		<g id="shape485-166" transform="translate(12.8079,-119.19)">
			<title>Sheet.485</title>
			<path d="M0 412.03 L518.54 412.03" class="st3"/>
		</g>
		<g id="shape492-169" transform="translate(213.007,-119.7)">
			<title>Rectangle.492</title>
			<rect x="0" y="400.371" width="27.6293" height="11.6602" class="st12"/>
		</g>
		<g id="shape494-171" transform="translate(250.204,-119.667)">
			<title>Rectangle.55</title>
			<rect x="0" y="400.33" width="9.59296" height="11.7017" class="st1"/>
		</g>
		<g id="shape495-173" transform="translate(240.611,-119.658)">
			<title>Rectangle.56</title>
			<rect x="0" y="400.33" width="9.59296" height="11.7017" class="st7"/>
		</g>
		<g id="shape505-175" transform="translate(432.026,-184.387)">
			<title>Rectangle.99</title>
			<rect x="0" y="403.817" width="9.59296" height="8.21426" class="st1"/>
		</g>
		<g id="shape506-177" transform="translate(441.619,-184.387)">
			<title>Rectangle.100</title>
			<rect x="0" y="403.817" width="9.59296" height="8.21426" class="st2"/>
		</g>
		<g id="shape508-179" transform="translate(468.926,-119.7)">
			<title>Rectangle.91</title>
			<rect x="0" y="400.371" width="27.0229" height="11.6602" class="st12"/>
		</g>
		<g id="shape509-181" transform="translate(505.632,-119.709)">
			<title>Rectangle.95</title>
			<rect x="0" y="400.371" width="9.59296" height="11.6602" class="st1"/>
		</g>
		<g id="shape510-183" transform="translate(496.039,-119.7)">
			<title>Rectangle.96</title>
			<rect x="0" y="400.371" width="9.59296" height="11.6602" class="st2"/>
		</g>
		<g id="shape517-185" transform="translate(24.4496,-1)">
			<title>Rectangle.136</title>
			<desc>Device and Host timeslots will never be fully alligned.</desc>
			<rect x="0" y="379.433" width="116.896" height="32.5984" class="st4"/>
			<text x="5.78" y="392.73" class="st13">Device and Host timeslots <tspan x="4.28" dy="1.2em" class="st16">will never be fully alligned.</tspan></text>		</g>
		<g id="shape519-189" transform="translate(368.262,-297.22)">
			<title>Rectangle.138</title>
			<desc>Send new packet. Channel index 0 is corrupted and the transmi...</desc>
			<rect x="0" y="375.181" width="126.176" height="36.8504" class="st4"/>
			<text x="27.26" y="384.61" class="st13">Send new packet. <tspan x="5.02" dy="1.2em" class="st16">C</tspan>hannel index 0 is corrupted <tspan
						x="9.96" dy="1.2em" class="st16">and the transmission fails.</tspan></text>		</g>
		<g id="shape525-194" transform="translate(335.35,-1)">
			<title>Rectangle.144</title>
			<desc>Here, we assume that the previous successfull channel, which ...</desc>
			<rect x="0" y="375.181" width="159.436" height="36.8504" class="st4"/>
			<text x="4" y="384.61" class="st13">Here, we assume that the previous <tspan x="4" dy="1.2em" class="st16">successfull channel, which was </tspan><tspan
						x="4" dy="1.2em" class="st16">channel index 0, has been corrupted.</tspan></text>		</g>
		<g id="shape527-199" transform="translate(495.993,-218.402)">
			<title>Rectangle.146</title>
			<desc>1</desc>
			<rect x="0" y="395.007" width="31.0352" height="17.0249" class="st8"/>
			<text x="12.98" y="406.52" class="st11">1</text>		</g>
		<g id="shape528-202" transform="translate(505.597,-184.387)">
			<title>Rectangle.62</title>
			<rect x="0" y="403.817" width="9.59296" height="8.21426" class="st7"/>
		</g>
		<g id="shape529-204" transform="translate(437.792,-369.73)">
			<title>Rectangle.147</title>
			<desc>Transmission success on channel index 1</desc>
			<rect x="0" y="381.941" width="94.4885" height="30.0909" class="st4"/>
			<text x="4.28" y="393.99" class="st13">Transmission success <tspan x="8.98" dy="1.2em" class="st16">on channel index 1 </tspan></text>		</g>
		<g id="shape531-208" transform="translate(-331.968,334.531) rotate(-90)">
			<title>Sheet.531</title>
			<path d="M0 412.03 L95.55 412.03" class="st6"/>
		</g>
		<g id="shape535-211" transform="translate(148.536,-63.3622)">
			<title>Sheet.535</title>
			<path d="M3.52 412.03 L3.88 412.03 L60.07 412.03" class="st17"/>
		</g>
		<g id="shape536-220" transform="translate(144.282,-243.914)">
			<title>Sheet.536</title>
			<path d="M3.02 412.03 L3.38 412.03 L28.6 412.03" class="st19"/>
		</g>
		<g id="shape537-229" transform="translate(148.536,-78.0874)">
			<title>Sheet.537</title>
			<path d="M3.02 412.03 L3.38 412.03 L28.6 412.03" class="st19"/>
		</g>
		<g id="shape538-236" transform="translate(14.0201,-88.0087)">
			<title>Sheet.538</title>
			<desc>Heartbeat</desc>
			<rect x="0" y="403.817" width="51.9727" height="8.21426" class="st4"/>
			<text x="4" y="410.62" class="st5">Heartbeat</text>		</g>
		<g id="shape539-239" transform="translate(14.0201,-104.791)">
			<title>Sheet.539</title>
			<desc>Channel index</desc>
			<rect x="0" y="403.817" width="63.8084" height="8.21426" class="st4"/>
			<text x="4" y="410.62" class="st5">Channel index</text>		</g>
		<g id="shape540-242" transform="translate(14.0201,-121.573)">
			<title>Sheet.540</title>
			<desc>Operation</desc>
			<rect x="0" y="403.817" width="51.9727" height="8.21426" class="st4"/>
			<text x="4" y="410.62" class="st5">Operation</text>		</g>
		<g id="shape574-245" transform="translate(-404.161,247.487) rotate(-90)">
			<title>Sheet.574</title>
			<desc>Device</desc>
			<path d="M6.68 412.03 L7.04 412.03 L80.83 412.03" class="st21"/>
			<rect x="30.3651" y="406.032" width="27.1439" height="12.0001" class="st23"/>
			<text x="30.37" y="415.03" class="st13">Device</text>		</g>
		<g id="shape575-256" transform="translate(-404.161,352.369) rotate(-90)">
			<title>Sheet.575</title>
			<desc>Host</desc>
			<path d="M6.68 412.03 L7.04 412.03 L78 412.03" class="st21"/>
			<rect x="33.1372" y="406.032" width="18.7649" height="12.0001" class="st23"/>
			<text x="33.14" y="415.03" class="st13">Host</text>		</g>
		<g id="shape577-265" transform="translate(7.87096,-344.134)">
			<title>Nordic Light Grey.2333</title>
			<rect x="0" y="345.134" width="104.454" height="66.8976" class="st24"/>
		</g>
		<g id="shape578-267" transform="translate(12.7629,-388.486)">
			<title>Nordic Blue.1617</title>
			<rect x="0" y="396.326" width="15.4576" height="15.7058" class="st1"/>
		</g>
		<g id="shape579-269" transform="translate(28.2205,-388.486)">
			<title>Sheet.579</title>
			<desc>Send packet</desc>
			<rect x="0" y="396.326" width="61.4486" height="15.7058" class="st4"/>
			<text x="4" y="407.78" class="st13">Send packet</text>		</g>
		<g id="shape580-272" transform="translate(12.7629,-369.73)">
			<title>Nordic Blue.1618</title>
			<rect x="0" y="396.326" width="15.4576" height="15.7058" class="st2"/>
		</g>
		<g id="shape581-274" transform="translate(28.2205,-369.73)">
			<title>Sheet.581</title>
			<desc>Wait for packet</desc>
			<rect x="0" y="396.326" width="73.6532" height="15.7058" class="st4"/>
			<text x="4" y="407.78" class="st13">Wait for packet</text>		</g>
		<g id="shape582-277" transform="translate(12.7629,-350.973)">
			<title>Nordic Blue.2341</title>
			<rect x="0" y="396.326" width="15.4576" height="15.7058" class="st7"/>
		</g>
		<g id="shape583-279" transform="translate(28.2205,-350.973)">
			<title>Sheet.583</title>
			<desc>Receive packet</desc>
			<rect x="0" y="396.326" width="73.6532" height="15.7058" class="st4"/>
			<text x="4" y="407.78" class="st13">Receive packet</text>		</g>
		<g id="group617-282" transform="translate(82.6043,-142.799)">
			<title>Sheet.617</title>
			<g id="shape542-283" transform="translate(414.514,381.941) rotate(90)">
				<title>Sheet.542</title>
				<path d="M0 412.03 L24.49 412.03" class="st25"/>
			</g>
			<g id="group543-289" transform="translate(0,-10.0303)">
				<title>Sheet.543</title>
				<g id="shape544-290" transform="translate(369.258,219.195) rotate(63.6617)">
					<title>Sheet.544</title>
					<path d="M0 412.03 L11.19 412.03" class="st27"/>
				</g>
				<g id="shape545-293" transform="translate(-369.258,229.225) rotate(-63.6617)">
					<title>Sheet.545</title>
					<path d="M0 412.03 L11.19 412.03" class="st27"/>
				</g>
			</g>
		</g>
		<g id="group618-296" transform="translate(209.724,-142.799)">
			<title>Sheet.618</title>
			<g id="shape619-297" transform="translate(414.514,381.941) rotate(90)">
				<title>Sheet.619</title>
				<path d="M0 412.03 L24.49 412.03" class="st25"/>
			</g>
			<g id="group620-302" transform="translate(0,-10.0303)">
				<title>Sheet.620</title>
				<g id="shape621-303" transform="translate(369.258,219.195) rotate(63.6617)">
					<title>Sheet.621</title>
					<path d="M0 412.03 L11.19 412.03" class="st27"/>
				</g>
				<g id="shape622-306" transform="translate(-369.258,229.225) rotate(-63.6617)">
					<title>Sheet.622</title>
					<path d="M0 412.03 L11.19 412.03" class="st27"/>
				</g>
			</g>
		</g>
		<g id="group623-309" transform="translate(114.881,-142.799)">
			<title>Sheet.623</title>
			<g id="shape624-310" transform="translate(414.514,381.941) rotate(90)">
				<title>Sheet.624</title>
				<path d="M0 412.03 L24.49 412.03" class="st25"/>
			</g>
			<g id="group625-315" transform="translate(0,-10.0303)">
				<title>Sheet.625</title>
				<g id="shape626-316" transform="translate(369.258,219.195) rotate(63.6617)">
					<title>Sheet.626</title>
					<path d="M0 412.03 L11.19 412.03" class="st27"/>
				</g>
				<g id="shape627-319" transform="translate(-369.258,229.225) rotate(-63.6617)">
					<title>Sheet.627</title>
					<path d="M0 412.03 L11.19 412.03" class="st27"/>
				</g>
			</g>
		</g>
		<g id="group628-322" transform="translate(145.916,-142.799)">
			<title>Sheet.628</title>
			<g id="shape629-323" transform="translate(414.514,381.941) rotate(90)">
				<title>Sheet.629</title>
				<path d="M0 412.03 L24.49 412.03" class="st25"/>
			</g>
			<g id="group630-328" transform="translate(0,-10.0303)">
				<title>Sheet.630</title>
				<g id="shape631-329" transform="translate(369.258,219.195) rotate(63.6617)">
					<title>Sheet.631</title>
					<path d="M0 412.03 L11.19 412.03" class="st27"/>
				</g>
				<g id="shape632-332" transform="translate(-369.258,229.225) rotate(-63.6617)">
					<title>Sheet.632</title>
					<path d="M0 412.03 L11.19 412.03" class="st27"/>
				</g>
			</g>
		</g>
		<g id="group633-335" transform="translate(178.689,-142.799)">
			<title>Sheet.633</title>
			<g id="shape634-336" transform="translate(414.514,381.941) rotate(90)">
				<title>Sheet.634</title>
				<path d="M0 412.03 L24.49 412.03" class="st25"/>
			</g>
			<g id="group635-341" transform="translate(0,-10.0303)">
				<title>Sheet.635</title>
				<g id="shape636-342" transform="translate(369.258,219.195) rotate(63.6617)">
					<title>Sheet.636</title>
					<path d="M0 412.03 L11.19 412.03" class="st27"/>
				</g>
				<g id="shape637-345" transform="translate(-369.258,229.225) rotate(-63.6617)">
					<title>Sheet.637</title>
					<path d="M0 412.03 L11.19 412.03" class="st27"/>
				</g>
			</g>
		</g>
		<g id="group639-348" transform="translate(245.229,-142.165)">
			<title>Sheet.639</title>
			<g id="shape562-349" transform="translate(412.031,381.941) rotate(90)">
				<title>Sheet.562</title>
				<path d="M0 412.03 L24.49 412.03" class="st28"/>
			</g>
			<g id="shape563-355" transform="translate(420.763,380.673) rotate(90)">
				<title>Sheet.563</title>
				<path d="M5.24 412.03 L5.6 412.03 L31.18 412.03" class="st30"/>
			</g>
		</g>
		<g id="group640-361" transform="translate(501.858,-142.165)">
			<title>Sheet.640</title>
			<g id="shape641-362" transform="translate(412.031,381.941) rotate(90)">
				<title>Sheet.641</title>
				<path d="M0 412.03 L24.49 412.03" class="st28"/>
			</g>
			<g id="shape642-367" transform="translate(420.763,380.673) rotate(90)">
				<title>Sheet.642</title>
				<path d="M5.24 412.03 L5.6 412.03 L31.18 412.03" class="st30"/>
			</g>
		</g>
		<g id="group643-372" transform="translate(434.34,-142.799)">
			<title>Sheet.643</title>
			<g id="shape644-373" transform="translate(414.514,381.941) rotate(90)">
				<title>Sheet.644</title>
				<path d="M0 412.03 L24.49 412.03" class="st25"/>
			</g>
			<g id="group645-378" transform="translate(0,-10.0303)">
				<title>Sheet.645</title>
				<g id="shape646-379" transform="translate(369.258,219.195) rotate(63.6617)">
					<title>Sheet.646</title>
					<path d="M0 412.03 L11.19 412.03" class="st27"/>
				</g>
				<g id="shape647-382" transform="translate(-369.258,229.225) rotate(-63.6617)">
					<title>Sheet.647</title>
					<path d="M0 412.03 L11.19 412.03" class="st27"/>
				</g>
			</g>
		</g>
		<g id="group648-385" transform="translate(468.32,-142.799)">
			<title>Sheet.648</title>
			<g id="shape649-386" transform="translate(414.514,381.941) rotate(90)">
				<title>Sheet.649</title>
				<path d="M0 412.03 L24.49 412.03" class="st25"/>
			</g>
			<g id="group650-391" transform="translate(0,-10.0303)">
				<title>Sheet.650</title>
				<g id="shape651-392" transform="translate(369.258,219.195) rotate(63.6617)">
					<title>Sheet.651</title>
					<path d="M0 412.03 L11.19 412.03" class="st27"/>
				</g>
				<g id="shape652-395" transform="translate(-369.258,229.225) rotate(-63.6617)">
					<title>Sheet.652</title>
					<path d="M0 412.03 L11.19 412.03" class="st27"/>
				</g>
			</g>
		</g>
		<g id="shape653-398" transform="translate(75.8108,-75.8346)">
			<title>Dynamic connector</title>
			<path d="M7.09 422.23 L7.09 422.59 L7.09 454.27" class="st31"/>
		</g>
		<g id="shape655-404" transform="translate(148.143,-102.624)">
			<title>Rectangle.655</title>
			<desc>2</desc>
			<rect x="0" y="401.651" width="63.7855" height="10.3809" class="st14"/>
			<text x="29.87" y="409.24" class="st32">2</text>		</g>
		<g id="shape656-407" transform="translate(212.027,-102.679)">
			<title>Rectangle.656</title>
			<desc>0</desc>
			<rect x="0" y="401.759" width="63.7855" height="10.2721" class="st12"/>
			<text x="29.87" y="409.3" class="st33">0</text>		</g>
		<g id="shape657-410" transform="translate(275.911,-102.679)">
			<title>Rectangle.657</title>
			<desc>1</desc>
			<rect x="0" y="401.759" width="63.7855" height="10.2721" class="st8"/>
			<text x="29.87" y="409.3" class="st32">1</text>		</g>
		<g id="shape658-413" transform="translate(339.795,-102.679)">
			<title>Rectangle.658</title>
			<desc>2</desc>
			<rect x="0" y="401.759" width="64.0959" height="10.2721" class="st14"/>
			<text x="30.02" y="409.3" class="st32">2</text>		</g>
		<g id="shape659-416" transform="translate(403.99,-102.679)">
			<title>Rectangle.659</title>
			<desc>0</desc>
			<rect x="0" y="401.759" width="64.0959" height="10.2721" class="st34"/>
			<text x="30.02" y="409.3" class="st33">0</text>		</g>
		<g id="shape660-419" transform="translate(468.184,-102.679)">
			<title>Rectangle.660</title>
			<desc>1</desc>
			<rect x="0" y="401.759" width="64.0959" height="10.2721" class="st8"/>
			<text x="30.02" y="409.3" class="st32">1</text>		</g>
		<g id="shape661-422" transform="translate(85.682,-102.679)">
			<title>Rectangle.661</title>
			<desc>1</desc>
			<rect x="0" y="401.759" width="62.3622" height="10.2721" class="st8"/>
			<text x="29.15" y="409.3" class="st32">1</text>		</g>
		<g id="shape663-425" transform="translate(407.981,-102.182)">
			<title>Dynamic connector.663</title>
			<path d="M7.09 422.23 L7.09 422.59 L7.09 476.36" class="st31"/>
		</g>
		<g id="shape665-430" transform="translate(149.033,-119.715)">
			<title>Rectangle.665</title>
			<desc>Listen</desc>
			<rect x="0" y="400.371" width="62.7906" height="11.6602" class="st12"/>
			<text x="19.4" y="409.2" class="st13">Listen</text>		</g>
		<g id="shape666-433" transform="translate(276.956,-119.709)">
			<title>Rectangle.666</title>
			<desc>Listen</desc>
			<rect x="0" y="400.371" width="62.7906" height="11.6602" class="st12"/>
			<text x="19.4" y="409.2" class="st13">Listen</text>		</g>
		<g id="shape667-436" transform="translate(340.894,-119.715)">
			<title>Rectangle.667</title>
			<desc>Listen</desc>
			<rect x="0" y="400.371" width="62.7906" height="11.6602" class="st12"/>
			<text x="19.4" y="409.2" class="st13">Listen</text>		</g>
		<g id="shape668-439" transform="translate(404.847,-119.715)">
			<title>Rectangle.668</title>
			<desc>Listen</desc>
			<rect x="0" y="400.371" width="62.7906" height="11.6602" class="st12"/>
			<text x="19.4" y="409.2" class="st13">Listen</text>		</g>
		<g id="shape675-442" transform="translate(247.669,-192.615)">
			<title>Dynamic connector.675</title>
			<path d="M6.96 401.83 L6.96 401.47 L7.24 304.59" class="st31"/>
		</g>
		<g id="shape676-447" transform="translate(212.725,-300.055)">
			<title>Rectangle.676</title>
			<desc>Device and Host channels match on channel index 0. The transm...</desc>
			<rect x="0" y="378.016" width="123.473" height="34.0157" class="st4"/>
			<text x="9.76" y="386.02" class="st13">Device and Host channels <tspan x="8.27" dy="1.2em" class="st16">match on channel index 0</tspan>. <tspan
						x="6.43" dy="1.2em" class="st16">The transmission succeeds.</tspan></text>		</g>
		<g id="shape521-452" transform="translate(144.022,-369.73)">
			<title>Rectangle.140</title>
			<desc>When out of sync: timeslots_per_channel = 6</desc>
			<rect x="0" y="381.941" width="116.896" height="30.0909" class="st4"/>
			<text x="21.47" y="393.99" class="st13">When out of sync: <tspan x="4.62" dy="1.2em" class="st16">timeslots_per_channel = 6 </tspan></text>		</g>
		<g id="shape674-456" transform="translate(209.556,-204.199)">
			<title>Dynamic connector.674</title>
			<path d="M-7.09 401.83 L-7.09 401.47 L-7.09 246.5" class="st31"/>
		</g>
		<g id="shape523-461" transform="translate(294.258,-369.73)">
			<title>Rectangle.142</title>
			<desc>When in sync: timeslots_per_channel = 2</desc>
			<rect x="0" y="381.941" width="116.896" height="30.0909" class="st4"/>
			<text x="29.92" y="393.99" class="st13">When in sync: <tspan x="4.62" dy="1.2em" class="st16">timeslots_per_channel = 2 </tspan></text>		</g>
		<g id="shape678-465" transform="translate(359.792,-204.199)">
			<title>Dynamic connector.678</title>
			<path d="M-7.09 401.83 L-7.09 401.47 L-7.09 246.5" class="st31"/>
		</g>
		<g id="shape681-470" transform="translate(434.533,-192.601)">
			<title>Dynamic connector.681</title>
			<path d="M7.09 401.83 L7.09 401.47 L7.09 305.79" class="st31"/>
		</g>
		<g id="shape682-475" transform="translate(498.466,-192.615)">
			<title>Dynamic connector.682</title>
			<path d="M7.09 401.83 L7.09 401.47 L7.09 237.6" class="st31"/>
		</g>
		<g id="shape684-480" transform="translate(32.6601,-300.055)">
			<title>Rectangle.684</title>
			<desc>Host channels are mismatched. The initial packet and 4 subseq...</desc>
			<rect x="0" y="378.016" width="159.436" height="34.0157" class="st4"/>
			<text x="16.06" y="386.02" class="st13">Host channels are mismatched. <tspan x="7.78" dy="1.2em" class="st16">The initial packet and 4 subsequent </tspan><tspan
						x="21.4" dy="1.2em" class="st16">retransmission attempts fail.</tspan></text>		</g>
		<g id="shape687-485" transform="translate(142.129,-245.709)">
			<title>Rectangle.687</title>
			<desc>Timeslot</desc>
			<rect x="0" y="403.817" width="36.1511" height="8.21426" class="st4"/>
			<text x="4.09" y="410.32" class="st33">Timeslot</text>		</g>
		<g id="shape689-488" transform="translate(147.194,-67.6142)">
			<title>Rectangle.689</title>
			<desc>Timeslot</desc>
			<rect x="0" y="403.817" width="36.1511" height="8.21426" class="st4"/>
			<text x="4.09" y="410.32" class="st33">Timeslot</text>		</g>
		<g id="shape690-491" transform="translate(147.477,-51.448)">
			<title>Rectangle.690</title>
			<desc>GZLL_RX_PERIOD</desc>
			<rect x="0" y="403.817" width="64.9627" height="8.21426" class="st4"/>
			<text x="4.18" y="410.32" class="st33">GZLL_RX_PERIOD</text>		</g>
		<g id="shape692-494" transform="translate(90.5009,-299.906)">
			<title>Dynamic connector.692</title>
			<path d="M7.09 412.03 L7.09 445.26" class="st35"/>
		</g>
		<g id="shape693-500" transform="translate(97.5875,-281.63)">
			<title>Dynamic connector.693</title>
			<path d="M0 412.03 L90.71 412.03 L90.71 426.98" class="st35"/>
		</g>
	</g>
</svg>
