<?xml version="1.0" encoding="UTF-8" standalone="no"?>
<!DOCTYPE svg PUBLIC "-//W3C//DTD SVG 1.1//EN" "http://www.w3.org/Graphics/SVG/1.1/DTD/svg11.dtd">
<!-- Generated by Microsoft Visio, SVG Export gzll_fig4_device_channel_switch.svg Page-1 -->
<svg xmlns="http://www.w3.org/2000/svg" xmlns:xlink="http://www.w3.org/1999/xlink" xmlns:ev="http://www.w3.org/2001/xml-events"
		width="7.08994in" height="3.04353in" viewBox="0 0 510.476 219.134" xml:space="preserve" color-interpolation-filters="sRGB"
		class="st17">
	<style type="text/css">
	<![CDATA[
		.st1 {stroke:#333f48;stroke-dasharray:1,2;stroke-linecap:butt;stroke-width:1}
		.st2 {stroke:#333f48;stroke-linecap:butt;stroke-width:1}
		.st3 {fill:none;stroke:none;stroke-width:1}
		.st4 {fill:#333f48;font-family:Calibri;font-size:0.833336em}
		.st5 {font-size:1em}
		.st6 {marker-end:url(#mrkr4-34);marker-start:url(#mrkr13-32);stroke:#333f48;stroke-linecap:butt;stroke-width:1}
		.st7 {fill:#333f48;fill-opacity:1;stroke:#333f48;stroke-opacity:1;stroke-width:0.35714285714286}
		.st8 {fill:#ffffff;stroke:none;stroke-linecap:butt;stroke-width:7.2}
		.st9 {marker-end:url(#mrkr4-34);marker-start:url(#mrkr4-43);stroke:#333f48;stroke-linecap:butt;stroke-width:1}
		.st10 {fill:#00a9ce;stroke:none;stroke-width:1}
		.st11 {fill:#ffffff;font-family:Calibri;font-size:0.833336em}
		.st12 {fill:#d9e1e2;stroke:none;stroke-width:1}
		.st13 {fill:#768692;stroke:none;stroke-width:1}
		.st14 {fill:#feffff;font-family:Calibri;font-size:0.833336em}
		.st15 {marker-end:url(#mrkr13-115);stroke:#333f48;stroke-dasharray:8,4;stroke-linecap:butt;stroke-width:1}
		.st16 {fill:#333f48;fill-opacity:1;stroke:#333f48;stroke-opacity:1;stroke-width:0.28409090909091}
		.st17 {fill:none;fill-rule:evenodd;font-size:12px;overflow:visible;stroke-linecap:square;stroke-miterlimit:3}
	]]>
	</style>

	<defs id="Markers">
		<g id="lend13">
			<path d="M 3 1 L 0 0 L 3 -1 L 3 1 " style="stroke:none"/>
		</g>
		<marker id="mrkr13-32" class="st7" refX="8.04" orient="auto" markerUnits="strokeWidth" overflow="visible">
			<use xlink:href="#lend13" transform="scale(2.8) "/>
		</marker>
		<g id="lend4">
			<path d="M 2 1 L 0 0 L 2 -1 L 2 1 " style="stroke:none"/>
		</g>
		<marker id="mrkr4-34" class="st7" refX="-5.6" orient="auto" markerUnits="strokeWidth" overflow="visible">
			<use xlink:href="#lend4" transform="scale(-2.8,-2.8) "/>
		</marker>
		<marker id="mrkr4-43" class="st7" refX="5.24" orient="auto" markerUnits="strokeWidth" overflow="visible">
			<use xlink:href="#lend4" transform="scale(2.8) "/>
		</marker>
		<marker id="mrkr13-115" class="st16" refX="-10.56" orient="auto" markerUnits="strokeWidth" overflow="visible">
			<use xlink:href="#lend13" transform="scale(-3.52,-3.52) "/>
		</marker>
	</defs>
	<g>
		<title>Page-1</title>
		<g id="shape207-1" transform="translate(-40.7007,217.85) rotate(-90)">
			<title>Sheet.207</title>
			<path d="M0 219.13 L144.64 219.13" class="st1"/>
		</g>
		<g id="shape208-4" transform="translate(-166.21,217.85) rotate(-90)">
			<title>Sheet.208</title>
			<path d="M0 219.13 L144.64 219.13" class="st1"/>
		</g>
		<g id="shape214-7" transform="translate(210.318,218.134) rotate(-90)">
			<title>Sheet.214</title>
			<path d="M0 219.13 L144.92 219.13" class="st1"/>
		</g>
		<g id="shape215-10" transform="translate(84.8088,215.793) rotate(-90)">
			<title>Sheet.215</title>
			<path d="M0 219.13 L142.58 219.13" class="st1"/>
		</g>
		<g id="shape205-13" transform="translate(1,-80.66)">
			<title>Sheet.205</title>
			<path d="M0 219.13 L507.06 219.13" class="st2"/>
		</g>
		<g id="shape206-16" transform="translate(1,-80.66)">
			<title>Sheet.206</title>
			<desc>Device operation</desc>
			<rect x="0" y="190.894" width="55.4546" height="28.2396" class="st3"/>
			<text x="4" y="202.01" class="st4">Device <tspan x="4" dy="1.2em" class="st5">operation</tspan></text>		</g>
		<g id="shape209-20" transform="translate(2.41732,-130.236)">
			<title>Sheet.209</title>
			<path d="M0 219.13 L507.06 219.13" class="st2"/>
		</g>
		<g id="shape210-23" transform="translate(1,-132.119)">
			<title>Sheet.210</title>
			<desc>Heartbeat</desc>
			<rect x="0" y="207.838" width="50.4342" height="11.2959" class="st3"/>
			<text x="4.62" y="216.49" class="st4">Heartbeat</text>		</g>
		<g id="shape211-26" transform="translate(52.5004,-138.376) rotate(0.00304306)">
			<title>Sheet.211</title>
			<desc>Timeslot</desc>
			<path d="M8.04 219.13 L8.4 219.13 L120.41 219.13" class="st6"/>
			<rect x="45.5251" y="213.134" width="34.9615" height="12.0001" class="st8"/>
			<text x="45.53" y="222.13" class="st4">Timeslot</text>		</g>
		<g id="shape212-37" transform="translate(178.545,-138.394) rotate(0.00304306)">
			<title>Sheet.212</title>
			<desc>Timeslot</desc>
			<path d="M5.24 219.13 L5.6 219.13 L120.41 219.13" class="st9"/>
			<rect x="45.5251" y="213.134" width="34.9615" height="12.0001" class="st8"/>
			<text x="45.53" y="222.13" class="st4">Timeslot</text>		</g>
		<g id="shape213-47" transform="translate(304.557,-138.388) rotate(0.00304306)">
			<title>Sheet.213</title>
			<desc>Timeslot</desc>
			<path d="M5.24 219.13 L5.6 219.13 L120.41 219.13" class="st9"/>
			<rect x="45.5251" y="213.134" width="34.9615" height="12.0001" class="st8"/>
			<text x="45.53" y="222.13" class="st4">Timeslot</text>		</g>
		<g id="group230-56" transform="translate(53.1553,-81.1183)">
			<title>Sheet.230</title>
			<g id="shape197-57">
				<title>Rectangle</title>
				<desc>Send packet</desc>
				<rect x="0" y="190.894" width="39.1496" height="28.2396" class="st10"/>
				<text x="9.54" y="202.01" class="st11">Send <tspan x="6" dy="1.2em" class="st5">packet</tspan></text>			</g>
			<g id="shape198-61" transform="translate(39.1496,0)">
				<title>Rectangle.2</title>
				<desc>Wait for ACK</desc>
				<rect x="0" y="190.894" width="39.1496" height="28.2396" class="st12"/>
				<text x="9.91" y="202.01" class="st4">Wait <tspan x="4.38" dy="1.2em" class="st5">for ACK</tspan></text>			</g>
		</g>
		<g id="group231-65" transform="translate(178.69,-81.1183)">
			<title>Sheet.231</title>
			<g id="shape232-66">
				<title>Rectangle</title>
				<desc>Send packet</desc>
				<rect x="0" y="190.894" width="39.1496" height="28.2396" class="st10"/>
				<text x="9.54" y="202.01" class="st11">Send <tspan x="6" dy="1.2em" class="st5">packet</tspan></text>			</g>
			<g id="shape233-70" transform="translate(39.1496,0)">
				<title>Rectangle.2</title>
				<desc>Wait for ACK</desc>
				<rect x="0" y="190.894" width="39.1496" height="28.2396" class="st12"/>
				<text x="9.91" y="202.01" class="st4">Wait <tspan x="4.38" dy="1.2em" class="st5">for ACK</tspan></text>			</g>
		</g>
		<g id="group234-74" transform="translate(304.225,-81.1183)">
			<title>Sheet.234</title>
			<g id="shape235-75">
				<title>Rectangle</title>
				<desc>Send packet</desc>
				<rect x="0" y="190.894" width="39.1496" height="28.2396" class="st10"/>
				<text x="9.54" y="202.01" class="st11">Send <tspan x="6" dy="1.2em" class="st5">packet</tspan></text>			</g>
			<g id="shape236-79" transform="translate(39.1496,0)">
				<title>Rectangle.2</title>
				<desc>Wait for ACK</desc>
				<rect x="0" y="190.894" width="39.1496" height="28.2396" class="st12"/>
				<text x="9.91" y="202.01" class="st4">Wait <tspan x="4.38" dy="1.2em" class="st5">for ACK</tspan></text>			</g>
		</g>
		<g id="group237-83" transform="translate(429.759,-81.1183)">
			<title>Sheet.237</title>
			<g id="shape238-84">
				<title>Rectangle</title>
				<desc>Send packet</desc>
				<rect x="0" y="190.894" width="39.1496" height="28.2396" class="st10"/>
				<text x="9.54" y="202.01" class="st11">Send <tspan x="6" dy="1.2em" class="st5">packet</tspan></text>			</g>
			<g id="shape239-88" transform="translate(39.1496,0)">
				<title>Rectangle.2</title>
				<desc>Wait for ACK</desc>
				<rect x="0" y="190.894" width="39.1496" height="28.2396" class="st12"/>
				<text x="9.91" y="202.01" class="st4">Wait <tspan x="4.38" dy="1.2em" class="st5">for ACK</tspan></text>			</g>
		</g>
		<g id="shape261-92" transform="translate(53.4419,-24.7401)">
			<title>Rectangle.27</title>
			<desc>0</desc>
			<rect x="0" y="187.244" width="249.672" height="31.8898" class="st13"/>
			<text x="127.95" y="206.19" class="st11">0</text>		</g>
		<g id="shape262-95" transform="translate(304.821,-24.7401)">
			<title>Rectangle.28</title>
			<desc>1</desc>
			<rect x="0" y="187.244" width="203.513" height="31.8898" class="st13"/>
			<text x="99.22" y="206.19" class="st14">1</text>		</g>
		<g id="shape263-98" transform="translate(1,-24.6391)">
			<title>Sheet.263</title>
			<desc>Channel table index</desc>
			<rect x="0" y="190.894" width="55.4546" height="28.2396" class="st3"/>
			<text x="4" y="202.01" class="st4">Channel <tspan x="4" dy="1.2em" class="st5">table index</tspan></text>		</g>
		<g id="shape288-102" transform="translate(53.1553,-181.283)">
			<title>Rectangle.288</title>
			<desc>These two packets are sent on RF channel given by channel_tab...</desc>
			<rect x="0" y="182.283" width="156.917" height="36.8504" class="st3"/>
			<text x="10.62" y="197.71" class="st4">These two packets are sent on RF <tspan x="8.83" dy="1.2em" class="st5">channel given by channel_table[0]</tspan></text>		</g>
		<g id="shape289-106" transform="translate(304.225,-181.283)">
			<title>Rectangle.289</title>
			<desc>These two packets are sent on RF channel given by channel_tab...</desc>
			<rect x="0" y="182.283" width="156.917" height="36.8504" class="st3"/>
			<text x="10.62" y="197.71" class="st4">These two packets are sent on RF <tspan x="8.83" dy="1.2em" class="st5">channel given by channel_table[1]</tspan></text>		</g>
		<g id="shape290-110" transform="translate(131.614,-181.283)">
			<title>Dynamic connector</title>
			<path d="M0 219.13 L0 233.31 L-58.88 233.31 L-58.88 280.5" class="st15"/>
		</g>
		<g id="shape291-116" transform="translate(131.614,-181.283)">
			<title>Dynamic connector.291</title>
			<path d="M0 219.13 L0 233.31 L66.65 233.31 L66.65 280.5" class="st15"/>
		</g>
		<g id="shape292-121" transform="translate(382.683,-181.283)">
			<title>Dynamic connector.292</title>
			<path d="M0 219.13 L0 238.14 L-58.88 238.14 L-58.88 280.5" class="st15"/>
		</g>
		<g id="shape293-126" transform="translate(382.683,-181.283)">
			<title>Dynamic connector.293</title>
			<path d="M0 219.13 L0 238.14 L66.65 238.14 L66.65 280.5" class="st15"/>
		</g>
		<g id="shape294-131" transform="translate(0.956359,-24.6391) rotate(-0.0114107)">
			<title>Sheet.294</title>
			<path d="M0 219.13 L507.33 219.13" class="st2"/>
		</g>
	</g>
</svg>
