<?xml version="1.0" encoding="UTF-8" standalone="no"?>
<!DOCTYPE svg PUBLIC "-//W3C//DTD SVG 1.1//EN" "http://www.w3.org/Graphics/SVG/1.1/DTD/svg11.dtd">
<!-- Generated by Microsoft Visio, SVG Export gzll_fig2_device_heartbeat.svg Page-1 -->
<svg xmlns="http://www.w3.org/2000/svg" xmlns:xlink="http://www.w3.org/1999/xlink" xmlns:ev="http://www.w3.org/2001/xml-events"
		width="7.15967in" height="2.27818in" viewBox="0 0 515.496 164.029" xml:space="preserve" color-interpolation-filters="sRGB"
		class="st15">
	<style type="text/css">
	<![CDATA[
		.st1 {stroke:#333f48;stroke-linecap:butt;stroke-width:1}
		.st2 {fill:none;stroke:none;stroke-width:1}
		.st3 {fill:#333f48;font-family:Calibri;font-size:0.833336em}
		.st4 {font-size:1em}
		.st5 {stroke:#333f48;stroke-dasharray:1,2;stroke-linecap:butt;stroke-width:1}
		.st6 {marker-end:url(#mrkr4-28);marker-start:url(#mrkr13-26);stroke:#333f48;stroke-linecap:butt;stroke-width:1}
		.st7 {fill:#333f48;fill-opacity:1;stroke:#333f48;stroke-opacity:1;stroke-width:0.35714285714286}
		.st8 {fill:#ffffff;stroke:none;stroke-linecap:butt;stroke-width:7.2}
		.st9 {marker-end:url(#mrkr4-28);marker-start:url(#mrkr4-37);stroke:#333f48;stroke-linecap:butt;stroke-width:1}
		.st10 {marker-start:url(#mrkr13-65);stroke:#333f48;stroke-dasharray:8,4;stroke-linecap:butt;stroke-width:1}
		.st11 {fill:#333f48;fill-opacity:1;stroke:#333f48;stroke-opacity:1;stroke-width:0.28409090909091}
		.st12 {fill:#00a9ce;stroke:none;stroke-width:1}
		.st13 {fill:#ffffff;font-family:Calibri;font-size:0.833336em}
		.st14 {fill:#d9e1e2;stroke:none;stroke-width:1}
		.st15 {fill:none;fill-rule:evenodd;font-size:12px;overflow:visible;stroke-linecap:square;stroke-miterlimit:3}
	]]>
	</style>

	<defs id="Markers">
		<g id="lend13">
			<path d="M 3 1 L 0 0 L 3 -1 L 3 1 " style="stroke:none"/>
		</g>
		<marker id="mrkr13-26" class="st7" refX="8.04" orient="auto" markerUnits="strokeWidth" overflow="visible">
			<use xlink:href="#lend13" transform="scale(2.8) "/>
		</marker>
		<g id="lend4">
			<path d="M 2 1 L 0 0 L 2 -1 L 2 1 " style="stroke:none"/>
		</g>
		<marker id="mrkr4-28" class="st7" refX="-5.6" orient="auto" markerUnits="strokeWidth" overflow="visible">
			<use xlink:href="#lend4" transform="scale(-2.8,-2.8) "/>
		</marker>
		<marker id="mrkr4-37" class="st7" refX="5.24" orient="auto" markerUnits="strokeWidth" overflow="visible">
			<use xlink:href="#lend4" transform="scale(2.8) "/>
		</marker>
		<marker id="mrkr13-65" class="st11" refX="10.2" orient="auto" markerUnits="strokeWidth" overflow="visible">
			<use xlink:href="#lend13" transform="scale(3.52) "/>
		</marker>
	</defs>
	<g>
		<title>Page-1</title>
		<g id="shape205-1" transform="translate(6.02038,-97.4589)">
			<title>Sheet.205</title>
			<path d="M0 164.03 L507.06 164.03" class="st1"/>
		</g>
		<g id="shape206-4" transform="translate(4.08081,-97.4589)">
			<title>Sheet.206</title>
			<desc>Device operation</desc>
			<rect x="0" y="135.789" width="55.4546" height="28.2396" class="st2"/>
			<text x="4" y="146.91" class="st3">Device <tspan x="4" dy="1.2em" class="st4">operation</tspan></text>		</g>
		<g id="shape207-8" transform="translate(19.4246,76.6108) rotate(-90)">
			<title>Sheet.207</title>
			<path d="M0 164.03 L75.31 164.03" class="st5"/>
		</g>
		<g id="shape208-11" transform="translate(-106.085,76.6108) rotate(-90)">
			<title>Sheet.208</title>
			<path d="M0 164.03 L75.31 164.03" class="st5"/>
		</g>
		<g id="shape209-14" transform="translate(7.4377,-147.035)">
			<title>Sheet.209</title>
			<path d="M0 164.03 L507.06 164.03" class="st1"/>
		</g>
		<g id="shape210-17" transform="translate(1,-148.918)">
			<title>Sheet.210</title>
			<desc>Heartbeat</desc>
			<rect x="0" y="152.733" width="55.4546" height="11.2959" class="st2"/>
			<text x="7.13" y="161.38" class="st3">Heartbeat</text>		</g>
		<g id="shape211-20" transform="translate(57.5179,-155.175) rotate(0.00304306)">
			<title>Sheet.211</title>
			<desc>Timeslot</desc>
			<path d="M8.04 164.03 L8.4 164.03 L120.41 164.03" class="st6"/>
			<rect x="45.5251" y="158.029" width="34.9615" height="12.0001" class="st8"/>
			<text x="45.53" y="167.03" class="st3">Timeslot</text>		</g>
		<g id="shape212-31" transform="translate(183.563,-155.193) rotate(0.00304306)">
			<title>Sheet.212</title>
			<desc>Timeslot</desc>
			<path d="M5.24 164.03 L5.6 164.03 L120.41 164.03" class="st9"/>
			<rect x="45.5251" y="158.029" width="34.9615" height="12.0001" class="st8"/>
			<text x="45.53" y="167.03" class="st3">Timeslot</text>		</g>
		<g id="shape213-41" transform="translate(309.574,-155.187) rotate(0.00304306)">
			<title>Sheet.213</title>
			<desc>Timeslot</desc>
			<path d="M5.24 164.03 L5.6 164.03 L120.41 164.03" class="st9"/>
			<rect x="45.5251" y="158.029" width="34.9615" height="12.0001" class="st8"/>
			<text x="45.53" y="167.03" class="st3">Timeslot</text>		</g>
		<g id="shape214-50" transform="translate(270.444,76.6108) rotate(-90)">
			<title>Sheet.214</title>
			<path d="M0 164.03 L75.31 164.03" class="st5"/>
		</g>
		<g id="shape215-53" transform="translate(144.934,76.6108) rotate(-90)">
			<title>Sheet.215</title>
			<path d="M0 164.03 L75.31 164.03" class="st5"/>
		</g>
		<g id="shape216-56" transform="translate(176.827,-1)">
			<title>Rectangle.21</title>
			<desc>Device packets are always sent synchronously to heartbeat</desc>
			<rect x="0" y="119.029" width="138.898" height="45" class="st2"/>
			<text x="6.73" y="138.53" class="st3">Device packets are always sent <tspan x="13.54" dy="1.2em" class="st4">synchronously to heartbeat </tspan></text>		</g>
		<g id="shape225-60" transform="translate(57.944,-87.4181)">
			<title>Dynamic connector.225</title>
			<path d="M0 174.23 L0 174.59 L0 227.95 L118.88 227.95" class="st10"/>
		</g>
		<g id="shape226-66" transform="translate(183.454,-87.4181)">
			<title>Dynamic connector.226</title>
			<path d="M0 174.23 L0 174.59 L0 193.23 L62.82 193.23 L62.82 205.45" class="st10"/>
		</g>
		<g id="shape227-71" transform="translate(308.963,-87.4181)">
			<title>Dynamic connector.227</title>
			<path d="M0 174.23 L0 174.59 L0 193.23 L-62.69 193.23 L-62.69 205.45" class="st10"/>
		</g>
		<g id="shape228-76" transform="translate(434.473,-87.4181)">
			<title>Dynamic connector.228</title>
			<path d="M0 174.23 L0 174.59 L0 227.95 L-118.75 227.95" class="st10"/>
		</g>
		<g id="group230-81" transform="translate(58.1757,-97.9173)">
			<title>Sheet.230</title>
			<g id="shape197-82">
				<title>Rectangle</title>
				<desc>Send packet</desc>
				<rect x="0" y="135.789" width="39.1496" height="28.2396" class="st12"/>
				<text x="9.54" y="146.91" class="st13">Send <tspan x="6" dy="1.2em" class="st4">packet</tspan></text>			</g>
			<g id="shape198-86" transform="translate(39.1496,0)">
				<title>Rectangle.2</title>
				<desc>Wait for ACK</desc>
				<rect x="0" y="135.789" width="39.1496" height="28.2396" class="st14"/>
				<text x="9.91" y="146.91" class="st3">Wait <tspan x="4.38" dy="1.2em" class="st4">for ACK</tspan></text>			</g>
		</g>
		<g id="group231-90" transform="translate(183.71,-97.9173)">
			<title>Sheet.231</title>
			<g id="shape232-91">
				<title>Rectangle</title>
				<desc>Send packet</desc>
				<rect x="0" y="135.789" width="39.1496" height="28.2396" class="st12"/>
				<text x="9.54" y="146.91" class="st13">Send <tspan x="6" dy="1.2em" class="st4">packet</tspan></text>			</g>
			<g id="shape233-95" transform="translate(39.1496,0)">
				<title>Rectangle.2</title>
				<desc>Wait for ACK</desc>
				<rect x="0" y="135.789" width="39.1496" height="28.2396" class="st14"/>
				<text x="9.91" y="146.91" class="st3">Wait <tspan x="4.38" dy="1.2em" class="st4">for ACK</tspan></text>			</g>
		</g>
		<g id="group234-99" transform="translate(309.245,-97.9173)">
			<title>Sheet.234</title>
			<g id="shape235-100">
				<title>Rectangle</title>
				<desc>Send packet</desc>
				<rect x="0" y="135.789" width="39.1496" height="28.2396" class="st12"/>
				<text x="9.54" y="146.91" class="st13">Send <tspan x="6" dy="1.2em" class="st4">packet</tspan></text>			</g>
			<g id="shape236-104" transform="translate(39.1496,0)">
				<title>Rectangle.2</title>
				<desc>Wait for ACK</desc>
				<rect x="0" y="135.789" width="39.1496" height="28.2396" class="st14"/>
				<text x="9.91" y="146.91" class="st3">Wait <tspan x="4.38" dy="1.2em" class="st4">for ACK</tspan></text>			</g>
		</g>
		<g id="group237-108" transform="translate(434.78,-97.9173)">
			<title>Sheet.237</title>
			<g id="shape238-109">
				<title>Rectangle</title>
				<desc>Send packet</desc>
				<rect x="0" y="135.789" width="39.1496" height="28.2396" class="st12"/>
				<text x="9.54" y="146.91" class="st13">Send <tspan x="6" dy="1.2em" class="st4">packet</tspan></text>			</g>
			<g id="shape239-113" transform="translate(39.1496,0)">
				<title>Rectangle.2</title>
				<desc>Wait for ACK</desc>
				<rect x="0" y="135.789" width="39.1496" height="28.2396" class="st14"/>
				<text x="9.91" y="146.91" class="st3">Wait <tspan x="4.38" dy="1.2em" class="st4">for ACK</tspan></text>			</g>
		</g>
	</g>
</svg>
