<?xml version="1.0" encoding="UTF-8" standalone="no"?>
<!DOCTYPE svg PUBLIC "-//W3C//DTD SVG 1.1//EN" "http://www.w3.org/Graphics/SVG/1.1/DTD/svg11.dtd">
<!-- Generated by Microsoft Visio, SVG Export ant_diversity_interface.svg Page-1 -->
<svg xmlns="http://www.w3.org/2000/svg" xmlns:xlink="http://www.w3.org/1999/xlink" xmlns:ev="http://www.w3.org/2001/xml-events"
		width="7.1665in" height="3.43127in" viewBox="0 0 515.988 247.051" xml:space="preserve" color-interpolation-filters="sRGB"
		class="st7">
	<style type="text/css">
	<![CDATA[
		.st1 {fill:none}
		.st2 {stroke:#000000;stroke-linecap:butt;stroke-width:0.75}
		.st3 {fill:none;stroke:none;stroke-linecap:butt;stroke-width:0.75}
		.st4 {fill:#000000;font-family:Arial;font-size:1.00001em}
		.st5 {fill:#ffffff;stroke:#000000;stroke-linecap:butt;stroke-width:0.75}
		.st6 {fill:#000000;stroke:#000000;stroke-linecap:butt;stroke-width:0.75}
		.st7 {fill:none;fill-rule:evenodd;font-size:12px;overflow:visible;stroke-linecap:square;stroke-miterlimit:3}
	]]>
	</style>

	<g>
		<title>Page-1</title>
		<g id="shape89-1" transform="translate(234.608,-164.451)">
			<title>Sheet.89</title>
			<path d="M0 247.05 L126.28 247.05 L0 247.05 Z" class="st1"/>
			<path d="M0 247.05 L126.28 247.05" class="st2"/>
		</g>
		<g id="shape90-4" transform="translate(280.172,-168.426)">
			<title>Sheet.90</title>
			<desc>RF</desc>
			<rect x="0" y="230.213" width="28.1409" height="16.8378" class="st3"/>
			<text x="6.07" y="242.23" class="st4">RF</text>		</g>
		<g id="shape91-7" transform="translate(234.608,-70.9075)">
			<title>Sheet.91</title>
			<path d="M0 247.05 L173.06 247.05 L173.06 229.51 L0 247.05 Z" class="st1"/>
			<path d="M0 247.05 L173.06 247.05 L173.06 229.51" class="st2"/>
		</g>
		<g id="shape92-10" transform="translate(245.093,-74.8831)">
			<title>Sheet.92</title>
			<desc>ANT_SEL</desc>
			<rect x="0" y="230.213" width="98.2984" height="16.8378" class="st3"/>
			<text x="22.47" y="242.23" class="st4">ANT_SEL</text>		</g>
		<g id="shape93-13" transform="translate(12.4429,-12.4429)">
			<title>Sheet.93</title>
			<desc>nRF SoC</desc>
			<path d="M5.85 36.58 L204.63 36.58 L210.47 42.43 L210.47 241.2 L204.63 247.05 L5.85 247.05 L0 241.2 L0 42.43 L5.85 36.58
						 Z" class="st5"/>
			<text x="80.56" y="145.42" class="st4">nRF SoC</text>		</g>
		<g id="shape94-16" transform="translate(0.75,-0.75)">
			<title>Sheet.94</title>
			<path d="M0 83.35 L11.69 83.35 L0 83.35 ZM222.17 83.35 L233.86 83.35 L222.17 83.35 ZM0 176.89 L11.69 176.89 L0 176.89
						 ZM222.17 176.89 L233.86 176.89 L222.17 176.89 ZM70.16 13.19 L70.16 24.89 L70.16 13.19 ZM70.16 235.36 L70.16
						 247.05 L70.16 235.36 ZM163.7 13.19 L163.7 24.89 L163.7 13.19 ZM163.7 235.36 L163.7 247.05 L163.7 235.36
						 Z" class="st1"/>
			<path d="M0 83.35 L11.69 83.35M222.17 83.35 L233.86 83.35M0 176.89 L11.69 176.89M222.17 176.89 L233.86 176.89M70.16 13.19
						 L70.16 24.89M70.16 235.36 L70.16 247.05M163.7 13.19 L163.7 24.89M163.7 235.36 L163.7 247.05" class="st2"/>
		</g>
		<g id="shape95-19" transform="translate(205.376,-18.2894)">
			<title>Sheet.95</title>
			<ellipse cx="5.84646" cy="241.205" rx="5.84646" ry="5.84646" class="st6"/>
		</g>
		<g id="shape97-21" transform="translate(454.435,-134.049)">
			<title>Sheet.97</title>
			<path d="M0 247.05 L43.26 247.05 L43.26 245.88 L0 247.05 Z" class="st1"/>
			<path d="M0 247.05 L43.26 247.05 L43.26 245.88" class="st2"/>
		</g>
		<g id="shape98-24" transform="translate(454.435,-194.852)">
			<title>Sheet.98</title>
			<path d="M0 247.05 L43.26 247.05 L43.26 242.37 L0 247.05 Z" class="st1"/>
			<path d="M0 247.05 L43.26 247.05 L43.26 242.37" class="st2"/>
		</g>
		<g id="shape99-27" transform="translate(372.585,-100.14)">
			<title>Sheet.99</title>
			<desc>FEM</desc>
			<path d="M70.16 118.43 L0 132.46 L0 233.02 L70.16 247.05 L70.16 118.43 Z" class="st5"/>
			<text x="22.41" y="186.34" class="st4">FEM</text>		</g>
		<g id="shape100-30" transform="translate(433.972,-189.824)">
			<title>Sheet.100</title>
			<desc>0</desc>
			<rect x="0" y="238.632" width="7.01575" height="8.4189" class="st3"/>
			<text x="0.17" y="246.44" class="st4">0</text>		</g>
		<g id="shape101-33" transform="translate(433.972,-129.021)">
			<title>Sheet.101</title>
			<desc>1</desc>
			<rect x="0" y="238.632" width="7.01575" height="8.4189" class="st3"/>
			<text x="0.17" y="246.44" class="st4">1</text>		</g>
		<g id="shape102-36" transform="translate(405.909,-89.2654)">
			<title>Sheet.102</title>
			<desc>S0</desc>
			<rect x="0" y="238.632" width="22.8402" height="8.4189" class="st3"/>
			<text x="4.08" y="246.44" class="st4">S0</text>		</g>
		<g id="shape103-39" transform="translate(360.892,-88.4468)">
			<title>Sheet.103</title>
			<path d="M0 171.05 L11.69 171.05 L0 171.05 ZM81.85 140.65 L93.54 140.65 L81.85 140.65 ZM81.85 201.45 L93.54 201.45 L81.85
						 201.45 ZM46.77 228.34 L46.77 247.05 L46.77 228.34 Z" class="st1"/>
			<path d="M0 171.05 L11.69 171.05M81.85 140.65 L93.54 140.65M81.85 201.45 L93.54 201.45M46.77 228.34 L46.77 247.05"
					class="st2"/>
		</g>
		<g id="shape105-42" transform="translate(480.159,-199.53)">
			<title>Sheet.105</title>
			<path d="M0 200.28 L17.54 218.99 L35.08 200.28 L0 200.28 ZM17.54 200.28 L17.54 247.05 L17.54 200.28 Z" class="st1"/>
			<path d="M0 200.28 L17.54 218.99 L35.08 200.28M17.54 200.28 L17.54 247.05" class="st2"/>
		</g>
		<g id="shape106-45" transform="translate(480.159,-135.219)">
			<title>Sheet.106</title>
			<path d="M0 200.28 L17.54 218.99 L35.08 200.28 L0 200.28 ZM17.54 200.28 L17.54 247.05 L17.54 200.28 Z" class="st1"/>
			<path d="M0 200.28 L17.54 218.99 L35.08 200.28M17.54 200.28 L17.54 247.05" class="st2"/>
		</g>
	</g>
</svg>
