<?xml version="1.0" encoding="UTF-8" standalone="no"?>
<!DOCTYPE svg PUBLIC "-//W3C//DTD SVG 1.1//EN" "http://www.w3.org/Graphics/SVG/1.1/DTD/svg11.dtd">
<!-- Generated by Microsoft Visio, SVG Export ant_diversity_manual.svg Page-1 -->
<svg xmlns="http://www.w3.org/2000/svg" xmlns:xlink="http://www.w3.org/1999/xlink" xmlns:ev="http://www.w3.org/2001/xml-events"
		width="7.74969in" height="1.53623in" viewBox="0 0 557.978 110.609" xml:space="preserve" color-interpolation-filters="sRGB"
		class="st7">
	<style type="text/css">
	<![CDATA[
		.st1 {stroke:#333f48;stroke-linecap:butt;stroke-width:1}
		.st2 {fill:none;stroke:none;stroke-width:1}
		.st3 {fill:#333f48;font-family:Arial;font-size:0.666664em}
		.st4 {fill:#333f48;font-family:Arial;font-size:0.833336em}
		.st5 {marker-end:url(#mrkr4-160);stroke:#333f48;stroke-linecap:butt;stroke-width:1}
		.st6 {fill:#333f48;fill-opacity:1;stroke:#333f48;stroke-opacity:1;stroke-width:0.28409090909091}
		.st7 {fill:none;fill-rule:evenodd;font-size:12px;overflow:visible;stroke-linecap:square;stroke-miterlimit:3}
	]]>
	</style>

	<defs id="Markers">
		<g id="lend4">
			<path d="M 2 1 L 0 0 L 2 -1 L 2 1 " style="stroke:none"/>
		</g>
		<marker id="mrkr4-160" class="st6" refX="-7.04" orient="auto" markerUnits="strokeWidth" overflow="visible">
			<use xlink:href="#lend4" transform="scale(-3.52,-3.52) "/>
		</marker>
	</defs>
	<g>
		<title>Page-1</title>
		<g id="shape214-1" transform="translate(7.89876,-63.6942)">
			<title>Dynamic connector.214</title>
			<path d="M0 103.52 L52.91 103.52 A2.3622 2.3622 0 1 1 57.64 103.52 L280.24 103.52 A2.3622 2.3622 0 0 1 284.97 103.52
						 L448.35 103.52 A2.3622 2.3622 0 1 1 453.07 103.52 L530.08 103.52" class="st1"/>
		</g>
		<g id="shape108-4" transform="translate(13.5681,-84.954)">
			<title>Dynamic connector.108</title>
			<path d="M0 103.52 L42.52 103.52" class="st1"/>
		</g>
		<g id="shape109-7" transform="translate(52.5444,-95.584)">
			<title>Dynamic connector.109</title>
			<path d="M3.54 114.15 L10.63 121.24" class="st1"/>
		</g>
		<g id="shape110-10" transform="translate(66.7177,-88.4974)">
			<title>Dynamic connector.110</title>
			<path d="M-3.54 114.15 L-10.63 121.24" class="st1"/>
		</g>
		<g id="shape111-13" transform="translate(13.5681,-70.7808)">
			<title>Dynamic connector.111</title>
			<path d="M0 103.52 L42.52 103.52" class="st1"/>
		</g>
		<g id="shape112-16" transform="translate(73.8043,-74.3241)">
			<title>Dynamic connector.112</title>
			<path d="M-3.54 107.07 L-10.63 99.98" class="st1"/>
		</g>
		<g id="shape113-19" transform="translate(59.631,-81.4107)">
			<title>Dynamic connector.113</title>
			<path d="M3.54 107.07 L10.63 99.98" class="st1"/>
		</g>
		<g id="shape114-22" transform="translate(70.261,-84.954)">
			<title>Dynamic connector.114</title>
			<path d="M0 103.52 L35.43 103.52" class="st1"/>
		</g>
		<g id="shape115-25" transform="translate(70.261,-70.7808)">
			<title>Dynamic connector.115</title>
			<path d="M0 103.52 L35.43 103.52" class="st1"/>
		</g>
		<g id="shape116-28" transform="translate(102.151,-95.584)">
			<title>Dynamic connector.116</title>
			<path d="M3.54 114.15 L10.63 121.24" class="st1"/>
		</g>
		<g id="shape117-31" transform="translate(116.324,-88.4974)">
			<title>Dynamic connector.117</title>
			<path d="M-3.54 114.15 L-10.63 121.24" class="st1"/>
		</g>
		<g id="shape118-34" transform="translate(123.411,-74.3241)">
			<title>Dynamic connector.118</title>
			<path d="M-3.54 107.07 L-10.63 99.98" class="st1"/>
		</g>
		<g id="shape119-37" transform="translate(109.237,-81.4107)">
			<title>Dynamic connector.119</title>
			<path d="M3.54 107.07 L10.63 99.98" class="st1"/>
		</g>
		<g id="shape120-40" transform="translate(119.867,-99.1273)">
			<title>Dynamic connector.120</title>
			<path d="M0 117.7 L124.02 117.7" class="st1"/>
		</g>
		<g id="shape121-43" transform="translate(119.867,-84.954)">
			<title>Dynamic connector.121</title>
			<path d="M0 117.7 L124.02 117.7" class="st1"/>
		</g>
		<g id="shape122-46" transform="translate(240.34,-95.584)">
			<title>Dynamic connector.122</title>
			<path d="M3.54 114.15 L10.63 121.24" class="st1"/>
		</g>
		<g id="shape123-49" transform="translate(254.513,-88.4974)">
			<title>Dynamic connector.123</title>
			<path d="M-3.54 114.15 L-10.63 121.24" class="st1"/>
		</g>
		<g id="shape124-52" transform="translate(261.6,-74.3241)">
			<title>Dynamic connector.124</title>
			<path d="M-3.54 107.07 L-10.63 99.98" class="st1"/>
		</g>
		<g id="shape125-55" transform="translate(247.426,-81.4107)">
			<title>Dynamic connector.125</title>
			<path d="M3.54 107.07 L10.63 99.98" class="st1"/>
		</g>
		<g id="shape126-58" transform="translate(258.056,-84.954)">
			<title>Dynamic connector.126</title>
			<path d="M0 103.52 L25.36 103.52" class="st1"/>
		</g>
		<g id="shape127-61" transform="translate(258.056,-70.7808)">
			<title>Dynamic connector.127</title>
			<path d="M0 103.52 L25.36 103.52" class="st1"/>
		</g>
		<g id="shape128-64" transform="translate(279.876,-95.584)">
			<title>Dynamic connector.128</title>
			<path d="M3.54 114.15 L10.63 121.24" class="st1"/>
		</g>
		<g id="shape129-67" transform="translate(294.049,-88.4974)">
			<title>Dynamic connector.129</title>
			<path d="M-3.54 114.15 L-10.63 121.24" class="st1"/>
		</g>
		<g id="shape130-70" transform="translate(301.135,-74.3241)">
			<title>Dynamic connector.130</title>
			<path d="M-3.54 107.07 L-10.63 99.98" class="st1"/>
		</g>
		<g id="shape131-73" transform="translate(286.962,-81.4107)">
			<title>Dynamic connector.131</title>
			<path d="M3.54 107.07 L10.63 99.98" class="st1"/>
		</g>
		<g id="shape132-76" transform="translate(297.592,-99.1273)">
			<title>Dynamic connector.132</title>
			<path d="M0 117.7 L153.93 117.7" class="st1"/>
		</g>
		<g id="shape133-79" transform="translate(297.592,-84.954)">
			<title>Dynamic connector.133</title>
			<path d="M0 117.7 L153.93 117.7" class="st1"/>
		</g>
		<g id="shape134-82" transform="translate(447.977,-95.584)">
			<title>Dynamic connector.134</title>
			<path d="M3.54 114.15 L10.63 121.24" class="st1"/>
		</g>
		<g id="shape135-85" transform="translate(462.151,-88.4974)">
			<title>Dynamic connector.135</title>
			<path d="M-3.54 114.15 L-10.63 121.24" class="st1"/>
		</g>
		<g id="shape136-88" transform="translate(469.237,-74.3241)">
			<title>Dynamic connector.136</title>
			<path d="M-3.54 107.07 L-10.63 99.98" class="st1"/>
		</g>
		<g id="shape137-91" transform="translate(455.064,-81.4107)">
			<title>Dynamic connector.137</title>
			<path d="M3.54 107.07 L10.63 99.98" class="st1"/>
		</g>
		<g id="shape138-94" transform="translate(465.694,-99.1273)">
			<title>Dynamic connector.138</title>
			<path d="M0 117.7 L34.02 117.7" class="st1"/>
		</g>
		<g id="shape139-97" transform="translate(465.694,-84.954)">
			<title>Dynamic connector.139</title>
			<path d="M0 117.7 L34.02 117.7" class="st1"/>
		</g>
		<g id="shape140-100" transform="translate(496.166,-95.584)">
			<title>Dynamic connector.140</title>
			<path d="M3.54 114.15 L10.63 121.24" class="st1"/>
		</g>
		<g id="shape141-103" transform="translate(510.34,-88.4974)">
			<title>Dynamic connector.141</title>
			<path d="M-3.54 114.15 L-10.63 121.24" class="st1"/>
		</g>
		<g id="shape142-106" transform="translate(537.977,-84.954)">
			<title>Dynamic connector.142</title>
			<path d="M0 117.7 L-24.09 117.7" class="st1"/>
		</g>
		<g id="shape143-109" transform="translate(517.426,-74.3241)">
			<title>Dynamic connector.143</title>
			<path d="M-3.54 107.07 L-10.63 99.98" class="st1"/>
		</g>
		<g id="shape144-112" transform="translate(503.253,-81.4107)">
			<title>Dynamic connector.144</title>
			<path d="M3.54 107.07 L10.63 99.98" class="st1"/>
		</g>
		<g id="shape145-115" transform="translate(537.977,-99.1273)">
			<title>Dynamic connector.145</title>
			<path d="M0 117.7 L-24.09 117.7" class="st1"/>
		</g>
		<g id="group153-118" transform="translate(15.1384,-78.5582)">
			<title>Sheet.153</title>
			<g id="shape146-119" transform="translate(-5.2061,-1.42109E-13)">
				<title>Sheet.146</title>
				<desc>Disabled</desc>
				<rect x="0" y="98.3589" width="51.2913" height="12.25" class="st2"/>
				<text x="10.08" y="106.88" class="st3">Disabled</text>			</g>
			<g id="shape147-122" transform="translate(43.4971,-0.492982)">
				<title>Sheet.147</title>
				<desc>RX_IDLE</desc>
				<rect x="0" y="98.3589" width="59.6614" height="12.25" class="st2"/>
				<text x="13.16" y="106.88" class="st3">RX_IDLE</text>			</g>
			<g id="shape148-125" transform="translate(138.678,0)">
				<title>Sheet.148</title>
				<desc>RECEIVE</desc>
				<rect x="0" y="98.3589" width="59.6614" height="12.25" class="st2"/>
				<text x="12.27" y="106.88" class="st3">RECEIVE</text>			</g>
			<g id="shape149-128" transform="translate(232.575,-1.42109E-13)">
				<title>Sheet.149</title>
				<desc>RX_IDLE</desc>
				<rect x="0" y="98.3589" width="46.4847" height="12.25" class="st2"/>
				<text x="6.57" y="106.88" class="st3">RX_IDLE</text>			</g>
			<g id="shape150-131" transform="translate(438.394,-1.42109E-13)">
				<title>Sheet.150</title>
				<desc>RX_IDLE</desc>
				<rect x="0" y="98.3589" width="59.6614" height="12.25" class="st2"/>
				<text x="13.16" y="106.88" class="st3">RX_IDLE</text>			</g>
			<g id="shape151-134" transform="translate(493.743,0)">
				<title>Sheet.151</title>
				<desc>Disabled</desc>
				<rect x="0" y="98.3589" width="39.8189" height="12.25" class="st2"/>
				<text x="4.35" y="106.88" class="st3">Disabled</text>			</g>
			<g id="shape152-137" transform="translate(312.89,0)">
				<title>Sheet.152</title>
				<desc>TRANSMIT</desc>
				<rect x="0" y="98.3589" width="71" height="12.25" class="st2"/>
				<text x="15.06" y="106.88" class="st3">TRANSMIT</text>			</g>
		</g>
		<g id="shape204-140" transform="translate(2.09562,-99.1273)">
			<title>Sheet.204</title>
			<desc>Radio</desc>
			<rect x="0" y="100.127" width="37.1181" height="10.4816" class="st2"/>
			<text x="5.5" y="108.37" class="st4">Radio</text>		</g>
		<g id="shape205-143" transform="translate(1,-54.5016)">
			<title>Sheet.205</title>
			<desc>Antenna</desc>
			<rect x="0" y="94.5881" width="48.0011" height="16.0208" class="st2"/>
			<text x="4" y="105.6" class="st4">Antenna</text>		</g>
		<g id="shape206-146" transform="translate(1,-44.02)">
			<title>Sheet.206</title>
			<desc>tx_ant</desc>
			<rect x="0" y="100.127" width="48.0011" height="10.4816" class="st2"/>
			<text x="4" y="107.77" class="st3">tx_ant</text>		</g>
		<g id="shape207-149" transform="translate(1,-33.5383)">
			<title>Sheet.207</title>
			<desc>rx_ant</desc>
			<rect x="0" y="100.127" width="48.0011" height="10.4816" class="st2"/>
			<text x="4" y="107.77" class="st3">rx_ant</text>		</g>
		<g id="shape208-152" transform="translate(1,-23.0567)">
			<title>Sheet.208</title>
			<desc>unspecified</desc>
			<rect x="0" y="100.127" width="51.1192" height="10.4816" class="st2"/>
			<text x="4" y="107.77" class="st3">unspecified</text>		</g>
		<g id="shape210-155" transform="translate(56.0877,-84.954)">
			<title>Dynamic connector</title>
			<path d="M7.09 110.61 L7.09 141.3" class="st5"/>
		</g>
		<g id="shape212-161" transform="translate(297.592,-84.954)">
			<title>Dynamic connector.212</title>
			<path d="M-7.09 110.61 L-7.09 132.75" class="st5"/>
		</g>
		<g id="shape213-166" transform="translate(451.521,-84.954)">
			<title>Dynamic connector.213</title>
			<path d="M7.09 110.61 L7.09 132.51" class="st5"/>
		</g>
		<g id="shape226-171" transform="translate(66.3886,-56.7476)">
			<title>Sheet.226</title>
			<desc>set_rx_antenna</desc>
			<rect x="0" y="100.127" width="64.8172" height="10.4816" class="st2"/>
			<text x="4" y="107.77" class="st3">set_rx_antenna</text>		</g>
		<g id="shape227-174" transform="translate(293.974,-56.7476)">
			<title>Sheet.227</title>
			<desc>set_tx_antenna</desc>
			<rect x="0" y="100.127" width="64.8172" height="10.4816" class="st2"/>
			<text x="4" y="107.77" class="st3">set_tx_antenna</text>		</g>
		<g id="shape228-177" transform="translate(462.096,-56.7476)">
			<title>Sheet.228</title>
			<desc>set_rx_antenna</desc>
			<rect x="0" y="100.127" width="64.8172" height="10.4816" class="st2"/>
			<text x="4" y="107.77" class="st3">set_rx_antenna</text>		</g>
		<g id="group229-180" transform="translate(59.378,-1.27607)">
			<title>Sheet.229</title>
			<g id="shape155-181" transform="translate(7.08661,-13.1102)">
				<title>Dynamic connector.155</title>
				<path d="M0 103.52 L471.51 103.52" class="st1"/>
			</g>
			<g id="shape156-184" transform="translate(1.9984E-14,-25.2756)">
				<title>Dynamic connector.156</title>
				<path d="M7.09 115.21 L7.09 120.18" class="st1"/>
			</g>
			<g id="shape157-187" transform="translate(29.4696,-25.2756)">
				<title>Dynamic connector.157</title>
				<path d="M7.09 115.21 L7.09 120.18" class="st1"/>
			</g>
			<g id="shape158-190" transform="translate(58.9391,-25.2756)">
				<title>Dynamic connector.158</title>
				<path d="M7.09 115.21 L7.09 120.18" class="st1"/>
			</g>
			<g id="shape159-193" transform="translate(88.4087,-25.2756)">
				<title>Dynamic connector.159</title>
				<path d="M7.09 115.21 L7.09 120.18" class="st1"/>
			</g>
			<g id="shape160-196" transform="translate(117.878,-25.2756)">
				<title>Dynamic connector.160</title>
				<path d="M7.09 115.21 L7.09 120.18" class="st1"/>
			</g>
			<g id="shape161-199" transform="translate(147.348,-25.2756)">
				<title>Dynamic connector.161</title>
				<path d="M7.09 115.21 L7.09 120.18" class="st1"/>
			</g>
			<g id="shape162-202" transform="translate(176.817,-25.2756)">
				<title>Dynamic connector.162</title>
				<path d="M7.09 115.21 L7.09 120.18" class="st1"/>
			</g>
			<g id="shape163-205" transform="translate(206.287,-25.2756)">
				<title>Dynamic connector.163</title>
				<path d="M7.09 115.21 L7.09 120.18" class="st1"/>
			</g>
			<g id="shape164-208" transform="translate(235.756,-25.2756)">
				<title>Dynamic connector.164</title>
				<path d="M7.09 115.21 L7.09 120.18" class="st1"/>
			</g>
			<g id="shape165-211" transform="translate(265.226,-25.2756)">
				<title>Dynamic connector.165</title>
				<path d="M7.09 115.21 L7.09 120.18" class="st1"/>
			</g>
			<g id="shape166-214" transform="translate(294.696,-25.2756)">
				<title>Dynamic connector.166</title>
				<path d="M7.09 115.21 L7.09 120.18" class="st1"/>
			</g>
			<g id="shape167-217" transform="translate(324.165,-25.2756)">
				<title>Dynamic connector.167</title>
				<path d="M7.09 115.21 L7.09 120.18" class="st1"/>
			</g>
			<g id="shape168-220" transform="translate(353.635,-25.2756)">
				<title>Dynamic connector.168</title>
				<path d="M7.09 115.21 L7.09 120.18" class="st1"/>
			</g>
			<g id="shape169-223" transform="translate(383.104,-25.2756)">
				<title>Dynamic connector.169</title>
				<path d="M7.09 115.21 L7.09 120.18" class="st1"/>
			</g>
			<g id="shape170-226" transform="translate(412.574,-25.2756)">
				<title>Dynamic connector.170</title>
				<path d="M7.09 115.21 L7.09 120.18" class="st1"/>
			</g>
			<g id="shape171-229" transform="translate(471.513,-25.2756)">
				<title>Dynamic connector.171</title>
				<path d="M7.09 115.21 L7.09 120.18" class="st1"/>
			</g>
			<g id="shape173-232" transform="translate(0.91193,-8.52651E-14)">
				<title>Sheet.173</title>
				<desc>0</desc>
				<rect x="0" y="103.561" width="10.8991" height="7.04773" class="st2"/>
				<text x="4" y="109.49" class="st3">0</text>			</g>
			<g id="shape174-235" transform="translate(27.8909,-2.84217E-14)">
				<title>Sheet.174</title>
				<desc>30</desc>
				<rect x="0" y="103.561" width="18.1972" height="7.04773" class="st2"/>
				<text x="4.65" y="109.49" class="st3">30</text>			</g>
			<g id="shape175-238" transform="translate(57.1234,-2.84217E-14)">
				<title>Sheet.175</title>
				<desc>60</desc>
				<rect x="0" y="103.561" width="18.1972" height="7.04773" class="st2"/>
				<text x="4.65" y="109.49" class="st3">60</text>			</g>
			<g id="shape176-241" transform="translate(86.4061,-2.84217E-14)">
				<title>Sheet.176</title>
				<desc>90</desc>
				<rect x="0" y="103.561" width="18.1972" height="7.04773" class="st2"/>
				<text x="4.65" y="109.49" class="st3">90</text>			</g>
			<g id="shape177-244" transform="translate(114.209,-2.84217E-14)">
				<title>Sheet.177</title>
				<desc>120</desc>
				<rect x="0" y="103.561" width="21.5107" height="7.04773" class="st2"/>
				<text x="4.08" y="109.49" class="st3">120</text>			</g>
			<g id="shape179-247" transform="translate(143.344,-2.84217E-14)">
				<title>Sheet.179</title>
				<desc>150</desc>
				<rect x="0" y="103.561" width="21.5107" height="7.04773" class="st2"/>
				<text x="4.08" y="109.49" class="st3">150</text>			</g>
			<g id="shape190-250" transform="translate(442.043,-25.2756)">
				<title>Dynamic connector.190</title>
				<path d="M7.09 115.21 L7.09 120.18" class="st1"/>
			</g>
			<g id="shape192-253" transform="translate(173.149,-2.84217E-14)">
				<title>Sheet.192</title>
				<desc>180</desc>
				<rect x="0" y="103.561" width="21.5107" height="7.04773" class="st2"/>
				<text x="4.08" y="109.49" class="st3">180</text>			</g>
			<g id="shape193-256" transform="translate(202.618,-2.84217E-14)">
				<title>Sheet.193</title>
				<desc>210</desc>
				<rect x="0" y="103.561" width="21.5107" height="7.04773" class="st2"/>
				<text x="4.08" y="109.49" class="st3">210</text>			</g>
			<g id="shape194-259" transform="translate(232.088,-2.84217E-14)">
				<title>Sheet.194</title>
				<desc>240</desc>
				<rect x="0" y="103.561" width="21.5107" height="7.04773" class="st2"/>
				<text x="4.08" y="109.49" class="st3">240</text>			</g>
			<g id="shape195-262" transform="translate(261.557,-2.84217E-14)">
				<title>Sheet.195</title>
				<desc>270</desc>
				<rect x="0" y="103.561" width="21.5107" height="7.04773" class="st2"/>
				<text x="4.08" y="109.49" class="st3">270</text>			</g>
			<g id="shape196-265" transform="translate(291.027,-2.84217E-14)">
				<title>Sheet.196</title>
				<desc>300</desc>
				<rect x="0" y="103.561" width="21.5107" height="7.04773" class="st2"/>
				<text x="4.08" y="109.49" class="st3">300</text>			</g>
			<g id="shape197-268" transform="translate(320.496,-1.56319E-13)">
				<title>Sheet.197</title>
				<desc>330</desc>
				<rect x="0" y="103.561" width="21.5107" height="7.04773" class="st2"/>
				<text x="4.08" y="109.49" class="st3">330</text>			</g>
			<g id="shape198-271" transform="translate(349.623,-1.56319E-13)">
				<title>Sheet.198</title>
				<desc>360</desc>
				<rect x="0" y="103.561" width="21.5107" height="7.04773" class="st2"/>
				<text x="4.08" y="109.49" class="st3">360</text>			</g>
			<g id="shape199-274" transform="translate(379.436,-2.84217E-14)">
				<title>Sheet.199</title>
				<desc>390</desc>
				<rect x="0" y="103.561" width="21.5107" height="7.04773" class="st2"/>
				<text x="4.08" y="109.49" class="st3">390</text>			</g>
			<g id="shape200-277" transform="translate(408.905,-1.56319E-13)">
				<title>Sheet.200</title>
				<desc>420</desc>
				<rect x="0" y="103.561" width="21.5107" height="7.04773" class="st2"/>
				<text x="4.08" y="109.49" class="st3">420</text>			</g>
			<g id="shape201-280" transform="translate(438.748,-1.56319E-13)">
				<title>Sheet.201</title>
				<desc>450</desc>
				<rect x="0" y="103.561" width="21.5107" height="7.04773" class="st2"/>
				<text x="4.08" y="109.49" class="st3">450</text>			</g>
			<g id="shape202-283" transform="translate(467.811,-2.84217E-14)">
				<title>Sheet.202</title>
				<desc>480</desc>
				<rect x="0" y="103.561" width="21.5107" height="7.04773" class="st2"/>
				<text x="4.08" y="109.49" class="st3">480</text>			</g>
		</g>
		<g id="group232-286" transform="translate(50.874,-21.0626)">
			<title>Sheet.232</title>
			<g id="shape216-287" transform="translate(12.8065,-16.3919)">
				<title>Dynamic connector.216</title>
				<path d="M0 103.52 L227.68 103.52" class="st1"/>
			</g>
			<g id="shape217-290" transform="translate(247.576,-34.3978)">
				<title>Dynamic connector.217</title>
				<path d="M-7.09 113.86 L-7.09 121.53" class="st1"/>
			</g>
			<g id="shape218-293" transform="translate(240.489,-24.0572)">
				<title>Dynamic connector.218</title>
				<path d="M0 103.52 L167.24 103.52" class="st1"/>
			</g>
			<g id="shape219-296" transform="translate(400.647,-34.3978)">
				<title>Dynamic connector.219</title>
				<path d="M7.09 113.86 L7.09 121.53" class="st1"/>
			</g>
			<g id="shape220-299" transform="translate(407.733,-16.3919)">
				<title>Dynamic connector.220</title>
				<path d="M0 103.52 L47.29 103.52" class="st1"/>
			</g>
			<g id="shape221-302" transform="translate(447.941,-26.7324)">
				<title>Dynamic connector.221</title>
				<path d="M7.09 113.86 L7.09 121.53" class="st1"/>
			</g>
			<g id="shape222-305" transform="translate(455.027,-8.72654)">
				<title>Dynamic connector.222</title>
				<path d="M0 103.52 L31.7 103.52" class="st1"/>
			</g>
			<g id="shape223-308" transform="translate(5.71991,-23.4785)">
				<title>Dynamic connector.223</title>
				<path d="M7.09 110.61 L7.09 127" class="st1"/>
			</g>
			<g id="shape224-311" transform="translate(14.1732,1.42109E-14)">
				<title>Dynamic connector.224</title>
				<path d="M-1.37 103.52 L-12.81 103.52" class="st1"/>
			</g>
		</g>
	</g>
</svg>
