<?xml version="1.0" encoding="UTF-8" standalone="no"?>
<!DOCTYPE svg PUBLIC "-//W3C//DTD SVG 1.1//EN" "http://www.w3.org/Graphics/SVG/1.1/DTD/svg11.dtd">
<!-- Generated by Microsoft Visio, SVG Export ant_diversity_rx_procedure.svg Page-1 -->
<svg xmlns="http://www.w3.org/2000/svg" xmlns:xlink="http://www.w3.org/1999/xlink" xmlns:ev="http://www.w3.org/2001/xml-events"
		width="6.83145in" height="7.81415in" viewBox="0 0 491.864 562.619" xml:space="preserve" color-interpolation-filters="sRGB"
		class="st14">
	<style type="text/css">
	<![CDATA[
		.st1 {fill:#00a9ce;stroke:none;stroke-width:1}
		.st2 {fill:#feffff;font-family:Arial;font-size:1.00001em}
		.st3 {font-size:0.83333em}
		.st4 {marker-start:url(#mrkr4-32);stroke:#00a9ce;stroke-linecap:butt;stroke-width:1}
		.st5 {fill:#00a9ce;fill-opacity:1;stroke:#00a9ce;stroke-opacity:1;stroke-width:0.28409090909091}
		.st6 {marker-end:url(#mrkr4-38);stroke:#00a9ce;stroke-linecap:butt;stroke-width:1}
		.st7 {marker-end:url(#mrkr4-54);stroke:#00a9ce;stroke-linecap:butt;stroke-width:1}
		.st8 {fill:#333f48;stroke:none;stroke-width:1}
		.st9 {fill:none;stroke:none;stroke-width:1}
		.st10 {fill:#00a9ce;font-family:Arial;font-size:0.916672em}
		.st11 {font-size:1em}
		.st12 {fill:none;stroke:#768692;stroke-width:1}
		.st13 {fill:#768692;font-family:Arial;font-size:1.5em}
		.st14 {fill:none;fill-rule:evenodd;font-size:12px;overflow:visible;stroke-linecap:square;stroke-miterlimit:3}
	]]>
	</style>

	<defs id="Markers">
		<g id="lend4">
			<path d="M 2 1 L 0 0 L 2 -1 L 2 1 " style="stroke:none"/>
		</g>
		<marker id="mrkr4-32" class="st5" refX="6.68" orient="auto" markerUnits="strokeWidth" overflow="visible">
			<use xlink:href="#lend4" transform="scale(3.52) "/>
		</marker>
		<marker id="mrkr4-38" class="st5" refX="-6.68" orient="auto" markerUnits="strokeWidth" overflow="visible">
			<use xlink:href="#lend4" transform="scale(-3.52,-3.52) "/>
		</marker>
		<marker id="mrkr4-54" class="st5" refX="-7.04" orient="auto" markerUnits="strokeWidth" overflow="visible">
			<use xlink:href="#lend4" transform="scale(-3.52,-3.52) "/>
		</marker>
	</defs>
	<g>
		<title>Page-1</title>
		<g id="shape303-1" transform="translate(189.43,-449.859)">
			<title>Ellipse</title>
			<desc>Sleep</desc>
			<path d="M0 524.23 A71.0747 38.3864 0 1 1 142.15 524.23 A71.0747 38.3864 0 1 1 0 524.23 Z" class="st1"/>
			<text x="55.73" y="527.83" class="st2">Sleep</text>		</g>
		<g id="shape306-4" transform="translate(189.43,-273.154)">
			<title>Ellipse.306</title>
			<desc>Toggle Switch between antennas in constant intervals</desc>
			<path d="M0 524.23 A71.0747 38.3864 0 1 1 142.15 524.23 A71.0747 38.3864 0 1 1 0 524.23 Z" class="st1"/>
			<text x="52.73" y="509.83" class="st2">Toggle  <tspan x="14.09" dy="2.46em" class="st3">Switch between antennas </tspan><tspan
						x="26.88" dy="1.2em" class="st3">in constant intervals</tspan></text>		</g>
		<g id="shape307-9" transform="translate(13.2774,-205.573)">
			<title>Ellipse.307</title>
			<desc>RSSI_1 Wait for RSSI value to settle</desc>
			<path d="M0 524.23 A71.0747 38.3864 0 1 1 142.15 524.23 A71.0747 38.3864 0 1 1 0 524.23 Z" class="st1"/>
			<text x="50.4" y="509.83" class="st2">RSSI_1  <tspan x="27.45" dy="2.46em" class="st3">Wait for RSSI value </tspan><tspan
						x="53.56" dy="1.2em" class="st3">to settle</tspan></text>		</g>
		<g id="shape308-14" transform="translate(13.2774,-97.6843)">
			<title>Ellipse.308</title>
			<desc>RSSI_2 Wait for RSSI value to settle</desc>
			<path d="M0 524.23 A71.0747 38.3864 0 1 1 142.15 524.23 A71.0747 38.3864 0 1 1 0 524.23 Z" class="st1"/>
			<text x="50.4" y="509.83" class="st2">RSSI_2  <tspan x="27.45" dy="2.46em" class="st3">Wait for RSSI value </tspan><tspan
						x="53.56" dy="1.2em" class="st3">to settle</tspan></text>		</g>
		<g id="shape309-19" transform="translate(189.43,-56.2299)">
			<title>Ellipse.309</title>
			<desc>Idle Wait for timeout or framestart</desc>
			<path d="M0 524.23 A71.0747 38.3864 0 1 1 142.15 524.23 A71.0747 38.3864 0 1 1 0 524.23 Z" class="st1"/>
			<text x="61.4" y="509.83" class="st2">Idle  <tspan x="36.06" dy="2.46em" class="st3">Wait for timeout </tspan><tspan
						x="42.73" dy="1.2em" class="st3">or framestart</tspan></text>		</g>
		<g id="shape310-24" transform="translate(337.237,-9.42926)">
			<title>Ellipse.310</title>
			<desc>Frame_RX</desc>
			<path d="M0 524.23 A71.0747 38.3864 0 1 1 142.15 524.23 A71.0747 38.3864 0 1 1 0 524.23 Z" class="st1"/>
			<text x="42.07" y="527.83" class="st2">Frame_RX</text>		</g>
		<g id="shape311-27" transform="translate(331.58,-311.54)">
			<title>Dynamic connector</title>
			<path d="M5.55 566.34 L5.85 566.54 C58.43 603.91 84.55 682.81 76.73 787.96" class="st4"/>
		</g>
		<g id="shape312-33" transform="translate(288.735,-60.6882)">
			<title>Dynamic connector.312</title>
			<path d="M0 563.92 C12.47 572.76 24.12 575.13 41.46 575.46 L41.82 575.46" class="st6"/>
		</g>
		<g id="shape313-39" transform="translate(253.418,-273.154)">
			<title>Dynamic connector.313</title>
			<path d="M7.09 569.3 L7.09 569.66 C7.09 606.37 7.09 669.94 7.09 702.77" class="st4"/>
		</g>
		<g id="shape314-44" transform="translate(139.135,-111.615)">
			<title>Dynamic connector.314</title>
			<path d="M0 562.62 C12.08 572.33 23.49 575.77 43.32 578.66 L43.68 578.71" class="st6"/>
		</g>
		<g id="shape315-49" transform="translate(77.2655,-205.573)">
			<title>Dynamic connector.315</title>
			<path d="M7.09 562.62 C7.09 568.46 7.09 578.67 7.09 586.69" class="st7"/>
		</g>
		<g id="shape316-55" transform="translate(189.43,-311.54)">
			<title>Dynamic connector.316</title>
			<path d="M0 562.62 C-20.68 566.44 -41.53 574.03 -59.44 593.52 L-59.68 593.8" class="st6"/>
		</g>
		<g id="shape317-60" transform="translate(242.091,-450.467)">
			<title>Dynamic connector.317</title>
			<path d="M5.82 562.62 C-5.38 571.38 -6.3 593.86 3.24 606.15 L3.5 606.39" class="st6"/>
		</g>
		<g id="shape318-65" transform="translate(252.642,-545.893)">
			<title>Circle</title>
			<path d="M0 554.76 A7.86277 7.86277 0 1 1 15.73 554.76 A7.86277 7.86277 0 0 1 0 554.76 Z" class="st8"/>
		</g>
		<g id="shape319-67" transform="translate(253.418,-545.893)">
			<title>Dynamic connector.319</title>
			<path d="M7.09 562.62 C7.09 565.61 7.09 570.45 7.09 574.84" class="st7"/>
		</g>
		<g id="shape320-72" transform="translate(253.418,-373.696)">
			<title>Dynamic connector.320</title>
			<path d="M7.09 562.62 C7.09 566.68 7.09 573.53 7.09 579.35" class="st7"/>
		</g>
		<g id="shape321-77" transform="translate(252.642,-373.696)">
			<title>Circle.321</title>
			<path d="M0 554.76 A7.86277 7.86277 0 1 1 15.73 554.76 A7.86277 7.86277 0 0 1 0 554.76 Z" class="st8"/>
		</g>
		<g id="shape322-79" transform="translate(80.7885,-310.789)">
			<title>Sheet.322</title>
			<desc>Preamble detected</desc>
			<rect x="0" y="543.619" width="101.839" height="19" class="st9"/>
			<text x="4.75" y="556.42" class="st10">Preamble detected</text>		</g>
		<g id="shape323-82" transform="translate(84.757,-176.988)">
			<title>Sheet.323</title>
			<desc>Measure RSSI Switch antenna</desc>
			<rect x="0" y="536.565" width="87.874" height="26.0538" class="st9"/>
			<text x="8.17" y="546.29" class="st10">Measure RSSI <tspan x="6.33" dy="1.2em" class="st11">Switch antenna</tspan></text>		</g>
		<g id="shape324-86" transform="translate(260.181,-176.988)">
			<title>Sheet.324</title>
			<desc>Timeout</desc>
			<rect x="0" y="536.565" width="54.2632" height="26.0538" class="st9"/>
			<text x="7.26" y="552.89" class="st10">Timeout</text>		</g>
		<g id="shape325-89" transform="translate(398.303,-176.988)">
			<title>Sheet.325</title>
			<desc>RX end</desc>
			<rect x="0" y="536.565" width="54.2632" height="26.0538" class="st9"/>
			<text x="8.79" y="552.89" class="st10">RX end</text>		</g>
		<g id="shape326-92" transform="translate(83.2452,-65.0354)">
			<title>Sheet.326</title>
			<desc>Measure RSSI Select best antenna</desc>
			<rect x="0" y="536.565" width="107.496" height="26.0538" class="st9"/>
			<text x="17.98" y="546.29" class="st10">Measure RSSI <tspan x="5.13" dy="1.2em" class="st11">Select best antenna</tspan></text>		</g>
		<g id="shape327-96" transform="translate(233.047,-17.7057)">
			<title>Sheet.327</title>
			<desc>Framestart detected</desc>
			<rect x="0" y="536.565" width="107.496" height="26.0538" class="st9"/>
			<text x="4.53" y="552.89" class="st10">Framestart detected</text>		</g>
		<g id="shape331-99" transform="translate(1,-1)">
			<title>Rectangle</title>
			<rect x="0" y="161.516" width="489.864" height="401.102" class="st12"/>
		</g>
		<g id="shape332-101" transform="translate(189.43,-376.613)">
			<title>Sheet.332</title>
			<desc>RX</desc>
			<rect x="0" y="543.619" width="54.2632" height="19" class="st9"/>
			<text x="14.63" y="558.52" class="st13">RX</text>		</g>
		<g id="shape333-104" transform="translate(278.678,-402.102)">
			<title>Dynamic connector.333</title>
			<path d="M-4.7 562.62 C1.42 551.74 3.43 532.99 -4.97 519.99 L-5.2 519.71" class="st6"/>
		</g>
		<g id="shape334-109" transform="translate(173.1,-416.481)">
			<title>Sheet.334</title>
			<desc>Enable RX</desc>
			<rect x="0" y="543.619" width="65.3858" height="19" class="st9"/>
			<text x="6.4" y="556.42" class="st10">Enable RX</text>		</g>
		<g id="shape335-112" transform="translate(278.944,-416.481)">
			<title>Sheet.335</title>
			<desc>Disable RX</desc>
			<rect x="0" y="543.619" width="65.3858" height="19" class="st9"/>
			<text x="5.18" y="556.42" class="st10">Disable RX</text>		</g>
	</g>
</svg>
