<?xml version="1.0" encoding="UTF-8" standalone="no"?>
<!DOCTYPE svg PUBLIC "-//W3C//DTD SVG 1.1//EN" "http://www.w3.org/Graphics/SVG/1.1/DTD/svg11.dtd">
<!-- Generated by Microsoft Visio, SVG Export ant_diversity_rx_timeout.svg Page-1 -->
<svg xmlns="http://www.w3.org/2000/svg" xmlns:xlink="http://www.w3.org/1999/xlink" xmlns:ev="http://www.w3.org/2001/xml-events"
		width="8.36762in" height="2.96835in" viewBox="0 0 602.469 213.721" xml:space="preserve" color-interpolation-filters="sRGB"
		class="st16">
	<style type="text/css">
	<![CDATA[
		.st1 {stroke:#d9e1e2;stroke-dasharray:1,2;stroke-linecap:butt;stroke-width:1}
		.st2 {stroke:#768692;stroke-dasharray:4,2;stroke-linecap:butt;stroke-width:1}
		.st3 {fill:none;stroke:none;stroke-width:1}
		.st4 {fill:#333f48;font-family:Arial;font-size:0.833336em}
		.st5 {font-size:0.799995em}
		.st6 {stroke:#333f48;stroke-linecap:round;stroke-linejoin:round;stroke-width:1}
		.st7 {fill:#333f48;font-family:Arial;font-size:0.666664em}
		.st8 {fill:#00a9ce;font-family:Arial;font-size:0.833336em}
		.st9 {fill:#333f48;font-family:Arial;font-size:0.499992em}
		.st10 {font-size:1em}
		.st11 {marker-end:url(#mrkr4-352);marker-start:url(#mrkr4-350);stroke:#ee2f4e;stroke-linecap:butt;stroke-width:1}
		.st12 {fill:#ee2f4e;fill-opacity:1;stroke:#ee2f4e;stroke-opacity:1;stroke-width:0.28409090909091}
		.st13 {marker-end:url(#mrkr4-365);stroke:#00a9ce;stroke-linecap:butt;stroke-width:1}
		.st14 {fill:#00a9ce;fill-opacity:1;stroke:#00a9ce;stroke-opacity:1;stroke-width:0.28409090909091}
		.st15 {stroke:#0033a0;stroke-linecap:butt;stroke-width:1}
		.st16 {fill:none;fill-rule:evenodd;font-size:12px;overflow:visible;stroke-linecap:square;stroke-miterlimit:3}
	]]>
	</style>

	<defs id="Markers">
		<g id="lend4">
			<path d="M 2 1 L 0 0 L 2 -1 L 2 1 " style="stroke:none"/>
		</g>
		<marker id="mrkr4-350" class="st12" refX="6.68" orient="auto" markerUnits="strokeWidth" overflow="visible">
			<use xlink:href="#lend4" transform="scale(3.52) "/>
		</marker>
		<marker id="mrkr4-352" class="st12" refX="-7.04" orient="auto" markerUnits="strokeWidth" overflow="visible">
			<use xlink:href="#lend4" transform="scale(-3.52,-3.52) "/>
		</marker>
		<marker id="mrkr4-365" class="st14" refX="-7.04" orient="auto" markerUnits="strokeWidth" overflow="visible">
			<use xlink:href="#lend4" transform="scale(-3.52,-3.52) "/>
		</marker>
	</defs>
	<g>
		<title>Page-1</title>
		<g id="group655-1" transform="translate(46.0434,-17.8058)">
			<title>Sheet.655</title>
			<g id="shape467-2" transform="translate(59.6368,-186.702)">
				<title>Dynamic connector.467</title>
				<path d="M-6.22 213.72 L-7.95 400.42" class="st1"/>
			</g>
			<g id="shape458-5" transform="translate(14.1732,-186.702)">
				<title>Dynamic connector.458</title>
				<path d="M-6.17 213.72 L-8 400.42" class="st1"/>
			</g>
			<g id="shape476-8" transform="translate(81.1719,-186.702)">
				<title>Dynamic connector.476</title>
				<path d="M-6.22 213.72 L-7.95 400.42" class="st1"/>
			</g>
			<g id="shape477-11" transform="translate(102.822,-186.702)">
				<title>Dynamic connector.477</title>
				<path d="M-6.22 213.72 L-7.95 400.42" class="st1"/>
			</g>
			<g id="shape636-14" transform="translate(145.921,-186.702)">
				<title>Dynamic connector.636</title>
				<path d="M-6.22 213.72 L-7.95 400.42" class="st1"/>
			</g>
			<g id="shape637-17" transform="translate(167.574,-186.702)">
				<title>Dynamic connector.637</title>
				<path d="M-6.22 213.72 L-7.95 400.42" class="st1"/>
			</g>
			<g id="shape638-20" transform="translate(189.099,-186.702)">
				<title>Dynamic connector.638</title>
				<path d="M-6.22 213.72 L-7.95 400.42" class="st1"/>
			</g>
			<g id="shape639-23" transform="translate(210.739,-186.702)">
				<title>Dynamic connector.639</title>
				<path d="M-6.22 213.72 L-7.95 400.42" class="st1"/>
			</g>
			<g id="shape640-26" transform="translate(232.283,-186.702)">
				<title>Dynamic connector.640</title>
				<path d="M-6.22 213.72 L-7.95 400.42" class="st1"/>
			</g>
			<g id="shape641-29" transform="translate(253.826,-186.702)">
				<title>Dynamic connector.641</title>
				<path d="M-6.22 213.72 L-7.95 400.42" class="st1"/>
			</g>
			<g id="shape642-32" transform="translate(275.48,-186.702)">
				<title>Dynamic connector.642</title>
				<path d="M-6.22 213.72 L-7.95 400.42" class="st1"/>
			</g>
			<g id="shape643-35" transform="translate(297.086,-186.702)">
				<title>Dynamic connector.643</title>
				<path d="M-6.22 213.72 L-7.95 400.42" class="st1"/>
			</g>
			<g id="shape644-38" transform="translate(318.755,-186.702)">
				<title>Dynamic connector.644</title>
				<path d="M-6.22 213.72 L-7.95 400.42" class="st1"/>
			</g>
			<g id="shape645-41" transform="translate(340.267,-186.702)">
				<title>Dynamic connector.645</title>
				<path d="M-6.22 213.72 L-7.95 400.42" class="st1"/>
			</g>
			<g id="shape646-44" transform="translate(361.81,-186.702)">
				<title>Dynamic connector.646</title>
				<path d="M-6.22 213.72 L-7.95 400.42" class="st1"/>
			</g>
			<g id="shape647-47" transform="translate(383.448,-186.702)">
				<title>Dynamic connector.647</title>
				<path d="M-6.22 213.72 L-7.95 400.42" class="st1"/>
			</g>
			<g id="shape648-50" transform="translate(404.991,-186.702)">
				<title>Dynamic connector.648</title>
				<path d="M-6.22 213.72 L-7.95 400.42" class="st1"/>
			</g>
			<g id="shape649-53" transform="translate(426.661,-186.702)">
				<title>Dynamic connector.649</title>
				<path d="M-6.22 213.72 L-7.95 400.42" class="st1"/>
			</g>
			<g id="shape650-56" transform="translate(448.172,-186.702)">
				<title>Dynamic connector.650</title>
				<path d="M-6.22 213.72 L-7.95 400.42" class="st1"/>
			</g>
			<g id="shape651-59" transform="translate(469.904,-186.702)">
				<title>Dynamic connector.651</title>
				<path d="M-6.22 213.72 L-7.95 400.42" class="st1"/>
			</g>
			<g id="shape652-62" transform="translate(491.512,-186.702)">
				<title>Dynamic connector.652</title>
				<path d="M-6.22 213.72 L-7.95 400.42" class="st1"/>
			</g>
			<g id="shape653-65" transform="translate(513.175,-186.702)">
				<title>Dynamic connector.653</title>
				<path d="M-6.22 213.72 L-7.95 400.42" class="st1"/>
			</g>
			<g id="shape654-68" transform="translate(534.664,-186.702)">
				<title>Dynamic connector.654</title>
				<path d="M-6.22 213.72 L-7.95 400.42" class="st1"/>
			</g>
		</g>
		<g id="shape457-71" transform="translate(69.0995,-204.574)">
			<title>Dynamic connector.457</title>
			<path d="M7.09 213.72 L7.09 399.46" class="st2"/>
		</g>
		<g id="shape456-74" transform="translate(155.413,-204.932)">
			<title>Dynamic connector.456</title>
			<path d="M7.09 213.72 L7.09 400.01" class="st2"/>
		</g>
		<g id="shape453-77" transform="translate(190.577,-205.161)">
			<title>Dynamic connector.453</title>
			<path d="M7.09 213.72 L7.09 400.05" class="st2"/>
		</g>
		<g id="shape301-80" transform="translate(20,-193.141)">
			<title>Sheet.301</title>
			<desc>Radio</desc>
			<rect x="0" y="203.239" width="37.1181" height="10.4816" class="st3"/>
			<text x="4" y="211.48" class="st4">Radio</text>		</g>
		<g id="shape308-83" transform="translate(76.1861,-181.87)">
			<title>Sheet.308</title>
			<desc>SW lag 40-50 us</desc>
			<rect x="0" y="192.222" width="52.5748" height="21.4992" class="st3"/>
			<text x="4" y="200.47" class="st4">SW lag <tspan x="4" dy="1.25em" class="st5">40</tspan><tspan class="st5">-</tspan><tspan
						class="st5">50 us</tspan></text>		</g>
		<g id="shape309-89" transform="translate(160.236,-181.87)">
			<title>Sheet.309</title>
			<desc>RSSI measurement 200 ns</desc>
			<rect x="0" y="192.222" width="103.598" height="21.4992" class="st3"/>
			<text x="4" y="199.97" class="st4">RSSI measurement <tspan x="4" dy="1.5em" class="st5">200 ns</tspan></text>		</g>
		<g id="shape310-93" transform="translate(197.664,-165.193)">
			<title>Sheet.310</title>
			<desc>RSSI measurement 200 ns</desc>
			<rect x="0" y="192.222" width="103.598" height="21.4992" class="st3"/>
			<text x="4" y="199.97" class="st4">RSSI measurement <tspan x="4" dy="1.5em" class="st5">200 ns</tspan></text>		</g>
		<g id="shape302-97" transform="translate(26.0057,-136.846)">
			<title>Dynamic connector.302</title>
			<path d="M0 206.63 L20.04 206.63" class="st6"/>
		</g>
		<g id="shape303-100" transform="translate(83.5562,-136.846)">
			<title>Dynamic connector.303</title>
			<path d="M0 206.63 L373.76 206.63" class="st6"/>
		</g>
		<g id="shape304-103" transform="translate(577.899,-151.02)">
			<title>Dynamic connector.304</title>
			<path d="M0 220.81 L-106.12 220.81" class="st6"/>
		</g>
		<g id="shape313-106" transform="translate(575.382,-204.921)">
			<title>Dynamic connector.313</title>
			<path d="M7.09 213.72 L7.09 418.14" class="st6"/>
		</g>
		<g id="shape314-109" transform="translate(20,-212.008)">
			<title>Dynamic connector.314</title>
			<path d="M0 220.81 L562.47 220.81" class="st6"/>
		</g>
		<g id="shape316-112" transform="translate(20,-122.673)">
			<title>Dynamic connector.316</title>
			<path d="M0 206.63 L562.47 206.63" class="st6"/>
		</g>
		<g id="shape317-115" transform="translate(20,-117.939)">
			<title>Sheet.317</title>
			<desc>Antenna</desc>
			<rect x="0" y="203.239" width="52.5748" height="10.4816" class="st3"/>
			<text x="4" y="211.48" class="st4">Antenna</text>		</g>
		<g id="group394-118" transform="translate(47.4702,-4.80684)">
			<title>Sheet.394</title>
			<g id="shape354-119" transform="translate(-0.862079,-2.84217E-14)">
				<title>Sheet.354</title>
				<desc>0</desc>
				<rect x="0" y="206.673" width="10.8991" height="7.04773" class="st3"/>
				<text x="4" y="212.6" class="st7">0</text>			</g>
			<g id="shape355-122" transform="translate(19.2479,-2.84217E-14)">
				<title>Sheet.355</title>
				<desc>10</desc>
				<rect x="0" y="206.673" width="18.1972" height="7.04773" class="st3"/>
				<text x="4.65" y="212.6" class="st7">10</text>			</g>
			<g id="shape356-125" transform="translate(41.9721,-2.84217E-14)">
				<title>Sheet.356</title>
				<desc>20</desc>
				<rect x="0" y="206.673" width="18.1972" height="7.04773" class="st3"/>
				<text x="4.65" y="212.6" class="st7">20</text>			</g>
			<g id="shape357-128" transform="translate(62.7435,-1.7053E-13)">
				<title>Sheet.357</title>
				<desc>30</desc>
				<rect x="0" y="206.673" width="18.1972" height="7.04773" class="st3"/>
				<text x="4.65" y="212.6" class="st7">30</text>			</g>
			<g id="shape358-131" transform="translate(84.3286,-8.52651E-14)">
				<title>Sheet.358</title>
				<desc>40</desc>
				<rect x="0" y="206.673" width="18.1972" height="7.04773" class="st3"/>
				<text x="4.65" y="212.6" class="st7">40</text>			</g>
			<g id="shape359-134" transform="translate(106.299,-1.7053E-13)">
				<title>Sheet.359</title>
				<desc>50</desc>
				<rect x="0" y="206.673" width="18.1972" height="7.04773" class="st3"/>
				<text x="4.65" y="212.6" class="st7">50</text>			</g>
			<g id="shape360-137" transform="translate(127.499,-2.84217E-14)">
				<title>Sheet.360</title>
				<desc>60</desc>
				<rect x="0" y="206.673" width="18.1972" height="7.04773" class="st3"/>
				<text x="4.65" y="212.6" class="st7">60</text>			</g>
			<g id="shape361-140" transform="translate(149.084,-1.7053E-13)">
				<title>Sheet.361</title>
				<desc>70</desc>
				<rect x="0" y="206.673" width="18.1972" height="7.04773" class="st3"/>
				<text x="4.65" y="212.6" class="st7">70</text>			</g>
			<g id="shape362-143" transform="translate(170.669,-1.7053E-13)">
				<title>Sheet.362</title>
				<desc>80</desc>
				<rect x="0" y="206.673" width="18.1972" height="7.04773" class="st3"/>
				<text x="4.65" y="212.6" class="st7">80</text>			</g>
			<g id="shape363-146" transform="translate(192.254,-2.84217E-14)">
				<title>Sheet.363</title>
				<desc>90</desc>
				<rect x="0" y="206.673" width="18.1972" height="7.04773" class="st3"/>
				<text x="4.65" y="212.6" class="st7">90</text>			</g>
			<g id="shape364-149" transform="translate(211.861,-2.84217E-14)">
				<title>Sheet.364</title>
				<desc>100</desc>
				<rect x="0" y="206.673" width="21.7748" height="7.04773" class="st3"/>
				<text x="4.21" y="212.6" class="st7">100</text>			</g>
			<g id="shape366-152" transform="translate(233.636,-2.84217E-14)">
				<title>Sheet.366</title>
				<desc>110</desc>
				<rect x="0" y="206.673" width="21.7748" height="7.04773" class="st3"/>
				<text x="4.21" y="212.6" class="st7">110</text>			</g>
			<g id="shape367-155" transform="translate(256.02,-2.84217E-14)">
				<title>Sheet.367</title>
				<desc>120</desc>
				<rect x="0" y="206.673" width="21.7748" height="7.04773" class="st3"/>
				<text x="4.21" y="212.6" class="st7">120</text>			</g>
			<g id="shape368-158" transform="translate(276.829,-2.84217E-14)">
				<title>Sheet.368</title>
				<desc>130</desc>
				<rect x="0" y="206.673" width="21.7748" height="7.04773" class="st3"/>
				<text x="4.21" y="212.6" class="st7">130</text>			</g>
			<g id="shape369-161" transform="translate(297.898,-2.84217E-14)">
				<title>Sheet.369</title>
				<desc>140</desc>
				<rect x="0" y="206.673" width="21.7748" height="7.04773" class="st3"/>
				<text x="4.21" y="212.6" class="st7">140</text>			</g>
			<g id="shape370-164" transform="translate(319.672,-1.7053E-13)">
				<title>Sheet.370</title>
				<desc>150</desc>
				<rect x="0" y="206.673" width="21.7748" height="7.04773" class="st3"/>
				<text x="4.21" y="212.6" class="st7">150</text>			</g>
			<g id="shape371-167" transform="translate(341.447,-1.7053E-13)">
				<title>Sheet.371</title>
				<desc>160</desc>
				<rect x="0" y="206.673" width="21.7748" height="7.04773" class="st3"/>
				<text x="4.21" y="212.6" class="st7">160</text>			</g>
			<g id="shape372-170" transform="translate(363.222,-2.84217E-14)">
				<title>Sheet.372</title>
				<desc>170</desc>
				<rect x="0" y="206.673" width="21.7748" height="7.04773" class="st3"/>
				<text x="4.21" y="212.6" class="st7">170</text>			</g>
			<g id="shape373-173" transform="translate(384.997,-2.84217E-14)">
				<title>Sheet.373</title>
				<desc>180</desc>
				<rect x="0" y="206.673" width="21.7748" height="7.04773" class="st3"/>
				<text x="4.21" y="212.6" class="st7">180</text>			</g>
			<g id="shape374-176" transform="translate(405.96,-1.7053E-13)">
				<title>Sheet.374</title>
				<desc>190</desc>
				<rect x="0" y="206.673" width="21.7748" height="7.04773" class="st3"/>
				<text x="4.21" y="212.6" class="st7">190</text>			</g>
			<g id="shape375-179" transform="translate(449.51,-2.84217E-14)">
				<title>Sheet.375</title>
				<desc>210</desc>
				<rect x="0" y="206.673" width="21.7748" height="7.04773" class="st3"/>
				<text x="4.21" y="212.6" class="st7">210</text>			</g>
			<g id="shape376-182" transform="translate(471.39,-2.84217E-14)">
				<title>Sheet.376</title>
				<desc>220</desc>
				<rect x="0" y="206.673" width="21.7748" height="7.04773" class="st3"/>
				<text x="4.21" y="212.6" class="st7">220</text>			</g>
			<g id="shape377-185" transform="translate(514.939,-2.84217E-14)">
				<title>Sheet.377</title>
				<desc>240</desc>
				<rect x="0" y="206.673" width="21.7748" height="7.04773" class="st3"/>
				<text x="4.21" y="212.6" class="st7">240</text>			</g>
			<g id="shape378-188" transform="translate(427.735,-2.84217E-14)">
				<title>Sheet.378</title>
				<desc>200</desc>
				<rect x="0" y="206.673" width="21.7748" height="7.04773" class="st3"/>
				<text x="4.21" y="212.6" class="st7">200</text>			</g>
			<g id="shape379-191" transform="translate(493.165,-2.84217E-14)">
				<title>Sheet.379</title>
				<desc>230</desc>
				<rect x="0" y="206.673" width="21.7748" height="7.04773" class="st3"/>
				<text x="4.21" y="212.6" class="st7">230</text>			</g>
			<g id="shape324-194" transform="translate(143.684,-21.0809)">
				<title>Dynamic connector.160</title>
				<path d="M-7.09 218.32 L-7.09 223.29" class="st6"/>
			</g>
			<g id="shape325-197" transform="translate(165.269,-21.086)">
				<title>Dynamic connector.161</title>
				<path d="M-7.09 218.32 L-7.09 223.29" class="st6"/>
			</g>
			<g id="shape326-200" transform="translate(186.854,-21.0912)">
				<title>Dynamic connector.162</title>
				<path d="M-7.09 218.32 L-7.09 223.29" class="st6"/>
			</g>
			<g id="shape327-203" transform="translate(316.365,-21.1259)">
				<title>Dynamic connector.163</title>
				<path d="M-7.09 218.32 L-7.09 223.29" class="st6"/>
			</g>
			<g id="shape328-206" transform="translate(273.195,-21.1137)">
				<title>Dynamic connector.164</title>
				<path d="M-7.09 218.32 L-7.09 223.29" class="st6"/>
			</g>
			<g id="shape380-209" transform="translate(64.7555,-21.0516)">
				<title>Dynamic connector.380</title>
				<path d="M7.09 218.32 L7.09 223.29" class="st6"/>
			</g>
			<g id="shape381-212" transform="translate(86.3406,-21.0516)">
				<title>Dynamic connector.381</title>
				<path d="M7.09 218.32 L7.09 223.29" class="st6"/>
			</g>
			<g id="shape382-215" transform="translate(194.266,-21.0414)">
				<title>Dynamic connector.382</title>
				<path d="M7.09 218.32 L7.09 223.29" class="st6"/>
			</g>
			<g id="shape383-218" transform="translate(230.025,-21.1019)">
				<title>Dynamic connector.383</title>
				<path d="M-7.09 218.32 L-7.09 223.29" class="st6"/>
			</g>
			<g id="shape384-221" transform="translate(251.61,-21.1078)">
				<title>Dynamic connector.384</title>
				<path d="M-7.09 218.32 L-7.09 223.29" class="st6"/>
			</g>
			<g id="shape385-224" transform="translate(467.521,-20.9716)">
				<title>Dynamic connector.385</title>
				<path d="M-7.05 218.13 L-7.12 223.48" class="st6"/>
			</g>
			<g id="group393-227" transform="translate(0,-6.95865)">
				<title>Sheet.393</title>
				<g id="shape389-228" transform="translate(4.80721,-2.706)">
					<title>Dynamic connector.155</title>
					<path d="M0 206.8 L520.46 206.47" class="st6"/>
				</g>
				<g id="shape320-231" transform="translate(-2.2794,-14.2268)">
					<title>Dynamic connector.156</title>
					<path d="M7.09 218.32 L7.09 223.29" class="st6"/>
				</g>
				<g id="shape321-234" transform="translate(21.5852,-14.2268)">
					<title>Dynamic connector.157</title>
					<path d="M7.09 218.32 L7.09 223.29" class="st6"/>
				</g>
				<g id="shape322-237" transform="translate(43.1703,-14.2268)">
					<title>Dynamic connector.158</title>
					<path d="M7.09 218.32 L7.09 223.29" class="st6"/>
				</g>
				<g id="shape323-240" transform="translate(107.926,-14.2268)">
					<title>Dynamic connector.159</title>
					<path d="M7.09 218.32 L7.09 223.29" class="st6"/>
				</g>
				<g id="shape329-243" transform="translate(280.607,-14.2268)">
					<title>Dynamic connector.165</title>
					<path d="M7.09 218.32 L7.09 223.29" class="st6"/>
				</g>
				<g id="shape330-246" transform="translate(323.788,-14.1732)">
					<title>Dynamic connector.166</title>
					<path d="M7.08 218.32 L7.1 223.29" class="st6"/>
				</g>
				<g id="shape331-249" transform="translate(359.558,-14.179)">
					<title>Dynamic connector.167</title>
					<path d="M-7.09 218.32 L-7.09 223.29" class="st6"/>
				</g>
				<g id="shape332-252" transform="translate(381.143,-14.1849)">
					<title>Dynamic connector.168</title>
					<path d="M-7.09 218.32 L-7.09 223.29" class="st6"/>
				</g>
				<g id="shape333-255" transform="translate(402.728,-14.191)">
					<title>Dynamic connector.169</title>
					<path d="M-7.09 218.32 L-7.09 223.29" class="st6"/>
				</g>
				<g id="shape334-258" transform="translate(424.314,-14.1969)">
					<title>Dynamic connector.170</title>
					<path d="M-7.09 218.32 L-7.09 223.29" class="st6"/>
				</g>
				<g id="shape342-261" transform="translate(445.899,-14.2028)">
					<title>Dynamic connector.190</title>
					<path d="M-7.09 218.32 L-7.09 223.29" class="st6"/>
				</g>
				<g id="shape386-264" transform="translate(489.166,-14.2146)">
					<title>Dynamic connector.386</title>
					<path d="M-7.06 218.32 L-7.11 223.29" class="st6"/>
				</g>
				<g id="shape387-267" transform="translate(496.6,-14.219)">
					<title>Dynamic connector.387</title>
					<path d="M7.09 218.11 L7.09 223.5" class="st6"/>
				</g>
				<g id="shape392-270" transform="translate(518.186,-14.219)">
					<title>Dynamic connector.392</title>
					<path d="M7.09 218.11 L7.09 223.5" class="st6"/>
				</g>
			</g>
		</g>
		<g id="shape396-273" transform="translate(20,-58.0644)">
			<title>Sheet.396</title>
			<desc>Antenna diversity module</desc>
			<rect x="0" y="203.239" width="121.98" height="10.4816" class="st3"/>
			<text x="4" y="211.48" class="st4">Antenna diversity module</text>		</g>
		<g id="shape397-276" transform="translate(18.3891,-89.2143)">
			<title>Sheet.397</title>
			<desc>1</desc>
			<rect x="0" y="203.239" width="15.6575" height="10.4816" class="st3"/>
			<text x="4" y="211.48" class="st4">1</text>		</g>
		<g id="shape398-279" transform="translate(18.3891,-76.8617)">
			<title>Sheet.398</title>
			<desc>0</desc>
			<rect x="0" y="203.239" width="15.6575" height="10.4816" class="st3"/>
			<text x="4" y="211.48" class="st4">0</text>		</g>
		<g id="shape399-282" transform="translate(246.12,-111.625)">
			<title>Sheet.399</title>
			<desc>180 us - configurable</desc>
			<rect x="0" y="203.239" width="103.598" height="10.4816" class="st3"/>
			<text x="5.1" y="211.48" class="st4">180 us - configurable</text>		</g>
		<g id="shape400-285" transform="translate(197.897,-75.673)">
			<title>Sheet.400</title>
			<desc>Select best antenna</desc>
			<rect x="0" y="203.239" width="97.1535" height="10.4816" class="st3"/>
			<text x="4.38" y="211.48" class="st8">Select best antenna</text>		</g>
		<g id="shape401-288" transform="translate(464.483,-111.625)">
			<title>Sheet.401</title>
			<desc>40 us - configurable</desc>
			<rect x="0" y="203.239" width="97.1535" height="10.4816" class="st3"/>
			<text x="4.66" y="211.48" class="st4">40 us - configurable</text>		</g>
		<g id="shape402-291" transform="translate(464.483,-44.8698)">
			<title>Sheet.402</title>
			<desc>TIMEOUT</desc>
			<rect x="0" y="203.239" width="54.2714" height="10.4816" class="st3"/>
			<text x="4.64" y="211.48" class="st8">TIMEOUT</text>		</g>
		<g id="shape262-294" transform="translate(26.0057,-151.02)">
			<title>Dynamic connector.262</title>
			<path d="M0 206.63 L20.04 206.63" class="st6"/>
		</g>
		<g id="shape263-297" transform="translate(42.5001,-161.65)">
			<title>Dynamic connector.263</title>
			<path d="M3.54 217.26 L10.63 224.35" class="st6"/>
		</g>
		<g id="shape264-300" transform="translate(56.6733,-154.563)">
			<title>Dynamic connector.264</title>
			<path d="M-3.54 217.26 L-10.63 224.35" class="st6"/>
		</g>
		<g id="shape270-303" transform="translate(87.0995,-140.39)">
			<title>Dynamic connector.270</title>
			<path d="M-3.54 210.18 L-10.63 203.09" class="st6"/>
		</g>
		<g id="shape271-306" transform="translate(72.9262,-147.476)">
			<title>Dynamic connector.271</title>
			<path d="M3.54 210.18 L10.63 203.09" class="st6"/>
		</g>
		<g id="shape272-309" transform="translate(83.5562,-165.193)">
			<title>Dynamic connector.272</title>
			<path d="M0 220.81 L373.69 220.81" class="st6"/>
		</g>
		<g id="shape288-312" transform="translate(454.067,-161.65)">
			<title>Dynamic connector.288</title>
			<path d="M3.54 217.26 L10.63 224.35" class="st6"/>
		</g>
		<g id="shape289-315" transform="translate(468.24,-154.563)">
			<title>Dynamic connector.289</title>
			<path d="M-3.54 217.26 L-10.63 224.35" class="st6"/>
		</g>
		<g id="shape290-318" transform="translate(475.327,-140.39)">
			<title>Dynamic connector.290</title>
			<path d="M-3.54 210.18 L-10.63 203.09" class="st6"/>
		</g>
		<g id="shape291-321" transform="translate(461.154,-147.476)">
			<title>Dynamic connector.291</title>
			<path d="M3.54 210.18 L10.63 203.09" class="st6"/>
		</g>
		<g id="shape292-324" transform="translate(577.899,-165.193)">
			<title>Dynamic connector.292</title>
			<path d="M0 220.81 L-106.12 220.81" class="st6"/>
		</g>
		<g id="shape294-327" transform="translate(20,-144.624)">
			<title>Sheet.294</title>
			<desc>Disabled</desc>
			<rect x="0" y="201.471" width="32.1214" height="12.25" class="st3"/>
			<text x="4.39" y="209.4" class="st9">Disabled</text>		</g>
		<g id="shape295-330" transform="translate(54.3891,-144.911)">
			<title>Sheet.295</title>
			<desc>RX_ IDLE</desc>
			<rect x="0" y="201.471" width="22.0804" height="12.25" class="st3"/>
			<text x="5.2" y="205.8" class="st9">RX_ <tspan x="4.37" dy="1.2em" class="st10">IDLE</tspan></text>		</g>
		<g id="shape296-334" transform="translate(259.549,-144.624)">
			<title>Sheet.296</title>
			<desc>Preamble</desc>
			<rect x="0" y="201.471" width="59.6614" height="12.25" class="st3"/>
			<text x="12.71" y="210" class="st7">Preamble</text>		</g>
		<g id="shape298-337" transform="translate(504.927,-144.624)">
			<title>Sheet.298</title>
			<desc>RX_IDLE</desc>
			<rect x="0" y="201.471" width="59.6614" height="12.25" class="st3"/>
			<text x="13.16" y="210" class="st7">RX_IDLE</text>		</g>
		<g id="shape407-340" transform="translate(20,-62.9171)">
			<title>Dynamic connector.407</title>
			<path d="M0 206.63 L562.47 206.63" class="st6"/>
		</g>
		<g id="group408-343" transform="translate(77.3498,-96.523)">
			<title>Sheet.408</title>
			<g id="shape404-344" transform="translate(387.332,0)">
				<title>Dynamic connector.404</title>
				<path d="M6.68 206.63 L7.04 206.63 L79.39 206.63" class="st11"/>
			</g>
			<g id="shape405-353">
				<title>Dynamic connector.405</title>
				<path d="M6.68 206.63 L7.04 206.63 L380.29 206.63" class="st11"/>
			</g>
		</g>
		<g id="shape403-360" transform="translate(457.611,-149.791)">
			<title>Dynamic connector.403</title>
			<path d="M7.09 213.72 L7.09 311.88" class="st13"/>
		</g>
		<g id="shape450-366" transform="translate(190.577,-36.5945)">
			<title>Dynamic connector.450</title>
			<path d="M7.09 213.72 L7.09 162.21" class="st13"/>
		</g>
		<g id="group465-371" transform="translate(29.9655,-73.7633)">
			<title>Sheet.465</title>
			<g id="shape459-372">
				<title>Dynamic connector.405</title>
				<path d="M0 206.63 L79.1 206.63" class="st15"/>
			</g>
			<g id="shape461-375" transform="translate(72.0091,-23.3982)">
				<title>Dynamic connector.461</title>
				<path d="M7.09 213.72 L7.09 230.03" class="st15"/>
			</g>
			<g id="shape462-378" transform="translate(521.975,-16.3115)">
				<title>Dynamic connector.462</title>
				<path d="M0 206.63 L-442.88 206.63" class="st15"/>
			</g>
			<g id="shape463-381" transform="translate(521.798,0)">
				<title>Dynamic connector.463</title>
				<path d="M0 206.63 L21.61 206.63" class="st15"/>
			</g>
			<g id="shape464-384" transform="translate(514.888,-23.3982)">
				<title>Dynamic connector.464</title>
				<path d="M7.09 213.72 L7.09 230.45" class="st15"/>
			</g>
		</g>
		<g id="shape466-387" transform="translate(12.9134,-204.921)">
			<title>Dynamic connector.466</title>
			<path d="M7.09 213.72 L7.09 418.14" class="st6"/>
		</g>
		<g id="shape659-390" transform="translate(62.4679,-140.39)">
			<title>Dynamic connector.659</title>
			<path d="M-5.81 210.18 L-8.36 203.09" class="st6"/>
		</g>
		<g id="shape660-393" transform="translate(48.2947,-147.476)">
			<title>Dynamic connector.660</title>
			<path d="M5.81 210.18 L8.36 203.09" class="st6"/>
		</g>
		<g id="shape661-396" transform="translate(56.6569,-151.02)">
			<title>Dynamic connector.661</title>
			<path d="M0 206.63 L16.82 206.63" class="st6"/>
		</g>
		<g id="shape662-399" transform="translate(67.7443,-161.65)">
			<title>Dynamic connector.662</title>
			<path d="M5.73 217.26 L8.44 224.35" class="st6"/>
		</g>
		<g id="shape663-402" transform="translate(81.9175,-154.563)">
			<title>Dynamic connector.663</title>
			<path d="M-5.73 217.26 L-8.44 224.35" class="st6"/>
		</g>
		<g id="shape664-405" transform="translate(56.6569,-136.846)">
			<title>Dynamic connector.664</title>
			<path d="M0 206.63 L16.82 206.63" class="st6"/>
		</g>
		<g id="shape671-408" transform="translate(20,-184.657)">
			<title>Dynamic connector.671</title>
			<path d="M0 206.63 L30.3 206.63" class="st6"/>
		</g>
		<g id="shape672-411" transform="translate(47.2429,-191.246)">
			<title>Dynamic connector.672</title>
			<path d="M3.06 213.22 L11.11 200.05" class="st6"/>
		</g>
		<g id="shape673-414" transform="translate(20.1645,-109.496)">
			<title>Dynamic connector.673</title>
			<path d="M0 206.63 L42.23 206.63" class="st6"/>
		</g>
		<g id="shape674-417" transform="translate(59.3351,-116.085)">
			<title>Dynamic connector.674</title>
			<path d="M3.06 213.22 L11.11 200.05" class="st6"/>
		</g>
		<g id="shape675-420" transform="translate(19.901,-49.5254)">
			<title>Dynamic connector.675</title>
			<path d="M0 206.63 L116.86 206.63" class="st6"/>
		</g>
		<g id="shape676-423" transform="translate(133.7,-56.1139)">
			<title>Dynamic connector.676</title>
			<path d="M3.06 213.22 L11.11 200.05" class="st6"/>
		</g>
		<g id="group678-426" transform="translate(25.7038,-22.3816)">
			<title>Sheet.678</title>
			<g id="shape410-427" transform="translate(3.63574,-2.55795E-13)">
				<title>Dynamic connector.410</title>
				<path d="M0 206.63 L15.32 206.63" class="st6"/>
			</g>
			<g id="shape411-430" transform="translate(179.347,-3.69482E-13)">
				<title>Dynamic connector.411</title>
				<path d="M0 206.63 L313.94 206.63" class="st6"/>
			</g>
			<g id="shape412-433" transform="translate(546.575,-14.1732)">
				<title>Dynamic connector.412</title>
				<path d="M0 220.81 L-39.12 220.81" class="st6"/>
			</g>
			<g id="shape415-436" transform="translate(3.63574,-14.1732)">
				<title>Dynamic connector.415</title>
				<path d="M0 206.63 L15.32 206.63" class="st6"/>
			</g>
			<g id="shape416-439" transform="translate(15.4122,-24.8031)">
				<title>Dynamic connector.416</title>
				<path d="M3.54 217.26 L10.63 224.35" class="st6"/>
			</g>
			<g id="shape417-442" transform="translate(29.5854,-17.7165)">
				<title>Dynamic connector.417</title>
				<path d="M-3.54 217.26 L-10.63 224.35" class="st6"/>
			</g>
			<g id="shape420-445" transform="translate(172.26,-14.1732)">
				<title>Dynamic connector.267</title>
			</g>
			<g id="shape423-446" transform="translate(182.89,-3.54331)">
				<title>Dynamic connector.423</title>
				<path d="M-3.54 210.18 L-10.63 203.09" class="st6"/>
			</g>
			<g id="shape424-449" transform="translate(168.717,-10.6299)">
				<title>Dynamic connector.424</title>
				<path d="M3.54 210.18 L10.63 203.09" class="st6"/>
			</g>
			<g id="shape425-452" transform="translate(179.347,-14.1732)">
				<title>Dynamic connector.425</title>
				<path d="M0 206.63 L313.86 206.63" class="st6"/>
			</g>
			<g id="shape426-455" transform="translate(489.74,-24.8031)">
				<title>Dynamic connector.426</title>
				<path d="M3.54 217.26 L10.63 224.35" class="st6"/>
			</g>
			<g id="shape427-458" transform="translate(503.914,-17.7165)">
				<title>Dynamic connector.427</title>
				<path d="M-3.54 217.26 L-10.63 224.35" class="st6"/>
			</g>
			<g id="shape428-461" transform="translate(511,-3.54331)">
				<title>Dynamic connector.428</title>
				<path d="M-3.54 210.18 L-10.63 203.09" class="st6"/>
			</g>
			<g id="shape429-464" transform="translate(496.827,-10.6299)">
				<title>Dynamic connector.429</title>
				<path d="M3.54 210.18 L10.63 203.09" class="st6"/>
			</g>
			<g id="shape430-467" transform="translate(546.575,-28.3465)">
				<title>Dynamic connector.430</title>
				<path d="M0 220.81 L-39.12 220.81" class="st6"/>
			</g>
			<g id="shape431-470" transform="translate(0,-7.98626)">
				<title>Sheet.431</title>
				<desc>Idle</desc>
				<rect x="0" y="201.471" width="22.4988" height="12.25" class="st3"/>
				<text x="4.8" y="210" class="st7">Idle</text>			</g>
			<g id="shape432-473" transform="translate(23.7562,-7.98626)">
				<title>Sheet.432</title>
				<desc>Toggle</desc>
				<rect x="0" y="201.471" width="30.5139" height="12.25" class="st3"/>
				<text x="6.08" y="209.4" class="st9">Toggle</text>			</g>
			<g id="shape433-476" transform="translate(311.608,-8.34432)">
				<title>Sheet.433</title>
				<desc>Idle</desc>
				<rect x="0" y="201.471" width="59.6614" height="12.25" class="st3"/>
				<text x="23.38" y="210" class="st7">Idle</text>			</g>
			<g id="shape434-479" transform="translate(507.457,-8.34432)">
				<title>Sheet.434</title>
				<desc>Toggle</desc>
				<rect x="0" y="201.471" width="39.685" height="12.25" class="st3"/>
				<text x="7.61" y="210" class="st7">Toggle</text>			</g>
			<g id="shape436-482" transform="translate(58.1667,-3.97904E-13)">
				<title>Dynamic connector.436</title>
				<path d="M0 206.63 L71.08 206.63" class="st6"/>
			</g>
			<g id="shape437-485" transform="translate(61.71,-3.54331)">
				<title>Dynamic connector.437</title>
				<path d="M-3.54 210.18 L-10.63 203.09" class="st6"/>
			</g>
			<g id="shape438-488" transform="translate(47.5368,-10.6299)">
				<title>Dynamic connector.438</title>
				<path d="M3.54 210.18 L10.63 203.09" class="st6"/>
			</g>
			<g id="shape439-491" transform="translate(125.704,-24.8031)">
				<title>Dynamic connector.439</title>
				<path d="M3.54 217.26 L10.63 224.35" class="st6"/>
			</g>
			<g id="shape440-494" transform="translate(139.877,-17.7165)">
				<title>Dynamic connector.440</title>
				<path d="M-3.54 217.26 L-10.63 224.35" class="st6"/>
			</g>
			<g id="shape441-497" transform="translate(69.4126,-8.27037)">
				<title>Sheet.441</title>
				<desc>rssi_settle</desc>
				<rect x="0" y="201.471" width="46.272" height="12.25" class="st3"/>
				<text x="5.13" y="210" class="st7">rssi_settle</text>			</g>
			<g id="shape442-500" transform="translate(58.1667,-28.3465)">
				<title>Dynamic connector.442</title>
				<path d="M0 220.81 L71.08 220.81" class="st6"/>
			</g>
			<g id="shape443-503" transform="translate(144.268,-14.1732)">
				<title>Dynamic connector.443</title>
				<path d="M0 220.81 L20.2 220.81" class="st6"/>
			</g>
			<g id="shape444-506" transform="translate(147.811,-3.54331)">
				<title>Dynamic connector.444</title>
				<path d="M-3.54 210.18 L-10.63 203.09" class="st6"/>
			</g>
			<g id="shape445-509" transform="translate(133.638,-10.6299)">
				<title>Dynamic connector.445</title>
				<path d="M3.54 210.18 L10.63 203.09" class="st6"/>
			</g>
			<g id="shape446-512" transform="translate(160.922,-24.8031)">
				<title>Dynamic connector.446</title>
				<path d="M3.54 217.26 L10.63 224.35" class="st6"/>
			</g>
			<g id="shape447-515" transform="translate(175.095,-17.7165)">
				<title>Dynamic connector.447</title>
				<path d="M-3.54 217.26 L-10.63 224.35" class="st6"/>
			</g>
			<g id="shape448-518" transform="translate(136.796,-8.34432)">
				<title>Sheet.448</title>
				<desc>rssi_settle</desc>
				<rect x="0" y="201.471" width="35.1968" height="12.25" class="st3"/>
				<text x="4.09" y="209.4" class="st9">rssi_settle</text>			</g>
			<g id="shape449-521" transform="translate(144.268,-28.3465)">
				<title>Dynamic connector.449</title>
				<path d="M0 220.81 L20.2 220.81" class="st6"/>
			</g>
			<g id="shape665-524" transform="translate(35.3114,-3.54331)">
				<title>Dynamic connector.665</title>
				<path d="M-5.81 210.18 L-8.36 203.09" class="st6"/>
			</g>
			<g id="shape666-527" transform="translate(21.1381,-10.6299)">
				<title>Dynamic connector.666</title>
				<path d="M5.81 210.18 L8.36 203.09" class="st6"/>
			</g>
			<g id="shape667-530" transform="translate(29.5004,-14.1732)">
				<title>Dynamic connector.667</title>
				<path d="M0 206.63 L18.27 206.63" class="st6"/>
			</g>
			<g id="shape668-533" transform="translate(42.0405,-24.8031)">
				<title>Dynamic connector.668</title>
				<path d="M5.73 217.26 L8.44 224.35" class="st6"/>
			</g>
			<g id="shape669-536" transform="translate(56.2138,-17.7165)">
				<title>Dynamic connector.669</title>
				<path d="M-5.73 217.26 L-8.44 224.35" class="st6"/>
			</g>
			<g id="shape670-539" transform="translate(29.5004,-2.55795E-13)">
				<title>Dynamic connector.670</title>
				<path d="M0 206.63 L18.27 206.63" class="st6"/>
			</g>
		</g>
	</g>
</svg>
