<?xml version="1.0" encoding="UTF-8" standalone="no"?>
<!DOCTYPE svg PUBLIC "-//W3C//DTD SVG 1.1//EN" "http://www.w3.org/Graphics/SVG/1.1/DTD/svg11.dtd">
<!-- Generated by Microsoft Visio, SVG Export ant_diversity_rx_timing.svg Page-1 -->
<svg xmlns="http://www.w3.org/2000/svg" xmlns:xlink="http://www.w3.org/1999/xlink" xmlns:ev="http://www.w3.org/2001/xml-events"
		width="8.36762in" height="2.7923in" viewBox="0 0 602.469 201.046" xml:space="preserve" color-interpolation-filters="sRGB"
		class="st17">
	<style type="text/css">
	<![CDATA[
		.st1 {stroke:#d9e1e2;stroke-dasharray:1,2;stroke-linecap:butt;stroke-width:1}
		.st2 {stroke:#768692;stroke-dasharray:4,2;stroke-linecap:butt;stroke-width:1}
		.st3 {fill:none;stroke:none;stroke-width:1}
		.st4 {fill:#333f48;font-family:Arial;font-size:0.833336em}
		.st5 {stroke:#333f48;stroke-linecap:round;stroke-linejoin:round;stroke-width:1}
		.st6 {fill:#00a9ce;font-family:Arial;font-size:0.833336em}
		.st7 {fill:#333f48;font-family:Arial;font-size:0.666664em}
		.st8 {fill:#00a9ce;font-family:Arial;font-size:0.75em}
		.st9 {font-size:1em}
		.st10 {fill:#333f48;font-family:Arial;font-size:0.499992em}
		.st11 {marker-end:url(#mrkr4-155);marker-start:url(#mrkr4-153);stroke:#ee2f4e;stroke-linecap:butt;stroke-width:1}
		.st12 {fill:#ee2f4e;fill-opacity:1;stroke:#ee2f4e;stroke-opacity:1;stroke-width:0.28409090909091}
		.st13 {marker-end:url(#mrkr4-168);stroke:#00a9ce;stroke-linecap:butt;stroke-width:1}
		.st14 {fill:#00a9ce;fill-opacity:1;stroke:#00a9ce;stroke-opacity:1;stroke-width:0.28409090909091}
		.st15 {stroke:#0033a0;stroke-linecap:butt;stroke-width:1}
		.st16 {font-size:0.799995em}
		.st17 {fill:none;fill-rule:evenodd;font-size:12px;overflow:visible;stroke-linecap:square;stroke-miterlimit:3}
	]]>
	</style>

	<defs id="Markers">
		<g id="lend4">
			<path d="M 2 1 L 0 0 L 2 -1 L 2 1 " style="stroke:none"/>
		</g>
		<marker id="mrkr4-153" class="st12" refX="6.68" orient="auto" markerUnits="strokeWidth" overflow="visible">
			<use xlink:href="#lend4" transform="scale(3.52) "/>
		</marker>
		<marker id="mrkr4-155" class="st12" refX="-7.04" orient="auto" markerUnits="strokeWidth" overflow="visible">
			<use xlink:href="#lend4" transform="scale(-3.52,-3.52) "/>
		</marker>
		<marker id="mrkr4-168" class="st14" refX="-7.04" orient="auto" markerUnits="strokeWidth" overflow="visible">
			<use xlink:href="#lend4" transform="scale(-3.52,-3.52) "/>
		</marker>
	</defs>
	<g>
		<title>Page-1</title>
		<g id="group721-1" transform="translate(45.9947,-13.0856)">
			<title>Sheet.721</title>
			<g id="shape467-2" transform="translate(46.7486,-186.702)">
				<title>Dynamic connector.467</title>
				<path d="M-6.22 201.05 L-7.95 387.75" class="st1"/>
			</g>
			<g id="shape458-5" transform="translate(14.1732,-186.702)">
				<title>Dynamic connector.458</title>
				<path d="M-6.17 201.05 L-8 387.75" class="st1"/>
			</g>
			<g id="shape476-8" transform="translate(79.2763,-186.702)">
				<title>Dynamic connector.476</title>
				<path d="M-6.22 201.05 L-7.95 387.75" class="st1"/>
			</g>
			<g id="shape477-11" transform="translate(111.804,-186.702)">
				<title>Dynamic connector.477</title>
				<path d="M-6.22 201.05 L-7.95 387.75" class="st1"/>
			</g>
			<g id="shape636-14" transform="translate(144.332,-186.702)">
				<title>Dynamic connector.636</title>
				<path d="M-6.22 201.05 L-7.95 387.75" class="st1"/>
			</g>
			<g id="shape637-17" transform="translate(176.859,-186.702)">
				<title>Dynamic connector.637</title>
				<path d="M-6.22 201.05 L-7.95 387.75" class="st1"/>
			</g>
			<g id="shape639-20" transform="translate(209.387,-186.702)">
				<title>Dynamic connector.639</title>
				<path d="M-6.22 201.05 L-7.95 387.75" class="st1"/>
			</g>
			<g id="shape640-23" transform="translate(241.915,-186.702)">
				<title>Dynamic connector.640</title>
				<path d="M-6.22 201.05 L-7.95 387.75" class="st1"/>
			</g>
			<g id="shape642-26" transform="translate(274.442,-186.702)">
				<title>Dynamic connector.642</title>
				<path d="M-6.22 201.05 L-7.95 387.75" class="st1"/>
			</g>
			<g id="shape645-29" transform="translate(339.498,-186.702)">
				<title>Dynamic connector.645</title>
				<path d="M-6.22 201.05 L-7.95 387.75" class="st1"/>
			</g>
			<g id="shape647-32" transform="translate(372.025,-186.702)">
				<title>Dynamic connector.647</title>
				<path d="M-6.22 201.05 L-7.95 387.75" class="st1"/>
			</g>
			<g id="shape648-35" transform="translate(404.553,-186.702)">
				<title>Dynamic connector.648</title>
				<path d="M-6.22 201.05 L-7.95 387.75" class="st1"/>
			</g>
			<g id="shape651-38" transform="translate(469.608,-186.702)">
				<title>Dynamic connector.651</title>
				<path d="M-6.22 201.05 L-7.95 387.75" class="st1"/>
			</g>
			<g id="shape653-41" transform="translate(502.136,-186.702)">
				<title>Dynamic connector.653</title>
				<path d="M-6.22 201.05 L-7.95 387.75" class="st1"/>
			</g>
			<g id="shape654-44" transform="translate(534.664,-186.702)">
				<title>Dynamic connector.654</title>
				<path d="M-6.22 201.05 L-7.95 387.75" class="st1"/>
			</g>
		</g>
		<g id="shape457-47" transform="translate(352.117,-191.899)">
			<title>Dynamic connector.457</title>
			<path d="M-7.08 201.05 L-7.09 375.23" class="st2"/>
		</g>
		<g id="shape456-50" transform="translate(468.019,-192.256)">
			<title>Dynamic connector.456</title>
			<path d="M7.06 201.05 L7.12 375.44" class="st2"/>
		</g>
		<g id="shape453-53" transform="translate(519.11,-192.486)">
			<title>Dynamic connector.453</title>
			<path d="M7.09 201.05 L7.09 375.38" class="st2"/>
		</g>
		<g id="shape301-56" transform="translate(20,-180.465)">
			<title>Sheet.301</title>
			<desc>Radio</desc>
			<rect x="0" y="190.564" width="37.1181" height="10.4816" class="st3"/>
			<text x="4" y="198.8" class="st4">Radio</text>		</g>
		<g id="shape302-59" transform="translate(26.0057,-137.21)">
			<title>Dynamic connector.302</title>
			<path d="M0 193.96 L20.04 193.96" class="st5"/>
		</g>
		<g id="shape303-62" transform="translate(60.4631,-151.384)">
			<title>Dynamic connector.303</title>
			<path d="M0 208.13 L277.49 208.13" class="st5"/>
		</g>
		<g id="shape304-65" transform="translate(577.899,-137.21)">
			<title>Dynamic connector.304</title>
			<path d="M0 193.96 L-225.78 193.96" class="st5"/>
		</g>
		<g id="shape313-68" transform="translate(575.382,-192.246)">
			<title>Dynamic connector.313</title>
			<path d="M7.09 201.05 L7.09 392.02" class="st5"/>
		</g>
		<g id="shape314-71" transform="translate(20,-199.332)">
			<title>Dynamic connector.314</title>
			<path d="M0 208.13 L562.47 208.13" class="st5"/>
		</g>
		<g id="shape316-74" transform="translate(20,-124.515)">
			<title>Dynamic connector.316</title>
			<path d="M0 193.96 L562.47 193.96" class="st5"/>
		</g>
		<g id="shape317-77" transform="translate(20,-119.78)">
			<title>Sheet.317</title>
			<desc>Antenna</desc>
			<rect x="0" y="190.564" width="52.5748" height="10.4816" class="st3"/>
			<text x="4" y="198.8" class="st4">Antenna</text>		</g>
		<g id="shape396-80" transform="translate(20,-59.9062)">
			<title>Sheet.396</title>
			<desc>Antenna diversity module</desc>
			<rect x="0" y="190.564" width="121.98" height="10.4816" class="st3"/>
			<text x="4" y="198.8" class="st4">Antenna diversity module</text>		</g>
		<g id="shape397-83" transform="translate(18.3891,-91.0561)">
			<title>Sheet.397</title>
			<desc>1</desc>
			<rect x="0" y="190.564" width="15.6575" height="10.4816" class="st3"/>
			<text x="4" y="198.8" class="st4">1</text>		</g>
		<g id="shape398-86" transform="translate(18.3891,-78.7035)">
			<title>Sheet.398</title>
			<desc>0</desc>
			<rect x="0" y="190.564" width="15.6575" height="10.4816" class="st3"/>
			<text x="4" y="198.8" class="st4">0</text>		</g>
		<g id="shape399-89" transform="translate(52.1214,-102.861)">
			<title>Sheet.399</title>
			<desc>Default 40 us - configurable</desc>
			<rect x="0" y="190.564" width="130.677" height="10.4816" class="st3"/>
			<text x="4.19" y="198.8" class="st4">Default 40 us - configurable</text>		</g>
		<g id="shape400-92" transform="translate(345.035,-44.2538)">
			<title>Sheet.400</title>
			<desc>SYNC</desc>
			<rect x="0" y="190.564" width="37.1181" height="10.4816" class="st3"/>
			<text x="4.67" y="198.8" class="st6">SYNC</text>		</g>
		<g id="shape401-95" transform="translate(345.035,-92.9958)">
			<title>Sheet.401</title>
			<desc>40 - 50 us – hardware + SW lag</desc>
			<rect x="0" y="189.871" width="130.04" height="11.1743" class="st3"/>
			<text x="8.66" y="197.86" class="st7">40 - 50 us – hardware + SW lag</text>		</g>
		<g id="shape402-98" transform="translate(525.078,-43.821)">
			<title>Sheet.402</title>
			<desc>Select best antenna</desc>
			<rect x="0" y="177.208" width="59.6614" height="23.8379" class="st3"/>
			<text x="7.57" y="186.43" class="st8">Select best <tspan x="13.56" dy="1.2em" class="st9">antenna</tspan></text>		</g>
		<g id="shape262-102" transform="translate(26.0057,-151.384)">
			<title>Dynamic connector.262</title>
			<path d="M0 193.96 L20.04 193.96" class="st5"/>
		</g>
		<g id="shape263-105" transform="translate(42.5001,-162.014)">
			<title>Dynamic connector.263</title>
			<path d="M3.54 204.59 L10.63 211.68" class="st5"/>
		</g>
		<g id="shape264-108" transform="translate(56.6733,-154.927)">
			<title>Dynamic connector.264</title>
			<path d="M-3.54 204.59 L-10.63 211.68" class="st5"/>
		</g>
		<g id="shape270-111" transform="translate(64.0064,-140.754)">
			<title>Dynamic connector.270</title>
			<path d="M-3.54 197.5 L-10.63 190.42" class="st5"/>
		</g>
		<g id="shape271-114" transform="translate(49.8332,-147.84)">
			<title>Dynamic connector.271</title>
			<path d="M3.54 197.5 L10.63 190.42" class="st5"/>
		</g>
		<g id="shape272-117" transform="translate(60.4631,-165.557)">
			<title>Dynamic connector.272</title>
			<path d="M0 208.13 L277.49 208.13" class="st5"/>
		</g>
		<g id="shape288-120" transform="translate(334.405,-162.014)">
			<title>Dynamic connector.288</title>
			<path d="M3.54 204.59 L10.63 211.68" class="st5"/>
		</g>
		<g id="shape289-123" transform="translate(348.578,-154.927)">
			<title>Dynamic connector.289</title>
			<path d="M-3.54 204.59 L-10.63 211.68" class="st5"/>
		</g>
		<g id="shape290-126" transform="translate(355.665,-140.754)">
			<title>Dynamic connector.290</title>
			<path d="M-3.54 197.5 L-10.63 190.42" class="st5"/>
		</g>
		<g id="shape291-129" transform="translate(341.492,-147.84)">
			<title>Dynamic connector.291</title>
			<path d="M3.54 197.5 L10.63 190.42" class="st5"/>
		</g>
		<g id="shape292-132" transform="translate(577.899,-165.557)">
			<title>Dynamic connector.292</title>
			<path d="M0 208.13 L-225.78 208.13" class="st5"/>
		</g>
		<g id="shape294-135" transform="translate(20,-145.445)">
			<title>Sheet.294</title>
			<desc>Disabled</desc>
			<rect x="0" y="188.796" width="32.1214" height="12.25" class="st3"/>
			<text x="4.39" y="196.72" class="st10">Disabled</text>		</g>
		<g id="shape296-138" transform="translate(387.579,-145.445)">
			<title>Sheet.296</title>
			<desc>Preamble</desc>
			<rect x="0" y="188.796" width="59.6614" height="12.25" class="st3"/>
			<text x="12.71" y="197.32" class="st7">Preamble</text>		</g>
		<g id="shape298-141" transform="translate(168.066,-145.445)">
			<title>Sheet.298</title>
			<desc>RX_IDLE</desc>
			<rect x="0" y="188.796" width="59.6614" height="12.25" class="st3"/>
			<text x="13.16" y="197.32" class="st7">RX_IDLE</text>		</g>
		<g id="shape407-144" transform="translate(20,-64.7588)">
			<title>Dynamic connector.407</title>
			<path d="M0 193.96 L562.47 193.96" class="st5"/>
		</g>
		<g id="shape404-147" transform="translate(475.076,-98.3647)">
			<title>Dynamic connector.404</title>
			<path d="M6.68 193.96 L7.04 193.96 L43.25 193.96" class="st11"/>
		</g>
		<g id="shape405-156" transform="translate(344.977,-83.9695)">
			<title>Dynamic connector.405</title>
			<path d="M6.68 193.96 L7.04 193.96 L123.06 193.96" class="st11"/>
		</g>
		<g id="shape403-163" transform="translate(519.133,-34.8457)">
			<title>Dynamic connector.403</title>
			<path d="M7.09 201.05 L7.09 160.65" class="st13"/>
		</g>
		<g id="shape450-169" transform="translate(337.948,-150.25)">
			<title>Dynamic connector.450</title>
			<path d="M7.09 201.05 L7.09 307.49" class="st13"/>
		</g>
		<g id="shape459-174" transform="translate(29.9655,-75.605)">
			<title>Dynamic connector.459</title>
			<path d="M0 193.96 L152.83 193.96" class="st15"/>
		</g>
		<g id="shape461-177" transform="translate(175.712,-99.0032)">
			<title>Dynamic connector.461</title>
			<path d="M7.09 201.05 L7.09 217.36" class="st15"/>
		</g>
		<g id="shape462-180" transform="translate(315.415,-106.232)">
			<title>Dynamic connector.462</title>
			<path d="M0 207.99 L-132.62 208.27" class="st15"/>
		</g>
		<g id="shape463-183" transform="translate(526.197,-75.3952)">
			<title>Dynamic connector.463</title>
			<path d="M0 194.17 L47.18 193.75" class="st15"/>
		</g>
		<g id="shape464-186" transform="translate(519.11,-99.0032)">
			<title>Dynamic connector.464</title>
			<path d="M7.09 201.05 L7.09 217.78" class="st15"/>
		</g>
		<g id="shape466-189" transform="translate(12.9134,-192.246)">
			<title>Dynamic connector.466</title>
			<path d="M7.09 201.05 L7.09 392.02" class="st5"/>
		</g>
		<g id="shape671-192" transform="translate(20,-171.982)">
			<title>Dynamic connector.671</title>
			<path d="M0 193.96 L30.3 193.96" class="st5"/>
		</g>
		<g id="shape672-195" transform="translate(47.2429,-178.571)">
			<title>Dynamic connector.672</title>
			<path d="M3.06 200.55 L11.11 187.37" class="st5"/>
		</g>
		<g id="shape673-198" transform="translate(20.1645,-111.338)">
			<title>Dynamic connector.673</title>
			<path d="M0 193.96 L42.23 193.96" class="st5"/>
		</g>
		<g id="shape674-201" transform="translate(59.3351,-117.927)">
			<title>Dynamic connector.674</title>
			<path d="M3.06 200.55 L11.11 187.37" class="st5"/>
		</g>
		<g id="shape675-204" transform="translate(19.901,-51.3672)">
			<title>Dynamic connector.675</title>
			<path d="M0 193.96 L116.86 193.96" class="st5"/>
		</g>
		<g id="shape676-207" transform="translate(133.7,-57.9557)">
			<title>Dynamic connector.676</title>
			<path d="M3.06 200.55 L11.11 187.37" class="st5"/>
		</g>
		<g id="group679-210" transform="translate(45.1908,-1.27607)">
			<title>Sheet.679</title>
			<g id="shape354-211" transform="translate(1.41732,0)">
				<title>Sheet.354</title>
				<desc>0</desc>
				<rect x="0" y="193.998" width="10.8991" height="7.04773" class="st3"/>
				<text x="4" y="199.92" class="st7">0</text>			</g>
			<g id="shape355-214" transform="translate(30.5157,0)">
				<title>Sheet.355</title>
				<desc>10</desc>
				<rect x="0" y="193.998" width="18.1972" height="7.04773" class="st3"/>
				<text x="4.65" y="199.92" class="st7">10</text>			</g>
			<g id="shape356-217" transform="translate(63.0433,0)">
				<title>Sheet.356</title>
				<desc>20</desc>
				<rect x="0" y="193.998" width="18.1972" height="7.04773" class="st3"/>
				<text x="4.65" y="199.92" class="st7">20</text>			</g>
			<g id="shape357-220" transform="translate(95.571,-1.13687E-13)">
				<title>Sheet.357</title>
				<desc>30</desc>
				<rect x="0" y="193.998" width="18.1972" height="7.04773" class="st3"/>
				<text x="4.65" y="199.92" class="st7">30</text>			</g>
			<g id="shape358-223" transform="translate(128.099,-5.68434E-14)">
				<title>Sheet.358</title>
				<desc>40</desc>
				<rect x="0" y="193.998" width="18.1972" height="7.04773" class="st3"/>
				<text x="4.65" y="199.92" class="st7">40</text>			</g>
			<g id="shape359-226" transform="translate(160.626,-1.13687E-13)">
				<title>Sheet.359</title>
				<desc>50</desc>
				<rect x="0" y="193.998" width="18.1972" height="7.04773" class="st3"/>
				<text x="4.65" y="199.92" class="st7">50</text>			</g>
			<g id="shape360-229" transform="translate(193.154,0)">
				<title>Sheet.360</title>
				<desc>60</desc>
				<rect x="0" y="193.998" width="18.1972" height="7.04773" class="st3"/>
				<text x="4.65" y="199.92" class="st7">60</text>			</g>
			<g id="shape361-232" transform="translate(225.682,-1.13687E-13)">
				<title>Sheet.361</title>
				<desc>70</desc>
				<rect x="0" y="193.998" width="18.1972" height="7.04773" class="st3"/>
				<text x="4.65" y="199.92" class="st7">70</text>			</g>
			<g id="shape362-235" transform="translate(257.779,-1.13687E-13)">
				<title>Sheet.362</title>
				<desc>80</desc>
				<rect x="0" y="193.998" width="18.1972" height="7.04773" class="st3"/>
				<text x="4.65" y="199.92" class="st7">80</text>			</g>
			<g id="shape363-238" transform="translate(290.737,0)">
				<title>Sheet.363</title>
				<desc>90</desc>
				<rect x="0" y="193.998" width="18.1972" height="7.04773" class="st3"/>
				<text x="4.65" y="199.92" class="st7">90</text>			</g>
			<g id="shape364-241" transform="translate(321.548,0)">
				<title>Sheet.364</title>
				<desc>100</desc>
				<rect x="0" y="193.998" width="21.7748" height="7.04773" class="st3"/>
				<text x="4.21" y="199.92" class="st7">100</text>			</g>
			<g id="shape366-244" transform="translate(354.003,0)">
				<title>Sheet.366</title>
				<desc>110</desc>
				<rect x="0" y="193.998" width="21.7748" height="7.04773" class="st3"/>
				<text x="4.21" y="199.92" class="st7">110</text>			</g>
			<g id="shape367-247" transform="translate(386.531,0)">
				<title>Sheet.367</title>
				<desc>120</desc>
				<rect x="0" y="193.998" width="21.7748" height="7.04773" class="st3"/>
				<text x="4.21" y="199.92" class="st7">120</text>			</g>
			<g id="shape368-250" transform="translate(419.059,0)">
				<title>Sheet.368</title>
				<desc>130</desc>
				<rect x="0" y="193.998" width="21.7748" height="7.04773" class="st3"/>
				<text x="4.21" y="199.92" class="st7">130</text>			</g>
			<g id="shape369-253" transform="translate(451.586,0)">
				<title>Sheet.369</title>
				<desc>140</desc>
				<rect x="0" y="193.998" width="21.7748" height="7.04773" class="st3"/>
				<text x="4.21" y="199.92" class="st7">140</text>			</g>
			<g id="shape370-256" transform="translate(484.114,-1.13687E-13)">
				<title>Sheet.370</title>
				<desc>150</desc>
				<rect x="0" y="193.998" width="21.7748" height="7.04773" class="st3"/>
				<text x="4.21" y="199.92" class="st7">150</text>			</g>
			<g id="shape371-259" transform="translate(516.664,-1.13687E-13)">
				<title>Sheet.371</title>
				<desc>160</desc>
				<rect x="0" y="193.998" width="21.7748" height="7.04773" class="st3"/>
				<text x="4.21" y="199.92" class="st7">160</text>			</g>
			<g id="shape324-262" transform="translate(209.339,-21.0809)">
				<title>Dynamic connector.160</title>
				<path d="M-7.09 205.65 L-7.09 210.62" class="st5"/>
			</g>
			<g id="shape325-265" transform="translate(241.867,-21.086)">
				<title>Dynamic connector.161</title>
				<path d="M-7.09 205.65 L-7.09 210.62" class="st5"/>
			</g>
			<g id="shape326-268" transform="translate(274.395,-21.0912)">
				<title>Dynamic connector.162</title>
				<path d="M-7.09 205.65 L-7.09 210.62" class="st5"/>
			</g>
			<g id="shape327-271" transform="translate(469.56,-21.1259)">
				<title>Dynamic connector.163</title>
				<path d="M-7.09 205.65 L-7.09 210.62" class="st5"/>
			</g>
			<g id="shape328-274" transform="translate(404.505,-21.1137)">
				<title>Dynamic connector.164</title>
				<path d="M-7.09 205.65 L-7.09 210.62" class="st5"/>
			</g>
			<g id="shape380-277" transform="translate(97.583,-21.0516)">
				<title>Dynamic connector.380</title>
				<path d="M7.09 205.65 L7.09 210.62" class="st5"/>
			</g>
			<g id="shape381-280" transform="translate(130.111,-21.0516)">
				<title>Dynamic connector.381</title>
				<path d="M7.09 205.65 L7.09 210.62" class="st5"/>
			</g>
			<g id="shape382-283" transform="translate(292.749,-21.0414)">
				<title>Dynamic connector.382</title>
				<path d="M7.09 205.65 L7.09 210.62" class="st5"/>
			</g>
			<g id="shape383-286" transform="translate(339.45,-21.1019)">
				<title>Dynamic connector.383</title>
				<path d="M-7.09 205.65 L-7.09 210.62" class="st5"/>
			</g>
			<g id="shape384-289" transform="translate(371.977,-21.1078)">
				<title>Dynamic connector.384</title>
				<path d="M-7.09 205.65 L-7.09 210.62" class="st5"/>
			</g>
			<g id="shape389-292" transform="translate(7.08661,-9.66465)">
				<title>Dynamic connector.155</title>
				<path d="M0 194.13 L520.46 193.79" class="st5"/>
			</g>
			<g id="shape320-295" transform="translate(1.19904E-14,-21.1854)">
				<title>Dynamic connector.156</title>
				<path d="M7.09 205.65 L7.09 210.62" class="st5"/>
			</g>
			<g id="shape321-298" transform="translate(32.5277,-21.1854)">
				<title>Dynamic connector.157</title>
				<path d="M7.09 205.65 L7.09 210.62" class="st5"/>
			</g>
			<g id="shape322-301" transform="translate(65.0553,-21.1854)">
				<title>Dynamic connector.158</title>
				<path d="M7.09 205.65 L7.09 210.62" class="st5"/>
			</g>
			<g id="shape323-304" transform="translate(162.638,-21.1854)">
				<title>Dynamic connector.159</title>
				<path d="M7.09 205.65 L7.09 210.62" class="st5"/>
			</g>
			<g id="shape329-307" transform="translate(422.86,-21.1854)">
				<title>Dynamic connector.165</title>
				<path d="M7.09 205.65 L7.09 210.62" class="st5"/>
			</g>
			<g id="shape330-310" transform="translate(487.926,-21.1319)">
				<title>Dynamic connector.166</title>
				<path d="M7.08 205.65 L7.1 210.62" class="st5"/>
			</g>
			<g id="shape392-313" transform="translate(520.465,-21.1776)">
				<title>Dynamic connector.392</title>
				<path d="M7.09 205.44 L7.09 210.83" class="st5"/>
			</g>
		</g>
		<g id="group723-316" transform="translate(25.7315,-20.6725)">
			<title>Sheet.723</title>
			<g id="shape681-317" transform="translate(3.63574,-1.7053E-13)">
				<title>Dynamic connector.410</title>
				<path d="M0 193.96 L15.32 193.96" class="st5"/>
			</g>
			<g id="shape682-320" transform="translate(456.591,-14.1732)">
				<title>Dynamic connector.411</title>
				<path d="M0 208.13 L36.69 208.13" class="st5"/>
			</g>
			<g id="shape683-323" transform="translate(546.575,-14.1732)">
				<title>Dynamic connector.412</title>
				<path d="M0 208.13 L-39.12 208.13" class="st5"/>
			</g>
			<g id="shape684-326" transform="translate(3.63574,-14.1732)">
				<title>Dynamic connector.415</title>
				<path d="M0 193.96 L15.32 193.96" class="st5"/>
			</g>
			<g id="shape685-329" transform="translate(15.4122,-24.8031)">
				<title>Dynamic connector.416</title>
				<path d="M3.54 204.59 L10.63 211.68" class="st5"/>
			</g>
			<g id="shape686-332" transform="translate(29.5854,-17.7165)">
				<title>Dynamic connector.417</title>
				<path d="M-3.54 204.59 L-10.63 211.68" class="st5"/>
			</g>
			<g id="shape687-335" transform="translate(449.504,-14.1732)">
				<title>Dynamic connector.267</title>
			</g>
			<g id="shape688-336" transform="translate(460.134,-3.54331)">
				<title>Dynamic connector.423</title>
				<path d="M-3.54 197.5 L-10.63 190.42" class="st5"/>
			</g>
			<g id="shape689-339" transform="translate(445.961,-10.6299)">
				<title>Dynamic connector.424</title>
				<path d="M3.54 197.5 L10.63 190.42" class="st5"/>
			</g>
			<g id="shape690-342" transform="translate(456.591,-14.1732)">
				<title>Dynamic connector.425</title>
				<path d="M0 193.96 L36.61 193.96" class="st5"/>
			</g>
			<g id="shape691-345" transform="translate(489.74,-24.8031)">
				<title>Dynamic connector.426</title>
				<path d="M3.54 204.59 L10.63 211.68" class="st5"/>
			</g>
			<g id="shape692-348" transform="translate(503.914,-17.7165)">
				<title>Dynamic connector.427</title>
				<path d="M-3.54 204.59 L-10.63 211.68" class="st5"/>
			</g>
			<g id="shape693-351" transform="translate(511,-3.54331)">
				<title>Dynamic connector.428</title>
				<path d="M-3.54 197.5 L-10.63 190.42" class="st5"/>
			</g>
			<g id="shape694-354" transform="translate(496.827,-10.6299)">
				<title>Dynamic connector.429</title>
				<path d="M3.54 197.5 L10.63 190.42" class="st5"/>
			</g>
			<g id="shape695-357" transform="translate(546.575,-28.3465)">
				<title>Dynamic connector.430</title>
				<path d="M0 208.13 L-39.12 208.13" class="st5"/>
			</g>
			<g id="shape696-360" transform="translate(2.79776E-14,-8.15534)">
				<title>Sheet.696</title>
				<desc>Idle</desc>
				<rect x="0" y="188.796" width="22.4988" height="12.25" class="st3"/>
				<text x="4.8" y="197.32" class="st7">Idle</text>			</g>
			<g id="shape697-363" transform="translate(147.558,-8.15534)">
				<title>Sheet.697</title>
				<desc>Toggle</desc>
				<rect x="0" y="188.796" width="39.2889" height="12.25" class="st3"/>
				<text x="7.41" y="197.32" class="st7">Toggle</text>			</g>
			<g id="shape698-366" transform="translate(507.286,-8.15534)">
				<title>Sheet.698</title>
				<desc>Idle</desc>
				<rect x="0" y="188.796" width="39.2889" height="12.25" class="st3"/>
				<text x="13.2" y="197.32" class="st7">Idle</text>			</g>
			<g id="shape700-369" transform="translate(33.1287,-4.9738E-12)">
				<title>Dynamic connector.436</title>
				<path d="M0 193.96 L278.71 193.96" class="st5"/>
			</g>
			<g id="shape701-372" transform="translate(36.672,-3.54331)">
				<title>Dynamic connector.437</title>
				<path d="M-3.54 197.5 L-10.63 190.42" class="st5"/>
			</g>
			<g id="shape702-375" transform="translate(22.4988,-10.6299)">
				<title>Dynamic connector.438</title>
				<path d="M3.54 197.5 L10.63 190.42" class="st5"/>
			</g>
			<g id="shape703-378" transform="translate(308.295,-24.8031)">
				<title>Dynamic connector.439</title>
				<path d="M3.54 204.59 L10.63 211.68" class="st5"/>
			</g>
			<g id="shape704-381" transform="translate(322.469,-17.7165)">
				<title>Dynamic connector.440</title>
				<path d="M-3.54 204.59 L-10.63 211.68" class="st5"/>
			</g>
			<g id="shape705-384" transform="translate(360.933,-8.15534)">
				<title>Sheet.705</title>
				<desc>rssi_settle</desc>
				<rect x="0" y="188.796" width="52.5748" height="12.25" class="st3"/>
				<text x="8.28" y="197.32" class="st7">rssi_settle</text>			</g>
			<g id="shape706-387" transform="translate(33.1287,-28.3465)">
				<title>Dynamic connector.442</title>
				<path d="M0 208.13 L278.71 208.13" class="st5"/>
			</g>
			<g id="shape707-390" transform="translate(326.859,-7.67386E-13)">
				<title>Dynamic connector.443</title>
				<path d="M0 193.96 L115.56 193.96" class="st5"/>
			</g>
			<g id="shape708-393" transform="translate(330.402,-3.54331)">
				<title>Dynamic connector.444</title>
				<path d="M-3.54 197.5 L-10.63 190.42" class="st5"/>
			</g>
			<g id="shape709-396" transform="translate(316.229,-10.6299)">
				<title>Dynamic connector.445</title>
				<path d="M3.54 197.5 L10.63 190.42" class="st5"/>
			</g>
			<g id="shape710-399" transform="translate(438.874,-24.8031)">
				<title>Dynamic connector.446</title>
				<path d="M3.54 204.59 L10.63 211.68" class="st5"/>
			</g>
			<g id="shape711-402" transform="translate(453.047,-17.7165)">
				<title>Dynamic connector.447</title>
				<path d="M-3.54 204.59 L-10.63 211.68" class="st5"/>
			</g>
			<g id="shape713-405" transform="translate(326.859,-28.3465)">
				<title>Dynamic connector.449</title>
				<path d="M0 208.13 L115.56 208.13" class="st5"/>
			</g>
			<g id="shape720-408" transform="translate(454.988,-8.15534)">
				<title>Sheet.720</title>
				<desc>rssi_settle</desc>
				<rect x="0" y="188.796" width="44.7874" height="12.25" class="st3"/>
				<text x="4.39" y="197.32" class="st7">rssi_settle</text>			</g>
		</g>
		<g id="shape310-411" transform="translate(526.943,-161.315)">
			<title>Sheet.310</title>
			<desc>RSSI measurement 200 ns</desc>
			<rect x="0" y="172.699" width="59.6614" height="28.3465" class="st3"/>
			<text x="4" y="179.67" class="st7">RSSI  <tspan x="4" dy="1.2em" class="st9">measurement </tspan><tspan x="4"
						dy="1.2em" class="st9">200 ns</tspan></text>		</g>
		<g id="shape308-416" transform="translate(345.781,-168.162)">
			<title>Sheet.308</title>
			<desc>SW lag 40-50 us</desc>
			<rect x="0" y="179.547" width="52.5748" height="21.4992" class="st3"/>
			<text x="4" y="187.8" class="st4">SW lag <tspan x="4" dy="1.25em" class="st16">40</tspan><tspan class="st16">-</tspan><tspan
						class="st16">50 us</tspan></text>		</g>
		<g id="shape725-422" transform="translate(472.464,-161.315)">
			<title>Sheet.725</title>
			<desc>RSSI measurement 200 ns</desc>
			<rect x="0" y="172.699" width="59.6614" height="28.3465" class="st3"/>
			<text x="4" y="179.67" class="st7">RSSI  <tspan x="4" dy="1.2em" class="st9">measurement </tspan><tspan x="4"
						dy="1.2em" class="st9">200 ns</tspan></text>		</g>
		<g id="shape726-427" transform="translate(467.989,-99.2866)">
			<title>Dynamic connector.726</title>
			<path d="M7.09 201.05 L7.09 217.78" class="st15"/>
		</g>
		<g id="shape727-430" transform="translate(475.075,-106.232)">
			<title>Dynamic connector.727</title>
			<path d="M0 207.99 L51.12 208.27" class="st15"/>
		</g>
		<g id="shape728-433" transform="translate(315.415,-75.4688)">
			<title>Dynamic connector.728</title>
			<path d="M0 193.96 L159.66 193.96" class="st15"/>
		</g>
		<g id="shape729-436" transform="translate(308.329,-99.2866)">
			<title>Dynamic connector.729</title>
			<path d="M7.09 201.05 L7.09 217.78" class="st15"/>
		</g>
		<g id="shape730-439" transform="translate(480.72,-113.624)">
			<title>Sheet.730</title>
			<desc>15 us - hardware</desc>
			<rect x="0" y="189.871" width="43.5291" height="11.1743" class="st3"/>
			<text x="9.54" y="193.06" class="st7">15 us - <tspan x="5.09" dy="1.2em" class="st9">hardware</tspan></text>		</g>
		<g id="shape731-443" transform="translate(52.6996,-91.9166)">
			<title>Dynamic connector.731</title>
			<path d="M6.68 193.96 L7.04 193.96 L123.06 193.96" class="st11"/>
		</g>
	</g>
</svg>
