<?xml version="1.0" encoding="UTF-8" standalone="no"?>
<!DOCTYPE svg PUBLIC "-//W3C//DTD SVG 1.1//EN" "http://www.w3.org/Graphics/SVG/1.1/DTD/svg11.dtd">
<!-- Generated by Microsoft Visio, SVG Export ant_diversity_energy_detection.svg Page-1 -->
<svg xmlns="http://www.w3.org/2000/svg" xmlns:xlink="http://www.w3.org/1999/xlink" xmlns:ev="http://www.w3.org/2001/xml-events"
		width="5.15318in" height="7.99285in" viewBox="0 0 371.029 575.485" xml:space="preserve" color-interpolation-filters="sRGB"
		class="st11">
	<style type="text/css">
	<![CDATA[
		.st1 {fill:none;stroke:none;stroke-width:1}
		.st2 {fill:#333f48;font-family:Arial;font-size:0.75em}
		.st3 {font-size:1em}
		.st4 {fill:#00a9ce;stroke:none;stroke-width:1}
		.st5 {fill:#feffff;font-family:Arial;font-size:0.833336em}
		.st6 {stroke:#00a9ce;stroke-linecap:butt;stroke-width:1}
		.st7 {marker-start:url(#mrkr4-47);stroke:#00a9ce;stroke-linecap:butt;stroke-width:1}
		.st8 {fill:#00a9ce;fill-opacity:1;stroke:#00a9ce;stroke-opacity:1;stroke-width:0.28409090909091}
		.st9 {marker-end:url(#mrkr4-58);stroke:#00a9ce;stroke-linecap:butt;stroke-width:1}
		.st10 {stroke:#00a9ce;stroke-dasharray:1,4;stroke-linecap:butt;stroke-width:1}
		.st11 {fill:none;fill-rule:evenodd;font-size:12px;overflow:visible;stroke-linecap:square;stroke-miterlimit:3}
	]]>
	</style>

	<defs id="Markers">
		<g id="lend4">
			<path d="M 2 1 L 0 0 L 2 -1 L 2 1 " style="stroke:none"/>
		</g>
		<marker id="mrkr4-47" class="st8" refX="6.68" orient="auto" markerUnits="strokeWidth" overflow="visible">
			<use xlink:href="#lend4" transform="scale(3.52) "/>
		</marker>
		<marker id="mrkr4-58" class="st8" refX="-7.04" orient="auto" markerUnits="strokeWidth" overflow="visible">
			<use xlink:href="#lend4" transform="scale(-3.52,-3.52) "/>
		</marker>
	</defs>
	<g>
		<title>Page-1</title>
		<g id="shape10-1" transform="translate(269.629,-500.306)">
			<title>Sheet.10</title>
			<desc>Request energy detection</desc>
			<rect x="0" y="556.485" width="72.5459" height="19" class="st1"/>
			<text x="4.5" y="563.29" class="st2">Request energy <tspan x="18.01" dy="1.2em" class="st3">detection</tspan></text>		</g>
		<g id="shape11-5" transform="translate(1,-1)">
			<title>Rectangle.11</title>
			<desc>Hardware</desc>
			<rect x="0" y="537.662" width="60.0861" height="37.8228" class="st4"/>
			<text x="8.37" y="559.57" class="st5">Hardware</text>		</g>
		<g id="shape12-8" transform="translate(91.8948,-1)">
			<title>Rectangle.12</title>
			<desc>Antenna_diversity</desc>
			<rect x="0" y="537.662" width="113.386" height="37.8228" class="st4"/>
			<text x="16.95" y="559.57" class="st5">Antenna_diversity</text>		</g>
		<g id="shape13-11" transform="translate(236.089,-1)">
			<title>Rectangle.13</title>
			<desc>Driver</desc>
			<rect x="0" y="537.662" width="60.0861" height="37.8228" class="st4"/>
			<text x="16.71" y="559.57" class="st5">Driver</text>		</g>
		<g id="shape14-14" transform="translate(326.984,-1)">
			<title>Rectangle.14</title>
			<desc>API</desc>
			<rect x="0" y="537.662" width="43.0446" height="37.8228" class="st4"/>
			<text x="13.46" y="559.57" class="st5">API</text>		</g>
		<g id="shape6-17" transform="translate(1,-536.662)">
			<title>Rectangle</title>
			<desc>Hardware</desc>
			<rect x="0" y="537.662" width="60.0861" height="37.8228" class="st4"/>
			<text x="8.37" y="559.57" class="st5">Hardware</text>		</g>
		<g id="shape7-20" transform="translate(91.8948,-536.662)">
			<title>Rectangle.7</title>
			<desc>Antenna_diversity</desc>
			<rect x="0" y="537.662" width="113.386" height="37.8228" class="st4"/>
			<text x="16.95" y="559.57" class="st5">Antenna_diversity</text>		</g>
		<g id="shape8-23" transform="translate(236.089,-536.662)">
			<title>Rectangle.8</title>
			<desc>Driver</desc>
			<rect x="0" y="537.662" width="60.0861" height="37.8228" class="st4"/>
			<text x="16.71" y="559.57" class="st5">Driver</text>		</g>
		<g id="shape9-26" transform="translate(326.984,-536.662)">
			<title>Rectangle.9</title>
			<desc>API</desc>
			<rect x="0" y="537.662" width="43.0446" height="37.8228" class="st4"/>
			<text x="13.46" y="559.57" class="st5">API</text>		</g>
		<g id="shape17-29" transform="translate(23.9564,-536.662)">
			<title>Dynamic connector</title>
			<path d="M7.09 575.49 L7.09 690.73" class="st6"/>
		</g>
		<g id="shape18-32" transform="translate(141.501,-536.662)">
			<title>Dynamic connector.18</title>
			<path d="M7.09 575.49 L7.09 631.44" class="st6"/>
		</g>
		<g id="shape19-35" transform="translate(259.046,-536.662)">
			<title>Dynamic connector.19</title>
			<path d="M7.09 575.49 L7.09 613.89" class="st6"/>
		</g>
		<g id="shape20-38" transform="translate(144.133,-446.895)">
			<title>Rectangle.20</title>
			<rect x="0" y="541.672" width="8.90889" height="33.8133" class="st4"/>
		</g>
		<g id="shape21-40" transform="translate(261.678,-429.351)">
			<title>Rectangle.21</title>
			<rect x="0" y="506.583" width="8.90889" height="68.9021" class="st4"/>
		</g>
		<g id="shape22-42" transform="translate(31.4252,-422.264)">
			<title>Dynamic connector.22</title>
			<path d="M6.68 568.4 L7.04 568.4 L114.8 568.4 A2.3622 2.3622 0 1 1 119.52 568.4 L230.25 568.4" class="st7"/>
		</g>
		<g id="shape23-48" transform="translate(153.042,-473.622)">
			<title>Dynamic connector.23</title>
			<path d="M6.68 568.4 L7.04 568.4 L108.5 568.4" class="st7"/>
		</g>
		<g id="shape24-53" transform="translate(153.042,-439.808)">
			<title>Dynamic connector.24</title>
			<path d="M0 568.4 L101.89 568.4" class="st9"/>
		</g>
		<g id="shape25-59" transform="translate(341.42,-536.662)">
			<title>Dynamic connector.25</title>
			<path d="M7.09 575.49 L7.09 690.9" class="st6"/>
		</g>
		<g id="shape26-62" transform="translate(270.587,-491.166)">
			<title>Dynamic connector.26</title>
			<path d="M6.68 568.4 L7.04 568.4 L77.56 568.4" class="st7"/>
		</g>
		<g id="shape27-67" transform="translate(172.365,-481.306)">
			<title>Sheet.27</title>
			<desc>notify_request</desc>
			<rect x="0" y="556.485" width="72.5459" height="19" class="st1"/>
			<text x="8.01" y="568.69" class="st2">notify_request</text>		</g>
		<g id="shape28-70" transform="translate(163.284,-447.651)">
			<title>Sheet.28</title>
			<desc>Update request time</desc>
			<rect x="0" y="556.485" width="90.7087" height="19" class="st1"/>
			<text x="4.83" y="568.69" class="st2">Update request time</text>		</g>
		<g id="shape29-73" transform="translate(42.8413,-430.107)">
			<title>Sheet.29</title>
			<desc>Start energy detection</desc>
			<rect x="0" y="556.485" width="96.378" height="19" class="st1"/>
			<text x="4.16" y="568.69" class="st2">Start energy detection</text>		</g>
		<g id="shape30-76" transform="translate(141.501,-446.895)">
			<title>Dynamic connector.30</title>
			<path d="M7.09 575.49 L7.09 600.6" class="st6"/>
		</g>
		<g id="shape31-79" transform="translate(273.173,-432.469)">
			<title>Dynamic connector.31</title>
			<path d="M-7.04 578.6 L-7.13 586.54" class="st6"/>
		</g>
		<g id="shape32-82" transform="translate(163.284,-404.32)">
			<title>Sheet.32</title>
			<desc>Energy detection procedure</desc>
			<rect x="0" y="556.485" width="90.7087" height="19" class="st1"/>
			<text x="11.58" y="563.29" class="st2">Energy detection <tspan x="25.09" dy="1.2em" class="st3">procedure</tspan></text>		</g>
		<g id="shape33-86" transform="translate(155.581,-421.784)">
			<title>Dynamic connector.33</title>
			<path d="M-6.99 575.49 L-7.18 607.04" class="st10"/>
		</g>
		<g id="shape34-89" transform="translate(273.126,-421.414)">
			<title>Dynamic connector.34</title>
			<path d="M-7.09 575.49 L-7.09 606.67" class="st10"/>
		</g>
		<g id="shape35-92" transform="translate(38.1297,-421.414)">
			<title>Dynamic connector.35</title>
			<path d="M-7.09 575.49 L-7.09 606.67" class="st10"/>
		</g>
		<g id="shape36-95" transform="translate(42.8413,-374.068)">
			<title>Sheet.36</title>
			<desc>Energy detection finished</desc>
			<rect x="0" y="556.485" width="96.378" height="19" class="st1"/>
			<text x="14.42" y="563.29" class="st2">Energy detection <tspan x="32.68" dy="1.2em" class="st3">finished</tspan></text>		</g>
		<g id="shape37-99" transform="translate(144.133,-320.05)">
			<title>Rectangle.37</title>
			<rect x="0" y="552.073" width="8.90889" height="23.4116" class="st4"/>
		</g>
		<g id="shape38-101" transform="translate(261.678,-320.05)">
			<title>Rectangle.38</title>
			<rect x="0" y="524.127" width="8.90889" height="51.3577" class="st4"/>
		</g>
		<g id="shape39-103" transform="translate(23.9564,-390.233)">
			<title>Dynamic connector.39</title>
			<path d="M7.09 575.49 L7.09 785.25" class="st6"/>
		</g>
		<g id="shape40-106" transform="translate(30.8471,-364.321)">
			<title>Dynamic connector.40</title>
			<path d="M0 568.4 L115.27 568.4 A2.3622 2.3622 0 1 1 119.99 568.4 L223.79 568.4" class="st9"/>
		</g>
		<g id="shape41-111" transform="translate(258.999,-390.233)">
			<title>Dynamic connector.41</title>
			<path d="M7.04 575.49 L7.13 594.31" class="st6"/>
		</g>
		<g id="shape42-114" transform="translate(141.408,-390.233)">
			<title>Dynamic connector.42</title>
			<path d="M6.99 575.49 L7.18 622.26" class="st6"/>
		</g>
		<g id="shape43-117" transform="translate(153.042,-336.375)">
			<title>Dynamic connector.43</title>
			<path d="M6.68 568.4 L7.04 568.4 L108.5 568.4" class="st7"/>
		</g>
		<g id="shape44-122" transform="translate(153.042,-312.963)">
			<title>Dynamic connector.44</title>
			<path d="M0 568.4 L101.89 568.4" class="st9"/>
		</g>
		<g id="shape45-127" transform="translate(163.284,-320.05)">
			<title>Sheet.45</title>
			<desc>request_repeat</desc>
			<rect x="0" y="560.775" width="90.7087" height="14.7098" class="st1"/>
			<text x="15.08" y="570.83" class="st2">request_repeat</text>		</g>
		<g id="shape46-130" transform="translate(163.284,-343.461)">
			<title>Sheet.46</title>
			<desc>notify_finish</desc>
			<rect x="0" y="560.775" width="90.7087" height="14.7098" class="st1"/>
			<text x="21.59" y="570.83" class="st2">notify_finish</text>		</g>
		<g id="shape47-133" transform="translate(141.501,-320.05)">
			<title>Dynamic connector.47</title>
			<path d="M7.09 575.49 L7.09 630.33" class="st6"/>
		</g>
		<g id="shape48-136" transform="translate(144.133,-213.845)">
			<title>Rectangle.48</title>
			<rect x="0" y="524.127" width="8.90889" height="51.3577" class="st4"/>
		</g>
		<g id="shape49-138" transform="translate(261.678,-193.145)">
			<title>Rectangle.49</title>
			<rect x="0" y="482.728" width="8.90889" height="92.757" class="st4"/>
		</g>
		<g id="shape50-140" transform="translate(259.046,-320.05)">
			<title>Dynamic connector.50</title>
			<path d="M7.09 575.49 L7.09 609.63" class="st6"/>
		</g>
		<g id="shape51-143" transform="translate(261.273,-298.891)">
			<title>Dynamic connector.51</title>
			<path d="M4.86 576.67 L31.7 576.67 L31.7 588.47 L16.35 588.47" class="st9"/>
		</g>
		<g id="shape52-148" transform="translate(293.382,-275.625)">
			<title>Sheet.52</title>
			<desc>Request energy detection</desc>
			<rect x="0" y="542.66" width="51.1972" height="32.8247" class="st1"/>
			<text x="8.84" y="550.97" class="st2">Request <tspan x="11.84" dy="1.2em" class="st3">energy </tspan><tspan x="7.34"
						dy="1.2em" class="st3">detection</tspan></text>		</g>
		<g id="shape53-153" transform="translate(355.593,-421.247)">
			<title>Dynamic connector.53</title>
			<path d="M-7.09 575.49 L-7.09 606.5" class="st10"/>
		</g>
		<g id="shape54-156" transform="translate(355.553,-390.233)">
			<title>Dynamic connector.54</title>
			<path d="M-7.05 575.49 L-7.13 783.48" class="st6"/>
		</g>
		<g id="shape56-159" transform="translate(42.8413,-194.845)">
			<title>Sheet.56</title>
			<desc>Start energy detection</desc>
			<rect x="0" y="556.485" width="96.378" height="19" class="st1"/>
			<text x="4.16" y="568.69" class="st2">Start energy detection</text>		</g>
		<g id="shape57-162" transform="translate(42.8413,-136.569)">
			<title>Sheet.57</title>
			<desc>Energy detection finished</desc>
			<rect x="0" y="556.485" width="96.378" height="19" class="st1"/>
			<text x="14.42" y="563.29" class="st2">Energy detection <tspan x="32.68" dy="1.2em" class="st3">finished</tspan></text>		</g>
		<g id="shape58-166" transform="translate(31.4252,-186.059)">
			<title>Dynamic connector.58</title>
			<path d="M6.68 568.4 L7.04 568.4 L114.61 568.4 A2.3622 2.3622 0 0 1 119.34 568.4 L230.25 568.4" class="st7"/>
		</g>
		<g id="shape59-171" transform="translate(141.315,-213.845)">
			<title>Dynamic connector.59</title>
			<path d="M7.09 575.49 L7.09 609.11" class="st6"/>
		</g>
		<g id="shape60-174" transform="translate(141.408,-180.216)">
			<title>Dynamic connector.60</title>
			<path d="M6.99 575.49 L7.18 604.08" class="st10"/>
		</g>
		<g id="shape61-177" transform="translate(273.122,-193.894)">
			<title>Dynamic connector.61</title>
			<path d="M-7.04 576.23 L-7.13 588.91" class="st6"/>
		</g>
		<g id="shape62-180" transform="translate(258.902,-180.469)">
			<title>Dynamic connector.62</title>
			<path d="M7.09 575.49 L7.09 604.08" class="st10"/>
		</g>
		<g id="shape63-183" transform="translate(258.902,-151.87)">
			<title>Dynamic connector.63</title>
			<path d="M7.09 575.49 L7.09 594.16" class="st6"/>
		</g>
		<g id="shape64-186" transform="translate(261.534,-64.2944)">
			<title>Rectangle.64</title>
			<rect x="0" y="506.583" width="8.90889" height="68.9021" class="st4"/>
		</g>
		<g id="shape65-188" transform="translate(258.974,-64.2944)">
			<title>Dynamic connector.65</title>
			<path d="M7.01 575.49 L7.16 600.96" class="st6"/>
		</g>
		<g id="shape66-191" transform="translate(270.443,-57.2078)">
			<title>Dynamic connector.66</title>
			<path d="M0 568.4 L70.47 568.4" class="st9"/>
		</g>
		<g id="shape67-196" transform="translate(271.962,-64.2944)">
			<title>Sheet.67</title>
			<desc>Report result</desc>
			<rect x="0" y="556.485" width="67.8797" height="19" class="st1"/>
			<text x="8.18" y="568.69" class="st2">Report result</text>		</g>
		<g id="shape68-199" transform="translate(355.462,-195.659)">
			<title>Dynamic connector.68</title>
			<path d="M-6.96 575.49 L-7.22 619.02" class="st10"/>
		</g>
		<g id="shape69-202" transform="translate(341.289,-152.123)">
			<title>Dynamic connector.69</title>
			<path d="M6.96 575.49 L7.22 688.78" class="st6"/>
		</g>
		<g id="shape70-205" transform="translate(144.133,-83.5075)">
			<title>Rectangle.70</title>
			<rect x="0" y="549.806" width="8.90889" height="25.6788" class="st4"/>
		</g>
		<g id="shape71-207" transform="translate(141.501,-151.617)">
			<title>Dynamic connector.71</title>
			<path d="M7.09 575.49 L7.09 617.92" class="st6"/>
		</g>
		<g id="shape72-210" transform="translate(155.674,-83.5075)">
			<title>Dynamic connector.72</title>
			<path d="M-7.09 575.49 L-7.09 620.17" class="st6"/>
		</g>
		<g id="shape73-213" transform="translate(30.8993,-126.11)">
			<title>Dynamic connector.73</title>
			<path d="M0 568.4 L115.33 568.4 A2.3622 2.3622 0 0 1 120.05 568.4 L223.59 568.4" class="st9"/>
		</g>
		<g id="shape74-218" transform="translate(153.042,-258.116)">
			<title>Dynamic connector.74</title>
			<path d="M6.68 568.4 L7.04 568.4 L109.15 568.4" class="st7"/>
		</g>
		<g id="shape75-223" transform="translate(153.042,-207.02)">
			<title>Dynamic connector.75</title>
			<path d="M0 568.66 L101.6 568.17" class="st9"/>
		</g>
		<g id="shape76-228" transform="translate(163.284,-214.525)">
			<title>Sheet.76</title>
			<desc>Update request time</desc>
			<rect x="0" y="560.775" width="90.7087" height="14.7098" class="st1"/>
			<text x="4.83" y="570.83" class="st2">Update request time</text>		</g>
		<g id="shape77-231" transform="translate(163.284,-266.323)">
			<title>Sheet.77</title>
			<desc>notify_request</desc>
			<rect x="0" y="560.775" width="90.7087" height="14.7098" class="st1"/>
			<text x="17.09" y="570.83" class="st2">notify_request</text>		</g>
		<g id="shape78-234" transform="translate(145.956,-253.77)">
			<title>Dynamic connector.78</title>
			<path d="M7.09 575.49 L39.3 575.49 L39.3 589.73 L14.13 589.73" class="st9"/>
		</g>
		<g id="shape79-239" transform="translate(185.687,-239.524)">
			<title>Sheet.79</title>
			<desc>Change antenna</desc>
			<rect x="0" y="560.775" width="74.7253" height="14.7098" class="st1"/>
			<text x="4.08" y="570.83" class="st2">Change antenna</text>		</g>
		<g id="shape80-242" transform="translate(153.042,-102.1)">
			<title>Dynamic connector.80</title>
			<path d="M6.68 568.4 L7.04 568.4 L108.14 568.4" class="st7"/>
		</g>
		<g id="shape81-247" transform="translate(153.042,-76.4209)">
			<title>Dynamic connector.81</title>
			<path d="M0 568.4 L101.1 568.4" class="st9"/>
		</g>
		<g id="shape82-252" transform="translate(163.284,-109.65)">
			<title>Sheet.82</title>
			<desc>notify_finish</desc>
			<rect x="0" y="560.775" width="90.7087" height="14.7098" class="st1"/>
			<text x="21.59" y="570.83" class="st2">notify_finish</text>		</g>
		<g id="shape83-255" transform="translate(163.284,-83.5075)">
			<title>Sheet.83</title>
			<desc>Ok</desc>
			<rect x="0" y="560.775" width="90.7087" height="14.7098" class="st1"/>
			<text x="39.6" y="570.83" class="st2">Ok</text>		</g>
		<g id="shape84-258" transform="translate(160.449,-167.354)">
			<title>Sheet.84</title>
			<desc>Energy detection procedure</desc>
			<rect x="0" y="556.485" width="96.378" height="19" class="st1"/>
			<text x="14.42" y="563.29" class="st2">Energy detection <tspan x="27.93" dy="1.2em" class="st3">procedure</tspan></text>		</g>
		<g id="shape85-262" transform="translate(23.9564,-180.469)">
			<title>Dynamic connector.85</title>
			<path d="M7.09 575.49 L7.09 604.34" class="st10"/>
		</g>
		<g id="shape86-265" transform="translate(23.9564,-151.617)">
			<title>Dynamic connector.86</title>
			<path d="M7.09 575.49 L7.09 688.28" class="st6"/>
		</g>
	</g>
</svg>
