<?xml version="1.0" encoding="UTF-8" standalone="no"?>
<!DOCTYPE svg PUBLIC "-//W3C//DTD SVG 1.1//EN" "http://www.w3.org/Graphics/SVG/1.1/DTD/svg11.dtd">
<!-- Generated by Microsoft Visio, SVG Export dynamic_multiprotocol_requests.svg Page-1 -->
<svg xmlns="http://www.w3.org/2000/svg" xmlns:xlink="http://www.w3.org/1999/xlink" xmlns:ev="http://www.w3.org/2001/xml-events"
		width="7.9736in" height="4.08586in" viewBox="0 0 574.099 294.182" xml:space="preserve" color-interpolation-filters="sRGB"
		class="st12">
	<style type="text/css">
	<![CDATA[
		.st1 {fill:#0077c8;stroke:none;stroke-width:1}
		.st2 {fill:#feffff;font-family:Arial;font-size:0.666664em}
		.st3 {font-size:1em}
		.st4 {fill:#00a9ce;stroke:none;stroke-width:1}
		.st5 {fill:#f58220;stroke:none;stroke-width:1}
		.st6 {fill:none;stroke:none;stroke-width:1}
		.st7 {fill:#00a9ce;font-family:Arial;font-size:0.666664em}
		.st8 {marker-end:url(#mrkr4-54);marker-start:url(#mrkr4-52);stroke:#00a9ce;stroke-linecap:butt;stroke-width:1}
		.st9 {fill:#00a9ce;fill-opacity:1;stroke:#00a9ce;stroke-opacity:1;stroke-width:0.28409090909091}
		.st10 {marker-end:url(#mrkr4-54);stroke:#00a9ce;stroke-linecap:butt;stroke-width:1}
		.st11 {fill:#000000;font-family:Arial;font-size:0.666664em}
		.st12 {fill:none;fill-rule:evenodd;font-size:12px;overflow:visible;stroke-linecap:square;stroke-miterlimit:3}
	]]>
	</style>

	<defs id="Markers">
		<g id="lend4">
			<path d="M 2 1 L 0 0 L 2 -1 L 2 1 " style="stroke:none"/>
		</g>
		<marker id="mrkr4-52" class="st9" refX="6.68" orient="auto" markerUnits="strokeWidth" overflow="visible">
			<use xlink:href="#lend4" transform="scale(3.52) "/>
		</marker>
		<marker id="mrkr4-54" class="st9" refX="-7.04" orient="auto" markerUnits="strokeWidth" overflow="visible">
			<use xlink:href="#lend4" transform="scale(-3.52,-3.52) "/>
		</marker>
	</defs>
	<g>
		<title>Page-1</title>
		<g id="group206-1" transform="translate(7.87096,-186.963)">
			<title>Sheet.206</title>
			<g id="shape187-2">
				<title>Rectangle</title>
				<desc>Platform Init Bluetooth LE Init Thread Init</desc>
				<rect x="0" y="234.654" width="74.8346" height="59.5276" class="st1"/>
				<text x="16.08" y="252.42" class="st2">Platform Init  <tspan x="8.06" dy="2.4em" class="st3">Bluetooth LE Init </tspan><tspan
							x="18.3" dy="1.2em" class="st3">Thread Init</tspan></text>			</g>
			<g id="shape188-7" transform="translate(369.016,234.654) rotate(90)">
				<title>Rectangle.188</title>
				<desc>Bluetooth LE</desc>
				<rect x="0" y="274.339" width="59.5276" height="19.8425" class="st4"/>
				<text x="6.86" y="286.66" class="st2">Bluetooth LE</text>			</g>
			<g id="shape189-10" transform="translate(94.6772,-1.7053E-13)">
				<title>Rectangle.189</title>
				<desc>IEEE 802.15.4 e.g. Thread, Zigbee, etc.</desc>
				<rect x="0" y="234.654" width="74.8346" height="59.5276" class="st5"/>
				<text x="11.62" y="252.42" class="st2">IEEE 802.15.4  <tspan x="15.85" dy="2.4em" class="st3">e.g. Thread, </tspan><tspan
							x="16.52" dy="1.2em" class="st3">Zigbee, etc.</tspan></text>			</g>
			<g id="shape197-15" transform="translate(463.693,234.654) rotate(90)">
				<title>Rectangle.197</title>
				<desc>Bluetooth LE</desc>
				<rect x="0" y="274.339" width="59.5276" height="19.8425" class="st4"/>
				<text x="6.86" y="286.66" class="st2">Bluetooth LE</text>			</g>
			<g id="shape198-18" transform="translate(189.354,-1.7053E-13)">
				<title>Rectangle.198</title>
				<desc>IEEE 802.15.4 e.g. Thread, Zigbee, etc.</desc>
				<rect x="0" y="234.654" width="74.8346" height="59.5276" class="st5"/>
				<text x="11.62" y="252.42" class="st2">IEEE 802.15.4  <tspan x="15.85" dy="2.4em" class="st3">e.g. Thread, </tspan><tspan
							x="16.52" dy="1.2em" class="st3">Zigbee, etc.</tspan></text>			</g>
			<g id="shape199-23" transform="translate(558.371,234.654) rotate(90)">
				<title>Rectangle.199</title>
				<desc>Bluetooth LE</desc>
				<rect x="0" y="274.339" width="59.5276" height="19.8425" class="st4"/>
				<text x="6.86" y="286.66" class="st2">Bluetooth LE</text>			</g>
			<g id="shape200-26" transform="translate(284.031,-1.7053E-13)">
				<title>Rectangle.200</title>
				<desc>IEEE 802.15.4 e.g. Thread, Zigbee, etc.</desc>
				<rect x="0" y="234.654" width="65.7638" height="59.5276" class="st5"/>
				<text x="7.09" y="252.42" class="st2">IEEE 802.15.4  <tspan x="11.31" dy="2.4em" class="st3">e.g. Thread, </tspan><tspan
							x="11.98" dy="1.2em" class="st3">Zigbee, etc.</tspan></text>			</g>
			<g id="shape201-31" transform="translate(655.315,234.654) rotate(90)">
				<title>Rectangle.201</title>
				<desc>Bluetooth LE</desc>
				<rect x="0" y="274.339" width="59.5276" height="19.8425" class="st4"/>
				<text x="6.86" y="286.66" class="st2">Bluetooth LE</text>			</g>
			<g id="shape202-34" transform="translate(747.441,234.654) rotate(90)">
				<title>Rectangle.202</title>
				<desc>Bluetooth LE</desc>
				<rect x="0" y="274.339" width="59.5276" height="19.8425" class="st4"/>
				<text x="6.86" y="286.66" class="st2">Bluetooth LE</text>			</g>
			<g id="shape205-37" transform="translate(486.992,-1.7053E-13)">
				<title>Rectangle.205</title>
				<desc>IEEE 802.15.4 e.g. Thread, Zigbee, etc.</desc>
				<rect x="0" y="234.654" width="61.2284" height="59.5276" class="st5"/>
				<text x="4.82" y="252.42" class="st2">IEEE 802.15.4  <tspan x="9.05" dy="2.4em" class="st3">e.g. Thread, </tspan><tspan
							x="9.71" dy="1.2em" class="st3">Zigbee, etc.</tspan></text>			</g>
		</g>
		<g id="shape207-42" transform="translate(52.9418,-254.995)">
			<title>Sheet.207</title>
			<desc>Bluetooth low energy connection/ advertising interval</desc>
			<rect x="0" y="265.835" width="128.126" height="28.3465" class="st6"/>
			<text x="5.14" y="277.61" class="st7">Bluetooth low energy connection/ <tspan x="30.71" dy="1.2em" class="st3">advertising interval</tspan></text>		</g>
		<g id="shape209-46" transform="translate(82.7056,-247.908)">
			<title>Dynamic connector</title>
			<path d="M6.68 287.1 L7.04 287.1 L88.49 287.1" class="st8"/>
		</g>
		<g id="shape210-55" transform="translate(181.068,-254.995)">
			<title>Sheet.210</title>
			<desc>Bluetooth low energy connection/ advertising interval</desc>
			<rect x="0" y="265.835" width="128.126" height="28.3465" class="st6"/>
			<text x="5.14" y="277.61" class="st7">Bluetooth low energy connection/ <tspan x="30.71" dy="1.2em" class="st3">advertising interval</tspan></text>		</g>
		<g id="shape211-59" transform="translate(178.233,-247.908)">
			<title>Dynamic connector.211</title>
			<path d="M6.68 287.1 L7.04 287.1 L86.59 287.1" class="st8"/>
		</g>
		<g id="shape212-66" transform="translate(350.58,-280.152)">
			<title>Dynamic connector.212</title>
			<path d="M7.09 294.18 L7.09 320.8" class="st10"/>
		</g>
		<g id="shape213-71" transform="translate(342.745,-280.506)">
			<title>Sheet.213</title>
			<desc>Sleep</desc>
			<rect x="0" y="281.506" width="29.8425" height="12.6752" class="st6"/>
			<text x="4.69" y="290.24" class="st7">Sleep</text>		</g>
		<g id="shape214-74" transform="translate(488.808,-280.152)">
			<title>Dynamic connector.214</title>
			<path d="M7.09 294.18 L7.09 320.8" class="st10"/>
		</g>
		<g id="shape215-79" transform="translate(475.343,-280.152)">
			<title>Sheet.215</title>
			<desc>Wake up</desc>
			<rect x="0" y="281.506" width="41.1024" height="12.6752" class="st6"/>
			<text x="4.77" y="290.24" class="st7">Wake up</text>		</g>
		<g id="shape216-82" transform="translate(7.87096,-184.701)">
			<title>Dynamic connector.216</title>
			<path d="M0 301.17 L534.66 301.36" class="st10"/>
		</g>
		<g id="shape217-87" transform="translate(546.737,-171.373)">
			<title>Sheet.217</title>
			<desc>Time</desc>
			<rect x="0" y="281.506" width="26.3622" height="12.6752" class="st6"/>
			<text x="4.29" y="290.24" class="st7">Time</text>		</g>
		<g id="shape219-90" transform="translate(11.337,-159.567)">
			<title>Rectangle</title>
			<rect x="0" y="292.032" width="556.093" height="2.14961" class="st4"/>
		</g>
		<g id="shape220-92" transform="translate(11.337,-161.716)">
			<title>Sheet.220</title>
			<desc>Application</desc>
			<rect x="0" y="282.501" width="51.5261" height="11.6811" class="st6"/>
			<text x="4" y="290.74" class="st11">Application</text>		</g>
		<g id="shape221-95" transform="translate(11.337,-104.195)">
			<title>Sheet.221</title>
			<desc>nrf_drv_802154</desc>
			<rect x="0" y="282.501" width="67.4001" height="11.6811" class="st6"/>
			<text x="4" y="290.74" class="st11">nrf_drv_802154</text>		</g>
		<g id="shape222-98" transform="translate(11.337,-7.87096)">
			<title>Sheet.222</title>
			<desc>RAAL client</desc>
			<rect x="0" y="282.501" width="51.5261" height="11.6811" class="st6"/>
			<text x="4" y="290.74" class="st11">RAAL client</text>		</g>
		<g id="shape223-101" transform="translate(11.337,-101.114)">
			<title>Rectangle.223</title>
			<rect x="0" y="292.032" width="556.093" height="2.14961" class="st4"/>
		</g>
		<g id="shape224-103" transform="translate(11.337,-5.96784)">
			<title>Rectangle.224</title>
			<rect x="0" y="292.032" width="556.093" height="2.14961" class="st4"/>
		</g>
		<g id="shape225-105" transform="translate(84.241,-159.578)">
			<title>Dynamic connector.225</title>
			<path d="M7.09 294.18 L7.09 343.83" class="st10"/>
		</g>
		<g id="shape226-110" transform="translate(84.241,-101.62)">
			<title>Dynamic connector.226</title>
			<path d="M7.09 294.18 L7.09 380.19" class="st10"/>
		</g>
		<g id="shape227-115" transform="translate(105.229,-7.90406)">
			<title>Dynamic connector.227</title>
			<path d="M7.09 294.18 L7.09 207.51" class="st10"/>
		</g>
		<g id="shape264-120" transform="translate(132.875,-102.901)">
			<title>Dynamic connector.264</title>
			<path d="M7.09 294.18 L7.09 244.9" class="st10"/>
		</g>
		<g id="shape265-125" transform="translate(147.873,-159.532)">
			<title>Dynamic connector.265</title>
			<path d="M7.09 294.18 L7.09 344.08" class="st10"/>
		</g>
		<g id="shape266-130" transform="translate(163.493,-102.901)">
			<title>Dynamic connector.266</title>
			<path d="M7.09 294.18 L7.09 244.9" class="st10"/>
		</g>
		<g id="shape267-135" transform="translate(170.58,-7.87096)">
			<title>Dynamic connector.267</title>
			<path d="M7.09 294.18 L7.09 207.98" class="st10"/>
		</g>
		<g id="shape268-140" transform="translate(190.139,-7.87096)">
			<title>Dynamic connector.268</title>
			<path d="M7.09 294.18 L7.09 207.98" class="st10"/>
		</g>
		<g id="shape269-145" transform="translate(268.644,-7.87096)">
			<title>Dynamic connector.269</title>
			<path d="M7.09 294.18 L7.09 207.98" class="st10"/>
		</g>
		<g id="shape270-150" transform="translate(285.282,-7.87096)">
			<title>Dynamic connector.270</title>
			<path d="M7.09 294.18 L7.09 207.98" class="st10"/>
		</g>
		<g id="shape271-155" transform="translate(350.58,-101.114)">
			<title>Dynamic connector.271</title>
			<path d="M7.09 294.18 L7.09 380.08" class="st10"/>
		</g>
		<g id="shape272-160" transform="translate(350.58,-160.225)">
			<title>Dynamic connector.272</title>
			<path d="M7.09 294.18 L7.09 344" class="st10"/>
		</g>
		<g id="shape273-165" transform="translate(480.67,-101.531)">
			<title>Dynamic connector.273</title>
			<path d="M7.09 294.18 L7.09 380.35" class="st10"/>
		</g>
		<g id="shape274-170" transform="translate(480.67,-159.558)">
			<title>Dynamic connector.274</title>
			<path d="M7.09 294.18 L7.09 343.5" class="st10"/>
		</g>
		<g id="shape275-175" transform="translate(497.139,-8.12517)">
			<title>Dynamic connector.275</title>
			<path d="M7.09 294.18 L7.09 208.42" class="st10"/>
		</g>
		<g id="shape276-180" transform="translate(522.683,-103.031)">
			<title>Dynamic connector.276</title>
			<path d="M7.09 294.18 L7.09 244.7" class="st10"/>
		</g>
		<g id="shape277-185" transform="translate(366.509,195.73) rotate(90)">
			<title>Sheet.277</title>
			<desc>Continuous mode enter</desc>
			<rect x="0" y="275.182" width="92.4834" height="19" class="st6"/>
			<text x="4.66" y="287.08" class="st11">Continuous mode enter</text>		</g>
		<g id="shape278-188" transform="translate(366.509,138.461) rotate(90)">
			<title>Sheet.278</title>
			<desc>Receive</desc>
			<rect x="0" y="275.182" width="49.1528" height="19" class="st6"/>
			<text x="10.13" y="287.08" class="st11">Receive</text>		</g>
		<g id="shape279-191" transform="translate(387.497,200.27) rotate(90)">
			<title>Sheet.279</title>
			<desc>Timeslot started</desc>
			<rect x="0" y="275.182" width="77.8374" height="19" class="st6"/>
			<text x="10.47" y="287.08" class="st11">Timeslot started</text>		</g>
		<g id="shape280-194" transform="translate(422.092,140.75) rotate(90)">
			<title>Sheet.280</title>
			<desc>Received</desc>
			<rect x="0" y="285.078" width="44.575" height="9.10348" class="st6"/>
			<text x="5.61" y="292.03" class="st11">Received</text>		</g>
		<g id="shape281-197" transform="translate(437.09,140.75) rotate(90)">
			<title>Sheet.281</title>
			<desc>Transmit</desc>
			<rect x="0" y="285.078" width="44.575" height="9.10348" class="st6"/>
			<text x="6.73" y="292.03" class="st11">Transmit</text>		</g>
		<g id="shape282-200" transform="translate(453.423,138.461) rotate(90)">
			<title>Sheet.282</title>
			<desc>Transmited</desc>
			<rect x="0" y="287.142" width="49.1528" height="7.03959" class="st6"/>
			<text x="4.57" y="293.06" class="st11">Transmited</text>		</g>
		<g id="shape283-203" transform="translate(452.848,200.27) rotate(90)">
			<title>Sheet.283</title>
			<desc>Timeslot ended</desc>
			<rect x="0" y="275.182" width="85.3409" height="19" class="st6"/>
			<text x="15.32" y="287.08" class="st11">Timeslot ended</text>		</g>
		<g id="shape284-206" transform="translate(471.848,200.27) rotate(90)">
			<title>Sheet.284</title>
			<desc>Timeslot started</desc>
			<rect x="0" y="275.182" width="85.3409" height="19" class="st6"/>
			<text x="14.22" y="287.08" class="st11">Timeslot started</text>		</g>
		<g id="shape286-209" transform="translate(552.093,200.27) rotate(90)">
			<title>Sheet.286</title>
			<desc>Timeslot ended</desc>
			<rect x="0" y="275.182" width="85.7945" height="19" class="st6"/>
			<text x="15.55" y="287.08" class="st11">Timeslot ended</text>		</g>
		<g id="shape287-212" transform="translate(568.731,200.27) rotate(90)">
			<title>Sheet.287</title>
			<desc>Timeslot started</desc>
			<rect x="0" y="275.182" width="85.7945" height="19" class="st6"/>
			<text x="14.44" y="287.08" class="st11">Timeslot started</text>		</g>
		<g id="shape288-215" transform="translate(632.005,193.068) rotate(90)">
			<title>Sheet.288</title>
			<desc>Continuous mode exit</desc>
			<rect x="0" y="275.182" width="85.7945" height="19" class="st6"/>
			<text x="4.21" y="287.08" class="st11">Continuous mode exit</text>		</g>
		<g id="shape289-218" transform="translate(632.005,138.82) rotate(90)">
			<title>Sheet.289</title>
			<desc>Sleep</desc>
			<rect x="0" y="275.182" width="48.4344" height="19" class="st6"/>
			<text x="13.99" y="287.08" class="st11">Sleep</text>		</g>
		<g id="shape290-221" transform="translate(762.938,137.792) rotate(90)">
			<title>Sheet.290</title>
			<desc>Receive</desc>
			<rect x="0" y="275.182" width="48.4344" height="19" class="st6"/>
			<text x="9.77" y="287.08" class="st11">Receive</text>		</g>
		<g id="shape291-224" transform="translate(804.951,136.89) rotate(90)">
			<title>Sheet.291</title>
			<desc>Received</desc>
			<rect x="0" y="275.182" width="48.4344" height="19" class="st6"/>
			<text x="7.54" y="287.08" class="st11">Received</text>		</g>
		<g id="shape292-227" transform="translate(762.938,193.068) rotate(90)">
			<title>Sheet.292</title>
			<desc>Continuous mode enter</desc>
			<rect x="0" y="275.182" width="92.9964" height="19" class="st6"/>
			<text x="4.92" y="287.08" class="st11">Continuous mode enter</text>		</g>
		<g id="shape293-230" transform="translate(781.938,200.154) rotate(90)">
			<title>Sheet.293</title>
			<desc>Timeslot started</desc>
			<rect x="0" y="277.713" width="78.378" height="16.4691" class="st6"/>
			<text x="10.74" y="288.35" class="st11">Timeslot started</text>		</g>
		<g id="group297-233" transform="translate(103.965,-125.917)">
			<title>Sheet.297</title>
			<g id="shape294-234">
				<title>Circle</title>
				<path d="M0 292.06 A2.12598 2.12598 0 0 1 4.25 292.06 A2.12598 2.12598 0 1 1 0 292.06 Z" class="st4"/>
			</g>
			<g id="shape295-236" transform="translate(5.66928,0)">
				<title>Circle.295</title>
				<path d="M0 292.06 A2.12598 2.12598 0 0 1 4.25 292.06 A2.12598 2.12598 0 1 1 0 292.06 Z" class="st4"/>
			</g>
			<g id="shape296-238" transform="translate(11.3386,0)">
				<title>Circle.296</title>
				<path d="M0 292.06 A2.12598 2.12598 0 0 1 4.25 292.06 A2.12598 2.12598 0 1 1 0 292.06 Z" class="st4"/>
			</g>
		</g>
		<g id="group298-240" transform="translate(247.848,-125.917)">
			<title>Sheet.298</title>
			<g id="shape299-241">
				<title>Circle</title>
				<path d="M0 292.06 A2.12598 2.12598 0 0 1 4.25 292.06 A2.12598 2.12598 0 1 1 0 292.06 Z" class="st4"/>
			</g>
			<g id="shape300-243" transform="translate(5.66928,0)">
				<title>Circle.295</title>
				<path d="M0 292.06 A2.12598 2.12598 0 0 1 4.25 292.06 A2.12598 2.12598 0 1 1 0 292.06 Z" class="st4"/>
			</g>
			<g id="shape301-245" transform="translate(11.3386,0)">
				<title>Circle.296</title>
				<path d="M0 292.06 A2.12598 2.12598 0 0 1 4.25 292.06 A2.12598 2.12598 0 1 1 0 292.06 Z" class="st4"/>
			</g>
		</g>
	</g>
</svg>
