<?xml version="1.0" encoding="UTF-8" standalone="no"?>
<!DOCTYPE svg PUBLIC "-//W3C//DTD SVG 1.1//EN" "http://www.w3.org/Graphics/SVG/1.1/DTD/svg11.dtd">
<!-- Generated by Microsoft Visio, SVG Export fem-chart.svg Page-1 -->
<svg xmlns="http://www.w3.org/2000/svg" xmlns:xlink="http://www.w3.org/1999/xlink" xmlns:ev="http://www.w3.org/2001/xml-events"
		width="7.4556in" height="3.81127in" viewBox="0 0 536.803 274.411" xml:space="preserve" color-interpolation-filters="sRGB"
		class="st7">
	<style type="text/css">
	<![CDATA[
		.st1 {fill:none;stroke:none;stroke-width:1}
		.st2 {fill:#00a9ce;font-family:Arial;font-size:1.00001em}
		.st3 {marker-start:url(#mrkr4-9);stroke:#00a9ce;stroke-linecap:butt;stroke-width:1}
		.st4 {fill:#00a9ce;fill-opacity:1;stroke:#00a9ce;stroke-opacity:1;stroke-width:0.28409090909091}
		.st5 {stroke:#00a9ce;stroke-linecap:butt;stroke-width:1}
		.st6 {stroke:#00a9ce;stroke-dasharray:1,4;stroke-linecap:butt;stroke-width:1}
		.st7 {fill:none;fill-rule:evenodd;font-size:12px;overflow:visible;stroke-linecap:square;stroke-miterlimit:3}
	]]>
	</style>

	<defs id="Markers">
		<g id="lend4">
			<path d="M 2 1 L 0 0 L 2 -1 L 2 1 " style="stroke:none"/>
		</g>
		<marker id="mrkr4-9" class="st4" refX="6.68" orient="auto" markerUnits="strokeWidth" overflow="visible">
			<use xlink:href="#lend4" transform="scale(3.52) "/>
		</marker>
	</defs>
	<g>
		<title>Page-1</title>
		<g id="shape341-1" transform="translate(205.567,-212.301)">
			<title>Sheet.341</title>
			<desc>Send</desc>
			<rect x="0" y="255.411" width="56.6929" height="19" class="st1"/>
			<text x="14.33" y="268.51" class="st2">Send</text>		</g>
		<g id="shape342-4" transform="translate(205.206,-241.989)">
			<title>Dynamic connector.342</title>
			<path d="M6.68 267.32 L7.04 267.32 L57.72 267.32" class="st3"/>
		</g>
		<g id="shape343-10" transform="translate(195.646,-256.162)">
			<title>Dynamic connector.343</title>
			<path d="M-6.68 281.44 L-7.04 281.44 L-22.29 281.64" class="st3"/>
		</g>
		<g id="shape344-15" transform="translate(208.496,-254.411)">
			<title>Sheet.344</title>
			<desc>5±2.5 µs</desc>
			<rect x="0" y="255.411" width="58.2047" height="19" class="st1"/>
			<text x="6.01" y="268.51" class="st2">5±2.5 µs </text>		</g>
		<g id="shape345-18" transform="translate(343.142,-207.83)">
			<title>Dynamic connector.345</title>
			<path d="M6.68 267.32 L7.04 267.32 L56.28 267.32" class="st3"/>
		</g>
		<g id="shape346-23" transform="translate(332.843,-207.83)">
			<title>Dynamic connector.346</title>
			<path d="M-6.68 267.32 L-7.04 267.32 L-22.11 267.32" class="st3"/>
		</g>
		<g id="shape347-28" transform="translate(344.559,-221.995)">
			<title>Sheet.347</title>
			<desc>5±2.5 µs</desc>
			<rect x="0" y="255.411" width="54.8587" height="19" class="st1"/>
			<text x="4.33" y="268.51" class="st2">5±2.5 µs </text>		</g>
		<g id="shape348-31" transform="translate(9.09899,-202.801)">
			<title>Sheet.348</title>
			<desc>Radio TX</desc>
			<rect x="0" y="255.411" width="58.2047" height="19" class="st1"/>
			<text x="4.18" y="268.51" class="st2">Radio TX</text>		</g>
		<g id="shape354-34" transform="translate(343.142,-148.106)">
			<title>Sheet.354</title>
			<desc>Receive</desc>
			<rect x="0" y="255.411" width="56.6929" height="19" class="st1"/>
			<text x="6.67" y="268.51" class="st2">Receive</text>		</g>
		<g id="shape355-37" transform="translate(1,-138.606)">
			<title>Sheet.355</title>
			<desc>Radio RX</desc>
			<rect x="0" y="255.411" width="66.3037" height="19" class="st1"/>
			<text x="10.95" y="268.51" class="st2">Radio RX</text>		</g>
		<g id="shape365-40" transform="translate(9.09899,-75.8221)">
			<title>Sheet.365</title>
			<desc>PA pin</desc>
			<rect x="0" y="255.411" width="58.2047" height="19" class="st1"/>
			<text x="18.85" y="268.51" class="st2">PA pin</text>		</g>
		<g id="shape372-43" transform="translate(1,-11.6213)">
			<title>Sheet.372</title>
			<desc>LNA pin</desc>
			<rect x="0" y="255.411" width="66.3037" height="19" class="st1"/>
			<text x="19.61" y="268.51" class="st2">LNA pin</text>		</g>
		<g id="group373-46" transform="translate(72.4331,-4.11339)">
			<title>Sheet.373</title>
			<g id="shape366-47">
				<title>Dynamic connector.366</title>
				<path d="M0 267.32 L260.41 267.32" class="st5"/>
			</g>
			<g id="shape367-50" transform="translate(253.323,-7.08661)">
				<title>Dynamic connector.367</title>
				<path d="M7.09 274.41 L7.09 235.1" class="st5"/>
			</g>
			<g id="shape368-53" transform="translate(260.409,-39.3071)">
				<title>Dynamic connector.368</title>
				<path d="M0 267.32 L66.9 267.32" class="st5"/>
			</g>
			<g id="shape369-56" transform="translate(320.22,-7.08661)">
				<title>Dynamic connector.369</title>
				<path d="M7.09 274.41 L7.09 235.1" class="st5"/>
			</g>
			<g id="shape370-59" transform="translate(327.307,-14.1732)">
				<title>Dynamic connector.370</title>
				<path d="M0 281.5 L136.06 281.5" class="st5"/>
			</g>
		</g>
		<g id="group374-62" transform="translate(72.4331,-67.3282)">
			<title>Sheet.374</title>
			<g id="shape356-63">
				<title>Dynamic connector.356</title>
				<path d="M0 267.32 L123.21 267.32" class="st5"/>
			</g>
			<g id="shape357-66" transform="translate(116.126,-7.08661)">
				<title>Dynamic connector.357</title>
				<path d="M7.09 274.41 L7.09 235.1" class="st5"/>
			</g>
			<g id="shape358-69" transform="translate(123.213,-39.3071)">
				<title>Dynamic connector.358</title>
				<path d="M0 267.32 L66.9 267.32" class="st5"/>
			</g>
			<g id="shape359-72" transform="translate(183.024,-7.08661)">
				<title>Dynamic connector.359</title>
				<path d="M7.09 274.41 L7.09 235.1" class="st5"/>
			</g>
			<g id="shape360-75" transform="translate(190.11,-14.1732)">
				<title>Dynamic connector.360</title>
				<path d="M0 281.5 L67.94 281.5 A2.3622 2.3622 0 0 1 72.66 281.5 L134.83 281.5 A2.3622 2.3622 0 1 1 139.56 281.5 L273.26
							 281.5" class="st5"/>
			</g>
		</g>
		<g id="group376-78" transform="translate(72.4331,-193.758)">
			<title>Sheet.376</title>
			<g id="shape336-79" transform="translate(-5.43565E-13,-0.126547)">
				<title>Dynamic connector</title>
				<path d="M0 267.45 L120.85 267.22 A2.3622 2.3622 0 1 1 125.57 267.21 L132.77 267.2" class="st5"/>
			</g>
			<g id="shape337-82" transform="translate(125.686,-7.33971)">
				<title>Dynamic connector.337</title>
				<path d="M7.09 274.41 L7.09 235.36" class="st5"/>
			</g>
			<g id="shape338-85" transform="translate(132.773,-39.3071)">
				<title>Dynamic connector.338</title>
				<path d="M0 267.32 L57.34 267.32" class="st5"/>
			</g>
			<g id="shape339-88" transform="translate(183.024,-7.08661)">
				<title>Dynamic connector.339</title>
				<path d="M7.09 274.41 L7.09 235.1" class="st5"/>
			</g>
			<g id="shape340-91" transform="translate(190.11,0)">
				<title>Dynamic connector.340</title>
				<path d="M0 267.32 L67.94 267.32 A2.3622 2.3622 0 1 1 72.66 267.32 L78.24 267.32 A2.3622 2.3622 0 0 1 82.96 267.32
							 L273.26 267.32" class="st5"/>
			</g>
		</g>
		<g id="shape377-94" transform="translate(255.457,-200.845)">
			<title>Dynamic connector</title>
			<path d="M7.09 274.41 L7.09 361.53" class="st6"/>
		</g>
		<g id="shape378-97" transform="translate(202.732,-258.064)">
			<title>Dynamic connector.378</title>
			<path d="M-7.09 274.41 L-7.09 418.75" class="st6"/>
		</g>
		<g id="shape379-100" transform="translate(198.119,-257.731)">
			<title>Dynamic connector.379</title>
			<path d="M7.09 274.41 L7.09 291.99" class="st6"/>
		</g>
		<g id="shape380-103" transform="translate(193.339,-256.234)">
			<title>Dynamic connector.380</title>
			<path d="M2.31 281.43 L11.87 281.57" class="st5"/>
		</g>
		<g id="shape381-106" transform="translate(325.756,-221.753)">
			<title>Dynamic connector.381</title>
			<path d="M7.09 274.41 L7.09 445.66" class="st6"/>
		</g>
		<g id="shape382-109" transform="translate(350.228,-221.92)">
			<title>Dynamic connector.382</title>
			<path d="M-7.09 274.41 L-7.09 319.39" class="st6"/>
		</g>
		<g id="shape383-112" transform="translate(330.906,-207.83)">
			<title>Dynamic connector.383</title>
			<path d="M1.94 267.32 L12.24 267.32" class="st5"/>
		</g>
		<g id="group384-115" transform="translate(72.4331,-130.543)">
			<title>Sheet.384</title>
			<g id="shape349-116">
				<title>Dynamic connector.349</title>
				<path d="M0 267.32 L120.85 267.32 A2.3622 2.3622 0 1 1 125.57 267.32 L187.75 267.32 A2.3622 2.3622 0 1 1 192.47 267.32
							 L258.05 267.32 A2.3622 2.3622 0 1 1 262.77 267.32 L270.71 267.32" class="st5"/>
			</g>
			<g id="shape350-119" transform="translate(263.622,-7.08661)">
				<title>Dynamic connector.350</title>
				<path d="M7.09 274.41 L7.09 235.1" class="st5"/>
			</g>
			<g id="shape351-122" transform="translate(270.709,-53.4803)">
				<title>Dynamic connector.351</title>
				<path d="M0 281.5 L56.6 281.5" class="st5"/>
			</g>
			<g id="shape352-125" transform="translate(320.22,-7.08661)">
				<title>Dynamic connector.352</title>
				<path d="M7.09 274.41 L7.09 235.1" class="st5"/>
			</g>
			<g id="shape353-128" transform="translate(327.307,0)">
				<title>Dynamic connector.353</title>
				<path d="M0 267.32 L136.06 267.32" class="st5"/>
			</g>
		</g>
		<g id="shape385-131" transform="translate(406.827,-137.63)">
			<title>Dynamic connector.385</title>
			<path d="M-7.09 274.41 L-7.09 361.53" class="st6"/>
		</g>
	</g>
</svg>
