<?xml version="1.0" encoding="UTF-8" standalone="no"?>
<!DOCTYPE svg PUBLIC "-//W3C//DTD SVG 1.1//EN" "http://www.w3.org/Graphics/SVG/1.1/DTD/svg11.dtd">
<!-- Generated by Microsoft Visio, SVG Export radio_driver_architecture.svg Page-1 -->
<svg xmlns="http://www.w3.org/2000/svg" xmlns:xlink="http://www.w3.org/1999/xlink" xmlns:ev="http://www.w3.org/2001/xml-events"
		width="5.38265in" height="6.74281in" viewBox="0 0 387.551 485.482" xml:space="preserve" color-interpolation-filters="sRGB"
		class="st12">
	<style type="text/css">
	<![CDATA[
		.st1 {fill:none;stroke:#768692;stroke-width:1}
		.st2 {fill:#00a9ce;stroke:none;stroke-width:1}
		.st3 {fill:#ffffff;font-family:Arial;font-size:1.00001em}
		.st4 {font-size:0.83333em}
		.st5 {marker-end:url(#mrkr13-37);stroke:#00a9ce;stroke-linecap:butt;stroke-width:1}
		.st6 {fill:#00a9ce;fill-opacity:1;stroke:#00a9ce;stroke-opacity:1;stroke-width:0.28409090909091}
		.st7 {fill:none;stroke:none;stroke-width:1}
		.st8 {fill:#768692;font-family:Arial;font-size:1.00001em}
		.st9 {stroke:#00a9ce;stroke-width:1}
		.st10 {fill:#00a9ce;font-family:Arial;font-size:1.00001em}
		.st11 {font-size:1em}
		.st12 {fill:none;fill-rule:evenodd;font-size:12px;overflow:visible;stroke-linecap:square;stroke-miterlimit:3}
	]]>
	</style>

	<defs id="Markers">
		<g id="lend13">
			<path d="M 3 1 L 0 0 L 3 -1 L 3 1 " style="stroke:none"/>
		</g>
		<marker id="mrkr13-37" class="st6" refX="-10.56" orient="auto" markerUnits="strokeWidth" overflow="visible">
			<use xlink:href="#lend13" transform="scale(-3.52,-3.52) "/>
		</marker>
	</defs>
	<g>
		<title>Page-1</title>
		<g id="shape133-1" transform="translate(57.7318,-337.081)">
			<title>Sheet.133</title>
			<path d="M0 485.48 L164.41 485.48 L328.82 485.48 L328.82 338.08 L164.41 338.08 L0 338.08 L0 485.48 Z" class="st1"/>
		</g>
		<g id="shape137-3" transform="translate(66.2358,-350.157)">
			<title>Nordic Blue.137</title>
			<desc>Thread / Zigbee protocol</desc>
			<rect x="0" y="413.597" width="184.252" height="71.8855" class="st2"/>
			<text x="26.76" y="453.14" class="st3">Thread / Zigbee protocol</text>		</g>
		<g id="shape138-6" transform="translate(271.748,-350.157)">
			<title>Nordic Blue.2</title>
			<desc>BLE host</desc>
			<rect x="0" y="413.597" width="106.299" height="71.8855" class="st2"/>
			<text x="28.8" y="453.14" class="st3">BLE host</text>		</g>
		<g id="shape139-9" transform="translate(271.748,-159.329)">
			<title>Nordic Blue.139</title>
			<desc>BLE controller</desc>
			<rect x="0" y="315.913" width="106.299" height="169.569" class="st2"/>
			<text x="15.46" y="404.3" class="st3">BLE controller</text>		</g>
		<g id="shape140-12" transform="translate(66.2358,-257.012)">
			<title>Nordic Blue.4</title>
			<desc>nRF IEEE 802.15.4 radio driver (Open-source part of 802.15.4)</desc>
			<rect x="0" y="413.597" width="184.252" height="71.8855" class="st2"/>
			<text x="10.42" y="445.94" class="st3">nRF IEEE 802.15.4 radio driver <tspan x="23.48" dy="1.44em" class="st4">(Open</tspan><tspan
						class="st4">-</tspan><tspan class="st4">source part of 802.15.4)</tspan></text>		</g>
		<g id="shape141-18" transform="translate(94.5822,-159.329)">
			<title>Nordic Blue.7</title>
			<desc>nRF IEEE 802.15.4 SL (Closed-source library with advanced 802...</desc>
			<rect x="0" y="413.597" width="155.906" height="71.8855" class="st2"/>
			<text x="18.92" y="439.94" class="st3">nRF IEEE 802.15.4 SL <tspan x="18.77" dy="1.26em" class="st4">(Closed</tspan><tspan
						class="st4">-</tspan><tspan class="st4">source library with </tspan><tspan x="14.29" dy="1.38em"
						class="st4">advanced 802.15.4 features)</tspan></text>		</g>
		<g id="shape142-25" transform="translate(94.5822,-52.5197)">
			<title>Nordic Blue.9</title>
			<desc>MPSL (including radio arbiter)</desc>
			<rect x="0" y="413.597" width="230.315" height="71.8855" class="st2"/>
			<text x="98.82" y="445.94" class="st3">MPSL <tspan x="64.02" dy="1.44em" class="st4">(including radio arbiter)</tspan></text>		</g>
		<g id="shape143-29" transform="translate(66.2358,-1)">
			<title>Nordic Blue.10</title>
			<desc>Radio</desc>
			<rect x="0" y="452.29" width="311.811" height="33.1926" class="st2"/>
			<text x="140.23" y="472.49" class="st3">Radio</text>		</g>
		<g id="shape144-32" transform="translate(356.787,-160.172)">
			<title>Dynamic connector.144</title>
			<path d="M7.09 485.48 L7.09 600.74" class="st5"/>
		</g>
		<g id="shape145-38" transform="translate(73.3224,-251.455)">
			<title>Dynamic connector.30</title>
			<path d="M7.09 485.48 L7.09 692.21" class="st5"/>
		</g>
		<g id="shape146-43" transform="translate(165.448,-257.012)">
			<title>Dynamic connector.32</title>
			<path d="M-7.09 485.48 L-7.09 500.72" class="st5"/>
		</g>
		<g id="shape147-48" transform="translate(167.559,-160.991)">
			<title>Dynamic connector.33</title>
			<path d="M7.09 485.48 L7.09 511.51" class="st5"/>
		</g>
		<g id="shape148-53" transform="translate(293.007,-161.491)">
			<title>Dynamic connector.34</title>
			<path d="M7.09 485.48 L7.09 512.01" class="st5"/>
		</g>
		<g id="shape151-58" transform="translate(139.515,-451.134)">
			<title>Sheet.151</title>
			<desc>Hardware-agnostic protocols</desc>
			<rect x="0" y="466.482" width="165.252" height="19" class="st7"/>
			<text x="6.26" y="479.58" class="st8">Hardware-agnostic protocols</text>		</g>
		<g id="shape159-61" transform="translate(33.9051,-294.207)">
			<title>Sheet.159</title>
			<path d="M-0 399.73 L0.28 485.48" class="st9"/>
			<path d="M4.54 399.73 L-0 399.73" class="st9"/>
			<path d="M4.83 485.48 L0.28 485.48" class="st9"/>
		</g>
		<g id="shape160-66" transform="translate(-458.326,409.386) rotate(-90)">
			<title>Sheet.160</title>
			<desc>802.15.4 PHY</desc>
			<rect x="0" y="459.97" width="140" height="25.5118" class="st7"/>
			<text x="46.64" y="469.13" class="st10">802.15.4<tspan x="57.66" dy="1.2em" class="st11">PHY</tspan></text>		</g>
		<g id="shape162-70" transform="translate(33.9051,-1.1752)">
			<title>Sheet.162</title>
			<path d="M-0 195.64 L0.28 485.48" class="st9"/>
			<path d="M4.54 195.64 L-0 195.64" class="st9"/>
			<path d="M4.83 485.48 L0.28 485.48" class="st9"/>
		</g>
		<g id="shape158-75" transform="translate(-458.326,188.783) rotate(-90)">
			<title>Reverse.158</title>
			<desc>802.15.4 MAC</desc>
			<rect x="0" y="459.97" width="85.748" height="25.5118" class="st7"/>
			<text x="19.52" y="469.13" class="st10">802.15.4 <tspan x="29.54" dy="1.2em" class="st11">MAC</tspan></text>		</g>
	</g>
</svg>
