<?xml version="1.0" encoding="UTF-8" standalone="no"?>
<!DOCTYPE svg PUBLIC "-//W3C//DTD SVG 1.1//EN" "http://www.w3.org/Graphics/SVG/1.1/DTD/svg11.dtd">
<!-- Generated by Microsoft Visio, SVG Export matter_device_certification_process_cbs.svg Page-1 -->
<svg xmlns="http://www.w3.org/2000/svg" xmlns:xlink="http://www.w3.org/1999/xlink" xmlns:ev="http://www.w3.org/2001/xml-events"
		width="8.24955in" height="4.75403in" viewBox="0 0 593.968 342.29" xml:space="preserve" color-interpolation-filters="sRGB"
		class="st34">
	<style type="text/css">
	<![CDATA[
		.st1 {fill:none;stroke:#768692;stroke-dasharray:0.01,10;stroke-width:2}
		.st2 {fill:#d9e1e2;stroke:#d9e1e2;stroke-width:1}
		.st3 {fill:#768692;font-family:Arial;font-size:0.833336em}
		.st4 {fill:#00a9ce;stroke:none;stroke-width:1}
		.st5 {fill:#feffff;font-family:Arial;font-size:0.833336em}
		.st6 {fill:none;stroke:#ffcd00;stroke-width:1}
		.st7 {fill:#333f48;font-family:Arial;font-size:0.833336em}
		.st8 {font-size:1em}
		.st9 {fill:#d9e1e2;stroke:none;stroke-width:1}
		.st10 {fill:none;stroke:#d9e1e2;stroke-width:1}
		.st11 {fill:#d9e1e2;font-family:Arial;font-size:0.833336em}
		.st12 {fill:none;stroke:#0033a0;stroke-width:1}
		.st13 {fill:none;stroke:none;stroke-width:1}
		.st14 {marker-end:url(#mrkr13-58);stroke:#d9e1e2;stroke-linecap:butt;stroke-width:1}
		.st15 {fill:#d9e1e2;fill-opacity:1;stroke:#d9e1e2;stroke-opacity:1;stroke-width:0.28409090909091}
		.st16 {marker-start:url(#mrkr13-84);stroke:#d9e1e2;stroke-linecap:butt;stroke-width:1}
		.st17 {marker-end:url(#mrkr13-58);stroke:#d9e1e2;stroke-dasharray:1,4;stroke-linecap:butt;stroke-width:1}
		.st18 {marker-end:url(#mrkr13-120);stroke:#00a9ce;stroke-dasharray:8,4;stroke-linecap:butt;stroke-width:1}
		.st19 {fill:#00a9ce;fill-opacity:1;stroke:#00a9ce;stroke-opacity:1;stroke-width:0.28409090909091}
		.st20 {marker-end:url(#mrkr13-120);stroke:#00a9ce;stroke-linecap:butt;stroke-width:1}
		.st21 {fill:#333f48;font-family:Arial;font-size:1.00001em}
		.st22 {stroke:#768692;stroke-linecap:butt;stroke-width:4}
		.st23 {stroke:#008bab;stroke-linecap:butt;stroke-width:4}
		.st24 {fill:#d9e1e2;font-family:Arial;font-size:1.00001em}
		.st25 {fill:#768692;fill-opacity:0.41;stroke:#768692;stroke-dasharray:0.01,10;stroke-width:2}
		.st26 {fill:none;stroke:#768692;stroke-width:1}
		.st27 {fill:#333f48;font-family:Arial;font-size:0.666664em}
		.st28 {fill:#00a9ce;stroke:none;stroke-linecap:round;stroke-linejoin:round;stroke-width:0.75}
		.st29 {fill:none;stroke:#ee2f4e;stroke-width:1}
		.st30 {marker-start:url(#mrkr4-220);stroke:#008bab;stroke-linecap:butt;stroke-width:1}
		.st31 {fill:#008bab;fill-opacity:1;stroke:#008bab;stroke-opacity:1;stroke-width:0.28409090909091}
		.st32 {marker-start:url(#mrkr4-220);stroke:#008bab;stroke-dasharray:8,4;stroke-linecap:butt;stroke-width:1}
		.st33 {marker-start:url(#mrkr4-220);stroke:#008bab;stroke-dasharray:1,4;stroke-linecap:butt;stroke-width:1}
		.st34 {fill:none;fill-rule:evenodd;font-size:12px;overflow:visible;stroke-linecap:square;stroke-miterlimit:3}
	]]>
	</style>

	<defs id="Markers">
		<g id="lend13">
			<path d="M 3 1 L 0 0 L 3 -1 L 3 1 " style="stroke:none"/>
		</g>
		<marker id="mrkr13-58" class="st15" refX="-10.56" orient="auto" markerUnits="strokeWidth" overflow="visible">
			<use xlink:href="#lend13" transform="scale(-3.52,-3.52) "/>
		</marker>
		<marker id="mrkr13-84" class="st15" refX="10.2" orient="auto" markerUnits="strokeWidth" overflow="visible">
			<use xlink:href="#lend13" transform="scale(3.52) "/>
		</marker>
		<marker id="mrkr13-120" class="st19" refX="-10.56" orient="auto" markerUnits="strokeWidth" overflow="visible">
			<use xlink:href="#lend13" transform="scale(-3.52,-3.52) "/>
		</marker>
		<g id="lend4">
			<path d="M 2 1 L 0 0 L 2 -1 L 2 1 " style="stroke:none"/>
		</g>
		<marker id="mrkr4-220" class="st31" refX="6.68" orient="auto" markerUnits="strokeWidth" overflow="visible">
			<use xlink:href="#lend4" transform="scale(3.52) "/>
		</marker>
	</defs>
	<g>
		<title>Page-1</title>
		<g id="shape3639-1" transform="translate(349.425,-16.7559)">
			<title>Sheet.3639</title>
			<path d="M0 342.29 L158.74 342.29 L158.74 237.41 L0 237.41 L0 342.29 Z" class="st1"/>
		</g>
		<g id="shape3640-3" transform="translate(180.728,-151.554)">
			<title>Sheet.3640</title>
			<desc>Testing</desc>
			<rect x="0" y="290.002" width="66.4128" height="52.2882" class="st2"/>
			<text x="16.81" y="319.15" class="st3">Testing</text>		</g>
		<g id="shape3641-6" transform="translate(269.818,-151.554)">
			<title>Sheet.3641</title>
			<desc>Reporting</desc>
			<rect x="0" y="290.002" width="66.4128" height="52.2882" class="st2"/>
			<text x="11.53" y="319.15" class="st3">Reporting</text>		</g>
		<g id="shape3642-9" transform="translate(357.491,-151.554)">
			<title>Sheet.3642</title>
			<desc>Application</desc>
			<rect x="0" y="290.002" width="66.4128" height="52.2882" class="st4"/>
			<text x="8.75" y="319.15" class="st5">Application</text>		</g>
		<g id="shape3643-12" transform="translate(448.804,-151.554)">
			<title>Sheet.3643</title>
			<desc>Processing</desc>
			<rect x="0" y="290.002" width="66.4128" height="52.2882" class="st4"/>
			<text x="8.47" y="319.15" class="st5">Processing</text>		</g>
		<g id="shape3644-15" transform="translate(526.555,-77.8535)">
			<title>Sheet.3644</title>
			<desc>Certification by Similarity</desc>
			<rect x="0" y="307.642" width="66.4128" height="34.648" class="st6"/>
			<text x="6.81" y="321.97" class="st7">Certification <tspan x="6.26" dy="1.2em" class="st8">by Similarity</tspan></text>		</g>
		<g id="shape3645-19" transform="translate(90.0197,-151.554)">
			<title>Sheet.3645</title>
			<desc>Membership at CSA</desc>
			<rect x="0" y="290.002" width="66.4128" height="52.2882" class="st9"/>
			<text x="5.7" y="313.15" class="st3">Membership <tspan x="17.37" dy="1.2em" class="st8">at CSA</tspan></text>		</g>
		<g id="shape3646-23" transform="translate(255.846,-90.1298)">
			<title>Sheet.3646</title>
			<desc>Test results</desc>
			<rect x="0" y="309.844" width="66.4128" height="32.4457" class="st10"/>
			<text x="7.37" y="329.07" class="st11">Test results</text>		</g>
		<g id="shape3647-26" transform="translate(154.202,-77.5374)">
			<title>Sheet.3647</title>
			<desc>DoC</desc>
			<rect x="0" y="307.642" width="66.4128" height="34.648" class="st10"/>
			<text x="23.2" y="327.97" class="st11">DoC</text>		</g>
		<g id="shape3648-29" transform="translate(154.202,-30.4496)">
			<title>Sheet.3648</title>
			<desc>PICS</desc>
			<rect x="0" y="306.225" width="66.4128" height="36.0653" class="st10"/>
			<text x="21.54" y="327.26" class="st11">PICS</text>		</g>
		<g id="shape3649-32" transform="translate(357.491,-77.8535)">
			<title>Sheet.3649</title>
			<desc>DoC</desc>
			<rect x="0" y="307.642" width="66.4128" height="34.648" class="st12"/>
			<text x="23.2" y="327.97" class="st7">DoC</text>		</g>
		<g id="shape3650-35" transform="translate(357.491,-30.4496)">
			<title>Sheet.3650</title>
			<desc>PICS</desc>
			<rect x="0" y="306.225" width="66.4128" height="36.0653" class="st12"/>
			<text x="21.54" y="327.26" class="st7">PICS</text>		</g>
		<g id="shape3651-38" transform="translate(435.846,-77.8535)">
			<title>Sheet.3651</title>
			<desc>Dependent Transport Attestation</desc>
			<rect x="0" y="307.642" width="66.4128" height="34.648" class="st12"/>
			<text x="8.74" y="315.97" class="st7">Dependent <tspan x="11.81" dy="1.2em" class="st8">Transport </tspan><tspan
						x="9.58" dy="1.2em" class="st8">Attestation</tspan></text>		</g>
		<g id="shape3652-43" transform="translate(435.846,-30.4496)">
			<title>Sheet.3652</title>
			<desc>Attestation of Security</desc>
			<rect x="0" y="306.225" width="66.4128" height="36.0653" class="st12"/>
			<text x="9.58" y="321.26" class="st7">Attestation <tspan x="9.59" dy="1.2em" class="st8">of Security</tspan></text>		</g>
		<g id="shape3653-47" transform="translate(90.0197,-78.6385)">
			<title>Sheet.3653</title>
			<desc>VID</desc>
			<rect x="0" y="309.844" width="39.685" height="32.4457" class="st10"/>
			<text x="11.51" y="329.07" class="st11">VID</text>		</g>
		<g id="shape3654-50" transform="translate(349.425,-3.1496)">
			<title>Sheet.3654</title>
			<desc>Required application documents</desc>
			<rect x="0" y="328.684" width="158.74" height="13.6063" class="st13"/>
			<text x="7.94" y="338.49" class="st7">Required application documents</text>		</g>
		<g id="shape3655-53" transform="translate(116.949,-151.554)">
			<title>Dynamic connector.3655</title>
			<path d="M-7.09 342.29 L-7.09 372.2" class="st14"/>
		</g>
		<g id="shape3656-59" transform="translate(129.705,-87.7748)">
			<title>Dynamic connector.3656</title>
			<path d="M0 335.2 L13.94 335.2" class="st14"/>
		</g>
		<g id="shape3657-64" transform="translate(109.862,-78.6385)">
			<title>Dynamic connector.3657</title>
			<path d="M0 342.29 L0 372.45 L33.78 372.45" class="st14"/>
		</g>
		<g id="shape3658-69" transform="translate(187.408,-112.185)">
			<title>Dynamic connector.3658</title>
			<path d="M0 342.29 L0 322.76 L26.53 322.76 L26.53 313.48" class="st14"/>
		</g>
		<g id="shape3659-74" transform="translate(247.141,-170.612)">
			<title>Dynamic connector.3659</title>
			<path d="M0 335.2 L12.12 335.2" class="st14"/>
		</g>
		<g id="shape3660-79" transform="translate(180.728,-184.973)">
			<title>Dynamic connector.3660</title>
			<path d="M-10.2 335.21 L-10.56 335.21 L-24.3 335.17" class="st16"/>
		</g>
		<g id="shape3661-85" transform="translate(180.728,-158.357)">
			<title>Dynamic connector.3661</title>
			<path d="M0 335.2 L-13.74 335.2" class="st14"/>
		</g>
		<g id="shape3662-90" transform="translate(336.231,-170.612)">
			<title>Dynamic connector.3662</title>
			<path d="M0 335.2 L10.7 335.2" class="st14"/>
		</g>
		<g id="shape3663-95" transform="translate(310.091,-151.554)">
			<title>Dynamic connector.3663</title>
			<path d="M-7.08 352.49 L-7.08 352.85 L-7.11 371.27" class="st16"/>
		</g>
		<g id="shape3664-100" transform="translate(234.02,-151.554)">
			<title>Dynamic connector.3664</title>
			<path d="M0 342.29 L0 387.49 L11.27 387.49" class="st14"/>
		</g>
		<g id="shape3665-105" transform="translate(220.615,-76.4525)">
			<title>Dynamic connector.3665</title>
			<path d="M0 335.22 L126.32 335.19" class="st17"/>
		</g>
		<g id="shape3666-110" transform="translate(220.615,-41.3957)">
			<title>Dynamic connector.3666</title>
			<path d="M0 335.2 L126.32 335.2" class="st17"/>
		</g>
		<g id="shape3667-115" transform="translate(383.526,-121.638)">
			<title>Dynamic connector.3667</title>
			<path d="M7 342.29 L7.11 322.93" class="st18"/>
		</g>
		<g id="shape3668-121" transform="translate(423.904,-170.612)">
			<title>Dynamic connector.3668</title>
			<path d="M0 335.2 L14.34 335.2" class="st20"/>
		</g>
		<g id="shape3669-126" transform="translate(515.217,-177.698)">
			<title>Dynamic connector.3669</title>
			<path d="M0 342.29 L44.54 342.29 L44.54 396.93" class="st18"/>
		</g>
		<g id="shape3670-131" transform="translate(2.14567,-3.1496)">
			<title>Sheet.3670</title>
			<desc>Certification documents</desc>
			<rect x="0" y="220.967" width="72.0821" height="121.323" class="st13"/>
			<text x="4.72" y="278.03" class="st21">Certification <tspan x="9.38" dy="1.2em" class="st8">documents</tspan></text>		</g>
		<g id="shape3671-135" transform="translate(422.389,217.818) rotate(90)">
			<title>Sheet.3671</title>
			<path d="M0 342.29 L120.47 342.29" class="st22"/>
		</g>
		<g id="shape3672-138" transform="translate(1.43701,-148.567)">
			<title>Sheet.3672</title>
			<desc>Certification process steps</desc>
			<rect x="0" y="285.221" width="72.0821" height="57.0687" class="st13"/>
			<text x="4.72" y="302.96" class="st21">Certification <tspan x="26.06" dy="1.2em" class="st8">process </tspan><tspan
						x="39.4" dy="1.2em" class="st8">steps</tspan></text>		</g>
		<g id="shape3673-143" transform="translate(421.68,136.655) rotate(90)">
			<title>Sheet.3673</title>
			<path d="M0 342.29 L56.67 342.29" class="st23"/>
		</g>
		<g id="shape3674-146" transform="translate(1,-222.943)">
			<title>Sheet.3674</title>
			<desc>Actors in each step</desc>
			<rect x="0" y="285.221" width="72.0821" height="57.0687" class="st13"/>
			<text x="21.4" y="310.16" class="st21">Actors in <tspan x="16.04" dy="1.2em" class="st8">each step</tspan></text>		</g>
		<g id="shape3675-150" transform="translate(421.243,62.2787) rotate(90)">
			<title>Sheet.3675</title>
			<path d="M0 342.29 L56.67 342.29" class="st22"/>
		</g>
		<g id="shape3676-153" transform="translate(185.588,-223.685)">
			<title>Sheet.3676</title>
			<desc>ATL</desc>
			<rect x="0" y="313.944" width="56.6929" height="28.3465" class="st13"/>
			<text x="17.34" y="331.72" class="st24">ATL</text>		</g>
		<g id="shape3677-156" transform="translate(94.8796,-223.685)">
			<title>Sheet.3677</title>
			<desc>CSA</desc>
			<rect x="0" y="313.944" width="56.6929" height="28.3465" class="st13"/>
			<text x="16.01" y="331.72" class="st24">CSA</text>		</g>
		<g id="shape3678-159" transform="translate(94.8796,-252.031)">
			<title>Sheet.3678</title>
			<desc>Vendor</desc>
			<rect x="0" y="313.944" width="56.6929" height="28.3465" class="st13"/>
			<text x="9" y="331.72" class="st24">Vendor</text>		</g>
		<g id="shape3679-162" transform="translate(185.588,-252.031)">
			<title>Sheet.3679</title>
			<desc>Vendor</desc>
			<rect x="0" y="313.944" width="56.6929" height="28.3465" class="st13"/>
			<text x="9" y="331.72" class="st24">Vendor</text>		</g>
		<g id="shape3680-165" transform="translate(274.678,-252.031)">
			<title>Sheet.3680</title>
			<desc>ATL</desc>
			<rect x="0" y="313.944" width="56.6929" height="28.3465" class="st13"/>
			<text x="17.34" y="331.72" class="st24">ATL</text>		</g>
		<g id="shape3681-168" transform="translate(274.678,-223.685)">
			<title>Sheet.3681</title>
			<desc>CSA</desc>
			<rect x="0" y="313.944" width="56.6929" height="28.3465" class="st13"/>
			<text x="16.01" y="331.72" class="st24">CSA</text>		</g>
		<g id="shape3682-171" transform="translate(359.311,-223.685)">
			<title>Sheet.3682</title>
			<desc>CSA</desc>
			<rect x="0" y="313.944" width="56.6929" height="28.3465" class="st13"/>
			<text x="16.01" y="331.72" class="st21">CSA</text>		</g>
		<g id="shape3683-174" transform="translate(359.311,-252.031)">
			<title>Sheet.3683</title>
			<desc>Vendor</desc>
			<rect x="0" y="313.944" width="56.6929" height="28.3465" class="st13"/>
			<text x="9" y="331.72" class="st21">Vendor</text>		</g>
		<g id="shape3684-177" transform="translate(453.664,-223.685)">
			<title>Sheet.3684</title>
			<desc>CSA</desc>
			<rect x="0" y="313.944" width="56.6929" height="28.3465" class="st13"/>
			<text x="16.01" y="331.72" class="st21">CSA</text>		</g>
		<g id="shape3685-180" transform="translate(90.0197,-3.1496)">
			<title>Sheet.3685</title>
			<desc>Completed in the original certification process</desc>
			<path d="M0 342.29 L252.32 342.29 L252.32 62.86 L0 62.86 L0 342.29 Z" class="st25"/>
			<text x="5.1" y="206.18" class="st21">Completed in the original certification process</text>		</g>
		<g id="group3804-183" transform="translate(465.636,-256.251)">
			<title>Sheet.3804</title>
			<g id="shape3805-184">
				<title>Nordic Light Grey</title>
				<rect x="0" y="257.251" width="126.067" height="85.0394" class="st26"/>
			</g>
			<g id="shape3806-186" transform="translate(2.904,-57.5392)">
				<title>Sheet.3806</title>
				<rect x="0" y="331.422" width="17.0048" height="10.868" class="st6"/>
			</g>
			<g id="shape3807-188" transform="translate(23.8477,-58.0599)">
				<title>Sheet.3807</title>
				<desc>Documents from CSA</desc>
				<rect x="0" y="332.464" width="102.219" height="9.82649" class="st13"/>
				<text x="4" y="339.78" class="st27">Documents from CSA</text>			</g>
			<g id="shape3808-191" transform="translate(2.904,-70.6175)">
				<title>Sheet.3808</title>
				<rect x="0" y="331.422" width="17.0048" height="10.868" class="st28"/>
			</g>
			<g id="shape3809-193" transform="translate(23.8477,-71.1383)">
				<title>Sheet.3809</title>
				<desc>Certification steps</desc>
				<rect x="0" y="332.464" width="102.219" height="9.82649" class="st13"/>
				<text x="4" y="339.78" class="st27">Certification steps</text>			</g>
			<g id="shape3810-196" transform="translate(2.904,-44.1723)">
				<title>Sheet.3810</title>
				<rect x="0" y="331.422" width="17.0048" height="10.868" class="st12"/>
			</g>
			<g id="shape3811-198" transform="translate(23.8477,-44.1723)">
				<title>Sheet.3811</title>
				<desc>Documents from Vendor</desc>
				<rect x="0" y="332.464" width="102.219" height="9.82649" class="st13"/>
				<text x="4" y="339.78" class="st27">Documents from Vendor</text>			</g>
			<g id="shape3812-201" transform="translate(2.904,-30.5178)">
				<title>Sheet.3812</title>
				<rect x="0" y="331.422" width="17.0048" height="10.868" class="st29"/>
			</g>
			<g id="shape3813-203" transform="translate(23.8477,-31.3702)">
				<title>Sheet.3813</title>
				<desc>Documents from ATL</desc>
				<rect x="0" y="332.464" width="102.219" height="9.82649" class="st13"/>
				<text x="4" y="339.78" class="st27">Documents from ATL</text>			</g>
			<g id="shape3814-206" transform="translate(30.8976,-19.1813)">
				<title>Sheet.3814</title>
				<desc>Process step</desc>
				<rect x="0" y="332.464" width="95.1695" height="9.82649" class="st13"/>
				<text x="4" y="339.78" class="st27">Process step</text>			</g>
			<g id="shape3815-209" transform="translate(30.8976,-9.35477)">
				<title>Sheet.3815</title>
				<desc>Document step</desc>
				<rect x="0" y="332.464" width="95.1695" height="9.82649" class="st13"/>
				<text x="4" y="339.78" class="st27">Document step</text>			</g>
			<g id="shape3816-212" transform="translate(30.8976,-0.283465)">
				<title>Sheet.3816</title>
				<desc>Same document used</desc>
				<rect x="0" y="332.464" width="95.1695" height="9.82649" class="st13"/>
				<text x="4" y="339.78" class="st27">Same document used</text>			</g>
			<g id="shape3817-215" transform="translate(4.25196,-24.6614)">
				<title>Sheet.3817</title>
				<path d="M6.68 342.29 L7.04 342.29 L26.65 342.29" class="st30"/>
			</g>
			<g id="shape3818-221" transform="translate(4.25196,-14.7402)">
				<title>Sheet.3818</title>
				<path d="M6.68 342.29 L7.04 342.29 L26.65 342.29" class="st32"/>
			</g>
			<g id="shape3819-226" transform="translate(4.25196,-5.66931)">
				<title>Sheet.3819</title>
				<path d="M6.68 342.29 L7.04 342.29 L26.65 342.29" class="st33"/>
			</g>
		</g>
	</g>
</svg>
