<?xml version="1.0" encoding="UTF-8" standalone="no"?>
<!DOCTYPE svg PUBLIC "-//W3C//DTD SVG 1.1//EN" "http://www.w3.org/Graphics/SVG/1.1/DTD/svg11.dtd">
<!-- Generated by Microsoft Visio, SVG Export matter_device_attestation.svg Page-1 -->
<svg xmlns="http://www.w3.org/2000/svg" xmlns:xlink="http://www.w3.org/1999/xlink" xmlns:ev="http://www.w3.org/2001/xml-events"
		width="6.26937in" height="6.13014in" viewBox="0 0 451.395 441.37" xml:space="preserve" color-interpolation-filters="sRGB"
		class="st25">
	<style type="text/css">
	<![CDATA[
		.st1 {fill:#00a9ce;stroke:none;stroke-width:1}
		.st2 {fill:#feffff;font-family:Arial;font-size:0.833336em}
		.st3 {font-size:1em}
		.st4 {fill:#00a9ce;stroke:#feffff;stroke-width:1}
		.st5 {fill:#768692;stroke:none;stroke-width:1}
		.st6 {fill:#0077c8;stroke:none;stroke-width:1}
		.st7 {marker-end:url(#mrkr13-21);stroke:#00a9ce;stroke-linecap:butt;stroke-width:1}
		.st8 {fill:#00a9ce;fill-opacity:1;stroke:#00a9ce;stroke-opacity:1;stroke-width:0.28409090909091}
		.st9 {fill:none;stroke:#ffc000;stroke-dasharray:7,5;stroke-width:1}
		.st10 {fill:#ffc000;font-family:Arial;font-size:0.833336em}
		.st11 {fill:none;stroke:none;stroke-width:1}
		.st12 {fill:#00a9ce;font-family:Arial;font-size:0.833336em}
		.st13 {marker-start:url(#mrkr4-59);stroke:#00a9ce;stroke-linecap:butt;stroke-width:1}
		.st14 {fill:none;stroke:#333f48;stroke-dasharray:7,5;stroke-width:1}
		.st15 {fill:#333f48;font-family:Arial;font-size:0.833336em}
		.st16 {stroke:#00a9ce;stroke-linecap:butt;stroke-width:1}
		.st17 {fill:none;stroke:#0033a0;stroke-dasharray:7,5;stroke-width:1}
		.st18 {fill:#0033a0;font-family:Arial;font-size:0.833336em}
		.st19 {fill:none;stroke:#768692;stroke-dasharray:7,5;stroke-width:1}
		.st20 {fill:#768692;font-family:Arial;font-size:0.833336em}
		.st21 {fill:none;stroke:#768692;stroke-width:1}
		.st22 {fill:#333f48;font-family:Arial;font-size:0.666664em}
		.st23 {fill:#00a9ce;stroke:none;stroke-linecap:round;stroke-linejoin:round;stroke-width:0.75}
		.st24 {marker-end:url(#mrkr4-137);stroke:#00a9ce;stroke-linecap:butt;stroke-width:1}
		.st25 {fill:none;fill-rule:evenodd;font-size:12px;overflow:visible;stroke-linecap:square;stroke-miterlimit:3}
	]]>
	</style>

	<defs id="Markers">
		<g id="lend13">
			<path d="M 3 1 L 0 0 L 3 -1 L 3 1 " style="stroke:none"/>
		</g>
		<marker id="mrkr13-21" class="st8" refX="-10.56" orient="auto" markerUnits="strokeWidth" overflow="visible">
			<use xlink:href="#lend13" transform="scale(-3.52,-3.52) "/>
		</marker>
		<g id="lend4">
			<path d="M 2 1 L 0 0 L 2 -1 L 2 1 " style="stroke:none"/>
		</g>
		<marker id="mrkr4-59" class="st8" refX="6.68" orient="auto" markerUnits="strokeWidth" overflow="visible">
			<use xlink:href="#lend4" transform="scale(3.52) "/>
		</marker>
		<marker id="mrkr4-137" class="st8" refX="-7.04" orient="auto" markerUnits="strokeWidth" overflow="visible">
			<use xlink:href="#lend4" transform="scale(-3.52,-3.52) "/>
		</marker>
	</defs>
	<g>
		<title>Page-1</title>
		<g id="shape3296-1" transform="translate(117.22,-255.521)">
			<title>Sheet.3296</title>
			<desc>Self-signed PAA certificate</desc>
			<rect x="0" y="401.088" width="71.0733" height="40.2818" class="st1"/>
			<text x="10.52" y="412.23" class="st2">Self-signed <tspan x="25.53" dy="1.2em" class="st3">PAA </tspan><tspan x="14.14"
						dy="1.2em" class="st3">certificate</tspan></text>		</g>
		<g id="shape3298-6" transform="translate(239.11,-187.788)">
			<title>Sheet.3298</title>
			<desc>DAC certificate</desc>
			<rect x="0" y="401.088" width="71.0733" height="40.2818" class="st4"/>
			<text x="24.98" y="418.23" class="st2">DAC <tspan x="14.14" dy="1.2em" class="st3">certificate</tspan></text>		</g>
		<g id="shape3299-10" transform="translate(378.261,-395.016)">
			<title>Sheet.3299</title>
			<desc>Manufacturer</desc>
			<rect x="0" y="401.088" width="71.0733" height="40.2818" class="st5"/>
			<text x="6.08" y="424.23" class="st2">Manufacturer</text>		</g>
		<g id="shape3304-13" transform="translate(239.11,-122.89)">
			<title>Sheet.3304</title>
			<desc>Private key</desc>
			<rect x="0" y="401.088" width="71.0733" height="40.2818" class="st6"/>
			<text x="10.8" y="424.23" class="st2">Private key</text>		</g>
		<g id="shape3305-16" transform="translate(145.671,-255.521)">
			<title>Dynamic connector.3305</title>
			<path d="M7.09 441.37 L7.09 458.26" class="st7"/>
		</g>
		<g id="shape3309-22" transform="translate(87.5603,-175.331)">
			<title>Sheet.3309</title>
			<desc>Public Key Infrastructure (PKI)</desc>
			<path d="M0 441.37 L229.61 441.37 L229.61 317.47 L0 317.47 L0 441.37 Z" class="st9"/>
			<text x="178.36" y="330.47" class="st10">Public Key <tspan x="141.14" dy="1.56em" class="st3">Infrastructure (PKI)</tspan></text>		</g>
		<g id="shape3316-26" transform="translate(1,-395.016)">
			<title>Sheet.3316</title>
			<desc>CSA (TCOC)</desc>
			<rect x="0" y="401.088" width="71.0733" height="40.2818" class="st5"/>
			<text x="25.26" y="418.23" class="st2">CSA <tspan x="18.04" dy="1.2em" class="st3">(TCOC)</tspan></text>		</g>
		<g id="shape3318-30" transform="translate(89.4028,-383.677)">
			<title>Sheet.3318</title>
			<desc>Provides VID and signed CD to Manufacturer</desc>
			<rect x="0" y="415.261" width="303.96" height="26.1086" class="st11"/>
			<text x="51.93" y="431.32" class="st12">Provides VID and signed CD to Manufacturer</text>		</g>
		<g id="shape3321-33" transform="translate(72.0733,-399.268)">
			<title>Dynamic connector.3321</title>
			<path d="M0 434.28 L295.63 434.28" class="st7"/>
		</g>
		<g id="shape3322-38" transform="translate(378.261,-419.11)">
			<title>Dynamic connector.3322</title>
			<path d="M0 434.28 L-295.63 434.28" class="st7"/>
		</g>
		<g id="shape3323-43" transform="translate(89.4028,-426.197)">
			<title>Sheet.3323</title>
			<desc>Requests VID from CSA</desc>
			<rect x="0" y="427.197" width="303.96" height="14.1732" class="st11"/>
			<text x="98.07" y="437.28" class="st12">Requests VID from CSA</text>		</g>
		<g id="shape3324-46" transform="translate(117.22,-321.017)">
			<title>Sheet.3324</title>
			<desc>DCL</desc>
			<rect x="0" y="401.088" width="71.0733" height="40.2818" class="st6"/>
			<text x="25.53" y="424.23" class="st2">DCL</text>		</g>
		<g id="shape3325-49" transform="translate(72.0733,-399.268)">
			<title>Dynamic connector.3325</title>
			<path d="M0 441.37 L22.86 441.37 L22.86 499.48 L34.59 499.48" class="st7"/>
		</g>
		<g id="shape3327-54" transform="translate(145.671,-321.017)">
			<title>Dynamic connector.3327</title>
			<path d="M7.09 448.05 L7.09 448.41 L7.09 466.58" class="st13"/>
		</g>
		<g id="shape3328-60" transform="translate(98.8989,-100.213)">
			<title>Sheet.3328</title>
			<desc>Factory data</desc>
			<path d="M0 441.37 L255.12 441.37 L255.12 298.22 L0 298.22 L0 441.37 Z" class="st14"/>
			<text x="4" y="434.37" class="st15">Factory data</text>		</g>
		<g id="shape3329-63" transform="translate(267.56,-187.788)">
			<title>Dynamic connector.3329</title>
			<path d="M7.09 441.37 L7.09 465.99" class="st16"/>
		</g>
		<g id="shape3330-66" transform="translate(116.973,-187.788)">
			<title>Sheet.3330</title>
			<desc>PAI certificate</desc>
			<rect x="0" y="401.088" width="71.0733" height="40.2818" class="st1"/>
			<text x="27.48" y="418.23" class="st2">PAI <tspan x="14.14" dy="1.2em" class="st3">certificate</tspan></text>		</g>
		<g id="shape3331-70" transform="translate(188.046,-200.843)">
			<title>Dynamic connector.3331</title>
			<path d="M0 434.28 L40.5 434.28" class="st7"/>
		</g>
		<g id="shape3342-75" transform="translate(117.22,-122.89)">
			<title>Sheet.3342</title>
			<desc>Verifier</desc>
			<rect x="0" y="401.088" width="71.0733" height="40.2818" class="st6"/>
			<text x="19.7" y="424.23" class="st2">Verifier</text>		</g>
		<g id="shape3343-78" transform="translate(94.6469,-80.3701)">
			<title>Sheet.3343</title>
			<desc>Application</desc>
			<path d="M0 441.37 L344.41 441.37 L344.41 274.72 L0 274.72 L0 441.37 Z" class="st17"/>
			<text x="291.49" y="434.37" class="st18">Application</text>		</g>
		<g id="shape3344-81" transform="translate(361.247,-187.699)">
			<title>Sheet.3344</title>
			<desc>Certification Declaration</desc>
			<rect x="0" y="401.088" width="71.0733" height="40.2818" class="st6"/>
			<text x="9.14" y="418.23" class="st2">Certification <tspan x="10.25" dy="1.2em" class="st3">Declaration</tspan></text>		</g>
		<g id="shape3345-85" transform="translate(406.711,-395.016)">
			<title>Dynamic connector.3345</title>
			<path d="M7.09 441.37 L7.09 578.81" class="st7"/>
		</g>
		<g id="shape3363-90" transform="translate(81.891,-57.6929)">
			<title>Sheet.3363</title>
			<desc>DAC elements validated during commissioning</desc>
			<path d="M0 441.37 L368.5 441.37 L368.5 129.56 L0 129.56 L0 441.37 Z" class="st19"/>
			<text x="4" y="434.37" class="st20">DAC elements validated during commissioning</text>		</g>
		<g id="shape3421-93" transform="translate(1,-255.521)">
			<title>Sheet.3421</title>
			<desc>PAA</desc>
			<rect x="0" y="401.088" width="71.0733" height="40.2818" class="st5"/>
			<text x="25.53" y="424.23" class="st2">PAA</text>		</g>
		<g id="shape3422-96" transform="translate(29.45,-395.016)">
			<title>Dynamic connector.3422</title>
			<path d="M7.09 441.37 L7.09 530.02" class="st7"/>
		</g>
		<g id="shape3423-101" transform="translate(29.45,-255.521)">
			<title>Dynamic connector.3423</title>
			<path d="M7.09 441.37 L7.09 458.26" class="st7"/>
		</g>
		<g id="group3459-106" transform="translate(2.52091,-1)">
			<title>Sheet.3459</title>
			<g id="shape3460-107">
				<title>Nordic Light Grey</title>
				<rect x="0" y="396.016" width="126.067" height="45.3543" class="st21"/>
			</g>
			<g id="shape3461-109" transform="translate(2.904,-17.8541)">
				<title>Sheet.3461</title>
				<rect x="0" y="430.502" width="17.0048" height="10.868" class="st5"/>
			</g>
			<g id="shape3462-111" transform="translate(23.8477,-18.3749)">
				<title>Sheet.3462</title>
				<desc>Certification Authorities</desc>
				<rect x="0" y="431.544" width="102.219" height="9.82649" class="st11"/>
				<text x="4" y="438.86" class="st22">Certification Authorities</text>			</g>
			<g id="shape3463-114" transform="translate(2.904,-30.9324)">
				<title>Sheet.3463</title>
				<rect x="0" y="430.502" width="17.0048" height="10.868" class="st23"/>
			</g>
			<g id="shape3464-116" transform="translate(23.8477,-31.4532)">
				<title>Sheet.3464</title>
				<desc>Attestation certificates</desc>
				<rect x="0" y="431.544" width="102.219" height="9.82649" class="st11"/>
				<text x="4" y="438.86" class="st22">Attestation certificates</text>			</g>
			<g id="shape3465-119" transform="translate(2.904,-4.48726)">
				<title>Sheet.3465</title>
				<rect x="0" y="430.502" width="17.0048" height="10.868" class="st6"/>
			</g>
			<g id="shape3466-121" transform="translate(23.8477,-4.48726)">
				<title>Sheet.3466</title>
				<desc>Other attestation elements</desc>
				<rect x="0" y="431.544" width="102.219" height="9.82649" class="st11"/>
				<text x="4" y="438.86" class="st22">Other attestation elements</text>			</g>
		</g>
		<g id="shape3477-124" transform="translate(1,-187.788)">
			<title>Sheet.3477</title>
			<desc>PAI</desc>
			<rect x="0" y="401.088" width="71.0733" height="40.2818" class="st5"/>
			<text x="27.48" y="424.23" class="st2">PAI</text>		</g>
		<g id="shape3478-127" transform="translate(72.0733,-200.843)">
			<title>Dynamic connector.3478</title>
			<path d="M0 434.28 L34.34 434.28" class="st7"/>
		</g>
		<g id="shape3479-132" transform="translate(72.0733,-268.576)">
			<title>Dynamic connector.3479</title>
			<path d="M0 434.28 L38.11 434.28" class="st24"/>
		</g>
	</g>
</svg>
