<?xml version="1.0" encoding="UTF-8" standalone="no"?>
<!DOCTYPE svg PUBLIC "-//W3C//DTD SVG 1.1//EN" "http://www.w3.org/Graphics/SVG/1.1/DTD/svg11.dtd">
<!-- Generated by Microsoft Visio, SVG Export matter_device_certification_process_rr.svg Page-1 -->
<svg xmlns="http://www.w3.org/2000/svg" xmlns:xlink="http://www.w3.org/1999/xlink" xmlns:ev="http://www.w3.org/2001/xml-events"
		width="8.31025in" height="4.74267in" viewBox="0 0 598.338 341.472" xml:space="preserve" color-interpolation-filters="sRGB"
		class="st36">
	<style type="text/css">
	<![CDATA[
		.st1 {fill:none;stroke:#768692;stroke-dasharray:0.01,10;stroke-width:2}
		.st2 {fill:#00a9ce;stroke:none;stroke-width:1}
		.st3 {fill:#feffff;font-family:Arial;font-size:0.833336em}
		.st4 {fill:none;stroke:#ffcd00;stroke-width:1}
		.st5 {fill:#333f48;font-family:Arial;font-size:0.833336em}
		.st6 {font-size:1em}
		.st7 {fill:#d9e1e2;stroke:none;stroke-width:1}
		.st8 {fill:#768692;font-family:Arial;font-size:0.833336em}
		.st9 {fill:none;stroke:#0033a0;stroke-width:1}
		.st10 {fill:none;stroke:#d9e1e2;stroke-width:1}
		.st11 {fill:none;stroke:none;stroke-width:1}
		.st12 {marker-end:url(#mrkr13-58);stroke:#d9e1e2;stroke-dasharray:8,4;stroke-linecap:butt;stroke-width:1}
		.st13 {fill:#d9e1e2;fill-opacity:1;stroke:#d9e1e2;stroke-opacity:1;stroke-width:0.28409090909091}
		.st14 {marker-end:url(#mrkr13-79);stroke:#00a9ce;stroke-linecap:butt;stroke-width:1}
		.st15 {fill:#00a9ce;fill-opacity:1;stroke:#00a9ce;stroke-opacity:1;stroke-width:0.28409090909091}
		.st16 {marker-start:url(#mrkr13-85);stroke:#d9e1e2;stroke-linecap:butt;stroke-width:1}
		.st17 {marker-end:url(#mrkr13-58);stroke:#d9e1e2;stroke-linecap:butt;stroke-width:1}
		.st18 {marker-start:url(#mrkr13-101);stroke:#00a9ce;stroke-dasharray:8,4;stroke-linecap:butt;stroke-width:1}
		.st19 {marker-end:url(#mrkr13-79);stroke:#00a9ce;stroke-dasharray:8,4;stroke-linecap:butt;stroke-width:1}
		.st20 {marker-end:url(#mrkr13-58);stroke:#d9e1e2;stroke-dasharray:1,4;stroke-linecap:butt;stroke-width:1}
		.st21 {fill:#333f48;font-family:Arial;font-size:1.00001em}
		.st22 {stroke:#768692;stroke-linecap:butt;stroke-width:4}
		.st23 {stroke:#008bab;stroke-linecap:butt;stroke-width:4}
		.st24 {fill:#d9e1e2;font-family:Arial;font-size:1.00001em}
		.st25 {fill:#768692;fill-opacity:0.41;stroke:#768692;stroke-dasharray:0.01,10;stroke-width:2}
		.st26 {fill:none;stroke:#0077c8;stroke-dasharray:0.01,10;stroke-width:2}
		.st27 {fill:#0077c8;font-family:Arial;font-size:1.00001em}
		.st28 {fill:none;stroke:#768692;stroke-width:1}
		.st29 {fill:#333f48;font-family:Arial;font-size:0.666664em}
		.st30 {fill:#00a9ce;stroke:none;stroke-linecap:round;stroke-linejoin:round;stroke-width:0.75}
		.st31 {fill:none;stroke:#ee2f4e;stroke-width:1}
		.st32 {marker-start:url(#mrkr4-236);stroke:#008bab;stroke-linecap:butt;stroke-width:1}
		.st33 {fill:#008bab;fill-opacity:1;stroke:#008bab;stroke-opacity:1;stroke-width:0.28409090909091}
		.st34 {marker-start:url(#mrkr4-236);stroke:#008bab;stroke-dasharray:8,4;stroke-linecap:butt;stroke-width:1}
		.st35 {marker-start:url(#mrkr4-236);stroke:#008bab;stroke-dasharray:1,4;stroke-linecap:butt;stroke-width:1}
		.st36 {fill:none;fill-rule:evenodd;font-size:12px;overflow:visible;stroke-linecap:square;stroke-miterlimit:3}
	]]>
	</style>

	<defs id="Markers">
		<g id="lend13">
			<path d="M 3 1 L 0 0 L 3 -1 L 3 1 " style="stroke:none"/>
		</g>
		<marker id="mrkr13-58" class="st13" refX="-10.56" orient="auto" markerUnits="strokeWidth" overflow="visible">
			<use xlink:href="#lend13" transform="scale(-3.52,-3.52) "/>
		</marker>
		<marker id="mrkr13-79" class="st15" refX="-10.56" orient="auto" markerUnits="strokeWidth" overflow="visible">
			<use xlink:href="#lend13" transform="scale(-3.52,-3.52) "/>
		</marker>
		<marker id="mrkr13-85" class="st13" refX="10.2" orient="auto" markerUnits="strokeWidth" overflow="visible">
			<use xlink:href="#lend13" transform="scale(3.52) "/>
		</marker>
		<marker id="mrkr13-101" class="st15" refX="10.2" orient="auto" markerUnits="strokeWidth" overflow="visible">
			<use xlink:href="#lend13" transform="scale(3.52) "/>
		</marker>
		<g id="lend4">
			<path d="M 2 1 L 0 0 L 2 -1 L 2 1 " style="stroke:none"/>
		</g>
		<marker id="mrkr4-236" class="st33" refX="6.68" orient="auto" markerUnits="strokeWidth" overflow="visible">
			<use xlink:href="#lend4" transform="scale(3.52) "/>
		</marker>
	</defs>
	<g>
		<title>Page-1</title>
		<g id="shape3733-1" transform="translate(349.425,-16.7559)">
			<title>Sheet.3733</title>
			<path d="M0 341.47 L160.16 341.47 L160.16 236.59 L0 236.59 L0 341.47 Z" class="st1"/>
		</g>
		<g id="shape3734-3" transform="translate(189.267,-151.554)">
			<title>Sheet.3734</title>
			<desc>Testing</desc>
			<rect x="0" y="289.184" width="66.4128" height="52.2882" class="st2"/>
			<text x="16.81" y="318.33" class="st3">Testing</text>		</g>
		<g id="shape3735-6" transform="translate(358.908,-151.554)">
			<title>Sheet.3735</title>
			<desc>Reporting</desc>
			<rect x="0" y="289.184" width="66.4128" height="52.2882" class="st2"/>
			<text x="11.53" y="318.33" class="st3">Reporting</text>		</g>
		<g id="shape3736-9" transform="translate(448.804,-151.554)">
			<title>Sheet.3736</title>
			<desc>Application</desc>
			<rect x="0" y="289.184" width="66.4128" height="52.2882" class="st2"/>
			<text x="8.75" y="318.33" class="st3">Application</text>		</g>
		<g id="shape3737-12" transform="translate(526.555,-151.554)">
			<title>Sheet.3737</title>
			<desc>Processing</desc>
			<rect x="0" y="289.184" width="66.4128" height="52.2882" class="st2"/>
			<text x="8.47" y="318.33" class="st3">Processing</text>		</g>
		<g id="shape3738-15" transform="translate(522.185,-77.8535)">
			<title>Sheet.3738</title>
			<desc>Rapid Recertification</desc>
			<rect x="0" y="306.824" width="75.1532" height="34.648" class="st4"/>
			<text x="24.51" y="321.15" class="st5">Rapid <tspan x="5.9" dy="1.2em" class="st6">Rec</tspan>ertification</text>		</g>
		<g id="shape3739-19" transform="translate(90.0197,-151.554)">
			<title>Sheet.3739</title>
			<desc>Membership at CSA</desc>
			<rect x="0" y="289.184" width="66.4128" height="52.2882" class="st7"/>
			<text x="5.7" y="312.33" class="st8">Membership <tspan x="17.37" dy="1.2em" class="st6">at CSA</tspan></text>		</g>
		<g id="shape3740-23" transform="translate(260.134,-90.1298)">
			<title>Sheet.3740</title>
			<desc>Test results</desc>
			<rect x="0" y="309.027" width="60.9449" height="32.4457" class="st9"/>
			<text x="4.63" y="328.25" class="st5">Test results</text>		</g>
		<g id="shape3741-26" transform="translate(154.202,-77.5374)">
			<title>Sheet.3741</title>
			<desc>DoC</desc>
			<rect x="0" y="306.824" width="66.4128" height="34.648" class="st10"/>
			<text x="23.2" y="327.15" class="st8">DoC</text>		</g>
		<g id="shape3742-29" transform="translate(154.202,-30.4496)">
			<title>Sheet.3742</title>
			<desc>PICS</desc>
			<rect x="0" y="305.407" width="66.4128" height="36.0653" class="st10"/>
			<text x="21.54" y="326.44" class="st8">PICS</text>		</g>
		<g id="shape3743-32" transform="translate(357.491,-77.8535)">
			<title>Sheet.3743</title>
			<desc>DoC</desc>
			<rect x="0" y="306.824" width="66.4128" height="34.648" class="st9"/>
			<text x="23.2" y="327.15" class="st5">DoC</text>		</g>
		<g id="shape3744-35" transform="translate(357.491,-30.4496)">
			<title>Sheet.3744</title>
			<desc>PICS</desc>
			<rect x="0" y="305.407" width="66.4128" height="36.0653" class="st9"/>
			<text x="21.54" y="326.44" class="st5">PICS</text>		</g>
		<g id="shape3745-38" transform="translate(435.846,-77.8535)">
			<title>Sheet.3745</title>
			<desc>Dependent Transport Attestation</desc>
			<rect x="0" y="306.824" width="66.4128" height="34.648" class="st9"/>
			<text x="8.74" y="315.15" class="st5">Dependent <tspan x="11.81" dy="1.2em" class="st6">Transport </tspan><tspan
						x="9.58" dy="1.2em" class="st6">Attestation</tspan></text>		</g>
		<g id="shape3746-43" transform="translate(435.846,-30.4496)">
			<title>Sheet.3746</title>
			<desc>Attestation of Security</desc>
			<rect x="0" y="305.407" width="66.4128" height="36.0653" class="st9"/>
			<text x="9.58" y="320.44" class="st5">Attestation <tspan x="9.59" dy="1.2em" class="st6">of Security</tspan></text>		</g>
		<g id="shape3747-47" transform="translate(90.0197,-78.6385)">
			<title>Sheet.3747</title>
			<desc>VID</desc>
			<rect x="0" y="309.027" width="39.685" height="32.4457" class="st10"/>
			<text x="11.51" y="328.25" class="st8">VID</text>		</g>
		<g id="shape3748-50" transform="translate(336.231,-3.1496)">
			<title>Sheet.3748</title>
			<desc>Required application documents</desc>
			<rect x="0" y="327.866" width="178.985" height="13.6063" class="st11"/>
			<text x="18.06" y="337.67" class="st5">Required application documents</text>		</g>
		<g id="shape3749-53" transform="translate(116.949,-151.554)">
			<title>Dynamic connector.3749</title>
			<path d="M-7.09 341.47 L-7.09 371.38" class="st12"/>
		</g>
		<g id="shape3750-59" transform="translate(129.705,-87.7748)">
			<title>Dynamic connector.3750</title>
			<path d="M0 334.39 L13.94 334.39" class="st12"/>
		</g>
		<g id="shape3751-64" transform="translate(109.862,-78.6385)">
			<title>Dynamic connector.3751</title>
			<path d="M0 341.47 L0 371.63 L33.78 371.63" class="st12"/>
		</g>
		<g id="shape3752-69" transform="translate(187.408,-112.185)">
			<title>Dynamic connector.3752</title>
			<path d="M0 341.47 L0 321.95 L35.07 321.95 L35.07 312.66" class="st12"/>
		</g>
		<g id="shape3753-74" transform="translate(255.68,-170.612)">
			<title>Dynamic connector.3753</title>
			<path d="M0 334.39 L8.88 334.39" class="st14"/>
		</g>
		<g id="shape3754-80" transform="translate(189.267,-184.973)">
			<title>Dynamic connector.3754</title>
			<path d="M-10.2 334.4 L-10.56 334.4 L-32.83 334.36" class="st16"/>
		</g>
		<g id="shape3755-86" transform="translate(189.267,-158.357)">
			<title>Dynamic connector.3755</title>
			<path d="M0 334.39 L-22.27 334.39" class="st17"/>
		</g>
		<g id="shape3756-91" transform="translate(425.321,-170.612)">
			<title>Dynamic connector.3756</title>
			<path d="M0 334.39 L12.92 334.39" class="st14"/>
		</g>
		<g id="shape3757-96" transform="translate(315.392,-151.554)">
			<title>Dynamic connector.3757</title>
			<path d="M-7.08 351.67 L-7.08 352.03 L-7.1 370.45" class="st18"/>
		</g>
		<g id="shape3758-102" transform="translate(242.559,-151.554)">
			<title>Dynamic connector.3758</title>
			<path d="M0 341.47 L0 386.67 L7.01 386.67" class="st19"/>
		</g>
		<g id="shape3759-107" transform="translate(220.615,-76.4525)">
			<title>Dynamic connector.3759</title>
			<path d="M0 334.4 L126.32 334.37" class="st20"/>
		</g>
		<g id="shape3760-112" transform="translate(220.615,-41.3957)">
			<title>Dynamic connector.3760</title>
			<path d="M0 334.39 L126.32 334.39" class="st20"/>
		</g>
		<g id="shape3761-117" transform="translate(489.135,-121.638)">
			<title>Dynamic connector.3761</title>
			<path d="M-7.05 341.47 L-7.1 322.12" class="st19"/>
		</g>
		<g id="shape3762-122" transform="translate(513.799,-170.612)">
			<title>Dynamic connector.3762</title>
			<path d="M1.42 334.39 L2.2 334.39" class="st14"/>
		</g>
		<g id="shape3763-127" transform="translate(552.675,-151.554)">
			<title>Dynamic connector.3763</title>
			<path d="M7.09 341.47 L7.09 369.97" class="st19"/>
		</g>
		<g id="shape3764-132" transform="translate(2.14567,-3.1496)">
			<title>Sheet.3764</title>
			<desc>Certification documents</desc>
			<rect x="0" y="220.15" width="72.0821" height="121.323" class="st11"/>
			<text x="4.72" y="277.21" class="st21">Certification <tspan x="9.38" dy="1.2em" class="st6">documents</tspan></text>		</g>
		<g id="shape3765-136" transform="translate(421.571,217) rotate(90)">
			<title>Sheet.3765</title>
			<path d="M0 341.47 L120.47 341.47" class="st22"/>
		</g>
		<g id="shape3766-139" transform="translate(1.43701,-148.567)">
			<title>Sheet.3766</title>
			<desc>Certification process steps</desc>
			<rect x="0" y="284.404" width="72.0821" height="57.0687" class="st11"/>
			<text x="4.72" y="302.14" class="st21">Certification <tspan x="26.06" dy="1.2em" class="st6">process </tspan><tspan
						x="39.4" dy="1.2em" class="st6">steps</tspan></text>		</g>
		<g id="shape3767-144" transform="translate(420.862,135.837) rotate(90)">
			<title>Sheet.3767</title>
			<path d="M0 341.47 L56.67 341.47" class="st23"/>
		</g>
		<g id="shape3768-147" transform="translate(1,-222.943)">
			<title>Sheet.3768</title>
			<desc>Actors in each step</desc>
			<rect x="0" y="284.404" width="72.0821" height="57.0687" class="st11"/>
			<text x="21.4" y="309.34" class="st21">Actors in <tspan x="16.04" dy="1.2em" class="st6">each step</tspan></text>		</g>
		<g id="shape3769-151" transform="translate(420.425,61.461) rotate(90)">
			<title>Sheet.3769</title>
			<path d="M0 341.47 L56.67 341.47" class="st22"/>
		</g>
		<g id="shape3771-154" transform="translate(94.8796,-223.685)">
			<title>Sheet.3771</title>
			<desc>CSA</desc>
			<rect x="0" y="313.126" width="56.6929" height="28.3465" class="st11"/>
			<text x="16.01" y="330.9" class="st24">CSA</text>		</g>
		<g id="shape3772-157" transform="translate(94.8796,-252.031)">
			<title>Sheet.3772</title>
			<desc>Vendor</desc>
			<rect x="0" y="313.126" width="56.6929" height="28.3465" class="st11"/>
			<text x="9" y="330.9" class="st24">Vendor</text>		</g>
		<g id="shape3773-160" transform="translate(193.519,-218.583)">
			<title>Sheet.3773</title>
			<desc>Vendor</desc>
			<rect x="0" y="305.407" width="60.9449" height="36.0653" class="st11"/>
			<text x="11.12" y="327.04" class="st21">Vendor</text>		</g>
		<g id="shape3774-163" transform="translate(279.943,-221.654)">
			<title>Sheet.3774</title>
			<desc>ATL</desc>
			<rect x="0" y="313.126" width="56.6929" height="28.3465" class="st11"/>
			<text x="17.34" y="330.9" class="st21">ATL</text>		</g>
		<g id="shape3776-166" transform="translate(363.768,-236.512)">
			<title>Sheet.3776</title>
			<desc>CSA</desc>
			<rect x="0" y="313.126" width="56.6929" height="28.3465" class="st11"/>
			<text x="16.01" y="330.9" class="st21">CSA</text>		</g>
		<g id="shape3777-169" transform="translate(363.768,-264.858)">
			<title>Sheet.3777</title>
			<desc>Vendor</desc>
			<rect x="0" y="313.126" width="56.6929" height="28.3465" class="st11"/>
			<text x="9" y="330.9" class="st21">Vendor</text>		</g>
		<g id="shape3779-172" transform="translate(85.8029,-3.1496)">
			<title>Sheet.3779</title>
			<desc>Completed in the original certification process</desc>
			<path d="M0 341.47 L94.93 341.47 L94.93 62.04 L0 62.04 L0 341.47 Z" class="st25"/>
			<text x="12.11" y="183.76" class="st21">Completed in <tspan x="18.11" dy="1.2em" class="st6">the original </tspan><tspan
						x="17.12" dy="1.2em" class="st6">certification </tspan><tspan x="26.45" dy="1.2em" class="st6">process</tspan></text>		</g>
		<g id="shape3781-178" transform="translate(275.116,-151.554)">
			<title>Sheet.3781</title>
			<desc>Test results analysis</desc>
			<rect x="0" y="289.184" width="66.4128" height="52.2882" class="st2"/>
			<text x="7.37" y="312.33" class="st3">Test results <tspan x="15.14" dy="1.2em" class="st6">analysis</tspan></text>		</g>
		<g id="shape3782-182" transform="translate(187.408,-77.8535)">
			<title>Sheet.3782</title>
			<desc>Major difference</desc>
			<path d="M0 341.47 L156.35 341.47 L156.35 121.37 L0 121.37 L0 341.47 Z" class="st26"/>
			<text x="35.15" y="136.17" class="st27">Major difference</text>		</g>
		<g id="shape3783-185" transform="translate(341.529,-170.612)">
			<title>Dynamic connector.3783</title>
			<path d="M0 334.39 L6.82 334.39" class="st14"/>
		</g>
		<g id="shape3784-190" transform="translate(531.415,-225.102)">
			<title>Sheet.3784</title>
			<desc>CSA</desc>
			<rect x="0" y="313.126" width="56.6929" height="28.3465" class="st11"/>
			<text x="16.01" y="330.9" class="st21">CSA</text>		</g>
		<g id="shape3785-193" transform="translate(363.768,-206.004)">
			<title>Sheet.3785</title>
			<desc>ATL</desc>
			<rect x="0" y="313.126" width="56.6929" height="28.3465" class="st11"/>
			<text x="17.34" y="330.9" class="st21">ATL</text>		</g>
		<g id="shape3786-196" transform="translate(453.462,-227.087)">
			<title>Sheet.3786</title>
			<desc>Vendor</desc>
			<rect x="0" y="313.126" width="56.6929" height="28.3465" class="st11"/>
			<text x="9" y="330.9" class="st21">Vendor</text>		</g>
		<g id="group3836-199" transform="translate(468.717,-255.433)">
			<title>Sheet.3836</title>
			<g id="shape3837-200">
				<title>Nordic Light Grey</title>
				<rect x="0" y="256.433" width="126.067" height="85.0394" class="st28"/>
			</g>
			<g id="shape3838-202" transform="translate(2.904,-57.5392)">
				<title>Sheet.3838</title>
				<rect x="0" y="330.604" width="17.0048" height="10.868" class="st4"/>
			</g>
			<g id="shape3839-204" transform="translate(23.8477,-58.0599)">
				<title>Sheet.3839</title>
				<desc>Documents from CSA</desc>
				<rect x="0" y="331.646" width="102.219" height="9.82649" class="st11"/>
				<text x="4" y="338.96" class="st29">Documents from CSA</text>			</g>
			<g id="shape3840-207" transform="translate(2.904,-70.6175)">
				<title>Sheet.3840</title>
				<rect x="0" y="330.604" width="17.0048" height="10.868" class="st30"/>
			</g>
			<g id="shape3841-209" transform="translate(23.8477,-71.1383)">
				<title>Sheet.3841</title>
				<desc>Certification steps</desc>
				<rect x="0" y="331.646" width="102.219" height="9.82649" class="st11"/>
				<text x="4" y="338.96" class="st29">Certification steps</text>			</g>
			<g id="shape3842-212" transform="translate(2.904,-44.1723)">
				<title>Sheet.3842</title>
				<rect x="0" y="330.604" width="17.0048" height="10.868" class="st9"/>
			</g>
			<g id="shape3843-214" transform="translate(23.8477,-44.1723)">
				<title>Sheet.3843</title>
				<desc>Documents from Vendor</desc>
				<rect x="0" y="331.646" width="102.219" height="9.82649" class="st11"/>
				<text x="4" y="338.96" class="st29">Documents from Vendor</text>			</g>
			<g id="shape3844-217" transform="translate(2.904,-30.5178)">
				<title>Sheet.3844</title>
				<rect x="0" y="330.604" width="17.0048" height="10.868" class="st31"/>
			</g>
			<g id="shape3845-219" transform="translate(23.8477,-31.3702)">
				<title>Sheet.3845</title>
				<desc>Documents from ATL</desc>
				<rect x="0" y="331.646" width="102.219" height="9.82649" class="st11"/>
				<text x="4" y="338.96" class="st29">Documents from ATL</text>			</g>
			<g id="shape3846-222" transform="translate(30.8976,-19.1813)">
				<title>Sheet.3846</title>
				<desc>Process step</desc>
				<rect x="0" y="331.646" width="95.1695" height="9.82649" class="st11"/>
				<text x="4" y="338.96" class="st29">Process step</text>			</g>
			<g id="shape3847-225" transform="translate(30.8976,-9.35477)">
				<title>Sheet.3847</title>
				<desc>Document step</desc>
				<rect x="0" y="331.646" width="95.1695" height="9.82649" class="st11"/>
				<text x="4" y="338.96" class="st29">Document step</text>			</g>
			<g id="shape3848-228" transform="translate(30.8976,-0.283465)">
				<title>Sheet.3848</title>
				<desc>Same document used</desc>
				<rect x="0" y="331.646" width="95.1695" height="9.82649" class="st11"/>
				<text x="4" y="338.96" class="st29">Same document used</text>			</g>
			<g id="shape3849-231" transform="translate(4.25196,-24.6614)">
				<title>Sheet.3849</title>
				<path d="M6.68 341.47 L7.04 341.47 L26.65 341.47" class="st32"/>
			</g>
			<g id="shape3850-237" transform="translate(4.25196,-14.7402)">
				<title>Sheet.3850</title>
				<path d="M6.68 341.47 L7.04 341.47 L26.65 341.47" class="st34"/>
			</g>
			<g id="shape3851-242" transform="translate(4.25196,-5.66931)">
				<title>Sheet.3851</title>
				<path d="M6.68 341.47 L7.04 341.47 L26.65 341.47" class="st35"/>
			</g>
		</g>
	</g>
</svg>
