<?xml version="1.0" encoding="UTF-8" standalone="no"?>
<!DOCTYPE svg PUBLIC "-//W3C//DTD SVG 1.1//EN" "http://www.w3.org/Graphics/SVG/1.1/DTD/svg11.dtd">
<!-- Generated by Microsoft Visio, SVG Export matter_device_certification_process_ft.svg Page-1 -->
<svg xmlns="http://www.w3.org/2000/svg" xmlns:xlink="http://www.w3.org/1999/xlink" xmlns:ev="http://www.w3.org/2001/xml-events"
		width="8.31025in" height="4.74267in" viewBox="0 0 598.338 341.472" xml:space="preserve" color-interpolation-filters="sRGB"
		class="st36">
	<style type="text/css">
	<![CDATA[
		.st1 {fill:none;stroke:#768692;stroke-dasharray:0.01,10;stroke-width:2}
		.st2 {fill:#00a9ce;stroke:none;stroke-width:1}
		.st3 {fill:#feffff;font-family:Arial;font-size:0.833336em}
		.st4 {fill:none;stroke:#ffcd00;stroke-width:1}
		.st5 {fill:#333f48;font-family:Arial;font-size:0.833336em}
		.st6 {font-size:1em}
		.st7 {fill:#d9e1e2;stroke:none;stroke-width:1}
		.st8 {fill:#768692;font-family:Arial;font-size:0.833336em}
		.st9 {fill:none;stroke:#0033a0;stroke-width:1}
		.st10 {fill:none;stroke:#d9e1e2;stroke-width:1}
		.st11 {fill:none;stroke:none;stroke-width:1}
		.st12 {marker-end:url(#mrkr13-56);stroke:#d9e1e2;stroke-dasharray:8,4;stroke-linecap:butt;stroke-width:1}
		.st13 {fill:#d9e1e2;fill-opacity:1;stroke:#d9e1e2;stroke-opacity:1;stroke-width:0.28409090909091}
		.st14 {marker-end:url(#mrkr13-72);stroke:#00a9ce;stroke-dasharray:8,4;stroke-linecap:butt;stroke-width:1}
		.st15 {fill:#00a9ce;fill-opacity:1;stroke:#00a9ce;stroke-opacity:1;stroke-width:0.28409090909091}
		.st16 {marker-end:url(#mrkr13-72);stroke:#00a9ce;stroke-linecap:butt;stroke-width:1}
		.st17 {marker-start:url(#mrkr13-83);stroke:#d9e1e2;stroke-linecap:butt;stroke-width:1}
		.st18 {marker-end:url(#mrkr13-56);stroke:#d9e1e2;stroke-linecap:butt;stroke-width:1}
		.st19 {marker-start:url(#mrkr13-94);stroke:#00a9ce;stroke-dasharray:8,4;stroke-linecap:butt;stroke-width:1}
		.st20 {marker-end:url(#mrkr13-72);stroke:#00a9ce;stroke-dasharray:1,4;stroke-linecap:butt;stroke-width:1}
		.st21 {fill:#333f48;font-family:Arial;font-size:0.916672em}
		.st22 {stroke:#768692;stroke-linecap:butt;stroke-width:4}
		.st23 {stroke:#008bab;stroke-linecap:butt;stroke-width:4}
		.st24 {fill:#d9e1e2;font-family:Arial;font-size:0.916672em}
		.st25 {fill:#768692;fill-opacity:0.41;stroke:#768692;stroke-dasharray:0.01,10;stroke-width:2}
		.st26 {fill:none;stroke:#0077c8;stroke-dasharray:0.01,10;stroke-width:2}
		.st27 {fill:#0077c8;font-family:Arial;font-size:0.916672em}
		.st28 {fill:none;stroke:#768692;stroke-width:1}
		.st29 {fill:#333f48;font-family:Arial;font-size:0.666664em}
		.st30 {fill:#00a9ce;stroke:none;stroke-linecap:round;stroke-linejoin:round;stroke-width:0.75}
		.st31 {fill:none;stroke:#ee2f4e;stroke-width:1}
		.st32 {marker-start:url(#mrkr4-219);stroke:#008bab;stroke-linecap:butt;stroke-width:1}
		.st33 {fill:#008bab;fill-opacity:1;stroke:#008bab;stroke-opacity:1;stroke-width:0.28409090909091}
		.st34 {marker-start:url(#mrkr4-219);stroke:#008bab;stroke-dasharray:8,4;stroke-linecap:butt;stroke-width:1}
		.st35 {marker-start:url(#mrkr4-219);stroke:#008bab;stroke-dasharray:1,4;stroke-linecap:butt;stroke-width:1}
		.st36 {fill:none;fill-rule:evenodd;font-size:12px;overflow:visible;stroke-linecap:square;stroke-miterlimit:3}
	]]>
	</style>

	<defs id="Markers">
		<g id="lend13">
			<path d="M 3 1 L 0 0 L 3 -1 L 3 1 " style="stroke:none"/>
		</g>
		<marker id="mrkr13-56" class="st13" refX="-10.56" orient="auto" markerUnits="strokeWidth" overflow="visible">
			<use xlink:href="#lend13" transform="scale(-3.52,-3.52) "/>
		</marker>
		<marker id="mrkr13-72" class="st15" refX="-10.56" orient="auto" markerUnits="strokeWidth" overflow="visible">
			<use xlink:href="#lend13" transform="scale(-3.52,-3.52) "/>
		</marker>
		<marker id="mrkr13-83" class="st13" refX="10.2" orient="auto" markerUnits="strokeWidth" overflow="visible">
			<use xlink:href="#lend13" transform="scale(3.52) "/>
		</marker>
		<marker id="mrkr13-94" class="st15" refX="10.2" orient="auto" markerUnits="strokeWidth" overflow="visible">
			<use xlink:href="#lend13" transform="scale(3.52) "/>
		</marker>
		<g id="lend4">
			<path d="M 2 1 L 0 0 L 2 -1 L 2 1 " style="stroke:none"/>
		</g>
		<marker id="mrkr4-219" class="st33" refX="6.68" orient="auto" markerUnits="strokeWidth" overflow="visible">
			<use xlink:href="#lend4" transform="scale(3.52) "/>
		</marker>
	</defs>
	<g>
		<title>Page-1</title>
		<g id="group1000-1" transform="translate(1,-3.1496)">
			<title>Sheet.1000</title>
			<g id="shape5-2" transform="translate(348.425,-13.6063)">
				<title>Sheet.5</title>
				<path d="M0 341.47 L160.16 341.47 L160.16 236.59 L0 236.59 L0 341.47 Z" class="st1"/>
			</g>
			<g id="shape6-4" transform="translate(188.267,-148.405)">
				<title>Sheet.6</title>
				<desc>Testing</desc>
				<rect x="0" y="289.184" width="66.4128" height="52.2882" class="st2"/>
				<text x="16.81" y="318.33" class="st3">Testing</text>			</g>
			<g id="shape8-7" transform="translate(447.804,-148.405)">
				<title>Sheet.8</title>
				<desc>Application</desc>
				<rect x="0" y="289.184" width="66.4128" height="52.2882" class="st2"/>
				<text x="8.75" y="318.33" class="st3">Application</text>			</g>
			<g id="shape9-10" transform="translate(525.555,-148.405)">
				<title>Sheet.9</title>
				<desc>Processing</desc>
				<rect x="0" y="289.184" width="66.4128" height="52.2882" class="st2"/>
				<text x="8.47" y="318.33" class="st3">Processing</text>			</g>
			<g id="shape10-13" transform="translate(521.185,-73.3323)">
				<title>Sheet.10</title>
				<desc>FastTrack Recertification</desc>
				<rect x="0" y="306.824" width="75.1532" height="34.648" class="st4"/>
				<text x="15.35" y="321.15" class="st5">FastTrack <tspan x="5.9" dy="1.2em" class="st6">Recertification</tspan></text>			</g>
			<g id="shape11-17" transform="translate(89.0197,-148.405)">
				<title>Sheet.11</title>
				<desc>Membership at CSA</desc>
				<rect x="0" y="289.184" width="66.4128" height="52.2882" class="st7"/>
				<text x="5.7" y="312.33" class="st8">Membership <tspan x="17.37" dy="1.2em" class="st6">at CSA</tspan></text>			</g>
			<g id="shape12-21" transform="translate(259.134,-86.9802)">
				<title>Sheet.12</title>
				<desc>Test results</desc>
				<rect x="0" y="309.027" width="60.9449" height="32.4457" class="st9"/>
				<text x="4.63" y="328.25" class="st5">Test results</text>			</g>
			<g id="shape13-24" transform="translate(153.202,-72.1018)">
				<title>Sheet.13</title>
				<desc>DoC</desc>
				<rect x="0" y="306.824" width="66.4128" height="34.648" class="st10"/>
				<text x="23.2" y="327.15" class="st8">DoC</text>			</g>
			<g id="shape14-27" transform="translate(153.202,-24.5568)">
				<title>Sheet.14</title>
				<desc>PICS</desc>
				<rect x="0" y="305.407" width="66.4128" height="36.0653" class="st10"/>
				<text x="21.54" y="326.44" class="st8">PICS</text>			</g>
			<g id="shape15-30" transform="translate(356.491,-71.915)">
				<title>Sheet.15</title>
				<desc>DoC</desc>
				<rect x="0" y="305.407" width="66.4128" height="36.0653" class="st9"/>
				<text x="23.2" y="326.44" class="st5">DoC</text>			</g>
			<g id="shape16-33" transform="translate(356.491,-24.5568)">
				<title>Sheet.16</title>
				<desc>PICS</desc>
				<rect x="0" y="305.407" width="66.4128" height="36.0653" class="st9"/>
				<text x="21.54" y="326.44" class="st5">PICS</text>			</g>
			<g id="shape17-36" transform="translate(434.846,-71.915)">
				<title>Sheet.17</title>
				<desc>Dependent Transport Attestation</desc>
				<rect x="0" y="305.407" width="66.4128" height="36.0653" class="st9"/>
				<text x="8.74" y="314.44" class="st5">Dependent <tspan x="11.81" dy="1.2em" class="st6">Transport </tspan><tspan
							x="9.58" dy="1.2em" class="st6">Attestation</tspan></text>			</g>
			<g id="shape18-41" transform="translate(434.846,-24.5568)">
				<title>Sheet.18</title>
				<desc>Attestation of Security</desc>
				<rect x="0" y="305.407" width="66.4128" height="36.0653" class="st9"/>
				<text x="9.58" y="320.44" class="st5">Attestation <tspan x="9.59" dy="1.2em" class="st6">of Security</tspan></text>			</g>
			<g id="shape19-45" transform="translate(89.0197,-73.2029)">
				<title>Sheet.19</title>
				<desc>VID</desc>
				<rect x="0" y="309.027" width="39.685" height="32.4457" class="st10"/>
				<text x="11.51" y="328.25" class="st8">VID</text>			</g>
			<g id="shape20-48" transform="translate(335.231,0)">
				<title>Sheet.20</title>
				<desc>Required application documents</desc>
				<rect x="0" y="327.866" width="178.985" height="13.6063" class="st11"/>
				<text x="18.06" y="337.67" class="st5">Required application documents</text>			</g>
			<g id="shape21-51" transform="translate(115.949,-148.405)">
				<title>Dynamic connector.3749</title>
				<path d="M-7.09 341.47 L-7.09 373.67" class="st12"/>
			</g>
			<g id="shape22-57" transform="translate(128.705,-82.3392)">
				<title>Dynamic connector.3750</title>
				<path d="M0 334.39 L13.94 334.39" class="st12"/>
			</g>
			<g id="shape23-62" transform="translate(108.862,-73.2029)">
				<title>Dynamic connector.3751</title>
				<path d="M0 341.47 L0 372.09 L33.78 372.09" class="st12"/>
			</g>
			<g id="shape24-67" transform="translate(186.408,-106.75)">
				<title>Dynamic connector.3752</title>
				<path d="M0 341.47 L0 319.66 L35.07 319.66 L35.07 310.38" class="st14"/>
			</g>
			<g id="shape25-73" transform="translate(254.68,-167.462)">
				<title>Dynamic connector.3753</title>
				<path d="M0 334.39 L8.88 334.39" class="st16"/>
			</g>
			<g id="shape26-78" transform="translate(188.267,-181.823)">
				<title>Dynamic connector.3754</title>
				<path d="M-10.2 334.4 L-10.56 334.4 L-32.83 334.36" class="st17"/>
			</g>
			<g id="shape27-84" transform="translate(188.267,-155.208)">
				<title>Dynamic connector.3755</title>
				<path d="M0 334.39 L-22.27 334.39" class="st18"/>
			</g>
			<g id="shape29-89" transform="translate(314.392,-148.405)">
				<title>Dynamic connector.3757</title>
				<path d="M-7.08 351.67 L-7.08 352.03 L-7.1 370.45" class="st19"/>
			</g>
			<g id="shape30-95" transform="translate(241.559,-148.405)">
				<title>Dynamic connector.3758</title>
				<path d="M0 341.47 L0 386.67 L7.01 386.67" class="st14"/>
			</g>
			<g id="shape31-100" transform="translate(219.615,-85.0553)">
				<title>Dynamic connector.3759</title>
				<path d="M0 348.44 L126.32 348.66" class="st20"/>
			</g>
			<g id="shape32-105" transform="translate(219.615,-35.5028)">
				<title>Dynamic connector.3760</title>
				<path d="M0 334.39 L126.32 334.39" class="st20"/>
			</g>
			<g id="shape33-110" transform="translate(488.135,-118.488)">
				<title>Dynamic connector.3761</title>
				<path d="M-7.05 341.47 L-7.1 322.12" class="st14"/>
			</g>
			<g id="shape34-115" transform="translate(512.799,-167.462)">
				<title>Dynamic connector.3762</title>
				<path d="M1.42 334.39 L2.2 334.39" class="st16"/>
			</g>
			<g id="shape35-120" transform="translate(551.675,-148.405)">
				<title>Dynamic connector.3763</title>
				<path d="M7.09 341.47 L7.09 371.34" class="st14"/>
			</g>
			<g id="shape36-125" transform="translate(1.14567,-9.09495E-13)">
				<title>Sheet.36</title>
				<desc>Certification documents</desc>
				<rect x="0" y="220.15" width="72.0821" height="121.323" class="st11"/>
				<text x="10" y="277.51" class="st21">Certification <tspan x="14.27" dy="1.2em" class="st6">documents</tspan></text>			</g>
			<g id="shape37-129" transform="translate(420.571,220.15) rotate(90)">
				<title>Sheet.37</title>
				<path d="M0 341.47 L120.47 341.47" class="st22"/>
			</g>
			<g id="shape38-132" transform="translate(0.437008,-145.417)">
				<title>Sheet.38</title>
				<desc>Certification process steps</desc>
				<rect x="0" y="284.404" width="72.0821" height="57.0687" class="st11"/>
				<text x="10" y="303.04" class="st21">Certification <tspan x="29.57" dy="1.2em" class="st6">process </tspan><tspan
							x="41.79" dy="1.2em" class="st6">steps</tspan></text>			</g>
			<g id="shape39-137" transform="translate(419.862,138.986) rotate(90)">
				<title>Sheet.39</title>
				<path d="M0 341.47 L56.67 341.47" class="st23"/>
			</g>
			<g id="shape40-140" transform="translate(-7.99361E-15,-219.793)">
				<title>Sheet.40</title>
				<desc>Actors in each step</desc>
				<rect x="0" y="284.404" width="72.0821" height="57.0687" class="st11"/>
				<text x="25.29" y="309.64" class="st21">Actors in <tspan x="20.38" dy="1.2em" class="st6">each step</tspan></text>			</g>
			<g id="shape41-144" transform="translate(419.425,64.6106) rotate(90)">
				<title>Sheet.41</title>
				<path d="M0 341.47 L56.67 341.47" class="st22"/>
			</g>
			<g id="shape42-147" transform="translate(93.8796,-220.535)">
				<title>Sheet.42</title>
				<desc>CSA</desc>
				<rect x="0" y="313.126" width="56.6929" height="28.3465" class="st11"/>
				<text x="17.04" y="330.6" class="st24">CSA</text>			</g>
			<g id="shape43-150" transform="translate(93.8796,-248.882)">
				<title>Sheet.43</title>
				<desc>Vendor</desc>
				<rect x="0" y="313.126" width="56.6929" height="28.3465" class="st11"/>
				<text x="10.61" y="330.6" class="st24">Vendor</text>			</g>
			<g id="shape44-153" transform="translate(192.519,-215.433)">
				<title>Sheet.44</title>
				<desc>Vendor</desc>
				<rect x="0" y="305.407" width="60.9449" height="36.0653" class="st11"/>
				<text x="12.74" y="326.74" class="st21">Vendor</text>			</g>
			<g id="shape45-156" transform="translate(278.943,-218.504)">
				<title>Sheet.45</title>
				<desc>Vendor</desc>
				<rect x="0" y="313.126" width="56.6929" height="28.3465" class="st11"/>
				<text x="10.61" y="330.6" class="st21">Vendor</text>			</g>
			<g id="shape48-159" transform="translate(84.8029,-2.84217E-13)">
				<title>Sheet.48</title>
				<desc>Completed in the original certification process</desc>
				<path d="M0 341.47 L94.93 341.47 L94.93 62.04 L0 62.04 L0 341.47 Z" class="st25"/>
				<text x="5.88" y="185.26" class="st21">Completed in the <tspan x="29.73" dy="1.2em" class="st6">original </tspan><tspan
							x="19.65" dy="1.2em" class="st6">certification </tspan><tspan x="28.2" dy="1.2em" class="st6">process</tspan></text>			</g>
			<g id="shape49-165" transform="translate(274.116,-148.405)">
				<title>Sheet.49</title>
				<desc>Test results analysis</desc>
				<rect x="0" y="289.184" width="66.4128" height="52.2882" class="st2"/>
				<text x="7.37" y="312.33" class="st3">Test results <tspan x="15.14" dy="1.2em" class="st6">analysis</tspan></text>			</g>
			<g id="shape50-169" transform="translate(186.408,-74.7039)">
				<title>Sheet.50</title>
				<desc>Major difference</desc>
				<path d="M0 341.47 L156.35 341.47 L156.35 121.37 L0 121.37 L0 341.47 Z" class="st26"/>
				<text x="38.74" y="135.27" class="st27">Major difference</text>			</g>
			<g id="shape51-172" transform="translate(340.529,-167.462)">
				<title>Dynamic connector.3783</title>
				<path d="M0 334.39 L96.71 334.39" class="st16"/>
			</g>
			<g id="shape52-177" transform="translate(530.415,-221.953)">
				<title>Sheet.52</title>
				<desc>CSA</desc>
				<rect x="0" y="313.126" width="56.6929" height="28.3465" class="st11"/>
				<text x="17.04" y="330.6" class="st21">CSA</text>			</g>
			<g id="shape54-180" transform="translate(452.462,-223.937)">
				<title>Sheet.54</title>
				<desc>Vendor</desc>
				<rect x="0" y="313.126" width="56.6929" height="28.3465" class="st11"/>
				<text x="10.61" y="330.6" class="st21">Vendor</text>			</g>
			<g id="shape56-183" transform="translate(467.717,-252.283)">
				<title>Nordic Light Grey</title>
				<rect x="0" y="256.433" width="126.067" height="85.0394" class="st28"/>
			</g>
			<g id="shape57-185" transform="translate(470.621,-309.823)">
				<title>Sheet.57</title>
				<rect x="0" y="330.604" width="17.0048" height="10.868" class="st4"/>
			</g>
			<g id="shape58-187" transform="translate(491.564,-310.343)">
				<title>Sheet.58</title>
				<desc>Documents from CSA</desc>
				<rect x="0" y="331.646" width="102.219" height="9.82649" class="st11"/>
				<text x="4" y="338.96" class="st29">Documents from CSA</text>			</g>
			<g id="shape59-190" transform="translate(470.621,-322.901)">
				<title>Sheet.59</title>
				<rect x="0" y="330.604" width="17.0048" height="10.868" class="st30"/>
			</g>
			<g id="shape60-192" transform="translate(491.564,-323.422)">
				<title>Sheet.60</title>
				<desc>Certification steps</desc>
				<rect x="0" y="331.646" width="102.219" height="9.82649" class="st11"/>
				<text x="4" y="338.96" class="st29">Certification steps</text>			</g>
			<g id="shape61-195" transform="translate(470.621,-296.456)">
				<title>Sheet.61</title>
				<rect x="0" y="330.604" width="17.0048" height="10.868" class="st9"/>
			</g>
			<g id="shape62-197" transform="translate(491.564,-296.456)">
				<title>Sheet.62</title>
				<desc>Documents from Vendor</desc>
				<rect x="0" y="331.646" width="102.219" height="9.82649" class="st11"/>
				<text x="4" y="338.96" class="st29">Documents from Vendor</text>			</g>
			<g id="shape63-200" transform="translate(470.621,-282.801)">
				<title>Sheet.63</title>
				<rect x="0" y="330.604" width="17.0048" height="10.868" class="st31"/>
			</g>
			<g id="shape64-202" transform="translate(491.564,-283.654)">
				<title>Sheet.64</title>
				<desc>Documents from ATL</desc>
				<rect x="0" y="331.646" width="102.219" height="9.82649" class="st11"/>
				<text x="4" y="338.96" class="st29">Documents from ATL</text>			</g>
			<g id="shape65-205" transform="translate(498.614,-271.465)">
				<title>Sheet.65</title>
				<desc>Process step</desc>
				<rect x="0" y="331.646" width="95.1695" height="9.82649" class="st11"/>
				<text x="4" y="338.96" class="st29">Process step</text>			</g>
			<g id="shape66-208" transform="translate(498.614,-261.638)">
				<title>Sheet.66</title>
				<desc>Document step</desc>
				<rect x="0" y="331.646" width="95.1695" height="9.82649" class="st11"/>
				<text x="4" y="338.96" class="st29">Document step</text>			</g>
			<g id="shape67-211" transform="translate(498.614,-252.567)">
				<title>Sheet.67</title>
				<desc>Same document used</desc>
				<rect x="0" y="331.646" width="95.1695" height="9.82649" class="st11"/>
				<text x="4" y="338.96" class="st29">Same document used</text>			</g>
			<g id="shape68-214" transform="translate(471.969,-276.945)">
				<title>Sheet.68</title>
				<path d="M6.68 341.47 L7.04 341.47 L26.65 341.47" class="st32"/>
			</g>
			<g id="shape69-220" transform="translate(471.969,-267.024)">
				<title>Sheet.69</title>
				<path d="M6.68 341.47 L7.04 341.47 L26.65 341.47" class="st34"/>
			</g>
			<g id="shape70-225" transform="translate(471.969,-257.953)">
				<title>Sheet.70</title>
				<path d="M6.68 341.47 L7.04 341.47 L26.65 341.47" class="st35"/>
			</g>
		</g>
	</g>
</svg>
