<?xml version="1.0" encoding="UTF-8" standalone="no"?>
<!DOCTYPE svg PUBLIC "-//W3C//DTD SVG 1.1//EN" "http://www.w3.org/Graphics/SVG/1.1/DTD/svg11.dtd">
<!-- Generated by Microsoft Visio, SVG Export nrf7000_scan_operation_energy_consumption.svg Page-1 -->
<svg xmlns="http://www.w3.org/2000/svg" xmlns:xlink="http://www.w3.org/1999/xlink" xmlns:ev="http://www.w3.org/2001/xml-events"
		xmlns:v="http://schemas.microsoft.com/visio/2003/SVGExtensions/" width="6.5169in" height="5.80823in"
		viewBox="0 0 469.217 418.193" xml:space="preserve" color-interpolation-filters="sRGB" class="st6">
	<v:documentProperties v:langID="1035" v:metric="true" v:viewMarkup="false"/>

	<style type="text/css">
	<![CDATA[
		.st1 {fill:none;stroke:none;stroke-width:0.75}
		.st2 {fill:#000000;font-family:Arial;font-size:0.916672em}
		.st3 {stroke:#6ad1e3;stroke-linecap:butt;stroke-width:0.75}
		.st4 {fill:#0077c8;stroke:#0077c8;stroke-width:0.75}
		.st5 {font-size:1em}
		.st6 {fill:none;fill-rule:evenodd;font-size:12px;overflow:visible;stroke-linecap:square;stroke-miterlimit:3}
	]]>
	</style>

	<g v:mID="0" v:index="1" v:groupContext="foregroundPage">
		<title>Page-1</title>
		<v:pageProperties v:drawingScale="0.0393701" v:pageScale="0.0393701" v:drawingUnits="24" v:shadowOffsetX="8.50394"
				v:shadowOffsetY="-8.50394"/>
		<g id="shape6-1" v:mID="6" v:groupContext="shape" transform="translate(213.348,-0.75)">
			<title>Sheet.6</title>
			<desc>Scan profiles</desc>
			<v:textBlock v:margins="rect(4,4,4,4)" v:tabSpace="42.5197"/>
			<v:textRect cx="38.2677" cy="408.272" width="76.54" height="19.8425"/>
			<rect x="0" y="398.35" width="76.5354" height="19.8425" class="st1"/>
			<text x="6.47" y="411.57" class="st2" v:langID="1033"><v:paragraph v:horizAlign="1"/><v:tabList/>Scan profiles</text>		</g>
		<g id="shape8-4" v:mID="8" v:groupContext="shape" transform="translate(57.4429,-408.939)">
			<title>Sheet.8</title>
			<path d="M0 418.19 L396.85 418.19" class="st3"/>
		</g>
		<g id="shape9-7" v:mID="9" v:groupContext="shape" transform="translate(57.4429,-377.758)">
			<title>Sheet.9</title>
			<path d="M0 418.19 L396.85 418.19" class="st3"/>
		</g>
		<g id="shape11-10" v:mID="11" v:groupContext="shape" transform="translate(57.4429,-346.577)">
			<title>Sheet.11</title>
			<path d="M0 418.19 L396.85 418.19" class="st3"/>
		</g>
		<g id="shape12-13" v:mID="12" v:groupContext="shape" transform="translate(57.4429,-315.396)">
			<title>Sheet.12</title>
			<path d="M0 418.19 L396.85 418.19" class="st3"/>
		</g>
		<g id="shape13-16" v:mID="13" v:groupContext="shape" transform="translate(57.4429,-284.215)">
			<title>Sheet.13</title>
			<path d="M0 418.19 L396.85 418.19" class="st3"/>
		</g>
		<g id="shape14-19" v:mID="14" v:groupContext="shape" transform="translate(57.4429,-253.033)">
			<title>Sheet.14</title>
			<path d="M0 418.19 L396.85 418.19" class="st3"/>
		</g>
		<g id="shape15-22" v:mID="15" v:groupContext="shape" transform="translate(57.4429,-221.852)">
			<title>Sheet.15</title>
			<path d="M0 418.19 L396.85 418.19" class="st3"/>
		</g>
		<g id="shape16-25" v:mID="16" v:groupContext="shape" transform="translate(73.0335,-221.852)">
			<title>Sheet.16</title>
			<rect x="0" y="273.626" width="11.3386" height="144.567" class="st4"/>
		</g>
		<g id="shape20-27" v:mID="20" v:groupContext="shape" transform="translate(112.719,-221.852)">
			<title>Sheet.20</title>
			<rect x="0" y="273.626" width="11.3386" height="144.567" class="st4"/>
		</g>
		<g id="shape22-29" v:mID="22" v:groupContext="shape" transform="translate(152.404,-221.852)">
			<title>Sheet.22</title>
			<rect x="0" y="250.949" width="11.3386" height="167.244" class="st4"/>
		</g>
		<g id="shape23-31" v:mID="23" v:groupContext="shape" transform="translate(192.089,-221.852)">
			<title>Sheet.23</title>
			<rect x="0" y="387.012" width="11.3386" height="31.1811" class="st4"/>
		</g>
		<g id="shape25-33" v:mID="25" v:groupContext="shape" transform="translate(231.774,-221.852)">
			<title>Sheet.25</title>
			<rect x="0" y="364.335" width="11.3386" height="53.8583" class="st4"/>
		</g>
		<g id="shape27-35" v:mID="27" v:groupContext="shape" transform="translate(270.041,-221.852)">
			<title>Sheet.27</title>
			<rect x="0" y="304.807" width="11.3386" height="113.386" class="st4"/>
		</g>
		<g id="shape28-37" v:mID="28" v:groupContext="shape" transform="translate(309.726,-221.852)">
			<title>Sheet.28</title>
			<rect x="0" y="304.807" width="11.3386" height="113.386" class="st4"/>
		</g>
		<g id="shape29-39" v:mID="29" v:groupContext="shape" transform="translate(349.411,-221.852)">
			<title>Sheet.29</title>
			<rect x="0" y="409.689" width="11.3386" height="8.50393" class="st4"/>
		</g>
		<g id="shape30-41" v:mID="30" v:groupContext="shape" transform="translate(389.096,-221.852)">
			<title>Sheet.30</title>
			<rect x="0" y="381.343" width="11.3386" height="36.8504" class="st4"/>
		</g>
		<g id="shape31-43" v:mID="31" v:groupContext="shape" transform="translate(428.781,-221.852)">
			<title>Sheet.31</title>
			<rect x="0" y="375.673" width="11.3386" height="42.5197" class="st4"/>
		</g>
		<g id="shape32-45" v:mID="32" v:groupContext="shape" transform="translate(-397.6,141.065) rotate(-90)">
			<title>Sheet.32</title>
			<desc>Energy (J)</desc>
			<v:textBlock v:margins="rect(4,4,4,4)" v:tabSpace="42.5197"/>
			<v:textRect cx="38.2677" cy="408.272" width="76.54" height="19.8425"/>
			<rect x="0" y="398.35" width="76.5354" height="19.8425" class="st1"/>
			<text x="12.9" y="411.57" class="st2" v:langID="1033"><v:paragraph v:horizAlign="1"/><v:tabList/>Energy (J)</text>		</g>
		<g id="shape35-48" v:mID="35" v:groupContext="shape" transform="translate(-329.569,282.797) rotate(-90)">
			<title>Sheet.35</title>
			<desc>Default</desc>
			<v:textBlock v:margins="rect(4,4,4,4)" v:tabSpace="42.5197" v:verticalAlign="0"/>
			<v:textRect cx="38.2677" cy="408.272" width="76.54" height="19.8425"/>
			<rect x="0" y="398.35" width="76.5354" height="19.8425" class="st1"/>
			<text x="37.68" y="412.25" class="st2" v:langID="1033"><v:paragraph v:horizAlign="2"/><v:tabList/>Default</text>		</g>
		<g id="shape36-51" v:mID="36" v:groupContext="shape" transform="translate(-251.616,282.797) rotate(-90)">
			<title>Sheet.36</title>
			<desc>Passive scan</desc>
			<v:textBlock v:margins="rect(4,4,4,4)" v:tabSpace="42.5197" v:verticalAlign="0"/>
			<v:textRect cx="38.2677" cy="408.272" width="76.54" height="19.8425"/>
			<rect x="0" y="398.35" width="76.5354" height="19.8425" class="st1"/>
			<text x="7.73" y="412.25" class="st2" v:langID="1033"><v:paragraph v:horizAlign="2"/><v:tabList/>Passive scan</text>		</g>
		<g id="shape37-54" v:mID="37" v:groupContext="shape" transform="translate(477.053,196.341) rotate(90)">
			<title>Sheet.37</title>
			<path d="M0 418.19 L7.09 418.19" class="st3"/>
		</g>
		<g id="shape38-57" v:mID="38" v:groupContext="shape" transform="translate(516.738,196.341) rotate(90)">
			<title>Sheet.38</title>
			<path d="M0 418.19 L7.09 418.19" class="st3"/>
		</g>
		<g id="shape39-60" v:mID="39" v:groupContext="shape" transform="translate(176.498,-221.852)">
			<title>Sheet.39</title>
			<path d="M0 418.19 L7.51 418.19" class="st3"/>
		</g>
		<g id="shape40-63" v:mID="40" v:groupContext="shape" transform="translate(554.861,185.339) rotate(88.4926)">
			<title>Sheet.40</title>
			<path d="M0 418.19 L6.95 418.19" class="st3"/>
		</g>
		<g id="shape43-66" v:mID="43" v:groupContext="shape" transform="translate(673.916,185.339) rotate(88.4926)">
			<title>Sheet.43</title>
			<path d="M0 418.19 L6.95 418.19" class="st3"/>
		</g>
		<g id="shape44-69" v:mID="44" v:groupContext="shape" transform="translate(594.363,185.339) rotate(88.4926)">
			<title>Sheet.44</title>
			<path d="M0 418.19 L6.95 418.19" class="st3"/>
		</g>
		<g id="shape45-72" v:mID="45" v:groupContext="shape" transform="translate(635.793,196.341) rotate(90)">
			<title>Sheet.45</title>
			<path d="M0 418.19 L7.13 418.19" class="st3"/>
		</g>
		<g id="shape46-75" v:mID="46" v:groupContext="shape" transform="translate(713.421,179.846) rotate(87.7395)">
			<title>Sheet.46</title>
			<path d="M0 418.19 L6.95 418.19" class="st3"/>
		</g>
		<g id="shape47-78" v:mID="47" v:groupContext="shape" transform="translate(752.014,196.341) rotate(90)">
			<title>Sheet.47</title>
			<path d="M0 418.19 L7.06 418.19" class="st3"/>
		</g>
		<g id="shape48-81" v:mID="48" v:groupContext="shape" transform="translate(793.116,196.341) rotate(90)">
			<title>Sheet.48</title>
			<path d="M0 418.19 L6.95 418.19" class="st3"/>
		</g>
		<g id="shape49-84" v:mID="49" v:groupContext="shape" transform="translate(831.384,196.341) rotate(90)">
			<title>Sheet.49</title>
			<path d="M0 418.19 L7.06 418.19" class="st3"/>
		</g>
		<g id="shape50-87" v:mID="50" v:groupContext="shape" transform="translate(871.069,196.341) rotate(90)">
			<title>Sheet.50</title>
			<path d="M0 418.19 L7.06 418.19" class="st3"/>
		</g>
		<g id="shape51-90" v:mID="51" v:groupContext="shape" transform="translate(-289.884,282.797) rotate(-90)">
			<title>Sheet.51</title>
			<desc>Active scan</desc>
			<v:textBlock v:margins="rect(4,4,4,4)" v:tabSpace="42.5197" v:verticalAlign="0"/>
			<v:textRect cx="38.2677" cy="408.272" width="76.54" height="19.8425"/>
			<rect x="0" y="398.35" width="76.5354" height="19.8425" class="st1"/>
			<text x="16.29" y="412.25" class="st2" v:langID="1033"><v:paragraph v:horizAlign="2"/><v:tabList/>Active scan</text>		</g>
		<g id="shape52-93" v:mID="52" v:groupContext="shape" transform="translate(-209.096,300.514) rotate(-90)">
			<title>Sheet.52</title>
			<desc>2.4 GHz Active</desc>
			<v:textBlock v:margins="rect(4,4,4,4)" v:tabSpace="42.5197" v:verticalAlign="0"/>
			<v:textRect cx="47.4803" cy="408.272" width="94.97" height="19.8425"/>
			<rect x="0" y="398.35" width="94.9606" height="19.8425" class="st1"/>
			<text x="17.6" y="412.25" class="st2" v:langID="1033"><v:paragraph v:horizAlign="2"/><v:tabList/>2.4 GHz Active</text>		</g>
		<g id="shape53-96" v:mID="53" v:groupContext="shape" transform="translate(-170.829,300.514) rotate(-90)">
			<title>Sheet.53</title>
			<desc>2.4 GHz Passive</desc>
			<v:textBlock v:margins="rect(4,4,4,4)" v:tabSpace="42.5197" v:verticalAlign="0"/>
			<v:textRect cx="47.4803" cy="408.272" width="94.97" height="19.8425"/>
			<rect x="0" y="398.35" width="94.9606" height="19.8425" class="st1"/>
			<text x="9.04" y="412.25" class="st2" v:langID="1033"><v:paragraph v:horizAlign="2"/><v:tabList/>2.4 GHz Passive</text>		</g>
		<g id="shape54-99" v:mID="54" v:groupContext="shape" transform="translate(-132.561,300.514) rotate(-90)">
			<title>Sheet.54</title>
			<desc>5 GHz Active</desc>
			<v:textBlock v:margins="rect(4,4,4,4)" v:tabSpace="42.5197" v:verticalAlign="0"/>
			<v:textRect cx="47.4803" cy="408.272" width="94.97" height="19.8425"/>
			<rect x="0" y="398.35" width="94.9606" height="19.8425" class="st1"/>
			<text x="26.78" y="412.25" class="st2" v:langID="1033"><v:paragraph v:horizAlign="2"/><v:tabList/>5 GHz Active</text>		</g>
		<g id="shape55-102" v:mID="55" v:groupContext="shape" transform="translate(-94.2933,300.514) rotate(-90)">
			<title>Sheet.55</title>
			<desc>5 GHz Passive</desc>
			<v:textBlock v:margins="rect(4,4,4,4)" v:tabSpace="42.5197" v:verticalAlign="0"/>
			<v:textRect cx="47.4803" cy="408.272" width="94.97" height="19.8425"/>
			<rect x="0" y="398.35" width="94.9606" height="19.8425" class="st1"/>
			<text x="18.21" y="412.25" class="st2" v:langID="1033"><v:paragraph v:horizAlign="2"/><v:tabList/>5 GHz Passive</text>		</g>
		<g id="shape56-105" v:mID="56" v:groupContext="shape" transform="translate(-51.7736,386.262) rotate(-90)">
			<title>Sheet.56</title>
			<desc>2.4 GHz (non-overlapping)</desc>
			<v:textBlock v:margins="rect(4,4,4,4)" v:tabSpace="42.5197" v:verticalAlign="0"/>
			<v:textRect cx="90.7087" cy="408.272" width="181.42" height="19.8425"/>
			<rect x="0" y="398.35" width="181.417" height="19.8425" class="st1"/>
			<text x="47.8" y="412.25" class="st2" v:langID="1033"><v:paragraph v:horizAlign="2"/><v:tabList/>2.4 GHz (non-overlapping)</text>		</g>
		<g id="shape57-108" v:mID="57" v:groupContext="shape" transform="translate(-12.0886,386.262) rotate(-90)">
			<title>Sheet.57</title>
			<desc>5 GHz (non-DFS)</desc>
			<v:textBlock v:margins="rect(4,4,4,4)" v:tabSpace="42.5197" v:verticalAlign="0"/>
			<v:textRect cx="90.7087" cy="408.272" width="181.42" height="19.8425"/>
			<rect x="0" y="398.35" width="181.417" height="19.8425" class="st1"/>
			<text x="91.84" y="412.25" class="st2" v:langID="1033"><v:paragraph v:horizAlign="2"/><v:tabList/>5 GHz (non-DFS)</text>		</g>
		<g id="shape59-111" v:mID="59" v:groupContext="shape" transform="translate(50.2736,399.018) rotate(-90)">
			<title>Sheet.59</title>
			<desc>2.4 GHz (non-overlapping) and 5 GHz (non-DFS)</desc>
			<v:textBlock v:margins="rect(4,4,4,4)" v:tabSpace="42.5197" v:verticalAlign="0"/>
			<v:textRect cx="97.7953" cy="396.933" width="195.6" height="42.5197"/>
			<rect x="0" y="375.673" width="195.591" height="42.5197" class="st1"/>
			<text x="4" y="389.57" class="st2" v:langID="1033"><v:paragraph/><v:tabList/>2.4 GHz (non-overlapping) and 5 GHz<v:newlineChar/><tspan
						x="4" dy="1.2em" class="st5">(non</tspan>-DFS)  </text>		</g>
		<g id="shape60-115" v:mID="60" v:groupContext="shape" transform="translate(27.6927,-211.931)">
			<title>Sheet.60</title>
			<desc>0</desc>
			<v:textBlock v:margins="rect(4,4,4,4)" v:tabSpace="42.5197"/>
			<v:textRect cx="14.8751" cy="408.272" width="29.76" height="19.8425"/>
			<rect x="0" y="398.35" width="29.7502" height="19.8425" class="st1"/>
			<text x="11.82" y="411.57" class="st2" v:langID="1033"><v:paragraph v:horizAlign="1"/><v:tabList/>0</text>		</g>
		<g id="shape61-118" v:mID="61" v:groupContext="shape" transform="translate(27.6927,-243.112)">
			<title>Sheet.61</title>
			<desc>0.2</desc>
			<v:textBlock v:margins="rect(4,4,4,4)" v:tabSpace="42.5197"/>
			<v:textRect cx="14.8751" cy="408.272" width="29.76" height="19.8425"/>
			<rect x="0" y="398.35" width="29.7502" height="19.8425" class="st1"/>
			<text x="7.23" y="411.57" class="st2" v:langID="1033"><v:paragraph v:horizAlign="1"/><v:tabList/>0.2</text>		</g>
		<g id="shape62-121" v:mID="62" v:groupContext="shape" transform="translate(27.6927,-275.711)">
			<title>Sheet.62</title>
			<desc>0.4</desc>
			<v:textBlock v:margins="rect(4,4,4,4)" v:tabSpace="42.5197"/>
			<v:textRect cx="14.8751" cy="408.272" width="29.76" height="19.8425"/>
			<rect x="0" y="398.35" width="29.7502" height="19.8425" class="st1"/>
			<text x="7.23" y="411.57" class="st2" v:langID="1033"><v:paragraph v:horizAlign="1"/><v:tabList/>0.4</text>		</g>
		<g id="shape63-124" v:mID="63" v:groupContext="shape" transform="translate(27.6927,-305.474)">
			<title>Sheet.63</title>
			<desc>0.6</desc>
			<v:textBlock v:margins="rect(4,4,4,4)" v:tabSpace="42.5197"/>
			<v:textRect cx="14.8751" cy="408.272" width="29.76" height="19.8425"/>
			<rect x="0" y="398.35" width="29.7502" height="19.8425" class="st1"/>
			<text x="7.23" y="411.57" class="st2" v:langID="1033"><v:paragraph v:horizAlign="1"/><v:tabList/>0.6</text>		</g>
		<g id="shape64-127" v:mID="64" v:groupContext="shape" transform="translate(27.6927,-336.656)">
			<title>Sheet.64</title>
			<desc>0.8</desc>
			<v:textBlock v:margins="rect(4,4,4,4)" v:tabSpace="42.5197"/>
			<v:textRect cx="14.8751" cy="408.272" width="29.76" height="19.8425"/>
			<rect x="0" y="398.35" width="29.7502" height="19.8425" class="st1"/>
			<text x="7.23" y="411.57" class="st2" v:langID="1033"><v:paragraph v:horizAlign="1"/><v:tabList/>0.8</text>		</g>
		<g id="shape65-130" v:mID="65" v:groupContext="shape" transform="translate(27.6927,-367.837)">
			<title>Sheet.65</title>
			<desc>1</desc>
			<v:textBlock v:margins="rect(4,4,4,4)" v:tabSpace="42.5197"/>
			<v:textRect cx="14.8751" cy="408.272" width="29.76" height="19.8425"/>
			<rect x="0" y="398.35" width="29.7502" height="19.8425" class="st1"/>
			<text x="11.82" y="411.57" class="st2" v:langID="1033"><v:paragraph v:horizAlign="1"/><v:tabList/>1</text>		</g>
		<g id="shape67-133" v:mID="67" v:groupContext="shape" transform="translate(27.6928,-397.6)">
			<title>Sheet.67</title>
			<desc>1.2</desc>
			<v:textBlock v:margins="rect(4,4,4,4)" v:tabSpace="42.5197"/>
			<v:textRect cx="14.8751" cy="408.272" width="29.76" height="19.8425"/>
			<rect x="0" y="398.35" width="29.7502" height="19.8425" class="st1"/>
			<text x="7.23" y="411.57" class="st2" v:langID="1033"><v:paragraph v:horizAlign="1"/><v:tabList/>1.2</text>		</g>
	</g>
</svg>
