<?xml version="1.0" encoding="UTF-8" standalone="no"?>
<!DOCTYPE svg PUBLIC "-//W3C//DTD SVG 1.1//EN" "http://www.w3.org/Graphics/SVG/1.1/DTD/svg11.dtd">
<!-- Generated by Microsoft Visio, SVG Export Drawing2.svg Page-1 -->
<svg xmlns="http://www.w3.org/2000/svg" xmlns:xlink="http://www.w3.org/1999/xlink" xmlns:ev="http://www.w3.org/2001/xml-events"
		width="7.99722in" height="2.22004in" viewBox="0 0 575.8 159.843" xml:space="preserve" color-interpolation-filters="sRGB"
		class="st14">
	<style type="text/css">
	<![CDATA[
		.st1 {marker-end:url(#mrkr4-6);stroke:#333f48;stroke-linecap:butt;stroke-width:1}
		.st2 {fill:#333f48;fill-opacity:1;stroke:#333f48;stroke-opacity:1;stroke-width:0.28409090909091}
		.st3 {fill:#d0df00;stroke:none;stroke-width:1}
		.st4 {fill:none;stroke:none;stroke-width:1}
		.st5 {fill:#00a9ce;font-family:Arial;font-size:0.666664em}
		.st6 {font-size:0.874996em}
		.st7 {fill:#0077c8;stroke:none;stroke-width:1}
		.st8 {fill:#ffcd00;stroke:none;stroke-width:1}
		.st9 {fill:#00a9ce;font-family:Arial;font-size:0.583328em}
		.st10 {font-size:1em}
		.st11 {fill:#ffffff;font-family:Arial;font-size:0.583328em}
		.st12 {fill:#768692;stroke:none;stroke-width:1}
		.st13 {fill:#ffffff;font-family:Arial;font-size:0.666664em}
		.st14 {fill:none;fill-rule:evenodd;font-size:12px;overflow:visible;stroke-linecap:square;stroke-miterlimit:3}
	]]>
	</style>

	<defs id="Markers">
		<g id="lend4">
			<path d="M 2 1 L 0 0 L 2 -1 L 2 1 " style="stroke:none"/>
		</g>
		<marker id="mrkr4-6" class="st2" refX="-7.04" orient="auto" markerUnits="strokeWidth" overflow="visible">
			<use xlink:href="#lend4" transform="scale(-3.52,-3.52) "/>
		</marker>
	</defs>
	<g>
		<title>Page-1</title>
		<g id="shape11-1" transform="translate(37.5874,-114.856)">
			<title>Dynamic connector</title>
			<path d="M0 166.58 L523.3 167.27" class="st1"/>
		</g>
		<g id="shape12-7" transform="translate(101.482,-108.516)">
			<title>Nordic Grass</title>
			<rect x="0" y="136.702" width="8.66675" height="23.1409" class="st3"/>
		</g>
		<g id="shape13-9" transform="translate(7.92312,-103.912)">
			<title>Sheet.13</title>
			<desc>AP</desc>
			<rect x="0" y="151.427" width="24.4041" height="8.41627" class="st4"/>
			<text x="6.87" y="158.04" class="st5">AP</text>		</g>
		<g id="shape14-12" transform="translate(37.5874,-25.9593)">
			<title>Dynamic connector.14</title>
			<path d="M0 153.43 L523.3 152.1" class="st1"/>
		</g>
		<g id="shape15-17" transform="translate(1,-26.0615)">
			<title>Sheet.15</title>
			<desc>Device</desc>
			<rect x="0" y="147.219" width="39.7416" height="12.6244" class="st4"/>
			<text x="7.64" y="155.93" class="st5">Device</text>		</g>
		<g id="shape17-20" transform="translate(80.3701,-144.357)">
			<title>Sheet.17</title>
			<desc>Beacon TIM_AID_1 = 1</desc>
			<rect x="0" y="151.427" width="59.6727" height="8.41627" class="st4"/>
			<text x="16.27" y="153.24" class="st5">Beacon <tspan x="6.2" dy="1.371em" class="st6">TIM_AID_1 = 1</tspan></text>		</g>
		<g id="shape18-24" transform="translate(151.208,-144.357)">
			<title>Sheet.18</title>
			<desc>ACK</desc>
			<rect x="0" y="151.427" width="39.7416" height="8.41627" class="st4"/>
			<text x="11.65" y="153.24" class="st5">ACK</text>		</g>
		<g id="shape19-27" transform="translate(165.409,-108.516)">
			<title>Nordic Grass.19</title>
			<rect x="0" y="136.702" width="8.66675" height="23.1409" class="st7"/>
		</g>
		<g id="shape27-29" transform="translate(202.232,-108.931)">
			<title>Nordic Sun</title>
			<rect x="0" y="136.702" width="39.7416" height="23.1409" class="st8"/>
		</g>
		<g id="shape29-31" transform="translate(433.202,-108.894)">
			<title>Nordic Grass.29</title>
			<rect x="0" y="136.702" width="8.66675" height="23.1409" class="st3"/>
		</g>
		<g id="shape32-33" transform="translate(190.439,-144.357)">
			<title>Sheet.32</title>
			<desc>QoS data (more data =1)</desc>
			<rect x="0" y="145.67" width="63.3266" height="14.1732" class="st4"/>
			<text x="16.88" y="150.66" class="st9">QoS data <tspan x="8.61" dy="1.2em" class="st10">(more data =1)</tspan></text>		</g>
		<g id="shape1004-37" transform="translate(174.47,-66.3164)">
			<title>Sheet.1004</title>
			<desc>Sleep</desc>
			<rect x="0" y="145.67" width="39.7416" height="14.1732" class="st4"/>
			<text x="10.92" y="154.86" class="st11">Sleep</text>		</g>
		<g id="shape1006-40" transform="translate(452.07,-67.7338)">
			<title>Sheet.1006</title>
			<desc>Sleep</desc>
			<rect x="0" y="147.219" width="27.6236" height="12.6244" class="st4"/>
			<text x="4.86" y="155.63" class="st11">Sleep</text>		</g>
		<g id="shape24-43" transform="translate(389.375,-1)">
			<title>Nordic Middle Grey.24</title>
			<rect x="0" y="28.8088" width="151.625" height="131.034" class="st12"/>
		</g>
		<g id="shape1014-45" transform="translate(435.835,-59.2298)">
			<title>Sheet.1014</title>
			<desc>Sleep</desc>
			<rect x="0" y="142.835" width="48.7559" height="17.0079" class="st4"/>
			<text x="14.15" y="153.74" class="st13">Sleep</text>		</g>
		<g id="shape6-48" transform="translate(54.6389,-7.88581)">
			<title>Nordic Middle Grey</title>
			<rect x="0" y="28.8088" width="27.6236" height="131.034" class="st12"/>
		</g>
		<g id="shape1003-50" transform="translate(49.1607,-67.7338)">
			<title>Sheet.1003</title>
			<desc>Sleep</desc>
			<rect x="0" y="145.67" width="39.7416" height="14.1732" class="st4"/>
			<text x="9.64" y="155.16" class="st13">Sleep</text>		</g>
		<g id="shape1015-53" transform="translate(300.002,-107.419)">
			<title>Nordic Grass.1015</title>
			<rect x="0" y="136.702" width="8.66675" height="23.1409" class="st7"/>
		</g>
		<g id="shape1016-55" transform="translate(284.465,-144.357)">
			<title>Sheet.1016</title>
			<desc>ACK</desc>
			<rect x="0" y="151.427" width="39.7416" height="8.41627" class="st4"/>
			<text x="11.65" y="153.24" class="st5">ACK</text>		</g>
		<g id="shape1017-58" transform="translate(332.434,-108.553)">
			<title>Nordic Sun.1017</title>
			<rect x="0" y="136.702" width="39.7416" height="23.1409" class="st8"/>
		</g>
		<g id="shape1018-60" transform="translate(122.861,-33.2542)">
			<title>Nordic Sun.1018</title>
			<rect x="0" y="136.702" width="24.4041" height="23.1409" class="st8"/>
		</g>
		<g id="shape1019-62" transform="translate(103.4,-56.3952)">
			<title>Sheet.1019</title>
			<desc>PS poll</desc>
			<rect x="0" y="145.67" width="63.3266" height="14.1732" class="st4"/>
			<text x="20.57" y="154.86" class="st9">PS poll</text>		</g>
		<g id="shape1020-65" transform="translate(239.11,-59.3175)">
			<title>Sheet.1020</title>
			<desc>ACK</desc>
			<rect x="0" y="151.427" width="27.6236" height="8.41627" class="st4"/>
			<text x="5.59" y="153.24" class="st5">ACK</text>		</g>
		<g id="shape1021-68" transform="translate(250.449,-32.3737)">
			<title>Nordic Grass.1021</title>
			<rect x="0" y="136.702" width="8.66675" height="23.1409" class="st7"/>
		</g>
		<g id="shape1022-70" transform="translate(269.788,-33.2542)">
			<title>Nordic Sun.1022</title>
			<rect x="0" y="136.702" width="24.4041" height="23.1409" class="st8"/>
		</g>
		<g id="shape1023-72" transform="translate(260.26,-60.6471)">
			<title>Sheet.1023</title>
			<desc>PS poll</desc>
			<rect x="0" y="145.67" width="39.7416" height="14.1732" class="st4"/>
			<text x="8.78" y="154.86" class="st9">PS poll</text>		</g>
		<g id="shape1024-75" transform="translate(360.972,-57.9002)">
			<title>Sheet.1024</title>
			<desc>ACK</desc>
			<rect x="0" y="151.427" width="39.7416" height="8.41627" class="st4"/>
			<text x="11.65" y="153.24" class="st5">ACK</text>		</g>
		<g id="shape1025-78" transform="translate(380.843,-33.2542)">
			<title>Nordic Grass.1025</title>
			<rect x="0" y="136.702" width="8.66675" height="23.1409" class="st7"/>
		</g>
		<g id="shape1026-80" transform="translate(320.642,-144.357)">
			<title>Sheet.1026</title>
			<desc>QoS data (more data =0)</desc>
			<rect x="0" y="145.67" width="63.3266" height="14.1732" class="st4"/>
			<text x="16.88" y="150.66" class="st9">QoS data <tspan x="8.61" dy="1.2em" class="st10">(more data =0)</tspan></text>		</g>
	</g>
</svg>
