<?xml version="1.0" encoding="UTF-8" standalone="no"?>
<!DOCTYPE svg PUBLIC "-//W3C//DTD SVG 1.1//EN" "http://www.w3.org/Graphics/SVG/1.1/DTD/svg11.dtd">
<!-- Generated by Microsoft Visio, SVG Export aws_fota_dfu_sequence.svg Page-1 -->
<svg xmlns="http://www.w3.org/2000/svg" xmlns:xlink="http://www.w3.org/1999/xlink" xmlns:ev="http://www.w3.org/2001/xml-events"
		width="7.69852in" height="8.29079in" viewBox="0 0 554.294 596.937" xml:space="preserve" color-interpolation-filters="sRGB"
		class="st22">
	<style type="text/css">
	<![CDATA[
		.st1 {stroke:#333f48;stroke-dasharray:8,4;stroke-linecap:butt;stroke-width:1}
		.st2 {fill:#ffffff;stroke:#333f48;stroke-width:1}
		.st3 {fill:none;stroke:#333f48;stroke-width:1}
		.st4 {fill:none;stroke:none;stroke-width:1}
		.st5 {fill:#333f48;font-family:Arial;font-size:0.75em}
		.st6 {fill:#ffffff;stroke:#333f48;stroke-width:0.75}
		.st7 {fill:#e4e4e4;stroke:#333f48;stroke-width:0.75}
		.st8 {marker-end:url(#mrkr4-52);stroke:#333f48;stroke-linecap:butt;stroke-width:1}
		.st9 {fill:#333f48;fill-opacity:1;stroke:#333f48;stroke-opacity:1;stroke-width:0.28409090909091}
		.st10 {fill:#333f48;font-family:Arial;font-size:0.666664em}
		.st11 {marker-start:url(#mrkr4-61);stroke:#333f48;stroke-linecap:butt;stroke-width:1}
		.st12 {fill:#ffffff;stroke:none;stroke-width:1}
		.st13 {font-size:1em}
		.st14 {fill:none;stroke:#333f48;stroke-width:0.5}
		.st15 {stroke:#333f48;stroke-linecap:butt;stroke-width:1}
		.st16 {fill:#ffffff;stroke:#333f48;stroke-width:0.5}
		.st17 {fill:#e4e4e4;stroke:#333f48;stroke-width:0.5}
		.st18 {fill:none;marker-start:url(#mrkr4-198);stroke:none;stroke-width:1}
		.st19 {fill:#feffff;fill-opacity:1;stroke:#feffff;stroke-opacity:1;stroke-width:0.28409090909091}
		.st20 {fill:#ffffff;stroke:#feffff;stroke-width:1}
		.st21 {fill:none;marker-end:url(#mrkr4-275);stroke:none;stroke-width:1}
		.st22 {fill:none;fill-rule:evenodd;font-size:12px;overflow:visible;stroke-linecap:square;stroke-miterlimit:3}
	]]>
	</style>

	<defs id="Markers">
		<g id="lend4">
			<path d="M 2 1 L 0 0 L 2 -1 L 2 1 " style="stroke:none"/>
		</g>
		<marker id="mrkr4-52" class="st9" refX="-7.04" orient="auto" markerUnits="strokeWidth" overflow="visible">
			<use xlink:href="#lend4" transform="scale(-3.52,-3.52) "/>
		</marker>
		<marker id="mrkr4-61" class="st9" refX="6.68" orient="auto" markerUnits="strokeWidth" overflow="visible">
			<use xlink:href="#lend4" transform="scale(3.52) "/>
		</marker>
		<marker id="mrkr4-198" class="st19" refX="7.04" orient="auto" markerUnits="strokeWidth" overflow="visible">
			<use xlink:href="#lend4" transform="scale(3.52) "/>
		</marker>
		<marker id="mrkr4-275" class="st19" refX="-7.04" orient="auto" markerUnits="strokeWidth" overflow="visible">
			<use xlink:href="#lend4" transform="scale(-3.52,-3.52) "/>
		</marker>
	</defs>
	<g>
		<title>Page-1</title>
		<g id="shape30-1" transform="translate(312.37,-570.31)">
			<title>Dynamic connector.30</title>
			<path d="M7.06 596.94 L7.12 1158.08" class="st1"/>
		</g>
		<g id="shape84-4" transform="translate(315.6,-247.036)">
			<title>Rectangle.84</title>
			<rect x="0" y="538.763" width="7.37008" height="58.1737" class="st2"/>
		</g>
		<g id="shape7-6" transform="translate(91.5806,-569.789)">
			<title>Dynamic connector</title>
			<path d="M6.8 596.94 L7.37 1161.81" class="st1"/>
		</g>
		<g id="shape5-9" transform="translate(72.8719,-569.789)">
			<title>Nordic Blue</title>
			<rect x="0" y="571.425" width="51.0236" height="25.5118" class="st3"/>
		</g>
		<g id="shape6-11" transform="translate(75.7066,-577.12)">
			<title>Sheet.6</title>
			<desc>Device</desc>
			<rect x="0" y="584.816" width="45.3543" height="12.1206" class="st4"/>
			<text x="8.92" y="593.58" class="st5">Device</text>		</g>
		<g id="group21-14" transform="translate(-524.065,47.6368) rotate(-90)">
			<title>Folded Corner</title>
			<g id="shape21-15">
				<path d="M0 596.94 L11.34 596.94 L17.01 591.27 L17.01 541.04 L0 541.04 L0 596.94 Z" class="st6"/>
			</g>
			<g id="shape22-17" transform="translate(11.3386,0)">
				<title>Sheet.22</title>
				<path d="M0 596.94 L5.67 591.27 L0 591.27 L0 596.94 Z" class="st7"/>
			</g>
		</g>
		<g id="shape23-19" transform="translate(14.6605,-542.213)">
			<title>Sheet.23</title>
			<desc>Device boot</desc>
			<rect x="0" y="565.756" width="55.8955" height="31.1811" class="st4"/>
			<text x="4.18" y="584.05" class="st5">Device boot</text>		</g>
		<g id="shape24-22" transform="translate(268.766,-570.31)">
			<title>Nordic Blue.24</title>
			<rect x="0" y="571.425" width="101.318" height="25.5118" class="st3"/>
		</g>
		<g id="shape25-24" transform="translate(265.628,-575.927)">
			<title>Sheet.25</title>
			<desc>AWS IoT MQTT Broker</desc>
			<rect x="0" y="582.43" width="104.457" height="14.5066" class="st4"/>
			<text x="5.73" y="592.38" class="st5">AWS IoT MQTT Broker</text>		</g>
		<g id="shape26-27" transform="translate(373.344,-570.31)">
			<title>Nordic Blue.26</title>
			<rect x="0" y="571.425" width="85.0394" height="25.5118" class="st3"/>
		</g>
		<g id="shape27-29" transform="translate(373.344,-570.31)">
			<title>Sheet.27</title>
			<desc>AWS IoT Jobs</desc>
			<rect x="0" y="573.717" width="85.0394" height="23.22" class="st4"/>
			<text x="13.76" y="585.82" class="st5">AWS IoT Jobs</text>		</g>
		<g id="shape28-32" transform="translate(468.254,-570.425)">
			<title>Nordic Blue.28</title>
			<rect x="0" y="571.425" width="85.0394" height="25.5118" class="st3"/>
		</g>
		<g id="shape29-34" transform="translate(468.254,-572.084)">
			<title>Sheet.29</title>
			<desc>AWS S3 Server</desc>
			<rect x="0" y="574.743" width="85.0394" height="22.1937" class="st4"/>
			<text x="11.01" y="588.54" class="st5">AWS S3 Server</text>		</g>
		<g id="shape31-37" transform="translate(410.903,-570.31)">
			<title>Dynamic connector.31</title>
			<path d="M4.96 596.94 L9.21 1158.08" class="st1"/>
		</g>
		<g id="shape32-40" transform="translate(503.713,-570.425)">
			<title>Dynamic connector.32</title>
			<path d="M7.06 596.94 L7.11 1156.21" class="st1"/>
		</g>
		<g id="shape33-43" transform="translate(315.801,-532.157)">
			<title>Rectangle</title>
			<rect x="0" y="582.43" width="7.37008" height="14.5066" class="st2"/>
		</g>
		<g id="shape34-45" transform="translate(94.6987,-456.533)">
			<title>Rectangle.34</title>
			<rect x="0" y="506.005" width="7.37008" height="90.9314" class="st2"/>
		</g>
		<g id="shape36-47" transform="translate(102.069,-554.151)">
			<title>Dynamic connector.36</title>
			<path d="M0 603.62 L206.69 604.4" class="st8"/>
		</g>
		<g id="shape37-53" transform="translate(143.549,-549.3)">
			<title>Sheet.37</title>
			<desc>MQTT: CONNECT</desc>
			<rect x="0" y="589.85" width="124.724" height="7.08662" class="st4"/>
			<text x="29.03" y="595.79" class="st10">MQTT: CONNECT</text>		</g>
		<g id="shape39-56" transform="translate(102.069,-524.362)">
			<title>Dynamic connector.39</title>
			<path d="M6.68 590.51 L7.04 590.51 L213.73 589.14" class="st11"/>
		</g>
		<g id="shape40-62" transform="translate(144.042,-533.574)">
			<title>Sheet.40</title>
			<desc>MQTT: CONNACK</desc>
			<rect x="0" y="586.732" width="124.724" height="10.2047" class="st4"/>
			<text x="28.81" y="594.23" class="st10">MQTT: CONNACK</text>		</g>
		<g id="shape41-65" transform="translate(315.742,-456.533)">
			<title>Rectangle.41</title>
			<rect x="0" y="537.753" width="7.37008" height="59.1834" class="st2"/>
		</g>
		<g id="shape42-67" transform="translate(102.069,-508.346)">
			<title>Dynamic connector.42</title>
			<path d="M0 590.13 L206.63 589.59" class="st8"/>
		</g>
		<g id="shape43-72" transform="translate(146.906,-516.283)">
			<title>Sheet.43</title>
			<desc>MQTT: SUBSCRIBE</desc>
			<rect x="0" y="586.732" width="124.724" height="10.2047" class="st4"/>
			<text x="25.69" y="594.23" class="st10">MQTT: SUBSCRIBE</text>		</g>
		<g id="group44-75" transform="translate(-260.443,127.142) rotate(-90)">
			<title>Folded Corner.44</title>
			<g id="shape44-76">
				<path d="M0 596.94 L32.06 596.94 L40.47 588.43 L40.47 349.47 L0 349.47 L0 596.94 Z" class="st6"/>
			</g>
			<g id="shape45-78" transform="translate(31.9631,0)">
				<title>Sheet.45</title>
				<path d="M0.1 596.94 L8.5 588.43 L0 588.53 L0.1 596.94 Z" class="st7"/>
			</g>
		</g>
		<g id="shape46-80" transform="translate(98.3838,-475.808)">
			<title>Sheet.46</title>
			<desc>$aws/things/&#60;thingName&#62;/jobs/notify-next $aws/things/&#60;thingNa...</desc>
			<rect x="0" y="567.76" width="224.787" height="29.1766" class="st12"/>
			<text x="40" y="575.15" class="st10">$aws/things/&#60;thingName&#62;/jobs/notify-next <tspan x="40" dy="1.2em"
						class="st13">$aws/things/&#60;thingName&#62;/jobs/$next/get/accepted </tspan><tspan x="40" dy="1.2em"
						class="st13">$aws/things/&#60;thingName&#62;/jobs/$next/get/rejected</tspan></text>		</g>
		<g id="shape47-85" transform="translate(102.069,-449.446)">
			<title>Dynamic connector.47</title>
			<path d="M6.68 589.85 L7.04 589.85 L213.67 589.85" class="st11"/>
		</g>
		<g id="shape48-90" transform="translate(140.903,-459.59)">
			<title>Sheet.48</title>
			<desc>MQTT: SUBACK</desc>
			<rect x="0" y="589.85" width="124.724" height="7.08662" class="st4"/>
			<text x="32.36" y="595.79" class="st10">MQTT: SUBACK</text>		</g>
		<g id="group49-93" transform="translate(-108.789,152.654) rotate(-90)">
			<title>Folded Corner.49</title>
			<g id="shape49-94">
				<path d="M0 596.94 L7.07 596.94 L10.2 594.09 L10.2 531.74 L0 531.74 L0 596.94 Z" class="st14"/>
			</g>
			<g id="shape50-96" transform="translate(7.07242,0)">
				<title>Sheet.50</title>
				<path d="M0 596.94 L3.13 594.09 L0.3 593.82 L0 596.94 Z" class="st14"/>
			</g>
		</g>
		<g id="shape51-98" transform="translate(422.951,-440.359)">
			<title>Sheet.51</title>
			<desc>Job created</desc>
			<rect x="0" y="578.884" width="65.1969" height="18.0522" class="st4"/>
			<text x="11.7" y="590.31" class="st10">Job created</text>		</g>
		<g id="shape53-101" transform="translate(94.6987,-247.036)">
			<title>Rectangle.53</title>
			<rect x="0" y="406.466" width="7.37008" height="190.471" class="st2"/>
		</g>
		<g id="shape54-103" transform="translate(98.3979,-548.658)">
			<title>Dynamic connector.54</title>
			<path d="M0 589.92 L-25.53 589.78" class="st15"/>
		</g>
		<g id="shape55-106" transform="translate(102.069,-430.909)">
			<title>Dynamic connector.55</title>
			<path d="M6.68 590.32 L7.04 590.32 L313.8 589.36" class="st11"/>
		</g>
		<g id="shape56-111" transform="translate(147.99,-440.031)">
			<title>Sheet.56</title>
			<desc>MQTT: PUBLISH</desc>
			<rect x="0" y="589.85" width="187.044" height="7.08662" class="st4"/>
			<text x="62.85" y="595.79" class="st10">MQTT: PUBLISH</text>		</g>
		<g id="shape57-114" transform="translate(315.801,-382.056)">
			<title>Rectangle.57</title>
			<rect x="0" y="540.993" width="7.37008" height="55.9434" class="st2"/>
		</g>
		<g id="group58-116" transform="translate(-170.868,194.714) rotate(-90)">
			<title>Folded Corner.58</title>
			<g id="shape58-117">
				<path d="M0 596.94 L24.16 596.94 L29.18 591.85 L29.18 259.9 L0 259.9 L0 596.94 Z" class="st6"/>
			</g>
			<g id="shape59-119" transform="translate(24.0945,0)">
				<title>Sheet.59</title>
				<path d="M0.07 596.94 L5.08 591.85 L0 591.92 L0.07 596.94 Z" class="st7"/>
			</g>
		</g>
		<g id="shape60-121" transform="translate(150.171,-405.907)">
			<title>Sheet.60</title>
			<desc>$aws/things/&#60;thingName&#62;/jobs/notify-next Job description docu...</desc>
			<rect x="0" y="577.03" width="247.921" height="19.9063" class="st12"/>
			<text x="40" y="579.78" class="st10">$aws/things/&#60;thingName&#62;/jobs/notify-next  <tspan x="40" dy="2.4em"
						class="st13">Job description document</tspan></text>		</g>
		<g id="shape61-125" transform="translate(102.069,-374.916)">
			<title>Dynamic connector.61</title>
			<path d="M0 589.9 L206.69 589.8" class="st8"/>
		</g>
		<g id="shape62-130" transform="translate(140.903,-383.881)">
			<title>Sheet.62</title>
			<desc>MQTT: PUBACK</desc>
			<rect x="0" y="587.582" width="124.724" height="9.35433" class="st4"/>
			<text x="32.36" y="594.66" class="st10">MQTT: PUBACK</text>		</g>
		<g id="group63-133" transform="translate(-508.235,236.589) rotate(-90)">
			<title>Folded Corner.63</title>
			<g id="shape63-134">
				<path d="M0 596.94 L13.61 596.94 L19.91 590.7 L19.91 523.24 L0 523.24 L0 596.94 Z" class="st16"/>
			</g>
			<g id="shape64-136" transform="translate(13.6082,0)">
				<title>Sheet.64</title>
				<path d="M0 596.94 L6.3 590.7 L0.06 590.64 L0 596.94 Z" class="st17"/>
			</g>
		</g>
		<g id="shape65-138" transform="translate(11.0767,-353.95)">
			<title>Sheet.65</title>
			<desc>Parse job document</desc>
			<rect x="0" y="567.006" width="81.6378" height="29.9306" class="st4"/>
			<text x="5.24" y="584.37" class="st10">Parse job document</text>		</g>
		<g id="shape66-141" transform="translate(98.809,-376.002)">
			<title>Dynamic connector.66</title>
			<path d="M-4.11 604.02 L-10.06 604.02" class="st15"/>
		</g>
		<g id="shape67-144" transform="translate(102.069,-353.376)">
			<title>Dynamic connector.67</title>
			<path d="M0 589.94 L206.63 589.77" class="st8"/>
		</g>
		<g id="shape68-149" transform="translate(146.906,-362.078)">
			<title>Sheet.68</title>
			<desc>MQTT: SUBSCRIBE</desc>
			<rect x="0" y="587.582" width="124.724" height="9.35433" class="st4"/>
			<text x="25.69" y="594.66" class="st10">MQTT: SUBSCRIBE</text>		</g>
		<g id="shape69-152" transform="translate(315.742,-318.033)">
			<title>Rectangle.69</title>
			<rect x="0" y="554.417" width="7.37008" height="42.5197" class="st2"/>
		</g>
		<g id="group70-154" transform="translate(-267.488,267.565) rotate(-90)">
			<title>Folded Corner.70</title>
			<g id="shape70-155">
				<path d="M0 596.94 L20.17 596.94 L25.51 591.26 L25.51 355.71 L0 355.71 L0 596.94 Z" class="st6"/>
			</g>
			<g id="shape71-157" transform="translate(19.8474,0)">
				<title>Sheet.71</title>
				<path d="M0.32 596.94 L5.66 591.26 L0 591.6 L0.32 596.94 Z" class="st7"/>
			</g>
		</g>
		<g id="shape72-159" transform="translate(89.5964,-329.997)">
			<title>Sheet.72</title>
			<desc>$aws/things/&#60;thingName&#62;/jobs/&#60;jobId&#62;/update/accepted $aws/thi...</desc>
			<rect x="0" y="571.425" width="244.913" height="25.5118" class="st4"/>
			<text x="4" y="581.48" class="st5">$aws/things/&#60;thingName&#62;/jobs/&#60;jobId&#62;/update/accepted <tspan x="4"
						dy="1.2em" class="st13">$aws/things/&#60;thingName&#62;/jobs/&#60;jobId&#62;/update/rejected</tspan></text>		</g>
		<g id="shape73-163" transform="translate(102.069,-310.522)">
			<title>Dynamic connector.73</title>
			<path d="M6.68 590.25 L7.04 590.25 L213.67 589.42" class="st11"/>
		</g>
		<g id="shape74-168" transform="translate(137.067,-318.033)">
			<title>Sheet.74</title>
			<desc>MQTT: SUBACK</desc>
			<rect x="0" y="589.85" width="128.561" height="7.08662" class="st4"/>
			<text x="34.28" y="595.79" class="st10">MQTT: SUBACK</text>		</g>
		<g id="shape75-171" transform="translate(102.069,-297.732)">
			<title>Dynamic connector.75</title>
			<path d="M0 590.24 L305.05 589.48" class="st8"/>
		</g>
		<g id="shape76-176" transform="translate(146.573,-304.427)">
			<title>Sheet.76</title>
			<desc>MQTT: PUBLISH</desc>
			<rect x="0" y="587.582" width="187.044" height="9.35433" class="st4"/>
			<text x="62.85" y="594.66" class="st10">MQTT: PUBLISH</text>		</g>
		<g id="shape81-179" transform="translate(414.163,-231.401)">
			<title>Rectangle.81</title>
			<rect x="0" y="523.129" width="7.37008" height="73.8081" class="st2"/>
		</g>
		<g id="group78-181" transform="translate(-166.899,333.847) rotate(-90)">
			<title>Folded Corner.78</title>
			<g id="shape78-182">
				<path d="M0 596.94 L27.94 596.94 L35.1 589.85 L35.1 256.28 L0 256.28 L0 596.94 Z" class="st6"/>
			</g>
			<g id="shape79-184" transform="translate(27.9433,0)">
				<title>Sheet.79</title>
				<path d="M0 596.94 L7.16 589.85 L0.07 589.78 L0 596.94 Z" class="st7"/>
			</g>
		</g>
		<g id="shape80-186" transform="translate(116.83,-268.31)">
			<title>Sheet.80</title>
			<desc>$aws/things/&#60;thingName&#62;/jobs/&#60;jobId&#62;/update status: IN_PROGRESS</desc>
			<rect x="0" y="571.425" width="247.921" height="25.5118" class="st4"/>
			<text x="40" y="576.98" class="st10">$aws/things/&#60;thingName&#62;/jobs/&#60;jobId&#62;/update  <tspan x="40"
						dy="2.4em" class="st13">status: IN_PROGRESS</tspan></text>		</g>
		<g id="shape82-190" transform="translate(102.069,-239.949)">
			<title>Dynamic connector.82</title>
			<path d="M6.68 589.85 L7.04 589.85 L213.53 589.85" class="st11"/>
		</g>
		<g id="shape83-195" transform="translate(116.947,-248.693)">
			<title>Sheet.83</title>
			<desc>MQTT: PUBACK</desc>
			<rect x="0" y="587.582" width="171.358" height="9.35433" class="st18"/>
			<text x="55.68" y="594.66" class="st10">MQTT: PUBACK</text>		</g>
		<g id="shape86-200" transform="translate(412.888,-442.299)">
			<title>Dynamic connector.86</title>
			<path d="M4.11 589.85 L10.06 589.85" class="st15"/>
		</g>
		<g id="shape87-203" transform="translate(102.069,-238.576)">
			<title>Dynamic connector.87</title>
			<path d="M6.68 603.94 L7.04 603.94 L312.09 604.11" class="st11"/>
		</g>
		<g id="shape88-208" transform="translate(109.744,-233.444)">
			<title>Sheet.88</title>
			<desc>MQTT: PUBLISH</desc>
			<rect x="0" y="587.582" width="187.044" height="9.35433" class="st4"/>
			<text x="62.85" y="594.66" class="st10">MQTT: PUBLISH</text>		</g>
		<g id="shape89-211" transform="translate(94.6987,-82.7578)">
			<title>Rectangle.89</title>
			<rect x="0" y="448.118" width="7.37008" height="148.819" class="st2"/>
		</g>
		<g id="shape93-213" transform="translate(102.069,-180.182)">
			<title>Dynamic connector.93</title>
			<path d="M0 590.22 L206.63 589.5" class="st8"/>
		</g>
		<g id="shape94-218" transform="translate(109.999,-188.315)">
			<title>Sheet.94</title>
			<desc>MQTT: PUBACK</desc>
			<rect x="0" y="587.582" width="183.975" height="9.35433" class="st18"/>
			<text x="61.99" y="594.66" class="st10">MQTT: PUBACK</text>		</g>
		<g id="shape95-222" transform="translate(315.742,-187.64)">
			<title>Rectangle.95</title>
			<rect x="0" y="553.175" width="7.37008" height="43.7615" class="st2"/>
		</g>
		<g id="group90-224" transform="translate(-169.846,395.792) rotate(-90)">
			<title>Folded Corner.90</title>
			<g id="shape90-225">
				<path d="M0 596.94 L21.66 596.94 L25.51 593.26 L25.51 260.47 L0 260.47 L0 596.94 Z" class="st6"/>
			</g>
			<g id="shape91-227" transform="translate(21.6609,0)">
				<title>Sheet.91</title>
				<path d="M0 596.94 L3.85 593.26 L0.18 593.09 L0 596.94 Z" class="st7"/>
			</g>
		</g>
		<g id="shape92-229" transform="translate(94.6987,-204.534)">
			<title>Sheet.92</title>
			<desc>$aws/things/&#60;thingName&#62;/jobs/&#60;jobId&#62;/update/accepted</desc>
			<rect x="0" y="575.733" width="285.643" height="21.2037" class="st20"/>
			<text x="30.49" y="589.03" class="st5">$aws/things/&#60;thingName&#62;/jobs/&#60;jobId&#62;/update/accepted</text>		</g>
		<g id="group96-232" transform="translate(-508.191,430.513) rotate(-90)">
			<title>Folded Corner.96</title>
			<g id="shape96-233">
				<path d="M0 596.94 L13.61 596.94 L19.91 590.7 L19.91 523.24 L0 523.24 L0 596.94 Z" class="st16"/>
			</g>
			<g id="shape97-235" transform="translate(13.6082,0)">
				<title>Sheet.97</title>
				<path d="M0 596.94 L6.3 590.7 L0.06 590.64 L0 596.94 Z" class="st17"/>
			</g>
		</g>
		<g id="shape98-237" transform="translate(98.809,-183.464)">
			<title>Dynamic connector.98</title>
			<path d="M-4.11 604.02 L-10.06 604.02" class="st15"/>
		</g>
		<g id="shape99-240" transform="translate(20.1475,-172.66)">
			<title>Sheet.99</title>
			<desc>Start firmware download</desc>
			<rect x="0" y="587.582" width="61.2283" height="9.35433" class="st4"/>
			<text x="5.72" y="589.86" class="st10">Start firmware <tspan x="13.49" dy="1.2em" class="st13">download</tspan></text>		</g>
		<g id="shape100-244" transform="translate(102.069,-157.615)">
			<title>Dynamic connector.100</title>
			<path d="M0 590.19 L398.03 589.52" class="st8"/>
		</g>
		<g id="shape101-249" transform="translate(507.14,-146.986)">
			<title>Rectangle.101</title>
			<rect x="0" y="578.884" width="7.37008" height="18.0522" class="st2"/>
		</g>
		<g id="shape103-251" transform="translate(131.767,-167.023)">
			<title>Sheet.103</title>
			<desc>HTTP request: &#60;file_path&#62;</desc>
			<rect x="0" y="587.582" width="183.975" height="9.35433" class="st18"/>
			<text x="45.07" y="594.66" class="st10">HTTP request: &#60;file_path&#62;</text>		</g>
		<g id="shape104-255" transform="translate(102.069,-154.683)">
			<title>Dynamic connector.104</title>
			<path d="M6.68 603.43 L7.04 603.43 L405.07 604.63" class="st11"/>
		</g>
		<g id="shape105-260" transform="translate(135.452,-150.897)">
			<title>Sheet.105</title>
			<desc>HTTP response: with content-range header</desc>
			<rect x="0" y="587.582" width="183.975" height="9.35433" class="st18"/>
			<text x="15.28" y="594.66" class="st10">HTTP response: with content-range header</text>		</g>
		<g id="group106-264" transform="translate(-508.778,469.118) rotate(-90)">
			<title>Folded Corner.106</title>
			<g id="shape106-265">
				<path d="M0 596.94 L13.61 596.94 L19.91 590.7 L19.91 523.24 L0 523.24 L0 596.94 Z" class="st16"/>
			</g>
			<g id="shape107-267" transform="translate(13.6082,0)">
				<title>Sheet.107</title>
				<path d="M0 596.94 L6.3 590.7 L0.06 590.64 L0 596.94 Z" class="st17"/>
			</g>
		</g>
		<g id="shape109-269" transform="translate(84.3421,-130.8)">
			<title>Dynamic connector.109</title>
			<path d="M3.82 589.96 L10.36 589.74" class="st15"/>
		</g>
		<g id="shape111-272" transform="translate(109.999,-132.072)">
			<title>Sheet.111</title>
			<desc>MQTT: PUBLISH</desc>
			<rect x="0" y="587.582" width="187.044" height="9.35433" class="st21"/>
			<text x="62.85" y="594.66" class="st10">MQTT: PUBLISH</text>		</g>
		<g id="shape133-277" transform="translate(17.3129,-133.094)">
			<title>Sheet.133</title>
			<desc>Download complete</desc>
			<rect x="0" y="587.582" width="61.2283" height="9.35433" class="st4"/>
			<text x="12.83" y="589.86" class="st10">Download <tspan x="14.38" dy="1.2em" class="st13">complete</tspan></text>		</g>
		<g id="shape134-281" transform="translate(315.801,-86.3179)">
			<title>Rectangle.118</title>
			<rect x="0" y="555.436" width="7.37008" height="41.5006" class="st2"/>
		</g>
		<g id="shape135-283" transform="translate(415.864,-69.6447)">
			<title>Rectangle.112</title>
			<rect x="0" y="538.763" width="7.37008" height="58.1737" class="st2"/>
		</g>
		<g id="group136-285" transform="translate(-166.899,500.758) rotate(-90)">
			<title>Folded Corner.113</title>
			<g id="shape136-286">
				<path d="M0 596.94 L23.54 596.94 L27.39 593 L27.39 260.47 L0 260.47 L0 596.94 Z" class="st6"/>
			</g>
			<g id="shape137-288" transform="translate(23.4498,0)">
				<title>Sheet.137</title>
				<path d="M0.09 596.94 L3.94 593 L0 593.09 L0.09 596.94 Z" class="st7"/>
			</g>
		</g>
		<g id="shape138-290" transform="translate(128.856,-100.992)">
			<title>Sheet.138</title>
			<desc>$aws/things/&#60;thingName&#62;/jobs/&#60;jobId&#62;/update status:SUCCEEDED</desc>
			<rect x="0" y="579.929" width="200.246" height="17.0079" class="st20"/>
			<text x="4" y="581.23" class="st10">$aws/things/&#60;thingName&#62;/jobs/&#60;jobId&#62;/update  <tspan x="4"
						dy="2.4em" class="st13">status:SUCCEEDED</tspan></text>		</g>
		<g id="shape139-294" transform="translate(102.069,-79.2313)">
			<title>Dynamic connector.116</title>
			<path d="M6.68 589.85 L7.04 589.85 L213.73 589.85" class="st11"/>
		</g>
		<g id="shape140-299" transform="translate(164.431,-87.1177)">
			<title>Sheet.140</title>
			<desc>MQTT: PUBACK</desc>
			<rect x="0" y="590.711" width="81.3543" height="6.22609" class="st18"/>
			<text x="10.68" y="596.22" class="st10">MQTT: PUBACK</text>		</g>
		<g id="shape141-303" transform="translate(102.069,-62.2356)">
			<title>Dynamic connector.119</title>
			<path d="M6.68 590.16 L7.04 590.16 L313.8 589.53" class="st11"/>
		</g>
		<g id="shape142-308" transform="translate(112.578,-70.1099)">
			<title>Sheet.142</title>
			<desc>MQTT: PUBLISH</desc>
			<rect x="0" y="587.582" width="187.044" height="9.35433" class="st4"/>
			<text x="62.85" y="594.66" class="st10">MQTT: PUBLISH</text>		</g>
		<g id="shape143-311" transform="translate(94.6987,-26.4799)">
			<title>Rectangle.124</title>
			<rect x="0" y="554.417" width="7.37008" height="42.5197" class="st2"/>
		</g>
		<g id="shape144-313" transform="translate(315.801,-26.4799)">
			<title>Rectangle.125</title>
			<rect x="0" y="554.417" width="7.37008" height="42.5197" class="st2"/>
		</g>
		<g id="group145-315" transform="translate(-168.742,560.535) rotate(-90)">
			<title>Folded Corner.121</title>
			<g id="shape145-316">
				<path d="M0 596.94 L21.66 596.94 L25.51 593.26 L25.51 260.47 L0 260.47 L0 596.94 Z" class="st6"/>
			</g>
			<g id="shape146-318" transform="translate(21.6609,0)">
				<title>Sheet.146</title>
				<path d="M0 596.94 L3.85 593.26 L0.18 593.09 L0 596.94 Z" class="st7"/>
			</g>
		</g>
		<g id="shape147-320" transform="translate(95.8023,-39.7901)">
			<title>Sheet.147</title>
			<desc>$aws/things/&#60;thingName&#62;/jobs/&#60;jobId&#62;/update/accepted</desc>
			<rect x="0" y="575.733" width="285.643" height="21.2037" class="st20"/>
			<text x="30.49" y="589.03" class="st5">$aws/things/&#60;thingName&#62;/jobs/&#60;jobId&#62;/update/accepted</text>		</g>
		<g id="shape148-323" transform="translate(102.069,-19.3933)">
			<title>Dynamic connector.126</title>
			<path d="M0 589.85 L206.69 589.85" class="st8"/>
		</g>
		<g id="shape149-328" transform="translate(164.431,-28.5553)">
			<title>Sheet.149</title>
			<desc>MQTT: PUBACK</desc>
			<rect x="0" y="591.018" width="81.3543" height="5.91902" class="st21"/>
			<text x="10.68" y="596.38" class="st10">MQTT: PUBACK</text>		</g>
		<g id="group150-332" transform="translate(-522.236,588.85) rotate(-90)">
			<title>Folded Corner.128</title>
			<g id="shape150-333">
				<path d="M0 596.94 L9.27 596.94 L17.01 591.05 L17.01 523.24 L0 523.24 L0 596.94 Z" class="st6"/>
			</g>
			<g id="shape151-335" transform="translate(9.27442,0)">
				<title>Sheet.151</title>
				<path d="M0 596.94 L7.73 591.05 L2.06 589.48 L0 596.94 Z" class="st7"/>
			</g>
		</g>
		<g id="shape152-337" transform="translate(1,-1)">
			<title>Sheet.152</title>
			<desc>Device reboots</desc>
			<rect x="0" y="565.756" width="73.7008" height="31.1811" class="st4"/>
			<text x="6.84" y="584.05" class="st5">Device reboots</text>		</g>
		<g id="shape153-340" transform="translate(100.227,-11.7007)">
			<title>Dynamic connector.131</title>
			<path d="M0 589.89 L-25.53 589.81" class="st15"/>
		</g>
		<g id="shape154-343" transform="translate(102.069,-135.09)">
			<title>Dynamic connector.154</title>
			<path d="M0 603.84 L206.69 604.2" class="st8"/>
		</g>
	</g>
</svg>
