<?xml version="1.0" encoding="UTF-8" standalone="no"?>
<!DOCTYPE svg PUBLIC "-//W3C//DTD SVG 1.1//EN" "http://www.w3.org/Graphics/SVG/1.1/DTD/svg11.dtd">
<!-- Generated by Microsoft Visio, SVG Export nrf54h20_arm_to_vpr.svg Page-1 -->
<svg xmlns="http://www.w3.org/2000/svg" xmlns:xlink="http://www.w3.org/1999/xlink" xmlns:ev="http://www.w3.org/2001/xml-events"
		width="4.53565in" height="3.0514in" viewBox="0 0 326.567 219.701" xml:space="preserve" color-interpolation-filters="sRGB"
		class="st12">
	<style type="text/css">
	<![CDATA[
		.st1 {fill:#0077c8;stroke:none;stroke-width:1}
		.st2 {fill:#ffffff;font-family:Arial;font-size:0.916672em}
		.st3 {fill:#00a9ce;stroke:none;stroke-width:1}
		.st4 {fill:#6ad1e3;stroke:none;stroke-width:1}
		.st5 {font-size:1em}
		.st6 {stroke:#d0df00;stroke-linecap:butt;stroke-width:3}
		.st7 {marker-end:url(#mrkr4-39);stroke:#f58220;stroke-linecap:butt;stroke-width:1}
		.st8 {fill:#f58220;fill-opacity:1;stroke:#f58220;stroke-opacity:1;stroke-width:0.28409090909091}
		.st9 {fill:none;stroke:#000000;stroke-width:1}
		.st10 {fill:none;stroke:none;stroke-width:1}
		.st11 {fill:#000000;font-family:Arial;font-size:0.75em}
		.st12 {fill:none;fill-rule:evenodd;font-size:12px;overflow:visible;stroke-linecap:square;stroke-miterlimit:3}
	]]>
	</style>

	<defs id="Markers">
		<g id="lend4">
			<path d="M 2 1 L 0 0 L 2 -1 L 2 1 " style="stroke:none"/>
		</g>
		<marker id="mrkr4-39" class="st8" refX="-7.04" orient="auto" markerUnits="strokeWidth" overflow="visible">
			<use xlink:href="#lend4" transform="scale(-3.52,-3.52) "/>
		</marker>
	</defs>
	<g>
		<title>Page-1</title>
		<g id="shape8-1" transform="translate(1,-52.1653)">
			<title>Nordic Lake.9</title>
			<desc>Global Domain</desc>
			<rect x="0" y="119.071" width="324.567" height="100.63" class="st1"/>
			<text x="125.9" y="212.4" class="st2">Global Domain</text>		</g>
		<g id="shape1001-4" transform="translate(196.926,-73.2052)">
			<title>Nordic Blue.1001</title>
			<desc>PPR</desc>
			<rect x="0" y="152.696" width="114.803" height="67.0052" class="st3"/>
			<text x="46.09" y="212.4" class="st2">PPR</text>		</g>
		<g id="shape5-7" transform="translate(28.6378,-181.068)">
			<title>Nordic Lake</title>
			<desc>Application Core</desc>
			<rect x="0" y="182.068" width="96.378" height="37.6324" class="st1"/>
			<text x="7.83" y="204.18" class="st2">Application Core</text>		</g>
		<g id="shape9-10" transform="translate(14.4646,-73.2052)">
			<title>Nordic Sky</title>
			<desc>RAM shared buffers</desc>
			<rect x="0" y="152.696" width="62.3622" height="67.0052" class="st4"/>
			<text x="18.96" y="176.3" class="st2">RAM <tspan x="14.36" dy="1.2em" class="st5">shared </tspan><tspan x="14.37"
						dy="1.2em" class="st5">buffers</tspan></text>		</g>
		<g id="shape10-15" transform="translate(85.3307,-73.1727)">
			<title>Nordic Blue</title>
			<desc>Peripherals</desc>
			<rect x="0" y="152.696" width="102.047" height="67.0052" class="st3"/>
			<text x="23.2" y="212.4" class="st2">Peripherals</text>		</g>
		<g id="shape11-18" transform="translate(91,-93.5854)">
			<title>Nordic Sky.11</title>
			<desc>BELLBOARD Application Core</desc>
			<rect x="0" y="182.068" width="90.7087" height="37.6324" class="st4"/>
			<text x="12.34" y="197.58" class="st2">BELLBOARD <tspan x="5" dy="1.2em" class="st5">Application Core</tspan></text>		</g>
		<g id="shape13-22" transform="translate(202.968,-93.5854)">
			<title>Nordic Sky.14</title>
			<desc>VEVIF</desc>
			<rect x="0" y="182.068" width="45.3543" height="37.6324" class="st4"/>
			<text x="6.78" y="204.18" class="st2">VEVIF</text>		</g>
		<g id="shape14-25" transform="translate(76.8268,-181.068)">
			<title>Dynamic connector</title>
			<path d="M0 219.7 L0 237.06 L33.92 237.06 A2.3622 2.3622 0 1 1 38.65 237.06 L150.52 237.06 L150.52 269.55" class="st6"/>
		</g>
		<g id="shape18-28" transform="translate(129.268,-131.218)">
			<title>Dynamic connector.18</title>
			<path d="M7.09 219.7 L7.09 187.21" class="st6"/>
		</g>
		<g id="shape19-31" transform="translate(45.6457,-140.21)">
			<title>Dynamic connector.19</title>
			<path d="M0 219.7 L0 196.08 L31.18 196.08" class="st6"/>
		</g>
		<g id="shape21-34" transform="translate(247.614,-119.479)">
			<title>Dynamic connector.21</title>
			<path d="M0.71 226.79 L6.42 226.79" class="st7"/>
		</g>
		<g id="shape23-40" transform="translate(120.197,-131.218)">
			<title>Dynamic connector.25</title>
			<path d="M-7.09 219.7 L-7.09 176.89" class="st7"/>
		</g>
		<g id="shape25-45" transform="translate(8.22835,-1)">
			<title>Nordic Blue.27</title>
			<rect x="0" y="176.79" width="90.7087" height="42.9107" class="st9"/>
		</g>
		<g id="shape26-47" transform="translate(13.465,-26.5118)">
			<title>Dynamic connector.28</title>
			<path d="M0 212.61 L22.98 212.61" class="st6"/>
		</g>
		<g id="shape27-50" transform="translate(14.829,-3.83465)">
			<title>Dynamic connector.29</title>
			<path d="M0 212.61 L14.42 212.61" class="st7"/>
		</g>
		<g id="shape28-55" transform="translate(37.2835,-4.54331)">
			<title>Sheet.28</title>
			<desc>BUS system IRQ system</desc>
			<rect x="0" y="184.268" width="58.252" height="35.4331" class="st10"/>
			<text x="4" y="193.88" class="st11">BUS system  <tspan x="4" dy="2.4em" class="st5">IRQ system</tspan></text>		</g>
		<g id="shape1000-59" transform="translate(261.079,-93.5854)">
			<title>Nordic Sky.1000</title>
			<desc>VPR core</desc>
			<rect x="0" y="182.068" width="45.3543" height="37.6324" class="st4"/>
			<text x="11.37" y="197.58" class="st2">VPR <tspan x="11.98" dy="1.2em" class="st5">core</tspan></text>		</g>
		<g id="shape1002-63" transform="translate(285.457,-131.218)">
			<title>Dynamic connector.1002</title>
			<path d="M0 219.7 L0 187.21 L-58.11 187.21" class="st6"/>
		</g>
	</g>
</svg>
