<?xml version="1.0" encoding="UTF-8" standalone="no"?>
<!DOCTYPE svg PUBLIC "-//W3C//DTD SVG 1.1//EN" "http://www.w3.org/Graphics/SVG/1.1/DTD/svg11.dtd">
<!-- Generated by Microsoft Visio, SVG Export psa_want_use_need_flow.svg Page-1 -->
<svg xmlns="http://www.w3.org/2000/svg" xmlns:xlink="http://www.w3.org/1999/xlink" xmlns:ev="http://www.w3.org/2001/xml-events"
		width="7.44904in" height="3.81754in" viewBox="0 0 536.331 274.863" xml:space="preserve" color-interpolation-filters="sRGB"
		class="st9">
	<style type="text/css">
	<![CDATA[
		.st1 {fill:#00a2c6;stroke:none;stroke-width:1}
		.st2 {fill:#ffffff;font-family:Arial;font-size:0.916672em}
		.st3 {font-size:1em}
		.st4 {fill:none;stroke:none;stroke-width:1}
		.st5 {fill:#00a9ce;font-family:Arial;font-size:0.916672em}
		.st6 {marker-end:url(#mrkr5-45);stroke:#008bab;stroke-linecap:butt;stroke-width:1}
		.st7 {fill:#008bab;fill-opacity:1;stroke:#008bab;stroke-opacity:1;stroke-width:0.28409090909091}
		.st8 {stroke:#333f48;stroke-dasharray:8,4;stroke-linecap:butt;stroke-width:1}
		.st9 {fill:none;fill-rule:evenodd;font-size:12px;overflow:visible;stroke-linecap:square;stroke-miterlimit:3}
	]]>
	</style>

	<defs id="Markers">
		<g id="lend5">
			<path d="M 2 1 L 0 0 L 1.98117 -0.993387 C 1.67173 -0.364515 1.67301 0.372641 1.98465 1.00043 " style="stroke:none"/>
		</g>
		<marker id="mrkr5-45" class="st7" refX="-6.16" orient="auto" markerUnits="strokeWidth" overflow="visible">
			<use xlink:href="#lend5" transform="scale(-3.52,-3.52) "/>
		</marker>
	</defs>
	<g>
		<title>Page-1</title>
		<g id="shape340-1" transform="translate(1,-226.546)">
			<title>Nordic Blue.78</title>
			<desc>CONFIG_PSA_WANT_*</desc>
			<rect x="0" y="260.69" width="138.256" height="14.1732" class="st1"/>
			<text x="9.23" y="271.08" class="st2">CONFIG_PSA_WANT_*</text>		</g>
		<g id="shape341-4" transform="translate(1,-192.339)">
			<title>Nordic Blue.79</title>
			<desc>CONFIG_PSA_USE_*</desc>
			<rect x="0" y="260.69" width="138.256" height="14.1732" class="st1"/>
			<text x="14.11" y="271.08" class="st2">CONFIG_PSA_USE_*</text>		</g>
		<g id="shape342-7" transform="translate(419.11,-66.8773)">
			<title>Nordic Blue.80</title>
			<desc>Runtime driver selection and fallback</desc>
			<rect x="0" y="244.362" width="116.22" height="30.5006" class="st1"/>
			<text x="22.35" y="256.31" class="st2">Runtime driver <tspan x="5.52" dy="1.2em" class="st3">selection and fallback</tspan></text>		</g>
		<g id="shape344-11" transform="translate(19.746,-239.546)">
			<title>Sheet.344</title>
			<desc>User Kconfig selection</desc>
			<rect x="0" y="241.719" width="107.717" height="33.1436" class="st4"/>
			<text x="22.37" y="254.99" class="st5">User Kconfig <tspan x="32.15" dy="1.2em" class="st3">selection</tspan></text>		</g>
		<g id="shape346-15" transform="translate(216.433,-240.719)">
			<title>Sheet.346</title>
			<desc>Driver wrapper at compile time</desc>
			<rect x="0" y="241.719" width="107.717" height="33.1436" class="st4"/>
			<text x="17.79" y="254.99" class="st5">Driver wrapper <tspan x="16.87" dy="1.2em" class="st3">at compile time</tspan></text>		</g>
		<g id="shape347-19" transform="translate(419.11,-239.11)">
			<title>Sheet.347</title>
			<desc>Driver wrapper at runtime</desc>
			<rect x="0" y="241.719" width="107.717" height="33.1436" class="st4"/>
			<text x="17.79" y="254.99" class="st5">Driver wrapper <tspan x="29.4" dy="1.2em" class="st3">at runtime</tspan></text>		</g>
		<g id="shape348-23" transform="translate(293.61,-163.992)">
			<title>Nordic Blue.348</title>
			<desc>PSA_WANT_*</desc>
			<rect x="0" y="260.69" width="90.7087" height="14.1732" class="st1"/>
			<text x="9.9" y="271.08" class="st2">PSA_WANT_*</text>		</g>
		<g id="shape349-26" transform="translate(159.74,-163.992)">
			<title>Nordic Blue.349</title>
			<desc>PSA_USE_*</desc>
			<rect x="0" y="260.69" width="90.7087" height="14.1732" class="st1"/>
			<text x="14.78" y="271.08" class="st2">PSA_USE_*</text>		</g>
		<g id="shape350-29" transform="translate(222.102,-127.334)">
			<title>Nordic Blue.350</title>
			<desc>PSA_NEED_*</desc>
			<rect x="0" y="260.69" width="90.7087" height="14.1732" class="st1"/>
			<text x="10.81" y="271.08" class="st2">PSA_NEED_*</text>		</g>
		<g id="shape351-32" transform="translate(222.102,-66.8773)">
			<title>Nordic Blue.351</title>
			<desc>Driver selection for compilation</desc>
			<rect x="0" y="244.362" width="90.7087" height="30.5006" class="st1"/>
			<text x="7.45" y="256.31" class="st2">Driver selection <tspan x="9.59" dy="1.2em" class="st3">for compilation</tspan></text>		</g>
		<g id="shape352-36" transform="translate(419.11,-9.94707)">
			<title>Nordic Blue.352</title>
			<desc>Cryptographic operation execution</desc>
			<rect x="0" y="244.362" width="116.22" height="30.5006" class="st1"/>
			<text x="23.87" y="256.31" class="st2">Cryptographic <tspan x="10.1" dy="1.2em" class="st3">operation execution</tspan></text>		</g>
		<g id="shape354-40" transform="translate(139.256,-233.633)">
			<title>Dynamic connector.354</title>
			<path d="M0 274.86 L199.71 274.86 L199.71 324.17" class="st6"/>
		</g>
		<g id="shape355-46" transform="translate(139.256,-199.425)">
			<title>Dynamic connector.355</title>
			<path d="M0 274.86 L65.84 274.86 L65.84 289.96" class="st6"/>
		</g>
		<g id="shape356-51" transform="translate(338.964,-163.992)">
			<title>Dynamic connector.356</title>
			<path d="M0 274.86 L0 304.43 L-19.99 304.43" class="st6"/>
		</g>
		<g id="shape357-56" transform="translate(205.094,-163.992)">
			<title>Dynamic connector.357</title>
			<path d="M0 274.86 L0 304.43 L10.85 304.43" class="st6"/>
		</g>
		<g id="shape358-61" transform="translate(260.37,-127.334)">
			<title>Dynamic connector.358</title>
			<path d="M7.09 274.86 L7.09 298.66" class="st6"/>
		</g>
		<g id="shape359-66" transform="translate(312.811,-75.041)">
			<title>Dynamic connector.359</title>
			<path d="M0 267.78 L100.14 267.78" class="st6"/>
		</g>
		<g id="shape360-71" transform="translate(450.291,-66.8773)">
			<title>Dynamic connector.360</title>
			<path d="M7.09 274.86 L7.09 295.13" class="st6"/>
		</g>
		<g id="shape361-76" transform="translate(499.898,-40.4477)">
			<title>Dynamic connector.361</title>
			<path d="M7.09 274.86 L7.09 254.59" class="st6"/>
		</g>
		<g id="shape362-81" transform="translate(423.265,7.40623) rotate(90)">
			<title>Sheet.362</title>
			<path d="M0 274.86 L260.79 274.86" class="st8"/>
		</g>
		<g id="shape363-84" transform="translate(667.044,7.40623) rotate(90)">
			<title>Sheet.363</title>
			<path d="M0 274.86 L266.46 274.86" class="st8"/>
		</g>
	</g>
</svg>
