<?xml version="1.0" encoding="UTF-8" standalone="no"?>
<!DOCTYPE svg PUBLIC "-//W3C//DTD SVG 1.1//EN" "http://www.w3.org/Graphics/SVG/1.1/DTD/svg11.dtd">
<!-- Generated by Microsoft Visio, SVG Export Architecture_With_RTOS.svg Page-1 -->
<svg xmlns="http://www.w3.org/2000/svg" xmlns:xlink="http://www.w3.org/1999/xlink" xmlns:ev="http://www.w3.org/2001/xml-events"
		width="7.26893in" height="6.84716in" viewBox="0 0 523.363 492.995" xml:space="preserve" color-interpolation-filters="sRGB"
		class="st21">
	<style type="text/css">
	<![CDATA[
		.st1 {fill:#00a9ce;stroke:none;stroke-linecap:round;stroke-linejoin:round;stroke-width:0.75}
		.st2 {fill:#768692;stroke:none;stroke-linecap:round;stroke-linejoin:round;stroke-width:0.75}
		.st3 {fill:#ffffff;font-family:Calibri;font-size:1.16666em}
		.st4 {fill:none;stroke:none;stroke-linecap:butt;stroke-width:0.75}
		.st5 {fill:#feffff;font-family:Calibri;font-size:1.00001em}
		.st6 {fill:#0033a0;stroke:none;stroke-linecap:round;stroke-linejoin:round;stroke-width:0.8545}
		.st7 {fill:#ffffff;font-family:Calibri;font-size:1.00001em}
		.st8 {fill:none;stroke:#000000;stroke-dasharray:2.99925,2.99925;stroke-width:0.999749}
		.st9 {fill:#0077c8;stroke:none;stroke-linecap:round;stroke-linejoin:round;stroke-width:0.75}
		.st10 {font-size:1em}
		.st11 {fill:#6ad1e3;stroke:none;stroke-linecap:round;stroke-linejoin:round;stroke-width:0.75}
		.st12 {fill:#333f48;font-family:Calibri;font-size:1.00001em}
		.st13 {marker-end:url(#mrkr4-62);marker-start:url(#mrkr4-60);stroke:#000000;stroke-linecap:round;stroke-linejoin:round;stroke-width:1}
		.st14 {fill:#000000;fill-opacity:1;stroke:#000000;stroke-opacity:1;stroke-width:0.28409090909091}
		.st15 {fill:none;stroke:none;stroke-linecap:round;stroke-linejoin:round;stroke-width:0.75}
		.st16 {fill:#000000;font-family:Calibri;font-size:1.16666em}
		.st17 {fill:none}
		.st18 {stroke:#000000;stroke-dasharray:0,5.25;stroke-linecap:round;stroke-linejoin:round;stroke-width:1.75}
		.st19 {fill:none;stroke:none;stroke-width:0.25}
		.st20 {fill:#000000;font-family:Calibri;font-size:1.00001em}
		.st21 {fill:none;fill-rule:evenodd;font-size:12px;overflow:visible;stroke-linecap:square;stroke-miterlimit:3}
	]]>
	</style>

	<defs id="Markers">
		<g id="lend4">
			<path d="M 2 1 L 0 0 L 2 -1 L 2 1 " style="stroke:none"/>
		</g>
		<marker id="mrkr4-60" class="st14" refX="6.68" orient="auto" markerUnits="strokeWidth" overflow="visible">
			<use xlink:href="#lend4" transform="scale(3.52) "/>
		</marker>
		<marker id="mrkr4-62" class="st14" refX="-7.04" orient="auto" markerUnits="strokeWidth" overflow="visible">
			<use xlink:href="#lend4" transform="scale(-3.52,-3.52) "/>
		</marker>
	</defs>
	<g>
		<title>Page-1</title>
		<g id="group1099-1" transform="translate(0.500984,-49.7395)">
			<title>Sheet.1099</title>
			<g id="shape1100-2">
				<title>path5433</title>
				<rect x="0" y="472.445" width="322.677" height="20.5503" class="st1"/>
			</g>
		</g>
		<g id="group1101-4" transform="translate(0.375,-49.9124)">
			<title>Sheet.1101</title>
			<g id="shape1102-5">
				<title>path5443</title>
				<rect x="0" y="113.549" width="14.0741" height="379.446" class="st1"/>
			</g>
		</g>
		<g id="group1103-7" transform="translate(0.500984,-0.375)">
			<title>Sheet.1103</title>
			<desc>Hardware peripherals</desc>
			<g id="group1104-8">
				<title>Sheet.1104</title>
				<g id="shape1105-9">
					<title>path5489</title>
					<rect x="0" y="469.881" width="522.487" height="23.1143" class="st2"/>
				</g>
			</g>
			<g id="shape1103-11">
				<text x="199.36" y="485.64" class="st3">Hardware peripherals</text>			</g>
		</g>
		<g id="shape1106-13" transform="translate(217.896,-156.173)">
			<title>text5361-1</title>
			<desc>Multiprotocol</desc>
			<rect x="0" y="479.898" width="141.934" height="13.0973" class="st4"/>
			<text x="-0" y="490.05" class="st5">Multiprotocol</text>		</g>
		<g id="shape1108-16" transform="translate(0.419501,-428.696)">
			<title>path5433.1108</title>
			<desc>Application</desc>
			<rect x="0" y="429.071" width="520.572" height="63.9245" class="st1"/>
			<text x="228.03" y="465.23" class="st3">Application</text>		</g>
		<g id="group1109-19" transform="translate(363.76,-266.043)">
			<title>Sheet.1109</title>
			<desc>Stack 1</desc>
			<g id="shape1110-20">
				<title>path4906-7</title>
				<rect x="0" y="395.403" width="48.796" height="97.5919" class="st6"/>
			</g>
			<g id="shape1109-22">
				<text x="7.1" y="447.8" class="st7">Stack 1</text>			</g>
		</g>
		<g id="shape1111-24" transform="translate(136.045,-205.044)">
			<title>text6390-8-1</title>
			<desc>SoC API</desc>
			<rect x="0" y="473.466" width="113.923" height="19.5296" class="st4"/>
			<text x="-0" y="486.83" class="st7">SoC API</text>		</g>
		<g id="shape1112-27" transform="translate(193.756,-95.2604)">
			<title>rect7120-2</title>
			<path d="M0 493 L267.59 493 L267.59 365.58 L0 365.58 L0 493 Z" class="st8"/>
		</g>
		<g id="group1113-29" transform="translate(453.506,-266.043)">
			<title>Sheet.1113</title>
			<desc>Stack N</desc>
			<g id="shape1114-30">
				<title>path4906-7</title>
				<rect x="0" y="395.403" width="53.6443" height="97.5919" class="st6"/>
			</g>
			<g id="shape1113-32">
				<text x="8.69" y="447.8" class="st7">Stack N</text>			</g>
		</g>
		<g id="group1115-34" transform="translate(277.011,-103.389)">
			<title>Sheet.1115</title>
			<desc>Radio scheduler</desc>
			<g id="shape1116-35">
				<title>path5433</title>
				<rect x="0" y="452.332" width="173.497" height="40.6633" class="st9"/>
			</g>
			<g id="shape1115-37">
				<text x="47.79" y="476.26" class="st7">Radio scheduler</text>			</g>
		</g>
		<g id="group1117-39" transform="translate(363.76,-152.185)">
			<title>Sheet.1117</title>
			<desc>Multiprotocol API</desc>
			<g id="shape1118-40">
				<title>path5433</title>
				<rect x="0" y="452.332" width="87.7127" height="40.6633" class="st9"/>
			</g>
			<g id="shape1117-42">
				<text x="10.15" y="469.06" class="st7">Multiprotocol<tspan x="35.77" dy="1.2em" class="st10">API</tspan></text>			</g>
		</g>
		<g id="shape1119-45" transform="translate(199.178,-100.679)">
			<title>path5433</title>
			<rect x="0" y="422.512" width="66.99" height="70.4831" class="st9"/>
		</g>
		<g id="group1120-47" transform="translate(114.358,-331.104)">
			<title>Sheet.1120</title>
			<desc>&#60;RTOS&#62; drivers</desc>
			<g id="shape1121-48">
				<title>path5433</title>
				<rect x="0" y="433.356" width="184.34" height="59.6395" class="st11"/>
			</g>
			<g id="shape1120-50">
				<text x="55.17" y="466.78" class="st12">&#60;RTOS&#62; drivers</text>			</g>
		</g>
		<g id="shape1122-52" transform="translate(114.358,-97.9676)">
			<title>path5433.232</title>
			<rect x="0" y="238.172" width="65.0613" height="254.823" class="st11"/>
		</g>
		<g id="shape1123-54" transform="translate(161.84,-23.4903)">
			<title>Dynamic connector.106</title>
			<path d="M0 473.42 L0 473.78 L0 476.6 L0 477.03 L0 482.71 L0 485.96" class="st13"/>
		</g>
		<g id="shape1124-63" transform="translate(417.34,-23.4881)">
			<title>Dynamic connector.234</title>
			<path d="M0 427.9 L0 428.26 L0 431.08 L0 431.51 L0 482.71 L0 485.96" class="st13"/>
		</g>
		<g id="shape1125-70" transform="translate(290.566,-70.2841)">
			<title>Dynamic connector.236</title>
			<path d="M0 474.7 L0 475.06 L0 477.87 L0 478.31 L0 482.71 L0 485.96" class="st13"/>
		</g>
		<g id="group1126-77" transform="translate(200.203,-257.91)">
			<title>Sheet.1126</title>
			<desc>Driver adaptation layer</desc>
			<g id="shape1127-78">
				<title>path5433</title>
				<rect x="0" y="452.332" width="98.4955" height="40.6633" class="st11"/>
			</g>
			<g id="shape1126-80">
				<text x="6.3" y="469.06" class="st12">Driver adaptation<tspan x="37.2" dy="1.2em" class="st10">layer</tspan></text>			</g>
		</g>
		<g id="shape1128-83" transform="translate(249.451,-222.672)">
			<title>Dynamic connector.239</title>
			<path d="M0 464.43 L0 464.79 L0 467.61 L0 468.04 L0 482.71 L0 485.96" class="st13"/>
		</g>
		<g id="shape1129-90" transform="translate(249.451,-298.577)">
			<title>Dynamic connector.241</title>
			<path d="M0 467.14 L0 467.5 L0 470.32 L0 470.75 L0 482.71 L0 485.96" class="st13"/>
		</g>
		<g id="shape1130-97" transform="translate(325.807,-222.672)">
			<title>Dynamic connector.242</title>
			<path d="M0 293.65 L0 294.01 L0 296.82 L0 297.26 L0 482.71 L0 485.96" class="st13"/>
		</g>
		<g id="shape1131-104" transform="translate(352.916,-255.203)">
			<title>rect7120-2.285</title>
			<path d="M0 493 L162.65 493 L162.65 357.45 L0 357.45 L0 493 Z" class="st8"/>
		</g>
		<g id="shape1132-106" transform="translate(434.243,-390.747)">
			<title>Dynamic connector.287</title>
			<path d="M0 461.72 L0 462.08 L0 464.9 L0 465.33 L0 482.71 L0 485.96" class="st13"/>
		</g>
		<g id="shape1133-113" transform="translate(27.6099,-97.9676)">
			<title>path5433.288</title>
			<desc>&#60;RTOS&#62; Kernel</desc>
			<rect x="0" y="200.22" width="65.0613" height="292.776" class="st11"/>
			<text x="13.64" y="343.01" class="st12">&#60;RTOS&#62;<tspan x="17.21" dy="1.2em" class="st10">kernel</tspan></text>		</g>
		<g id="shape1134-117" transform="translate(146.889,-70.2841)">
			<title>Dynamic connector.289</title>
			<path d="M0 471.99 L0 472.35 L0 475.16 L0 475.6 L0 482.71 L0 485.96" class="st13"/>
		</g>
		<g id="shape1135-124" transform="translate(60.1405,-70.2841)">
			<title>Dynamic connector.290</title>
			<path d="M0 471.99 L0 472.35 L0 475.16 L0 475.6 L0 482.71 L0 485.96" class="st13"/>
		</g>
		<g id="shape1136-131" transform="translate(206.528,-390.747)">
			<title>Dynamic connector.291</title>
			<path d="M0 461.72 L0 462.08 L0 464.9 L0 465.33 L0 482.71 L0 485.96" class="st13"/>
		</g>
		<g id="shape1137-138" transform="translate(62.8514,-390.747)">
			<title>Dynamic connector.292</title>
			<path d="M0 461.72 L0 462.08 L0 464.9 L0 465.33 L0 482.71 L0 485.96" class="st13"/>
		</g>
		<g id="shape1138-145" transform="translate(420.688,-222.672)">
			<title>Dynamic connector.293</title>
			<path d="M0 486.32 L0 485.96 L0 483.14 L0 482.71 L0 470.75 L0 467.5" class="st13"/>
		</g>
		<g id="shape1139-152" transform="translate(298.699,-200.981)">
			<title>Sheet.1139</title>
			<desc>MPSL</desc>
			<rect x="0" y="482.152" width="65.0613" height="10.8435" class="st15"/>
			<text x="16.77" y="491.77" class="st16">MPSL</text>		</g>
		<g id="shape1140-155" transform="translate(377.314,-366.345)">
			<title>Sheet.1140</title>
			<desc>Protocol stacks</desc>
			<rect x="0" y="471.308" width="113.857" height="21.6871" class="st15"/>
			<text x="13.99" y="486.35" class="st16">Protocol stacks</text>		</g>
		<g id="shape1141-158" transform="translate(423.399,-314.842)">
			<title>Dynamic connector.298</title>
			<path d="M0 493 L24.4 493 L0 493 Z" class="st17"/>
			<path d="M0 493 L24.4 493" class="st18"/>
		</g>
		<g id="group1142-161" transform="translate(199.074,-152.185)">
			<title>Sheet.1142</title>
			<desc>SoC API</desc>
			<g id="shape1143-162">
				<title>path5433</title>
				<rect x="0" y="452.332" width="153.842" height="40.6633" class="st9"/>
			</g>
			<g id="shape1142-164">
				<text x="58.36" y="476.26" class="st7">SoC API</text>			</g>
		</g>
		<g id="shape1144-166" transform="translate(494.402,-23.4937)">
			<title>Dynamic connector.301</title>
			<path d="M0 486.32 L0 485.96 L0 483.14 L0 482.71 L0 271.58 L0 268.33" class="st13"/>
		</g>
		<g id="shape1147-173" transform="translate(196.752,-72.8105)">
			<title>rect5013</title>
			<rect x="0" y="475.213" width="47.4147" height="17.7827" class="st19"/>
		</g>
		<g id="shape1148-175" transform="translate(200.8,-74.4777)">
			<title>text5015</title>
			<desc>IRQ Forwarding</desc>
			<rect x="0" y="478.537" width="87.0545" height="14.4581" class="st4"/>
			<text x="-0" y="489.37" class="st20">IRQ forwarding</text>		</g>
	</g>
</svg>
