<?xml version="1.0" encoding="UTF-8" standalone="no"?>
<!DOCTYPE svg PUBLIC "-//W3C//DTD SVG 1.1//EN" "http://www.w3.org/Graphics/SVG/1.1/DTD/svg11.dtd">
<!-- Generated by Microsoft Visio, SVG Export cx_3w_timing_param2.svg Page-1 -->
<svg xmlns="http://www.w3.org/2000/svg" xmlns:xlink="http://www.w3.org/1999/xlink" xmlns:ev="http://www.w3.org/2001/xml-events"
		width="4.63738in" height="2.51752in" viewBox="0 0 333.892 181.261" xml:space="preserve" color-interpolation-filters="sRGB"
		class="st14">
	<style type="text/css">
	<![CDATA[
		.st1 {stroke:#768692;stroke-dasharray:4,2;stroke-linecap:butt;stroke-width:1}
		.st2 {fill:none;stroke:none;stroke-width:0.75}
		.st3 {fill:#000000;font-family:Calibri;font-size:1.00001em}
		.st4 {marker-end:url(#mrkr4-36);marker-start:url(#mrkr4-34);stroke:#000000;stroke-width:1}
		.st5 {fill:#000000;fill-opacity:1;stroke:#000000;stroke-opacity:1;stroke-width:0.28409090909091}
		.st6 {fill:#000000;font-family:Calibri;font-size:0.833336em}
		.st7 {fill:none;stroke:none;stroke-linecap:butt;stroke-width:0.75}
		.st8 {fill:#000000}
		.st9 {stroke:#feffff;stroke-width:0.75}
		.st10 {baseline-shift:-32.4941%;font-size:0.649882em}
		.st11 {fill:#00a9ce;stroke:none;stroke-width:1}
		.st12 {fill:#ffffff;font-family:Calibri;font-size:1.00001em}
		.st13 {stroke:#000000;stroke-width:1}
		.st14 {fill:none;fill-rule:evenodd;font-size:12px;overflow:visible;stroke-linecap:square;stroke-miterlimit:3}
	]]>
	</style>

	<defs id="Markers">
		<g id="lend4">
			<path d="M 2 1 L 0 0 L 2 -1 L 2 1 " style="stroke:none"/>
		</g>
		<marker id="mrkr4-34" class="st5" refX="6.68" orient="auto" markerUnits="strokeWidth" overflow="visible">
			<use xlink:href="#lend4" transform="scale(3.52) "/>
		</marker>
		<marker id="mrkr4-36" class="st5" refX="-7.04" orient="auto" markerUnits="strokeWidth" overflow="visible">
			<use xlink:href="#lend4" transform="scale(-3.52,-3.52) "/>
		</marker>
	</defs>
	<g>
		<title>Page-1</title>
		<g id="shape1361-1" transform="translate(249.065,-118.894)">
			<title>Dynamic connector</title>
			<path d="M7.09 181.26 L7.09 286.13" class="st1"/>
		</g>
		<g id="shape1370-4" transform="translate(191.724,-140.147)">
			<title>Dynamic connector.1370</title>
			<path d="M7.09 181.26 L7.09 267.31" class="st1"/>
		</g>
		<g id="shape1392-7" transform="translate(303.413,-27.4232)">
			<title>Dynamic connector.1392</title>
			<path d="M7.09 181.26 L7.09 195.56" class="st1"/>
		</g>
		<g id="shape1362-10" transform="translate(155.816,-109.147)">
			<title>Dynamic connector.1362</title>
			<path d="M7.09 181.26 L7.09 237.21" class="st1"/>
		</g>
		<g id="shape1363-13" transform="translate(99.9921,-109.972)">
			<title>Dynamic connector.1363</title>
			<path d="M7.09 181.26 L7.09 237.21" class="st1"/>
		</g>
		<g id="shape1364-16" transform="translate(294.906,-139.395)">
			<title>Dynamic connector.1364</title>
			<path d="M7.09 181.26 L7.09 235.78" class="st1"/>
		</g>
		<g id="shape1313-19" transform="translate(13.5679,-28.8787)">
			<title>Sheet.1313</title>
			<desc>BLE_GRANT</desc>
			<rect x="0" y="171.937" width="73.9712" height="9.32445" class="st2"/>
			<text x="15.94" y="180.2" class="st3">BLE_GRANT</text>		</g>
		<g id="shape1314-22" transform="translate(0.75,-52.3763)">
			<title>Sheet.1314</title>
			<desc>BLE_PRIORITY</desc>
			<rect x="0" y="171.937" width="87.7142" height="9.32445" class="st2"/>
			<text x="19.39" y="180.2" class="st3">BLE_PRIORITY</text>		</g>
		<g id="shape1315-25" transform="translate(2.0876,-75.8739)">
			<title>Sheet.1315</title>
			<desc>BLE_REQUEST</desc>
			<rect x="0" y="171.937" width="87.7142" height="9.32445" class="st2"/>
			<text x="18.94" y="180.2" class="st3">BLE_REQUEST</text>		</g>
		<g id="shape1316-28" transform="translate(162.903,-104.217)">
			<title>Sheet.1316</title>
			<path d="M6.68 181.26 L7.04 181.26 L28.87 181.26" class="st4"/>
		</g>
		<g id="shape1317-37" transform="translate(107.079,-104.217)">
			<title>Sheet.1317</title>
			<path d="M6.68 181.26 L7.04 181.26 L48.78 181.26" class="st4"/>
		</g>
		<g id="shape1323-44" transform="translate(116.121,-55.794)">
			<title>Sheet.1323</title>
			<desc>PRIORITY</desc>
			<rect x="0" y="173.061" width="40.3897" height="8.20009" class="st2"/>
			<text x="-0" y="180.16" class="st6">PRIORITY</text>		</g>
		<g id="shape1324-47" transform="translate(220.355,-56.0139)">
			<title>Sheet.1324</title>
			<desc>TYPE</desc>
			<rect x="0" y="173.501" width="20.4063" height="7.76025" class="st2"/>
			<text x="-0" y="180.38" class="st6">TYPE</text>		</g>
		<g id="group1329-50" transform="translate(106.176,90.3293) rotate(-89.7202)">
			<title>Sheet.1329</title>
			<g id="shape1330-51">
				<title>Sheet.1330</title>
				<path d="M0 181.26 L48.19 181.26 L0 181.26 Z" class="st7"/>
			</g>
			<g id="shape1331-53">
				<title>Sheet.1331</title>
				<path d="M0 181.26 L48.19 181.26 L0 181.26 Z" class="st8"/>
				<path d="M0 181.26 L48.19 181.26" class="st9"/>
			</g>
		</g>
		<g id="group1338-56" transform="translate(19.676,128.065) rotate(-90)">
			<title>Sheet.1338</title>
			<g id="shape1339-57">
				<title>Sheet.1339</title>
				<path d="M0 181.26 L85.32 181.26 L0 181.26 Z" class="st7"/>
			</g>
			<g id="shape1340-59">
				<title>Sheet.1340</title>
				<path d="M0 181.26 L85.32 181.26 L0 181.26 Z" class="st8"/>
				<path d="M0 181.26 L85.32 181.26" class="st9"/>
			</g>
		</g>
		<g id="shape1344-62" transform="translate(256.152,-104.217)">
			<title>Sheet.1344</title>
			<path d="M6.68 181.26 L7.04 181.26 L38.8 181.26" class="st4"/>
		</g>
		<g id="shape1345-69" transform="translate(256.103,-120.829)">
			<title>Sheet.1345</title>
			<desc>tmax_radio_off_delay</desc>
			<rect x="0" y="166.081" width="57.2493" height="15.18" class="st2"/>
			<text x="-0.01" y="176.91" class="st3">t<tspan dy="-0.284em" class="st10">radio_off_delay</tspan></text>		</g>
		<g id="shape1346-73" transform="translate(172.166,-109.694)">
			<title>Sheet.1346</title>
			<desc>tradio</desc>
			<rect x="0" y="171.937" width="28.3464" height="9.32445" class="st2"/>
			<text x="-0" y="179.84" class="st3">t<tspan dy="-0.284em" class="st10">radio</tspan></text>		</g>
		<g id="shape1347-77" transform="translate(127.378,-109.89)">
			<title>Sheet.1347</title>
			<desc>ttype</desc>
			<rect x="0" y="171.937" width="28.3464" height="9.32445" class="st2"/>
			<text x="-0" y="179.84" class="st3">t<tspan dy="-0.284em" class="st10">type</tspan></text>		</g>
		<g id="shape1348-81" transform="translate(256.152,-19.6785)">
			<title>Sheet.1348</title>
			<path d="M6.68 181.26 L7.04 181.26 L47.31 181.26" class="st4"/>
		</g>
		<g id="shape1349-88" transform="translate(197.678,-0.75)">
			<title>Sheet.1349</title>
			<desc>tradio</desc>
			<rect x="0" y="166.081" width="124.724" height="15.18" class="st2"/>
			<text x="-0.01" y="176.91" class="st3">t<tspan dy="-0.284em" class="st10">max_BLE_GRANT_reactivation_delay</tspan></text>		</g>
		<g id="shape1359-92" transform="translate(198.811,-140.147)">
			<title>Nordic Blue</title>
			<desc>Radio activity</desc>
			<rect x="0" y="141.147" width="103.182" height="40.1142" class="st11"/>
			<text x="18.8" y="164.8" class="st12">Radio activity</text>		</g>
		<g id="shape1365-95" transform="translate(92.796,-75.8739)">
			<title>Sheet.1365</title>
			<path d="M0 181.26 L14.28 181.26" class="st13"/>
		</g>
		<g id="shape1366-98" transform="translate(-74.1825,105.387) rotate(-90)">
			<title>Sheet.1366</title>
			<path d="M0 181.26 L9.32 181.26" class="st13"/>
		</g>
		<g id="shape1367-101" transform="translate(107.079,-85.1984)">
			<title>Sheet.1367</title>
			<path d="M0 181.26 L194.91 181.26" class="st13"/>
		</g>
		<g id="shape1368-104" transform="translate(120.732,105.387) rotate(-90)">
			<title>Sheet.1368</title>
			<path d="M0 181.26 L9.32 181.26" class="st13"/>
		</g>
		<g id="shape1369-107" transform="translate(301.993,-75.8739)">
			<title>Sheet.1369</title>
			<path d="M0 181.26 L30.9 181.26" class="st13"/>
		</g>
		<g id="shape1371-110" transform="translate(92.796,-53.7531)">
			<title>Sheet.1371</title>
			<path d="M0 181.26 L66.21 181.26" class="st13"/>
		</g>
		<g id="shape1372-113" transform="translate(-67.4323,79.6407) rotate(-75)">
			<title>Sheet.1372</title>
			<path d="M0 181.26 L11.85 181.26" class="st13"/>
		</g>
		<g id="shape1373-116" transform="translate(110.938,-66.4361)">
			<title>Sheet.1373</title>
			<path d="M0 181.26 L47.62 181.26" class="st13"/>
		</g>
		<g id="shape1385-119" transform="translate(167.347,-53.7531)">
			<title>Sheet.1385</title>
			<path d="M0 181.26 L165.54 181.26" class="st13"/>
		</g>
		<g id="shape1386-122" transform="translate(166.78,-66.4502)">
			<title>Sheet.1386</title>
			<path d="M0 181.26 L143.72 181.26" class="st13"/>
		</g>
		<g id="shape1387-125" transform="translate(467.983,24.4969) rotate(60)">
			<title>Sheet.1387</title>
			<path d="M0 181.26 L14.2 181.26" class="st13"/>
		</g>
		<g id="shape1388-128" transform="translate(92.796,-36.6865)">
			<title>Sheet.1388</title>
			<path d="M0 181.26 L163.36 181.26" class="st13"/>
		</g>
		<g id="shape1389-131" transform="translate(256.152,-27.4232)">
			<title>Sheet.1389</title>
			<path d="M0 181.26 L54.35 181.26" class="st13"/>
		</g>
		<g id="shape1390-134" transform="translate(437.413,144.575) rotate(90)">
			<title>Sheet.1390</title>
			<path d="M0 181.26 L9.26 181.26" class="st13"/>
		</g>
		<g id="shape1391-137" transform="translate(491.761,144.575) rotate(90)">
			<title>Sheet.1391</title>
			<path d="M0 181.26 L9.26 181.26" class="st13"/>
		</g>
		<g id="shape1393-140" transform="translate(310.5,-36.6865)">
			<title>Sheet.1393</title>
			<path d="M0 181.26 L20.41 181.26" class="st13"/>
		</g>
		<g id="group1395-143" transform="translate(159.004,-54.2972)">
			<title>Sheet.1395</title>
			<g id="shape1374-144" transform="translate(-153.526,265.846) rotate(-120)">
				<title>Sheet.1374</title>
				<path d="M0 181.26 L6.89 181.26" class="st13"/>
			</g>
			<g id="shape1376-147" transform="translate(160.497,266.506) rotate(120)">
				<title>Sheet.1376</title>
				<path d="M0 181.26 L6.19 181.26" class="st13"/>
			</g>
		</g>
		<g id="group1397-150" transform="translate(166.78,296.776) rotate(180)">
			<title>Sheet.1397</title>
			<g id="shape1398-151" transform="translate(-153.526,265.846) rotate(-120)">
				<title>Sheet.1398</title>
				<path d="M0 181.26 L6.89 181.26" class="st13"/>
			</g>
			<g id="shape1399-154" transform="translate(160.497,266.506) rotate(120)">
				<title>Sheet.1399</title>
				<path d="M0 181.26 L6.79 181.26" class="st13"/>
			</g>
		</g>
	</g>
</svg>
