<?xml version="1.0" encoding="UTF-8" standalone="no"?>
<!DOCTYPE svg PUBLIC "-//W3C//DTD SVG 1.1//EN" "http://www.w3.org/Graphics/SVG/1.1/DTD/svg11.dtd">
<!-- Generated by Microsoft Visio, SVG Export FEM_sequence_nRF21540.svg Page-1 -->
<svg xmlns="http://www.w3.org/2000/svg" xmlns:xlink="http://www.w3.org/1999/xlink" xmlns:ev="http://www.w3.org/2001/xml-events"
		width="4.63375in" height="7.33623in" viewBox="0 0 333.63 528.208" xml:space="preserve" color-interpolation-filters="sRGB"
		class="st11">
	<style type="text/css">
	<![CDATA[
		.st1 {stroke:#000000;stroke-linecap:butt;stroke-width:1}
		.st2 {stroke:#000000;stroke-dasharray:1,4;stroke-linecap:butt;stroke-width:1}
		.st3 {fill:#00a9ce;stroke:none;stroke-linecap:butt;stroke-width:1.125}
		.st4 {fill:#ffffff;font-family:Calibri;font-size:1.00001em}
		.st5 {marker-end:url(#mrkr4-78);stroke:#000000;stroke-linecap:butt;stroke-width:1}
		.st6 {fill:#000000;fill-opacity:1;stroke:#000000;stroke-opacity:1;stroke-width:0.28409090909091}
		.st7 {fill:none;stroke:none;stroke-linecap:butt;stroke-width:0.75}
		.st8 {fill:#000000;font-family:Arial;font-size:0.833336em}
		.st9 {fill:none;stroke:none;stroke-linecap:butt;stroke-width:1}
		.st10 {fill:#000000;font-family:Arial;font-size:0.666664em}
		.st11 {fill:none;fill-rule:evenodd;font-size:12px;overflow:visible;stroke-linecap:square;stroke-miterlimit:3}
	]]>
	</style>

	<defs id="Markers">
		<g id="lend4">
			<path d="M 2 1 L 0 0 L 2 -1 L 2 1 " style="stroke:none"/>
		</g>
		<marker id="mrkr4-78" class="st6" refX="-7.04" orient="auto" markerUnits="strokeWidth" overflow="visible">
			<use xlink:href="#lend4" transform="scale(-3.52,-3.52) "/>
		</marker>
	</defs>
	<g>
		<title>Page-1</title>
		<g id="shape1402-1" transform="translate(562.589,23.8477) rotate(90)">
			<title>Sheet.1402</title>
			<path d="M0 528.21 L187 528.21" class="st1"/>
		</g>
		<g id="shape1403-4" transform="translate(562.589,210.844) rotate(90)">
			<title>Sheet.1403</title>
			<path d="M0 528.21 L30.6 528.21" class="st2"/>
		</g>
		<g id="shape1404-7" transform="translate(562.589,241.447) rotate(90)">
			<title>Sheet.1404</title>
			<path d="M0 528.21 L42.95 528.21" class="st1"/>
		</g>
		<g id="shape1405-10" transform="translate(562.589,284.396) rotate(90)">
			<title>Sheet.1405</title>
			<path d="M0 528.21 L30.6 528.21" class="st2"/>
		</g>
		<g id="shape1406-13" transform="translate(562.589,315) rotate(90)">
			<title>Sheet.1406</title>
			<path d="M0 528.21 L42.95 528.21" class="st1"/>
		</g>
		<g id="shape1407-16" transform="translate(562.589,357.949) rotate(90)">
			<title>Sheet.1407</title>
			<path d="M0 528.21 L30.6 528.21" class="st2"/>
		</g>
		<g id="shape1408-19" transform="translate(562.589,388.553) rotate(90)">
			<title>Sheet.1408</title>
			<path d="M0 528.21 L116 528.21" class="st1"/>
		</g>
		<g id="shape1409-22" transform="translate(653.339,23.8477) rotate(90)">
			<title>Sheet.1409</title>
			<path d="M0 528.21 L187 528.21" class="st1"/>
		</g>
		<g id="shape1410-25" transform="translate(653.339,210.844) rotate(90)">
			<title>Sheet.1410</title>
			<path d="M0 528.21 L30.6 528.21" class="st2"/>
		</g>
		<g id="shape1411-28" transform="translate(653.339,241.447) rotate(90)">
			<title>Sheet.1411</title>
			<path d="M0 528.21 L42.95 528.21" class="st1"/>
		</g>
		<g id="shape1412-31" transform="translate(653.339,284.396) rotate(90)">
			<title>Sheet.1412</title>
			<path d="M0 528.21 L30.6 528.21" class="st2"/>
		</g>
		<g id="shape1413-34" transform="translate(653.339,315) rotate(90)">
			<title>Sheet.1413</title>
			<path d="M0 528.21 L42.95 528.21" class="st1"/>
		</g>
		<g id="shape1414-37" transform="translate(653.339,357.949) rotate(90)">
			<title>Sheet.1414</title>
			<path d="M0 528.21 L30.6 528.21" class="st2"/>
		</g>
		<g id="shape1415-40" transform="translate(653.339,388.553) rotate(90)">
			<title>Sheet.1415</title>
			<path d="M0 528.21 L116 528.21" class="st1"/>
		</g>
		<g id="shape1416-43" transform="translate(797.095,24.0728) rotate(90.0244)">
			<title>Sheet.1416</title>
			<path d="M0 528.21 L187 528.21" class="st1"/>
		</g>
		<g id="shape1417-46" transform="translate(797.339,210.844) rotate(90)">
			<title>Sheet.1417</title>
			<path d="M0 528.21 L30.6 528.21" class="st2"/>
		</g>
		<g id="shape1418-49" transform="translate(797.339,241.447) rotate(90)">
			<title>Sheet.1418</title>
			<path d="M0 528.21 L42.95 528.21" class="st1"/>
		</g>
		<g id="shape1419-52" transform="translate(797.339,284.396) rotate(90)">
			<title>Sheet.1419</title>
			<path d="M0 528.21 L30.6 528.21" class="st2"/>
		</g>
		<g id="shape1420-55" transform="translate(797.339,315) rotate(90)">
			<title>Sheet.1420</title>
			<path d="M0 528.21 L42.95 528.21" class="st1"/>
		</g>
		<g id="shape1421-58" transform="translate(797.339,357.949) rotate(90)">
			<title>Sheet.1421</title>
			<path d="M0 528.21 L30.6 528.21" class="st2"/>
		</g>
		<g id="shape1422-61" transform="translate(797.339,388.553) rotate(90)">
			<title>Sheet.1422</title>
			<path d="M0 528.21 L116 528.21" class="st1"/>
		</g>
		<g id="shape1423-64" transform="translate(1.3802,-504.361)">
			<title>Sheet.1423</title>
			<desc>Application</desc>
			<rect x="0" y="505.486" width="66" height="22.7227" class="st3"/>
			<text x="5.36" y="520.45" class="st4">Application</text>		</g>
		<g id="shape1427-67" transform="translate(86.1302,-504.361)">
			<title>Sheet.1427</title>
			<desc>FEM module</desc>
			<rect x="0" y="505.486" width="78" height="22.7227" class="st3"/>
			<text x="8.2" y="520.45" class="st4">FEM module</text>		</g>
		<g id="shape1433-70" transform="translate(239.636,-504.361)">
			<title>Sheet.1433</title>
			<desc>Hardware</desc>
			<rect x="0" y="505.486" width="58.5" height="22.7227" class="st3"/>
			<text x="5.15" y="520.45" class="st4">Hardware</text>		</g>
		<g id="shape1438-73" transform="translate(34.3802,-443.212)">
			<title>Sheet.1438</title>
			<path d="M0 528.21 L79.21 528.21" class="st5"/>
		</g>
		<g id="shape1439-79" transform="translate(39.6302,-478.136)">
			<title>Sheet.1439</title>
			<desc>configure LNA</desc>
			<rect x="0" y="516.508" width="69.0178" height="11.7" class="st7"/>
			<text x="0" y="525.36" class="st8">configure LNA</text>		</g>
		<g id="shape1440-82" transform="translate(39.6302,-466.786)">
			<title>Sheet.1440</title>
			<desc>time = 40 us</desc>
			<rect x="0" y="516.508" width="69.0178" height="11.7" class="st7"/>
			<text x="0" y="525.36" class="st8">time = 40 us</text>		</g>
		<g id="shape1441-85" transform="translate(39.6302,-455.436)">
			<title>Sheet.1441</title>
			<desc>timer=TIMER1</desc>
			<rect x="0" y="516.508" width="69.0178" height="11.7" class="st7"/>
			<text x="0" y="525.36" class="st8">timer=TIMER1</text>		</g>
		<g id="shape1442-88" transform="translate(39.6302,-444.087)">
			<title>Sheet.1442</title>
			<desc>event=rx_end</desc>
			<rect x="0" y="516.508" width="69.0178" height="11.7" class="st7"/>
			<text x="0" y="525.36" class="st8">event=rx_end</text>		</g>
		<g id="shape1447-91" transform="translate(128.957,-414.659)">
			<title>Sheet.1447</title>
			<desc>calculate timings</desc>
			<rect x="0" y="516.508" width="78" height="11.7" class="st7"/>
			<text x="0" y="525.36" class="st8">calculate timings</text>		</g>
		<g id="shape1450-94" transform="translate(121.392,-367.051) rotate(-0.405518)">
			<title>Sheet.1450</title>
			<path d="M0 528.21 L136.66 528.21" class="st5"/>
		</g>
		<g id="shape1451-99" transform="translate(128.957,-379.288)">
			<title>Sheet.1451</title>
			<desc>set TIMER1</desc>
			<rect x="0" y="516.508" width="117" height="11.7" class="st7"/>
			<text x="0" y="525.36" class="st8">set TIMER1</text>		</g>
		<g id="shape1452-102" transform="translate(128.957,-367.938)">
			<title>Sheet.1452</title>
			<desc>compare channels to 9us and 27us</desc>
			<rect x="0" y="516.508" width="138.426" height="11.7" class="st9"/>
			<text x="0" y="524.76" class="st10">compare channels to 9us and 27us</text>		</g>
		<g id="shape1454-105" transform="translate(33.0961,-345.213) rotate(-0.139286)">
			<title>Sheet.1454</title>
			<path d="M0 528.21 L227.4 528.21" class="st5"/>
		</g>
		<g id="shape1455-110" transform="translate(39.6302,-346.089)">
			<title>Sheet.1455</title>
			<desc>start Rx</desc>
			<rect x="0" y="516.508" width="78" height="11.7" class="st7"/>
			<text x="0" y="525.36" class="st8">start Rx</text>		</g>
		<g id="shape1457-113" transform="translate(34.1035,-323.365) rotate(-0.0300095)">
			<title>Sheet.1457</title>
			<path d="M0 528.21 L227.39 528.21" class="st5"/>
		</g>
		<g id="shape1458-118" transform="translate(39.6302,-324.239)">
			<title>Sheet.1458</title>
			<desc>start TIMER1</desc>
			<rect x="0" y="516.508" width="117" height="11.7" class="st7"/>
			<text x="0" y="525.36" class="st8">start TIMER1</text>		</g>
		<g id="shape1459-121" transform="translate(90.4087,-296.732)">
			<title>Sheet.1459</title>
			<desc>Waiting for TIMER1 event</desc>
			<rect x="0" y="518.308" width="118.816" height="9.9" class="st7"/>
			<text x="0" y="526.26" class="st8">Waiting for TIMER1 event</text>		</g>
		<g id="shape1464-124" transform="translate(203.13,-271.786)">
			<title>Sheet.1464</title>
			<desc>TIMER1 event</desc>
			<rect x="0" y="516.508" width="65.6765" height="11.7" class="st7"/>
			<text x="0" y="525.36" class="st8">TIMER1 event</text>		</g>
		<g id="shape1465-127" transform="translate(203.13,-260.436)">
			<title>Sheet.1465</title>
			<desc>deassert PDN</desc>
			<rect x="0" y="516.508" width="65.6765" height="11.7" class="st7"/>
			<text x="0" y="525.36" class="st8">deassert PDN</text>		</g>
		<g id="shape1471-130" transform="translate(203.13,-198.233)">
			<title>Sheet.1471</title>
			<desc>TIMER1 event</desc>
			<rect x="0" y="516.508" width="65.6765" height="11.7" class="st7"/>
			<text x="0" y="525.36" class="st8">TIMER1 event</text>		</g>
		<g id="shape1472-133" transform="translate(205.38,-186.884)">
			<title>Sheet.1472</title>
			<desc>activate LNA</desc>
			<rect x="0" y="516.508" width="63.4265" height="11.7" class="st7"/>
			<text x="0" y="525.36" class="st8">activate LNA</text>		</g>
		<g id="shape1473-136" transform="translate(128.957,-149.626)">
			<title>Sheet.1473</title>
			<desc>Rx operation</desc>
			<rect x="0" y="518.308" width="63.4265" height="9.9" class="st7"/>
			<text x="0" y="526.26" class="st8">Rx operation</text>		</g>
		<g id="shape1475-139" transform="translate(34.3802,-123.806)">
			<title>Sheet.1475</title>
			<path d="M0 528.21 L227.71 528.21" class="st5"/>
		</g>
		<g id="shape1476-144" transform="translate(39.6302,-124.68)">
			<title>Sheet.1476</title>
			<desc>stop Rx</desc>
			<rect x="0" y="516.508" width="68.25" height="11.7" class="st7"/>
			<text x="0" y="525.36" class="st8">stop Rx</text>		</g>
		<g id="shape1481-147" transform="translate(196.38,-102.831)">
			<title>Sheet.1481</title>
			<desc>rx_end event</desc>
			<rect x="0" y="516.508" width="117" height="11.7" class="st7"/>
			<text x="0" y="525.36" class="st8">rx_end event</text>		</g>
		<g id="shape1482-150" transform="translate(196.38,-91.4812)">
			<title>Sheet.1482</title>
			<desc>deactivate LNA</desc>
			<rect x="0" y="516.508" width="136.5" height="11.7" class="st7"/>
			<text x="0" y="525.36" class="st8">deactivate LNA</text>		</g>
		<g id="shape1484-153" transform="translate(34.3802,-59.0072)">
			<title>Sheet.1484</title>
			<path d="M0 528.21 L83.71 528.21" class="st5"/>
		</g>
		<g id="shape1485-158" transform="translate(39.6302,-59.8816)">
			<title>Sheet.1485</title>
			<desc>deactivate FEM</desc>
			<rect x="0" y="516.508" width="73.125" height="11.7" class="st7"/>
			<text x="0" y="525.36" class="st8">deactivate FEM</text>		</g>
		<g id="shape1487-161" transform="translate(125.13,-37.1575)">
			<title>Sheet.1487</title>
			<path d="M0 528.21 L136.96 528.21" class="st5"/>
		</g>
		<g id="shape1488-166" transform="translate(128.957,-38.032)">
			<title>Sheet.1488</title>
			<desc>assert PDN</desc>
			<rect x="0" y="516.508" width="97.5" height="11.7" class="st7"/>
			<text x="0" y="525.36" class="st8">assert PDN</text>		</g>
		<g id="shape1490-169" transform="translate(118.044,-412.166)">
			<title>Dynamic connector</title>
			<path d="M7.09 529.51 L50.45 529.51 L50.45 541.08 L14.13 541.08" class="st5"/>
		</g>
		<g id="shape1491-174" transform="translate(1.125,-1.125)">
			<title>Sheet.1491</title>
			<desc>Application</desc>
			<rect x="0" y="505.486" width="66" height="22.7227" class="st3"/>
			<text x="5.36" y="520.45" class="st4">Application</text>		</g>
		<g id="shape1492-177" transform="translate(86.1302,-1.125)">
			<title>Sheet.1492</title>
			<desc>FEM module</desc>
			<rect x="0" y="505.486" width="78" height="22.7227" class="st3"/>
			<text x="8.2" y="520.45" class="st4">FEM module</text>		</g>
		<g id="shape1493-180" transform="translate(239.88,-1.125)">
			<title>Sheet.1493</title>
			<desc>Hardware</desc>
			<rect x="0" y="505.486" width="58.5" height="22.7227" class="st3"/>
			<text x="5.15" y="520.45" class="st4">Hardware</text>		</g>
		<g id="shape1494-183" transform="translate(90.4087,-224.294)">
			<title>Sheet.1494</title>
			<desc>Waiting for TIMER1 event</desc>
			<rect x="0" y="518.308" width="118.816" height="9.9" class="st7"/>
			<text x="0" y="526.26" class="st8">Waiting for TIMER1 event</text>		</g>
		<g id="shape1495-186" transform="translate(261.72,-260.58)">
			<title>Dynamic connector.1495</title>
			<path d="M7.09 531.04 L-26.53 531.04 L-26.53 539.55 L0.05 539.55" class="st5"/>
		</g>
		<g id="shape1496-191" transform="translate(261.668,-186.412)">
			<title>Dynamic connector.1496</title>
			<path d="M7.09 531.04 L-26.53 531.04 L-26.53 539.55 L0.05 539.55" class="st5"/>
		</g>
		<g id="shape1497-196" transform="translate(262.044,-91.5094)">
			<title>Dynamic connector.1497</title>
			<path d="M7.09 531.04 L-26.85 531.04 L-26.85 539.55 L0.05 539.55" class="st5"/>
		</g>
	</g>
</svg>
