<?xml version="1.0" encoding="UTF-8" standalone="no"?>
<!DOCTYPE svg PUBLIC "-//W3C//DTD SVG 1.1//EN" "http://www.w3.org/Graphics/SVG/1.1/DTD/svg11.dtd">
<!-- Generated by Microsoft Visio, SVG Export FEM_timing_nRF21540.svg Page-1 -->
<svg xmlns="http://www.w3.org/2000/svg" xmlns:xlink="http://www.w3.org/1999/xlink" xmlns:ev="http://www.w3.org/2001/xml-events"
		width="7.29156in" height="1.79544in" viewBox="0 0 524.992 129.271" xml:space="preserve" color-interpolation-filters="sRGB"
		class="st20">
	<style type="text/css">
	<![CDATA[
		.st1 {fill:#6ad1e3;stroke:none;stroke-linecap:butt;stroke-width:0.75}
		.st2 {fill:#00a9ce;stroke:none;stroke-linecap:butt;stroke-width:0.75}
		.st3 {fill:#0077c8;stroke:none;stroke-linecap:butt;stroke-width:0.75}
		.st4 {stroke:#000000;stroke-linecap:butt;stroke-width:1}
		.st5 {stroke:#768692;stroke-dasharray:4,2;stroke-linecap:butt;stroke-width:1}
		.st6 {stroke:#d9e1e2;stroke-dasharray:4,2;stroke-linecap:butt;stroke-width:1}
		.st7 {stroke:#aaaaaa;stroke-dasharray:0.375,3;stroke-linecap:butt;stroke-width:0.375}
		.st8 {fill:none;stroke:none;stroke-linecap:butt;stroke-width:0.75}
		.st9 {fill:#000000;font-family:Calibri;font-size:0.833336em}
		.st10 {fill:#d7e0f2;stroke:#d7e0f2;stroke-linecap:butt;stroke-width:1.125}
		.st11 {fill:#d9e1e2}
		.st12 {fill:#d9e1e2;stroke:#000000;stroke-linecap:butt;stroke-width:1}
		.st13 {fill:#000000;font-family:Calibri;font-size:0.75em}
		.st14 {stroke:#038048;stroke-linecap:butt;stroke-width:1.125}
		.st15 {marker-end:url(#mrkr4-84);marker-start:url(#mrkr4-82);stroke:#ee2f4e;stroke-linecap:butt;stroke-width:1}
		.st16 {fill:#ee2f4e;fill-opacity:1;stroke:#ee2f4e;stroke-opacity:1;stroke-width:0.40983606557377}
		.st17 {fill:#ffffff;font-family:Calibri;font-size:0.833336em}
		.st18 {stroke:#333f48;stroke-dasharray:4,2;stroke-linecap:butt;stroke-width:1}
		.st19 {font-size:1em}
		.st20 {fill:none;fill-rule:evenodd;font-size:12px;overflow:visible;stroke-linecap:square;stroke-miterlimit:3}
	]]>
	</style>

	<defs id="Markers">
		<g id="lend4">
			<path d="M 2 1 L 0 0 L 2 -1 L 2 1 " style="stroke:none"/>
		</g>
		<marker id="mrkr4-82" class="st16" refX="4.52" orient="auto" markerUnits="strokeWidth" overflow="visible">
			<use xlink:href="#lend4" transform="scale(2.44) "/>
		</marker>
		<marker id="mrkr4-84" class="st16" refX="-4.88" orient="auto" markerUnits="strokeWidth" overflow="visible">
			<use xlink:href="#lend4" transform="scale(-2.44,-2.44) "/>
		</marker>
	</defs>
	<g>
		<title>Page-1</title>
		<g id="shape1570-1" transform="translate(130.955,-12.9926)">
			<title>Sheet.1570</title>
			<rect x="0" y="13.9926" width="111.559" height="115.279" class="st1"/>
		</g>
		<g id="shape1571-3" transform="translate(242.513,-12.9926)">
			<title>Sheet.1571</title>
			<rect x="0" y="13.9926" width="80.5701" height="115.279" class="st2"/>
		</g>
		<g id="shape1572-5" transform="translate(447.037,-12.9926)">
			<title>Sheet.1572</title>
			<rect x="0" y="13.9926" width="12.3954" height="115.279" class="st3"/>
		</g>
		<g id="shape1568-7" transform="translate(130.738,1) rotate(90)">
			<title>Sheet.1568</title>
			<path d="M0 129.27 L115.28 129.27" class="st4"/>
		</g>
		<g id="shape1569-10" transform="translate(653.263,1) rotate(90)">
			<title>Sheet.1569</title>
			<path d="M0 129.27 L115.28 129.27" class="st4"/>
		</g>
		<g id="shape1573-13" transform="translate(204.447,1) rotate(90)">
			<title>Sheet.1573</title>
			<path d="M0 129.27 L115.28 129.27" class="st5"/>
		</g>
		<g id="shape1574-16" transform="translate(266.424,1) rotate(90)">
			<title>Sheet.1574</title>
			<path d="M0 129.27 L115.28 129.27" class="st6"/>
		</g>
		<g id="shape1575-19" transform="translate(328.401,1) rotate(90)">
			<title>Sheet.1575</title>
			<path d="M0 129.27 L115.28 129.27" class="st6"/>
		</g>
		<g id="shape1576-22" transform="translate(390.378,1) rotate(90)">
			<title>Sheet.1576</title>
			<path d="M0 129.27 L115.28 129.27" class="st6"/>
		</g>
		<g id="shape1577-25" transform="translate(452.355,1) rotate(90)">
			<title>Sheet.1577</title>
			<path d="M0 129.27 L115.28 129.27" class="st7"/>
		</g>
		<g id="shape1578-28" transform="translate(514.332,1) rotate(90)">
			<title>Sheet.1578</title>
			<path d="M0 129.27 L115.28 129.27" class="st6"/>
		</g>
		<g id="shape1579-31" transform="translate(576.309,1) rotate(90)">
			<title>Sheet.1579</title>
			<path d="M0 129.27 L115.28 129.27" class="st7"/>
		</g>
		<g id="shape1580-34" transform="translate(638.286,1) rotate(90)">
			<title>Sheet.1580</title>
			<path d="M0 129.27 L115.28 129.27" class="st6"/>
		</g>
		<g id="shape1582-37" transform="translate(12.1655,-119.341)">
			<title>Sheet.1582</title>
			<desc>Operation</desc>
			<rect x="0" y="121.834" width="51.131" height="7.43724" class="st8"/>
			<text x="0" y="128.55" class="st9">Operation</text>		</g>
		<g id="shape1583-40" transform="translate(1.46684,-116.794)">
			<title>Sheet.1583</title>
			<path d="M0 129.27 L59.24 129.27" class="st4"/>
		</g>
		<g id="shape1584-43" transform="translate(-30.8732,-79.077) rotate(-44.8176)">
			<title>Sheet.1584</title>
			<path d="M0 129.27 L16.45 129.27" class="st4"/>
		</g>
		<g id="shape1585-46" transform="translate(51.4176,-91.1335)">
			<title>Sheet.1585</title>
			<path d="M0 116.88 L17.56 116.88 L23.76 123.07 L17.56 129.27 L0 129.27 L0 116.88 Z" class="st10"/>
		</g>
		<g id="shape1586-48" transform="translate(51.4176,-91.1335)">
			<title>Sheet.1586</title>
			<desc>Idle</desc>
			<path d="M0 116.88 L17.56 116.88 L23.76 123.07 L17.56 129.27 L0 129.27 L0 116.88 Z" class="st11"/>
			<path d="M0 116.88 L17.56 116.88 L23.76 123.07 L17.56 129.27 L0 129.27" class="st4"/>
			<text x="4.36" y="126.07" class="st9">Idle</text>		</g>
		<g id="shape1589-52" transform="translate(323.083,-91.1335)">
			<title>Sheet.1589</title>
			<desc>Rx</desc>
			<path d="M6.2 116.88 L117.76 116.88 L123.95 123.07 L117.76 129.27 L6.2 129.27 L0 123.07 L6.2 116.88 Z" class="st12"/>
			<text x="57.1" y="126.07" class="st9">Rx</text>		</g>
		<g id="shape1590-55" transform="translate(447.037,-91.1335)">
			<title>Sheet.1590</title>
			<path d="M6.2 116.88 L74.37 116.88 L74.37 129.27 L6.2 129.27 L0 123.07 L6.2 116.88 Z" class="st10"/>
		</g>
		<g id="shape1595-57" transform="translate(1.46684,-85.9688) rotate(8.72341E-07)">
			<title>Sheet.1595</title>
			<path d="M0 129.27 L522.53 129.27" class="st4"/>
		</g>
		<g id="shape1596-60" transform="translate(4.28361,-68.7171)">
			<title>Sheet.1596</title>
			<desc>TIMER1 running</desc>
			<rect x="0" y="121.834" width="86.7678" height="7.43724" class="st8"/>
			<text x="0" y="128.25" class="st13">TIMER1 running</text>		</g>
		<g id="shape1597-63" transform="translate(75.1754,-63.6071)">
			<title>Sheet.1597</title>
		</g>
		<g id="shape1598-64" transform="translate(204.447,58.4336) rotate(90)">
			<title>Sheet.1598</title>
			<path d="M0 129.27 L7.23 129.27" class="st14"/>
		</g>
		<g id="shape1599-67" transform="translate(75.1754,-70.8377)">
			<title>Sheet.1599</title>
			<path d="M0 129.27 L167.34 129.27" class="st4"/>
		</g>
		<g id="shape1600-70" transform="translate(371.785,58.4336) rotate(90)">
			<title>Sheet.1600</title>
			<path d="M0 129.27 L7.23 129.27" class="st14"/>
		</g>
		<g id="shape1601-73" transform="translate(242.513,-63.6071) rotate(2.49832E-06)">
			<title>Sheet.1601</title>
			<path d="M0 129.27 L278.9 129.27" class="st4"/>
		</g>
		<g id="shape1602-76" transform="translate(75.1754,-74.9695)">
			<title>Sheet.1602</title>
			<path d="M4.52 129.27 L4.88 129.27 L50.9 129.27" class="st15"/>
		</g>
		<g id="shape1609-85" transform="translate(176.416,-76.0778)">
			<title>Sheet.1609</title>
			<desc>18 us</desc>
			<rect x="0" y="120.595" width="36.1532" height="8.67678" class="st8"/>
			<text x="0" y="127.93" class="st9">18 us</text>		</g>
		<g id="shape1613-88" transform="translate(272.985,-76.0778)">
			<title>Sheet.1613</title>
			<desc>13 us</desc>
			<rect x="0" y="120.595" width="36.1532" height="8.67678" class="st8"/>
			<text x="0" y="127.93" class="st17">13 us</text>		</g>
		<g id="shape1614-91" transform="translate(1.46684,-59.4753) rotate(1.41868E-06)">
			<title>Sheet.1614</title>
			<path d="M0 129.27 L522.53 129.27" class="st4"/>
		</g>
		<g id="shape1615-94" transform="translate(4.28361,-47.7233)">
			<title>Sheet.1615</title>
			<desc>Deactivation event</desc>
			<rect x="0" y="121.834" width="70.8918" height="7.43724" class="st8"/>
			<text x="0" y="128.25" class="st13">Deactivation event</text>		</g>
		<g id="shape1616-97" transform="translate(75.1755,-48.1128) rotate(2.32271E-06)">
			<title>Sheet.1616</title>
			<path d="M0 129.27 L371.86 129.27" class="st4"/>
		</g>
		<g id="shape1617-100" transform="translate(576.309,73.9279) rotate(90)">
			<title>Sheet.1617</title>
			<path d="M0 129.27 L7.23 129.27" class="st14"/>
		</g>
		<g id="shape1618-103" transform="translate(447.037,-55.3435)">
			<title>Sheet.1618</title>
			<path d="M0 129.27 L74.37 129.27" class="st4"/>
		</g>
		<g id="shape1619-106" transform="translate(1.46684,-43.981) rotate(1.73819E-06)">
			<title>Sheet.1619</title>
			<path d="M0 129.27 L522.53 129.27" class="st4"/>
		</g>
		<g id="shape1620-109" transform="translate(4.28361,-32.229)">
			<title>Sheet.1620</title>
			<desc>LNA active</desc>
			<rect x="0" y="121.834" width="61.977" height="7.43724" class="st8"/>
			<text x="0" y="128.25" class="st13">LNA active</text>		</g>
		<g id="shape1621-112" transform="translate(75.1754,-32.6186)">
			<title>Sheet.1621</title>
			<path d="M0 129.27 L167.34 129.27" class="st4"/>
		</g>
		<g id="shape1622-115" transform="translate(371.785,89.4221) rotate(90)">
			<title>Sheet.1622</title>
			<path d="M0 129.27 L7.23 129.27" class="st14"/>
		</g>
		<g id="shape1623-118" transform="translate(242.513,-39.8492) rotate(4.65848E-06)">
			<title>Sheet.1623</title>
			<path d="M0 129.27 L204.52 129.27" class="st4"/>
		</g>
		<g id="shape1624-121" transform="translate(576.309,89.4221) rotate(90)">
			<title>Sheet.1624</title>
			<path d="M0 129.27 L7.23 129.27" class="st14"/>
		</g>
		<g id="shape1625-124" transform="translate(447.037,-32.6186)">
			<title>Sheet.1625</title>
			<path d="M0 129.27 L74.37 129.27" class="st4"/>
		</g>
		<g id="shape1626-127" transform="translate(1.46684,-28.4868) rotate(2.05771E-06)">
			<title>Sheet.1626</title>
			<path d="M0 129.27 L522.53 129.27" class="st4"/>
		</g>
		<g id="shape1627-130" transform="translate(4.28361,-16.7348)">
			<title>Sheet.1627</title>
			<desc>PDN pin</desc>
			<rect x="0" y="121.834" width="43.3839" height="7.43724" class="st8"/>
			<text x="0" y="128.25" class="st13">PDN pin</text>		</g>
		<g id="shape1628-133" transform="translate(75.1754,-24.355)">
			<title>Sheet.1628</title>
			<path d="M0 129.27 L55.78 129.27" class="st4"/>
		</g>
		<g id="shape1629-136" transform="translate(260.226,104.916) rotate(90)">
			<title>Sheet.1629</title>
			<path d="M0 129.27 L7.23 129.27" class="st14"/>
		</g>
		<g id="shape1630-139" transform="translate(130.955,-17.1244) rotate(3.64602E-06)">
			<title>Sheet.1630</title>
			<path d="M0 129.27 L328.48 129.27" class="st4"/>
		</g>
		<g id="shape1631-142" transform="translate(588.704,104.916) rotate(90)">
			<title>Sheet.1631</title>
			<path d="M0 129.27 L7.23 129.27" class="st14"/>
		</g>
		<g id="shape1632-145" transform="translate(459.433,-24.355)">
			<title>Sheet.1632</title>
			<path d="M0 129.27 L61.98 129.27" class="st4"/>
		</g>
		<g id="shape1633-148" transform="translate(204.447,116.279) rotate(90)">
			<title>Sheet.1633</title>
			<path d="M0 129.27 L2.58 129.27" class="st4"/>
		</g>
		<g id="shape1634-151" transform="translate(266.424,116.279) rotate(90)">
			<title>Sheet.1634</title>
			<path d="M0 129.27 L2.58 129.27" class="st4"/>
		</g>
		<g id="shape1635-154" transform="translate(328.401,116.279) rotate(90)">
			<title>Sheet.1635</title>
			<path d="M0 129.27 L2.58 129.27" class="st4"/>
		</g>
		<g id="shape1636-157" transform="translate(390.378,116.279) rotate(90)">
			<title>Sheet.1636</title>
			<path d="M0 129.27 L2.58 129.27" class="st4"/>
		</g>
		<g id="shape1637-160" transform="translate(452.355,116.279) rotate(90)">
			<title>Sheet.1637</title>
			<path d="M0 129.27 L2.58 129.27" class="st4"/>
		</g>
		<g id="shape1638-163" transform="translate(514.332,116.279) rotate(90)">
			<title>Sheet.1638</title>
			<path d="M0 129.27 L2.58 129.27" class="st4"/>
		</g>
		<g id="shape1639-166" transform="translate(576.309,116.279) rotate(90)">
			<title>Sheet.1639</title>
			<path d="M0 129.27 L2.58 129.27" class="st4"/>
		</g>
		<g id="shape1640-169" transform="translate(638.286,116.279) rotate(90)">
			<title>Sheet.1640</title>
			<path d="M0 129.27 L2.58 129.27" class="st4"/>
		</g>
		<g id="shape1641-172" transform="translate(75.1755,-12.9926) rotate(2.86318E-06)">
			<title>Sheet.1641</title>
			<path d="M0 129.27 L433.84 129.27" class="st4"/>
		</g>
		<g id="shape1642-175" transform="translate(73.1095,-2.28154)">
			<title>Sheet.1642</title>
			<desc>0</desc>
			<rect x="0" y="121.834" width="6.1977" height="7.43724" class="st8"/>
			<text x="0" y="128.55" class="st9">0</text>		</g>
		<g id="shape1643-178" transform="translate(133.021,-2.28154)">
			<title>Sheet.1643</title>
			<desc>10</desc>
			<rect x="0" y="121.834" width="12.3954" height="7.43724" class="st8"/>
			<text x="0" y="128.55" class="st9">10</text>		</g>
		<g id="shape1644-181" transform="translate(194.998,-2.28154)">
			<title>Sheet.1644</title>
			<desc>20</desc>
			<rect x="0" y="121.834" width="12.3954" height="7.43724" class="st8"/>
			<text x="0" y="128.55" class="st9">20</text>		</g>
		<g id="shape1645-184" transform="translate(256.975,-2.28154)">
			<title>Sheet.1645</title>
			<desc>30</desc>
			<rect x="0" y="121.834" width="12.3954" height="7.43724" class="st8"/>
			<text x="0" y="128.55" class="st9">30</text>		</g>
		<g id="shape1646-187" transform="translate(318.952,-2.28154)">
			<title>Sheet.1646</title>
			<desc>40</desc>
			<rect x="0" y="121.834" width="12.3954" height="7.43724" class="st8"/>
			<text x="0" y="128.55" class="st9">40</text>		</g>
		<g id="shape1647-190" transform="translate(380.929,-2.28154)">
			<title>Sheet.1647</title>
			<desc>50</desc>
			<rect x="0" y="121.834" width="12.3954" height="7.43724" class="st8"/>
			<text x="0" y="128.55" class="st9">50</text>		</g>
		<g id="shape1648-193" transform="translate(442.906,-2.28154)">
			<title>Sheet.1648</title>
			<desc>60</desc>
			<rect x="0" y="121.834" width="12.3954" height="7.43724" class="st8"/>
			<text x="0" y="128.55" class="st9">60</text>		</g>
		<g id="shape1649-196" transform="translate(504.883,-2.28154)">
			<title>Sheet.1649</title>
			<desc>70</desc>
			<rect x="0" y="121.834" width="12.3954" height="7.43724" class="st8"/>
			<text x="0" y="128.55" class="st9">70</text>		</g>
		<g id="shape1650-199" transform="translate(260.226,1) rotate(90)">
			<title>Sheet.1650</title>
			<path d="M0 129.27 L115.28 129.27" class="st18"/>
		</g>
		<g id="shape1652-202" transform="translate(152.654,-105.54)">
			<title>Sheet.1652</title>
			<desc>FEM ramp-up</desc>
			<rect x="0" y="108.812" width="43.3839" height="20.4597" class="st8"/>
			<text x="0" y="116.54" class="st9">FEM<tspan x="0" dy="1em" class="st19">ramp</tspan>-up</text>		</g>
		<g id="shape1654-206" transform="translate(371.785,1) rotate(90)">
			<title>Sheet.1654</title>
			<path d="M0 129.27 L115.28 129.27" class="st18"/>
		</g>
		<g id="shape1655-209" transform="translate(452.355,1) rotate(90)">
			<title>Sheet.1655</title>
			<path d="M0 129.27 L115.28 129.27" class="st18"/>
		</g>
		<g id="shape1656-212" transform="translate(263.902,-105.54)">
			<title>Sheet.1656</title>
			<desc>LNA ramp-up</desc>
			<rect x="0" y="108.812" width="36.1532" height="20.4597" class="st8"/>
			<text x="0" y="116.54" class="st17">LNA <tspan x="0" dy="1em" class="st19">ramp</tspan>-up</text>		</g>
		<g id="shape1658-216" transform="translate(576.309,1) rotate(90)">
			<title>Sheet.1658</title>
			<path d="M0 129.27 L115.28 129.27" class="st18"/>
		</g>
		<g id="shape1659-219" transform="translate(588.704,1) rotate(90)">
			<title>Sheet.1659</title>
			<path d="M0 129.27 L115.28 129.27" class="st18"/>
		</g>
		<g id="shape1660-222" transform="translate(461.663,-110.519)">
			<title>Sheet.1660</title>
			<desc>SW latency</desc>
			<rect x="0" y="118.769" width="51.131" height="10.5024" class="st8"/>
			<text x="0" y="127.02" class="st9">SW latency</text>		</g>
		<g id="shape1591-225" transform="translate(447.037,-91.1335)">
			<title>Sheet.1591</title>
			<desc>Idle</desc>
			<path d="M74.37 116.88 L6.2 116.88 L0 123.07 L6.2 129.27 L74.37 129.27 L74.37 116.88 Z" class="st11"/>
			<path d="M74.37 116.88 L6.2 116.88 L0 123.07 L6.2 129.27 L74.37 129.27" class="st4"/>
			<text x="29.66" y="126.07" class="st9">Idle</text>		</g>
		<g id="shape1581-229" transform="translate(1,-128.271)">
			<title>Sheet.1581</title>
			<path d="M0 129.27 L522.99 129.27" class="st4"/>
		</g>
		<g id="shape1588-232" transform="translate(75.1754,-91.1335)">
			<title>Sheet.1588</title>
			<desc>Ramp-up</desc>
			<path d="M6.2 116.88 L241.71 116.88 L247.91 123.07 L241.71 129.27 L6.2 129.27 L0 123.07 L6.2 116.88 Z" class="st12"/>
			<text x="105.44" y="126.07" class="st9">Ramp-up</text>		</g>
		<g id="shape1605-235" transform="translate(75.9502,-77.088)">
			<title>Sheet.1605</title>
			<desc>40-11-18=9 us</desc>
			<rect x="0" y="120.595" width="55.0046" height="8.67678" class="st8"/>
			<text x="0" y="127.63" class="st13">40-11-18=9 us</text>		</g>
		<g id="shape1666-238" transform="translate(130.955,-74.9695) rotate(5.14833E-06)">
			<title>Sheet.1666</title>
			<path d="M4.52 129.27 L4.88 129.27 L106.68 129.27" class="st15"/>
		</g>
		<g id="shape1667-245" transform="translate(242.513,-74.9695)">
			<title>Sheet.1667</title>
			<path d="M4.52 129.27 L4.88 129.27 L75.69 129.27" class="st15"/>
		</g>
	</g>
</svg>
