<?xml version="1.0" encoding="UTF-8" standalone="no"?>
<!DOCTYPE svg PUBLIC "-//W3C//DTD SVG 1.1//EN" "http://www.w3.org/Graphics/SVG/1.1/DTD/svg11.dtd">
<!-- Generated by Microsoft Visio, SVG Export FEM_timing_simple.svg Page-1 -->
<svg xmlns="http://www.w3.org/2000/svg" xmlns:xlink="http://www.w3.org/1999/xlink" xmlns:ev="http://www.w3.org/2001/xml-events"
		width="7.22326in" height="1.62285in" viewBox="0 0 520.075 116.845" xml:space="preserve" color-interpolation-filters="sRGB"
		class="st17">
	<style type="text/css">
	<![CDATA[
		.st1 {stroke:#000000;stroke-linecap:butt;stroke-width:1}
		.st2 {stroke:#000000;stroke-linecap:butt;stroke-width:1.275}
		.st3 {fill:#00a9ce;stroke:none;stroke-linecap:butt;stroke-width:0.75}
		.st4 {stroke:#d9e1e2;stroke-dasharray:4,2;stroke-linecap:butt;stroke-width:1}
		.st5 {stroke:#aaaaaa;stroke-dasharray:0.375,3;stroke-linecap:butt;stroke-width:0.375}
		.st6 {fill:none;stroke:none;stroke-linecap:butt;stroke-width:0.75}
		.st7 {fill:#000000;font-family:Calibri;font-size:0.833336em}
		.st8 {fill:#d7e0f2;stroke:#d7e0f2;stroke-linecap:butt;stroke-width:1.125}
		.st9 {fill:#d9e1e2}
		.st10 {fill:#d9e1e2;stroke:#000000;stroke-linecap:butt;stroke-width:1}
		.st11 {fill:#000000;font-family:Calibri;font-size:0.666664em}
		.st12 {fill:#ffffff;font-family:Calibri;font-size:0.833336em}
		.st13 {stroke:#333f48;stroke-dasharray:4,2;stroke-linecap:butt;stroke-width:1}
		.st14 {font-size:1em}
		.st15 {marker-end:url(#mrkr4-193);marker-start:url(#mrkr4-191);stroke:#ee2f4e;stroke-linecap:butt;stroke-width:1}
		.st16 {fill:#ee2f4e;fill-opacity:1;stroke:#ee2f4e;stroke-opacity:1;stroke-width:0.40983606557377}
		.st17 {fill:none;fill-rule:evenodd;font-size:12px;overflow:visible;stroke-linecap:square;stroke-miterlimit:3}
	]]>
	</style>

	<defs id="Markers">
		<g id="lend4">
			<path d="M 2 1 L 0 0 L 2 -1 L 2 1 " style="stroke:none"/>
		</g>
		<marker id="mrkr4-191" class="st16" refX="4.52" orient="auto" markerUnits="strokeWidth" overflow="visible">
			<use xlink:href="#lend4" transform="scale(2.44) "/>
		</marker>
		<marker id="mrkr4-193" class="st16" refX="-4.88" orient="auto" markerUnits="strokeWidth" overflow="visible">
			<use xlink:href="#lend4" transform="scale(-2.44,-2.44) "/>
		</marker>
	</defs>
	<g>
		<title>Page-1</title>
		<g id="shape1673-1" transform="translate(117.845,1.275) rotate(90)">
			<title>Sheet.1673</title>
			<path d="M0 116.85 L102.39 116.85" class="st1"/>
		</g>
		<g id="shape1674-4" transform="translate(630.34,1.275) rotate(90)">
			<title>Sheet.1674</title>
			<path d="M0 116.85 L102.39 116.85" class="st2"/>
		</g>
		<g id="shape1675-7" transform="translate(237.373,-13.1754)">
			<title>Sheet.1675</title>
			<rect x="0" y="14.4504" width="82.6776" height="102.395" class="st3"/>
		</g>
		<g id="shape1676-9" transform="translate(182.503,1.275) rotate(90)">
			<title>Sheet.1676</title>
			<path d="M0 116.85 L102.39 116.85" class="st4"/>
		</g>
		<g id="shape1677-12" transform="translate(246.101,1.275) rotate(90)">
			<title>Sheet.1677</title>
			<path d="M0 116.85 L102.39 116.85" class="st4"/>
		</g>
		<g id="shape1678-15" transform="translate(309.699,1.275) rotate(90)">
			<title>Sheet.1678</title>
			<path d="M0 116.85 L102.39 116.85" class="st4"/>
		</g>
		<g id="shape1679-18" transform="translate(373.298,1.275) rotate(90)">
			<title>Sheet.1679</title>
			<path d="M0 116.85 L102.39 116.85" class="st4"/>
		</g>
		<g id="shape1680-21" transform="translate(436.896,1.275) rotate(90)">
			<title>Sheet.1680</title>
			<path d="M0 116.85 L102.39 116.85" class="st5"/>
		</g>
		<g id="shape1681-24" transform="translate(500.494,1.275) rotate(90)">
			<title>Sheet.1681</title>
			<path d="M0 116.85 L102.39 116.85" class="st4"/>
		</g>
		<g id="shape1682-27" transform="translate(564.092,1.275) rotate(90)">
			<title>Sheet.1682</title>
			<path d="M0 116.85 L102.39 116.85" class="st4"/>
		</g>
		<g id="shape1683-30" transform="translate(627.69,1.275) rotate(90)">
			<title>Sheet.1683</title>
			<path d="M0 116.85 L102.39 116.85" class="st4"/>
		</g>
		<g id="shape1684-33" transform="translate(1,-115.57)">
			<title>Sheet.1684</title>
			<path d="M0 116.85 L512.49 116.85" class="st1"/>
		</g>
		<g id="shape1685-36" transform="translate(3.64992,-106.022)">
			<title>Sheet.1685</title>
			<desc>Operation</desc>
			<rect x="0" y="109.213" width="43.9887" height="7.63178" class="st6"/>
			<text x="0" y="116.03" class="st7">Operation</text>		</g>
		<g id="shape1686-39" transform="translate(1,-103.792)">
			<title>Sheet.1686</title>
			<path d="M0 116.85 L45.18 116.85" class="st1"/>
		</g>
		<g id="shape1687-42" transform="translate(-36.4418,-69.569) rotate(-45)">
			<title>Sheet.1687</title>
			<path d="M0 116.85 L16.75 116.85" class="st1"/>
		</g>
		<g id="shape1688-45" transform="translate(41.2788,-77.4608)">
			<title>Sheet.1688</title>
			<path d="M0 104.13 L18.02 104.13 L24.38 110.49 L18.02 116.85 L0 116.85 L0 104.13 Z" class="st8"/>
		</g>
		<g id="shape1689-47" transform="translate(41.2788,-77.4608)">
			<title>Sheet.1689</title>
			<desc>Idle</desc>
			<path d="M0 104.13 L18.02 104.13 L24.38 110.49 L18.02 116.85 L0 116.85 L0 104.13 Z" class="st9"/>
			<path d="M0 104.13 L18.02 104.13 L24.38 110.49 L18.02 116.85 L0 116.85" class="st1"/>
			<text x="4.67" y="113.49" class="st7">Idle</text>		</g>
		<g id="shape1691-51" transform="translate(65.6581,-77.4608)">
			<title>Sheet.1691</title>
			<desc>Ramp-up</desc>
			<path d="M6.36 104.13 L248.03 104.13 L254.39 110.49 L248.03 116.85 L6.36 116.85 L0 110.49 L6.36 104.13 Z" class="st10"/>
			<text x="108.68" y="113.49" class="st7">Ramp-up</text>		</g>
		<g id="shape1692-54" transform="translate(320.051,-77.4608)">
			<title>Sheet.1692</title>
			<desc>Rx</desc>
			<path d="M6.36 104.13 L120.84 104.13 L127.2 110.49 L120.84 116.85 L6.36 116.85 L0 110.49 L6.36 104.13 Z" class="st10"/>
			<text x="58.72" y="113.49" class="st7">Rx</text>		</g>
		<g id="shape1693-57" transform="translate(447.247,-77.4608)">
			<title>Sheet.1693</title>
			<path d="M6.36 104.13 L63.6 104.13 L63.6 116.85 L6.36 116.85 L0 110.49 L6.36 104.13 Z" class="st8"/>
		</g>
		<g id="shape1694-59" transform="translate(447.247,-77.4608)">
			<title>Sheet.1694</title>
			<desc>Idle</desc>
			<path d="M63.6 104.13 L6.36 104.13 L0 110.49 L6.36 116.85 L63.6 116.85 L63.6 104.13 Z" class="st9"/>
			<path d="M63.6 104.13 L6.36 104.13 L0 110.49 L6.36 116.85 L63.6 116.85" class="st1"/>
			<text x="24.28" y="113.49" class="st7">Idle</text>		</g>
		<g id="shape1698-63" transform="translate(1,-72.161)">
			<title>Sheet.1698</title>
			<path d="M0 116.85 L512.49 116.85" class="st1"/>
		</g>
		<g id="shape1699-66" transform="translate(2.63457,-54.4581)">
			<title>Sheet.1699</title>
			<desc>Timer running</desc>
			<rect x="0" y="109.213" width="49.8185" height="7.63178" class="st6"/>
			<text x="0" y="115.43" class="st11">Timer running</text>		</g>
		<g id="shape1700-69" transform="translate(65.6581,-49.2144)">
			<title>Sheet.1700</title>
		</g>
		<g id="shape1701-70" transform="translate(182.503,60.2109) rotate(90)">
			<title>Sheet.1701</title>
			<path d="M0 116.85 L7.42 116.85" class="st1"/>
		</g>
		<g id="shape1702-73" transform="translate(65.6581,-56.6341)">
			<title>Sheet.1702</title>
			<path d="M0 116.85 L171.71 116.85" class="st1"/>
		</g>
		<g id="shape1703-76" transform="translate(354.218,60.2109) rotate(90)">
			<title>Sheet.1703</title>
			<path d="M0 116.85 L7.42 116.85" class="st1"/>
		</g>
		<g id="shape1704-79" transform="translate(237.373,-49.2144)">
			<title>Sheet.1704</title>
			<path d="M0 116.85 L273.47 116.85" class="st1"/>
		</g>
		<g id="shape1708-82" transform="translate(135.435,-62.3809)">
			<title>Sheet.1708</title>
			<desc>40-13=27 us</desc>
			<rect x="0" y="107.941" width="51.236" height="8.90374" class="st6"/>
			<text x="0" y="115.39" class="st7">40-13=27 us</text>		</g>
		<g id="shape1712-85" transform="translate(268.907,-61.7139)">
			<title>Sheet.1712</title>
			<desc>13 us</desc>
			<rect x="0" y="107.941" width="37.0989" height="8.90374" class="st6"/>
			<text x="0" y="115.39" class="st12">13 us</text>		</g>
		<g id="shape1713-88" transform="translate(1,-44.9745)">
			<title>Sheet.1713</title>
			<path d="M0 116.85 L512.49 116.85" class="st1"/>
		</g>
		<g id="shape1714-91" transform="translate(2.63457,-32.9151)">
			<title>Sheet.1714</title>
			<desc>LNA active</desc>
			<rect x="0" y="109.213" width="37.6289" height="7.63178" class="st6"/>
			<text x="0" y="115.43" class="st11">LNA active</text>		</g>
		<g id="shape1715-94" transform="translate(65.6581,-33.3148)">
			<title>Sheet.1715</title>
			<path d="M0 116.85 L171.71 116.85" class="st1"/>
		</g>
		<g id="shape1716-97" transform="translate(354.218,76.1104) rotate(90)">
			<title>Sheet.1716</title>
			<path d="M0 116.85 L7.42 116.85" class="st1"/>
		</g>
		<g id="shape1717-100" transform="translate(237.373,-40.7346)">
			<title>Sheet.1717</title>
			<path d="M0 116.85 L209.87 116.85" class="st1"/>
		</g>
		<g id="shape1718-103" transform="translate(564.092,76.1104) rotate(90)">
			<title>Sheet.1718</title>
			<path d="M0 116.85 L7.42 116.85" class="st1"/>
		</g>
		<g id="shape1719-106" transform="translate(447.247,-33.3148)">
			<title>Sheet.1719</title>
			<path d="M0 116.85 L63.6 116.85" class="st1"/>
		</g>
		<g id="shape1720-109" transform="translate(1,-29.075)">
			<title>Sheet.1720</title>
			<path d="M0 116.85 L512.49 116.85" class="st1"/>
		</g>
		<g id="shape1721-112" transform="translate(2.63457,-17.0155)">
			<title>Sheet.1721</title>
			<desc>Deactivation event</desc>
			<rect x="0" y="109.213" width="63.5981" height="7.63178" class="st6"/>
			<text x="0" y="115.43" class="st11">Deactivation event</text>		</g>
		<g id="shape1722-115" transform="translate(65.6581,-17.4153)">
			<title>Sheet.1722</title>
			<path d="M0 116.85 L381.59 116.85" class="st1"/>
		</g>
		<g id="shape1723-118" transform="translate(564.092,92.01) rotate(90)">
			<title>Sheet.1723</title>
			<path d="M0 116.85 L7.42 116.85" class="st1"/>
		</g>
		<g id="shape1724-121" transform="translate(447.247,-24.8351)">
			<title>Sheet.1724</title>
			<path d="M0 116.85 L63.6 116.85" class="st1"/>
		</g>
		<g id="shape1725-124" transform="translate(182.503,103.67) rotate(90)">
			<title>Sheet.1725</title>
			<path d="M0 116.85 L2.65 116.85" class="st1"/>
		</g>
		<g id="shape1726-127" transform="translate(246.101,103.67) rotate(90)">
			<title>Sheet.1726</title>
			<path d="M0 116.85 L2.65 116.85" class="st1"/>
		</g>
		<g id="shape1727-130" transform="translate(309.699,103.67) rotate(90)">
			<title>Sheet.1727</title>
			<path d="M0 116.85 L2.65 116.85" class="st1"/>
		</g>
		<g id="shape1728-133" transform="translate(373.298,103.67) rotate(90)">
			<title>Sheet.1728</title>
			<path d="M0 116.85 L2.65 116.85" class="st1"/>
		</g>
		<g id="shape1729-136" transform="translate(436.896,103.67) rotate(90)">
			<title>Sheet.1729</title>
			<path d="M0 116.85 L2.65 116.85" class="st1"/>
		</g>
		<g id="shape1730-139" transform="translate(500.494,103.67) rotate(90)">
			<title>Sheet.1730</title>
			<path d="M0 116.85 L2.65 116.85" class="st1"/>
		</g>
		<g id="shape1731-142" transform="translate(564.092,103.67) rotate(90)">
			<title>Sheet.1731</title>
			<path d="M0 116.85 L2.65 116.85" class="st1"/>
		</g>
		<g id="shape1732-145" transform="translate(627.69,103.67) rotate(90)">
			<title>Sheet.1732</title>
			<path d="M0 116.85 L2.65 116.85" class="st1"/>
		</g>
		<g id="shape1733-148" transform="translate(65.6581,-13.1754)">
			<title>Sheet.1733</title>
			<path d="M0 116.85 L445.19 116.85" class="st1"/>
		</g>
		<g id="shape1734-151" transform="translate(63.5382,-2.18423)">
			<title>Sheet.1734</title>
			<desc>0</desc>
			<rect x="0" y="109.213" width="6.35981" height="7.63178" class="st6"/>
			<text x="0" y="116.03" class="st7">0</text>		</g>
		<g id="shape1735-154" transform="translate(125.281,-2.18423)">
			<title>Sheet.1735</title>
			<desc>10</desc>
			<rect x="0" y="109.213" width="12.7196" height="7.63178" class="st6"/>
			<text x="0" y="116.03" class="st7">10</text>		</g>
		<g id="shape1736-157" transform="translate(188.614,-2.18423)">
			<title>Sheet.1736</title>
			<desc>20</desc>
			<rect x="0" y="109.213" width="12.7196" height="7.63178" class="st6"/>
			<text x="0" y="116.03" class="st7">20</text>		</g>
		<g id="shape1737-160" transform="translate(252.213,-2.18423)">
			<title>Sheet.1737</title>
			<desc>30</desc>
			<rect x="0" y="109.213" width="12.7196" height="7.63178" class="st6"/>
			<text x="0" y="116.03" class="st7">30</text>		</g>
		<g id="shape1738-163" transform="translate(315.811,-2.18423)">
			<title>Sheet.1738</title>
			<desc>40</desc>
			<rect x="0" y="109.213" width="12.7196" height="7.63178" class="st6"/>
			<text x="0" y="116.03" class="st7">40</text>		</g>
		<g id="shape1739-166" transform="translate(379.409,-2.18423)">
			<title>Sheet.1739</title>
			<desc>50</desc>
			<rect x="0" y="109.213" width="12.7196" height="7.63178" class="st6"/>
			<text x="0" y="116.03" class="st7">50</text>		</g>
		<g id="shape1740-169" transform="translate(443.007,-2.18423)">
			<title>Sheet.1740</title>
			<desc>60</desc>
			<rect x="0" y="109.213" width="12.7196" height="7.63178" class="st6"/>
			<text x="0" y="116.03" class="st7">60</text>		</g>
		<g id="shape1741-172" transform="translate(506.605,-2.18423)">
			<title>Sheet.1741</title>
			<desc>70</desc>
			<rect x="0" y="109.213" width="12.7196" height="7.63178" class="st6"/>
			<text x="0" y="116.03" class="st7">70</text>		</g>
		<g id="shape1742-175" transform="translate(354.218,1.275) rotate(90)">
			<title>Sheet.1742</title>
			<path d="M0 116.85 L102.39 116.85" class="st13"/>
		</g>
		<g id="shape1743-178" transform="translate(436.896,1.275) rotate(90)">
			<title>Sheet.1743</title>
			<path d="M0 116.85 L102.39 116.85" class="st13"/>
		</g>
		<g id="shape1744-181" transform="translate(259.891,-93.3634)">
			<title>Sheet.1744</title>
			<desc>LNA ramp-up</desc>
			<rect x="0" y="97.1976" width="39.7488" height="19.6474" class="st6"/>
			<text x="0" y="104.02" class="st12">LNA  <tspan x="0" dy="1.2em" class="st14">ramp</tspan>-up</text>		</g>
		<g id="shape1705-185" transform="translate(65.6581,-60.874)">
			<title>Sheet.1705</title>
			<path d="M4.52 116.85 L4.88 116.85 L166.83 116.85" class="st15"/>
		</g>
		<g id="shape1709-194" transform="translate(237.373,-60.874)">
			<title>Sheet.1709</title>
			<path d="M4.52 116.85 L4.88 116.85 L77.8 116.85" class="st15"/>
		</g>
	</g>
</svg>
