<?xml version="1.0" encoding="UTF-8" standalone="no"?>
<!DOCTYPE svg PUBLIC "-//W3C//DTD SVG 1.1//EN" "http://www.w3.org/Graphics/SVG/1.1/DTD/svg11.dtd">
<!-- Generated by Microsoft Visio, SVG Export FEM_sequence_simple.svg Page-1 -->
<svg xmlns="http://www.w3.org/2000/svg" xmlns:xlink="http://www.w3.org/1999/xlink" xmlns:ev="http://www.w3.org/2001/xml-events"
		width="3.76231in" height="5.06694in" viewBox="0 0 270.886 364.819" xml:space="preserve" color-interpolation-filters="sRGB"
		class="st11">
	<style type="text/css">
	<![CDATA[
		.st1 {stroke:#000000;stroke-linecap:butt;stroke-width:1}
		.st2 {stroke:#000000;stroke-dasharray:1,4;stroke-linecap:butt;stroke-width:1}
		.st3 {fill:#00a9ce;stroke:none;stroke-linecap:butt;stroke-width:1.125}
		.st4 {fill:#ffffff;font-family:Calibri;font-size:1.00001em}
		.st5 {marker-end:url(#mrkr4-60);stroke:#000000;stroke-linecap:butt;stroke-width:1}
		.st6 {fill:#000000;fill-opacity:1;stroke:#000000;stroke-opacity:1;stroke-width:0.28409090909091}
		.st7 {fill:none;stroke:none;stroke-linecap:butt;stroke-width:0.75}
		.st8 {fill:#000000;font-family:Arial;font-size:0.833336em}
		.st9 {fill:#000000;font-family:Arial;font-size:0.666664em}
		.st10 {marker-start:url(#mrkr4-103);stroke:#000000;stroke-linecap:butt;stroke-width:1}
		.st11 {fill:none;fill-rule:evenodd;font-size:12px;overflow:visible;stroke-linecap:square;stroke-miterlimit:3}
	]]>
	</style>

	<defs id="Markers">
		<g id="lend4">
			<path d="M 2 1 L 0 0 L 2 -1 L 2 1 " style="stroke:none"/>
		</g>
		<marker id="mrkr4-60" class="st6" refX="-7.04" orient="auto" markerUnits="strokeWidth" overflow="visible">
			<use xlink:href="#lend4" transform="scale(-3.52,-3.52) "/>
		</marker>
		<marker id="mrkr4-103" class="st6" refX="6.68" orient="auto" markerUnits="strokeWidth" overflow="visible">
			<use xlink:href="#lend4" transform="scale(3.52) "/>
		</marker>
	</defs>
	<g>
		<title>Page-1</title>
		<g id="shape1500-1" transform="translate(401.706,23.6465) rotate(90)">
			<title>Sheet.1500</title>
			<path d="M0 364.82 L161.4 364.82" class="st1"/>
		</g>
		<g id="shape1501-4" transform="translate(401.706,185.043) rotate(90)">
			<title>Sheet.1501</title>
			<path d="M0 364.82 L30.6 364.82" class="st2"/>
		</g>
		<g id="shape1502-7" transform="translate(401.706,215.646) rotate(90)">
			<title>Sheet.1502</title>
			<path d="M0 364.82 L43.7 364.82" class="st1"/>
		</g>
		<g id="shape1503-10" transform="translate(401.706,259.346) rotate(90)">
			<title>Sheet.1503</title>
			<path d="M0 364.82 L30.6 364.82" class="st2"/>
		</g>
		<g id="shape1504-13" transform="translate(401.706,289.949) rotate(90)">
			<title>Sheet.1504</title>
			<path d="M0 364.82 L51.2 364.82" class="st1"/>
		</g>
		<g id="shape1505-16" transform="translate(487.956,23.6465) rotate(90)">
			<title>Sheet.1505</title>
			<path d="M0 364.82 L161.4 364.82" class="st1"/>
		</g>
		<g id="shape1506-19" transform="translate(487.956,185.043) rotate(90)">
			<title>Sheet.1506</title>
			<path d="M0 364.82 L30.6 364.82" class="st2"/>
		</g>
		<g id="shape1507-22" transform="translate(487.956,215.646) rotate(90)">
			<title>Sheet.1507</title>
			<path d="M0 364.82 L43.7 364.82" class="st1"/>
		</g>
		<g id="shape1508-25" transform="translate(487.956,259.346) rotate(90)">
			<title>Sheet.1508</title>
			<path d="M0 364.82 L30.6 364.82" class="st2"/>
		</g>
		<g id="shape1509-28" transform="translate(487.956,289.949) rotate(90)">
			<title>Sheet.1509</title>
			<path d="M0 364.82 L51.2 364.82" class="st1"/>
		</g>
		<g id="shape1510-31" transform="translate(604.581,23.6465) rotate(90)">
			<title>Sheet.1510</title>
			<path d="M0 364.82 L161.4 364.82" class="st1"/>
		</g>
		<g id="shape1511-34" transform="translate(604.581,185.043) rotate(90)">
			<title>Sheet.1511</title>
			<path d="M0 364.82 L30.6 364.82" class="st2"/>
		</g>
		<g id="shape1512-37" transform="translate(604.581,215.646) rotate(90)">
			<title>Sheet.1512</title>
			<path d="M0 364.82 L43.7 364.82" class="st1"/>
		</g>
		<g id="shape1513-40" transform="translate(604.581,259.346) rotate(90)">
			<title>Sheet.1513</title>
			<path d="M0 364.82 L30.6 364.82" class="st2"/>
		</g>
		<g id="shape1514-43" transform="translate(604.581,289.949) rotate(90)">
			<title>Sheet.1514</title>
			<path d="M0 364.82 L51.2 364.82" class="st1"/>
		</g>
		<g id="shape1515-46" transform="translate(1.125,-340.972)">
			<title>Sheet.1515</title>
			<desc>Application</desc>
			<rect x="0" y="342.097" width="71.25" height="22.7227" class="st3"/>
			<text x="7.98" y="357.06" class="st4">Application</text>		</g>
		<g id="shape1519-49" transform="translate(87.5113,-340.972)">
			<title>Sheet.1519</title>
			<desc>FEM module</desc>
			<rect x="0" y="342.097" width="71.25" height="22.7227" class="st3"/>
			<text x="4.83" y="357.06" class="st4">FEM module</text>		</g>
		<g id="shape1525-52" transform="translate(209.761,-340.972)">
			<title>Sheet.1525</title>
			<desc>Hardware</desc>
			<rect x="0" y="342.097" width="60" height="22.7227" class="st3"/>
			<text x="5.9" y="357.06" class="st4">Hardware</text>		</g>
		<g id="shape1530-55" transform="translate(37.2613,-283.775)">
			<title>Sheet.1530</title>
			<path d="M0 364.82 L78.83 364.82" class="st5"/>
		</g>
		<g id="shape1531-61" transform="translate(42.5113,-318.698)">
			<title>Sheet.1531</title>
			<desc>configure LNA</desc>
			<rect x="0" y="353.119" width="126.75" height="11.7" class="st7"/>
			<text x="0" y="361.97" class="st8">configure LNA</text>		</g>
		<g id="shape1532-64" transform="translate(42.5113,-307.348)">
			<title>Sheet.1532</title>
			<desc>time = 40 us</desc>
			<rect x="0" y="353.119" width="117" height="11.7" class="st7"/>
			<text x="0" y="361.97" class="st8">time = 40 us</text>		</g>
		<g id="shape1533-67" transform="translate(42.5113,-295.999)">
			<title>Sheet.1533</title>
			<desc>timer=TIMER0</desc>
			<rect x="0" y="353.119" width="117" height="11.7" class="st7"/>
			<text x="0" y="361.97" class="st8">timer=TIMER0</text>		</g>
		<g id="shape1534-70" transform="translate(42.5113,-284.649)">
			<title>Sheet.1534</title>
			<desc>event=rx_end</desc>
			<rect x="0" y="353.119" width="117" height="11.7" class="st7"/>
			<text x="0" y="361.97" class="st8">event=rx_end</text>		</g>
		<g id="shape1539-73" transform="translate(132.136,-251.775)">
			<title>Sheet.1539</title>
			<desc>calculate timings</desc>
			<rect x="0" y="353.119" width="87.75" height="11.7" class="st7"/>
			<text x="0" y="361.97" class="st8">calculate timings</text>		</g>
		<g id="shape1542-76" transform="translate(123.511,-207.626)">
			<title>Sheet.1542</title>
			<path d="M0 364.82 L109.21 364.82" class="st5"/>
		</g>
		<g id="shape1543-81" transform="translate(132.136,-219.85)">
			<title>Sheet.1543</title>
			<desc>set TIMER0</desc>
			<rect x="0" y="353.119" width="107.625" height="11.7" class="st7"/>
			<text x="0" y="361.97" class="st8">set TIMER0</text>		</g>
		<g id="shape1544-84" transform="translate(132.136,-208.501)">
			<title>Sheet.1544</title>
			<desc>compare channel to 27us</desc>
			<rect x="0" y="353.119" width="107.625" height="11.7" class="st7"/>
			<text x="0" y="361.37" class="st9">compare channel to 27us</text>		</g>
		<g id="shape1546-87" transform="translate(37.2613,-185.776)">
			<title>Sheet.1546</title>
			<path d="M0 364.82 L195.46 364.82" class="st5"/>
		</g>
		<g id="shape1547-92" transform="translate(42.5113,-186.651)">
			<title>Sheet.1547</title>
			<desc>start TIMER0</desc>
			<rect x="0" y="353.119" width="117" height="11.7" class="st7"/>
			<text x="0" y="361.97" class="st8">start TIMER0</text>		</g>
		<g id="shape1548-95" transform="translate(88.6363,-159.144)">
			<title>Sheet.1548</title>
			<desc>Waiting for timer event</desc>
			<rect x="0" y="354.919" width="102" height="9.9" class="st7"/>
			<text x="0" y="362.87" class="st8">Waiting for timer event</text>		</g>
		<g id="shape1550-98" transform="translate(123.136,-133.323)">
			<title>Sheet.1550</title>
			<path d="M6.68 364.82 L7.04 364.82 L115.87 364.82" class="st10"/>
		</g>
		<g id="shape1551-104" transform="translate(132.136,-134.198)">
			<title>Sheet.1551</title>
			<desc>TIMER0 event</desc>
			<rect x="0" y="353.119" width="71.25" height="11.7" class="st7"/>
			<text x="0" y="361.97" class="st8">TIMER0 event</text>		</g>
		<g id="shape1553-107" transform="translate(123.511,-111.474)">
			<title>Sheet.1553</title>
			<path d="M0 364.82 L108.82 364.82" class="st5"/>
		</g>
		<g id="shape1554-112" transform="translate(132.136,-112.348)">
			<title>Sheet.1554</title>
			<desc>activate LNA</desc>
			<rect x="0" y="353.119" width="60" height="11.7" class="st7"/>
			<text x="0" y="361.97" class="st8">activate LNA</text>		</g>
		<g id="shape1555-115" transform="translate(109.74,-84.841)">
			<title>Sheet.1555</title>
			<desc>Rx operation</desc>
			<rect x="0" y="354.919" width="58.5" height="9.9" class="st7"/>
			<text x="0" y="362.87" class="st8">Rx operation</text>		</g>
		<g id="shape1557-118" transform="translate(123.136,-59.0206)">
			<title>Sheet.1557</title>
			<path d="M6.68 364.82 L7.04 364.82 L115.87 364.82" class="st10"/>
		</g>
		<g id="shape1558-123" transform="translate(132.136,-59.8951)">
			<title>Sheet.1558</title>
			<desc>rx_end</desc>
			<rect x="0" y="353.119" width="58.5" height="11.7" class="st7"/>
			<text x="0" y="361.97" class="st8">rx_end</text>		</g>
		<g id="shape1560-126" transform="translate(123.511,-37.171)">
			<title>Sheet.1560</title>
			<path d="M0 364.82 L109.21 364.82" class="st5"/>
		</g>
		<g id="shape1561-131" transform="translate(132.136,-38.0455)">
			<title>Sheet.1561</title>
			<desc>deactivate LNA</desc>
			<rect x="0" y="353.119" width="102" height="11.7" class="st7"/>
			<text x="0" y="361.97" class="st8">deactivate LNA</text>		</g>
		<g id="shape1562-134" transform="translate(116.05,-252.106)">
			<title>Dynamic connector</title>
			<path d="M7.09 365.81 L53.57 365.81 L53.57 378 L14.13 378" class="st5"/>
		</g>
		<g id="shape1563-139" transform="translate(1.26132,-1.125)">
			<title>Sheet.1563</title>
			<desc>Application</desc>
			<rect x="0" y="342.097" width="71.25" height="22.7227" class="st3"/>
			<text x="7.98" y="357.06" class="st4">Application</text>		</g>
		<g id="shape1564-142" transform="translate(87.5113,-1.125)">
			<title>Sheet.1564</title>
			<desc>FEM module</desc>
			<rect x="0" y="342.097" width="71.25" height="22.7227" class="st3"/>
			<text x="4.83" y="357.06" class="st4">FEM module</text>		</g>
		<g id="shape1565-145" transform="translate(209.761,-1.125)">
			<title>Sheet.1565</title>
			<desc>Hardware</desc>
			<rect x="0" y="342.097" width="60" height="22.7227" class="st3"/>
			<text x="5.9" y="357.06" class="st4">Hardware</text>		</g>
	</g>
</svg>
