<?xml version="1.0" encoding="UTF-8" standalone="no"?>
<!DOCTYPE svg PUBLIC "-//W3C//DTD SVG 1.1//EN" "http://www.w3.org/Graphics/SVG/1.1/DTD/svg11.dtd">
<!-- Generated by Microsoft Visio, SVG Export mpsl_coex_1wire_timing_grant.svg Page-1 -->
<svg xmlns="http://www.w3.org/2000/svg" xmlns:xlink="http://www.w3.org/1999/xlink" xmlns:ev="http://www.w3.org/2001/xml-events"
		width="7.2434in" height="0.89612in" viewBox="0 0 521.525 64.5207" xml:space="preserve" color-interpolation-filters="sRGB"
		class="st9">
	<style type="text/css">
	<![CDATA[
		.st1 {stroke:#d9e1e2;stroke-dasharray:4,2;stroke-linecap:butt;stroke-width:1}
		.st2 {fill:none;stroke:none;stroke-width:1}
		.st3 {fill:#000000;font-family:Calibri;font-size:1.00001em}
		.st4 {stroke:#000000;stroke-linecap:butt;stroke-width:1}
		.st5 {stroke:#000000;stroke-dasharray:8,4;stroke-linecap:butt;stroke-width:1}
		.st6 {fill:#000000;stroke:none;stroke-width:1}
		.st7 {stroke:#ee2f4e;stroke-linecap:butt;stroke-width:1}
		.st8 {stroke:#00a9ce;stroke-linecap:butt;stroke-width:1}
		.st9 {fill:none;fill-rule:evenodd;font-size:12px;overflow:visible;stroke-linecap:square;stroke-miterlimit:3}
	]]>
	</style>

	<g>
		<title>Page-1</title>
		<g id="shape1764-1" transform="translate(494.691,1.04221) rotate(90)">
			<title>Sheet.1764</title>
			<path d="M0 64.52 L54.63 64.52" class="st1"/>
		</g>
		<g id="shape1765-4" transform="translate(512.112,1) rotate(90)">
			<title>Sheet.1765</title>
			<path d="M0 64.52 L54.63 64.52" class="st1"/>
		</g>
		<g id="shape1762-7" transform="translate(227.467,1.1369) rotate(90)">
			<title>Sheet.1762</title>
			<path d="M0 64.52 L54.63 64.52" class="st1"/>
		</g>
		<g id="shape1763-10" transform="translate(244.888,1.09469) rotate(90)">
			<title>Sheet.1763</title>
			<path d="M0 64.52 L54.63 64.52" class="st1"/>
		</g>
		<g id="shape1752-13" transform="translate(1,-39.8799)">
			<title>Sheet.1752</title>
			<desc>BLE_GRANT</desc>
			<rect x="0" y="44.5207" width="71.748" height="20" class="st2"/>
			<text x="4" y="58.12" class="st3">BLE_GRANT</text>		</g>
		<g id="shape1753-16" transform="translate(1,-12.4933)">
			<title>Sheet.1753</title>
			<desc>BLE radio state</desc>
			<rect x="0" y="44.5207" width="83.0866" height="20" class="st2"/>
			<text x="4" y="58.12" class="st3">BLE radio state</text>		</g>
		<g id="shape1754-19" transform="translate(1.88583,-29.1)">
			<title>Dynamic connector</title>
			<path d="M0 57.43 L494.39 57.43" class="st4"/>
		</g>
		<g id="shape1755-22" transform="translate(1.88583,-1.71339)">
			<title>Dynamic connector.1755</title>
			<path d="M0 57.43 L494.29 57.43" class="st4"/>
		</g>
		<g id="shape1756-25" transform="translate(80.8212,-44.1318)">
			<title>Dynamic connector.1756</title>
			<path d="M0 57.43 L415.51 57.43" class="st5"/>
		</g>
		<g id="shape1757-28" transform="translate(80.7378,-15.4067)">
			<title>Dynamic connector.1757</title>
			<path d="M0 57.43 L415.28 57.43" class="st5"/>
		</g>
		<g id="shape1759-31" transform="translate(80.213,-8.86646)">
			<title>Nordic Dark Grey</title>
			<rect x="0" y="9.88044" width="0.941623" height="54.6402" class="st6"/>
		</g>
		<g id="shape1766-33" transform="translate(430.17,-29.1)">
			<title>Dynamic connector.1766</title>
			<path d="M0 57.43 L0 42.4 L-267.22 42.4 L-267.22 57.43" class="st7"/>
		</g>
		<g id="shape1768-36" transform="translate(81.1547,-22.4933)">
			<title>Sheet.1768</title>
			<path d="M0 64.52 L81.79 64.52" class="st8"/>
		</g>
		<g id="shape1769-39" transform="translate(202.818,-8.69911) rotate(38.1677)">
			<title>Sheet.1769</title>
			<path d="M0 64.52 L22.16 64.52" class="st8"/>
		</g>
		<g id="shape1770-42" transform="translate(390.394,4.86743) rotate(-38.0609)">
			<title>Sheet.1770</title>
			<path d="M0 64.52 L22.13 64.52" class="st8"/>
		</g>
		<g id="shape1771-45" transform="translate(447.592,-22.4933)">
			<title>Sheet.1771</title>
			<path d="M0 64.52 L48.43 64.52" class="st8"/>
		</g>
		<g id="shape1772-48" transform="translate(496.273,-44.5995)">
			<title>Sheet.1772</title>
			<desc>1</desc>
			<rect x="0" y="52.2324" width="14.7402" height="12.2882" class="st2"/>
			<text x="4.33" y="61.98" class="st3">1</text>		</g>
		<g id="shape1773-51" transform="translate(496.273,-30.0425)">
			<title>Sheet.1773</title>
			<desc>0</desc>
			<rect x="0" y="52.2324" width="14.7402" height="12.2882" class="st2"/>
			<text x="4.33" y="61.98" class="st3">0</text>		</g>
		<g id="shape1774-54" transform="translate(496.273,-17.7542)">
			<title>Sheet.1774</title>
			<desc>on</desc>
			<rect x="0" y="52.2324" width="21.4173" height="12.2882" class="st2"/>
			<text x="4.39" y="61.98" class="st3">on</text>		</g>
		<g id="shape1775-57" transform="translate(496.273,-3.19718)">
			<title>Sheet.1775</title>
			<desc>off</desc>
			<rect x="0" y="52.2324" width="24.252" height="12.2882" class="st2"/>
			<text x="5.3" y="61.98" class="st3">off</text>		</g>
	</g>
</svg>
