<?xml version="1.0" encoding="UTF-8" standalone="no"?>
<!DOCTYPE svg PUBLIC "-//W3C//DTD SVG 1.1//EN" "http://www.w3.org/Graphics/SVG/1.1/DTD/svg11.dtd">
<!-- Generated by Microsoft Visio, SVG Export mpsl_coex_3wire_timings_delays.svg Page-1 -->
<svg xmlns="http://www.w3.org/2000/svg" xmlns:xlink="http://www.w3.org/1999/xlink" xmlns:ev="http://www.w3.org/2001/xml-events"
		width="6.39589in" height="2.1413in" viewBox="0 0 460.504 154.173" xml:space="preserve" color-interpolation-filters="sRGB"
		class="st12">
	<style type="text/css">
	<![CDATA[
		.st1 {fill:none;stroke:none;stroke-width:1}
		.st2 {fill:#000000;font-family:Calibri;font-size:1.00001em}
		.st3 {fill:#00a9ce;font-family:Calibri;font-size:0.833336em}
		.st4 {fill:#ee2f4e;font-family:Calibri;font-size:1.00001em}
		.st5 {fill:#000000;stroke:none;stroke-width:1}
		.st6 {marker-end:url(#mrkr4-49);stroke:#00a9ce;stroke-linecap:butt;stroke-width:1}
		.st7 {fill:#00a9ce;fill-opacity:1;stroke:#00a9ce;stroke-opacity:1;stroke-width:0.28409090909091}
		.st8 {fill:#ee2f4e;stroke:none;stroke-width:1}
		.st9 {marker-end:url(#mrkr4-68);stroke:#ee2f4e;stroke-linecap:butt;stroke-width:1}
		.st10 {fill:#ee2f4e;fill-opacity:1;stroke:#ee2f4e;stroke-opacity:1;stroke-width:0.28409090909091}
		.st11 {fill:#00a9ce;stroke:none;stroke-width:1}
		.st12 {fill:none;fill-rule:evenodd;font-size:12px;overflow:visible;stroke-linecap:square;stroke-miterlimit:3}
	]]>
	</style>

	<defs id="Markers">
		<g id="lend4">
			<path d="M 2 1 L 0 0 L 2 -1 L 2 1 " style="stroke:none"/>
		</g>
		<marker id="mrkr4-49" class="st7" refX="-7.04" orient="auto" markerUnits="strokeWidth" overflow="visible">
			<use xlink:href="#lend4" transform="scale(-3.52,-3.52) "/>
		</marker>
		<marker id="mrkr4-68" class="st10" refX="-7.04" orient="auto" markerUnits="strokeWidth" overflow="visible">
			<use xlink:href="#lend4" transform="scale(-3.52,-3.52) "/>
		</marker>
	</defs>
	<g>
		<title>Page-1</title>
		<g id="shape1776-1" transform="translate(1,-35.2635)">
			<title>Sheet.1776</title>
			<desc>BLE_GRANT</desc>
			<rect x="0" y="134.173" width="71.748" height="20" class="st1"/>
			<text x="4" y="147.77" class="st2">BLE_GRANT</text>		</g>
		<g id="shape1777-4" transform="translate(1,-83.4528)">
			<title>Sheet.1777</title>
			<desc>BLE_PRI_STATUS</desc>
			<rect x="0" y="134.173" width="91.075" height="20" class="st1"/>
			<text x="4" y="147.77" class="st2">BLE_PRI_STATUS</text>		</g>
		<g id="shape1778-7" transform="translate(1,-131.347)">
			<title>Sheet.1778</title>
			<desc>BLE_REQUEST</desc>
			<rect x="0" y="134.173" width="91.075" height="20" class="st1"/>
			<text x="4" y="147.77" class="st2">BLE_REQUEST</text>		</g>
		<g id="shape1785-10" transform="translate(159.43,-139.433)">
			<title>Sheet.1785</title>
			<desc>type_delay_us</desc>
			<rect x="0" y="142.163" width="67.1509" height="12.0108" class="st1"/>
			<text x="4" y="151.17" class="st3">type_delay_us</text>		</g>
		<g id="shape1786-13" transform="translate(221.425,-70.0469)">
			<title>Sheet.1786</title>
			<desc>radio_delay_us</desc>
			<rect x="0" y="134.173" width="73.3861" height="20" class="st1"/>
			<text x="4" y="147.17" class="st3">radio_delay_us</text>		</g>
		<g id="shape1788-16" transform="translate(182.672,-124.345)">
			<title>Sheet.1788</title>
			<desc>T1</desc>
			<rect x="0" y="144.005" width="20.667" height="10.1683" class="st1"/>
			<text x="4" y="152.69" class="st4">T1</text>		</g>
		<g id="shape1790-19" transform="translate(181.388,-58.0323)">
			<title>Sheet.1790</title>
			<desc>T2</desc>
			<rect x="0" y="134.173" width="23.2351" height="20" class="st1"/>
			<text x="4" y="147.77" class="st4">T2</text>		</g>
		<g id="shape1791-22" transform="translate(375.598,-132.793)">
			<title>Sheet.1791</title>
			<desc>T3</desc>
			<rect x="0" y="144.005" width="20.2502" height="10.1683" class="st1"/>
			<text x="4" y="152.69" class="st4">T3</text>		</g>
		<g id="shape1779-25" transform="translate(250.121,21.8852) rotate(90)">
			<title>Nordic Dark Grey.1779</title>
			<rect x="0" y="90.6773" width="0.941623" height="63.4961" class="st5"/>
		</g>
		<g id="shape1780-27" transform="translate(158.502,-131.347)">
			<title>Nordic Dark Grey.1780</title>
			<rect x="0" y="132.347" width="0.941623" height="21.8268" class="st5"/>
		</g>
		<g id="shape1781-29" transform="translate(313.146,1) rotate(90)">
			<title>Nordic Dark Grey.1781</title>
			<rect x="0" y="-90.0769" width="0.941623" height="244.25" class="st5"/>
		</g>
		<g id="shape1782-31" transform="translate(402.281,-131.347)">
			<title>Nordic Dark Grey.1782</title>
			<rect x="0" y="132.347" width="0.941623" height="21.8268" class="st5"/>
		</g>
		<g id="shape1783-33" transform="translate(556.455,21.8852) rotate(90)">
			<title>Nordic Dark Grey.1783</title>
			<rect x="0" y="102.775" width="0.941623" height="51.3983" class="st5"/>
		</g>
		<g id="shape1789-35" transform="translate(179.843,-92.4544)">
			<title>Sheet.1789</title>
			<desc>PRI</desc>
			<rect x="0" y="142.163" width="26.3248" height="12.0108" class="st1"/>
			<text x="4" y="151.77" class="st2">PRI</text>		</g>
		<g id="shape1792-38" transform="translate(299.774,-92.4544)">
			<title>Sheet.1792</title>
			<desc>TYPE</desc>
			<rect x="0" y="142.163" width="35.4286" height="12.0108" class="st1"/>
			<text x="4" y="151.77" class="st2">TYPE</text>		</g>
		<g id="shape1787-41" transform="translate(216.797,-1)">
			<title>Sheet.1787</title>
			<desc>radio_start_time_us</desc>
			<rect x="0" y="142.24" width="92.8618" height="11.9335" class="st1"/>
			<text x="4" y="151.21" class="st3">radio_start_time_us</text>		</g>
		<g id="shape1810-44" transform="translate(256.141,-12.9335)">
			<title>Dynamic connector</title>
			<path d="M7.09 154.17 L7.09 141.05" class="st6"/>
		</g>
		<g id="group1813-50" transform="translate(95.9473,-24.5919)">
			<title>Sheet.1813</title>
			<g id="shape1795-51" transform="translate(154.173,135.09) rotate(90)">
				<title>Nordic Dark Grey.1795</title>
				<rect x="0" y="-127.59" width="0.941623" height="281.764" class="st5"/>
			</g>
			<g id="shape1796-53" transform="translate(280.822,0)">
				<title>Nordic Dark Grey.1796</title>
				<rect x="0" y="135.09" width="0.941623" height="19.0834" class="st5"/>
			</g>
			<g id="shape1797-55" transform="translate(435.466,153.232) rotate(90)">
				<title>Nordic Dark Grey.1797</title>
				<rect x="0" y="78.5845" width="0.941623" height="75.5889" class="st5"/>
			</g>
		</g>
		<g id="group1828-57" transform="translate(158.418,-107.885)">
			<title>Sheet.1828</title>
			<g id="group1824-58" transform="translate(0,-13.4154)">
				<title>Sheet.1824</title>
				<g id="shape1825-59" transform="translate(154.173,153.232) rotate(90)">
					<title>Nordic Dark Grey.1814</title>
					<rect x="0" y="91.1982" width="0.941623" height="62.9752" class="st8"/>
				</g>
				<g id="shape1826-61" transform="translate(0.0230004,-0.470811)">
					<title>Nordic Dark Grey.1815</title>
					<rect x="0" y="144.598" width="1.03561" height="9.57551" class="st8"/>
				</g>
			</g>
			<g id="shape1827-63" transform="translate(55.8886,-14.0297)">
				<title>Dynamic connector.1827</title>
				<path d="M7.09 154.32 L7.09 161.16" class="st9"/>
			</g>
		</g>
		<g id="group1829-69" transform="translate(158.475,-123.885)">
			<title>Sheet.1829</title>
			<g id="group1821-70" transform="translate(-1.59872E-14,-13.2728)">
				<title>Sheet.1821</title>
				<g id="shape1819-71" transform="translate(154.173,153.232) rotate(90)">
					<title>Nordic Dark Grey.1814</title>
					<rect x="0" y="91.1982" width="0.941623" height="62.9752" class="st11"/>
				</g>
				<g id="shape1820-73" transform="translate(0.0230004,-0.470811)">
					<title>Nordic Dark Grey.1815</title>
					<rect x="0" y="147.274" width="1.03561" height="6.89927" class="st11"/>
				</g>
			</g>
			<g id="shape1823-75" transform="translate(55.8886,-14.799)">
				<title>Dynamic connector</title>
				<path d="M7.09 155.23 L7.09 160.25" class="st6"/>
			</g>
		</g>
		<g id="group1836-80" transform="translate(221.425,-70.0469)">
			<title>Sheet.1836</title>
			<g id="shape1837-81" transform="translate(154.173,153.232) rotate(90)">
				<title>Nordic Dark Grey.1814</title>
				<rect x="0" y="112.371" width="0.941623" height="41.8028" class="st11"/>
			</g>
		</g>
		<g id="shape1793-83" transform="translate(255.945,64.7188) rotate(90)">
			<title>Nordic Dark Grey.1793</title>
			<rect x="0" y="37.386" width="0.941623" height="116.787" class="st5"/>
		</g>
		<g id="shape1794-85" transform="translate(379.252,64.7188) rotate(90)">
			<title>Nordic Dark Grey.1794</title>
			<rect x="0" y="-80.2518" width="0.941623" height="234.425" class="st5"/>
		</g>
		<g id="shape1799-87" transform="translate(204.332,-83.5033) rotate(15)">
			<title>Nordic Dark Grey.1799</title>
			<rect x="0" y="133.411" width="0.941623" height="20.762" class="st5"/>
		</g>
		<g id="shape1800-89" transform="translate(323.989,45.3622) rotate(90)">
			<title>Nordic Dark Grey.1800</title>
			<rect x="0" y="105.43" width="0.941623" height="48.7438" class="st5"/>
		</g>
		<g id="shape1801-91" transform="translate(168.64,-89.0451) rotate(-20)">
			<title>Nordic Dark Grey.1801</title>
			<rect x="0" y="143.376" width="0.941623" height="10.7974" class="st5"/>
		</g>
		<g id="shape1802-93" transform="translate(270.408,-79.6) rotate(20)">
			<title>Nordic Dark Grey.1802</title>
			<rect x="0" y="143.426" width="0.941623" height="10.7477" class="st5"/>
		</g>
		<g id="shape1803-95" transform="translate(379.264,45.3622) rotate(90)">
			<title>Nordic Dark Grey.1803</title>
			<rect x="0" y="-27.7987" width="0.941623" height="181.972" class="st5"/>
		</g>
		<g id="shape1804-97" transform="translate(371.519,-84.0021) rotate(-15)">
			<title>Nordic Dark Grey.1804</title>
			<rect x="0" y="134.18" width="0.941623" height="19.9933" class="st5"/>
		</g>
		<g id="shape1805-99" transform="translate(274.124,-89.3671) rotate(20)">
			<title>Nordic Dark Grey.1805</title>
			<rect x="0" y="143.376" width="0.941623" height="10.7974" class="st5"/>
		</g>
		<g id="shape1806-101" transform="translate(172.356,-79.2779) rotate(-20)">
			<title>Nordic Dark Grey.1806</title>
			<rect x="0" y="143.376" width="0.941623" height="10.7974" class="st5"/>
		</g>
		<g id="shape1844-103" transform="translate(377.256,-43.6954)">
			<title>Dynamic connector.1827</title>
			<path d="M0 154.17 L0 66.52 L17.99 66.52" class="st9"/>
		</g>
		<g id="group1846-108" transform="translate(221.44,-57.3999)">
			<title>Sheet.1846</title>
			<g id="shape1838-109" transform="translate(-3.3723E-15,-13.1179)">
				<title>Nordic Dark Grey.1815</title>
				<rect x="0" y="127.219" width="0.687436" height="26.9548" class="st11"/>
			</g>
			<g id="shape1839-111" transform="translate(34.7009,-14.1732)">
				<title>Dynamic connector</title>
				<path d="M7.09 155.23 L7.09 160.25" class="st6"/>
			</g>
		</g>
		<g id="group1847-116" transform="translate(158.418,-43.668)">
			<title>Sheet.1847</title>
			<g id="shape1832-117" transform="translate(154.173,139.809) rotate(90)">
				<title>Nordic Dark Grey.1814</title>
				<rect x="0" y="48.962" width="0.941623" height="105.211" class="st8"/>
			</g>
			<g id="shape1834-119" transform="translate(98.1248,-14.1732)">
				<title>Dynamic connector.1834</title>
				<path d="M7.09 154.45 L7.09 161.03" class="st9"/>
			</g>
			<g id="shape1833-124" transform="translate(1.34892E-14,-13.9171)">
				<title>Nordic Dark Grey.1815</title>
				<rect x="0" y="90.4346" width="1.03561" height="63.7388" class="st8"/>
			</g>
		</g>
	</g>
</svg>
