<?xml version="1.0" encoding="UTF-8" standalone="no"?>
<!DOCTYPE svg PUBLIC "-//W3C//DTD SVG 1.1//EN" "http://www.w3.org/Graphics/SVG/1.1/DTD/svg11.dtd">
<!-- Generated by Microsoft Visio, SVG Export timeslot_extend.svg Page-1 -->
<svg xmlns="http://www.w3.org/2000/svg" xmlns:xlink="http://www.w3.org/1999/xlink" xmlns:ev="http://www.w3.org/2001/xml-events"
		width="7.34017in" height="3.29725in" viewBox="0 0 528.492 237.402" xml:space="preserve" color-interpolation-filters="sRGB"
		class="st16">
	<style type="text/css">
	<![CDATA[
		.st1 {fill:none}
		.st2 {stroke:#000000;stroke-width:1}
		.st3 {fill:none;stroke:none;stroke-width:1}
		.st4 {fill:#000000;font-family:Calibri;font-size:0.833336em}
		.st5 {fill:#000000;font-family:Calibri;font-size:0.75em}
		.st6 {fill:#00a9ce;stroke:none;stroke-width:1}
		.st7 {fill:#768692;stroke:none;stroke-width:1}
		.st8 {fill:#feffff;font-family:Calibri;font-size:0.833336em}
		.st9 {font-size:1em}
		.st10 {marker-end:url(#mrkr4-39);stroke:#000000;stroke-dasharray:7,5;stroke-width:1}
		.st11 {fill:#000000;fill-opacity:1;stroke:#000000;stroke-opacity:1;stroke-width:0.28409090909091}
		.st12 {marker-start:url(#mrkr4-45);stroke:#000000;stroke-width:1}
		.st13 {marker-end:url(#mrkr4-39);marker-start:url(#mrkr4-45);stroke:#000000;stroke-width:1}
		.st14 {stroke:#000000;stroke-dasharray:7,5;stroke-width:1}
		.st15 {marker-end:url(#mrkr4-111);stroke:#000000;stroke-width:1}
		.st16 {fill:none;fill-rule:evenodd;font-size:12px;overflow:visible;stroke-linecap:square;stroke-miterlimit:3}
	]]>
	</style>

	<defs id="Markers">
		<g id="lend4">
			<path d="M 2 1 L 0 0 L 2 -1 L 2 1 " style="stroke:none"/>
		</g>
		<marker id="mrkr4-39" class="st11" refX="-7.04" orient="auto" markerUnits="strokeWidth" overflow="visible">
			<use xlink:href="#lend4" transform="scale(-3.52,-3.52) "/>
		</marker>
		<marker id="mrkr4-45" class="st11" refX="6.68" orient="auto" markerUnits="strokeWidth" overflow="visible">
			<use xlink:href="#lend4" transform="scale(3.52) "/>
		</marker>
		<marker id="mrkr4-111" class="st11" refX="-0" orient="auto" markerUnits="strokeWidth" overflow="visible">
			<use xlink:href="#lend4" transform="scale(-3.52,-3.52) "/>
		</marker>
	</defs>
	<g>
		<title>Page-1</title>
		<g id="shape2652-1" transform="translate(87.396,-6.94074)">
			<title>Sheet.2652</title>
			<path d="M0 237.4 L407.49 237.4 L0 237.4 Z" class="st1"/>
			<path d="M0 237.4 L407.49 237.4" class="st2"/>
		</g>
		<g id="shape2653-4" transform="translate(1,-2.57533)">
			<title>Sheet.2653</title>
			<desc>Signal handler</desc>
			<rect x="0" y="228.676" width="60.4574" height="8.72661" class="st3"/>
			<text x="-0" y="236.04" class="st4">Signal handler</text>		</g>
		<g id="shape2654-7" transform="translate(87.396,-172.773)">
			<title>Sheet.2654</title>
			<path d="M0 237.4 L407.43 237.4 L0 237.4 Z" class="st1"/>
			<path d="M0 237.4 L407.43 237.4" class="st2"/>
		</g>
		<g id="shape2655-10" transform="translate(1.5371,-169.182)">
			<title>Sheet.2655</title>
			<desc>Timeslot API</desc>
			<rect x="0" y="228.676" width="60.4574" height="8.72661" class="st3"/>
			<text x="-0" y="236.04" class="st4">Timeslot API</text>		</g>
		<g id="shape2656-13" transform="translate(1.5371,-197.797)">
			<title>Sheet.2656</title>
			<desc>Timeslots</desc>
			<rect x="0" y="228.676" width="60.4574" height="8.72661" class="st3"/>
			<text x="-0" y="236.04" class="st4">Timeslots</text>		</g>
		<g id="shape2657-16" transform="translate(329.062,114.503) rotate(90)">
			<title>Sheet.2657</title>
			<desc>signal: START</desc>
			<rect x="0" y="226.855" width="64.582" height="10.5474" class="st3"/>
			<text x="8.11" y="234.83" class="st5">signal: START</text>		</g>
		<g id="shape2658-19" transform="translate(363.818,127.956) rotate(90)">
			<title>Sheet.2658</title>
			<desc>&#60; . . . . &#62;</desc>
			<rect x="0" y="231.468" width="37.6747" height="5.93409" class="st3"/>
			<text x="4.72" y="237.14" class="st5">&#60; . . . . &#62;</text>		</g>
		<g id="shape2660-22" transform="translate(350.248,114.503) rotate(90)">
			<title>Sheet.2660</title>
			<desc>action: NONE</desc>
			<rect x="0" y="231.468" width="64.582" height="5.93409" class="st3"/>
			<text x="7.75" y="237.14" class="st5">action: NONE</text>		</g>
		<g id="shape2661-25" transform="translate(-133.492,18.8141) rotate(-90)">
			<title>Sheet.2661</title>
			<path d="M0 237.4 L13.79 237.4 L0 237.4 Z" class="st1"/>
			<path d="M0 237.4 L13.79 237.4" class="st2"/>
		</g>
		<g id="shape2662-28" transform="translate(103.908,-176.672)">
			<title>Sheet.2662</title>
			<rect x="0" y="198.935" width="80.4735" height="38.4669" class="st6"/>
		</g>
		<g id="shape2663-30" transform="translate(281.92,-176.672)">
			<title>Sheet.2663</title>
			<desc>Other scheduled activity</desc>
			<rect x="0" y="198.935" width="79.5867" height="38.4669" class="st7"/>
			<text x="6.12" y="215.17" class="st8">Other scheduled <tspan x="25.12" dy="1.2em" class="st9">activity</tspan></text>		</g>
		<g id="shape2664-34" transform="translate(-127.778,229.438) rotate(-90)">
			<title>Sheet.2664</title>
			<path d="M0 237.4 L155.5 237.4 L157.41 237.4" class="st10"/>
		</g>
		<g id="shape2665-40" transform="translate(-133.492,229.325) rotate(-90)">
			<title>Sheet.2665</title>
			<path d="M6.68 237.4 L7.04 237.4 L8.48 237.4 L8.95 237.4 L164.09 237.4" class="st12"/>
		</g>
		<g id="shape2666-46" transform="translate(-96.4728,229.438) rotate(-90)">
			<title>Sheet.2666</title>
			<path d="M0 237.4 L155.5 237.4 L157.41 237.4" class="st10"/>
		</g>
		<g id="shape2667-51" transform="translate(-103.672,229.494) rotate(-90)">
			<title>Sheet.2667</title>
			<path d="M6.68 237.4 L7.04 237.4 L8.48 237.4 L8.95 237.4 L164.2 237.4" class="st12"/>
		</g>
		<g id="shape2668-56" transform="translate(-53.9608,18.9179) rotate(-90)">
			<title>Sheet.2668</title>
			<path d="M0 237.4 L13.73 237.4 L0 237.4 Z" class="st1"/>
			<path d="M0 237.4 L13.73 237.4" class="st2"/>
		</g>
		<g id="shape2669-59" transform="translate(104.153,-224.584)">
			<title>Sheet.2669</title>
			<desc>10 ms</desc>
			<path d="M6.68 237.4 L7.04 237.4 L71.58 237.4" class="st13"/>
		</g>
		<g id="shape2670-66" transform="translate(499,-172.691)">
			<title>Sheet.2670</title>
			<path d="M0 237.4 L23.96 237.4 L0 237.4 Z" class="st1"/>
			<path d="M0 237.4 L23.96 237.4" class="st14"/>
		</g>
		<g id="shape2671-69" transform="translate(499.1,-6.93606)">
			<title>Sheet.2671</title>
			<path d="M0 237.4 L23.86 237.4 L0 237.4 Z" class="st1"/>
			<path d="M0 237.4 L23.86 237.4" class="st14"/>
		</g>
		<g id="shape2672-72" transform="translate(64.0061,-6.93606)">
			<title>Sheet.2672</title>
			<path d="M0 237.4 L19.9 237.4 L0 237.4 Z" class="st1"/>
			<path d="M0 237.4 L19.9 237.4" class="st14"/>
		</g>
		<g id="shape2673-75" transform="translate(64.0061,-172.773)">
			<title>Sheet.2673</title>
			<path d="M0 237.4 L19.9 237.4 L0 237.4 Z" class="st1"/>
			<path d="M0 237.4 L19.9 237.4" class="st14"/>
		</g>
		<g id="shape2674-78" transform="translate(401.929,83.2882) rotate(90)">
			<title>Sheet.2674</title>
			<desc>signal: EXTEND_SUCCEEDED</desc>
			<rect x="0" y="226.855" width="127.011" height="10.5474" class="st3"/>
			<text x="12.1" y="234.83" class="st5">signal: EXTEND_SUCCEEDED</text>		</g>
		<g id="shape2675-81" transform="translate(422.437,114.503) rotate(90)">
			<title>Sheet.2675</title>
			<desc>action: NONE</desc>
			<rect x="0" y="231.468" width="64.582" height="5.93409" class="st3"/>
			<text x="7.75" y="237.14" class="st5">action: NONE</text>		</g>
		<g id="shape2676-84" transform="translate(-55.2299,229.531) rotate(-90)">
			<title>Sheet.2676</title>
			<path d="M0 237.4 L155.5 237.4 L157.41 237.4" class="st10"/>
		</g>
		<g id="shape2677-89" transform="translate(-61.6463,229.418) rotate(-90)">
			<title>Sheet.2677</title>
			<path d="M6.68 237.4 L7.04 237.4 L8.48 237.4 L8.95 237.4 L164.09 237.4" class="st12"/>
		</g>
		<g id="shape2678-94" transform="translate(183.571,-176.672)">
			<title>Sheet.2678</title>
			<rect x="0" y="198.935" width="79.5867" height="38.4669" class="st6"/>
		</g>
		<g id="shape2679-96" transform="translate(25.7586,18.9179) rotate(-90)">
			<title>Sheet.2679</title>
			<path d="M0 237.4 L13.73 237.4 L0 237.4 Z" class="st1"/>
			<path d="M0 237.4 L13.73 237.4" class="st2"/>
		</g>
		<g id="shape2680-99" transform="translate(184.045,-224.584)">
			<title>Sheet.2680</title>
			<desc>10 ms</desc>
			<path d="M6.68 237.4 L7.04 237.4 L71.58 237.4" class="st13"/>
		</g>
		<g id="shape2681-106" transform="translate(184.381,-195.24)">
			<title>Sheet.2681</title>
			<path d="M0 237.4 L72.32 237.4 L78.77 237.4" class="st15"/>
		</g>
		<g id="shape2682-112" transform="translate(420.894,22.2628) rotate(90)">
			<title>Sheet.2682</title>
			<path d="M0 237.4 L38.46 237.4 L0 237.4 Z" class="st1"/>
			<path d="M0 237.4 L38.46 237.4" class="st14"/>
		</g>
		<g id="shape2683-115" transform="translate(500.557,22.2628) rotate(90)">
			<title>Sheet.2683</title>
			<path d="M0 237.4 L38.46 237.4 L0 237.4 Z" class="st1"/>
			<path d="M0 237.4 L38.46 237.4" class="st2"/>
		</g>
		<g id="shape2684-118" transform="translate(439.145,127.956) rotate(90)">
			<title>Sheet.2684</title>
			<desc>&#60; . . . . &#62;</desc>
			<rect x="0" y="231.468" width="37.6747" height="5.93409" class="st3"/>
			<text x="4.72" y="237.14" class="st5">&#60; . . . . &#62;</text>		</g>
		<g id="shape2686-121" transform="translate(-21.3097,229.438) rotate(-90)">
			<title>Sheet.2686</title>
			<path d="M0 237.4 L155.5 237.4 L157.41 237.4" class="st10"/>
		</g>
		<g id="shape2687-126" transform="translate(-28.4827,229.494) rotate(-90)">
			<title>Sheet.2687</title>
			<path d="M6.68 237.4 L7.04 237.4 L8.48 237.4 L8.95 237.4 L164.2 237.4" class="st12"/>
		</g>
		<g id="shape2688-131" transform="translate(476.807,92.3258) rotate(90)">
			<title>Sheet.2688</title>
			<desc>signal: EXTEND_FAILED</desc>
			<rect x="0" y="226.855" width="108.936" height="10.5474" class="st3"/>
			<text x="12.28" y="234.83" class="st5">signal: EXTEND_FAILED</text>		</g>
		<g id="shape2689-134" transform="translate(494.039,71.2053) rotate(90)">
			<title>Sheet.2689</title>
			<desc>action: REQUEST parameters: earliest, length = 10 ms</desc>
			<rect x="0" y="217.505" width="151.177" height="19.8968" class="st3"/>
			<text x="45.02" y="225.2" class="st5">action: REQUEST <tspan x="9.7" dy="1em" class="st9">parameters: earliest, length = 10 ms</tspan></text>		</g>
		<g id="shape2690-138" transform="translate(19.2347,229.531) rotate(-90)">
			<title>Sheet.2690</title>
			<path d="M0 237.4 L155.5 237.4 L157.41 237.4" class="st10"/>
		</g>
		<g id="shape2691-143" transform="translate(13.2671,229.418) rotate(-90)">
			<title>Sheet.2691</title>
			<path d="M6.68 237.4 L7.04 237.4 L8.48 237.4 L8.95 237.4 L164.09 237.4" class="st12"/>
		</g>
		<g id="shape2692-148" transform="translate(124.313,18.8141) rotate(-90)">
			<title>Sheet.2692</title>
			<path d="M0 237.4 L13.79 237.4 L0 237.4 Z" class="st1"/>
			<path d="M0 237.4 L13.79 237.4" class="st2"/>
		</g>
		<g id="shape2693-151" transform="translate(361.492,-176.672)">
			<title>Sheet.2693</title>
			<rect x="0" y="198.935" width="79.5867" height="38.4669" class="st6"/>
		</g>
		<g id="shape2694-153" transform="translate(203.502,18.9179) rotate(-90)">
			<title>Sheet.2694</title>
			<path d="M0 237.4 L13.73 237.4 L0 237.4 Z" class="st1"/>
			<path d="M0 237.4 L13.73 237.4" class="st2"/>
		</g>
		<g id="shape2695-156" transform="translate(361.959,-224.584)">
			<title>Sheet.2695</title>
			<desc>10 ms</desc>
			<path d="M6.68 237.4 L7.04 237.4 L71.17 237.4" class="st13"/>
		</g>
		<g id="shape2696-163" transform="translate(587.619,118.034) rotate(90)">
			<title>Sheet.2696</title>
			<desc>signal: START</desc>
			<rect x="0" y="226.855" width="57.519" height="10.5474" class="st3"/>
			<text x="4.57" y="234.83" class="st5">signal: START</text>		</g>
		<g id="shape2697-166" transform="translate(620.068,129.415) rotate(90)">
			<title>Sheet.2697</title>
			<desc>&#60; . . . . &#62;</desc>
			<rect x="0" y="231.468" width="34.7569" height="5.93409" class="st3"/>
			<text x="3.27" y="237.14" class="st5">&#60; . . . . &#62;</text>		</g>
		<g id="shape2699-169" transform="translate(609.108,118.034) rotate(90)">
			<title>Sheet.2699</title>
			<desc>action: NONE</desc>
			<rect x="0" y="231.468" width="57.519" height="5.93409" class="st3"/>
			<text x="4.22" y="237.14" class="st5">action: NONE</text>		</g>
		<g id="shape2700-172" transform="translate(131.4,229.438) rotate(-90)">
			<title>Sheet.2700</title>
			<path d="M0 237.4 L155.5 237.4 L157.41 237.4" class="st10"/>
		</g>
		<g id="shape2701-177" transform="translate(124.28,229.325) rotate(-90)">
			<title>Sheet.2701</title>
			<path d="M6.68 237.4 L7.04 237.4 L8.48 237.4 L8.95 237.4 L164.09 237.4" class="st12"/>
		</g>
		<g id="shape2702-182" transform="translate(160.198,229.438) rotate(-90)">
			<title>Sheet.2702</title>
			<path d="M0 237.4 L155.5 237.4 L157.41 237.4" class="st10"/>
		</g>
		<g id="shape2703-187" transform="translate(152.402,229.494) rotate(-90)">
			<title>Sheet.2703</title>
			<path d="M6.68 237.4 L7.04 237.4 L8.48 237.4 L8.95 237.4 L164.2 237.4" class="st12"/>
		</g>
		<g id="shape2704-192" transform="translate(659.352,88.3039) rotate(90)">
			<title>Sheet.2704</title>
			<desc>signal: EXTEND_SUCCEEDED</desc>
			<rect x="0" y="226.855" width="118.144" height="10.5474" class="st3"/>
			<text x="7.67" y="234.83" class="st5">signal: EXTEND_SUCCEEDED</text>		</g>
		<g id="shape2705-195" transform="translate(679.5,118.034) rotate(90)">
			<title>Sheet.2705</title>
			<desc>action: NONE</desc>
			<rect x="0" y="231.468" width="57.519" height="5.93409" class="st3"/>
			<text x="4.22" y="237.14" class="st5">action: NONE</text>		</g>
		<g id="shape2706-198" transform="translate(201.474,229.531) rotate(-90)">
			<title>Sheet.2706</title>
			<path d="M0 237.4 L155.5 237.4 L157.41 237.4" class="st10"/>
		</g>
		<g id="shape2707-203" transform="translate(195.515,229.418) rotate(-90)">
			<title>Sheet.2707</title>
			<path d="M6.68 237.4 L7.04 237.4 L8.48 237.4 L8.95 237.4 L164.09 237.4" class="st12"/>
		</g>
		<g id="shape2708-208" transform="translate(440.979,-176.672)">
			<title>Sheet.2708</title>
			<rect x="0" y="198.935" width="79.5867" height="38.4669" class="st6"/>
		</g>
		<g id="shape2709-210" transform="translate(678.301,22.2628) rotate(90)">
			<title>Sheet.2709</title>
			<path d="M0 237.4 L38.46 237.4 L0 237.4 Z" class="st1"/>
			<path d="M0 237.4 L38.46 237.4" class="st14"/>
		</g>
		<g id="shape2710-213" transform="translate(282.976,18.9179) rotate(-90)">
			<title>Sheet.2710</title>
			<path d="M0 237.4 L13.73 237.4 L0 237.4 Z" class="st1"/>
			<path d="M0 237.4 L13.73 237.4" class="st2"/>
		</g>
		<g id="shape2711-216" transform="translate(441.432,-224.584)">
			<title>Sheet.2711</title>
			<desc>10 ms</desc>
			<path d="M6.68 237.4 L7.04 237.4 L71.8 237.4" class="st13"/>
		</g>
		<g id="shape2712-223" transform="translate(441.605,-195.24)">
			<title>Sheet.2712</title>
			<path d="M0 237.4 L72.56 237.4 L79.02 237.4" class="st15"/>
		</g>
		<g id="shape2713-228" transform="translate(125.402,-227.039)">
			<title>Sheet.2713</title>
			<desc>10 ms</desc>
			<rect x="0" y="228.676" width="35.0392" height="8.72661" class="st3"/>
			<text x="5.37" y="236.04" class="st4">10 ms</text>		</g>
		<g id="shape2714-231" transform="translate(205.837,-227.039)">
			<title>Sheet.2714</title>
			<desc>10 ms</desc>
			<rect x="0" y="228.676" width="35.0392" height="8.72661" class="st3"/>
			<text x="5.37" y="236.04" class="st4">10 ms</text>		</g>
		<g id="shape2715-234" transform="translate(383.545,-227.039)">
			<title>Sheet.2715</title>
			<desc>10 ms</desc>
			<rect x="0" y="228.676" width="35.0392" height="8.72661" class="st3"/>
			<text x="5.37" y="236.04" class="st4">10 ms</text>		</g>
		<g id="shape2716-237" transform="translate(463.224,-227.039)">
			<title>Sheet.2716</title>
			<desc>10 ms</desc>
			<rect x="0" y="228.676" width="35.0392" height="8.72661" class="st3"/>
			<text x="5.37" y="236.04" class="st4">10 ms</text>		</g>
		<g id="shape2717-240" transform="translate(454.018,76.5238) rotate(90)">
			<title>Sheet.2717</title>
			<desc>action: EXTEND parameters: length = 10 ms</desc>
			<rect x="0" y="217.184" width="140.54" height="20.218" class="st3"/>
			<text x="42.12" y="225.04" class="st5">action: EXTEND <tspan x="20.06" dy="1em" class="st9">parameters: length = 10 ms</tspan></text>		</g>
		<g id="shape2721-244" transform="translate(379.326,84.5064) rotate(90)">
			<title>Sheet.2721</title>
			<desc>action: EXTEND parameters: length = 10 ms</desc>
			<rect x="0" y="217.184" width="124.574" height="20.218" class="st3"/>
			<text x="34.13" y="225.04" class="st5">action: EXTEND <tspan x="12.08" dy="1em" class="st9">parameters: length = 10 ms</tspan></text>		</g>
		<g id="shape2723-248" transform="translate(637.279,84.3161) rotate(90)">
			<title>Sheet.2723</title>
			<desc>action: EXTEND parameters: length = 10 ms</desc>
			<rect x="0" y="219.372" width="124.955" height="18.03" class="st3"/>
			<text x="34.32" y="226.14" class="st5">action: EXTEND <tspan x="12.27" dy="1em" class="st9">parameters: length = 10 ms</tspan></text>		</g>
	</g>
</svg>
