<?xml version="1.0" encoding="UTF-8" standalone="no"?>
<!DOCTYPE svg PUBLIC "-//W3C//DTD SVG 1.1//EN" "http://www.w3.org/Graphics/SVG/1.1/DTD/svg11.dtd">
<!-- Generated by Microsoft Visio, SVG Export timeslot_blocked.svg Page-1 -->
<svg xmlns="http://www.w3.org/2000/svg" xmlns:xlink="http://www.w3.org/1999/xlink" xmlns:ev="http://www.w3.org/2001/xml-events"
		width="7.31545in" height="3.32551in" viewBox="0 0 526.712 239.437" xml:space="preserve" color-interpolation-filters="sRGB"
		class="st18">
	<style type="text/css">
	<![CDATA[
		.st1 {fill:none}
		.st2 {stroke:#000000;stroke-width:1}
		.st3 {fill:none;stroke:none;stroke-width:0.75}
		.st4 {fill:#000000;font-family:Calibri;font-size:0.833336em}
		.st5 {fill:#000000;font-family:Calibri;font-size:1.16666em}
		.st6 {marker-start:url(#mrkr4-51);stroke:#000000;stroke-width:1}
		.st7 {fill:#000000;fill-opacity:1;stroke:#000000;stroke-opacity:1;stroke-width:0.28409090909091}
		.st8 {fill:#00a9ce;stroke:none;stroke-width:0.75}
		.st9 {fill:#768692;stroke:none;stroke-width:0.75}
		.st10 {fill:#ffffff;font-family:Calibri;font-size:0.666664em}
		.st11 {font-size:1em}
		.st12 {marker-end:url(#mrkr4-75);stroke:#000000;stroke-width:1}
		.st13 {marker-end:url(#mrkr4-75);stroke:#000000;stroke-dasharray:7,5;stroke-width:1}
		.st14 {marker-start:url(#mrkr5-127);stroke:#000000;stroke-width:1}
		.st15 {stroke:#000000;stroke-dasharray:7,5;stroke-width:1}
		.st16 {fill:none;stroke:none;stroke-width:1}
		.st17 {stroke:#000000;stroke-linecap:butt;stroke-width:1}
		.st18 {fill:none;fill-rule:evenodd;font-size:12px;overflow:visible;stroke-linecap:square;stroke-miterlimit:3}
	]]>
	</style>

	<defs id="Markers">
		<g id="lend4">
			<path d="M 2 1 L 0 0 L 2 -1 L 2 1 " style="stroke:none"/>
		</g>
		<marker id="mrkr4-51" class="st7" refX="6.68" orient="auto" markerUnits="strokeWidth" overflow="visible">
			<use xlink:href="#lend4" transform="scale(3.52) "/>
		</marker>
		<marker id="mrkr4-75" class="st7" refX="-7.04" orient="auto" markerUnits="strokeWidth" overflow="visible">
			<use xlink:href="#lend4" transform="scale(-3.52,-3.52) "/>
		</marker>
		<g id="lend5">
			<path d="M 2 1 L 0 0 L 1.98117 -0.993387 C 1.67173 -0.364515 1.67301 0.372641 1.98465 1.00043 " style="stroke:none"/>
		</g>
		<marker id="mrkr5-127" class="st7" refX="5.8" orient="auto" markerUnits="strokeWidth" overflow="visible">
			<use xlink:href="#lend5" transform="scale(3.52) "/>
		</marker>
	</defs>
	<g>
		<title>Page-1</title>
		<g id="shape1928-1" transform="translate(88.2317,-7.02296)">
			<title>Sheet.1928</title>
			<path d="M0 239.44 L159.42 239.44 L0 239.44 Z" class="st1"/>
			<path d="M0 239.44 L159.42 239.44" class="st2"/>
		</g>
		<g id="shape1929-4" transform="translate(3.62951,-2.45065)">
			<title>Sheet.1929</title>
			<desc>Signal handler</desc>
			<rect x="0" y="230.293" width="59.3518" height="9.14414" class="st3"/>
			<text x="0.92" y="237.86" class="st4">Signal handler</text>		</g>
		<g id="shape1930-7" transform="translate(88.2317,-157.241)">
			<title>Sheet.1930</title>
			<path d="M0 239.44 L159.42 239.44 L0 239.44 Z" class="st1"/>
			<path d="M0 239.44 L159.42 239.44" class="st2"/>
		</g>
		<g id="shape1931-10" transform="translate(10.8283,-153.48)">
			<title>Sheet.1931</title>
			<desc>Timeslot API</desc>
			<rect x="0" y="230.293" width="52.7158" height="9.14414" class="st3"/>
			<text x="1.01" y="237.86" class="st4">Timeslot API</text>		</g>
		<g id="shape1932-13" transform="translate(0.75,-180.386)">
			<title>Sheet.1932</title>
			<desc>Timeslots</desc>
			<rect x="0" y="230.293" width="62.7941" height="9.14414" class="st3"/>
			<text x="11.96" y="237.86" class="st4">Timeslots</text>		</g>
		<g id="shape1933-16" transform="translate(336.325,122.425) rotate(90)">
			<title>Sheet.1933</title>
			<desc>signal: START</desc>
			<rect x="0" y="229.369" width="71.7557" height="10.068" class="st3"/>
			<text x="9" y="237.4" class="st4">signal: START</text>		</g>
		<g id="shape1934-19" transform="translate(405.606,133.123) rotate(90)">
			<title>Sheet.1934</title>
			<desc>&#60; . . . . &#62;</desc>
			<rect x="0" y="230.3" width="50.3607" height="9.13716" class="st3"/>
			<text x="3.23" y="239.07" class="st5">&#60; . . . . &#62;</text>		</g>
		<g id="shape2032-22" transform="translate(672.335,130.273) rotate(90)">
			<title>Sheet.2032</title>
			<desc>&#60; . . . . &#62;</desc>
			<rect x="0" y="230.3" width="56.0595" height="9.13716" class="st3"/>
			<text x="6.08" y="239.07" class="st5">&#60; . . . . &#62;</text>		</g>
		<g id="shape2034-25" transform="translate(251.333,-157.241)">
			<title>Sheet.2034</title>
			<path d="M0 239.44 L95.24 239.44 L0 239.44 Z" class="st1"/>
			<path d="M0 239.44 L95.24 239.44" class="st2"/>
		</g>
		<g id="shape2035-28" transform="translate(251.049,-7.02296)">
			<title>Sheet.2035</title>
			<path d="M0 239.44 L95.53 239.44 L0 239.44 Z" class="st1"/>
			<path d="M0 239.44 L95.53 239.44" class="st2"/>
		</g>
		<g id="shape2036-31" transform="translate(349.978,-7.02296)">
			<title>Sheet.2036</title>
			<path d="M0 239.44 L150.24 239.44 L0 239.44 Z" class="st1"/>
			<path d="M0 239.44 L150.24 239.44" class="st2"/>
		</g>
		<g id="shape2037-34" transform="translate(349.978,-157.241)">
			<title>Sheet.2037</title>
			<path d="M0 239.44 L151.37 239.44 L0 239.44 Z" class="st1"/>
			<path d="M0 239.44 L151.37 239.44" class="st2"/>
		</g>
		<g id="shape2038-37" transform="translate(461.387,122.425) rotate(90)">
			<title>Sheet.2038</title>
			<desc>signal: BLOCKED</desc>
			<rect x="0" y="231.802" width="71.7557" height="7.63534" class="st3"/>
			<text x="2.87" y="238.62" class="st4">signal: BLOCKED</text>		</g>
		<g id="shape2039-40" transform="translate(481.632,91.6507) rotate(90)">
			<title>Sheet.2039</title>
			<desc>request (distance = 200 ms)</desc>
			<rect x="0" y="230.3" width="133.305" height="9.13716" class="st3"/>
			<text x="10.42" y="237.87" class="st4">request (distance = 200 ms)</text>		</g>
		<g id="shape2040-43" transform="translate(357.207,122.425) rotate(90)">
			<title>Sheet.2040</title>
			<desc>action: NONE</desc>
			<rect x="0" y="233.219" width="71.7557" height="6.21801" class="st3"/>
			<text x="8.61" y="239.33" class="st4">action: NONE</text>		</g>
		<g id="shape2105-46" transform="translate(107.741,-228.142)">
			<title>Sheet.2105</title>
			<desc>200 ms</desc>
			<path d="M6.68 239.44 L7.04 239.44 L139.65 239.44" class="st6"/>
		</g>
		<g id="shape2106-52" transform="translate(-131.97,34.1866) rotate(-90)">
			<title>Sheet.2106</title>
			<path d="M0 239.44 L31.41 239.44 L0 239.44 Z" class="st1"/>
			<path d="M0 239.44 L31.41 239.44" class="st2"/>
		</g>
		<g id="shape2107-55" transform="translate(135.007,34.1866) rotate(-90)">
			<title>Sheet.2107</title>
			<path d="M0 239.44 L31.41 239.44 L0 239.44 Z" class="st1"/>
			<path d="M0 239.44 L31.41 239.44" class="st2"/>
		</g>
		<g id="shape2108-58" transform="translate(107.462,-161.329)">
			<title>Sheet.2108</title>
			<rect x="0" y="199.129" width="83.3946" height="40.3074" class="st8"/>
		</g>
		<g id="shape2109-60" transform="translate(267.207,-161.329)">
			<title>Sheet.2109</title>
			<desc>Already scheduled activity of equal or higher priority.</desc>
			<rect x="0" y="199.129" width="71.0618" height="40.3074" class="st9"/>
			<text x="5.62" y="212.08" class="st10">Already scheduled <tspan x="5.22" dy="1.2em" class="st11">activity of equal or </tspan><tspan
						x="11.24" dy="1.2em" class="st11">higher priority.</tspan></text>		</g>
		<g id="shape2110-65" transform="translate(374.49,-161.329)">
			<title>Sheet.2110</title>
			<rect x="0" y="199.129" width="83.3946" height="40.3074" class="st8"/>
		</g>
		<g id="shape2111-67" transform="translate(346.206,250.722) rotate(180)">
			<title>Sheet.2111</title>
			<path d="M0 239.44 L94.73 239.44 L0 239.44 Z" class="st1"/>
			<path d="M0 239.44 L94.73 239.44" class="st2"/>
		</g>
		<g id="shape2112-70" transform="translate(350.306,-228.121)">
			<title>Sheet.2112</title>
			<path d="M0 239.44 L16.91 239.44" class="st12"/>
		</g>
		<g id="shape2113-76" transform="translate(-124.118,231.01) rotate(-90)">
			<title>Sheet.2113</title>
			<path d="M0 239.44 L140.36 239.44 L141.4 239.44" class="st13"/>
		</g>
		<g id="shape2114-81" transform="translate(-131.97,230.908) rotate(-90)">
			<title>Sheet.2114</title>
			<path d="M6.68 239.44 L7.04 239.44 L7.66 239.44 L8.08 239.44 L148.11 239.44" class="st6"/>
		</g>
		<g id="shape2115-86" transform="translate(602.981,131.332) rotate(90)">
			<title>Sheet.2115</title>
			<desc>signal: START</desc>
			<rect x="0" y="229.549" width="53.9417" height="9.8875" class="st3"/>
			<text x="0.1" y="237.49" class="st4">signal: START</text>		</g>
		<g id="shape2116-89" transform="translate(623.118,127.833) rotate(90)">
			<title>Sheet.2116</title>
			<desc>action: NONE</desc>
			<rect x="0" y="233.219" width="60.94" height="6.21801" class="st3"/>
			<text x="3.2" y="239.33" class="st4">action: NONE</text>		</g>
		<g id="shape2117-92" transform="translate(142.175,230.908) rotate(-90)">
			<title>Sheet.2117</title>
			<path d="M0 239.44 L140.27 239.44 L141.3 239.44" class="st13"/>
		</g>
		<g id="shape2118-97" transform="translate(135.086,230.959) rotate(-90)">
			<title>Sheet.2118</title>
			<path d="M6.68 239.44 L7.04 239.44 L7.66 239.44 L8.08 239.44 L148.12 239.44" class="st6"/>
		</g>
		<g id="shape2119-102" transform="translate(-54.2989,231.01) rotate(-90)">
			<title>Sheet.2119</title>
			<path d="M0 239.44 L140.36 239.44 L141.4 239.44" class="st13"/>
		</g>
		<g id="shape2120-107" transform="translate(-62.6385,231.061) rotate(-90)">
			<title>Sheet.2120</title>
			<path d="M6.68 239.44 L7.04 239.44 L7.66 239.44 L8.08 239.44 L148.22 239.44" class="st6"/>
		</g>
		<g id="shape2121-112" transform="translate(212.429,231.061) rotate(-90)">
			<title>Sheet.2121</title>
			<path d="M0 239.44 L140.28 239.44 L141.32 239.44" class="st13"/>
		</g>
		<g id="shape2122-117" transform="translate(204.09,231.061) rotate(-90)">
			<title>Sheet.2122</title>
			<path d="M6.68 239.44 L7.04 239.44 L7.66 239.44 L8.08 239.44 L148.18 239.44" class="st6"/>
		</g>
		<g id="shape2123-122" transform="translate(-7.66329,231.566) rotate(-90)">
			<title>Sheet.2123</title>
			<path d="M5.8 239.44 L6.16 239.44 L7.66 239.44 L8.08 239.44 L148.62 239.44" class="st14"/>
		</g>
		<g id="shape2124-128" transform="translate(0.335265,231.566) rotate(-90)">
			<title>Sheet.2124</title>
			<path d="M0 239.44 L140.78 239.44 L141.82 239.44" class="st13"/>
		</g>
		<g id="shape2125-133" transform="translate(51.3852,34.2954) rotate(-90)">
			<title>Sheet.2125</title>
			<path d="M0 239.44 L14.39 239.44 L0 239.44 Z" class="st1"/>
			<path d="M0 239.44 L14.39 239.44" class="st2"/>
		</g>
		<g id="shape2158-136" transform="translate(107.72,-211.531)">
			<title>Sheet.2158</title>
			<desc>100 ms</desc>
			<path d="M6.68 239.44 L7.04 239.44 L139.65 239.44" class="st6"/>
		</g>
		<g id="shape2159-141" transform="translate(290.47,267.333) rotate(180)">
			<title>Sheet.2159</title>
			<path d="M6.68 239.44 L7.04 239.44 L39.02 239.44" class="st6"/>
		</g>
		<g id="shape2160-146" transform="translate(374.255,-228.121)">
			<title>Sheet.2160</title>
			<desc>100 ms</desc>
			<path d="M6.68 239.44 L7.04 239.44 L125.19 239.44" class="st6"/>
		</g>
		<g id="shape2163-151" transform="translate(65.652,-7.01806)">
			<title>Sheet.2163</title>
			<path d="M0 239.44 L20.85 239.44 L0 239.44 Z" class="st1"/>
			<path d="M0 239.44 L20.85 239.44" class="st15"/>
		</g>
		<g id="shape2165-154" transform="translate(65.652,-157.241)">
			<title>Sheet.2165</title>
			<path d="M0 239.44 L20.85 239.44 L0 239.44 Z" class="st1"/>
			<path d="M0 239.44 L20.85 239.44" class="st15"/>
		</g>
		<g id="shape2166-157" transform="translate(425.313,90.3426) rotate(90)">
			<title>Sheet.2166</title>
			<desc>action: REQUEST parameters: distance = 100 ms</desc>
			<rect x="0" y="215.489" width="135.921" height="23.9477" class="st16"/>
			<text x="33.99" y="223.96" class="st4">action: REQUEST<tspan x="5.53" dy="1.15em" class="st11">parameters: distance = 100 ms</tspan></text>		</g>
		<g id="shape2168-161" transform="translate(161.417,-228.865)">
			<title>Sheet.2168</title>
			<desc>200 ms</desc>
			<rect x="0" y="230.293" width="39.0204" height="9.14414" class="st16"/>
			<text x="4.83" y="237.86" class="st4">200 ms</text>		</g>
		<g id="shape2169-164" transform="translate(161.417,-212.094)">
			<title>Sheet.2169</title>
			<desc>100 ms</desc>
			<rect x="0" y="230.293" width="39.0204" height="9.14414" class="st16"/>
			<text x="4.83" y="237.86" class="st4">100 ms</text>		</g>
		<g id="shape2190-167" transform="translate(425.5,-228.865)">
			<title>Sheet.2190</title>
			<desc>100 ms</desc>
			<rect x="0" y="230.293" width="39.0204" height="9.14414" class="st16"/>
			<text x="4.83" y="237.86" class="st4">100 ms</text>		</g>
		<g id="shape2191-170" transform="translate(503.801,-228.142)">
			<title>Sheet.2191</title>
			<path d="M0 239.44 L20.85 239.44 L0 239.44 Z" class="st1"/>
			<path d="M0 239.44 L20.85 239.44" class="st15"/>
		</g>
		<g id="shape2204-173" transform="translate(504.864,-157.154)">
			<title>Sheet.2204</title>
			<path d="M0 239.44 L20.85 239.44 L0 239.44 Z" class="st1"/>
			<path d="M0 239.44 L20.85 239.44" class="st15"/>
		</g>
		<g id="shape2205-176" transform="translate(504.864,-7.02296)">
			<title>Sheet.2205</title>
			<path d="M0 239.44 L20.85 239.44 L0 239.44 Z" class="st1"/>
			<path d="M0 239.44 L20.85 239.44" class="st15"/>
		</g>
		<g id="shape2206-179" transform="translate(692.816,89.3581) rotate(90)">
			<title>Sheet.2206</title>
			<desc>action: REQUEST parameters: distance = 100 ms</desc>
			<rect x="0" y="218.588" width="137.89" height="20.8488" class="st16"/>
			<text x="34.98" y="225.51" class="st4">action: REQUEST<tspan x="6.51" dy="1.15em" class="st11">parameters: distance = 100 ms</tspan></text>		</g>
		<g id="group2220-183" transform="translate(246.382,-2.01717)">
			<title>Sheet.2220</title>
			<g id="group2208-184" transform="translate(80.555,13.9531) rotate(20)">
				<title>Sheet.2208</title>
				<g id="shape2209-185" transform="translate(-238.014,234.295) rotate(-90)">
					<title>Sheet.2209</title>
					<path d="M-0 239.44 A4.96754 3.88734 83.34 0 1 5.51 239.44" class="st17"/>
				</g>
				<g id="shape2210-188" transform="translate(240.86,234.295) rotate(90)">
					<title>Sheet.2210</title>
					<path d="M-0 239.44 A4.96393 3.62919 84.83 0 1 5.14 239.44" class="st17"/>
				</g>
			</g>
			<g id="group2211-191" transform="translate(83.1236,13.9531) rotate(20)">
				<title>Sheet.2211</title>
				<g id="shape2212-192" transform="translate(-238.014,234.295) rotate(-90)">
					<title>Sheet.2212</title>
					<path d="M-0 239.44 A4.96754 3.88734 83.34 0 1 5.51 239.44" class="st17"/>
				</g>
				<g id="shape2213-195" transform="translate(240.86,234.295) rotate(90)">
					<title>Sheet.2213</title>
					<path d="M-0 239.44 A4.96393 3.62919 84.83 0 1 5.14 239.44" class="st17"/>
				</g>
			</g>
		</g>
		<g id="group2221-198" transform="translate(345.313,-2.01717)">
			<title>Sheet.2221</title>
			<g id="group2214-199" transform="translate(80.555,13.9531) rotate(20)">
				<title>Sheet.2214</title>
				<g id="shape2215-200" transform="translate(-238.014,234.295) rotate(-90)">
					<title>Sheet.2215</title>
					<path d="M-0 239.44 A4.96754 3.88734 83.34 0 1 5.51 239.44" class="st17"/>
				</g>
				<g id="shape2216-203" transform="translate(240.86,234.295) rotate(90)">
					<title>Sheet.2216</title>
					<path d="M-0 239.44 A4.96393 3.62919 84.83 0 1 5.14 239.44" class="st17"/>
				</g>
			</g>
			<g id="group2217-206" transform="translate(83.1236,13.9531) rotate(20)">
				<title>Sheet.2217</title>
				<g id="shape2218-207" transform="translate(-238.014,234.295) rotate(-90)">
					<title>Sheet.2218</title>
					<path d="M-0 239.44 A4.96754 3.88734 83.34 0 1 5.51 239.44" class="st17"/>
				</g>
				<g id="shape2219-210" transform="translate(240.86,234.295) rotate(90)">
					<title>Sheet.2219</title>
					<path d="M-0 239.44 A4.96393 3.62919 84.83 0 1 5.14 239.44" class="st17"/>
				</g>
			</g>
		</g>
		<g id="group2222-213" transform="translate(345.313,-152.235)">
			<title>Sheet.2222</title>
			<g id="group2198-214" transform="translate(80.555,13.9531) rotate(20)">
				<title>Sheet.2198</title>
				<g id="shape2199-215" transform="translate(-238.014,234.295) rotate(-90)">
					<title>Sheet.2199</title>
					<path d="M-0 239.44 A4.96754 3.88734 83.34 0 1 5.51 239.44" class="st17"/>
				</g>
				<g id="shape2200-218" transform="translate(240.86,234.295) rotate(90)">
					<title>Sheet.2200</title>
					<path d="M-0 239.44 A4.96393 3.62919 84.83 0 1 5.14 239.44" class="st17"/>
				</g>
			</g>
			<g id="group2201-221" transform="translate(83.1236,13.9531) rotate(20)">
				<title>Sheet.2201</title>
				<g id="shape2202-222" transform="translate(-238.014,234.295) rotate(-90)">
					<title>Sheet.2202</title>
					<path d="M-0 239.44 A4.96754 3.88734 83.34 0 1 5.51 239.44" class="st17"/>
				</g>
				<g id="shape2203-225" transform="translate(240.86,234.295) rotate(90)">
					<title>Sheet.2203</title>
					<path d="M-0 239.44 A4.96393 3.62919 84.83 0 1 5.14 239.44" class="st17"/>
				</g>
			</g>
		</g>
		<g id="group2223-228" transform="translate(246.382,-152.235)">
			<title>Sheet.2223</title>
			<g id="group2192-229" transform="translate(80.555,13.9531) rotate(20)">
				<title>Sheet.2192</title>
				<g id="shape2193-230" transform="translate(-238.014,234.295) rotate(-90)">
					<title>Sheet.2193</title>
					<path d="M-0 239.44 A4.96754 3.88734 83.34 0 1 5.51 239.44" class="st17"/>
				</g>
				<g id="shape2194-233" transform="translate(240.86,234.295) rotate(90)">
					<title>Sheet.2194</title>
					<path d="M-0 239.44 A4.96393 3.62919 84.83 0 1 5.14 239.44" class="st17"/>
				</g>
			</g>
			<g id="group2195-236" transform="translate(83.1236,13.9531) rotate(20)">
				<title>Sheet.2195</title>
				<g id="shape2196-237" transform="translate(-238.014,234.295) rotate(-90)">
					<title>Sheet.2196</title>
					<path d="M-0 239.44 A4.96754 3.88734 83.34 0 1 5.51 239.44" class="st17"/>
				</g>
				<g id="shape2197-240" transform="translate(240.86,234.295) rotate(90)">
					<title>Sheet.2197</title>
					<path d="M-0 239.44 A4.96393 3.62919 84.83 0 1 5.14 239.44" class="st17"/>
				</g>
			</g>
		</g>
		<g id="group2224-243" transform="translate(246.382,-206.671)">
			<title>Sheet.2224</title>
			<g id="group2178-244" transform="translate(80.555,13.9531) rotate(20)">
				<title>Sheet.2178</title>
				<g id="shape2179-245" transform="translate(-238.014,234.295) rotate(-90)">
					<title>Sheet.2179</title>
					<path d="M-0 239.44 A4.96754 3.88734 83.34 0 1 5.51 239.44" class="st17"/>
				</g>
				<g id="shape2180-248" transform="translate(240.86,234.295) rotate(90)">
					<title>Sheet.2180</title>
					<path d="M-0 239.44 A4.96393 3.62919 84.83 0 1 5.14 239.44" class="st17"/>
				</g>
			</g>
			<g id="group2181-251" transform="translate(83.1236,13.9531) rotate(20)">
				<title>Sheet.2181</title>
				<g id="shape2182-252" transform="translate(-238.014,234.295) rotate(-90)">
					<title>Sheet.2182</title>
					<path d="M-0 239.44 A4.96754 3.88734 83.34 0 1 5.51 239.44" class="st17"/>
				</g>
				<g id="shape2183-255" transform="translate(240.86,234.295) rotate(90)">
					<title>Sheet.2183</title>
					<path d="M-0 239.44 A4.96393 3.62919 84.83 0 1 5.14 239.44" class="st17"/>
				</g>
			</g>
		</g>
		<g id="group2225-258" transform="translate(246.382,-223.137)">
			<title>Sheet.2225</title>
			<g id="group2174-259" transform="translate(80.555,13.9531) rotate(20)">
				<title>Sheet.2174</title>
				<g id="shape2171-260" transform="translate(-238.014,234.295) rotate(-90)">
					<title>Sheet.2171</title>
					<path d="M-0 239.44 A4.96754 3.88734 83.34 0 1 5.51 239.44" class="st17"/>
				</g>
				<g id="shape2173-263" transform="translate(240.86,234.295) rotate(90)">
					<title>Sheet.2173</title>
					<path d="M-0 239.44 A4.96393 3.62919 84.83 0 1 5.14 239.44" class="st17"/>
				</g>
			</g>
			<g id="group2175-266" transform="translate(83.1236,13.9531) rotate(20)">
				<title>Sheet.2175</title>
				<g id="shape2176-267" transform="translate(-238.014,234.295) rotate(-90)">
					<title>Sheet.2176</title>
					<path d="M-0 239.44 A4.96754 3.88734 83.34 0 1 5.51 239.44" class="st17"/>
				</g>
				<g id="shape2177-270" transform="translate(240.86,234.295) rotate(90)">
					<title>Sheet.2177</title>
					<path d="M-0 239.44 A4.96393 3.62919 84.83 0 1 5.14 239.44" class="st17"/>
				</g>
			</g>
		</g>
		<g id="group2226-273" transform="translate(345.313,-223.146)">
			<title>Sheet.2226</title>
			<g id="group2184-274" transform="translate(80.555,13.9531) rotate(20)">
				<title>Sheet.2184</title>
				<g id="shape2185-275" transform="translate(-238.014,234.295) rotate(-90)">
					<title>Sheet.2185</title>
					<path d="M-0 239.44 A4.96754 3.88734 83.34 0 1 5.51 239.44" class="st17"/>
				</g>
				<g id="shape2186-278" transform="translate(240.86,234.295) rotate(90)">
					<title>Sheet.2186</title>
					<path d="M-0 239.44 A4.96393 3.62919 84.83 0 1 5.14 239.44" class="st17"/>
				</g>
			</g>
			<g id="group2187-281" transform="translate(83.1236,13.9531) rotate(20)">
				<title>Sheet.2187</title>
				<g id="shape2188-282" transform="translate(-238.014,234.295) rotate(-90)">
					<title>Sheet.2188</title>
					<path d="M-0 239.44 A4.96754 3.88734 83.34 0 1 5.51 239.44" class="st17"/>
				</g>
				<g id="shape2189-285" transform="translate(240.86,234.295) rotate(90)">
					<title>Sheet.2189</title>
					<path d="M-0 239.44 A4.96393 3.62919 84.83 0 1 5.14 239.44" class="st17"/>
				</g>
			</g>
		</g>
	</g>
</svg>
