<?xml version="1.0" encoding="UTF-8" standalone="no"?>
<!DOCTYPE svg PUBLIC "-//W3C//DTD SVG 1.1//EN" "http://www.w3.org/Graphics/SVG/1.1/DTD/svg11.dtd">
<!-- Generated by Microsoft Visio, SVG Export timeslot_canceled.svg Page-1 -->
<svg xmlns="http://www.w3.org/2000/svg" xmlns:xlink="http://www.w3.org/1999/xlink" xmlns:ev="http://www.w3.org/2001/xml-events"
		width="7.35895in" height="7.57242in" viewBox="0 0 529.845 545.215" xml:space="preserve" color-interpolation-filters="sRGB"
		class="st20">
	<style type="text/css">
	<![CDATA[
		.st1 {fill:none}
		.st2 {stroke:#000000;stroke-width:1}
		.st3 {fill:none;stroke:none;stroke-width:0.75}
		.st4 {fill:#000000;font-family:Calibri;font-size:0.833336em}
		.st5 {marker-start:url(#mrkr4-33);stroke:#000000;stroke-width:1}
		.st6 {fill:#000000;fill-opacity:1;stroke:#000000;stroke-opacity:1;stroke-width:0.28409090909091}
		.st7 {fill:#00a9ce;stroke:none;stroke-width:0.75}
		.st8 {fill:#00a9ce;stroke:#feffff;stroke-width:0.75}
		.st9 {fill:#ffffff;font-family:Calibri;font-size:0.833336em}
		.st10 {font-size:1em}
		.st11 {marker-end:url(#mrkr4-56);stroke:#000000;stroke-dasharray:7,5;stroke-width:1}
		.st12 {marker-end:url(#mrkr4-56);marker-start:url(#mrkr4-33);stroke:#000000;stroke-width:1}
		.st13 {stroke:#000000;stroke-dasharray:7,5;stroke-width:1}
		.st14 {stroke:#000000;stroke-width:0.75}
		.st15 {fill:#768692;stroke:none;stroke-width:0.75}
		.st16 {fill:#000000}
		.st17 {stroke:#000000;stroke-linecap:butt;stroke-width:1}
		.st18 {fill:none;stroke:none;stroke-width:1}
		.st19 {fill:#768692;stroke:none;stroke-width:1}
		.st20 {fill:none;fill-rule:evenodd;font-size:12px;overflow:visible;stroke-linecap:square;stroke-miterlimit:3}
	]]>
	</style>

	<defs id="Markers">
		<g id="lend4">
			<path d="M 2 1 L 0 0 L 2 -1 L 2 1 " style="stroke:none"/>
		</g>
		<marker id="mrkr4-33" class="st6" refX="6.68" orient="auto" markerUnits="strokeWidth" overflow="visible">
			<use xlink:href="#lend4" transform="scale(3.52) "/>
		</marker>
		<marker id="mrkr4-56" class="st6" refX="-7.04" orient="auto" markerUnits="strokeWidth" overflow="visible">
			<use xlink:href="#lend4" transform="scale(-3.52,-3.52) "/>
		</marker>
	</defs>
	<g>
		<title>Page-1</title>
		<g id="shape2313-1" transform="translate(96.4844,-320.492)">
			<title>Sheet.2313</title>
			<path d="M0 545.21 L162.29 545.21 L0 545.21 Z" class="st1"/>
			<path d="M0 545.21 L162.29 545.21" class="st2"/>
		</g>
		<g id="shape2314-4" transform="translate(0.75,-315.83)">
			<title>Sheet.2314</title>
			<desc>Signal handler</desc>
			<rect x="0" y="535.89" width="67.3041" height="9.32449" class="st3"/>
			<text x="9.8" y="543.55" class="st4">Signal handler</text>		</g>
		<g id="shape2315-7" transform="translate(96.4844,-461.31)">
			<title>Sheet.2315</title>
			<path d="M0 545.21 L162.93 545.21 L0 545.21 Z" class="st1"/>
			<path d="M0 545.21 L162.93 545.21" class="st2"/>
		</g>
		<g id="shape2316-10" transform="translate(11.2081,-457.475)">
			<title>Sheet.2316</title>
			<desc>Timeslot API</desc>
			<rect x="0" y="535.89" width="57.3381" height="9.32449" class="st3"/>
			<text x="6.65" y="543.55" class="st4">Timeslot API</text>		</g>
		<g id="shape2317-13" transform="translate(11.2081,-484.911)">
			<title>Sheet.2317</title>
			<desc>Timeslots</desc>
			<rect x="0" y="535.89" width="57.3381" height="9.32449" class="st3"/>
			<text x="18.47" y="543.55" class="st4">Timeslots</text>		</g>
		<g id="shape2318-16" transform="translate(648.054,129.027) rotate(90)">
			<title>Sheet.2318</title>
			<desc>signal: START</desc>
			<rect x="0" y="532.213" width="54.8518" height="13.0017" class="st3"/>
			<text x="-0" y="541.71" class="st4">signal: START</text>		</g>
		<g id="shape2319-19" transform="translate(675.707,140.366) rotate(90)">
			<title>Sheet.2319</title>
			<desc>&#60; . . . . &#62;</desc>
			<rect x="0" y="538.874" width="32.1746" height="6.34065" class="st3"/>
			<text x="-0" y="545.04" class="st4">&#60; . . . . &#62;</text>		</g>
		<g id="shape2353-22" transform="translate(263.132,-461.31)">
			<title>Sheet.2353</title>
			<path d="M0 545.21 L237.09 545.21 L0 545.21 Z" class="st1"/>
			<path d="M0 545.21 L237.09 545.21" class="st2"/>
		</g>
		<g id="shape2354-25" transform="translate(263.132,-320.492)">
			<title>Sheet.2354</title>
			<path d="M0 545.21 L236.61 545.21 L0 545.21 Z" class="st1"/>
			<path d="M0 545.21 L236.61 545.21" class="st2"/>
		</g>
		<g id="shape2387-28" transform="translate(116.377,-533.61)">
			<title>Sheet.2387</title>
			<desc>100 ms</desc>
			<path d="M6.68 545.21 L7.04 545.21 L142.4 545.21" class="st5"/>
		</g>
		<g id="shape2388-34" transform="translate(-429.116,34.9488) rotate(-90)">
			<title>Sheet.2388</title>
			<path d="M0 545.21 L32.03 545.21 L0 545.21 Z" class="st1"/>
			<path d="M0 545.21 L32.03 545.21" class="st2"/>
		</g>
		<g id="shape2389-37" transform="translate(-234.662,34.9488) rotate(-90)">
			<title>Sheet.2389</title>
			<path d="M0 545.21 L32.03 545.21 L0 545.21 Z" class="st1"/>
			<path d="M0 545.21 L32.03 545.21" class="st2"/>
		</g>
		<g id="shape2390-40" transform="translate(116.094,-465.478)">
			<title>Sheet.2390</title>
			<rect x="0" y="504.112" width="85.0394" height="41.1024" class="st7"/>
		</g>
		<g id="shape2391-42" transform="translate(310.547,-465.478)">
			<title>Sheet.2391</title>
			<desc>Scheduled future timeslot</desc>
			<rect x="0" y="504.112" width="85.0394" height="41.1024" class="st8"/>
			<text x="7.66" y="521.66" class="st9">Scheduled future <tspan x="25.8" dy="1.2em" class="st10">timeslot</tspan></text>		</g>
		<g id="shape2392-46" transform="translate(309.82,556.811) rotate(180)">
			<title>Sheet.2392</title>
			<path d="M6.68 545.21 L7.04 545.21 L46.88 545.21" class="st5"/>
		</g>
		<g id="shape2393-51" transform="translate(-419.74,223.827) rotate(-90)">
			<title>Sheet.2393</title>
			<path d="M0 545.21 L131.95 545.21 L132.5 545.21" class="st11"/>
		</g>
		<g id="shape2394-57" transform="translate(-429.116,223.732) rotate(-90)">
			<title>Sheet.2394</title>
			<path d="M6.68 545.21 L7.04 545.21 L7.2 545.21 L7.59 545.21 L139.23 545.21" class="st5"/>
		</g>
		<g id="shape2395-62" transform="translate(-349.554,223.827) rotate(-90)">
			<title>Sheet.2395</title>
			<path d="M0 545.21 L131.95 545.21 L132.5 545.21" class="st11"/>
		</g>
		<g id="shape2396-67" transform="translate(-358.057,223.876) rotate(-90)">
			<title>Sheet.2396</title>
			<path d="M6.68 545.21 L7.04 545.21 L7.2 545.21 L7.59 545.21 L139.33 545.21" class="st5"/>
		</g>
		<g id="shape2397-72" transform="translate(-344.228,35.0597) rotate(-90)">
			<title>Sheet.2397</title>
			<path d="M0 545.21 L14.67 545.21 L0 545.21 Z" class="st1"/>
			<path d="M0 545.21 L14.67 545.21" class="st2"/>
		</g>
		<g id="shape2398-75" transform="translate(116.356,-516.671)">
			<title>Sheet.2398</title>
			<desc>10 ms</desc>
			<path d="M6.68 545.21 L7.04 545.21 L77.11 545.21" class="st12"/>
		</g>
		<g id="shape2399-82" transform="translate(507.585,-461.222)">
			<title>Sheet.2399</title>
			<path d="M0 545.21 L21.26 545.21 L0 545.21 Z" class="st1"/>
			<path d="M0 545.21 L21.26 545.21" class="st13"/>
		</g>
		<g id="shape2400-85" transform="translate(507.585,-320.487)">
			<title>Sheet.2400</title>
			<path d="M0 545.21 L21.26 545.21 L0 545.21 Z" class="st1"/>
			<path d="M0 545.21 L21.26 545.21" class="st13"/>
		</g>
		<g id="shape2401-88" transform="translate(70.9494,-320.487)">
			<title>Sheet.2401</title>
			<path d="M0 545.21 L23.77 545.21 L0 545.21 Z" class="st1"/>
			<path d="M0 545.21 L23.77 545.21" class="st13"/>
		</g>
		<g id="shape2402-91" transform="translate(70.9494,-461.31)">
			<title>Sheet.2402</title>
			<path d="M0 545.21 L23.77 545.21 L0 545.21 Z" class="st1"/>
			<path d="M0 545.21 L23.77 545.21" class="st13"/>
		</g>
		<g id="shape2435-94" transform="translate(96.4844,-7.58499)">
			<title>Sheet.2435</title>
			<path d="M0 545.21 L163.64 545.21 L0 545.21 Z" class="st1"/>
			<path d="M0 545.21 L163.64 545.21" class="st2"/>
		</g>
		<g id="shape2436-97" transform="translate(0.75,-2.9225)">
			<title>Sheet.2436</title>
			<desc>Signal handler</desc>
			<rect x="0" y="535.89" width="67.3041" height="9.32449" class="st3"/>
			<text x="9.8" y="543.55" class="st4">Signal handler</text>		</g>
		<g id="shape2437-100" transform="translate(109.884,-153.594)">
			<title>Sheet.2437</title>
			<path d="M0 545.21 L150.24 545.21 L0 545.21 Z" class="st1"/>
			<path d="M0 545.21 L150.24 545.21" class="st2"/>
		</g>
		<g id="shape2438-103" transform="translate(11.2081,-149.759)">
			<title>Sheet.2438</title>
			<desc>Timeslot API</desc>
			<rect x="0" y="535.89" width="57.3381" height="9.32449" class="st3"/>
			<text x="6.65" y="543.55" class="st4">Timeslot API</text>		</g>
		<g id="shape2439-106" transform="translate(11.2081,-177.195)">
			<title>Sheet.2439</title>
			<desc>Timeslots</desc>
			<rect x="0" y="535.89" width="57.3381" height="9.32449" class="st3"/>
			<text x="18.47" y="543.55" class="st4">Timeslots</text>		</g>
		<g id="shape2440-109" transform="translate(650.298,434.744) rotate(90)">
			<title>Sheet.2440</title>
			<desc>signal: START</desc>
			<rect x="0" y="535.614" width="57.6407" height="9.60012" class="st3"/>
			<text x="1.95" y="543.42" class="st4">signal: START</text>		</g>
		<g id="shape2441-112" transform="translate(680.923,447.55) rotate(90)">
			<title>Sheet.2441</title>
			<desc>&#60; . . . . &#62;</desc>
			<rect x="0" y="538.874" width="32.03" height="6.34065" class="st3"/>
			<text x="-0" y="545.04" class="st4">&#60; . . . . &#62;</text>		</g>
		<g id="shape2475-115" transform="translate(995.802,447.55) rotate(90)">
			<title>Sheet.2475</title>
			<desc>&#60; . . . . &#62;</desc>
			<rect x="0" y="538.874" width="32.03" height="6.34065" class="st3"/>
			<text x="-0" y="545.04" class="st4">&#60; . . . . &#62;</text>		</g>
		<g id="shape2477-118" transform="translate(263.238,-153.594)">
			<title>Sheet.2477</title>
			<path d="M0 545.21 L240.38 545.21 L0 545.21 Z" class="st1"/>
			<path d="M0 545.21 L240.38 545.21" class="st14"/>
		</g>
		<g id="shape2478-121" transform="translate(263.132,-7.58499)">
			<title>Sheet.2478</title>
			<path d="M0 545.21 L238.22 545.21 L0 545.21 Z" class="st1"/>
			<path d="M0 545.21 L238.22 545.21" class="st2"/>
		</g>
		<g id="shape2479-124" transform="translate(772.065,427.597) rotate(90)">
			<title>Sheet.2479</title>
			<desc>event: CANCELED</desc>
			<rect x="0" y="535.614" width="71.9354" height="9.60012" class="st3"/>
			<text x="0.45" y="543.42" class="st4">event: CANCELED</text>		</g>
		<g id="shape2480-127" transform="translate(792.932,405.266) rotate(90)">
			<title>Sheet.2480</title>
			<desc>request (distance = 200 ms)</desc>
			<rect x="0" y="529.945" width="116.596" height="15.2694" class="st3"/>
			<text x="2.07" y="540.58" class="st4">request (distance = 200 ms)</text>		</g>
		<g id="shape2514-130" transform="translate(-429.116,342.665) rotate(-90)">
			<title>Sheet.2514</title>
			<path d="M0 545.21 L32.03 545.21 L0 545.21 Z" class="st1"/>
			<path d="M0 545.21 L32.03 545.21" class="st2"/>
		</g>
		<g id="shape2515-133" transform="translate(-156.874,342.665) rotate(-90)">
			<title>Sheet.2515</title>
			<path d="M0 545.21 L32.03 545.21 L0 545.21 Z" class="st1"/>
			<path d="M0 545.21 L32.03 545.21" class="st2"/>
		</g>
		<g id="shape2516-136" transform="translate(116.094,-157.761)">
			<title>Sheet.2516</title>
			<rect x="0" y="504.112" width="85.0394" height="41.1024" class="st7"/>
		</g>
		<g id="shape2517-138" transform="translate(274.262,-157.761)">
			<title>Sheet.2517</title>
			<desc>Higher priority activity arriving later</desc>
			<rect x="0" y="504.112" width="92.33" height="41.1024" class="st15"/>
			<text x="16.58" y="521.66" class="st9">Higher priority <tspan x="4.37" dy="1.2em" class="st10">activity arriving later</tspan></text>		</g>
		<g id="shape2518-142" transform="translate(388.388,-157.761)">
			<title>Sheet.2518</title>
			<rect x="0" y="504.112" width="85.0394" height="41.1024" class="st7"/>
		</g>
		<g id="shape2520-144" transform="translate(-413.638,536.786) rotate(-90)">
			<title>Sheet.2520</title>
			<path d="M0 545.21 L136.9 545.21 L137.74 545.21" class="st11"/>
		</g>
		<g id="shape2521-149" transform="translate(-429.116,536.686) rotate(-90)">
			<title>Sheet.2521</title>
			<path d="M6.68 545.21 L7.04 545.21 L7.47 545.21 L7.88 545.21 L144.46 545.21" class="st5"/>
		</g>
		<g id="shape2522-154" transform="translate(921.967,434.964) rotate(90)">
			<title>Sheet.2522</title>
			<desc>signal: START</desc>
			<rect x="0" y="534" width="57.2004" height="11.2145" class="st3"/>
			<text x="1.73" y="542.61" class="st4">signal: START</text>		</g>
		<g id="shape2523-157" transform="translate(945.09,434.744) rotate(90)">
			<title>Sheet.2523</title>
			<desc>action: NONE</desc>
			<rect x="0" y="534" width="57.6407" height="11.2145" class="st3"/>
			<text x="1.55" y="542.61" class="st4">action: NONE</text>		</g>
		<g id="shape2524-160" transform="translate(-146.931,536.686) rotate(-90)">
			<title>Sheet.2524</title>
			<path d="M0 545.21 L136.81 545.21 L137.65 545.21" class="st11"/>
		</g>
		<g id="shape2525-165" transform="translate(-155.908,536.736) rotate(-90)">
			<title>Sheet.2525</title>
			<path d="M6.68 545.21 L7.04 545.21 L7.47 545.21 L7.88 545.21 L144.47 545.21" class="st5"/>
		</g>
		<g id="shape2526-170" transform="translate(-351.71,536.786) rotate(-90)">
			<title>Sheet.2526</title>
			<path d="M0 545.21 L136.9 545.21 L137.74 545.21" class="st11"/>
		</g>
		<g id="shape2527-175" transform="translate(-362.237,536.835) rotate(-90)">
			<title>Sheet.2527</title>
			<path d="M6.68 545.21 L7.04 545.21 L7.47 545.21 L7.88 545.21 L144.56 545.21" class="st5"/>
		</g>
		<g id="shape2528-180" transform="translate(-76.1997,536.835) rotate(-90)">
			<title>Sheet.2528</title>
			<path d="M0 545.21 L136.82 545.21 L137.66 545.21" class="st11"/>
		</g>
		<g id="shape2529-185" transform="translate(-86.4292,536.835) rotate(-90)">
			<title>Sheet.2529</title>
			<path d="M6.68 545.21 L7.04 545.21 L7.47 545.21 L7.88 545.21 L144.53 545.21" class="st5"/>
		</g>
		<g id="shape2530-190" transform="translate(-307.271,537.344) rotate(-90)">
			<title>Sheet.2530</title>
			<path d="M6.68 545.21 L7.04 545.21 L7.47 545.21 L7.88 545.21 L144.96 545.21" class="st5"/>
		</g>
		<g id="shape2531-195" transform="translate(-298.434,539.637) rotate(-90.2427)">
			<title>Sheet.2531</title>
			<path d="M0 545.21 L137.31 545.21 L138.15 545.21" class="st11"/>
		</g>
		<g id="shape2567-200" transform="translate(507.585,-153.506)">
			<title>Sheet.2567</title>
			<path d="M0 545.21 L21.26 545.21 L0 545.21 Z" class="st1"/>
			<path d="M0 545.21 L21.26 545.21" class="st13"/>
		</g>
		<g id="shape2568-203" transform="translate(507.585,-7.57999)">
			<title>Sheet.2568</title>
			<path d="M0 545.21 L21.26 545.21 L0 545.21 Z" class="st1"/>
			<path d="M0 545.21 L21.26 545.21" class="st13"/>
		</g>
		<g id="shape2569-206" transform="translate(70.9494,-7.57999)">
			<title>Sheet.2569</title>
			<path d="M0 545.21 L23.77 545.21 L0 545.21 Z" class="st1"/>
			<path d="M0 545.21 L23.77 545.21" class="st13"/>
		</g>
		<g id="shape2570-209" transform="translate(73.459,-153.594)">
			<title>Sheet.2570</title>
			<path d="M0 545.21 L31.61 545.21 L0 545.21 Z" class="st1"/>
			<path d="M0 545.21 L31.61 545.21" class="st13"/>
		</g>
		<g id="shape2571-212" transform="translate(855.75,85.4953) rotate(90.0986)">
			<title>Sheet.2571</title>
			<path d="M0 545.21 L259.94 545.21 L0 545.21 Z" class="st1"/>
			<path d="M0 545.21 L259.94 545.21" class="st13"/>
		</g>
		<g id="shape2576-215" transform="translate(388.769,-225.893)">
			<title>Sheet.2576</title>
			<desc>100 ms</desc>
			<path d="M6.68 545.21 L7.04 545.21 L90.47 545.21" class="st5"/>
		</g>
		<g id="shape2577-220" transform="translate(481.099,-225.893)">
			<title>Sheet.2577</title>
			<path d="M0 545.21 L36.38 545.21 L0 545.21 Z" class="st16"/>
			<path d="M0 545.21 L36.38 545.21" class="st13"/>
		</g>
		<g id="group2585-223" transform="translate(257.919,-528.692)">
			<title>Sheet.2585</title>
			<g id="group2586-224" transform="translate(185.137,32.3937) rotate(20)">
				<title>Sheet.2586</title>
				<g id="shape2587-225" transform="translate(-543.791,540.072) rotate(-90)">
					<title>Sheet.2587</title>
					<path d="M-0 545.21 A4.96754 3.88734 83.34 0 1 5.51 545.21" class="st17"/>
				</g>
				<g id="shape2588-228" transform="translate(546.638,540.072) rotate(90)">
					<title>Sheet.2588</title>
					<path d="M-0 545.21 A4.96393 3.62919 84.83 0 1 5.14 545.21" class="st17"/>
				</g>
			</g>
			<g id="group2589-231" transform="translate(187.706,32.3937) rotate(20)">
				<title>Sheet.2589</title>
				<g id="shape2590-232" transform="translate(-543.791,540.072) rotate(-90)">
					<title>Sheet.2590</title>
					<path d="M-0 545.21 A4.96754 3.88734 83.34 0 1 5.51 545.21" class="st17"/>
				</g>
				<g id="shape2591-235" transform="translate(546.638,540.072) rotate(90)">
					<title>Sheet.2591</title>
					<path d="M-0 545.21 A4.96393 3.62919 84.83 0 1 5.14 545.21" class="st17"/>
				</g>
			</g>
		</g>
		<g id="shape2592-238" transform="translate(192.089,-534.222)">
			<title>Sheet.2592</title>
			<desc>100 ms</desc>
			<rect x="0" y="535.229" width="46.88" height="9.98556" class="st18"/>
			<text x="8.76" y="543.22" class="st4">100 ms</text>		</g>
		<g id="shape2594-241" transform="translate(134.991,-517.338)">
			<title>Sheet.2594</title>
			<desc>10 ms</desc>
			<rect x="0" y="535.229" width="46.88" height="9.98556" class="st18"/>
			<text x="11.29" y="543.22" class="st4">10 ms</text>		</g>
		<g id="group2595-244" transform="translate(258.178,-456.406)">
			<title>Sheet.2595</title>
			<g id="group2596-245" transform="translate(185.137,32.3937) rotate(20)">
				<title>Sheet.2596</title>
				<g id="shape2597-246" transform="translate(-543.791,540.072) rotate(-90)">
					<title>Sheet.2597</title>
					<path d="M-0 545.21 A4.96754 3.88734 83.34 0 1 5.51 545.21" class="st17"/>
				</g>
				<g id="shape2598-249" transform="translate(546.638,540.072) rotate(90)">
					<title>Sheet.2598</title>
					<path d="M-0 545.21 A4.96393 3.62919 84.83 0 1 5.14 545.21" class="st17"/>
				</g>
			</g>
			<g id="group2599-252" transform="translate(187.706,32.3937) rotate(20)">
				<title>Sheet.2599</title>
				<g id="shape2600-253" transform="translate(-543.791,540.072) rotate(-90)">
					<title>Sheet.2600</title>
					<path d="M-0 545.21 A4.96754 3.88734 83.34 0 1 5.51 545.21" class="st17"/>
				</g>
				<g id="shape2601-256" transform="translate(546.638,540.072) rotate(90)">
					<title>Sheet.2601</title>
					<path d="M-0 545.21 A4.96393 3.62919 84.83 0 1 5.14 545.21" class="st17"/>
				</g>
			</g>
		</g>
		<g id="shape2602-259" transform="translate(746.348,87.499) rotate(90)">
			<title>Sheet.2602</title>
			<desc>action: REQUEST parameters: distance = 100 ms</desc>
			<rect x="0" y="523.955" width="137.908" height="21.26" class="st18"/>
			<text x="34.99" y="531.58" class="st4">action: REQUEST <tspan x="6.52" dy="1.2em" class="st10">parameters: distance = 100 ms</tspan></text>		</g>
		<g id="group2604-263" transform="translate(258.16,-315.014)">
			<title>Sheet.2604</title>
			<g id="group2605-264" transform="translate(185.137,32.3937) rotate(20)">
				<title>Sheet.2605</title>
				<g id="shape2606-265" transform="translate(-543.791,540.072) rotate(-90)">
					<title>Sheet.2606</title>
					<path d="M-0 545.21 A4.96754 3.88734 83.34 0 1 5.51 545.21" class="st17"/>
				</g>
				<g id="shape2607-268" transform="translate(546.638,540.072) rotate(90)">
					<title>Sheet.2607</title>
					<path d="M-0 545.21 A4.96393 3.62919 84.83 0 1 5.14 545.21" class="st17"/>
				</g>
			</g>
			<g id="group2608-271" transform="translate(187.706,32.3937) rotate(20)">
				<title>Sheet.2608</title>
				<g id="shape2609-272" transform="translate(-543.791,540.072) rotate(-90)">
					<title>Sheet.2609</title>
					<path d="M-0 545.21 A4.96754 3.88734 83.34 0 1 5.51 545.21" class="st17"/>
				</g>
				<g id="shape2610-275" transform="translate(546.638,540.072) rotate(90)">
					<title>Sheet.2610</title>
					<path d="M-0 545.21 A4.96393 3.62919 84.83 0 1 5.14 545.21" class="st17"/>
				</g>
			</g>
		</g>
		<g id="shape2611-278" transform="translate(-284.031,296.865) rotate(-90)">
			<title>Simple Arrow</title>
			<path d="M0 545.21 L21.16 525.17 L21.16 535.19 L48.04 535.19 L48.04 545.21 L48.04 555.24 L21.16 555.24 L21.16 565.26
						 L0 545.21 Z" class="st19"/>
		</g>
		<g id="shape2612-280" transform="translate(116.098,-225.557)">
			<title>Sheet.2612</title>
			<desc>100 ms</desc>
			<path d="M6.68 545.21 L7.04 545.21 L144.02 545.21" class="st5"/>
		</g>
		<g id="shape2613-285" transform="translate(387.679,864.864) rotate(180)">
			<title>Sheet.2613</title>
			<path d="M6.68 545.21 L7.04 545.21 L124.44 545.21" class="st5"/>
		</g>
		<g id="group2614-290" transform="translate(258.774,-220.638)">
			<title>Sheet.2614</title>
			<g id="group2615-291" transform="translate(185.137,32.3937) rotate(20)">
				<title>Sheet.2615</title>
				<g id="shape2616-292" transform="translate(-543.791,540.072) rotate(-90)">
					<title>Sheet.2616</title>
					<path d="M-0 545.21 A4.96754 3.88734 83.34 0 1 5.51 545.21" class="st17"/>
				</g>
				<g id="shape2617-295" transform="translate(546.638,540.072) rotate(90)">
					<title>Sheet.2617</title>
					<path d="M-0 545.21 A4.96393 3.62919 84.83 0 1 5.14 545.21" class="st17"/>
				</g>
			</g>
			<g id="group2618-298" transform="translate(187.706,32.3937) rotate(20)">
				<title>Sheet.2618</title>
				<g id="shape2619-299" transform="translate(-543.791,540.072) rotate(-90)">
					<title>Sheet.2619</title>
					<path d="M-0 545.21 A4.96754 3.88734 83.34 0 1 5.51 545.21" class="st17"/>
				</g>
				<g id="shape2620-302" transform="translate(546.638,540.072) rotate(90)">
					<title>Sheet.2620</title>
					<path d="M-0 545.21 A4.96393 3.62919 84.83 0 1 5.14 545.21" class="st17"/>
				</g>
			</g>
		</g>
		<g id="shape2621-305" transform="translate(191.81,-226.168)">
			<title>Sheet.2621</title>
			<desc>200 ms</desc>
			<rect x="0" y="535.229" width="46.88" height="9.98556" class="st18"/>
			<text x="8.76" y="543.22" class="st4">200 ms</text>		</g>
		<g id="shape2622-308" transform="translate(116.098,-207.468)">
			<title>Sheet.2622</title>
			<desc>100 ms</desc>
			<path d="M6.68 545.21 L7.04 545.21 L144.02 545.21" class="st5"/>
		</g>
		<g id="shape2623-313" transform="translate(309.541,882.953) rotate(180)">
			<title>Sheet.2623</title>
			<path d="M6.68 545.21 L7.04 545.21 L46.3 545.21" class="st5"/>
		</g>
		<g id="group2624-318" transform="translate(258.774,-202.549)">
			<title>Sheet.2624</title>
			<g id="group2625-319" transform="translate(185.137,32.3937) rotate(20)">
				<title>Sheet.2625</title>
				<g id="shape2626-320" transform="translate(-543.791,540.072) rotate(-90)">
					<title>Sheet.2626</title>
					<path d="M-0 545.21 A4.96754 3.88734 83.34 0 1 5.51 545.21" class="st17"/>
				</g>
				<g id="shape2627-323" transform="translate(546.638,540.072) rotate(90)">
					<title>Sheet.2627</title>
					<path d="M-0 545.21 A4.96393 3.62919 84.83 0 1 5.14 545.21" class="st17"/>
				</g>
			</g>
			<g id="group2628-326" transform="translate(187.706,32.3937) rotate(20)">
				<title>Sheet.2628</title>
				<g id="shape2629-327" transform="translate(-543.791,540.072) rotate(-90)">
					<title>Sheet.2629</title>
					<path d="M-0 545.21 A4.96754 3.88734 83.34 0 1 5.51 545.21" class="st17"/>
				</g>
				<g id="shape2630-330" transform="translate(546.638,540.072) rotate(90)">
					<title>Sheet.2630</title>
					<path d="M-0 545.21 A4.96393 3.62919 84.83 0 1 5.14 545.21" class="st17"/>
				</g>
			</g>
		</g>
		<g id="shape2631-333" transform="translate(191.81,-208.079)">
			<title>Sheet.2631</title>
			<desc>100 ms</desc>
			<rect x="0" y="535.229" width="46.88" height="9.98556" class="st18"/>
			<text x="8.76" y="543.22" class="st4">100 ms</text>		</g>
		<g id="shape2632-336" transform="translate(410.048,-226.066)">
			<title>Sheet.2632</title>
			<desc>100 ms</desc>
			<rect x="0" y="535.229" width="46.88" height="9.98556" class="st18"/>
			<text x="8.76" y="543.22" class="st4">100 ms</text>		</g>
		<g id="shape2633-339" transform="translate(741.555,394.1) rotate(90)">
			<title>Sheet.2633</title>
			<desc>action: REQUEST_AND_END parameters: distance = 100 ms</desc>
			<rect x="0" y="525.215" width="138.929" height="20" class="st18"/>
			<text x="12.57" y="532.21" class="st4">action: REQUEST_AND_END <tspan x="7.03" dy="1.2em" class="st10">parameters: distance = 100 ms</tspan></text>		</g>
		<g id="shape2635-343" transform="translate(1018.64,397.348) rotate(90)">
			<title>Sheet.2635</title>
			<desc>action: REQUEST parameters: distance = 100 ms</desc>
			<rect x="0" y="524.29" width="132.433" height="20.9248" class="st3"/>
			<text x="32.25" y="533.29" class="st4">action: REQUEST<tspan x="3.78" dy="1.2em" class="st10">parameters: distance = 100 ms</tspan></text>		</g>
		<g id="group2636-347" transform="translate(258.774,-148.588)">
			<title>Sheet.2636</title>
			<g id="group2637-348" transform="translate(185.137,32.3937) rotate(20)">
				<title>Sheet.2637</title>
				<g id="shape2638-349" transform="translate(-543.791,540.072) rotate(-90)">
					<title>Sheet.2638</title>
					<path d="M-0 545.21 A4.96754 3.88734 83.34 0 1 5.51 545.21" class="st17"/>
				</g>
				<g id="shape2639-352" transform="translate(546.638,540.072) rotate(90)">
					<title>Sheet.2639</title>
					<path d="M-0 545.21 A4.96393 3.62919 84.83 0 1 5.14 545.21" class="st17"/>
				</g>
			</g>
			<g id="group2640-355" transform="translate(187.706,32.3937) rotate(20)">
				<title>Sheet.2640</title>
				<g id="shape2641-356" transform="translate(-543.791,540.072) rotate(-90)">
					<title>Sheet.2641</title>
					<path d="M-0 545.21 A4.96754 3.88734 83.34 0 1 5.51 545.21" class="st17"/>
				</g>
				<g id="shape2642-359" transform="translate(546.638,540.072) rotate(90)">
					<title>Sheet.2642</title>
					<path d="M-0 545.21 A4.96393 3.62919 84.83 0 1 5.14 545.21" class="st17"/>
				</g>
			</g>
		</g>
		<g id="group2643-362" transform="translate(258.774,-2.5792)">
			<title>Sheet.2643</title>
			<g id="group2644-363" transform="translate(185.137,32.3937) rotate(20)">
				<title>Sheet.2644</title>
				<g id="shape2645-364" transform="translate(-543.791,540.072) rotate(-90)">
					<title>Sheet.2645</title>
					<path d="M-0 545.21 A4.96754 3.88734 83.34 0 1 5.51 545.21" class="st17"/>
				</g>
				<g id="shape2646-367" transform="translate(546.638,540.072) rotate(90)">
					<title>Sheet.2646</title>
					<path d="M-0 545.21 A4.96393 3.62919 84.83 0 1 5.14 545.21" class="st17"/>
				</g>
			</g>
			<g id="group2647-370" transform="translate(187.706,32.3937) rotate(20)">
				<title>Sheet.2647</title>
				<g id="shape2648-371" transform="translate(-543.791,540.072) rotate(-90)">
					<title>Sheet.2648</title>
					<path d="M-0 545.21 A4.96754 3.88734 83.34 0 1 5.51 545.21" class="st17"/>
				</g>
				<g id="shape2649-374" transform="translate(546.638,540.072) rotate(90)">
					<title>Sheet.2649</title>
					<path d="M-0 545.21 A4.96393 3.62919 84.83 0 1 5.14 545.21" class="st17"/>
				</g>
			</g>
		</g>
	</g>
</svg>
