<?xml version="1.0" encoding="UTF-8" standalone="no"?>
<!DOCTYPE svg PUBLIC "-//W3C//DTD SVG 1.1//EN" "http://www.w3.org/Graphics/SVG/1.1/DTD/svg11.dtd">
<!-- Generated by Microsoft Visio, SVG Export timeslot_normal.svg Page-1 -->
<svg xmlns="http://www.w3.org/2000/svg" xmlns:xlink="http://www.w3.org/1999/xlink" xmlns:ev="http://www.w3.org/2001/xml-events"
		width="7.30112in" height="4.09546in" viewBox="0 0 525.68 294.873" xml:space="preserve" color-interpolation-filters="sRGB"
		class="st13">
	<style type="text/css">
	<![CDATA[
		.st1 {fill:none}
		.st2 {stroke:#000000;stroke-width:1}
		.st3 {fill:none;stroke:none;stroke-width:1}
		.st4 {fill:#000000;font-family:Calibri;font-size:0.833336em}
		.st5 {marker-end:url(#mrkr4-81);marker-start:url(#mrkr4-79);stroke:#000000;stroke-width:1}
		.st6 {fill:#000000;fill-opacity:1;stroke:#000000;stroke-opacity:1;stroke-width:0.28409090909091}
		.st7 {marker-start:url(#mrkr4-79);stroke:#000000;stroke-width:1}
		.st8 {fill:#00a9ce;stroke:none;stroke-width:1}
		.st9 {marker-end:url(#mrkr4-81);stroke:#000000;stroke-width:1}
		.st10 {marker-end:url(#mrkr4-81);stroke:#000000;stroke-dasharray:7,5;stroke-width:1}
		.st11 {stroke:#000000;stroke-linecap:butt;stroke-width:1}
		.st12 {font-size:1em}
		.st13 {fill:none;fill-rule:evenodd;font-size:12px;overflow:visible;stroke-linecap:square;stroke-miterlimit:3}
	]]>
	</style>

	<defs id="Markers">
		<g id="lend4">
			<path d="M 2 1 L 0 0 L 2 -1 L 2 1 " style="stroke:none"/>
		</g>
		<marker id="mrkr4-79" class="st6" refX="6.68" orient="auto" markerUnits="strokeWidth" overflow="visible">
			<use xlink:href="#lend4" transform="scale(3.52) "/>
		</marker>
		<marker id="mrkr4-81" class="st6" refX="-7.04" orient="auto" markerUnits="strokeWidth" overflow="visible">
			<use xlink:href="#lend4" transform="scale(-3.52,-3.52) "/>
		</marker>
	</defs>
	<g>
		<title>Page-1</title>
		<g id="shape2760-1" transform="translate(68.463,-7.8955)">
			<title>Sheet.2760</title>
			<path d="M0 294.87 L155.47 294.87 L0 294.87 Z" class="st1"/>
			<path d="M0 294.87 L155.47 294.87" class="st2"/>
		</g>
		<g id="shape2761-4" transform="translate(1,-4.21516)">
			<title>Sheet.2761</title>
			<desc>Main</desc>
			<rect x="0" y="285.934" width="23.409" height="8.93845" class="st3"/>
			<text x="-0" y="293.4" class="st4">Main</text>		</g>
		<g id="shape2762-7" transform="translate(68.463,-47.8679)">
			<title>Sheet.2762</title>
			<path d="M0 294.87 L155.57 294.87 L0 294.87 Z" class="st1"/>
			<path d="M0 294.87 L155.57 294.87" class="st2"/>
		</g>
		<g id="shape2763-10" transform="translate(1,-43.3947)">
			<title>Sheet.2763</title>
			<desc>Signal handler</desc>
			<rect x="0" y="285.934" width="62.4052" height="8.93845" class="st3"/>
			<text x="-0" y="293.4" class="st4">Signal handler</text>		</g>
		<g id="shape2764-13" transform="translate(68.463,-211.881)">
			<title>Sheet.2764</title>
			<path d="M0 294.87 L155.44 294.87 L0 294.87 Z" class="st1"/>
			<path d="M0 294.87 L155.44 294.87" class="st2"/>
		</g>
		<g id="shape2765-16" transform="translate(1,-208.2)">
			<title>Sheet.2765</title>
			<desc>Timeslot API</desc>
			<rect x="0" y="285.934" width="52.7673" height="8.93845" class="st3"/>
			<text x="-0" y="293.4" class="st4">Timeslot API</text>		</g>
		<g id="shape2766-19" transform="translate(1,-234.5)">
			<title>Sheet.2766</title>
			<desc>Timeslots</desc>
			<rect x="0" y="285.934" width="40.7594" height="8.93845" class="st3"/>
			<text x="-0" y="293.4" class="st4">Timeslots</text>		</g>
		<g id="shape2767-22" transform="translate(371.478,136.26) rotate(90)">
			<title>Sheet.2767</title>
			<desc>session_open()</desc>
			<rect x="0" y="282.36" width="62.3006" height="12.513" class="st3"/>
			<text x="0.48" y="291.62" class="st4">session_open()</text>		</g>
		<g id="shape2768-25" transform="translate(387.297,97.5193) rotate(90)">
			<title>Sheet.2768</title>
			<desc>request (earliest, length = 10 ms)</desc>
			<rect x="0" y="282.36" width="139.782" height="12.513" class="st3"/>
			<text x="2.89" y="291.62" class="st4">request (earliest, length = 10 ms)</text>		</g>
		<g id="shape2769-28" transform="translate(403.778,138.383) rotate(90)">
			<title>Sheet.2769</title>
			<desc>signal: START</desc>
			<rect x="0" y="285.785" width="58.0556" height="9.08805" class="st3"/>
			<text x="-0" y="293.33" class="st4">signal: START</text>		</g>
		<g id="shape2770-31" transform="translate(473.33,150.636) rotate(90)">
			<title>Sheet.2770</title>
			<desc>&#60; . . . . &#62;</desc>
			<rect x="0" y="288.795" width="33.5481" height="6.07814" class="st3"/>
			<text x="-0" y="294.83" class="st4">&#60; . . . . &#62;</text>		</g>
		<g id="shape2836-34" transform="translate(568.24,150.636) rotate(90)">
			<title>Sheet.2836</title>
			<desc>&#60; . . . . &#62;</desc>
			<rect x="0" y="288.795" width="33.5481" height="6.07814" class="st3"/>
			<text x="-0" y="294.83" class="st4">&#60; . . . . &#62;</text>		</g>
		<g id="shape2934-37" transform="translate(702.78,150.636) rotate(90)">
			<title>Sheet.2934</title>
			<desc>&#60; . . . . &#62;</desc>
			<rect x="0" y="288.795" width="33.5481" height="6.07814" class="st3"/>
			<text x="-0" y="294.83" class="st4">&#60; . . . . &#62;</text>		</g>
		<g id="shape2935-40" transform="translate(719.981,142.418) rotate(90)">
			<title>Sheet.2935</title>
			<desc>action: END</desc>
			<rect x="0" y="285.785" width="49.9841" height="9.08805" class="st3"/>
			<text x="-0" y="292.6" class="st4">action: END</text>		</g>
		<g id="shape2936-43" transform="translate(228.212,-211.881)">
			<title>Sheet.2936</title>
			<path d="M0 294.87 L92.35 294.87 L0 294.87 Z" class="st1"/>
			<path d="M0 294.87 L92.35 294.87" class="st2"/>
		</g>
		<g id="shape2937-46" transform="translate(228.212,-47.8679)">
			<title>Sheet.2937</title>
			<path d="M0 294.87 L92.28 294.87 L0 294.87 Z" class="st1"/>
			<path d="M0 294.87 L92.28 294.87" class="st2"/>
		</g>
		<g id="shape2938-49" transform="translate(228.28,-7.8955)">
			<title>Sheet.2938</title>
			<path d="M0 294.87 L92.22 294.87 L0 294.87 Z" class="st1"/>
			<path d="M0 294.87 L92.22 294.87" class="st2"/>
		</g>
		<g id="shape2939-52" transform="translate(324.743,-7.8955)">
			<title>Sheet.2939</title>
			<path d="M0 294.87 L195.64 294.87 L0 294.87 Z" class="st1"/>
			<path d="M0 294.87 L195.64 294.87" class="st2"/>
		</g>
		<g id="shape2940-55" transform="translate(324.778,-47.8679)">
			<title>Sheet.2940</title>
			<path d="M0 294.87 L195.61 294.87 L0 294.87 Z" class="st1"/>
			<path d="M0 294.87 L195.61 294.87" class="st2"/>
		</g>
		<g id="shape2941-58" transform="translate(324.845,-211.881)">
			<title>Sheet.2941</title>
			<path d="M0 294.87 L195.54 294.87 L0 294.87 Z" class="st1"/>
			<path d="M0 294.87 L195.54 294.87" class="st2"/>
		</g>
		<g id="shape2942-61" transform="translate(737.233,142.418) rotate(90)">
			<title>Sheet.2942</title>
			<desc>signal: IDLE</desc>
			<rect x="0" y="288.795" width="49.9841" height="6.07814" class="st3"/>
			<text x="2.02" y="294.83" class="st4">signal: IDLE</text>		</g>
		<g id="shape2943-64" transform="translate(776.901,135.44) rotate(90)">
			<title>Sheet.2943</title>
			<desc>session_close()</desc>
			<rect x="0" y="283.357" width="63.941" height="11.516" class="st3"/>
			<text x="1.34" y="292.11" class="st4">session_close()</text>		</g>
		<g id="shape2944-67" transform="translate(790.27,135.44) rotate(90)">
			<title>Sheet.2944</title>
			<desc>signal: CLOSED</desc>
			<rect x="0" y="285.785" width="63.941" height="9.08805" class="st3"/>
			<text x="1.98" y="293.33" class="st4">signal: CLOSED</text>		</g>
		<g id="shape2945-70" transform="translate(423.128,138.383) rotate(90)">
			<title>Sheet.2945</title>
			<desc>action: NONE</desc>
			<rect x="0" y="285.785" width="58.0556" height="9.08805" class="st3"/>
			<text x="-0.01" y="293.33" class="st4">action: NONE</text>		</g>
		<g id="shape3010-73" transform="translate(119.215,-265.055)">
			<title>Sheet.3010</title>
			<desc>10 ms</desc>
			<path d="M6.68 294.87 L7.04 294.87 L73.79 294.87" class="st5"/>
		</g>
		<g id="shape3011-82" transform="translate(119.215,-281.188)">
			<title>Sheet.3011</title>
			<desc>100 ms</desc>
			<path d="M6.68 294.87 L7.04 294.87 L104.91 294.87" class="st7"/>
		</g>
		<g id="shape3012-87" transform="translate(-175.93,36.067) rotate(-90)">
			<title>Sheet.3012</title>
			<path d="M0 294.87 L30.7 294.87 L0 294.87 Z" class="st1"/>
			<path d="M0 294.87 L30.7 294.87" class="st2"/>
		</g>
		<g id="shape3013-90" transform="translate(-94.5114,36.067) rotate(-90)">
			<title>Sheet.3013</title>
			<path d="M0 294.87 L11.77 294.87 L0 294.87 Z" class="st1"/>
			<path d="M0 294.87 L11.77 294.87" class="st2"/>
		</g>
		<g id="shape3014-93" transform="translate(251.103,-265.034)">
			<title>Sheet.3014</title>
			<desc>5 ms</desc>
			<path d="M6.68 294.87 L7.04 294.87 L33.03 294.87" class="st5"/>
		</g>
		<g id="shape3015-100" transform="translate(251.103,-281.166)">
			<title>Sheet.3015</title>
			<desc>50 ms</desc>
			<path d="M6.68 294.87 L7.04 294.87 L69.3 294.87" class="st7"/>
		</g>
		<g id="shape3016-105" transform="translate(-44.0411,36.0885) rotate(-90)">
			<title>Sheet.3016</title>
			<path d="M0 294.87 L30.7 294.87 L0 294.87 Z" class="st1"/>
			<path d="M0 294.87 L30.7 294.87" class="st2"/>
		</g>
		<g id="shape3017-108" transform="translate(-3.40652,36.0885) rotate(-90)">
			<title>Sheet.3017</title>
			<path d="M0 294.87 L11.77 294.87 L0 294.87 Z" class="st1"/>
			<path d="M0 294.87 L11.77 294.87" class="st2"/>
		</g>
		<g id="shape3018-111" transform="translate(348.504,-265.055)">
			<title>Sheet.3018</title>
			<desc>10 ms</desc>
			<path d="M6.68 294.87 L7.04 294.87 L73.84 294.87" class="st5"/>
		</g>
		<g id="shape3019-118" transform="translate(53.3601,36.067) rotate(-90)">
			<title>Sheet.3019</title>
			<path d="M0 294.87 L30.7 294.87 L0 294.87 Z" class="st1"/>
			<path d="M0 294.87 L30.7 294.87" class="st2"/>
		</g>
		<g id="shape3020-121" transform="translate(134.828,36.067) rotate(-90)">
			<title>Sheet.3020</title>
			<path d="M0 294.87 L11.77 294.87 L0 294.87 Z" class="st1"/>
			<path d="M0 294.87 L11.77 294.87" class="st2"/>
		</g>
		<g id="shape3021-124" transform="translate(118.943,-215.873)">
			<title>Sheet.3021</title>
			<rect x="0" y="255.472" width="81.5187" height="39.4007" class="st8"/>
		</g>
		<g id="shape3022-126" transform="translate(250.731,-215.873)">
			<title>Sheet.3022</title>
			<rect x="0" y="255.472" width="40.7594" height="39.4007" class="st8"/>
		</g>
		<g id="shape3023-128" transform="translate(348.282,-215.873)">
			<title>Sheet.3023</title>
			<rect x="0" y="255.472" width="81.5187" height="39.4007" class="st8"/>
		</g>
		<g id="shape3024-130" transform="translate(250.702,308.558) rotate(180)">
			<title>Sheet.3024</title>
			<path d="M6.68 294.87 L7.04 294.87 L22.67 294.87" class="st7"/>
		</g>
		<g id="shape3025-135" transform="translate(324.642,-281.166)">
			<title>Sheet.3025</title>
			<path d="M0 294.87 L16.37 294.87" class="st9"/>
		</g>
		<g id="shape3026-140" transform="translate(-167.778,246.316) rotate(-90)">
			<title>Sheet.3026</title>
			<path d="M0 294.87 L153.97 294.87 L155.79 294.87" class="st10"/>
		</g>
		<g id="shape3027-145" transform="translate(-175.93,246.205) rotate(-90)">
			<title>Sheet.3027</title>
			<path d="M6.68 294.87 L7.04 294.87 L8.4 294.87 L8.86 294.87 L162.47 294.87" class="st7"/>
		</g>
		<g id="shape3028-150" transform="translate(535.69,138.383) rotate(90)">
			<title>Sheet.3028</title>
			<desc>signal: START</desc>
			<rect x="0" y="285.785" width="58.0556" height="9.08805" class="st3"/>
			<text x="-0" y="293.33" class="st4">signal: START</text>		</g>
		<g id="shape3029-153" transform="translate(555.286,138.383) rotate(90)">
			<title>Sheet.3029</title>
			<desc>action: NONE</desc>
			<rect x="0" y="285.785" width="58.0556" height="9.08805" class="st3"/>
			<text x="-0.01" y="293.33" class="st4">action: NONE</text>		</g>
		<g id="shape3030-156" transform="translate(-35.9893,246.316) rotate(-90)">
			<title>Sheet.3030</title>
			<path d="M0 294.87 L154.04 294.87 L155.86 294.87" class="st10"/>
		</g>
		<g id="shape3031-161" transform="translate(-44.1412,246.373) rotate(-90)">
			<title>Sheet.3031</title>
			<path d="M6.68 294.87 L7.04 294.87 L8.4 294.87 L8.86 294.87 L162.49 294.87" class="st7"/>
		</g>
		<g id="shape3032-166" transform="translate(632.733,139.976) rotate(90)">
			<title>Sheet.3032</title>
			<desc>signal: START</desc>
			<rect x="0" y="285.785" width="54.8688" height="9.08805" class="st3"/>
			<text x="-0" y="293.33" class="st4">signal: START</text>		</g>
		<g id="shape3033-169" transform="translate(652.77,138.383) rotate(90)">
			<title>Sheet.3033</title>
			<desc>action: NONE</desc>
			<rect x="0" y="285.785" width="58.0556" height="9.08805" class="st3"/>
			<text x="-0.01" y="293.33" class="st4">action: NONE</text>		</g>
		<g id="shape3034-172" transform="translate(61.4947,246.205) rotate(-90)">
			<title>Sheet.3034</title>
			<path d="M0 294.87 L153.86 294.87 L155.69 294.87" class="st10"/>
		</g>
		<g id="shape3035-177" transform="translate(53.4369,246.261) rotate(-90)">
			<title>Sheet.3035</title>
			<path d="M6.68 294.87 L7.04 294.87 L8.4 294.87 L8.86 294.87 L162.48 294.87" class="st7"/>
		</g>
		<g id="shape3036-182" transform="translate(-99.661,246.316) rotate(-90)">
			<title>Sheet.3036</title>
			<path d="M0 294.87 L153.97 294.87 L155.79 294.87" class="st10"/>
		</g>
		<g id="shape3037-187" transform="translate(-107.813,246.373) rotate(-90)">
			<title>Sheet.3037</title>
			<path d="M6.68 294.87 L7.04 294.87 L8.4 294.87 L8.86 294.87 L162.58 294.87" class="st7"/>
		</g>
		<g id="shape3038-192" transform="translate(-6.87885,246.373) rotate(-90)">
			<title>Sheet.3038</title>
			<path d="M0 294.87 L154.03 294.87 L155.85 294.87" class="st10"/>
		</g>
		<g id="shape3039-197" transform="translate(-13.5122,246.373) rotate(-90)">
			<title>Sheet.3039</title>
			<path d="M6.68 294.87 L7.04 294.87 L8.4 294.87 L8.86 294.87 L162.55 294.87" class="st7"/>
		</g>
		<g id="shape3040-202" transform="translate(129.041,246.373) rotate(-90)">
			<title>Sheet.3040</title>
			<path d="M0 294.87 L153.88 294.87 L155.7 294.87" class="st10"/>
		</g>
		<g id="shape3041-207" transform="translate(120.889,246.373) rotate(-90)">
			<title>Sheet.3041</title>
			<path d="M6.68 294.87 L7.04 294.87 L8.4 294.87 L8.86 294.87 L162.55 294.87" class="st7"/>
		</g>
		<g id="shape3042-212" transform="translate(155.812,246.926) rotate(-90)">
			<title>Sheet.3042</title>
			<path d="M6.68 294.87 L7.04 294.87 L8.4 294.87 L8.86 294.87 L163.03 294.87" class="st7"/>
		</g>
		<g id="shape3043-217" transform="translate(210.674,245.937) rotate(-89.8077)">
			<title>Sheet.3043</title>
			<path d="M6.68 294.87 L7.04 294.87 L8.4 294.87 L8.86 294.87 L163.03 294.87" class="st7"/>
		</g>
		<g id="shape3044-222" transform="translate(185.832,287.002) rotate(-90)">
			<title>Sheet.3044</title>
			<path d="M0 294.87 L195.23 294.87 L196.49 294.87" class="st9"/>
		</g>
		<g id="shape3045-227" transform="translate(-219.698,286.977) rotate(-90)">
			<title>Sheet.3045</title>
			<path d="M0 294.87 L195.22 294.87 L196.49 294.87" class="st9"/>
		</g>
		<g id="shape3046-232" transform="translate(-204.53,287.431) rotate(-90.0883)">
			<title>Sheet.3046</title>
			<path d="M0 294.87 L195.22 294.87 L196.49 294.87" class="st9"/>
		</g>
		<g id="shape3047-237" transform="translate(753.765,138.383) rotate(90)">
			<title>Sheet.3047</title>
			<desc>action: NONE</desc>
			<rect x="0" y="285.785" width="58.0556" height="9.08805" class="st3"/>
			<text x="-0" y="292.6" class="st4">action: NONE</text>		</g>
		<g id="shape3048-240" transform="translate(163.468,245.731) rotate(-90)">
			<title>Sheet.3048</title>
			<path d="M0 294.87 L153.88 294.87 L155.7 294.87" class="st10"/>
		</g>
		<g id="shape3049-245" transform="translate(810.446,139.976) rotate(90)">
			<title>Sheet.3049</title>
			<desc>action: NONE</desc>
			<rect x="0" y="286.721" width="54.8688" height="8.15159" class="st3"/>
			<text x="-0" y="293.77" class="st4">action: NONE</text>		</g>
		<g id="shape3050-248" transform="translate(218.866,247.005) rotate(-90)">
			<title>Sheet.3050</title>
			<path d="M0 294.87 L154.23 294.87 L156.07 294.87" class="st10"/>
		</g>
		<g id="group3051-253" transform="translate(222.971,-276.182)">
			<title>Sheet.3051</title>
			<g id="group3052-254" transform="translate(99.5152,17.2963) rotate(20)">
				<title>Sheet.3052</title>
				<g id="shape3053-255" transform="translate(-293.45,289.731) rotate(-90)">
					<title>Sheet.3053</title>
					<path d="M-0 294.87 A4.96754 3.88734 83.34 0 1 5.51 294.87" class="st11"/>
				</g>
				<g id="shape3054-258" transform="translate(296.296,289.731) rotate(90)">
					<title>Sheet.3054</title>
					<path d="M-0 294.87 A4.96393 3.62919 84.83 0 1 5.14 294.87" class="st11"/>
				</g>
			</g>
			<g id="group3055-261" transform="translate(102.084,17.2963) rotate(20)">
				<title>Sheet.3055</title>
				<g id="shape3056-262" transform="translate(-293.45,289.731) rotate(-90)">
					<title>Sheet.3056</title>
					<path d="M-0 294.87 A4.96754 3.88734 83.34 0 1 5.51 294.87" class="st11"/>
				</g>
				<g id="shape3057-265" transform="translate(296.296,289.731) rotate(90)">
					<title>Sheet.3057</title>
					<path d="M-0 294.87 A4.96393 3.62919 84.83 0 1 5.14 294.87" class="st11"/>
				</g>
			</g>
		</g>
		<g id="group3058-268" transform="translate(319.532,-276.261)">
			<title>Sheet.3058</title>
			<g id="group3059-269" transform="translate(99.5152,17.2963) rotate(20)">
				<title>Sheet.3059</title>
				<g id="shape3060-270" transform="translate(-293.45,289.731) rotate(-90)">
					<title>Sheet.3060</title>
					<path d="M-0 294.87 A4.96754 3.88734 83.34 0 1 5.51 294.87" class="st11"/>
				</g>
				<g id="shape3061-273" transform="translate(296.296,289.731) rotate(90)">
					<title>Sheet.3061</title>
					<path d="M-0 294.87 A4.96393 3.62919 84.83 0 1 5.14 294.87" class="st11"/>
				</g>
			</g>
			<g id="group3062-276" transform="translate(102.084,17.2963) rotate(20)">
				<title>Sheet.3062</title>
				<g id="shape3063-277" transform="translate(-293.45,289.731) rotate(-90)">
					<title>Sheet.3063</title>
					<path d="M-0 294.87 A4.96754 3.88734 83.34 0 1 5.51 294.87" class="st11"/>
				</g>
				<g id="shape3064-280" transform="translate(296.296,289.731) rotate(90)">
					<title>Sheet.3064</title>
					<path d="M-0 294.87 A4.96393 3.62919 84.83 0 1 5.14 294.87" class="st11"/>
				</g>
			</g>
		</g>
		<g id="group3065-283" transform="translate(223.042,-206.958)">
			<title>Sheet.3065</title>
			<g id="group3066-284" transform="translate(99.5152,17.2963) rotate(20)">
				<title>Sheet.3066</title>
				<g id="shape3067-285" transform="translate(-293.45,289.731) rotate(-90)">
					<title>Sheet.3067</title>
					<path d="M-0 294.87 A4.96754 3.88734 83.34 0 1 5.51 294.87" class="st11"/>
				</g>
				<g id="shape3068-288" transform="translate(296.296,289.731) rotate(90)">
					<title>Sheet.3068</title>
					<path d="M-0 294.87 A4.96393 3.62919 84.83 0 1 5.14 294.87" class="st11"/>
				</g>
			</g>
			<g id="group3069-291" transform="translate(102.084,17.2963) rotate(20)">
				<title>Sheet.3069</title>
				<g id="shape3070-292" transform="translate(-293.45,289.731) rotate(-90)">
					<title>Sheet.3070</title>
					<path d="M-0 294.87 A4.96754 3.88734 83.34 0 1 5.51 294.87" class="st11"/>
				</g>
				<g id="shape3071-295" transform="translate(296.296,289.731) rotate(90)">
					<title>Sheet.3071</title>
					<path d="M-0 294.87 A4.96393 3.62919 84.83 0 1 5.14 294.87" class="st11"/>
				</g>
			</g>
		</g>
		<g id="group3072-298" transform="translate(319.479,-206.875)">
			<title>Sheet.3072</title>
			<g id="group3073-299" transform="translate(99.5152,17.2963) rotate(20)">
				<title>Sheet.3073</title>
				<g id="shape3074-300" transform="translate(-293.45,289.731) rotate(-90)">
					<title>Sheet.3074</title>
					<path d="M-0 294.87 A4.96754 3.88734 83.34 0 1 5.51 294.87" class="st11"/>
				</g>
				<g id="shape3075-303" transform="translate(296.296,289.731) rotate(90)">
					<title>Sheet.3075</title>
					<path d="M-0 294.87 A4.96393 3.62919 84.83 0 1 5.14 294.87" class="st11"/>
				</g>
			</g>
			<g id="group3076-306" transform="translate(102.084,17.2963) rotate(20)">
				<title>Sheet.3076</title>
				<g id="shape3077-307" transform="translate(-293.45,289.731) rotate(-90)">
					<title>Sheet.3077</title>
					<path d="M-0 294.87 A4.96754 3.88734 83.34 0 1 5.51 294.87" class="st11"/>
				</g>
				<g id="shape3078-310" transform="translate(296.296,289.731) rotate(90)">
					<title>Sheet.3078</title>
					<path d="M-0 294.87 A4.96393 3.62919 84.83 0 1 5.14 294.87" class="st11"/>
				</g>
			</g>
		</g>
		<g id="group3079-313" transform="translate(319.193,-43.7036)">
			<title>Sheet.3079</title>
			<g id="group3080-314" transform="translate(99.5152,17.2963) rotate(20)">
				<title>Sheet.3080</title>
				<g id="shape3081-315" transform="translate(-293.45,289.731) rotate(-90)">
					<title>Sheet.3081</title>
					<path d="M-0 294.87 A4.96754 3.88734 83.34 0 1 5.51 294.87" class="st11"/>
				</g>
				<g id="shape3082-318" transform="translate(296.296,289.731) rotate(90)">
					<title>Sheet.3082</title>
					<path d="M-0 294.87 A4.96393 3.62919 84.83 0 1 5.14 294.87" class="st11"/>
				</g>
			</g>
			<g id="group3083-321" transform="translate(102.084,17.2963) rotate(20)">
				<title>Sheet.3083</title>
				<g id="shape3084-322" transform="translate(-293.45,289.731) rotate(-90)">
					<title>Sheet.3084</title>
					<path d="M-0 294.87 A4.96754 3.88734 83.34 0 1 5.51 294.87" class="st11"/>
				</g>
				<g id="shape3085-325" transform="translate(296.296,289.731) rotate(90)">
					<title>Sheet.3085</title>
					<path d="M-0 294.87 A4.96393 3.62919 84.83 0 1 5.14 294.87" class="st11"/>
				</g>
			</g>
		</g>
		<g id="group3086-328" transform="translate(223.047,-43.3031)">
			<title>Sheet.3086</title>
			<g id="group3087-329" transform="translate(99.5152,17.2963) rotate(20)">
				<title>Sheet.3087</title>
				<g id="shape3088-330" transform="translate(-293.45,289.731) rotate(-90)">
					<title>Sheet.3088</title>
					<path d="M-0 294.87 A4.96754 3.88734 83.34 0 1 5.51 294.87" class="st11"/>
				</g>
				<g id="shape3089-333" transform="translate(296.296,289.731) rotate(90)">
					<title>Sheet.3089</title>
					<path d="M-0 294.87 A4.96393 3.62919 84.83 0 1 5.14 294.87" class="st11"/>
				</g>
			</g>
			<g id="group3090-336" transform="translate(102.084,17.2963) rotate(20)">
				<title>Sheet.3090</title>
				<g id="shape3091-337" transform="translate(-293.45,289.731) rotate(-90)">
					<title>Sheet.3091</title>
					<path d="M-0 294.87 A4.96754 3.88734 83.34 0 1 5.51 294.87" class="st11"/>
				</g>
				<g id="shape3092-340" transform="translate(296.296,289.731) rotate(90)">
					<title>Sheet.3092</title>
					<path d="M-0 294.87 A4.96393 3.62919 84.83 0 1 5.14 294.87" class="st11"/>
				</g>
			</g>
		</g>
		<g id="group3093-343" transform="translate(222.998,-2.91308)">
			<title>Sheet.3093</title>
			<g id="group3094-344" transform="translate(99.5152,17.2963) rotate(20)">
				<title>Sheet.3094</title>
				<g id="shape3095-345" transform="translate(-293.45,289.731) rotate(-90)">
					<title>Sheet.3095</title>
					<path d="M-0 294.87 A4.96754 3.88734 83.34 0 1 5.51 294.87" class="st11"/>
				</g>
				<g id="shape3096-348" transform="translate(296.296,289.731) rotate(90)">
					<title>Sheet.3096</title>
					<path d="M-0 294.87 A4.96393 3.62919 84.83 0 1 5.14 294.87" class="st11"/>
				</g>
			</g>
			<g id="group3097-351" transform="translate(102.084,17.2963) rotate(20)">
				<title>Sheet.3097</title>
				<g id="shape3098-352" transform="translate(-293.45,289.731) rotate(-90)">
					<title>Sheet.3098</title>
					<path d="M-0 294.87 A4.96754 3.88734 83.34 0 1 5.51 294.87" class="st11"/>
				</g>
				<g id="shape3099-355" transform="translate(296.296,289.731) rotate(90)">
					<title>Sheet.3099</title>
					<path d="M-0 294.87 A4.96393 3.62919 84.83 0 1 5.14 294.87" class="st11"/>
				</g>
			</g>
		</g>
		<g id="group3100-358" transform="translate(319.697,-2.88971)">
			<title>Sheet.3100</title>
			<g id="group3101-359" transform="translate(99.5152,17.2963) rotate(20)">
				<title>Sheet.3101</title>
				<g id="shape3102-360" transform="translate(-293.45,289.731) rotate(-90)">
					<title>Sheet.3102</title>
					<path d="M-0 294.87 A4.96754 3.88734 83.34 0 1 5.51 294.87" class="st11"/>
				</g>
				<g id="shape3103-363" transform="translate(296.296,289.731) rotate(90)">
					<title>Sheet.3103</title>
					<path d="M-0 294.87 A4.96393 3.62919 84.83 0 1 5.14 294.87" class="st11"/>
				</g>
			</g>
			<g id="group3104-366" transform="translate(102.084,17.2963) rotate(20)">
				<title>Sheet.3104</title>
				<g id="shape3105-367" transform="translate(-293.45,289.731) rotate(-90)">
					<title>Sheet.3105</title>
					<path d="M-0 294.87 A4.96754 3.88734 83.34 0 1 5.51 294.87" class="st11"/>
				</g>
				<g id="shape3106-370" transform="translate(296.296,289.731) rotate(90)">
					<title>Sheet.3106</title>
					<path d="M-0 294.87 A4.96393 3.62919 84.83 0 1 5.14 294.87" class="st11"/>
				</g>
			</g>
		</g>
		<g id="shape3107-373" transform="translate(490.788,99.0767) rotate(90)">
			<title>Sheet.3107</title>
			<desc>action: REQUEST parameters: distance = 100 ms, length = 5 ms</desc>
			<rect x="0" y="261.311" width="136.667" height="33.5615" class="st3"/>
			<text x="34.37" y="269.59" class="st4">action: REQUEST <tspan x="4.65" dy="1em" class="st12">parameters: distance = 100 ms,  </tspan><tspan
						x="41.05" dy="1.15em" class="st12">length = 5 ms</tspan></text>		</g>
		<g id="shape3109-378" transform="translate(584.434,101.66) rotate(90)">
			<title>Sheet.3109</title>
			<desc>action: REQUEST parameters: distance = 50 ms, length = 10 ms</desc>
			<rect x="0" y="261.311" width="131.5" height="33.5615" class="st3"/>
			<text x="31.78" y="269.59" class="st4">action: REQUEST <tspan x="4.6" dy="1em" class="st12">parameters: distance = 50 ms,  </tspan><tspan
						x="35.93" dy="1.15em" class="st12">length = 10 ms</tspan></text>		</g>
		<g id="shape3111-383" transform="translate(146.277,-281.787)">
			<title>Sheet.3111</title>
			<desc>100 ms</desc>
			<rect x="0" y="283.101" width="40.0695" height="11.7716" class="st3"/>
			<text x="5.35" y="292.59" class="st4">100 ms</text>		</g>
		<g id="shape3113-386" transform="translate(265.717,-281.779)">
			<title>Sheet.3113</title>
			<desc>50 ms</desc>
			<rect x="0" y="283.101" width="40.0695" height="11.7716" class="st3"/>
			<text x="7.89" y="292.59" class="st4">50 ms</text>		</g>
		<g id="shape3114-389" transform="translate(146.277,-265.585)">
			<title>Sheet.3114</title>
			<desc>10 ms</desc>
			<rect x="0" y="283.101" width="40.0695" height="11.7716" class="st3"/>
			<text x="7.89" y="292.59" class="st4">10 ms</text>		</g>
		<g id="shape3115-392" transform="translate(256.823,-265.664)">
			<title>Sheet.3115</title>
			<desc>5 ms</desc>
			<rect x="0" y="283.101" width="28.6299" height="11.7716" class="st3"/>
			<text x="4.7" y="292.59" class="st4">5 ms</text>		</g>
		<g id="shape3116-395" transform="translate(368.908,-265.65)">
			<title>Sheet.3116</title>
			<desc>10 ms</desc>
			<rect x="0" y="283.101" width="40.0695" height="11.7716" class="st3"/>
			<text x="7.89" y="292.59" class="st4">10 ms</text>		</g>
	</g>
</svg>
