<?xml version="1.0" encoding="UTF-8" standalone="no"?>
<!DOCTYPE svg PUBLIC "-//W3C//DTD SVG 1.1//EN" "http://www.w3.org/Graphics/SVG/1.1/DTD/svg11.dtd">
<!-- Generated by Microsoft Visio, SVG Export cmd_recursive.svg Page-1 -->
<svg xmlns="http://www.w3.org/2000/svg" xmlns:xlink="http://www.w3.org/1999/xlink" xmlns:ev="http://www.w3.org/2001/xml-events"
		width="7.64857in" height="5.51735in" viewBox="0 0 550.697 397.249" xml:space="preserve" color-interpolation-filters="sRGB"
		class="st12">
	<style type="text/css">
	<![CDATA[
		.st1 {fill:#00a9ce;stroke:none;stroke-width:1}
		.st2 {fill:#ffffff;font-family:Arial;font-size:1.00001em}
		.st3 {fill:none;stroke:none;stroke-width:1}
		.st4 {fill:#333f48;font-family:Arial;font-size:1.16666em}
		.st5 {stroke:#333f48;stroke-linecap:butt;stroke-width:1}
		.st6 {marker-end:url(#mrkr4-40);stroke:#333f48;stroke-linecap:butt;stroke-width:1}
		.st7 {fill:#333f48;fill-opacity:1;stroke:#333f48;stroke-opacity:1;stroke-width:0.28409090909091}
		.st8 {marker-start:url(#mrkr4-51);stroke:#333f48;stroke-linecap:butt;stroke-width:1}
		.st9 {stroke:#768692;stroke-dasharray:8,4;stroke-linecap:butt;stroke-width:1}
		.st10 {fill:#333f48;font-family:Arial;font-size:1.00001em}
		.st11 {font-size:0.749994em}
		.st12 {fill:none;fill-rule:evenodd;font-size:12px;overflow:visible;stroke-linecap:square;stroke-miterlimit:3}
	]]>
	</style>

	<defs id="Markers">
		<g id="lend4">
			<path d="M 2 1 L 0 0 L 2 -1 L 2 1 " style="stroke:none"/>
		</g>
		<marker id="mrkr4-40" class="st7" refX="-7.04" orient="auto" markerUnits="strokeWidth" overflow="visible">
			<use xlink:href="#lend4" transform="scale(-3.52,-3.52) "/>
		</marker>
		<marker id="mrkr4-51" class="st7" refX="6.68" orient="auto" markerUnits="strokeWidth" overflow="visible">
			<use xlink:href="#lend4" transform="scale(3.52) "/>
		</marker>
	</defs>
	<g>
		<title>Page-1</title>
		<g id="shape114-1" transform="translate(1,-319.132)">
			<title>Nordic Blue</title>
			<desc>Calling thread 1</desc>
			<rect x="0" y="361.528" width="138.535" height="35.7209" class="st1"/>
			<text x="27.24" y="382.99" class="st2">Calling thread 1</text>		</g>
		<g id="shape115-4" transform="translate(1,-367.138)">
			<title>Sheet.115</title>
			<desc>Local side</desc>
			<rect x="0" y="374.035" width="138.535" height="23.2142" class="st3"/>
			<text x="37.75" y="389.84" class="st4">Local side</text>		</g>
		<g id="shape117-7" transform="translate(278.07,-367.138)">
			<title>Sheet.117</title>
			<desc>Remote side</desc>
			<rect x="0" y="374.035" width="271.627" height="23.2142" class="st3"/>
			<text x="96.52" y="389.84" class="st4">Remote side</text>		</g>
		<g id="shape118-10" transform="translate(278.07,-319.132)">
			<title>Nordic Blue.118</title>
			<desc>Thread pool</desc>
			<rect x="0" y="361.528" width="271.627" height="35.7209" class="st1"/>
			<text x="103.79" y="382.99" class="st2">Thread pool</text>		</g>
		<g id="shape119-13" transform="translate(52.9506,-68.3052)">
			<title>Nordic Blue.119</title>
			<rect x="0" y="212.323" width="34.6337" height="184.926" class="st1"/>
		</g>
		<g id="shape121-15" transform="translate(63.1808,-319.132)">
			<title>Dynamic connector</title>
			<path d="M7.09 397.25 L7.09 463.15" class="st5"/>
		</g>
		<g id="shape122-18" transform="translate(77.354,-68.3052)">
			<title>Dynamic connector.122</title>
			<path d="M-7.09 397.25 L-7.09 463.15" class="st5"/>
		</g>
		<g id="shape126-21" transform="translate(402.713,-319.132)">
			<title>Dynamic connector.126</title>
			<path d="M7.09 397.25 L7.09 715.38" class="st5"/>
		</g>
		<g id="shape128-24" transform="translate(494.439,-319.132)">
			<title>Dynamic connector.128</title>
			<path d="M7.09 397.25 L7.09 715.38" class="st5"/>
		</g>
		<g id="shape123-27" transform="translate(293.786,-68.3052)">
			<title>Nordic Blue.123</title>
			<rect x="0" y="212.323" width="34.6337" height="184.926" class="st1"/>
		</g>
		<g id="shape124-29" transform="translate(304.017,-319.132)">
			<title>Dynamic connector.124</title>
			<path d="M7.09 397.25 L7.09 463.15" class="st5"/>
		</g>
		<g id="shape125-32" transform="translate(318.19,-68.3052)">
			<title>Dynamic connector.125</title>
			<path d="M-7.09 397.25 L-7.09 463.15" class="st5"/>
		</g>
		<g id="shape130-35" transform="translate(87.5843,-246.145)">
			<title>Dynamic connector.130</title>
			<path d="M0 390.16 L104.49 390.16 A2.3622 2.3622 0 1 1 109.21 390.16 L199.16 390.16" class="st6"/>
		</g>
		<g id="shape131-41" transform="translate(87.5843,-123.575)">
			<title>Dynamic connector.131</title>
			<path d="M0 390.16 L104.49 390.16 A2.3622 2.3622 0 0 1 109.21 390.16 L198.76 390.16" class="st6"/>
		</g>
		<g id="shape132-46" transform="translate(105.552,-189.81)">
			<title>Dynamic connector.132</title>
			<path d="M6.68 390.16 L7.04 390.16 L86.52 390.16 A2.3622 2.3622 0 0 1 91.24 390.16 L187.43 390.16" class="st8"/>
		</g>
		<g id="shape133-52" transform="translate(87.5843,-61.2186)">
			<title>Dynamic connector.133</title>
			<path d="M6.68 390.16 L7.04 390.16 L104.49 390.16 A2.3622 2.3622 0 0 1 109.21 390.16 L206.2 390.16" class="st8"/>
		</g>
		<g id="shape134-57" transform="translate(98.4649,-196.897)">
			<title>Dynamic connector.134</title>
			<path d="M7.09 397.25 L7.09 462.86" class="st5"/>
		</g>
		<g id="shape135-60" transform="translate(86.5786,-189.81)">
			<title>Dynamic connector.135</title>
			<path d="M0 390.16 L18.97 390.16" class="st5"/>
		</g>
		<g id="shape136-63" transform="translate(187.346,-396.249)">
			<title>Dynamic connector.136</title>
			<path d="M7.09 397.25 L7.09 751.55" class="st9"/>
		</g>
		<g id="shape137-66" transform="translate(87.5843,-253.232)">
			<title>Sheet.137</title>
			<desc>Command 1</desc>
			<rect x="0" y="374.035" width="106.849" height="23.2142" class="st3"/>
			<text x="4" y="389.24" class="st10">Command 1</text>		</g>
		<g id="shape138-69" transform="translate(105.552,-130.661)">
			<title>Sheet.138</title>
			<desc>Response 2</desc>
			<rect x="0" y="374.035" width="88.8815" height="23.2142" class="st3"/>
			<text x="4" y="389.24" class="st10">Response 2</text>		</g>
		<g id="shape139-72" transform="translate(194.433,-68.3052)">
			<title>Sheet.139</title>
			<desc>Response 1</desc>
			<rect x="0" y="374.035" width="99.3535" height="23.2142" class="st3"/>
			<text x="31.31" y="389.24" class="st10">Response 1</text>		</g>
		<g id="shape140-75" transform="translate(194.433,-198.241)">
			<title>Sheet.140</title>
			<desc>Command 2 (e.g. callback)</desc>
			<rect x="0" y="367.744" width="99.3535" height="29.505" class="st3"/>
			<text x="29.99" y="378.9" class="st10">Command 2 <tspan x="39.33" dy="1.6em" class="st11">(e.g. callback)</tspan></text>		</g>
	</g>
</svg>
