<?xml version="1.0" encoding="UTF-8" standalone="no"?>
<!DOCTYPE svg PUBLIC "-//W3C//DTD SVG 1.1//EN" "http://www.w3.org/Graphics/SVG/1.1/DTD/svg11.dtd">
<!-- Generated by Microsoft Visio, SVG Export cmd_simple.svg Page-1 -->
<svg xmlns="http://www.w3.org/2000/svg" xmlns:xlink="http://www.w3.org/1999/xlink" xmlns:ev="http://www.w3.org/2001/xml-events"
		width="7.73135in" height="5.57474in" viewBox="0 0 556.657 401.381" xml:space="preserve" color-interpolation-filters="sRGB"
		class="st11">
	<style type="text/css">
	<![CDATA[
		.st1 {fill:#00a9ce;stroke:none;stroke-width:1}
		.st2 {fill:#ffffff;font-family:Arial;font-size:1.00001em}
		.st3 {fill:none;stroke:none;stroke-width:1}
		.st4 {fill:#333f48;font-family:Arial;font-size:1.16666em}
		.st5 {stroke:#333f48;stroke-linecap:butt;stroke-width:1}
		.st6 {marker-end:url(#mrkr4-21);stroke:#333f48;stroke-linecap:butt;stroke-width:1}
		.st7 {fill:#333f48;fill-opacity:1;stroke:#333f48;stroke-opacity:1;stroke-width:0.28409090909091}
		.st8 {stroke:#768692;stroke-dasharray:8,4;stroke-linecap:butt;stroke-width:1}
		.st9 {fill:#333f48;font-family:Arial;font-size:1.00001em}
		.st10 {marker-start:url(#mrkr4-76);stroke:#333f48;stroke-linecap:butt;stroke-width:1}
		.st11 {fill:none;fill-rule:evenodd;font-size:12px;overflow:visible;stroke-linecap:square;stroke-miterlimit:3}
	]]>
	</style>

	<defs id="Markers">
		<g id="lend4">
			<path d="M 2 1 L 0 0 L 2 -1 L 2 1 " style="stroke:none"/>
		</g>
		<marker id="mrkr4-21" class="st7" refX="-7.04" orient="auto" markerUnits="strokeWidth" overflow="visible">
			<use xlink:href="#lend4" transform="scale(-3.52,-3.52) "/>
		</marker>
		<marker id="mrkr4-76" class="st7" refX="6.68" orient="auto" markerUnits="strokeWidth" overflow="visible">
			<use xlink:href="#lend4" transform="scale(3.52) "/>
		</marker>
	</defs>
	<g>
		<title>Page-1</title>
		<g id="shape114-1" transform="translate(114.32,-321.575)">
			<title>Nordic Blue</title>
			<desc>Calling thread 1</desc>
			<rect x="0" y="365.66" width="106.849" height="35.7209" class="st1"/>
			<text x="11.4" y="387.12" class="st2">Calling thread 1</text>		</g>
		<g id="shape115-4" transform="translate(27.7361,-369.581)">
			<title>Sheet.115</title>
			<desc>Local side</desc>
			<rect x="0" y="378.167" width="138.535" height="23.2142" class="st3"/>
			<text x="37.75" y="393.97" class="st4">Local side</text>		</g>
		<g id="shape117-7" transform="translate(284.03,-369.581)">
			<title>Sheet.117</title>
			<desc>Remote side</desc>
			<rect x="0" y="378.167" width="271.627" height="23.2142" class="st3"/>
			<text x="96.52" y="393.97" class="st4">Remote side</text>		</g>
		<g id="shape118-10" transform="translate(331.72,-321.575)">
			<title>Nordic Blue.118</title>
			<desc>Thread pool</desc>
			<rect x="0" y="365.66" width="223.937" height="35.7209" class="st1"/>
			<text x="79.95" y="387.12" class="st2">Thread pool</text>		</g>
		<g id="shape128-13" transform="translate(525.893,-321.575)">
			<title>Dynamic connector.128</title>
			<path d="M7.09 401.38 L7.09 721.96" class="st5"/>
		</g>
		<g id="shape130-16" transform="translate(183.205,-260.168)">
			<title>Dynamic connector.130</title>
			<path d="M0 394.29 L92.29 394.29 A2.3622 2.3622 0 0 1 97.02 394.29 L155.34 394.29" class="st6"/>
		</g>
		<g id="shape136-22" transform="translate(284.949,-400.381)">
			<title>Dynamic connector.136</title>
			<path d="M-7.09 401.38 L-7.09 796.71" class="st8"/>
		</g>
		<g id="shape137-25" transform="translate(185.062,-267.254)">
			<title>Sheet.137</title>
			<desc>Command</desc>
			<rect x="0" y="378.167" width="92.8004" height="23.2142" class="st3"/>
			<text x="4" y="393.37" class="st9">Command</text>		</g>
		<g id="shape119-28" transform="translate(150.428,-96.501)">
			<title>Nordic Blue.119</title>
			<rect x="0" y="216.455" width="34.6337" height="184.926" class="st1"/>
		</g>
		<g id="shape121-30" transform="translate(160.658,-321.575)">
			<title>Dynamic connector</title>
			<path d="M7.09 401.38 L7.09 441.53" class="st5"/>
		</g>
		<g id="shape122-33" transform="translate(160.658,-96.501)">
			<title>Dynamic connector.122</title>
			<path d="M7.09 401.38 L7.09 493.34" class="st5"/>
		</g>
		<g id="shape148-36" transform="translate(27.7361,-47.232)">
			<title>Nordic Blue.148</title>
			<rect x="0" y="216.455" width="34.6337" height="184.926" class="st1"/>
		</g>
		<g id="shape149-38" transform="translate(52.1396,-321.575)">
			<title>Dynamic connector.149</title>
			<path d="M-7.09 401.38 L-7.09 490.8" class="st5"/>
		</g>
		<g id="shape150-41" transform="translate(52.1396,-47.232)">
			<title>Dynamic connector.150</title>
			<path d="M-7.09 401.38 L-7.09 443.77" class="st5"/>
		</g>
		<g id="shape151-44" transform="translate(1,-321.575)">
			<title>Nordic Blue.151</title>
			<desc>Calling thread 2</desc>
			<rect x="0" y="365.66" width="106.849" height="35.7209" class="st1"/>
			<text x="11.4" y="387.12" class="st2">Calling thread 2</text>		</g>
		<g id="shape152-47" transform="translate(345.584,-119.853)">
			<title>Nordic Blue.152</title>
			<rect x="0" y="253.98" width="34.6337" height="147.402" class="st1"/>
		</g>
		<g id="shape153-49" transform="translate(355.815,-321.575)">
			<title>Dynamic connector.153</title>
			<path d="M7.09 401.38 L7.09 455.7" class="st5"/>
		</g>
		<g id="shape154-52" transform="translate(355.815,-119.853)">
			<title>Dynamic connector.154</title>
			<path d="M7.09 401.38 L7.09 516.69" class="st5"/>
		</g>
		<g id="shape155-55" transform="translate(430.624,-61.7424)">
			<title>Nordic Blue.155</title>
			<rect x="0" y="253.98" width="34.6337" height="147.402" class="st1"/>
		</g>
		<g id="shape156-57" transform="translate(440.854,-321.575)">
			<title>Dynamic connector.156</title>
			<path d="M7.09 401.38 L7.09 513.81" class="st5"/>
		</g>
		<g id="shape157-60" transform="translate(455.027,-61.7424)">
			<title>Dynamic connector.157</title>
			<path d="M-7.09 401.38 L-7.09 458.58" class="st5"/>
		</g>
		<g id="shape158-63" transform="translate(61.1061,-202.057)">
			<title>Dynamic connector.158</title>
			<path d="M0 394.29 L214.39 394.29 A2.3622 2.3622 0 1 1 219.12 394.29 L362.48 394.29" class="st6"/>
		</g>
		<g id="shape159-68" transform="translate(64.2263,-208.944)">
			<title>Sheet.159</title>
			<desc>Command</desc>
			<rect x="0" y="378.167" width="92.8004" height="23.2142" class="st3"/>
			<text x="4" y="393.37" class="st9">Command</text>		</g>
		<g id="shape160-71" transform="translate(185.201,-112.766)">
			<title>Dynamic connector.160</title>
			<path d="M6.68 394.29 L7.04 394.29 L90.3 394.29 A2.3622 2.3622 0 0 1 95.02 394.29 L160.38 394.29" class="st10"/>
		</g>
		<g id="shape161-77" transform="translate(62.2264,-54.6558)">
			<title>Dynamic connector.161</title>
			<path d="M6.68 394.29 L7.04 394.29 L103.16 394.29 A2.3622 2.3622 0 0 1 107.88 394.29 L213.27 394.29 A2.3622 2.3622 0
						 0 1 218 394.29 L298.31 394.29 A2.3622 2.3622 0 1 1 303.04 394.29 L368.4 394.29" class="st10"/>
		</g>
		<g id="shape162-82" transform="translate(277.862,-119.853)">
			<title>Sheet.162</title>
			<desc>Response</desc>
			<rect x="0" y="378.167" width="67.7225" height="23.2142" class="st3"/>
			<text x="9.69" y="393.37" class="st9">Response</text>		</g>
		<g id="shape163-85" transform="translate(362.901,-61.7424)">
			<title>Sheet.163</title>
			<desc>Response</desc>
			<rect x="0" y="378.167" width="67.7225" height="23.2142" class="st3"/>
			<text x="9.69" y="393.37" class="st9">Response</text>		</g>
	</g>
</svg>
