<?xml version="1.0" encoding="UTF-8" standalone="no"?>
<!DOCTYPE svg PUBLIC "-//W3C//DTD SVG 1.1//EN" "http://www.w3.org/Graphics/SVG/1.1/DTD/svg11.dtd">
<!-- Generated by Microsoft Visio, SVG Export evt_simple.svg Page-1 -->
<svg xmlns="http://www.w3.org/2000/svg" xmlns:xlink="http://www.w3.org/1999/xlink" xmlns:ev="http://www.w3.org/2001/xml-events"
		width="7.57776in" height="5.57474in" viewBox="0 0 545.598 401.381" xml:space="preserve" color-interpolation-filters="sRGB"
		class="st12">
	<style type="text/css">
	<![CDATA[
		.st1 {fill:#00a9ce;stroke:none;stroke-width:1}
		.st2 {fill:#ffffff;font-family:Arial;font-size:1.00001em}
		.st3 {fill:none;stroke:none;stroke-width:1}
		.st4 {fill:#333f48;font-family:Arial;font-size:1.16666em}
		.st5 {stroke:#333f48;stroke-linecap:butt;stroke-width:1}
		.st6 {marker-end:url(#mrkr4-21);stroke:#333f48;stroke-linecap:butt;stroke-width:1}
		.st7 {fill:#333f48;fill-opacity:1;stroke:#333f48;stroke-opacity:1;stroke-width:0.28409090909091}
		.st8 {stroke:#768692;stroke-dasharray:8,4;stroke-linecap:butt;stroke-width:1}
		.st9 {fill:#333f48;font-family:Arial;font-size:1.00001em}
		.st10 {marker-start:url(#mrkr4-68);stroke:#333f48;stroke-linecap:butt;stroke-width:1}
		.st11 {font-size:0.83333em}
		.st12 {fill:none;fill-rule:evenodd;font-size:12px;overflow:visible;stroke-linecap:square;stroke-miterlimit:3}
	]]>
	</style>

	<defs id="Markers">
		<g id="lend4">
			<path d="M 2 1 L 0 0 L 2 -1 L 2 1 " style="stroke:none"/>
		</g>
		<marker id="mrkr4-21" class="st7" refX="-7.04" orient="auto" markerUnits="strokeWidth" overflow="visible">
			<use xlink:href="#lend4" transform="scale(-3.52,-3.52) "/>
		</marker>
		<marker id="mrkr4-68" class="st7" refX="6.68" orient="auto" markerUnits="strokeWidth" overflow="visible">
			<use xlink:href="#lend4" transform="scale(3.52) "/>
		</marker>
	</defs>
	<g>
		<title>Page-1</title>
		<g id="shape114-1" transform="translate(99.9033,-321.575)">
			<title>Nordic Blue</title>
			<desc>Calling thread 1</desc>
			<rect x="0" y="365.66" width="106.849" height="35.7209" class="st1"/>
			<text x="11.4" y="387.12" class="st2">Calling thread 1</text>		</g>
		<g id="shape115-4" transform="translate(3.4595,-369.581)">
			<title>Sheet.115</title>
			<desc>Local side</desc>
			<rect x="0" y="378.167" width="203.292" height="23.2142" class="st3"/>
			<text x="70.13" y="393.97" class="st4">Local side</text>		</g>
		<g id="shape117-7" transform="translate(317.303,-369.581)">
			<title>Sheet.117</title>
			<desc>Remote side</desc>
			<rect x="0" y="378.167" width="223.937" height="23.2142" class="st3"/>
			<text x="72.67" y="393.97" class="st4">Remote side</text>		</g>
		<g id="shape118-10" transform="translate(317.303,-321.575)">
			<title>Nordic Blue.118</title>
			<desc>Thread pool</desc>
			<rect x="0" y="365.66" width="223.937" height="35.7209" class="st1"/>
			<text x="79.95" y="387.12" class="st2">Thread pool</text>		</g>
		<g id="shape128-13" transform="translate(516.012,-321.575)">
			<title>Dynamic connector.128</title>
			<path d="M7.09 401.38 L7.09 721.96" class="st5"/>
		</g>
		<g id="shape130-16" transform="translate(168.788,-274.341)">
			<title>Dynamic connector.130</title>
			<path d="M0 408.47 L92.29 408.47 A2.3622 2.3622 0 0 1 97.02 408.47 L154.21 408.47" class="st6"/>
		</g>
		<g id="shape136-22" transform="translate(270.531,-400.381)">
			<title>Dynamic connector.136</title>
			<path d="M-7.09 401.38 L-7.09 796.71" class="st8"/>
		</g>
		<g id="shape137-25" transform="translate(170.644,-267.254)">
			<title>Sheet.137</title>
			<desc>Event</desc>
			<rect x="0" y="378.167" width="44.6114" height="23.2142" class="st3"/>
			<text x="4" y="393.37" class="st9">Event</text>		</g>
		<g id="shape119-28" transform="translate(136.011,-165.207)">
			<title>Nordic Blue.119</title>
			<rect x="0" y="285.161" width="34.6337" height="116.22" class="st1"/>
		</g>
		<g id="shape121-30" transform="translate(146.241,-321.575)">
			<title>Dynamic connector</title>
			<path d="M7.09 401.38 L7.09 441.53" class="st5"/>
		</g>
		<g id="shape122-33" transform="translate(146.241,-165.207)">
			<title>Dynamic connector.122</title>
			<path d="M7.09 401.38 L7.09 562.05" class="st5"/>
		</g>
		<g id="shape148-36" transform="translate(58.7324,-81.2477)">
			<title>Nordic Blue.148</title>
			<rect x="0" y="333.35" width="34.6337" height="68.0315" class="st1"/>
		</g>
		<g id="shape149-38" transform="translate(83.1359,-321.575)">
			<title>Dynamic connector.149</title>
			<path d="M-7.09 401.38 L-7.09 573.68" class="st5"/>
		</g>
		<g id="shape150-41" transform="translate(83.1359,-81.2477)">
			<title>Dynamic connector.150</title>
			<path d="M-7.09 401.38 L-7.09 477.78" class="st5"/>
		</g>
		<g id="shape151-44" transform="translate(3.4595,-321.575)">
			<title>Nordic Blue.151</title>
			<desc>Thread pool</desc>
			<rect x="0" y="365.66" width="89.9067" height="35.7209" class="st1"/>
			<text x="12.93" y="387.12" class="st2">Thread pool</text>		</g>
		<g id="shape152-47" transform="translate(330.034,-199.223)">
			<title>Nordic Blue.152</title>
			<rect x="0" y="333.35" width="34.6337" height="68.0315" class="st1"/>
		</g>
		<g id="shape153-49" transform="translate(340.264,-321.575)">
			<title>Dynamic connector.153</title>
			<path d="M7.09 401.38 L7.09 455.7" class="st5"/>
		</g>
		<g id="shape154-52" transform="translate(340.264,-199.223)">
			<title>Dynamic connector.154</title>
			<path d="M7.09 401.38 L7.09 596.06" class="st5"/>
		</g>
		<g id="shape155-55" transform="translate(423.268,-61.7424)">
			<title>Nordic Blue.155</title>
			<rect x="0" y="253.98" width="34.6337" height="147.402" class="st1"/>
		</g>
		<g id="shape156-57" transform="translate(433.498,-321.575)">
			<title>Dynamic connector.156</title>
			<path d="M7.09 401.38 L7.09 513.81" class="st5"/>
		</g>
		<g id="shape157-60" transform="translate(433.498,-61.7424)">
			<title>Dynamic connector.157</title>
			<path d="M7.09 401.38 L7.09 458.58" class="st5"/>
		</g>
		<g id="shape161-63" transform="translate(93.3661,-143.07)">
			<title>Dynamic connector.161</title>
			<path d="M6.68 395.14 L7.04 395.13 L57.6 394.87 A2.3622 2.3622 0 1 1 62.32 394.84 L167.72 394.28 A2.3622 2.3622 0 1 1
						 172.44 394.25 L251.62 393.83 A2.3622 2.3622 0 0 1 256.35 393.81 L329.9 393.42" class="st10"/>
		</g>
		<g id="shape162-69" transform="translate(170.644,-209.144)">
			<title>Sheet.162</title>
			<desc>Event</desc>
			<rect x="0" y="378.167" width="44.6114" height="23.2142" class="st3"/>
			<text x="4" y="393.37" class="st9">Event</text>		</g>
		<g id="shape163-72" transform="translate(347.35,-153.6)">
			<title>Sheet.163</title>
			<desc>Event (e.g. callback)</desc>
			<rect x="0" y="378.167" width="75.9175" height="23.2142" class="st3"/>
			<text x="41.23" y="387.37" class="st9">Event <tspan x="9.67" dy="1.26em" class="st11">(e.g. callback)</tspan></text>		</g>
		<g id="shape164-76" transform="translate(170.469,-202.057)">
			<title>Dynamic connector.164</title>
			<path d="M0 394.29 L90.61 394.29 A2.3622 2.3622 0 1 1 95.34 394.29 L245.76 394.29" class="st6"/>
		</g>
		<g id="shape165-81" transform="translate(15.4134,-321.575)">
			<title>Dynamic connector.165</title>
			<path d="M7.09 401.38 L7.09 718.41" class="st5"/>
		</g>
		<g id="shape167-84" transform="translate(41.3262,-321.575)">
			<title>Dynamic connector.167</title>
			<path d="M7.09 401.38 L7.09 718.41" class="st5"/>
		</g>
	</g>
</svg>
