<?xml version="1.0" encoding="UTF-8" standalone="no"?>
<!DOCTYPE svg PUBLIC "-//W3C//DTD SVG 1.1//EN" "http://www.w3.org/Graphics/SVG/1.1/DTD/svg11.dtd">
<!-- Generated by Microsoft Visio, SVG Export matter_platform_design_nRF53_wifi_switching.svg Page-1 -->
<svg xmlns="http://www.w3.org/2000/svg" xmlns:xlink="http://www.w3.org/1999/xlink" xmlns:ev="http://www.w3.org/2001/xml-events"
		width="7.31715in" height="7.89665in" viewBox="0 0 526.835 568.559" xml:space="preserve" color-interpolation-filters="sRGB"
		class="st23">
	<style type="text/css">
	<![CDATA[
		.st1 {fill:#6ad1e3;stroke:none;stroke-width:1}
		.st2 {stroke:none;stroke-linecap:round;stroke-linejoin:round;stroke-width:0.75}
		.st3 {fill:#333f48;font-family:Arial;font-size:1.5em}
		.st4 {fill:#0033a0;stroke:none;stroke-width:1}
		.st5 {fill:#ffffff;font-family:Arial;font-size:1.16666em}
		.st6 {fill:#00a9ce;stroke:none;stroke-width:1}
		.st7 {fill:#768692;stroke:none;stroke-width:1}
		.st8 {fill:#0077c8;stroke:none;stroke-width:1}
		.st9 {fill:#0033a0;fill-opacity:0.55;stroke:none;stroke-linecap:round;stroke-linejoin:round;stroke-width:0.75}
		.st10 {fill:#ffffff;font-family:Arial;font-size:1.00001em}
		.st11 {fill:none;stroke:none;stroke-width:1}
		.st12 {fill:#333f48;font-family:Arial;font-size:1.00001em}
		.st13 {font-size:1em}
		.st14 {marker-end:url(#mrkr13-62);marker-start:url(#mrkr13-60);stroke:#333f48;stroke-linecap:butt;stroke-width:1}
		.st15 {fill:#333f48;fill-opacity:1;stroke:#333f48;stroke-opacity:1;stroke-width:0.28409090909091}
		.st16 {fill:#000000;font-family:Arial;font-size:1.00001em}
		.st17 {fill:#d9e1e2;stroke:none;stroke-width:1}
		.st18 {fill:#00a9ce;stroke:none;stroke-linecap:round;stroke-linejoin:round;stroke-width:0.75}
		.st19 {fill:#ffffff;font-family:Arial;font-size:0.75em}
		.st20 {marker-end:url(#mrkr13-62);stroke:#333f48;stroke-dasharray:8,4;stroke-linecap:butt;stroke-width:1}
		.st21 {fill:#333f48;font-family:Arial;font-size:0.833336em}
		.st22 {marker-start:url(#mrkr13-60);stroke:#333f48;stroke-dasharray:8,4;stroke-linecap:butt;stroke-width:1}
		.st23 {fill:none;fill-rule:evenodd;font-size:12px;overflow:visible;stroke-linecap:square;stroke-miterlimit:3}
	]]>
	</style>

	<defs id="Markers">
		<g id="lend13">
			<path d="M 3 1 L 0 0 L 3 -1 L 3 1 " style="stroke:none"/>
		</g>
		<marker id="mrkr13-60" class="st15" refX="10.2" orient="auto" markerUnits="strokeWidth" overflow="visible">
			<use xlink:href="#lend13" transform="scale(3.52) "/>
		</marker>
		<marker id="mrkr13-62" class="st15" refX="-10.56" orient="auto" markerUnits="strokeWidth" overflow="visible">
			<use xlink:href="#lend13" transform="scale(-3.52,-3.52) "/>
		</marker>
	</defs>
	<g>
		<title>Page-1</title>
		<g id="shape1015-1" transform="translate(1,-1)">
			<title>Sheet.1015</title>
			<path d="M404.36 434.2 L0 434.2 L0 568.56 L404.36 568.56 L404.36 434.2 Z" class="st1"/>
		</g>
		<g id="shape661-3" transform="translate(1,-178.617)">
			<title>Sheet.661</title>
			<path d="M404.36 179.62 L0 179.62 L0 568.56 L404.36 568.56 L404.36 179.62 Z" class="st1"/>
		</g>
		<g id="shape662-5" transform="translate(1,-178.99)">
			<title>Sheet.662</title>
			<desc>nRF53 application core</desc>
			<path d="M404.36 537.09 L0 537.09 L0 568.56 L404.36 568.56 L404.36 537.09" class="st2"/>
			<text x="109.63" y="558.22" class="st3">nRF53 application core</text>		</g>
		<g id="shape663-9" transform="translate(9.11277,-502.173)">
			<title>Sheet.663</title>
			<desc>Application</desc>
			<path d="M0 513.62 L0 568.56 L386.82 568.56 L386.82 513.62 L0 513.62 L0 513.62 Z" class="st4"/>
			<text x="159.17" y="545.29" class="st5">Application</text>		</g>
		<g id="shape665-12" transform="translate(9.11277,-214.601)">
			<title>Sheet.665</title>
			<path d="M0 324.09 L0 568.56 L190.06 568.56 L190.06 324.09 L0 324.09 L0 324.09 Z" class="st6"/>
		</g>
		<g id="shape666-14" transform="translate(9.11277,-436.328)">
			<title>Sheet.666</title>
			<desc>Bluetooth® LE stack</desc>
			<path d="M190.06 546.08 L0 546.08 L0 568.56 L190.06 568.56 L190.06 546.08" class="st2"/>
			<text x="31.5" y="561.52" class="st5">Bluetooth® LE stack</text>		</g>
		<g id="shape667-18" transform="translate(205.874,-214.644)">
			<title>Sheet.667</title>
			<path d="M0 324.09 L0 568.56 L190.06 568.56 L190.06 324.09 L0 324.09 L0 324.09 Z" class="st6"/>
		</g>
		<g id="shape699-20" transform="translate(9.10557,-465.356)">
			<title>Sheet.699</title>
			<desc>Zephyr integration</desc>
			<path d="M0 537.99 L0 568.56 L386.82 568.56 L386.82 537.99 L0 537.99 L0 537.99 Z" class="st7"/>
			<text x="136.99" y="557.47" class="st5">Zephyr integration</text>		</g>
		<g id="shape683-23" transform="translate(25.0181,-242.253)">
			<title>Sheet.683</title>
			<rect x="0" y="374.079" width="157.703" height="194.481" class="st8"/>
		</g>
		<g id="shape687-25" transform="translate(32.733,-255.752)">
			<title>Sheet.687</title>
			<desc>L2CAP</desc>
			<path d="M65.65 525.13 L0 525.13 L0 568.56 L65.65 568.56 L65.65 525.13 Z" class="st9"/>
			<text x="13.81" y="550.45" class="st10">L2CAP</text>		</g>
		<g id="shape689-28" transform="translate(32.733,-353.287)">
			<title>Sheet.689</title>
			<desc>GATT</desc>
			<path d="M65.65 525.21 L0 525.21 L0 568.56 L65.65 568.56 L65.65 525.21 Z" class="st9"/>
			<text x="16.83" y="550.48" class="st10">GATT</text>		</g>
		<g id="shape691-31" transform="translate(32.733,-303.995)">
			<title>Sheet.691</title>
			<desc>ATT</desc>
			<path d="M65.65 525.21 L0 525.21 L0 568.56 L65.65 568.56 L65.65 525.21 Z" class="st9"/>
			<text x="21.49" y="550.48" class="st10">ATT</text>		</g>
		<g id="shape693-34" transform="translate(101.218,-353.287)">
			<title>Sheet.693</title>
			<desc>GAP</desc>
			<path d="M72.76 525.06 L0 525.06 L0 568.56 L72.76 568.56 L72.76 525.06 Z" class="st9"/>
			<text x="23.71" y="550.41" class="st10">GAP</text>		</g>
		<g id="shape695-37" transform="translate(101.218,-255.752)">
			<title>Sheet.695</title>
			<desc>SM</desc>
			<path d="M72.76 476.44 L0 476.44 L0 568.56 L72.76 568.56 L72.76 476.44 Z" class="st9"/>
			<text x="27.38" y="526.1" class="st10">SM</text>		</g>
		<g id="shape764-40" transform="translate(25.0181,-396.074)">
			<title>Sheet.764</title>
			<desc>Zephyr host</desc>
			<rect x="0" y="528.305" width="157.703" height="40.254" class="st11"/>
			<text x="47.17" y="552.03" class="st10">Zephyr host</text>		</g>
		<g id="shape1016-43" transform="translate(1,-2.01237)">
			<title>Sheet.1016</title>
			<desc>nRF53 network core</desc>
			<path d="M404.36 537.09 L0 537.09 L0 568.56 L404.36 568.56 L404.36 537.09" class="st2"/>
			<text x="121.15" y="558.22" class="st3">nRF53 network core</text>		</g>
		<g id="shape1018-47" transform="translate(10.0953,-34.9979)">
			<title>Sheet.1018</title>
			<desc>Multiprotocol Service Layer (MPSL)</desc>
			<path d="M384.52 537.99 L0 537.99 L0 568.56 L384.52 568.56 L384.52 537.99 Z" class="st6"/>
			<text x="97.89" y="556.87" class="st10">Multiprotocol Service Layer (MPSL)</text>		</g>
		<g id="shape1024-50" transform="translate(103.869,-143.46)">
			<title>Sheet.1024</title>
			<desc>OpenAMP (HCI)</desc>
			<rect x="0" y="543.614" width="78.8514" height="24.9449" class="st11"/>
			<text x="4" y="552.49" class="st12">OpenAMP <tspan x="4" dy="1.2em" class="st13">(HCI)</tspan></text>		</g>
		<g id="shape1025-54" transform="translate(96.7829,-242.253)">
			<title>Dynamic connector.1025</title>
			<path d="M7.09 578.76 L7.09 579.12 L7.09 679.42" class="st14"/>
		</g>
		<g id="shape1011-63" transform="translate(10.0953,-75.0678)">
			<title>Sheet.1011</title>
			<path d="M384.52 522.79 L0 522.79 L0 568.56 L384.52 568.56 L384.52 522.79 Z" class="st6"/>
		</g>
		<g id="shape1013-65" transform="translate(16.6155,-81.7182)">
			<title>Sheet.1013</title>
			<desc>SoftDevice Controller</desc>
			<path d="M371.36 536.09 L0 536.09 L0 568.56 L371.36 568.56 L371.36 536.09 Z" class="st8"/>
			<text x="128.99" y="555.93" class="st10">SoftDevice Controller</text>		</g>
		<g id="shape1026-68" transform="translate(412.449,-120.834)">
			<title>Sheet.1026</title>
			<desc>nRF7002 EK shield (Wi-Fi 6 Companion IC)</desc>
			<path d="M0 510.68 L0 568.56 L113.39 568.56 L113.39 510.68 L0 510.68 L0 510.68 Z" class="st6"/>
			<text x="4.99" y="528.82" class="st16">nRF7002 EK shield <tspan x="35.7" dy="1.2em" class="st13">(Wi</tspan>-Fi 6 <tspan
						x="16.34" dy="1.2em" class="st13">Companion IC)</tspan></text>		</g>
		<g id="shape1035-73" transform="translate(473.961,-178.617)">
			<title>Sheet.1035</title>
			<desc>SPI</desc>
			<rect x="0" y="527.907" width="34.0158" height="40.6523" class="st11"/>
			<text x="7.34" y="551.83" class="st12">SPI</text>		</g>
		<g id="shape1049-76" transform="translate(205.874,-214.644)">
			<title>Sheet.1049</title>
			<desc>Switchable: Thread or Wi-Fi</desc>
			<path d="M190.06 324.09 L0 324.09 L0 568.56 L190.06 568.56 L190.06 324.09" class="st2"/>
			<text x="8.67" y="450.53" class="st5">Switchable: Thread or Wi-Fi</text>		</g>
		<g id="shape1050-80" transform="translate(422.629,-214.601)">
			<title>Sheet.1050</title>
			<path d="M0 461.32 L0 568.56 L96.12 568.56 L96.12 461.32 L0 461.32 L0 461.32 Z" class="st8"/>
		</g>
		<g id="shape1029-82" transform="translate(424.312,-219.27)">
			<title>Sheet.1029</title>
			<rect x="0" y="518.735" width="90.3134" height="49.8241" class="st17"/>
		</g>
		<g id="shape1030-84" transform="translate(425.964,-220.199)">
			<title>Sheet.1030</title>
			<path d="M87.28 520.15 L0 520.15 L0 568.56 L87.28 568.56 L87.28 520.15 Z" class="st18"/>
		</g>
		<g id="shape1031-86" transform="translate(440.282,-269.094)">
			<title>Sheet.1031</title>
			<rect x="0" y="545.031" width="72.9667" height="23.528" class="st6"/>
		</g>
		<g id="shape1032-88" transform="translate(441.585,-269.647)">
			<title>Sheet.1032</title>
			<path d="M72.97 544.62 L0 544.62 L0 568.56 L72.97 568.56 L72.97 544.62 Z" class="st4"/>
		</g>
		<g id="shape1033-90" transform="translate(424.312,-268.728)">
			<title>Sheet.1033</title>
			<rect x="0" y="543.696" width="16.5208" height="24.8627" class="st17"/>
		</g>
		<g id="shape1034-92" transform="translate(425.964,-244.211)">
			<title>Sheet.1034</title>
			<path d="M14.02 520.15 L0 520.15 L0 568.56 L14.02 568.56 L14.02 520.15 Z" class="st18"/>
		</g>
		<g id="shape1041-94" transform="translate(425.964,-220.199)">
			<title>Sheet.1041</title>
			<desc>Wi-Fi driver</desc>
			<rect x="0" y="520.341" width="87.2846" height="48.2177" class="st11"/>
			<text x="12.98" y="548.05" class="st10">Wi-Fi driver</text>		</g>
		<g id="shape1043-97" transform="translate(441.659,-269.647)">
			<title>Sheet.1043</title>
			<desc>wpa_supplicant</desc>
			<rect x="0" y="546.079" width="72.9667" height="22.4804" class="st11"/>
			<text x="5.46" y="560.02" class="st19">wpa_supplicant</text>		</g>
		<g id="shape1027-100" transform="translate(469.579,-219.27)">
			<title>Dynamic connector.1027</title>
			<path d="M7.09 578.76 L7.09 579.12 L7.09 598.56" class="st14"/>
		</g>
		<g id="shape1053-107" transform="translate(422.629,-405.492)">
			<title>Dynamic connector</title>
			<path d="M0 568.56 L-7.35 568.56 L-7.35 637.17 L-16.14 637.17" class="st20"/>
		</g>
		<g id="shape1054-112" transform="translate(422.629,-268.221)">
			<title>Dynamic connector.1054</title>
			<path d="M0 568.56 L-7.35 568.56 L-7.35 499.9 L-16.14 499.9" class="st20"/>
		</g>
		<g id="shape1055-117" transform="translate(422.629,-321.287)">
			<title>Sheet.1055</title>
			<desc>MCUboot swap</desc>
			<rect x="0" y="537.378" width="76.0168" height="31.1811" class="st11"/>
			<text x="16.89" y="549.97" class="st21">MCUboot <tspan x="26.34" dy="1.2em" class="st13">swap</tspan></text>		</g>
		<g id="shape1028-121" transform="translate(422.629,-292.622)">
			<title>Sheet.1028</title>
			<desc>Wi-Fi host</desc>
			<path d="M96.12 539.34 L0 539.34 L0 568.56 L96.12 568.56 L96.12 539.34" class="st2"/>
			<text x="16.56" y="558.15" class="st5">Wi-Fi host</text>		</g>
		<g id="group1057-125" transform="translate(416.83,-351.873)">
			<title>Sheet.1057</title>
			<g id="shape1048-126" transform="translate(5.79896,0)">
				<title>Sheet.1048</title>
				<path d="M0 461.32 L0 568.56 L96.12 568.56 L96.12 461.32 L0 461.32 L0 461.32 Z" class="st8"/>
			</g>
			<g id="shape1038-128" transform="translate(5.79896,0)">
				<title>Sheet.1038</title>
				<desc>Thread stack (OpenThread)</desc>
				<path d="M96.12 461.32 L0 461.32 L0 568.56 L96.12 568.56 L96.12 461.32" class="st2"/>
				<text x="13.38" y="511.34" class="st10">Thread stack <tspan x="10.37" dy="1.2em" class="st13">(OpenThread)</tspan></text>			</g>
		</g>
		<g id="shape1062-133" transform="translate(483.315,-351.873)">
			<title>Dynamic connector.1062</title>
			<path d="M7.09 578.76 L7.09 579.12 L7.09 598.59" class="st22"/>
		</g>
		<g id="shape1063-138" transform="translate(508.685,-351.873)">
			<title>Dynamic connector.1063</title>
			<path d="M-6.94 568.56 L-7.13 588.03" class="st20"/>
		</g>
	</g>
</svg>
