<?xml version="1.0" encoding="UTF-8" standalone="no"?>
<!DOCTYPE svg PUBLIC "-//W3C//DTD SVG 1.1//EN" "http://www.w3.org/Graphics/SVG/1.1/DTD/svg11.dtd">
<!-- Generated by Microsoft Visio, SVG Export matter_architecture.svg Page-1 -->
<svg xmlns="http://www.w3.org/2000/svg" xmlns:xlink="http://www.w3.org/1999/xlink" xmlns:ev="http://www.w3.org/2001/xml-events"
		width="7.19805in" height="5.57425in" viewBox="0 0 518.26 401.346" xml:space="preserve" color-interpolation-filters="sRGB"
		class="st14">
	<style type="text/css">
	<![CDATA[
		.st1 {fill:#768692;stroke:none;stroke-width:1}
		.st2 {fill:#feffff;font-family:Arial;font-size:0.833336em}
		.st3 {fill:#d0df00;stroke:none;stroke-linecap:round;stroke-linejoin:round;stroke-width:0.75}
		.st4 {fill:#333f48;font-family:Arial;font-size:1.00001em}
		.st5 {fill:none;stroke:#768692;stroke-width:1}
		.st6 {fill:#d0df00;stroke:none;stroke-width:1}
		.st7 {fill:none;stroke:none;stroke-width:1}
		.st8 {fill:#333f48;font-family:Arial;font-size:0.666664em}
		.st9 {fill:#333f48;stroke:none;stroke-linecap:round;stroke-linejoin:round;stroke-width:0.75}
		.st10 {stroke:none;stroke-linecap:round;stroke-linejoin:round;stroke-width:0.75}
		.st11 {fill:#333f48;stroke:none;stroke-width:1}
		.st12 {fill:#ffffff;font-family:Arial;font-size:1.00001em}
		.st13 {font-size:1em}
		.st14 {fill:none;fill-rule:evenodd;font-size:12px;overflow:visible;stroke-linecap:square;stroke-miterlimit:3}
	]]>
	</style>

	<g>
		<title>Page-1</title>
		<g id="shape3321-1" transform="translate(5.8114,-217.285)">
			<title>Sheet.3321</title>
			<desc>Session</desc>
			<path d="M0 373.11 L0 401.35 L151.61 401.35 L151.61 373.11 L0 373.11 L0 373.11 Z" class="st1"/>
			<text x="8.5" y="390.23" class="st2">Session</text>		</g>
		<g id="shape3322-4" transform="translate(5.8114,-248.183)">
			<title>Sheet.3322</title>
			<desc>Presentation</desc>
			<path d="M0 373.11 L0 401.35 L151.61 401.35 L151.61 373.11 L0 373.11 L0 373.11 Z" class="st1"/>
			<text x="8.5" y="390.23" class="st2">Presentation</text>		</g>
		<g id="shape3323-7" transform="translate(5.8114,-278.571)">
			<title>Sheet.3323</title>
			<desc>Application</desc>
			<path d="M0 373.11 L0 401.35 L151.61 401.35 L151.61 373.11 L0 373.11 L0 373.11 Z" class="st1"/>
			<text x="8.5" y="390.23" class="st2">Application</text>		</g>
		<g id="shape3315-10" transform="translate(456.322,-43.2362)">
			<title>Sheet.3315</title>
			<path d="M60.94 276.68 L0 276.68 L0 401.35 L60.94 401.35 L60.94 276.68 Z" class="st1"/>
		</g>
		<g id="shape3313-12" transform="translate(5.8114,-43.2362)">
			<title>Sheet.3313</title>
			<desc>Data Link</desc>
			<path d="M0 361.66 L0 401.35 L511.45 401.35 L511.45 361.66 L0 361.66 L0 361.66 Z" class="st1"/>
			<text x="8.5" y="384.5" class="st2">Data Link</text>		</g>
		<g id="shape3312-15" transform="translate(5.8114,-85.7006)">
			<title>Sheet.3312</title>
			<desc>Network</desc>
			<path d="M0 319.14 L0 401.35 L448.24 401.35 L448.24 319.14 L0 319.14 L0 319.14 Z" class="st1"/>
			<text x="8.5" y="363.24" class="st2">Network</text>		</g>
		<g id="shape3241-18" transform="translate(81.6142,-214.961)">
			<title>Sheet.3241</title>
			<desc>Matter stack</desc>
			<path d="M0 306.67 L0 401.35 L435.65 401.35 L435.65 306.67 L0 306.67 L0 306.67 Z" class="st3"/>
			<text x="185.15" y="357.61" class="st4">Matter stack</text>		</g>
		<g id="shape3261-21" transform="translate(1,-328.346)">
			<title>Nordic Light Grey</title>
			<rect x="0" y="329.346" width="127.378" height="72" class="st5"/>
		</g>
		<g id="group3290-23" transform="translate(5.8114,-334.234)">
			<title>Sheet.3290</title>
			<g id="shape3271-24">
				<title>Sheet.3271</title>
				<rect x="0" y="383.34" width="28.1738" height="18.0063" class="st6"/>
			</g>
			<g id="shape3282-26" transform="translate(34.6999,-0.862791)">
				<title>Sheet.3282</title>
				<desc>Matter stack</desc>
				<rect x="0" y="385.066" width="83.0556" height="16.2807" class="st7"/>
				<text x="4" y="395.61" class="st8">Matter stack</text>			</g>
		</g>
		<g id="group3294-29" transform="translate(5.8114,-355.002)">
			<title>Sheet.3294</title>
			<g id="shape3222-30">
				<title>Sheet.3222</title>
				<rect x="0" y="383.34" width="28.1738" height="18.0063" class="st1"/>
			</g>
			<g id="shape3276-32" transform="translate(34.6999,-0.862791)">
				<title>Sheet.3276</title>
				<desc>OSI/ISO stack layers</desc>
				<rect x="0" y="385.066" width="83.0556" height="16.2807" class="st7"/>
				<text x="4" y="395.61" class="st8">OSI/ISO stack layers</text>			</g>
		</g>
		<g id="group3295-35" transform="translate(5.8114,-376.671)">
			<title>Sheet.3295</title>
			<g id="shape3223-36">
				<title>Sheet.3223</title>
				<rect x="0" y="383.34" width="28.1738" height="18.0063" class="st9"/>
			</g>
			<g id="shape3274-38" transform="translate(34.6999,-0.862791)">
				<title>Sheet.3274</title>
				<desc>Components</desc>
				<rect x="0" y="385.066" width="83.0556" height="16.2807" class="st7"/>
				<text x="4" y="395.61" class="st8">Components</text>			</g>
		</g>
		<g id="shape3196-41" transform="translate(5.8114,-170.74)">
			<title>Sheet.3196</title>
			<desc>Transport</desc>
			<path d="M0 361.66 L0 401.35 L448.24 401.35 L448.24 361.66 L0 361.66 L0 361.66 Z" class="st1"/>
			<text x="8.5" y="384.5" class="st2">Transport</text>		</g>
		<g id="shape3203-44" transform="translate(157.417,-91.4294)">
			<title>Sheet.3203</title>
			<path d="M196.93 382.7 L0 382.7 L0 401.35 L196.93 401.35 L196.93 382.7" class="st10"/>
		</g>
		<g id="shape3198-47" transform="translate(81.6142,-173.116)">
			<title>Sheet.3198</title>
			<desc>TCP</desc>
			<path d="M143.68 367.36 L0 367.36 L0 401.35 L143.68 401.35 L143.68 367.36 Z" class="st11"/>
			<text x="59.84" y="387.95" class="st12">TCP</text>		</g>
		<g id="shape3200-50" transform="translate(229.929,-173.116)">
			<title>Sheet.3200</title>
			<desc>UDP</desc>
			<path d="M222.13 367.36 L0 367.36 L0 401.35 L222.13 401.35 L222.13 367.36 Z" class="st11"/>
			<text x="98.4" y="388.85" class="st12">UDP</text>		</g>
		<g id="shape3311-53" transform="translate(81.6142,-89.2773)">
			<title>Sheet.3311</title>
			<desc>IPv6</desc>
			<path d="M370.45 325.36 L0 325.36 L0 401.35 L370.45 401.35 L370.45 325.36 Z" class="st11"/>
			<text x="59.53" y="366.96" class="st12">IPv6</text>		</g>
		<g id="shape3317-56" transform="translate(245.622,-105.543)">
			<title>Sheet.3317</title>
			<path d="M203.61 326.5 L0 326.5 L0 401.35 L203.61 401.35 L203.61 326.5 Z" class="st1"/>
		</g>
		<g id="shape3319-58" transform="translate(456.322,-170.74)">
			<title>Sheet.3319</title>
			<path d="M60.94 353.62 L0 353.62 L0 401.35 L60.94 401.35 L60.94 353.62 Z" class="st3"/>
		</g>
		<g id="shape3314-60" transform="translate(458.027,-173.116)">
			<title>Sheet.3314</title>
			<desc>BTP</desc>
			<path d="M57.53 367.36 L0 367.36 L0 401.35 L57.53 401.35 L57.53 367.36 Z" class="st11"/>
			<text x="17.1" y="388.85" class="st12">BTP</text>		</g>
		<g id="shape3320-63" transform="translate(5.8114,-1)">
			<title>Sheet.3320</title>
			<desc>Physical</desc>
			<path d="M0 362.51 L0 401.35 L511.45 401.35 L511.45 362.51 L0 362.51 L0 362.51 Z" class="st1"/>
			<text x="8.5" y="384.93" class="st2">Physical</text>		</g>
		<g id="shape3305-66" transform="translate(349.975,-110.074)">
			<title>Sheet.3305</title>
			<desc>Thread</desc>
			<path d="M96.34 335.01 L0 335.01 L0 401.35 L96.34 401.35 L96.34 335.01 Z" class="st11"/>
			<text x="29.16" y="372.68" class="st12">Thread</text>		</g>
		<g id="shape3303-69" transform="translate(81.6142,-4.40158)">
			<title>Sheet.3303</title>
			<desc>Ethernet</desc>
			<path d="M164.01 325.36 L0 325.36 L0 401.35 L164.01 401.35 L164.01 325.36 Z" class="st11"/>
			<text x="59.32" y="367.86" class="st12">Ethernet</text>		</g>
		<g id="shape3302-72" transform="translate(249.426,-4.40158)">
			<title>Sheet.3302</title>
			<desc>Wi-Fi</desc>
			<path d="M96.34 325.36 L0 325.36 L0 401.35 L96.34 401.35 L96.34 325.36 Z" class="st11"/>
			<text x="34.18" y="367.86" class="st12">Wi-Fi</text>		</g>
		<g id="shape3304-75" transform="translate(351.229,-4.40158)">
			<title>Sheet.3304</title>
			<desc>802.15.4</desc>
			<path d="M96.34 325.36 L0 325.36 L0 401.35 L96.34 401.35 L96.34 325.36 Z" class="st11"/>
			<text x="24.81" y="367.86" class="st12">802.15.4</text>		</g>
		<g id="shape3306-78" transform="translate(459.717,-4.40158)">
			<title>Sheet.3306</title>
			<desc>Bluetooth LE</desc>
			<path d="M54.14 240.49 L0 240.49 L0 401.35 L54.14 401.35 L54.14 240.49 Z" class="st11"/>
			<text x="1.72" y="314.92" class="st12">Bluetooth <tspan x="19.73" dy="1.375em" class="st13">LE</tspan></text>		</g>
		<g id="shape3324-82" transform="translate(249.426,-110.074)">
			<title>Sheet.3324</title>
			<desc>Wi-Fi stack</desc>
			<path d="M96.34 335.01 L0 335.01 L0 401.35 L96.34 401.35 L96.34 335.01 Z" class="st11"/>
			<text x="18.51" y="372.68" class="st12">Wi-Fi stack</text>		</g>
	</g>
</svg>
