<?xml version="1.0" encoding="UTF-8" standalone="no"?>
<!DOCTYPE svg PUBLIC "-//W3C//DTD SVG 1.1//EN" "http://www.w3.org/Graphics/SVG/1.1/DTD/svg11.dtd">
<!-- Generated by Microsoft Visio, SVG Export matter_network_commissioning.svg Page-1 -->
<svg xmlns="http://www.w3.org/2000/svg" xmlns:xlink="http://www.w3.org/1999/xlink" xmlns:ev="http://www.w3.org/2001/xml-events"
		width="5.29353in" height="4.74312in" viewBox="0 0 381.134 341.505" xml:space="preserve" color-interpolation-filters="sRGB"
		class="st16">
	<style type="text/css">
	<![CDATA[
		.st1 {fill:none;stroke:#ffc000;stroke-dasharray:7,5;stroke-width:1}
		.st2 {fill:#ffc000;font-family:Arial;font-size:0.833336em}
		.st3 {fill:#768692;stroke:none;stroke-width:1}
		.st4 {fill:#feffff;font-family:Arial;font-size:0.833336em}
		.st5 {font-size:1em}
		.st6 {fill:#00a9ce;stroke:none;stroke-width:1}
		.st7 {fill:#0077c8;stroke:none;stroke-width:1}
		.st8 {marker-end:url(#mrkr13-56);stroke:#00a9ce;stroke-linecap:butt;stroke-width:1}
		.st9 {fill:#00a9ce;fill-opacity:1;stroke:#00a9ce;stroke-opacity:1;stroke-width:0.28409090909091}
		.st10 {marker-end:url(#mrkr13-56);stroke:#00a9ce;stroke-dasharray:8,4;stroke-linecap:butt;stroke-width:1}
		.st11 {fill:none;stroke:none;stroke-width:1}
		.st12 {fill:#00a9ce;font-family:Arial;font-size:0.833336em}
		.st13 {fill:none;stroke:#768692;stroke-width:1}
		.st14 {fill:#00a9ce;stroke:none;stroke-linecap:round;stroke-linejoin:round;stroke-width:0.75}
		.st15 {fill:#333f48;font-family:Arial;font-size:0.666664em}
		.st16 {fill:none;fill-rule:evenodd;font-size:12px;overflow:visible;stroke-linecap:square;stroke-miterlimit:3}
	]]>
	</style>

	<defs id="Markers">
		<g id="lend13">
			<path d="M 3 1 L 0 0 L 3 -1 L 3 1 " style="stroke:none"/>
		</g>
		<marker id="mrkr13-56" class="st9" refX="-10.56" orient="auto" markerUnits="strokeWidth" overflow="visible">
			<use xlink:href="#lend13" transform="scale(-3.52,-3.52) "/>
		</marker>
	</defs>
	<g>
		<title>Page-1</title>
		<g id="shape3498-1" transform="translate(93.126,-1)">
			<title>Sheet.3498</title>
			<desc>CASE session</desc>
			<path d="M0 341.5 L287.01 341.5 L287.01 207.19 L0 207.19 L0 341.5 Z" class="st1"/>
			<text x="219.09" y="220.19" class="st2">CASE session</text>		</g>
		<g id="shape3372-4" transform="translate(93.126,-154.761)">
			<title>Sheet.3372</title>
			<desc>PASE session</desc>
			<path d="M0 341.5 L287.01 341.5 L287.01 207.19 L0 207.19 L0 341.5 Z" class="st1"/>
			<text x="219.64" y="334.5" class="st2">PASE session</text>		</g>
		<g id="shape3487-7" transform="translate(1.00002,-297.687)">
			<title>Sheet.3487</title>
			<desc>Device discovery</desc>
			<rect x="0" y="301.223" width="77.9528" height="40.2818" class="st3"/>
			<text x="23.69" y="318.36" class="st4">Device <tspan x="17.86" dy="1.2em" class="st5">discovery</tspan></text>		</g>
		<g id="shape3488-11" transform="translate(1.00002,-236.145)">
			<title>Sheet.3488</title>
			<desc>PASE security setup</desc>
			<rect x="0" y="301.223" width="77.9528" height="40.2818" class="st3"/>
			<text x="7.02" y="318.36" class="st4">PASE security <tspan x="26.74" dy="1.2em" class="st5">setup</tspan></text>		</g>
		<g id="shape3489-15" transform="translate(100.213,-236.145)">
			<title>Sheet.3489</title>
			<desc>Fail-safe establishment</desc>
			<rect x="0" y="301.223" width="77.9528" height="40.2818" class="st6"/>
			<text x="19.8" y="318.36" class="st4">Fail-safe <tspan x="8.13" dy="1.2em" class="st5">establishment</tspan></text>		</g>
		<g id="shape3490-19" transform="translate(199.425,-236.145)">
			<title>Sheet.3490</title>
			<desc>Preliminary configuration</desc>
			<rect x="0" y="301.223" width="77.9528" height="40.2818" class="st6"/>
			<text x="13.97" y="318.36" class="st4">Preliminary <tspan x="10.35" dy="1.2em" class="st5">configuration</tspan></text>		</g>
		<g id="shape3491-23" transform="translate(298.638,-236.145)">
			<title>Sheet.3491</title>
			<desc>DAC verification</desc>
			<rect x="0" y="301.223" width="77.9528" height="40.2818" class="st6"/>
			<text x="28.42" y="318.36" class="st4">DAC <tspan x="15.08" dy="1.2em" class="st5">verification</tspan></text>		</g>
		<g id="shape3492-27" transform="translate(298.638,-174.603)">
			<title>Sheet.3492</title>
			<desc>Installing credentials</desc>
			<rect x="0" y="301.223" width="77.9528" height="40.2818" class="st6"/>
			<text x="19.24" y="318.36" class="st4">Installing <tspan x="14.8" dy="1.2em" class="st5">credentials</tspan></text>		</g>
		<g id="shape3493-31" transform="translate(148.047,-174.603)">
			<title>Sheet.3493</title>
			<desc>Network commissioning</desc>
			<rect x="0" y="301.223" width="77.9528" height="40.2818" class="st6"/>
			<text x="20.64" y="318.36" class="st4">Network <tspan x="5.91" dy="1.2em" class="st5">commissioning</tspan></text>		</g>
		<g id="shape3494-35" transform="translate(1.00002,-174.603)">
			<title>Sheet.3494</title>
			<desc>Operational discovery</desc>
			<rect x="0" y="301.223" width="77.9528" height="40.2818" class="st3"/>
			<text x="13.13" y="318.36" class="st4">Operational <tspan x="17.86" dy="1.2em" class="st5">discovery</tspan></text>		</g>
		<g id="shape3495-39" transform="translate(1,-114.479)">
			<title>Sheet.3495</title>
			<desc>CASE security setup</desc>
			<rect x="0" y="301.223" width="77.9528" height="40.2818" class="st3"/>
			<text x="6.74" y="318.36" class="st4">CASE security <tspan x="26.74" dy="1.2em" class="st5">setup</tspan></text>		</g>
		<g id="shape3496-43" transform="translate(100.213,-48.0141)">
			<title>Sheet.3496</title>
			<desc>Fail-safe disarming</desc>
			<rect x="0" y="301.223" width="77.9528" height="40.2818" class="st7"/>
			<text x="19.8" y="318.36" class="st4">Fail-safe <tspan x="17.3" dy="1.2em" class="st5">disarming</tspan></text>		</g>
		<g id="shape3497-47" transform="translate(199.425,-48.0141)">
			<title>Sheet.3497</title>
			<desc>Message exchange</desc>
			<rect x="0" y="301.223" width="77.9528" height="40.2818" class="st7"/>
			<text x="18.69" y="318.36" class="st4">Message <tspan x="17.29" dy="1.2em" class="st5">exchange</tspan></text>		</g>
		<g id="shape3499-51" transform="translate(32.8898,-297.687)">
			<title>Dynamic connector</title>
			<path d="M7.09 341.5 L7.09 352.2" class="st8"/>
		</g>
		<g id="shape3500-57" transform="translate(78.9528,-249.199)">
			<title>Dynamic connector.3500</title>
			<path d="M0 334.42 L10.7 334.42" class="st8"/>
		</g>
		<g id="shape3501-62" transform="translate(178.165,-249.199)">
			<title>Dynamic connector.3501</title>
			<path d="M0 334.42 L10.7 334.42" class="st8"/>
		</g>
		<g id="shape3502-67" transform="translate(277.378,-249.199)">
			<title>Dynamic connector.3502</title>
			<path d="M0 334.42 L10.7 334.42" class="st8"/>
		</g>
		<g id="shape3503-72" transform="translate(330.528,-236.145)">
			<title>Dynamic connector.3503</title>
			<path d="M7.09 341.5 L7.09 352.2" class="st8"/>
		</g>
		<g id="shape3504-77" transform="translate(298.638,-187.658)">
			<title>Dynamic connector.3504</title>
			<path d="M0 334.42 L-62.08 334.42" class="st8"/>
		</g>
		<g id="shape3505-82" transform="translate(148.047,-187.658)">
			<title>Dynamic connector.3505</title>
			<path d="M0 334.42 L-58.53 334.42" class="st8"/>
		</g>
		<g id="shape3506-87" transform="translate(47.063,-174.603)">
			<title>Dynamic connector.3506</title>
			<path d="M-7.09 341.5 L-7.09 350.79" class="st8"/>
		</g>
		<g id="shape3507-92" transform="translate(32.8898,-114.479)">
			<title>Dynamic connector.3507</title>
			<path d="M7.09 341.5 L7.09 357.13" class="st8"/>
		</g>
		<g id="shape3508-97" transform="translate(178.165,-61.0684)">
			<title>Dynamic connector.3508</title>
			<path d="M0 334.42 L10.7 334.42" class="st8"/>
		</g>
		<g id="shape3509-102" transform="translate(238.402,-40.9275)">
			<title>Dynamic connector.3509</title>
			<path d="M0 334.42 L0 353.01 L-198.43 353.01 L-198.43 344.98" class="st10"/>
		</g>
		<g id="shape3510-107" transform="translate(1,-48.0141)">
			<title>Sheet.3510</title>
			<desc>CASE resumption mechanism</desc>
			<rect x="0" y="301.223" width="77.9528" height="40.2818" class="st3"/>
			<text x="25.36" y="312.36" class="st4">CASE <tspan x="14.24" dy="1.2em" class="st5">resumption </tspan><tspan x="13.41"
						dy="1.2em" class="st5">mechanism</tspan></text>		</g>
		<g id="shape3511-112" transform="translate(78.9528,-61.0684)">
			<title>Dynamic connector.3511</title>
			<path d="M0 334.42 L10.7 334.42" class="st8"/>
		</g>
		<g id="shape3512-117" transform="translate(100.213,-2.30541)">
			<title>Sheet.3512</title>
			<desc>Bootstrapping possible</desc>
			<rect x="0" y="314.389" width="77.9528" height="27.1156" class="st11"/>
			<text x="8.12" y="324.95" class="st12">Bootstrapping <tspan x="20.63" dy="1.2em" class="st5">possible</tspan></text>		</g>
		<g id="group3515-121" transform="translate(254.067,-295.15)">
			<title>Sheet.3515</title>
			<g id="shape3451-122">
				<title>Nordic Light Grey</title>
				<rect x="0" y="296.15" width="126.067" height="45.3543" class="st13"/>
			</g>
			<g id="shape3452-124" transform="translate(2.904,-17.8541)">
				<title>Sheet.3452</title>
				<rect x="0" y="330.637" width="17.0048" height="10.868" class="st14"/>
			</g>
			<g id="shape3453-126" transform="translate(23.8477,-18.3749)">
				<title>Sheet.3453</title>
				<desc>PASE-secured stage</desc>
				<rect x="0" y="331.678" width="102.219" height="9.82649" class="st11"/>
				<text x="4" y="338.99" class="st15">PASE-secured stage</text>			</g>
			<g id="shape3454-129" transform="translate(2.904,-30.9324)">
				<title>Sheet.3454</title>
				<rect x="0" y="330.637" width="17.0048" height="10.868" class="st3"/>
			</g>
			<g id="shape3455-131" transform="translate(23.8477,-31.4532)">
				<title>Sheet.3455</title>
				<desc>Unsecured stage</desc>
				<rect x="0" y="331.678" width="102.219" height="9.82649" class="st11"/>
				<text x="4" y="338.99" class="st15">Unsecured stage</text>			</g>
			<g id="shape3456-134" transform="translate(2.904,-4.48726)">
				<title>Sheet.3456</title>
				<rect x="0" y="330.637" width="17.0048" height="10.868" class="st7"/>
			</g>
			<g id="shape3457-136" transform="translate(23.8477,-4.48726)">
				<title>Sheet.3457</title>
				<desc>CASE-secured stage</desc>
				<rect x="0" y="331.678" width="102.219" height="9.82649" class="st11"/>
				<text x="4" y="338.99" class="st15">CASE-secured stage</text>			</g>
		</g>
	</g>
</svg>
