<?xml version="1.0" encoding="UTF-8" standalone="no"?>
<!DOCTYPE svg PUBLIC "-//W3C//DTD SVG 1.1//EN" "http://www.w3.org/Graphics/SVG/1.1/DTD/svg11.dtd">
<!-- Generated by Microsoft Visio, SVG Export matter_components_DM_doorlock.svg Page-1 -->
<svg xmlns="http://www.w3.org/2000/svg" xmlns:xlink="http://www.w3.org/1999/xlink" xmlns:ev="http://www.w3.org/2001/xml-events"
		width="6.74814in" height="3.14589in" viewBox="0 0 485.866 226.504" xml:space="preserve" color-interpolation-filters="sRGB"
		class="st11">
	<style type="text/css">
	<![CDATA[
		.st1 {fill:#768692;stroke:none;stroke-width:1}
		.st2 {fill:#ffffff;font-family:Arial;font-size:1.00001em}
		.st3 {fill:#333f48;stroke:none;stroke-linecap:round;stroke-linejoin:round;stroke-width:0.75}
		.st4 {fill:#768692;stroke:none;stroke-linecap:round;stroke-linejoin:round;stroke-width:0.75}
		.st5 {fill:#d9e1e2;stroke:none;stroke-linecap:round;stroke-linejoin:round;stroke-width:0.75}
		.st6 {fill:#333f48;font-family:Arial;font-size:0.75em}
		.st7 {fill:#333f48;font-family:Arial;font-size:1.00001em}
		.st8 {fill:#feffff;font-family:Arial;font-size:1.00001em}
		.st9 {fill:none;stroke:none;stroke-width:1}
		.st10 {stroke:#d9e1e2;stroke-linecap:butt;stroke-width:1}
		.st11 {fill:none;fill-rule:evenodd;font-size:12px;overflow:visible;stroke-linecap:square;stroke-miterlimit:3}
	]]>
	</style>

	<g>
		<title>Page-1</title>
		<g id="shape3329-1" transform="translate(1,-19.9921)">
			<title>Sheet.3329</title>
			<desc>Door Lock</desc>
			<path d="M308.09 35.17 L0 35.17 L0 226.5 L308.09 226.5 L308.09 35.17 Z" class="st1"/>
			<text x="8.5" y="48.67" class="st2">Door Lock</text>		</g>
		<g id="shape3330-4" transform="translate(10.3209,-24.2441)">
			<title>Sheet.3330</title>
			<desc>Node</desc>
			<path d="M290.83 61.81 L0 61.81 L0 226.5 L290.83 226.5 L290.83 61.81 Z" class="st3"/>
			<text x="4" y="76.61" class="st2">Node</text>		</g>
		<g id="shape3331-7" transform="translate(15.9902,-29.9134)">
			<title>Sheet.3331</title>
			<desc>Endpoint 0: Root Node</desc>
			<path d="M133.23 91.41 L0 91.41 L0 226.5 L133.23 226.5 L133.23 91.41 Z" class="st4"/>
			<text x="4" y="106.21" class="st2">Endpoint 0: Root Node</text>		</g>
		<g id="shape3332-10" transform="translate(24.4941,-120.462)">
			<title>Sheet.3332</title>
			<desc>Basic Information Cluster</desc>
			<path d="M119.06 203.67 L0 203.67 L0 226.5 L119.06 226.5 L119.06 203.67 Z" class="st5"/>
			<text x="9.26" y="217.79" class="st6">Basic Information Cluster</text>		</g>
		<g id="shape3336-13" transform="translate(153.47,-29.9134)">
			<title>Sheet.3336</title>
			<desc>Endpoint 1: Door Lock</desc>
			<path d="M133.23 91.41 L0 91.41 L0 226.5 L133.23 226.5 L133.23 91.41 Z" class="st4"/>
			<text x="4" y="106.21" class="st2">Endpoint 1: Door Lock</text>		</g>
		<g id="shape3338-16" transform="translate(330.244,-1)">
			<title>Sheet.3338</title>
			<desc>Door Lock Cluster</desc>
			<path d="M155.62 2 L0 2 L0 226.5 L155.62 226.5 L155.62 2 Z" class="st5"/>
			<text x="4" y="16.8" class="st7">Door Lock Cluster</text>		</g>
		<g id="shape3339-19" transform="translate(335.913,-181.407)">
			<title>Sheet.3339</title>
			<desc>Lock Type Attribute</desc>
			<path d="M144.18 203.67 L0 203.67 L0 226.5 L144.18 226.5 L144.18 203.67 Z" class="st3"/>
			<text x="20.4" y="218.47" class="st8">Lock Type Attribute</text>		</g>
		<g id="shape3340-22" transform="translate(24.4941,-96.3674)">
			<title>Sheet.3340</title>
			<desc>Access Control Cluster</desc>
			<path d="M119.06 203.67 L0 203.67 L0 226.5 L119.06 226.5 L119.06 203.67 Z" class="st5"/>
			<text x="13.76" y="217.79" class="st6">Access Control Cluster</text>		</g>
		<g id="shape3341-25" transform="translate(24.4941,-72.2729)">
			<title>Sheet.3341</title>
			<desc>General Commissioning C.</desc>
			<path d="M119.06 203.67 L0 203.67 L0 226.5 L119.06 226.5 L119.06 203.67 Z" class="st5"/>
			<text x="5.76" y="217.79" class="st6">General Commissioning C.</text>		</g>
		<g id="shape3342-28" transform="translate(24.4941,-48.1784)">
			<title>Sheet.3342</title>
			<desc>Network Commissioning C.</desc>
			<path d="M119.06 203.67 L0 203.67 L0 226.5 L119.06 226.5 L119.06 203.67 Z" class="st5"/>
			<text x="5.26" y="217.79" class="st6">Network Commissioning C.</text>		</g>
		<g id="shape3343-31" transform="translate(24.4941,-29.9134)">
			<title>Sheet.3343</title>
			<desc>...</desc>
			<rect x="0" y="208.239" width="117.813" height="18.2651" class="st9"/>
			<text x="53.91" y="220.97" class="st7">...</text>		</g>
		<g id="shape3345-34" transform="translate(157.331,-120.462)">
			<title>Sheet.3345</title>
			<desc>Identify Cluster</desc>
			<path d="M119.06 203.67 L0 203.67 L0 226.5 L119.06 226.5 L119.06 203.67 Z" class="st5"/>
			<text x="29.52" y="217.79" class="st6">Identify Cluster</text>		</g>
		<g id="shape3346-37" transform="translate(157.331,-96.3674)">
			<title>Sheet.3346</title>
			<desc>Door Lock Cluster</desc>
			<path d="M119.06 203.67 L0 203.67 L0 226.5 L119.06 226.5 L119.06 203.67 Z" class="st5"/>
			<text x="23.51" y="217.79" class="st6">Door Lock Cluster</text>		</g>
		<g id="shape3347-40" transform="translate(335.913,-156.055)">
			<title>Sheet.3347</title>
			<desc>Lock State Attribute</desc>
			<path d="M144.18 203.67 L0 203.67 L0 226.5 L144.18 226.5 L144.18 203.67 Z" class="st3"/>
			<text x="19.72" y="218.47" class="st8">Lock State Attribute</text>		</g>
		<g id="shape3348-43" transform="translate(335.968,-113.535)">
			<title>Sheet.3348</title>
			<desc>Lock Door Command</desc>
			<path d="M144.18 203.67 L0 203.67 L0 226.5 L144.18 226.5 L144.18 203.67 Z" class="st3"/>
			<text x="15.4" y="218.47" class="st8">Lock Door Command</text>		</g>
		<g id="shape3349-46" transform="translate(335.913,-88.0236)">
			<title>Sheet.3349</title>
			<desc>Unlock Door Command</desc>
			<path d="M144.18 203.67 L0 203.67 L0 226.5 L144.18 226.5 L144.18 203.67 Z" class="st3"/>
			<text x="9.73" y="218.47" class="st8">Unlock Door Command</text>		</g>
		<g id="shape3350-49" transform="translate(335.913,-62.5118)">
			<title>Sheet.3350</title>
			<desc>Set Credential Command</desc>
			<path d="M144.18 203.67 L0 203.67 L0 226.5 L144.18 226.5 L144.18 203.67 Z" class="st3"/>
			<text x="4.72" y="218.47" class="st8">Set Credential Command</text>		</g>
		<g id="shape3351-52" transform="translate(335.913,-20.1955)">
			<title>Sheet.3351</title>
			<desc>Door Lock Alarm Event</desc>
			<path d="M144.18 203.67 L0 203.67 L0 226.5 L144.18 226.5 L144.18 203.67 Z" class="st3"/>
			<text x="10.4" y="218.47" class="st8">Door Lock Alarm Event</text>		</g>
		<g id="shape3352-55" transform="translate(335.913,-136.373)">
			<title>Sheet.3352</title>
			<desc>...</desc>
			<rect x="0" y="208.239" width="144.175" height="18.2651" class="st9"/>
			<text x="67.09" y="220.97" class="st7">...</text>		</g>
		<g id="shape3354-58" transform="translate(335.968,-44.0866)">
			<title>Sheet.3354</title>
			<desc>...</desc>
			<rect x="0" y="208.239" width="144.175" height="18.2651" class="st9"/>
			<text x="67.09" y="220.97" class="st7">...</text>		</g>
		<g id="shape3355-61" transform="translate(335.968,-1.93046)">
			<title>Sheet.3355</title>
			<desc>...</desc>
			<rect x="0" y="208.239" width="144.175" height="18.2651" class="st9"/>
			<text x="67.09" y="220.97" class="st7">...</text>		</g>
		<g id="shape3356-64" transform="translate(74.3362,4.92745) rotate(-63.1302)">
			<title>Sheet.3356</title>
			<path d="M0 226.5 L119.16 226.5" class="st10"/>
		</g>
		<g id="shape3357-67" transform="translate(473.612,18.7542) rotate(60.5446)">
			<title>Sheet.3357</title>
			<path d="M0 226.5 L109.52 226.5" class="st10"/>
		</g>
	</g>
</svg>
