<?xml version="1.0" encoding="UTF-8" standalone="no"?>
<!DOCTYPE svg PUBLIC "-//W3C//DTD SVG 1.1//EN" "http://www.w3.org/Graphics/SVG/1.1/DTD/svg11.dtd">
<!-- Generated by Microsoft Visio, SVG Export matter_platform_design_nRF54lm20_wifi.svg Page-1 -->
<svg xmlns="http://www.w3.org/2000/svg" xmlns:xlink="http://www.w3.org/1999/xlink" xmlns:ev="http://www.w3.org/2001/xml-events"
		width="7.58683in" height="6.63468in" viewBox="0 0 546.252 477.697" xml:space="preserve" color-interpolation-filters="sRGB"
		class="st22">
	<style type="text/css">
	<![CDATA[
		.st1 {fill:#6ad1e3;stroke:none;stroke-width:1}
		.st2 {stroke:none;stroke-linecap:round;stroke-linejoin:round;stroke-width:0.75}
		.st3 {fill:#333f48;font-family:Arial;font-size:1.33333em}
		.st4 {fill:#0033a0;stroke:none;stroke-width:1}
		.st5 {fill:#ffffff;font-family:Arial;font-size:1.16666em}
		.st6 {fill:#00a9ce;stroke:none;stroke-width:1}
		.st7 {fill:#768692;stroke:none;stroke-width:1}
		.st8 {fill:#ffffff;font-family:Arial;font-size:1.00001em}
		.st9 {fill:none;stroke:none;stroke-width:1}
		.st10 {fill:#0077c8;stroke:none;stroke-width:1}
		.st11 {fill:#000000;font-family:Arial;font-size:1.00001em}
		.st12 {font-size:1em}
		.st13 {fill:#d9e1e2;stroke:none;stroke-width:1}
		.st14 {fill:#00a9ce;stroke:none;stroke-linecap:round;stroke-linejoin:round;stroke-width:0.75}
		.st15 {fill:#ffffff;font-family:Arial;font-size:0.833336em}
		.st16 {marker-end:url(#mrkr13-58);marker-start:url(#mrkr13-56);stroke:#333f48;stroke-linecap:butt;stroke-width:1}
		.st17 {fill:#333f48;fill-opacity:1;stroke:#333f48;stroke-opacity:1;stroke-width:0.28409090909091}
		.st18 {fill:#333f48;font-family:Arial;font-size:1.00001em}
		.st19 {fill:#0033a0;fill-opacity:0.55;stroke:none;stroke-linecap:round;stroke-linejoin:round;stroke-width:0.75}
		.st20 {marker-end:url(#mrkr4-94);marker-start:url(#mrkr4-92);stroke:#ffffff;stroke-linecap:butt;stroke-width:1}
		.st21 {fill:#ffffff;fill-opacity:1;stroke:#ffffff;stroke-opacity:1;stroke-width:0.28409090909091}
		.st22 {fill:none;fill-rule:evenodd;font-size:12px;overflow:visible;stroke-linecap:square;stroke-miterlimit:3}
	]]>
	</style>

	<defs id="Markers">
		<g id="lend13">
			<path d="M 3 1 L 0 0 L 3 -1 L 3 1 " style="stroke:none"/>
		</g>
		<marker id="mrkr13-56" class="st17" refX="10.2" orient="auto" markerUnits="strokeWidth" overflow="visible">
			<use xlink:href="#lend13" transform="scale(3.52) "/>
		</marker>
		<marker id="mrkr13-58" class="st17" refX="-10.56" orient="auto" markerUnits="strokeWidth" overflow="visible">
			<use xlink:href="#lend13" transform="scale(-3.52,-3.52) "/>
		</marker>
		<g id="lend4">
			<path d="M 2 1 L 0 0 L 2 -1 L 2 1 " style="stroke:none"/>
		</g>
		<marker id="mrkr4-92" class="st21" refX="6.68" orient="auto" markerUnits="strokeWidth" overflow="visible">
			<use xlink:href="#lend4" transform="scale(3.52) "/>
		</marker>
		<marker id="mrkr4-94" class="st21" refX="-7.04" orient="auto" markerUnits="strokeWidth" overflow="visible">
			<use xlink:href="#lend4" transform="scale(-3.52,-3.52) "/>
		</marker>
	</defs>
	<g>
		<title>Page-1</title>
		<g id="group1050-1" transform="translate(1,-1)">
			<title>Sheet.1050</title>
			<g id="shape661-2">
				<title>Sheet.661</title>
				<path d="M415.47 2 L0 2 L0 477.7 L415.47 477.7 L415.47 2 Z" class="st1"/>
			</g>
			<g id="shape662-4" transform="translate(321.958,-6.35933)">
				<title>Sheet.662</title>
				<desc>nRF SoC</desc>
				<path d="M89.05 447.28 L0 447.28 L0 477.7 L89.05 477.7 L89.05 447.28" class="st2"/>
				<text x="11.63" y="467.29" class="st3">nRF SoC</text>			</g>
			<g id="shape663-8" transform="translate(18.5133,-395.592)">
				<title>Sheet.663</title>
				<desc>Application</desc>
				<path d="M0 424.6 L0 477.7 L379.74 477.7 L379.74 424.6 L0 424.6 L0 424.6 Z" class="st4"/>
				<text x="155.63" y="455.35" class="st5">Application</text>			</g>
			<g id="shape665-11" transform="translate(18.5133,-46.0904)">
				<title>Sheet.665</title>
				<path d="M0 169.85 L0 477.7 L186.57 477.7 L186.57 169.85 L0 169.85 L0 169.85 Z" class="st6"/>
			</g>
			<g id="shape667-13" transform="translate(211.671,-117.724)">
				<title>Sheet.667</title>
				<path d="M0 241.44 L0 477.7 L186.57 477.7 L186.57 241.44 L0 241.44 L0 241.44 Z" class="st6"/>
			</g>
			<g id="shape699-15" transform="translate(18.5062,-360.013)">
				<title>Sheet.699</title>
				<desc>Zephyr integration</desc>
				<path d="M0 448.15 L0 477.7 L379.74 477.7 L379.74 448.15 L0 448.15 L0 448.15 Z" class="st7"/>
				<text x="133.45" y="467.12" class="st5">Zephyr integration</text>			</g>
			<g id="shape1018-18" transform="translate(112.025,-6.94312)">
				<title>Sheet.1018</title>
				<desc>Multiprotocol Service Layer (MPSL)</desc>
				<path d="M209.93 448.15 L0 448.15 L0 477.7 L209.93 477.7 L209.93 448.15 Z" class="st6"/>
				<text x="10.6" y="466.53" class="st8">Multiprotocol Service Layer (MPSL)</text>			</g>
			<g id="shape1024-21" transform="translate(109.924,-97.3173)">
				<title>Sheet.1024</title>
				<desc>HCI (RAM)</desc>
				<rect x="0" y="453.59" width="77.4073" height="24.1067" class="st9"/>
				<text x="4" y="469.24" class="st8">HCI (RAM)</text>			</g>
			<g id="shape1013-24" transform="translate(34.2815,-56.1333)">
				<title>Sheet.1013</title>
				<desc>SoftDevice Controller</desc>
				<path d="M153.05 446.32 L0 446.32 L0 477.7 L153.05 477.7 L153.05 446.32 Z" class="st10"/>
				<text x="19.83" y="465.61" class="st8">SoftDevice Controller</text>			</g>
			<g id="shape1026-27" transform="translate(427.78,-147.269)">
				<title>Sheet.1026</title>
				<desc>nRF7002 (Wi-Fi 6 Companion IC)</desc>
				<path d="M0 435.66 L0 477.7 L116.47 477.7 L116.47 435.66 L0 435.66 L0 435.66 Z" class="st6"/>
				<text x="33.55" y="445.88" class="st11">nRF7002 <tspan x="37.24" dy="1.2em" class="st12">(Wi</tspan>-Fi 6 <tspan
							x="17.89" dy="1.2em" class="st12">Companion IC)</tspan></text>			</g>
			<g id="shape1028-32" transform="translate(211.257,-332.253)">
				<title>Sheet.1028</title>
				<desc>Wi-Fi host</desc>
				<path d="M186.57 455.97 L0 455.97 L0 477.7 L186.57 477.7 L186.57 455.97" class="st2"/>
				<text x="61.79" y="471.03" class="st5">Wi-Fi host</text>			</g>
			<g id="shape1029-36" transform="translate(229.411,-144.348)">
				<title>Sheet.1029</title>
				<rect x="0" y="351.728" width="153.05" height="125.969" class="st13"/>
			</g>
			<g id="shape1030-38" transform="translate(232.21,-146.698)">
				<title>Sheet.1030</title>
				<desc>Wi-Fi driver</desc>
				<path d="M147.92 355.3 L0 355.3 L0 477.7 L147.92 477.7 L147.92 355.3 Z" class="st14"/>
				<text x="43.3" y="420.1" class="st8">Wi-Fi driver</text>			</g>
			<g id="shape1031-41" transform="translate(256.475,-270.318)">
				<title>Sheet.1031</title>
				<rect x="0" y="418.212" width="123.653" height="59.4856" class="st6"/>
			</g>
			<g id="shape1032-43" transform="translate(258.683,-271.716)">
				<title>Sheet.1032</title>
				<desc>wpa_supplicant</desc>
				<path d="M123.65 417.16 L0 417.16 L0 477.7 L123.65 477.7 L123.65 417.16 Z" class="st4"/>
				<text x="27.36" y="450.43" class="st15">wpa_supplicant</text>			</g>
			<g id="shape1033-46" transform="translate(229.411,-269.393)">
				<title>Sheet.1033</title>
				<rect x="0" y="414.837" width="27.997" height="62.86" class="st13"/>
			</g>
			<g id="shape1034-48" transform="translate(232.21,-207.408)">
				<title>Sheet.1034</title>
				<path d="M23.76 355.3 L0 355.3 L0 477.7 L23.76 477.7 L23.76 355.3 Z" class="st14"/>
			</g>
			<g id="shape1027-50" transform="translate(382.461,-207.333)">
				<title>Dynamic connector.1027</title>
				<path d="M10.2 477.7 L10.56 477.7 L103.55 477.7 L103.55 485.16" class="st16"/>
			</g>
			<g id="shape1035-59" transform="translate(423.95,-213.221)">
				<title>Sheet.1035</title>
				<desc>SPI</desc>
				<rect x="0" y="453.59" width="48.7267" height="24.1067" class="st9"/>
				<text x="14.69" y="469.24" class="st18">SPI</text>			</g>
			<g id="shape666-62" transform="translate(18.5133,-331.96)">
				<title>Sheet.666</title>
				<desc>Bluetooth® LE stack</desc>
				<path d="M186.57 455.97 L0 455.97 L0 477.7 L186.57 477.7 L186.57 455.97" class="st2"/>
				<text x="29.76" y="471.03" class="st5">Bluetooth® LE stack</text>			</g>
			<g id="shape683-66" transform="translate(34.1273,-144.405)">
				<title>Sheet.683</title>
				<rect x="0" y="289.751" width="154.815" height="187.946" class="st10"/>
			</g>
			<g id="shape687-68" transform="translate(41.7008,-157.451)">
				<title>Sheet.687</title>
				<desc>L2CAP</desc>
				<path d="M64.45 435.73 L0 435.73 L0 477.7 L64.45 477.7 L64.45 435.73 Z" class="st19"/>
				<text x="13.21" y="460.31" class="st8">L2CAP</text>			</g>
			<g id="shape689-71" transform="translate(41.7008,-251.709)">
				<title>Sheet.689</title>
				<desc>GATT</desc>
				<path d="M64.45 435.8 L0 435.8 L0 477.7 L64.45 477.7 L64.45 435.8 Z" class="st19"/>
				<text x="16.23" y="460.35" class="st8">GATT</text>			</g>
			<g id="shape691-74" transform="translate(41.7008,-204.073)">
				<title>Sheet.691</title>
				<desc>ATT</desc>
				<path d="M64.45 435.8 L0 435.8 L0 477.7 L64.45 477.7 L64.45 435.8 Z" class="st19"/>
				<text x="20.89" y="460.35" class="st8">ATT</text>			</g>
			<g id="shape693-77" transform="translate(108.931,-251.709)">
				<title>Sheet.693</title>
				<desc>GAP</desc>
				<path d="M71.43 435.66 L0 435.66 L0 477.7 L71.43 477.7 L71.43 435.66 Z" class="st19"/>
				<text x="23.04" y="460.28" class="st8">GAP</text>			</g>
			<g id="shape695-80" transform="translate(108.931,-157.451)">
				<title>Sheet.695</title>
				<desc>SM</desc>
				<path d="M71.43 388.68 L0 388.68 L0 477.7 L71.43 477.7 L71.43 388.68 Z" class="st19"/>
				<text x="26.72" y="436.79" class="st8">SM</text>			</g>
			<g id="shape764-83" transform="translate(34.1273,-293.059)">
				<title>Sheet.764</title>
				<desc>Zephyr host</desc>
				<rect x="0" y="438.796" width="154.815" height="38.9015" class="st9"/>
				<text x="45.73" y="461.85" class="st8">Zephyr host</text>			</g>
			<g id="shape1048-86" transform="translate(581.885,333.292) rotate(90)">
				<title>Sheet.1048</title>
				<path d="M6.68 477.7 L7.04 477.7 L49.86 477.7" class="st20"/>
			</g>
		</g>
	</g>
</svg>
