<?xml version="1.0" encoding="UTF-8" standalone="no"?>
<!DOCTYPE svg PUBLIC "-//W3C//DTD SVG 1.1//EN" "http://www.w3.org/Graphics/SVG/1.1/DTD/svg11.dtd">
<!-- Generated by Microsoft Visio, SVG Export matter_platform_design_nRF53_wifi.svg Page-1 -->
<svg xmlns="http://www.w3.org/2000/svg" xmlns:xlink="http://www.w3.org/1999/xlink" xmlns:ev="http://www.w3.org/2001/xml-events"
		width="7.33683in" height="7.89665in" viewBox="0 0 528.252 568.559" xml:space="preserve" color-interpolation-filters="sRGB"
		class="st20">
	<style type="text/css">
	<![CDATA[
		.st1 {fill:#6ad1e3;stroke:none;stroke-width:1}
		.st2 {stroke:none;stroke-linecap:round;stroke-linejoin:round;stroke-width:0.75}
		.st3 {fill:#333f48;font-family:Arial;font-size:1.5em}
		.st4 {fill:#0033a0;stroke:none;stroke-width:1}
		.st5 {fill:#ffffff;font-family:Arial;font-size:1.16666em}
		.st6 {fill:#00a9ce;stroke:none;stroke-width:1}
		.st7 {fill:#768692;stroke:none;stroke-width:1}
		.st8 {fill:#0077c8;stroke:none;stroke-width:1}
		.st9 {fill:#0033a0;fill-opacity:0.55;stroke:none;stroke-linecap:round;stroke-linejoin:round;stroke-width:0.75}
		.st10 {fill:#ffffff;font-family:Arial;font-size:1.00001em}
		.st11 {fill:none;stroke:none;stroke-width:1}
		.st12 {fill:#333f48;font-family:Arial;font-size:1.00001em}
		.st13 {font-size:1em}
		.st14 {marker-end:url(#mrkr13-62);marker-start:url(#mrkr13-60);stroke:#333f48;stroke-linecap:butt;stroke-width:1}
		.st15 {fill:#333f48;fill-opacity:1;stroke:#333f48;stroke-opacity:1;stroke-width:0.28409090909091}
		.st16 {fill:#000000;font-family:Arial;font-size:1.00001em}
		.st17 {fill:#d9e1e2;stroke:none;stroke-width:1}
		.st18 {fill:#00a9ce;stroke:none;stroke-linecap:round;stroke-linejoin:round;stroke-width:0.75}
		.st19 {fill:#ffffff;font-family:Arial;font-size:0.833336em}
		.st20 {fill:none;fill-rule:evenodd;font-size:12px;overflow:visible;stroke-linecap:square;stroke-miterlimit:3}
	]]>
	</style>

	<defs id="Markers">
		<g id="lend13">
			<path d="M 3 1 L 0 0 L 3 -1 L 3 1 " style="stroke:none"/>
		</g>
		<marker id="mrkr13-60" class="st15" refX="10.2" orient="auto" markerUnits="strokeWidth" overflow="visible">
			<use xlink:href="#lend13" transform="scale(3.52) "/>
		</marker>
		<marker id="mrkr13-62" class="st15" refX="-10.56" orient="auto" markerUnits="strokeWidth" overflow="visible">
			<use xlink:href="#lend13" transform="scale(-3.52,-3.52) "/>
		</marker>
	</defs>
	<g>
		<title>Page-1</title>
		<g id="shape1015-1" transform="translate(1,-1)">
			<title>Sheet.1015</title>
			<path d="M404.36 434.2 L0 434.2 L0 568.56 L404.36 568.56 L404.36 434.2 Z" class="st1"/>
		</g>
		<g id="shape661-3" transform="translate(1,-178.617)">
			<title>Sheet.661</title>
			<path d="M404.36 179.62 L0 179.62 L0 568.56 L404.36 568.56 L404.36 179.62 Z" class="st1"/>
		</g>
		<g id="shape662-5" transform="translate(1,-178.99)">
			<title>Sheet.662</title>
			<desc>nRF53 application core</desc>
			<path d="M404.36 537.09 L0 537.09 L0 568.56 L404.36 568.56 L404.36 537.09" class="st2"/>
			<text x="109.63" y="558.22" class="st3">nRF53 application core</text>		</g>
		<g id="shape663-9" transform="translate(9.11277,-502.173)">
			<title>Sheet.663</title>
			<desc>Application</desc>
			<path d="M0 513.62 L0 568.56 L386.82 568.56 L386.82 513.62 L0 513.62 L0 513.62 Z" class="st4"/>
			<text x="159.17" y="545.29" class="st5">Application</text>		</g>
		<g id="shape665-12" transform="translate(9.11277,-214.601)">
			<title>Sheet.665</title>
			<path d="M0 324.09 L0 568.56 L190.06 568.56 L190.06 324.09 L0 324.09 L0 324.09 Z" class="st6"/>
		</g>
		<g id="shape666-14" transform="translate(9.11277,-436.328)">
			<title>Sheet.666</title>
			<desc>Bluetooth® LE stack</desc>
			<path d="M190.06 546.08 L0 546.08 L0 568.56 L190.06 568.56 L190.06 546.08" class="st2"/>
			<text x="31.5" y="561.52" class="st5">Bluetooth® LE stack</text>		</g>
		<g id="shape667-18" transform="translate(205.874,-214.644)">
			<title>Sheet.667</title>
			<path d="M0 324.09 L0 568.56 L190.06 568.56 L190.06 324.09 L0 324.09 L0 324.09 Z" class="st6"/>
		</g>
		<g id="shape699-20" transform="translate(9.10557,-465.356)">
			<title>Sheet.699</title>
			<desc>Zephyr integration</desc>
			<path d="M0 537.99 L0 568.56 L386.82 568.56 L386.82 537.99 L0 537.99 L0 537.99 Z" class="st7"/>
			<text x="136.99" y="557.47" class="st5">Zephyr integration</text>		</g>
		<g id="shape683-23" transform="translate(25.0181,-242.253)">
			<title>Sheet.683</title>
			<rect x="0" y="374.079" width="157.703" height="194.481" class="st8"/>
		</g>
		<g id="shape687-25" transform="translate(32.733,-255.752)">
			<title>Sheet.687</title>
			<desc>L2CAP</desc>
			<path d="M65.65 525.13 L0 525.13 L0 568.56 L65.65 568.56 L65.65 525.13 Z" class="st9"/>
			<text x="13.81" y="550.45" class="st10">L2CAP</text>		</g>
		<g id="shape689-28" transform="translate(32.733,-353.287)">
			<title>Sheet.689</title>
			<desc>GATT</desc>
			<path d="M65.65 525.21 L0 525.21 L0 568.56 L65.65 568.56 L65.65 525.21 Z" class="st9"/>
			<text x="16.83" y="550.48" class="st10">GATT</text>		</g>
		<g id="shape691-31" transform="translate(32.733,-303.995)">
			<title>Sheet.691</title>
			<desc>ATT</desc>
			<path d="M65.65 525.21 L0 525.21 L0 568.56 L65.65 568.56 L65.65 525.21 Z" class="st9"/>
			<text x="21.49" y="550.48" class="st10">ATT</text>		</g>
		<g id="shape693-34" transform="translate(101.218,-353.287)">
			<title>Sheet.693</title>
			<desc>GAP</desc>
			<path d="M72.76 525.06 L0 525.06 L0 568.56 L72.76 568.56 L72.76 525.06 Z" class="st9"/>
			<text x="23.71" y="550.41" class="st10">GAP</text>		</g>
		<g id="shape695-37" transform="translate(101.218,-255.752)">
			<title>Sheet.695</title>
			<desc>SM</desc>
			<path d="M72.76 476.44 L0 476.44 L0 568.56 L72.76 568.56 L72.76 476.44 Z" class="st9"/>
			<text x="27.38" y="526.1" class="st10">SM</text>		</g>
		<g id="shape764-40" transform="translate(25.0181,-396.074)">
			<title>Sheet.764</title>
			<desc>Zephyr host</desc>
			<rect x="0" y="528.305" width="157.703" height="40.254" class="st11"/>
			<text x="47.17" y="552.03" class="st10">Zephyr host</text>		</g>
		<g id="shape1016-43" transform="translate(1,-2.01237)">
			<title>Sheet.1016</title>
			<desc>nRF53 network core</desc>
			<path d="M404.36 537.09 L0 537.09 L0 568.56 L404.36 568.56 L404.36 537.09" class="st2"/>
			<text x="121.15" y="558.22" class="st3">nRF53 network core</text>		</g>
		<g id="shape1018-47" transform="translate(10.0953,-34.9979)">
			<title>Sheet.1018</title>
			<desc>Multiprotocol Service Layer (MPSL)</desc>
			<path d="M384.52 537.99 L0 537.99 L0 568.56 L384.52 568.56 L384.52 537.99 Z" class="st6"/>
			<text x="97.89" y="556.87" class="st10">Multiprotocol Service Layer (MPSL)</text>		</g>
		<g id="shape1024-50" transform="translate(103.869,-143.46)">
			<title>Sheet.1024</title>
			<desc>OpenAMP (HCI)</desc>
			<rect x="0" y="543.614" width="78.8514" height="24.9449" class="st11"/>
			<text x="4" y="552.49" class="st12">OpenAMP <tspan x="4" dy="1.2em" class="st13">(HCI)</tspan></text>		</g>
		<g id="shape1025-54" transform="translate(96.7829,-242.253)">
			<title>Dynamic connector.1025</title>
			<path d="M7.09 578.76 L7.09 579.12 L7.09 679.42" class="st14"/>
		</g>
		<g id="shape1011-63" transform="translate(10.0953,-75.0678)">
			<title>Sheet.1011</title>
			<path d="M384.52 522.79 L0 522.79 L0 568.56 L384.52 568.56 L384.52 522.79 Z" class="st6"/>
		</g>
		<g id="shape1013-65" transform="translate(16.6155,-81.7182)">
			<title>Sheet.1013</title>
			<desc>SoftDevice Controller</desc>
			<path d="M371.36 536.09 L0 536.09 L0 568.56 L371.36 568.56 L371.36 536.09 Z" class="st8"/>
			<text x="128.99" y="555.93" class="st10">SoftDevice Controller</text>		</g>
		<g id="shape1026-68" transform="translate(413.866,-244.625)">
			<title>Sheet.1026</title>
			<desc>nRF7002 (Wi-Fi 6 Companion IC)</desc>
			<path d="M0 503.51 L0 568.56 L113.39 568.56 L113.39 503.51 L0 503.51 L0 503.51 Z" class="st6"/>
			<text x="32.01" y="525.24" class="st16">nRF7002 <tspan x="35.7" dy="1.2em" class="st13">(Wi</tspan>-Fi 6 <tspan
						x="16.34" dy="1.2em" class="st13">Companion IC)</tspan></text>		</g>
		<g id="shape1028-73" transform="translate(205.453,-436.631)">
			<title>Sheet.1028</title>
			<desc>Wi-Fi host</desc>
			<path d="M190.06 546.08 L0 546.08 L0 568.56 L190.06 568.56 L190.06 546.08" class="st2"/>
			<text x="63.53" y="561.52" class="st5">Wi-Fi host</text>		</g>
		<g id="shape1029-77" transform="translate(223.945,-242.194)">
			<title>Sheet.1029</title>
			<rect x="0" y="438.21" width="155.906" height="130.349" class="st17"/>
		</g>
		<g id="shape1030-79" transform="translate(226.797,-244.625)">
			<title>Sheet.1030</title>
			<desc>Wi-Fi driver</desc>
			<path d="M150.68 441.91 L0 441.91 L0 568.56 L150.68 568.56 L150.68 441.91 Z" class="st18"/>
			<text x="44.68" y="508.83" class="st10">Wi-Fi driver</text>		</g>
		<g id="shape1031-82" transform="translate(251.514,-372.543)">
			<title>Sheet.1031</title>
			<rect x="0" y="507.005" width="125.96" height="61.5538" class="st6"/>
		</g>
		<g id="shape1032-84" transform="translate(253.763,-373.99)">
			<title>Sheet.1032</title>
			<desc>wpa_supplicant</desc>
			<path d="M125.96 505.92 L0 505.92 L0 568.56 L125.96 568.56 L125.96 505.92 Z" class="st4"/>
			<text x="28.51" y="540.24" class="st19">wpa_supplicant</text>		</g>
		<g id="shape1033-87" transform="translate(223.945,-371.586)">
			<title>Sheet.1033</title>
			<rect x="0" y="503.514" width="28.5193" height="65.0455" class="st17"/>
		</g>
		<g id="shape1034-89" transform="translate(226.797,-307.446)">
			<title>Sheet.1034</title>
			<path d="M24.2 441.91 L0 441.91 L0 568.56 L24.2 568.56 L24.2 441.91 Z" class="st18"/>
		</g>
		<g id="shape1027-91" transform="translate(379.85,-328.651)">
			<title>Dynamic connector.1027</title>
			<path d="M10.2 568.56 L10.56 568.56 L90.71 568.56 L90.71 576.98" class="st14"/>
		</g>
		<g id="shape1035-98" transform="translate(425.723,-328.651)">
			<title>Sheet.1035</title>
			<desc>QSPI or SPI</desc>
			<rect x="0" y="543.614" width="78.8514" height="24.9449" class="st11"/>
			<text x="6.75" y="559.69" class="st12">QSPI or SPI</text>		</g>
	</g>
</svg>
