<?xml version="1.0" encoding="UTF-8" standalone="no"?>
<!DOCTYPE svg PUBLIC "-//W3C//DTD SVG 1.1//EN" "http://www.w3.org/Graphics/SVG/1.1/DTD/svg11.dtd">
<!-- Generated by Microsoft Visio, SVG Export matter_platform_design_nRF54lm20_wifi_switching.svg Drawing -->
<svg xmlns="http://www.w3.org/2000/svg" xmlns:xlink="http://www.w3.org/1999/xlink" xmlns:ev="http://www.w3.org/2001/xml-events"
		width="8.26772in" height="11.6929in" viewBox="0 0 595.276 841.89" xml:space="preserve" color-interpolation-filters="sRGB"
		class="st27">
	<style type="text/css">
	<![CDATA[
		.st1 {stroke:#c8ced3;stroke-linecap:butt;stroke-width:0.5}
		.st2 {fill:#ffffff;stroke:none;stroke-linecap:butt;stroke-width:7.2}
		.st3 {fill:#c8ced3;font-family:Calibri;font-size:1.00001em}
		.st4 {stroke:#c8ced3;stroke-dasharray:4,2;stroke-linecap:butt;stroke-width:0.5}
		.st5 {fill:#6ad1e3;stroke:none;stroke-width:1}
		.st6 {stroke:none;stroke-linecap:round;stroke-linejoin:round;stroke-width:0.75}
		.st7 {fill:#333f48;font-family:Arial;font-size:1.5em}
		.st8 {fill:#0033a0;stroke:none;stroke-width:1}
		.st9 {fill:#ffffff;font-family:Arial;font-size:1.16666em}
		.st10 {fill:#00a9ce;stroke:none;stroke-width:1}
		.st11 {fill:#768692;stroke:none;stroke-width:1}
		.st12 {fill:#0077c8;stroke:none;stroke-width:1}
		.st13 {fill:#0033a0;fill-opacity:0.55;stroke:none;stroke-linecap:round;stroke-linejoin:round;stroke-width:0.75}
		.st14 {fill:#ffffff;font-family:Arial;font-size:1.00001em}
		.st15 {fill:none;stroke:none;stroke-width:1}
		.st16 {fill:#000000;font-family:Arial;font-size:1.00001em}
		.st17 {font-size:1em}
		.st18 {fill:#333f48;font-family:Arial;font-size:1.00001em}
		.st19 {fill:#d9e1e2;stroke:none;stroke-width:1}
		.st20 {fill:#00a9ce;stroke:none;stroke-linecap:round;stroke-linejoin:round;stroke-width:0.75}
		.st21 {fill:#ffffff;font-family:Arial;font-size:0.75em}
		.st22 {marker-end:url(#mrkr13-97);marker-start:url(#mrkr13-95);stroke:#333f48;stroke-linecap:butt;stroke-width:1}
		.st23 {fill:#333f48;fill-opacity:1;stroke:#333f48;stroke-opacity:1;stroke-width:0.28409090909091}
		.st24 {marker-end:url(#mrkr13-97);stroke:#333f48;stroke-dasharray:8,4;stroke-linecap:butt;stroke-width:1}
		.st25 {fill:#333f48;font-family:Arial;font-size:0.833336em}
		.st26 {marker-start:url(#mrkr13-95);stroke:#333f48;stroke-dasharray:8,4;stroke-linecap:butt;stroke-width:1}
		.st27 {fill:none;fill-rule:evenodd;font-size:12px;overflow:visible;stroke-linecap:square;stroke-miterlimit:3}
	]]>
	</style>

	<defs id="Markers">
		<g id="lend13">
			<path d="M 3 1 L 0 0 L 3 -1 L 3 1 " style="stroke:none"/>
		</g>
		<marker id="mrkr13-95" class="st23" refX="10.2" orient="auto" markerUnits="strokeWidth" overflow="visible">
			<use xlink:href="#lend13" transform="scale(3.52) "/>
		</marker>
		<marker id="mrkr13-97" class="st23" refX="-10.56" orient="auto" markerUnits="strokeWidth" overflow="visible">
			<use xlink:href="#lend13" transform="scale(-3.52,-3.52) "/>
		</marker>
	</defs>
	<g>
		<title>Drawing</title>
		<g id="group42-1" transform="translate(18,-256.961)">
			<title>Sheet.42</title>
			<g id="shape2-2" transform="translate(841.89,274.961) rotate(90)">
				<title>Sheet.2</title>
				<desc>Max 750 px</desc>
				<path d="M0 841.89 L566.93 841.89" class="st1"/>
				<rect x="255.275" y="834.69" width="56.3791" height="14.4001" class="st2"/>
				<text x="255.28" y="845.49" class="st3">Max 750 px</text>			</g>
			<g id="shape3-7" transform="translate(1.27898E-13,-566.929)">
				<title>Sheet.3</title>
				<desc>Max 700 px</desc>
				<path d="M0 841.89 L524.41 841.89" class="st1"/>
				<rect x="234.015" y="834.69" width="56.3791" height="14.4001" class="st2"/>
				<text x="234.02" y="845.49" class="st3">Max 700 px</text>			</g>
			<g id="shape4-12" transform="translate(1366.3,274.961) rotate(90)">
				<title>Sheet.4</title>
				<path d="M0 841.89 L566.93 841.89" class="st4"/>
			</g>
			<g id="shape5-15">
				<title>Sheet.5</title>
				<path d="M0 841.89 L524.41 841.89" class="st4"/>
			</g>
		</g>
		<g id="group1064-18" transform="translate(18,-345.827)">
			<title>Sheet.1064</title>
			<g id="shape661-19" transform="translate(2.23821E-13,-89.1213)">
				<title>Sheet.661</title>
				<path d="M404.36 452.95 L0 452.95 L0 841.89 L404.36 841.89 L404.36 452.95 Z" class="st5"/>
			</g>
			<g id="shape662-21" transform="translate(0,-89.4938)">
				<title>Sheet.662</title>
				<desc>nRF54LM20 application core</desc>
				<path d="M404.36 810.42 L0 810.42 L0 841.89 L404.36 841.89 L404.36 810.42" class="st6"/>
				<text x="87.11" y="831.55" class="st7">nRF54LM20 application core</text>			</g>
			<g id="shape663-25" transform="translate(8.11277,-412.676)">
				<title>Sheet.663</title>
				<desc>Application</desc>
				<path d="M0 786.95 L0 841.89 L386.82 841.89 L386.82 786.95 L0 786.95 L0 786.95 Z" class="st8"/>
				<text x="159.17" y="818.62" class="st9">Application</text>			</g>
			<g id="shape665-28" transform="translate(8.11277,-125.105)">
				<title>Sheet.665</title>
				<path d="M0 597.42 L0 841.89 L190.06 841.89 L190.06 597.42 L0 597.42 L0 597.42 Z" class="st10"/>
			</g>
			<g id="shape666-30" transform="translate(8.11277,-346.832)">
				<title>Sheet.666</title>
				<desc>Bluetooth® LE stack</desc>
				<path d="M190.06 819.41 L0 819.41 L0 841.89 L190.06 841.89 L190.06 819.41" class="st6"/>
				<text x="31.5" y="834.85" class="st9">Bluetooth® LE stack</text>			</g>
			<g id="shape667-34" transform="translate(204.874,-125.148)">
				<title>Sheet.667</title>
				<path d="M0 597.42 L0 841.89 L190.06 841.89 L190.06 597.42 L0 597.42 L0 597.42 Z" class="st10"/>
			</g>
			<g id="shape699-36" transform="translate(8.10557,-375.86)">
				<title>Sheet.699</title>
				<desc>Zephyr integration</desc>
				<path d="M0 811.32 L0 841.89 L386.82 841.89 L386.82 811.32 L0 811.32 L0 811.32 Z" class="st11"/>
				<text x="136.99" y="830.8" class="st9">Zephyr integration</text>			</g>
			<g id="shape683-39" transform="translate(24.0181,-152.757)">
				<title>Sheet.683</title>
				<rect x="0" y="647.409" width="157.703" height="194.481" class="st12"/>
			</g>
			<g id="shape687-41" transform="translate(31.733,-166.256)">
				<title>Sheet.687</title>
				<desc>L2CAP</desc>
				<path d="M65.65 798.46 L0 798.46 L0 841.89 L65.65 841.89 L65.65 798.46 Z" class="st13"/>
				<text x="13.81" y="823.78" class="st14">L2CAP</text>			</g>
			<g id="shape689-44" transform="translate(31.733,-263.791)">
				<title>Sheet.689</title>
				<desc>GATT</desc>
				<path d="M65.65 798.54 L0 798.54 L0 841.89 L65.65 841.89 L65.65 798.54 Z" class="st13"/>
				<text x="16.83" y="823.82" class="st14">GATT</text>			</g>
			<g id="shape691-47" transform="translate(31.733,-214.499)">
				<title>Sheet.691</title>
				<desc>ATT</desc>
				<path d="M65.65 798.54 L0 798.54 L0 841.89 L65.65 841.89 L65.65 798.54 Z" class="st13"/>
				<text x="21.49" y="823.82" class="st14">ATT</text>			</g>
			<g id="shape693-50" transform="translate(100.218,-263.791)">
				<title>Sheet.693</title>
				<desc>GAP</desc>
				<path d="M72.76 798.39 L0 798.39 L0 841.89 L72.76 841.89 L72.76 798.39 Z" class="st13"/>
				<text x="23.71" y="823.74" class="st14">GAP</text>			</g>
			<g id="shape695-53" transform="translate(100.218,-166.256)">
				<title>Sheet.695</title>
				<desc>SM</desc>
				<path d="M72.76 749.77 L0 749.77 L0 841.89 L72.76 841.89 L72.76 749.77 Z" class="st13"/>
				<text x="27.38" y="799.43" class="st14">SM</text>			</g>
			<g id="shape764-56" transform="translate(24.0181,-306.578)">
				<title>Sheet.764</title>
				<desc>Zephyr host</desc>
				<rect x="0" y="801.636" width="157.703" height="40.254" class="st15"/>
				<text x="47.17" y="825.36" class="st14">Zephyr host</text>			</g>
			<g id="shape1026-59" transform="translate(410.791,0)">
				<title>Sheet.1026</title>
				<desc>nRF7002 EK shield (Wi-Fi 6 Companion IC)</desc>
				<path d="M0 784.01 L0 841.89 L113.39 841.89 L113.39 784.01 L0 784.01 L0 784.01 Z" class="st10"/>
				<text x="4.99" y="802.15" class="st16">nRF7002 EK shield <tspan x="35.7" dy="1.2em" class="st17">(Wi</tspan>-Fi 6 <tspan
							x="16.34" dy="1.2em" class="st17">Companion IC)</tspan></text>			</g>
			<g id="shape1035-64" transform="translate(474.378,-57.7837)">
				<title>Sheet.1035</title>
				<desc>SPI</desc>
				<rect x="0" y="801.237" width="34.0158" height="40.6523" class="st15"/>
				<text x="7.34" y="825.16" class="st18">SPI</text>			</g>
			<g id="shape1049-67" transform="translate(204.874,-125.148)">
				<title>Sheet.1049</title>
				<desc>Switchable: Thread or Wi-Fi</desc>
				<path d="M190.06 597.42 L0 597.42 L0 841.89 L190.06 841.89 L190.06 597.42" class="st6"/>
				<text x="8.67" y="723.86" class="st9">Switchable: Thread or Wi-Fi</text>			</g>
			<g id="shape1050-71" transform="translate(423.047,-93.7678)">
				<title>Sheet.1050</title>
				<path d="M0 734.65 L0 841.89 L96.12 841.89 L96.12 734.65 L0 734.65 L0 734.65 Z" class="st12"/>
			</g>
			<g id="shape1029-73" transform="translate(424.73,-98.436)">
				<title>Sheet.1029</title>
				<rect x="0" y="791.513" width="90.3134" height="50.3772" class="st19"/>
			</g>
			<g id="shape1030-75" transform="translate(426.382,-99.3652)">
				<title>Sheet.1030</title>
				<path d="M87.28 793.67 L0 793.67 L0 841.89 L87.28 841.89 L87.28 793.67 Z" class="st20"/>
			</g>
			<g id="shape1032-77" transform="translate(442.003,-148.813)">
				<title>Sheet.1032</title>
				<path d="M72.97 817.95 L0 817.95 L0 841.89 L72.97 841.89 L72.97 817.95 Z" class="st8"/>
			</g>
			<g id="shape1033-79" transform="translate(424.73,-147.894)">
				<title>Sheet.1033</title>
				<rect x="0" y="817.027" width="17.273" height="24.8627" class="st19"/>
			</g>
			<g id="shape1034-81" transform="translate(426.382,-123.378)">
				<title>Sheet.1034</title>
				<path d="M14.32 793.48 L0 793.48 L0 841.89 L14.32 841.89 L14.32 793.48 Z" class="st20"/>
			</g>
			<g id="shape1041-83" transform="translate(426.382,-99.3652)">
				<title>Sheet.1041</title>
				<desc>Wi-Fi driver</desc>
				<rect x="0" y="793.672" width="87.2846" height="48.2177" class="st15"/>
				<text x="12.98" y="821.38" class="st14">Wi-Fi driver</text>			</g>
			<g id="shape1043-86" transform="translate(442.076,-148.813)">
				<title>Sheet.1043</title>
				<desc>wpa_supplicant</desc>
				<rect x="0" y="819.409" width="72.9667" height="22.4804" class="st15"/>
				<text x="5.46" y="833.35" class="st21">wpa_supplicant</text>			</g>
			<g id="shape1027-89" transform="translate(467.921,-98.436)">
				<title>Dynamic connector.1027</title>
				<path d="M7.09 852.09 L7.09 852.45 L7.09 871.89" class="st22"/>
			</g>
			<g id="shape1053-98" transform="translate(423.201,-315.328)">
				<title>Dynamic connector</title>
				<path d="M0 841.89 L-8.92 841.89 L-8.92 909.84 L-17.71 909.84" class="st24"/>
			</g>
			<g id="shape1054-103" transform="translate(423.047,-147.387)">
				<title>Dynamic connector.1054</title>
				<path d="M0 841.89 L-8.76 841.89 L-8.76 741.9 L-17.56 741.9" class="st24"/>
			</g>
			<g id="shape1055-108" transform="translate(432.364,-213.267)">
				<title>Sheet.1055</title>
				<desc>Triggerable switch</desc>
				<rect x="0" y="805.707" width="59.6493" height="36.1823" class="st15"/>
				<text x="4.53" y="820.8" class="st25">Triggerable <tspan x="15.93" dy="1.2em" class="st17">switch</tspan></text>			</g>
			<g id="shape1028-112" transform="translate(423.047,-171.788)">
				<title>Sheet.1028</title>
				<desc>Wi-Fi host</desc>
				<path d="M96.12 812.67 L0 812.67 L0 841.89 L96.12 841.89 L96.12 812.67" class="st6"/>
				<text x="16.56" y="831.48" class="st9">Wi-Fi host</text>			</g>
			<g id="group1057-116" transform="translate(417.402,-261.708)">
				<title>Sheet.1057</title>
				<g id="shape1048-117" transform="translate(5.79896,0)">
					<title>Sheet.1048</title>
					<path d="M0 734.65 L0 841.89 L96.12 841.89 L96.12 734.65 L0 734.65 L0 734.65 Z" class="st12"/>
				</g>
				<g id="shape1038-119" transform="translate(5.79896,0)">
					<title>Sheet.1038</title>
					<desc>Thread stack (OpenThread)</desc>
					<path d="M96.12 734.65 L0 734.65 L0 841.89 L96.12 841.89 L96.12 734.65" class="st6"/>
					<text x="13.38" y="784.67" class="st14">Thread stack <tspan x="10.37" dy="1.2em" class="st17">(OpenThread)</tspan></text>				</g>
			</g>
			<g id="shape1062-124" transform="translate(499.181,-262.377)">
				<title>Dynamic connector.1062</title>
				<path d="M-6.94 852.09 L-6.94 852.45 L-6.94 903.26 L-7.23 903.26" class="st26"/>
			</g>
			<g id="shape1063-129" transform="translate(507.827,-262.377)">
				<title>Dynamic connector.1063</title>
				<path d="M-7.09 841.89 L-7.09 892.7" class="st24"/>
			</g>
		</g>
	</g>
</svg>
