<?xml version="1.0" encoding="UTF-8" standalone="no"?>
<!DOCTYPE svg PUBLIC "-//W3C//DTD SVG 1.1//EN" "http://www.w3.org/Graphics/SVG/1.1/DTD/svg11.dtd">
<!-- Generated by Microsoft Visio, SVG Export matter_components_DM.svg Page-1 -->
<svg xmlns="http://www.w3.org/2000/svg" xmlns:xlink="http://www.w3.org/1999/xlink" xmlns:ev="http://www.w3.org/2001/xml-events"
		width="6.59517in" height="2.68526in" viewBox="0 0 474.852 193.339" xml:space="preserve" color-interpolation-filters="sRGB"
		class="st12">
	<style type="text/css">
	<![CDATA[
		.st1 {fill:#d0df00;stroke:none;stroke-linecap:round;stroke-linejoin:round;stroke-width:0.75}
		.st2 {fill:#333f48;font-family:Arial;font-size:0.75em}
		.st3 {fill:#768692;stroke:none;stroke-width:1}
		.st4 {fill:#ffffff;font-family:Arial;font-size:0.75em}
		.st5 {fill:#ffffff;font-family:Arial;font-size:1.00001em}
		.st6 {fill:#333f48;stroke:none;stroke-linecap:round;stroke-linejoin:round;stroke-width:0.75}
		.st7 {fill:#768692;stroke:none;stroke-linecap:round;stroke-linejoin:round;stroke-width:0.75}
		.st8 {fill:#d9e1e2;stroke:none;stroke-linecap:round;stroke-linejoin:round;stroke-width:0.75}
		.st9 {fill:#333f48;font-family:Arial;font-size:1.00001em}
		.st10 {fill:#feffff;font-family:Arial;font-size:1.00001em}
		.st11 {stroke:#768692;stroke-linecap:butt;stroke-width:1}
		.st12 {fill:none;fill-rule:evenodd;font-size:12px;overflow:visible;stroke-linecap:square;stroke-miterlimit:3}
	]]>
	</style>

	<g>
		<title>Page-1</title>
		<g id="shape3241-1" transform="translate(0,-10.9213)">
			<title>Sheet.3241</title>
			<desc>Matter stack</desc>
			<path d="M0 71.45 L0 193.34 L144.18 193.34 L144.18 71.45 L0 71.45 L0 71.45 Z" class="st1"/>
			<text x="47.58" y="83.55" class="st2">Matter stack</text>		</g>
		<g id="shape3299-4" transform="translate(7.102,-101.406)">
			<title>Sheet.3299</title>
			<desc>Application</desc>
			<path d="M129.97 180.99 L0 180.99 L0 193.34 L129.97 193.34 L129.97 180.99 Z" class="st3"/>
			<text x="42.97" y="190.16" class="st4">Application</text>		</g>
		<g id="shape3310-7" transform="translate(7.102,-84.0916)">
			<title>Sheet.3310</title>
			<desc>Data Model</desc>
			<path d="M129.97 180.99 L0 180.99 L0 193.34 L129.97 193.34 L129.97 180.99 Z" class="st3"/>
			<text x="41.97" y="190.16" class="st4">Data Model</text>		</g>
		<g id="shape3311-10" transform="translate(7.102,-66.5919)">
			<title>Sheet.3311</title>
			<desc>Interaction Model</desc>
			<path d="M129.97 180.99 L0 180.99 L0 193.34 L129.97 193.34 L129.97 180.99 Z" class="st3"/>
			<text x="30.47" y="190.16" class="st4">Interaction Model</text>		</g>
		<g id="shape3312-13" transform="translate(7.102,-50.0669)">
			<title>Sheet.3312</title>
			<desc>Action Framing</desc>
			<path d="M129.97 180.99 L0 180.99 L0 193.34 L129.97 193.34 L129.97 180.99 Z" class="st3"/>
			<text x="34.72" y="190.16" class="st4">Action Framing</text>		</g>
		<g id="shape3313-16" transform="translate(7.102,-33.5418)">
			<title>Sheet.3313</title>
			<desc>Security</desc>
			<path d="M129.97 180.99 L0 180.99 L0 193.34 L129.97 193.34 L129.97 180.99 Z" class="st3"/>
			<text x="48.73" y="190.16" class="st4">Security</text>		</g>
		<g id="shape3314-19" transform="translate(7.102,-17.0167)">
			<title>Sheet.3314</title>
			<desc>Message Framing and Routing</desc>
			<path d="M129.97 180.99 L0 180.99 L0 193.34 L129.97 193.34 L129.97 180.99 Z" class="st3"/>
			<text x="3.45" y="190.16" class="st4">Message Framing and Routing</text>		</g>
		<g id="shape3316-22" transform="translate(165.76,-1)">
			<title>Sheet.3316</title>
			<desc>Device</desc>
			<path d="M308.09 2 L0 2 L0 193.34 L308.09 193.34 L308.09 2 Z" class="st3"/>
			<text x="8.5" y="15.5" class="st5">Device</text>		</g>
		<g id="shape3317-25" transform="translate(175.081,-5.25197)">
			<title>Sheet.3317</title>
			<desc>Node 0</desc>
			<path d="M290.83 28.64 L0 28.64 L0 193.34 L290.83 193.34 L290.83 28.64 Z" class="st6"/>
			<text x="4" y="43.44" class="st5">Node 0</text>		</g>
		<g id="shape3318-28" transform="translate(180.75,-10.9213)">
			<title>Sheet.3318</title>
			<desc>Endpoint 0</desc>
			<path d="M133.23 58.25 L0 58.25 L0 193.34 L133.23 193.34 L133.23 58.25 Z" class="st7"/>
			<text x="4" y="73.05" class="st5">Endpoint 0</text>		</g>
		<g id="shape3320-31" transform="translate(189.254,-17.0167)">
			<title>Sheet.3320</title>
			<desc>Cluster</desc>
			<path d="M119.06 86.05 L0 86.05 L0 193.34 L119.06 193.34 L119.06 86.05 Z" class="st8"/>
			<text x="4" y="100.85" class="st9">Cluster</text>		</g>
		<g id="shape3321-34" transform="translate(194.923,-74.9843)">
			<title>Sheet.3321</title>
			<desc>Attribute</desc>
			<path d="M107.72 170.5 L0 170.5 L0 193.34 L107.72 193.34 L107.72 170.5 Z" class="st6"/>
			<text x="4" y="185.3" class="st10">Attribute</text>		</g>
		<g id="shape3322-37" transform="translate(194.923,-48.7454)">
			<title>Sheet.3322</title>
			<desc>Attribute (Event)</desc>
			<path d="M107.72 170.5 L0 170.5 L0 193.34 L107.72 193.34 L107.72 170.5 Z" class="st6"/>
			<text x="4" y="185.3" class="st10">Attribute (Event)</text>		</g>
		<g id="shape3323-40" transform="translate(194.923,-22.2599)">
			<title>Sheet.3323</title>
			<desc>Command</desc>
			<path d="M107.72 170.5 L0 170.5 L0 193.34 L107.72 193.34 L107.72 170.5 Z" class="st6"/>
			<text x="4" y="185.3" class="st10">Command</text>		</g>
		<g id="shape3325-43" transform="translate(137.073,-96.439)">
			<title>Dynamic connector</title>
			<path d="M0 193.34 L28.69 97.44" class="st11"/>
		</g>
		<g id="shape3326-46" transform="translate(137.073,-84.0916)">
			<title>Dynamic connector.3326</title>
			<path d="M0 193.34 L28.69 276.43" class="st11"/>
		</g>
		<g id="shape3327-49" transform="translate(318.23,-10.9213)">
			<title>Sheet.3327</title>
			<desc>Endpoint 1</desc>
			<path d="M69.45 58.25 L0 58.25 L0 193.34 L69.45 193.34 L69.45 58.25 Z" class="st7"/>
			<text x="4" y="73.05" class="st5">Endpoint 1</text>		</g>
		<g id="shape3328-52" transform="translate(391.931,-10.9213)">
			<title>Sheet.3328</title>
			<desc>Endpoint ...</desc>
			<path d="M69.45 58.25 L0 58.25 L0 193.34 L69.45 193.34 L69.45 58.25 Z" class="st7"/>
			<text x="4" y="73.05" class="st5">Endpoint ...</text>		</g>
	</g>
</svg>
