<?xml version="1.0" encoding="UTF-8" standalone="no"?>
<!DOCTYPE svg PUBLIC "-//W3C//DTD SVG 1.1//EN" "http://www.w3.org/Graphics/SVG/1.1/DTD/svg11.dtd">
<!-- Generated by Microsoft Visio, SVG Export Drawing3.svg Page-1 -->
<svg xmlns="http://www.w3.org/2000/svg" xmlns:xlink="http://www.w3.org/1999/xlink" xmlns:ev="http://www.w3.org/2001/xml-events"
		width="7.48541in" height="2.22004in" viewBox="0 0 538.95 159.843" xml:space="preserve" color-interpolation-filters="sRGB"
		class="st13">
	<style type="text/css">
	<![CDATA[
		.st1 {marker-end:url(#mrkr4-6);stroke:#333f48;stroke-linecap:butt;stroke-width:1}
		.st2 {fill:#333f48;fill-opacity:1;stroke:#333f48;stroke-opacity:1;stroke-width:0.28409090909091}
		.st3 {fill:none;stroke:none;stroke-width:1}
		.st4 {fill:#00a9ce;font-family:Arial;font-size:0.666664em}
		.st5 {fill:#0077c8;stroke:none;stroke-width:1}
		.st6 {fill:#ffcd00;stroke:none;stroke-width:1}
		.st7 {fill:#d0df00;stroke:none;stroke-width:1}
		.st8 {fill:#00a9ce;font-family:Arial;font-size:0.583328em}
		.st9 {font-size:1em}
		.st10 {fill:#ffffff;font-family:Arial;font-size:0.583328em}
		.st11 {fill:#768692;stroke:none;stroke-width:1}
		.st12 {fill:#ffffff;font-family:Arial;font-size:0.666664em}
		.st13 {fill:none;fill-rule:evenodd;font-size:12px;overflow:visible;stroke-linecap:square;stroke-miterlimit:3}
	]]>
	</style>

	<defs id="Markers">
		<g id="lend4">
			<path d="M 2 1 L 0 0 L 2 -1 L 2 1 " style="stroke:none"/>
		</g>
		<marker id="mrkr4-6" class="st2" refX="-7.04" orient="auto" markerUnits="strokeWidth" overflow="visible">
			<use xlink:href="#lend4" transform="scale(-3.52,-3.52) "/>
		</marker>
	</defs>
	<g>
		<title>Page-1</title>
		<g id="shape11-1" transform="translate(37.5874,-114.856)">
			<title>Dynamic connector</title>
			<path d="M0 166.58 L486.45 167.27" class="st1"/>
		</g>
		<g id="shape13-7" transform="translate(7.92312,-103.912)">
			<title>Sheet.13</title>
			<desc>AP</desc>
			<rect x="0" y="151.427" width="24.4041" height="8.41627" class="st3"/>
			<text x="6.87" y="158.04" class="st4">AP</text>		</g>
		<g id="shape14-10" transform="translate(37.5874,-25.9592)">
			<title>Dynamic connector.14</title>
			<path d="M0 153.43 L486.45 152.1" class="st1"/>
		</g>
		<g id="shape15-15" transform="translate(1,-26.0615)">
			<title>Sheet.15</title>
			<desc>Device</desc>
			<rect x="0" y="147.219" width="39.7416" height="12.6244" class="st3"/>
			<text x="7.64" y="155.93" class="st4">Device</text>		</g>
		<g id="shape18-18" transform="translate(111.523,-142.896)">
			<title>Sheet.18</title>
			<desc>ACK</desc>
			<rect x="0" y="151.427" width="39.7416" height="8.41627" class="st3"/>
			<text x="11.65" y="153.24" class="st4">ACK</text>		</g>
		<g id="shape19-21" transform="translate(127.06,-108.516)">
			<title>Nordic Grass.19</title>
			<rect x="0" y="136.702" width="8.66675" height="23.1409" class="st5"/>
		</g>
		<g id="shape27-23" transform="translate(165.353,-108.175)">
			<title>Nordic Sun</title>
			<rect x="0" y="136.702" width="39.7416" height="23.1409" class="st6"/>
		</g>
		<g id="shape29-25" transform="translate(433.202,-108.894)">
			<title>Nordic Grass.29</title>
			<rect x="0" y="136.702" width="8.66675" height="23.1409" class="st7"/>
		</g>
		<g id="shape32-27" transform="translate(153.56,-142.896)">
			<title>Sheet.32</title>
			<desc>QoS data (EOSP = 0)</desc>
			<rect x="0" y="145.67" width="63.3266" height="14.1732" class="st3"/>
			<text x="16.88" y="150.66" class="st8">QoS data <tspan x="13.67" dy="1.2em" class="st9">(EOSP = 0)</tspan></text>		</g>
		<g id="shape1004-31" transform="translate(174.47,-66.3164)">
			<title>Sheet.1004</title>
			<desc>Sleep</desc>
			<rect x="0" y="145.67" width="39.7416" height="14.1732" class="st3"/>
			<text x="10.92" y="154.86" class="st10">Sleep</text>		</g>
		<g id="shape1006-34" transform="translate(452.07,-67.7338)">
			<title>Sheet.1006</title>
			<desc>Sleep</desc>
			<rect x="0" y="147.219" width="27.6236" height="12.6244" class="st3"/>
			<text x="4.86" y="155.63" class="st10">Sleep</text>		</g>
		<g id="shape24-37" transform="translate(358.222,-1)">
			<title>Nordic Middle Grey.24</title>
			<rect x="0" y="28.8088" width="141.676" height="131.034" class="st11"/>
		</g>
		<g id="shape1014-39" transform="translate(404.682,-59.2298)">
			<title>Sheet.1014</title>
			<desc>Sleep</desc>
			<rect x="0" y="142.835" width="48.7559" height="17.0079" class="st3"/>
			<text x="14.15" y="153.74" class="st12">Sleep</text>		</g>
		<g id="shape6-42" transform="translate(54.6389,-7.88581)">
			<title>Nordic Middle Grey</title>
			<rect x="0" y="28.8088" width="27.6236" height="131.034" class="st11"/>
		</g>
		<g id="shape1003-44" transform="translate(49.1607,-67.7338)">
			<title>Sheet.1003</title>
			<desc>Sleep</desc>
			<rect x="0" y="145.67" width="39.7416" height="14.1732" class="st3"/>
			<text x="9.64" y="155.16" class="st12">Sleep</text>		</g>
		<g id="shape1017-47" transform="translate(234.72,-108.175)">
			<title>Nordic Sun.1017</title>
			<rect x="0" y="136.702" width="39.7416" height="23.1409" class="st6"/>
		</g>
		<g id="shape1018-49" transform="translate(85.1759,-32.7517)">
			<title>Nordic Sun.1018</title>
			<rect x="0" y="136.702" width="24.4041" height="23.1409" class="st6"/>
		</g>
		<g id="shape1019-51" transform="translate(65.7147,-58.3493)">
			<title>Sheet.1019</title>
			<desc>QoS Null</desc>
			<rect x="0" y="145.67" width="63.3266" height="14.1732" class="st3"/>
			<text x="17.66" y="154.86" class="st8">QoS Null </text>		</g>
		<g id="shape1020-54" transform="translate(199.425,-55.5147)">
			<title>Sheet.1020</title>
			<desc>ACK</desc>
			<rect x="0" y="151.427" width="39.7416" height="8.41627" class="st3"/>
			<text x="11.65" y="153.24" class="st4">ACK</text>		</g>
		<g id="shape1021-57" transform="translate(214.963,-32.3737)">
			<title>Nordic Grass.1021</title>
			<rect x="0" y="136.702" width="8.66675" height="23.1409" class="st5"/>
		</g>
		<g id="shape1024-59" transform="translate(329.819,-56.3952)">
			<title>Sheet.1024</title>
			<desc>ACK</desc>
			<rect x="0" y="151.427" width="39.7416" height="8.41627" class="st3"/>
			<text x="11.65" y="153.24" class="st4">ACK</text>		</g>
		<g id="shape1025-62" transform="translate(349.69,-33.2542)">
			<title>Nordic Grass.1025</title>
			<rect x="0" y="136.702" width="8.66675" height="23.1409" class="st5"/>
		</g>
		<g id="shape1026-64" transform="translate(289.17,-144.357)">
			<title>Sheet.1026</title>
			<desc>QoS data (EOSP = 1)</desc>
			<rect x="0" y="145.67" width="63.3266" height="14.1732" class="st3"/>
			<text x="16.88" y="150.66" class="st8">QoS data <tspan x="13.67" dy="1.2em" class="st9">(EOSP = 1)</tspan></text>		</g>
		<g id="shape1027-68" transform="translate(268.793,-56.3952)">
			<title>Sheet.1027</title>
			<desc>ACK</desc>
			<rect x="0" y="151.427" width="39.7416" height="8.41627" class="st3"/>
			<text x="11.65" y="153.24" class="st4">ACK</text>		</g>
		<g id="shape1028-71" transform="translate(284.33,-33.2542)">
			<title>Nordic Grass.1028</title>
			<rect x="0" y="136.702" width="8.66675" height="23.1409" class="st5"/>
		</g>
		<g id="shape1029-73" transform="translate(304.088,-108.138)">
			<title>Nordic Sun.1029</title>
			<rect x="0" y="136.702" width="39.7416" height="23.1409" class="st6"/>
		</g>
		<g id="shape1030-75" transform="translate(222.928,-144.269)">
			<title>Sheet.1030</title>
			<desc>QoS data (EOSP = 0)</desc>
			<rect x="0" y="145.67" width="63.3266" height="14.1732" class="st3"/>
			<text x="16.88" y="150.66" class="st8">QoS data <tspan x="13.67" dy="1.2em" class="st9">(EOSP = 0)</tspan></text>		</g>
	</g>
</svg>
