<?xml version="1.0" encoding="UTF-8" standalone="no"?>
<!DOCTYPE svg PUBLIC "-//W3C//DTD SVG 1.1//EN" "http://www.w3.org/Graphics/SVG/1.1/DTD/svg11.dtd">
<!-- Generated by Microsoft Visio, SVG Export advertiser.svg Page-1 -->
<svg xmlns="http://www.w3.org/2000/svg" xmlns:xlink="http://www.w3.org/1999/xlink" xmlns:ev="http://www.w3.org/2001/xml-events"
		width="8.27022in" height="1.91737in" viewBox="0 0 595.456 138.051" xml:space="preserve" color-interpolation-filters="sRGB"
		class="st15">
	<style type="text/css">
	<![CDATA[
		.st1 {fill:#ffffff;stroke:none;stroke-linecap:round;stroke-linejoin:round;stroke-width:0.72}
		.st2 {marker-end:url(#mrkr13-8);stroke:#000000;stroke-linecap:round;stroke-linejoin:round;stroke-width:0.72}
		.st3 {fill:#000000;fill-opacity:1;stroke:#000000;stroke-opacity:1;stroke-width:0.22222222222222}
		.st4 {fill:none;stroke:#000000;stroke-linecap:round;stroke-linejoin:round;stroke-width:0.72}
		.st5 {fill:#000000;font-family:Arial;font-size:0.833336em}
		.st6 {font-size:1em}
		.st7 {fill:none}
		.st8 {marker-end:url(#mrkr12-27);marker-start:url(#mrkr12-25);stroke:#000000;stroke-linecap:round;stroke-linejoin:round;stroke-width:0.24}
		.st9 {stroke:#000000;stroke-linecap:round;stroke-linejoin:round;stroke-width:0.24}
		.st10 {fill:#000000;fill-opacity:1;stroke:#000000;stroke-opacity:1;stroke-width:0.08695652173913}
		.st11 {fill:#000000;font-family:Arial;font-size:0.666664em}
		.st12 {stroke:#000000;stroke-dasharray:2.16,2.16;stroke-linecap:round;stroke-linejoin:round;stroke-width:0.72}
		.st13 {marker-start:url(#mrkr5-70);stroke:#000000;stroke-linecap:round;stroke-linejoin:round;stroke-width:0.72}
		.st14 {fill:none;stroke:none;stroke-linecap:round;stroke-linejoin:round;stroke-width:0.72}
		.st15 {fill:none;fill-rule:evenodd;font-size:12px;overflow:visible;stroke-linecap:square;stroke-miterlimit:3}
	]]>
	</style>

	<defs id="Markers">
		<g id="lend13">
			<path d="M 3 1 L 0 0 L 3 -1 L 3 1 " style="stroke:none"/>
		</g>
		<marker id="mrkr13-8" class="st3" refX="-13.5" orient="auto" markerUnits="strokeWidth" overflow="visible">
			<use xlink:href="#lend13" transform="scale(-4.5,-4.5) "/>
		</marker>
		<g id="lend12">
			<path d="M 3 1 L 0 0 L 3 -1 " style="stroke-linecap:round;stroke-linejoin:round;fill:none"/>
		</g>
		<marker id="mrkr12-25" class="st10" orient="auto" markerUnits="strokeWidth" overflow="visible">
			<use xlink:href="#lend12" transform="scale(11.5) "/>
		</marker>
		<marker id="mrkr12-27" class="st10" orient="auto" markerUnits="strokeWidth" overflow="visible">
			<use xlink:href="#lend12" transform="scale(-11.5,-11.5) "/>
		</marker>
		<g id="lend5">
			<path d="M 2 1 L 0 0 L 1.98117 -0.993387 C 1.67173 -0.364515 1.67301 0.372641 1.98465 1.00043 " style="stroke:none"/>
		</g>
		<marker id="mrkr5-70" class="st3" refX="7.375" orient="auto" markerUnits="strokeWidth" overflow="visible">
			<use xlink:href="#lend5" transform="scale(4.5) "/>
		</marker>
	</defs>
	<g>
		<title>VBackground-1</title>
		<g id="shape1000-1">
			<title>Solid.1000</title>
			<rect x="0" y="0" width="595.456" height="138.051" class="st1"/>
		</g>
	</g>
	<g>
		<title>Page-1</title>
		<g id="shape1-3" transform="translate(71.1474,-55.124)">
			<title>Sheet.1</title>
			<path d="M0 138.05 L486.34 138.05" class="st2"/>
		</g>
		<g id="shape2-9" transform="translate(166.926,-55.124)">
			<title>Sheet.2</title>
			<desc>Adv</desc>
			<rect x="0" y="84.3565" width="17.607" height="53.6945" class="st4"/>
			<text x="5.47" y="102.2" class="st5">A<tspan x="6.02" dy="1.2em" class="st6">d</tspan><tspan x="6.3" dy="1.2em"
						class="st6">v</tspan></text>		</g>
		<g id="shape5-14" transform="translate(356.917,-55.124)">
			<title>Sheet.5</title>
			<desc>Adv</desc>
			<rect x="0" y="84.3565" width="17.607" height="53.6945" class="st4"/>
			<text x="5.47" y="102.2" class="st5">A<tspan x="6.02" dy="1.2em" class="st6">d</tspan><tspan x="6.3" dy="1.2em"
						class="st6">v</tspan></text>		</g>
		<g id="shape8-19" transform="translate(166.926,-104.414)">
			<title>Duration (horizontal) .8</title>
			<desc>Adv interval + random delay</desc>
			<path d="M0 143.11 L0 134.11 L0 143.11 ZM189.99 143.11 L189.99 134.11 L189.99 143.11 Z" class="st7"/>
			<path d="M0 138.61 L189.99 138.61" class="st8"/>
			<path d="M0 143.11 L0 134.11" class="st9"/>
			<path d="" class="st9"/>
			<path d="M189.99 143.11 L189.99 134.11" class="st9"/>
			<path d="" class="st9"/>
			<text x="54.09" y="149.9" class="st11">Adv interval + random delay</text>		</g>
		<g id="shape3-33" transform="translate(525.784,-55.1348)">
			<title>Sheet.3</title>
			<desc>Adv</desc>
			<rect x="0" y="84.3565" width="17.607" height="53.6945" class="st4"/>
			<text x="5.47" y="102.2" class="st5">A<tspan x="6.02" dy="1.2em" class="st6">d</tspan><tspan x="6.3" dy="1.2em"
						class="st6">v</tspan></text>		</g>
		<g id="shape4-38" transform="translate(356.917,-104.134)">
			<title>Duration (horizontal) .4</title>
			<desc>Adv interval + random delay</desc>
			<path d="M0 133.8 L0 142.8 L0 133.8 ZM168.87 133.8 L168.87 142.8 L168.87 133.8 Z" class="st7"/>
			<path d="M0 138.3 L168.87 138.3" class="st8"/>
			<path d="M0 133.8 L0 142.8" class="st9"/>
			<path d="" class="st9"/>
			<path d="M168.87 133.8 L168.87 142.8" class="st9"/>
			<path d="" class="st9"/>
			<text x="45.52" y="149.61" class="st11">Adv interval + random delay</text>		</g>
		<g id="shape9-50" transform="translate(85.2513,-104.341)">
			<title>Duration (horizontal) .9</title>
			<desc>random delay</desc>
			<path d="M0 143.11 L0 134.11 L0 143.11 ZM81.67 143.11 L81.67 134.11 L81.67 143.11 Z" class="st7"/>
			<path d="M0 138.61 L81.67 138.61" class="st8"/>
			<path d="M0 143.11 L0 134.11" class="st9"/>
			<path d="" class="st9"/>
			<path d="M81.67 143.11 L81.67 134.11" class="st9"/>
			<path d="" class="st9"/>
			<text x="16.5" y="150.04" class="st11">random delay</text>		</g>
		<g id="shape10-62" transform="translate(223.302,29.3832) rotate(89.9256)">
			<title>Sheet.10</title>
			<path d="M0 138.05 L53.36 138.05" class="st12"/>
		</g>
		<g id="shape11-65" transform="translate(223.372,83.3886) rotate(90)">
			<title>Sheet.11</title>
			<path d="M5.31 138.05 L5.67 138.05 L21.26 138.05" class="st13"/>
		</g>
		<g id="shape12-71" transform="translate(18.36,-18.36)">
			<title>Sheet.12</title>
			<desc>HCI LE Advertising Enable</desc>
			<rect x="0" y="118.051" width="152" height="20" class="st14"/>
			<text x="28.64" y="130.45" class="st11">HCI LE Advertising Enable</text>		</g>
	</g>
</svg>
