<?xml version="1.0" encoding="UTF-8" standalone="no"?>
<!DOCTYPE svg PUBLIC "-//W3C//DTD SVG 1.1//EN" "http://www.w3.org/Graphics/SVG/1.1/DTD/svg11.dtd">
<!-- Generated by Microsoft Visio, SVG Export conn_timing_event_extend.svg Page-1 -->
<svg xmlns="http://www.w3.org/2000/svg" xmlns:xlink="http://www.w3.org/1999/xlink" xmlns:ev="http://www.w3.org/2001/xml-events"
		width="8.25396in" height="1.89106in" viewBox="0 0 594.285 136.157" xml:space="preserve" color-interpolation-filters="sRGB"
		class="st15">
	<style type="text/css">
	<![CDATA[
		.st1 {fill:#ffffff;stroke:none;stroke-linecap:round;stroke-linejoin:round;stroke-width:0.72}
		.st2 {fill:none;stroke:#000000;stroke-linecap:round;stroke-linejoin:round;stroke-width:0.72}
		.st3 {fill:#000000;font-family:Arial;font-size:0.833336em}
		.st4 {font-size:1em}
		.st5 {fill:none;stroke:#000000;stroke-dasharray:2.16,2.16;stroke-linecap:round;stroke-linejoin:round;stroke-width:0.72}
		.st6 {marker-end:url(#mrkr13-18);stroke:#000000;stroke-linecap:round;stroke-linejoin:round;stroke-width:0.72}
		.st7 {fill:#000000;fill-opacity:1;stroke:#000000;stroke-opacity:1;stroke-width:0.22222222222222}
		.st8 {fill:none}
		.st9 {marker-end:url(#mrkr12-39);marker-start:url(#mrkr12-37);stroke:#000000;stroke-linecap:round;stroke-linejoin:round;stroke-width:0.24}
		.st10 {stroke:#000000;stroke-linecap:round;stroke-linejoin:round;stroke-width:0.24}
		.st11 {fill:#000000;fill-opacity:1;stroke:#000000;stroke-opacity:1;stroke-width:0.08695652173913}
		.st12 {fill:#000000;font-family:Arial;font-size:0.666664em}
		.st13 {fill:#000000;font-family:Arial;font-size:0.75em}
		.st14 {baseline-shift:-32.4951%;font-size:0.649902em}
		.st15 {fill:none;fill-rule:evenodd;font-size:12px;overflow:visible;stroke-linecap:square;stroke-miterlimit:3}
	]]>
	</style>

	<defs id="Markers">
		<g id="lend13">
			<path d="M 3 1 L 0 0 L 3 -1 L 3 1 " style="stroke:none"/>
		</g>
		<marker id="mrkr13-18" class="st7" refX="-13.5" orient="auto" markerUnits="strokeWidth" overflow="visible">
			<use xlink:href="#lend13" transform="scale(-4.5,-4.5) "/>
		</marker>
		<g id="lend12">
			<path d="M 3 1 L 0 0 L 3 -1 " style="stroke-linecap:round;stroke-linejoin:round;fill:none"/>
		</g>
		<marker id="mrkr12-37" class="st11" orient="auto" markerUnits="strokeWidth" overflow="visible">
			<use xlink:href="#lend12" transform="scale(11.5) "/>
		</marker>
		<marker id="mrkr12-39" class="st11" orient="auto" markerUnits="strokeWidth" overflow="visible">
			<use xlink:href="#lend12" transform="scale(-11.5,-11.5) "/>
		</marker>
	</defs>
	<g>
		<title>VBackground-1</title>
		<g id="shape1000-1">
			<title>Solid.1000</title>
			<rect x="0" y="0" width="594.285" height="136.157" class="st1"/>
		</g>
	</g>
	<g>
		<title>Page-1</title>
		<g id="shape38-3" transform="translate(142.328,-40.6554)">
			<title>Sheet.38</title>
			<desc>C3</desc>
			<rect x="0" y="64.4951" width="18.0398" height="71.6615" class="st2"/>
			<text x="5.41" y="97.33" class="st3">C<tspan x="6.24" dy="1.2em" class="st4">3</tspan></text>		</g>
		<g id="shape42-7" transform="translate(94.4065,-40.874)">
			<title>Sheet.42</title>
			<path d="M0 136.16 L33.4 136.16 L33.4 64.5 L0 64.5 L0 136.16 Z" class="st5"/>
		</g>
		<g id="shape43-9" transform="translate(160.48,-40.6554)">
			<title>Sheet.43</title>
			<path d="M0 136.16 L62.44 136.16 L62.44 64.5 L0 64.5 L0 136.16 Z" class="st5"/>
		</g>
		<g id="shape44-11" transform="translate(254.145,-41.6306)">
			<title>Sheet.44</title>
			<path d="M0 136.16 L166.42 136.16 L166.42 64.5 L0 64.5 L0 136.16 Z" class="st5"/>
		</g>
		<g id="shape1-13" transform="translate(22.1308,-41.2715)">
			<title>Sheet.1</title>
			<path d="M0 136.16 L541.29 136.16" class="st6"/>
		</g>
		<g id="shape2-19" transform="translate(41.8472,-41.2715)">
			<title>Sheet.2</title>
			<desc>C0</desc>
			<rect x="0" y="64.4951" width="18.0398" height="71.6615" class="st2"/>
			<text x="5.41" y="97.33" class="st3">C<tspan x="6.24" dy="1.2em" class="st4">0</tspan></text>		</g>
		<g id="shape4-23" transform="translate(76.2239,-41.2715)">
			<title>Sheet.4</title>
			<desc>C1</desc>
			<rect x="0" y="64.4951" width="18.0398" height="71.6615" class="st2"/>
			<text x="5.41" y="97.33" class="st3">C<tspan x="6.24" dy="1.2em" class="st4">1</tspan></text>		</g>
		<g id="shape5-27" transform="translate(236.508,-41.2715)">
			<title>Sheet.5</title>
			<desc>C0</desc>
			<rect x="0" y="64.4951" width="18.0398" height="71.6615" class="st2"/>
			<text x="5.41" y="97.33" class="st3">C<tspan x="6.24" dy="1.2em" class="st4">0</tspan></text>		</g>
		<g id="shape8-31" transform="translate(41.8472,-53.7598)">
			<title>Duration (horizontal) .8</title>
			<desc>connectionInterval 0</desc>
			<path d="M0 141.22 L0 132.22 L0 141.22 ZM194.66 141.22 L194.66 132.22 L194.66 141.22 Z" class="st8"/>
			<path d="M0 136.72 L194.66 136.72" class="st9"/>
			<path d="M0 141.22 L0 132.22" class="st10"/>
			<path d="" class="st10"/>
			<path d="M194.66 141.22 L194.66 132.22" class="st10"/>
			<path d="" class="st10"/>
			<text x="105.73" y="142.8" class="st12">connectionInterval 0</text>		</g>
		<g id="shape9-45" transform="translate(236.508,-54.1337)">
			<title>Duration (horizontal) .9</title>
			<desc>connectionInterval 0</desc>
			<path d="M0 141.22 L0 132.22 L0 141.22 ZM196.26 141.22 L196.26 132.22 L196.26 141.22 Z" class="st8"/>
			<path d="M0 136.72 L196.26 136.72" class="st9"/>
			<path d="M0 141.22 L0 132.22" class="st10"/>
			<path d="" class="st10"/>
			<path d="M196.26 141.22 L196.26 132.22" class="st10"/>
			<path d="" class="st10"/>
			<text x="61.88" y="143.18" class="st12">connectionInterval 0</text>		</g>
		<g id="shape10-57" transform="translate(433.131,-41.2715)">
			<title>Sheet.10</title>
			<desc>C0</desc>
			<rect x="0" y="64.4951" width="18.0398" height="71.6615" class="st2"/>
			<text x="5.41" y="97.33" class="st3">C<tspan x="6.24" dy="1.2em" class="st4">0</tspan></text>		</g>
		<g id="shape12-61" transform="translate(467.508,-41.2715)">
			<title>Sheet.12</title>
			<desc>C1</desc>
			<rect x="0" y="64.4951" width="18.0398" height="71.6615" class="st2"/>
			<text x="5.41" y="97.33" class="st3">C<tspan x="6.24" dy="1.2em" class="st4">1</tspan></text>		</g>
		<g id="shape35-65" transform="translate(76.2239,-105.249)">
			<title>Duration (horizontal) .35</title>
			<desc>connectionInterval 1</desc>
			<path d="M0 141.22 L0 132.22 L0 141.22 ZM391.32 141.22 L391.32 132.22 L391.32 141.22 Z" class="st8"/>
			<path d="M0 136.72 L391.32 136.72" class="st9"/>
			<path d="M0 141.22 L0 132.22" class="st10"/>
			<path d="" class="st10"/>
			<path d="M391.32 141.22 L391.32 132.22" class="st10"/>
			<path d="" class="st10"/>
			<text x="228.68" y="143.27" class="st12">connectionInterval 1</text>		</g>
		<g id="shape40-77" transform="translate(534.413,-40.6554)">
			<title>Sheet.40</title>
			<desc>C3</desc>
			<rect x="0" y="64.4951" width="18.0398" height="71.6615" class="st2"/>
			<text x="5.41" y="97.33" class="st3">C<tspan x="6.24" dy="1.2em" class="st4">3</tspan></text>		</g>
		<g id="shape41-81" transform="translate(76.3997,-16.345)">
			<title>Duration (horizontal) .41</title>
			<desc>tevent-C1</desc>
			<path d="M0 141.22 L0 132.22 L0 141.22 ZM33.99 141.22 L33.99 132.22 L33.99 141.22 Z" class="st8"/>
			<path d="M0 136.72 L33.99 136.72" class="st9"/>
			<path d="M0 141.22 L0 132.22" class="st10"/>
			<path d="" class="st10"/>
			<path d="M33.99 141.22 L33.99 132.22" class="st10"/>
			<path d="" class="st10"/>
			<text x="4.89" y="129.22" class="st13">t<tspan dy="0.287em" class="st14">event</tspan><tspan class="st14">-</tspan><tspan
						class="st14">C1</tspan></text>		</g>
		<g id="shape47-96" transform="translate(110.38,-31.4776)">
			<title>Duration (horizontal) .47</title>
			<desc>tevent-C2</desc>
			<path d="M0 141.22 L0 132.22 L0 141.22 ZM33.99 141.22 L33.99 132.22 L33.99 141.22 Z" class="st8"/>
			<path d="M0 136.72 L33.99 136.72" class="st9"/>
			<path d="M0 141.22 L0 132.22" class="st10"/>
			<path d="" class="st10"/>
			<path d="M33.99 141.22 L33.99 132.22" class="st10"/>
			<path d="" class="st10"/>
			<text x="3.49" y="150.48" class="st13">t<tspan dy="0.287em" class="st14">event</tspan><tspan class="st14">-</tspan><tspan
						class="st14">C2</tspan></text>		</g>
		<g id="shape48-111" transform="translate(144.468,-18.2365)">
			<title>Duration (horizontal) .48</title>
			<desc>tevent-C1</desc>
			<path d="M0 141.22 L0 132.22 L0 141.22 ZM33.99 141.22 L33.99 132.22 L33.99 141.22 Z" class="st8"/>
			<path d="M0 136.72 L33.99 136.72" class="st9"/>
			<path d="M0 141.22 L0 132.22" class="st10"/>
			<path d="" class="st10"/>
			<path d="M33.99 141.22 L33.99 132.22" class="st10"/>
			<path d="" class="st10"/>
			<text x="4.2" y="130.63" class="st13">t<tspan dy="0.287em" class="st14">event</tspan><tspan class="st14">-</tspan><tspan
						class="st14">C1</tspan></text>		</g>
		<g id="shape49-126" transform="translate(433.012,-28.092)">
			<title>Duration (horizontal) .49</title>
			<desc>tevent-C0</desc>
			<path d="M0 141.22 L0 132.22 L0 141.22 ZM33.99 141.22 L33.99 132.22 L33.99 141.22 Z" class="st8"/>
			<path d="M0 136.72 L33.99 136.72" class="st9"/>
			<path d="M0 141.22 L0 132.22" class="st10"/>
			<path d="" class="st10"/>
			<path d="M33.99 141.22 L33.99 132.22" class="st10"/>
			<path d="" class="st10"/>
			<text x="3.49" y="150.48" class="st13">t<tspan dy="0.287em" class="st14">event</tspan><tspan class="st14">-</tspan><tspan
						class="st14">C0</tspan></text>		</g>
		<g id="shape50-141" transform="translate(467.21,-14.4534)">
			<title>Duration (horizontal) .50</title>
			<desc>tevent-C1</desc>
			<path d="M0 141.22 L0 132.22 L0 141.22 ZM33.99 141.22 L33.99 132.22 L33.99 141.22 Z" class="st8"/>
			<path d="M0 136.72 L33.99 136.72" class="st9"/>
			<path d="M0 141.22 L0 132.22" class="st10"/>
			<path d="" class="st10"/>
			<path d="M33.99 141.22 L33.99 132.22" class="st10"/>
			<path d="" class="st10"/>
			<text x="4.89" y="129.22" class="st13">t<tspan dy="0.287em" class="st14">event</tspan><tspan class="st14">-</tspan><tspan
						class="st14">C1</tspan></text>		</g>
		<g id="shape51-156" transform="translate(501.19,-29.586)">
			<title>Duration (horizontal) .51</title>
			<desc>tevent-C2</desc>
			<path d="M0 141.22 L0 132.22 L0 141.22 ZM33.99 141.22 L33.99 132.22 L33.99 141.22 Z" class="st8"/>
			<path d="M0 136.72 L33.99 136.72" class="st9"/>
			<path d="M0 141.22 L0 132.22" class="st10"/>
			<path d="" class="st10"/>
			<path d="M33.99 141.22 L33.99 132.22" class="st10"/>
			<path d="" class="st10"/>
			<text x="3.49" y="150.48" class="st13">t<tspan dy="0.287em" class="st14">event</tspan><tspan class="st14">-</tspan><tspan
						class="st14">C2</tspan></text>		</g>
		<g id="shape52-171" transform="translate(535.278,-16.345)">
			<title>Duration (horizontal) .52</title>
			<desc>tevent-C1</desc>
			<path d="M0 141.22 L0 132.22 L0 141.22 ZM33.99 141.22 L33.99 132.22 L33.99 141.22 Z" class="st8"/>
			<path d="M0 136.72 L33.99 136.72" class="st9"/>
			<path d="M0 141.22 L0 132.22" class="st10"/>
			<path d="" class="st10"/>
			<path d="M33.99 141.22 L33.99 132.22" class="st10"/>
			<path d="" class="st10"/>
			<text x="4.2" y="130.63" class="st13">t<tspan dy="0.287em" class="st14">event</tspan><tspan class="st14">-</tspan><tspan
						class="st14">C1</tspan></text>		</g>
		<g id="shape53-186" transform="translate(142.328,-95.7914)">
			<title>Duration (horizontal) .53</title>
			<desc>connectionInterval 3</desc>
			<path d="M0 141.22 L0 132.22 L0 141.22 ZM391.32 141.22 L391.32 132.22 L391.32 141.22 Z" class="st8"/>
			<path d="M0 136.72 L391.32 136.72" class="st9"/>
			<path d="M0 141.22 L0 132.22" class="st10"/>
			<path d="" class="st10"/>
			<path d="M391.32 141.22 L391.32 132.22" class="st10"/>
			<path d="" class="st10"/>
			<text x="162.58" y="143.73" class="st12">connectionInterval 3</text>		</g>
		<g id="shape55-198" transform="translate(485.329,-41.143)">
			<title>Sheet.55</title>
			<path d="M0 136.16 L33.4 136.16 L33.4 64.5 L0 64.5 L0 136.16 Z" class="st5"/>
		</g>
		<g id="shape3-200" transform="translate(42.202,-29.9835)">
			<title>Duration (horizontal) .6</title>
			<desc>tevent-C0</desc>
			<path d="M0 141.22 L0 132.22 L0 141.22 ZM33.99 141.22 L33.99 132.22 L33.99 141.22 Z" class="st8"/>
			<path d="M0 136.72 L33.99 136.72" class="st9"/>
			<path d="M0 141.22 L0 132.22" class="st10"/>
			<path d="" class="st10"/>
			<path d="M33.99 141.22 L33.99 132.22" class="st10"/>
			<path d="" class="st10"/>
			<text x="3.49" y="150.48" class="st13">t<tspan dy="0.287em" class="st14">event</tspan><tspan class="st14">-</tspan><tspan
						class="st14">C0</tspan></text>		</g>
	</g>
</svg>
