<?xml version="1.0" encoding="UTF-8" standalone="no"?>
<!DOCTYPE svg PUBLIC "-//W3C//DTD SVG 1.1//EN" "http://www.w3.org/Graphics/SVG/1.1/DTD/svg11.dtd">
<!-- Generated by Microsoft Visio, SVG Export initiator_1_first_connection.svg Page-1 -->
<svg xmlns="http://www.w3.org/2000/svg" xmlns:xlink="http://www.w3.org/1999/xlink" xmlns:ev="http://www.w3.org/2001/xml-events"
		width="8.25396in" height="1.73933in" viewBox="0 0 594.285 125.232" xml:space="preserve" color-interpolation-filters="sRGB"
		class="st14">
	<style type="text/css">
	<![CDATA[
		.st1 {fill:#ffffff;stroke:none;stroke-linecap:round;stroke-linejoin:round;stroke-width:0.72}
		.st2 {marker-end:url(#mrkr13-8);stroke:#000000;stroke-linecap:round;stroke-linejoin:round;stroke-width:0.72}
		.st3 {fill:#000000;fill-opacity:1;stroke:#000000;stroke-opacity:1;stroke-width:0.22222222222222}
		.st4 {fill:none}
		.st5 {marker-end:url(#mrkr12-17);marker-start:url(#mrkr12-15);stroke:#000000;stroke-linecap:round;stroke-linejoin:round;stroke-width:0.24}
		.st6 {stroke:#000000;stroke-linecap:round;stroke-linejoin:round;stroke-width:0.24}
		.st7 {fill:#000000;fill-opacity:1;stroke:#000000;stroke-opacity:1;stroke-width:0.08695652173913}
		.st8 {fill:#000000;font-family:Arial;font-size:0.833336em}
		.st9 {fill:none;stroke:#000000;stroke-linecap:round;stroke-linejoin:round;stroke-width:0.72}
		.st10 {fill:#000000;font-family:Arial;font-size:0.666664em}
		.st11 {font-size:1em}
		.st12 {stroke:#000000;stroke-dasharray:2.16,2.16;stroke-linecap:round;stroke-linejoin:round;stroke-width:0.72}
		.st13 {stroke:#000000;stroke-linecap:round;stroke-linejoin:round;stroke-width:0.72}
		.st14 {fill:none;fill-rule:evenodd;font-size:12px;overflow:visible;stroke-linecap:square;stroke-miterlimit:3}
	]]>
	</style>

	<defs id="Markers">
		<g id="lend13">
			<path d="M 3 1 L 0 0 L 3 -1 L 3 1 " style="stroke:none"/>
		</g>
		<marker id="mrkr13-8" class="st3" refX="-13.5" orient="auto" markerUnits="strokeWidth" overflow="visible">
			<use xlink:href="#lend13" transform="scale(-4.5,-4.5) "/>
		</marker>
		<g id="lend12">
			<path d="M 3 1 L 0 0 L 3 -1 " style="stroke-linecap:round;stroke-linejoin:round;fill:none"/>
		</g>
		<marker id="mrkr12-15" class="st7" orient="auto" markerUnits="strokeWidth" overflow="visible">
			<use xlink:href="#lend12" transform="scale(11.5) "/>
		</marker>
		<marker id="mrkr12-17" class="st7" orient="auto" markerUnits="strokeWidth" overflow="visible">
			<use xlink:href="#lend12" transform="scale(-11.5,-11.5) "/>
		</marker>
	</defs>
	<g>
		<title>VBackground-1</title>
		<g id="shape1000-1">
			<title>Solid.1000</title>
			<rect x="0" y="0" width="594.285" height="125.232" class="st1"/>
		</g>
	</g>
	<g>
		<title>Page-1</title>
		<g id="shape5-3" transform="translate(28.2458,-52.6672)">
			<title>Sheet.5</title>
			<path d="M0 125.23 L528.07 125.23" class="st2"/>
		</g>
		<g id="shape8-9" transform="translate(199.742,-39.9415)">
			<title>Duration (horizontal) .8</title>
			<desc>transmitWindowDelay</desc>
			<path d="M0 130.29 L0 121.29 L0 130.29 ZM70.16 130.29 L70.16 121.29 L70.16 130.29 Z" class="st4"/>
			<path d="M0 125.79 L70.16 125.79" class="st5"/>
			<path d="M0 130.29 L0 121.29" class="st6"/>
			<path d="" class="st6"/>
			<path d="M70.16 130.29 L70.16 121.29" class="st6"/>
			<path d="" class="st6"/>
			<text x="-12.81" y="140.17" class="st8">transmitWindowDelay</text>		</g>
		<g id="shape9-23" transform="translate(270.025,-52.684)">
			<title>Sheet.9</title>
			<desc>C</desc>
			<rect x="0" y="71.5374" width="17.607" height="53.6945" class="st9"/>
			<text x="5.19" y="101.38" class="st8">C</text>		</g>
		<g id="shape10-26" transform="translate(288.112,-39.9846)">
			<title>Duration (horizontal) .10</title>
			<desc>connectionInterval</desc>
			<path d="M0 130.29 L0 121.29 L0 130.29 ZM212.81 130.29 L212.81 121.29 L212.81 130.29 Z" class="st4"/>
			<path d="M0 125.79 L212.81 125.79" class="st5"/>
			<path d="M0 130.29 L0 121.29" class="st6"/>
			<path d="" class="st6"/>
			<path d="M212.81 130.29 L212.81 121.29" class="st6"/>
			<path d="" class="st6"/>
			<text x="66.61" y="139.85" class="st8">connectionInterval</text>		</g>
		<g id="shape11-38" transform="translate(502.45,-52.6241)">
			<title>Sheet.11</title>
			<desc>C</desc>
			<rect x="0" y="71.5374" width="17.607" height="53.6945" class="st9"/>
			<text x="5.19" y="101.38" class="st8">C</text>		</g>
		<g id="shape50-41" transform="translate(184.151,-53.1774)">
			<title>Sheet.50</title>
			<desc>CREQ</desc>
			<rect x="0" y="71.5374" width="14.1732" height="53.6945" class="st9"/>
			<text x="4.2" y="86.38" class="st10">C<tspan x="4.2" dy="1.2em" class="st11">R</tspan><tspan x="4.42" dy="1.2em"
						class="st11">E</tspan><tspan x="4" dy="1.2em" class="st11">Q</tspan></text>		</g>
		<g id="shape1000-47" transform="translate(167.143,-53.1774)">
			<title>Sheet.1000</title>
			<desc>ADV</desc>
			<path d="M1.23 125.23 L14.17 125.23 L14.17 72.11 L0 72.11 L0 72.62" class="st12"/>
			<text x="4" y="89.67" class="st8">A<tspan x="4" dy="1.2em" class="st11">D</tspan><tspan x="4" dy="1.2em" class="st11">V</tspan></text>		</g>
		<g id="shape1001-53" transform="translate(292.375,18.8702) rotate(90)">
			<title>Sheet.1001</title>
			<path d="M0 125.23 L53.18 125.23" class="st12"/>
		</g>
		<g id="shape1002-56" transform="translate(167.143,-53.1774)">
			<title>Sheet.1002</title>
			<path d="M0 125.23 L1.23 125.23" class="st13"/>
		</g>
		<g id="shape1004-59" transform="translate(36.7497,-52.6672)">
			<title>Sheet.1004</title>
			<desc>Initiator</desc>
			<path d="M130.39 71.54 L0 71.54 L0 125.23" class="st13"/>
			<text x="48.8" y="101.38" class="st8">Initiator</text>		</g>
		<g id="shape1005-63" transform="translate(36.7497,-52.6672)">
			<title>Sheet.1005</title>
			<path d="M0 125.23 L131.63 125.23 L131.63 124.72" class="st13"/>
		</g>
	</g>
</svg>
