<?xml version="1.0" encoding="UTF-8" standalone="no"?>
<!DOCTYPE svg PUBLIC "-//W3C//DTD SVG 1.1//EN" "http://www.w3.org/Graphics/SVG/1.1/DTD/svg11.dtd">
<!-- Generated by Microsoft Visio, SVG Export initiator_4_timing_disconnect_result_free_time.svg Page-1 -->
<svg xmlns="http://www.w3.org/2000/svg" xmlns:xlink="http://www.w3.org/1999/xlink" xmlns:ev="http://www.w3.org/2001/xml-events"
		width="8.26772in" height="1.89067in" viewBox="0 0 595.276 136.128" xml:space="preserve" color-interpolation-filters="sRGB"
		class="st11">
	<style type="text/css">
	<![CDATA[
		.st1 {fill:#ffffff;stroke:none;stroke-linecap:round;stroke-linejoin:round;stroke-width:0.72}
		.st2 {fill:none;stroke:#000000;stroke-linecap:round;stroke-linejoin:round;stroke-width:0.72}
		.st3 {fill:#000000;font-family:Arial;font-size:0.666664em}
		.st4 {fill:none}
		.st5 {marker-end:url(#mrkr12-14);marker-start:url(#mrkr12-12);stroke:#000000;stroke-linecap:round;stroke-linejoin:round;stroke-width:0.24}
		.st6 {stroke:#000000;stroke-linecap:round;stroke-linejoin:round;stroke-width:0.24}
		.st7 {fill:#000000;fill-opacity:1;stroke:#000000;stroke-opacity:1;stroke-width:0.08695652173913}
		.st8 {baseline-shift:-32.4939%;font-size:0.649878em}
		.st9 {marker-end:url(#mrkr13-28);stroke:#000000;stroke-linecap:round;stroke-linejoin:round;stroke-width:0.72}
		.st10 {fill:#000000;fill-opacity:1;stroke:#000000;stroke-opacity:1;stroke-width:0.22222222222222}
		.st11 {fill:none;fill-rule:evenodd;font-size:12px;overflow:visible;stroke-linecap:square;stroke-miterlimit:3}
	]]>
	</style>

	<defs id="Markers">
		<g id="lend12">
			<path d="M 3 1 L 0 0 L 3 -1 " style="stroke-linecap:round;stroke-linejoin:round;fill:none"/>
		</g>
		<marker id="mrkr12-12" class="st7" orient="auto" markerUnits="strokeWidth" overflow="visible">
			<use xlink:href="#lend12" transform="scale(11.5) "/>
		</marker>
		<marker id="mrkr12-14" class="st7" orient="auto" markerUnits="strokeWidth" overflow="visible">
			<use xlink:href="#lend12" transform="scale(-11.5,-11.5) "/>
		</marker>
		<g id="lend13">
			<path d="M 3 1 L 0 0 L 3 -1 L 3 1 " style="stroke:none"/>
		</g>
		<marker id="mrkr13-28" class="st10" refX="-13.5" orient="auto" markerUnits="strokeWidth" overflow="visible">
			<use xlink:href="#lend13" transform="scale(-4.5,-4.5) "/>
		</marker>
	</defs>
	<g>
		<title>VBackground-1</title>
		<g id="shape1000-1">
			<title>Solid.1000</title>
			<rect x="0" y="0" width="595.276" height="136.128" class="st1"/>
		</g>
	</g>
	<g>
		<title>Page-1</title>
		<g id="shape18-3" transform="translate(45.8031,-67.7009)">
			<title>Sheet.18</title>
			<desc>C1</desc>
			<rect x="0" y="108.047" width="18.85" height="28.0808" class="st2"/>
			<text x="4.31" y="124.49" class="st3">C1</text>		</g>
		<g id="shape19-6" transform="translate(13.7153,-58.9559)">
			<title>Duration (horizontal) .19</title>
			<desc>tevent-C0</desc>
			<path d="M0 141.19 L0 132.19 L0 141.19 ZM32.09 141.19 L32.09 132.19 L32.09 141.19 Z" class="st4"/>
			<path d="M0 136.69 L32.09 136.69" class="st5"/>
			<path d="M0 141.19 L0 132.19" class="st6"/>
			<path d="" class="st6"/>
			<path d="M32.09 141.19 L32.09 132.19" class="st6"/>
			<path d="" class="st6"/>
			<text x="4.02" y="150.15" class="st3">t<tspan dy="0.287em" class="st8">event</tspan><tspan class="st8">-</tspan><tspan
						class="st8">C0</tspan></text>		</g>
		<g id="shape39-23" transform="translate(10.6299,-67.6153)">
			<title>Sheet.39</title>
			<path d="M0 136.13 L564.3 136.13" class="st9"/>
		</g>
		<g id="shape52-29" transform="translate(114.122,-67.6922)">
			<title>Sheet.52</title>
			<desc>C3</desc>
			<rect x="0" y="108.047" width="20.3313" height="28.0808" class="st2"/>
			<text x="5.05" y="124.49" class="st3">C3</text>		</g>
		<g id="shape56-32" transform="translate(14.4955,-67.4942)">
			<title>Sheet.56</title>
			<desc>C0</desc>
			<rect x="0" y="108.047" width="19.5832" height="28.0808" class="st2"/>
			<text x="4.68" y="124.49" class="st3">C0</text>		</g>
		<g id="shape57-35" transform="translate(78.3403,-67.6922)">
			<title>Sheet.57</title>
			<desc>C2</desc>
			<rect x="0" y="108.047" width="24.0659" height="28.0808" class="st2"/>
			<text x="6.92" y="124.49" class="st3">C2</text>		</g>
		<g id="shape58-38" transform="translate(45.8031,-25.3099)">
			<title>Duration (horizontal) .58</title>
			<desc>tevent-C1</desc>
			<path d="M0 141.19 L0 132.19 L0 141.19 ZM32.85 141.19 L32.85 132.19 L32.85 141.19 Z" class="st4"/>
			<path d="M0 136.69 L32.85 136.69" class="st5"/>
			<path d="M0 141.19 L0 132.19" class="st6"/>
			<path d="" class="st6"/>
			<path d="M32.85 141.19 L32.85 132.19" class="st6"/>
			<path d="" class="st6"/>
			<text x="4.39" y="150.15" class="st3">t<tspan dy="0.287em" class="st8">event</tspan><tspan class="st8">-</tspan><tspan
						class="st8">C1</tspan></text>		</g>
		<g id="shape59-53" transform="translate(78.9574,-57.1478)">
			<title>Duration (horizontal) .59</title>
			<desc>tevent-C2</desc>
			<path d="M0 141.19 L0 132.19 L0 141.19 ZM35.17 141.19 L35.17 132.19 L35.17 141.19 Z" class="st4"/>
			<path d="M0 136.69 L35.17 136.69" class="st5"/>
			<path d="M0 141.19 L0 132.19" class="st6"/>
			<path d="" class="st6"/>
			<path d="M35.17 141.19 L35.17 132.19" class="st6"/>
			<path d="" class="st6"/>
			<text x="5.53" y="150.15" class="st3">t<tspan dy="0.287em" class="st8">event</tspan><tspan class="st8">-</tspan><tspan
						class="st8">C2</tspan></text>		</g>
		<g id="shape60-68" transform="translate(113.815,-26.5034)">
			<title>Duration (horizontal) .60</title>
			<desc>tevent-C3</desc>
			<path d="M0 141.19 L0 132.19 L0 141.19 ZM35.16 141.19 L35.16 132.19 L35.16 141.19 Z" class="st4"/>
			<path d="M0 136.69 L35.16 136.69" class="st5"/>
			<path d="M0 141.19 L0 132.19" class="st6"/>
			<path d="" class="st6"/>
			<path d="M35.16 141.19 L35.16 132.19" class="st6"/>
			<path d="" class="st6"/>
			<text x="5.52" y="150.15" class="st3">t<tspan dy="0.287em" class="st8">event</tspan><tspan class="st8">-</tspan><tspan
						class="st8">C3</tspan></text>		</g>
		<g id="shape121-83" transform="translate(14.9045,-113.666)">
			<title>Duration (horizontal) .121</title>
			<desc>Connection Interval</desc>
			<path d="M0 141.19 L0 132.19 L0 141.19 ZM272.1 141.19 L272.1 132.19 L272.1 141.19 Z" class="st4"/>
			<path d="M0 136.69 L272.1 136.69" class="st5"/>
			<path d="M0 141.19 L0 132.19" class="st6"/>
			<path d="" class="st6"/>
			<path d="M272.1 141.19 L272.1 132.19" class="st6"/>
			<path d="" class="st6"/>
			<text x="105.71" y="131.42" class="st3">Connection Interval</text>		</g>
		<g id="shape123-95" transform="translate(286.555,-59.0074)">
			<title>Duration (horizontal) .123</title>
			<desc>tevent-C0</desc>
			<path d="M0 141.19 L0 132.19 L0 141.19 ZM32.09 141.19 L32.09 132.19 L32.09 141.19 Z" class="st4"/>
			<path d="M0 136.69 L32.09 136.69" class="st5"/>
			<path d="M0 141.19 L0 132.19" class="st6"/>
			<path d="" class="st6"/>
			<path d="M32.09 141.19 L32.09 132.19" class="st6"/>
			<path d="" class="st6"/>
			<text x="4.02" y="150.15" class="st3">t<tspan dy="0.287em" class="st8">event</tspan><tspan class="st8">-</tspan><tspan
						class="st8">C0</tspan></text>		</g>
		<g id="shape124-110" transform="translate(386.961,-67.7438)">
			<title>Sheet.124</title>
			<desc>C3</desc>
			<rect x="0" y="108.047" width="20.3313" height="28.0808" class="st2"/>
			<text x="5.05" y="124.49" class="st3">C3</text>		</g>
		<g id="shape125-113" transform="translate(287.335,-67.5458)">
			<title>Sheet.125</title>
			<desc>C0</desc>
			<rect x="0" y="108.047" width="19.5832" height="28.0808" class="st2"/>
			<text x="4.68" y="124.49" class="st3">C0</text>		</g>
		<g id="shape126-116" transform="translate(351.18,-67.7438)">
			<title>Sheet.126</title>
			<desc>C2</desc>
			<rect x="0" y="108.047" width="24.0659" height="28.0808" class="st2"/>
			<text x="6.92" y="124.49" class="st3">C2</text>		</g>
		<g id="shape128-119" transform="translate(351.797,-57.1994)">
			<title>Duration (horizontal) .128</title>
			<desc>tevent-C2</desc>
			<path d="M0 141.19 L0 132.19 L0 141.19 ZM35.17 141.19 L35.17 132.19 L35.17 141.19 Z" class="st4"/>
			<path d="M0 136.69 L35.17 136.69" class="st5"/>
			<path d="M0 141.19 L0 132.19" class="st6"/>
			<path d="" class="st6"/>
			<path d="M35.17 141.19 L35.17 132.19" class="st6"/>
			<path d="" class="st6"/>
			<text x="5.53" y="150.15" class="st3">t<tspan dy="0.287em" class="st8">event</tspan><tspan class="st8">-</tspan><tspan
						class="st8">C2</tspan></text>		</g>
		<g id="shape129-134" transform="translate(386.655,-26.5549)">
			<title>Duration (horizontal) .129</title>
			<desc>tevent-C3</desc>
			<path d="M0 141.19 L0 132.19 L0 141.19 ZM35.16 141.19 L35.16 132.19 L35.16 141.19 Z" class="st4"/>
			<path d="M0 136.69 L35.16 136.69" class="st5"/>
			<path d="M0 141.19 L0 132.19" class="st6"/>
			<path d="" class="st6"/>
			<path d="M35.16 141.19 L35.16 132.19" class="st6"/>
			<path d="" class="st6"/>
			<text x="5.52" y="150.15" class="st3">t<tspan dy="0.287em" class="st8">event</tspan><tspan class="st8">-</tspan><tspan
						class="st8">C3</tspan></text>		</g>
	</g>
</svg>
