<?xml version="1.0" encoding="UTF-8" standalone="no"?>
<!DOCTYPE svg PUBLIC "-//W3C//DTD SVG 1.1//EN" "http://www.w3.org/Graphics/SVG/1.1/DTD/svg11.dtd">
<!-- Generated by Microsoft Visio, SVG Export initiator_2_first_connection_two_phys.svg Page-1 -->
<svg xmlns="http://www.w3.org/2000/svg" xmlns:xlink="http://www.w3.org/1999/xlink" xmlns:ev="http://www.w3.org/2001/xml-events"
		width="8.25396in" height="1.91445in" viewBox="0 0 594.285 137.84" xml:space="preserve" color-interpolation-filters="sRGB"
		class="st15">
	<style type="text/css">
	<![CDATA[
		.st1 {fill:#ffffff;stroke:none;stroke-linecap:round;stroke-linejoin:round;stroke-width:0.72}
		.st2 {marker-end:url(#mrkr13-8);stroke:#000000;stroke-linecap:round;stroke-linejoin:round;stroke-width:0.72}
		.st3 {fill:#000000;fill-opacity:1;stroke:#000000;stroke-opacity:1;stroke-width:0.22222222222222}
		.st4 {fill:none}
		.st5 {marker-end:url(#mrkr12-17);marker-start:url(#mrkr12-15);stroke:#000000;stroke-linecap:round;stroke-linejoin:round;stroke-width:0.24}
		.st6 {stroke:#000000;stroke-linecap:round;stroke-linejoin:round;stroke-width:0.24}
		.st7 {fill:#000000;fill-opacity:1;stroke:#000000;stroke-opacity:1;stroke-width:0.08695652173913}
		.st8 {fill:#000000;font-family:Arial;font-size:0.833336em}
		.st9 {fill:none;stroke:#000000;stroke-linecap:round;stroke-linejoin:round;stroke-width:0.72}
		.st10 {fill:#000000;font-family:Arial;font-size:0.666664em}
		.st11 {font-size:1em}
		.st12 {stroke:#000000;stroke-dasharray:5.04,3.6;stroke-linecap:round;stroke-linejoin:round;stroke-width:0.72}
		.st13 {stroke:#000000;stroke-linecap:round;stroke-linejoin:round;stroke-width:0.72}
		.st14 {fill:none;stroke:none;stroke-linecap:round;stroke-linejoin:round;stroke-width:0.72}
		.st15 {fill:none;fill-rule:evenodd;font-size:12px;overflow:visible;stroke-linecap:square;stroke-miterlimit:3}
	]]>
	</style>

	<defs id="Markers">
		<g id="lend13">
			<path d="M 3 1 L 0 0 L 3 -1 L 3 1 " style="stroke:none"/>
		</g>
		<marker id="mrkr13-8" class="st3" refX="-13.5" orient="auto" markerUnits="strokeWidth" overflow="visible">
			<use xlink:href="#lend13" transform="scale(-4.5,-4.5) "/>
		</marker>
		<g id="lend12">
			<path d="M 3 1 L 0 0 L 3 -1 " style="stroke-linecap:round;stroke-linejoin:round;fill:none"/>
		</g>
		<marker id="mrkr12-15" class="st7" orient="auto" markerUnits="strokeWidth" overflow="visible">
			<use xlink:href="#lend12" transform="scale(11.5) "/>
		</marker>
		<marker id="mrkr12-17" class="st7" orient="auto" markerUnits="strokeWidth" overflow="visible">
			<use xlink:href="#lend12" transform="scale(-11.5,-11.5) "/>
		</marker>
	</defs>
	<g>
		<title>VBackground-1</title>
		<g id="shape1000-1">
			<title>Solid.1000</title>
			<rect x="0" y="0" width="594.285" height="137.84" class="st1"/>
		</g>
	</g>
	<g>
		<title>Page-1</title>
		<g id="shape5-3" transform="translate(10.0584,-42.8771)">
			<title>Sheet.5</title>
			<path d="M0 137.84 L556.88 137.84" class="st2"/>
		</g>
		<g id="shape8-9" transform="translate(238.931,-25.2722)">
			<title>Duration (horizontal) .8</title>
			<desc>transmitWindowDelay</desc>
			<path d="M0 142.9 L0 133.9 L0 142.9 ZM73.92 142.9 L73.92 133.9 L73.92 142.9 Z" class="st4"/>
			<path d="M0 138.4 L73.92 138.4" class="st5"/>
			<path d="M0 142.9 L0 133.9" class="st6"/>
			<path d="" class="st6"/>
			<path d="M73.92 142.9 L73.92 133.9" class="st6"/>
			<path d="" class="st6"/>
			<text x="-11.76" y="153.21" class="st8">transmitWindowDelay</text>		</g>
		<g id="shape9-23" transform="translate(312.847,-42.902)">
			<title>Sheet.9</title>
			<desc>C</desc>
			<rect x="0" y="64.0021" width="18.5502" height="73.8382" class="st9"/>
			<text x="5.66" y="103.92" class="st8">C</text>		</g>
		<g id="shape10-26" transform="translate(312.847,-25.3314)">
			<title>Duration (horizontal) .10</title>
			<desc>connectionInterval</desc>
			<path d="M0 142.9 L0 133.9 L0 142.9 ZM195.21 142.9 L195.21 133.9 L195.21 142.9 Z" class="st4"/>
			<path d="M0 138.4 L195.21 138.4" class="st5"/>
			<path d="M0 142.9 L0 133.9" class="st6"/>
			<path d="" class="st6"/>
			<path d="M195.21 142.9 L195.21 133.9" class="st6"/>
			<path d="" class="st6"/>
			<text x="57.74" y="152.46" class="st8">connectionInterval</text>		</g>
		<g id="shape11-38" transform="translate(509.667,-42.8179)">
			<title>Sheet.11</title>
			<desc>C</desc>
			<rect x="0" y="64.0021" width="18.5502" height="73.8382" class="st9"/>
			<text x="5.66" y="103.92" class="st8">C</text>		</g>
		<g id="shape50-41" transform="translate(223.252,-42.902)">
			<title>Sheet.50</title>
			<desc>CREQ</desc>
			<rect x="0" y="64.0021" width="14.9325" height="73.8382" class="st9"/>
			<text x="4.58" y="88.92" class="st10">C<tspan x="4.58" dy="1.2em" class="st11">R</tspan><tspan x="4.8" dy="1.2em"
						class="st11">E</tspan><tspan x="4.35" dy="1.2em" class="st11">Q</tspan></text>		</g>
		<g id="shape51-47" transform="translate(14.1963,-42.902)">
			<title>Sheet.51</title>
			<desc>Initiator_1M</desc>
			<rect x="0" y="64.0021" width="97.0615" height="73.8382" class="st9"/>
			<text x="22.41" y="103.92" class="st8">Initiator_1M</text>		</g>
		<g id="shape1012-50" transform="translate(204.757,-42.902)">
			<title>Sheet.1012</title>
			<path d="M0 137.84 L12.52 137.84 L12.52 64 L0 64" class="st12"/>
		</g>
		<g id="shape1013-53" transform="translate(204.757,158.94) rotate(180)">
			<title>Sheet.1013</title>
			<path d="M0 137.84 L2.41 137.84" class="st13"/>
		</g>
		<g id="shape1014-56" transform="translate(340.186,21.1001) rotate(90)">
			<title>Sheet.1014</title>
			<path d="M0 137.84 L73.84 137.84" class="st12"/>
		</g>
		<g id="shape1015-59" transform="translate(202.346,-42.902)">
			<title>Sheet.1015</title>
			<path d="M0 137.84 L2.41 137.84" class="st13"/>
		</g>
		<g id="shape1016-62" transform="translate(202.346,-42.902)">
			<title>Sheet.1016</title>
			<path d="M0 137.84 L2.41 137.84" class="st13"/>
		</g>
		<g id="shape1018-65" transform="translate(204.757,158.94) rotate(180)">
			<title>Sheet.1018</title>
			<path d="M0 137.84 L2.41 137.84" class="st13"/>
		</g>
		<g id="shape1019-68" transform="translate(115.737,-42.902)">
			<title>Sheet.1019</title>
			<path d="M86.61 64 L0 64 L0 137.84" class="st13"/>
		</g>
		<g id="shape1020-71" transform="translate(115.737,-42.902)">
			<title>Sheet.1020</title>
			<path d="M0 137.84 L86.61 137.84" class="st13"/>
		</g>
		<g id="shape1021-74" transform="translate(124.191,-68.3938)">
			<title>Sheet.1021</title>
			<desc>Initiator_coded</desc>
			<rect x="0" y="117.84" width="74.0472" height="20" class="st14"/>
			<text x="4.22" y="130.84" class="st8">Initiator_coded</text>		</g>
		<g id="shape1022-77" transform="translate(202.353,-62.1913)">
			<title>Sheet.1022</title>
			<desc>ADV</desc>
			<rect x="0" y="104.551" width="13.8207" height="33.2891" class="st14"/>
			<text x="4.24" y="114" class="st10">A<tspan x="4.02" dy="1.2em" class="st11">D</tspan><tspan x="4.24" dy="1.2em"
						class="st11">V</tspan></text>		</g>
	</g>
</svg>
