<?xml version="1.0" encoding="UTF-8" standalone="no"?>
<!DOCTYPE svg PUBLIC "-//W3C//DTD SVG 1.1//EN" "http://www.w3.org/Graphics/SVG/1.1/DTD/svg11.dtd">
<!-- Generated by Microsoft Visio, SVG Export initiator_5_timing_one_or_more_connections.svg Page-1 -->
<svg xmlns="http://www.w3.org/2000/svg" xmlns:xlink="http://www.w3.org/1999/xlink" xmlns:ev="http://www.w3.org/2001/xml-events"
		width="8.26772in" height="1.89178in" viewBox="0 0 595.276 136.208" xml:space="preserve" color-interpolation-filters="sRGB"
		class="st16">
	<style type="text/css">
	<![CDATA[
		.st1 {fill:#ffffff;stroke:none;stroke-linecap:round;stroke-linejoin:round;stroke-width:0.72}
		.st2 {fill:none;stroke:#000000;stroke-linecap:round;stroke-linejoin:round;stroke-width:0.72}
		.st3 {fill:#000000;font-family:Arial;font-size:0.666664em}
		.st4 {font-size:1em}
		.st5 {fill:none}
		.st6 {marker-end:url(#mrkr12-15);marker-start:url(#mrkr12-13);stroke:#000000;stroke-linecap:round;stroke-linejoin:round;stroke-width:0.24}
		.st7 {stroke:#000000;stroke-linecap:round;stroke-linejoin:round;stroke-width:0.24}
		.st8 {fill:#000000;fill-opacity:1;stroke:#000000;stroke-opacity:1;stroke-width:0.08695652173913}
		.st9 {baseline-shift:-32.4939%;font-size:0.649878em}
		.st10 {marker-end:url(#mrkr13-29);stroke:#000000;stroke-linecap:round;stroke-linejoin:round;stroke-width:0.72}
		.st11 {fill:#000000;fill-opacity:1;stroke:#000000;stroke-opacity:1;stroke-width:0.22222222222222}
		.st12 {fill:#000000;font-family:Arial;font-size:0.333344em}
		.st13 {fill:none;stroke:#000000;stroke-dasharray:0.72,1.44;stroke-linecap:round;stroke-linejoin:round;stroke-width:0.72}
		.st14 {stroke:#000000;stroke-linecap:round;stroke-linejoin:round;stroke-width:0.72}
		.st15 {stroke:#000000;stroke-dasharray:0.72,1.44;stroke-linecap:round;stroke-linejoin:round;stroke-width:0.72}
		.st16 {fill:none;fill-rule:evenodd;font-size:12px;overflow:visible;stroke-linecap:square;stroke-miterlimit:3}
	]]>
	</style>

	<defs id="Markers">
		<g id="lend12">
			<path d="M 3 1 L 0 0 L 3 -1 " style="stroke-linecap:round;stroke-linejoin:round;fill:none"/>
		</g>
		<marker id="mrkr12-13" class="st8" orient="auto" markerUnits="strokeWidth" overflow="visible">
			<use xlink:href="#lend12" transform="scale(11.5) "/>
		</marker>
		<marker id="mrkr12-15" class="st8" orient="auto" markerUnits="strokeWidth" overflow="visible">
			<use xlink:href="#lend12" transform="scale(-11.5,-11.5) "/>
		</marker>
		<g id="lend13">
			<path d="M 3 1 L 0 0 L 3 -1 L 3 1 " style="stroke:none"/>
		</g>
		<marker id="mrkr13-29" class="st11" refX="-13.5" orient="auto" markerUnits="strokeWidth" overflow="visible">
			<use xlink:href="#lend13" transform="scale(-4.5,-4.5) "/>
		</marker>
	</defs>
	<g>
		<title>VBackground-1</title>
		<g id="shape1000-1">
			<title>Solid.1000</title>
			<rect x="0" y="0" width="595.276" height="136.208" class="st1"/>
		</g>
	</g>
	<g>
		<title>Page-1</title>
		<g id="shape18-3" transform="translate(33.801,-71.7131)">
			<title>Sheet.18</title>
			<desc>C1</desc>
			<rect x="0" y="113.541" width="12.4179" height="22.6675" class="st2"/>
			<text x="4" y="122.47" class="st3">C<tspan x="4" dy="1.2em" class="st4">1</tspan></text>		</g>
		<g id="shape19-7" transform="translate(12.6625,-64.7078)">
			<title>Duration (horizontal) .19</title>
			<desc>tevent-C0</desc>
			<path d="M0 141.27 L0 132.27 L0 141.27 ZM21.14 141.27 L21.14 132.27 L21.14 141.27 Z" class="st5"/>
			<path d="M0 136.77 L21.14 136.77" class="st6"/>
			<path d="M0 141.27 L0 132.27" class="st7"/>
			<path d="" class="st7"/>
			<path d="M21.14 141.27 L21.14 132.27" class="st7"/>
			<path d="" class="st7"/>
			<text x="-1.33" y="150.23" class="st3">t<tspan dy="0.287em" class="st9">event</tspan><tspan class="st9">-</tspan><tspan
						class="st9">C0</tspan></text>		</g>
		<g id="shape39-24" transform="translate(10.6299,-71.6439)">
			<title>Sheet.39</title>
			<path d="M0 136.21 L564.3 136.21" class="st10"/>
		</g>
		<g id="shape23-30" transform="translate(347.485,-71.6808)">
			<title>Sheet.23</title>
			<desc>C R E Q</desc>
			<rect x="0" y="113.541" width="7.55447" height="22.6675" class="st2"/>
			<text x="2.33" y="118.87" class="st12">C <tspan x="2.33" dy="1.2em" class="st4">R </tspan><tspan x="2.44" dy="1.2em"
						class="st4">E </tspan><tspan x="2.22" dy="1.2em" class="st4">Q</tspan></text>		</g>
		<g id="shape24-36" transform="translate(355.039,-117.038)">
			<title>Duration (horizontal) .24</title>
			<desc>transmitWindowDelay + transmitWindowOffset</desc>
			<path d="M0 141.27 L0 132.27 L0 141.27 ZM143.5 141.27 L143.5 132.27 L143.5 141.27 Z" class="st5"/>
			<path d="M0 136.77 L143.5 136.77" class="st6"/>
			<path d="M0 141.27 L0 132.27" class="st7"/>
			<path d="" class="st7"/>
			<path d="M143.5 141.27 L143.5 132.27" class="st7"/>
			<path d="" class="st7"/>
			<text x="-8.43" y="131.5" class="st3">transmitWindowDelay + transmitWindowOffset</text>		</g>
		<g id="shape52-48" transform="translate(169.441,-71.706)">
			<title>Sheet.52</title>
			<desc>C3</desc>
			<rect x="0" y="113.541" width="13.3937" height="22.6675" class="st2"/>
			<text x="4" y="122.47" class="st3">C<tspan x="4.47" dy="1.2em" class="st4">3</tspan></text>		</g>
		<g id="shape56-52" transform="translate(13.1765,-71.5462)">
			<title>Sheet.56</title>
			<desc>C0</desc>
			<rect x="0" y="113.541" width="12.9009" height="22.6675" class="st2"/>
			<text x="4" y="122.47" class="st3">C<tspan x="4.23" dy="1.2em" class="st4">0</tspan></text>		</g>
		<g id="shape57-56" transform="translate(116.37,-71.706)">
			<title>Sheet.57</title>
			<desc>C2</desc>
			<rect x="0" y="113.541" width="15.8539" height="22.6675" class="st2"/>
			<text x="5.04" y="122.47" class="st3">C<tspan x="5.7" dy="1.2em" class="st4">2</tspan></text>		</g>
		<g id="shape58-60" transform="translate(33.801,-37.5479)">
			<title>Duration (horizontal) .58</title>
			<desc>tevent-C1</desc>
			<path d="M0 141.27 L0 132.27 L0 141.27 ZM21.64 141.27 L21.64 132.27 L21.64 141.27 Z" class="st5"/>
			<path d="M0 136.77 L21.64 136.77" class="st6"/>
			<path d="M0 141.27 L0 132.27" class="st7"/>
			<path d="" class="st7"/>
			<path d="M21.64 141.27 L21.64 132.27" class="st7"/>
			<path d="" class="st7"/>
			<text x="-1.08" y="150.23" class="st3">t<tspan dy="0.287em" class="st9">event</tspan><tspan class="st9">-</tspan><tspan
						class="st9">C1</tspan></text>		</g>
		<g id="shape59-75" transform="translate(116.776,-63.2483)">
			<title>Duration (horizontal) .59</title>
			<desc>tevent-C2</desc>
			<path d="M0 141.27 L0 132.27 L0 141.27 ZM23.17 141.27 L23.17 132.27 L23.17 141.27 Z" class="st5"/>
			<path d="M0 136.77 L23.17 136.77" class="st6"/>
			<path d="M0 141.27 L0 132.27" class="st7"/>
			<path d="" class="st7"/>
			<path d="M23.17 141.27 L23.17 132.27" class="st7"/>
			<path d="" class="st7"/>
			<text x="-0.34" y="150.23" class="st3">t<tspan dy="0.287em" class="st9">event</tspan><tspan class="st9">-</tspan><tspan
						class="st9">C2</tspan></text>		</g>
		<g id="shape60-90" transform="translate(169.239,-62.79)">
			<title>Duration (horizontal) .60</title>
			<desc>tevent-C3</desc>
			<path d="M0 141.27 L0 132.27 L0 141.27 ZM23.16 141.27 L23.16 132.27 L23.16 141.27 Z" class="st5"/>
			<path d="M0 136.77 L23.16 136.77" class="st6"/>
			<path d="M0 141.27 L0 132.27" class="st7"/>
			<path d="" class="st7"/>
			<path d="M23.16 141.27 L23.16 132.27" class="st7"/>
			<path d="" class="st7"/>
			<text x="-0.34" y="150.23" class="st3">t<tspan dy="0.287em" class="st9">event</tspan><tspan class="st9">-</tspan><tspan
						class="st9">C3</tspan></text>		</g>
		<g id="shape121-105" transform="translate(13.1475,-117.038)">
			<title>Duration (horizontal) .121</title>
			<desc>Connection Interval</desc>
			<path d="M0 141.27 L0 132.27 L0 141.27 ZM179.25 141.27 L179.25 132.27 L179.25 141.27 Z" class="st5"/>
			<path d="M0 136.77 L179.25 136.77" class="st6"/>
			<path d="M0 141.27 L0 132.27" class="st7"/>
			<path d="" class="st7"/>
			<path d="M179.25 141.27 L179.25 132.27" class="st7"/>
			<path d="" class="st7"/>
			<text x="57.88" y="131.5" class="st3">Connection Interval</text>		</g>
		<g id="shape133-117" transform="translate(213.026,-10.9679)">
			<title>Sheet.133</title>
			<desc>C1</desc>
			<path d="M0 136.21 L12.29 136.21 L12.29 113.54 L0 113.54 L0 136.21 Z" class="st13"/>
			<text x="4" y="122.47" class="st3">C<tspan x="4" dy="1.2em" class="st4">1</tspan></text>		</g>
		<g id="shape134-121" transform="translate(348.666,-10.9608)">
			<title>Sheet.134</title>
			<desc>C3</desc>
			<path d="M0 136.21 L13.39 136.21 L13.39 113.54 L0 113.54 L0 136.21 Z" class="st13"/>
			<text x="4" y="122.47" class="st3">C<tspan x="4.47" dy="1.2em" class="st4">3</tspan></text>		</g>
		<g id="shape135-125" transform="translate(192.402,-10.801)">
			<title>Sheet.135</title>
			<desc>C0</desc>
			<path d="M0 136.21 L12.9 136.21 L12.9 113.54 L0 113.54 L0 136.21 Z" class="st13"/>
			<text x="4" y="122.47" class="st3">C<tspan x="4.23" dy="1.2em" class="st4">0</tspan></text>		</g>
		<g id="shape136-129" transform="translate(295.595,-10.9608)">
			<title>Sheet.136</title>
			<desc>C2</desc>
			<path d="M0 136.21 L15.85 136.21 L15.85 113.54 L0 113.54 L0 136.21 Z" class="st13"/>
			<text x="5.04" y="122.47" class="st3">C<tspan x="5.7" dy="1.2em" class="st4">2</tspan></text>		</g>
		<g id="shape138-133" transform="translate(392.794,-71.7547)">
			<title>Sheet.138</title>
			<desc>C1</desc>
			<rect x="0" y="113.541" width="13.1413" height="22.6675" class="st2"/>
			<text x="4" y="122.47" class="st3">C<tspan x="4.35" dy="1.2em" class="st4">1</tspan></text>		</g>
		<g id="shape139-137" transform="translate(371.656,-64.7494)">
			<title>Duration (horizontal) .139</title>
			<desc>tevent-C0</desc>
			<path d="M0 141.27 L0 132.27 L0 141.27 ZM21.14 141.27 L21.14 132.27 L21.14 141.27 Z" class="st5"/>
			<path d="M0 136.77 L21.14 136.77" class="st6"/>
			<path d="M0 141.27 L0 132.27" class="st7"/>
			<path d="" class="st7"/>
			<path d="M21.14 141.27 L21.14 132.27" class="st7"/>
			<path d="" class="st7"/>
			<text x="-1.33" y="150.23" class="st3">t<tspan dy="0.287em" class="st9">event</tspan><tspan class="st9">-</tspan><tspan
						class="st9">C0</tspan></text>		</g>
		<g id="shape140-152" transform="translate(528.434,-71.7476)">
			<title>Sheet.140</title>
			<desc>C3</desc>
			<rect x="0" y="113.541" width="13.3937" height="22.6675" class="st2"/>
			<text x="4" y="122.47" class="st3">C<tspan x="4.47" dy="1.2em" class="st4">3</tspan></text>		</g>
		<g id="shape141-156" transform="translate(372.17,-71.5878)">
			<title>Sheet.141</title>
			<desc>C0</desc>
			<rect x="0" y="113.541" width="12.9009" height="22.6675" class="st2"/>
			<text x="4" y="122.47" class="st3">C<tspan x="4.23" dy="1.2em" class="st4">0</tspan></text>		</g>
		<g id="shape142-160" transform="translate(475.363,-71.7476)">
			<title>Sheet.142</title>
			<desc>C2</desc>
			<rect x="0" y="113.541" width="15.8539" height="22.6675" class="st2"/>
			<text x="5.04" y="122.47" class="st3">C<tspan x="5.7" dy="1.2em" class="st4">2</tspan></text>		</g>
		<g id="shape144-164" transform="translate(475.769,-63.2899)">
			<title>Duration (horizontal) .144</title>
			<desc>tevent-C2</desc>
			<path d="M0 141.27 L0 132.27 L0 141.27 ZM23.17 141.27 L23.17 132.27 L23.17 141.27 Z" class="st5"/>
			<path d="M0 136.77 L23.17 136.77" class="st6"/>
			<path d="M0 141.27 L0 132.27" class="st7"/>
			<path d="" class="st7"/>
			<path d="M23.17 141.27 L23.17 132.27" class="st7"/>
			<path d="" class="st7"/>
			<text x="-0.34" y="150.23" class="st3">t<tspan dy="0.287em" class="st9">event</tspan><tspan class="st9">-</tspan><tspan
						class="st9">C2</tspan></text>		</g>
		<g id="shape145-179" transform="translate(528.232,-62.8316)">
			<title>Duration (horizontal) .145</title>
			<desc>tevent-C3</desc>
			<path d="M0 141.27 L0 132.27 L0 141.27 ZM23.16 141.27 L23.16 132.27 L23.16 141.27 Z" class="st5"/>
			<path d="M0 136.77 L23.16 136.77" class="st6"/>
			<path d="M0 141.27 L0 132.27" class="st7"/>
			<path d="" class="st7"/>
			<path d="M23.16 141.27 L23.16 132.27" class="st7"/>
			<path d="" class="st7"/>
			<text x="-0.34" y="150.23" class="st3">t<tspan dy="0.287em" class="st9">event</tspan><tspan class="st9">-</tspan><tspan
						class="st9">C3</tspan></text>		</g>
		<g id="shape146-194" transform="translate(499.116,-71.6293)">
			<title>Sheet.146</title>
			<desc>Cn</desc>
			<rect x="0" y="113.541" width="15.8539" height="22.6675" class="st2"/>
			<text x="5.04" y="122.47" class="st3">C<tspan x="5.7" dy="1.2em" class="st4">n</tspan></text>		</g>
		<g id="shape147-198" transform="translate(499.523,-38.508)">
			<title>Duration (horizontal) .147</title>
			<desc>tevent-Cn</desc>
			<path d="M0 141.27 L0 132.27 L0 141.27 ZM23.17 141.27 L23.17 132.27 L23.17 141.27 Z" class="st5"/>
			<path d="M0 136.77 L23.17 136.77" class="st6"/>
			<path d="M0 141.27 L0 132.27" class="st7"/>
			<path d="" class="st7"/>
			<path d="M23.17 141.27 L23.17 132.27" class="st7"/>
			<path d="" class="st7"/>
			<text x="-0.34" y="150.23" class="st3">t<tspan dy="0.287em" class="st9">event</tspan><tspan class="st9">-</tspan><tspan
						class="st9">Cn</tspan></text>		</g>
		<g id="shape148-213" transform="translate(393.307,-38.508)">
			<title>Duration (horizontal) .148</title>
			<desc>tevent-C1</desc>
			<path d="M0 141.27 L0 132.27 L0 141.27 ZM21.64 141.27 L21.64 132.27 L21.64 141.27 Z" class="st5"/>
			<path d="M0 136.77 L21.64 136.77" class="st6"/>
			<path d="M0 141.27 L0 132.27" class="st7"/>
			<path d="" class="st7"/>
			<path d="M21.64 141.27 L21.64 132.27" class="st7"/>
			<path d="" class="st7"/>
			<text x="-1.08" y="150.23" class="st3">t<tspan dy="0.287em" class="st9">event</tspan><tspan class="st9">-</tspan><tspan
						class="st9">C1</tspan></text>		</g>
		<g id="shape1001-228" transform="translate(192.402,-72.2117)">
			<title>Sheet.1001</title>
			<desc>Initiator</desc>
			<path d="M147.05 114.07 L147.05 113.82 L0 113.82 L0 136.21" class="st14"/>
			<text x="60.41" y="127.41" class="st3">Initiator</text>		</g>
		<g id="shape1003-232" transform="translate(337.918,-72.2117)">
			<title>Sheet.1003</title>
			<path d="M1.53 114.07 L0 114.07 L0 136.21" class="st15"/>
		</g>
		<g id="shape1004-235" transform="translate(474.126,63.9965) rotate(90)">
			<title>Sheet.1004</title>
			<path d="M0 136.21 L0.53 136.21" class="st15"/>
		</g>
		<g id="shape1005-238" transform="translate(337.918,-71.6808)">
			<title>Sheet.1005</title>
			<desc>ADV</desc>
			<path d="M0 136.21 L7.55 136.21 L7.55 113.54 L1.53 113.54" class="st15"/>
			<text x="2.44" y="121.27" class="st12">A<tspan x="2.33" dy="1.2em" class="st4">D</tspan><tspan x="2.44" dy="1.2em"
						class="st4">V</tspan></text>		</g>
	</g>
</svg>
