<?xml version="1.0" encoding="UTF-8" standalone="no"?>
<!DOCTYPE svg PUBLIC "-//W3C//DTD SVG 1.1//EN" "http://www.w3.org/Graphics/SVG/1.1/DTD/svg11.dtd">
<!-- Generated by Microsoft Visio, SVG Export initiator_6_timing_free_time_not_big_enough.svg Page-1 -->
<svg xmlns="http://www.w3.org/2000/svg" xmlns:xlink="http://www.w3.org/1999/xlink" xmlns:ev="http://www.w3.org/2001/xml-events"
		width="8.26772in" height="1.89067in" viewBox="0 0 595.276 136.128" xml:space="preserve" color-interpolation-filters="sRGB"
		class="st16">
	<style type="text/css">
	<![CDATA[
		.st1 {fill:#ffffff;stroke:none;stroke-linecap:round;stroke-linejoin:round;stroke-width:0.72}
		.st2 {fill:none;stroke:#000000;stroke-linecap:round;stroke-linejoin:round;stroke-width:0.72}
		.st3 {fill:#000000;font-family:Arial;font-size:0.666664em}
		.st4 {font-size:1em}
		.st5 {fill:none}
		.st6 {marker-end:url(#mrkr12-15);marker-start:url(#mrkr12-13);stroke:#000000;stroke-linecap:round;stroke-linejoin:round;stroke-width:0.24}
		.st7 {stroke:#000000;stroke-linecap:round;stroke-linejoin:round;stroke-width:0.24}
		.st8 {fill:#000000;fill-opacity:1;stroke:#000000;stroke-opacity:1;stroke-width:0.08695652173913}
		.st9 {baseline-shift:-32.4939%;font-size:0.649878em}
		.st10 {marker-end:url(#mrkr13-29);stroke:#000000;stroke-linecap:round;stroke-linejoin:round;stroke-width:0.72}
		.st11 {fill:#000000;fill-opacity:1;stroke:#000000;stroke-opacity:1;stroke-width:0.22222222222222}
		.st12 {fill:#000000;font-family:Arial;font-size:0.333344em}
		.st13 {fill:none;stroke:#000000;stroke-dasharray:0.72,1.44;stroke-linecap:round;stroke-linejoin:round;stroke-width:0.72}
		.st14 {stroke:#000000;stroke-linecap:round;stroke-linejoin:round;stroke-width:0.72}
		.st15 {stroke:#000000;stroke-dasharray:0.72,1.44;stroke-linecap:round;stroke-linejoin:round;stroke-width:0.72}
		.st16 {fill:none;fill-rule:evenodd;font-size:12px;overflow:visible;stroke-linecap:square;stroke-miterlimit:3}
	]]>
	</style>

	<defs id="Markers">
		<g id="lend12">
			<path d="M 3 1 L 0 0 L 3 -1 " style="stroke-linecap:round;stroke-linejoin:round;fill:none"/>
		</g>
		<marker id="mrkr12-13" class="st8" orient="auto" markerUnits="strokeWidth" overflow="visible">
			<use xlink:href="#lend12" transform="scale(11.5) "/>
		</marker>
		<marker id="mrkr12-15" class="st8" orient="auto" markerUnits="strokeWidth" overflow="visible">
			<use xlink:href="#lend12" transform="scale(-11.5,-11.5) "/>
		</marker>
		<g id="lend13">
			<path d="M 3 1 L 0 0 L 3 -1 L 3 1 " style="stroke:none"/>
		</g>
		<marker id="mrkr13-29" class="st11" refX="-13.5" orient="auto" markerUnits="strokeWidth" overflow="visible">
			<use xlink:href="#lend13" transform="scale(-4.5,-4.5) "/>
		</marker>
	</defs>
	<g>
		<title>VBackground-1</title>
		<g id="shape1000-1">
			<title>Solid.1000</title>
			<rect x="0" y="0" width="595.276" height="136.128" class="st1"/>
		</g>
	</g>
	<g>
		<title>Page-1</title>
		<g id="shape18-3" transform="translate(29.7965,-64.1042)">
			<title>Sheet.18</title>
			<desc>C1</desc>
			<rect x="0" y="112.58" width="12.1707" height="23.548" class="st2"/>
			<text x="4" y="121.95" class="st3">C<tspan x="4" dy="1.2em" class="st4">1</tspan></text>		</g>
		<g id="shape19-7" transform="translate(9.07871,-56.816)">
			<title>Duration (horizontal) .19</title>
			<desc>tevent-C0</desc>
			<path d="M0 141.19 L0 132.19 L0 141.19 ZM20.72 141.19 L20.72 132.19 L20.72 141.19 Z" class="st5"/>
			<path d="M0 136.69 L20.72 136.69" class="st6"/>
			<path d="M0 141.19 L0 132.19" class="st7"/>
			<path d="" class="st7"/>
			<path d="M20.72 141.19 L20.72 132.19" class="st7"/>
			<path d="" class="st7"/>
			<text x="-1.54" y="150.15" class="st3">t<tspan dy="0.287em" class="st9">event</tspan><tspan class="st9">-</tspan><tspan
						class="st9">C0</tspan></text>		</g>
		<g id="shape39-24" transform="translate(7.08661,-64.0324)">
			<title>Sheet.39</title>
			<path d="M0 136.13 L570.64 136.13" class="st10"/>
		</g>
		<g id="shape23-30" transform="translate(309.107,-64.0707)">
			<title>Sheet.23</title>
			<desc>C R E Q</desc>
			<rect x="0" y="112.58" width="7.40411" height="23.548" class="st2"/>
			<text x="2.26" y="118.35" class="st12">C <tspan x="2.26" dy="1.2em" class="st4">R </tspan><tspan x="2.37" dy="1.2em"
						class="st4">E </tspan><tspan x="2.15" dy="1.2em" class="st4">Q</tspan></text>		</g>
		<g id="shape24-36" transform="translate(316.511,-111.179)">
			<title>Duration (horizontal) .24</title>
			<desc>transmitWindowDelay + transmitWindowOffset</desc>
			<path d="M0 141.19 L0 132.19 L0 141.19 ZM177.17 141.19 L177.17 132.19 L177.17 141.19 Z" class="st5"/>
			<path d="M0 136.69 L177.17 136.69" class="st6"/>
			<path d="M0 141.19 L0 132.19" class="st7"/>
			<path d="" class="st7"/>
			<path d="M177.17 141.19 L177.17 132.19" class="st7"/>
			<path d="" class="st7"/>
			<text x="8.91" y="131.42" class="st3">transmitWindowDelay + transmitWindowOffset</text>		</g>
		<g id="shape52-48" transform="translate(120.296,-64.0969)">
			<title>Sheet.52</title>
			<desc>C3</desc>
			<rect x="0" y="112.58" width="13.1271" height="23.548" class="st2"/>
			<text x="4" y="121.95" class="st3">C<tspan x="4.34" dy="1.2em" class="st4">3</tspan></text>		</g>
		<g id="shape56-52" transform="translate(9.58246,-63.9309)">
			<title>Sheet.56</title>
			<desc>C0</desc>
			<rect x="0" y="112.58" width="12.6441" height="23.548" class="st2"/>
			<text x="4" y="121.95" class="st3">C<tspan x="4.1" dy="1.2em" class="st4">0</tspan></text>		</g>
		<g id="shape57-56" transform="translate(72.2287,-64.0969)">
			<title>Sheet.57</title>
			<desc>C2</desc>
			<rect x="0" y="112.58" width="15.5384" height="23.548" class="st2"/>
			<text x="4.88" y="121.95" class="st3">C<tspan x="5.54" dy="1.2em" class="st4">2</tspan></text>		</g>
		<g id="shape58-60" transform="translate(29.7965,-28.6011)">
			<title>Duration (horizontal) .58</title>
			<desc>tevent-C1</desc>
			<path d="M0 141.19 L0 132.19 L0 141.19 ZM21.21 141.19 L21.21 132.19 L21.21 141.19 Z" class="st5"/>
			<path d="M0 136.69 L21.21 136.69" class="st6"/>
			<path d="M0 141.19 L0 132.19" class="st7"/>
			<path d="" class="st7"/>
			<path d="M21.21 141.19 L21.21 132.19" class="st7"/>
			<path d="" class="st7"/>
			<text x="-1.29" y="150.15" class="st3">t<tspan dy="0.287em" class="st9">event</tspan><tspan class="st9">-</tspan><tspan
						class="st9">C1</tspan></text>		</g>
		<g id="shape59-75" transform="translate(72.6271,-55.2998)">
			<title>Duration (horizontal) .59</title>
			<desc>tevent-C2</desc>
			<path d="M0 141.19 L0 132.19 L0 141.19 ZM22.71 141.19 L22.71 132.19 L22.71 141.19 Z" class="st5"/>
			<path d="M0 136.69 L22.71 136.69" class="st6"/>
			<path d="M0 141.19 L0 132.19" class="st7"/>
			<path d="" class="st7"/>
			<path d="M22.71 141.19 L22.71 132.19" class="st7"/>
			<path d="" class="st7"/>
			<text x="-0.56" y="150.15" class="st3">t<tspan dy="0.287em" class="st9">event</tspan><tspan class="st9">-</tspan><tspan
						class="st9">C2</tspan></text>		</g>
		<g id="shape60-90" transform="translate(120.098,-54.8237)">
			<title>Duration (horizontal) .60</title>
			<desc>tevent-C3</desc>
			<path d="M0 141.19 L0 132.19 L0 141.19 ZM22.7 141.19 L22.7 132.19 L22.7 141.19 Z" class="st5"/>
			<path d="M0 136.69 L22.7 136.69" class="st6"/>
			<path d="M0 141.19 L0 132.19" class="st7"/>
			<path d="" class="st7"/>
			<path d="M22.7 141.19 L22.7 132.19" class="st7"/>
			<path d="" class="st7"/>
			<text x="-0.57" y="150.15" class="st3">t<tspan dy="0.287em" class="st9">event</tspan><tspan class="st9">-</tspan><tspan
						class="st9">C3</tspan></text>		</g>
		<g id="shape121-105" transform="translate(9.55412,-111.179)">
			<title>Duration (horizontal) .121</title>
			<desc>Connection Interval</desc>
			<path d="M0 141.19 L0 132.19 L0 141.19 ZM175.69 141.19 L175.69 132.19 L175.69 141.19 Z" class="st5"/>
			<path d="M0 136.69 L175.69 136.69" class="st6"/>
			<path d="M0 141.19 L0 132.19" class="st7"/>
			<path d="" class="st7"/>
			<path d="M175.69 141.19 L175.69 132.19" class="st7"/>
			<path d="" class="st7"/>
			<text x="56.04" y="131.42" class="st3">Connection Interval</text>		</g>
		<g id="shape149-117" transform="translate(205.454,-11.3627)">
			<title>Sheet.149</title>
			<desc>C1</desc>
			<path d="M0 136.13 L12.17 136.13 L12.17 112.58 L0 112.58 L0 136.13 Z" class="st13"/>
			<text x="4" y="121.95" class="st3">C<tspan x="4" dy="1.2em" class="st4">1</tspan></text>		</g>
		<g id="shape150-121" transform="translate(295.953,-11.3554)">
			<title>Sheet.150</title>
			<desc>C3</desc>
			<path d="M0 136.13 L13.13 136.13 L13.13 112.58 L0 112.58 L0 136.13 Z" class="st13"/>
			<text x="4" y="121.95" class="st3">C<tspan x="4.34" dy="1.2em" class="st4">3</tspan></text>		</g>
		<g id="shape151-125" transform="translate(185.24,-11.1894)">
			<title>Sheet.151</title>
			<desc>C0</desc>
			<path d="M0 136.13 L12.64 136.13 L12.64 112.58 L0 112.58 L0 136.13 Z" class="st13"/>
			<text x="4" y="121.95" class="st3">C<tspan x="4.1" dy="1.2em" class="st4">0</tspan></text>		</g>
		<g id="shape152-129" transform="translate(247.886,-11.3554)">
			<title>Sheet.152</title>
			<desc>C2</desc>
			<path d="M0 136.13 L15.54 136.13 L15.54 112.58 L0 112.58 L0 136.13 Z" class="st13"/>
			<text x="4.88" y="121.95" class="st3">C<tspan x="5.54" dy="1.2em" class="st4">2</tspan></text>		</g>
		<g id="shape162-133" transform="translate(381.406,-64.3515)">
			<title>Sheet.162</title>
			<desc>C1</desc>
			<rect x="0" y="112.58" width="12.1707" height="23.548" class="st2"/>
			<text x="4" y="121.95" class="st3">C<tspan x="4" dy="1.2em" class="st4">1</tspan></text>		</g>
		<g id="shape163-137" transform="translate(360.689,-57.0633)">
			<title>Duration (horizontal) .163</title>
			<desc>tevent-C0</desc>
			<path d="M0 141.19 L0 132.19 L0 141.19 ZM20.72 141.19 L20.72 132.19 L20.72 141.19 Z" class="st5"/>
			<path d="M0 136.69 L20.72 136.69" class="st6"/>
			<path d="M0 141.19 L0 132.19" class="st7"/>
			<path d="" class="st7"/>
			<path d="M20.72 141.19 L20.72 132.19" class="st7"/>
			<path d="" class="st7"/>
			<text x="-1.54" y="150.15" class="st3">t<tspan dy="0.287em" class="st9">event</tspan><tspan class="st9">-</tspan><tspan
						class="st9">C0</tspan></text>		</g>
		<g id="shape164-152" transform="translate(471.906,-64.3441)">
			<title>Sheet.164</title>
			<desc>C3</desc>
			<rect x="0" y="112.58" width="13.1271" height="23.548" class="st2"/>
			<text x="4" y="121.95" class="st3">C<tspan x="4.34" dy="1.2em" class="st4">3</tspan></text>		</g>
		<g id="shape165-156" transform="translate(361.192,-64.1781)">
			<title>Sheet.165</title>
			<desc>C0</desc>
			<rect x="0" y="112.58" width="12.6441" height="23.548" class="st2"/>
			<text x="4" y="121.95" class="st3">C<tspan x="4.1" dy="1.2em" class="st4">0</tspan></text>		</g>
		<g id="shape166-160" transform="translate(423.839,-64.3441)">
			<title>Sheet.166</title>
			<desc>C2</desc>
			<rect x="0" y="112.58" width="15.5384" height="23.548" class="st2"/>
			<text x="4.88" y="121.95" class="st3">C<tspan x="5.54" dy="1.2em" class="st4">2</tspan></text>		</g>
		<g id="shape167-164" transform="translate(381.406,-28.8484)">
			<title>Duration (horizontal) .167</title>
			<desc>tevent-C1</desc>
			<path d="M0 141.19 L0 132.19 L0 141.19 ZM21.21 141.19 L21.21 132.19 L21.21 141.19 Z" class="st5"/>
			<path d="M0 136.69 L21.21 136.69" class="st6"/>
			<path d="M0 141.19 L0 132.19" class="st7"/>
			<path d="" class="st7"/>
			<path d="M21.21 141.19 L21.21 132.19" class="st7"/>
			<path d="" class="st7"/>
			<text x="-1.29" y="150.15" class="st3">t<tspan dy="0.287em" class="st9">event</tspan><tspan class="st9">-</tspan><tspan
						class="st9">C1</tspan></text>		</g>
		<g id="shape168-179" transform="translate(424.237,-55.5471)">
			<title>Duration (horizontal) .168</title>
			<desc>tevent-C2</desc>
			<path d="M0 141.19 L0 132.19 L0 141.19 ZM22.71 141.19 L22.71 132.19 L22.71 141.19 Z" class="st5"/>
			<path d="M0 136.69 L22.71 136.69" class="st6"/>
			<path d="M0 141.19 L0 132.19" class="st7"/>
			<path d="" class="st7"/>
			<path d="M22.71 141.19 L22.71 132.19" class="st7"/>
			<path d="" class="st7"/>
			<text x="-0.56" y="150.15" class="st3">t<tspan dy="0.287em" class="st9">event</tspan><tspan class="st9">-</tspan><tspan
						class="st9">C2</tspan></text>		</g>
		<g id="shape169-194" transform="translate(471.708,-55.071)">
			<title>Duration (horizontal) .169</title>
			<desc>tevent-C3</desc>
			<path d="M0 141.19 L0 132.19 L0 141.19 ZM22.7 141.19 L22.7 132.19 L22.7 141.19 Z" class="st5"/>
			<path d="M0 136.69 L22.7 136.69" class="st6"/>
			<path d="M0 141.19 L0 132.19" class="st7"/>
			<path d="" class="st7"/>
			<path d="M22.7 141.19 L22.7 132.19" class="st7"/>
			<path d="" class="st7"/>
			<text x="-0.57" y="150.15" class="st3">t<tspan dy="0.287em" class="st9">event</tspan><tspan class="st9">-</tspan><tspan
						class="st9">C3</tspan></text>		</g>
		<g id="shape170-209" transform="translate(494.369,-63.974)">
			<title>Sheet.170</title>
			<desc>Cn</desc>
			<rect x="0" y="112.58" width="55.5681" height="23.548" class="st2"/>
			<text x="22.67" y="126.75" class="st3">Cn</text>		</g>
		<g id="shape171-212" transform="translate(494.171,-29.6085)">
			<title>Duration (horizontal) .171</title>
			<desc>tevent-Cn</desc>
			<path d="M0 141.19 L0 132.19 L0 141.19 ZM65.14 141.19 L65.14 132.19 L65.14 141.19 Z" class="st5"/>
			<path d="M0 136.69 L65.14 136.69" class="st6"/>
			<path d="M0 141.19 L0 132.19" class="st7"/>
			<path d="" class="st7"/>
			<path d="M65.14 141.19 L65.14 132.19" class="st7"/>
			<path d="" class="st7"/>
			<text x="20.17" y="150.15" class="st3">t<tspan dy="0.287em" class="st9">event</tspan><tspan class="st9">-</tspan><tspan
						class="st9">Cn</tspan></text>		</g>
		<g id="shape1016-227" transform="translate(166.487,-64.6222)">
			<title>Sheet.1016</title>
			<desc>Initiator</desc>
			<path d="M133.24 112.87 L0 112.87 L0 136.13" class="st14"/>
			<text x="53.5" y="126.9" class="st3">Initiator</text>		</g>
		<g id="shape1018-231" transform="translate(435.859,48.2464) rotate(90)">
			<title>Sheet.1018</title>
			<path d="M0 136.13 L23.26 136.13" class="st15"/>
		</g>
		<g id="shape1019-234" transform="translate(435.859,71.5057) rotate(90)">
			<title>Sheet.1019</title>
			<path d="M0 136.13 L0.55 136.13" class="st15"/>
		</g>
		<g id="shape1020-237" transform="translate(299.731,-64.0707)">
			<title>Sheet.1020</title>
			<desc>ADV</desc>
			<path d="M0 136.13 L7.4 136.13 L7.4 112.3 L0 112.3 L0 112.32" class="st15"/>
			<text x="2.37" y="120.62" class="st12">A<tspan x="2.26" dy="1.2em" class="st4">D</tspan><tspan x="2.37" dy="1.2em"
						class="st4">V</tspan></text>		</g>
	</g>
</svg>
