<?xml version="1.0" encoding="UTF-8" standalone="no"?>
<!DOCTYPE svg PUBLIC "-//W3C//DTD SVG 1.1//EN" "http://www.w3.org/Graphics/SVG/1.1/DTD/svg11.dtd">
<!-- Generated by Microsoft Visio, SVG Export initiator_3_timing_one_connection.svg Page-1 -->
<svg xmlns="http://www.w3.org/2000/svg" xmlns:xlink="http://www.w3.org/1999/xlink" xmlns:ev="http://www.w3.org/2001/xml-events"
		width="8.26772in" height="1.90845in" viewBox="0 0 595.276 137.408" xml:space="preserve" color-interpolation-filters="sRGB"
		class="st18">
	<style type="text/css">
	<![CDATA[
		.st1 {fill:#ffffff;stroke:none;stroke-linecap:round;stroke-linejoin:round;stroke-width:0.72}
		.st2 {fill:none}
		.st3 {marker-end:url(#mrkr12-11);marker-start:url(#mrkr12-9);stroke:#000000;stroke-linecap:round;stroke-linejoin:round;stroke-width:0.24}
		.st4 {stroke:#000000;stroke-linecap:round;stroke-linejoin:round;stroke-width:0.24}
		.st5 {fill:#000000;fill-opacity:1;stroke:#000000;stroke-opacity:1;stroke-width:0.08695652173913}
		.st6 {fill:#000000;font-family:Arial;font-size:0.666664em}
		.st7 {baseline-shift:-32.4939%;font-size:0.649878em}
		.st8 {marker-end:url(#mrkr13-25);stroke:#000000;stroke-linecap:round;stroke-linejoin:round;stroke-width:0.72}
		.st9 {fill:#000000;fill-opacity:1;stroke:#000000;stroke-opacity:1;stroke-width:0.22222222222222}
		.st10 {fill:none;stroke:#000000;stroke-linecap:round;stroke-linejoin:round;stroke-width:0.72}
		.st11 {fill:#000000;font-family:Arial;font-size:0.333344em}
		.st12 {font-size:1em}
		.st13 {fill:#000000;font-family:Arial;font-size:0.499992em}
		.st14 {stroke:#4677bf;stroke-linecap:round;stroke-linejoin:round;stroke-width:0.24}
		.st15 {fill:none;stroke:#000000;stroke-dasharray:0.72,1.44;stroke-linecap:round;stroke-linejoin:round;stroke-width:0.72}
		.st16 {stroke:#000000;stroke-dasharray:0.72,1.44;stroke-linecap:round;stroke-linejoin:round;stroke-width:0.72}
		.st17 {stroke:#000000;stroke-linecap:round;stroke-linejoin:round;stroke-width:0.72}
		.st18 {fill:none;fill-rule:evenodd;font-size:12px;overflow:visible;stroke-linecap:square;stroke-miterlimit:3}
	]]>
	</style>

	<defs id="Markers">
		<g id="lend12">
			<path d="M 3 1 L 0 0 L 3 -1 " style="stroke-linecap:round;stroke-linejoin:round;fill:none"/>
		</g>
		<marker id="mrkr12-9" class="st5" orient="auto" markerUnits="strokeWidth" overflow="visible">
			<use xlink:href="#lend12" transform="scale(11.5) "/>
		</marker>
		<marker id="mrkr12-11" class="st5" orient="auto" markerUnits="strokeWidth" overflow="visible">
			<use xlink:href="#lend12" transform="scale(-11.5,-11.5) "/>
		</marker>
		<g id="lend13">
			<path d="M 3 1 L 0 0 L 3 -1 L 3 1 " style="stroke:none"/>
		</g>
		<marker id="mrkr13-25" class="st9" refX="-13.5" orient="auto" markerUnits="strokeWidth" overflow="visible">
			<use xlink:href="#lend13" transform="scale(-4.5,-4.5) "/>
		</marker>
	</defs>
	<g>
		<title>VBackground-1</title>
		<g id="shape1000-1">
			<title>Solid.1000</title>
			<rect x="0" y="0" width="595.276" height="137.408" class="st1"/>
		</g>
	</g>
	<g>
		<title>Page-1</title>
		<g id="shape19-3" transform="translate(16.1807,-62.1939)">
			<title>Duration (horizontal) .19</title>
			<desc>tevent-C0</desc>
			<path d="M0 142.47 L0 133.47 L0 142.47 ZM20.88 142.47 L20.88 133.47 L20.88 142.47 Z" class="st2"/>
			<path d="M0 137.97 L20.88 137.97" class="st3"/>
			<path d="M0 142.47 L0 133.47" class="st4"/>
			<path d="" class="st4"/>
			<path d="M20.88 142.47 L20.88 133.47" class="st4"/>
			<path d="" class="st4"/>
			<text x="-1.46" y="151.43" class="st6">t<tspan dy="0.287em" class="st7">event</tspan><tspan class="st7">-</tspan><tspan
						class="st7">C0</tspan></text>		</g>
		<g id="shape39-20" transform="translate(14.1732,-67.7987)">
			<title>Sheet.39</title>
			<path d="M0 137.41 L557.21 137.41" class="st8"/>
		</g>
		<g id="shape23-26" transform="translate(346.869,-67.8378)">
			<title>Sheet.23</title>
			<desc>C R E Q</desc>
			<rect x="0" y="113.388" width="7.46121" height="24.0201" class="st10"/>
			<text x="2.29" y="119.4" class="st11">C <tspan x="2.29" dy="1.2em" class="st12">R </tspan><tspan x="2.4" dy="1.2em"
						class="st12">E </tspan><tspan x="2.17" dy="1.2em" class="st12">Q</tspan></text>		</g>
		<g id="shape24-32" transform="translate(354.331,-104.695)">
			<title>Duration (horizontal) .24</title>
			<desc>transmitWindowDelay + transmitWindowOffset</desc>
			<path d="M0 142.47 L0 133.47 L0 142.47 ZM37.8 142.47 L37.8 133.47 L37.8 142.47 Z" class="st2"/>
			<path d="M0 137.97 L37.8 137.97" class="st3"/>
			<path d="M0 142.47 L0 133.47" class="st4"/>
			<path d="" class="st4"/>
			<path d="M37.8 142.47 L37.8 133.47" class="st4"/>
			<path d="" class="st4"/>
			<text x="-62.89" y="132.7" class="st6">transmitWindowDelay + transmitWindowOffset</text>		</g>
		<g id="shape56-44" transform="translate(16.6883,-67.6951)">
			<title>Sheet.56</title>
			<desc>C0</desc>
			<rect x="0" y="113.388" width="12.7416" height="24.0201" class="st10"/>
			<text x="4.2" y="123.6" class="st13">C<tspan x="4.7" dy="1.2em" class="st12">0</tspan></text>		</g>
		<g id="shape69-48" transform="translate(338.789,-72.7612)">
			<title>Dynamic connector</title>
			<path d="M6.09 130.32 L8.08 130.32" class="st14"/>
		</g>
		<g id="shape121-51" transform="translate(16.6598,-104.695)">
			<title>Duration (horizontal) .121</title>
			<desc>Connection Interval</desc>
			<path d="M0 142.47 L0 133.47 L0 142.47 ZM177.04 142.47 L177.04 133.47 L177.04 142.47 Z" class="st2"/>
			<path d="M0 137.97 L177.04 137.97" class="st3"/>
			<path d="M0 142.47 L0 133.47" class="st4"/>
			<path d="" class="st4"/>
			<path d="M177.04 142.47 L177.04 133.47" class="st4"/>
			<path d="" class="st4"/>
			<text x="56.74" y="134.7" class="st6">Connection Interval</text>		</g>
		<g id="shape135-63" transform="translate(193.701,-18.36)">
			<title>Sheet.135</title>
			<desc>C0</desc>
			<path d="M0 137.41 L12.74 137.41 L12.74 119 L0 119 L0 137.41 Z" class="st15"/>
			<text x="4.2" y="126.4" class="st13">C<tspan x="4.7" dy="1.2em" class="st12">0</tspan></text>		</g>
		<g id="shape138-67" transform="translate(391.619,-67.9161)">
			<title>Sheet.138</title>
			<desc>C1</desc>
			<rect x="0" y="113.388" width="12.979" height="24.0201" class="st10"/>
			<text x="4.32" y="123.6" class="st13">C<tspan x="4.82" dy="1.2em" class="st12">1</tspan></text>		</g>
		<g id="shape139-71" transform="translate(370.742,-62.2277)">
			<title>Duration (horizontal) .139</title>
			<desc>tevent-C0</desc>
			<path d="M0 142.47 L0 133.47 L0 142.47 ZM20.88 142.47 L20.88 133.47 L20.88 142.47 Z" class="st2"/>
			<path d="M0 137.97 L20.88 137.97" class="st3"/>
			<path d="M0 142.47 L0 133.47" class="st4"/>
			<path d="" class="st4"/>
			<path d="M20.88 142.47 L20.88 133.47" class="st4"/>
			<path d="" class="st4"/>
			<text x="-1.46" y="151.43" class="st6">t<tspan dy="0.287em" class="st7">event</tspan><tspan class="st7">-</tspan><tspan
						class="st7">C0</tspan></text>		</g>
		<g id="shape141-86" transform="translate(371.249,-67.7392)">
			<title>Sheet.141</title>
			<desc>C0</desc>
			<rect x="0" y="113.388" width="12.7416" height="24.0201" class="st10"/>
			<text x="4.2" y="123.6" class="st13">C<tspan x="4.7" dy="1.2em" class="st12">0</tspan></text>		</g>
		<g id="shape148-90" transform="translate(392.126,-40.9153)">
			<title>Duration (horizontal) .148</title>
			<desc>tevent-Cn</desc>
			<path d="M0 142.47 L0 133.47 L0 142.47 ZM21.38 142.47 L21.38 133.47 L21.38 142.47 Z" class="st2"/>
			<path d="M0 137.97 L21.38 137.97" class="st3"/>
			<path d="M0 142.47 L0 133.47" class="st4"/>
			<path d="" class="st4"/>
			<path d="M21.38 142.47 L21.38 133.47" class="st4"/>
			<path d="" class="st4"/>
			<text x="-1.21" y="151.43" class="st6">t<tspan dy="0.287em" class="st7">event</tspan><tspan class="st7">-</tspan><tspan
						class="st7">Cn</tspan></text>		</g>
		<g id="shape1000-105" transform="translate(337.421,-68.4003)">
			<title>Sheet.1000</title>
			<path d="M0.89 113.95 L0 113.95 L0 137.41" class="st16"/>
		</g>
		<g id="shape1001-108" transform="translate(474.829,69.0078) rotate(90)">
			<title>Sheet.1001</title>
			<path d="M0 137.41 L0.56 137.41" class="st17"/>
		</g>
		<g id="shape1002-111" transform="translate(337.421,-67.8378)">
			<title>Sheet.1002</title>
			<desc>ADV</desc>
			<path d="M0 137.41 L7.46 137.41 L7.46 113.12 L0.89 113.12" class="st16"/>
			<text x="2.4" y="121.66" class="st11">A<tspan x="2.29" dy="1.2em" class="st12">D</tspan><tspan x="2.4" dy="1.2em"
						class="st12">V</tspan></text>		</g>
		<g id="shape1004-117" transform="translate(89.7638,-68.4003)">
			<title>Sheet.1004</title>
			<desc>Initiator</desc>
			<path d="M248.55 113.95 L248.55 113.68 L0 113.68 L0 137.41" class="st17"/>
			<text x="111.16" y="127.95" class="st6">Initiator</text>		</g>
		<g id="shape1005-121" transform="translate(89.7638,-68.4003)">
			<title>Sheet.1005</title>
			<path d="M0 137.41 L247.66 137.41" class="st17"/>
		</g>
	</g>
</svg>
