<?xml version="1.0" encoding="UTF-8" standalone="no"?>
<!DOCTYPE svg PUBLIC "-//W3C//DTD SVG 1.1//EN" "http://www.w3.org/Graphics/SVG/1.1/DTD/svg11.dtd">
<!-- Generated by Microsoft Visio, SVG Export initiator_7_connection_setup.svg Page-1 -->
<svg xmlns="http://www.w3.org/2000/svg" xmlns:xlink="http://www.w3.org/1999/xlink" xmlns:ev="http://www.w3.org/2001/xml-events"
		width="8.26772in" height="1.92233in" viewBox="0 0 595.276 138.408" xml:space="preserve" color-interpolation-filters="sRGB"
		class="st22">
	<style type="text/css">
	<![CDATA[
		.st1 {fill:#ffffff;stroke:none;stroke-linecap:round;stroke-linejoin:round;stroke-width:0.75}
		.st2 {stroke:#000000;stroke-linecap:round;stroke-linejoin:round;stroke-width:0.75}
		.st3 {fill:none;stroke:#7f7f7f;stroke-dasharray:7,5;stroke-width:1}
		.st4 {fill:#7f7f7f;font-family:Arial;font-size:0.833336em;font-weight:bold;letter-spacing:-0.0999997em}
		.st5 {font-size:1em}
		.st6 {fill:none;stroke:#000000;stroke-width:1}
		.st7 {fill:#000000;font-family:Arial;font-size:0.833336em;font-weight:bold;letter-spacing:-0.0999997em}
		.st8 {fill:#f2f2f2;stroke:#000000;stroke-width:1}
		.st9 {fill:none}
		.st10 {marker-end:url(#mrkr1-55);marker-start:url(#mrkr1-53);stroke:#000000;stroke-width:0.75}
		.st11 {stroke:#000000;stroke-width:0.75}
		.st12 {fill:#000000;fill-opacity:1;stroke:#000000;stroke-opacity:1;stroke-width:0.22935779816514}
		.st13 {fill:#000000;font-family:Arial;font-size:0.833336em}
		.st14 {font-size:1em;font-style:italic}
		.st15 {baseline-shift:-32.4947%;font-size:0.649894em;font-style:italic}
		.st16 {fill:none;stroke:none;stroke-linecap:round;stroke-linejoin:round;stroke-width:0.75}
		.st17 {fill:#000000;font-family:Arial;font-size:1.00001em;font-style:italic}
		.st18 {baseline-shift:-32.4941%;font-size:0.649882em}
		.st19 {fill:#ffffff;stroke:#000000;stroke-width:1}
		.st20 {marker-end:url(#mrkr13-102);stroke:#000000;stroke-width:1}
		.st21 {fill:#000000;fill-opacity:1;stroke:#000000;stroke-opacity:1;stroke-width:0.28409090909091}
		.st22 {fill:none;fill-rule:evenodd;font-size:12px;overflow:visible;stroke-linecap:square;stroke-miterlimit:3}
	]]>
	</style>

	<defs id="Markers">
		<g id="lend1">
			<path d="M 1 -1 L 0 0 L 1 1 " style="stroke-linecap:round;stroke-linejoin:round;fill:none"/>
		</g>
		<marker id="mrkr1-53" class="st12" orient="auto" markerUnits="strokeWidth" overflow="visible">
			<use xlink:href="#lend1" transform="scale(4.36) "/>
		</marker>
		<marker id="mrkr1-55" class="st12" orient="auto" markerUnits="strokeWidth" overflow="visible">
			<use xlink:href="#lend1" transform="scale(-4.36,-4.36) "/>
		</marker>
		<g id="lend13">
			<path d="M 3 1 L 0 0 L 3 -1 L 3 1 " style="stroke:none"/>
		</g>
		<marker id="mrkr13-102" class="st21" refX="-10.56" orient="auto" markerUnits="strokeWidth" overflow="visible">
			<use xlink:href="#lend13" transform="scale(-3.52,-3.52) "/>
		</marker>
	</defs>
	<g>
		<title>VBackground-1</title>
		<g id="shape1000-1">
			<title>Solid.1000</title>
			<rect x="0" y="0" width="595.276" height="138.408" class="st1"/>
		</g>
	</g>
	<g>
		<title>Page-1</title>
		<g id="shape66-3" transform="translate(219.008,99.7301) rotate(-90)">
			<title>Sheet.66</title>
			<path d="M0 138.41 L5.67 138.41" class="st2"/>
		</g>
		<g id="shape52-6" transform="translate(261.057,-88.2842)">
			<title>Sheet.52</title>
			<desc>C 1</desc>
			<path d="M0 138.41 L24.98 138.41 L24.98 95.89 L0 95.89 L0 138.41 Z" class="st3"/>
			<text x="9.38" y="114.15" class="st4">C<tspan x="10.21" dy="1.2em" class="st5">1</tspan></text>		</g>
		<g id="shape78-10" transform="translate(297.524,99.7301) rotate(-90)">
			<title>Sheet.78</title>
			<path d="M0 138.41 L5.67 138.41" class="st2"/>
		</g>
		<g id="shape75-13" transform="translate(435.932,-42.93)">
			<title>Sheet.75</title>
			<desc>C 0</desc>
			<rect x="0" y="95.8883" width="24.9822" height="42.5198" class="st6"/>
			<text x="9.38" y="114.15" class="st7">C <tspan x="10.21" dy="1.2em" class="st5">0</tspan></text>		</g>
		<g id="shape67-17" transform="translate(-116.467,99.7301) rotate(-90)">
			<title>Sheet.67</title>
			<path d="M0 138.41 L5.67 138.41" class="st2"/>
		</g>
		<g id="shape68-20" transform="translate(90.5287,99.7301) rotate(-90)">
			<title>Sheet.68</title>
			<path d="M0 138.41 L5.67 138.41" class="st2"/>
		</g>
		<g id="shape62-23" transform="translate(26.2888,99.7301) rotate(-90)">
			<title>Sheet.62</title>
			<path d="M0 138.41 L5.67 138.41" class="st2"/>
		</g>
		<g id="shape63-26" transform="translate(122.649,99.7301) rotate(-90)">
			<title>Sheet.63</title>
			<path d="M0 138.41 L5.67 138.41" class="st2"/>
		</g>
		<g id="shape64-29" transform="translate(261.057,-42.9299)">
			<title>Sheet.64</title>
			<rect x="0" y="95.8883" width="57.1021" height="42.5198" class="st8"/>
		</g>
		<g id="shape53-31" transform="translate(228.937,-42.9299)">
			<title>Sheet.53</title>
			<desc>C 0</desc>
			<rect x="0" y="95.8883" width="24.9822" height="42.5198" class="st6"/>
			<text x="9.38" y="114.15" class="st7">C <tspan x="10.21" dy="1.2em" class="st5">0</tspan></text>		</g>
		<g id="shape54-35" transform="translate(325.297,-42.9298)">
			<title>Sheet.54</title>
			<desc>C 2</desc>
			<rect x="0" y="95.8883" width="24.9822" height="42.5198" class="st6"/>
			<text x="9.38" y="114.15" class="st7">C<tspan x="10.21" dy="1.2em" class="st5">2</tspan></text>		</g>
		<g id="shape46-39" transform="translate(54.0615,-42.9299)">
			<title>Sheet.46</title>
			<desc>C 1</desc>
			<rect x="0" y="95.8883" width="24.9822" height="42.5198" class="st6"/>
			<text x="9.38" y="114.15" class="st7">C<tspan x="10.21" dy="1.2em" class="st5">1</tspan></text>		</g>
		<g id="shape2-43" transform="translate(21.9416,-42.9299)">
			<title>Sheet.2</title>
			<desc>C 0</desc>
			<rect x="0" y="95.8883" width="24.9822" height="42.5198" class="st6"/>
			<text x="9.38" y="114.15" class="st7">C <tspan x="10.21" dy="1.2em" class="st5">0</tspan></text>		</g>
		<g id="shape15-47" transform="translate(21.9416,-98.4857)">
			<title>Duration (horizontal) .221</title>
			<desc>Connection Interval (TCI)</desc>
			<path d="M0 143.47 L0 134.47 L0 143.47 ZM207 143.47 L207 134.47 L207 143.47 Z" class="st9"/>
			<path d="M0 138.97 L207 138.97" class="st10"/>
			<path d="M0 143.47 L0 134.47" class="st11"/>
			<path d="" class="st11"/>
			<path d="M207 143.47 L207 134.47" class="st11"/>
			<path d="" class="st11"/>
			<text x="44.99" y="135.02" class="st13">Connection Interval (<tspan class="st14">T</tspan><tspan dy="0.287em"
						class="st15">CI</tspan><tspan dy="-0.186em" class="st5">)</tspan></text>		</g>
		<g id="shape33-64" transform="translate(164.697,-42.9299)">
			<title>Sheet.33</title>
			<desc>Initiator</desc>
			<rect x="0" y="95.8883" width="57.1021" height="42.5198" class="st8"/>
			<text x="12.15" y="120.15" class="st13">Initiator</text>		</g>
		<g id="shape37-67" transform="translate(152.206,-40.0953)">
			<title>Sheet.37</title>
			<path d="M0 131.32 L0 138.41 L0 138.41" class="st2"/>
		</g>
		<g id="shape51-70" transform="translate(118.301,-42.9299)">
			<title>Sheet.51</title>
			<desc>C 2</desc>
			<rect x="0" y="95.8883" width="24.9822" height="42.5198" class="st6"/>
			<text x="9.38" y="114.15" class="st7">C<tspan x="10.21" dy="1.2em" class="st5">2</tspan></text>		</g>
		<g id="shape56-74" transform="translate(39.786,-7.2731)">
			<title>Sheet.56</title>
			<desc>(1) Start Initiator</desc>
			<rect x="0" y="127.032" width="108.851" height="11.3759" class="st16"/>
			<text x="18.58" y="135.72" class="st13">(1) Start Initiator</text>		</g>
		<g id="shape58-77" transform="translate(348.494,-25.2134)">
			<title>Sheet.58</title>
			<desc>tr</desc>
			<rect x="0" y="125.652" width="17.8444" height="12.7559" class="st16"/>
			<text x="5.96" y="135.63" class="st17">t<tspan dy="0.287em" class="st18">r</tspan></text>		</g>
		<g id="shape74-81" transform="translate(468.052,-42.9299)">
			<title>Sheet.74</title>
			<desc>C 1</desc>
			<rect x="0" y="95.8883" width="24.9822" height="42.5198" class="st6"/>
			<text x="9.38" y="114.15" class="st7">C<tspan x="10.21" dy="1.2em" class="st5">1</tspan></text>		</g>
		<g id="shape76-85" transform="translate(532.292,-42.93)">
			<title>Sheet.76</title>
			<desc>C 2</desc>
			<rect x="0" y="95.8883" width="24.9822" height="42.5198" class="st6"/>
			<text x="9.38" y="114.15" class="st7">C<tspan x="10.21" dy="1.2em" class="st5">2</tspan></text>		</g>
		<g id="shape77-89" transform="translate(500.172,-42.9299)">
			<title>Sheet.77</title>
			<desc>C 3</desc>
			<rect x="0" y="95.8883" width="24.9822" height="42.5198" class="st6"/>
			<text x="9.38" y="114.15" class="st7">C<tspan x="10.21" dy="1.2em" class="st5">3</tspan></text>		</g>
		<g id="shape70-93" transform="translate(311.021,-42.93)">
			<title>Sheet.70</title>
			<rect x="0" y="95.8884" width="7.13777" height="42.5197" class="st19"/>
		</g>
		<g id="shape69-95" transform="translate(303.883,-42.93)">
			<title>Sheet.69</title>
			<rect x="0" y="95.8884" width="7.13777" height="42.5197" class="st19"/>
		</g>
		<g id="shape14-97" transform="translate(14.8038,-42.9299)">
			<title>Sheet.14</title>
			<path d="M0 138.41 L558.68 138.41" class="st20"/>
		</g>
		<g id="shape81-103" transform="translate(357.417,-107.717)">
			<title>Sheet.81</title>
			<desc>(2) ADV_IND</desc>
			<rect x="0" y="126.659" width="121.342" height="11.7489" class="st16"/>
			<text x="4" y="135.53" class="st13">(2) ADV_IND</text>		</g>
		<g id="shape83-106" transform="translate(357.417,-96.5831)">
			<title>Sheet.83</title>
			<desc>(3) CONNECT_IND</desc>
			<rect x="0" y="126.659" width="121.342" height="11.7489" class="st16"/>
			<text x="4" y="135.53" class="st13">(3) CONNECT_IND</text>		</g>
		<g id="shape86-109" transform="translate(357.417,174.359) rotate(180)">
			<title>Sheet.86</title>
			<path d="M0 138.41 L42.83 138.41 L42.83 114.31" class="st2"/>
		</g>
		<g id="shape89-112" transform="translate(11.2349,-25.2134)">
			<title>Sheet.89</title>
			<desc>t0</desc>
			<rect x="0" y="125.652" width="21.4133" height="12.7559" class="st16"/>
			<text x="6.87" y="135.63" class="st17">t<tspan dy="0.287em" class="st18">0</tspan></text>		</g>
		<g id="shape91-116" transform="translate(127.224,-25.7729)">
			<title>Sheet.91</title>
			<desc>tr - 2TSI</desc>
			<rect x="0" y="125.652" width="60.671" height="12.7559" class="st16"/>
			<text x="11.35" y="135.63" class="st17">t<tspan dy="0.287em" class="st18">r</tspan><tspan dy="-0.186em" class="st5"> </tspan>- 2T<tspan
						dy="0.287em" class="st18">SI</tspan></text>		</g>
		<g id="shape96-122" transform="translate(357.417,163.02) rotate(180)">
			<title>Sheet.96</title>
			<path d="M0 138.41 L49.96 138.41 L49.96 102.98" class="st2"/>
		</g>
		<g id="shape99-125" transform="translate(391.321,-25.2134)">
			<title>Sheet.99</title>
			<desc>t0 + 2TCI</desc>
			<rect x="0" y="125.652" width="71.3777" height="12.7559" class="st16"/>
			<text x="14.11" y="135.63" class="st17">t<tspan dy="0.287em" class="st18">0</tspan><tspan dy="-0.186em" class="st5"> </tspan>+ 2T<tspan
						dy="0.287em" class="st18">CI</tspan></text>		</g>
		<g id="shape103-131" transform="translate(193.281,-25.2134)">
			<title>Sheet.103</title>
			<desc>t0 + TCI</desc>
			<rect x="0" y="125.652" width="57.1021" height="12.7559" class="st16"/>
			<text x="10.31" y="135.63" class="st17">t<tspan dy="0.287em" class="st18">0</tspan><tspan dy="-0.186em" class="st5"> </tspan>+ T<tspan
						dy="0.287em" class="st18">CI</tspan></text>		</g>
		<g id="shape104-137" transform="translate(253.919,-25.2134)">
			<title>Sheet.104</title>
			<desc>tr - TSI</desc>
			<rect x="0" y="125.652" width="49.9644" height="12.7559" class="st16"/>
			<text x="9.34" y="135.63" class="st17">t<tspan dy="0.287em" class="st18">r</tspan><tspan dy="-0.186em" class="st5"> </tspan>- T<tspan
						dy="0.287em" class="st18">SI</tspan></text>		</g>
		<g id="shape106-143" transform="translate(343.141,-7.08661)">
			<title>Sheet.106</title>
			<desc>(4) New connection</desc>
			<rect x="0" y="126.659" width="128.48" height="11.7489" class="st16"/>
			<text x="38.33" y="135.53" class="st13">(4) New connection</text>		</g>
		<g id="shape107-146" transform="translate(469.836,-13.1662)">
			<title>Sheet.107</title>
			<path d="M0 138.41 L42.83 138.41 L42.83 104.39" class="st2"/>
		</g>
		<g id="shape61-149" transform="translate(164.697,-118.328)">
			<title>Duration (horizontal) .61</title>
			<desc>Scan Interval (TSI)</desc>
			<path d="M0 134.19 L0 143.19 L0 134.19 ZM96.36 134.19 L96.36 143.19 L96.36 134.19 Z" class="st9"/>
			<path d="M0 138.69 L96.36 138.69" class="st10"/>
			<path d="M0 134.19 L0 143.19" class="st11"/>
			<path d="" class="st11"/>
			<path d="M96.36 134.19 L96.36 143.19" class="st11"/>
			<path d="" class="st11"/>
			<text x="19.04" y="135.96" class="st13">Scan Interval<tspan x="38.77" dy="1.202em" class="st5">(</tspan><tspan
						class="st14">T</tspan><tspan dy="0.287em" class="st15">SI</tspan><tspan dy="-0.186em" class="st5">)</tspan></text>		</g>
		<g id="shape108-165" transform="translate(247.43,98.3695) rotate(90)">
			<title>Sheet.108</title>
			<path d="M0 95.2 L0 138.41" class="st2"/>
		</g>
		<g id="shape109-168" transform="translate(109.022,-19.4024)">
			<title>Sheet.109</title>
			<path d="M0 117.85 L0 138.41" class="st2"/>
		</g>
	</g>
</svg>
