<?xml version="1.0" encoding="UTF-8" standalone="no"?>
<!DOCTYPE svg PUBLIC "-//W3C//DTD SVG 1.1//EN" "http://www.w3.org/Graphics/SVG/1.1/DTD/svg11.dtd">
<!-- Generated by Microsoft Visio, SVG Export multilink_sched_2_unfactored_intervals.svg Page-1 -->
<svg xmlns="http://www.w3.org/2000/svg" xmlns:xlink="http://www.w3.org/1999/xlink" xmlns:ev="http://www.w3.org/2001/xml-events"
		width="8.25396in" height="1.90868in" viewBox="0 0 594.285 137.425" xml:space="preserve" color-interpolation-filters="sRGB"
		class="st14">
	<style type="text/css">
	<![CDATA[
		.st1 {fill:#ffffff;stroke:none;stroke-linecap:round;stroke-linejoin:round;stroke-width:0.72}
		.st2 {marker-end:url(#mrkr13-8);stroke:#000000;stroke-linecap:round;stroke-linejoin:round;stroke-width:0.72}
		.st3 {fill:#000000;fill-opacity:1;stroke:#000000;stroke-opacity:1;stroke-width:0.22222222222222}
		.st4 {fill:none;stroke:#000000;stroke-linecap:round;stroke-linejoin:round;stroke-width:0.72}
		.st5 {fill:#000000;font-family:Arial;font-size:0.833336em}
		.st6 {font-size:1em}
		.st7 {fill:none}
		.st8 {marker-end:url(#mrkr12-29);marker-start:url(#mrkr12-27);stroke:#000000;stroke-linecap:round;stroke-linejoin:round;stroke-width:0.24}
		.st9 {stroke:#000000;stroke-linecap:round;stroke-linejoin:round;stroke-width:0.24}
		.st10 {fill:#000000;fill-opacity:1;stroke:#000000;stroke-opacity:1;stroke-width:0.08695652173913}
		.st11 {fill:#000000;font-family:Arial;font-size:0.666664em}
		.st12 {fill:none;stroke:#000000;stroke-dasharray:5.04,3.6;stroke-linecap:round;stroke-linejoin:round;stroke-width:0.72}
		.st13 {baseline-shift:-32.4939%;font-size:0.649878em}
		.st14 {fill:none;fill-rule:evenodd;font-size:12px;overflow:visible;stroke-linecap:square;stroke-miterlimit:3}
	]]>
	</style>

	<defs id="Markers">
		<g id="lend13">
			<path d="M 3 1 L 0 0 L 3 -1 L 3 1 " style="stroke:none"/>
		</g>
		<marker id="mrkr13-8" class="st3" refX="-13.5" orient="auto" markerUnits="strokeWidth" overflow="visible">
			<use xlink:href="#lend13" transform="scale(-4.5,-4.5) "/>
		</marker>
		<g id="lend12">
			<path d="M 3 1 L 0 0 L 3 -1 " style="stroke-linecap:round;stroke-linejoin:round;fill:none"/>
		</g>
		<marker id="mrkr12-27" class="st10" orient="auto" markerUnits="strokeWidth" overflow="visible">
			<use xlink:href="#lend12" transform="scale(11.5) "/>
		</marker>
		<marker id="mrkr12-29" class="st10" orient="auto" markerUnits="strokeWidth" overflow="visible">
			<use xlink:href="#lend12" transform="scale(-11.5,-11.5) "/>
		</marker>
	</defs>
	<g>
		<title>VBackground-1</title>
		<g id="shape1000-1">
			<title>Solid.1000</title>
			<rect x="0" y="0" width="594.285" height="137.425" class="st1"/>
		</g>
	</g>
	<g>
		<title>Page-1</title>
		<g id="shape6-3" transform="translate(29.1357,-65.3684)">
			<title>Sheet.6</title>
			<path d="M0 137.43 L528.07 137.43" class="st2"/>
		</g>
		<g id="shape7-9" transform="translate(48.3791,-65.3684)">
			<title>Sheet.7</title>
			<desc>C0</desc>
			<rect x="0" y="90.1868" width="17.607" height="47.2382" class="st4"/>
			<text x="5.19" y="110.81" class="st5">C<tspan x="6.02" dy="1.2em" class="st6">0</tspan></text>		</g>
		<g id="shape14-13" transform="translate(81.931,-65.3684)">
			<title>Sheet.14</title>
			<desc>C1</desc>
			<rect x="0" y="90.1868" width="17.607" height="47.2382" class="st4"/>
			<text x="5.19" y="110.81" class="st5">C<tspan x="6.02" dy="1.2em" class="st6">1</tspan></text>		</g>
		<g id="shape15-17" transform="translate(231.024,-65.3684)">
			<title>Sheet.15</title>
			<desc>C0</desc>
			<rect x="0" y="90.1868" width="17.607" height="47.2382" class="st4"/>
			<text x="5.19" y="110.81" class="st5">C<tspan x="6.02" dy="1.2em" class="st6">0</tspan></text>		</g>
		<g id="shape16-21" transform="translate(48.3791,-105.405)">
			<title>Duration (horizontal) .16</title>
			<desc>connectionInterval 0</desc>
			<path d="M0 142.49 L0 133.49 L0 142.49 ZM182.64 142.49 L182.64 133.49 L182.64 142.49 Z" class="st7"/>
			<path d="M0 137.99 L182.64 137.99" class="st8"/>
			<path d="M0 142.49 L0 133.49" class="st9"/>
			<path d="" class="st9"/>
			<path d="M182.64 142.49 L182.64 133.49" class="st9"/>
			<path d="" class="st9"/>
			<text x="56.14" y="148.61" class="st11">connectionInterval 0</text>		</g>
		<g id="shape34-35" transform="translate(413.858,-65.3684)">
			<title>Sheet.34</title>
			<desc>C0</desc>
			<rect x="0" y="90.1868" width="17.607" height="47.2382" class="st4"/>
			<text x="5.19" y="110.81" class="st5">C<tspan x="6.02" dy="1.2em" class="st6">0</tspan></text>		</g>
		<g id="shape36-39" transform="translate(368.204,-65.3684)">
			<title>Sheet.36</title>
			<desc>C1</desc>
			<rect x="0" y="90.1868" width="17.607" height="47.2382" class="st4"/>
			<text x="5.19" y="110.81" class="st5">C<tspan x="6.02" dy="1.2em" class="st6">1</tspan></text>		</g>
		<g id="shape37-43" transform="translate(225.354,-14.1732)">
			<title>Sheet.37</title>
			<desc>C1</desc>
			<path d="M0 137.43 L17.61 137.43 L17.61 90.19 L0 90.19 L0 137.43 Z" class="st12"/>
			<text x="5.19" y="110.81" class="st5">C<tspan x="6.02" dy="1.2em" class="st6">1</tspan></text>		</g>
		<g id="shape38-47" transform="translate(82.1807,-77.9734)">
			<title>Duration (horizontal) .38</title>
			<desc>connectionInterval 1</desc>
			<path d="M0 142.49 L0 133.49 L0 142.49 ZM142.89 142.49 L142.89 133.49 L142.89 142.49 Z" class="st7"/>
			<path d="M0 137.99 L142.89 137.99" class="st8"/>
			<path d="M0 142.49 L0 133.49" class="st9"/>
			<path d="" class="st9"/>
			<path d="M142.89 142.49 L142.89 133.49" class="st9"/>
			<path d="" class="st9"/>
			<text x="36.51" y="147.19" class="st11">connectionInterval 1</text>		</g>
		<g id="shape17-59" transform="translate(225.071,-77.9734)">
			<title>Duration (horizontal) .17</title>
			<desc>connectionInterval 1</desc>
			<path d="M0 142.49 L0 133.49 L0 142.49 ZM142.89 142.49 L142.89 133.49 L142.89 142.49 Z" class="st7"/>
			<path d="M0 137.99 L142.89 137.99" class="st8"/>
			<path d="M0 142.49 L0 133.49" class="st9"/>
			<path d="" class="st9"/>
			<path d="M142.89 142.49 L142.89 133.49" class="st9"/>
			<path d="" class="st9"/>
			<text x="35.35" y="147.19" class="st11">connectionInterval 1</text>		</g>
		<g id="shape40-71" transform="translate(231.024,-105.159)">
			<title>Duration (horizontal) .40</title>
			<desc>connectionInterval 0</desc>
			<path d="M0 142.49 L0 133.49 L0 142.49 ZM182.64 142.49 L182.64 133.49 L182.64 142.49 Z" class="st7"/>
			<path d="M0 137.99 L182.64 137.99" class="st8"/>
			<path d="M0 142.49 L0 133.49" class="st9"/>
			<path d="" class="st9"/>
			<path d="M182.64 142.49 L182.64 133.49" class="st9"/>
			<path d="" class="st9"/>
			<text x="54.91" y="148.33" class="st11">connectionInterval 0</text>		</g>
		<g id="shape13-83" transform="translate(48.189,-59.2699)">
			<title>Duration (horizontal) .13</title>
			<desc>tevent-C0</desc>
			<path d="M0 142.49 L0 133.49 L0 142.49 ZM33.17 142.49 L33.17 133.49 L33.17 142.49 Z" class="st7"/>
			<path d="M0 137.99 L33.17 137.99" class="st8"/>
			<path d="M0 142.49 L0 133.49" class="st9"/>
			<path d="" class="st9"/>
			<path d="M33.17 142.49 L33.17 133.49" class="st9"/>
			<path d="" class="st9"/>
			<text x="4.55" y="151.44" class="st11">t<tspan dy="0.287em" class="st13">event</tspan><tspan class="st13">-</tspan><tspan
						class="st13">C0</tspan></text>		</g>
	</g>
</svg>
