<?xml version="1.0" encoding="UTF-8" standalone="no"?>
<!DOCTYPE svg PUBLIC "-//W3C//DTD SVG 1.1//EN" "http://www.w3.org/Graphics/SVG/1.1/DTD/svg11.dtd">
<!-- Generated by Microsoft Visio, SVG Export multilink_sched_5_short_ce.svg Too short CE for PHY -->
<svg xmlns="http://www.w3.org/2000/svg" xmlns:xlink="http://www.w3.org/1999/xlink" xmlns:ev="http://www.w3.org/2001/xml-events"
		width="8.26772in" height="1.88976in" viewBox="0 0 595.276 136.063" xml:space="preserve" color-interpolation-filters="sRGB"
		class="st20">
	<style type="text/css">
	<![CDATA[
		.st1 {fill:#ffffff;stroke:none;stroke-linecap:round;stroke-linejoin:round;stroke-width:0.72}
		.st2 {fill:none;stroke:#7f7f7f;stroke-dasharray:3,3;stroke-width:1}
		.st3 {fill:#000000;font-family:Arial;font-size:0.833336em;font-weight:bold;letter-spacing:-0.0999997em}
		.st4 {font-size:1em}
		.st5 {fill:none;stroke:#000000;stroke-width:1}
		.st6 {marker-end:url(#mrkr1-35);marker-start:url(#mrkr1-33);stroke:#000000;stroke-width:0.5}
		.st7 {fill:#000000;fill-opacity:1;stroke:#000000;stroke-opacity:1;stroke-width:0.16556291390728}
		.st8 {fill:#000000;font-family:Arial;font-size:0.916672em;font-style:italic}
		.st9 {baseline-shift:-32.4944%;font-size:0.649888em}
		.st10 {fill:#ffffff}
		.st11 {stroke:#000000;stroke-width:0.5}
		.st12 {marker-end:url(#mrkr13-112);stroke:#000000;stroke-width:1}
		.st13 {fill:#000000;fill-opacity:1;stroke:#000000;stroke-opacity:1;stroke-width:0.28409090909091}
		.st14 {marker-end:url(#mrkr1-121);marker-start:url(#mrkr1-119);stroke:#000000;stroke-width:0.75}
		.st15 {stroke:#000000;stroke-width:0.75}
		.st16 {fill:#000000;fill-opacity:1;stroke:#000000;stroke-opacity:1;stroke-width:0.22935779816514}
		.st17 {fill:#000000;font-family:Arial;font-size:0.833336em}
		.st18 {stroke:#000000;stroke-linecap:round;stroke-linejoin:round;stroke-width:0.5}
		.st19 {stroke:#4677bf;stroke-linecap:round;stroke-linejoin:round;stroke-width:0.24}
		.st20 {fill:none;fill-rule:evenodd;font-size:12px;overflow:visible;stroke-linecap:square;stroke-miterlimit:3}
	]]>
	</style>

	<defs id="Markers">
		<g id="lend1">
			<path d="M 1 -1 L 0 0 L 1 1 " style="stroke-linecap:round;stroke-linejoin:round;fill:none"/>
		</g>
		<marker id="mrkr1-33" class="st7" orient="auto" markerUnits="strokeWidth" overflow="visible">
			<use xlink:href="#lend1" transform="scale(6.04) "/>
		</marker>
		<marker id="mrkr1-35" class="st7" orient="auto" markerUnits="strokeWidth" overflow="visible">
			<use xlink:href="#lend1" transform="scale(-6.04,-6.04) "/>
		</marker>
		<g id="lend13">
			<path d="M 3 1 L 0 0 L 3 -1 L 3 1 " style="stroke:none"/>
		</g>
		<marker id="mrkr13-112" class="st13" refX="-10.56" orient="auto" markerUnits="strokeWidth" overflow="visible">
			<use xlink:href="#lend13" transform="scale(-3.52,-3.52) "/>
		</marker>
		<marker id="mrkr1-119" class="st16" orient="auto" markerUnits="strokeWidth" overflow="visible">
			<use xlink:href="#lend1" transform="scale(4.36) "/>
		</marker>
		<marker id="mrkr1-121" class="st16" orient="auto" markerUnits="strokeWidth" overflow="visible">
			<use xlink:href="#lend1" transform="scale(-4.36,-4.36) "/>
		</marker>
	</defs>
	<g>
		<title>VBackground-1</title>
		<g id="shape1000-1">
			<title>Solid.1000</title>
			<rect x="0" y="0" width="595.276" height="136.063" class="st1"/>
		</g>
	</g>
	<g>
		<title>Too short CE for PHY</title>
		<g id="shape244-3" transform="translate(435.582,-37.1154)">
			<title>Sheet.244</title>
			<desc>C 2</desc>
			<path d="M0 136.06 L61.22 136.06 L61.22 76.6 L0 76.6 L0 136.06 Z" class="st2"/>
			<text x="27.5" y="103.33" class="st3">C <tspan x="28.33" dy="1.2em" class="st4">2</tspan></text>		</g>
		<g id="shape243-7" transform="translate(330.636,-37.1154)">
			<title>Sheet.243</title>
			<desc>C 0</desc>
			<path d="M0 136.06 L61.22 136.06 L61.22 76.6 L0 76.6 L0 136.06 Z" class="st2"/>
			<text x="27.5" y="103.33" class="st3">C <tspan x="28.33" dy="1.2em" class="st4">0</tspan></text>		</g>
		<g id="shape240-11" transform="translate(383.109,-37.1154)">
			<title>Sheet.240</title>
			<desc>C 1</desc>
			<rect x="0" y="76.6044" width="61.2187" height="59.4586" class="st5"/>
			<text x="27.5" y="103.33" class="st3">C <tspan x="28.33" dy="1.2em" class="st4">1</tspan></text>		</g>
		<g id="shape233-15" transform="translate(103.252,-37.1154)">
			<title>Sheet.233</title>
			<desc>C 1</desc>
			<path d="M0 136.06 L61.22 136.06 L61.22 76.6 L0 76.6 L0 136.06 Z" class="st2"/>
			<text x="27.5" y="103.33" class="st3">C <tspan x="28.33" dy="1.2em" class="st4">1</tspan></text>		</g>
		<g id="shape220-19" transform="translate(50.7788,-37.1154)">
			<title>Sheet.220</title>
			<desc>C 0</desc>
			<rect x="0" y="76.6044" width="61.2187" height="59.4586" class="st5"/>
			<text x="27.5" y="103.33" class="st3">C <tspan x="28.33" dy="1.2em" class="st4">0</tspan></text>		</g>
		<g id="shape234-23" transform="translate(155.725,-37.1154)">
			<title>Sheet.234</title>
			<desc>C 2</desc>
			<rect x="0" y="76.6044" width="61.2187" height="59.4586" class="st5"/>
			<text x="27.5" y="103.33" class="st3">C <tspan x="28.33" dy="1.2em" class="st4">2</tspan></text>		</g>
		<g id="shape288-27" transform="translate(50.7788,-29.4678)">
			<title>Duration (horizontal) .288</title>
			<desc>tevent-C0</desc>
			<path d="M0 136.34 L52.47 136.34" class="st6"/>
			<text x="10.45" y="151.01" class="st8">t<tspan dy="0.287em" class="st9">event</tspan><tspan class="st9">-</tspan><tspan
						class="st9">C0</tspan></text>		</g>
		<g id="shape289-40" transform="translate(155.725,-29.4678)">
			<title>Duration (horizontal) .289</title>
			<desc>tevent-C2</desc>
			<path d="M0 136.34 L52.47 136.34" class="st6"/>
			<text x="10.45" y="151.01" class="st8">t<tspan dy="0.287em" class="st9">event</tspan><tspan class="st9">-</tspan><tspan
						class="st9">C</tspan><tspan class="st9">2</tspan></text>		</g>
		<g id="shape290-52" transform="translate(103.252,-39.3983)">
			<title>Duration (horizontal) .290</title>
			<desc>tevent-C1</desc>
			<path d="M0 150.76 L0 141.76 L0 150.76 ZM52.47 150.76 L52.47 141.76 L52.47 150.76 Z" class="st10"/>
			<path d="M0 146.26 L52.47 146.26" class="st6"/>
			<path d="M0 150.76 L0 141.76" class="st11"/>
			<path d="" class="st11"/>
			<path d="M52.47 150.76 L52.47 141.76" class="st11"/>
			<path d="" class="st11"/>
			<text x="13.36" y="160.88" class="st8">t<tspan dy="0.287em" class="st9">event</tspan><tspan class="st9">-</tspan><tspan
						class="st9">C</tspan><tspan class="st9">1</tspan></text>		</g>
		<g id="shape322-68" transform="translate(330.876,-29.4678)">
			<title>Duration (horizontal) .322</title>
			<desc>tevent-C0</desc>
			<path d="M0 136.34 L52.47 136.34" class="st6"/>
			<text x="10.45" y="151.01" class="st8">t<tspan dy="0.287em" class="st9">event</tspan><tspan class="st9">-</tspan><tspan
						class="st9">C0</tspan></text>		</g>
		<g id="shape323-79" transform="translate(435.823,-29.4678)">
			<title>Duration (horizontal) .323</title>
			<desc>tevent-C2</desc>
			<path d="M0 136.34 L52.47 136.34" class="st6"/>
			<text x="10.45" y="151.01" class="st8">t<tspan dy="0.287em" class="st9">event</tspan><tspan class="st9">-</tspan><tspan
						class="st9">C</tspan><tspan class="st9">2</tspan></text>		</g>
		<g id="shape324-91" transform="translate(383.109,-39.3983)">
			<title>Duration (horizontal) .324</title>
			<desc>tevent-C1</desc>
			<path d="M0 150.76 L0 141.76 L0 150.76 ZM52.47 150.76 L52.47 141.76 L52.47 150.76 Z" class="st10"/>
			<path d="M0 146.26 L52.47 146.26" class="st6"/>
			<path d="M0 150.76 L0 141.76" class="st11"/>
			<path d="" class="st11"/>
			<path d="M52.47 150.76 L52.47 141.76" class="st11"/>
			<path d="" class="st11"/>
			<text x="13.36" y="160.88" class="st8">t<tspan dy="0.287em" class="st9">event</tspan><tspan class="st9">-</tspan><tspan
						class="st9">C</tspan><tspan class="st9">1</tspan></text>		</g>
		<g id="shape218-107" transform="translate(39.1181,-37.1154)">
			<title>Sheet.218</title>
			<path d="M0 136.06 L502.51 136.06" class="st12"/>
		</g>
		<g id="shape221-113" transform="translate(50.7788,-114.692)">
			<title>Duration (horizontal) .221</title>
			<desc>Connection Interval</desc>
			<path d="M0 141.12 L0 132.12 L0 141.12 ZM279.86 141.12 L279.86 132.12 L279.86 141.12 Z" class="st10"/>
			<path d="M0 136.62 L279.86 136.62" class="st14"/>
			<path d="M0 141.12 L0 132.12" class="st15"/>
			<path d="" class="st15"/>
			<path d="M279.86 141.12 L279.86 132.12" class="st15"/>
			<path d="" class="st15"/>
			<text x="96.96" y="133.63" class="st17">Connection Interval</text>		</g>
		<g id="shape283-127" transform="translate(466.825,98.9476) rotate(90)">
			<title>Sheet.283</title>
			<path d="M0 136.06 L15.86 136.06" class="st18"/>
		</g>
		<g id="shape284-130" transform="translate(519.299,98.9476) rotate(90)">
			<title>Sheet.284</title>
			<path d="M0 136.06 L15.86 136.06" class="st18"/>
		</g>
		<g id="shape285-133" transform="translate(571.772,98.9476) rotate(90)">
			<title>Sheet.285</title>
			<path d="M0 136.06 L15.86 136.06" class="st18"/>
		</g>
		<g id="shape286-136" transform="translate(624.245,98.9476) rotate(90)">
			<title>Sheet.286</title>
			<path d="M0 136.06 L15.86 136.06" class="st18"/>
		</g>
		<g id="shape291-139" transform="translate(186.842,98.9476) rotate(90)">
			<title>Sheet.291</title>
			<path d="M0 136.06 L15.86 136.06" class="st18"/>
		</g>
		<g id="shape292-142" transform="translate(239.315,98.9476) rotate(90)">
			<title>Sheet.292</title>
			<path d="M0 136.06 L15.86 136.06" class="st18"/>
		</g>
		<g id="shape293-145" transform="translate(291.788,98.9476) rotate(90)">
			<title>Sheet.293</title>
			<path d="M0 136.06 L15.86 136.06" class="st18"/>
		</g>
		<g id="shape294-148" transform="translate(344.261,98.9476) rotate(90)">
			<title>Sheet.294</title>
			<path d="M0 136.06 L15.86 136.06" class="st18"/>
		</g>
		<g id="shape296-151" transform="translate(193.421,-103.635)">
			<title>Dynamic connector</title>
			<path d="M-7.09 143.12 L-7.09 143.17" class="st19"/>
		</g>
	</g>
</svg>
