<?xml version="1.0" encoding="UTF-8" standalone="no"?>
<!DOCTYPE svg PUBLIC "-//W3C//DTD SVG 1.1//EN" "http://www.w3.org/Graphics/SVG/1.1/DTD/svg11.dtd">
<!-- Generated by Microsoft Visio, SVG Export multilink_sched_3_max_conn_min_interval.svg Page-1 -->
<svg xmlns="http://www.w3.org/2000/svg" xmlns:xlink="http://www.w3.org/1999/xlink" xmlns:ev="http://www.w3.org/2001/xml-events"
		width="8.26772in" height="1.88976in" viewBox="0 0 595.276 136.063" xml:space="preserve" color-interpolation-filters="sRGB"
		class="st17">
	<style type="text/css">
	<![CDATA[
		.st1 {fill:#ffffff;stroke:none;stroke-linecap:round;stroke-linejoin:round;stroke-width:0.72}
		.st2 {marker-end:url(#mrkr13-8);stroke:#000000;stroke-linecap:round;stroke-linejoin:round;stroke-width:0.72}
		.st3 {fill:#000000;fill-opacity:1;stroke:#000000;stroke-opacity:1;stroke-width:0.22222222222222}
		.st4 {fill:none;stroke:#000000;stroke-linecap:round;stroke-linejoin:round;stroke-width:0.72}
		.st5 {fill:#000000;font-family:Arial;font-size:0.833336em}
		.st6 {font-size:1em}
		.st7 {fill:none;stroke:none;stroke-linecap:round;stroke-linejoin:round;stroke-width:0.72}
		.st8 {fill:#000000;font-family:Arial;font-size:1.99999em}
		.st9 {fill:none}
		.st10 {marker-end:url(#mrkr12-31);marker-start:url(#mrkr12-29);stroke:#000000;stroke-linecap:round;stroke-linejoin:round;stroke-width:0.24}
		.st11 {stroke:#000000;stroke-linecap:round;stroke-linejoin:round;stroke-width:0.24}
		.st12 {fill:#000000;fill-opacity:1;stroke:#000000;stroke-opacity:1;stroke-width:0.08695652173913}
		.st13 {font-size:0.799995em}
		.st14 {baseline-shift:-25.9949%;font-size:0.519899em}
		.st15 {fill:#000000;font-family:Arial;font-size:0.666664em}
		.st16 {baseline-shift:-32.4939%;font-size:0.649878em}
		.st17 {fill:none;fill-rule:evenodd;font-size:12px;overflow:visible;stroke-linecap:square;stroke-miterlimit:3}
	]]>
	</style>

	<defs id="Markers">
		<g id="lend13">
			<path d="M 3 1 L 0 0 L 3 -1 L 3 1 " style="stroke:none"/>
		</g>
		<marker id="mrkr13-8" class="st3" refX="-13.5" orient="auto" markerUnits="strokeWidth" overflow="visible">
			<use xlink:href="#lend13" transform="scale(-4.5,-4.5) "/>
		</marker>
		<g id="lend12">
			<path d="M 3 1 L 0 0 L 3 -1 " style="stroke-linecap:round;stroke-linejoin:round;fill:none"/>
		</g>
		<marker id="mrkr12-29" class="st12" orient="auto" markerUnits="strokeWidth" overflow="visible">
			<use xlink:href="#lend12" transform="scale(11.5) "/>
		</marker>
		<marker id="mrkr12-31" class="st12" orient="auto" markerUnits="strokeWidth" overflow="visible">
			<use xlink:href="#lend12" transform="scale(-11.5,-11.5) "/>
		</marker>
	</defs>
	<g>
		<title>VBackground-1</title>
		<g id="shape1000-1">
			<title>Solid.1000</title>
			<rect x="0" y="0" width="595.276" height="136.063" class="st1"/>
		</g>
	</g>
	<g>
		<title>Page-1</title>
		<g id="shape4-3" transform="translate(56.5922,-44.0968)">
			<title>Sheet.4</title>
			<path d="M0 136.06 L419.3 136.06" class="st2"/>
		</g>
		<g id="shape7-9" transform="translate(83.0208,-44.1398)">
			<title>Sheet.7</title>
			<desc>C0</desc>
			<rect x="0" y="82.3685" width="17.3252" height="53.6945" class="st4"/>
			<text x="5.05" y="106.22" class="st5">C<tspan x="5.88" dy="1.2em" class="st6">0</tspan></text>		</g>
		<g id="shape10-13" transform="translate(438.271,-32.6505)">
			<title>Sheet.10</title>
			<desc>time</desc>
			<rect x="0" y="120.063" width="142.832" height="16" class="st7"/>
			<text x="61.97" y="131.06" class="st5">time</text>		</g>
		<g id="shape12-16" transform="translate(344.232,-62.9398)">
			<title>Sheet.12</title>
			<desc>…</desc>
			<rect x="0" y="120.063" width="50.6096" height="16" class="st7"/>
			<text x="13.3" y="135.26" class="st8">…</text>		</g>
		<g id="shape16-19" transform="translate(319.178,-44.1303)">
			<title>Sheet.16</title>
			<desc>C0</desc>
			<rect x="0" y="82.3685" width="17.3252" height="53.6945" class="st4"/>
			<text x="5.05" y="106.22" class="st5">C<tspan x="5.88" dy="1.2em" class="st6">0</tspan></text>		</g>
		<g id="shape19-23" transform="translate(83.065,-104.132)">
			<title>Duration (horizontal) .19</title>
			<desc>connectionInterval (= 8*tevent)</desc>
			<path d="M0 141.12 L0 132.12 L0 141.12 ZM236.07 141.12 L236.07 132.12 L236.07 141.12 Z" class="st9"/>
			<path d="M0 136.62 L236.07 136.62" class="st10"/>
			<path d="M0 141.12 L0 132.12" class="st11"/>
			<path d="" class="st11"/>
			<path d="M236.07 141.12 L236.07 132.12" class="st11"/>
			<path d="" class="st11"/>
			<text x="56.67" y="130.84" class="st5">connectionInterval (= 8*<tspan class="st13">t</tspan><tspan dy="0.287em"
						class="st14">event</tspan><tspan dy="0.149em" class="st6">)</tspan></text>		</g>
		<g id="shape8-40" transform="translate(83.0513,-40.0374)">
			<title>Duration (horizontal) .8</title>
			<desc>tevent</desc>
			<path d="M0 132.12 L0 141.12 L0 132.12 ZM30.16 141.12 L30.16 132.12 L30.16 141.12 Z" class="st9"/>
			<path d="M0 136.62 L30.16 136.62" class="st10"/>
			<path d="M0 132.12 L0 141.12" class="st11"/>
			<path d="" class="st11"/>
			<path d="M30.16 141.12 L30.16 132.12" class="st11"/>
			<path d="" class="st11"/>
			<text x="7.27" y="150.08" class="st15">t<tspan dy="0.287em" class="st16">event</tspan></text>		</g>
		<g id="shape20-53" transform="translate(113.21,-44.2913)">
			<title>Sheet.20</title>
			<desc>C1</desc>
			<rect x="0" y="82.3685" width="17.3252" height="53.6945" class="st4"/>
			<text x="5.05" y="106.22" class="st5">C<tspan x="5.88" dy="1.2em" class="st6">1</tspan></text>		</g>
		<g id="shape21-57" transform="translate(143.478,-43.9183)">
			<title>Sheet.21</title>
			<desc>C2</desc>
			<rect x="0" y="82.3685" width="17.3252" height="53.6945" class="st4"/>
			<text x="5.05" y="106.22" class="st5">C<tspan x="5.88" dy="1.2em" class="st6">2</tspan></text>		</g>
		<g id="shape22-61" transform="translate(172.118,-43.9183)">
			<title>Sheet.22</title>
			<desc>C3</desc>
			<rect x="0" y="82.3685" width="17.3252" height="53.6945" class="st4"/>
			<text x="5.05" y="106.22" class="st5">C<tspan x="5.88" dy="1.2em" class="st6">3</tspan></text>		</g>
		<g id="shape23-65" transform="translate(202.853,-43.9183)">
			<title>Sheet.23</title>
			<desc>C4</desc>
			<rect x="0" y="82.3685" width="17.3252" height="53.6945" class="st4"/>
			<text x="5.05" y="106.22" class="st5">C<tspan x="5.88" dy="1.2em" class="st6">4</tspan></text>		</g>
		<g id="shape24-69" transform="translate(231.539,-43.9183)">
			<title>Sheet.24</title>
			<desc>C5</desc>
			<rect x="0" y="82.3685" width="17.3252" height="53.6945" class="st4"/>
			<text x="5.05" y="106.22" class="st5">C<tspan x="5.88" dy="1.2em" class="st6">5</tspan></text>		</g>
		<g id="shape25-73" transform="translate(260.827,-43.933)">
			<title>Sheet.25</title>
			<desc>C6</desc>
			<rect x="0" y="82.3685" width="17.3252" height="53.6945" class="st4"/>
			<text x="5.05" y="106.22" class="st5">C<tspan x="5.88" dy="1.2em" class="st6">6</tspan></text>		</g>
		<g id="shape26-77" transform="translate(289.98,-43.9256)">
			<title>Sheet.26</title>
			<desc>C7</desc>
			<rect x="0" y="82.3685" width="17.3252" height="53.6945" class="st4"/>
			<text x="5.05" y="106.22" class="st5">C<tspan x="5.88" dy="1.2em" class="st6">7</tspan></text>		</g>
		<g id="shape31-81" transform="translate(136.56,-14.1732)">
			<title>Sheet.31</title>
			<desc>Note: All connections have same (minimum) tevent</desc>
			<rect x="0" y="120.063" width="310.06" height="16" class="st7"/>
			<text x="48.35" y="131.06" class="st5">Note: All connections have same (minimum) <tspan class="st13">t</tspan><tspan
						dy="0.287em" class="st14">event</tspan></text>		</g>
	</g>
</svg>
