<?xml version="1.0" encoding="UTF-8" standalone="no"?>
<!DOCTYPE svg PUBLIC "-//W3C//DTD SVG 1.1//EN" "http://www.w3.org/Graphics/SVG/1.1/DTD/svg11.dtd">
<!-- Generated by Microsoft Visio, SVG Export multilink_sched_6_short_ce_after_phy_update.svg Too short CE for PHY -->
<svg xmlns="http://www.w3.org/2000/svg" xmlns:xlink="http://www.w3.org/1999/xlink" xmlns:ev="http://www.w3.org/2001/xml-events"
		width="8.26772in" height="1.88976in" viewBox="0 0 595.276 136.063" xml:space="preserve" color-interpolation-filters="sRGB"
		class="st19">
	<style type="text/css">
	<![CDATA[
		.st1 {fill:#ffffff;stroke:none;stroke-linecap:round;stroke-linejoin:round;stroke-width:0.72}
		.st2 {fill:none;stroke:#7f7f7f;stroke-dasharray:3,3;stroke-width:1}
		.st3 {fill:#000000;font-family:Arial;font-size:0.833336em;font-weight:bold;letter-spacing:-0.0999997em}
		.st4 {font-size:1em}
		.st5 {fill:none;stroke:#000000;stroke-width:1}
		.st6 {marker-end:url(#mrkr1-31);marker-start:url(#mrkr1-29);stroke:#000000;stroke-width:0.5}
		.st7 {fill:#000000;fill-opacity:1;stroke:#000000;stroke-opacity:1;stroke-width:0.16556291390728}
		.st8 {fill:#000000;font-family:Arial;font-size:0.916672em;font-style:italic}
		.st9 {baseline-shift:-32.4944%;font-size:0.649888em}
		.st10 {fill:#ffffff}
		.st11 {stroke:#000000;stroke-width:0.5}
		.st12 {marker-end:url(#mrkr13-108);stroke:#000000;stroke-width:1}
		.st13 {fill:#000000;fill-opacity:1;stroke:#000000;stroke-opacity:1;stroke-width:0.28409090909091}
		.st14 {marker-end:url(#mrkr1-117);marker-start:url(#mrkr1-115);stroke:#000000;stroke-width:0.75}
		.st15 {stroke:#000000;stroke-width:0.75}
		.st16 {fill:#000000;fill-opacity:1;stroke:#000000;stroke-opacity:1;stroke-width:0.22935779816514}
		.st17 {fill:#000000;font-family:Arial;font-size:0.833336em}
		.st18 {stroke:#000000;stroke-linecap:round;stroke-linejoin:round;stroke-width:0.5}
		.st19 {fill:none;fill-rule:evenodd;font-size:12px;overflow:visible;stroke-linecap:square;stroke-miterlimit:3}
	]]>
	</style>

	<defs id="Markers">
		<g id="lend1">
			<path d="M 1 -1 L 0 0 L 1 1 " style="stroke-linecap:round;stroke-linejoin:round;fill:none"/>
		</g>
		<marker id="mrkr1-29" class="st7" orient="auto" markerUnits="strokeWidth" overflow="visible">
			<use xlink:href="#lend1" transform="scale(6.04) "/>
		</marker>
		<marker id="mrkr1-31" class="st7" orient="auto" markerUnits="strokeWidth" overflow="visible">
			<use xlink:href="#lend1" transform="scale(-6.04,-6.04) "/>
		</marker>
		<g id="lend13">
			<path d="M 3 1 L 0 0 L 3 -1 L 3 1 " style="stroke:none"/>
		</g>
		<marker id="mrkr13-108" class="st13" refX="-10.56" orient="auto" markerUnits="strokeWidth" overflow="visible">
			<use xlink:href="#lend13" transform="scale(-3.52,-3.52) "/>
		</marker>
		<marker id="mrkr1-115" class="st16" orient="auto" markerUnits="strokeWidth" overflow="visible">
			<use xlink:href="#lend1" transform="scale(4.36) "/>
		</marker>
		<marker id="mrkr1-117" class="st16" orient="auto" markerUnits="strokeWidth" overflow="visible">
			<use xlink:href="#lend1" transform="scale(-4.36,-4.36) "/>
		</marker>
	</defs>
	<g>
		<title>VBackground-1</title>
		<g id="shape1000-1">
			<title>Solid.1000</title>
			<rect x="0" y="0" width="595.276" height="136.063" class="st1"/>
		</g>
	</g>
	<g>
		<title>Too short CE for PHY</title>
		<g id="shape244-3" transform="translate(160.235,-36.5162)">
			<title>Sheet.244</title>
			<desc>C 2</desc>
			<path d="M0 136.06 L56.15 136.06 L56.15 76.6 L0 76.6 L0 136.06 Z" class="st2"/>
			<text x="24.96" y="103.33" class="st3">C <tspan x="25.79" dy="1.2em" class="st4">2</tspan></text>		</g>
		<g id="shape240-7" transform="translate(112.11,-36.5162)">
			<title>Sheet.240</title>
			<desc>C 1</desc>
			<rect x="0" y="76.6044" width="56.1453" height="59.4586" class="st5"/>
			<text x="24.96" y="103.33" class="st3">C <tspan x="25.79" dy="1.2em" class="st4">1</tspan></text>		</g>
		<g id="shape233-11" transform="translate(368.775,-36.5161)">
			<title>Sheet.233</title>
			<desc>C 1</desc>
			<path d="M0 136.06 L56.15 136.06 L56.15 76.6 L0 76.6 L0 136.06 Z" class="st2"/>
			<text x="24.96" y="103.33" class="st3">C <tspan x="25.79" dy="1.2em" class="st4">1</tspan></text>		</g>
		<g id="shape220-15" transform="translate(63.9857,-36.5162)">
			<title>Sheet.220</title>
			<desc>C 0</desc>
			<rect x="0" y="76.6044" width="37.4302" height="59.4586" class="st5"/>
			<text x="15.6" y="103.33" class="st3">C <tspan x="16.43" dy="1.2em" class="st4">0</tspan></text>		</g>
		<g id="shape234-19" transform="translate(416.899,-36.5162)">
			<title>Sheet.234</title>
			<desc>C 2</desc>
			<rect x="0" y="76.6044" width="56.1453" height="59.4586" class="st5"/>
			<text x="24.96" y="103.33" class="st3">C <tspan x="25.79" dy="1.2em" class="st4">2</tspan></text>		</g>
		<g id="shape288-23" transform="translate(63.9857,-28.8686)">
			<title>Duration (horizontal) .288</title>
			<desc>tevent-C0</desc>
			<path d="M0 136.34 L48.12 136.34" class="st6"/>
			<text x="8.25" y="151.01" class="st8">t<tspan dy="0.287em" class="st9">event</tspan><tspan class="st9">-</tspan><tspan
						class="st9">C0</tspan></text>		</g>
		<g id="shape289-36" transform="translate(160.235,-28.8686)">
			<title>Duration (horizontal) .289</title>
			<desc>tevent-C2</desc>
			<path d="M0 136.34 L48.12 136.34" class="st6"/>
			<text x="8.25" y="151.01" class="st8">t<tspan dy="0.287em" class="st9">event</tspan><tspan class="st9">-</tspan><tspan
						class="st9">C</tspan><tspan class="st9">2</tspan></text>		</g>
		<g id="shape290-48" transform="translate(112.11,-38.5479)">
			<title>Duration (horizontal) .290</title>
			<desc>tevent-C1</desc>
			<path d="M0 150.59 L0 141.59 L0 150.59 ZM48.12 150.59 L48.12 141.59 L48.12 150.59 Z" class="st10"/>
			<path d="M0 146.09 L48.12 146.09" class="st6"/>
			<path d="M0 150.59 L0 141.59" class="st11"/>
			<path d="" class="st11"/>
			<path d="M48.12 150.59 L48.12 141.59" class="st11"/>
			<path d="" class="st11"/>
			<text x="10.92" y="160.88" class="st8">t<tspan dy="0.287em" class="st9">event</tspan><tspan class="st9">-</tspan><tspan
						class="st9">C</tspan><tspan class="st9">1</tspan></text>		</g>
		<g id="shape322-64" transform="translate(320.871,-28.8686)">
			<title>Duration (horizontal) .322</title>
			<desc>tevent-C0</desc>
			<path d="M0 136.34 L48.12 136.34" class="st6"/>
			<text x="8.25" y="151.01" class="st8">t<tspan dy="0.287em" class="st9">event</tspan><tspan class="st9">-</tspan><tspan
						class="st9">C0</tspan></text>		</g>
		<g id="shape323-75" transform="translate(417.12,-28.8686)">
			<title>Duration (horizontal) .323</title>
			<desc>tevent-C2</desc>
			<path d="M0 136.34 L48.12 136.34" class="st6"/>
			<text x="8.25" y="151.01" class="st8">t<tspan dy="0.287em" class="st9">event</tspan><tspan class="st9">-</tspan><tspan
						class="st9">C</tspan><tspan class="st9">2</tspan></text>		</g>
		<g id="shape324-87" transform="translate(368.775,-38.5479)">
			<title>Duration (horizontal) .324</title>
			<desc>tevent-C1</desc>
			<path d="M0 150.48 L0 141.48 L0 150.48 ZM48.12 150.48 L48.12 141.48 L48.12 150.48 Z" class="st10"/>
			<path d="M0 145.98 L48.12 145.98" class="st6"/>
			<path d="M0 150.48 L0 141.48" class="st11"/>
			<path d="" class="st11"/>
			<path d="M48.12 150.48 L48.12 141.48" class="st11"/>
			<path d="" class="st11"/>
			<text x="10.92" y="160.88" class="st8">t<tspan dy="0.287em" class="st9">event</tspan><tspan class="st9">-</tspan><tspan
						class="st9">C</tspan><tspan class="st9">1</tspan></text>		</g>
		<g id="shape218-103" transform="translate(53.2913,-36.5162)">
			<title>Sheet.218</title>
			<path d="M0 136.06 L459.99 136.06" class="st12"/>
		</g>
		<g id="shape221-109" transform="translate(63.9857,-114.092)">
			<title>Duration (horizontal) .221</title>
			<desc>Connection Interval</desc>
			<path d="M0 141.12 L0 132.12 L0 141.12 ZM256.66 141.12 L256.66 132.12 L256.66 141.12 Z" class="st10"/>
			<path d="M0 136.62 L256.66 136.62" class="st14"/>
			<path d="M0 141.12 L0 132.12" class="st15"/>
			<path d="" class="st15"/>
			<path d="M256.66 141.12 L256.66 132.12" class="st15"/>
			<path d="" class="st15"/>
			<text x="85.36" y="133.63" class="st17">Connection Interval</text>		</g>
		<g id="shape283-123" transform="translate(456.829,99.5467) rotate(90)">
			<title>Sheet.283</title>
			<path d="M0 136.06 L15.86 136.06" class="st18"/>
		</g>
		<g id="shape284-126" transform="translate(504.954,99.5467) rotate(90)">
			<title>Sheet.284</title>
			<path d="M0 136.06 L15.86 136.06" class="st18"/>
		</g>
		<g id="shape285-129" transform="translate(553.078,99.5467) rotate(90)">
			<title>Sheet.285</title>
			<path d="M0 136.06 L15.86 136.06" class="st18"/>
		</g>
		<g id="shape286-132" transform="translate(601.203,99.5467) rotate(90)">
			<title>Sheet.286</title>
			<path d="M0 136.06 L15.86 136.06" class="st18"/>
		</g>
		<g id="shape291-135" transform="translate(200.049,99.5467) rotate(90)">
			<title>Sheet.291</title>
			<path d="M0 136.06 L15.86 136.06" class="st18"/>
		</g>
		<g id="shape292-138" transform="translate(248.173,99.5467) rotate(90)">
			<title>Sheet.292</title>
			<path d="M0 136.06 L15.86 136.06" class="st18"/>
		</g>
		<g id="shape293-141" transform="translate(296.298,99.5467) rotate(90)">
			<title>Sheet.293</title>
			<path d="M0 136.06 L15.86 136.06" class="st18"/>
		</g>
		<g id="shape294-144" transform="translate(344.422,99.5467) rotate(90)">
			<title>Sheet.294</title>
			<path d="M0 136.06 L15.86 136.06" class="st18"/>
		</g>
		<g id="shape326-147" transform="translate(320.65,-36.5162)">
			<title>Sheet.326</title>
			<desc>C 0</desc>
			<rect x="0" y="76.6044" width="37.4302" height="59.4586" class="st5"/>
			<text x="15.6" y="103.33" class="st3">C <tspan x="16.43" dy="1.2em" class="st4">0</tspan></text>		</g>
	</g>
</svg>
