<?xml version="1.0" encoding="UTF-8" standalone="no"?>
<!DOCTYPE svg PUBLIC "-//W3C//DTD SVG 1.1//EN" "http://www.w3.org/Graphics/SVG/1.1/DTD/svg11.dtd">
<!-- Generated by Microsoft Visio, SVG Export peripheral_conn_setup_and_conn_collision.svg Page-1 -->
<svg xmlns="http://www.w3.org/2000/svg" xmlns:xlink="http://www.w3.org/1999/xlink" xmlns:ev="http://www.w3.org/2001/xml-events"
		width="8.29333in" height="1.92646in" viewBox="0 0 597.12 138.705" xml:space="preserve" color-interpolation-filters="sRGB"
		class="st17">
	<style type="text/css">
	<![CDATA[
		.st1 {fill:#ffffff;stroke:none;stroke-linecap:round;stroke-linejoin:round;stroke-width:0.72}
		.st2 {fill:none;stroke:#000000;stroke-dasharray:5.04,3.6;stroke-linecap:round;stroke-linejoin:round;stroke-width:0.72}
		.st3 {fill:#000000;font-family:Arial;font-size:0.833336em}
		.st4 {font-size:1em}
		.st5 {marker-end:url(#mrkr13-16);stroke:#000000;stroke-linecap:round;stroke-linejoin:round;stroke-width:0.72}
		.st6 {fill:#000000;fill-opacity:1;stroke:#000000;stroke-opacity:1;stroke-width:0.22222222222222}
		.st7 {fill:none;stroke:#000000;stroke-linecap:round;stroke-linejoin:round;stroke-width:0.72}
		.st8 {fill:none}
		.st9 {marker-end:url(#mrkr12-31);marker-start:url(#mrkr12-29);stroke:#000000;stroke-linecap:round;stroke-linejoin:round;stroke-width:0.24}
		.st10 {stroke:#000000;stroke-linecap:round;stroke-linejoin:round;stroke-width:0.24}
		.st11 {fill:#000000;fill-opacity:1;stroke:#000000;stroke-opacity:1;stroke-width:0.08695652173913}
		.st12 {fill:#000000;font-family:Arial;font-size:0.666664em}
		.st13 {fill:none;stroke:#000000;stroke-dasharray:10.8,6.48;stroke-linecap:round;stroke-linejoin:round;stroke-width:0.72}
		.st14 {marker-end:url(#mrkr1-78);stroke:#000000;stroke-linecap:round;stroke-linejoin:round;stroke-width:0.72}
		.st15 {fill:none;stroke:none;stroke-linecap:round;stroke-linejoin:round;stroke-width:0.72}
		.st16 {fill:#000000;font-family:Arial;font-size:0.499992em}
		.st17 {fill:none;fill-rule:evenodd;font-size:12px;overflow:visible;stroke-linecap:square;stroke-miterlimit:3}
	]]>
	</style>

	<defs id="Markers">
		<g id="lend13">
			<path d="M 3 1 L 0 0 L 3 -1 L 3 1 " style="stroke:none"/>
		</g>
		<marker id="mrkr13-16" class="st6" refX="-13.5" orient="auto" markerUnits="strokeWidth" overflow="visible">
			<use xlink:href="#lend13" transform="scale(-4.5,-4.5) "/>
		</marker>
		<g id="lend12">
			<path d="M 3 1 L 0 0 L 3 -1 " style="stroke-linecap:round;stroke-linejoin:round;fill:none"/>
		</g>
		<marker id="mrkr12-29" class="st11" orient="auto" markerUnits="strokeWidth" overflow="visible">
			<use xlink:href="#lend12" transform="scale(11.5) "/>
		</marker>
		<marker id="mrkr12-31" class="st11" orient="auto" markerUnits="strokeWidth" overflow="visible">
			<use xlink:href="#lend12" transform="scale(-11.5,-11.5) "/>
		</marker>
		<g id="lend1">
			<path d="M 1 -1 L 0 0 L 1 1 " style="stroke-linecap:round;stroke-linejoin:round;fill:none"/>
		</g>
		<marker id="mrkr1-78" class="st6" orient="auto" markerUnits="strokeWidth" overflow="visible">
			<use xlink:href="#lend1" transform="scale(-4.5,-4.5) "/>
		</marker>
	</defs>
	<g>
		<title>VBackground-1</title>
		<g id="shape1000-1">
			<title>Solid.1000</title>
			<rect x="0" y="0" width="597.12" height="138.705" class="st1"/>
		</g>
	</g>
	<g>
		<title>Page-1</title>
		<g id="shape49-3" transform="translate(404.59,-9.717)">
			<title>Sheet.49</title>
			<desc>P</desc>
			<path d="M0 138.71 L12.56 138.71 L12.56 99.81 L0 99.81 L0 138.71 Z" class="st2"/>
			<text x="2.95" y="122.26" class="st3">P</text>		</g>
		<g id="shape51-6" transform="translate(296.681,-10.6843)">
			<title>Sheet.51</title>
			<desc>ADV</desc>
			<path d="M0 138.71 L12.56 138.71 L12.56 99.81 L0 99.81 L0 138.71 Z" class="st2"/>
			<text x="2.95" y="110.26" class="st3">A<tspan x="2.67" dy="1.2em" class="st4">D</tspan><tspan x="2.95" dy="1.2em"
						class="st4">V</tspan></text>		</g>
		<g id="shape1-11" transform="translate(25.6033,-76.6625)">
			<title>Sheet.1</title>
			<path d="M0 138.71 L528.07 138.71" class="st5"/>
		</g>
		<g id="shape2-17" transform="translate(44.8467,-76.6625)">
			<title>Sheet.2</title>
			<desc>ADV</desc>
			<rect x="0" y="99.8126" width="119.33" height="38.8926" class="st7"/>
			<text x="49.38" y="122.26" class="st3">ADV</text>		</g>
		<g id="shape3-20" transform="translate(295.523,-76.6625)">
			<title>Sheet.3</title>
			<desc>P</desc>
			<rect x="0" y="99.8126" width="17.607" height="38.8926" class="st7"/>
			<text x="5.47" y="122.26" class="st3">P</text>		</g>
		<g id="shape4-23" transform="translate(164.176,-120.753)">
			<title>Duration (horizontal) .8</title>
			<desc>transmitWindowDelay + WO</desc>
			<path d="M0 143.77 L0 134.77 L0 143.77 ZM131.35 143.77 L131.35 134.77 L131.35 143.77 Z" class="st8"/>
			<path d="M0 139.27 L131.35 139.27" class="st9"/>
			<path d="M0 143.77 L0 134.77" class="st10"/>
			<path d="" class="st10"/>
			<path d="M131.35 143.77 L131.35 134.77" class="st10"/>
			<path d="" class="st10"/>
			<text x="17.44" y="134.3" class="st12">transmitWindowDelay + WO</text>		</g>
		<g id="shape5-37" transform="translate(398.129,-76.7034)">
			<title>Sheet.5</title>
			<desc>ADV</desc>
			<rect x="0" y="99.8126" width="17.607" height="38.8926" class="st7"/>
			<text x="5.47" y="110.26" class="st3">A<tspan x="5.19" dy="1.2em" class="st4">D</tspan><tspan x="5.47" dy="1.2em"
						class="st4">V</tspan></text>		</g>
		<g id="shape7-42" transform="translate(146.569,-76.7116)">
			<title>Sheet.7</title>
			<desc>CREQ</desc>
			<path d="M0 138.71 L17.61 138.71 L17.61 99.81 L0 99.81 L0 138.71 Z" class="st13"/>
			<text x="5.91" y="107.26" class="st12">C<tspan x="5.91" dy="1.2em" class="st4">R</tspan><tspan x="6.14" dy="1.2em"
						class="st4">E</tspan><tspan x="5.69" dy="1.2em" class="st4">Q</tspan></text>		</g>
		<g id="shape8-48" transform="translate(127.326,-76.6576)">
			<title>Sheet.8</title>
			<desc>ADV</desc>
			<rect x="0" y="99.8126" width="17.607" height="38.8926" class="st7"/>
			<text x="5.47" y="110.26" class="st3">A<tspan x="5.19" dy="1.2em" class="st4">D</tspan><tspan x="5.47" dy="1.2em"
						class="st4">V</tspan></text>		</g>
		<g id="shape9-53" transform="translate(295.547,-71.4752)">
			<title>Duration (horizontal) .11</title>
			<desc>2*CI</desc>
			<path d="M0 143.77 L0 134.77 L0 143.77 ZM212.6 143.77 L212.6 134.77 L212.6 143.77 Z" class="st8"/>
			<path d="M0 139.27 L212.6 139.27" class="st9"/>
			<path d="M0 143.77 L0 134.77" class="st10"/>
			<path d="" class="st10"/>
			<path d="M212.6 143.77 L212.6 134.77" class="st10"/>
			<path d="" class="st10"/>
			<text x="98.71" y="151.31" class="st12">2*CI</text>		</g>
		<g id="shape10-65" transform="translate(508.326,-76.7072)">
			<title>Sheet.10</title>
			<desc>P</desc>
			<rect x="0" y="99.8126" width="17.607" height="38.8926" class="st7"/>
			<text x="5.47" y="122.26" class="st3">P</text>		</g>
		<g id="shape6-68" transform="translate(517.976,-9.717)">
			<title>Sheet.6</title>
			<desc>ADV</desc>
			<path d="M0 138.71 L12.56 138.71 L12.56 99.81 L0 99.81 L0 138.71 Z" class="st2"/>
			<text x="2.95" y="110.26" class="st3">A<tspan x="2.67" dy="1.2em" class="st4">D</tspan><tspan x="2.95" dy="1.2em"
						class="st4">V</tspan></text>		</g>
		<g id="shape52-73" transform="translate(104.377,82.9093) rotate(-90)">
			<title>Sheet.52</title>
			<path d="M0 138.71 L15.4 138.71" class="st14"/>
		</g>
		<g id="shape53-79" transform="translate(225.365,-34.5304)">
			<title>Sheet.53</title>
			<desc>Advertiser started again</desc>
			<rect x="0" y="116.706" width="35.4331" height="21.9988" class="st15"/>
			<text x="4.21" y="122.31" class="st16">Advertiser <tspan x="8.55" dy="1.2em" class="st4">started </tspan><tspan
						x="10.38" dy="1.2em" class="st4">again</tspan></text>		</g>
		<g id="shape54-84" transform="translate(264.342,-14.7314)">
			<title>Sheet.54</title>
			<path d="M0 138.71 L28.35 138.71" class="st14"/>
		</g>
		<g id="shape55-89" transform="translate(181.609,-4.46529)">
			<title>Sheet.55</title>
			<desc>First advertiser event blocked by peripheral P timing-event.</desc>
			<rect x="0" y="123.306" width="79.8975" height="15.3992" class="st15"/>
			<text x="11.94" y="125.61" class="st16">First advertiser event <tspan x="8.6" dy="1.2em" class="st4">blocked by </tspan>peripheral P <tspan
						x="22.78" dy="1.2em" class="st4">timing</tspan>-event.</text>		</g>
	</g>
</svg>
