<?xml version="1.0" encoding="UTF-8" standalone="no"?>
<!DOCTYPE svg PUBLIC "-//W3C//DTD SVG 1.1//EN" "http://www.w3.org/Graphics/SVG/1.1/DTD/svg11.dtd">
<!-- Generated by Microsoft Visio, SVG Export scanner_timing_4_always_after_conn.svg Page-1 -->
<svg xmlns="http://www.w3.org/2000/svg" xmlns:xlink="http://www.w3.org/1999/xlink" xmlns:ev="http://www.w3.org/2001/xml-events"
		width="8.26772in" height="1.88976in" viewBox="0 0 595.276 136.063" xml:space="preserve" color-interpolation-filters="sRGB"
		class="st13">
	<style type="text/css">
	<![CDATA[
		.st1 {fill:#ffffff;stroke:none;stroke-linecap:round;stroke-linejoin:round;stroke-width:0.72}
		.st2 {marker-end:url(#mrkr13-8);stroke:#000000;stroke-linecap:round;stroke-linejoin:round;stroke-width:0.72}
		.st3 {fill:#000000;fill-opacity:1;stroke:#000000;stroke-opacity:1;stroke-width:0.22222222222222}
		.st4 {fill:none;stroke:#000000;stroke-linecap:round;stroke-linejoin:round;stroke-width:0.72}
		.st5 {fill:#000000;font-family:Arial;font-size:0.833336em}
		.st6 {font-size:1em}
		.st7 {fill:none;stroke:none;stroke-linecap:round;stroke-linejoin:round;stroke-width:0.72}
		.st8 {fill:#000000;font-family:Arial;font-size:1.99999em}
		.st9 {fill:none}
		.st10 {marker-end:url(#mrkr12-30);marker-start:url(#mrkr12-28);stroke:#000000;stroke-linecap:round;stroke-linejoin:round;stroke-width:0.24}
		.st11 {stroke:#000000;stroke-linecap:round;stroke-linejoin:round;stroke-width:0.24}
		.st12 {fill:#000000;fill-opacity:1;stroke:#000000;stroke-opacity:1;stroke-width:0.08695652173913}
		.st13 {fill:none;fill-rule:evenodd;font-size:12px;overflow:visible;stroke-linecap:square;stroke-miterlimit:3}
	]]>
	</style>

	<defs id="Markers">
		<g id="lend13">
			<path d="M 3 1 L 0 0 L 3 -1 L 3 1 " style="stroke:none"/>
		</g>
		<marker id="mrkr13-8" class="st3" refX="-13.5" orient="auto" markerUnits="strokeWidth" overflow="visible">
			<use xlink:href="#lend13" transform="scale(-4.5,-4.5) "/>
		</marker>
		<g id="lend12">
			<path d="M 3 1 L 0 0 L 3 -1 " style="stroke-linecap:round;stroke-linejoin:round;fill:none"/>
		</g>
		<marker id="mrkr12-28" class="st12" orient="auto" markerUnits="strokeWidth" overflow="visible">
			<use xlink:href="#lend12" transform="scale(11.5) "/>
		</marker>
		<marker id="mrkr12-30" class="st12" orient="auto" markerUnits="strokeWidth" overflow="visible">
			<use xlink:href="#lend12" transform="scale(-11.5,-11.5) "/>
		</marker>
	</defs>
	<g>
		<title>VBackground-1</title>
		<g id="shape1000-1">
			<title>Solid.1000</title>
			<rect x="0" y="0" width="595.276" height="136.063" class="st1"/>
		</g>
	</g>
	<g>
		<title>Page-1</title>
		<g id="shape4-3" transform="translate(10.2458,-36.4951)">
			<title>Sheet.4</title>
			<path d="M0 136.06 L528.07 136.06" class="st2"/>
		</g>
		<g id="shape5-9" transform="translate(225.679,-36.446)">
			<title>Sheet.5</title>
			<desc>Scanner</desc>
			<rect x="0" y="68.3532" width="101.626" height="67.7098" class="st4"/>
			<text x="32.19" y="105.21" class="st5">Scanner</text>		</g>
		<g id="shape7-12" transform="translate(29.4892,-36.5493)">
			<title>Sheet.7</title>
			<desc>C0</desc>
			<rect x="0" y="68.3532" width="12.615" height="67.7098" class="st4"/>
			<text x="4" y="99.21" class="st5">C<tspan x="4" dy="1.2em" class="st6">0</tspan></text>		</g>
		<g id="shape10-16" transform="translate(511.189,-26.8358)">
			<title>Sheet.10</title>
			<desc>time</desc>
			<rect x="0" y="115.887" width="104" height="20.1763" class="st7"/>
			<text x="42.55" y="128.97" class="st5">time</text>		</g>
		<g id="shape12-19" transform="translate(364.576,-60.2564)">
			<title>Sheet.12</title>
			<desc>…</desc>
			<rect x="0" y="115.887" width="36.8504" height="20.1763" class="st7"/>
			<text x="6.43" y="133.18" class="st8">…</text>		</g>
		<g id="shape15-22" transform="translate(225.679,-25.6523)">
			<title>Duration (horizontal) .15</title>
			<desc>scanWindow</desc>
			<path d="M0 141.12 L0 132.12 L0 141.12 ZM102.05 141.12 L102.05 132.12 L102.05 141.12 Z" class="st9"/>
			<path d="M0 136.62 L102.05 136.62" class="st10"/>
			<path d="M0 141.12 L0 132.12" class="st11"/>
			<path d="" class="st11"/>
			<path d="M102.05 141.12 L102.05 132.12" class="st11"/>
			<path d="" class="st11"/>
			<text x="22.68" y="151.87" class="st5">scanWindow</text>		</g>
		<g id="shape16-36" transform="translate(333.85,-36.5373)">
			<title>Sheet.16</title>
			<desc>C0</desc>
			<rect x="0" y="68.3532" width="12.615" height="67.7098" class="st4"/>
			<text x="4" y="99.21" class="st5">C<tspan x="4" dy="1.2em" class="st6">0</tspan></text>		</g>
		<g id="shape19-40" transform="translate(29.5214,-113.313)">
			<title>Duration (horizontal) .19</title>
			<desc>connectionInterval</desc>
			<path d="M0 141.12 L0 132.12 L0 141.12 ZM303.55 141.12 L303.55 132.12 L303.55 141.12 Z" class="st9"/>
			<path d="M0 136.62 L303.55 136.62" class="st10"/>
			<path d="M0 141.12 L0 132.12" class="st11"/>
			<path d="" class="st11"/>
			<path d="M303.55 141.12 L303.55 132.12" class="st11"/>
			<path d="" class="st11"/>
			<text x="111.76" y="130.84" class="st5">connectionInterval</text>		</g>
		<g id="shape20-52" transform="translate(50.3854,-36.7404)">
			<title>Sheet.20</title>
			<desc>C1</desc>
			<rect x="0" y="68.3532" width="12.615" height="67.7098" class="st4"/>
			<text x="4" y="99.21" class="st5">C<tspan x="4" dy="1.2em" class="st6">1</tspan></text>		</g>
		<g id="shape21-56" transform="translate(207.07,-36.27)">
			<title>Sheet.21</title>
			<desc>C3</desc>
			<rect x="0" y="68.3532" width="12.615" height="67.7098" class="st4"/>
			<text x="4" y="99.21" class="st5">C<tspan x="4" dy="1.2em" class="st6">3</tspan></text>		</g>
		<g id="shape26-60" transform="translate(163.771,-36.27)">
			<title>Sheet.26</title>
			<desc>C2</desc>
			<rect x="0" y="68.3532" width="12.615" height="67.7098" class="st4"/>
			<text x="4" y="99.21" class="st5">C<tspan x="4" dy="1.2em" class="st6">2</tspan></text>		</g>
	</g>
</svg>
