<?xml version="1.0" encoding="UTF-8" standalone="no"?>
<!DOCTYPE svg PUBLIC "-//W3C//DTD SVG 1.1//EN" "http://www.w3.org/Graphics/SVG/1.1/DTD/svg11.dtd">
<!-- Generated by Microsoft Visio, SVG Export scanner_timing_9_secondary_blocks_primary.svg Page-1 -->
<svg xmlns="http://www.w3.org/2000/svg" xmlns:xlink="http://www.w3.org/1999/xlink" xmlns:ev="http://www.w3.org/2001/xml-events"
		width="8.26772in" height="1.88976in" viewBox="0 0 595.276 136.063" xml:space="preserve" color-interpolation-filters="sRGB"
		class="st13">
	<style type="text/css">
	<![CDATA[
		.st1 {fill:#ffffff;stroke:none;stroke-linecap:round;stroke-linejoin:round;stroke-width:0.72}
		.st2 {marker-end:url(#mrkr13-8);stroke:#000000;stroke-linecap:round;stroke-linejoin:round;stroke-width:0.72}
		.st3 {fill:#000000;fill-opacity:1;stroke:#000000;stroke-opacity:1;stroke-width:0.22222222222222}
		.st4 {fill:none;stroke:#000000;stroke-linecap:round;stroke-linejoin:round;stroke-width:0.72}
		.st5 {fill:#000000;font-family:Arial;font-size:0.833336em}
		.st6 {font-size:1em}
		.st7 {fill:none;stroke:none;stroke-linecap:round;stroke-linejoin:round;stroke-width:0.72}
		.st8 {fill:none}
		.st9 {marker-end:url(#mrkr12-24);marker-start:url(#mrkr12-22);stroke:#000000;stroke-linecap:round;stroke-linejoin:round;stroke-width:0.24}
		.st10 {stroke:#000000;stroke-linecap:round;stroke-linejoin:round;stroke-width:0.24}
		.st11 {fill:#000000;fill-opacity:1;stroke:#000000;stroke-opacity:1;stroke-width:0.08695652173913}
		.st12 {fill:none;stroke:#000000;stroke-dasharray:5.04,3.6;stroke-linecap:round;stroke-linejoin:round;stroke-width:0.72}
		.st13 {fill:none;fill-rule:evenodd;font-size:12px;overflow:visible;stroke-linecap:square;stroke-miterlimit:3}
	]]>
	</style>

	<defs id="Markers">
		<g id="lend13">
			<path d="M 3 1 L 0 0 L 3 -1 L 3 1 " style="stroke:none"/>
		</g>
		<marker id="mrkr13-8" class="st3" refX="-13.5" orient="auto" markerUnits="strokeWidth" overflow="visible">
			<use xlink:href="#lend13" transform="scale(-4.5,-4.5) "/>
		</marker>
		<g id="lend12">
			<path d="M 3 1 L 0 0 L 3 -1 " style="stroke-linecap:round;stroke-linejoin:round;fill:none"/>
		</g>
		<marker id="mrkr12-22" class="st11" orient="auto" markerUnits="strokeWidth" overflow="visible">
			<use xlink:href="#lend12" transform="scale(11.5) "/>
		</marker>
		<marker id="mrkr12-24" class="st11" orient="auto" markerUnits="strokeWidth" overflow="visible">
			<use xlink:href="#lend12" transform="scale(-11.5,-11.5) "/>
		</marker>
	</defs>
	<g>
		<title>VBackground-1</title>
		<g id="shape1000-1">
			<title>Solid.1000</title>
			<rect x="0" y="0" width="595.276" height="136.063" class="st1"/>
		</g>
	</g>
	<g>
		<title>Page-1</title>
		<g id="shape6-3" transform="translate(17.0079,-79.8584)">
			<title>Sheet.6</title>
			<path d="M0 136.06 L515.41 136.06" class="st2"/>
		</g>
		<g id="shape13-9" transform="translate(34.6824,-79.826)">
			<title>Sheet.13</title>
			<desc>Scanner primary</desc>
			<rect x="0" y="91.3284" width="83.037" height="44.7346" class="st4"/>
			<text x="22.9" y="110.7" class="st5">Scanner <tspan x="24.85" dy="1.2em" class="st6">primary</tspan></text>		</g>
		<g id="shape17-13" transform="translate(506.156,-59.2691)">
			<title>Sheet.17</title>
			<desc>time</desc>
			<rect x="0" y="122.733" width="101.551" height="13.3301" class="st7"/>
			<text x="41.33" y="132.4" class="st5">time</text>		</g>
		<g id="shape23-16" transform="translate(34.6824,-72.8848)">
			<title>Duration (horizontal) .12</title>
			<desc>scanInterval</desc>
			<path d="M0 141.12 L0 132.12 L0 141.12 ZM169.72 141.12 L169.72 132.12 L169.72 141.12 Z" class="st8"/>
			<path d="M0 136.62 L169.72 136.62" class="st9"/>
			<path d="M0 141.12 L0 132.12" class="st10"/>
			<path d="" class="st10"/>
			<path d="M169.72 141.12 L169.72 132.12" class="st10"/>
			<path d="" class="st10"/>
			<text x="58.53" y="150.68" class="st5">scanInterval</text>		</g>
		<g id="shape25-30" transform="translate(159.238,-79.826)">
			<title>Sheet.25</title>
			<desc>Scanner secondary</desc>
			<rect x="0" y="91.3284" width="141.163" height="44.7346" class="st4"/>
			<text x="51.96" y="110.7" class="st5">Scanner <tspan x="47.51" dy="1.2em" class="st6">secondary</tspan></text>		</g>
		<g id="shape28-34" transform="translate(338.897,-79.826)">
			<title>Sheet.28</title>
			<desc>Scanner secondary</desc>
			<rect x="0" y="91.3284" width="61.1488" height="44.7346" class="st4"/>
			<text x="11.95" y="110.7" class="st5">Scanner <tspan x="7.51" dy="1.2em" class="st6">secondary</tspan></text>		</g>
		<g id="shape32-38" transform="translate(204.632,-11.3386)">
			<title>Sheet.32</title>
			<desc>Scanner primary</desc>
			<path d="M0 136.06 L83.04 136.06 L83.04 91.33 L0 91.33 L0 136.06 Z" class="st12"/>
			<text x="22.9" y="110.7" class="st5">Scanner <tspan x="24.85" dy="1.2em" class="st6">primary</tspan></text>		</g>
		<g id="shape34-42" transform="translate(402.813,-79.826)">
			<title>Sheet.34</title>
			<desc>Scanner primary</desc>
			<rect x="0" y="91.3284" width="58.1259" height="44.7346" class="st4"/>
			<text x="10.44" y="110.7" class="st5">Scanner <tspan x="12.4" dy="1.2em" class="st6">primary</tspan></text>		</g>
		<g id="shape55-46" transform="translate(204.398,-72.8848)">
			<title>Duration (horizontal) .55</title>
			<desc>scanInterval</desc>
			<path d="M0 141.12 L0 132.12 L0 141.12 ZM173.5 141.12 L173.5 132.12 L173.5 141.12 Z" class="st8"/>
			<path d="M0 136.62 L173.5 136.62" class="st9"/>
			<path d="M0 141.12 L0 132.12" class="st10"/>
			<path d="" class="st10"/>
			<path d="M173.5 141.12 L173.5 132.12" class="st10"/>
			<path d="" class="st10"/>
			<text x="60.43" y="150.68" class="st5">scanInterval</text>		</g>
		<g id="shape57-58" transform="translate(377.902,-53.9917)">
			<title>Duration (horizontal) .60</title>
			<desc>scanWindow</desc>
			<path d="M0 141.12 L0 132.12 L0 141.12 ZM83.04 141.12 L83.04 132.12 L83.04 141.12 Z" class="st8"/>
			<path d="M0 136.62 L83.04 136.62" class="st9"/>
			<path d="M0 141.12 L0 132.12" class="st10"/>
			<path d="" class="st10"/>
			<path d="M83.04 141.12 L83.04 132.12" class="st10"/>
			<path d="" class="st10"/>
			<text x="13.48" y="150.68" class="st5">scanWindow</text>		</g>
		<g id="shape58-70" transform="translate(34.6824,-53.9917)">
			<title>Duration (horizontal) .58</title>
			<desc>scanWindow</desc>
			<path d="M0 141.12 L0 132.12 L0 141.12 ZM83.04 141.12 L83.04 132.12 L83.04 141.12 Z" class="st8"/>
			<path d="M0 136.62 L83.04 136.62" class="st9"/>
			<path d="M0 141.12 L0 132.12" class="st10"/>
			<path d="" class="st10"/>
			<path d="M83.04 141.12 L83.04 132.12" class="st10"/>
			<path d="" class="st10"/>
			<text x="13.48" y="150.68" class="st5">scanWindow</text>		</g>
	</g>
</svg>
