<?xml version="1.0" encoding="UTF-8" standalone="no"?>
<!DOCTYPE svg PUBLIC "-//W3C//DTD SVG 1.1//EN" "http://www.w3.org/Graphics/SVG/1.1/DTD/svg11.dtd">
<!-- Generated by Microsoft Visio, SVG Export scanner_timing_2_no_active_connection_multiple_phys.svg Page-1 -->
<svg xmlns="http://www.w3.org/2000/svg" xmlns:xlink="http://www.w3.org/1999/xlink" xmlns:ev="http://www.w3.org/2001/xml-events"
		width="8.27276in" height="1.91117in" viewBox="0 0 595.638 137.604" xml:space="preserve" color-interpolation-filters="sRGB"
		class="st12">
	<style type="text/css">
	<![CDATA[
		.st1 {fill:#ffffff;stroke:none;stroke-linecap:round;stroke-linejoin:round;stroke-width:0.72}
		.st2 {marker-end:url(#mrkr13-8);stroke:#000000;stroke-linecap:round;stroke-linejoin:round;stroke-width:0.72}
		.st3 {fill:#000000;fill-opacity:1;stroke:#000000;stroke-opacity:1;stroke-width:0.22222222222222}
		.st4 {fill:none;stroke:#000000;stroke-linecap:round;stroke-linejoin:round;stroke-width:0.72}
		.st5 {fill:#000000;font-family:Arial;font-size:0.75em}
		.st6 {fill:none}
		.st7 {marker-end:url(#mrkr12-20);marker-start:url(#mrkr12-18);stroke:#000000;stroke-linecap:round;stroke-linejoin:round;stroke-width:0.24}
		.st8 {stroke:#000000;stroke-linecap:round;stroke-linejoin:round;stroke-width:0.24}
		.st9 {fill:#000000;fill-opacity:1;stroke:#000000;stroke-opacity:1;stroke-width:0.08695652173913}
		.st10 {fill:none;stroke:none;stroke-linecap:round;stroke-linejoin:round;stroke-width:0.72}
		.st11 {fill:#000000;font-family:Arial;font-size:0.833336em}
		.st12 {fill:none;fill-rule:evenodd;font-size:12px;overflow:visible;stroke-linecap:square;stroke-miterlimit:3}
	]]>
	</style>

	<defs id="Markers">
		<g id="lend13">
			<path d="M 3 1 L 0 0 L 3 -1 L 3 1 " style="stroke:none"/>
		</g>
		<marker id="mrkr13-8" class="st3" refX="-13.5" orient="auto" markerUnits="strokeWidth" overflow="visible">
			<use xlink:href="#lend13" transform="scale(-4.5,-4.5) "/>
		</marker>
		<g id="lend12">
			<path d="M 3 1 L 0 0 L 3 -1 " style="stroke-linecap:round;stroke-linejoin:round;fill:none"/>
		</g>
		<marker id="mrkr12-18" class="st9" orient="auto" markerUnits="strokeWidth" overflow="visible">
			<use xlink:href="#lend12" transform="scale(11.5) "/>
		</marker>
		<marker id="mrkr12-20" class="st9" orient="auto" markerUnits="strokeWidth" overflow="visible">
			<use xlink:href="#lend12" transform="scale(-11.5,-11.5) "/>
		</marker>
	</defs>
	<g>
		<title>VBackground-1</title>
		<g id="shape1000-1">
			<title>Solid.1000</title>
			<rect x="0" y="0" width="595.638" height="137.604" class="st1"/>
		</g>
	</g>
	<g>
		<title>Page-1</title>
		<g id="shape1-3" transform="translate(49.6063,-62.1787)">
			<title>Sheet.1</title>
			<path d="M0 137.6 L450.44 137.6" class="st2"/>
		</g>
		<g id="shape2-9" transform="translate(55.6453,-62.1787)">
			<title>Sheet.2</title>
			<desc>Scanner_1M</desc>
			<rect x="0" y="86.4318" width="77.2706" height="51.1727" class="st4"/>
			<text x="13.12" y="114.72" class="st5">Scanner_1M</text>		</g>
		<g id="shape11-12" transform="translate(55.6161,-53.7213)">
			<title>Duration (horizontal) .60</title>
			<desc>scanWindow</desc>
			<path d="M0 142.66 L0 133.66 L0 142.66 ZM77.3 142.66 L77.3 133.66 L77.3 142.66 Z" class="st6"/>
			<path d="M0 138.16 L77.3 138.16" class="st7"/>
			<path d="M0 142.66 L0 133.66" class="st8"/>
			<path d="" class="st8"/>
			<path d="M77.3 142.66 L77.3 133.66" class="st8"/>
			<path d="" class="st8"/>
			<text x="13.37" y="146.22" class="st5">scanWindow</text>		</g>
		<g id="shape3-26" transform="translate(495.021,-54.7144)">
			<title>Sheet.3</title>
			<desc>time</desc>
			<rect x="0" y="122.356" width="73.8544" height="15.2486" class="st10"/>
			<text x="27.48" y="132.98" class="st11">time</text>		</g>
		<g id="shape12-29" transform="translate(55.1821,-25.6534)">
			<title>Duration (horizontal) .12</title>
			<desc>scanInterval</desc>
			<path d="M0 142.66 L0 133.66 L0 142.66 ZM255.07 142.66 L255.07 133.66 L255.07 142.66 Z" class="st6"/>
			<path d="M0 138.16 L255.07 138.16" class="st7"/>
			<path d="M0 142.66 L0 133.66" class="st8"/>
			<path d="" class="st8"/>
			<path d="M255.07 142.66 L255.07 133.66" class="st8"/>
			<path d="" class="st8"/>
			<text x="101.52" y="152.22" class="st11">scanInterval</text>		</g>
		<g id="shape18-41" transform="translate(153.408,-62.022)">
			<title>Sheet.18</title>
			<desc>Scanner_Coded</desc>
			<rect x="0" y="86.4318" width="77.2706" height="51.1727" class="st4"/>
			<text x="6.11" y="114.72" class="st5">Scanner_Coded</text>		</g>
		<g id="shape19-44" transform="translate(153.379,-53.5646)">
			<title>Duration (horizontal) .19</title>
			<desc>scanWindow</desc>
			<path d="M0 142.66 L0 133.66 L0 142.66 ZM77.3 142.66 L77.3 133.66 L77.3 142.66 Z" class="st6"/>
			<path d="M0 138.16 L77.3 138.16" class="st7"/>
			<path d="M0 142.66 L0 133.66" class="st8"/>
			<path d="" class="st8"/>
			<path d="M77.3 142.66 L77.3 133.66" class="st8"/>
			<path d="" class="st8"/>
			<text x="13.37" y="146.22" class="st5">scanWindow</text>		</g>
		<g id="shape22-56" transform="translate(309.93,-62.2131)">
			<title>Sheet.22</title>
			<desc>Scanner_1M</desc>
			<rect x="0" y="86.4318" width="77.2706" height="51.1727" class="st4"/>
			<text x="13.12" y="114.72" class="st5">Scanner_1M</text>		</g>
		<g id="shape23-59" transform="translate(407.693,-62.0564)">
			<title>Sheet.23</title>
			<desc>Scanner_Coded</desc>
			<rect x="0" y="86.4318" width="77.2706" height="51.1727" class="st4"/>
			<text x="6.11" y="114.72" class="st5">Scanner_Coded</text>		</g>
	</g>
</svg>
