<?xml version="1.0" encoding="UTF-8" standalone="no"?>
<!DOCTYPE svg PUBLIC "-//W3C//DTD SVG 1.1//EN" "http://www.w3.org/Graphics/SVG/1.1/DTD/svg11.dtd">
<!-- Generated by Microsoft Visio, SVG Export scanner_timing_10_secondary_between_w_connection.svg Page-1 -->
<svg xmlns="http://www.w3.org/2000/svg" xmlns:xlink="http://www.w3.org/1999/xlink" xmlns:ev="http://www.w3.org/2001/xml-events"
		width="8.26772in" height="1.88976in" viewBox="0 0 595.276 136.063" xml:space="preserve" color-interpolation-filters="sRGB"
		class="st13">
	<style type="text/css">
	<![CDATA[
		.st1 {fill:#ffffff;stroke:none;stroke-linecap:round;stroke-linejoin:round;stroke-width:0.72}
		.st2 {marker-end:url(#mrkr13-8);stroke:#000000;stroke-linecap:round;stroke-linejoin:round;stroke-width:0.72}
		.st3 {fill:#000000;fill-opacity:1;stroke:#000000;stroke-opacity:1;stroke-width:0.22222222222222}
		.st4 {fill:none;stroke:#000000;stroke-linecap:round;stroke-linejoin:round;stroke-width:0.72}
		.st5 {fill:#000000;font-family:Arial;font-size:0.833336em}
		.st6 {font-size:1em}
		.st7 {fill:none}
		.st8 {marker-end:url(#mrkr12-21);marker-start:url(#mrkr12-19);stroke:#000000;stroke-linecap:round;stroke-linejoin:round;stroke-width:0.24}
		.st9 {stroke:#000000;stroke-linecap:round;stroke-linejoin:round;stroke-width:0.24}
		.st10 {fill:#000000;fill-opacity:1;stroke:#000000;stroke-opacity:1;stroke-width:0.08695652173913}
		.st11 {fill:none;stroke:none;stroke-linecap:round;stroke-linejoin:round;stroke-width:0.72}
		.st12 {fill:none;stroke:#000000;stroke-dasharray:5.04,3.6;stroke-linecap:round;stroke-linejoin:round;stroke-width:0.72}
		.st13 {fill:none;fill-rule:evenodd;font-size:12px;overflow:visible;stroke-linecap:square;stroke-miterlimit:3}
	]]>
	</style>

	<defs id="Markers">
		<g id="lend13">
			<path d="M 3 1 L 0 0 L 3 -1 L 3 1 " style="stroke:none"/>
		</g>
		<marker id="mrkr13-8" class="st3" refX="-13.5" orient="auto" markerUnits="strokeWidth" overflow="visible">
			<use xlink:href="#lend13" transform="scale(-4.5,-4.5) "/>
		</marker>
		<g id="lend12">
			<path d="M 3 1 L 0 0 L 3 -1 " style="stroke-linecap:round;stroke-linejoin:round;fill:none"/>
		</g>
		<marker id="mrkr12-19" class="st10" orient="auto" markerUnits="strokeWidth" overflow="visible">
			<use xlink:href="#lend12" transform="scale(11.5) "/>
		</marker>
		<marker id="mrkr12-21" class="st10" orient="auto" markerUnits="strokeWidth" overflow="visible">
			<use xlink:href="#lend12" transform="scale(-11.5,-11.5) "/>
		</marker>
	</defs>
	<g>
		<title>VBackground-1</title>
		<g id="shape1000-1">
			<title>Solid.1000</title>
			<rect x="0" y="0" width="595.276" height="136.063" class="st1"/>
		</g>
	</g>
	<g>
		<title>Page-1</title>
		<g id="shape1-3" transform="translate(51.0236,-86.9272)">
			<title>Sheet.1</title>
			<path d="M0 136.06 L457.5 136.06" class="st2"/>
		</g>
		<g id="shape2-9" transform="translate(57.1553,-86.9272)">
			<title>Sheet.2</title>
			<desc>Scanner primary</desc>
			<rect x="0" y="105.499" width="130.976" height="30.5642" class="st4"/>
			<text x="46.86" y="117.78" class="st5">Scanner<tspan x="48.82" dy="1.2em" class="st6">primary</tspan></text>		</g>
		<g id="shape3-13" transform="translate(57.1257,-81.9886)">
			<title>Duration (horizontal) .60</title>
			<desc>scanWindow</desc>
			<path d="M0 141.12 L0 132.12 L0 141.12 ZM131.01 141.12 L131.01 132.12 L131.01 141.12 Z" class="st7"/>
			<path d="M0 136.62 L131.01 136.62" class="st8"/>
			<path d="M0 141.12 L0 132.12" class="st9"/>
			<path d="" class="st9"/>
			<path d="M131.01 141.12 L131.01 132.12" class="st9"/>
			<path d="" class="st9"/>
			<text x="37.64" y="150.68" class="st5">scanWindow</text>		</g>
		<g id="shape4-27" transform="translate(503.279,-75.1245)">
			<title>Sheet.4</title>
			<desc>time</desc>
			<rect x="0" y="126.955" width="74.9887" height="9.1076" class="st11"/>
			<text x="28.05" y="134.51" class="st5">time</text>		</g>
		<g id="shape5-30" transform="translate(56.6851,-66.172)">
			<title>Duration (horizontal) .12</title>
			<desc>scanInterval</desc>
			<path d="M0 141.12 L0 132.12 L0 141.12 ZM286.94 141.12 L286.94 132.12 L286.94 141.12 Z" class="st7"/>
			<path d="M0 136.62 L286.94 136.62" class="st8"/>
			<path d="M0 141.12 L0 132.12" class="st9"/>
			<path d="" class="st9"/>
			<path d="M286.94 141.12 L286.94 132.12" class="st9"/>
			<path d="" class="st9"/>
			<text x="117.57" y="150.68" class="st5">scanInterval</text>		</g>
		<g id="shape6-42" transform="translate(343.926,-86.9477)">
			<title>Sheet.6</title>
			<desc>Scanner primary</desc>
			<rect x="0" y="105.499" width="131.446" height="30.5642" class="st4"/>
			<text x="47.1" y="117.78" class="st5">Scanner<tspan x="49.06" dy="1.2em" class="st6">primary</tspan></text>		</g>
		<g id="shape7-46" transform="translate(240.09,-86.9626)">
			<title>Sheet.7</title>
			<desc>Scanner secondary</desc>
			<rect x="0" y="105.499" width="60.4511" height="30.5642" class="st4"/>
			<text x="11.6" y="117.78" class="st5">Scanner<tspan x="7.16" dy="1.2em" class="st6">secondary</tspan></text>		</g>
		<g id="shape11-50" transform="translate(199.576,-86.9774)">
			<title>Sheet.11</title>
			<desc>C0</desc>
			<rect x="0" y="105.414" width="13.3556" height="30.6487" class="st4"/>
			<text x="4" y="117.74" class="st5">C<tspan x="4" dy="1.2em" class="st6">0</tspan></text>		</g>
		<g id="shape12-54" transform="translate(221.699,-87.0638)">
			<title>Sheet.12</title>
			<desc>C1</desc>
			<rect x="0" y="105.414" width="13.3556" height="30.6487" class="st4"/>
			<text x="4" y="117.74" class="st5">C<tspan x="4" dy="1.2em" class="st6">1</tspan></text>		</g>
		<g id="shape13-58" transform="translate(241.261,-11.3386)">
			<title>Sheet.13</title>
			<desc>C2</desc>
			<path d="M0 136.06 L33.34 136.06 L33.34 105.41 L0 105.41 L0 136.06 Z" class="st12"/>
			<text x="10.28" y="123.74" class="st5">C2</text>		</g>
		<g id="shape14-61" transform="translate(283.754,-11.3386)">
			<title>Sheet.14</title>
			<desc>C3</desc>
			<path d="M0 136.06 L13.36 136.06 L13.36 105.41 L0 105.41 L0 136.06 Z" class="st12"/>
			<text x="4" y="117.74" class="st5">C<tspan x="4" dy="1.2em" class="st6">3</tspan></text>		</g>
		<g id="shape15-65" transform="translate(306.113,-86.9774)">
			<title>Sheet.15</title>
			<desc>C4</desc>
			<rect x="0" y="105.414" width="14.6869" height="30.6487" class="st4"/>
			<text x="4" y="117.74" class="st5">C<tspan x="4.56" dy="1.2em" class="st6">4</tspan></text>		</g>
		<g id="shape16-69" transform="translate(325.62,-86.9774)">
			<title>Sheet.16</title>
			<desc>C5</desc>
			<rect x="0" y="105.414" width="13.3556" height="30.6487" class="st4"/>
			<text x="4" y="117.74" class="st5">C<tspan x="4" dy="1.2em" class="st6">5</tspan></text>		</g>
	</g>
</svg>
