<?xml version="1.0" encoding="UTF-8" standalone="no"?>
<!DOCTYPE svg PUBLIC "-//W3C//DTD SVG 1.1//EN" "http://www.w3.org/Graphics/SVG/1.1/DTD/svg11.dtd">
<!-- Generated by Microsoft Visio, SVG Export scanner_timing_5_one_conn_long_window.svg Page-1 -->
<svg xmlns="http://www.w3.org/2000/svg" xmlns:xlink="http://www.w3.org/1999/xlink" xmlns:ev="http://www.w3.org/2001/xml-events"
		width="8.26772in" height="1.88976in" viewBox="0 0 595.276 136.063" xml:space="preserve" color-interpolation-filters="sRGB"
		class="st15">
	<style type="text/css">
	<![CDATA[
		.st1 {fill:#ffffff;stroke:none;stroke-linecap:round;stroke-linejoin:round;stroke-width:0.72}
		.st2 {marker-end:url(#mrkr13-8);stroke:#000000;stroke-linecap:round;stroke-linejoin:round;stroke-width:0.72}
		.st3 {fill:#000000;fill-opacity:1;stroke:#000000;stroke-opacity:1;stroke-width:0.22222222222222}
		.st4 {fill:none;stroke:#000000;stroke-linecap:round;stroke-linejoin:round;stroke-width:0.72}
		.st5 {fill:#000000;font-family:Arial;font-size:0.833336em}
		.st6 {font-size:1em}
		.st7 {fill:none;stroke:none;stroke-linecap:round;stroke-linejoin:round;stroke-width:0.72}
		.st8 {fill:none}
		.st9 {marker-end:url(#mrkr12-27);marker-start:url(#mrkr12-25);stroke:#000000;stroke-linecap:round;stroke-linejoin:round;stroke-width:0.24}
		.st10 {stroke:#000000;stroke-linecap:round;stroke-linejoin:round;stroke-width:0.24}
		.st11 {fill:#000000;fill-opacity:1;stroke:#000000;stroke-opacity:1;stroke-width:0.08695652173913}
		.st12 {fill:none;stroke:#000000;stroke-dasharray:5.04,3.6;stroke-linecap:round;stroke-linejoin:round;stroke-width:0.72}
		.st13 {fill:#000000;font-family:Arial;font-size:0.75em}
		.st14 {baseline-shift:-32.4951%;font-size:0.649902em}
		.st15 {fill:none;fill-rule:evenodd;font-size:12px;overflow:visible;stroke-linecap:square;stroke-miterlimit:3}
	]]>
	</style>

	<defs id="Markers">
		<g id="lend13">
			<path d="M 3 1 L 0 0 L 3 -1 L 3 1 " style="stroke:none"/>
		</g>
		<marker id="mrkr13-8" class="st3" refX="-13.5" orient="auto" markerUnits="strokeWidth" overflow="visible">
			<use xlink:href="#lend13" transform="scale(-4.5,-4.5) "/>
		</marker>
		<g id="lend12">
			<path d="M 3 1 L 0 0 L 3 -1 " style="stroke-linecap:round;stroke-linejoin:round;fill:none"/>
		</g>
		<marker id="mrkr12-25" class="st11" orient="auto" markerUnits="strokeWidth" overflow="visible">
			<use xlink:href="#lend12" transform="scale(11.5) "/>
		</marker>
		<marker id="mrkr12-27" class="st11" orient="auto" markerUnits="strokeWidth" overflow="visible">
			<use xlink:href="#lend12" transform="scale(-11.5,-11.5) "/>
		</marker>
	</defs>
	<g>
		<title>VBackground-1</title>
		<g id="shape1000-1">
			<title>Solid.1000</title>
			<rect x="0" y="0" width="595.276" height="136.063" class="st1"/>
		</g>
	</g>
	<g>
		<title>Page-1</title>
		<g id="shape6-3" transform="translate(10.2458,-65.5319)">
			<title>Sheet.6</title>
			<path d="M0 136.06 L528.07 136.06" class="st2"/>
		</g>
		<g id="shape13-9" transform="translate(49.6063,-65.4996)">
			<title>Sheet.13</title>
			<desc>Scanner</desc>
			<rect x="0" y="91.4252" width="333.071" height="44.6378" class="st4"/>
			<text x="147.91" y="116.74" class="st5">Scanner</text>		</g>
		<g id="shape14-12" transform="translate(29.4892,-65.5677)">
			<title>Sheet.14</title>
			<desc>C0</desc>
			<rect x="0" y="91.4252" width="12.615" height="44.6378" class="st4"/>
			<text x="4" y="110.74" class="st5">C<tspan x="4" dy="1.2em" class="st6">0</tspan></text>		</g>
		<g id="shape17-16" transform="translate(511.189,-59.1641)">
			<title>Sheet.17</title>
			<desc>time</desc>
			<rect x="0" y="122.762" width="104" height="13.3013" class="st7"/>
			<text x="42.55" y="132.41" class="st5">time</text>		</g>
		<g id="shape20-19" transform="translate(49.6063,-58.4793)">
			<title>Duration (horizontal) .20</title>
			<desc>scanWindow</desc>
			<path d="M0 141.12 L0 132.12 L0 141.12 ZM333.07 141.12 L333.07 132.12 L333.07 141.12 Z" class="st8"/>
			<path d="M0 136.62 L333.07 136.62" class="st9"/>
			<path d="M0 141.12 L0 132.12" class="st10"/>
			<path d="" class="st10"/>
			<path d="M333.07 141.12 L333.07 132.12" class="st10"/>
			<path d="" class="st10"/>
			<text x="191.41" y="149.97" class="st5">scanWindow</text>		</g>
		<g id="shape21-33" transform="translate(346.292,-7.08661)">
			<title>Sheet.21</title>
			<desc>C0</desc>
			<path d="M0 136.06 L12.62 136.06 L12.62 91.43 L0 91.43 L0 136.06 Z" class="st12"/>
			<text x="4" y="110.74" class="st5">C<tspan x="4" dy="1.2em" class="st6">0</tspan></text>		</g>
		<g id="shape22-37" transform="translate(29.5214,-116.27)">
			<title>Duration (horizontal) .22</title>
			<desc>connectionInterval</desc>
			<path d="M0 141.12 L0 132.12 L0 141.12 ZM315.78 141.12 L315.78 132.12 L315.78 141.12 Z" class="st8"/>
			<path d="M0 136.62 L315.78 136.62" class="st9"/>
			<path d="M0 141.12 L0 132.12" class="st10"/>
			<path d="" class="st10"/>
			<path d="M315.78 141.12 L315.78 132.12" class="st10"/>
			<path d="" class="st10"/>
			<text x="117.9" y="130.84" class="st5">connectionInterval</text>		</g>
		<g id="shape23-49" transform="translate(29.5114,-58.4353)">
			<title>Duration (horizontal) .23</title>
			<desc>tevent-C0</desc>
			<path d="M0 141.12 L0 132.12 L0 141.12 ZM20.09 141.12 L20.09 132.12 L20.09 141.12 Z" class="st8"/>
			<path d="M0 136.62 L20.09 136.62" class="st9"/>
			<path d="M0 141.12 L0 132.12" class="st10"/>
			<path d="" class="st10"/>
			<path d="M20.09 141.12 L20.09 132.12" class="st10"/>
			<path d="" class="st10"/>
			<text x="-3.3" y="150.38" class="st13">t<tspan dy="0.287em" class="st14">event</tspan><tspan class="st14">-</tspan><tspan
						class="st14">C0</tspan></text>		</g>
	</g>
</svg>
