<?xml version="1.0" encoding="UTF-8" standalone="no"?>
<!DOCTYPE svg PUBLIC "-//W3C//DTD SVG 1.1//EN" "http://www.w3.org/Graphics/SVG/1.1/DTD/svg11.dtd">
<!-- Generated by Microsoft Visio, SVG Export three_central_and_peripheral_links_running.svg Page-1 -->
<svg xmlns="http://www.w3.org/2000/svg" xmlns:xlink="http://www.w3.org/1999/xlink" xmlns:ev="http://www.w3.org/2001/xml-events"
		width="8.28461in" height="1.92649in" viewBox="0 0 596.492 138.707" xml:space="preserve" color-interpolation-filters="sRGB"
		class="st17">
	<style type="text/css">
	<![CDATA[
		.st1 {fill:#ffffff;stroke:none;stroke-linecap:round;stroke-linejoin:round;stroke-width:0.72}
		.st2 {marker-end:url(#mrkr13-8);stroke:#000000;stroke-linecap:round;stroke-linejoin:round;stroke-width:0.72}
		.st3 {fill:#000000;fill-opacity:1;stroke:#000000;stroke-opacity:1;stroke-width:0.22222222222222}
		.st4 {fill:none;stroke:#000000;stroke-linecap:round;stroke-linejoin:round;stroke-width:0.72}
		.st5 {fill:#000000;font-family:Arial;font-size:0.666664em}
		.st6 {font-size:1em}
		.st7 {fill:none}
		.st8 {marker-end:url(#mrkr12-56);marker-start:url(#mrkr12-54);stroke:#000000;stroke-linecap:round;stroke-linejoin:round;stroke-width:0.24}
		.st9 {stroke:#000000;stroke-linecap:round;stroke-linejoin:round;stroke-width:0.24}
		.st10 {fill:#000000;fill-opacity:1;stroke:#000000;stroke-opacity:1;stroke-width:0.08695652173913}
		.st11 {fill:none;stroke:#000000;stroke-dasharray:0.72,1.44;stroke-linecap:round;stroke-linejoin:round;stroke-width:0.72}
		.st12 {marker-end:url(#mrkr1-99);stroke:#000000;stroke-linecap:round;stroke-linejoin:round;stroke-width:0.24}
		.st13 {fill:none;marker-end:url(#mrkr1-103);stroke:none;stroke-linecap:round;stroke-linejoin:round;stroke-width:1.2}
		.st14 {fill:#000000;fill-opacity:1;stroke:#000000;stroke-opacity:1;stroke-width:0.32258064516129}
		.st15 {stroke:#000000;stroke-linecap:round;stroke-linejoin:round;stroke-width:0.72}
		.st16 {stroke:#000000;stroke-dasharray:2.16,2.16;stroke-linecap:round;stroke-linejoin:round;stroke-width:0.72}
		.st17 {fill:none;fill-rule:evenodd;font-size:12px;overflow:visible;stroke-linecap:square;stroke-miterlimit:3}
	]]>
	</style>

	<defs id="Markers">
		<g id="lend13">
			<path d="M 3 1 L 0 0 L 3 -1 L 3 1 " style="stroke:none"/>
		</g>
		<marker id="mrkr13-8" class="st3" refX="-13.5" orient="auto" markerUnits="strokeWidth" overflow="visible">
			<use xlink:href="#lend13" transform="scale(-4.5,-4.5) "/>
		</marker>
		<g id="lend12">
			<path d="M 3 1 L 0 0 L 3 -1 " style="stroke-linecap:round;stroke-linejoin:round;fill:none"/>
		</g>
		<marker id="mrkr12-54" class="st10" orient="auto" markerUnits="strokeWidth" overflow="visible">
			<use xlink:href="#lend12" transform="scale(11.5) "/>
		</marker>
		<marker id="mrkr12-56" class="st10" orient="auto" markerUnits="strokeWidth" overflow="visible">
			<use xlink:href="#lend12" transform="scale(-11.5,-11.5) "/>
		</marker>
		<g id="lend1">
			<path d="M 1 -1 L 0 0 L 1 1 " style="stroke-linecap:round;stroke-linejoin:round;fill:none"/>
		</g>
		<marker id="mrkr1-99" class="st10" orient="auto" markerUnits="strokeWidth" overflow="visible">
			<use xlink:href="#lend1" transform="scale(-11.5,-11.5) "/>
		</marker>
		<marker id="mrkr1-103" class="st14" orient="auto" markerUnits="strokeWidth" overflow="visible">
			<use xlink:href="#lend1" transform="scale(-3.1,-3.1) "/>
		</marker>
	</defs>
	<g>
		<title>VBackground-1</title>
		<g id="shape1000-1">
			<title>Solid.1000</title>
			<rect x="0" y="0" width="596.492" height="138.707" class="st1"/>
		</g>
	</g>
	<g>
		<title>Page-1</title>
		<g id="shape39-3" transform="translate(35.3324,-48.1262)">
			<title>Sheet.39</title>
			<path d="M0 138.71 L514.79 138.71" class="st2"/>
		</g>
		<g id="shape52-9" transform="translate(51.3781,-48.0417)">
			<title>Sheet.52</title>
			<desc>C0</desc>
			<rect x="0" y="108.018" width="9.98468" height="30.6891" class="st4"/>
			<text x="2.1" y="120.96" class="st5">C<tspan x="2.77" dy="1.2em" class="st6">0</tspan></text>		</g>
		<g id="shape53-13" transform="translate(70.4184,-48.0417)">
			<title>Sheet.53</title>
			<desc>C1</desc>
			<rect x="0" y="108.018" width="9.98468" height="30.6891" class="st4"/>
			<text x="2.1" y="120.96" class="st5">C<tspan x="2.77" dy="1.2em" class="st6">1</tspan></text>		</g>
		<g id="shape60-17" transform="translate(88.5647,-48.0417)">
			<title>Sheet.60</title>
			<desc>C2</desc>
			<rect x="0" y="108.018" width="9.98468" height="30.6891" class="st4"/>
			<text x="2.1" y="120.96" class="st5">C<tspan x="2.77" dy="1.2em" class="st6">2</tspan></text>		</g>
		<g id="shape2-21" transform="translate(193.034,-48.0835)">
			<title>Sheet.2</title>
			<desc>C0</desc>
			<rect x="0" y="108.018" width="9.98468" height="30.6891" class="st4"/>
			<text x="2.1" y="120.96" class="st5">C<tspan x="2.77" dy="1.2em" class="st6">0</tspan></text>		</g>
		<g id="shape3-25" transform="translate(212.075,-48.0835)">
			<title>Sheet.3</title>
			<desc>C1</desc>
			<rect x="0" y="108.018" width="9.98468" height="30.6891" class="st4"/>
			<text x="2.1" y="120.96" class="st5">C<tspan x="2.77" dy="1.2em" class="st6">1</tspan></text>		</g>
		<g id="shape4-29" transform="translate(230.221,-48.0835)">
			<title>Sheet.4</title>
			<desc>C2</desc>
			<rect x="0" y="108.018" width="9.98468" height="30.6891" class="st4"/>
			<text x="2.1" y="120.96" class="st5">C<tspan x="2.77" dy="1.2em" class="st6">2</tspan></text>		</g>
		<g id="shape6-33" transform="translate(335.052,-48.0835)">
			<title>Sheet.6</title>
			<desc>C0</desc>
			<rect x="0" y="108.018" width="9.98468" height="30.6891" class="st4"/>
			<text x="2.1" y="120.96" class="st5">C<tspan x="2.77" dy="1.2em" class="st6">0</tspan></text>		</g>
		<g id="shape7-37" transform="translate(354.093,-48.0835)">
			<title>Sheet.7</title>
			<desc>C1</desc>
			<rect x="0" y="108.018" width="9.98468" height="30.6891" class="st4"/>
			<text x="2.1" y="120.96" class="st5">C<tspan x="2.77" dy="1.2em" class="st6">1</tspan></text>		</g>
		<g id="shape8-41" transform="translate(372.239,-48.0835)">
			<title>Sheet.8</title>
			<desc>C2</desc>
			<rect x="0" y="108.018" width="9.98468" height="30.6891" class="st4"/>
			<text x="2.1" y="120.96" class="st5">C<tspan x="2.77" dy="1.2em" class="st6">2</tspan></text>		</g>
		<g id="shape10-45" transform="translate(143.565,-48.1069)">
			<title>Sheet.10</title>
			<desc>P</desc>
			<rect x="0" y="108.018" width="29.972" height="30.6891" class="st4"/>
			<text x="12.32" y="125.76" class="st5">P</text>		</g>
		<g id="shape11-48" transform="translate(51.9835,-89.6347)">
			<title>Duration (horizontal) .24</title>
			<desc>Central links Interval</desc>
			<path d="M0 143.77 L0 134.77 L0 143.77 ZM141.53 143.77 L141.53 134.77 L141.53 143.77 Z" class="st7"/>
			<path d="M0 139.27 L141.53 139.27" class="st8"/>
			<path d="M0 143.77 L0 134.77" class="st9"/>
			<path d="" class="st9"/>
			<path d="M141.53 143.77 L141.53 134.77" class="st9"/>
			<path d="" class="st9"/>
			<text x="33.7" y="136.43" class="st5">Central links Interval</text>		</g>
		<g id="shape17-62" transform="translate(476.587,-7.15642)">
			<title>Sheet.17</title>
			<desc>C0</desc>
			<path d="M0 138.71 L9.98 138.71 L9.98 108.02 L0 108.02 L0 138.71 Z" class="st11"/>
			<text x="2.1" y="120.96" class="st5">C<tspan x="2.77" dy="1.2em" class="st6">0</tspan></text>		</g>
		<g id="shape18-66" transform="translate(495.627,-7.15642)">
			<title>Sheet.18</title>
			<desc>C1</desc>
			<path d="M0 138.71 L9.98 138.71 L9.98 108.02 L0 108.02 L0 138.71 Z" class="st11"/>
			<text x="2.1" y="120.96" class="st5">C<tspan x="2.77" dy="1.2em" class="st6">1</tspan></text>		</g>
		<g id="shape19-70" transform="translate(513.774,-48.1683)">
			<title>Sheet.19</title>
			<desc>C2</desc>
			<rect x="0" y="108.018" width="9.98468" height="30.6891" class="st4"/>
			<text x="2.1" y="120.96" class="st5">C<tspan x="2.77" dy="1.2em" class="st6">2</tspan></text>		</g>
		<g id="shape9-74" transform="translate(251.797,-48.1683)">
			<title>Sheet.9</title>
			<desc>P</desc>
			<rect x="0" y="108.018" width="29.972" height="30.6891" class="st4"/>
			<text x="12.32" y="125.76" class="st5">P</text>		</g>
		<g id="shape14-77" transform="translate(360.029,-7.08661)">
			<title>Sheet.14</title>
			<desc>P</desc>
			<path d="M0 138.71 L29.97 138.71 L29.97 108.02 L0 108.02 L0 138.71 Z" class="st11"/>
			<text x="12.32" y="125.76" class="st5">P</text>		</g>
		<g id="shape12-80" transform="translate(143.565,-35.9002)">
			<title>Duration (horizontal) .12</title>
			<desc>Peripheral link Interval with adjustment to accommodate own a...</desc>
			<path d="M0 143.77 L0 134.77 L0 143.77 ZM108.23 134.77 L108.23 143.77 L108.23 134.77 Z" class="st7"/>
			<path d="M0 139.27 L108.23 139.27" class="st8"/>
			<path d="M0 143.77 L0 134.77" class="st9"/>
			<path d="" class="st9"/>
			<path d="M108.23 134.77 L108.23 143.77" class="st9"/>
			<path d="" class="st9"/>
			<text x="11.6" y="149.83" class="st5">Peripheral link Interval <tspan x="-15.75" dy="1.2em" class="st6">with adjustment to accommodate own </tspan><tspan
						x="-9.52" dy="1.2em" class="st6">and peer master</tspan>’s sleep clock drift</text>		</g>
		<g id="shape62-94" transform="translate(607.682,36.7808) rotate(90)">
			<title>Sheet.62</title>
			<path d="M0 138.71 L22.21 138.71" class="st12"/>
		</g>
		<g id="shape63-100" transform="translate(405.691,-101.927)">
			<title>Sheet.63</title>
			<desc>Extra listening window for accommodating extra drift due to p...</desc>
			<rect x="0" y="113.075" width="124.051" height="25.6324" class="st13"/>
			<text x="16.67" y="118.69" class="st5">Extra listening window for <tspan x="8.22" dy="1.2em" class="st6">accommodating extra drift due </tspan><tspan
						x="15.77" dy="1.2em" class="st6">to previous dropped event</tspan></text>		</g>
		<g id="shape64-107" transform="translate(473.386,-48.0985)">
			<title>Sheet.64</title>
			<path d="M0 138.71 L1.54 138.71" class="st15"/>
		</g>
		<g id="shape65-110" transform="translate(336.214,90.6089) rotate(-90)">
			<title>Sheet.65</title>
			<path d="M0 138.71 L30.69 138.71" class="st16"/>
		</g>
		<g id="shape66-113" transform="translate(474.922,198.627) rotate(180)">
			<title>Sheet.66</title>
			<path d="M0 138.71 L1.54 138.71" class="st15"/>
		</g>
		<g id="shape67-116" transform="translate(461.601,-48.0985)">
			<title>Sheet.67</title>
			<desc>W</desc>
			<path d="M11.78 108.02 L0 108.02 L0 138.71" class="st16"/>
			<text x="4" y="125.76" class="st5">W</text>		</g>
		<g id="shape68-120" transform="translate(461.601,-48.0985)">
			<title>Sheet.68</title>
			<path d="M0 138.71 L11.78 138.71" class="st15"/>
		</g>
		<g id="shape69-123" transform="translate(474.922,-48.0985)">
			<title>Sheet.69</title>
			<desc>P</desc>
			<path d="M0 138.71 L27.06 138.71 L27.06 108.02 L0 108.02" class="st15"/>
			<text x="10.86" y="125.76" class="st5">P</text>		</g>
		<g id="shape70-127" transform="translate(474.922,198.627) rotate(180)">
			<title>Sheet.70</title>
			<path d="M0 138.71 L1.54 138.71" class="st15"/>
		</g>
		<g id="shape72-130" transform="translate(473.386,-48.0985)">
			<title>Sheet.72</title>
			<path d="M0 138.71 L1.54 138.71" class="st15"/>
		</g>
	</g>
</svg>
