<?xml version="1.0" encoding="UTF-8" standalone="no"?>
<!DOCTYPE svg PUBLIC "-//W3C//DTD SVG 1.1//EN" "http://www.w3.org/Graphics/SVG/1.1/DTD/svg11.dtd">
<!-- Generated by Microsoft Visio, SVG Export worst_case_collision_of_ble_roles.svg Page-1 -->
<svg xmlns="http://www.w3.org/2000/svg" xmlns:xlink="http://www.w3.org/1999/xlink" xmlns:ev="http://www.w3.org/2001/xml-events"
		width="8.28461in" height="1.92476in" viewBox="0 0 596.492 138.583" xml:space="preserve" color-interpolation-filters="sRGB"
		class="st12">
	<style type="text/css">
	<![CDATA[
		.st1 {fill:#ffffff;stroke:none;stroke-linecap:round;stroke-linejoin:round;stroke-width:0.72}
		.st2 {marker-end:url(#mrkr13-8);stroke:#000000;stroke-linecap:round;stroke-linejoin:round;stroke-width:0.72}
		.st3 {fill:#000000;fill-opacity:1;stroke:#000000;stroke-opacity:1;stroke-width:0.22222222222222}
		.st4 {fill:none;stroke:#000000;stroke-linecap:round;stroke-linejoin:round;stroke-width:0.72}
		.st5 {fill:#000000;font-family:Arial;font-size:0.666664em}
		.st6 {fill:none}
		.st7 {marker-end:url(#mrkr12-20);marker-start:url(#mrkr12-18);stroke:#000000;stroke-linecap:round;stroke-linejoin:round;stroke-width:0.24}
		.st8 {stroke:#000000;stroke-linecap:round;stroke-linejoin:round;stroke-width:0.24}
		.st9 {fill:#000000;fill-opacity:1;stroke:#000000;stroke-opacity:1;stroke-width:0.08695652173913}
		.st10 {fill:none;stroke:#000000;stroke-dasharray:0.72,1.44;stroke-linecap:round;stroke-linejoin:round;stroke-width:0.72}
		.st11 {font-size:1em}
		.st12 {fill:none;fill-rule:evenodd;font-size:12px;overflow:visible;stroke-linecap:square;stroke-miterlimit:3}
	]]>
	</style>

	<defs id="Markers">
		<g id="lend13">
			<path d="M 3 1 L 0 0 L 3 -1 L 3 1 " style="stroke:none"/>
		</g>
		<marker id="mrkr13-8" class="st3" refX="-13.5" orient="auto" markerUnits="strokeWidth" overflow="visible">
			<use xlink:href="#lend13" transform="scale(-4.5,-4.5) "/>
		</marker>
		<g id="lend12">
			<path d="M 3 1 L 0 0 L 3 -1 " style="stroke-linecap:round;stroke-linejoin:round;fill:none"/>
		</g>
		<marker id="mrkr12-18" class="st9" orient="auto" markerUnits="strokeWidth" overflow="visible">
			<use xlink:href="#lend12" transform="scale(11.5) "/>
		</marker>
		<marker id="mrkr12-20" class="st9" orient="auto" markerUnits="strokeWidth" overflow="visible">
			<use xlink:href="#lend12" transform="scale(-11.5,-11.5) "/>
		</marker>
	</defs>
	<g>
		<title>VBackground-1</title>
		<g id="shape1000-1">
			<title>Solid.1000</title>
			<rect x="0" y="0" width="596.492" height="138.583" class="st1"/>
		</g>
	</g>
	<g>
		<title>Page-1</title>
		<g id="shape39-3" transform="translate(21.2598,-78.3387)">
			<title>Sheet.39</title>
			<path d="M0 138.58 L544.45 138.58" class="st2"/>
		</g>
		<g id="shape52-9" transform="translate(28.9627,-78.3783)">
			<title>Sheet.52</title>
			<desc>C0</desc>
			<rect x="0" y="118.74" width="23.778" height="19.8425" class="st4"/>
			<text x="6.78" y="131.06" class="st5">C0</text>		</g>
		<g id="shape11-12" transform="translate(28.9627,-105.162)">
			<title>Duration (horizontal) .24</title>
			<desc>Central links Interval</desc>
			<path d="M0 143.64 L0 134.64 L0 143.64 ZM200.27 143.64 L200.27 134.64 L200.27 143.64 Z" class="st6"/>
			<path d="M0 139.14 L200.27 139.14" class="st7"/>
			<path d="M0 143.64 L0 134.64" class="st8"/>
			<path d="" class="st8"/>
			<path d="M200.27 143.64 L200.27 134.64" class="st8"/>
			<path d="" class="st8"/>
			<text x="62.72" y="136.3" class="st5">Central links Interval</text>		</g>
		<g id="shape63-26" transform="translate(60.4436,-78.3108)">
			<title>Sheet.63</title>
			<desc>C1</desc>
			<rect x="0" y="118.551" width="23.778" height="20.032" class="st4"/>
			<text x="6.78" y="130.97" class="st5">C1</text>		</g>
		<g id="shape64-29" transform="translate(91.2549,-78.3108)">
			<title>Sheet.64</title>
			<desc>C2</desc>
			<rect x="0" y="118.551" width="23.778" height="20.032" class="st4"/>
			<text x="6.78" y="130.97" class="st5">C2</text>		</g>
		<g id="shape65-32" transform="translate(229.188,-78.7016)">
			<title>Sheet.65</title>
			<desc>C0</desc>
			<rect x="0" y="118.551" width="23.778" height="20.032" class="st4"/>
			<text x="6.78" y="130.97" class="st5">C0</text>		</g>
		<g id="shape66-35" transform="translate(258.82,-78.5433)">
			<title>Sheet.66</title>
			<desc>C1</desc>
			<rect x="0" y="118.551" width="23.778" height="20.032" class="st4"/>
			<text x="6.78" y="130.97" class="st5">C1</text>		</g>
		<g id="shape67-38" transform="translate(288.033,-78.3661)">
			<title>Sheet.67</title>
			<desc>C2</desc>
			<rect x="0" y="118.551" width="23.778" height="20.032" class="st4"/>
			<text x="6.78" y="130.97" class="st5">C2</text>		</g>
		<g id="shape68-41" transform="translate(77.9528,-35.5559)">
			<title>Sheet.68</title>
			<desc>P</desc>
			<path d="M0 138.58 L23.78 138.58 L23.78 118.55 L0 118.55 L0 138.58 Z" class="st10"/>
			<text x="9.22" y="130.97" class="st5">P</text>		</g>
		<g id="shape72-44" transform="translate(121.74,-78.5031)">
			<title>Sheet.72</title>
			<desc>Initiator</desc>
			<rect x="0" y="118.551" width="31.4809" height="20.032" class="st4"/>
			<text x="2.62" y="130.97" class="st5">Initiator</text>		</g>
		<g id="shape73-47" transform="translate(78.1181,-8.55846)">
			<title>Sheet.73</title>
			<desc>Adv</desc>
			<path d="M0 138.58 L23.78 138.58 L23.78 118.55 L0 118.55 L0 138.58 Z" class="st10"/>
			<text x="5" y="130.97" class="st5">Adv</text>		</g>
		<g id="shape75-50" transform="translate(429.165,-78.7016)">
			<title>Sheet.75</title>
			<desc>C0</desc>
			<rect x="0" y="118.551" width="23.778" height="20.032" class="st4"/>
			<text x="6.78" y="130.97" class="st5">C0</text>		</g>
		<g id="shape76-53" transform="translate(457.795,-35.4331)">
			<title>Sheet.76</title>
			<desc>C1</desc>
			<path d="M0 138.58 L23.78 138.58 L23.78 118.55 L0 118.55 L0 138.58 Z" class="st10"/>
			<text x="6.78" y="130.97" class="st5">C1</text>		</g>
		<g id="shape77-56" transform="translate(488.607,-35.659)">
			<title>Sheet.77</title>
			<desc>C2</desc>
			<path d="M0 138.58 L23.78 138.58 L23.78 118.55 L0 118.55 L0 138.58 Z" class="st10"/>
			<text x="6.78" y="130.97" class="st5">C2</text>		</g>
		<g id="shape78-59" transform="translate(229.237,-105.162)">
			<title>Duration (horizontal) .78</title>
			<desc>Central links Interval</desc>
			<path d="M0 143.64 L0 134.64 L0 143.64 ZM200.27 143.64 L200.27 134.64 L200.27 143.64 Z" class="st6"/>
			<path d="M0 139.14 L200.27 139.14" class="st7"/>
			<path d="M0 143.64 L0 134.64" class="st8"/>
			<path d="" class="st8"/>
			<path d="M200.27 143.64 L200.27 134.64" class="st8"/>
			<path d="" class="st8"/>
			<text x="62.72" y="136.3" class="st5">Central links Interval</text>		</g>
		<g id="shape79-71" transform="translate(321.732,-78.3661)">
			<title>Sheet.79</title>
			<desc>Initiator</desc>
			<rect x="0" y="118.551" width="31.4809" height="20.032" class="st4"/>
			<text x="2.62" y="130.97" class="st5">Initiator</text>		</g>
		<g id="shape80-74" transform="translate(480.593,-78.5197)">
			<title>Sheet.80</title>
			<desc>P</desc>
			<rect x="0" y="118.551" width="23.778" height="20.032" class="st4"/>
			<text x="9.22" y="130.97" class="st5">P</text>		</g>
		<g id="shape81-77" transform="translate(521.575,-78.4749)">
			<title>Sheet.81</title>
			<desc>Initiator</desc>
			<rect x="0" y="118.551" width="31.4809" height="20.032" class="st4"/>
			<text x="2.62" y="130.97" class="st5">Initiator</text>		</g>
		<g id="shape82-80" transform="translate(503.896,-8.81875)">
			<title>Sheet.82</title>
			<desc>Adv</desc>
			<path d="M0 138.58 L23.78 138.58 L23.78 118.55 L0 118.55 L0 138.58 Z" class="st10"/>
			<text x="5" y="130.97" class="st5">Adv</text>		</g>
		<g id="shape85-83" transform="translate(78.1358,-62.2869)">
			<title>Duration (horizontal) .85</title>
			<desc>Peripheral link interval = 2*Central links Interval</desc>
			<path d="M0 143.64 L0 134.64 L0 143.64 ZM402.46 143.64 L402.46 134.64 L402.46 143.64 Z" class="st6"/>
			<path d="M0 139.14 L402.46 139.14" class="st7"/>
			<path d="M0 143.64 L0 134.64" class="st8"/>
			<path d="" class="st8"/>
			<path d="M402.46 143.64 L402.46 134.64" class="st8"/>
			<path d="" class="st8"/>
			<text x="114.47" y="137.5" class="st5">Peripheral link interval = 2*Central links Interval</text>		</g>
		<g id="shape87-95" transform="translate(77.3752,-6.4391)">
			<title>Duration (horizontal) .87</title>
			<desc>Advertiser interval + random delay ≥ 2*Central links Interval...</desc>
			<path d="M0 143.64 L0 134.64 L0 143.64 ZM426.52 143.64 L426.52 134.64 L426.52 143.64 Z" class="st6"/>
			<path d="M0 139.14 L426.52 139.14" class="st7"/>
			<path d="M0 143.64 L0 134.64" class="st8"/>
			<path d="" class="st8"/>
			<path d="M426.52 143.64 L426.52 134.64" class="st8"/>
			<path d="" class="st8"/>
			<text x="107.93" y="128.45" class="st5">Advertiser interval + random delay ≥ 2*Central links Interval<tspan
						x="133.92" dy="1.2em" class="st11">(Advertiser interval = 2*Central links Interval)</tspan></text>		</g>
		<g id="shape88-109" transform="translate(121.411,-119.619)">
			<title>Duration (horizontal) .88</title>
			<desc>Initiator interval = Central links Interval</desc>
			<path d="M0 143.64 L0 134.64 L0 143.64 ZM200.27 143.64 L200.27 134.64 L200.27 143.64 Z" class="st6"/>
			<path d="M0 139.14 L200.27 139.14" class="st7"/>
			<path d="M0 143.64 L0 134.64" class="st8"/>
			<path d="" class="st8"/>
			<path d="M200.27 143.64 L200.27 134.64" class="st8"/>
			<path d="" class="st8"/>
			<text x="34.88" y="137.79" class="st5">Initiator interval = Central links Interval</text>		</g>
		<g id="shape89-121" transform="translate(321.685,-119.339)">
			<title>Duration (horizontal) .89</title>
			<desc>Initiator interval = Central links Interval</desc>
			<path d="M0 143.37 L0 134.37 L0 143.37 ZM200.27 143.37 L200.27 134.37 L200.27 143.37 Z" class="st6"/>
			<path d="M0 138.87 L200.27 138.87" class="st7"/>
			<path d="M0 143.37 L0 134.37" class="st8"/>
			<path d="" class="st8"/>
			<path d="M200.27 143.37 L200.27 134.37" class="st8"/>
			<path d="" class="st8"/>
			<text x="31.04" y="136.3" class="st5">Initiator interval = Central links Interval</text>		</g>
	</g>
</svg>
