<?xml version="1.0" encoding="UTF-8" standalone="no"?>
<!DOCTYPE svg PUBLIC "-//W3C//DTD SVG 1.1//EN" "http://www.w3.org/Graphics/SVG/1.1/DTD/svg11.dtd">
<!-- Generated by Microsoft Visio, SVG Export bt_mesh_light_ctrl_nodes.svg Page-1 -->
<svg xmlns="http://www.w3.org/2000/svg" xmlns:xlink="http://www.w3.org/1999/xlink" xmlns:ev="http://www.w3.org/2001/xml-events"
		width="7.28299in" height="2.40129in" viewBox="0 0 524.375 172.893" xml:space="preserve" color-interpolation-filters="sRGB"
		class="st12">
	<style type="text/css">
	<![CDATA[
		.st1 {fill:#d9e1e2;stroke:none;stroke-width:1}
		.st2 {fill:#333f48;font-family:Calibri;font-size:1.00001em}
		.st3 {fill:#6ad1e3;stroke:none;stroke-width:1}
		.st4 {fill:#00a9ce;stroke:none;stroke-width:1}
		.st5 {fill:#0077c8;stroke:none;stroke-width:1}
		.st6 {fill:#ffffff;font-family:Calibri;font-size:1.00001em}
		.st7 {fill:#768692;stroke:none;stroke-width:1}
		.st8 {marker-end:url(#mrkr13-50);stroke:#333f48;stroke-linecap:butt;stroke-width:1}
		.st9 {fill:#333f48;fill-opacity:1;stroke:#333f48;stroke-opacity:1;stroke-width:0.28409090909091}
		.st10 {fill:none;stroke:none;stroke-width:1}
		.st11 {marker-start:url(#mrkr13-59);stroke:#333f48;stroke-linecap:butt;stroke-width:1}
		.st12 {fill:none;fill-rule:evenodd;font-size:12px;overflow:visible;stroke-linecap:square;stroke-miterlimit:3}
	]]>
	</style>

	<defs id="Markers">
		<g id="lend13">
			<path d="M 3 1 L 0 0 L 3 -1 L 3 1 " style="stroke:none"/>
		</g>
		<marker id="mrkr13-50" class="st9" refX="-10.56" orient="auto" markerUnits="strokeWidth" overflow="visible">
			<use xlink:href="#lend13" transform="scale(-3.52,-3.52) "/>
		</marker>
		<marker id="mrkr13-59" class="st9" refX="10.2" orient="auto" markerUnits="strokeWidth" overflow="visible">
			<use xlink:href="#lend13" transform="scale(3.52) "/>
		</marker>
	</defs>
	<g>
		<title>Page-1</title>
		<g id="shape40-1" transform="translate(1,-1)">
			<title>Nordic Dark Grey</title>
			<desc>Light fixture</desc>
			<rect x="0" y="1.99999" width="289.756" height="170.893" class="st1"/>
			<text x="115.59" y="16.8" class="st2">Light fixture</text>		</g>
		<g id="shape37-4" transform="translate(13.0671,-13.4615)">
			<title>Nordic Blue</title>
			<desc>Element 1</desc>
			<rect x="0" y="39.0757" width="127.94" height="133.817" class="st3"/>
			<text x="39.34" y="53.88" class="st2">Element 1</text>		</g>
		<g id="shape41-7" transform="translate(151.185,-74.1841)">
			<title>Nordic Blue.41</title>
			<desc>Element 2</desc>
			<rect x="0" y="99.7983" width="127.94" height="73.0945" class="st3"/>
			<text x="39.34" y="114.6" class="st2">Element 2</text>		</g>
		<g id="shape50-10" transform="translate(18.8826,-72.9302)">
			<title>Nordic Sky.50</title>
			<rect x="0" y="157.552" width="116.309" height="15.3408" class="st4"/>
		</g>
		<g id="shape51-12" transform="translate(18.8826,-92.6575)">
			<title>Nordic Sky.51</title>
			<rect x="0" y="157.552" width="116.309" height="15.3408" class="st4"/>
		</g>
		<g id="shape52-14" transform="translate(18.8826,-112.385)">
			<title>Nordic Sky.52</title>
			<rect x="0" y="157.552" width="116.309" height="15.3408" class="st4"/>
		</g>
		<g id="shape53-16" transform="translate(18.8826,-53.203)">
			<title>Nordic Sky.53</title>
			<rect x="0" y="157.552" width="116.309" height="15.3408" class="st4"/>
		</g>
		<g id="shape54-18" transform="translate(18.8826,-22.5734)">
			<title>Nordic Sky.54</title>
			<desc>Light Lightness Server</desc>
			<rect x="0" y="146.65" width="116.309" height="26.2431" class="st5"/>
			<text x="5.22" y="163.37" class="st6">Light Lightness Server</text>		</g>
		<g id="shape56-21" transform="translate(157,-82.181)">
			<title>Nordic Sky.56</title>
			<desc>Light Control Server</desc>
			<rect x="0" y="146.65" width="116.309" height="26.2431" class="st5"/>
			<text x="9.78" y="163.37" class="st6">Light Control Server</text>		</g>
		<g id="shape57-24" transform="translate(157,-112.385)">
			<title>Nordic Sky.57</title>
			<desc>Generic OnOff Server</desc>
			<rect x="0" y="157.552" width="116.309" height="15.3408" class="st7"/>
			<text x="6.15" y="168.82" class="st6">Generic OnOff Server</text>		</g>
		<g id="shape69-27" transform="translate(383.804,-89.6495)">
			<title>Nordic Blue.69</title>
			<desc>Light switch</desc>
			<rect x="0" y="90.6495" width="139.571" height="82.2432" class="st1"/>
			<text x="40.83" y="105.45" class="st2">Light switch</text>		</g>
		<g id="shape70-30" transform="translate(389.619,-95.1964)">
			<title>Nordic Blue.70</title>
			<desc>Element 1</desc>
			<rect x="0" y="118.962" width="127.94" height="53.9309" class="st3"/>
			<text x="39.34" y="133.76" class="st2">Element 1</text>		</g>
		<g id="shape72-33" transform="translate(395.435,-112.385)">
			<title>Nordic Sky.72</title>
			<desc>Generic OnOff Client</desc>
			<rect x="0" y="157.552" width="116.309" height="15.3408" class="st7"/>
			<text x="7.67" y="168.82" class="st6">Generic OnOff Client</text>		</g>
		<g id="shape38-36" transform="translate(383.804,-1)">
			<title>Nordic Blue.38</title>
			<desc>Motion sensor</desc>
			<rect x="0" y="93.3764" width="139.571" height="79.5163" class="st1"/>
			<text x="34.35" y="108.18" class="st2">Motion sensor</text>		</g>
		<g id="shape63-39" transform="translate(389.619,-6.99648)">
			<title>Nordic Blue.63</title>
			<desc>Element 1</desc>
			<rect x="0" y="121.481" width="127.94" height="51.4118" class="st3"/>
			<text x="39.34" y="136.28" class="st2">Element 1</text>		</g>
		<g id="shape65-42" transform="translate(395.435,-10.957)">
			<title>Nordic Sky.65</title>
			<desc>Sensor Server</desc>
			<rect x="0" y="146.65" width="116.309" height="26.2431" class="st5"/>
			<text x="24.68" y="163.37" class="st6">Sensor Server</text>		</g>
		<g id="shape84-45" transform="translate(215.155,-82.181)">
			<title>Dynamic connector.84</title>
			<path d="M0 172.89 L0 221.89 L-69.4 221.89" class="st8"/>
		</g>
		<g id="shape87-51" transform="translate(159.031,-35.695)">
			<title>Sheet.87</title>
			<desc>Control</desc>
			<rect x="0" y="155.946" width="44.7874" height="16.9466" class="st10"/>
			<text x="4.24" y="168.02" class="st2">Control</text>		</g>
		<g id="shape88-54" transform="translate(273.31,-95.3026)">
			<title>Dynamic connector.88</title>
			<path d="M10.2 172.89 L10.56 172.89 L98.04 172.89 L98.04 244.12 L122.12 244.12" class="st11"/>
		</g>
		<g id="shape90-60" transform="translate(273.31,-112.969)">
			<title>Dynamic connector.90</title>
			<path d="M10.2 165.81 L10.56 165.81 L122.12 165.81" class="st11"/>
		</g>
		<g id="shape92-65" transform="translate(289.142,-95.3026)">
			<title>Sheet.92</title>
			<desc>Sensor reading</desc>
			<rect x="0" y="157.552" width="82.2047" height="15.3408" class="st10"/>
			<text x="4.79" y="168.82" class="st2">Sensor reading</text>		</g>
		<g id="shape94-68" transform="translate(307.85,-121.454)">
			<title>Sheet.94</title>
			<desc>On/Off</desc>
			<rect x="0" y="160.137" width="44.7874" height="12.7559" class="st10"/>
			<text x="5.32" y="170.11" class="st2">On/Off</text>		</g>
	</g>
</svg>
