<?xml version="1.0" encoding="UTF-8" standalone="no"?>
<!DOCTYPE svg PUBLIC "-//W3C//DTD SVG 1.1//EN" "http://www.w3.org/Graphics/SVG/1.1/DTD/svg11.dtd">
<!-- Generated by Microsoft Visio, SVG Export Architecture_With_RTOS.svg Page-1 -->
<svg xmlns="http://www.w3.org/2000/svg" xmlns:xlink="http://www.w3.org/1999/xlink" xmlns:ev="http://www.w3.org/2001/xml-events"
		width="7.17308in" height="7.1259in" viewBox="0 0 516.462 513.065" xml:space="preserve" color-interpolation-filters="sRGB"
		class="st19">
	<style type="text/css">
	<![CDATA[
		.st1 {fill:#00a9ce;stroke:none;stroke-linecap:round;stroke-linejoin:round;stroke-width:0.75}
		.st2 {fill:none;stroke:none;stroke-linecap:butt;stroke-width:0.75}
		.st3 {fill:#ffffff;font-family:Arial;font-size:0.833336em;font-stretch:semi-condensed}
		.st4 {fill:#ffffff;font-family:Arial;font-size:0.833336em;font-stretch:normal}
		.st5 {fill:#feffff;font-family:Arial;font-size:0.833336em;font-stretch:normal}
		.st6 {font-size:1em}
		.st7 {fill:#333f48;font-family:Arial;font-size:0.833336em}
		.st8 {fill:#ffffff;font-family:Arial;font-size:0.833336em}
		.st9 {fill:none;stroke:none;stroke-linecap:round;stroke-linejoin:round;stroke-width:0.75}
		.st10 {fill:#333f48;font-family:Arial;font-size:0.833336em;font-stretch:semi-condensed}
		.st11 {fill:#00a9ce;stroke:none;stroke-linecap:round;stroke-linejoin:round;stroke-width:0.641055}
		.st12 {fill:#00a9ce;stroke:none;stroke-linecap:round;stroke-linejoin:round;stroke-width:0.621042}
		.st13 {fill:#00a9ce;stroke:none;stroke-linecap:round;stroke-linejoin:round;stroke-width:0.566707}
		.st14 {fill:#00a9ce;stroke:none;stroke-linecap:round;stroke-linejoin:round;stroke-width:0.854501}
		.st15 {fill:#00a9ce;stroke:none;stroke-linecap:round;stroke-linejoin:round;stroke-width:0.751697}
		.st16 {fill:none;stroke:#333f48;stroke-width:0.99975}
		.st17 {marker-end:url(#mrkr4-71);marker-start:url(#mrkr4-69);stroke:#333f48;stroke-linecap:butt;stroke-width:1}
		.st18 {fill:#333f48;fill-opacity:1;stroke:#333f48;stroke-opacity:1;stroke-width:0.28409090909091}
		.st19 {fill:none;fill-rule:evenodd;font-size:12px;overflow:visible;stroke-linecap:square;stroke-miterlimit:3}
	]]>
	</style>

	<defs id="Markers">
		<g id="lend4">
			<path d="M 2 1 L 0 0 L 2 -1 L 2 1 " style="stroke:none"/>
		</g>
		<marker id="mrkr4-69" class="st18" refX="6.68" orient="auto" markerUnits="strokeWidth" overflow="visible">
			<use xlink:href="#lend4" transform="scale(3.52) "/>
		</marker>
		<marker id="mrkr4-71" class="st18" refX="-7.04" orient="auto" markerUnits="strokeWidth" overflow="visible">
			<use xlink:href="#lend4" transform="scale(-3.52,-3.52) "/>
		</marker>
	</defs>
	<g>
		<title>Page-1</title>
		<g id="shape9-1" transform="translate(116.153,-98.9694)">
			<title>path5296</title>
			<path d="M171.87 256.62 L171.87 312.3 L85.71 312.3 L85.71 513.06 L0 513.06 L0 256.62 L171.87 256.62 Z" class="st1"/>
		</g>
		<g id="shape10-3" transform="translate(116.153,-220.771)">
			<title>text5298</title>
			<desc>&#60;RTOS&#62; drivers</desc>
			<rect x="0" y="500.22" width="85.9357" height="12.8446" class="st2"/>
			<text x="8.86" y="509.64" class="st3">&#60;RTOS&#62; drivers</text>		</g>
		<g id="shape12-6" transform="translate(401.048,-383.309)">
			<title>path5305</title>
			<desc>Bluetooth Host</desc>
			<rect x="0" y="461.542" width="103.084" height="51.5226" class="st1"/>
			<text x="18.93" y="490.3" class="st4">Bluetooth Host</text>		</g>
		<g id="shape15-9" transform="translate(0.375,-383.742)">
			<title>path5332</title>
			<path d="M504.27 384.12 L504.27 440.13 L332.2 440.13 L332.2 513.06 L0 513.06 L0 384.12 L504.27 384.12 Z" class="st1"/>
		</g>
		<g id="shape20-11" transform="translate(24.3878,-98.8468)">
			<title>path5348</title>
			<desc>&#60;RTOS&#62; Kernel</desc>
			<rect x="0" y="256.93" width="83.1791" height="256.134" class="st1"/>
			<text x="7.6" y="388" class="st4">&#60;RTOS&#62; Kernel</text>		</g>
		<g id="shape23-14" transform="translate(399.689,-251.827)">
			<title>path5357</title>
			<desc>Bluetooth adaption layer</desc>
			<rect x="0" y="409.91" width="104.958" height="103.154" class="st1"/>
			<text x="11.02" y="458.49" class="st5">Bluetooth adaption <tspan x="41.71" dy="1.2em" class="st6">layer</tspan></text>		</g>
		<g id="shape56-18" transform="translate(457.726,-362.911)">
			<title>text5397</title>
			<desc>HCI</desc>
			<rect x="0" y="499.963" width="32.7535" height="13.1014" class="st2"/>
			<text x="0" y="509.51" class="st7">HCI</text>		</g>
		<g id="shape63-21" transform="translate(208.931,-237.615)">
			<title>path5409</title>
			<desc>Driver adaption layer</desc>
			<rect x="0" y="472.796" width="79.0102" height="40.2692" class="st1"/>
			<text x="5.1" y="489.93" class="st5">Driver adaption <tspan x="28.51" dy="1.2em" class="st6">layer</tspan></text>		</g>
		<g id="shape81-25" transform="translate(0.375,-45.0173)">
			<title>path5433</title>
			<rect x="0" y="493.231" width="311.428" height="19.8339" class="st1"/>
		</g>
		<g id="shape88-27" transform="translate(0.375,-58.4023)">
			<title>path5443</title>
			<rect x="0" y="184.25" width="13.5835" height="328.815" class="st1"/>
		</g>
		<g id="shape91-29" transform="translate(0.375,-0.375)">
			<title>path5489</title>
			<desc>Hardware peripherals</desc>
			<rect x="0" y="490.756" width="504.272" height="22.3086" class="st1"/>
			<text x="204.34" y="504.91" class="st8">Hardware peripherals</text>		</g>
		<g id="shape93-32" transform="translate(201.984,-6.5836)">
			<title>path5496</title>
			<rect x="0" y="499.691" width="108.158" height="13.3742" class="st9"/>
		</g>
		<g id="shape107-34" transform="translate(208.931,-74.9552)">
			<title>text5518</title>
			<desc>IRQ forwarding</desc>
			<rect x="0" y="499.328" width="85.9357" height="13.7371" class="st2"/>
			<text x="18.69" y="509.2" class="st7">IRQ forwarding</text>		</g>
		<g id="shape124-37" transform="translate(379.126,-194.932)">
			<title>text4924</title>
			<desc>SoftDevice Controller</desc>
			<rect x="0" y="497.78" width="129.308" height="15.2847" class="st2"/>
			<text x="17.41" y="508.42" class="st7">SoftDevice Controller</text>		</g>
		<g id="shape127-40" transform="translate(213.725,-194.932)">
			<title>text4924-6</title>
			<desc>MPSL</desc>
			<rect x="0" y="497.78" width="134.831" height="15.2848" class="st2"/>
			<text x="55.14" y="508.42" class="st10">MPSL</text>		</g>
		<g id="shape130-43" transform="translate(281.222,-152.116)">
			<title>path4959</title>
			<desc>Multiprotocol API</desc>
			<rect x="0" y="475.688" width="67.3334" height="37.377" class="st11"/>
			<text x="5.32" y="491.38" class="st8">Multiprotocol <tspan x="25.61" dy="1.2em" class="st6">API</tspan></text>		</g>
		<g id="shape132-47" transform="translate(213.725,-105.388)">
			<title>path4970</title>
			<desc>SoC API</desc>
			<path d="M63.19 428.96 L63.19 466.42 L40.11 466.42 L40.11 513.06 L0 513.06 L0 428.96 L63.19 428.96 Z" class="st12"/>
			<text x="12.41" y="449.96" class="st4">SoC API</text>		</g>
		<g id="shape136-50" transform="translate(259.136,-105.388)">
			<title>path4981</title>
			<desc>Radio Scheduler</desc>
			<rect x="0" y="472.041" width="89.538" height="41.0238" class="st13"/>
			<text x="9.66" y="495.55" class="st3">Radio Scheduler</text>		</g>
		<g id="shape139-53" transform="translate(379.126,-105.897)">
			<title>path4906-7</title>
			<desc>Link Layer</desc>
			<rect x="0" y="429.449" width="69.5415" height="83.6155" class="st14"/>
			<text x="11.7" y="474.26" class="st8">Link Layer</text>		</g>
		<g id="shape142-56" transform="translate(454.619,-105.991)">
			<title>path4906-7-0</title>
			<desc>SoC API</desc>
			<rect x="0" y="429.376" width="53.8152" height="83.6886" class="st15"/>
			<text x="7.73" y="474.22" class="st8">SoC API</text>		</g>
		<g id="shape145-59" transform="translate(372.27,-100.072)">
			<title>rect7120</title>
			<rect x="0" y="398.545" width="143.192" height="114.52" class="st16"/>
		</g>
		<g id="shape146-61" transform="translate(207.558,-100.072)">
			<title>rect7120-2</title>
			<rect x="0" y="398.545" width="147.744" height="114.52" class="st16"/>
		</g>
		<g id="shape158-63" transform="translate(58.8908,-385.131)">
			<title>Dynamic connector</title>
			<path d="M7.09 519.74 L7.09 520.1 L7.09 536.17" class="st17"/>
		</g>
		<g id="shape159-72" transform="translate(195.002,-385.131)">
			<title>Dynamic connector.159</title>
			<path d="M7.09 519.74 L7.09 520.1 L7.09 535.74" class="st17"/>
		</g>
		<g id="shape160-79" transform="translate(241.252,-299.332)">
			<title>Dynamic connector.160</title>
			<path d="M7.07 519.74 L7.07 520.1 L7.1 527.47" class="st17"/>
		</g>
		<g id="shape161-86" transform="translate(308.239,-384.564)">
			<title>Dynamic connector.161</title>
			<path d="M7.09 519.74 L7.09 520.1 L7.09 676" class="st17"/>
		</g>
		<g id="shape162-93" transform="translate(255.237,-237.615)">
			<title>Dynamic connector.162</title>
			<path d="M-7.05 519.74 L-7.05 520.1 L-7.12 528.49" class="st17"/>
		</g>
		<g id="shape163-100" transform="translate(356.428,-150.246)">
			<title>Dynamic connector.163</title>
			<path d="M6.68 505.98 L7.04 505.98 L8.8 505.98" class="st17"/>
		</g>
		<g id="shape164-107" transform="translate(377.688,-456.682)">
			<title>Dynamic connector.164</title>
			<path d="M7.09 519.74 L7.09 520.1 L7.09 747.09" class="st17"/>
		</g>
		<g id="shape165-114" transform="translate(459.466,-383.309)">
			<title>Dynamic connector.165</title>
			<path d="M-6.98 519.74 L-6.98 520.1 L-7.19 534.35" class="st17"/>
		</g>
		<g id="shape166-121" transform="translate(445.503,-455.997)">
			<title>Dynamic connector.166</title>
			<path d="M7.09 519.74 L7.09 520.1 L7.09 527.19" class="st17"/>
		</g>
		<g id="shape167-128" transform="translate(26.6147,-418.62)">
			<title>path5332.167</title>
			<desc>Application</desc>
			<rect x="0" y="475.688" width="261.409" height="37.377" class="st9"/>
			<text x="106.24" y="497.38" class="st8">Application</text>		</g>
		<g id="shape168-131" transform="translate(458.896,-251.827)">
			<title>Dynamic connector.168</title>
			<path d="M-7.03 519.74 L-7.03 520.1 L-7.14 542.42" class="st17"/>
		</g>
		<g id="shape169-138" transform="translate(436.78,-100.072)">
			<title>Dynamic connector.169</title>
			<path d="M7.09 519.74 L7.09 520.1 L7.09 582.67" class="st17"/>
		</g>
		<g id="shape170-145" transform="translate(330.917,-100.072)">
			<title>Dynamic connector.170</title>
			<path d="M7.09 519.74 L7.09 520.1 L7.09 583.4" class="st17"/>
		</g>
		<g id="shape171-152" transform="translate(291.231,-100.295)">
			<title>Dynamic connector.171</title>
			<path d="M7.09 519.74 L7.09 520.1 L7.09 541.47" class="st17"/>
		</g>
		<g id="shape172-159" transform="translate(246.114,-44.5954)">
			<title>Dynamic connector.172</title>
			<path d="M7.09 519.74 L7.09 520.1 L7.09 528.05" class="st17"/>
		</g>
		<g id="shape173-166" transform="translate(153.751,-98.9694)">
			<title>Dynamic connector.173</title>
			<path d="M7.09 519.74 L7.09 520.1 L7.09 540.18" class="st17"/>
		</g>
		<g id="shape174-173" transform="translate(73.0139,-98.8468)">
			<title>Dynamic connector.174</title>
			<path d="M-7.06 519.74 L-7.06 520.1 L-7.12 540.02" class="st17"/>
		</g>
	</g>
</svg>
