<?xml version="1.0" encoding="UTF-8" standalone="no"?>
<!DOCTYPE svg PUBLIC "-//W3C//DTD SVG 1.1//EN" "http://www.w3.org/Graphics/SVG/1.1/DTD/svg11.dtd">
<!-- Generated by Microsoft Visio, SVG Export Memfault_architecture.svg Page-1 -->
<svg xmlns="http://www.w3.org/2000/svg" xmlns:xlink="http://www.w3.org/1999/xlink" xmlns:ev="http://www.w3.org/2001/xml-events"
		xmlns:v="http://schemas.microsoft.com/visio/2003/SVGExtensions/" width="5.568in" height="1.90485in"
		viewBox="0 0 400.896 137.149" xml:space="preserve" color-interpolation-filters="sRGB" class="st13">
	<v:documentProperties v:langID="1035" v:viewMarkup="false"/>

	<style type="text/css">
	<![CDATA[
		.st1 {fill:#00a9ce;stroke:none;stroke-width:1}
		.st2 {fill:#ffffff;font-family:Arial;font-size:0.833336em}
		.st3 {font-size:1em}
		.st4 {fill:#768692;stroke:none;stroke-width:1}
		.st5 {marker-end:url(#mrkr4-14);stroke:#00a9ce;stroke-linecap:butt;stroke-width:1}
		.st6 {fill:#00a9ce;fill-opacity:1;stroke:#00a9ce;stroke-opacity:1;stroke-width:0.28409090909091}
		.st7 {fill:none;stroke:none;stroke-width:1}
		.st8 {fill:#00a9ce;font-family:Arial;font-size:0.666664em}
		.st9 {fill:#00a9ce;stroke:#feffff;stroke-width:1}
		.st10 {fill:#ffffff;font-family:Arial;font-size:0.666664em}
		.st11 {fill:#feffff;stroke:#008cab;stroke-linecap:butt;stroke-width:1}
		.st12 {fill:#00a9ce;font-family:Arial;font-size:0.833336em}
		.st13 {fill:none;fill-rule:evenodd;font-size:12px;overflow:visible;stroke-linecap:square;stroke-miterlimit:3}
	]]>
	</style>

	<defs id="Markers">
		<g id="lend4">
			<path d="M 2 1 L 0 0 L 2 -1 L 2 1 " style="stroke:none"/>
		</g>
		<marker id="mrkr4-14" class="st6" v:arrowType="4" v:arrowSize="2" v:setback="7.04" refX="-7.04" orient="auto"
				markerUnits="strokeWidth" overflow="visible">
			<use xlink:href="#lend4" transform="scale(-3.52,-3.52) "/>
		</marker>
	</defs>
	<g v:mID="0" v:index="1" v:groupContext="foregroundPage">
		<title>Page-1</title>
		<v:pageProperties v:drawingScale="0.0393701" v:pageScale="0.0393701" v:drawingUnits="24" v:shadowOffsetX="8.50394"
				v:shadowOffsetY="-8.50394"/>
		<v:layer v:name="Connector" v:index="0"/>
		<g id="shape5-1" v:mID="5" v:groupContext="shape" transform="translate(1,-1.0859)">
			<title>Nordic Blue.10</title>
			<desc>nRF Connect SDK</desc>
			<v:textBlock v:margins="rect(4,4,4,4)"/>
			<v:textRect cx="38.2677" cy="94.3868" width="76.54" height="85.5242"/>
			<rect x="0" y="51.6246" width="76.5354" height="85.5242" class="st1"/>
			<text x="8.81" y="91.39" class="st2" v:langID="1044"><v:paragraph v:horizAlign="1" v:bulletSize="0.166667"/><v:tabList/>nRF Connect <tspan
						x="27.99" dy="1.2em" class="st3">SDK</tspan></text>		</g>
		<g id="shape7-5" v:mID="7" v:groupContext="shape" transform="translate(162.575,-1)">
			<title>Nordic Middle Grey</title>
			<desc>memfault-firmware-sdk</desc>
			<v:textBlock v:margins="rect(4,4,4,4)"/>
			<v:textRect cx="38.2677" cy="94.3868" width="76.54" height="85.5242"/>
			<rect x="0" y="51.6246" width="76.5354" height="85.5242" class="st4"/>
			<text x="16.04" y="91.39" class="st2" v:langID="1044"><v:paragraph v:horizAlign="1" v:bulletSize="0.166667"/><v:tabList/>memfault-<tspan
						x="9.65" dy="1.2em" class="st3">firmware</tspan>-sdk</text>		</g>
		<g id="shape10-9" v:mID="10" v:groupContext="shape" v:layerMember="0" transform="translate(77.5354,-50.8917)">
			<title>Dynamic connector</title>
			<path d="M0 144.19 L78 144.27" class="st5"/>
		</g>
		<g id="shape11-15" v:mID="11" v:groupContext="shape" transform="translate(78.9527,-40.7709)">
			<title>Sheet.11</title>
			<desc>Debug information</desc>
			<v:textBlock v:margins="rect(4,4,4,4)" v:tabSpace="42.5197"/>
			<v:textRect cx="38.2677" cy="128.645" width="76.54" height="17.0079"/>
			<rect x="0" y="120.141" width="76.5354" height="17.0079" class="st7"/>
			<text x="5.58" y="131.04" class="st8" v:langID="1044"><v:paragraph v:horizAlign="1"/><v:tabList/>Debug information</text>		</g>
		<g id="group20-18" transform="translate(318.48,-80.456)" v:mID="20" v:groupContext="group">
			<v:custProps>
				<v:cp v:nameU="ShapeClass" v:lbl="ShapeClass" v:prompt="" v:type="0" v:format="" v:sortKey="" v:invis="true"
						v:ask="false" v:langID="1033" v:cal="0" v:val="VT4(Location)"/>
				<v:cp v:nameU="ShapeType" v:lbl="ShapeType" v:prompt="" v:type="0" v:format="" v:sortKey="" v:invis="true"
						v:ask="false" v:langID="1033" v:cal="0" v:val="VT4(Cloud)"/>
			</v:custProps>
			<v:userDefs>
				<v:ud v:nameU="visVersion" v:prompt="" v:val="VT0(15):26"/>
				<v:ud v:nameU="ShapeClass" v:prompt="" v:val="VT0(5):26"/>
				<v:ud v:nameU="SolSH" v:prompt="" v:val="VT15({BF0433D9-CD73-4EB5-8390-8653BE590246}):41"/>
				<v:ud v:nameU="visLegendShape" v:prompt="" v:val="VT0(2):26"/>
			</v:userDefs>
			<title>Cloud</title>
			<g id="shape21-19" v:mID="21" v:groupContext="shape" transform="translate(0,-12.0949)">
				<title>Sheet.21</title>
				<path d="M57.33 113.5 C56.98 110.82 54.12 108.73 50.61 108.73 C49.62 108.73 48.68 108.91 47.83 109.21 C46.18 106.57
							 42.76 104.65 36.36 104.8 C28.03 105 18.17 108.2 16.19 113.87 C13.81 114.26 12.29 115.36 11.38 116.82
							 C11.01 116.79 10.63 116.77 10.25 116.77 C4.76 116.77 0.55 120.18 0.31 124.38 C0 129.82 4.76 132 10.25
							 132 C11.03 132 11.79 131.93 12.52 131.79 C13.66 132.43 15.14 132.82 16.77 132.82 C18.28 132.82 19.66
							 132.48 20.76 131.93 C22.87 134.99 27.21 137.15 32.22 136.9 C37.48 136.64 40.64 135.68 42.51 134.2 C42.63
							 134.19 42.73 134.19 42.85 134.18 C48.74 133.53 51.33 132.23 52.16 130.09 C52.32 130.09 52.48 130.1 52.63
							 130.1 C60.27 130.09 66.45 128.19 66.45 121.53 C66.45 117.83 62.64 114.7 57.33 113.5 Z" class="st9"/>
			</g>
		</g>
		<g id="shape22-21" v:mID="22" v:groupContext="shape" transform="translate(308.278,-100.298)">
			<title>Sheet.22</title>
			<desc>Memfault cloud</desc>
			<v:textBlock v:margins="rect(4,4,4,4)" v:tabSpace="42.5197"/>
			<v:textRect cx="43.937" cy="131.48" width="87.88" height="11.3386"/>
			<rect x="0" y="125.81" width="87.874" height="11.3386" class="st7"/>
			<text x="16.81" y="133.88" class="st10" v:langID="1044"><v:paragraph v:horizAlign="1"/><v:tabList/>Memfault cloud</text>		</g>
		<g id="shape25-24" v:mID="25" v:groupContext="shape" v:layerMember="0"
				transform="translate(186.155,-34.4017) rotate(-28.4713)">
			<title>1-D single</title>
			<v:userDefs>
				<v:ud v:nameU="visVersion" v:val="VT0(15):26"/>
			</v:userDefs>
			<path d="M0 115.89 L0 130.06 L76.75 130.06 L76.75 137.15 L83.84 122.98 L76.75 108.8 L76.75 115.89 L0 115.89 Z"
					class="st11"/>
		</g>
		<g id="shape26-26" v:mID="26" v:groupContext="shape" transform="translate(303.518,-1)">
			<title>Nordic Middle Grey.26</title>
			<desc>Memfault web application (continuous monitoring)</desc>
			<v:textBlock v:margins="rect(4,4,4,4)"/>
			<v:textRect cx="48.189" cy="112.103" width="96.38" height="50.0912"/>
			<rect x="0" y="87.0577" width="96.3779" height="50.0912" class="st4"/>
			<text x="23.29" y="104.9" class="st10" v:langID="1044"><v:paragraph v:horizAlign="1" v:bulletSize="0.166667"/><v:tabList/>Memfault web <tspan
						x="7.27" dy="1.2em" class="st3">application (continuous </tspan><tspan x="28.18" dy="1.2em" class="st3">monitoring)</tspan></text>		</g>
		<g id="shape28-31" v:mID="28" v:groupContext="shape" v:layerMember="0" transform="translate(344.62,-92.8638)">
			<title>Dynamic connector.28</title>
			<path d="M7.09 137.15 L7.09 171.88" class="st5"/>
		</g>
		<g id="shape29-36" v:mID="29" v:groupContext="shape" transform="translate(223.52,-90.9738)">
			<title>Sheet.29</title>
			<desc>Data broken into chunks</desc>
			<v:textBlock v:margins="rect(4,4,4,4)" v:tabSpace="42.5197"/>
			<v:textRect cx="43.937" cy="124.691" width="87.88" height="24.9153"/>
			<rect x="0" y="112.234" width="87.874" height="24.9153" class="st7"/>
			<text x="7.25" y="121.69" class="st12" v:langID="1044"><v:paragraph v:horizAlign="1"/><v:tabList/>Data broken into <tspan
						x="28.09" dy="1.2em" class="st3">chunks</tspan></text>		</g>
	</g>
</svg>
